<?xml version="1.0" encoding="UTF-8" standalone="no"?>
<svg
   xmlns:dc="http://purl.org/dc/elements/1.1/"
   xmlns:cc="http://creativecommons.org/ns#"
   xmlns:rdf="http://www.w3.org/1999/02/22-rdf-syntax-ns#"
   xmlns:svg="http://www.w3.org/2000/svg"
   xmlns="http://www.w3.org/2000/svg"
   xmlns:sodipodi="http://sodipodi.sourceforge.net/DTD/sodipodi-0.dtd"
   xmlns:inkscape="http://www.inkscape.org/namespaces/inkscape"
   width="64"
   height="64"
   viewBox="0 0 16.933333 16.933333"
   version="1.1"
   id="svg8"
   sodipodi:docname="seren_accompanying_64x64.svg"
   inkscape:version="1.0.2-2 (e86c870879, 2021-01-15)">
  <defs
     id="defs2" />
  <sodipodi:namedview
     id="base"
     pagecolor="#ffffff"
     bordercolor="#666666"
     borderopacity="1.0"
     inkscape:pageopacity="0.0"
     inkscape:pageshadow="2"
     inkscape:zoom="8"
     inkscape:cx="18.687003"
     inkscape:cy="36.432909"
     inkscape:document-units="mm"
     inkscape:current-layer="layer1"
     inkscape:document-rotation="0"
     showgrid="false"
     inkscape:snap-global="false"
     fit-margin-top="0"
     fit-margin-left="0"
     fit-margin-right="0"
     fit-margin-bottom="0"
     inkscape:window-width="1540"
     inkscape:window-height="967"
     inkscape:window-x="1806"
     inkscape:window-y="64"
     inkscape:window-maximized="0"
     units="px" />
  <metadata
     id="metadata5">
    <rdf:RDF>
      <cc:Work
         rdf:about="">
        <dc:format>image/svg+xml</dc:format>
        <dc:type
           rdf:resource="http://purl.org/dc/dcmitype/StillImage" />
        <dc:title></dc:title>
      </cc:Work>
    </rdf:RDF>
  </metadata>
  <g
     inkscape:label="Calque 1"
     inkscape:groupmode="layer"
     id="layer1"
     transform="translate(-44.581036,-28.552681)">
    <text
       xml:space="preserve"
       style="font-style:normal;font-weight:normal;font-size:10.5833px;line-height:1.25;font-family:sans-serif;fill:#000000;fill-opacity:1;stroke:none;stroke-width:0.264583"
       x="51.724785"
       y="39.66518"
       id="text1411"><tspan
         sodipodi:role="line"
         id="tspan1409"
         x="51.724785"
         y="39.66518"
         style="stroke-width:0.264583"></tspan></text>
    <path
       style="fill:#ffffff;stroke-width:2.12598;stroke-linecap:round;stroke-miterlimit:4;stroke-dasharray:none"
       d=""
       id="path1772"
       transform="matrix(0.26458333,0,0,0.26458333,44.581036,28.552681)" />
    <path
       style="fill:#000000;stroke-width:0.0292816"
       d="m 47.7032,44.464831 c -0.18939,-0.08181 -0.181914,0.04017 -0.181914,-2.968313 0,-1.496955 -0.008,-2.742578 -0.01777,-2.768053 -0.01063,-0.02763 -0.05233,-0.04632 -0.103432,-0.04632 -0.04711,0 -0.13033,-0.01866 -0.184937,-0.04148 -0.199174,-0.08322 -0.250214,0.04164 -0.250214,0.612135 0,0.405399 -0.0027,0.423531 -0.07298,0.507166 -0.131321,0.156067 -0.375347,0.127616 -0.469654,-0.05476 -0.04122,-0.07971 -0.04696,-0.170549 -0.03757,-0.595162 0.01051,-0.473613 0.01532,-0.509238 0.08839,-0.64937 0.06869,-0.131715 0.231738,-0.309916 0.349921,-0.382423 0.023,-0.01411 0.05623,-0.07178 0.07386,-0.128147 0.01761,-0.05637 0.255702,-0.721791 0.529079,-1.47872 0.273376,-0.75693 0.590149,-1.637511 0.703937,-1.956847 0.113785,-0.319335 0.250695,-0.654142 0.304235,-0.744015 0.207707,-0.348657 0.503154,-0.577161 0.838148,-0.64824 0.229149,-0.04861 0.316508,-0.04089 0.443381,0.03919 0.423408,0.267286 0.986096,0.281596 1.473823,0.03749 l 0.236557,-0.118399 0.201843,0.03125 c 0.526628,0.08152 0.86981,0.427095 1.136514,1.144465 l 0.08327,0.223972 0.0018,-0.497788 c 0.0019,-0.529244 0.03779,-0.764503 0.150614,-0.989176 0.171344,-0.341221 0.48145,-0.614562 0.841354,-0.741601 0.176773,-0.0624 0.244344,-0.06886 0.725507,-0.06943 l 0.530579,-6.2e-4 0.0352,0.183009 c 0.04967,0.258275 0.221058,0.761775 0.326883,0.960325 0.08688,0.163007 0.289901,0.39277 0.251384,0.284501 -0.04425,-0.124373 -0.0499,-0.344315 -0.01338,-0.520105 l 0.03954,-0.19033 0.210188,-0.0086 c 0.236577,-0.0097 0.20666,-0.04169 0.270487,0.28956 0.02252,0.116829 0.02255,0.204074 1.1e-4,0.304022 -0.01727,0.0771 -0.02596,0.145621 -0.0193,0.15228 0.02207,0.02207 0.185926,-0.20747 0.275482,-0.385897 0.09743,-0.194097 0.216553,-0.552359 0.287717,-0.865246 l 0.0463,-0.203532 0.429557,4.31e-4 c 0.637719,6.42e-4 0.960097,0.09742 1.337287,0.401412 0.3103,0.250089 0.433369,0.450549 0.862655,1.405128 0.361367,0.803552 0.392342,0.886139 0.393044,1.047984 8.98e-4,0.210378 -0.07836,0.383475 -0.22787,0.497504 -0.151387,0.115464 -2.58961,0.922863 -2.784347,0.92201 -0.604992,-0.0027 -0.85159,-0.783654 -0.357982,-1.133764 0.05089,-0.0361 0.491471,-0.198608 0.979067,-0.361137 0.487597,-0.16253 0.886539,-0.305966 0.886539,-0.318747 0,-0.03554 -0.373897,-0.847118 -0.438228,-0.951209 -0.05338,-0.08641 -0.248233,-0.221223 -0.31973,-0.221223 -0.02282,0 -0.03262,0.167062 -0.03262,0.55635 v 0.556351 h -0.07589 c -0.132573,0 -1.049234,0.317586 -1.194625,0.413887 -0.394496,0.261304 -0.556536,0.810639 -0.363114,1.231012 0.167908,0.364921 0.479686,0.580417 0.872312,0.602931 0.185796,0.01063 0.261318,-8.97e-4 0.490468,-0.07503 l 0.270854,-0.08762 -6.41e-4,3.635142 c -6.41e-4,3.5938 -0.0013,3.636642 -0.06028,3.76691 -0.07377,0.162981 -0.181557,0.279187 -0.334369,0.360511 -0.165132,0.08788 -0.480191,0.08707 -0.64837,-0.0017 -0.152945,-0.0807 -0.312994,-0.265896 -0.357145,-0.413259 -0.02481,-0.08283 -0.03398,-0.912095 -0.03398,-3.074789 v -2.961361 h -0.141869 -0.141869 l -0.01918,0.399932 c -0.01051,0.219962 -0.01947,1.560692 -0.01982,2.979402 -6.41e-4,2.531728 -0.0017,2.581911 -0.06028,2.711238 -0.129179,0.285375 -0.342602,0.422844 -0.656468,0.422844 -0.240991,0 -0.391164,-0.06552 -0.540824,-0.235978 -0.189713,-0.216071 -0.176575,0.197571 -0.176575,-5.559098 0,-5.685734 0.01027,-5.331161 -0.150485,-5.201024 l -0.06912,0.05597 -0.01464,2.398666 -0.01464,2.398665 -0.07887,0.103383 c -0.215323,0.282256 -0.671545,0.283515 -0.861005,0.0024 -0.0339,-0.05029 -0.316265,-0.770887 -0.627488,-1.601311 -0.311223,-0.830423 -0.5704,-1.50532 -0.575949,-1.499772 -0.0056,0.0056 0.161481,0.909039 0.371175,2.007756 0.209695,1.098716 0.381263,2.043643 0.381263,2.099837 0,0.227808 -0.119885,0.303291 -0.481692,0.303291 h -0.250376 v 2.109216 c 0,2.281435 0.0057,2.197329 -0.160296,2.394114 -0.238189,0.282488 -0.652471,0.309609 -0.934688,0.06119 -0.249471,-0.219591 -0.236247,-0.08687 -0.245577,-2.465131 l -0.0082,-2.102522 -0.13816,0.0089 -0.13816,0.0089 -0.01464,2.137556 c -0.0164,2.395502 4.1e-4,2.222716 -0.236067,2.425133 -0.320895,0.274674 -0.766123,0.187366 -1.011846,-0.198423 -0.05231,-0.08213 -0.05586,-0.195282 -0.06976,-2.225402 l -0.01462,-2.138864 -0.281169,-0.01464 c -0.307091,-0.01598 -0.360895,-0.04066 -0.425438,-0.195066 -0.03529,-0.08443 -0.0039,-0.275052 0.356486,-2.163828 0.217351,-1.139185 0.391634,-2.074724 0.387294,-2.078976 -0.0043,-0.0042 -0.249585,0.663022 -0.544988,1.482833 l -0.537097,1.490563 0.06289,0.129918 c 0.03459,0.07146 0.07573,0.213194 0.09142,0.314974 0.01743,0.113084 0.02534,1.22708 0.02034,2.864323 -0.0088,2.876555 -0.0027,2.763349 -0.15322,2.836706 -0.113181,0.05516 -0.177237,0.05933 -0.273333,0.01782 z m 2.575718,-11.463895 c -0.812755,-0.169369 -1.197658,-1.076008 -0.752346,-1.772144 0.178559,-0.279132 0.465635,-0.460289 0.802398,-0.506344 0.513472,-0.07022 0.966161,0.167488 1.19299,0.626443 0.367085,0.742745 -0.115078,1.592408 -0.944072,1.66362 -0.09481,0.0081 -0.229337,0.0029 -0.29897,-0.0116 z m 5.448336,-0.270273 c -0.01614,-0.02014 -0.0421,-0.112371 -0.05771,-0.204971 l -0.02837,-0.168369 h 0.306337 0.306337 l -0.02045,0.136412 c -0.03997,0.266598 -0.04694,0.27353 -0.2747,0.27353 -0.126524,0 -0.213081,-0.01369 -0.231443,-0.0366 z m -0.153528,-0.777964 c -0.214676,-0.07119 -0.36606,-0.170994 -0.536437,-0.353661 -0.455169,-0.488001 -0.436667,-1.229283 0.04268,-1.7097 0.486883,-0.487978 1.259266,-0.488635 1.746763,-0.0015 0.225305,0.225144 0.336686,0.479047 0.352164,0.802791 0.02613,0.546615 -0.231996,0.977731 -0.723104,1.20769 -0.248788,0.116491 -0.624823,0.139672 -0.882061,0.05436 z"
       id="path2059" />
  </g>
</svg>
