<?xml version="1.0" encoding="UTF-8" standalone="no"?>
<!-- Created with Inkscape (http://www.inkscape.org/) -->

<svg
   xmlns:dc="http://purl.org/dc/elements/1.1/"
   xmlns:cc="http://creativecommons.org/ns#"
   xmlns:rdf="http://www.w3.org/1999/02/22-rdf-syntax-ns#"
   xmlns:svg="http://www.w3.org/2000/svg"
   xmlns="http://www.w3.org/2000/svg"
   xmlns:sodipodi="http://sodipodi.sourceforge.net/DTD/sodipodi-0.dtd"
   xmlns:inkscape="http://www.inkscape.org/namespaces/inkscape"
   width="64"
   height="64"
   viewBox="0 0 16.933333 16.933334"
   version="1.1"
   id="svg8"
   inkscape:version="0.92.5 (2060ec1f9f, 2020-04-08)"
   sodipodi:docname="airlock_64x64.svg">
  <defs
     id="defs2" />
  <sodipodi:namedview
     id="base"
     pagecolor="#ffffff"
     bordercolor="#666666"
     borderopacity="1.0"
     inkscape:pageopacity="0.0"
     inkscape:pageshadow="2"
     inkscape:zoom="5.6"
     inkscape:cx="43.031951"
     inkscape:cy="0.36774399"
     inkscape:document-units="mm"
     inkscape:current-layer="layer1"
     showgrid="false"
     units="px"
     inkscape:window-width="1208"
     inkscape:window-height="987"
     inkscape:window-x="1992"
     inkscape:window-y="0"
     inkscape:window-maximized="1" />
  <metadata
     id="metadata5">
    <rdf:RDF>
      <cc:Work
         rdf:about="">
        <dc:format>image/svg+xml</dc:format>
        <dc:type
           rdf:resource="http://purl.org/dc/dcmitype/StillImage" />
        <dc:title></dc:title>
      </cc:Work>
    </rdf:RDF>
  </metadata>
  <g
     inkscape:label="Layer 1"
     inkscape:groupmode="layer"
     id="layer1"
     transform="translate(0,-280.06665)">
    <path
       style="fill:#000000;stroke-width:0.02905041"
       d="m 1.1432542,296.16944 c -0.051192,-0.0512 -0.084917,-0.11554 -0.084917,-0.16202 0,-0.0464 0.033725,-0.11082 0.084917,-0.162 0.082619,-0.0826 0.092836,-0.085 0.3776554,-0.085 h 0.2927386 v -7.10044 c 0,-3.90525 0.00812,-7.12162 0.018046,-7.14748 0.053055,-0.13826 -0.2614189,-0.13203 6.6635475,-0.13203 6.9249647,0 6.6104907,-0.006 6.6635467,0.13203 0.0099,0.0258 0.01804,3.24223 0.01804,7.14748 v 7.10044 h 0.292738 c 0.28482,0 0.295036,0.003 0.377656,0.085 0.110188,0.11018 0.110188,0.21383 0,0.32402 l -0.08492,0.0849 H 8.4952412 1.2281709 Z m 1.6581078,-7.02737 v -6.61843 l 0.074956,-0.0705 0.074956,-0.0705 2.2418131,-0.008 c 1.232997,-0.005 2.2843507,-7.6e-4 2.3363413,0.009 0.051991,0.009 0.1206222,0.045 0.1525146,0.0793 0.057596,0.0617 0.057986,0.10676 0.057986,6.68025 v 6.61735 h 0.246929 0.2469283 v -6.94305 -6.94304 H 5.2706465 2.3075051 v 6.94304 6.94306 H 2.5544335 2.801362 Z m 4.4447119,0.16924 v -6.4492 H 5.2706465 3.295219 v 6.4492 6.44919 h 1.9754275 1.9754274 z m -0.8392641,1.70317 c -0.1472603,-0.0831 -0.1463182,-0.0723 -0.14742,-1.67705 -7.137e-4,-1.04527 0.00895,-1.52764 0.031924,-1.59356 0.060144,-0.17253 0.2902197,-0.21044 0.4034564,-0.0665 0.055624,0.0707 0.057447,0.12298 0.057447,1.64729 v 1.57427 l -0.065363,0.061 c -0.087177,0.0813 -0.1951815,0.1024 -0.2800438,0.0544 z m 2.8437419,-1.872 c 0,-6.5735 3.849e-4,-6.61843 0.05799,-6.68025 0.031893,-0.0343 0.1005231,-0.0699 0.1525139,-0.0793 0.051992,-0.009 1.1033444,-0.0132 2.3363404,-0.009 l 2.241814,0.008 0.07496,0.0705 0.07495,0.0705 v 6.61843 6.61842 h 0.24693 0.246928 v -6.94305 -6.94304 H 11.719836 8.7566967 v 6.94304 6.94305 H 9.0036244 9.250553 Z m 4.4447123,0.16883 v -6.4492 H 11.719835 9.7444085 v 6.4492 6.44919 h 1.9754265 1.975429 z m -3.282696,1.7225 c -0.02397,-0.009 -0.07299,-0.0427 -0.10894,-0.0754 l -0.06536,-0.0595 v -1.57426 c 0,-1.52431 0.0018,-1.57659 0.05745,-1.6473 0.113237,-0.14396 0.343313,-0.10604 0.403457,0.0665 0.02292,0.0658 0.03295,0.54929 0.03295,1.58774 0,1.61987 4.18e-4,1.61539 -0.158966,1.68801 -0.08207,0.0374 -0.09419,0.0385 -0.160589,0.0142 z"
       id="path10873"
       inkscape:connector-curvature="0" />
    <path
       style="fill:#ffffff;stroke-width:0.00470557;stroke-miterlimit:4;stroke-dasharray:none"
       d="m 2.3307941,288.81614 v -6.90986 h 2.946541 2.9465413 v 6.90986 6.90985 H 7.9972939 7.7707111 l -0.012046,-6.62271 c -0.011824,-6.5006 -0.013531,-6.62378 -0.092604,-6.68159 -0.067304,-0.0492 -0.4639785,-0.0589 -2.4109767,-0.0589 -2.2049664,0 -2.3341161,0.004 -2.3991016,0.0759 -0.063305,0.07 -0.068683,0.59316 -0.068683,6.6816 v 6.6057 H 2.5590472 2.3307941 Z"
       id="path10875"
       inkscape:connector-curvature="0" />
    <path
       style="fill:#ffffff;stroke-width:0.00470557;stroke-miterlimit:4;stroke-dasharray:none"
       d="m 3.326808,289.29339 v -6.43258 h 1.9505271 1.9505274 v 6.43258 6.4326 H 5.2773351 3.326808 Z m 3.3686545,1.67434 c 0.070948,-0.0642 0.075853,-0.169 0.075282,-1.60814 -6.828e-4,-1.72092 -0.00319,-1.73838 -0.2528981,-1.75945 -0.2694257,-0.0227 -0.2652474,-0.0493 -0.2652474,1.68925 0,1.72164 0.00345,1.74702 0.2368207,1.74702 0.071581,0 0.1643012,-0.0309 0.2060429,-0.0687 z"
       id="path10877"
       inkscape:connector-curvature="0" />
    <path
       style="fill:#ffffff;stroke-width:0.00470557;stroke-miterlimit:4;stroke-dasharray:none"
       d="m 8.7633842,288.81614 v -6.90986 h 2.9465388 2.946542 v 6.90986 6.90985 h -0.228254 -0.228252 v -6.61292 c 0,-6.35378 -0.003,-6.61559 -0.07589,-6.6816 -0.06872,-0.0622 -0.295571,-0.0687 -2.399102,-0.0687 -1.940755,0 -2.3364687,0.01 -2.4037645,0.059 -0.07907,0.0578 -0.080789,0.18123 -0.09304,6.68158 l -0.012485,6.6227 h -0.22615 -0.2261469 z"
       id="path10879"
       inkscape:connector-curvature="0" />
    <path
       style="fill:#ffffff;stroke-width:0.00470557;stroke-miterlimit:4;stroke-dasharray:none"
       d="m 9.7593978,289.29339 v -6.43258 h 1.9505252 1.950528 v 6.43258 6.4326 H 11.709923 9.7593978 Z m 0.8772892,1.70519 0.09797,-0.0793 v -1.59507 c 0,-1.77681 0.0046,-1.74681 -0.265247,-1.72404 -0.249753,0.0211 -0.252214,0.0382 -0.252898,1.76286 l -6.13e-4,1.54289 0.109348,0.086 c 0.135239,0.10638 0.186941,0.10748 0.311436,0.007 z"
       id="path10881"
       inkscape:connector-curvature="0" />
  </g>
</svg>
