<?xml version="1.0" encoding="UTF-8" standalone="no"?>
<svg
   xmlns:dc="http://purl.org/dc/elements/1.1/"
   xmlns:cc="http://creativecommons.org/ns#"
   xmlns:rdf="http://www.w3.org/1999/02/22-rdf-syntax-ns#"
   xmlns:svg="http://www.w3.org/2000/svg"
   xmlns="http://www.w3.org/2000/svg"
   xmlns:sodipodi="http://sodipodi.sourceforge.net/DTD/sodipodi-0.dtd"
   xmlns:inkscape="http://www.inkscape.org/namespaces/inkscape"
   width="64"
   height="64"
   viewBox="0 0 16.933333 16.933333"
   version="1.1"
   id="svg8"
   sodipodi:docname="seren_alert_64x64.svg"
   inkscape:version="1.0.2-2 (e86c870879, 2021-01-15)">
  <defs
     id="defs2" />
  <sodipodi:namedview
     id="base"
     pagecolor="#ffffff"
     bordercolor="#666666"
     borderopacity="1.0"
     inkscape:pageopacity="0.0"
     inkscape:pageshadow="2"
     inkscape:zoom="4"
     inkscape:cx="-6.9614376"
     inkscape:cy="65.475117"
     inkscape:document-units="mm"
     inkscape:current-layer="layer1"
     inkscape:document-rotation="0"
     showgrid="false"
     inkscape:snap-global="false"
     fit-margin-top="0"
     fit-margin-left="0"
     fit-margin-right="0"
     fit-margin-bottom="0"
     inkscape:window-width="1540"
     inkscape:window-height="967"
     inkscape:window-x="1806"
     inkscape:window-y="64"
     inkscape:window-maximized="0"
     units="px" />
  <metadata
     id="metadata5">
    <rdf:RDF>
      <cc:Work
         rdf:about="">
        <dc:format>image/svg+xml</dc:format>
        <dc:type
           rdf:resource="http://purl.org/dc/dcmitype/StillImage" />
        <dc:title></dc:title>
      </cc:Work>
    </rdf:RDF>
  </metadata>
  <g
     inkscape:label="Calque 1"
     inkscape:groupmode="layer"
     id="layer1"
     transform="translate(-44.581036,-28.552681)">
    <text
       xml:space="preserve"
       style="font-style:normal;font-weight:normal;font-size:10.5833px;line-height:1.25;font-family:sans-serif;fill:#000000;fill-opacity:1;stroke:none;stroke-width:0.264583"
       x="51.724785"
       y="39.66518"
       id="text1411"><tspan
         sodipodi:role="line"
         id="tspan1409"
         x="51.724785"
         y="39.66518"
         style="stroke-width:0.264583"></tspan></text>
    <path
       style="fill:#ffffff;stroke-width:2.12598;stroke-linecap:round;stroke-miterlimit:4;stroke-dasharray:none"
       d=""
       id="path1772"
       transform="matrix(0.26458333,0,0,0.26458333,44.581036,28.552681)" />
    <path
       style="fill:#000000;stroke-width:0.0327317"
       d="m 46.142124,44.089599 c -0.392436,-0.104278 -0.737533,-0.410624 -0.887252,-0.787633 -0.113242,-0.285142 -0.109054,-0.711062 0.0095,-0.966184 0.04747,-0.102156 1.571315,-2.797617 3.386318,-5.989913 3.555064,-6.252757 3.41904,-6.030282 3.791245,-6.200685 0.38988,-0.178492 0.757841,-0.178492 1.147721,0 0.372212,0.170403 0.236188,-0.05208 3.791244,6.200685 1.815011,3.192296 3.335933,5.882632 3.379834,5.978526 0.258392,0.564399 0.02723,1.286659 -0.5157,1.611388 -0.36817,0.220201 0.130066,0.206184 -7.244297,0.203806 -5.749445,-0.0018 -6.703634,-0.0088 -6.858613,-0.04999 z m 13.763709,-0.55858 c 0.33997,-0.183447 0.512344,-0.567848 0.411818,-0.918359 -0.04188,-0.14608 -6.608609,-11.68558 -6.725793,-11.819046 -0.292133,-0.332721 -0.833731,-0.341101 -1.13822,-0.01762 -0.107779,0.114506 -6.677856,11.662841 -6.736029,11.840037 -0.127489,0.388309 0.131747,0.841933 0.555228,0.971573 0.04512,0.01382 3.101554,0.02263 6.792058,0.01959 l 6.71001,-0.0055 z m -7.207066,-0.757331 c -0.367256,-0.131245 -0.578726,-0.35434 -0.686594,-0.724325 -0.06509,-0.223237 -0.04302,-0.4671 0.0632,-0.6981 0.111549,-0.24265 0.219252,-0.35716 0.455973,-0.48481 0.188365,-0.101573 0.230388,-0.111221 0.484471,-0.111221 0.254039,0 0.296132,0.0097 0.484281,0.11112 0.357801,0.192942 0.545418,0.508961 0.545418,0.918703 0,0.417143 -0.196495,0.742398 -0.555178,0.918975 -0.269009,0.132433 -0.547346,0.156929 -0.79155,0.06966 z m 0.524185,-0.509571 c 0.336308,-0.140517 0.41829,-0.581418 0.156743,-0.842962 -0.367744,-0.367745 -0.970357,-0.03835 -0.873583,0.477498 0.05781,0.308158 0.416418,0.490986 0.71684,0.365464 z M 52.7447,40.168897 c -0.282146,-0.105234 -0.511569,-0.346667 -0.577439,-0.607665 -0.03865,-0.153239 -0.435013,-5.085097 -0.434175,-5.402679 0.0019,-0.569019 0.355498,-1.038571 0.912763,-1.210692 0.247401,-0.07641 0.450883,-0.0828 0.680902,-0.02135 0.5144,0.137408 0.895395,0.555398 0.96374,1.057325 0.01897,0.139464 -0.03097,0.902914 -0.184926,2.825992 -0.116022,1.4492 -0.224785,2.688855 -0.241703,2.754791 -0.05045,0.196688 -0.226833,0.419865 -0.4165,0.52702 -0.206737,0.116798 -0.507882,0.149911 -0.702662,0.07726 z m 0.517031,-0.577291 c 0.04169,-0.03918 0.08436,-0.105166 0.09476,-0.146618 0.04658,-0.185663 0.439796,-5.311045 0.415631,-5.417782 -0.08069,-0.356359 -0.403333,-0.621483 -0.75633,-0.621483 -0.352464,0 -0.675648,0.265156 -0.756063,0.62032 -0.01618,0.07138 0.05172,1.077768 0.18438,2.733103 0.225139,2.8095 0.222868,2.793411 0.408028,2.890661 0.110921,0.05825 0.316763,0.02901 0.40959,-0.0582 z m 6.845826,-4.23016 c -0.06156,-0.06167 -0.07993,-0.13488 -0.112957,-0.450062 -0.102626,-0.979457 -0.516537,-1.855157 -1.199858,-2.538523 -0.326325,-0.326351 -0.4678,-0.433205 -0.932701,-0.704458 -0.218724,-0.127615 -0.321858,-0.207967 -0.342685,-0.266972 -0.04264,-0.120825 0.02843,-0.271653 0.152181,-0.322907 0.09318,-0.03859 0.120058,-0.03154 0.373285,0.09813 0.820956,0.420374 1.57386,1.193423 2.006771,2.060454 0.276212,0.553205 0.460275,1.26271 0.47112,1.816017 0.0045,0.232949 -0.0019,0.262029 -0.07225,0.319134 -0.104257,0.08477 -0.252142,0.08011 -0.342908,-0.01082 z m -1.222449,0.008 c -0.09719,-0.03916 -0.126664,-0.105531 -0.174328,-0.392553 -0.145359,-0.875279 -0.659174,-1.662334 -1.396695,-2.139434 -0.127521,-0.08249 -0.240948,-0.173687 -0.252066,-0.20266 -0.04163,-0.108442 -0.01865,-0.233746 0.05552,-0.303473 0.117774,-0.110649 0.243162,-0.09048 0.499136,0.08029 0.797389,0.531965 1.336568,1.303946 1.555991,2.227833 0.0356,0.149895 0.06782,0.34732 0.07162,0.438721 0.0064,0.145834 -0.0045,0.175862 -0.08495,0.24521 -0.09675,0.08326 -0.156884,0.09336 -0.274251,0.04607 z m -1.378583,-0.09858 c -0.03382,-0.03634 -0.08692,-0.157845 -0.117952,-0.270037 -0.08921,-0.322551 -0.263958,-0.601564 -0.564848,-0.901863 -0.230351,-0.229902 -0.272893,-0.288971 -0.272893,-0.378893 0,-0.132152 0.114696,-0.248868 0.244571,-0.248868 0.122304,0 0.391846,0.208944 0.605475,0.469349 0.311317,0.379489 0.598476,1.054981 0.527668,1.241233 -0.06098,0.160315 -0.307224,0.212297 -0.422021,0.08908 z"
       id="path2187" />
    <path
       style="fill:#ffffff;stroke-width:2.38886;stroke-linecap:round;stroke-miterlimit:4;stroke-dasharray:none"
       d="m 45.930743,43.180912 c -0.214289,-0.32705 -0.216814,-0.399126 -0.02583,-0.737395 6.925213,-12.264465 6.924179,-12.262876 7.554466,-11.594729 0.137097,0.145328 1.592701,2.63443 3.234678,5.531339 1.641983,2.896909 3.104194,5.476138 3.249368,5.731619 0.340236,0.598759 0.337209,1.101643 -0.0077,1.286249 -0.176467,0.09444 -2.636685,0.145397 -7.019577,0.145397 h -6.747896 z m 7.89222,-0.627698 c 0.146229,-0.161587 0.260544,-0.49745 0.260544,-0.765524 0,-0.667066 -0.389188,-1.053421 -1.061149,-1.053421 -1.008326,0 -1.479712,1.0545 -0.796481,1.781764 0.400154,0.425947 1.227818,0.445215 1.597086,0.03718 z m -0.218806,-2.491528 c 0.277747,-0.224906 0.330405,-0.478657 0.502773,-2.42287 0.295471,-3.332778 0.273571,-4.008313 -0.143449,-4.425338 -0.471527,-0.471522 -1.315963,-0.473734 -1.859598,-0.0049 -0.368886,0.318147 -0.392785,0.40499 -0.373684,1.35789 0.01123,0.559904 0.100094,1.958658 0.197491,3.108342 0.165583,1.954517 0.199705,2.108128 0.52525,2.364198 0.4326,0.340286 0.751216,0.346554 1.151217,0.02265 z"
       id="path2189" />
  </g>
</svg>
