<?xml version="1.0" encoding="UTF-8" standalone="no"?>
<!-- Created with Inkscape (http://www.inkscape.org/) -->

<svg
   xmlns:dc="http://purl.org/dc/elements/1.1/"
   xmlns:cc="http://creativecommons.org/ns#"
   xmlns:rdf="http://www.w3.org/1999/02/22-rdf-syntax-ns#"
   xmlns:svg="http://www.w3.org/2000/svg"
   xmlns="http://www.w3.org/2000/svg"
   xmlns:sodipodi="http://sodipodi.sourceforge.net/DTD/sodipodi-0.dtd"
   xmlns:inkscape="http://www.inkscape.org/namespaces/inkscape"
   width="64"
   height="64"
   viewBox="0 0 16.933333 16.933334"
   version="1.1"
   id="svg8"
   inkscape:version="0.92.5 (2060ec1f9f, 2020-04-08)"
   sodipodi:docname="alleys_64x64.svg">
  <defs
     id="defs2" />
  <sodipodi:namedview
     id="base"
     pagecolor="#ffffff"
     bordercolor="#666666"
     borderopacity="1.0"
     inkscape:pageopacity="0.0"
     inkscape:pageshadow="2"
     inkscape:zoom="5.6"
     inkscape:cx="63.348554"
     inkscape:cy="-0.053161761"
     inkscape:document-units="mm"
     inkscape:current-layer="layer1"
     showgrid="false"
     units="px"
     inkscape:window-width="1208"
     inkscape:window-height="987"
     inkscape:window-x="1992"
     inkscape:window-y="0"
     inkscape:window-maximized="1" />
  <metadata
     id="metadata5">
    <rdf:RDF>
      <cc:Work
         rdf:about="">
        <dc:format>image/svg+xml</dc:format>
        <dc:type
           rdf:resource="http://purl.org/dc/dcmitype/StillImage" />
        <dc:title></dc:title>
      </cc:Work>
    </rdf:RDF>
  </metadata>
  <g
     inkscape:label="Layer 1"
     inkscape:groupmode="layer"
     id="layer1"
     transform="translate(0,-280.06665)">
    <path
       style="fill:#000000;stroke-width:0.07081883"
       d="m 0.74803855,296.5273 c -0.15495538,-0.15496 -0.0889091,-0.30549 0.30452045,-0.69402 l 0.3895033,-0.38467 v -5.1223 -5.1223 l 0.173828,-0.17383 c 0.095605,-0.0956 0.2469816,-0.17392 0.3363889,-0.17405 0.2787976,-2.7e-4 2.3448912,0.85277 2.5172885,1.03948 l 0.159342,0.17256 v 2.98638 2.98637 l 0.531874,-0.52832 0.5318726,-0.52833 -0.018433,-3.08001 -0.018432,-3.07999 -2.4590655,-1.80755 c -1.3524868,-0.99415 -2.47912481,-1.86686 -2.50364198,-1.93937 -0.0690821,-0.20428 0.13688597,-0.37263 0.33916318,-0.27721 0.089083,0.042 1.2451611,0.87625 2.5690753,1.85384 l 2.4071174,1.77746 h 2.5857518 2.5857535 l 2.502917,-1.8413 c 1.376602,-1.0127 2.529495,-1.84128 2.56198,-1.84128 0.08012,0 0.281639,0.20664 0.281639,0.28881 0,0.10124 -0.147748,0.21611 -2.655706,2.06436 l -2.337021,1.72227 -0.01843,3.07999 -0.01843,3.07998 0.531872,0.52833 0.531874,0.52832 v -2.98637 -2.98638 l 0.159342,-0.17256 c 0.172399,-0.18671 2.23849,-1.03988 2.517288,-1.03948 0.0894,1.3e-4 0.240784,0.0784 0.336389,0.17405 l 0.173828,0.17383 v 5.1223 5.1223 l 0.389503,0.38467 c 0.39343,0.38853 0.459477,0.53906 0.304522,0.69402 -0.123348,0.12331 -15.57010829,0.12331 -15.69345237,0 z m 3.51894685,-2.53626 2.0105083,-2.12362 h 2.3184073 2.318407 l 2.009371,2.12281 2.009371,2.12281 0.34229,10e-4 c 0.18826,0.001 0.33167,-0.0251 0.318686,-0.0581 -0.01293,-0.033 -1.027464,-1.11641 -2.2544,-2.40777 l -2.230793,-2.3479 -2.5140679,2.7e-4 -2.5140697,2.7e-4 -2.2307924,2.34792 c -1.2269363,1.29135 -2.2414162,2.37473 -2.2544003,2.4075 -0.012927,0.0328 0.1304222,0.0591 0.3186855,0.0587 l 0.3422904,-0.001 z m 9.8516166,2.07239 c -3.3e-5,-0.0543 -1.516481,-1.67479 -2.783534,-2.97439 l -0.707712,-0.72589 -2.060873,0.004 -2.0608746,0.004 -1.6996519,1.801 c -0.9348089,0.99056 -1.7102742,1.83285 -1.7232584,1.87177 -0.015586,0.0468 1.8543125,0.0707 5.5061654,0.0707 3.0413725,0 5.5297555,-0.0238 5.5297385,-0.0532 z m -9.9876891,-4.78794 0.00232,-1.33554 -0.1655966,0.0415 c -0.2102501,0.0527 -0.4243261,-0.10022 -0.3901133,-0.27875 0.01438,-0.0754 0.1452859,-0.2007 0.2907839,-0.2786 l 0.264544,-0.14162 1.903e-4,-1.5276 1.917e-4,-1.52761 -1.0101295,-0.40222 c -0.555572,-0.2212 -1.033598,-0.4022 -1.0622825,-0.4022 -0.028687,0 -0.05078,2.11129 -0.04911,4.69174 l 0.00305,4.69176 1.056972,-1.09769 1.0569734,-1.0977 0.00232,-1.33553 z m 11.0500031,1.31323 v -2.18226 l -0.247866,-0.11824 c -0.266171,-0.12695 -0.324765,-0.32261 -0.142014,-0.47426 0.05822,-0.0484 0.169758,-0.0712 0.247866,-0.0507 0.139879,0.0366 0.142014,0.004 0.142014,-2.15162 0,-1.20381 -0.02347,-2.18875 -0.05215,-2.18875 -0.02869,0 -0.506712,0.181 -1.062282,0.4022 l -1.010129,0.40222 v 3.18168 3.1817 l 0.511246,0.5413 c 0.749317,0.79335 1.571708,1.63898 1.593951,1.63898 0.0106,0 0.01936,-0.98202 0.01936,-2.18227 z m -8.1441656,-4.01438 c 0,-2.13637 0.00596,-2.23678 0.1416357,-2.37244 0.1311485,-0.13116 0.2360629,-0.14162 1.4163776,-0.14162 1.1803132,0 1.2852305,0.0102 1.4163763,0.14162 0.135637,0.13567 0.141636,0.23607 0.141636,2.37244 v 2.23079 h 0.424912 0.424913 v -2.90357 -2.90357 H 8.5947622 6.1869215 v 2.90357 2.90357 h 0.424913 0.424913 z m 2.6202957,1.42086 v -0.80993 l -0.2301598,-0.0222 c -0.2035918,-0.0196 -0.2301614,-0.0468 -0.2301614,-0.23464 0,-0.18793 0.026567,-0.21502 0.2301614,-0.23466 l 0.2301598,-0.0222 v -1.0578 -1.05779 H 8.5947651 7.5324827 v 2.12457 2.12456 h 1.0622824 1.062281 z m -1.5837026,-7.22551 c -0.5696121,-0.20306 -0.9081565,-0.73724 -0.7571738,-1.19473 0.2836186,-0.85937 1.5793988,-1.09808 2.2861264,-0.42116 0.8695959,0.83293 -0.2893663,2.05779 -1.5289526,1.61589 z m 1.0746332,-0.60633 c 0.1967852,-0.11998 0.2309762,-0.17864 0.2124565,-0.36454 -0.031781,-0.319 -0.3191241,-0.51065 -0.7656681,-0.51065 -0.4465454,0 -0.7338883,0.19165 -0.7656695,0.51065 -0.01852,0.1859 0.015673,0.24456 0.2124564,0.36454 0.3084743,0.18807 0.7979505,0.18807 1.1064247,0 z"
       id="path10948"
       inkscape:connector-curvature="0" />
    <path
       style="fill:none;stroke:#000000;stroke-width:0.00802985;stroke-linecap:butt;stroke-linejoin:miter;stroke-miterlimit:4;stroke-dasharray:none;stroke-opacity:1"
       d="m 0.65712355,280.80439 0.0909136,15.72291 15.57586585,-0.16343 0.107313,-15.41639 z"
       id="path10950"
       inkscape:connector-curvature="0" />
    <path
       style="fill:#ffffff;stroke-width:0.00405568;stroke-miterlimit:4;stroke-dasharray:none"
       d="m 0.75902255,295.22551 c 1.4235e-4,-0.48415 -0.0170962,-3.70513 -0.0383757,-7.15772 -0.021265,-3.45259 -0.0334807,-6.42549 -0.0271187,-6.60645 l 0.0114749,-0.329 0.35768865,0.28752 c 0.4323935,0.34759 2.0468577,1.55793 3.4912952,2.61742 l 1.0590099,0.77677 0.022747,0.24082 c 0.012492,0.13247 0.022863,1.52068 0.022994,3.08494 l 2.556e-4,2.84411 -0.5007653,0.4998 -0.5007638,0.49982 v -2.94709 -2.94707 l -0.092453,-0.12129 c -0.1113942,-0.14604 -0.6703418,-0.42425 -1.5607324,-0.77684 -0.6981708,-0.27647 -1.0069282,-0.36512 -1.1481529,-0.32968 -0.055094,0.0145 -0.1716536,0.0911 -0.2590186,0.17156 l -0.1588467,0.14641 v 5.11722 5.11722 l -0.3398052,0.34586 -0.33980369,0.34586 2.8324e-4,-0.88026 z"
       id="path10952"
       inkscape:connector-curvature="0" />
    <path
       style="fill:#ffffff;stroke-width:0.00405568;stroke-miterlimit:4;stroke-dasharray:none"
       d="m 4.1611486,283.04515 c -1.0258749,-0.75583 -2.1215451,-1.5566 -2.4348213,-1.77951 l -0.5695947,-0.40528 0.1497423,-0.0131 c 0.082358,-0.007 1.6024722,-8.3e-4 3.3780316,0.0131 l 3.2282894,0.0257 -0.1538137,0.0976 c -0.3130323,0.19852 -0.5137436,0.56815 -0.4827468,0.88906 0.046888,0.48545 0.4820336,0.87945 1.0854299,0.98281 0.5798263,0.0994 1.2391608,-0.20386 1.4626507,-0.67255 0.096898,-0.20321 0.1136746,-0.48538 0.040308,-0.6775 -0.059452,-0.15567 -0.2777838,-0.41383 -0.449818,-0.53186 -0.084668,-0.0581 0.084769,-0.0601 3.183432,-0.0388 1.80007,0.0131 3.276075,0.0253 3.280012,0.0285 0.0039,0.003 -0.237504,0.18142 -0.536534,0.39599 -0.299028,0.21456 -1.360895,0.99066 -2.3597,1.72465 l -1.816013,1.33454 H 8.5961929 6.0263826 Z"
       id="path10954"
       inkscape:connector-curvature="0" />
    <path
       style="fill:#ffffff;stroke-width:0.00405568;stroke-miterlimit:4;stroke-dasharray:none"
       d="m 8.1450038,282.18853 c -0.2567033,-0.12056 -0.3182628,-0.20137 -0.2935887,-0.38534 0.043736,-0.32609 0.2789589,-0.47783 0.7407006,-0.47783 0.2326553,0 0.3375146,0.0169 0.4466384,0.0716 0.2791492,0.14002 0.3988663,0.48913 0.2240273,0.65327 -0.2482467,0.23304 -0.7768787,0.29848 -1.1177776,0.13842 z"
       id="path10956"
       inkscape:connector-curvature="0" />
    <path
       style="fill:#ffffff;stroke-width:0.00405568;stroke-miterlimit:4;stroke-dasharray:none"
       d="m 16.040989,295.71347 -0.259323,-0.26107 v -5.11816 -5.11816 l -0.175754,-0.1644 c -0.09667,-0.0905 -0.221272,-0.17583 -0.276906,-0.18979 -0.143277,-0.036 -0.457862,0.0546 -1.152021,0.33169 -0.866678,0.34591 -1.363531,0.59173 -1.518396,0.75117 l -0.131889,0.13581 v 2.9515 2.9515 l -0.500766,-0.49981 -0.500763,-0.4998 0.0046,-2.41488 c 0.0026,-1.32819 0.01464,-2.71599 0.02683,-3.08402 l 0.02216,-0.66912 2.09248,-1.54373 c 1.150865,-0.84905 2.234819,-1.65573 2.408785,-1.79263 0.173967,-0.13683 0.3194,-0.24367 0.323185,-0.2373 0.006,0.0102 -0.06194,9.90521 -0.09269,13.5242 l -0.01031,1.20813 z"
       id="path10958"
       inkscape:connector-curvature="0" />
    <path
       style="fill:#ffffff;stroke-width:0.00405568;stroke-miterlimit:4;stroke-dasharray:none"
       d="m 1.7485858,296.0839 -0.1368569,-0.0218 0.3131135,-0.3398 c 0.1722143,-0.18689 1.0062615,-1.07217 1.8534381,-1.96729 0.847178,-0.89512 1.7094797,-1.80674 1.9162263,-2.02581 l 0.3759019,-0.39832 2.5217085,-0.003 2.5217068,-0.003 1.019414,1.07638 c 1.675213,1.76882 2.422665,2.56074 2.949821,3.12526 l 0.499651,0.53508 -0.16151,0.0187 c -0.08884,0.0102 -0.237705,0.0131 -0.33083,0.006 l -0.169318,-0.0131 -1.993036,-2.10632 -1.993035,-2.10632 -2.3428638,10e-4 -2.3428649,10e-4 -2.0030583,2.12433 -2.0030583,2.12434 -0.178845,-0.003 c -0.098365,-10e-4 -0.2404307,-0.0131 -0.3157035,-0.0247 z"
       id="path10962"
       inkscape:connector-curvature="0" />
    <path
       style="fill:#ffffff;stroke-width:0.00405568;stroke-miterlimit:4;stroke-dasharray:none"
       d="m 6.1955974,287.90683 v -2.87939 h 2.3965183 2.3965173 v 2.87939 2.8794 h -0.409335 -0.409335 l -0.01089,-2.19084 c -0.0122,-2.44498 -0.0019,-2.34764 -0.2613322,-2.47658 -0.1341552,-0.0667 -0.2155707,-0.071 -1.3055644,-0.0697 -1.3269892,0.001 -1.3841388,0.0116 -1.4944537,0.25581 -0.055051,0.12201 -0.06227,0.35115 -0.072713,2.30838 l -0.01162,2.17296 H 6.604505 6.195625 Z"
       id="path10968"
       inkscape:connector-curvature="0" />
  </g>
</svg>
