<?xml version="1.0" encoding="UTF-8" standalone="no"?>
<!-- Created with Inkscape (http://www.inkscape.org/) -->

<svg
   xmlns:dc="http://purl.org/dc/elements/1.1/"
   xmlns:cc="http://creativecommons.org/ns#"
   xmlns:rdf="http://www.w3.org/1999/02/22-rdf-syntax-ns#"
   xmlns:svg="http://www.w3.org/2000/svg"
   xmlns="http://www.w3.org/2000/svg"
   xmlns:sodipodi="http://sodipodi.sourceforge.net/DTD/sodipodi-0.dtd"
   xmlns:inkscape="http://www.inkscape.org/namespaces/inkscape"
   width="64"
   height="64"
   viewBox="0 0 16.933333 16.933334"
   version="1.1"
   id="svg8"
   inkscape:version="0.92.5 (2060ec1f9f, 2020-04-08)"
   sodipodi:docname="am_64x64.svg">
  <defs
     id="defs2" />
  <sodipodi:namedview
     id="base"
     pagecolor="#ffffff"
     bordercolor="#666666"
     borderopacity="1.0"
     inkscape:pageopacity="0.0"
     inkscape:pageshadow="2"
     inkscape:zoom="5.6"
     inkscape:cx="35.128489"
     inkscape:cy="62.542738"
     inkscape:document-units="mm"
     inkscape:current-layer="layer1"
     showgrid="false"
     units="px"
     inkscape:window-width="1208"
     inkscape:window-height="987"
     inkscape:window-x="1992"
     inkscape:window-y="0"
     inkscape:window-maximized="1" />
  <metadata
     id="metadata5">
    <rdf:RDF>
      <cc:Work
         rdf:about="">
        <dc:format>image/svg+xml</dc:format>
        <dc:type
           rdf:resource="http://purl.org/dc/dcmitype/StillImage" />
        <dc:title></dc:title>
      </cc:Work>
    </rdf:RDF>
  </metadata>
  <g
     inkscape:label="Layer 1"
     inkscape:groupmode="layer"
     id="layer1"
     transform="translate(0,-280.06665)">
    <path
       style="fill:#000000;stroke-width:0.02873186"
       d="m 2.0322935,293.97355 c -0.3182749,-0.0626 -0.6656621,-0.31567 -0.8182431,-0.59601 -0.1376712,-0.25295 -0.1637055,-0.42321 -0.1637055,-1.07059 0,-0.55688 0.0037,-0.59812 0.05955,-0.66916 0.043189,-0.0549 0.086029,-0.0757 0.1559391,-0.0757 0.069913,0 0.1127498,0.0208 0.15594,0.0757 0.055889,0.0711 0.05955,0.11228 0.05955,0.67008 0,0.71565 0.020434,0.80119 0.2450384,1.02578 0.2624668,0.26247 -0.3732651,0.23966 6.6793408,0.23966 7.0540728,0 6.4167548,0.0229 6.6800158,-0.24033 0.262114,-0.26211 0.246666,-0.0638 0.237773,-3.05148 l -0.0078,-2.61258 -0.07107,-0.13914 c -0.08358,-0.16364 -0.219917,-0.29096 -0.401547,-0.375 -0.125756,-0.0582 -0.18406,-0.061 -1.525575,-0.0748 -1.269534,-0.0131 -1.401765,-0.0189 -1.472108,-0.0651 -0.136224,-0.0893 -0.171495,-0.17723 -0.196473,-0.48969 -0.03018,-0.37751 -0.06821,-0.58355 -0.160137,-0.86749 -0.33383,-1.03114 -1.158969,-1.82637 -2.2067808,-2.12678 -1.4691531,-0.42122 -3.0774294,0.28401 -3.7621414,1.64968 -0.217105,0.43302 -0.3155191,0.79973 -0.3563523,1.32782 -0.024928,0.32232 -0.073616,0.44046 -0.214833,0.52129 -0.046686,0.0267 -0.4176154,0.0395 -1.4561439,0.0502 l -1.3934955,0.0143 -0.1644677,0.0808 c -0.090459,0.0444 -0.2103459,0.13436 -0.2664178,0.19986 -0.1858343,0.21711 -0.1867469,0.22683 -0.1877626,2.00159 -7.587e-4,1.26433 -0.00869,1.60681 -0.038256,1.64573 -0.08596,0.11315 -0.2665699,0.11334 -0.352372,3.3e-4 -0.029921,-0.0394 -0.037792,-0.37837 -0.038522,-1.65965 -7.597e-4,-1.36459 0.00593,-1.63624 0.043678,-1.78137 0.091388,-0.35095 0.3112657,-0.61957 0.6403008,-0.78223 l 0.2170552,-0.10731 1.3805175,-0.0143 1.3805176,-0.0144 0.036237,-0.33042 c 0.1047171,-0.95492 0.475699,-1.72027 1.1375046,-2.34673 0.698801,-0.66147 1.5459605,-0.99673 2.5186355,-0.99673 0.973297,0 1.8174368,0.33299 2.5128298,0.99124 0.666265,0.63068 1.038506,1.39651 1.143309,2.35222 l 0.03624,0.33042 1.380518,0.0144 1.380518,0.0143 0.217054,0.10731 c 0.329036,0.16266 0.548914,0.43128 0.640301,0.78223 0.0667,0.25613 0.0672,5.23206 5.22e-4,5.48793 -0.121939,0.46815 -0.49176,0.81696 -0.960412,0.90584 -0.189397,0.0359 -12.5415229,0.0341 -12.7243075,-0.002 z m 0.8461086,-1.44806 c -0.061234,-0.0218 -0.1548161,-0.0818 -0.2079492,-0.13332 -0.19071,-0.18484 -0.1863928,-0.1334 -0.1773272,-2.11338 l 0.00816,-1.78611 0.08739,-0.12432 c 0.048069,-0.0684 0.13857,-0.15331 0.2011238,-0.18874 l 0.1137311,-0.0644 h 5.5021526 5.5021508 l 0.113732,0.0644 c 0.06255,0.0354 0.153058,0.12037 0.201123,0.18874 l 0.08739,0.12432 0.0082,1.78611 c 0.0092,2.00089 0.01493,1.93787 -0.194581,2.12715 -0.06117,0.0553 -0.160614,0.11419 -0.220992,0.13095 -0.06285,0.0174 -0.395917,0.0306 -0.7791,0.0307 l -0.669322,2.2e-4 -0.07052,-0.0705 c -0.09049,-0.0905 -0.09218,-0.21516 -0.004,-0.29798 0.06429,-0.0604 0.08841,-0.0625 0.72627,-0.0625 0.550643,0 0.670332,-0.008 0.723627,-0.0448 l 0.06386,-0.0448 v -1.70243 c 0,-1.42493 -0.0066,-1.71151 -0.04078,-1.75819 -0.04012,-0.0549 -0.128595,-0.0558 -5.4470038,-0.0558 -5.3184081,0 -5.4068844,8.6e-4 -5.4470035,0.0558 -0.034131,0.0467 -0.040782,0.33326 -0.040782,1.75819 v 1.70243 l 0.063855,0.0448 c 0.057109,0.04 0.5230593,0.0448 4.4116474,0.0448 h 4.3477889 l 0.07052,0.0706 c 0.03879,0.0388 0.07052,0.0899 0.07052,0.11358 0,0.0807 -0.06367,0.18302 -0.133813,0.21498 -0.05036,0.0229 -1.289212,0.0315 -4.414355,0.0307 -3.6204808,-8.6e-4 -4.362894,-0.008 -4.4556848,-0.041 z m 3.0707247,-0.98644 c -0.094728,-0.0192 -0.1580246,-0.0953 -0.1580246,-0.19008 0,-0.13158 0.7623773,-2.11706 0.8366063,-2.17881 0.085183,-0.0709 0.2366903,-0.0641 0.3234789,0.0144 0.05136,0.0465 0.178153,0.34769 0.450475,1.07026 0.2084476,0.55309 0.379562,1.04048 0.3802555,1.0831 0.00241,0.15004 -0.1559804,0.25299 -0.2902067,0.18858 -0.054274,-0.026 -0.1006938,-0.0967 -0.1653253,-0.2517 l -0.089863,-0.21549 H 6.7809082 6.3252937 l -0.073152,0.19021 c -0.1026728,0.26695 -0.1572315,0.31909 -0.3030111,0.28957 z m 1.1126587,-0.91244 c 0.013663,-0.0137 -0.2440253,-0.71951 -0.2734048,-0.74889 -0.012451,-0.0125 -0.2789825,0.68783 -0.2789825,0.73301 0,0.0329 0.5203689,0.0479 0.5523873,0.0159 z m 2.5900307,0.89386 c -0.107285,-0.0464 -0.121006,-0.0799 -0.340897,-0.83266 -0.08738,-0.29911 -0.162822,-0.5478 -0.167649,-0.55262 -0.0048,-0.005 -0.05962,0.2787 -0.121768,0.63005 -0.12186,0.68895 -0.154233,0.76812 -0.314116,0.76812 -0.0924,0 -0.215665,-0.11871 -0.214972,-0.20701 2.83e-4,-0.0363 0.08315,-0.51812 0.184131,-1.07079 0.172203,-0.94239 0.188341,-1.00891 0.259672,-1.07026 0.046,-0.0395 0.113627,-0.0654 0.171099,-0.0654 0.175645,0 0.213686,0.0729 0.433417,0.82988 0.11055,0.38089 0.207464,0.69256 0.215366,0.6926 0.0079,3e-5 0.09721,-0.29401 0.198472,-0.65346 0.1012578,-0.35945 0.2015938,-0.68871 0.2229688,-0.7317 0.102326,-0.2058 0.395582,-0.17914 0.465616,0.0423 0.04635,0.14658 0.377144,1.92263 0.377144,2.02491 0,0.17865 -0.207746,0.27294 -0.336689,0.15281 -0.06487,-0.0604 -0.0691,-0.0772 -0.212728,-0.84006 -0.05262,-0.27956 -0.09953,-0.50444 -0.104227,-0.49974 -0.0047,0.005 -0.06718,0.21403 -0.138852,0.46518 -0.2372688,0.83144 -0.2412448,0.84288 -0.3077638,0.88479 -0.104063,0.0656 -0.173293,0.0741 -0.268224,0.033 z m -1.3479827,-3.76405 c -0.092483,-0.0925 -0.097885,-0.28919 -0.010973,-0.39968 0.074613,-0.0949 0.2284107,-0.10379 0.3139647,-0.0182 0.08655,0.0865 0.08115,0.34124 -0.009,0.42597 -0.08821,0.0828 -0.206266,0.0797 -0.2939551,-0.008 z M 7.0489166,287.2976 c -0.090795,-0.0453 -0.1446436,-0.1662 -0.1117289,-0.25095 0.014376,-0.037 0.065951,-0.105 0.1146119,-0.1511 0.2490728,-0.23591 0.5288295,0.0681 0.2896988,0.31482 -0.1033224,0.1066 -0.1974365,0.13466 -0.2925818,0.0872 z m 2.4975236,-0.15425 c -0.13328,-0.13649 -0.144103,-0.25946 -0.03069,-0.34867 0.113727,-0.0894 0.202448,-0.0754 0.329922,0.052 0.127473,0.12748 0.141455,0.2162 0.052,0.32993 -0.09083,0.11547 -0.217739,0.10345 -0.351231,-0.0333 z m -1.4638536,-0.0928 c -0.6385391,-0.16109 -1.0787524,-0.82892 -0.9720976,-1.47475 0.2062014,-1.24859 1.8656022,-1.51954 2.4599802,-0.40168 0.08216,0.15453 0.07638,0.25126 -0.0199,0.33273 -0.129707,0.10975 -0.268292,0.0343 -0.424327,-0.231 -0.18319,-0.31149 -0.641753,-0.46165 -1.0181256,-0.33341 -0.1850317,0.0631 -0.4245972,0.28759 -0.5095838,0.47763 -0.099021,0.22143 -0.094174,0.52705 0.011609,0.73228 0.092698,0.17985 0.2364557,0.32935 0.4012576,0.4173 0.1014346,0.0541 0.1661399,0.0648 0.3942998,0.0648 0.229361,0 0.292646,-0.0105 0.396256,-0.0657 0.154343,-0.0823 0.318574,-0.24623 0.395036,-0.39429 0.112214,-0.21728 0.316455,-0.24656 0.406264,-0.0583 0.0451,0.0946 0.04405,0.10308 -0.03253,0.25959 -0.116847,0.23883 -0.342554,0.45499 -0.605459,0.57984 -0.198575,0.0943 -0.247698,0.10549 -0.497687,0.11338 -0.1525521,0.005 -0.3257975,-0.003 -0.3849922,-0.0184 z m -1.6482045,-1.07227 c -0.055872,-0.048 -0.078222,-0.0945 -0.078222,-0.1625 0,-0.13672 0.090881,-0.2012 0.2836278,-0.2012 0.1308038,0 0.161315,0.0109 0.2123059,0.0757 0.096855,0.12313 0.07451,0.245 -0.057436,0.31323 -0.1223774,0.0632 -0.2693282,0.053 -0.3602801,-0.0253 z m 3.5249241,-0.12335 c -0.07466,-0.0949 -0.07579,-0.18334 -0.0034,-0.2611 0.1070958,-0.11495 0.3469058,-0.11814 0.4484198,-0.006 0.02798,0.0309 0.05086,0.0968 0.05086,0.14651 0,0.13143 -0.0937,0.19627 -0.283627,0.19627 -0.130805,0 -0.161315,-0.0109 -0.2123058,-0.0757 z m -2.9935786,-1.15638 c -0.1321347,-0.13213 -0.1443342,-0.23179 -0.041023,-0.3351 0.1033121,-0.10331 0.2029678,-0.0911 0.3351026,0.0411 0.1325602,0.13257 0.1475636,0.24686 0.045053,0.34316 -0.1022199,0.096 -0.2095544,0.0805 -0.3391276,-0.0491 z m 2.5073816,0.008 c -0.139382,-0.0976 -0.126898,-0.26745 0.02932,-0.39891 0.166185,-0.13983 0.37817,-0.0649 0.37817,0.1337 0,0.0686 -0.02835,0.11655 -0.118604,0.20075 -0.129933,0.1212 -0.18905,0.13439 -0.288889,0.0645 z m -1.268531,-0.49974 c -0.043343,-0.0433 -0.057462,-0.0958 -0.057462,-0.2134 0,-0.13424 0.010535,-0.16423 0.075705,-0.21549 0.162856,-0.1281 0.325837,-0.0406 0.347437,0.1865 0.01096,0.11518 0.0017,0.15668 -0.04889,0.22085 -0.07748,0.0981 -0.2298215,0.10851 -0.3167906,0.0216 z"
       id="path6389"
       inkscape:connector-curvature="0" />
    <path
       style="fill:none;stroke:#000000;stroke-width:0.01085928;stroke-linecap:butt;stroke-linejoin:miter;stroke-miterlimit:4;stroke-dasharray:none;stroke-opacity:1"
       d="m 1.265905,290.57747 v 1.91556"
       id="path6413"
       inkscape:connector-curvature="0" />
    <path
       style="fill:#ffffff;stroke-width:0.00109696;stroke-miterlimit:4;stroke-dasharray:none"
       d="m 2.3581492,293.52748 c -0.1995366,-0.0118 -0.3964301,-0.0347 -0.4375408,-0.051 -0.1065817,-0.0421 -0.3387314,-0.31047 -0.3774086,-0.43625 -0.018011,-0.0586 -0.039537,-0.38432 -0.04782,-0.72387 -0.013543,-0.55461 -0.020821,-0.62469 -0.071657,-0.68931 -0.031124,-0.0395 -0.075223,-0.0719 -0.098013,-0.0719 -0.032095,0 -0.041384,-0.0474 -0.041246,-0.21042 1.727e-4,-0.2023 0.00344,-0.21229 0.085311,-0.25886 0.059335,-0.0338 0.089856,-0.0778 0.1007256,-0.14512 0.00859,-0.0532 0.02095,-0.79542 0.027489,-1.64944 0.00851,-1.11574 0.021998,-1.58753 0.047786,-1.67629 0.044357,-0.15267 0.2113993,-0.32928 0.403528,-0.42665 l 0.1445963,-0.0733 1.406923,-0.0245 c 1.5429015,-0.0268 1.5036529,-0.0218 1.5983608,-0.20498 0.023674,-0.0458 0.063752,-0.26183 0.089046,-0.4801 0.099752,-0.86067 0.3780694,-1.45833 0.9410725,-2.02089 0.5042656,-0.50386 1.0468826,-0.7863 1.7537354,-0.91285 0.3657006,-0.0655 0.9407058,-0.0474 1.2723738,0.0399 1.0146268,0.26719 1.8123888,0.94465 2.2152558,1.88122 0.131555,0.30583 0.207322,0.61739 0.258997,1.06499 0.07488,0.64861 -0.03702,0.60466 1.608643,0.63181 0.728337,0.012 1.374425,0.0294 1.435751,0.0386 0.159889,0.0241 0.311993,0.10962 0.433027,0.24359 0.213734,0.23658 0.198496,-0.003 0.189319,2.97199 -0.0062,2.0107 -0.01697,2.69641 -0.04324,2.75523 -0.04889,0.10942 -0.234299,0.3087 -0.336282,0.36143 -0.0568,0.0294 -0.232447,0.0528 -0.524606,0.0697 -0.524308,0.0305 -11.5122573,0.0279 -12.0341248,-0.003 z m 9.3449568,-0.97522 c 0.06196,-0.0124 0.112308,-0.0492 0.148637,-0.10884 0.06924,-0.11356 0.06934,-0.11233 -0.01642,-0.21425 l -0.07158,-0.0851 -4.3489752,-0.0148 c -3.2719611,-0.0111 -4.3648903,-0.0233 -4.4132363,-0.0491 l -0.064259,-0.0344 0.00791,-1.70957 c 0.00627,-1.35569 0.015742,-1.71737 0.045655,-1.74728 0.055855,-0.0559 10.7815355,-0.0559 10.8373975,-10e-6 0.0299,0.0299 0.0395,0.3922 0.04628,1.74696 l 0.0085,1.70924 -0.06342,0.0339 c -0.04033,0.0216 -0.306549,0.0397 -0.731311,0.0497 -0.598253,0.0141 -0.673487,0.0213 -0.721517,0.0693 -0.07731,0.0773 -0.06963,0.23162 0.01551,0.31161 0.06842,0.0643 0.07681,0.0649 0.810239,0.0559 l 0.741109,-0.009 0.123036,-0.0871 c 0.210099,-0.14869 0.232812,-0.19899 0.263728,-0.58414 0.01628,-0.20277 0.01981,-0.97777 0.0086,-1.88287 l -0.01908,-1.53824 -0.0726,-0.0963 c -0.03993,-0.053 -0.12546,-0.1346 -0.190062,-0.1814 l -0.117458,-0.0851 H 8.4182262 c -4.7725853,0 -5.522538,0.006 -5.5934183,0.0424 -0.045019,0.0233 -0.1431888,0.11055 -0.2181509,0.19392 l -0.1362963,0.1516 0.00917,1.83047 c 0.010209,2.03648 -0.00215,1.91401 0.2113864,2.10147 0.098784,0.0867 0.1403076,0.10447 0.3056974,0.13051 0.1252578,0.0198 8.6078685,0.0203 8.7064385,4.7e-4 z m -5.5497997,-1.07691 c 0.03029,-0.0439 0.084933,-0.15491 0.1214416,-0.24669 l 0.066372,-0.16689 h 0.4400362 0.4400353 l 0.084633,0.19427 c 0.046548,0.10685 0.1082273,0.21786 0.1370646,0.2467 0.1181935,0.11819 0.3426671,0.0188 0.3426671,-0.15174 0,-0.12055 -0.6150175,-1.79068 -0.7692131,-2.08886 -0.054428,-0.10525 -0.1252363,-0.14495 -0.2585458,-0.14495 -0.076555,0 -0.1145002,0.0179 -0.1485414,0.0698 -0.1447699,0.22095 -0.8263248,2.02131 -0.8263248,2.18278 0,0.17995 0.2666206,0.25598 0.3703752,0.1056 z m 2.6464919,0.0516 c 0.08294,-0.0444 0.132918,-0.20854 0.236554,-0.77692 0.05309,-0.29115 0.105217,-0.51972 0.115843,-0.50792 0.01063,0.0118 0.08117,0.23043 0.156761,0.48584 0.192981,0.65205 0.234257,0.75398 0.321374,0.79368 0.180599,0.0823 0.312145,0.0174 0.3908218,-0.19294 0.03281,-0.0877 0.12077,-0.37418 0.195464,-0.63665 0.09387,-0.32983 0.142449,-0.46071 0.15731,-0.42381 0.01182,0.0294 0.06907,0.29501 0.127223,0.59032 0.05815,0.29532 0.116927,0.558 0.130622,0.58375 0.0137,0.0258 0.06324,0.0627 0.110098,0.0822 0.07051,0.0292 0.100651,0.0273 0.17483,-0.0111 0.153998,-0.0797 0.154527,-0.0721 -0.09912,-1.4094 -0.156636,-0.82581 -0.172816,-0.886 -0.253346,-0.9424 -0.06489,-0.0455 -0.211964,-0.0585 -0.295861,-0.0264 -0.07492,0.0288 -0.118869,0.14084 -0.3073698,0.78392 -0.09764,0.33313 -0.187177,0.61573 -0.198958,0.62801 -0.01178,0.0123 -0.103099,-0.24893 -0.202927,-0.58046 -0.09983,-0.33155 -0.210108,-0.65505 -0.245068,-0.71889 -0.05633,-0.10289 -0.07717,-0.1171 -0.183165,-0.12486 -0.195717,-0.0143 -0.259215,0.0654 -0.330665,0.41509 -0.08724,0.42698 -0.318096,1.72749 -0.318096,1.79195 0,0.068 0.151773,0.22519 0.217353,0.22519 0.02623,0 0.07137,-0.0126 0.100324,-0.0282 z m -0.247928,-3.71987 c 0.193092,-0.088 0.164158,-0.48793 -0.03851,-0.53245 -0.2490841,-0.0547 -0.398056,0.29018 -0.2076047,0.48064 0.092669,0.0927 0.1362987,0.10185 0.2461227,0.0518 z m -1.1874258,-0.61047 c 0.092218,-0.10959 0.097244,-0.26085 0.011515,-0.34657 -0.089538,-0.0895 -0.2444309,-0.0581 -0.3667834,0.0744 -0.1042719,0.11294 -0.1182055,0.20113 -0.047683,0.30181 0.098619,0.1408 0.2701661,0.12819 0.4029539,-0.0296 z m 2.5377248,-0.0134 c 0.08661,-0.11011 0.07474,-0.19745 -0.0448,-0.32978 -0.122281,-0.13536 -0.259935,-0.15761 -0.359418,-0.0582 -0.07163,0.0717 -0.07479,0.22461 -0.0063,0.30563 0.145987,0.1727 0.313051,0.20618 0.410514,0.0822 z m -0.951591,-0.20855 c 0.328249,-0.15707 0.643271,-0.49683 0.682013,-0.73557 0.02132,-0.13139 -0.07458,-0.25645 -0.19665,-0.25645 -0.09355,0 -0.143174,0.0445 -0.354339,0.3182 -0.179716,0.23289 -0.362399,0.3204 -0.668098,0.32003 -0.286374,-3.3e-4 -0.4713412,-0.0747 -0.6335627,-0.25464 -0.1659981,-0.18414 -0.2063174,-0.28459 -0.2207837,-0.55004 -0.01173,-0.21524 -0.00524,-0.25487 0.064955,-0.39841 0.1034676,-0.21148 0.3293178,-0.4093 0.5365701,-0.46999 0.3086893,-0.0904 0.6882483,0.0183 0.8752873,0.25067 0.200609,0.24921 0.293619,0.34675 0.346685,0.36359 0.07963,0.0253 0.227612,-0.0622 0.248935,-0.14716 0.04147,-0.16524 -0.168771,-0.49847 -0.445868,-0.70667 -0.415155,-0.31194 -1.0585856,-0.32518 -1.5135358,-0.0311 -0.3404913,0.22008 -0.5522155,0.59191 -0.5761608,1.01187 -0.022462,0.39391 0.085114,0.69451 0.352238,0.9843 0.2871802,0.31156 0.5509978,0.41741 1.0048306,0.40318 0.271789,-0.009 0.325591,-0.0196 0.49748,-0.10177 z M 6.827778,285.98418 c 0.096416,-0.0675 0.1087463,-0.19834 0.028331,-0.30058 -0.053466,-0.068 -0.082459,-0.0783 -0.2204082,-0.0783 -0.1299496,0 -0.171801,0.013 -0.2300822,0.0712 -0.08263,0.0827 -0.087992,0.13143 -0.027334,0.24872 0.07347,0.14208 0.2901474,0.17046 0.4494997,0.0589 z m 3.575033,-0.10777 c 0.06934,-0.0627 0.06803,-0.21695 -0.0026,-0.30414 -0.0446,-0.0551 -0.08328,-0.0685 -0.197184,-0.0685 -0.18712,0 -0.2987798,0.0715 -0.2987798,0.19124 0,0.11337 0.04522,0.19675 0.1252468,0.23094 0.08799,0.0376 0.309513,0.009 0.373289,-0.0495 z m -3.1000585,-1.11487 c 0.1065912,-0.0839 0.1009911,-0.20014 -0.01606,-0.33345 -0.1216788,-0.13858 -0.2063432,-0.16987 -0.3119127,-0.11528 -0.1593308,0.0824 -0.1614404,0.24007 -0.00533,0.3962 0.128768,0.12878 0.2183897,0.1429 0.3332714,0.0525 z m 2.4436777,-0.0904 c 0.13326,-0.11701 0.171275,-0.21131 0.127642,-0.31665 -0.09678,-0.23364 -0.437829,-0.12986 -0.50773,0.1545 -0.01569,0.0638 -0.0025,0.096 0.06836,0.16688 0.111711,0.11171 0.180294,0.11067 0.311727,-0.005 z m -1.264725,-0.42967 c 0.114821,-0.0614 0.132413,-0.35504 0.02876,-0.47994 -0.05124,-0.0617 -0.2113099,-0.0524 -0.3001505,0.0174 -0.062342,0.0491 -0.076469,0.0843 -0.076469,0.19056 0,0.13017 0.038273,0.23819 0.098671,0.27853 0.046024,0.0308 0.1863965,0.027 0.2491955,-0.007 z"
       id="path6421"
       inkscape:connector-curvature="0" />
    <path
       style="fill:#ffffff;stroke-width:0.00109696;stroke-miterlimit:4;stroke-dasharray:none"
       d="m 6.5498696,290.58765 c -0.00816,-0.0213 0.042157,-0.18658 0.1118699,-0.36724 l 0.1267452,-0.32848 0.1212294,0.32473 c 0.066673,0.17861 0.1212294,0.34387 0.1212294,0.36725 0,0.0588 -0.4585774,0.0624 -0.4810739,0.003 z"
       id="path6423"
       inkscape:connector-curvature="0" />
  </g>
</svg>
