<?xml version="1.0" encoding="UTF-8" standalone="no"?>
<svg
   xmlns:dc="http://purl.org/dc/elements/1.1/"
   xmlns:cc="http://creativecommons.org/ns#"
   xmlns:rdf="http://www.w3.org/1999/02/22-rdf-syntax-ns#"
   xmlns:svg="http://www.w3.org/2000/svg"
   xmlns="http://www.w3.org/2000/svg"
   xmlns:sodipodi="http://sodipodi.sourceforge.net/DTD/sodipodi-0.dtd"
   xmlns:inkscape="http://www.inkscape.org/namespaces/inkscape"
   width="64"
   height="64"
   viewBox="0 0 16.933333 16.933333"
   version="1.1"
   id="svg8"
   sodipodi:docname="seren_ambulance_64x64.svg"
   inkscape:version="1.0.2-2 (e86c870879, 2021-01-15)">
  <defs
     id="defs2" />
  <sodipodi:namedview
     id="base"
     pagecolor="#ffffff"
     bordercolor="#666666"
     borderopacity="1.0"
     inkscape:pageopacity="0.0"
     inkscape:pageshadow="2"
     inkscape:zoom="5.4453128"
     inkscape:cx="97.433327"
     inkscape:cy="44.699985"
     inkscape:document-units="mm"
     inkscape:current-layer="layer1"
     inkscape:document-rotation="0"
     showgrid="false"
     inkscape:snap-global="false"
     fit-margin-top="0"
     fit-margin-left="0"
     fit-margin-right="0"
     fit-margin-bottom="0"
     inkscape:window-width="1540"
     inkscape:window-height="967"
     inkscape:window-x="1954"
     inkscape:window-y="32"
     inkscape:window-maximized="0"
     units="px" />
  <metadata
     id="metadata5">
    <rdf:RDF>
      <cc:Work
         rdf:about="">
        <dc:format>image/svg+xml</dc:format>
        <dc:type
           rdf:resource="http://purl.org/dc/dcmitype/StillImage" />
        <dc:title />
      </cc:Work>
    </rdf:RDF>
  </metadata>
  <g
     inkscape:label="Calque 1"
     inkscape:groupmode="layer"
     id="layer1"
     transform="translate(-44.581036,-28.552681)">
    <path
       style="fill:#000000;stroke-width:0.0310524"
       d="m 47.975553,43.774877 c -0.64522,-0.09011 -1.21905,-0.571328 -1.398817,-1.173051 l -0.03943,-0.131974 -0.546265,-1.16e-4 c -0.487017,-1.03e-4 -0.55705,-0.0067 -0.64568,-0.06073 -0.208288,-0.127 -0.195586,0.113879 -0.195586,-3.708961 0,-2.443072 0.01028,-3.510812 0.03488,-3.626923 0.07416,-0.349869 0.305166,-0.6414 0.625474,-0.789345 l 0.193592,-0.08942 3.823912,-0.0081 3.82391,-0.0081 0.0118,-0.473191 c 0.0189,-0.758634 -0.018,-0.737137 1.26647,-0.737137 1.03489,0 1.06673,0.0053 1.18278,0.195585 0.0533,0.08735 0.0606,0.158158 0.0607,0.583575 l 1.2e-4,0.484162 0.11883,0.0356 c 0.27063,0.08108 0.50503,0.29621 2.46343,2.260881 1.86038,1.866343 1.98345,1.996565 2.09077,2.212381 0.18104,0.364015 0.20106,0.518887 0.20167,1.559731 6.6e-4,0.973579 -0.0166,1.150397 -0.13775,1.414938 -0.15014,0.327954 -0.5607,0.658244 -0.88211,0.70966 -0.23896,0.03823 -0.24705,0.04281 -0.28566,0.161985 -0.17895,0.552331 -0.61862,0.976476 -1.19024,1.148216 -0.37034,0.111265 -0.9328,0.03709 -1.2921,-0.1704 -0.32698,-0.188817 -0.691,-0.640683 -0.77521,-0.962275 l -0.0346,-0.131974 h -3.28796 -3.28796 l -0.0377,0.116447 c -0.18299,0.564772 -0.67966,1.031513 -1.22472,1.150905 -0.2353,0.05154 -0.44739,0.06409 -0.63658,0.03767 z m 0.5255,-0.791814 c 0.30568,-0.107848 0.54761,-0.377745 0.62276,-0.694743 0.10037,-0.423333 -0.13129,-0.878507 -0.54274,-1.066392 -0.22276,-0.101726 -0.56294,-0.09864 -0.77311,0.007 -0.598332,0.300781 -0.730099,1.054472 -0.26557,1.519006 0.25241,0.252408 0.64013,0.3475 0.95866,0.235117 z m 10.00735,-0.04227 c 0.18564,-0.09058 0.37368,-0.27836 0.46556,-0.464889 0.0996,-0.202233 0.0992,-0.545824 -8.8e-4,-0.769906 -0.18053,-0.404237 -0.64487,-0.639409 -1.06556,-0.53967 -0.72982,0.173027 -0.98602,1.055027 -0.45943,1.581619 0.20288,0.202883 0.40928,0.283531 0.6971,0.272395 0.1499,-0.0058 0.26262,-0.03049 0.36316,-0.07955 z m -9.55802,-4.058007 c 0.17088,-0.08109 0.21797,-0.20214 0.23111,-0.59401 l 0.0116,-0.346093 0.34609,-0.0116 c 0.58267,-0.01953 0.64116,-0.09034 0.64098,-0.775899 -1e-4,-0.387138 -0.008,-0.458606 -0.0607,-0.544982 -0.0984,-0.161356 -0.2016,-0.195586 -0.58972,-0.195586 h -0.34312 l -4.4e-4,-0.271709 c -4.4e-4,-0.396711 -0.0237,-0.495571 -0.14508,-0.616902 l -0.1051,-0.10507 h -0.49877 c -0.40599,0 -0.51478,0.0095 -0.58476,0.05079 -0.15741,0.09299 -0.18755,0.186646 -0.18755,0.582817 v 0.360077 h -0.36008 c -0.396166,0 -0.489825,0.03014 -0.58281,0.187551 -0.04134,0.06998 -0.05079,0.178773 -0.05079,0.584754 v 0.498777 l 0.105069,0.10507 c 0.121332,0.121331 0.220191,0.14458 0.616901,0.145079 l 0.27171,3.3e-4 v 0.343119 c 0,0.388122 0.0342,0.491329 0.19559,0.589713 0.0864,0.05267 0.15784,0.06063 0.54498,0.06073 0.33404,9.3e-5 0.4704,-0.01167 0.54478,-0.04697 z m 9.11498,-1.059471 c 0.0354,-0.045 0.0644,-0.110441 0.0644,-0.145423 0,-0.07866 -1.88952,-1.984504 -2.0368,-2.054394 -0.0799,-0.03792 -0.23536,-0.0473 -0.78369,-0.0473 -0.73527,0 -0.75824,0.0048 -0.79882,0.166475 -0.01,0.03794 -0.013,0.487608 -0.008,0.999272 0.008,0.824659 0.0156,0.938973 0.0636,1.006693 0.11058,0.156237 0.0871,0.154225 1.81458,0.155398 l 1.62024,0.0011 0.0644,-0.08182 z m -2.66826,-3.861851 v -0.217367 h -0.48131 -0.48132 v 0.217367 0.217368 h 0.48132 0.48131 z m -2.28409,-1.118893 c -0.0594,-0.01795 -0.24832,-0.184759 -0.50461,-0.445446 l -0.40971,-0.416745 v -0.161506 c 0,-0.14227 0.0126,-0.17408 0.10558,-0.267084 0.093,-0.093 0.12482,-0.105579 0.26709,-0.105579 h 0.1615 l 0.41641,0.40938 c 0.4613,0.453519 0.5117,0.540312 0.43932,0.756539 -0.0656,0.195925 -0.26701,0.293523 -0.47558,0.230441 z m 3.54614,1.29e-4 c -0.18338,-0.05496 -0.27546,-0.219068 -0.24383,-0.434579 0.0126,-0.0861 0.0905,-0.183759 0.39153,-0.491097 0.20668,-0.210992 0.4135,-0.40324 0.45962,-0.427217 0.299,-0.155448 0.63937,0.110229 0.55083,0.429957 -0.0335,0.120824 -0.7732,0.871849 -0.90841,0.922268 -0.10008,0.03732 -0.1272,0.03739 -0.24974,6.6e-4 z m -1.96742,-0.389038 c -0.14053,-0.110761 -0.16373,-0.231065 -0.16393,-0.850145 -1.1e-4,-0.48203 0.007,-0.555753 0.0633,-0.672506 0.0625,-0.129039 0.20503,-0.230055 0.32468,-0.230055 0.10079,0 0.26334,0.100381 0.32556,0.201049 0.0572,0.09258 0.0626,0.153881 0.0626,0.713972 0,0.48319 -0.01,0.633663 -0.0471,0.711907 -0.0988,0.208126 -0.38097,0.270936 -0.56513,0.125781 z"
       id="path1295" />
    <path
       style="fill:#ffffff;stroke-width:0.183644"
       d="M 12.814748,39.060463 C 12.163486,38.935459 11.838153,38.238697 11.723557,36.72347 L 11.618481,35.334132 10.40539,35.333445 C 9.5202,35.332944 9.0309708,35.234395 8.5954553,34.968856 L 7.9986117,34.604954 v -1.939311 c 0,-1.814162 0.029089,-1.968399 0.450763,-2.390074 0.3973389,-0.397339 0.6117664,-0.450763 1.8092223,-0.450763 h 1.35846 l 0.116222,-1.507144 c 0.16357,-2.121127 0.280079,-2.214489 2.793674,-2.238664 1.926782,-0.01853 1.972017,-0.0094 2.33615,0.473997 0.269439,0.357653 0.39579,0.874138 0.460493,1.882353 l 0.08917,1.389458 h 1.361528 c 1.213759,0 1.412239,0.05071 1.828774,0.467246 0.450406,0.450406 0.464997,0.536223 0.404852,2.381239 -0.07934,2.433924 -0.167711,2.541889 -2.154345,2.632107 l -1.438308,0.06532 -0.115654,1.36818 c -0.143423,1.696695 -0.311137,2.01862 -1.176907,2.259061 -0.672993,0.186902 -2.481798,0.221082 -3.307958,0.06251 z"
       id="path10"
       transform="matrix(0.26458333,0,0,0.26458333,44.581036,28.552681)" />
    <path
       style="fill:#ffffff;stroke-width:0.183644"
       d="m 12.205401,54.189472 c -2.4366548,-1.286403 -2.5953981,-4.444463 -0.299769,-5.963638 1.088133,-0.720093 2.572215,-0.696337 3.640482,0.05827 1.602497,1.131983 2.037393,3.202071 0.989496,4.709958 -0.640353,0.921445 -1.873748,1.622706 -2.854057,1.622706 -0.366729,0 -1.030997,-0.192285 -1.476152,-0.427299 z"
       id="path12"
       transform="matrix(0.26458333,0,0,0.26458333,44.581036,28.552681)" />
    <path
       style="fill:#ffffff;stroke-width:0.183644"
       d="m 39.456289,35.168141 c -0.727545,-0.06021 -1.429984,-0.216793 -1.560975,-0.34796 -0.33511,-0.335556 -0.462716,-7.460656 -0.140568,-7.84882 0.177474,-0.213843 0.786287,-0.268506 2.99052,-0.268506 h 2.767681 l 3.837471,3.865492 c 4.999196,5.035698 5.127553,4.66743 -1.635223,4.691616 -2.714853,0.0097 -5.531361,-0.03161 -6.258906,-0.09182 z"
       id="path14"
       transform="matrix(0.26458333,0,0,0.26458333,44.581036,28.552681)" />
    <path
       style="fill:#ffffff;stroke-width:0.183644"
       d="m 49.777662,54.269675 c -2.46401,-1.137214 -2.80998,-4.305764 -0.641648,-5.876496 1.126889,-0.816314 2.148563,-0.914287 3.358942,-0.322104 1.10382,0.540049 1.662177,1.194931 1.959161,2.297846 0.269727,1.001688 0.08973,1.874075 -0.576396,2.793639 -0.963161,1.329605 -2.638064,1.781869 -4.100059,1.107115 z"
       id="path16"
       transform="matrix(0.26458333,0,0,0.26458333,44.581036,28.552681)" />
    <path
       style="fill:#ffffff;stroke-width:0.183644"
       d="m 37.38168,20.458953 v -0.734576 h 1.74462 1.74462 v 0.734576 0.734577 H 39.1263 37.38168 Z"
       id="path18"
       transform="matrix(0.26458333,0,0,0.26458333,44.581036,28.552681)" />
  </g>
</svg>
