<?xml version="1.0" encoding="UTF-8" standalone="no"?>
<!-- Created with Inkscape (http://www.inkscape.org/) -->

<svg
   xmlns:dc="http://purl.org/dc/elements/1.1/"
   xmlns:cc="http://creativecommons.org/ns#"
   xmlns:rdf="http://www.w3.org/1999/02/22-rdf-syntax-ns#"
   xmlns:svg="http://www.w3.org/2000/svg"
   xmlns="http://www.w3.org/2000/svg"
   xmlns:sodipodi="http://sodipodi.sourceforge.net/DTD/sodipodi-0.dtd"
   xmlns:inkscape="http://www.inkscape.org/namespaces/inkscape"
   width="64"
   height="64"
   viewBox="0 0 16.933333 16.933334"
   version="1.1"
   id="svg8"
   inkscape:version="0.92.5 (2060ec1f9f, 2020-04-08)"
   sodipodi:docname="arm_64x64.svg">
  <defs
     id="defs2" />
  <sodipodi:namedview
     id="base"
     pagecolor="#ffffff"
     bordercolor="#666666"
     borderopacity="1.0"
     inkscape:pageopacity="0.0"
     inkscape:pageshadow="2"
     inkscape:zoom="2.8"
     inkscape:cx="101.14656"
     inkscape:cy="-8.3188918"
     inkscape:document-units="mm"
     inkscape:current-layer="layer1"
     showgrid="false"
     units="px"
     inkscape:window-width="1208"
     inkscape:window-height="987"
     inkscape:window-x="1992"
     inkscape:window-y="0"
     inkscape:window-maximized="1" />
  <metadata
     id="metadata5">
    <rdf:RDF>
      <cc:Work
         rdf:about="">
        <dc:format>image/svg+xml</dc:format>
        <dc:type
           rdf:resource="http://purl.org/dc/dcmitype/StillImage" />
        <dc:title></dc:title>
      </cc:Work>
    </rdf:RDF>
  </metadata>
  <g
     inkscape:label="Layer 1"
     inkscape:groupmode="layer"
     id="layer1"
     transform="translate(0,-280.06665)">
    <path
       style="fill:#000000;stroke-width:0.06169313"
       d="m 11.580115,295.70428 c -0.11876,-0.0128 -0.479664,-0.0519 -0.802011,-0.0869 -0.749051,-0.0813 -1.9358202,-0.31952 -2.8231599,-0.56661 -0.6362857,-0.17718 -0.6915097,-0.20423 -0.6562675,-0.32138 0.021165,-0.0704 0.061249,-0.15242 0.089079,-0.18236 0.028821,-0.0311 0.3511085,0.028 0.7488071,0.1371 0.8921296,0.24475 2.0746333,0.47868 2.8396133,0.56176 0.905136,0.0983 3.090082,0.0853 3.335841,-0.0199 0.333592,-0.14275 0.692308,-0.60207 0.491564,-0.62945 -0.04242,-0.006 -0.28533,-0.014 -0.539814,-0.0182 l -0.462699,-0.007 v -0.18509 -0.18507 h 0.586085 0.586084 v -0.21593 -0.21593 h -0.308465 c -0.301612,0 -0.308465,-0.004 -0.308465,-0.18507 0,-0.18173 0.0058,-0.18509 0.31829,-0.18509 h 0.31829 l -0.03956,-1.31097 c -0.04076,-1.35054 -0.162994,-3.01393 -0.320759,-4.36478 -0.12073,-1.03378 -0.125116,-0.98711 0.09272,-0.98711 0.220042,0 0.20962,-0.0362 0.336506,1.17218 0.216029,2.05748 0.371551,4.8612 0.333657,6.01508 -0.02458,0.74842 -0.100537,0.97819 -0.437234,1.32256 -0.422819,0.43247 -0.557843,0.46569 -1.928315,0.47429 -0.678624,0.004 -1.331029,-0.002 -1.449788,-0.0155 z m -5.4598421,-1.25119 c -0.3393124,-0.12936 -0.9639551,-0.39494 -1.3880954,-0.59018 -0.4241403,-0.19523 -0.8683311,-0.39224 -0.9870907,-0.43782 -0.3264854,-0.12529 -0.7517009,-0.10468 -1.24874,0.0606 -0.2463009,0.0819 -0.5519278,0.16343 -0.6791697,0.1812 -0.2287265,0.0319 -0.2313497,0.0298 -0.2313497,-0.17977 0,-0.18547 0.019476,-0.21205 0.1553921,-0.21205 0.085466,0 0.3561428,-0.071 0.6015071,-0.15788 0.4470911,-0.15822 1.0939529,-0.21305 1.4137317,-0.11977 0.078573,0.0229 0.4961407,0.20716 0.9279255,0.40946 0.4317849,0.20228 1.1089366,0.49067 1.5047806,0.64085 0.395844,0.15018 0.7330063,0.28635 0.7492502,0.30258 0.056122,0.0562 -0.049576,0.34375 -0.1252692,0.34089 -0.041768,-10e-4 -0.3535603,-0.10877 -0.6928725,-0.2381 z m 6.8787841,-0.0676 c 0,-0.1704 0.01714,-0.18508 0.215926,-0.18508 0.198788,0 0.215926,0.0147 0.215926,0.18508 0,0.17039 -0.01714,0.18508 -0.215926,0.18508 -0.198789,0 -0.215926,-0.0147 -0.215926,-0.18508 z m -2.483148,-2.1759 c -0.6022795,-0.20341 -1.0950533,-0.39212 -1.0950533,-0.41936 0,-0.0272 0.026017,-0.11792 0.057814,-0.20158 l 0.057815,-0.15206 0.7287723,0.26279 c 0.400826,0.14454 0.787215,0.28115 0.858642,0.30359 0.122214,0.0384 0.134444,0.007 0.207517,-0.53116 0.04271,-0.31459 0.187297,-1.01617 0.321312,-1.55907 0.349891,-1.41743 0.410526,-2.13279 0.27527,-3.24755 l -0.10749,-0.88589 -0.492912,-0.4974 c -0.593649,-0.59907 -0.67304,-0.80186 -0.672534,-1.71794 4.43e-4,-0.7433 0.06716,-1.01731 0.317209,-1.3021 0.276448,-0.31485 0.477384,-0.34977 1.88365,-0.32738 1.381725,0.022 1.427382,0.0346 1.731734,0.48191 0.131677,0.19348 0.138806,0.26293 0.138721,1.35158 -4.9e-5,0.63119 0.03225,1.44615 0.07177,1.81102 0.03952,0.36488 0.06032,0.67494 0.04623,0.68904 -0.01409,0.0141 -0.09796,0.0438 -0.18636,0.066 -0.147469,0.037 -0.164498,0.0209 -0.206377,-0.1955 -0.02511,-0.1297 -0.06376,-0.96702 -0.08591,-1.8607 l -0.04026,-1.62489 -0.173096,-0.14879 c -0.170784,-0.1468 -0.190009,-0.14879 -1.439112,-0.14879 h -1.266013 l -0.180334,0.18033 -0.180334,0.18034 v 0.8108 c 0,0.47323 0.02857,0.86692 0.06862,0.94556 0.03774,0.0741 0.252153,0.32216 0.476467,0.55119 l 0.407845,0.41643 h 0.418083 0.418083 v 0.21593 0.21593 h -0.328624 -0.328617 l 0.08754,0.5398 c 0.06085,0.37522 0.07829,0.83139 0.0572,1.49606 -0.02732,0.86101 -0.05582,1.05677 -0.286059,1.96553 -0.219545,0.86652 -0.383325,1.78378 -0.448915,2.51418 l -0.01725,0.19203 z m -2.1186592,-0.87042 c -0.2745675,-0.14743 -0.802044,-0.46196 -1.1721695,-0.69895 -0.8425384,-0.53949 -1.7945701,-1.06625 -2.5545959,-1.41348 -0.5077919,-0.232 -0.5837878,-0.2863 -0.5688886,-0.40651 0.0094,-0.0763 0.041304,-0.16285 0.070778,-0.19231 0.1073918,-0.1074 2.0396091,0.88889 3.400345,1.75326 0.357738,0.22725 0.8574524,0.51747 1.1104763,0.64495 0.2530239,0.12747 0.4680238,0.23785 0.4777769,0.24527 0.04239,0.0323 -0.1365608,0.33779 -0.1972921,0.33686 -0.036968,-3.9e-4 -0.2918597,-0.12163 -0.5664276,-0.26909 z m -4.2203101,-1.33389 c 0,-0.1704 0.017138,-0.18509 0.2159258,-0.18509 0.1987881,0 0.2159258,0.0147 0.2159258,0.18509 0,0.17039 -0.017138,0.18508 -0.2159258,0.18508 -0.1987894,0 -0.2159258,-0.0147 -0.2159258,-0.18508 z M 3.0973094,288.6069 C 2.82586,288.5246 2.3747288,288.44053 2.094796,288.42009 l -0.5089686,-0.0371 v -0.20677 c 0,-0.15694 0.026393,-0.20676 0.109582,-0.20676 0.342356,0 1.1992363,0.14908 1.6189072,0.28165 l 0.484997,0.15321 -0.063997,0.18358 c -0.035191,0.10097 -0.0821,0.18022 -0.1042242,0.17614 -0.022124,-0.004 -0.2623299,-0.0747 -0.5337792,-0.15709 z m 10.2102136,-2.95098 c 0,-0.1988 0.01469,-0.21594 0.185079,-0.21594 0.17039,0 0.185079,0.0172 0.185079,0.21594 0,0.19878 -0.01469,0.21592 -0.185079,0.21592 -0.17039,0 -0.185079,-0.0172 -0.185079,-0.21592 z"
       id="path316"
       inkscape:connector-curvature="0" />
    <path
       style="fill:#ffffff;stroke-width:0.00083275;stroke-miterlimit:4;stroke-dasharray:none"
       d="m 11.796824,295.28541 c -1.055711,-0.0362 -1.9492251,-0.18324 -3.5583716,-0.58529 -0.3150756,-0.0787 -0.6399087,-0.14896 -0.7218515,-0.15608 l -0.1489865,-0.013 -0.038297,0.0911 c -0.021063,0.0501 -0.049509,0.0912 -0.063214,0.0913 -0.024133,2.4e-4 -0.3205328,-0.10666 -0.3345702,-0.12065 -0.00382,-0.004 0.00398,-0.0475 0.017349,-0.0973 0.015979,-0.0594 0.017004,-0.10394 0.00299,-0.13009 -0.01178,-0.022 -0.1181558,-0.0777 -0.237682,-0.12452 -1.020263,-0.39929 -1.4308124,-0.57144 -2.1552925,-0.9038 -0.2302434,-0.10562 -0.5128192,-0.23299 -0.6279434,-0.2831 l -0.2093158,-0.0911 -0.3965988,-4.1e-4 c -0.4465207,-4e-4 -0.5861648,0.0215 -1.04658,0.16523 -0.3066787,0.0958 -0.4824467,0.14163 -0.4942562,0.12906 -0.00643,-0.007 -0.1623437,-4.84652 -0.1565466,-4.85982 9.973e-4,-0.002 0.1552746,0.01 0.3428348,0.0257 0.5280007,0.0464 0.827687,0.10493 1.3628484,0.26635 0.1378659,0.0416 0.2697962,0.0756 0.2931789,0.0756 0.040561,0 0.054247,-0.0235 0.1514634,-0.25998 l 0.020825,-0.0507 0.1733192,0.0902 0.173318,0.0902 -0.029165,0.0817 c -0.043766,0.12263 -0.03727,0.17722 0.028262,0.23795 0.032654,0.0303 0.4069395,0.22732 0.8317554,0.43789 0.8532778,0.42299 1.3467664,0.6991 2.2045562,1.23345 0.9212053,0.57387 1.6570536,0.98163 1.7714045,0.98163 0.051435,0 0.1391709,-0.1001 0.1913421,-0.21838 l 0.038402,-0.087 0.1561718,0.0782 c 0.085895,0.0431 0.160103,0.0818 0.1649079,0.0861 0.0048,0.005 -0.012547,0.0636 -0.038558,0.13158 -0.070592,0.18447 -0.065742,0.20207 0.07257,0.26323 0.2805318,0.12407 2.0494615,0.73504 2.0696565,0.71485 0.0064,-0.006 0.03243,-0.19472 0.05785,-0.4185 0.08313,-0.73174 0.226642,-1.49486 0.451507,-2.40088 0.196084,-0.79004 0.225479,-1.00074 0.2518,-1.80497 0.02261,-0.69078 6.2e-5,-1.19955 -0.07403,-1.67272 -0.03102,-0.19801 -0.05639,-0.36904 -0.05639,-0.38009 0,-0.0111 0.141941,-0.02 0.319483,-0.02 h 0.319481 v -0.22032 -0.22034 h -0.41745 -0.417451 l -0.381255,-0.40396 c -0.44463,-0.47111 -0.496801,-0.54062 -0.525448,-0.70009 -0.01174,-0.0653 -0.02727,-0.45589 -0.03452,-0.86792 l -0.01317,-0.74913 0.174578,-0.17178 0.174579,-0.17179 1.254376,0.006 1.254377,0.006 0.09915,0.0603 c 0.05453,0.0332 0.1375,0.0937 0.184374,0.13438 l 0.08522,0.0741 0.02921,1.12153 c 0.04982,1.91245 0.08123,2.42474 0.155677,2.53882 0.02867,0.0439 0.04537,0.0492 0.117081,0.0371 l 0.08365,-0.0141 0.02492,0.16759 c 0.01371,0.0922 0.02493,0.17585 0.02493,0.18592 0,0.01 -0.03909,0.0246 -0.08686,0.0322 -0.04777,0.007 -0.09387,0.0252 -0.102417,0.0391 -0.02845,0.046 -0.01089,0.31198 0.06694,1.01141 0.177365,1.59459 0.272366,2.93747 0.320243,4.52672 0.01241,0.41203 0.02585,0.82597 0.02987,0.91989 l 0.0073,0.17075 h -0.273221 c -0.150271,0 -0.292398,0.01 -0.315838,0.0228 -0.03525,0.0189 -0.04261,0.0469 -0.04261,0.16256 0,0.0964 0.01015,0.14812 0.03258,0.16677 0.01993,0.0166 0.139715,0.0317 0.308466,0.039 l 0.275885,0.0124 v 0.1951 0.19509 h -0.583881 -0.58388 v 0.19487 0.19486 l 0.500098,0.0153 c 0.295809,0.009 0.511569,0.0249 0.528181,0.0387 0.07203,0.0598 -0.127898,0.33064 -0.362238,0.49076 -0.188074,0.1285 -0.251423,0.13949 -0.96349,0.16701 -0.608575,0.0235 -0.997873,0.0233 -1.707578,-0.001 z m 1.598342,-0.73482 c 0.03377,-0.0246 0.04241,-0.0582 0.04241,-0.16451 0,-0.0793 -0.01151,-0.145 -0.02827,-0.16179 -0.018,-0.0181 -0.08855,-0.0283 -0.1942,-0.0283 -0.197004,0 -0.228472,0.0264 -0.228472,0.1915 0,0.15306 0.04801,0.19408 0.227138,0.19408 0.08471,0 0.155568,-0.0124 0.181408,-0.0309 z m -8.8158094,-4.38823 c 0.048418,-0.0484 0.047948,-0.27943 -6.422e-4,-0.31975 -0.047268,-0.0392 -0.3228685,-0.0392 -0.370135,0 -0.052415,0.0435 -0.049866,0.29961 0.00334,0.33057 0.063725,0.0371 0.327307,0.0293 0.3674833,-0.0111 z m 9.0813344,-4.33902 c 0.04578,-0.0699 0.03552,-0.33322 -0.01422,-0.36468 -0.01755,-0.0111 -0.09413,-0.0203 -0.170162,-0.0205 -0.130595,-3.2e-4 -0.13955,0.004 -0.161646,0.0603 -0.03259,0.0844 -0.01482,0.33362 0.02563,0.35921 0.01755,0.0111 0.08869,0.0203 0.158092,0.0205 0.110498,2.9e-4 0.130673,-0.006 0.162305,-0.0548 z"
       id="path320"
       inkscape:connector-curvature="0" />
  </g>
</svg>
