<?xml version="1.0" encoding="UTF-8" standalone="no"?>
<!-- Created with Inkscape (http://www.inkscape.org/) -->

<svg
   xmlns:dc="http://purl.org/dc/elements/1.1/"
   xmlns:cc="http://creativecommons.org/ns#"
   xmlns:rdf="http://www.w3.org/1999/02/22-rdf-syntax-ns#"
   xmlns:svg="http://www.w3.org/2000/svg"
   xmlns="http://www.w3.org/2000/svg"
   xmlns:sodipodi="http://sodipodi.sourceforge.net/DTD/sodipodi-0.dtd"
   xmlns:inkscape="http://www.inkscape.org/namespaces/inkscape"
   width="64"
   height="64"
   viewBox="0 0 16.933333 16.933334"
   version="1.1"
   id="svg8"
   inkscape:version="0.92.5 (2060ec1f9f, 2020-04-08)"
   sodipodi:docname="arts_room_64x64.svg">
  <defs
     id="defs2" />
  <sodipodi:namedview
     id="base"
     pagecolor="#ffffff"
     bordercolor="#666666"
     borderopacity="1.0"
     inkscape:pageopacity="0.0"
     inkscape:pageshadow="2"
     inkscape:zoom="5.6"
     inkscape:cx="53.449813"
     inkscape:cy="17.023233"
     inkscape:document-units="mm"
     inkscape:current-layer="layer1"
     showgrid="false"
     units="px"
     inkscape:window-width="1208"
     inkscape:window-height="987"
     inkscape:window-x="1992"
     inkscape:window-y="0"
     inkscape:window-maximized="1" />
  <metadata
     id="metadata5">
    <rdf:RDF>
      <cc:Work
         rdf:about="">
        <dc:format>image/svg+xml</dc:format>
        <dc:type
           rdf:resource="http://purl.org/dc/dcmitype/StillImage" />
        <dc:title></dc:title>
      </cc:Work>
    </rdf:RDF>
  </metadata>
  <g
     inkscape:label="Layer 1"
     inkscape:groupmode="layer"
     id="layer1"
     transform="translate(0,-280.06665)">
    <path
       style="fill:#000000;stroke-width:0.06961168"
       d="m 1.4249922,296.23722 c -0.060303,-0.0727 0.0268,-0.39795 0.3743404,-1.39802 0.2491119,-0.71681 0.45293,-1.31481 0.45293,-1.32886 0,-0.014 -0.1801206,-0.035 -0.4002676,-0.0464 -0.3545802,-0.0185 -0.4028064,-0.0388 -0.4225111,-0.17751 -0.019483,-0.13722 -0.063047,-0.15663 -0.3515389,-0.15663 -0.18111278,0 -0.36688511,-0.0376 -0.41282837,-0.0836 -0.12031772,-0.12031 -0.12031772,-6.67379 0,-6.7941 0.0568994,-0.0568 0.38982427,-0.0836 1.04417477,-0.0836 h 0.9606409 v -0.24821 c 0,-0.41655 0.095531,-0.51752 0.4897311,-0.51752 0.3195318,0 0.3456094,-0.0127 0.3456094,-0.16905 0,-0.093 0.049166,-0.21822 0.1092493,-0.2783 0.1618305,-0.16183 0.3780299,-0.024 0.3780299,0.24098 0,0.2001 0.010187,0.20637 0.3341357,0.20637 0.4115607,0 0.5012048,0.0835 0.5012048,0.46641 0,0.3959 0.1573238,0.39789 0.2752683,0.003 0.2212549,-0.73989 0.8533874,-1.64594 1.4428054,-2.06801 0.2103011,-0.15059 0.4107087,-0.28334 0.4453484,-0.295 0.034637,-0.0117 -0.015061,-0.1753 -0.1104648,-0.36364 -0.3329352,-0.65736 -0.2080239,-1.35468 0.3379434,-1.88658 0.5553154,-0.54101 1.1690873,-0.66058 1.8244739,-0.35539 0.8756054,0.40773 1.2500499,1.41667 0.8320527,2.24197 -0.095392,0.18834 -0.1421999,0.35295 -0.1040165,0.36579 0.038191,0.0128 0.2537707,0.15904 0.4790717,0.3249 0.578197,0.42564 1.184561,1.30575 1.402717,2.03596 0.117833,0.39442 0.275183,0.39243 0.275183,-0.003 0,-0.38298 0.08964,-0.46641 0.501204,-0.46641 0.323974,0 0.334137,-0.006 0.334137,-0.20637 0,-0.26499 0.216199,-0.40281 0.37803,-0.24098 0.06008,0.0601 0.109249,0.18533 0.109249,0.2783 0,0.15552 0.02675,0.16905 0.334136,0.16905 0.41156,0 0.501205,0.0835 0.501205,0.46641 v 0.29932 h 0.96064 c 0.65435,0 0.987276,0.0266 1.044175,0.0836 0.120317,0.12031 0.120317,6.67379 0,6.7941 -0.04595,0.046 -0.231715,0.0836 -0.412828,0.0836 -0.288492,0 -0.332051,0.0195 -0.351539,0.15663 -0.0197,0.13875 -0.06793,0.15901 -0.422511,0.17751 -0.220147,0.0116 -0.400268,0.0324 -0.400268,0.0464 0,0.014 0.204368,0.61363 0.454152,1.33238 0.409295,1.17776 0.443543,1.31744 0.346753,1.41423 -0.179983,0.17999 -0.331258,0.005 -0.55723,-0.64587 l -0.208869,-0.60128 -0.641198,-2.6e-4 -0.641198,-2.6e-4 -0.02011,0.60174 c -0.01575,0.47096 -0.04532,0.61759 -0.1361,0.67468 -0.084,0.0528 -0.146382,0.0477 -0.226237,-0.0186 -0.08455,-0.0702 -0.110256,-0.22746 -0.110256,-0.67463 v -0.58318 h -0.65551 -0.65551 l -0.201376,0.60413 c -0.219265,0.6578 -0.361347,0.82371 -0.546678,0.63839 -0.10367,-0.10373 -0.07953,-0.20802 0.30578,-1.32145 0.230086,-0.66488 0.439497,-1.26205 0.465357,-1.32704 0.04049,-0.10176 -0.0094,-0.1211 -0.359295,-0.13923 -0.343855,-0.0178 -0.416876,-0.0451 -0.475028,-0.17769 -0.0547,-0.12467 -0.125705,-0.15684 -0.348059,-0.15768 -0.153639,-5.4e-4 -0.3179062,-0.0256 -0.3650396,-0.0556 -0.062966,-0.0399 -0.090657,-0.48748 -0.1044217,-1.68701 l -0.018719,-1.63258 H 9.4918616 9.178609 l -0.020907,0.32303 c -0.030192,0.46646 -0.1840798,0.58135 -0.7791542,0.58166 -0.5954066,2.7e-4 -0.7498929,-0.11484 -0.7801023,-0.58166 l -0.020907,-0.32303 H 7.2642849 6.9510324 l -0.018719,1.63258 c -0.013753,1.19953 -0.041456,1.64701 -0.1044218,1.68701 -0.047129,0.03 -0.2114008,0.0549 -0.3650397,0.0556 -0.2223536,7.8e-4 -0.2933615,0.033 -0.3480579,0.15768 -0.05815,0.13256 -0.1311743,0.15987 -0.4750287,0.17769 -0.3420751,0.0177 -0.3994387,0.039 -0.3628344,0.13436 0.023917,0.0623 0.2338723,0.65894 0.4665766,1.32582 0.3915596,1.12214 0.4146169,1.22101 0.3093199,1.32631 -0.186629,0.18663 -0.3281679,0.022 -0.5478982,-0.63716 l -0.201377,-0.60417 H 4.6507541 3.9979537 L 3.977845,295.611 c -0.015744,0.47096 -0.045323,0.6176 -0.1360991,0.67468 -0.084012,0.0528 -0.1463838,0.0477 -0.2262375,-0.0185 -0.084545,-0.0702 -0.1102564,-0.2275 -0.1102564,-0.67467 V 295.0093 H 2.8604163 2.2155807 l -0.1990832,0.58635 c -0.2496954,0.73542 -0.3886006,0.88608 -0.591525,0.64158 z m 2.0802806,-2.2373 v -0.52209 H 3.1287988 2.7523259 l -0.138103,0.40026 c -0.075955,0.22015 -0.1604969,0.4551 -0.1878677,0.52209 -0.044975,0.11009 0.00451,0.12182 0.5145759,0.12182 h 0.5643417 z m 1.5607685,0.36546 c -0.027321,-0.0861 -0.1027663,-0.31325 -0.167656,-0.50469 l -0.1179757,-0.34806 -0.3939271,-0.0208 -0.3939282,-0.0208 v 0.52556 0.52556 h 0.5615842 c 0.5506963,0 0.560621,-0.003 0.5119028,-0.15662 z m 7.6975847,-0.36894 v -0.52556 l -0.393928,0.0208 -0.393927,0.0208 -0.117976,0.34807 c -0.250683,0.73957 -0.291428,0.6613 0.344246,0.6613 h 0.561585 z m 1.566199,0.40374 c -0.02737,-0.067 -0.111912,-0.30194 -0.187867,-0.52209 l -0.138103,-0.40026 h -0.376473 -0.376474 v 0.52209 0.52208 h 0.564341 c 0.510017,0 0.559551,-0.0117 0.514576,-0.12182 z m -8.6665908,-1.54886 c 0,-0.13585 -0.046411,-0.13922 -1.9143206,-0.13922 -1.8679132,0 -1.9143218,0.003 -1.9143218,0.13922 0,0.13586 0.046411,0.13922 1.9143218,0.13922 1.8679131,0 1.9143206,-0.003 1.9143206,-0.13922 z m 9.2583538,0 c 0,-0.13585 -0.04641,-0.13922 -1.914321,-0.13922 -1.867914,0 -1.914321,0.003 -1.914321,0.13922 0,0.13586 0.04641,0.13922 1.914321,0.13922 1.867913,0 1.914321,-0.003 1.914321,-0.13922 z M 1.4169221,292.50571 c 0,-0.0753 0.060592,-0.1692 0.1346473,-0.20883 0.1448233,-0.0776 4.0943449,-0.1028 4.3734705,-0.028 0.087694,0.0235 0.1758048,0.11554 0.1989791,0.2079 0.02937,0.117 0.090738,0.16571 0.2088122,0.16571 h 0.167223 l -0.018141,-3.01071 -0.018141,-3.0107 H 3.7663226 c -1.4835994,0 -2.6974526,0.0235 -2.6974526,0.0522 0,0.0287 0,1.38353 0,3.01072 v 2.95849 h 0.1740289 c 0.1265819,0 0.174029,-0.0373 0.174029,-0.13678 z m 1.5520998,-1.60233 c -0.5483207,-0.11699 -0.6007481,-0.17384 -0.5564105,-0.60342 0.04163,-0.40333 0.3090363,-0.943 0.5381645,-1.08609 0.1042249,-0.0651 0.1254902,-0.13709 0.097105,-0.3287 -0.065906,-0.44482 0.3005899,-0.83705 0.7821398,-0.83705 0.2626312,0 0.6657918,0.42805 0.6372448,0.67658 -0.033434,0.29106 -0.2935004,0.30264 -0.4398633,0.0196 -0.090009,-0.17407 -0.1497746,-0.21308 -0.2998688,-0.19575 -0.1361708,0.0157 -0.1938251,0.0667 -0.210749,0.18629 -0.012815,0.0905 0.010651,0.19863 0.052211,0.24017 0.1444794,0.14448 0.074044,0.32528 -0.1922102,0.49335 -0.4397649,0.27762 -0.6510523,0.88847 -0.3413874,0.98699 0.246447,0.0784 1.2393683,0.0556 1.5735596,-0.0361 0.3596021,-0.0987 0.4973879,-0.061 0.4973879,0.13628 0,0.22283 -0.4127982,0.35766 -1.1815334,0.38592 -0.3647468,0.0134 -0.7948499,-0.003 -0.9557856,-0.0381 z m 7.6631391,1.5734 c 0.02318,-0.0924 0.111287,-0.18439 0.198979,-0.20789 0.279126,-0.0748 4.228648,-0.0496 4.373471,0.028 0.07406,0.0396 0.134647,0.13361 0.134647,0.20884 0,0.0994 0.04744,0.13677 0.174029,0.13677 h 0.174029 v -3.02892 -3.02893 l -2.697452,0.0182 -2.697453,0.0183 -0.01814,3.0107 -0.01814,3.01071 h 0.167222 c 0.118077,0 0.179446,-0.0487 0.208814,-0.16571 z m 1.762349,-1.50834 c -0.222156,-0.0342 -0.488421,-0.10349 -0.591699,-0.15411 -0.168743,-0.0827 -0.186071,-0.12513 -0.170945,-0.41926 0.02894,-0.56282 0.428972,-1.23443 0.67827,-1.13877 0.178796,0.0686 0.197137,0.23842 0.04645,0.42999 -0.203402,0.25859 -0.323733,0.6522 -0.228498,0.74744 0.09966,0.0997 1.151424,0.14774 1.505688,0.0689 0.255497,-0.057 0.27658,-0.0788 0.255802,-0.26628 -0.03251,-0.29315 -0.257244,-0.62327 -0.536496,-0.78803 -0.236132,-0.13933 -0.32142,-0.3679 -0.171782,-0.46037 0.03828,-0.0236 0.06961,-0.12113 0.06961,-0.21657 0,-0.13094 -0.05221,-0.19174 -0.212674,-0.24768 -0.174325,-0.0608 -0.208842,-0.1072 -0.191432,-0.25742 0.01873,-0.16166 0.0499,-0.18187 0.263962,-0.17123 0.176476,0.009 0.297384,0.0733 0.443003,0.23621 0.170705,0.19105 0.19541,0.26736 0.167297,0.51678 -0.02592,0.22995 -0.0061,0.30939 0.09241,0.37093 0.320087,0.1999 0.693122,1.20931 0.547477,1.48146 -0.120239,0.22467 -1.248768,0.37852 -1.966437,0.26808 z m -3.7031674,-1.73023 v -0.93307 l -0.3132526,-7e-5 -0.3132525,-6e-5 -0.019657,0.85969 c -0.010766,0.47283 -0.00324,0.90241 0.016763,0.9546 0.024809,0.0647 0.1309336,0.0881 0.3329063,0.0735 l 0.2964861,-0.0215 z m -1.0789813,-0.45917 v -0.52209 l -0.1914322,-0.001 c -0.10529,-5.2e-4 -0.2619133,-0.0198 -0.3480578,-0.043 -0.1530103,-0.041 -0.1566269,-0.0289 -0.1566269,0.52303 v 0.56503 h 0.3480591 0.3480578 v -0.522 z m 2.2275744,-0.043 c 0,-0.55198 -0.00359,-0.56405 -0.1566269,-0.52305 -0.086142,0.023 -0.2427702,0.0424 -0.3480579,0.043 l -0.1914321,10e-4 v 0.52209 0.52208 h 0.3480578 0.3480591 z m -0.4720674,-0.94201 0.4676914,-0.0441 0.019588,-0.77327 0.019588,-0.77327 0.6787143,-0.0199 c 0.513024,-0.015 0.678714,-0.0428 0.678714,-0.1138 0,-0.0516 -0.123431,-0.34024 -0.27429,-0.64138 -0.327565,-0.6539 -0.911668,-1.27099 -1.4543877,-1.53652 -0.2050244,-0.10025 -0.3886041,-0.22364 -0.4079534,-0.27407 -0.019356,-0.0505 0.058717,-0.21024 0.1734987,-0.35516 0.4177125,-0.52741 0.4325978,-1.14995 0.038689,-1.61808 -0.2519076,-0.29938 -0.5162637,-0.41834 -0.929635,-0.41834 -0.4133712,0 -0.6777273,0.11896 -0.929635,0.41834 -0.3939097,0.46813 -0.3790255,1.09067 0.038689,1.61808 0.1147713,0.14492 0.1928492,0.30474 0.1734988,0.35516 -0.019345,0.0505 -0.2029302,0.17377 -0.4079534,0.27407 -0.5427188,0.26553 -1.126822,0.88262 -1.4543868,1.53652 -0.1508593,0.30114 -0.27429,0.58977 -0.27429,0.64138 0,0.071 0.1656891,0.0987 0.6787136,0.1138 l 0.6787137,0.0199 0.019646,0.77924 0.019646,0.77924 0.2936058,0.0265 c 0.5283613,0.0477 1.6760873,0.0508 2.1535298,0.006 z m -5.0272561,-1.76471 c 0,-0.1283 -0.046411,-0.13922 -0.5916986,-0.13922 -0.5452912,0 -0.5916998,0.0104 -0.5916998,0.13922 0,0.12831 0.046411,0.13923 0.5916998,0.13923 0.5452911,0 0.5916986,-0.0104 0.5916986,-0.13923 z m 9.2583538,0 c 0,-0.1283 -0.04641,-0.13922 -0.591699,-0.13922 -0.545291,0 -0.5917,0.0104 -0.5917,0.13922 0,0.12831 0.04641,0.13923 0.5917,0.13923 0.545291,0 0.591699,-0.0104 0.591699,-0.13923 z M 0.70340191,284.70118 c -0.11121728,-0.0647 -0.12181922,-0.23306 -0.12181922,-1.93309 0,-1.35551 0.0227251,-1.88486 0.0835374,-1.94567 0.11677409,-0.11677 2.15256551,-0.11677 2.26933961,0 0.060812,0.0608 0.083537,0.59039 0.083537,1.94668 0,1.77079 -0.00671,1.86672 -0.1346473,1.93521 -0.1737453,0.093 -2.0194718,0.0903 -2.17994211,-0.003 z m 1.82730679,-1.94355 v -1.53146 l -0.7483255,-6e-5 -0.7483255,-7e-5 0.019993,1.53153 0.019993,1.53152 H 1.8023773 2.530711 Z m 11.3293013,1.94355 c -0.111218,-0.0647 -0.121821,-0.23306 -0.121821,-1.93309 0,-1.35551 0.02272,-1.88486 0.08354,-1.94567 0.116774,-0.11677 2.152566,-0.11677 2.26934,0 0.06081,0.0608 0.08354,0.59039 0.08354,1.94668 0,1.77079 -0.0067,1.86672 -0.134648,1.93521 -0.173744,0.093 -2.01947,0.0903 -2.17994,-0.003 z m 1.827306,-1.94355 v -1.53146 h -0.730922 -0.730923 v 1.53146 1.53146 h 0.730923 0.730922 z m -11.8967518,0.87839 c -0.054966,-0.0662 -0.073871,-0.47256 -0.060731,-1.30521 l 0.019078,-1.20905 h 1.1833984 1.1833985 l 0.019078,1.20905 c 0.01314,0.83265 -0.00579,1.23898 -0.060731,1.30521 -0.061519,0.0741 -0.3232027,0.0962 -1.1417478,0.0962 -0.818545,0 -1.0802269,-0.022 -1.1417489,-0.0962 z m 1.87267,-1.22645 v -0.90495 H 4.932312 4.2013897 v 0.90495 0.90495 H 4.932312 5.6632342 Z m 5.0188848,1.22645 c -0.05497,-0.0662 -0.07387,-0.47256 -0.06073,-1.30521 l 0.01908,-1.20905 h 1.183399 1.183399 l 0.01988,1.14858 c 0.01088,0.63173 0.0025,1.21909 -0.01873,1.30523 -0.03801,0.15422 -0.05557,0.15662 -1.142542,0.15662 -0.85428,0 -1.121987,-0.0218 -1.183752,-0.0962 z m 1.872672,-1.22645 v -0.90495 h -0.730922 -0.730923 v 0.90495 0.90495 h 0.730923 0.730922 z"
       id="path12209"
       inkscape:connector-curvature="0" />
    <path
       style="fill:#ffffff;stroke-width:0.00398656;stroke-miterlimit:4;stroke-dasharray:none"
       d="m 1.0832459,283.56244 c -0.012688,-0.39159 -0.023107,-1.07192 -0.023165,-1.51185 l -9.15e-5,-0.79988 H 1.7807543 2.501518 v 1.51185 1.51185 H 1.8039124 1.106309 Z"
       id="path12211"
       inkscape:connector-curvature="0" />
    <path
       style="fill:#ffffff;stroke-width:0.00398656;stroke-miterlimit:4;stroke-dasharray:none"
       d="m 4.2243232,282.41098 v -0.87899 H 4.9275065 5.630691 v 0.87899 0.87897 H 4.9275065 4.2243232 Z"
       id="path12213"
       inkscape:connector-curvature="0" />
    <path
       style="fill:#ffffff;stroke-width:0.00398656;stroke-miterlimit:4;stroke-dasharray:none"
       d="m 7.6523449,287.78644 c -0.309401,-0.0119 -0.5981457,-0.0239 -0.6416555,-0.0265 -0.075249,-0.005 -0.079115,-0.0189 -0.079243,-0.29483 -6.94e-5,-0.15953 -0.010303,-0.51329 -0.022818,-0.78613 l -0.022702,-0.49609 -0.6012517,-0.0191 c -0.3306882,-0.0104 -0.6304621,-0.0308 -0.6661634,-0.0451 -0.049166,-0.0198 -0.060129,-0.05 -0.045195,-0.12469 0.031014,-0.15508 0.3624801,-0.79806 0.5416641,-1.05072 0.2609595,-0.36798 0.6911506,-0.76833 1.046709,-0.9741 0.398986,-0.23091 0.5082237,-0.31653 0.5082237,-0.39837 0,-0.036 -0.072875,-0.17187 -0.1619498,-0.30198 -0.2560255,-0.37396 -0.3065624,-0.51417 -0.3091845,-0.85782 -0.00266,-0.34929 0.067064,-0.52779 0.3130303,-0.80136 0.2133723,-0.23732 0.4260488,-0.3338 0.7763954,-0.35219 0.4344826,-0.0228 0.6400302,0.0497 0.911396,0.32123 0.4733119,0.47371 0.4953099,1.03185 0.065408,1.6597 -0.087161,0.12729 -0.1613201,0.2735 -0.1648081,0.32491 -0.00683,0.10048 0.083607,0.17256 0.5355239,0.42678 0.2824041,0.15888 0.6883457,0.53729 0.9526467,0.88804 0.187369,0.24866 0.552448,0.92799 0.613263,1.14114 0.0304,0.1065 -0.04129,0.12034 -0.745357,0.14346 l -0.6064974,0.0199 -0.00347,0.47864 c -0.00197,0.26325 -0.013788,0.61312 -0.026372,0.77749 l -0.022876,0.29885 -0.2461146,0.0228 c -0.4006126,0.037 -1.2954492,0.0493 -1.8985972,0.026 z"
       id="path12215"
       inkscape:connector-curvature="0" />
    <path
       style="fill:#ffffff;stroke-width:0.00398656;stroke-miterlimit:4;stroke-dasharray:none"
       d="m 8.1119257,290.1259 c -0.046307,-0.0463 -0.055244,-0.16215 -0.055244,-0.7156 0,-0.36319 0.010187,-0.75761 0.022586,-0.87647 l 0.022586,-0.21611 h 0.2938442 0.2938442 v 0.91004 0.91003 l -0.079104,0.0212 c -0.1583136,0.0425 -0.4418083,0.0236 -0.4985074,-0.0331 z"
       id="path12217"
       inkscape:connector-curvature="0" />
    <path
       style="fill:#ffffff;stroke-width:0.00398656;stroke-miterlimit:4;stroke-dasharray:none"
       d="m 11.115527,282.41098 v -0.87899 h 0.703184 0.703185 v 0.87899 0.87897 h -0.703185 -0.703184 z"
       id="path12219"
       inkscape:connector-curvature="0" />
    <path
       style="fill:#ffffff;stroke-width:0.00398656;stroke-miterlimit:4;stroke-dasharray:none"
       d="m 14.244697,282.76256 v -1.51185 h 0.720764 0.720764 v 1.51185 1.51185 h -0.720764 -0.720764 z"
       id="path12221"
       inkscape:connector-curvature="0" />
    <path
       style="fill:#ffffff;stroke-width:0.00398656;stroke-miterlimit:4;stroke-dasharray:none"
       d="m 12.935427,286.14814 c 0.04374,-0.008 0.107026,-0.008 0.140637,7.1e-4 0.03362,0.009 -0.0022,0.0156 -0.07952,0.0153 -0.07736,-4e-4 -0.104851,-0.008 -0.06111,-0.016 z"
       id="path12223"
       inkscape:connector-curvature="0" />
    <path
       style="fill:#ffffff;stroke-width:0.00398656;stroke-miterlimit:4;stroke-dasharray:none"
       d="m 10.289748,289.64497 c 0.01405,-1.64852 0.02761,-2.99908 0.03012,-3.00123 0.0025,-0.002 1.210971,-0.0137 2.685459,-0.0257 l 2.68089,-0.0218 v 3.02303 c 0,2.54154 -0.0078,3.02302 -0.04834,3.02302 -0.185587,0 -0.259803,-0.0447 -0.300616,-0.18089 -0.02856,-0.0953 -0.07124,-0.15149 -0.136366,-0.17953 -0.06837,-0.0294 -0.694496,-0.0412 -2.245406,-0.0424 l -2.150606,-10e-4 -0.08782,0.0824 c -0.0483,0.0454 -0.09751,0.12106 -0.109353,0.16824 -0.0218,0.0868 -0.139938,0.15365 -0.271733,0.15365 h -0.07179 z m 3.528206,1.2931 c 0.493189,-0.0985 0.621572,-0.21491 0.581284,-0.52689 -0.05335,-0.41306 -0.278862,-0.91152 -0.525678,-1.16188 l -0.162386,-0.16471 0.02392,-0.20602 c 0.03107,-0.26769 -0.01661,-0.40509 -0.204606,-0.58959 -0.15405,-0.15119 -0.307219,-0.21737 -0.503027,-0.21737 -0.142788,0 -0.196312,0.0685 -0.182603,0.23399 0.0095,0.11461 0.0309,0.14433 0.151697,0.21076 0.07736,0.0425 0.160413,0.0949 0.184585,0.11653 0.06768,0.0603 0.05263,0.26177 -0.02637,0.35285 -0.03868,0.0446 -0.07032,0.10396 -0.07032,0.1318 0,0.0894 0.108462,0.23806 0.238475,0.32688 0.176197,0.12036 0.354938,0.31 0.429465,0.45566 0.08634,0.16874 0.145906,0.40245 0.119868,0.4703 -0.04001,0.10431 -0.288339,0.14421 -0.875705,0.14089 -0.585657,-0.003 -0.838704,-0.0445 -0.87631,-0.14245 -0.03197,-0.0834 0.06816,-0.3989 0.177564,-0.55957 0.05164,-0.0758 0.116521,-0.1918 0.144179,-0.25767 0.04586,-0.10916 0.04432,-0.12779 -0.01748,-0.21095 -0.03742,-0.0504 -0.110846,-0.0963 -0.163934,-0.10257 -0.267301,-0.0317 -0.650575,0.71453 -0.652286,1.27004 -4.17e-4,0.13526 0.01694,0.18485 0.08757,0.25032 0.09372,0.0868 0.370931,0.17708 0.708217,0.23049 0.273177,0.0433 1.090006,0.0139 1.413889,-0.0508 z"
       id="path12225"
       inkscape:connector-curvature="0" />
    <path
       style="fill:#ffffff;stroke-width:0.00398656;stroke-miterlimit:4;stroke-dasharray:none"
       d="m 11.177056,292.9345 c -0.0883,-0.023 -0.07623,-0.14191 0.01759,-0.17328 0.04351,-0.0146 0.86228,-0.0265 1.81949,-0.0266 1.740812,-2.1e-4 1.898597,0.0104 1.898597,0.12079 0,0.0902 -0.25342,0.10314 -1.927255,0.0993 -0.960786,-0.002 -1.774571,-0.0116 -1.808411,-0.0201 z"
       id="path12227"
       inkscape:connector-curvature="0" />
    <path
       style="fill:#ffffff;stroke-width:0.00398656;stroke-miterlimit:4;stroke-dasharray:none"
       d="m 1.930184,292.9345 c -0.088307,-0.023 -0.076244,-0.14192 0.017585,-0.1732 0.043505,-0.0145 0.854368,-0.0264 1.8019086,-0.0264 0.9475407,0 1.7584,0.0118 1.8019098,0.0264 0.1027663,0.0343 0.1027663,0.14773 0,0.17527 -0.09068,0.0243 -3.5280004,0.0223 -3.6213988,-0.002 z"
       id="path12229"
       inkscape:connector-curvature="0" />
    <path
       style="fill:#ffffff;stroke-width:0.00398656;stroke-miterlimit:4;stroke-dasharray:none"
       d="m 1.0951537,289.6594 v -2.98291 l 0.8701898,-0.0231 c 0.4786048,-0.0127 1.6784907,-0.0232 2.6664132,-0.0232 l 1.7962222,-7e-5 0.023269,1.166 c 0.012792,0.64129 0.023269,1.99403 0.023269,3.0061 0,1.79605 -0.00162,1.84012 -0.068025,1.84012 -0.1144241,0 -0.2484034,-0.0656 -0.2484034,-0.12163 0,-0.0292 -0.046191,-0.10476 -0.1026506,-0.16787 L 5.9527881,292.23799 H 3.7902308 c -2.1337731,0 -2.1638586,9.7e-4 -2.2602519,0.0729 -0.053727,0.0402 -0.1102333,0.12134 -0.1255527,0.18047 -0.027101,0.10454 -0.1007172,0.14928 -0.2477285,0.15043 -0.058115,4.9e-4 -0.06153,-0.16482 -0.06153,-2.98242 z m 3.5792377,1.20988 c 0.2944554,-0.0707 0.4377008,-0.1729 0.4377008,-0.31202 0,-0.2101 -0.1209371,-0.24047 -0.5713364,-0.14346 -0.3884293,0.0837 -1.3933428,0.0882 -1.5174774,0.007 -0.1168806,-0.0765 -0.1341634,-0.15159 -0.082137,-0.35648 0.051389,-0.2024 0.1881999,-0.37893 0.4467086,-0.5764 0.1067834,-0.0816 0.2150267,-0.19871 0.240529,-0.26027 0.041549,-0.10026 0.038388,-0.12582 -0.030435,-0.24539 -0.042243,-0.0734 -0.0768,-0.16592 -0.0768,-0.20559 0,-0.10477 0.1243626,-0.21278 0.2450056,-0.21278 0.085749,0 0.12985,0.0345 0.2472226,0.19336 0.1249264,0.16911 0.1580056,0.19338 0.2635665,0.19338 0.083364,0 0.1319732,-0.0211 0.1571073,-0.068 0.1612981,-0.30138 -0.2570373,-0.84612 -0.649787,-0.84612 -0.2118465,0 -0.5025407,0.15899 -0.631938,0.34563 -0.092359,0.13322 -0.1070729,0.1882 -0.1176181,0.4395 -0.011901,0.28348 -0.014008,0.28928 -0.1617692,0.44543 -0.1965884,0.20776 -0.2768485,0.34781 -0.3863455,0.67423 -0.1205909,0.35947 -0.1253188,0.6876 -0.011461,0.7933 0.070988,0.0659 0.3141613,0.1527 0.5537572,0.19769 0.048344,0.009 0.3805988,0.0125 0.738344,0.008 0.4735666,-0.007 0.7202486,-0.0257 0.9071381,-0.0706 z"
       id="path12231"
       inkscape:connector-curvature="0" />
    <path
       style="fill:#ffffff;stroke-width:0.00398656;stroke-miterlimit:4;stroke-dasharray:none"
       d="m 3.2100359,286.10673 c -0.026071,-0.0166 -0.041711,-0.0597 -0.034753,-0.0962 0.010535,-0.0549 0.059736,-0.0711 0.289342,-0.0955 0.1521756,-0.0162 0.4049724,-0.0162 0.5617694,0 0.2378767,0.0245 0.2871749,0.0404 0.2977051,0.0955 0.00695,0.0363 -0.00868,0.0796 -0.034788,0.0962 -0.061785,0.0391 -1.0174859,0.0391 -1.0792755,0 z"
       id="path12233"
       inkscape:connector-curvature="0" />
    <path
       style="fill:#ffffff;stroke-width:0.00398656;stroke-miterlimit:4;stroke-dasharray:none"
       d="m 12.456014,286.09045 c -0.02245,-0.0271 -0.03147,-0.0735 -0.02005,-0.10326 0.02679,-0.0698 0.568277,-0.11322 0.89459,-0.0717 0.212544,0.0271 0.228536,0.0352 0.228536,0.11692 v 0.0879 l -0.531137,0.009 c -0.421054,0.008 -0.539593,-5.1e-4 -0.571943,-0.0395 z"
       id="path12235"
       inkscape:connector-curvature="0" />
  </g>
</svg>
