<?xml version="1.0" encoding="UTF-8" standalone="no"?>
<svg
   xmlns:dc="http://purl.org/dc/elements/1.1/"
   xmlns:cc="http://creativecommons.org/ns#"
   xmlns:rdf="http://www.w3.org/1999/02/22-rdf-syntax-ns#"
   xmlns:svg="http://www.w3.org/2000/svg"
   xmlns="http://www.w3.org/2000/svg"
   xmlns:sodipodi="http://sodipodi.sourceforge.net/DTD/sodipodi-0.dtd"
   xmlns:inkscape="http://www.inkscape.org/namespaces/inkscape"
   width="64"
   height="64"
   viewBox="0 0 16.933333 16.933333"
   version="1.1"
   id="svg8"
   sodipodi:docname="seren_ash_64x64.svg"
   inkscape:version="1.0.2 (1.0.2+r75+1)">
  <defs
     id="defs2" />
  <sodipodi:namedview
     id="base"
     pagecolor="#ffffff"
     bordercolor="#666666"
     borderopacity="1.0"
     inkscape:pageopacity="0.0"
     inkscape:pageshadow="2"
     inkscape:zoom="4"
     inkscape:cx="108.31492"
     inkscape:cy="62.667582"
     inkscape:document-units="mm"
     inkscape:current-layer="layer1"
     inkscape:document-rotation="0"
     showgrid="false"
     inkscape:snap-global="false"
     fit-margin-top="0"
     fit-margin-left="0"
     fit-margin-right="0"
     fit-margin-bottom="0"
     inkscape:window-width="1366"
     inkscape:window-height="704"
     inkscape:window-x="0"
     inkscape:window-y="0"
     inkscape:window-maximized="0"
     units="px" />
  <metadata
     id="metadata5">
    <rdf:RDF>
      <cc:Work
         rdf:about="">
        <dc:format>image/svg+xml</dc:format>
        <dc:type
           rdf:resource="http://purl.org/dc/dcmitype/StillImage" />
        <dc:title />
      </cc:Work>
    </rdf:RDF>
  </metadata>
  <g
     inkscape:label="Calque 1"
     inkscape:groupmode="layer"
     id="layer1"
     transform="translate(-44.581036,-28.552681)">
    <text
       xml:space="preserve"
       style="font-style:normal;font-weight:normal;font-size:10.5833px;line-height:1.25;font-family:sans-serif;fill:#000000;fill-opacity:1;stroke:none;stroke-width:0.264583"
       x="51.724785"
       y="39.66518"
       id="text1411"><tspan
         sodipodi:role="line"
         id="tspan1409"
         x="51.724785"
         y="39.66518"
         style="stroke-width:0.264583" /></text>
    <path
       id="path1509"
       style="fill:#000000;stroke-width:0.0312159"
       d="m 52.976706,29.018744 c -0.561183,-6.3e-5 -1.122642,0.01 -1.265039,0.03024 -1.537645,0.218614 -2.710477,1.312319 -3.062213,2.85559 -0.03817,0.167485 -0.05522,0.504284 -0.07347,1.451116 -0.02129,1.104761 -0.03052,1.257864 -0.08859,1.471724 -0.09263,0.341123 -0.231624,0.651312 -0.450559,1.005556 -0.396804,0.642042 -0.577725,1.215895 -0.606639,1.924172 -0.04405,1.079177 0.34568,2.074048 1.11079,2.835593 l 0.271676,0.270396 -0.199368,0.15608 c -0.444034,0.347648 -0.788236,0.879771 -0.949039,1.467148 -0.06381,0.233071 -0.06851,0.320181 -0.07072,1.305889 l -0.0024,1.056161 0.08755,0.07542 c 0.04817,0.04148 0.115628,0.07542 0.149861,0.07542 0.101998,0 0.24445,-0.08977 0.260885,-0.164432 0.0084,-0.03831 0.02034,-0.512173 0.02646,-1.052991 0.01248,-1.101021 0.02265,-1.169601 0.239241,-1.607622 0.159521,-0.32261 0.357773,-0.567165 0.617186,-0.761438 0.411868,-0.308445 0.751792,-0.427418 1.351432,-0.472934 0.199762,-0.01516 0.398234,-0.04091 0.441048,-0.05719 -5.41e-4,-0.0028 -0.0013,-0.0049 -0.0019,-0.0076 0.126676,-0.0388 0.356372,-0.158389 0.75272,-0.445071 0.196493,-0.205372 0.32727,-0.441628 0.39843,-0.719858 0.03469,-0.135644 0.0675,-0.251022 0.07292,-0.256434 0.0054,-0.0054 0.114196,0.01401 0.241803,0.04316 0.172239,0.03936 0.372778,0.05275 0.778325,0.05188 0.496311,-0.0011 0.574833,-0.009 0.85844,-0.08658 0.606642,-0.165972 1.156308,-0.479474 1.59372,-0.908983 0.410352,-0.402934 0.686605,-0.838668 0.880692,-1.38911 0.170445,-0.483384 0.194552,-0.729945 0.194552,-1.989103 v -1.135299 l -0.07664,-0.07664 c -0.06652,-0.06652 -0.104935,-0.07664 -0.291554,-0.07664 -0.619881,0 -1.020328,-0.379704 -1.088533,-1.032261 -0.02095,-0.200584 -0.08468,-0.296141 -0.220158,-0.330145 -0.09271,-0.02327 -0.0996,-0.01979 -0.645109,0.322951 -0.929005,0.5837 -1.963082,0.975982 -3.109587,1.179561 -0.300802,0.05341 -0.391336,0.09986 -0.439401,0.225523 -0.03345,0.08745 0.02085,0.249689 0.09725,0.290577 0.09184,0.04915 0.292741,0.0358 0.698701,-0.0464 1.0039,-0.203266 1.97718,-0.570386 2.807244,-1.058904 0.309465,-0.18213 0.363616,-0.202253 0.363616,-0.13529 0,0.02195 0.04913,0.142435 0.109195,0.267775 0.205656,0.429133 0.606703,0.736024 1.07579,0.823261 l 0.193455,0.03597 -0.01339,1.047564 c -0.01512,1.176919 -0.03203,1.289182 -0.271008,1.800466 -0.384922,0.823541 -1.103904,1.42793 -1.990444,1.673164 -0.203429,0.05627 -0.32679,0.06719 -0.758023,0.06719 -0.589755,0 -0.809452,-0.04468 -1.261199,-0.256374 -0.832567,-0.390149 -1.42586,-1.093765 -1.675552,-1.987153 -0.06551,-0.234409 -0.07048,-0.322491 -0.08103,-1.435935 -0.0062,-0.652413 -0.0182,-1.217434 -0.0267,-1.255588 -0.04255,-0.190956 -0.296598,-0.26023 -0.437511,-0.119317 l -0.07664,0.07664 v 1.1367 c 0,1.252977 0.02024,1.462853 0.189979,1.969472 0.281154,0.839189 0.874318,1.553914 1.637985,1.973678 l 0.20894,0.114865 -0.0192,0.183455 c -0.03888,0.371955 -0.288666,0.721282 -0.631819,0.883619 -0.140897,0.06665 -0.247513,0.08792 -0.558412,0.111451 -0.232014,0.01756 -0.487096,0.05886 -0.643829,0.104256 l -0.259544,0.07517 -0.238265,-0.201013 c -0.526124,-0.443988 -0.896073,-1.042842 -1.068111,-1.72889 -0.05268,-0.210082 -0.06685,-0.362841 -0.06792,-0.733575 -0.0021,-0.716906 0.123804,-1.162775 0.504394,-1.786383 0.227047,-0.372022 0.345387,-0.61439 0.447266,-0.916115 0.150894,-0.446889 0.161449,-0.55124 0.185955,-1.839426 0.02151,-1.130688 0.02925,-1.255054 0.09304,-1.498366 0.293288,-1.118738 1.136972,-1.96166 2.254988,-2.252855 0.236521,-0.0616 0.356393,-0.06852 1.38643,-0.08023 0.939135,-0.01068 1.176426,-0.0044 1.420326,0.03762 1.278372,0.220228 2.193994,1.097265 2.526846,2.420335 0.02105,0.08368 0.04481,0.645269 0.05871,1.38911 0.02249,1.204145 0.02621,1.259407 0.103709,1.550496 0.106814,0.401197 0.248186,0.719542 0.515671,1.161026 0.402581,0.664456 0.523263,1.090203 0.518661,1.830402 -0.0023,0.387551 -0.01609,0.531649 -0.06859,0.724125 -0.09157,0.335762 -0.229809,0.669522 -0.379287,0.915567 -0.158257,0.260498 -0.175489,0.327174 -0.114743,0.444645 0.05368,0.103803 0.105355,0.131997 0.2418,0.131997 0.117113,0 0.200188,-0.0827 0.361852,-0.360081 0.586217,-1.005852 0.667372,-2.279342 0.213695,-3.354436 -0.06154,-0.145826 -0.209749,-0.42677 -0.329354,-0.62432 -0.237565,-0.392382 -0.346947,-0.637744 -0.445011,-0.998118 -0.0571,-0.209853 -0.06639,-0.36591 -0.08627,-1.452518 -0.01748,-0.955711 -0.03344,-1.267753 -0.07414,-1.451544 -0.343783,-1.552341 -1.513099,-2.648238 -3.062885,-2.870527 -0.141362,-0.02027 -0.70227,-0.03042 -1.263455,-0.03048 z m 4.976267,15.863567 c 0.0013,0.0087 0.0018,0.0115 0.003,0.0203 5.14e-4,-4.11e-4 0.0013,-9.55e-4 0.0018,-0.0013 -0.0018,-0.0063 -0.0031,-0.01265 -0.0048,-0.01896 z" />
    <path
       style="fill:none;stroke:#000000;stroke-width:0.01;stroke-linecap:butt;stroke-linejoin:miter;stroke-opacity:1;stroke-miterlimit:4;stroke-dasharray:none"
       d="m 54.519447,38.987186 c 0,0 0.09922,0.744141 0.231511,0.942578 0.132291,0.198438 0.330729,0.380339 0.727604,0.396875 0.396875,0.01654 1.372526,-0.01654 1.537891,0.08268 0.165364,0.09922 0.380338,0.03307 0.529166,0.611849 0.148828,0.578776 2.067057,0.578776 2.315104,1.455209 0.248047,0.876432 0.264584,2.678906 0.264584,2.678906 l -12.369271,0.03307 v -0.446485"
       id="path34"
       sodipodi:nodetypes="cscsssccc" />
    <path
       style="fill:none;stroke:#000000;stroke-width:0.01;stroke-linecap:butt;stroke-linejoin:miter;stroke-opacity:1;stroke-miterlimit:4;stroke-dasharray:none"
       d="m 57.21489,40.475467 0.314193,-0.446484"
       id="path865" />
    <path
       style="fill:#ffffff;stroke-width:0.0307087;stroke-miterlimit:4;stroke-dasharray:none"
       d="m 16.666948,44.189501 c -1.757187,-1.726292 -2.53836,-2.954749 -3.299744,-5.189114 -0.358989,-1.053491 -0.398331,-1.325708 -0.449108,-3.107544 -0.08521,-2.990204 0.285225,-4.458202 1.778282,-7.047092 2.1713,-3.764933 2.288718,-4.269514 2.457934,-10.5625 0.08408,-3.127073 0.179341,-4.807794 0.302772,-5.342164 1.016187,-4.3994177 4.606428,-7.9513164 8.953278,-8.8576603 0.606277,-0.1264126 2.047129,-0.1813262 5.252064,-0.2001664 3.736582,-0.021965 4.551298,0.00587 5.29158,0.1807847 4.447457,1.0508583 7.35203,3.715071 8.816835,8.087221 l 0.372267,1.111143 0.136436,4.91667 c 0.124957,4.50301 0.16146,5.015404 0.433877,6.090178 0.298455,1.177511 1.018413,2.761481 2.364226,5.201494 0.880006,1.595488 1.275416,2.840836 1.438006,4.529022 0.281804,2.92598 -0.188864,5.108249 -1.663305,7.711971 -0.44172,0.780035 -0.483137,0.927287 -0.417262,1.483499 0.06469,0.546218 0.02963,0.680741 -0.303728,1.165256 -0.42074,0.611524 -0.455211,0.621473 -1.224789,0.35347 -0.396123,-0.137947 -1.294435,-0.208817 -3.25,-0.256401 -1.48641,-0.03617 -2.968712,-0.123672 -3.294005,-0.194452 -1.26278,-0.27477 -2.016331,-1.22951 -2.401257,-3.042365 -0.167078,-0.786874 -0.166163,-0.88759 0.0091,-1 2.405947,-1.543315 3.729925,-2.719458 4.794011,-4.258713 0.807395,-1.167937 1.657858,-2.952186 1.995903,-4.18735 0.357686,-1.306932 0.500042,-3.445906 0.50337,-7.563399 0.0034,-4.190471 0.08536,-3.974088 -1.559664,-4.116823 -2.316111,-0.200964 -3.536201,-1.351909 -3.943495,-3.720012 -0.165609,-0.962887 -0.393948,-1.30913 -0.931666,-1.412734 -0.314018,-0.0605 -0.650162,0.09458 -2.0625,0.951574 -3.987952,2.419842 -7.096987,3.659077 -11.456014,4.566268 -1.678381,0.349301 -2.006477,0.464476 -2.2586,0.792856 -0.337267,0.439279 -0.06889,1.341246 0.436844,1.468179 0.773325,0.194091 3.670156,-0.363379 6.364891,-1.22487 2.129306,-0.680726 4.143537,-1.54895 6.20802,-2.675935 0.952864,-0.520161 1.747354,-0.928489 1.765534,-0.907395 0.01818,0.02109 0.24256,0.471031 0.498623,0.99986 0.783848,1.618817 2.195898,2.746786 3.951182,3.156266 0.420808,0.09817 0.797396,0.210776 0.836861,0.250241 0.03946,0.03946 0.01484,1.913432 -0.05471,4.16437 -0.125795,4.070837 -0.128457,4.098335 -0.500436,5.167103 -1.0186,2.926647 -3.015265,5.236794 -5.738681,6.639669 -1.914364,0.986117 -2.656833,1.154473 -5.053349,1.145852 -2.308374,-0.0083 -3.04151,-0.146595 -4.606658,-0.868951 -2.529028,-1.167216 -4.602945,-3.218669 -5.760511,-5.698116 -0.874908,-1.874012 -0.894917,-2.020308 -0.997428,-7.29294 -0.09347,-4.807567 -0.13478,-5.189582 -0.57965,-5.360294 -0.362491,-0.139101 -0.994657,-0.08103 -1.277936,0.117381 l -0.277813,0.194589 v 4.476537 c 0,4.817198 0.08287,5.738909 0.671054,7.46342 0.378025,1.108349 1.043627,2.445093 1.722296,3.458927 0.81219,1.213296 2.631339,2.914801 4.033973,3.773095 l 1.223459,0.748655 -0.07589,0.553708 c -0.162803,1.187782 -0.952866,2.431054 -1.949888,3.068422 -0.63242,0.404286 -1.148333,0.540398 -2.625,0.692547 -0.721875,0.07438 -1.746948,0.245548 -2.277938,0.380374 -0.530991,0.134826 -0.991453,0.245139 -1.023248,0.245139 -0.03179,0 -0.616063,-0.548438 -1.298372,-1.21875 z"
       id="path869"
       transform="matrix(0.26458333,0,0,0.26458333,44.581036,28.552681)" />
    <path
       style="fill:#ffffff;stroke-width:0.00755905;stroke-miterlimit:4;stroke-dasharray:none;paint-order:markers fill stroke"
       d="m 16.414175,43.827017 c -1.894785,-1.935983 -2.998205,-4.146715 -3.356901,-6.725645 -0.415702,-2.988785 -0.03429,-4.72518 1.860466,-8.469762 0.879695,-1.738534 1.724918,-3.763534 1.878272,-4.5 0.153354,-0.736465 0.36761,-3.66455 0.476123,-6.506854 l 0.197298,-5.167825 0.944433,-1.91093 c 1.584317,-3.2056481 4.205171,-5.3779357 7.534792,-6.2451919 1.927302,-0.5019983 9.66713,-0.5308858 11.49126,-0.042889 3.87801,1.0374572 6.828267,3.7656435 8.114282,7.5035079 0.394385,1.146301 0.52228,2.401634 0.647443,6.354819 0.18415,5.816402 0.364827,6.613182 2.392597,10.551335 2.531475,4.9164 2.641765,8.197852 0.423273,12.593597 -0.435073,0.862055 -0.687908,1.688073 -0.61218,2 0.07567,0.311678 -0.06274,0.764725 -0.334725,1.09569 -0.39163,0.476553 -0.566703,0.52514 -1.125985,0.3125 -0.36424,-0.138482 -1.920555,-0.251962 -3.45848,-0.252175 -3.932935,-5e-4 -4.978643,-0.639057 -5.5267,-3.374612 -0.134185,-0.66976 -0.04966,-0.807335 0.790107,-1.285913 2.469188,-1.40718 4.55758,-3.963002 5.73536,-7.01907 0.606823,-1.57457 0.661758,-2.054687 0.773085,-6.756493 0.08974,-3.790024 0.04252,-5.15465 -0.187985,-5.432388 -0.169305,-0.204001 -0.864527,-0.444759 -1.544935,-0.535018 -2.199005,-0.291709 -2.98016,-1.142241 -3.876802,-4.221118 -0.325218,-1.116732 -1.044973,-1.071256 -3.136684,0.198183 -3.648106,2.214001 -6.293371,3.292814 -10.541379,4.299071 -2.675401,0.633742 -3.303775,1.016078 -3.039324,1.849288 0.239923,0.755931 1.023087,0.860258 3.144807,0.41893 3.057382,-0.635951 5.931036,-1.649845 8.91741,-3.146274 l 2.817175,-1.411646 0.524767,1.084027 c 0.655618,1.354321 2.014328,2.499301 3.479873,2.932472 l 1.125,0.332516 -0.01812,4.277147 -0.01812,4.277148 -1.043785,2.106448 c -1.245443,2.513405 -2.970665,4.228647 -5.495381,5.463587 -1.596501,0.78091 -1.80864,0.819103 -4.549584,0.819103 -2.790601,0 -2.930885,-0.02669 -4.778683,-0.909118 -2.409114,-1.15049 -4.365766,-3.057297 -5.498711,-5.358635 -0.828087,-1.682085 -0.828715,-1.686242 -1.088085,-7.207651 L 20.189918,20.292582 19.4873,20.212017 c -1.452682,-0.166569 -1.511846,0.07313 -1.346274,5.454352 0.16335,5.309003 0.40113,6.54872 1.741735,9.08091 0.907969,1.715013 2.974267,3.893183 4.701304,4.955838 0.695852,0.428162 1.230853,0.942335 1.230853,1.182935 0,0.234072 -0.253125,0.927085 -0.5625,1.540027 -0.651804,1.291375 -2.089766,2.228945 -3.4375,2.241295 -0.48125,0.0044 -1.55,0.16789 -2.375,0.36329 l -1.5,0.35527 z"
       id="path877"
       transform="matrix(0.26458333,0,0,0.26458333,44.581036,28.552681)" />
    <path
       style="fill:#ffffff;stroke:none;stroke-width:0.25"
       d="m 12.18992,62.582711 c 0,-0.11543 0.266857,-0.33146 0.593016,-0.480068 0.583986,-0.266082 0.594744,-0.336171 0.706433,-4.602629 0.107474,-4.105417 0.148908,-4.401676 0.790744,-5.653908 1.533191,-2.99128 3.545329,-4.33817 7.324173,-4.90267 3.628463,-0.542037 5.369769,-1.945229 6.406278,-5.162359 0.105121,-0.326273 0.440868,-0.359319 2.154503,-0.212054 2.283144,0.196208 4.617113,-0.03908 6.243785,-0.629431 0.601663,-0.218355 1.123518,-0.39701 1.159678,-0.39701 0.03616,0 0.14416,0.417988 0.24,0.928861 0.253048,1.34886 0.794503,2.264265 1.573123,2.659579 0.405325,0.205789 2.00529,0.42015 3.933205,0.526965 3.971585,0.220044 4.723557,0.492333 5.346827,1.936077 0.636178,1.473648 1.02422,1.749339 3.975043,2.824141 2.762727,1.006291 3.865275,1.636424 4.59189,2.624377 0.52193,0.709648 1.096317,4.277405 1.29146,8.021767 l 0.12491,2.396767 -15.018733,0.165733 C 23.318508,62.850947 12.18992,62.835322 12.18992,62.582711 Z"
       id="path22"
       transform="matrix(0.26458333,0,0,0.26458333,44.581036,28.552681)" />
    <path
       style="fill:#ffffff;stroke-width:0.25"
       d="m 16.317096,43.751905 c -2.087717,-2.254543 -3.15877,-4.661353 -3.317826,-7.455628 -0.165675,-2.910543 0.231884,-4.540352 1.875224,-7.687577 0.768692,-1.472151 1.557358,-3.186146 1.752591,-3.808878 0.223923,-0.714246 0.43043,-3.116554 0.559375,-6.50724 0.175237,-4.607969 0.282812,-5.582784 0.753838,-6.831057 1.183602,-3.136676 4.210947,-6.0380801 7.320603,-7.0160576 1.185263,-0.3727615 2.357249,-0.4589987 6.5,-0.4782838 4.627803,-0.021543 5.178833,0.022909 6.534042,0.5271005 3.952525,1.4704967 6.381005,4.0877769 7.47763,8.0589759 0.244052,0.883782 0.423095,3.037363 0.508327,6.114322 0.07237,2.6125 0.257733,5.2 0.411923,5.75 0.154192,0.55 1.030967,2.50557 1.94839,4.345713 l 1.66804,3.34571 0.09228,2.696142 c 0.09963,2.910732 -0.197385,4.315645 -1.364957,6.456422 -0.328163,0.601695 -0.600235,1.445445 -0.604608,1.875 -0.01512,1.485683 -0.388102,1.674738 -2.764912,1.401483 -1.156175,-0.13292 -2.81085,-0.24253 -3.677053,-0.243572 -2.02143,-0.0025 -2.950817,-0.479868 -3.56424,-1.830978 -0.772652,-1.70182 -0.670235,-1.995452 1.148723,-3.293435 2.607197,-1.860458 4.452715,-4.518562 5.242515,-7.55081 0.480105,-1.843245 0.538095,-10.811497 0.07292,-11.276675 -0.165,-0.165 -0.663927,-0.3 -1.108725,-0.3 -2.018765,0 -3.165395,-0.980522 -3.855182,-3.296698 -0.456398,-1.532497 -0.571865,-1.703302 -1.151475,-1.703302 -0.354318,0 -1.277678,0.381345 -2.051915,0.847434 -3.585027,2.158178 -6.846687,3.482732 -10.838974,4.401687 -2.577093,0.593203 -3.031475,0.875132 -2.90042,1.799619 0.06088,0.429438 0.270689,0.59775 0.823485,0.660605 1.894995,0.215468 7.282934,-1.40378 11.226181,-3.373827 1.494887,-0.746846 2.74049,-1.32474 2.76801,-1.28421 0.02752,0.04053 0.361163,0.616797 0.74143,1.280591 0.749463,1.308252 2.36944,2.513611 3.71729,2.765882 l 0.805295,0.150723 -0.07232,4.063248 c -0.08169,4.589463 -0.309345,5.597446 -1.777142,7.868413 -4.852658,7.508005 -15.857188,6.754565 -19.713645,-1.34972 l -0.930507,-1.955445 -0.128193,-5.196695 c -0.133735,-5.421347 -0.18782,-5.663828 -1.265693,-5.674477 -0.888918,-0.0088 -0.987576,0.503523 -0.983805,5.108672 0.0026,3.13623 0.118668,5.000248 0.380665,6.111723 0.781146,3.313862 3.101771,6.56079 6.028618,8.435007 1.236093,0.791537 1.28039,0.858402 1.099621,1.659907 -0.459199,2.036031 -1.761613,3.01782 -4.512599,3.401708 -1.03125,0.143905 -2.219415,0.331655 -2.640367,0.417225 -0.696353,0.141548 -0.897656,0.01272 -2.232457,-1.428747 z"
       id="path24"
       transform="matrix(0.26458333,0,0,0.26458333,44.581036,28.552681)" />
    <text
       xml:space="preserve"
       style="font-style:normal;font-variant:normal;font-weight:bold;font-stretch:normal;font-size:3.70448px;line-height:1.25;font-family:Calibri;-inkscape-font-specification:'Calibri Bold';stroke-width:0.0771764;paint-order:markers fill stroke"
       x="55.806126"
       y="39.270035"
       id="text1520"
       transform="scale(0.87600002,1.1415525)"><tspan
         sodipodi:role="line"
         id="tspan1518"
         x="55.806126"
         y="39.270035"
         style="font-style:normal;font-variant:normal;font-weight:bold;font-stretch:normal;font-family:Calibri;-inkscape-font-specification:'Calibri Bold';stroke-width:0.0771764;paint-order:markers fill stroke">A.S.H.</tspan></text>
  </g>
</svg>
