<?xml version="1.0" encoding="UTF-8" standalone="no"?>
<!-- Created with Inkscape (http://www.inkscape.org/) -->

<svg
   xmlns:dc="http://purl.org/dc/elements/1.1/"
   xmlns:cc="http://creativecommons.org/ns#"
   xmlns:rdf="http://www.w3.org/1999/02/22-rdf-syntax-ns#"
   xmlns:svg="http://www.w3.org/2000/svg"
   xmlns="http://www.w3.org/2000/svg"
   xmlns:sodipodi="http://sodipodi.sourceforge.net/DTD/sodipodi-0.dtd"
   xmlns:inkscape="http://www.inkscape.org/namespaces/inkscape"
   width="64"
   height="64"
   viewBox="0 0 16.933333 16.933334"
   version="1.1"
   id="svg8"
   inkscape:version="0.92.5 (2060ec1f9f, 2020-04-08)"
   sodipodi:docname="ask_opinion_64x64.svg">
  <defs
     id="defs2" />
  <sodipodi:namedview
     id="base"
     pagecolor="#ffffff"
     bordercolor="#666666"
     borderopacity="1.0"
     inkscape:pageopacity="0.0"
     inkscape:pageshadow="2"
     inkscape:zoom="5.6"
     inkscape:cx="42.248096"
     inkscape:cy="27.289152"
     inkscape:document-units="mm"
     inkscape:current-layer="layer1"
     showgrid="false"
     units="px"
     inkscape:window-width="1208"
     inkscape:window-height="987"
     inkscape:window-x="1992"
     inkscape:window-y="0"
     inkscape:window-maximized="1"
     showguides="false" />
  <metadata
     id="metadata5">
    <rdf:RDF>
      <cc:Work
         rdf:about="">
        <dc:format>image/svg+xml</dc:format>
        <dc:type
           rdf:resource="http://purl.org/dc/dcmitype/StillImage" />
        <dc:title></dc:title>
      </cc:Work>
    </rdf:RDF>
  </metadata>
  <g
     inkscape:label="Layer 1"
     inkscape:groupmode="layer"
     id="layer1"
     transform="translate(0,-280.06665)">
    <path
       style="fill:#000000;stroke-width:0.02849121"
       d="m 8.1231442,296.1474 c -0.2922873,-0.10445 -0.413422,-0.28826 -0.4508814,-0.6842 -0.035611,-0.37638 -0.089644,-0.47486 -0.4864069,-0.88661 -0.5153624,-0.53481 -0.8368312,-0.99431 -1.0964249,-1.56724 -0.505643,-1.11594 -1.1660122,-2.24519 -1.5764157,-2.69569 -0.1665861,-0.18287 -0.228201,-0.29572 -0.2505706,-0.45892 -0.024738,-0.18047 0.032545,-0.34998 0.1678884,-0.49681 0.2698482,-0.29275 0.63379,-0.36196 0.9902479,-0.18831 0.4152424,0.20229 0.9776516,0.72382 1.4068842,1.30461 0.5214291,0.70554 0.6976149,0.79844 0.7825034,0.41266 0.037151,-0.16883 0.037566,-0.19064 0.034633,-1.81177 l -0.00257,-1.39912 -0.2319734,0.0821 c -0.127585,0.0452 -0.3483952,0.10211 -0.49069,0.12673 -0.5347658,0.0922 -0.653676,-0.0529 -0.6924962,-0.84554 -0.018899,-0.386 0.010751,-0.67375 0.1108766,-1.07676 l 0.059153,-0.23801 -0.1395756,-0.11704 c -0.1757191,-0.14732 -0.3322669,-0.3037 -0.5038227,-0.50328 l -0.1342015,-0.15614 -0.072847,0.0729 -0.072847,0.073 0.062255,0.29695 c 0.1139795,0.54366 0.075828,1.23982 -0.077977,1.4226 -0.1083112,0.12873 -0.2147947,0.14989 -0.5021223,0.0999 -0.3698948,-0.0645 -0.7172857,-0.20593 -1.0399921,-0.42341 l -0.1506033,-0.1015 -0.197462,0.12772 c -0.2639562,0.17077 -0.5117695,0.27895 -0.8101504,0.3537 -0.5912462,0.14813 -0.7419631,0.0671 -0.8114808,-0.43611 -0.053875,-0.38998 -0.031274,-0.75684 0.071821,-1.1657 l 0.041218,-0.16345 -0.2671606,-0.26393 c -0.2931058,-0.28952 -0.4547247,-0.51149 -0.6089746,-0.83628 -0.1700348,-0.35804 -0.1114996,-0.49159 0.3075445,-0.70164 0.3148622,-0.1578 0.6281032,-0.24467 0.9708995,-0.26925 l 0.2469764,-0.0177 0.062989,-0.17396 c 0.1378065,-0.38064 0.3323757,-0.70172 0.6100545,-1.00676 0.3190757,-0.3505 0.530622,-0.30647 0.9250695,0.19255 0.1623092,0.20533 0.3190806,0.48301 0.4274968,0.7572 l 0.091306,0.23091 0.247337,0.0184 c 0.3639161,0.0271 0.8084487,0.15758 1.0551784,0.30962 0.094238,0.058 0.099967,0.0582 0.4131228,0.0109 0.1746588,-0.026 0.3808018,-0.0504 0.4580941,-0.054 l 0.1405308,-0.007 0.089705,-0.22792 c 0.2107743,-0.53555 0.4929172,-0.97908 0.818823,-1.28722 0.264898,-0.25046 0.4449039,-0.23655 0.7251934,0.056 0.3346651,0.34934 0.5340451,0.66946 0.7490495,1.2027 l 0.1033888,0.25642 0.1406672,0.007 c 0.077365,0.004 0.2835701,0.0279 0.4582311,0.054 0.313155,0.0468 0.318889,0.0466 0.413122,-0.0109 0.246729,-0.15204 0.691262,-0.28249 1.055178,-0.30962 l 0.247337,-0.0184 0.0913,-0.23092 c 0.159644,-0.40373 0.394469,-0.76254 0.674936,-1.03127 0.232445,-0.22272 0.430361,-0.19452 0.694448,0.0989 0.263795,0.29314 0.459109,0.61886 0.593237,0.98934 l 0.06299,0.17396 0.246977,0.0176 c 0.346664,0.0247 0.658717,0.11104 0.9709,0.26848 0.41922,0.21148 0.477503,0.34462 0.307545,0.7025 -0.154052,0.32438 -0.315794,0.54667 -0.607322,0.83468 l -0.265509,0.26229 0.05624,0.25055 c 0.108396,0.48304 0.09897,1.14509 -0.01988,1.39555 -0.0963,0.20294 -0.289057,0.2349 -0.7381,0.1224 -0.298379,-0.0748 -0.546194,-0.18294 -0.81015,-0.35369 l -0.197462,-0.12773 -0.150603,0.10262 c -0.346591,0.23615 -0.89044,0.4329 -1.229852,0.44496 -0.284584,0.0102 -0.392072,-0.13227 -0.445484,-0.59012 -0.03674,-0.31504 -0.02179,-0.5517 0.06125,-0.96918 l 0.05625,-0.28271 -0.07409,-0.0735 -0.07409,-0.0735 -0.133112,0.15672 c -0.167955,0.19771 -0.324385,0.35458 -0.50242,0.50385 l -0.139576,0.11702 0.05945,0.23802 c 0.126982,0.50838 0.152778,1.14768 0.06278,1.55573 -0.02816,0.1277 -0.02565,0.16934 0.01717,0.2849 0.02759,0.0744 0.05229,0.13869 0.0549,0.14277 0.0026,0.005 0.05964,-0.0122 0.126736,-0.0357 0.376444,-0.13282 0.812383,0.0502 0.996356,0.41842 0.07529,0.15066 0.08718,0.20532 0.08718,0.40087 0,0.19981 0.0056,0.22428 0.04758,0.20817 0.128934,-0.0494 0.321486,-0.0753 0.435555,-0.0584 0.282517,0.0419 0.548848,0.23913 0.666507,0.49365 0.06028,0.13039 0.06136,0.16042 0.06974,1.91317 0.0094,1.97071 8.51e-4,2.10107 -0.170327,2.59074 -0.111683,0.31945 -0.236237,0.54006 -0.445603,0.78917 l -0.170725,0.20313 -0.01039,0.42368 c -0.0089,0.36547 -0.01871,0.43932 -0.07113,0.53764 -0.07794,0.14614 -0.162944,0.22431 -0.322738,0.29676 -0.124576,0.0565 -0.177104,0.058 -1.8519294,0.0574 -1.3353012,-5.5e-4 -1.7469275,-0.008 -1.8267133,-0.0374 z m 3.5361858,-0.50201 c 0.05157,-0.0516 0.05698,-0.095 0.05698,-0.45678 0,-0.46965 0.01769,-0.5276 0.234402,-0.7677 0.277309,-0.30726 0.441835,-0.65691 0.523162,-1.11181 0.0459,-0.25673 0.05802,-3.5963 0.01347,-3.71347 -0.03897,-0.10249 -0.172635,-0.21572 -0.278012,-0.2355 -0.113736,-0.0214 -0.280398,0.056 -0.362292,0.16794 -0.04788,0.0655 -0.06003,0.13342 -0.06883,0.38464 -0.0092,0.26007 -0.0194,0.31456 -0.06974,0.3692 -0.08465,0.0919 -0.245244,0.0874 -0.336203,-0.0102 -0.06903,-0.0735 -0.06909,-0.0741 -0.08332,-0.89036 -0.01026,-0.58867 -0.02443,-0.83471 -0.05071,-0.88069 -0.08335,-0.14589 -0.321053,-0.19225 -0.482123,-0.094 -0.167717,0.10221 -0.179453,0.15802 -0.179453,0.85262 0,0.34595 -0.01268,0.6597 -0.02832,0.70083 -0.03202,0.0842 -0.1966,0.16663 -0.276378,0.13841 -0.02829,-0.0102 -0.0803,-0.0441 -0.115556,-0.0758 -0.06404,-0.0577 -0.0641,-0.0586 -0.0641,-1.00811 0,-1.03205 -0.0064,-1.08177 -0.1570905,-1.20022 -0.1013485,-0.0798 -0.2802949,-0.0814 -0.4073249,-0.005 -0.1692496,0.10323 -0.1763559,0.15128 -0.1763559,1.1934 v 0.93953 l -0.067533,0.0786 c -0.09464,0.11008 -0.2546411,0.11008 -0.3492784,0 l -0.067533,-0.0786 v -2.2354 -2.23538 l -0.093578,-0.10212 c -0.1678566,-0.18317 -0.4388824,-0.15301 -0.5815425,0.0648 -0.048451,0.0739 -0.0517,0.22098 -0.056501,2.55844 -0.00549,2.68449 -0.010751,2.88526 -0.08207,3.12104 -0.059165,0.19569 -0.2567668,0.40573 -0.4256876,0.45249 -0.3867474,0.10702 -0.6247021,-0.0475 -1.134782,-0.73739 -0.5497102,-0.74343 -1.2553671,-1.33555 -1.5142193,-1.27058 -0.094971,0.0238 -0.2428583,0.15473 -0.2428583,0.21493 0,0.0277 0.084636,0.15163 0.1880748,0.27527 0.4725425,0.56482 1.2048118,1.82376 1.5752991,2.70832 0.21516,0.51371 0.4992782,0.9158 1.0784886,1.52628 0.4374043,0.46102 0.5759097,0.73478 0.5767465,1.13999 2.577e-4,0.12553 0.013658,0.17714 0.05732,0.2208 0.055683,0.0557 0.094971,0.0569 1.7237198,0.0569 1.6287466,0 1.6680346,-0.001 1.7237176,-0.0569 z m -4.5670766,-8.29053 c 0.1122326,-0.031 0.2786464,-0.0922 0.369813,-0.13595 l 0.1657565,-0.0794 0.016651,-0.83986 c 0.015784,-0.79585 0.02938,-0.92851 0.1107789,-1.08059 0.066922,-0.12504 0.2418346,-0.2921 0.3836005,-0.36637 0.1927794,-0.10099 0.5302982,-0.10787 0.7327872,-0.015 0.1812312,0.0832 0.3514248,0.26655 0.4216757,0.45432 0.054363,0.14528 0.058223,0.21863 0.058223,1.10564 v 0.95003 l 0.1068452,-0.0382 c 0.1246685,-0.0445 0.4001554,-0.0523 0.5004602,-0.014 0.064708,0.0247 0.070918,0.019 0.087013,-0.0783 0.05484,-0.33168 -0.0039,-0.88178 -0.1443225,-1.35155 -0.092129,-0.30815 -0.084834,-0.32864 0.1960695,-0.55156 0.240584,-0.19091 0.469157,-0.41978 0.622659,-0.62348 0.13905,-0.18451 0.321121,-0.51819 0.300742,-0.55116 -0.03473,-0.0562 -0.528527,-0.24246 -0.777854,-0.29339 -0.145562,-0.0298 -0.4035122,-0.0573 -0.5732211,-0.0612 -0.4018028,-0.0102 -0.4271043,-0.0257 -0.5156859,-0.33221 -0.1236745,-0.428 -0.4773471,-1.05837 -0.7105862,-1.26651 -0.059799,-0.0534 -0.06184,-0.0534 -0.1216393,0 -0.2136928,0.1907 -0.5261557,0.72435 -0.665697,1.13694 -0.1251344,0.36998 -0.1329138,0.38565 -0.2105848,0.42425 -0.04437,0.022 -0.1949492,0.0389 -0.3734952,0.0416 -0.1645373,0.002 -0.4151763,0.0288 -0.5569777,0.058 -0.2445662,0.0507 -0.7365328,0.23743 -0.7705948,0.29255 -0.020377,0.0329 0.1616922,0.36664 0.3007425,0.55116 0.1535022,0.20369 0.3820758,0.43257 0.6226583,0.62347 0.2809052,0.22293 0.2881899,0.24342 0.1960705,0.55158 -0.1440688,0.48194 -0.1946571,0.97308 -0.1438232,1.39628 0.016578,0.138 0.023773,0.14959 0.092918,0.14959 0.04123,0 0.1667803,-0.0254 0.2790105,-0.0566 z m -4.2794469,-1.00205 c 0.2118689,-0.0703 0.4274735,-0.18859 0.6730293,-0.36945 0.2444978,-0.18007 0.31555,-0.1818 0.5348891,-0.0131 0.2982844,0.22953 0.6743352,0.40791 0.9625936,0.45661 l 0.1159709,0.0195 0.018862,-0.23696 c 0.022882,-0.28743 -0.015112,-0.60427 -0.1147126,-0.95681 -0.087519,-0.30976 -0.072761,-0.38353 0.1006885,-0.50374 0.058602,-0.0405 0.1404355,-0.1092 0.1818481,-0.15243 l 0.07529,-0.0786 -0.07347,-0.18187 c -0.116032,-0.28727 -0.065639,-0.44615 0.1917423,-0.60452 0.078368,-0.0483 0.1381107,-0.0921 0.1327526,-0.0974 -0.04211,-0.0422 -0.4125694,-0.10591 -0.7105631,-0.12228 -0.4312802,-0.0238 -0.4484333,-0.0342 -0.5367644,-0.32695 -0.088179,-0.29221 -0.2601569,-0.62992 -0.4335096,-0.85127 -0.082473,-0.1053 -0.1582179,-0.19186 -0.1683099,-0.19233 -0.03577,-10e-4 -0.3332687,0.41488 -0.418531,0.58593 -0.047595,0.0956 -0.1252945,0.28682 -0.1726541,0.42516 -0.047363,0.13834 -0.1058678,0.27128 -0.130021,0.29543 -0.032655,0.0326 -0.137043,0.0486 -0.4071953,0.0625 -0.3971877,0.0204 -0.5162102,0.0454 -0.8255493,0.17354 l -0.205845,0.0852 0.067471,0.13298 c 0.1099116,0.21662 0.3066833,0.4639 0.5141139,0.64604 0.3798452,0.33357 0.4218148,0.37983 0.4068191,0.44848 -0.00769,0.0353 -0.0474,0.1895 -0.088202,0.34273 -0.087457,0.32842 -0.1193548,0.65033 -0.090841,0.91665 l 0.02056,0.19196 0.1042919,-0.0193 c 0.057356,-0.011 0.1812117,-0.0448 0.2752344,-0.076 z m 9.2419465,7.6e-4 c 0.205919,-0.0709 0.487308,-0.22707 0.690203,-0.38321 0.221058,-0.17009 0.295871,-0.16765 0.538374,0.0177 0.10186,0.0779 0.287762,0.19212 0.413123,0.254 0.235137,0.11606 0.599086,0.22372 0.634956,0.18783 0.01123,-0.011 0.0191,-0.19558 0.01761,-0.40973 -0.0024,-0.33303 -0.01419,-0.43057 -0.08191,-0.67427 -0.04355,-0.1567 -0.08548,-0.31377 -0.09318,-0.34904 -0.015,-0.0687 0.02697,-0.11496 0.406818,-0.44848 0.207429,-0.18215 0.404199,-0.42942 0.514115,-0.64605 l 0.06747,-0.13297 -0.205846,-0.0852 c -0.309365,-0.1281 -0.42836,-0.15311 -0.825787,-0.17354 -0.424625,-0.0219 -0.443609,-0.0328 -0.519218,-0.30152 -0.07595,-0.26985 -0.260101,-0.63695 -0.432338,-0.86182 -0.08704,-0.1136 -0.166514,-0.20623 -0.176607,-0.20577 -0.01013,4.2e-4 -0.08584,0.087 -0.168311,0.19231 -0.173352,0.22136 -0.345332,0.55907 -0.433509,0.85129 -0.08833,0.29271 -0.105488,0.30316 -0.536764,0.32692 -0.297994,0.0165 -0.668446,0.0801 -0.710562,0.1223 -0.0054,0.005 0.05437,0.0492 0.132751,0.0973 0.258014,0.15876 0.308056,0.3176 0.190686,0.60529 l -0.07452,0.18266 0.121395,0.10983 c 0.06676,0.0605 0.163064,0.14725 0.213992,0.19306 0.05094,0.0458 0.0926,0.10836 0.0926,0.13909 0,0.0308 -0.03174,0.16531 -0.07053,0.29916 -0.09386,0.3239 -0.136265,0.68691 -0.112318,0.96148 l 0.01955,0.22431 0.115665,-0.0195 c 0.06362,-0.0109 0.18605,-0.0437 0.27208,-0.0733 z"
       id="path8428"
       inkscape:connector-curvature="0" />
    <path
       style="fill:#ffffff;stroke-width:0.00108777;stroke-miterlimit:4;stroke-dasharray:none"
       d="m 2.4254532,286.24237 c -0.027132,-0.25342 0.00245,-0.52133 0.1032291,-0.93394 0.046129,-0.18891 0.077501,-0.36001 0.069707,-0.38023 -0.00769,-0.0202 -0.1625999,-0.17658 -0.3440193,-0.34751 -0.2989929,-0.28171 -0.6191289,-0.68629 -0.6191289,-0.78243 0,-0.0333 0.068473,-0.0635 0.3915253,-0.17386 0.1432332,-0.049 0.3195875,-0.0786 0.5889825,-0.0991 0.303739,-0.0231 0.3944731,-0.0398 0.4318481,-0.0798 0.026021,-0.0277 0.1024839,-0.19305 0.1699078,-0.36716 0.067423,-0.17412 0.1613452,-0.38134 0.2087121,-0.4605 0.1094351,-0.18286 0.3099719,-0.44609 0.3398399,-0.44609 0.042758,0 0.292952,0.35904 0.401108,0.57562 0.059287,0.11874 0.1307967,0.28707 0.158908,0.37414 0.070256,0.21758 0.1201734,0.30948 0.1877671,0.34566 0.031628,0.0169 0.2031022,0.0433 0.3810435,0.0585 0.3060016,0.0262 0.612388,0.0749 0.6631303,0.1053 0.012656,0.007 -0.03676,0.0562 -0.1098138,0.10825 -0.073055,0.0521 -0.1538468,0.12443 -0.1795307,0.16109 -0.064197,0.0916 -0.055096,0.29788 0.020866,0.473 l 0.062341,0.14369 -0.098758,0.0865 c -0.054315,0.0477 -0.1458669,0.1268 -0.2034394,0.17604 -0.1289534,0.11032 -0.1327576,0.17505 -0.034744,0.59172 0.090158,0.38327 0.1133687,0.60948 0.088239,0.85971 l -0.020254,0.20176 -0.1049272,-0.0187 c -0.2169314,-0.0386 -0.5574884,-0.19367 -0.8301989,-0.378 -0.3692328,-0.24958 -0.3993842,-0.25014 -0.746295,-0.0139 -0.2921983,0.19899 -0.4968887,0.298 -0.7535626,0.36452 -0.09458,0.0245 -0.1787758,0.0446 -0.1871025,0.0446 -0.00831,0 -0.024238,-0.085 -0.035367,-0.18886 z"
       id="path8430"
       inkscape:connector-curvature="0" />
    <path
       style="fill:#ffffff;stroke-width:0.00108777;stroke-miterlimit:4;stroke-dasharray:none"
       d="m 6.7579487,287.35179 c -0.041047,-0.0767 -0.041084,-0.71974 -6.6e-5,-0.95408 0.017555,-0.10028 0.065163,-0.31465 0.1057946,-0.47639 0.041682,-0.16586 0.066103,-0.32506 0.056025,-0.36518 -0.010262,-0.0407 -0.1071995,-0.1442 -0.2264065,-0.24169 -0.3998179,-0.32698 -0.7030243,-0.68337 -0.8834688,-1.03846 -0.075241,-0.14807 -0.084379,-0.13789 0.2360759,-0.2626 0.3464441,-0.13483 0.5221132,-0.17208 0.9568896,-0.20292 0.4714577,-0.0335 0.5114824,-0.0527 0.5965945,-0.28626 0.1467979,-0.40291 0.2367465,-0.60337 0.3795802,-0.84594 0.1918728,-0.32584 0.3619516,-0.52382 0.4281698,-0.49842 0.1408777,0.0541 0.5510784,0.75832 0.7125091,1.22327 0.057173,0.16467 0.1180354,0.2871 0.1585562,0.31898 0.05071,0.0398 0.1601566,0.0592 0.4781034,0.0843 0.4515223,0.0357 0.6377543,0.0763 0.9870783,0.21578 0.170731,0.0682 0.233234,0.10725 0.239233,0.14981 0.01209,0.0861 -0.262287,0.51097 -0.477268,0.73885 -0.104023,0.11032 -0.290377,0.28494 -0.414113,0.38814 -0.1378016,0.11496 -0.2323632,0.21708 -0.244042,0.26362 -0.011603,0.0464 0.010754,0.19366 0.057586,0.37877 0.113345,0.4478 0.13799,0.64095 0.128514,1.00729 l -0.0086,0.33034 -0.2302442,-0.007 c -0.126635,-0.005 -0.2704138,0.005 -0.319511,0.0189 l -0.089265,0.0267 -0.01549,-0.95681 c -0.017384,-1.07333 -0.021465,-1.09605 -0.239665,-1.33757 -0.14757,-0.16334 -0.3031955,-0.23758 -0.5326071,-0.25405 -0.2689137,-0.0193 -0.4718327,0.0457 -0.654255,0.20978 -0.2305711,0.20729 -0.2685655,0.31566 -0.296061,0.84438 -0.012876,0.24763 -0.024018,0.64209 -0.024738,0.87656 l -0.00134,0.42632 -0.1803711,0.0817 c -0.1641966,0.0744 -0.3683398,0.14053 -0.5739647,0.18577 -0.059787,0.0132 -0.085308,0.004 -0.1093007,-0.0414 z"
       id="path8432"
       inkscape:connector-curvature="0" />
    <path
       style="fill:#ffffff;stroke-width:0.00108777;stroke-miterlimit:4;stroke-dasharray:none"
       d="m 8.4993868,295.67947 c -0.2742681,-0.013 -0.3309744,-0.0568 -0.3309744,-0.25611 0,-0.34076 -0.1256634,-0.62702 -0.4247065,-0.96748 -0.8863726,-1.00921 -0.941282,-1.08773 -1.2996738,-1.85864 -0.4335207,-0.93252 -0.9288835,-1.78523 -1.4044605,-2.41761 -0.1503394,-0.1999 -0.2792267,-0.37879 -0.2864186,-0.39754 -0.018495,-0.0483 0.1916287,-0.21379 0.2713105,-0.21379 0.2663995,0 0.8900205,0.53991 1.428693,1.23694 0.5566541,0.72027 0.8037332,0.88357 1.1706631,0.77362 0.2775153,-0.0832 0.4432217,-0.33792 0.4864009,-0.74787 0.015624,-0.14837 0.030016,-1.14396 0.031958,-2.21245 0.00195,-1.06847 0.01185,-2.21686 0.022087,-2.55199 0.018043,-0.59319 0.020389,-0.6113 0.08835,-0.68358 0.1448384,-0.15407 0.3531278,-0.15298 0.5087594,0.002 l 0.097768,0.0977 v 2.24135 2.24137 l 0.088545,0.0745 c 0.1112432,0.0936 0.2292981,0.0954 0.3343585,0.005 l 0.08075,-0.0694 0.014391,-1.00759 0.014391,-1.00759 0.070073,-0.0745 c 0.1532836,-0.16306 0.4224082,-0.14792 0.5392706,0.0303 0.04746,0.0724 0.05425,0.17702 0.06943,1.07187 l 0.01682,0.99164 0.08175,0.0704 c 0.06508,0.056 0.102387,0.0669 0.182922,0.0539 0.05564,-0.008 0.12785,-0.0431 0.160456,-0.0756 0.05555,-0.0556 0.06027,-0.10222 0.0749,-0.74202 0.01003,-0.43788 0.02766,-0.70453 0.0492,-0.74345 0.111792,-0.20202 0.482212,-0.22789 0.582402,-0.0406 0.02096,0.0391 0.0415,0.3629 0.05606,0.88295 0.02276,0.81305 0.02367,0.82183 0.09157,0.88818 0.03772,0.0367 0.09448,0.0695 0.126139,0.0725 0.227877,0.022 0.273036,-0.0441 0.301791,-0.44161 0.01185,-0.16295 0.0391,-0.32441 0.06071,-0.35901 0.0216,-0.0346 0.09226,-0.0911 0.157022,-0.12536 0.145403,-0.0772 0.244158,-0.0585 0.372721,0.0704 l 0.09163,0.0919 0.01797,0.80586 c 0.0099,0.44322 0.0069,1.29151 -0.0069,1.88511 -0.02235,0.97163 -0.03096,1.10034 -0.08619,1.29049 -0.09642,0.3318 -0.244565,0.59717 -0.494791,0.88629 -0.0642,0.0742 -0.13094,0.16839 -0.148331,0.2094 -0.01739,0.041 -0.03894,0.26515 -0.04792,0.4981 -0.01354,0.35205 -0.02486,0.43209 -0.06708,0.47427 -0.04706,0.0471 -0.156073,0.0511 -1.482195,0.0543 -0.787268,0.001 -1.535007,-8.7e-4 -1.6616403,-0.007 z"
       id="path8436"
       inkscape:connector-curvature="0" />
  </g>
</svg>
