<?xml version="1.0" encoding="UTF-8" standalone="no"?>
<!-- Created with Inkscape (http://www.inkscape.org/) -->

<svg
   xmlns:dc="http://purl.org/dc/elements/1.1/"
   xmlns:cc="http://creativecommons.org/ns#"
   xmlns:rdf="http://www.w3.org/1999/02/22-rdf-syntax-ns#"
   xmlns:svg="http://www.w3.org/2000/svg"
   xmlns="http://www.w3.org/2000/svg"
   xmlns:sodipodi="http://sodipodi.sourceforge.net/DTD/sodipodi-0.dtd"
   xmlns:inkscape="http://www.inkscape.org/namespaces/inkscape"
   width="64"
   height="64"
   viewBox="0 0 16.933333 16.933334"
   version="1.1"
   id="svg8"
   inkscape:version="0.92.5 (2060ec1f9f, 2020-04-08)"
   sodipodi:docname="backsplash_64x64.svg">
  <defs
     id="defs2" />
  <sodipodi:namedview
     id="base"
     pagecolor="#ffffff"
     bordercolor="#666666"
     borderopacity="1.0"
     inkscape:pageopacity="0.0"
     inkscape:pageshadow="2"
     inkscape:zoom="2.8"
     inkscape:cx="91.381196"
     inkscape:cy="18.416018"
     inkscape:document-units="mm"
     inkscape:current-layer="layer1"
     showgrid="false"
     units="px"
     inkscape:window-width="1208"
     inkscape:window-height="987"
     inkscape:window-x="1992"
     inkscape:window-y="0"
     inkscape:window-maximized="1" />
  <metadata
     id="metadata5">
    <rdf:RDF>
      <cc:Work
         rdf:about="">
        <dc:format>image/svg+xml</dc:format>
        <dc:type
           rdf:resource="http://purl.org/dc/dcmitype/StillImage" />
        <dc:title></dc:title>
      </cc:Work>
    </rdf:RDF>
  </metadata>
  <g
     inkscape:label="Layer 1"
     inkscape:groupmode="layer"
     id="layer1"
     transform="translate(0,-280.06665)">
    <path
       style="fill:#000000;stroke-width:0.02741509"
       d="m 4.4121042,295.47086 c -0.1901353,-0.0611 -0.3759019,-0.18675 -0.4910133,-0.33209 -0.095254,-0.12028 -0.2367504,-0.43505 -0.3288856,-0.73166 -0.084223,-0.27113 -0.1829265,-0.93973 -0.222497,-1.50714 -0.030996,-0.44449 -0.029825,-0.51218 0.011786,-0.6808 0.082806,-0.33555 0.3227258,-0.61191 0.624171,-0.71898 0.076496,-0.0271 0.1303656,-0.0618 0.1235875,-0.0794 -0.0066,-0.0172 -0.043501,-0.1717 -0.081982,-0.34328 -0.1350062,-0.60195 -0.1405058,-1.32391 -0.014691,-1.92883 0.076556,-0.36808 0.7971817,-2.53782 0.9312776,-2.80397 0.241008,-0.47836 0.6585565,-0.83729 1.1681535,-1.00416 0.077571,-0.0254 0.3366444,-0.0861 0.5757166,-0.1349 l 0.434677,-0.0888 0.00764,-0.34453 0.00764,-0.34453 -0.2353123,-0.0165 c -0.2834172,-0.02 -0.4241928,-0.0874 -0.5463767,-0.26124 l -0.083462,-0.11881 -0.00808,-0.76778 c -0.00683,-0.64773 -0.00104,-0.79199 0.036928,-0.92262 0.1242221,-0.42731 0.4733526,-0.74307 0.9139885,-0.82663 0.1958788,-0.0373 2.551616,-0.0373 2.747495,0 0.440636,0.0835 0.789766,0.39932 0.913988,0.82663 0.03798,0.13063 0.04374,0.27489 0.03693,0.92262 l -0.0081,0.76778 -0.08346,0.11881 c -0.122184,0.17392 -0.262959,0.24123 -0.546377,0.26124 l -0.235312,0.0165 0.0077,0.34453 0.0077,0.34453 0.434677,0.0888 c 0.239072,0.0488 0.498144,0.10951 0.575717,0.1349 0.509596,0.16687 0.927145,0.5258 1.168153,1.00416 0.134095,0.26615 0.854721,2.43589 0.931278,2.80397 0.125813,0.60492 0.120314,1.32688 -0.0147,1.92883 -0.03849,0.17158 -0.07537,0.32605 -0.08198,0.34328 -0.0067,0.0177 0.04709,0.0523 0.123586,0.0794 0.296577,0.10534 0.537394,0.3788 0.621826,0.70612 0.08723,0.33818 -0.01023,1.4857 -0.185032,2.17859 -0.148227,0.58754 -0.344854,0.88639 -0.687217,1.04449 l -0.172223,0.0795 -4.1122616,0.006 c -3.8911766,0.005 -4.1205029,0.003 -4.2655415,-0.0437 z m 5.8967398,-1.19368 c 0.396672,-0.044 1.041625,-0.15273 1.245225,-0.20994 0.157881,-0.0443 0.262604,-0.16039 0.262604,-0.29097 0,-0.1283 -0.0606,-0.22141 -0.174928,-0.26871 -0.07447,-0.0308 -0.135437,-0.0253 -0.471869,0.0424 -1.4399417,0.28983 -3.6815935,0.28983 -5.1215348,0 -0.3364318,-0.0678 -0.3974042,-0.0732 -0.4718702,-0.0424 -0.1121201,0.0464 -0.1749273,0.13992 -0.1749273,0.2605 0,0.11535 0.056025,0.20434 0.1636602,0.26001 0.1739644,0.0899 1.0862234,0.23586 1.7965184,0.28733 0.5320357,0.0386 2.4830967,0.0132 2.9471217,-0.0382 z m -3.6599141,-2.0453 c 0.2810441,-0.0693 1.0065013,-0.16624 1.4597494,-0.19504 0.3796986,-0.0241 0.6211595,-0.0241 1.0008581,0 0.4532482,0.0288 1.1787046,0.12574 1.4597506,0.19504 0.222289,0.0549 0.202697,0.0744 0.485086,-0.48569 0.258666,-0.51305 0.374796,-0.82156 0.436026,-1.15829 0.04669,-0.25683 0.03898,-0.82265 -0.01459,-1.06918 -0.07305,-0.33612 -0.753532,-2.35212 -0.819794,-2.42869 -0.104867,-0.12119 -0.803046,-0.25988 -1.6014092,-0.3181 -0.5108422,-0.0373 -1.0996055,-0.006 -1.6789189,0.0885 -0.5130723,0.0839 -0.7436916,0.14897 -0.8134802,0.22963 -0.066442,0.0768 -0.7471819,2.09399 -0.8196016,2.42869 -0.055095,0.25463 -0.061786,0.79034 -0.013351,1.06918 0.058782,0.33843 0.1529422,0.5893 0.4296106,1.14459 0.2868905,0.5758 0.2661006,0.55461 0.4900706,0.49939 z"
       id="path10802"
       inkscape:connector-curvature="0" />
    <path
       style="fill:#ffffff;stroke-width:0.00628008;stroke-miterlimit:4;stroke-dasharray:none"
       d="m 6.2359658,291.83148 c -0.4239738,-0.84185 -0.4874717,-1.06832 -0.487164,-1.73744 2.806e-4,-0.60924 2.9e-4,-0.60928 0.3933848,-1.76592 0.2162078,-0.63616 0.4292656,-1.19282 0.4734624,-1.23702 0.044195,-0.0442 0.351534,-0.12732 0.6829717,-0.18472 0.970318,-0.16806 2.2726086,-0.13021 3.0482543,0.0886 l 0.285552,0.0805 0.16456,0.45691 c 0.09051,0.2513 0.279791,0.81053 0.420629,1.24275 0.231702,0.71103 0.256069,0.8361 0.256069,1.31426 0,0.61342 -0.100714,0.97767 -0.460681,1.66621 -0.266124,0.50903 -0.16285,0.47882 -1.1622191,0.34001 -1.0127896,-0.14065 -1.9823652,-0.10799 -3.2055823,0.10801 l -0.2036833,0.0359 z"
       id="path10804"
       inkscape:connector-curvature="0" />
    <path
       style="fill:#ffffff;stroke-width:0.00628008;stroke-miterlimit:4;stroke-dasharray:none"
       d="m 7.2365934,294.27484 c -0.7527554,-0.0618 -1.5103882,-0.19955 -1.6690815,-0.30352 -0.1577112,-0.10334 -0.1742648,-0.33316 -0.029574,-0.41059 0.070199,-0.0376 0.3046156,-0.0198 0.7615688,0.0576 1.2955702,0.21961 3.5862131,0.19955 4.8642583,-0.0426 0.423451,-0.0802 0.441476,-0.0793 0.549981,0.0293 0.164215,0.16421 0.05798,0.36893 -0.23195,0.44701 -0.733579,0.19753 -3.0633346,0.31982 -4.2452019,0.22283 z"
       id="path10806"
       inkscape:connector-curvature="0" />
  </g>
</svg>
