<?xml version="1.0" encoding="UTF-8" standalone="no"?>
<!-- Created with Inkscape (http://www.inkscape.org/) -->

<svg
   xmlns:dc="http://purl.org/dc/elements/1.1/"
   xmlns:cc="http://creativecommons.org/ns#"
   xmlns:rdf="http://www.w3.org/1999/02/22-rdf-syntax-ns#"
   xmlns:svg="http://www.w3.org/2000/svg"
   xmlns="http://www.w3.org/2000/svg"
   xmlns:sodipodi="http://sodipodi.sourceforge.net/DTD/sodipodi-0.dtd"
   xmlns:inkscape="http://www.inkscape.org/namespaces/inkscape"
   width="64"
   height="64"
   viewBox="0 0 16.933333 16.933334"
   version="1.1"
   id="svg8"
   inkscape:version="0.92.5 (2060ec1f9f, 2020-04-08)"
   sodipodi:docname="back_64x64.svg">
  <defs
     id="defs2" />
  <sodipodi:namedview
     id="base"
     pagecolor="#ffffff"
     bordercolor="#666666"
     borderopacity="1.0"
     inkscape:pageopacity="0.0"
     inkscape:pageshadow="2"
     inkscape:zoom="3.959798"
     inkscape:cx="95.261187"
     inkscape:cy="-0.86670204"
     inkscape:document-units="mm"
     inkscape:current-layer="layer1"
     showgrid="false"
     units="px"
     inkscape:window-width="1208"
     inkscape:window-height="987"
     inkscape:window-x="1992"
     inkscape:window-y="0"
     inkscape:window-maximized="1" />
  <metadata
     id="metadata5">
    <rdf:RDF>
      <cc:Work
         rdf:about="">
        <dc:format>image/svg+xml</dc:format>
        <dc:type
           rdf:resource="http://purl.org/dc/dcmitype/StillImage" />
        <dc:title></dc:title>
      </cc:Work>
    </rdf:RDF>
  </metadata>
  <g
     inkscape:label="Layer 1"
     inkscape:groupmode="layer"
     id="layer1"
     transform="translate(0,-280.06665)">
    <path
       style="fill:#000000;stroke-width:0.0295731"
       d="m 1.5303404,296.19998 c -0.077325,-0.0665 -0.078991,-0.076 -0.1175569,-0.67279 -0.081925,-1.26766 -0.109861,-2.30166 -0.094255,-3.48869 0.00866,-0.65874 0.030257,-1.31083 0.04799,-1.44909 0.059212,-0.4616 0.1781882,-1.11523 0.2819419,-1.54889 0.08114,-0.33915 0.1093271,-0.53673 0.1342449,-0.94102 0.017349,-0.28147 0.066276,-0.88438 0.1087306,-1.3398 0.050814,-0.54508 0.076269,-0.99985 0.074492,-1.33079 -0.0058,-1.07741 0.1021758,-1.56735 0.4384214,-1.98966 0.3355257,-0.4214 0.9688556,-0.68817 2.0541917,-0.86526 0.451407,-0.0736 0.4764151,-0.073 0.5639755,0.0146 0.085309,0.0853 0.093176,0.19119 0.020834,0.28045 -0.043016,0.0531 -0.1366242,0.0784 -0.5544961,0.14985 -1.1109293,0.19 -1.6367047,0.44027 -1.8629572,0.88676 -0.1631064,0.32187 -0.1978311,0.54122 -0.2107238,1.33108 -0.00705,0.43183 -0.041054,1.04712 -0.084173,1.52301 -0.039787,0.43917 -0.086777,1.03803 -0.1044155,1.3308 -0.027122,0.45022 -0.052378,0.62154 -0.1637602,1.11092 -0.1435026,0.6305 -0.2288913,1.14746 -0.2805514,1.69852 -0.064706,0.69024 -0.032292,3.05759 0.060345,4.40639 0.015637,0.22772 0.028565,0.43732 0.028727,0.46578 2.683e-4,0.0474 0.046143,0.0518 0.5468318,0.0518 0.5424642,0 0.5466545,-4.5e-4 0.562068,-0.0665 0.091966,-0.39406 0.3503305,-2.03537 0.4410803,-2.80205 0.1095914,-0.92586 0.1182552,-1.16218 0.061794,-1.68567 -0.077641,-0.71991 -0.069363,-0.94432 0.070369,-1.90747 0.068432,-0.47168 0.1648992,-1.05678 0.2143702,-1.30021 0.1427827,-0.70259 0.4152459,-1.4559 0.5445233,-1.50551 0.086802,-0.0333 0.1834812,-0.0195 0.2520141,0.036 0.059967,0.0485 0.069775,0.0913 0.089952,0.39196 0.042301,0.63038 0.1767896,1.13436 0.6108339,2.28905 0.2424013,0.64486 0.3502489,1.09145 0.4383559,1.81519 0.057143,0.46939 0.045611,0.74895 -0.061747,1.497 -0.1237949,0.86257 -0.1527939,0.99978 -0.2234411,1.05724 -0.091448,0.0744 -0.2117618,0.065 -0.2943392,-0.0229 -0.079174,-0.0843 -0.088069,0.0403 0.074899,-1.04914 0.1053841,-0.70449 0.1191226,-1.03715 0.061066,-1.47865 -0.095096,-0.7232 -0.1815604,-1.06287 -0.4584053,-1.80083 -0.2428853,-0.64744 -0.4142848,-1.18024 -0.4627042,-1.43834 -0.011041,-0.0588 -0.030991,-0.096 -0.044337,-0.0826 -0.054912,0.0552 -0.3209938,1.65319 -0.4251094,2.55308 -0.010993,0.095 0.00716,0.42752 0.043595,0.79847 0.041378,0.4212 0.05624,0.72043 0.044074,0.887 -0.070888,0.97021 -0.2236366,2.0751 -0.4906065,3.54878 -0.097417,0.53774 -0.1282279,0.63914 -0.2070234,0.68131 -0.030257,0.0162 -0.3971161,0.0284 -0.8519147,0.0284 -0.7889756,0 -0.799731,-6.7e-4 -0.8772054,-0.0675 z m 3.2582353,0.006 c -0.094027,-0.074 -0.097182,-0.14022 -0.032737,-0.68759 0.1006694,-0.85505 0.1598731,-1.18226 0.2268018,-1.25351 0.1036418,-0.11031 0.263467,-0.0863 0.3340327,0.0501 0.036761,0.0711 0.035002,0.12638 -0.014202,0.44741 -0.030877,0.20146 -0.074561,0.52266 -0.097069,0.71378 l -0.040926,0.34748 h 1.488329 1.488329 v -3.45791 -3.4579 l 0.077921,-0.0613 c 0.098299,-0.0773 0.1598825,-0.0773 0.2581814,0 l 0.077921,0.0613 v 3.4579 3.45791 h 1.4884514 1.488453 l -0.03929,-0.33269 c -0.04907,-0.41543 -0.147333,-1.07261 -0.317761,-2.12517 -0.145182,-0.89664 -0.224334,-1.52096 -0.224389,-1.7699 -5.9e-5,-0.2443 0.08197,-0.86494 0.17481,-1.32262 0.05968,-0.29425 0.145207,-0.57412 0.305591,-1.00006 0.427831,-1.1362 0.569078,-1.66543 0.610927,-2.28905 0.02018,-0.30067 0.02998,-0.3434 0.08995,-0.39196 0.08276,-0.067 0.217926,-0.0705 0.281129,-0.007 0.171485,0.17148 0.432369,0.9817 0.575197,1.78637 0.0332,0.18705 0.109473,0.67945 0.169493,1.0942 0.123054,0.85036 0.130534,1.09651 0.05482,1.80397 -0.06018,0.56232 -0.03324,1.0468 0.120589,2.16886 0.0929,0.6776 0.315087,2.0222 0.383181,2.31885 0.01516,0.0661 0.01941,0.0665 0.557994,0.0665 h 0.54272 l 0.01852,-0.22919 c 0.06806,-0.8421 0.09073,-1.59771 0.09162,-3.05342 0.0012,-1.9552 -0.02072,-2.17963 -0.349327,-3.57835 -0.04904,-0.20874 -0.08343,-0.48015 -0.104935,-0.82805 -0.01759,-0.28464 -0.04064,-0.61942 -0.05123,-0.74395 -0.0184,-0.21648 -0.01588,-0.2298 0.05745,-0.30313 0.09503,-0.095 0.208228,-0.0984 0.297764,-0.009 0.07452,0.0745 0.07869,0.10573 0.136886,1.02638 0.02431,0.38449 0.05546,0.59455 0.14691,0.99069 0.257816,1.11676 0.298584,1.49297 0.317273,2.92775 0.01529,1.17406 -0.01405,2.26373 -0.09435,3.50348 -0.05268,0.81329 0.04548,0.74026 -0.99485,0.74026 -0.454798,0 -0.821654,-0.0123 -0.851914,-0.0284 -0.07594,-0.0406 -0.108821,-0.14161 -0.192966,-0.59259 -0.220024,-1.17924 -0.425614,-2.62086 -0.489239,-3.43062 -0.02973,-0.37838 -0.02641,-0.50655 0.02821,-1.08751 0.06923,-0.7364 0.0737,-0.65601 -0.10487,-1.88445 -0.108653,-0.74747 -0.2366,-1.43366 -0.274404,-1.47167 -0.01235,-0.0124 -0.04643,0.0807 -0.07573,0.20701 -0.06349,0.27365 -0.300853,0.98058 -0.52935,1.57655 -0.175036,0.45652 -0.277049,0.88927 -0.362185,1.53643 -0.07493,0.56955 -0.0567,0.77382 0.224303,2.51371 0.169369,1.04868 0.28942,1.91667 0.315066,2.27796 0.01791,0.2523 0.01732,0.25527 -0.0639,0.31914 l -0.08197,0.0645 H 8.3481506 c -3.4775123,0 -3.4817425,-6e-5 -3.5595707,-0.0613 z m 1.0458568,-8.72192 c -0.1086086,-0.10861 -0.077584,-0.21183 0.1324574,-0.44071 0.5329565,-0.58076 0.965714,-1.34531 1.2161718,-2.14861 0.044553,-0.14291 0.1053451,-0.28416 0.1350902,-0.31391 0.1249367,-0.12493 0.3498128,-0.0133 0.3498128,0.17373 0,0.12611 -0.2117159,0.72777 -0.38641,1.09811 -0.2644612,0.56067 -0.6374219,1.12067 -1.0126217,1.52049 -0.137741,0.14678 -0.1743389,0.17005 -0.2674653,0.17005 -0.068459,0 -0.1295059,-0.0216 -0.1670352,-0.0591 z m 4.8306725,-0.0961 c -0.373909,-0.38605 -0.6990315,-0.8652 -0.9882778,-1.45648 -0.1991326,-0.40706 -0.4401973,-1.05838 -0.441052,-1.19166 -5.702e-4,-0.089 0.1255838,-0.21306 0.2167421,-0.21306 0.1257125,0 0.1903151,0.0908 0.2995627,0.42093 0.265109,0.80118 0.681391,1.53832 1.16785,2.06798 0.173345,0.18874 0.208088,0.24353 0.208088,0.32812 0,0.12769 -0.07567,0.19943 -0.21035,0.19943 -0.08446,0 -0.12827,-0.027 -0.252563,-0.15526 z m 3.73249,-0.9493 c -0.08407,-0.0841 -0.102753,-0.28505 -0.118608,-1.27608 -0.0086,-0.53683 -0.02092,-0.69019 -0.07052,-0.87696 -0.125514,-0.4726 -0.315622,-0.71177 -0.724519,-0.9115 -0.454263,-0.22189 -0.919395,-0.32302 -2.243986,-0.48788 -0.868068,-0.10804 -0.999909,-0.14142 -1.2720563,-0.32206 -0.3116182,-0.20684 -0.5359942,-0.5011 -0.6288275,-0.82469 l -0.048785,-0.17004 H 8.3475775 7.4048664 l -0.050504,0.17999 c -0.1263347,0.45025 -0.5845708,0.89224 -1.0509956,1.01373 -0.089988,0.0235 -0.2514196,0.052 -0.3587375,0.0635 -0.1836309,0.0197 -0.199589,0.0165 -0.2709534,-0.0549 -0.088819,-0.0888 -0.097164,-0.19348 -0.022755,-0.28538 0.041081,-0.0507 0.1115716,-0.0749 0.3119222,-0.10699 0.1423655,-0.0228 0.3214266,-0.0732 0.3979135,-0.11209 0.3488827,-0.17721 0.5974513,-0.52544 0.5974513,-0.83698 0,-0.12968 0.013487,-0.17276 0.072588,-0.23186 l 0.072588,-0.0726 h 1.244759 1.2447588 l 0.072588,0.0726 c 0.059098,0.0591 0.072588,0.10218 0.072588,0.23186 0,0.30941 0.2493005,0.66075 0.5914623,0.83355 0.174409,0.0881 0.177004,0.0886 1.128874,0.20681 1.208065,0.1501 1.751259,0.27512 2.245989,0.51696 0.540788,0.26435 0.862542,0.71868 0.974846,1.37648 0.01944,0.11386 0.0385,0.50644 0.04237,0.87241 0.0038,0.36597 0.0168,0.76766 0.02875,0.89264 0.02087,0.21827 0.01872,0.23024 -0.05416,0.30313 -0.09477,0.0948 -0.207814,0.0972 -0.298618,0.006 z"
       id="path245"
       inkscape:connector-curvature="0" />
    <path
       style="fill:#ffffff;stroke-width:0.00079837;stroke-miterlimit:4;stroke-dasharray:none"
       d="m 1.9064413,295.79486 c -0.078359,-0.0505 -0.1801267,-3.34469 -0.1362184,-4.40924 0.031247,-0.7577 0.095311,-1.22292 0.2981392,-2.16518 0.1152174,-0.53525 0.1359084,-0.6754 0.1684049,-1.14067 0.012577,-0.18008 0.046042,-0.61259 0.074371,-0.96113 0.07654,-0.94176 0.092311,-1.2036 0.1151412,-1.91169 0.022431,-0.69577 0.047741,-0.90224 0.1385842,-1.13078 0.2162777,-0.54408 0.6461201,-0.79649 1.7081743,-1.00307 0.6645875,-0.12926 0.7200249,-0.14372 0.7748556,-0.20209 0.031133,-0.0332 0.049028,-0.078 0.049028,-0.1229 v -0.0707 l 0.1383598,-0.0132 c 0.076098,-0.007 0.1882648,-0.0193 0.2492594,-0.0267 0.09331,-0.0113 0.1108989,-0.008 0.1108989,0.0204 0,0.0186 0.029502,0.0675 0.065562,0.10855 0.059738,0.068 0.075617,0.0747 0.1788023,0.0747 0.1749138,0 0.514303,-0.0737 0.6750078,-0.14655 0.3974208,-0.1802 0.7214309,-0.54196 0.8478127,-0.9466 l 0.054434,-0.17427 0.9322322,5.1e-4 0.9322313,5e-4 0.061255,0.19175 c 0.1041689,0.32608 0.3377008,0.62322 0.6433081,0.81851 0.2590837,0.16557 0.3919117,0.19759 1.3269547,0.31991 1.438999,0.18825 1.985572,0.32833 2.390384,0.61262 0.22579,0.15856 0.337923,0.31367 0.442615,0.61223 0.09003,0.25673 0.106785,0.40287 0.12111,1.05612 0.01562,0.71243 0.04203,1.09619 0.08203,1.19192 0.03326,0.0796 0.135427,0.1454 0.209402,0.13487 0.04408,-0.006 0.04702,0.004 0.06722,0.23636 l 0.02112,0.24292 -0.05671,0.0161 c -0.09372,0.0266 -0.186209,0.1347 -0.186209,0.21766 0,0.16697 0.08835,1.28143 0.116386,1.46808 0.01677,0.11166 0.05834,0.321 0.09238,0.46521 0.166698,0.70617 0.241225,1.16386 0.276589,1.69859 0.02707,0.40938 0.02725,2.92691 2.65e-4,3.61214 -0.02137,0.54238 -0.05441,1.09275 -0.07514,1.25158 l -0.01171,0.0898 -0.510954,-3.1e-4 c -0.281025,-1.9e-4 -0.521965,-0.007 -0.535424,-0.0159 -0.03096,-0.0197 -0.06614,-0.19119 -0.185203,-0.90267 -0.352779,-2.10812 -0.421129,-2.86673 -0.337243,-3.74299 0.03984,-0.41617 0.03033,-0.99963 -0.02248,-1.37949 -0.06659,-0.47887 -0.202847,-1.34545 -0.245792,-1.56315 -0.143407,-0.72698 -0.382426,-1.44747 -0.534694,-1.61177 -0.08985,-0.0969 -0.287046,-0.0701 -0.350079,0.0477 -0.01153,0.0215 -0.0312,0.1565 -0.04373,0.29993 -0.05979,0.68456 -0.16245,1.08351 -0.559032,2.17247 -0.301827,0.82878 -0.361819,1.05634 -0.462185,1.75326 -0.113643,0.78911 -0.108288,0.86277 0.208825,2.87282 0.147918,0.93759 0.25513,1.6791 0.277165,1.91697 l 0.01419,0.15314 H 10.045007 8.5738805 v -3.45189 -3.45188 l -0.088656,-0.0652 c -0.1206837,-0.0888 -0.188004,-0.0831 -0.3074124,0.0256 l -0.047532,0.0433 v 3.45004 3.45003 H 6.6520289 5.1737778 l 0.012308,-0.10033 c 0.00677,-0.0552 0.044607,-0.33961 0.084091,-0.63204 0.039484,-0.29243 0.071784,-0.57569 0.071784,-0.62947 0,-0.12452 -0.043899,-0.20924 -0.1260583,-0.24327 l -0.064679,-0.0268 0.011721,-0.13989 c 0.00647,-0.0769 0.016534,-0.18784 0.022411,-0.24644 l 0.01069,-0.10654 0.07311,0.009 c 0.079597,0.009 0.1625254,-0.0325 0.1987997,-0.10035 0.036074,-0.0674 0.08235,-0.31852 0.1715296,-0.93083 0.1121614,-0.77009 0.1270814,-1.15693 0.063533,-1.64725 -0.091825,-0.70851 -0.1861525,-1.08022 -0.4771855,-1.8804 -0.4085098,-1.12317 -0.5048175,-1.49149 -0.560633,-2.14405 -0.034011,-0.39765 -0.066357,-0.45416 -0.2599763,-0.45416 -0.080709,0 -0.1030689,0.0101 -0.1525803,0.0686 -0.073139,0.0866 -0.1352842,0.22651 -0.2523787,0.56836 -0.1409265,0.41144 -0.2323126,0.8052 -0.3467899,1.49428 -0.2279247,1.37194 -0.2626818,1.86757 -0.1823604,2.60041 0.069158,0.631 0.025673,1.18821 -0.2215896,2.83938 -0.1601953,1.06975 -0.2661726,1.64199 -0.3103558,1.6758 -0.038318,0.0293 -0.9885586,0.0388 -1.0327229,0.0102 z m 4.2142212,-8.27339 c 0.139298,-0.072 0.5892997,-0.64317 0.8523037,-1.08172 0.2870785,-0.47871 0.5523088,-1.08155 0.6624812,-1.50575 0.063304,-0.24374 0.029273,-0.35099 -0.1278303,-0.40284 -0.1446288,-0.0477 -0.2226842,0.032 -0.3202309,0.32725 -0.2780689,0.84156 -0.6484697,1.50779 -1.1802877,2.12293 -0.2450044,0.28339 -0.2859685,0.37876 -0.2052346,0.47781 0.076893,0.0943 0.2075114,0.11988 0.3187986,0.0624 z m 4.9231655,-6.7e-4 c 0.06883,-0.0356 0.08601,-0.0701 0.08601,-0.17289 0,-0.0993 -0.01099,-0.11653 -0.256221,-0.40276 -0.472968,-0.55205 -0.821383,-1.17681 -1.1054375,-1.98225 -0.1068926,-0.30309 -0.1635849,-0.40053 -0.2508225,-0.43108 -0.1184621,-0.0415 -0.288647,0.0841 -0.288647,0.21303 0,0.15068 0.2936004,0.91386 0.5150229,1.33876 0.2757281,0.5291 0.5552581,0.93058 0.8788171,1.26218 0.184622,0.18921 0.207534,0.20599 0.281258,0.20595 0.04414,-2e-5 0.107156,-0.014 0.140025,-0.0309 z"
       id="path249"
       inkscape:connector-curvature="0" />
  </g>
</svg>
