<?xml version="1.0" encoding="UTF-8" standalone="no"?>
<!-- Created with Inkscape (http://www.inkscape.org/) -->

<svg
   xmlns:dc="http://purl.org/dc/elements/1.1/"
   xmlns:cc="http://creativecommons.org/ns#"
   xmlns:rdf="http://www.w3.org/1999/02/22-rdf-syntax-ns#"
   xmlns:svg="http://www.w3.org/2000/svg"
   xmlns="http://www.w3.org/2000/svg"
   xmlns:sodipodi="http://sodipodi.sourceforge.net/DTD/sodipodi-0.dtd"
   xmlns:inkscape="http://www.inkscape.org/namespaces/inkscape"
   width="64"
   height="64"
   viewBox="0 0 16.933333 16.933334"
   version="1.1"
   id="svg8"
   inkscape:version="0.92.5 (2060ec1f9f, 2020-04-08)"
   sodipodi:docname="bad_weather_64x64.svg">
  <defs
     id="defs2" />
  <sodipodi:namedview
     id="base"
     pagecolor="#ffffff"
     bordercolor="#666666"
     borderopacity="1.0"
     inkscape:pageopacity="0.0"
     inkscape:pageshadow="2"
     inkscape:zoom="7.919596"
     inkscape:cx="55.802708"
     inkscape:cy="21.555439"
     inkscape:document-units="mm"
     inkscape:current-layer="layer1"
     showgrid="false"
     units="px"
     inkscape:window-width="1208"
     inkscape:window-height="987"
     inkscape:window-x="1992"
     inkscape:window-y="0"
     inkscape:window-maximized="1" />
  <metadata
     id="metadata5">
    <rdf:RDF>
      <cc:Work
         rdf:about="">
        <dc:format>image/svg+xml</dc:format>
        <dc:type
           rdf:resource="http://purl.org/dc/dcmitype/StillImage" />
        <dc:title></dc:title>
      </cc:Work>
    </rdf:RDF>
  </metadata>
  <g
     inkscape:label="Layer 1"
     inkscape:groupmode="layer"
     id="layer1"
     transform="translate(0,-280.06665)">
    <path
       style="fill:#000000;stroke-width:0.07632688"
       d="m 0.64310731,296.44128 c -0.34226303,-0.36432 -0.31579503,-0.39961 2.14339199,-2.85781 2.4727381,-2.47174 2.5171582,-2.50476 2.8675734,-2.13176 0.3422629,0.36432 0.3157949,0.39961 -2.1433918,2.85781 -2.4727386,2.47174 -2.51715859,2.50476 -2.86757359,2.13176 z m 3.20572949,0 c -0.2736849,-0.29132 -0.2141285,-0.50556 0.2751342,-0.98972 0.4936209,-0.48847 0.7244412,-0.5487 0.9958133,-0.25983 0.2736849,0.29132 0.2141283,0.50556 -0.2751342,0.98972 -0.4936209,0.48847 -0.7244414,0.54869 -0.9958133,0.25983 z m 3.205729,0 c -0.2971833,-0.31634 -0.2234796,-0.48782 0.5385579,-1.25304 l 0.7045162,-0.70746 H 7.2461838 c -1.0145928,0 -1.0580257,-0.007 -1.2388046,-0.18734 C 5.904338,294.1904 5.820031,294.0296 5.820031,293.93611 c 0,-0.11753 0.3817292,-0.55425 1.2372956,-1.41551 1.3335407,-1.34243 1.4696621,-1.42315 1.8024755,-1.06889 0.2971833,0.31634 0.2234797,0.48782 -0.5385579,1.25304 l -0.7045162,0.70746 h 1.0514562 c 1.0145925,0 1.0580255,0.007 1.2388045,0.18735 0.1030413,0.10304 0.1873483,0.26383 0.1873483,0.35732 0,0.11753 -0.3817293,0.55425 -1.2372957,1.41551 -1.3335407,1.34244 -1.4696621,1.42315 -1.8024755,1.06889 z m 3.2408822,0.0185 c -0.3678433,-0.28935 -0.285128,-0.48608 0.557211,-1.32526 0.645486,-0.64306 0.794899,-0.75547 1.004144,-0.75547 0.163716,0 0.292836,0.0581 0.386581,0.17383 0.275126,0.33977 0.194401,0.5147 -0.607616,1.31671 -0.812524,0.81253 -0.969683,0.88173 -1.34032,0.59019 z m 2.734005,-2.77693 c -0.323486,-0.32348 -0.257878,-0.4528 0.743746,-1.46595 1.009237,-1.02086 1.177235,-1.10666 1.498062,-0.76516 0.31576,0.33611 0.238144,0.48491 -0.775852,1.48737 -1.013153,1.00162 -1.142469,1.06723 -1.465956,0.74374 z M 0.64310731,293.23556 c -0.29977803,-0.31911 -0.22490603,-0.49277 0.54149899,-1.25599 0.771388,-0.76818 0.962841,-0.84815 1.263737,-0.52786 0.299778,0.3191 0.224906,0.49276 -0.541499,1.25598 -0.771388,0.76818 -0.96284099,0.84815 -1.26373699,0.52787 z M 10.794584,292.70127 c -0.273685,-0.29133 -0.214128,-0.50556 0.275134,-0.98972 0.493621,-0.48847 0.724441,-0.5487 0.995814,-0.25984 0.273684,0.29133 0.214128,0.50556 -0.275135,0.98972 -0.493621,0.48847 -0.724441,0.5487 -0.995813,0.25984 z m -7.4847668,-2.61414 c -1.8813329,-0.51187 -3.09450692,-2.36864 -2.76227992,-4.22767 0.34039703,-1.90474 2.05312502,-3.25378 3.94935152,-3.11071 l 0.5468664,0.0413 0.3134824,-0.48473 c 0.7291691,-1.1275 1.8227089,-1.71599 3.1886595,-1.71599 1.7427029,0 3.2562289,1.23802 3.6126859,2.95506 l 0.08471,0.40803 0.280326,-0.0596 c 0.543248,-0.11549 1.472831,-0.0541 1.947586,0.12856 1.263629,0.48625 2.109646,1.81187 2.015602,3.15822 -0.09092,1.30168 -0.837864,2.32106 -2.072817,2.82887 -0.380122,0.15631 -0.503989,0.16023 -5.5408795,0.17524 -4.3232993,0.0129 -5.2182148,-0.003 -5.5632893,-0.0965 z M 13.984442,289.0171 c 0.565651,-0.16798 1.163998,-0.76632 1.331979,-1.33198 0.257062,-0.86562 0.08833,-1.5664 -0.524797,-2.17952 -0.78291,-0.78291 -1.726532,-0.8463 -2.852715,-0.19166 -0.203289,0.11818 -0.298533,0.13252 -0.473925,0.0714 -0.275751,-0.0961 -0.323817,-0.24816 -0.333858,-1.05601 -0.0067,-0.54218 -0.04404,-0.72696 -0.227005,-1.12463 -0.254166,-0.5524 -0.789699,-1.09389 -1.3274918,-1.34226 -0.5123909,-0.23663 -1.6543984,-0.23832 -2.1630759,-0.003 -0.668068,0.3088 -1.1872432,0.89132 -1.4709788,1.65044 -0.1866641,0.49942 -0.3260927,0.55884 -0.9286579,0.39573 -1.3010222,-0.35217 -2.5987033,0.22042 -3.1812263,1.40369 -0.221845,0.45063 -0.248802,0.57586 -0.248802,1.15578 0,0.54111 0.03336,0.7215 0.198535,1.07366 0.35152,0.74945 0.916034,1.24573 1.6933067,1.48865 0.2512136,0.0785 1.3923689,0.10164 5.2117878,0.10563 4.2482112,0.004 4.9435472,-0.0108 5.2969242,-0.1157 z"
       id="path9204"
       inkscape:connector-curvature="0" />
    <path
       style="fill:#ffffff;stroke-width:0.0061817;stroke-miterlimit:4;stroke-dasharray:none"
       d="m 4.4317412,289.06813 -0.9296795,-0.0336 -0.4231363,-0.20914 C 2.5546473,288.56626 2.1552763,288.1734 1.8662883,287.63251 l -0.212174,-0.39712 v -0.76326 -0.76327 l 0.217367,-0.407 c 0.278635,-0.52172 0.67619,-0.91814 1.1670123,-1.16369 0.6537979,-0.32708 1.1153788,-0.37192 2.0516829,-0.19929 0.5944191,0.10959 0.6242379,0.0914 0.953494,-0.58108 0.3214102,-0.65648 0.7438107,-1.13393 1.2379254,-1.39926 0.6027949,-0.3237 1.76073,-0.32588 2.3958968,-0.005 0.29739,0.15046 0.7955023,0.61479 1.0262353,0.95662 0.274874,0.40722 0.365274,0.73871 0.406278,1.48975 0.02128,0.38981 0.06732,0.76198 0.102303,0.82705 0.03499,0.0651 0.150495,0.14697 0.256689,0.18202 0.178522,0.0589 0.227787,0.047 0.653362,-0.15808 0.60157,-0.28989 0.867599,-0.35205 1.379861,-0.32239 0.527805,0.0306 0.862419,0.19887 1.293188,0.65048 0.421532,0.44193 0.592729,0.83282 0.593923,1.35606 0.0017,0.74152 -0.278266,1.30717 -0.869987,1.7578 -0.5269,0.40126 -0.329614,0.38553 -4.987205,0.39763 -2.2938955,0.006 -4.589075,-0.004 -5.1003988,-0.0228 z"
       id="path9206"
       inkscape:connector-curvature="0" />
  </g>
</svg>
