<?xml version="1.0" encoding="UTF-8" standalone="no"?>
<svg
   xmlns:dc="http://purl.org/dc/elements/1.1/"
   xmlns:cc="http://creativecommons.org/ns#"
   xmlns:rdf="http://www.w3.org/1999/02/22-rdf-syntax-ns#"
   xmlns:svg="http://www.w3.org/2000/svg"
   xmlns="http://www.w3.org/2000/svg"
   xmlns:sodipodi="http://sodipodi.sourceforge.net/DTD/sodipodi-0.dtd"
   xmlns:inkscape="http://www.inkscape.org/namespaces/inkscape"
   width="64"
   height="64"
   viewBox="0 0 16.933333 16.933333"
   version="1.1"
   id="svg8"
   sodipodi:docname="seren_band_aid_64x64.svg"
   inkscape:version="1.0.2-2 (e86c870879, 2021-01-15)">
  <defs
     id="defs2" />
  <sodipodi:namedview
     id="base"
     pagecolor="#ffffff"
     bordercolor="#666666"
     borderopacity="1.0"
     inkscape:pageopacity="0.0"
     inkscape:pageshadow="2"
     inkscape:zoom="8"
     inkscape:cx="22.867792"
     inkscape:cy="24.378386"
     inkscape:document-units="mm"
     inkscape:current-layer="layer1"
     inkscape:document-rotation="0"
     showgrid="false"
     inkscape:snap-global="false"
     fit-margin-top="0"
     fit-margin-left="0"
     fit-margin-right="0"
     fit-margin-bottom="0"
     inkscape:window-width="1540"
     inkscape:window-height="967"
     inkscape:window-x="1806"
     inkscape:window-y="64"
     inkscape:window-maximized="0"
     units="px" />
  <metadata
     id="metadata5">
    <rdf:RDF>
      <cc:Work
         rdf:about="">
        <dc:format>image/svg+xml</dc:format>
        <dc:type
           rdf:resource="http://purl.org/dc/dcmitype/StillImage" />
        <dc:title></dc:title>
      </cc:Work>
    </rdf:RDF>
  </metadata>
  <g
     inkscape:label="Calque 1"
     inkscape:groupmode="layer"
     id="layer1"
     transform="translate(-44.581036,-28.552681)">
    <text
       xml:space="preserve"
       style="font-style:normal;font-weight:normal;font-size:10.5833px;line-height:1.25;font-family:sans-serif;fill:#000000;fill-opacity:1;stroke:none;stroke-width:0.264583"
       x="51.724785"
       y="39.66518"
       id="text1411"><tspan
         sodipodi:role="line"
         id="tspan1409"
         x="51.724785"
         y="39.66518"
         style="stroke-width:0.264583"></tspan></text>
    <path
       style="fill:#ffffff;stroke-width:2.12598;stroke-linecap:round;stroke-miterlimit:4;stroke-dasharray:none"
       d=""
       id="path1772"
       transform="matrix(0.26458333,0,0,0.26458333,44.581036,28.552681)" />
    <path
       style="fill:#000000;stroke-width:0.0283085"
       d="m 49.097143,44.250553 c -0.17023,-0.02637 -0.336517,-0.08181 -0.481247,-0.160434 -0.199554,-0.108408 -2.440767,-2.338427 -2.558933,-2.546156 -0.226012,-0.397316 -0.235802,-0.840348 -0.02799,-1.266242 0.09824,-0.201316 0.182168,-0.291139 1.620188,-1.733901 l 1.516587,-1.521586 -1.516587,-1.521586 c -1.43802,-1.44276 -1.521954,-1.532584 -1.620188,-1.733899 -0.207818,-0.425894 -0.198028,-0.868927 0.02799,-1.266245 0.104126,-0.183048 2.355218,-2.43414 2.538266,-2.538265 0.401508,-0.228397 0.83361,-0.237802 1.266245,-0.02755 0.201645,0.09799 0.288764,0.179375 1.733786,1.619649 l 1.521472,1.516473 1.521701,-1.514679 c 1.665339,-1.657659 1.660941,-1.653977 2.08037,-1.741972 0.310084,-0.06506 0.603044,-0.01922 0.899221,0.14071 0.222506,0.120146 2.445161,2.342358 2.566819,2.566312 0.127566,0.234824 0.157398,0.380075 0.146404,0.712874 -0.0091,0.276177 -0.01691,0.310006 -0.119831,0.520202 -0.106373,0.217249 -0.161108,0.276015 -1.626663,1.7464 l -1.516588,1.521586 1.516588,1.521586 c 1.465555,1.470385 1.52029,1.529152 1.626663,1.746401 0.102916,0.210194 0.110709,0.244025 0.119831,0.520202 0.02037,0.616546 0.01885,0.618741 -1.394256,2.031784 -0.728098,0.728061 -1.213785,1.191949 -1.2983,1.240025 -0.40151,0.228394 -0.83361,0.237798 -1.266246,0.02755 -0.201638,-0.09799 -0.288743,-0.179352 -1.732091,-1.617958 l -1.519777,-1.514781 -1.534844,1.517087 c -1.658637,1.639447 -1.674132,1.652509 -2.056324,1.733498 -0.187297,0.03969 -0.289166,0.04508 -0.432266,0.02292 z m 0.527746,-0.549882 c 0.105338,-0.05057 0.490238,-0.417166 1.645319,-1.56708 l 1.507812,-1.50107 -1.635202,-1.635691 -1.635201,-1.635692 -1.50157,1.507831 c -1.665761,1.672708 -1.639244,1.640551 -1.640161,1.989076 -9.77e-4,0.378573 -0.0186,0.355311 1.185384,1.566354 0.593329,0.59681 1.128508,1.124907 1.189285,1.17355 0.246479,0.197272 0.601483,0.238506 0.884334,0.102722 z m -0.367332,-0.894052 c -0.01037,-0.01038 -0.01887,-0.118659 -0.01887,-0.240623 v -0.221751 h 0.240622 0.240624 v 0.240624 0.240623 h -0.221751 c -0.121963,0 -0.230244,-0.0085 -0.240623,-0.01887 z m -0.962491,-0.962491 c -0.01038,-0.01037 -0.01887,-0.118661 -0.01887,-0.240623 v -0.221752 h 0.240623 0.240623 v 0.240623 0.240623 h -0.221751 c -0.121962,0 -0.230242,-0.0085 -0.240623,-0.01887 z m 1.93442,-0.220606 v -0.241769 h 0.241767 0.241768 l -0.0082,0.233546 -0.0082,0.233546 -0.233546,0.0082 -0.233546,0.0083 z M 47.313703,40.64573 v -0.226468 h 0.240622 0.240624 v 0.226468 0.226469 h -0.240624 -0.240622 z m 1.924983,0 v -0.226468 h 0.240622 0.240624 v 0.226468 0.226469 h -0.240624 -0.240622 z m 1.953291,0 v -0.226468 h 0.240622 0.240624 v 0.226468 0.226469 h -0.240624 -0.240622 z m -2.909851,-0.969567 0.0082,-0.233546 0.233546,-0.0082 0.233546,-0.0082 v 0.241767 0.241769 h -0.241769 -0.241767 z m 1.94736,-0.0082 v -0.241742 l 0.233545,0.0082 0.233546,0.0082 0.0082,0.233545 0.0082,0.233547 h -0.241768 -0.241767 z m -0.984868,-0.954269 0.0082,-0.233546 0.233545,-0.0082 0.233546,-0.0082 v 0.241768 0.241768 h -0.241722 -0.241768 z m 8.104472,4.960402 c 0.146537,-0.07012 0.323803,-0.235948 1.291352,-1.208029 1.055058,-1.06 1.125245,-1.136815 1.184695,-1.296605 0.07836,-0.21062 0.0676,-0.45188 -0.02924,-0.655133 -0.05226,-0.109689 -1.070935,-1.143801 -5.035352,-5.11166 -5.532912,-5.537712 -5.091885,-5.126178 -5.493549,-5.126178 -0.367855,0 -0.382613,0.01143 -1.647732,1.27646 -1.263969,1.263877 -1.253564,1.250423 -1.252401,1.619341 5.17e-4,0.165091 0.0158,0.243795 0.0687,0.353857 0.05501,0.114455 1.019096,1.093139 5.037842,5.114139 3.536629,3.538613 5.005271,4.99024 5.092775,5.033778 0.264143,0.131425 0.508298,0.131434 0.782909,2.7e-5 z m -0.835102,-1.089203 v -0.240625 h 0.226469 0.226469 v 0.240625 0.240622 H 56.740457 56.513988 Z M 55.54206,41.844149 c -0.01038,-0.01038 -0.01887,-0.118659 -0.01887,-0.24062 v -0.221752 h 0.240623 0.240623 v 0.240622 0.240624 h -0.221751 c -0.121961,0 -0.230244,-0.0085 -0.240623,-0.01887 z m 1.934421,-0.220605 v -0.241767 h 0.241766 0.241768 l -0.0082,0.233546 -0.0083,0.233545 -0.233546,0.0082 -0.233545,0.0083 z m -2.915785,-0.977791 v -0.226472 h 0.240623 0.240623 v 0.226468 0.226469 h -0.240623 -0.240623 z m 1.953292,0 v -0.226472 h 0.226469 0.226469 v 0.226468 0.226469 h -0.226469 -0.226469 z m 1.924982,0 v -0.226472 h 0.240623 0.240624 v 0.226468 0.226469 H 58.679593 58.43897 Z m -4.670913,-0.500669 c -0.02335,-0.0083 -0.879633,-0.850738 -1.902838,-1.872215 -1.286697,-1.284524 -1.865604,-1.881035 -1.877328,-1.934416 -0.0093,-0.04245 -0.0019,-0.106591 0.01649,-0.142536 0.04567,-0.08924 2.141267,-2.191147 2.256174,-2.26296 0.06284,-0.03927 0.116903,-0.05197 0.170844,-0.04012 0.106222,0.02333 3.788266,3.704187 3.814525,3.813295 0.01,0.04137 0.0028,0.105061 -0.01586,0.141542 -0.0424,0.08279 -2.067699,2.123079 -2.218542,2.23497 -0.107936,0.08006 -0.157488,0.09277 -0.243453,0.06244 z m 0.252942,-4.042733 -1.643868,-1.641994 -0.902478,0.920028 -0.902478,0.920029 1.633201,1.634785 1.633199,1.634786 0.913145,-0.91282 0.913145,-0.912821 z m 1.508121,3.57386 0.0083,-0.233546 0.233546,-0.0082 0.233543,-0.0082 v 0.241768 0.241767 h -0.241766 -0.241766 z m 1.947361,-0.0082 v -0.241766 l 0.233545,0.0082 0.233544,0.0082 0.0083,0.233546 0.0082,0.233546 h -0.241766 -0.241769 z m -0.962493,-0.961346 v -0.240623 h 0.226469 0.226469 v 0.240623 0.240623 h -0.226469 -0.226469 z m -7.256431,-3.147033 c -0.01037,-0.01038 -0.01887,-0.11866 -0.01887,-0.240623 v -0.22175 h 0.240622 0.240624 v 0.240623 0.240622 h -0.221751 c -0.121963,0 -0.230244,-0.0085 -0.240623,-0.01887 z m -0.962491,-0.962491 c -0.01038,-0.01037 -0.01887,-0.118661 -0.01887,-0.240623 v -0.221751 h 0.240623 0.240623 v 0.240623 0.240623 h -0.221751 c -0.121962,0 -0.230242,-0.0085 -0.240623,-0.01887 z m 1.93442,-0.220605 v -0.241769 h 0.241767 0.241768 l -0.0082,0.233546 -0.0082,0.233546 -0.233546,0.0082 -0.233546,0.0082 z m -2.915783,-0.977791 v -0.226477 h 0.240622 0.240624 v 0.226469 0.226469 h -0.240624 -0.240622 z m 1.924983,0 v -0.226477 h 0.240622 0.240624 v 0.226469 0.226469 h -0.240624 -0.240622 z m 1.953291,0 v -0.226477 h 0.240622 0.240624 v 0.226469 0.226469 h -0.240624 -0.240622 z m -2.909851,-0.969569 0.0082,-0.233545 0.233546,-0.0082 0.233546,-0.0082 v 0.241768 0.241767 h -0.241769 -0.241767 z m 1.94736,-0.0082 v -0.241767 l 0.233545,0.0082 0.233546,0.0082 0.0082,0.233546 0.0082,0.233546 h -0.24182 -0.241768 z m -0.984868,-0.954269 0.0082,-0.233546 0.233545,-0.0083 0.233546,-0.0082 v 0.241768 0.241767 h -0.241722 -0.241768 z m 10.554308,2.059449 c 0.05524,-0.112539 0.06938,-0.185049 0.06897,-0.353857 -8.95e-4,-0.370471 0.01082,-0.355379 -1.26739,-1.633581 -1.278203,-1.278202 -1.263111,-1.266494 -1.633581,-1.267391 -0.363128,-8.95e-4 -0.319581,-0.03652 -2.003214,1.639581 l -1.507812,1.501069 1.6352,1.635692 1.635203,1.635692 1.501569,-1.507832 c 1.155234,-1.160053 1.517595,-1.540476 1.571054,-1.649373 z m -3.284938,1.811748 v -0.240623 h 0.226469 0.226469 v 0.240623 0.240623 h -0.226469 -0.226469 z m -0.971928,-0.74074 c -0.01038,-0.01038 -0.01887,-0.118661 -0.01887,-0.240624 v -0.221751 h 0.240623 0.240623 v 0.240624 0.240622 h -0.221751 c -0.121961,0 -0.230244,-0.0085 -0.240623,-0.01887 z m 1.934421,-0.220606 v -0.241769 h 0.241766 0.241768 l -0.0082,0.233546 -0.0083,0.233546 -0.233546,0.0082 -0.233545,0.0082 z m -2.915785,-0.977791 v -0.226479 h 0.240623 0.240623 v 0.226469 0.226468 h -0.240623 -0.240623 z m 1.953292,0 v -0.226479 h 0.226469 0.226469 v 0.226469 0.226468 h -0.226469 -0.226469 z m 1.924982,0 v -0.226479 h 0.240623 0.240624 v 0.226469 0.226468 H 58.679593 58.43897 Z m -2.90985,-0.969568 0.0083,-0.233546 0.233546,-0.0082 0.233543,-0.0082 v 0.241767 0.241768 h -0.241766 -0.241766 z m 1.947361,-0.0082 v -0.241768 l 0.233545,0.0082 0.233544,0.0082 0.0083,0.233545 0.0082,0.233546 h -0.241815 -0.241769 z m -0.962493,-0.961386 v -0.240622 h 0.226469 0.226469 v 0.240622 0.240624 h -0.226469 -0.226469 z"
       id="path2163" />
    <path
       style="fill:#ffffff;stroke-width:0.415107;stroke-linecap:round;stroke-miterlimit:4;stroke-dasharray:none"
       d="m 56.645864,43.69066 c -0.152298,-0.07268 -0.561367,-0.472069 -4.201644,-4.102186 -3.055188,-3.046662 -5.870729,-5.894956 -5.970594,-6.040051 -0.06581,-0.09561 -0.07336,-0.127286 -0.08208,-0.344338 -0.0086,-0.212747 -0.0033,-0.251564 0.04726,-0.352912 0.07594,-0.152052 0.547471,-0.65665 1.40345,-1.501861 1.029775,-1.016822 1.07026,-1.046869 1.42229,-1.055612 0.21363,-0.0052 0.217182,-0.0044 0.35119,0.0876 0.07446,0.05113 0.298379,0.242096 0.497603,0.424365 0.421922,0.386019 8.351743,8.319074 9.140336,9.144062 0.493157,0.515921 0.536058,0.567894 0.572649,0.693761 0.05708,0.196357 0.03616,0.424704 -0.0544,0.593673 -0.05187,0.09679 -0.320303,0.383994 -1.010297,1.080969 -1.359255,1.373006 -1.401099,1.40644 -1.781688,1.423606 -0.181864,0.0082 -0.223079,0.0019 -0.334091,-0.05109 z m 0.33409,-1.101356 v -0.256269 h -0.244065 -0.244067 v 0.256269 0.25627 h 0.244067 0.244065 z m -0.951859,-0.964063 v -0.244067 h -0.25627 -0.25627 v 0.227795 c 0,0.125288 0.0074,0.235117 0.01627,0.244067 0.009,0.009 0.12427,0.01627 0.256269,0.01627 h 0.24 z m 1.928127,0.07627 c 0,-0.09229 0.0069,-0.202118 0.01525,-0.244067 l 0.01525,-0.07627 h -0.259318 -0.259321 v 0.244067 0.244067 h 0.244067 0.244067 z M 55.051827,40.64897 v -0.244066 h -0.25627 -0.256269 v 0.244066 0.244067 h 0.256269 0.25627 z m 1.928127,0 v -0.244064 h -0.244065 -0.244067 v 0.244066 0.244067 h 0.244067 0.244065 z m 1.952535,0 v -0.244064 h -0.25627 -0.256269 v 0.244066 0.244067 h 0.256269 0.25627 z m -4.915505,-0.558341 c 0.05235,-0.03861 0.574041,-0.552067 1.159309,-1.141011 0.736,-0.740623 1.069396,-1.09244 1.081224,-1.140968 0.01317,-0.05402 0.0021,-0.09285 -0.04817,-0.168799 -0.07489,-0.113169 -2.631167,-2.691627 -3.298952,-3.32758 -0.536154,-0.510596 -0.521791,-0.505448 -0.780638,-0.279767 -0.164388,0.143324 -1.749393,1.73207 -2.015341,2.020097 -0.226427,0.245224 -0.237154,0.221094 0.379466,0.853578 0.628368,0.644534 1.346838,1.365499 2.435409,2.443864 0.767339,0.760143 0.823904,0.810793 0.905488,0.810793 0.05753,0 0.11928,-0.0238 0.182206,-0.0702 z m 2.011111,-0.416486 c 0,-0.133444 -0.0083,-0.246161 -0.01831,-0.250481 -0.01009,-0.0043 -0.125389,-0.0042 -0.256271,2.44e-4 l -0.237964,0.0081 v 0.242391 0.242393 h 0.25627 0.25627 v -0.242627 z m 1.935065,0.0046 c -0.0075,-0.130881 -0.01481,-0.239453 -0.01635,-0.241271 -0.0015,-0.0018 -0.109877,-0.0078 -0.240757,-0.01333 l -0.237966,-0.01 v 0.251297 0.251297 h 0.254315 0.254314 z m -0.983206,-0.970167 v -0.25627 h -0.244065 -0.244067 v 0.25627 0.25627 h 0.244067 0.244065 z m -7.248781,-3.368121 v -0.25627 h -0.256271 -0.25627 l 2.94e-4,0.152541 c 1.46e-4,0.0839 0.007,0.193141 0.01519,0.24276 0.01729,0.104549 0.02937,0.109021 0.307936,0.113916 l 0.189152,0.0033 z m -0.951861,-0.964063 v -0.244068 h -0.256269 -0.256271 v 0.227795 c 0,0.125289 0.0074,0.235118 0.01627,0.244068 0.009,0.009 0.12427,0.01627 0.25627,0.01627 h 0.239999 z m 1.928128,0.113236 c 0,-0.07196 0.007,-0.181786 0.01552,-0.244067 l 0.01552,-0.113237 h -0.259588 -0.259587 v 0.244068 0.244066 h 0.244066 0.244067 z m -2.904394,-1.089503 v -0.244068 h -0.256271 -0.25627 v 0.244068 0.244065 h 0.25627 0.256271 z m 1.928127,0 v -0.244068 h -0.256271 -0.25627 v 0.244068 0.244065 h 0.25627 0.256271 z m 1.952533,0 V 33.1561 h -0.256269 -0.25627 v 0.244068 0.244065 h 0.25627 0.256269 z M 48.779312,32.423857 V 32.17979 h -0.256269 -0.256271 v 0.244067 0.244067 h 0.256271 0.256269 z m 1.943942,0.115931 c -0.0085,-0.07047 -0.01548,-0.180303 -0.0156,-0.244066 l -1.96e-4,-0.115932 h -0.244067 -0.244067 v 0.244067 0.244067 h 0.259671 0.259669 z m -0.992081,-1.083675 v -0.259952 l -0.235518,0.01547 c -0.129535,0.0085 -0.237922,0.0184 -0.240863,0.02199 -0.0029,0.0035 -0.01294,0.1136 -0.02222,0.244479 l -0.01687,0.237967 h 0.257743 0.257742 z"
       id="path2165" />
    <path
       style="fill:#ffffff;stroke-width:0.415107;stroke-linecap:round;stroke-miterlimit:4;stroke-dasharray:none"
       d="m 52.222059,37.929034 -1.621529,-1.621666 0.119548,-0.129527 c 0.06575,-0.07124 0.466869,-0.482863 0.891372,-0.91472 l 0.771825,-0.785195 1.633203,1.633341 1.633205,1.633339 -0.903049,0.903047 -0.903046,0.903047 z"
       id="path2167" />
    <path
       style="fill:#ffffff;stroke-width:0.415107;stroke-linecap:round;stroke-miterlimit:4;stroke-dasharray:none"
       d="m 49.090397,43.747959 c -0.05039,-0.01267 -0.143748,-0.04958 -0.207456,-0.08205 -0.232266,-0.11836 -2.290663,-2.195522 -2.43061,-2.452767 -0.06503,-0.11954 -0.06885,-0.142282 -0.06102,-0.364141 0.0078,-0.221884 0.0134,-0.243917 0.08942,-0.353411 0.136512,-0.196624 0.582932,-0.661624 1.832632,-1.9089 l 1.19817,-1.195846 1.624934,1.622963 1.624933,1.622963 -1.264947,1.25241 c -1.456021,1.44159 -1.785704,1.752 -1.927302,1.814635 -0.123038,0.05443 -0.35333,0.07566 -0.478757,0.04414 z m 0.640776,-1.158655 v -0.256269 h -0.256271 -0.25627 l 2.94e-4,0.152541 c 1.46e-4,0.0839 0.007,0.193132 0.01518,0.242742 0.01681,0.101701 0.02994,0.10618 0.332345,0.11335 l 0.164746,0.0039 z m -0.951861,-0.964063 v -0.244067 h -0.256269 -0.256271 v 0.227795 c 0,0.125288 0.0074,0.235117 0.01627,0.244067 0.009,0.009 0.12427,0.01627 0.25627,0.01627 h 0.239999 z m 1.928128,0.113237 c 0,-0.07196 0.007,-0.181787 0.01552,-0.244068 l 0.01552,-0.113236 h -0.259588 -0.259587 v 0.244067 0.244067 h 0.244066 0.244067 z m -2.904394,-1.089504 v -0.244067 h -0.256271 -0.25627 v 0.244067 0.244066 h 0.25627 0.256271 z m 1.928127,0 v -0.244067 h -0.256271 -0.25627 v 0.244067 0.244066 h 0.25627 0.256271 z m 1.952533,0 v -0.244067 h -0.256269 -0.25627 v 0.244067 0.244066 h 0.25627 0.256269 z m -2.904394,-0.991317 c 0,-0.256804 -4.87e-4,-0.258986 -0.05491,-0.2444 -0.03019,0.0081 -0.145525,0.01487 -0.25627,0.01505 l -0.201355,3.32e-4 v 0.244067 0.244066 h 0.256271 0.256269 z m 1.93746,0.02115 c -0.0088,-0.13088 -0.01729,-0.239452 -0.0188,-0.24127 -0.0015,-0.0018 -0.109822,-0.0078 -0.240703,-0.01333 l -0.237965,-0.01 v 0.251297 0.251296 h 0.256763 0.256762 z m -0.985599,-0.973493 v -0.259597 l -0.232568,0.01216 c -0.127911,0.0067 -0.2363,0.01642 -0.240863,0.02163 -0.0045,0.0052 -0.0159,0.11655 -0.02518,0.24743 l -0.01687,0.237965 h 0.257744 0.257742 z"
       id="path2169" />
    <path
       style="fill:#ffffff;stroke-width:0.415107;stroke-linecap:round;stroke-miterlimit:4;stroke-dasharray:none"
       d="m 55.112845,35.045248 c -0.885962,-0.893695 -1.610592,-1.632182 -1.610286,-1.641081 0.0011,-0.03224 2.858737,-2.850814 2.995149,-2.954207 0.174197,-0.132034 0.282747,-0.171682 0.470044,-0.171682 0.168776,0 0.289568,0.03759 0.434487,0.135224 0.129205,0.08704 2.050529,1.992017 2.224605,2.205675 0.173606,0.21308 0.21397,0.299958 0.227551,0.489769 0.02088,0.291887 -0.02385,0.384908 -0.358742,0.745905 -0.160286,0.172782 -0.84955,0.876909 -1.531699,1.564724 l -1.240269,1.250576 z m 1.867109,0.295274 v -0.25627 h -0.244065 -0.244067 v 0.25627 0.256269 h 0.244067 0.244065 z m -0.951859,-0.964064 v -0.244067 h -0.25627 -0.25627 v 0.227796 c 0,0.125287 0.0074,0.235118 0.01627,0.244066 0.009,0.009 0.12427,0.01627 0.256269,0.01627 h 0.24 z m 1.928127,0.07627 c 0,-0.09228 0.0069,-0.202118 0.01525,-0.244067 l 0.01525,-0.07627 h -0.259318 -0.259321 v 0.244067 0.244067 h 0.244067 0.244067 z m -2.904395,-1.05254 V 33.15612 h -0.25627 -0.256269 v 0.244068 0.244066 h 0.256269 0.25627 z m 1.928127,0 v -0.244066 h -0.244065 -0.244067 v 0.244068 0.244066 h 0.244067 0.244065 z m 1.952535,0 v -0.244066 h -0.25627 -0.256269 v 0.244068 0.244066 h 0.256269 0.25627 z m -2.904394,-0.976266 v -0.244067 h -0.25627 -0.25627 v 0.244067 0.244067 h 0.25627 0.25627 z m 1.943793,0.152542 c -0.0083,-0.05034 -0.01525,-0.160169 -0.0154,-0.244067 l -2.68e-4,-0.152542 h -0.244066 -0.244067 v 0.244067 0.244067 h 0.259464 0.259463 z M 56.979954,31.459858 V 31.20359 h -0.244065 -0.244067 v 0.25627 0.25627 h 0.244067 0.244065 z"
       id="path2171" />
  </g>
</svg>
