<?xml version="1.0" encoding="UTF-8" standalone="no"?>
<!-- Created with Inkscape (http://www.inkscape.org/) -->

<svg
   xmlns:dc="http://purl.org/dc/elements/1.1/"
   xmlns:cc="http://creativecommons.org/ns#"
   xmlns:rdf="http://www.w3.org/1999/02/22-rdf-syntax-ns#"
   xmlns:svg="http://www.w3.org/2000/svg"
   xmlns="http://www.w3.org/2000/svg"
   xmlns:sodipodi="http://sodipodi.sourceforge.net/DTD/sodipodi-0.dtd"
   xmlns:inkscape="http://www.inkscape.org/namespaces/inkscape"
   width="64"
   height="64"
   viewBox="0 0 16.933333 16.933334"
   version="1.1"
   id="svg8"
   inkscape:version="0.92.5 (2060ec1f9f, 2020-04-08)"
   sodipodi:docname="bathroom_64x64.svg">
  <defs
     id="defs2" />
  <sodipodi:namedview
     id="base"
     pagecolor="#ffffff"
     bordercolor="#666666"
     borderopacity="1.0"
     inkscape:pageopacity="0.0"
     inkscape:pageshadow="2"
     inkscape:zoom="5.6"
     inkscape:cx="70.736729"
     inkscape:cy="8.7497823"
     inkscape:document-units="mm"
     inkscape:current-layer="layer1"
     showgrid="false"
     units="px"
     inkscape:window-width="1208"
     inkscape:window-height="987"
     inkscape:window-x="1992"
     inkscape:window-y="0"
     inkscape:window-maximized="1" />
  <metadata
     id="metadata5">
    <rdf:RDF>
      <cc:Work
         rdf:about="">
        <dc:format>image/svg+xml</dc:format>
        <dc:type
           rdf:resource="http://purl.org/dc/dcmitype/StillImage" />
        <dc:title></dc:title>
      </cc:Work>
    </rdf:RDF>
  </metadata>
  <g
     inkscape:label="Layer 1"
     inkscape:groupmode="layer"
     id="layer1"
     transform="translate(0,-280.06665)">
    <path
       style="fill:#000000;stroke-width:0.03314948"
       d="m 0.68514798,296.58743 c -0.0807017,-0.0807 -0.0813665,-0.0865 -0.0813665,-0.71422 0,-0.84868 -0.0507768,-0.79559 0.76093102,-0.79559 0.3290088,0 0.5981981,-0.007 0.5981981,-0.0151 0,-0.008 -0.074591,-0.11487 -0.1657476,-0.23678 -0.091163,-0.12195 -0.1657476,-0.23452 -0.1657476,-0.25014 0,-0.0156 -0.1946031,-0.0285 -0.4324505,-0.0285 -0.4149445,0 -0.43574268,-0.003 -0.51381694,-0.0814 l -0.0813665,-0.0814 v -6.46716 -6.46716 l 0.0813665,-0.0814 0.0813665,-0.0814 H 2.460151 4.1537877 l 0.081366,0.0814 c 0.075022,0.075 0.081366,0.10601 0.081366,0.39779 v 0.31643 h 0.6629892 0.6629904 v -0.31643 c 0,-0.29176 0.0063,-0.32277 0.081367,-0.39779 0.080702,-0.0807 0.086498,-0.0814 0.7142208,-0.0814 0.8424235,0 0.7955873,-0.0415 0.7955873,0.70424 0,0.38006 -0.015231,0.60041 -0.051068,0.73908 -0.096457,0.37318 -0.3904763,0.7076 -0.7509693,0.85416 -0.1636461,0.0666 -0.2432889,0.0723 -1.1454969,0.0827 l -0.969622,0.0117 v 1.58893 1.58894 h 0.2651961 0.265195 v -0.97942 -0.97942 l 0.081366,-0.0814 c 0.080702,-0.0807 0.086498,-0.0814 0.7142208,-0.0814 0.6277195,0 0.6335133,6.3e-4 0.7142197,0.0814 0.072165,0.0722 0.081366,0.10997 0.081366,0.33426 0,0.18946 0.010379,0.24853 0.041435,0.23553 0.3627473,-0.15196 0.64859,-0.14868 0.9732932,0.0117 0.2274681,0.11196 0.3679264,0.2627 0.4847352,0.52014 0.057937,0.1277 0.075279,0.2389 0.08567,0.5496 l 0.013027,0.3895 h 0.312935 c 0.2880527,0 0.3194051,0.007 0.3943026,0.0814 0.080702,0.0807 0.081366,0.0865 0.081366,0.71423 0,0.62772 -6.635e-4,0.63352 -0.081366,0.71422 l -0.081366,0.0814 H 6.4893156 4.3165183 v 1.45858 1.45858 h 2.7031896 2.7031885 l 0.081366,0.0814 c 0.044747,0.0448 0.081366,0.10204 0.081366,0.12721 0,0.14085 -0.1404198,1.30687 -0.1844676,1.53177 -0.070766,0.36135 -0.2165687,0.7873 -0.3823221,1.11697 -0.1392828,0.27701 -0.431093,0.73368 -0.4934619,0.77222 -0.1101719,0.0681 0.031243,0.0831 0.7784813,0.0831 h 0.8121629 v -1.50981 -1.50981 l 0.08137,-0.0814 c 0.07363,-0.0736 0.108166,-0.0814 0.363271,-0.0814 h 0.281905 l -0.127554,-0.24034 c -0.233283,-0.43954 -0.333097,-0.86159 -0.333542,-1.41036 -2.38e-4,-0.28314 0.0063,-0.31474 0.08112,-0.38951 l 0.08137,-0.0814 h 2.172797 2.172798 v -0.58162 c 0,-0.57332 -0.0012,-0.58278 -0.08137,-0.66299 -0.103117,-0.1031 -0.153806,-0.10216 -0.317137,0.006 l -0.131888,0.0872 v 0.22915 c 0,0.1991 -0.01073,0.23982 -0.08137,0.31051 -0.169513,0.16953 -0.449025,0.0477 -0.449025,-0.19574 v -0.11441 l -0.19061,0.0532 c -0.271536,0.0757 -0.949178,0.0723 -1.234514,-0.006 -1.044839,-0.28744 -1.789269,-1.08216 -1.975095,-2.10851 -0.05675,-0.31345 -0.06439,-2.11464 -0.0105,-2.46329 0.21632,-1.39804 1.531556,-2.39419 2.928191,-2.21781 0.593503,0.075 1.072861,0.30605 1.518952,0.73224 0.411939,0.39357 0.672184,0.87512 0.772558,1.4295 0.05675,0.31345 0.06439,2.11464 0.0105,2.46329 -0.05412,0.34982 -0.210141,0.74807 -0.410064,1.04676 l -0.1761,0.26309 0.09909,0.0941 c 0.119281,0.11323 0.21186,0.28541 0.243113,0.45201 l 0.02303,0.12276 h 0.180139 c 0.217286,0 0.342873,0.0971 0.342873,0.2652 0,0.16925 -0.125379,0.2652 -0.346562,0.2652 h -0.183829 v 0.26519 c 0,0.21709 0.0093,0.2652 0.05123,0.2652 0.02817,0 0.08785,0.0366 0.132598,0.0814 0.07476,0.0747 0.08134,0.10636 0.08112,0.3895 -4.51e-4,0.55209 -0.101518,0.97662 -0.335762,1.41036 l -0.129795,0.24033 h 0.284135 c 0.257474,0 0.291769,0.008 0.365502,0.0814 l 0.08137,0.0814 v 1.5098 c 0,1.3397 0.0058,1.50981 0.05123,1.50981 0.02818,0 0.08785,0.0366 0.132598,0.0814 0.0807,0.0807 0.08137,0.0865 0.08137,0.71423 0,0.62772 -6.63e-4,0.63351 -0.08137,0.71422 l -0.08137,0.0814 H 8.5596672 0.76652611 Z M 15.98514,295.87321 v -0.2652 H 8.5596567 1.1341726 v 0.2652 0.26519 H 8.5596567 15.98514 Z m -7.7402282,-1.00277 c 0.3888401,-0.42838 0.7024561,-0.98682 0.8605265,-1.53228 0.042882,-0.14798 0.1018568,-0.46231 0.1310506,-0.69852 0.02919,-0.23619 0.061797,-0.50031 0.072457,-0.58691 l 0.019371,-0.15745 H 8.9439859 8.5596567 v 0.9794 0.97942 l -0.081366,0.0814 -0.081366,0.0814 H 7.2336783 6.0704328 l -0.081366,-0.0814 -0.081366,-0.0814 v -0.97942 -0.9794 H 5.1121126 4.3165253 v 1.2446 1.24461 l -0.081367,0.0814 -0.081366,0.0814 H 3.2063598 c -1.0858009,0 -1.01831,-0.0314 -0.6966017,0.32321 l 0.1880071,0.20718 H 5.3773099 8.0568546 Z M 11.47681,294.0982 v -0.97941 l 0.08137,-0.0814 0.08137,-0.0814 h 1.693638 1.693636 l 0.08137,0.0814 0.08137,0.0814 v 0.97941 0.97942 h 0.265195 0.265197 v -1.32598 -1.32597 h -2.386763 -2.386762 v 1.32597 1.32598 h 0.265196 0.265195 z m 3.18235,0.18383 v -0.79559 h -1.325978 -1.32598 v 0.79559 0.79559 h 1.32598 1.325978 z m -12.9945951,-6.3647 v -6.0995 H 1.3993688 1.1341726 v 6.0995 6.0995 h 0.2651962 0.2651961 z m 1.0607835,0 v -6.0995 H 2.4601522 2.1949561 v 6.0995 6.0995 h 0.2651961 0.2651962 z m 1.0607834,0 v -6.0995 H 3.5209357 3.2557395 v 6.0995 6.0995 h 0.2651962 0.2651961 z m 4.2431326,5.30392 v -0.2652 H 7.2336771 6.4380898 v 0.2652 0.26519 h 0.7955873 0.7955873 z m 0,-1.06078 v -0.26519 H 7.2336771 6.4380898 v 0.26519 0.2652 h 0.7955873 0.7955873 z m 6.9270416,-0.42087 c 0.268404,-0.30493 0.496243,-0.89739 0.497866,-1.29462 l 5.77e-4,-0.14088 h -2.126352 -2.126352 l 0.0183,0.24194 c 0.03282,0.43388 0.253387,0.94896 0.531641,1.24149 l 0.102475,0.10776 h 1.482407 1.482407 z m -1.184667,-3.34028 c 0.280913,-0.0595 0.498001,-0.15493 0.643738,-0.28289 0.06251,-0.0549 0.162327,-0.12012 0.221815,-0.14498 0.16025,-0.0669 0.439195,-0.39916 0.588224,-0.70053 0.175675,-0.35526 0.233628,-0.65391 0.222044,-1.1443 l -0.0093,-0.3931 -1.771214,1.02499 c -0.974167,0.56373 -1.784383,1.03814 -1.80048,1.05424 -0.04346,0.0435 0.286724,0.29514 0.557479,0.42492 0.416924,0.19984 0.896209,0.25732 1.347681,0.16165 z m -5.4771784,-0.74718 v -0.2652 H 6.3054918 4.3165229 v 0.2652 0.26519 h 1.9889689 1.9889688 z m 5.2290294,-1.41909 1.930656,-1.11685 3e-4,-0.32124 c 1.64e-4,-0.17669 -0.01392,-0.33005 -0.03132,-0.3408 -0.01739,-0.0105 -0.957405,0.5142 -2.088913,1.16656 -2.044897,1.17897 -2.057187,1.18669 -2.040219,1.2814 0.0094,0.0525 0.05671,0.18365 0.105169,0.29162 0.06657,0.14831 0.100994,0.19138 0.140886,0.17622 0.02904,-0.0105 0.921587,-0.52265 1.983448,-1.13691 z m -7.6157925,-0.17209 v -0.79559 H 5.6425025 5.3773064 v 0.79559 0.79559 h 0.2651961 0.265195 z m 1.5858205,0.43326 c -0.012129,-0.39151 -0.040922,-0.46531 -0.2394579,-0.61353 -0.1283612,-0.0959 -0.4427971,-0.0959 -0.5711571,0 -0.1985333,0.14822 -0.2273352,0.22202 -0.2394591,0.61353 l -0.011196,0.36233 h 0.5362583 0.5362572 z m 5.771938,-1.43692 c 1.084033,-0.62837 1.976646,-1.15953 1.983585,-1.18035 0.0069,-0.0208 -0.02591,-0.10356 -0.07301,-0.18394 l -0.08562,-0.14611 -1.931112,1.11957 -1.931112,1.11956 -0.0099,0.2245 c -0.0077,0.17385 -2e-4,0.22053 0.03314,0.20689 0.02367,-0.009 0.929982,-0.53175 2.014014,-1.16012 z m -0.355331,-0.85534 c 0.916389,-0.53018 1.700613,-0.98608 1.742719,-1.01312 l 0.07656,-0.0491 -0.126282,-0.10181 c -0.304923,-0.24591 -0.837066,-0.42328 -1.269939,-0.42328 -0.982209,0 -1.872196,0.7186 -2.071864,1.6729 -0.04495,0.21483 -0.07028,0.87846 -0.03353,0.87846 0.0089,0 0.765946,-0.43378 1.682335,-0.96396 z m -6.6006436,-1.15078 c 0.1289525,-0.0674 0.2045707,-0.13668 0.2772687,-0.25413 0.094778,-0.15314 0.1005273,-0.18268 0.1109532,-0.57037 l 0.010962,-0.40885 H 6.4407663 6.1728669 v 0.31643 c 0,0.29175 -0.0063,0.32276 -0.081366,0.3978 l -0.081367,0.0814 H 5.163315 4.3164973 v 0.26519 0.2652 H 5.224323 6.1321475 Z"
       id="path9798"
       inkscape:connector-curvature="0" />
    <path
       style="fill:#ffffff;stroke-width:0.00379684;stroke-miterlimit:4;stroke-dasharray:none"
       d="m 1.1355814,287.91784 v -6.09447 h 0.2511445 0.2511456 v 6.09447 6.09445 H 1.3867259 1.1355814 Z"
       id="path9800"
       inkscape:connector-curvature="0" />
    <path
       style="fill:#ffffff;stroke-width:0.00379684;stroke-miterlimit:4;stroke-dasharray:none"
       d="m 2.2071336,287.91784 v -6.09447 h 0.2511457 0.2511456 v 6.09447 6.09445 H 2.4582793 2.2071336 Z"
       id="path9802"
       inkscape:connector-curvature="0" />
    <path
       style="fill:#ffffff;stroke-width:0.00379684;stroke-miterlimit:4;stroke-dasharray:none"
       d="m 3.278687,287.91784 v -6.09447 h 0.2511457 0.2511445 v 6.09447 6.09445 H 3.5298327 3.278687 Z"
       id="path9804"
       inkscape:connector-curvature="0" />
    <path
       style="fill:#ffffff;stroke-width:0.00379684;stroke-miterlimit:4;stroke-dasharray:none"
       d="m 4.3167539,282.87819 v -0.25115 h 0.8509169 0.850917 l 0.086696,-0.10309 c 0.079092,-0.094 0.086696,-0.12923 0.086696,-0.40183 v -0.2988 h 0.256291 0.2562922 l -0.02168,0.40307 c -0.023079,0.42926 -0.053447,0.52588 -0.2116601,0.67343 -0.2476995,0.23103 -0.2377622,0.22918 -1.2419728,0.22932 l -0.912494,1.3e-4 z"
       id="path9806"
       inkscape:connector-curvature="0" />
    <path
       style="fill:#ffffff;stroke-width:0.00379684;stroke-miterlimit:4;stroke-dasharray:none"
       d="m 5.3883073,286.05935 v -0.78691 h 0.2511444 0.2511457 v 0.78691 0.78693 H 5.6394517 5.3883073 Z"
       id="path9808"
       inkscape:connector-curvature="0" />
    <path
       style="fill:#ffffff;stroke-width:0.00379684;stroke-miterlimit:4;stroke-dasharray:none"
       d="m 6.4652275,286.49606 c 0.013843,-0.37393 0.045855,-0.45567 0.233221,-0.59556 0.1136939,-0.0849 0.3942793,-0.0862 0.5397384,-0.002 0.1561671,0.0898 0.215764,0.2442 0.2400725,0.62178 l 0.021015,0.32648 H 6.9757663 6.4522593 Z"
       id="path9810"
       inkscape:connector-curvature="0" />
    <path
       style="fill:#ffffff;stroke-width:0.00379684;stroke-miterlimit:4;stroke-dasharray:none"
       d="m 4.3167539,287.66668 v -0.25114 h 1.9756763 1.9756752 v 0.25114 0.25116 H 6.2924302 4.3167539 Z"
       id="path9812"
       inkscape:connector-curvature="0" />
    <path
       style="fill:#ffffff;stroke-width:0.00379684;stroke-miterlimit:4;stroke-dasharray:none"
       d="m 2.5159577,294.85169 c -0.096177,-0.10928 -0.174879,-0.21266 -0.174879,-0.22974 0,-0.052 0.3158983,-0.0732 1.0908297,-0.0736 0.7292311,-3.1e-4 0.7402121,-0.001 0.8120366,-0.0778 0.07206,-0.0767 0.072806,-0.0903 0.072806,-1.32269 v -1.2452 h 0.7869224 0.7869212 v 0.97764 0.97763 l 0.089985,0.0939 0.089985,0.0939 h 1.1555427 1.1555415 l 0.093915,-0.09 0.093915,-0.09 v -0.98157 -0.98157 h 0.3707557 0.3707556 l -0.021925,0.19254 c -0.045634,0.4006 -0.1224427,0.90346 -0.1693803,1.10882 -0.1160962,0.50794 -0.4429756,1.13087 -0.8326612,1.5868 L 8.065214,295.05019 H 5.3780271 2.6908402 Z"
       id="path9814"
       inkscape:connector-curvature="0" />
    <path
       style="fill:#ffffff;stroke-width:0.00379684;stroke-miterlimit:4;stroke-dasharray:none"
       d="m 6.4598595,292.15381 v -0.25114 h 0.7701791 0.770179 v 0.25114 0.25115 H 7.2300386 6.4598595 Z"
       id="path9816"
       inkscape:connector-curvature="0" />
    <path
       style="fill:#ffffff;stroke-width:0.00379684;stroke-miterlimit:4;stroke-dasharray:none"
       d="m 6.4598595,293.22536 v -0.25114 h 0.7701791 0.770179 v 0.25114 0.25116 H 7.2300386 6.4598595 Z"
       id="path9818"
       inkscape:connector-curvature="0" />
    <path
       style="fill:#ffffff;stroke-width:0.00379684;stroke-miterlimit:4;stroke-dasharray:none"
       d="m 1.1355814,295.87077 v -0.25116 h 7.417155 7.4171566 v 0.25116 0.25114 H 8.5527364 1.1355814 Z"
       id="path9820"
       inkscape:connector-curvature="0" />
    <path
       style="fill:#ffffff;stroke-width:0.00379684;stroke-miterlimit:4;stroke-dasharray:none"
       d="m 10.946988,293.7444 v -1.30595 h 2.377508 2.377509 v 1.30595 1.30595 h -0.251146 -0.251145 v -0.98199 -0.98201 l -0.07751,-0.0728 c -0.07747,-0.0728 -0.07805,-0.0728 -1.781298,-0.0728 h -1.703797 l -0.09392,0.09 -0.09391,0.0899 v 0.96483 0.96483 h -0.251146 -0.251146 z"
       id="path9822"
       inkscape:connector-curvature="0" />
    <path
       style="fill:#ffffff;stroke-width:0.00379684;stroke-miterlimit:4;stroke-dasharray:none"
       d="m 11.759385,291.76036 c -0.255471,-0.26514 -0.47741,-0.78168 -0.525154,-1.22225 l -0.02268,-0.20929 h 2.116139 2.116139 l -0.01911,0.22604 c -0.03201,0.37855 -0.229186,0.85685 -0.483151,1.172 l -0.114685,0.14233 H 13.34556 11.864242 Z"
       id="path9824"
       inkscape:connector-curvature="0" />
    <path
       style="fill:#ffffff;stroke-width:0.00379684;stroke-miterlimit:4;stroke-dasharray:none"
       d="m 12.839358,288.36607 c -0.263223,-0.0637 -0.652619,-0.25805 -0.827285,-0.41306 l -0.139558,-0.12384 0.282301,-0.1692 c 0.588719,-0.35282 3.242241,-1.88524 3.264472,-1.88524 0.01279,0 0.01571,0.21472 0.0064,0.47717 -0.01918,0.5451 -0.07774,0.77765 -0.283757,1.12686 -0.207681,0.35204 -0.432985,0.55519 -0.94001,0.84758 -0.318182,0.1835 -0.924446,0.24566 -1.362632,0.13973 z"
       id="path9826"
       inkscape:connector-curvature="0" />
    <path
       style="fill:#ffffff;stroke-width:0.00379684;stroke-miterlimit:4;stroke-dasharray:none"
       d="m 11.403622,287.15183 c -0.112924,-0.25161 -0.11114,-0.28497 0.02054,-0.38394 0.289953,-0.21793 3.880573,-2.26564 3.972747,-2.26564 0.02846,0 0.03699,0.0874 0.03009,0.30776 l -0.0097,0.30777 -0.920866,0.5332 c -1.847717,1.06989 -2.948136,1.69759 -2.976043,1.69759 -0.01571,0 -0.06828,-0.0885 -0.116842,-0.19674 z"
       id="path9828"
       inkscape:connector-curvature="0" />
    <path
       style="fill:#ffffff;stroke-width:0.00379684;stroke-miterlimit:4;stroke-dasharray:none"
       d="m 11.241054,286.15372 c -0.0077,-0.015 -0.008,-0.10297 -6.86e-4,-0.1953 l 0.0134,-0.16793 1.761021,-1.02083 c 0.968561,-0.56146 1.831566,-1.06131 1.91779,-1.11078 l 0.15677,-0.0899 0.07589,0.13501 c 0.06412,0.11406 0.06878,0.14201 0.03006,0.18017 -0.07192,0.0709 -3.748466,2.22342 -3.891109,2.27817 -0.02697,0.0105 -0.05538,0.007 -0.06314,-0.008 z"
       id="path9830"
       inkscape:connector-curvature="0" />
    <path
       style="fill:#ffffff;stroke-width:0.00379684;stroke-miterlimit:4;stroke-dasharray:none"
       d="m 11.215784,285.01292 c 0.0022,-0.29925 0.0665,-0.76279 0.134053,-0.96578 0.224122,-0.67349 0.86766,-1.22392 1.60395,-1.37187 0.543885,-0.10928 1.259501,0.0556 1.635911,0.37695 l 0.109939,0.0939 -0.86337,0.50033 c -1.469919,0.85184 -2.587662,1.49208 -2.604899,1.49208 -0.0091,0 -0.01608,-0.0566 -0.01558,-0.12556 z"
       id="path9832"
       inkscape:connector-curvature="0" />
  </g>
</svg>
