<?xml version="1.0" encoding="UTF-8" standalone="no"?>
<!-- Created with Inkscape (http://www.inkscape.org/) -->

<svg
   xmlns:dc="http://purl.org/dc/elements/1.1/"
   xmlns:cc="http://creativecommons.org/ns#"
   xmlns:rdf="http://www.w3.org/1999/02/22-rdf-syntax-ns#"
   xmlns:svg="http://www.w3.org/2000/svg"
   xmlns="http://www.w3.org/2000/svg"
   xmlns:sodipodi="http://sodipodi.sourceforge.net/DTD/sodipodi-0.dtd"
   xmlns:inkscape="http://www.inkscape.org/namespaces/inkscape"
   width="64"
   height="64"
   viewBox="0 0 16.933333 16.933334"
   version="1.1"
   id="svg8"
   inkscape:version="0.92.5 (2060ec1f9f, 2020-04-08)"
   sodipodi:docname="bathroom_linen_64x64.svg">
  <defs
     id="defs2" />
  <sodipodi:namedview
     id="base"
     pagecolor="#ffffff"
     bordercolor="#666666"
     borderopacity="1.0"
     inkscape:pageopacity="0.0"
     inkscape:pageshadow="2"
     inkscape:zoom="7.919596"
     inkscape:cx="38.726256"
     inkscape:cy="28.50516"
     inkscape:document-units="mm"
     inkscape:current-layer="layer1"
     showgrid="false"
     units="px"
     inkscape:window-width="1208"
     inkscape:window-height="987"
     inkscape:window-x="1992"
     inkscape:window-y="0"
     inkscape:window-maximized="1" />
  <metadata
     id="metadata5">
    <rdf:RDF>
      <cc:Work
         rdf:about="">
        <dc:format>image/svg+xml</dc:format>
        <dc:type
           rdf:resource="http://purl.org/dc/dcmitype/StillImage" />
        <dc:title></dc:title>
      </cc:Work>
    </rdf:RDF>
  </metadata>
  <g
     inkscape:label="Layer 1"
     inkscape:groupmode="layer"
     id="layer1"
     transform="translate(0,-280.06665)">
    <path
       style="fill:#000000;stroke-width:0.03105171"
       d="m 6.839664,295.01681 c -0.059227,-0.0317 -0.1360782,-0.0959 -0.170784,-0.14235 -0.061634,-0.0826 -0.063302,-0.12949 -0.071547,-2.02298 l -0.00845,-1.93846 H 5.2771487 c -1.4950334,0 -1.4678676,0.004 -1.5979947,-0.24954 L 3.60929,290.52723 v -3.19175 c 0,-2.5328 -0.00802,-3.1917 -0.038818,-3.19154 -0.021344,1.2e-4 -0.072632,0.0498 -0.1139702,0.11057 -0.1911003,0.28057 -0.5737469,0.53206 -0.941469,0.61876 -1.0622627,0.25046 -2.08367335,-0.68661 -1.92779523,-1.76861 0.10630419,-0.73791 0.71141353,-1.31063 1.44904773,-1.37153 0.476049,-0.0393 0.9594462,0.14872 1.2895222,0.50157 0.1046788,0.11189 0.1903244,0.21693 0.1903244,0.23338 0,0.017 0.1223619,0.0299 0.2834524,0.0299 h 0.2834529 l 0.2108478,-0.1989 c 0.2390251,-0.22547 0.5042719,-0.3834 0.8214106,-0.48905 l 0.217362,-0.0723 2.2844413,-0.01 c 2.2834854,-0.009 2.2844775,-0.009 2.367693,0.0564 0.1145901,0.0901 0.1152621,0.24865 0.00142,0.33819 -0.080078,0.063 -0.112175,0.0644 -1.5090753,0.0644 h -1.427263 l 0.2158727,0.23117 c 0.2286355,0.24483 0.3941286,0.53701 0.4934308,0.87118 0.051666,0.17387 0.056017,0.45947 0.06512,4.27738 l 0.00975,4.09105 h 2.5608909 2.560887 v -3.96891 c 0,-2.73458 -0.01058,-4.02622 -0.03389,-4.15316 -0.09022,-0.49047 -0.432821,-0.94412 -0.878383,-1.16306 -0.297971,-0.14644 -0.483719,-0.18565 -0.879476,-0.18565 -0.161037,0 -0.317906,-0.0134 -0.348598,-0.0299 -0.08548,-0.0457 -0.135139,-0.19157 -0.09826,-0.28857 0.05239,-0.13781 0.129704,-0.15657 0.57478,-0.13956 0.643081,0.0245 1.02755,0.1758 1.442695,0.56743 l 0.213162,0.20108 h 0.283452 c 0.161092,0 0.283454,-0.0129 0.283454,-0.0299 0,-0.0165 0.08564,-0.12146 0.190324,-0.23336 0.330075,-0.35285 0.813473,-0.54089 1.289522,-0.50158 0.691215,0.0571 1.261903,0.55347 1.423315,1.23809 0.228674,0.96987 -0.550773,1.9479 -1.552412,1.9479 -0.477091,0 -1.033559,-0.28646 -1.291121,-0.66462 -0.04133,-0.0607 -0.09246,-0.11043 -0.113619,-0.11055 -0.0304,-1.1e-4 -0.04015,1.11201 -0.04658,5.30735 -0.0081,5.30592 -0.0082,5.30759 -0.07215,5.39333 -0.03522,0.0471 -0.102604,0.11455 -0.149764,0.14977 -0.08507,0.0635 -0.109742,0.0641 -3.165356,0.0721 -2.9535041,0.008 -3.0840223,0.005 -3.1872943,-0.0497 z m 0.5263404,-5.86598 c -5.861e-4,-5.964 0.00795,-5.6791 -0.181494,-6.05438 -0.1150372,-0.22789 -0.3710177,-0.51346 -0.5787334,-0.64565 -0.5031745,-0.32019 -1.1086363,-0.34612 -1.6371914,-0.0701 l -0.1948593,0.10177 0.6210338,0.018 c 0.4762598,0.0139 0.6533717,0.0303 0.7597498,0.0708 0.4642604,0.17703 0.7797861,0.55052 0.8675685,1.02695 0.023729,0.12879 0.033948,1.81373 0.033948,5.59709 v 5.4128 h 0.1552583 0.155259 l -5.405e-4,-5.45733 z m 5.5898466,4.83631 v -0.62105 H 10.394085 7.8323197 v 0.62105 0.62102 h 2.5617653 2.561766 z m 0,-1.47497 v -0.38814 H 10.394085 7.8323197 v 0.38814 0.38814 h 2.5617653 2.561766 z m -8.5632647,-3.80659 0.00853,-1.74166 0.07331,-0.0593 c 0.096792,-0.0783 0.2163785,-0.0751 0.3050762,0.008 0.063963,0.0601 0.071869,0.0959 0.071869,0.32605 v 0.25852 H 5.7208199 6.590268 v -1.67679 -1.67679 H 6.387011 c -0.1743919,0 -0.2140687,-0.0109 -0.2794651,-0.0762 -0.097139,-0.0972 -0.097139,-0.2162 0,-0.31334 0.064113,-0.0641 0.1060326,-0.0762 0.2639393,-0.0762 0.2195603,0 0.2273035,-0.017 0.111334,-0.24595 -0.093633,-0.18479 -0.2873475,-0.35564 -0.4761694,-0.41998 -0.210459,-0.0717 -3.8745817,-0.0729 -4.0130609,-7.8e-4 -0.1682838,0.0871 -0.2303804,0.3035 -0.1381898,0.48179 0.09696,0.18749 0.07534,0.18529 1.8158681,0.18529 h 1.5865907 l 0.076221,0.0763 c 0.097139,0.0972 0.097139,0.2162 0,0.31334 -0.065395,0.0653 -0.1050727,0.0763 -0.2794651,0.0763 H 4.8513652 v 0.96402 0.96401 l -0.076221,0.0763 c -0.084531,0.0845 -0.1329271,0.0928 -0.24494,0.0418 -0.1356098,-0.0617 -0.1446183,-0.1313 -0.1446183,-1.1159 v -0.93009 H 4.2303283 4.0750699 v 3.15174 3.15175 h 0.1545023 0.1545014 z m 2.1976649,1.12062 v -0.62105 H 5.7208031 4.8513559 v 0.62105 0.62103 h 0.8694472 0.8694481 z m 0,-1.47496 V 287.9631 H 5.7208031 4.8513559 v 0.38814 0.38815 h 0.8694472 0.8694481 z m -3.9913458,-3.98642 c 0.079016,-0.035 0.1884638,-0.0954 0.2432178,-0.13455 l 0.099552,-0.0711 -0.4968279,-0.0156 c -0.4800794,-0.0149 -0.5025011,-0.0188 -0.6651453,-0.10865 -0.4862729,-0.26902 -0.5808561,-0.89949 -0.1931112,-1.28724 0.2113842,-0.21138 0.3487597,-0.24955 0.9026034,-0.25083 l 0.452481,-7.8e-4 -0.077629,-0.0656 c -0.042696,-0.0361 -0.1544816,-0.102 -0.2484134,-0.14648 -0.1446269,-0.0685 -0.2135881,-0.0809 -0.4502498,-0.0809 -0.2377295,0 -0.3057826,0.0123 -0.4556886,0.0827 -0.2467252,0.11567 -0.4416161,0.30646 -0.5612565,0.54949 -0.091247,0.18535 -0.1009166,0.23183 -0.1009166,0.48511 0,0.23777 0.012368,0.30649 0.081826,0.45463 0.148006,0.31564 0.415909,0.54734 0.7388506,0.63894 0.1927768,0.0548 0.550585,0.0307 0.7307078,-0.049 z m 12.7297676,-0.0141 c 0.238017,-0.10897 0.434704,-0.30221 0.553803,-0.54413 0.09129,-0.18543 0.100913,-0.23175 0.100913,-0.48566 0,-0.25387 -0.0096,-0.30024 -0.100913,-0.48577 -0.119633,-0.24314 -0.314437,-0.43389 -0.561256,-0.54959 -0.149906,-0.0701 -0.21796,-0.0826 -0.455689,-0.0826 -0.236662,0 -0.305623,0.0123 -0.450251,0.0809 -0.09393,0.0445 -0.205716,0.1104 -0.248413,0.14647 l -0.07763,0.0656 0.436851,8e-4 c 0.558284,0.002 0.709764,0.0423 0.915377,0.24798 0.29594,0.29593 0.325523,0.71884 0.07445,1.06439 -0.06776,0.0933 -0.166304,0.17802 -0.269884,0.23209 -0.152657,0.0796 -0.195079,0.0862 -0.659971,0.10145 l -0.496827,0.0164 0.09315,0.0657 c 0.25137,0.17727 0.441548,0.23161 0.752694,0.21505 0.153386,-0.008 0.278438,-0.0366 0.393586,-0.0892 z m -0.291341,-0.71991 c 0.103346,-0.0533 0.185293,-0.19053 0.185293,-0.30999 0,-0.11945 -0.08194,-0.25655 -0.185293,-0.30998 -0.07498,-0.0388 -0.242983,-0.047 -0.949874,-0.047 -0.805982,0 -0.857367,0.002 -0.835706,0.0543 0.05029,0.11841 0.138823,0.46123 0.138823,0.53756 0,0.0445 0.0093,0.0902 0.0207,0.10156 0.01138,0.0113 0.36141,0.0207 0.777834,0.0207 0.61603,0 0.77411,-0.009 0.848221,-0.047 z"
       id="path13681"
       inkscape:connector-curvature="0" />
    <path
       style="fill:none;stroke:#000000;stroke-width:0.0011736;stroke-linecap:butt;stroke-linejoin:miter;stroke-miterlimit:4;stroke-dasharray:none;stroke-opacity:1"
       d="m 9.6603517,281.93623 1.4115123,0.0156"
       id="path13683"
       inkscape:connector-curvature="0" />
    <path
       style="fill:#ffffff;stroke-width:0.00059276;stroke-miterlimit:4;stroke-dasharray:none"
       d="m 7.8448597,291.55219 c -4.531e-4,-0.0582 -0.00731,-1.83497 -0.015278,-3.94831 -0.00845,-2.24552 -0.020952,-3.93046 -0.030093,-4.05419 -0.011038,-0.14944 -0.026695,-0.24404 -0.053232,-0.32152 -0.1222895,-0.35708 -0.2573802,-0.57894 -0.5369081,-0.88173 l -0.1343567,-0.14554 1.0793401,-7.9e-4 c 1.3237441,-0.002 1.7323747,-0.0132 1.805394,-0.0515 0.058023,-0.0306 0.112865,-0.10964 0.112953,-0.16292 l 5.9e-5,-0.0353 h 0.31171 0.311709 l 0.0098,0.0491 c 0.01717,0.086 0.06929,0.15267 0.132403,0.16962 0.03175,0.008 0.209465,0.0225 0.394922,0.0311 0.371831,0.0171 0.470314,0.0349 0.674389,0.12223 0.516789,0.22084 0.872968,0.63732 0.997359,1.16623 0.02555,0.10865 0.02774,0.38149 0.03352,4.14302 l 0.0062,4.02673 H 10.395263 7.8457252 Z"
       id="path13685"
       inkscape:connector-curvature="0" />
    <path
       style="fill:#ffffff;stroke-width:0.00059276;stroke-miterlimit:4;stroke-dasharray:none"
       d="m 7.0566995,289.19182 c -0.00488,-3.55289 -0.012965,-5.45822 -0.023491,-5.54124 -0.020534,-0.16194 -0.08133,-0.34392 -0.1646915,-0.49297 -0.093749,-0.16764 -0.3210196,-0.39193 -0.4970788,-0.49056 -0.2484686,-0.13921 -0.3695032,-0.15803 -1.1435036,-0.17783 l -0.4299044,-0.011 0.1554441,-0.0781 c 0.1913559,-0.0962 0.3350725,-0.14616 0.5064553,-0.17617 0.3310467,-0.0579 0.6826923,-0.005 0.9899256,0.1491 0.3396925,0.17041 0.6999969,0.57734 0.8127038,0.91789 0.08729,0.26374 0.095821,0.84411 0.096431,6.5596 l 5.068e-4,4.75603 H 7.2118247 7.0641532 Z"
       id="path13687"
       inkscape:connector-curvature="0" />
    <path
       style="fill:#ffffff;stroke-width:0.00059276;stroke-miterlimit:4;stroke-dasharray:none"
       d="m 4.0816473,287.29021 v -3.14455 h 0.1477802 0.1477801 l 0.00676,0.91357 c 0.00708,0.95665 0.01155,1.01948 0.077401,1.0896 0.0449,0.0478 0.1579372,0.089 0.2090823,0.0761 0.022682,-0.005 0.075922,-0.0429 0.1183061,-0.0825 l 0.077063,-0.0721 v -0.96238 -0.96238 h 0.1730215 c 0.1955965,0 0.2536564,-0.0169 0.3171952,-0.0924 0.083238,-0.0989 0.071233,-0.21962 -0.031723,-0.31886 l -0.058566,-0.0565 -1.5212973,-0.008 c -1.5574085,-0.008 -1.6863932,-0.0128 -1.7871146,-0.0704 -0.06829,-0.0389 -0.134112,-0.17518 -0.134112,-0.27748 0,-0.0978 0.059959,-0.22808 0.1270461,-0.27586 0.08739,-0.0623 0.2648897,-0.0682 2.0137494,-0.0681 1.7836467,1.6e-4 1.9679691,0.007 2.1117375,0.0729 0.1734402,0.0801 0.3570199,0.27291 0.4368578,0.45917 0.059109,0.1379 0.035931,0.16024 -0.1691309,0.16305 -0.1404203,0.002 -0.2053989,0.0276 -0.2640479,0.1045 -0.082166,0.10778 -0.057275,0.23763 0.06272,0.32734 0.037151,0.0278 0.070721,0.0329 0.2382039,0.0375 l 0.1949562,0.005 v 1.66902 1.66902 h -0.8547472 -0.85475 l -0.0011,-0.12155 c -6.121e-4,-0.0669 -0.00653,-0.18341 -0.013154,-0.259 -0.00997,-0.11377 -0.018552,-0.14441 -0.049857,-0.17793 -0.09441,-0.10112 -0.2060375,-0.11216 -0.3223287,-0.0321 l -0.076212,0.0525 -0.00953,0.73561 c -0.00528,0.40458 -0.010537,1.18904 -0.011761,1.74325 l -0.0022,1.00767 H 4.2306831 4.0816906 Z"
       id="path13689"
       inkscape:connector-curvature="0" />
    <path
       style="fill:#ffffff;stroke-width:0.00059276;stroke-miterlimit:4;stroke-dasharray:none"
       d="m 4.8658211,288.34882 v -0.37639 h 0.85475 0.8547491 v 0.37639 0.37642 h -0.8547491 -0.85475 z"
       id="path13691"
       inkscape:connector-curvature="0" />
    <path
       style="fill:#ffffff;stroke-width:0.00059276;stroke-miterlimit:4;stroke-dasharray:none"
       d="m 4.8658211,289.82309 v -0.61166 h 0.85475 0.8547491 v 0.61166 0.61165 h -0.8547491 -0.85475 z"
       id="path13693"
       inkscape:connector-curvature="0" />
    <path
       style="fill:#ffffff;stroke-width:0.00059276;stroke-miterlimit:4;stroke-dasharray:none"
       d="m 1.8631766,284.40384 c -0.2912899,-0.0799 -0.5711185,-0.31933 -0.7126935,-0.60976 -0.077841,-0.15969 -0.095748,-0.24792 -0.095748,-0.4718 0,-0.22917 0.018458,-0.31303 0.1067744,-0.48515 0.1299846,-0.25331 0.2871209,-0.40717 0.5504276,-0.53891 l 0.1474883,-0.0737 0.2640369,-0.005 c 0.3152244,-0.007 0.3992691,0.0127 0.6097841,0.1389 0.2133039,0.12801 0.2143393,0.1253 -0.047991,0.12577 -0.326471,5.9e-4 -0.6836961,0.0258 -0.7836143,0.0554 -0.1192211,0.0352 -0.2162173,0.10058 -0.3323678,0.2241 -0.1167901,0.12415 -0.1790928,0.24413 -0.2137115,0.41156 -0.071391,0.34525 0.120948,0.71945 0.4539373,0.88314 0.1436985,0.0707 0.2271382,0.0816 0.7323489,0.0965 l 0.3814296,0.0112 -0.067763,0.0459 c -0.125999,0.0854 -0.310563,0.16996 -0.4218024,0.19336 -0.1378845,0.029 -0.4635074,0.0285 -0.5705402,-7.8e-4 z"
       id="path13695"
       inkscape:connector-curvature="0" />
    <path
       style="fill:#ffffff;stroke-width:0.00059276;stroke-miterlimit:4;stroke-dasharray:none"
       d="m 13.613464,283.66457 c -0.191781,-0.005 -0.20004,-0.008 -0.206195,-0.0409 -0.0035,-0.0192 -0.01397,-0.0849 -0.02323,-0.14609 -0.0092,-0.0612 -0.0413,-0.19176 -0.07118,-0.29013 -0.03577,-0.11774 -0.04908,-0.18425 -0.03891,-0.19458 0.02091,-0.0212 1.264286,-0.03 1.522722,-0.0109 0.147043,0.011 0.212789,0.0226 0.250938,0.0447 0.06922,0.04 0.149436,0.16254 0.162196,0.24762 0.02402,0.16025 -0.0935,0.33496 -0.24843,0.36936 -0.08401,0.0186 -0.966392,0.0322 -1.347905,0.0206 z"
       id="path13697"
       inkscape:connector-curvature="0" />
    <path
       style="fill:#ffffff;stroke-width:0.00059276;stroke-miterlimit:4;stroke-dasharray:none"
       d="m 14.584801,284.41077 c -0.09724,-0.0229 -0.214562,-0.0774 -0.348099,-0.16211 l -0.125469,-0.0794 0.07841,-0.004 c 0.04313,-0.002 0.24809,-0.0109 0.455468,-0.0192 0.449202,-0.0181 0.523162,-0.0351 0.698865,-0.16144 0.322823,-0.23197 0.436491,-0.67833 0.260794,-1.0241 -0.09989,-0.1966 -0.280807,-0.3586 -0.463853,-0.41535 -0.116273,-0.036 -0.440497,-0.0608 -0.808358,-0.0615 l -0.217804,-4.9e-4 0.06072,-0.0482 c 0.03339,-0.0265 0.134132,-0.0848 0.223856,-0.12939 l 0.163131,-0.0811 0.270254,-0.005 c 0.255208,-0.005 0.276556,-0.002 0.383442,0.0341 0.170339,0.0594 0.276088,0.12882 0.43375,0.28539 0.125,0.12413 0.153427,0.16312 0.22741,0.31197 l 0.08456,0.17008 v 0.2997 0.2997 l -0.05844,0.12296 c -0.161235,0.3392 -0.426579,0.57284 -0.742292,0.65359 -0.131514,0.0336 -0.459,0.0416 -0.576344,0.014 z"
       id="path13699"
       inkscape:connector-curvature="0" />
    <path
       style="fill:#ffffff;stroke-width:0.00059276;stroke-miterlimit:4;stroke-dasharray:none"
       d="m 7.8456826,292.51279 v -0.38424 h 2.5485654 2.548566 v 0.38424 0.38425 H 10.394248 7.8456826 Z"
       id="path13701"
       inkscape:connector-curvature="0" />
    <path
       style="fill:#ffffff;stroke-width:0.00059276;stroke-miterlimit:4;stroke-dasharray:none"
       d="m 7.8456826,293.98704 v -0.61948 h 2.5485654 2.548566 v 0.61948 0.61949 H 10.394248 7.8456826 Z"
       id="path13703"
       inkscape:connector-curvature="0" />
  </g>
</svg>
