<?xml version="1.0" encoding="UTF-8" standalone="no"?>
<!-- Created with Inkscape (http://www.inkscape.org/) -->

<svg
   xmlns:dc="http://purl.org/dc/elements/1.1/"
   xmlns:cc="http://creativecommons.org/ns#"
   xmlns:rdf="http://www.w3.org/1999/02/22-rdf-syntax-ns#"
   xmlns:svg="http://www.w3.org/2000/svg"
   xmlns="http://www.w3.org/2000/svg"
   xmlns:sodipodi="http://sodipodi.sourceforge.net/DTD/sodipodi-0.dtd"
   xmlns:inkscape="http://www.inkscape.org/namespaces/inkscape"
   width="64"
   height="64"
   viewBox="0 0 16.933333 16.933334"
   version="1.1"
   id="svg8"
   inkscape:version="0.92.5 (2060ec1f9f, 2020-04-08)"
   sodipodi:docname="bed_frame_64x64.svg">
  <defs
     id="defs2" />
  <sodipodi:namedview
     id="base"
     pagecolor="#ffffff"
     bordercolor="#666666"
     borderopacity="1.0"
     inkscape:pageopacity="0.0"
     inkscape:pageshadow="2"
     inkscape:zoom="7.919596"
     inkscape:cx="47.847654"
     inkscape:cy="22.978189"
     inkscape:document-units="mm"
     inkscape:current-layer="layer1"
     showgrid="false"
     units="px"
     inkscape:window-width="1208"
     inkscape:window-height="987"
     inkscape:window-x="1992"
     inkscape:window-y="0"
     inkscape:window-maximized="1" />
  <metadata
     id="metadata5">
    <rdf:RDF>
      <cc:Work
         rdf:about="">
        <dc:format>image/svg+xml</dc:format>
        <dc:type
           rdf:resource="http://purl.org/dc/dcmitype/StillImage" />
        <dc:title></dc:title>
      </cc:Work>
    </rdf:RDF>
  </metadata>
  <g
     inkscape:label="Layer 1"
     inkscape:groupmode="layer"
     id="layer1"
     transform="translate(0,-280.06665)">
    <path
       style="fill:#000000;stroke-width:0.06975666"
       d="m 1.7914775,296.3765 c -0.2408735,-0.1309 -0.4102719,-0.50239 -0.4102719,-0.89973 0,-0.27344 -0.020432,-0.3208 -0.1384125,-0.3208 -0.076126,0 -0.2409273,-0.0915 -0.36622232,-0.2034 l -0.22780986,-0.20341 -0.0188173,-1.38356 -0.0188173,-1.38356 1.43139232,-2.18714 1.4313924,-2.18715 v -2.50645 c 0,-2.19014 -0.014219,-2.52814 -0.1126966,-2.67843 -0.165409,-0.25245 -0.1564734,-0.82571 0.016487,-1.05736 0.2602566,-0.34859 0.4972147,-0.47477 0.891521,-0.47477 0.6666484,0 1.087464,0.50618 0.993109,1.19457 l -0.041836,0.30519 0.260253,-8.8e-4 c 0.3935295,-0.002 1.0955946,-0.18306 1.7923958,-0.46336 0.8786887,-0.35347 1.4282892,-0.35347 2.3069778,0 0.6968,0.2803 1.398866,0.4618 1.792395,0.46336 l 0.260253,8.8e-4 -0.04183,-0.30519 c -0.09436,-0.68839 0.326461,-1.19457 0.993109,-1.19457 0.394342,0 0.631264,0.12618 0.891607,0.47489 0.17774,0.23806 0.189252,0.79342 0.02175,1.04906 -0.105365,0.16082 -0.11805,0.44965 -0.11805,2.68808 v 2.50789 l 1.431329,2.18569 1.43133,2.18569 -0.01876,1.38356 -0.01876,1.38356 -0.22781,0.20341 c -0.125295,0.11187 -0.290095,0.2034 -0.366222,0.2034 -0.117981,0 -0.138413,0.0474 -0.138413,0.3208 0,0.40659 -0.171974,0.77244 -0.424483,0.90302 -0.273586,0.14148 -1.258721,0.13654 -1.537662,-0.008 -0.255117,-0.13193 -0.409581,-0.47133 -0.409581,-0.89996 v -0.31609 H 8.4266378 3.7529417 v 0.31615 c 0,0.42863 -0.1544638,0.76803 -0.4095799,0.89996 -0.2756044,0.14252 -1.2924213,0.14542 -1.5518738,0.004 z m 1.2684741,-0.45566 c 0.1055845,-0.0565 0.134927,-0.14753 0.134927,-0.41854 v -0.34633 H 2.5670688 1.9392589 v 0.34532 c 0,0.25528 0.031827,0.36386 0.1220744,0.41642 0.1600118,0.0932 0.8264229,0.0953 0.9986183,0.004 z m 11.7191174,0 c 0.105585,-0.0565 0.134928,-0.14753 0.134928,-0.41854 v -0.34633 h -0.62781 -0.62781 v 0.34532 c 0,0.25528 0.03183,0.36386 0.122074,0.41642 0.160012,0.0932 0.826423,0.0953 0.998618,0.004 z m 0.832495,-1.3215 c 0.08579,-0.0543 0.104634,-0.26448 0.104634,-1.16736 v -1.10116 H 8.4266281 1.1370577 v 1.10124 c 0,0.903 0.018835,1.11315 0.1046348,1.16736 0.1415325,0.0894 14.2285115,0.0894 14.3698715,-7e-5 z m -7.463963,-5.54837 v -2.75666 l -1.6109356,0.0187 -1.6109365,0.0187 -1.7722617,2.70923 c -0.9747435,1.49007 -1.7722616,2.72215 -1.7722616,2.73795 0,0.0158 1.5224394,0.0287 3.3831981,0.0287 H 8.147601 Z m -5.3189447,1.91402 c -0.140988,-0.0821 -0.1597832,-0.27759 -0.038367,-0.39901 0.061695,-0.0617 0.6840589,-0.0837 2.366744,-0.0837 1.9824775,0 2.2974667,0.0144 2.3926532,0.10962 0.060291,0.0603 0.1096181,0.13652 0.1096181,0.16941 0,0.0328 -0.049329,0.10912 -0.1096181,0.16941 -0.095202,0.0952 -0.4048014,0.10934 -2.3542868,0.10749 -1.3944259,-8.8e-4 -2.2909098,-0.029 -2.3667431,-0.0733 z m 0.7186724,-1.35025 c -0.046726,-0.0563 -0.064546,-0.16665 -0.039603,-0.24522 0.044289,-0.13955 0.091182,-0.14286 2.0201642,-0.14286 1.7167505,0 1.9868058,0.0145 2.0665156,0.11048 0.066523,0.0801 0.071571,0.14239 0.018411,0.2267 -0.065066,0.10321 -0.2921772,0.11831 -2.0269075,0.13474 -1.648076,0.0156 -1.9669161,0.003 -2.0385791,-0.0838 z m 0.7673574,-1.32534 c -0.06203,-0.0748 -0.063407,-0.13705 -0.00538,-0.24545 0.075728,-0.14149 0.1187037,-0.14479 1.6540116,-0.12653 1.3822864,0.0164 1.5852789,0.033 1.6495244,0.13496 0.053142,0.0843 0.048076,0.14657 -0.018429,0.22671 -0.078632,0.0948 -0.3127685,0.11049 -1.6441334,0.11049 -1.2641369,0 -1.5678816,-0.0186 -1.6355808,-0.10018 z m 0.7904121,-1.04673 c -0.021227,-0.0553 -0.027661,-0.15733 -0.014298,-0.22671 0.022321,-0.11593 0.1225625,-0.12615 1.2364785,-0.12615 1.0553898,0 1.2216664,0.015 1.2854971,0.11623 0.053204,0.0844 0.048164,0.14653 -0.018376,0.2267 -0.1303524,0.15707 -2.4293231,0.16623 -2.4893038,0.01 z m 10.3669518,4.53587 c 0,-0.016 -0.796826,-1.24809 -1.770725,-2.73795 l -1.770724,-2.70884 -1.612474,-0.0187 -1.6124727,-0.0187 v 2.75668 2.75667 h 3.3831977 c 1.860759,0 3.383198,-0.0131 3.383198,-0.0291 z m -6.1684808,-0.84783 c -0.060291,-0.0603 -0.1096181,-0.13653 -0.1096181,-0.1694 0,-0.0329 0.049329,-0.10913 0.1096181,-0.16941 0.095186,-0.0952 0.4101747,-0.10962 2.3926528,-0.10962 2.368616,0 2.450452,0.01 2.450452,0.29052 0,0.24345 -0.225185,0.26753 -2.501672,0.26753 -1.9359147,0 -2.2463488,-0.0146 -2.3414328,-0.10962 z m -0.044713,-1.32624 c -0.066523,-0.0801 -0.071571,-0.14239 -0.018411,-0.22671 0.065137,-0.10331 0.2947853,-0.11829 2.0661778,-0.13473 1.960017,-0.0182 1.993653,-0.0162 2.038578,0.12543 0.105099,0.33113 0.01385,0.34649 -2.058547,0.34649 -1.6814225,0 -1.9481654,-0.0146 -2.0277957,-0.11048 z m 0,-1.32538 c -0.066514,-0.0801 -0.071571,-0.1424 -0.018429,-0.22671 0.064246,-0.10192 0.267238,-0.11853 1.6495238,-0.13496 1.535309,-0.0183 1.578283,-0.015 1.654011,0.12653 0.05801,0.1084 0.05665,0.1707 -0.0054,0.24545 -0.0677,0.0816 -0.371442,0.10018 -1.635579,0.10018 -1.3313645,0 -1.5654992,-0.0157 -1.644134,-0.11049 z m 0.00132,-1.04474 c -0.067643,-0.0815 -0.073028,-0.14379 -0.019709,-0.22831 0.063831,-0.1012 0.2301708,-0.11623 1.2864518,-0.11623 h 1.213139 v 0.20927 0.20927 l -1.193429,0.0191 c -1.0263722,0.0164 -1.2064502,0.004 -1.2864522,-0.093 z m -4.8964354,-0.9738 0.2969151,-0.45197 h 3.7659616 3.7659605 l 0.296915,0.45197 c 0.163303,0.24857 0.31261,0.45264 0.331793,0.45346 0.01918,7.9e-4 0.02605,-0.84607 0.01525,-1.88198 l -0.01963,-1.88347 h -0.241959 -0.241959 l -0.0011,1.06378 c -5.54e-4,0.58509 -0.02768,1.10578 -0.0602,1.15709 -0.03252,0.0513 -0.134065,0.0827 -0.225642,0.0697 l -0.166503,-0.0236 -0.01912,-1.12257 -0.01912,-1.12257 -0.671253,-0.0825 c -0.622881,-0.0765 -0.94213,-0.16595 -1.9918457,-0.55773 -0.5071273,-0.18928 -0.9961258,-0.18928 -1.5032531,0 -1.0497155,0.39178 -1.3689642,0.48118 -1.9918464,0.55773 l -0.6712522,0.0825 -0.019117,1.12257 -0.019118,1.12257 -0.1665025,0.0236 c -0.091577,0.013 -0.1931152,-0.0185 -0.2256413,-0.0697 -0.032524,-0.0513 -0.059621,-0.572 -0.060203,-1.15709 l -0.00106,-1.06378 H 4.2783012 4.0363421 l -0.019629,1.88347 c -0.010794,1.03591 -0.00397,1.88281 0.015252,1.88198 0.019179,-7.9e-4 0.1684903,-0.20489 0.3317934,-0.45346 z m 1.9988254,-1.18441 c -0.1019067,-0.40604 0.1488538,-0.70644 0.3999832,-0.47917 0.2379485,0.21534 0.1134972,0.65356 -0.185605,0.65356 -0.1238061,0 -0.1826156,-0.0478 -0.2143782,-0.17439 z m 3.6824088,0.0907 c -0.2145159,-0.21452 0.02504,-0.74458 0.290468,-0.64272 0.140643,0.0539 0.214404,0.31627 0.155233,0.55204 -0.04795,0.19104 -0.295058,0.24132 -0.445701,0.0907 z m -4.4445615,-0.82647 c -0.068261,-0.21509 0.089577,-0.35586 0.3716884,-0.33153 0.2630968,0.0227 0.4100557,0.1783 0.340232,0.36026 -0.031492,0.0821 -0.1312412,0.11413 -0.3551843,0.11413 -0.2525611,0 -0.3199602,-0.027 -0.3567361,-0.14286 z m 1.3183498,0.0423 c -0.09433,-0.24582 0.00132,-0.35286 0.3153476,-0.35286 0.3534562,0 0.516273,0.15498 0.3602832,0.34294 -0.1184874,0.14278 -0.621816,0.15016 -0.6756308,0.01 z m 2.3429505,-0.006 c -0.1589977,-0.19158 0.00115,-0.3464 0.3583733,-0.3464 0.2938303,0 0.3063016,0.009 0.3063016,0.20928 0,0.19497 -0.01947,0.21069 -0.285058,0.23016 -0.1982175,0.0146 -0.3138648,-0.0139 -0.3796169,-0.093 z m 1.2791942,-0.007 c -0.06982,-0.18196 0.07713,-0.33757 0.340231,-0.36027 0.282113,-0.0244 0.439952,0.11645 0.371688,0.33153 -0.03678,0.11587 -0.104175,0.14286 -0.356735,0.14286 -0.223944,0 -0.323691,-0.032 -0.355184,-0.11412 z m -4.1232791,-0.45789 c -0.1081291,-0.10813 -0.1081291,-0.49177 0,-0.5999 0.2001611,-0.20016 0.4743453,-0.0122 0.4743453,0.32526 0,0.15504 -0.1730101,0.35835 -0.3049362,0.35835 -0.047132,0 -0.1233692,-0.0377 -0.1694091,-0.0837 z m 3.6532561,-0.0259 c -0.1977674,-0.19776 -0.087335,-0.6577 0.157911,-0.6577 0.183679,0 0.290524,0.1411 0.290524,0.38366 0,0.3517 -0.230138,0.49234 -0.448435,0.27404 z m -5.4094409,-1.68716 c 0.1756677,-0.22332 0.1740119,-0.37062 -0.00671,-0.60041 -0.2749803,-0.34959 -0.9017742,-0.16615 -0.9017742,0.26391 0,0.27222 0.077176,0.39922 0.2993581,0.49264 0.2629123,0.11054 0.4338535,0.0667 0.6091611,-0.15614 z m 8.3705889,-0.0196 c 0.196553,-0.36727 -0.0372,-0.76458 -0.449828,-0.76458 -0.253084,0 -0.528238,0.25117 -0.528238,0.48219 0,0.16425 0.19899,0.42535 0.373325,0.48983 0.189815,0.0703 0.516026,-0.0417 0.604741,-0.20744 z"
       id="path10638"
       inkscape:connector-curvature="0" />
    <path
       style="fill:#ffffff;stroke-width:0.00564958;stroke-miterlimit:4;stroke-dasharray:none"
       d="m 2.0632565,294.60817 c -0.8081509,-0.017 -0.8298376,-0.0203 -0.8588218,-0.12839 -0.016355,-0.061 -0.030044,-0.56497 -0.030415,-1.11991 l -6.858e-4,-1.00898 h 7.2497098 7.2497092 l -7.59e-4,1.05881 c -4.2e-4,0.58234 -0.02202,1.09243 -0.04801,1.13354 -0.04157,0.0657 -0.808941,0.0752 -6.3894437,0.0786 -3.4882125,0.002 -6.7152921,-0.004 -7.1712895,-0.0136 z"
       id="path10640"
       inkscape:connector-curvature="0" />
    <path
       style="fill:#ffffff;stroke-width:0.00564958;stroke-miterlimit:4;stroke-dasharray:none"
       d="m 2.2777354,295.94172 c -0.1187982,-0.0199 -0.2361682,-0.068 -0.2608241,-0.10691 -0.024651,-0.0389 -0.045172,-0.19975 -0.045587,-0.35732 l -7.652e-4,-0.28651 h 0.5979148 0.5979139 v 0.2954 c 0,0.34308 -0.075534,0.45164 -0.3149724,0.45268 -0.087105,2.6e-4 -0.2032194,0.009 -0.2580288,0.0197 -0.05481,0.0105 -0.1968504,0.003 -0.3156486,-0.017 z"
       id="path10642"
       inkscape:connector-curvature="0" />
    <path
       style="fill:#ffffff;stroke-width:0.00564958;stroke-miterlimit:4;stroke-dasharray:none"
       d="m 14.041797,295.95271 c -0.271691,-0.0258 -0.362088,-0.15025 -0.362088,-0.49877 v -0.26296 h 0.597915 0.597914 v 0.2954 c 0,0.3334 -0.07573,0.45158 -0.290059,0.45268 -0.07341,2.6e-4 -0.178306,0.008 -0.233116,0.0171 -0.05481,0.009 -0.194563,0.007 -0.310566,-0.004 z"
       id="path10644"
       inkscape:connector-curvature="0" />
    <path
       style="fill:#ffffff;stroke-width:0.00564958;stroke-miterlimit:4;stroke-dasharray:none"
       d="m 8.7469183,289.06236 v -2.74044 H 9.81043 c 0.584931,0 1.302537,0.0146 1.594677,0.0325 l 0.531164,0.0325 1.305723,1.99792 c 0.718147,1.09886 1.500526,2.30062 1.738619,2.67057 l 0.432898,0.67265 -0.879357,0.0312 c -0.483646,0.0171 -1.98363,0.034 -3.333297,0.0373 l -2.4539387,0.006 z m 5.2963097,1.87979 c 0.1719,-0.11271 0.171866,-0.25873 -7e-5,-0.3714 -0.12404,-0.0813 -0.314798,-0.0883 -2.386412,-0.0883 -2.144239,0 -2.2565959,0.004 -2.3564787,0.0949 -0.057688,0.0522 -0.1048837,0.13282 -0.1048837,0.17913 0,0.10894 0.14086,0.23351 0.2989574,0.26436 0.068509,0.0133 1.089727,0.021 2.269368,0.017 1.961993,-0.007 2.156289,-0.0148 2.279549,-0.0957 z m -0.818823,-1.27851 c 0.102041,-0.0271 0.134928,-0.0703 0.147051,-0.19353 0.01323,-0.13439 -0.0058,-0.1671 -0.124566,-0.21371 -0.199339,-0.0782 -3.7858209,-0.0338 -3.9402123,0.0488 -0.1223551,0.0655 -0.1522916,0.27281 -0.049038,0.33963 0.034254,0.0222 0.3201322,0.0545 0.6352838,0.0718 0.6716975,0.037 3.1403065,-0.003 3.3314835,-0.053 z m -0.728066,-1.31899 c 0.05236,-0.0242 0.08719,-0.0955 0.08719,-0.17839 0,-0.27045 -0.03485,-0.27608 -1.614775,-0.26072 -1.5572017,0.0151 -1.7734052,0.0435 -1.7734052,0.2328 0,0.14091 0.078782,0.21034 0.2740439,0.24147 0.2476033,0.0394 2.9330233,0.008 3.0269413,-0.0351 z m -1.315761,-1.00895 0.605738,-0.0326 v -0.21655 -0.21657 l -1.15846,0.005 c -0.6371512,0.003 -1.2145125,0.0205 -1.2830237,0.0394 -0.13889,0.0384 -0.1930119,0.21682 -0.099831,0.3291 0.031518,0.0379 0.1173162,0.0782 0.190673,0.0894 0.2304347,0.0352 1.1146247,0.0366 1.7449037,0.003 z"
       id="path10646"
       inkscape:connector-curvature="0" />
    <path
       style="fill:#ffffff;stroke-width:0.00564958;stroke-miterlimit:4;stroke-dasharray:none"
       d="m 2.1911235,291.75495 -0.751044,-0.0269 0.4671961,-0.72247 c 0.2569573,-0.39737 1.039516,-1.59924 1.7390197,-2.67083 l 1.2718246,-1.94834 0.527017,-0.0322 c 0.2898603,-0.0177 1.016809,-0.0322 1.6154423,-0.0322 h 1.0884252 v 2.74044 2.74043 l -2.6034189,-0.0105 c -1.4318787,-0.006 -2.9413869,-0.0226 -3.354462,-0.0373 z m 5.3112122,-0.76329 c 0.041695,-0.0208 0.1054318,-0.0853 0.1416349,-0.14323 0.05835,-0.0934 0.051024,-0.12021 -0.06444,-0.23571 l -0.1302651,-0.13031 -1.8549388,-0.0171 c -1.0202167,-0.009 -2.0632393,-0.002 -2.3178268,0.0173 -0.4144246,0.0308 -0.4711052,0.0469 -0.5413631,0.15414 -0.071518,0.10914 -0.071386,0.13057 0.00141,0.2417 0.064316,0.0982 0.1310162,0.12576 0.3420572,0.14152 0.4722429,0.0352 4.3460062,0.0105 4.4237159,-0.0283 z m 0.061209,-1.35045 c 0.047961,-0.0228 0.087193,-0.0923 0.087193,-0.15456 0,-0.24378 -0.037935,-0.24884 -1.9881748,-0.26514 -1.0029404,-0.009 -1.8951348,-0.002 -1.982654,0.0142 -0.170071,0.0314 -0.243486,0.15533 -0.190673,0.32173 0.01684,0.053 0.0688,0.10722 0.1154663,0.12038 0.1465387,0.0413 3.8671878,0.007 3.9588393,-0.0366 z m 0.00741,-1.32198 c 0.1330682,-0.11053 0.083345,-0.31399 -0.087847,-0.35943 -0.0785,-0.0208 -0.79806,-0.0448 -1.5990194,-0.0531 -1.5912489,-0.0167 -1.6215182,-0.0117 -1.6215182,0.26395 0,0.10741 0.027573,0.14831 0.1121088,0.16636 0.061659,0.0131 0.1569527,0.0343 0.2117613,0.0469 0.05481,0.0127 0.7296583,0.0192 1.4996644,0.0144 1.1239602,-0.007 1.4167402,-0.0226 1.484848,-0.0792 z m -0.029329,-1.04374 c 0.1590189,-0.0876 0.1338202,-0.31311 -0.040353,-0.36117 -0.1946535,-0.0538 -2.1707506,-0.05 -2.3136741,0.004 -0.098068,0.0372 -0.1278088,0.0834 -0.1278088,0.19836 0,0.12283 0.024643,0.15519 0.1370215,0.17997 0.075367,0.0166 0.1594443,0.039 0.1868486,0.0498 0.027405,0.0108 0.4982615,0.0134 1.0463492,0.006 0.6900174,-0.009 1.0319246,-0.0332 1.1116194,-0.077 z"
       id="path10648"
       inkscape:connector-curvature="0" />
    <path
       style="fill:#ffffff;stroke-width:0.00564958;stroke-miterlimit:4;stroke-dasharray:none"
       d="m 4.0485831,286.38288 c -0.015031,-0.12945 -0.014334,-0.94724 0.00159,-1.81733 l 0.028897,-1.58198 h 0.216327 0.2163271 l 6.849e-4,1.00897 c 3.433e-4,0.55495 0.014007,1.0587 0.030291,1.11944 0.034378,0.12824 0.1738557,0.18551 0.3463194,0.14223 l 0.1209694,-0.0304 v -1.11257 -1.11257 l 0.6352838,-0.084 c 0.4972774,-0.0658 0.8271034,-0.14861 1.5182788,-0.38127 1.2036231,-0.40513 1.3216852,-0.4052 2.5225131,-0.002 0.6770434,0.22758 1.0258074,0.31555 1.5148274,0.38208 l 0.635283,0.0864 v 1.1069 c 0,1.10576 7e-5,1.10692 0.11211,1.13694 0.171458,0.046 0.222838,0.0381 0.307854,-0.0469 0.06631,-0.0663 0.0783,-0.2418 0.0783,-1.146 v -1.06771 h 0.216323 0.216323 l 0.03281,0.97962 c 0.0441,1.31662 0.04148,2.59663 -0.0054,2.62558 -0.02099,0.013 -0.161128,-0.16477 -0.311414,-0.39497 l -0.273246,-0.41855 -3.7724768,-7.9e-4 -3.772477,-7.9e-4 -0.2095151,0.31141 c -0.1152341,0.17128 -0.2477516,0.36127 -0.2944834,0.42219 -0.084254,0.10985 -0.085199,0.10881 -0.112303,-0.12456 z m 2.7514977,-1.2386 c 0.1397761,-0.17769 0.1322616,-0.39233 -0.019029,-0.54362 -0.1472492,-0.14726 -0.1812254,-0.15001 -0.3330713,-0.0271 -0.091619,0.0742 -0.1176296,0.1441 -0.1176296,0.31621 0,0.12153 0.030777,0.25804 0.068385,0.30336 0.1018264,0.12269 0.2838197,0.10053 0.4013478,-0.0489 z m 3.6630162,0.0206 c 0.200886,-0.28681 -0.01065,-0.76422 -0.290956,-0.65666 -0.106798,0.041 -0.2293939,0.27669 -0.2293939,0.44105 0,0.2815 0.3675349,0.43378 0.5203499,0.21561 z m -4.1701179,-0.7489 c 0.1737347,-0.13789 -0.070238,-0.43584 -0.3568728,-0.43584 -0.4048385,0 -0.5309845,0.41972 -0.1538459,0.51189 0.1300241,0.0318 0.4313999,-0.0131 0.5107187,-0.0761 z m 1.2705668,0.005 c 0.1173012,-0.0614 0.1115307,-0.27478 -0.00918,-0.33938 -0.15183,-0.0813 -0.5785212,-0.0642 -0.6534869,0.0261 -0.092804,0.11182 -0.00344,0.33256 0.1523966,0.37656 0.1354028,0.0382 0.3726558,0.009 0.5102712,-0.0633 z m 3.6622241,-0.004 c 0.10542,-0.0849 0.07208,-0.27837 -0.06325,-0.36705 -0.303919,-0.19913 -0.87791,0.14751 -0.609406,0.36803 0.134743,0.11067 0.534789,0.11009 0.672653,-8.8e-4 z m -1.3079365,-0.16253 v -0.1993 l -0.260095,-0.015 c -0.314194,-0.0182 -0.4623849,0.0503 -0.4623849,0.2136 0,0.16631 0.12701,0.2264 0.4484361,0.21216 l 0.2740438,-0.0121 z M 6.781049,283.90793 c 0.2105221,-0.21052 0.1326596,-0.6215 -0.1307991,-0.69039 -0.1572271,-0.0411 -0.3448145,0.16571 -0.3448145,0.38018 0,0.18463 0.1604346,0.43251 0.2799247,0.43251 0.040362,0 0.128424,-0.0551 0.1956889,-0.1223 z m 3.628828,0.0583 c 0.124735,-0.0912 0.164033,-0.4508 0.06568,-0.60092 -0.116009,-0.17705 -0.271927,-0.19837 -0.41373,-0.0566 -0.1874778,0.18748 -0.1445845,0.5245 0.08278,0.65041 0.152864,0.0846 0.158959,0.0848 0.26528,0.007 z"
       id="path10650"
       inkscape:connector-curvature="0" />
    <path
       style="fill:#ffffff;stroke-width:0.00564958;stroke-miterlimit:4;stroke-dasharray:none"
       d="m 12.253091,282.20771 c -0.216702,-0.22977 -0.216299,-0.38146 0.0016,-0.59935 0.189128,-0.18912 0.346972,-0.21413 0.582598,-0.0923 0.298891,0.15455 0.316137,0.59767 0.03005,0.7721 -0.244812,0.14928 -0.419094,0.12644 -0.61424,-0.0805 z"
       id="path10652"
       inkscape:connector-curvature="0" />
    <path
       style="fill:#ffffff;stroke-width:0.00564958;stroke-miterlimit:4;stroke-dasharray:none"
       d="m 4.0344136,282.31496 c -0.2703545,-0.11772 -0.341728,-0.50841 -0.1348255,-0.73801 0.1047734,-0.11627 0.383082,-0.16239 0.5536137,-0.0918 0.1563711,0.0648 0.3076221,0.28713 0.3076221,0.45224 0,0.14755 -0.3077051,0.44874 -0.4559093,0.44628 -0.064404,-8.9e-4 -0.1861257,-0.032 -0.270501,-0.0688 z"
       id="path10654"
       inkscape:connector-curvature="0" />
  </g>
</svg>
