<?xml version="1.0" encoding="UTF-8" standalone="no"?>
<!-- Created with Inkscape (http://www.inkscape.org/) -->

<svg
   xmlns:dc="http://purl.org/dc/elements/1.1/"
   xmlns:cc="http://creativecommons.org/ns#"
   xmlns:rdf="http://www.w3.org/1999/02/22-rdf-syntax-ns#"
   xmlns:svg="http://www.w3.org/2000/svg"
   xmlns="http://www.w3.org/2000/svg"
   xmlns:sodipodi="http://sodipodi.sourceforge.net/DTD/sodipodi-0.dtd"
   xmlns:inkscape="http://www.inkscape.org/namespaces/inkscape"
   width="64"
   height="64"
   viewBox="0 0 16.933333 16.933333"
   version="1.1"
   id="svg8"
   inkscape:version="0.92.5 (2060ec1f9f, 2020-04-08)"
   sodipodi:docname="bed_time_64x64.svg">
  <defs
     id="defs2" />
  <sodipodi:namedview
     id="base"
     pagecolor="#ffffff"
     bordercolor="#666666"
     borderopacity="1.0"
     inkscape:pageopacity="0.0"
     inkscape:pageshadow="2"
     inkscape:zoom="5.6"
     inkscape:cx="55.907243"
     inkscape:cy="41.127152"
     inkscape:document-units="mm"
     inkscape:current-layer="layer1"
     showgrid="false"
     units="px"
     inkscape:window-width="1208"
     inkscape:window-height="987"
     inkscape:window-x="1992"
     inkscape:window-y="0"
     inkscape:window-maximized="1"
     showguides="false" />
  <metadata
     id="metadata5">
    <rdf:RDF>
      <cc:Work
         rdf:about="">
        <dc:format>image/svg+xml</dc:format>
        <dc:type
           rdf:resource="http://purl.org/dc/dcmitype/StillImage" />
        <dc:title></dc:title>
      </cc:Work>
    </rdf:RDF>
  </metadata>
  <g
     inkscape:label="Layer 1"
     inkscape:groupmode="layer"
     id="layer1"
     transform="translate(0,-280.06667)">
    <path
       style="fill:#000000;stroke-width:0.03155303"
       d="m 1.0028943,296.55129 -0.09223,-0.0922 v -4.59547 c 0,-3.43327 0.0093,-4.6129 0.03671,-4.66438 0.07434,-0.13959 0.10698299,-0.14575 0.77721799,-0.1468 0.638452,-9.6e-4 0.640616,-7.2e-4 0.717831,0.0764 0.07437,0.0744 0.07745,0.0939 0.07745,0.49188 v 0.41443 l 0.09887,-0.0832 c 0.250637,-0.2109 0.517438,-0.27411 0.805228,-0.19078 0.177542,0.0514 0.21441,0.0832 0.980416,0.84502 0.541739,0.53879 0.81634,0.83501 0.85982,0.92751 0.128467,0.2733 0.06093,0.68212 -0.148974,0.90175 l -0.08293,0.0868 h 0.743687 0.743688 l 0.126212,-0.12622 0.126212,-0.12621 h 0.955188 0.955189 l 0.120063,0.12621 0.120063,0.12622 h 0.532956 c 0.5776187,0 0.7037977,0.0241 0.7588957,0.14504 0.05018,0.11012 0.04539,0.14992 -0.02949,0.24511 l -0.0654,0.0831 H 9.5223503 8.9251323 v 0.75745 0.75745 l 2.7214487,-0.008 2.721449,-0.008 -3.1e-5,-0.47329 c -2.9e-5,-0.40111 -0.009,-0.49014 -0.05882,-0.58373 -0.08226,-0.15454 -0.203629,-0.27816 -0.351335,-0.35786 -0.123138,-0.0665 -0.160574,-0.0683 -1.536883,-0.0772 l -1.410671,-0.009 -0.06443,-0.0819 c -0.112609,-0.14316 -0.07072,-0.29546 0.09737,-0.35406 0.126986,-0.0443 2.518203,-0.0476 2.788401,-0.004 0.104125,0.0168 0.270962,0.0725 0.370748,0.12374 l 0.18143,0.0931 v -0.4211 c 0,-0.2316 0.0088,-0.44408 0.0196,-0.47217 0.04627,-0.12057 0.173902,-0.1434 0.801639,-0.1434 h 0.603502 l 0.09223,0.0922 0.09223,0.0922 v 3.27059 3.2706 l -0.09223,0.0922 -0.09223,0.0922 h -0.603502 c -0.627737,0 -0.755371,-0.0228 -0.801639,-0.1434 -0.01078,-0.0281 -0.0196,-0.43329 -0.0196,-0.90043 v -0.84935 H 9.5131203 4.6424323 l -0.08314,-0.0654 c -0.0603,-0.0474 -0.08314,-0.0945 -0.08314,-0.17125 0,-0.0768 0.02284,-0.12382 0.08314,-0.17125 l 0.08314,-0.0654 h 4.871329 4.8713277 l -0.0085,-0.65472 -0.0085,-0.65473 H 8.4518953 2.5357013 l -0.0085,0.65473 -0.0085,0.65472 h 0.570669 c 0.341912,0 0.59574,0.0134 0.633211,0.0335 0.151603,0.0811 0.134379,0.34982 -0.02634,0.41093 -0.0418,0.0159 -0.323565,0.0289 -0.626133,0.0289 h -0.550124 l -10e-4,0.85982 c -7.28e-4,0.62611 -0.01145,0.87343 -0.03944,0.90988 -0.08436,0.10988 -0.170329,0.12348 -0.780287,0.12348 h -0.60401 z m 1.043677,-4.70383 v -4.32276 h -0.331307 -0.331306 v 4.32276 4.32277 h 0.331306 0.331307 z m 13.4731447,1.34101 v -2.98176 h -0.331307 -0.331307 v 2.98176 2.98176 h 0.331307 0.331307 z m -8.9926137,-1.43669 v -0.75831 l -1.727529,0.009 c -1.714812,0.009 -1.72849,0.009 -1.858238,0.0788 -0.175322,0.0938 -0.34403,0.29734 -0.386634,0.46654 -0.03747,0.14881 -0.04858,0.9065 -0.0138,0.94129 0.01157,0.0116 0.913197,0.021 2.003618,0.021 h 1.982582 z m 1.917346,-0.13308 0.0084,-0.87559 h -0.726219 -0.726219 v 0.86245 c 0,0.47434 0.0097,0.87218 0.02162,0.88407 0.01189,0.0119 0.334918,0.0178 0.717832,0.0131 l 0.696208,-0.008 z m -5.316452,-1.07393 0.245269,-0.0383 -0.426699,-0.42553 -0.426699,-0.42553 v 0.55735 0.55734 l 0.18143,-0.0935 c 0.108558,-0.0559 0.279943,-0.10889 0.426699,-0.13181 z m 1.462598,-0.24936 c 0.247432,-0.23992 0.304202,-0.35265 0.259038,-0.51439 -0.0295,-0.10566 -1.366836,-1.46951 -1.521108,-1.55128 -0.14822,-0.0786 -0.279007,-0.0319 -0.505993,0.18042 -0.110687,0.10354 -0.225703,0.23979 -0.255591,0.30277 -0.100692,0.2122 -0.0623,0.26718 0.751505,1.07626 l 0.73733,0.73305 h 0.150447 c 0.143914,0 0.160604,-0.01 0.384372,-0.22683 z m 3.293288,-0.96161 c -0.464687,-0.0626 -1.104259,-0.26999 -1.514545,-0.49117 -0.981825,-0.52928 -1.770489,-1.45489 -2.114491,-2.48167 -0.345259,-1.03053 -0.310686,-2.14788 0.09663,-3.12317 0.572153,-1.36995 1.752859,-2.34343 3.226704,-2.66038 0.460216,-0.099 1.28709,-0.099 1.747306,0 0.9940607,0.21377 1.8675847,0.72615 2.4840697,1.45706 0.712885,0.84521 1.067918,1.80399 1.069084,2.8871 0.0013,1.19235 -0.440132,2.27295 -1.269931,3.10885 -0.496915,0.50057 -1.022649,0.84232 -1.6319507,1.06084 -0.535309,0.19199 -0.782129,0.23506 -1.41449,0.24684 -0.312375,0.006 -0.61765,0.004 -0.67839,-0.004 z m 1.249962,-0.50116 c 1.5916177,-0.27756 2.8664847,-1.51469 3.2012177,-3.10647 0.08285,-0.39399 0.09829,-1.07968 0.03268,-1.45143 -0.204245,-1.15728 -0.924933,-2.19081 -1.941769,-2.78468 -0.9596497,-0.56046 -2.1604087,-0.68016 -3.2280097,-0.32177 -0.975935,0.32761 -1.801749,1.03963 -2.271727,1.9587 -0.307226,0.60079 -0.433409,1.13706 -0.429684,1.82614 0.005,0.91684 0.277671,1.69727 0.850442,2.43373 0.569096,0.73173 1.475084,1.27726 2.397962,1.44392 0.340917,0.0616 1.041112,0.0625 1.388887,0.002 z m -1.39195,-0.3294 c -1.144141,-0.23122 -2.086671,-0.97016 -2.58839,-2.0293 -0.63554,-1.34164 -0.386322,-2.92734 0.632101,-4.02188 1.452781,-1.56136 3.879683,-1.56136 5.3324627,0 1.343073,1.44345 1.299035,3.65838 -0.100601,5.05977 -0.521404,0.52206 -1.2061537,0.87959 -1.9256817,1.00545 -0.373723,0.0654 -0.988587,0.059 -1.349891,-0.014 z m 1.577651,-0.5188 c 1.8272377,-0.54858 2.7778057,-2.48943 2.0770867,-4.24096 -0.372552,-0.93123 -1.163783,-1.62557 -2.1556067,-1.89163 -0.259042,-0.0695 -0.367051,-0.0807 -0.789188,-0.0819 -0.43375,-10e-4 -0.52298,0.008 -0.788826,0.0817 -1.222667,0.3387 -2.075224,1.25054 -2.33927,2.50195 -0.06427,0.3046 -0.0484,0.95984 0.03119,1.28758 0.279177,1.14961 1.153544,2.05226 2.280184,2.35395 0.346529,0.0928 0.350506,0.0932 0.895602,0.0835 0.44159,-0.008 0.540432,-0.0196 0.788826,-0.0942 z m -1.10998,-2.33166 c -0.05515,-0.0204 -0.110768,-0.0477 -0.123582,-0.0607 -0.01281,-0.013 -0.308461,-0.0237 -0.65699,-0.0238 -0.349343,-9e-5 -0.687786,-0.0152 -0.754248,-0.0336 -0.06631,-0.0184 -0.176461,-0.084 -0.244788,-0.14571 -0.29712,-0.26843 -0.261223,-0.75946 0.07165,-0.98 0.12841,-0.0851 0.14269,-0.0871 0.717208,-0.10258 l 0.58619,-0.0158 0.0101,-0.12621 c 0.0059,-0.0735 0.03786,-0.15589 0.07649,-0.19721 0.121871,-0.13031 0.346462,-0.0649 0.385376,0.1123 0.01813,0.0825 0.0301,0.0885 0.17604,0.0885 h 0.15659 v -0.76473 c 0,-0.65313 -0.0072,-0.77196 -0.04958,-0.81431 -0.06333,-0.0633 -0.153036,-0.0633 -0.216364,0 -0.03472,0.0347 -0.04958,0.10996 -0.04958,0.25094 0,0.11075 -0.01604,0.23656 -0.03565,0.27959 -0.04756,0.1044 -0.179779,0.15811 -0.287941,0.11699 -0.129475,-0.0492 -0.156727,-0.13606 -0.14475,-0.46122 0.0098,-0.26664 0.01955,-0.30606 0.105477,-0.42764 0.254335,-0.35984 0.786947,-0.35983 1.04125,2e-5 l 0.09466,0.13394 0.0087,0.99916 c 0.0074,0.85384 0.0163,1.01521 0.06111,1.10959 0.07811,0.16449 0.09048,0.4479 0.02682,0.61458 -0.140174,0.36704 -0.595035,0.58058 -0.954157,0.44793 z m 0.429169,-0.51314 c 0.160476,-0.13503 0.12829,-0.37277 -0.06392,-0.47217 -0.196618,-0.10167 -0.406952,0.0386 -0.406952,0.27133 0,0.0943 0.02024,0.13618 0.09708,0.20084 0.05468,0.046 0.136304,0.0817 0.186897,0.0817 0.05059,0 0.132213,-0.0357 0.186897,-0.0817 z m -0.94417,-0.21807 v -0.17354 h -0.408135 c -0.224475,0 -0.443342,0.0134 -0.486372,0.0298 -0.103869,0.0395 -0.133753,0.14231 -0.06975,0.24 0.04992,0.0762 0.05747,0.0773 0.507465,0.0773 h 0.456792 z"
       id="path2401"
       inkscape:connector-curvature="0" />
    <path
       style="fill:#ffffff;stroke-width:0.00120466;stroke-miterlimit:4;stroke-dasharray:none"
       d="m 3.3821173,289.81697 c -0.378463,-0.38128 -0.718987,-0.73462 -0.756721,-0.78519 -0.03909,-0.0524 -0.06861,-0.13909 -0.06861,-0.20154 0,-0.0932 0.03453,-0.14464 0.231082,-0.34421 0.229962,-0.2335 0.341322,-0.29396 0.4781,-0.25958 0.09606,0.0242 0.67326,0.57137 1.180186,1.11889 0.392795,0.42426 0.410935,0.44979 0.393941,0.55451 -0.02033,0.12529 -0.200485,0.35336 -0.400307,0.50678 -0.09595,0.0737 -0.168807,0.10359 -0.252241,0.10359 -0.110489,0 -0.157381,-0.0404 -0.805434,-0.69325 z"
       id="path2407"
       inkscape:connector-curvature="0" />
    <path
       style="fill:#ffffff;stroke-width:0.00120466;stroke-miterlimit:4;stroke-dasharray:none"
       d="m 1.4093483,291.8489 v -4.3029 h 0.318734 0.318734 v 4.3029 4.30291 h -0.318734 -0.318734 z"
       id="path2409"
       inkscape:connector-curvature="0" />
    <path
       style="fill:#ffffff;stroke-width:0.00120466;stroke-miterlimit:4;stroke-dasharray:none"
       d="m 2.5398493,292.38618 c -0.0343,-0.15618 0.01714,-0.82654 0.07181,-0.9357 0.06288,-0.12555 0.223917,-0.29491 0.343547,-0.36129 0.08526,-0.0473 0.2829,-0.0541 1.824751,-0.0628 l 1.72913,-0.01 v 0.73484 0.73485 h -1.973617 -1.973616 z"
       id="path2411"
       inkscape:connector-curvature="0" />
    <path
       style="fill:#ffffff;stroke-width:0.00120466;stroke-miterlimit:4;stroke-dasharray:none"
       d="m 3.8183533,294.41358 c -0.01153,-0.046 -0.05516,-0.0941 -0.10115,-0.11156 -0.04448,-0.0169 -0.333161,-0.0307 -0.641519,-0.0307 h -0.560651 l 0.02088,-0.43533 c 0.01148,-0.23943 0.02088,-0.52629 0.02088,-0.63747 v -0.20214 h 5.896574 5.8965747 v 0.39361 c 0,0.21649 0.0093,0.50335 0.02061,0.63747 l 0.02061,0.24386 H 9.4994783 4.6077943 l -0.0693,0.0738 c -0.03812,0.0406 -0.0693,0.0908 -0.0693,0.11155 0,0.0266 -0.09345,0.0378 -0.315278,0.0378 -0.310888,0 -0.315561,-10e-4 -0.335561,-0.0808 z"
       id="path2413"
       inkscape:connector-curvature="0" />
    <path
       style="fill:#ffffff;stroke-width:0.00120466;stroke-miterlimit:4;stroke-dasharray:none"
       d="m 7.0190623,291.62579 v -0.86058 h 0.720561 c 0.643963,0 0.718505,0.005 0.701215,0.0504 -0.01064,0.0277 -0.01935,0.41499 -0.01935,0.86058 v 0.81017 h -0.701214 -0.701215 z"
       id="path2415"
       inkscape:connector-curvature="0" />
    <path
       style="fill:#ffffff;stroke-width:0.00120466;stroke-miterlimit:4;stroke-dasharray:none"
       d="m 8.9314653,291.75199 v -0.73438 l 2.4622177,0.009 2.462219,0.009 0.111557,0.0695 c 0.320518,0.19964 0.38248,0.35086 0.38248,0.93351 v 0.44725 H 11.640702 8.9314653 Z"
       id="path2417"
       inkscape:connector-curvature="0" />
    <path
       style="fill:#ffffff;stroke-width:0.00120466;stroke-miterlimit:4;stroke-dasharray:none"
       d="m 14.859913,293.18758 v -2.96422 h 0.318734 0.318734 v 2.96422 2.96423 h -0.318734 -0.318734 z"
       id="path2419"
       inkscape:connector-curvature="0" />
    <path
       style="fill:#ffffff;stroke-width:0.00120466;stroke-miterlimit:4;stroke-dasharray:none"
       d="m 7.6246563,287.97503 c -0.571,-0.17041 -1.049471,-0.45941 -1.441073,-0.87041 -0.275821,-0.28948 -0.432519,-0.5188 -0.602792,-0.88216 -0.177092,-0.3779 -0.251173,-0.69341 -0.273188,-1.16351 -0.02086,-0.4454 0.01246,-0.70687 0.137777,-1.08125 0.346846,-1.03616 1.093584,-1.75889 2.16334,-2.09379 0.267532,-0.0838 0.323368,-0.0898 0.828708,-0.0897 0.46694,1.2e-4 0.576586,0.0101 0.793138,0.0722 1.1666037,0.33435 1.9764767,1.1534 2.2902227,2.31617 0.100733,0.37332 0.100512,1.09589 -4.55e-4,1.4949 -0.141827,0.56048 -0.467386,1.11836 -0.883029,1.51318 -0.379794,0.36077 -0.7200477,0.56785 -1.2277367,0.74721 -0.259346,0.0916 -0.297484,0.0962 -0.892455,0.10686 -0.590202,0.0106 -0.635187,0.007 -0.892454,-0.0697 z m 1.230087,-2.3909 c 0.312309,-0.19308 0.430836,-0.54427 0.31257,-0.92613 -0.0492,-0.15887 -0.0608,-0.34318 -0.07529,-1.1969 l -0.01713,-1.00912 -0.09747,-0.12239 c -0.276942,-0.34774 -0.770906,-0.34831 -1.047065,-10e-4 -0.08991,0.113 -0.09727,0.14255 -0.109141,0.4382 -0.01002,0.2495 -0.0022,0.33318 0.03695,0.39285 0.0667,0.1018 0.189971,0.12893 0.308145,0.0678 0.103253,-0.0534 0.11448,-0.085 0.144551,-0.40673 0.01445,-0.15463 0.03514,-0.2231 0.07335,-0.24271 0.05959,-0.0306 0.136886,-0.0124 0.172252,0.0406 0.01288,0.0193 0.02364,0.37571 0.02391,0.79206 l 4.89e-4,0.75699 -0.07171,-4.4e-4 c -0.136032,-8.2e-4 -0.199362,-0.036 -0.247019,-0.13706 -0.108267,-0.22967 -0.363662,-0.18361 -0.443172,0.0799 -0.03066,0.10162 -0.06579,0.15398 -0.111557,0.16627 -0.03674,0.01 -0.253261,0.0187 -0.481156,0.0197 -0.535719,0.002 -0.661595,0.0278 -0.803143,0.16256 -0.1455,0.13849 -0.200995,0.2717 -0.200344,0.4809 6.64e-4,0.21315 0.09479,0.3865 0.280873,0.51728 l 0.137427,0.0966 0.71459,0.0257 c 0.513753,0.0184 0.743795,0.0388 0.818504,0.0725 0.175119,0.079 0.495271,0.0473 0.680597,-0.0673 z"
       id="path2421"
       inkscape:connector-curvature="0" />
    <path
       style="fill:#ffffff;stroke-width:0.00120466;stroke-miterlimit:4;stroke-dasharray:none"
       d="m 7.7814543,288.82223 c -1.17843,-0.21263 -2.257974,-1.00381 -2.828673,-2.07307 -0.296631,-0.55577 -0.43003,-1.118 -0.431064,-1.81678 -7.76e-4,-0.52465 0.05311,-0.86253 0.207281,-1.29963 0.613069,-1.73821 2.384189,-2.84929 4.181328,-2.62308 0.885429,0.11145 1.6136717,0.45758 2.2459177,1.06749 0.556545,0.53687 0.894229,1.09168 1.103047,1.81227 0.172631,0.59571 0.173327,1.4165 0.0018,2.06405 -0.101736,0.38396 -0.398759,0.99138 -0.647801,1.32476 -0.23477,0.31428 -0.645954,0.70853 -0.954274,0.91499 -0.331184,0.22176 -0.8460177,0.45805 -1.2067817,0.55387 -0.276419,0.0734 -0.38525,0.0844 -0.919139,0.0924 -0.333077,0.005 -0.671294,-0.003 -0.751593,-0.0172 z m 1.365145,-0.30448 c 1.4418987,-0.27352 2.5805287,-1.40783 2.8951577,-2.88416 0.069,-0.32376 0.07768,-1.02519 0.01655,-1.33727 -0.15259,-0.77899 -0.520326,-1.45978 -1.082474,-2.00401 -0.537653,-0.52051 -1.2072057,-0.85575 -1.9496207,-0.97615 -2.584154,-0.41908 -4.785931,2.01461 -4.112588,4.54577 0.217489,0.81755 0.777857,1.61343 1.471152,2.08944 0.361788,0.2484 0.946211,0.48903 1.378026,0.56738 0.322705,0.0585 1.072722,0.058 1.383799,-0.001 z"
       id="path2423"
       inkscape:connector-curvature="0" />
    <path
       style="fill:#ffffff;stroke-width:0.00120466;stroke-miterlimit:4;stroke-dasharray:none"
       d="m 6.8500733,285.06876 c -0.06072,-0.009 -0.09965,-0.0406 -0.121617,-0.0984 -0.02721,-0.0716 -0.02136,-0.0939 0.03706,-0.14116 0.05853,-0.0474 0.136043,-0.0562 0.496129,-0.0562 h 0.426759 v 0.15937 0.15937 l -0.374512,-0.005 c -0.205982,-0.003 -0.4147,-0.0108 -0.463818,-0.0182 z"
       id="path2425"
       inkscape:connector-curvature="0" />
    <path
       style="fill:#ffffff;stroke-width:0.00120466;stroke-miterlimit:4;stroke-dasharray:none"
       d="m 8.3226163,285.14648 c -0.09025,-0.0606 -0.109933,-0.0951 -0.118085,-0.20681 -0.02289,-0.31368 0.350633,-0.40358 0.486575,-0.1171 0.0639,0.13465 0.02452,0.24625 -0.117422,0.33279 -0.129103,0.0787 -0.120218,0.079 -0.251068,-0.009 z"
       id="path2427"
       inkscape:connector-curvature="0" />
  </g>
</svg>
