<?xml version="1.0" encoding="UTF-8" standalone="no"?>
<svg
   xmlns:dc="http://purl.org/dc/elements/1.1/"
   xmlns:cc="http://creativecommons.org/ns#"
   xmlns:rdf="http://www.w3.org/1999/02/22-rdf-syntax-ns#"
   xmlns:svg="http://www.w3.org/2000/svg"
   xmlns="http://www.w3.org/2000/svg"
   xmlns:sodipodi="http://sodipodi.sourceforge.net/DTD/sodipodi-0.dtd"
   xmlns:inkscape="http://www.inkscape.org/namespaces/inkscape"
   width="64"
   height="64"
   viewBox="0 0 16.933333 16.933333"
   version="1.1"
   id="svg8"
   sodipodi:docname="seren_bed_linen_change_64x64.svg"
   inkscape:version="1.0.2 (1.0.2+r75+1)">
  <defs
     id="defs2" />
  <sodipodi:namedview
     id="base"
     pagecolor="#ffffff"
     bordercolor="#666666"
     borderopacity="1.0"
     inkscape:pageopacity="0.0"
     inkscape:pageshadow="2"
     inkscape:zoom="8"
     inkscape:cx="57.883115"
     inkscape:cy="37.072354"
     inkscape:document-units="mm"
     inkscape:current-layer="layer1"
     inkscape:document-rotation="0"
     showgrid="false"
     inkscape:snap-global="false"
     fit-margin-top="0"
     fit-margin-left="0"
     fit-margin-right="0"
     fit-margin-bottom="0"
     inkscape:window-width="1366"
     inkscape:window-height="704"
     inkscape:window-x="0"
     inkscape:window-y="0"
     inkscape:window-maximized="0"
     units="px" />
  <metadata
     id="metadata5">
    <rdf:RDF>
      <cc:Work
         rdf:about="">
        <dc:format>image/svg+xml</dc:format>
        <dc:type
           rdf:resource="http://purl.org/dc/dcmitype/StillImage" />
        <dc:title />
      </cc:Work>
    </rdf:RDF>
  </metadata>
  <g
     inkscape:label="Calque 1"
     inkscape:groupmode="layer"
     id="layer1"
     transform="translate(-44.581036,-28.552681)">
    <text
       xml:space="preserve"
       style="font-style:normal;font-weight:normal;font-size:10.5833px;line-height:1.25;font-family:sans-serif;fill:#000000;fill-opacity:1;stroke:none;stroke-width:0.264583"
       x="51.724785"
       y="39.66518"
       id="text1411"><tspan
         sodipodi:role="line"
         id="tspan1409"
         x="51.724785"
         y="39.66518"
         style="stroke-width:0.264583" /></text>
    <path
       style="fill:#000000;stroke-width:0.0260669"
       d="m 47.521096,43.433239 c -1.210017,-0.176207 -2.222311,-1.017855 -2.605018,-2.165879 -0.146126,-0.43835 -0.20055,-0.945094 -0.147611,-1.374431 0.05036,-0.408387 0.934422,-4.497458 1.020765,-4.72135 0.231836,-0.601174 0.71813,-1.139274 1.288197,-1.425446 0.247963,-0.124473 0.503035,-0.206942 0.78311,-0.253192 0.233662,-0.03858 0.612167,-0.04205 3.791651,-0.03474 l 3.532076,0.0081 0.220883,0.06161 c 0.914845,0.255189 1.605625,0.885554 1.891502,1.726058 0.06017,0.176883 0.673881,3.109913 0.757569,3.620493 0.04728,0.2885 0.04601,0.491603 -0.0048,0.75958 -0.100743,0.531413 -0.388846,1.014547 -0.801439,1.34399 l -0.09986,0.07972 0.123174,0.04196 c 0.403474,0.137477 0.72536,0.526328 0.800942,0.967574 0.08042,0.469486 -0.191204,1.011955 -0.623078,1.244375 -0.292881,0.157619 -0.02992,0.150068 -5.119229,0.147012 -2.559125,-0.0016 -4.723102,-0.01301 -4.808834,-0.02549 z m 9.658617,-0.482003 c 0.173429,-0.08025 0.299721,-0.202693 0.38212,-0.370484 0.101834,-0.207373 0.102811,-0.47905 0.0023,-0.671096 -0.08235,-0.157421 -0.243139,-0.309181 -0.40878,-0.385771 L 57.035,41.468175 52.369009,41.454995 c -3.447955,-0.0098 -4.687796,-0.02108 -4.749528,-0.04346 -0.527135,-0.191007 -0.867289,-0.649297 -0.867289,-1.168499 0,-0.530915 0.36935,-1.01471 0.898695,-1.177153 0.149063,-0.04575 0.347513,-0.04799 4.23162,-0.04799 h 4.075223 l 0.06292,0.07314 c 0.07571,0.08801 0.08083,0.198724 0.01307,0.282396 l -0.04982,0.06154 -4.088308,0.01303 -4.088308,0.01303 -0.120491,0.05571 c -0.285694,0.1321 -0.492022,0.43197 -0.492063,0.715136 -3.3e-5,0.226579 0.06568,0.380487 0.234764,0.549734 0.250801,0.251064 -0.15528,0.230467 4.533687,0.22995 4.569965,-5.01e-4 4.297277,0.01 4.680809,-0.180252 0.449273,-0.222859 0.766865,-0.58984 0.915154,-1.057477 0.265733,-0.837988 -0.122914,-1.745294 -0.915154,-2.136439 -0.36502,-0.180218 -0.07084,-0.169678 -4.747829,-0.170104 -3.663906,-3.36e-4 -4.254145,0.0048 -4.434259,0.03904 -0.542738,0.102957 -0.998773,0.33774 -1.404384,0.723028 -1.10832,1.052798 -1.155188,2.769643 -0.106327,3.895275 0.415461,0.44587 1.047157,0.777405 1.649765,0.865847 0.08481,0.01244 2.248023,0.02106 4.807148,0.01915 l 4.65296,-0.0034 z M 46.169782,37.563638 c 0.387348,-0.257447 0.886193,-0.450283 1.327189,-0.513045 0.147798,-0.02103 1.422324,-0.02714 4.507122,-0.02157 l 4.301053,0.0078 0.182469,0.06132 c 0.256023,0.08603 0.521588,0.222204 0.697289,0.357547 0.08244,0.0635 0.149888,0.104175 0.149888,0.09039 0,-0.01378 -0.09429,-0.484872 -0.20953,-1.046848 -0.226835,-1.106172 -0.275383,-1.263092 -0.493274,-1.594428 -0.325757,-0.495354 -0.833651,-0.838581 -1.419969,-0.95959 -0.22383,-0.0462 -0.41706,-0.04878 -3.664098,-0.04891 -2.215296,-9.5e-5 -3.487745,0.0094 -3.597247,0.02658 -0.569229,0.0898 -1.096096,0.406627 -1.45396,0.874304 -0.107976,0.14111 -0.27659,0.461216 -0.328418,0.623488 -0.0403,0.126236 -0.563651,2.537311 -0.563651,2.59683 0,0.01624 0.08504,-0.05123 0.188987,-0.149948 0.103944,-0.09871 0.27321,-0.235457 0.37615,-0.303873 z m 0.437258,-1.620484 c -0.07932,-0.07932 -0.08172,-0.171069 -0.01008,-0.386495 0.158268,-0.475991 0.577624,-0.916293 1.037115,-1.088915 0.304813,-0.114513 0.472918,-0.128893 1.506658,-0.128893 0.997649,0 1.047735,0.0046 1.12256,0.102011 0.04793,0.06241 0.03962,0.197334 -0.0164,0.266557 l -0.0498,0.06155 -1.090636,0.01429 c -1.041934,0.01364 -1.097531,0.01684 -1.24496,0.07181 -0.431733,0.160943 -0.729597,0.465512 -0.853184,0.872395 -0.03051,0.100503 -0.07733,0.204547 -0.103986,0.231215 -0.07127,0.07127 -0.218206,0.06362 -0.297312,-0.01549 z m 4.223932,-1.219816 c -0.126616,-0.108918 -0.07253,-0.335464 0.08856,-0.370842 0.08739,-0.0192 0.221486,0.03766 0.247262,0.104823 0.08782,0.228865 -0.155206,0.421384 -0.335817,0.266019 z"
       id="path1536" />
    <path
       style="fill:#000000;stroke-width:0.0366574"
       d="m 59.762592,38.256034 c -0.241937,-0.07697 -0.703145,-0.221509 -1.024909,-0.321208 -0.321764,-0.0997 -0.600553,-0.205892 -0.619535,-0.235987 -0.02422,-0.03842 0.06159,-0.364736 0.288212,-1.095758 0.177505,-0.572573 0.337817,-1.070911 0.356252,-1.107418 0.07024,-0.139086 0.185867,-0.05752 0.348315,0.245708 0.08524,0.159116 0.165236,0.29933 0.177751,0.311586 0.03817,0.03735 0.369755,-0.348606 0.600599,-0.699008 0.119917,-0.182029 0.263078,-0.445773 0.318133,-0.586098 0.09389,-0.239295 0.105941,-0.253695 0.194215,-0.23192 0.05176,0.01278 0.107436,0.0362 0.123713,0.05206 0.04358,0.04247 -0.23766,0.627388 -0.466372,0.969863 -0.245667,0.367867 -0.700809,0.865638 -0.791506,0.865638 -0.04574,0 -0.114821,-0.0854 -0.214531,-0.26518 l -0.147078,-0.265178 -0.04113,0.108173 c -0.10414,0.273906 -0.480973,1.529938 -0.464082,1.54683 0.01043,0.01044 0.33764,0.118199 0.72712,0.239475 0.929936,0.289566 0.916492,0.285752 0.90273,0.25611 -0.0065,-0.0141 -0.07363,-0.144817 -0.149065,-0.290484 -0.07544,-0.145669 -0.137162,-0.274079 -0.137162,-0.285356 0,-0.01128 0.112579,-0.134209 0.250175,-0.273181 0.48579,-0.490631 0.802859,-1.052083 0.966008,-1.71057 0.141667,-0.571787 0.103009,-1.421863 -0.08968,-1.97165 l -0.05025,-0.143381 -0.06275,0.377886 c -0.03453,0.207835 -0.474088,1.561832 -0.310092,1.098841 0.01333,-0.03764 -0.07421,-0.109597 -0.100748,-0.152585 -0.01115,-0.01804 0.107318,-0.705036 0.129528,-0.812787 0.02236,-0.107751 0.06074,-0.408563 0.08526,-0.668469 0.04067,-0.431044 0.05117,-0.473505 0.119634,-0.483336 0.104842,-0.01505 0.175023,0.07583 0.319814,0.414177 0.443219,1.035719 0.413627,2.189528 -0.08189,3.193009 -0.197188,0.399321 -0.350501,0.6216 -0.652615,0.946186 -0.10585,0.11372 -0.192452,0.223829 -0.192452,0.244688 0,0.02087 0.0837,0.193198 0.186012,0.382978 0.293643,0.54471 0.241038,0.581327 -0.497601,0.346353 z m -2.08336,-4.936205 c -0.05244,-0.05244 -0.0159,-0.151654 0.159542,-0.433012 0.213036,-0.341684 0.238399,-0.310636 -0.331591,-0.405944 -0.816737,-0.136568 -1.683557,0.0063 -2.548709,0.420187 -0.359592,0.17201 -0.478333,0.213886 -0.516557,0.182162 -0.0784,-0.06507 -0.06024,-0.130496 0.103643,-0.373306 0.737749,-1.093049 2.083189,-1.750823 3.398466,-1.661483 0.323854,0.022 0.743856,0.09308 0.888133,0.150313 0.0455,0.01804 0.112535,-0.06306 0.28733,-0.347503 0.125404,-0.204068 0.251506,-0.380051 0.280228,-0.391073 0.08859,-0.034 0.155377,0.05804 0.19962,0.275076 0.02332,0.11438 0.131567,0.611104 0.240558,1.10383 0.108991,0.492727 0.189049,0.924595 0.177906,0.959709 -0.01117,0.03511 -0.07313,0.07475 -0.137737,0.08808 -0.228799,0.04721 -1.404814,0.313111 -1.701579,0.384735 -0.31379,0.07573 -0.457843,0.08965 -0.499259,0.04823 z M 58.913829,32.834 c 0.44007,-0.09919 0.809051,-0.189275 0.819954,-0.200182 0.02455,-0.02456 -0.316636,-1.605716 -0.355511,-1.64756 -0.01548,-0.01664 -0.0864,0.06584 -0.157644,0.183287 -0.207279,0.341752 -0.217075,0.348867 -0.394279,0.286344 -0.345351,-0.121845 -0.773313,-0.17329 -1.281525,-0.154048 -0.709054,0.02684 -1.208145,0.183294 -1.78568,0.559752 -0.314113,0.20475 -0.813077,0.655693 -0.77151,0.69726 0.01248,0.01249 0.126948,-0.01887 0.25437,-0.06967 0.548076,-0.218499 1.273378,-0.339181 1.844603,-0.306918 0.361507,0.02042 1.075612,0.147761 1.200524,0.214085 0.08732,0.04636 0.08056,0.136671 -0.02158,0.288737 -0.183347,0.272913 -0.214817,0.329262 -0.183881,0.329262 0.01763,0 0.392113,-0.08117 0.832181,-0.180352 z"
       id="path1575"
       sodipodi:nodetypes="sssssssssssssscssssssssscsscsssssssssssssssssssssssssssssssssssssssscs" />
    <path
       style="fill:#ffffff;stroke-width:0.125"
       d="m 16.508115,54.521575 -5.75,-0.07422 -1.1024659,-0.394363 C 6.1317786,52.792468 3.6012102,50.067251 2.6842171,46.545326 2.3339645,45.2001 2.3351928,43.070975 2.6870138,41.697354 3.4448356,38.738578 5.5595615,36.128222 8.258115,34.820549 10.464642,33.751303 8.930247,33.837784 26.50556,33.7921 c 9.421554,-0.02449 16.140116,0.0074 16.926659,0.08023 1.547363,0.143366 2.511941,0.562719 3.621222,1.574334 1.464549,1.335604 2.198864,2.984721 2.198864,4.938189 0,2.57144 -1.311056,4.6831 -3.680676,5.9283 -0.774438,0.406955 -1.060559,0.484265 -2.174065,0.587434 -0.753394,0.0698 -7.49109,0.103948 -16.335854,0.08279 -16.896657,-0.04043 -15.559993,0.04029 -16.389848,-0.989753 -0.7691025,-0.954634 -0.9171264,-1.862457 -0.466133,-2.858766 0.327266,-0.722976 0.784085,-1.200174 1.497464,-1.564266 l 0.570078,-0.290954 15.409749,-0.04114 15.40975,-0.04114 0.246614,-0.304597 c 0.273491,-0.337792 0.229936,-0.78653 -0.113309,-1.167388 -0.189943,-0.210757 -0.993943,-0.22024 -15.896511,-0.1875 l -15.696449,0.03448 -0.747274,0.366322 C 9.9324467,40.40604 9.0228421,41.315644 8.5941364,42.23038 8.2996409,42.85875 8.258115,43.10183 8.258115,44.197354 c 0,1.107004 0.03886,1.329124 0.339693,1.941666 0.4124324,0.839777 1.2618644,1.714063 2.135991,2.198491 l 0.649316,0.359843 10.1875,0.0791 c 5.603125,0.0435 13.635606,0.08569 17.849957,0.09375 8.507077,0.01627 7.98698,-0.03446 8.941595,0.872175 0.571647,0.542918 0.775165,0.906997 0.888465,1.589392 0.125507,0.755918 -0.133967,1.590574 -0.69131,2.223747 -0.949406,1.078583 0.170925,0.996191 -13.863707,1.019566 -6.840625,0.01139 -15.025,-0.01268 -18.1875,-0.05351 z"
       id="path836"
       transform="matrix(0.26458333,0,0,0.26458333,44.581036,28.552681)" />
    <path
       style="fill:#ffffff;stroke-width:0.125"
       d="M 4.0038019,35.363824 C 4.0412458,35.203515 4.3547196,33.750479 4.7004102,32.134854 6.2468309,24.90748 6.369502,24.573699 8.1262214,22.81342 9.24586,21.691513 10.025578,21.198555 11.508115,20.6753 l 1,-0.352946 h 13.75 13.75 l 1,0.352946 c 1.371821,0.484179 2.200104,0.982946 3.202195,1.928268 1.037276,0.978514 1.760352,2.092364 2.167016,3.338145 0.313926,0.961687 1.738633,7.689463 1.64763,7.780467 -0.0279,0.0279 -0.400599,-0.175416 -0.828226,-0.451806 -0.427628,-0.276389 -1.222783,-0.674243 -1.76701,-0.884119 l -0.989505,-0.381594 -17.02855,0.03385 -17.02855,0.03385 -1.375,0.473765 C 7.3778099,33.107858 6.0937315,33.82939 4.8469185,34.88433 4.1032761,35.513531 3.9482408,35.601703 4.0038019,35.363831 Z m 4.719285,-7.26022 C 8.8332267,28.017666 9.1042152,27.50694 9.3252837,26.968657 9.8523269,25.68535 10.742428,24.706976 11.909913,24.127703 l 0.848202,-0.420853 4.227895,-0.08086 c 4.605064,-0.08807 4.506765,-0.07069 4.657336,-0.823542 0.05921,-0.296055 0.01742,-0.452448 -0.171354,-0.641219 -0.211615,-0.211615 -0.4923,-0.263659 -1.841762,-0.341493 -2.098453,-0.121034 -6.53212,0.03982 -7.426454,0.269427 -2.118318,0.543856 -3.9943504,2.319387 -4.6320019,4.383863 -0.3184614,1.031058 -0.3155372,1.10881 0.055659,1.480007 0.3345583,0.334558 0.7811849,0.395935 1.0956538,0.150568 z m 16.0912781,-4.78769 c 0.09969,-0.09762 0.18125,-0.381758 0.18125,-0.631421 0,-0.530208 -0.284816,-0.799639 -0.845299,-0.799639 -0.504667,0 -0.829701,0.322331 -0.829701,0.822801 0,0.777975 0.932622,1.157742 1.49375,0.608259 z"
       id="path838"
       transform="matrix(0.26458333,0,0,0.26458333,44.581036,28.552681)" />
    <path
       style="fill:#ffffff;stroke-width:0.125"
       d="m 57.570615,35.634635 c -0.171875,-0.05802 -1.423438,-0.457184 -2.78125,-0.88704 -1.357813,-0.429856 -2.46875,-0.827009 -2.46875,-0.88256 0,-0.163292 1.63349,-5.517551 1.743016,-5.713263 0.07376,-0.131804 0.191466,-0.01823 0.449237,0.433492 0.45375,0.795149 0.798842,1.17459 1.068262,1.17459 0.30436,0 2.13337,-1.990253 2.929261,-3.1875 0.742534,-1.116984 1.810224,-3.232972 1.810224,-3.58757 0,-0.126893 0.196583,-0.894434 0.436852,-1.705647 0.240268,-0.811212 0.473348,-1.741205 0.517956,-2.066651 0.110501,-0.806196 0.260144,-0.593933 0.538252,0.763494 0.676024,3.299629 0.351795,6.221638 -0.990398,8.925637 -0.66032,1.330288 -1.298039,2.232864 -2.540905,3.596191 l -1.070719,1.174493 0.491981,0.978502 c 0.27059,0.538176 0.491981,1.007875 0.491981,1.043776 0,0.08997 -0.252656,0.06574 -0.625,-0.05994 z"
       id="path840"
       transform="matrix(0.26458333,0,0,0.26458333,44.581036,28.552681)" />
    <path
       style="fill:#ffffff;stroke-width:0.125"
       d="m 51.571908,15.992692 c 0.581598,-0.899846 0.614381,-1.333522 0.118672,-1.569921 -0.174643,-0.08329 -0.990268,-0.279238 -1.8125,-0.435448 -1.182289,-0.224616 -1.913271,-0.282438 -3.494965,-0.276457 -2.216573,0.0084 -3.585825,0.232715 -5.615244,0.919985 -0.613384,0.207725 -1.147759,0.344067 -1.1875,0.302983 -0.08656,-0.08949 0.989077,-1.070546 2.115244,-1.929255 1.094053,-0.834222 3.092386,-1.820258 4.301872,-2.12267 2.317796,-0.579526 5.162374,-0.572531 7.351202,0.01808 0.534021,0.144094 1.053363,0.230363 1.154096,0.191708 0.100732,-0.03866 0.450891,-0.472928 0.778131,-0.965051 l 0.594981,-0.8947687 0.219677,0.8577387 c 0.120821,0.471756 0.424243,1.834786 0.674271,3.028954 0.340566,1.62659 0.417114,2.194381 0.305164,2.263569 -0.122852,0.07593 -4.088929,1.007416 -5.602448,1.315815 l -0.410555,0.08366 z"
       id="path842"
       transform="matrix(0.26458333,0,0,0.26458333,44.581036,28.552681)" />
  </g>
</svg>
