<?xml version="1.0" encoding="UTF-8" standalone="no"?>
<!-- Created with Inkscape (http://www.inkscape.org/) -->

<svg
   xmlns:dc="http://purl.org/dc/elements/1.1/"
   xmlns:cc="http://creativecommons.org/ns#"
   xmlns:rdf="http://www.w3.org/1999/02/22-rdf-syntax-ns#"
   xmlns:svg="http://www.w3.org/2000/svg"
   xmlns="http://www.w3.org/2000/svg"
   xmlns:sodipodi="http://sodipodi.sourceforge.net/DTD/sodipodi-0.dtd"
   xmlns:inkscape="http://www.inkscape.org/namespaces/inkscape"
   width="64"
   height="64"
   viewBox="0 0 16.933333 16.933333"
   version="1.1"
   id="svg8"
   inkscape:version="0.92.5 (2060ec1f9f, 2020-04-08)"
   sodipodi:docname="bed_fence_left_64x64.svg">
  <defs
     id="defs2" />
  <sodipodi:namedview
     id="base"
     pagecolor="#ffffff"
     bordercolor="#666666"
     borderopacity="1.0"
     inkscape:pageopacity="0.0"
     inkscape:pageshadow="2"
     inkscape:zoom="7.9195959"
     inkscape:cx="44.733091"
     inkscape:cy="21.372684"
     inkscape:document-units="mm"
     inkscape:current-layer="layer1"
     showgrid="false"
     units="px"
     inkscape:window-width="1208"
     inkscape:window-height="987"
     inkscape:window-x="1992"
     inkscape:window-y="0"
     inkscape:window-maximized="1"
     showguides="false" />
  <metadata
     id="metadata5">
    <rdf:RDF>
      <cc:Work
         rdf:about="">
        <dc:format>image/svg+xml</dc:format>
        <dc:type
           rdf:resource="http://purl.org/dc/dcmitype/StillImage" />
        <dc:title></dc:title>
      </cc:Work>
    </rdf:RDF>
  </metadata>
  <g
     inkscape:label="Layer 1"
     inkscape:groupmode="layer"
     id="layer1"
     transform="translate(0,-280.06667)">
    <path
       style="fill:#000000;stroke-width:0.01641826"
       d="m 5.6276014,288.95035 c -0.365627,-0.0814 -0.671632,-0.39238 -0.747643,-0.75989 -0.02077,-0.10043 -0.02406,-0.27448 -0.02029,-1.0754 0.0042,-0.89905 0.0063,-0.95927 0.03553,-1.01807 0.06393,-0.1287 0.224804,-0.19958 0.366803,-0.1616 0.099,0.0265 0.172035,0.0823 0.211425,0.1616 0.02909,0.0586 0.03156,0.12364 0.03925,1.03389 l 0.0082,0.97138 0.04926,0.0699 c 0.02709,0.0385 0.08182,0.0871 0.121615,0.10812 0.06816,0.036 0.0899,0.0382 0.37433,0.0382 0.386451,0 0.411215,-0.0113 0.437364,-0.20029 0.02796,-0.20206 0.210644,-0.32904 0.400377,-0.27829 0.173493,0.0464 0.243841,0.15058 0.240012,0.35544 -0.0061,0.32765 -0.219211,0.61465 -0.545814,0.73512 -0.08159,0.0301 -0.135859,0.0345 -0.477872,0.0388 -0.291291,0.004 -0.411978,-9.8e-4 -0.492548,-0.0189 z m 4.368031,0.003 c -0.07722,-0.0246 -0.16969,-0.1211 -0.194083,-0.20252 -0.03167,-0.10571 -0.02778,-1.79723 0.0045,-1.95147 0.08101,-0.3872 0.4008886,-0.70707 0.7880866,-0.78809 0.520864,-0.10898 1.027129,0.19026 1.208315,0.71421 0.03021,0.0874 0.03694,0.14244 0.03711,0.30374 1.74e-4,0.16988 -0.0058,0.21528 -0.04369,0.32965 -0.05439,0.16434 -0.149476,0.31373 -0.279319,0.43882 l -0.09945,0.0958 0.06845,0.13428 c 0.03765,0.0739 0.114761,0.22294 0.171368,0.3313 0.09012,0.17251 0.1029,0.20826 0.10275,0.28732 -3.04e-4,0.16235 -0.08508,0.27235 -0.242295,0.3144 -0.06266,0.0168 -0.09272,0.0168 -0.155379,0 -0.138427,-0.037 -0.163673,-0.069 -0.382987,-0.48532 l -0.204037,-0.3873 h -0.1684 -0.1684 v 0.29773 c 0,0.33973 -0.0131,0.40494 -0.09851,0.49035 -0.08922,0.0892 -0.216491,0.11774 -0.3440086,0.0771 z m 0.9249526,-1.54185 c 0.09018,-0.0266 0.226194,-0.16266 0.252839,-0.25284 0.0553,-0.18716 -0.02772,-0.38852 -0.196083,-0.47558 -0.132884,-0.0687 -0.316432,-0.0414 -0.423907,0.0632 -0.09933,0.0966 -0.114518,0.15408 -0.114923,0.4348 l -3.6e-4,0.25038 h 0.207428 c 0.114869,0 0.237583,-0.009 0.275006,-0.02 z m -4.7511816,-2.10536 c -0.120832,-0.0311 -0.205745,-0.0681 -0.295158,-0.12839 -0.105539,-0.0712 -1.318954,-1.28088 -1.403684,-1.39935 -0.09612,-0.13439 -0.164213,-0.27486 -0.216509,-0.44663 -0.03902,-0.12817 -0.04397,-0.17123 -0.04397,-0.38249 0,-0.21126 0.005,-0.25433 0.04397,-0.38249 0.05222,-0.17154 0.120274,-0.31201 0.216365,-0.44663 0.03867,-0.0542 0.361036,-0.387 0.716363,-0.73959 0.707787,-0.70233 0.742325,-0.72977 0.992692,-0.78875 0.371728,-0.0876 0.785246,0.11149 0.957193,0.46076 0.07487,0.15209 0.09941,0.28251 0.09968,0.52988 l 2.42e-4,0.21754 h 0.273101 c 0.313972,0 0.381601,0.0144 0.466467,0.0993 0.142847,0.14284 0.119609,0.38107 -0.04877,0.50001 l -0.06973,0.0493 h -0.530765 -0.530765 l -0.06973,-0.0493 c -0.12971,-0.0916 -0.137181,-0.12218 -0.146536,-0.59927 -0.0054,-0.273 -0.01483,-0.43009 -0.02722,-0.4515 -0.05838,-0.10081 -0.186854,-0.15007 -0.272398,-0.10444 -0.02305,0.0123 -0.322266,0.2994 -0.664927,0.63803 -0.543199,0.5368 -0.629514,0.6289 -0.673715,0.7188 -0.132423,0.26935 -0.106846,0.56715 0.06902,0.80358 0.07554,0.10156 1.208584,1.21772 1.268535,1.24963 0.08697,0.0463 0.219336,-10e-4 0.270712,-0.0969 0.02689,-0.0501 0.03,-0.10095 0.03,-0.48937 0,-0.48544 0.0079,-0.53541 0.09851,-0.62605 0.09128,-0.0913 0.138876,-0.0985 0.648521,-0.0985 0.510345,0 0.55717,0.007 0.649268,0.0992 0.142825,0.14283 0.119615,0.38102 -0.04872,0.50001 l -0.06968,0.0493 -0.310584,0.005 -0.310584,0.005 -2.42e-4,0.26552 c -1.62e-4,0.17937 -0.0083,0.29986 -0.02519,0.37136 -0.09309,0.39497 -0.413013,0.66419 -0.811897,0.68325 -0.08823,0.004 -0.172763,-0.002 -0.229856,-0.0166 z m 4.1127736,0.008 c -0.3414046,-0.0742 -0.5964306,-0.3172 -0.6813406,-0.64919 -0.02625,-0.10262 -0.03285,-0.18215 -0.03285,-0.39545 v -0.267 l -0.310584,-0.005 -0.310584,-0.005 -0.06968,-0.0492 c -0.168337,-0.119 -0.191547,-0.35719 -0.04872,-0.50001 0.0921,-0.0921 0.138924,-0.0993 0.649269,-0.0993 0.509645,0 0.5572406,0.007 0.6485206,0.0985 0.09065,0.0906 0.09851,0.14061 0.09851,0.62606 0,0.38842 0.0031,0.43924 0.03,0.48937 0.05198,0.0969 0.189468,0.14421 0.275751,0.0948 0.06255,-0.0358 1.191244,-1.15021 1.263595,-1.24762 0.175749,-0.23661 0.201289,-0.53411 0.06899,-0.80357 -0.04417,-0.09 -0.130048,-0.1816 -0.673689,-0.7188 -0.342684,-0.33863 -0.641931,-0.62575 -0.664995,-0.63804 -0.06841,-0.0365 -0.164084,-0.0142 -0.232491,0.0542 l -0.05895,0.0589 -0.0082,0.43075 c -0.0093,0.49063 -0.01622,0.51929 -0.146536,0.61134 l -0.06973,0.0493 H 9.4776984 8.9469334 l -0.06973,-0.0493 c -0.168382,-0.11894 -0.19162,-0.35716 -0.04877,-0.50001 0.08487,-0.0849 0.152496,-0.0993 0.466468,-0.0993 h 0.273101 l 2.42e-4,-0.21754 c 2.73e-4,-0.24737 0.02481,-0.37779 0.09968,-0.52987 0.171947,-0.34928 0.5854646,-0.54833 0.9571926,-0.46077 0.250368,0.059 0.284905,0.0864 0.992693,0.78876 0.355327,0.35259 0.67769,0.6854 0.716363,0.73958 0.09609,0.13462 0.164142,0.2751 0.216364,0.44663 0.03902,0.12817 0.04397,0.17123 0.04397,0.38249 0,0.21126 -0.005,0.25433 -0.04397,0.38249 -0.05234,0.17191 -0.120456,0.31238 -0.216591,0.44663 -0.08685,0.1213 -1.29958,1.32955 -1.407166,1.40198 -0.173393,0.11673 -0.45466,0.17514 -0.644587,0.13386 z"
       id="path2494"
       inkscape:connector-curvature="0" />
    <path
       style="fill:#000000;stroke-width:0.02174493"
       d="m 3.4265891,296.73209 -0.057358,-0.0451 -7.77e-5,-3.8201 -9.33e-5,-3.82009 -0.1019703,-0.042 c -0.1350789,-0.0555 -0.2576448,-0.16925 -0.3283864,-0.30456 -0.1254416,-0.24008 -0.054093,-0.59055 0.1548201,-0.75933 0.1209337,-0.0977 0.1664004,-0.11954 0.3022255,-0.14534 0.3300808,-0.0626 0.6669699,0.16432 0.7357374,0.49557 0.060001,0.28911 -0.092955,0.58867 -0.359708,0.70411 l -0.1190684,0.0516 -4.042e-4,0.20114 -4.041e-4,0.20115 h 4.7838775 4.7838918 l -9.3e-5,-0.20115 -7.8e-5,-0.20114 -0.09513,-0.039 c -0.202013,-0.083 -0.361714,-0.28757 -0.395599,-0.5066 -0.03404,-0.21986 0.08658,-0.47939 0.282219,-0.60705 0.327019,-0.21347 0.749385,-0.1009 0.919284,0.24513 0.08565,0.17429 0.08658,0.40036 0.0031,0.56107 -0.07073,0.13523 -0.193322,0.249 -0.328386,0.30455 l -0.102121,0.042 -7.9e-5,3.82009 -9.3e-5,3.82009 -0.05736,0.0451 c -0.05114,0.0403 -0.08689,0.0451 -0.338009,0.0451 -0.26907,0 -0.28295,-0.001 -0.334106,-0.0533 -0.05269,-0.0525 -0.05332,-0.0588 -0.05332,-0.4349 v -0.38152 H 8.4361371 4.1523782 v 0.38152 c 0,0.37609 -7.307e-4,0.38229 -0.053317,0.4349 -0.05114,0.0512 -0.064975,0.0533 -0.3341223,0.0533 -0.2510853,0 -0.2867901,-0.005 -0.3380238,-0.0451 z m 0.4428383,-0.6242 c 0,-0.31467 0.00622,-0.39554 0.033887,-0.43489 l 0.033887,-0.0483 h 4.498734 4.4987346 l 0.03389,0.0483 c 0.02751,0.0393 0.03389,0.12016 0.03389,0.43489 v 0.38657 h 0.108658 0.108806 v -3.38134 -3.38133 H 8.4360127 3.6521352 v 3.38133 3.38134 h 0.108654 0.1088094 z m 0.108654,-1.04218 c -0.017876,-0.006 -0.049742,-0.027 -0.070726,-0.0453 -0.035751,-0.0312 -0.038084,-0.17348 -0.038084,-2.41083 0,-2.34871 4.974e-4,-2.37823 0.043524,-2.42119 0.043213,-0.0432 0.072436,-0.0436 4.5229373,-0.0436 4.4504703,0 4.4797403,2.5e-4 4.5229533,0.0436 0.0429,0.0429 0.04352,0.0724 0.04352,2.42119 v 2.37769 l -0.0457,0.0415 c -0.04461,0.0404 -0.15311,0.0415 -4.495766,0.0453 -2.4474934,10e-4 -4.4646622,-0.001 -4.4826157,-0.008 z m 0.6958509,-2.45272 v -2.18536 H 4.4129919 4.1520517 v 2.18536 2.18537 h 0.2609402 0.2609403 z m 1.1959695,0 v -2.18536 H 5.4132602 4.9566031 v 2.18536 2.18537 h 0.4566571 0.4566415 z m 1.2177159,0 v -2.18536 H 6.6200952 6.1525883 v 2.17087 c 0,1.19398 0.00622,2.1774 0.01399,2.18536 0.00777,0.008 0.2183647,0.014 0.4675224,0.014 h 0.4530197 z m 1.2123836,-0.005 0.00622,-2.17993 H 7.8386032 7.3709875 v 2.18579 2.18581 l 0.4620663,-0.006 0.462082,-0.006 z m 1.2013009,0.005 v -2.18536 H 9.0337799 8.566273 v 2.17087 c 0,1.19398 0.00622,2.1774 0.013989,2.18536 0.00777,0.008 0.2183647,0.014 0.4675224,0.014 h 0.4530205 z m 1.2123838,-0.005 0.0062,-2.17993 H 10.252271 9.7846555 v 2.18579 2.18581 l 0.4620815,-0.006 0.462067,-0.006 z m 1.201301,0.005 v -2.18536 h -0.456641 -0.456642 v 2.18536 2.18537 h 0.456642 0.456641 z m 0.804567,0 v -2.18536 h -0.260941 -0.26094 v 2.18536 2.18537 h 0.26094 0.260941 z m -9.0441802,-3.88234 c 0.2032247,-0.10374 0.2520957,-0.36331 0.100882,-0.53558 -0.1252861,-0.14269 -0.2696449,-0.17216 -0.4295945,-0.0875 -0.1088095,0.0575 -0.1948309,0.19569 -0.1948309,0.31299 0,0.13431 0.1102089,0.29037 0.2391939,0.33882 0.070881,0.0268 0.2017946,0.014 0.2843964,-0.0287 z m 9.8892712,-0.0188 c 0.08471,-0.0603 0.15513,-0.19265 0.15513,-0.29139 0,-0.11735 -0.08596,-0.25544 -0.194846,-0.31299 -0.159483,-0.0844 -0.304293,-0.0552 -0.428584,0.0864 -0.110054,0.12544 -0.120623,0.27365 -0.02985,0.42246 0.09513,0.15598 0.345641,0.20403 0.498036,0.0954 z"
       id="path2558"
       inkscape:connector-curvature="0" />
    <path
       style="fill:#ffffff;stroke-width:0.00477237;stroke-miterlimit:4;stroke-dasharray:none"
       d="m 21.220012,14.7913 c -2.405958,-2.420573 -2.549786,-2.592306 -2.696674,-3.219862 -0.12247,-0.523234 -0.122618,-0.80259 -7.01e-4,-1.325825 0.146227,-0.6275691 0.289738,-0.7992368 2.691751,-3.2198611 2.579023,-2.5990049 2.794558,-2.7549592 3.298351,-2.3865771 0.200196,0.1463874 0.243933,0.4208442 0.310683,1.9495994 0.07205,1.6502128 0.09971,1.8026667 0.381358,2.1024717 0.301763,0.321212 0.316629,0.3232438 2.365101,0.3232438 h 2.061429 l -7.1e-5,1.6730653 -7.1e-5,1.673065 H 27.600499 25.56983 l -0.368372,0.412367 -0.368373,0.412366 V 14.9341 c 0,1.577963 -0.02556,1.781238 -0.261702,2.081447 -0.143937,0.182985 -0.385039,0.332701 -0.535782,0.332701 -0.188565,0 -1.067043,-0.79778 -2.815589,-2.556948 z"
       id="path2564"
       inkscape:connector-curvature="0"
       transform="matrix(0.26458333,0,0,0.26458333,0,280.06667)" />
    <path
       style="fill:#ffffff;stroke-width:0.00477237;stroke-miterlimit:4;stroke-dasharray:none"
       d="m 39.498239,26.844664 c 0.03573,-0.786857 0.106523,-1.10048 0.31038,-1.375104 0.63797,-0.859434 1.956735,-0.615783 2.317637,0.428198 0.164806,0.476733 0.16207,0.576807 -0.02658,0.972405 -0.293341,0.615143 -0.645918,0.800685 -1.718105,0.904141 l -0.929625,0.0897 z"
       id="path2568"
       inkscape:connector-curvature="0"
       transform="matrix(0.26458333,0,0,0.26458333,0,280.06667)" />
    <path
       style="fill:#ffffff;stroke-width:0.00477237;stroke-miterlimit:4;stroke-dasharray:none"
       d="m 50.089496,32.738423 c -1.123471,-0.448251 -1.140411,-1.802894 -0.02914,-2.330226 0.650489,-0.308678 1.346166,0.04619 1.648271,0.840781 0.189438,0.498261 -0.212024,1.301874 -0.742817,1.48691 -0.476941,0.166262 -0.466035,0.166231 -0.876313,0.0025 z"
       id="path2570"
       inkscape:connector-curvature="0"
       transform="matrix(0.26458333,0,0,0.26458333,0,280.06667)" />
    <path
       style="fill:#ffffff;stroke-width:0.00477237;stroke-miterlimit:4;stroke-dasharray:none"
       d="m 12.74362,32.754214 c -0.322477,-0.135089 -0.788802,-0.832775 -0.789508,-1.181213 -0.0014,-0.670727 0.931893,-1.433026 1.561068,-1.275113 0.661643,0.166062 1.124082,0.984539 0.940921,1.665348 -0.175169,0.651103 -1.06512,1.062162 -1.712481,0.790978 z"
       id="path2572"
       inkscape:connector-curvature="0"
       transform="matrix(0.26458333,0,0,0.26458333,0,280.06667)" />
    <path
       style="fill:#ffffff;stroke-width:0.00477237;stroke-miterlimit:4;stroke-dasharray:none"
       d="M 13.847676,49.294323 V 36.541147 H 31.904153 49.96063 v 12.753176 12.753175 h -0.378807 -0.378807 v -1.39726 c 0,-0.768494 -0.05882,-1.507168 -0.130712,-1.641498 -0.128242,-0.239623 -0.453577,-0.244237 -17.222218,-0.244237 -15.468737,0 -17.098784,0.01896 -17.168151,0.199731 -0.04215,0.109851 -0.07664,0.848525 -0.07664,1.641498 v 1.441766 H 14.226488 13.84768 Z m 35.034672,7.325505 0.327119,-0.12437 -0.03479,-9.082804 c -0.01914,-4.995542 -0.08214,-9.13013 -0.140002,-9.187974 -0.161598,-0.161536 -33.881756,-0.199961 -34.182604,-0.03895 -0.241336,0.129159 -0.246776,0.331831 -0.246776,9.193747 0,6.879612 0.03649,9.098164 0.151523,9.2132 0.195417,0.195416 33.61303,0.222006 34.125534,0.02715 z"
       id="path2574"
       inkscape:connector-curvature="0"
       transform="matrix(0.26458333,0,0,0.26458333,0,280.06667)" />
  </g>
</svg>
