<?xml version="1.0" encoding="UTF-8" standalone="no"?>
<!-- Created with Inkscape (http://www.inkscape.org/) -->

<svg
   xmlns:dc="http://purl.org/dc/elements/1.1/"
   xmlns:cc="http://creativecommons.org/ns#"
   xmlns:rdf="http://www.w3.org/1999/02/22-rdf-syntax-ns#"
   xmlns:svg="http://www.w3.org/2000/svg"
   xmlns="http://www.w3.org/2000/svg"
   xmlns:sodipodi="http://sodipodi.sourceforge.net/DTD/sodipodi-0.dtd"
   xmlns:inkscape="http://www.inkscape.org/namespaces/inkscape"
   width="64"
   height="64"
   viewBox="0 0 16.933333 16.933333"
   version="1.1"
   id="svg8"
   inkscape:version="0.92.5 (2060ec1f9f, 2020-04-08)"
   sodipodi:docname="bell_64x64.svg">
  <defs
     id="defs2" />
  <sodipodi:namedview
     id="base"
     pagecolor="#ffffff"
     bordercolor="#666666"
     borderopacity="1.0"
     inkscape:pageopacity="0.0"
     inkscape:pageshadow="2"
     inkscape:zoom="3.959798"
     inkscape:cx="19.990933"
     inkscape:cy="2.0912004"
     inkscape:document-units="mm"
     inkscape:current-layer="layer1"
     showgrid="false"
     units="px"
     inkscape:window-width="1208"
     inkscape:window-height="987"
     inkscape:window-x="1992"
     inkscape:window-y="0"
     inkscape:window-maximized="1"
     showguides="false" />
  <metadata
     id="metadata5">
    <rdf:RDF>
      <cc:Work
         rdf:about="">
        <dc:format>image/svg+xml</dc:format>
        <dc:type
           rdf:resource="http://purl.org/dc/dcmitype/StillImage" />
        <dc:title></dc:title>
      </cc:Work>
    </rdf:RDF>
  </metadata>
  <g
     inkscape:label="Layer 1"
     inkscape:groupmode="layer"
     id="layer1"
     transform="translate(0,-280.06667)">
    <path
       style="fill:#000000;stroke-width:0.03116396"
       d="m 8.2465339,295.69637 c -0.698686,-0.0751 -1.37479,-0.602 -1.60166,-1.24831 -0.04619,-0.13158 0.02946,-0.11248 -0.77379,-0.19533 -1.271254,-0.13112 -2.32685,-0.40421 -2.843207,-0.73555 -0.232252,-0.14904 -0.423864,-0.38027 -0.482637,-0.58245 -0.101503,-0.34916 0.0019,-0.69042 0.399592,-1.31829 0.33697,-0.53206 0.429031,-0.71479 0.565285,-1.12204 0.23082,-0.68989 0.294124,-1.23556 0.330944,-2.85265 0.02373,-1.04218 0.03669,-1.25392 0.09269,-1.5139 0.235134,-1.09174 0.851165,-2.06516 1.734983,-2.74155 0.369286,-0.28261 0.975094,-0.60461 1.339294,-0.71186 l 0.127142,-0.0374 0.03449,-0.29477 c 0.04377,-0.37402 0.154521,-0.6184 0.384491,-0.84837 0.513569,-0.51356 1.3497806,-0.51356 1.8633496,0 0.22997,0.22997 0.340723,0.47435 0.384491,0.84837 l 0.03449,0.29477 0.127142,0.0374 c 0.3641995,0.10725 0.9700075,0.42925 1.3392935,0.71186 0.883818,0.67639 1.499849,1.64981 1.734983,2.74155 0.05599,0.25998 0.06896,0.47172 0.09269,1.5139 0.03682,1.61709 0.100125,2.16276 0.330945,2.85265 0.136254,0.40725 0.228315,0.58998 0.565285,1.12204 0.397653,0.62787 0.501095,0.96913 0.399592,1.31829 -0.05877,0.20218 -0.250385,0.43341 -0.482638,0.58245 -0.516356,0.33134 -1.571952,0.60443 -2.843207,0.73555 -0.814485,0.084 -0.725692,0.0582 -0.786808,0.22821 -0.144183,0.40096 -0.5332685,0.81751 -0.9580975,1.02573 -0.354045,0.17353 -0.703409,0.23328 -1.1091306,0.1897 z m 0.6153956,-0.69914 c 0.0931,-0.0273 0.218351,-0.0795 0.278341,-0.11588 0.147639,-0.0895 0.401272,-0.32866 0.45137,-0.42554 l 0.0408,-0.0789 H 8.4858315 7.3392229 l 0.04102,0.0779 c 0.04743,0.0901 0.263641,0.30074 0.415299,0.40462 0.255354,0.17491 0.7308226,0.23634 1.0663946,0.13778 z m 1.1820955,-1.32335 c 1.732408,-0.10298 3.239273,-0.41758 3.633874,-0.75869 0.105149,-0.0909 0.118786,-0.11856 0.11427,-0.23181 -0.0069,-0.17214 -0.09444,-0.3609 -0.34927,-0.75283 -0.518332,-0.79719 -0.761933,-1.49775 -0.893997,-2.57103 -0.02808,-0.22821 -0.05206,-0.78693 -0.06152,-1.43354 -0.0085,-0.58277 -0.02967,-1.17878 -0.04697,-1.32447 -0.177726,-1.49633 -1.197988,-2.766 -2.6384105,-3.2834 -0.804349,-0.28891 -1.8279866,-0.28891 -2.6323356,0 -1.440423,0.5174 -2.460685,1.78707 -2.638411,3.2834 -0.0173,0.14569 -0.03844,0.7417 -0.04697,1.32447 -0.0095,0.64661 -0.03344,1.20533 -0.06152,1.43354 -0.132064,1.07328 -0.375665,1.77384 -0.893997,2.57103 -0.254832,0.39193 -0.342406,0.58069 -0.34927,0.75283 -0.0045,0.11325 0.0091,0.14092 0.11427,0.23181 0.467595,0.40421 2.395844,0.7443 4.553211,0.80306 0.4940936,0.0135 1.5997896,-0.009 2.1970581,-0.0444 z M 8.4858275,282.4419 c 0.265673,0 0.523461,0.0111 0.572864,0.0246 l 0.08982,0.0246 -0.01443,-0.15014 c -0.0173,-0.18003 -0.132748,-0.3665 -0.294963,-0.47639 -0.09784,-0.0663 -0.150556,-0.0779 -0.353296,-0.0779 -0.2027396,0 -0.2554556,0.0116 -0.3532956,0.0779 -0.162215,0.10989 -0.277664,0.29636 -0.294963,0.47639 l -0.01443,0.15014 0.08982,-0.0246 c 0.0494,-0.0135 0.307191,-0.0246 0.5728636,-0.0246 z m -7.4067776,8.57184 c -0.12362605,-0.0553 -0.15167805,-0.10815 -0.26170005,-0.49307 -0.211444,-0.73976 -0.288899,-1.3059 -0.288899,-2.11165 0,-0.80575 0.07746,-1.37189 0.288899,-2.11165 0.111019,-0.38841 0.130224,-0.42353 0.26714605,-0.4885 0.136607,-0.0648 0.291644,-0.0258 0.388953,0.0979 0.08306,0.10559 0.07929,0.24915 -0.01448,0.55102 -0.182121,0.58632 -0.272471,1.23334 -0.272471,1.95122 0,0.71932 0.08898,1.35527 0.272524,1.94775 0.10259,0.33115 0.100753,0.45625 -0.0085,0.57612 -0.102214,0.11218 -0.23625,0.14135 -0.371513,0.0808 z m 14.5554191,0.0137 c -0.10767,-0.0435 -0.199079,-0.18523 -0.199074,-0.30867 2e-6,-0.062 0.03476,-0.22485 0.07724,-0.36197 0.183544,-0.59248 0.272524,-1.22843 0.272524,-1.94775 0,-0.71932 -0.08898,-1.35527 -0.272524,-1.94775 -0.09955,-0.32135 -0.09954,-0.45176 6.2e-5,-0.57012 0.09874,-0.11735 0.238357,-0.14687 0.378978,-0.0801 0.132114,0.0627 0.152138,0.0998 0.262637,0.48636 0.211444,0.73976 0.288899,1.3059 0.288899,2.11165 0,0.80575 -0.07746,1.37189 -0.288899,2.11165 -0.111277,0.38931 -0.138173,0.43871 -0.268545,0.49318 -0.118739,0.0496 -0.156967,0.0517 -0.251291,0.0136 z M 2.2688319,290.55157 c -0.12486,-0.10786 -0.285261,-0.69578 -0.375688,-1.37702 -0.08036,-0.60542 -0.04792,-1.42553 0.08084,-2.04322 0.05862,-0.28121 0.191369,-0.72768 0.237179,-0.79767 0.09872,-0.15084 0.329819,-0.17939 0.473489,-0.0585 0.1354,0.11393 0.146599,0.21839 0.05749,0.53624 -0.232522,0.8294 -0.289971,1.49166 -0.195467,2.25328 0.04709,0.37948 0.07366,0.50753 0.195467,0.94202 0.08911,0.31785 0.07791,0.42231 -0.05749,0.53624 -0.122501,0.10308 -0.302168,0.10681 -0.415817,0.009 z m 12.0181741,-0.009 c -0.1354,-0.11393 -0.146599,-0.21839 -0.05749,-0.53625 0.121809,-0.43448 0.148379,-0.56253 0.195467,-0.94201 0.0945,-0.76162 0.03706,-1.42388 -0.195467,-2.25328 -0.08911,-0.31785 -0.07791,-0.42231 0.05749,-0.53624 0.14367,-0.12089 0.374764,-0.0923 0.473489,0.0585 0.04581,0.07 0.178563,0.51646 0.237178,0.79767 0.128753,0.61769 0.161199,1.4378 0.08084,2.04322 -0.09043,0.68124 -0.250828,1.26916 -0.375689,1.37702 -0.113648,0.0982 -0.293316,0.0944 -0.415816,-0.009 z"
       id="path3214"
       inkscape:connector-curvature="0" />
    <path
       style="fill:#ffffff;stroke-width:0.00118981;stroke-miterlimit:4;stroke-dasharray:none"
       d="m 7.1857859,293.67724 c -1.505052,-0.10206 -2.609711,-0.26936 -3.297874,-0.49946 -0.3819,-0.1277 -0.657923,-0.29194 -0.687293,-0.40896 -0.03417,-0.13614 0.0476,-0.34394 0.293968,-0.74712 0.480906,-0.78697 0.689388,-1.29305 0.839792,-2.03853 0.105854,-0.52468 0.13741,-0.93513 0.17547,-2.28233 0.02131,-0.75416 0.04767,-1.21202 0.0788,-1.36861 0.328848,-1.65419 1.682661,-2.94401 3.336927,-3.1792 0.316508,-0.045 0.8340916,-0.0393 1.1806436,0.0129 1.4520185,0.2189 2.7140055,1.3074 3.1627725,2.728 0.141894,0.44917 0.170393,0.73021 0.204843,2.02 0.01997,0.74776 0.05156,1.3574 0.08155,1.57402 0.137745,0.99496 0.374519,1.65925 0.871848,2.44604 0.251461,0.39782 0.337272,0.5875 0.337643,0.74634 2.5e-4,0.11372 -0.01557,0.14458 -0.117164,0.22833 -0.420723,0.34679 -1.951642,0.65554 -3.7546115,0.75722 -0.494406,0.0279 -2.3489936,0.0357 -2.7073096,0.0114 z"
       id="path3216"
       inkscape:connector-curvature="0" />
    <path
       style="fill:#ffffff;stroke-width:0.00118981;stroke-miterlimit:4;stroke-dasharray:none"
       d="m 7.8572399,282.32035 c 0.01851,-0.1381 0.148807,-0.34077 0.283135,-0.44041 0.0732,-0.0543 0.134299,-0.0659 0.3462836,-0.0659 0.21868,0 0.272778,0.011 0.359594,0.0729 0.11989,0.0855 0.244817,0.29059 0.272014,0.44654 l 0.01922,0.11018 H 8.4891035 7.8407209 Z"
       id="path3218"
       inkscape:connector-curvature="0" />
    <path
       style="fill:#ffffff;stroke-width:0.00118981;stroke-miterlimit:4;stroke-dasharray:none"
       d="m 8.0513579,294.95827 c -0.11444,-0.0374 -0.25107,-0.11458 -0.346284,-0.19572 -0.181281,-0.15448 -0.345466,-0.33609 -0.323606,-0.35795 0.0083,-0.008 0.516537,-0.0113 1.1295236,-0.007 l 1.114521,0.008 -0.186499,0.19748 c -0.123846,0.13114 -0.255206,0.2313 -0.391021,0.29816 -0.180237,0.0887 -0.240331,0.10173 -0.506069,0.10943 -0.2322806,0.007 -0.3449646,-0.005 -0.4905656,-0.053 z"
       id="path3220"
       inkscape:connector-curvature="0" />
  </g>
</svg>
