<?xml version="1.0" encoding="UTF-8" standalone="no"?>
<!-- Created with Inkscape (http://www.inkscape.org/) -->

<svg
   xmlns:dc="http://purl.org/dc/elements/1.1/"
   xmlns:cc="http://creativecommons.org/ns#"
   xmlns:rdf="http://www.w3.org/1999/02/22-rdf-syntax-ns#"
   xmlns:svg="http://www.w3.org/2000/svg"
   xmlns="http://www.w3.org/2000/svg"
   xmlns:sodipodi="http://sodipodi.sourceforge.net/DTD/sodipodi-0.dtd"
   xmlns:inkscape="http://www.inkscape.org/namespaces/inkscape"
   width="64"
   height="64"
   viewBox="0 0 16.933333 16.933333"
   version="1.1"
   id="svg8"
   inkscape:version="0.92.5 (2060ec1f9f, 2020-04-08)"
   sodipodi:docname="bladder_64x64.svg">
  <defs
     id="defs2" />
  <sodipodi:namedview
     id="base"
     pagecolor="#ffffff"
     bordercolor="#666666"
     borderopacity="1.0"
     inkscape:pageopacity="0.0"
     inkscape:pageshadow="2"
     inkscape:zoom="5.6"
     inkscape:cx="17.39591"
     inkscape:cy="30.659306"
     inkscape:document-units="mm"
     inkscape:current-layer="layer1"
     showgrid="false"
     units="px"
     inkscape:window-width="1208"
     inkscape:window-height="987"
     inkscape:window-x="1992"
     inkscape:window-y="0"
     inkscape:window-maximized="1" />
  <metadata
     id="metadata5">
    <rdf:RDF>
      <cc:Work
         rdf:about="">
        <dc:format>image/svg+xml</dc:format>
        <dc:type
           rdf:resource="http://purl.org/dc/dcmitype/StillImage" />
        <dc:title></dc:title>
      </cc:Work>
    </rdf:RDF>
  </metadata>
  <g
     inkscape:label="Layer 1"
     inkscape:groupmode="layer"
     id="layer1"
     transform="translate(0,-280.06667)">
    <path
       style="fill:#000000;stroke-width:0.03147388"
       d="m 7.2120086,296.67911 c -0.1455927,-0.0888 -0.16935,-0.20063 -0.16935,-0.79732 0,-0.41071 -0.014584,-0.60483 -0.063443,-0.84458 -0.1574764,-0.77275 -0.4723385,-1.35696 -1.0352814,-1.9209 C 5.673339,292.84523 5.6028701,292.794 5.2637117,292.62177 3.0849251,291.51533 1.689434,289.3017 1.6926405,286.95708 c 3.328e-4,-0.24138 0.019736,-0.48693 0.048996,-0.61999 0.026648,-0.12117 0.049216,-0.32026 0.05016,-0.44241 0.00275,-0.35739 -0.066165,-0.47669 -0.5243182,-0.90758 -0.44668911,-0.42011 -0.63613891,-0.6569 -0.80720401,-1.00889 -0.13712176,-0.28214 -0.1473912,-0.36808 -0.060931,-0.50987 0.088266,-0.14476 0.2498381,-0.19113 0.4037973,-0.1159 0.093727,0.0458 0.1403814,0.10296 0.22799851,0.27932 0.1638821,0.3299 0.3064947,0.50557 0.7426577,0.91478 0.2170517,0.20363 0.4290277,0.42892 0.4710588,0.50064 0.2194616,0.37449 0.275382,0.79425 0.1739352,1.30564 -0.04081,0.20572 -0.065597,0.4533 -0.065652,0.65579 l -9.54e-5,0.3253 0.9835584,-0.0139 c 0.8789059,-0.0125 1.008676,-0.021 1.2196135,-0.0804 0.5174541,-0.14559 0.8500308,-0.31151 1.3061662,-0.65165 0.1557962,-0.11618 0.3894899,-0.27352 0.5193196,-0.34963 0.696882,-0.40854 1.6334749,-0.60835 2.4220027,-0.51667 0.7068559,0.0821 1.2838852,0.29323 1.8437142,0.67439 0.181217,0.12337 0.437319,0.29793 0.569118,0.3879 0.26441,0.18051 0.646353,0.35165 1.015,0.45482 0.215676,0.0603 0.34138,0.0686 1.223921,0.0812 l 0.983559,0.0139 v -0.31069 c 0,-0.1811 -0.0277,-0.46119 -0.06641,-0.67152 -0.07657,-0.41603 -0.06698,-0.6943 0.03405,-0.9878 0.105141,-0.30546 0.197415,-0.42877 0.611613,-0.81737 0.435039,-0.40816 0.57802,-0.58435 0.742659,-0.91517 0.08752,-0.17587 0.134373,-0.23318 0.227998,-0.27893 0.153959,-0.0753 0.315528,-0.0289 0.403798,0.1159 0.08646,0.14179 0.07619,0.22773 -0.06093,0.50987 -0.171065,0.35199 -0.360515,0.58878 -0.807204,1.00889 -0.457323,0.43011 -0.528818,0.55317 -0.528307,0.90936 1.9e-4,0.12117 0.01766,0.27696 0.03887,0.34621 0.0212,0.0692 0.04595,0.33834 0.05499,0.59801 0.04964,1.42554 -0.475224,2.91921 -1.43673,4.08872 -0.225135,0.27383 -0.763899,0.79991 -1.039876,1.01538 -0.304593,0.23782 -0.691272,0.48185 -1.141096,0.72014 -0.354067,0.18755 -0.432356,0.24471 -0.663167,0.48414 -0.535494,0.55549 -0.8439613,1.14001 -0.9964213,1.88815 -0.04824,0.23676 -0.06348,0.43447 -0.06362,0.82568 -2.2e-4,0.60241 -0.02615,0.72902 -0.166994,0.81489 -0.121608,0.0742 -0.214143,0.0775 -0.3404545,0.0121 -0.142873,-0.0739 -0.1848427,-0.21097 -0.1845319,-0.60277 8.745e-4,-1.10132 0.207455,-1.89126 0.7081234,-2.70776 0.04511,-0.0736 0.06691,-0.13377 0.04843,-0.13377 -0.01848,0 -0.171535,0.0242 -0.340128,0.0538 -0.4323129,0.0759 -1.7209928,0.0763 -2.151434,5.9e-4 -0.1664754,-0.0292 -0.3268631,-0.0625 -0.3564184,-0.0738 -0.03828,-0.0147 -0.022587,0.0281 0.054569,0.14889 0.2923844,0.45761 0.5155493,1.0221 0.6228041,1.57539 0.077046,0.39748 0.115658,1.33791 0.062828,1.53048 -0.062948,0.22947 -0.2919737,0.32132 -0.4940167,0.19812 z m 1.8180388,-4.00153 c 1.9291816,-0.19516 3.6282766,-1.26447 4.6212116,-2.90832 0.276365,-0.45754 0.573286,-1.20343 0.647398,-1.62633 l 0.01999,-0.11407 -0.844687,-0.0161 c -0.923681,-0.0176 -1.211365,-0.0539 -1.684992,-0.21256 -0.470317,-0.15758 -0.878835,-0.38412 -1.374315,-0.76213 -0.263869,-0.20132 -0.8369543,-0.47736 -1.1580813,-0.55784 -0.5770826,-0.14461 -1.1638791,-0.14391 -1.7260676,0.002 -0.3223779,0.0837 -0.8859148,0.35558 -1.1487971,0.55423 -0.5165788,0.39036 -0.9189617,0.61183 -1.3931536,0.76679 -0.485654,0.1587 -0.7501029,0.19191 -1.6676822,0.20939 -0.5934149,0.0113 -0.8419202,0.0265 -0.8419037,0.0515 4.68e-5,0.0752 0.1675772,0.6418 0.2542437,0.85997 0.993022,2.49979 3.5605019,4.03021 6.296836,3.7534 z m -4.8442713,-8.21813 c -0.3866619,-0.0547 -0.6012037,-0.17125 -1.0850079,-0.58918 -0.6378586,-0.55101 -1.2795114,-1.23519 -1.5973599,-1.70324 -0.1956988,-0.28818 -0.404076,-0.74374 -0.4571924,-0.99953 -0.04136,-0.19918 -0.041644,-0.24193 -0.0022,-0.33625 0.046677,-0.11173 0.1853762,-0.20667 0.3019022,-0.20667 0.092184,0 0.243658,0.0833 0.2821462,0.15528 0.017719,0.0331 0.04818,0.13565 0.067696,0.22786 0.1061007,0.50147 0.4903638,1.05032 1.2766431,1.82343 0.5033173,0.4949 0.8469545,0.79086 1.0230475,0.88111 0.2324095,0.11912 0.4964872,0.11558 1.0801267,-0.0145 1.0147994,-0.22612 1.7934419,-0.33032 2.6981227,-0.36108 1.4280108,-0.0486 2.7271807,0.0731 3.9804817,0.37256 0.742742,0.1775 0.96126,0.1292 1.485519,-0.32839 1.081382,-0.94386 1.729566,-1.77235 1.856684,-2.37316 0.01951,-0.0922 0.04997,-0.19475 0.0677,-0.22786 0.03849,-0.072 0.189962,-0.15528 0.282146,-0.15528 0.116526,0 0.255221,0.095 0.301902,0.20667 0.06569,0.15722 -0.0094,0.4825 -0.20293,0.87918 -0.332574,0.68163 -0.948872,1.38897 -1.979609,2.27203 -0.315498,0.2703 -0.56153,0.40016 -0.889065,0.46924 -0.286705,0.0605 -0.485953,0.0447 -1.033514,-0.0816 -1.093136,-0.25215 -1.8577483,-0.34683 -2.9794075,-0.36888 -1.304607,-0.0257 -2.2417499,0.0716 -3.5408119,0.36728 -0.4750198,0.10813 -0.6769766,0.12773 -0.936976,0.0909 z"
       id="path1279"
       inkscape:connector-curvature="0" />
    <path
       style="fill:#ffffff;stroke-width:0.00120164;stroke-miterlimit:4;stroke-dasharray:none"
       d="m 2.3678877,286.97015 c 0.011862,-0.19705 0.042543,-0.48704 0.068173,-0.64442 0.080704,-0.49556 0.0528,-0.78341 -0.1109279,-1.14457 -0.06898,-0.15215 -0.1682138,-0.27118 -0.4903441,-0.58818 -0.4585793,-0.45125 -0.6041591,-0.62782 -0.7743277,-0.93913 -0.0657894,-0.12036 -0.16345681,-0.24838 -0.21703521,-0.28449 l -0.097416,-0.0656 0.085837,-0.36479 c 0.047208,-0.20064 0.1392612,-0.59149 0.20456381,-0.86855 l 0.1187334,-0.50373 0.1631341,0.30496 c 0.2246444,0.41996 0.5913413,0.86768 1.2026432,1.46841 0.850282,0.83559 1.1701316,1.05507 1.6434243,1.12777 0.2835019,0.0436 0.4161843,0.0287 1.1958654,-0.13367 1.2722861,-0.265 1.9768627,-0.32957 3.32076,-0.30432 1.2227817,0.023 1.612916,0.0704 3.053822,0.3713 0.51964,0.10851 0.729024,0.11839 1.002762,0.0473 0.411484,-0.10681 0.604768,-0.23458 1.270198,-0.83962 0.672825,-0.61175 1.22756,-1.27158 1.480832,-1.76137 0.06001,-0.11605 0.117493,-0.21105 0.12774,-0.21112 0.01622,-9e-5 0.474168,1.60635 0.474168,1.66336 0,0.0118 -0.01953,0.0216 -0.0434,0.0216 -0.08903,0 -0.206303,0.13267 -0.3572,0.40408 -0.129762,0.23341 -0.235135,0.35954 -0.639222,0.7652 -0.388763,0.39027 -0.502173,0.5246 -0.577094,0.68356 -0.167962,0.35635 -0.199652,0.66917 -0.118278,1.16753 0.02426,0.14864 0.05449,0.43147 0.06716,0.62852 l 0.02304,0.35827 -0.775119,-0.0171 c -1.108085,-0.0245 -1.263764,-0.0374 -1.553069,-0.12875 -0.408232,-0.12896 -0.617768,-0.23742 -1.193243,-0.61765 -0.297269,-0.1964 -0.626144,-0.40044 -0.730833,-0.45342 -0.6404903,-0.3241 -1.4304464,-0.47513 -2.1259067,-0.40644 -0.8320311,0.0821 -1.4330085,0.31654 -2.1938749,0.85556 -0.4658897,0.33005 -0.6976145,0.45384 -1.1035513,0.58949 -0.3804946,0.12715 -0.4610653,0.13503 -1.6478757,0.16123 l -0.7756927,0.0171 z"
       id="path1287"
       inkscape:connector-curvature="0" />
    <path
       style="fill:#ffffff;stroke-width:0.00120164;stroke-miterlimit:4;stroke-dasharray:none"
       d="M 7.9195726,292.68079 C 5.8640248,292.49292 4.0878621,291.37461 3.0976167,289.64479 2.8818576,289.26789 2.726352,288.89548 2.5945341,288.44 l -0.1058111,-0.36564 0.179899,-0.0204 c 0.098944,-0.0112 0.373044,-0.0222 0.6091101,-0.0244 1.3911653,-0.0128 2.0861434,-0.22447 3.0371362,-0.92496 0.2834725,-0.20881 0.9147128,-0.51955 1.2262584,-0.60364 0.5324316,-0.14373 1.2297903,-0.13771 1.7572728,0.0151 0.2936692,0.0851 0.8012115,0.32612 1.0374735,0.49266 1.2061,0.85016 1.744527,1.01511 3.322414,1.01784 0.314754,5.4e-4 0.588598,0.0115 0.60854,0.0244 0.07547,0.0486 -0.187228,0.85029 -0.45143,1.37762 -0.295713,0.59023 -0.83515,1.2889 -1.321187,1.71118 -0.934575,0.812 -1.930856,1.28097 -3.1443762,1.48014 -0.3002338,0.0493 -1.1577227,0.0858 -1.4302612,0.0609 z"
       id="path1289"
       inkscape:connector-curvature="0" />
    <path
       style="fill:#ffffff;stroke-width:0.00120164;stroke-miterlimit:4;stroke-dasharray:none"
       d="m 7.7285507,296.01478 c -4.318e-4,-0.82915 -0.075433,-1.27484 -0.3196792,-1.89966 -0.068356,-0.17486 -0.1950892,-0.43928 -0.2816328,-0.58759 -0.086543,-0.14831 -0.1547017,-0.27208 -0.1514621,-0.27505 0.00321,-0.003 0.1131921,0.0171 0.2443399,0.0447 0.3157797,0.0664 1.8894318,0.0753 2.2842842,0.0129 0.14597,-0.0231 0.27219,-0.0351 0.280488,-0.0269 0.0083,0.008 -0.02012,0.0709 -0.06314,0.13901 -0.239177,0.37888 -0.4494651,0.91103 -0.558039,1.41217 -0.084068,0.38801 -0.1432057,1.11809 -0.1162117,1.43465 l 0.02101,0.2464 H 8.3986605 7.7288137 Z"
       id="path1291"
       inkscape:connector-curvature="0" />
  </g>
</svg>
