<?xml version="1.0" encoding="UTF-8" standalone="no"?>
<!-- Created with Inkscape (http://www.inkscape.org/) -->

<svg
   xmlns:dc="http://purl.org/dc/elements/1.1/"
   xmlns:cc="http://creativecommons.org/ns#"
   xmlns:rdf="http://www.w3.org/1999/02/22-rdf-syntax-ns#"
   xmlns:svg="http://www.w3.org/2000/svg"
   xmlns="http://www.w3.org/2000/svg"
   xmlns:sodipodi="http://sodipodi.sourceforge.net/DTD/sodipodi-0.dtd"
   xmlns:inkscape="http://www.inkscape.org/namespaces/inkscape"
   width="64"
   height="64"
   viewBox="0 0 16.933333 16.933333"
   version="1.1"
   id="svg8"
   inkscape:version="0.92.5 (2060ec1f9f, 2020-04-08)"
   sodipodi:docname="blood_circulation_64x64.svg">
  <defs
     id="defs2" />
  <sodipodi:namedview
     id="base"
     pagecolor="#ffffff"
     bordercolor="#666666"
     borderopacity="1.0"
     inkscape:pageopacity="0.0"
     inkscape:pageshadow="2"
     inkscape:zoom="5.6"
     inkscape:cx="62.885903"
     inkscape:cy="48.0339"
     inkscape:document-units="mm"
     inkscape:current-layer="layer1"
     showgrid="false"
     units="px"
     inkscape:window-width="1208"
     inkscape:window-height="987"
     inkscape:window-x="1992"
     inkscape:window-y="0"
     inkscape:window-maximized="1" />
  <metadata
     id="metadata5">
    <rdf:RDF>
      <cc:Work
         rdf:about="">
        <dc:format>image/svg+xml</dc:format>
        <dc:type
           rdf:resource="http://purl.org/dc/dcmitype/StillImage" />
        <dc:title></dc:title>
      </cc:Work>
    </rdf:RDF>
  </metadata>
  <g
     inkscape:label="Layer 1"
     inkscape:groupmode="layer"
     id="layer1"
     transform="translate(0,-280.06667)">
    <path
       style="fill:#000000;stroke-width:0.07293075"
       d="m 7.4811104,296.62161 c -0.391638,-0.11913 -0.6436917,-0.30824 -1.2856632,-0.96459 -0.6915189,-0.70701 -0.8296797,-0.96101 -0.8266669,-1.51985 0.00748,-1.38832 1.4232528,-3.19876 3.0036265,-3.84092 0.5343972,-0.21714 1.3705394,-0.31644 1.3690333,-0.16258 -0.00332,0.34103 -0.078752,0.41019 -0.4939424,0.45304 -1.1201027,0.11561 -2.5465558,1.27555 -3.1084989,2.52773 -0.8763038,1.95266 0.6143949,2.75953 2.5660618,1.38894 0.2811547,-0.19745 0.6332351,-0.50794 0.7824005,-0.68998 l 0.27121,-0.33098 0.211798,0.15081 0.2117969,0.15083 -0.2908202,0.33038 c -0.6867635,0.78021 -1.8360429,1.46864 -2.5693819,1.53911 -0.1930484,0.0186 -0.3507729,0.0542 -0.3504986,0.0792 2.922e-4,0.025 0.1172558,0.12495 0.2599595,0.22214 0.9045944,0.61611 2.7677825,-0.10305 3.6461602,-1.40737 l 0.24683,-0.36652 -0.402056,-0.35835 c -0.488314,-0.43527 -0.691976,-0.81328 -0.7433415,-1.37975 l -0.038864,-0.42856 -0.2214977,0.44688 c -0.4257221,0.85892 -1.5817876,1.89943 -2.3490693,2.11425 -0.379609,0.10629 -0.6300677,0.0569 -0.840842,-0.16567 -0.4718576,-0.49835 0.4559368,-2.07975 1.6952666,-2.88953 0.7398866,-0.48344 1.2708234,-0.55451 1.589233,-0.21274 l 0.1478805,0.15872 0.00158,-0.3237 c 0.0046,-0.93809 0.8847024,-1.71013 2.2744104,-1.99519 1.836209,-0.37668 3.813978,0.29745 4.254153,1.45004 0.185406,0.48548 0.126925,2.1478 -0.09001,2.5585 -0.470724,0.8912 -1.724409,1.48928 -3.121808,1.48928 -0.452347,0 -1.261937,-0.12722 -1.568011,-0.24639 -0.07606,-0.0296 -0.19572,0.0915 -0.392708,0.39764 -0.364184,0.56593 -1.0222,1.15952 -1.6015065,1.4447 -0.7607623,0.37452 -1.7195544,0.53767 -2.2362418,0.3805 z m 0.1551282,-2.7138 c 0.9742009,-0.51924 2.2679917,-2.32321 1.6661883,-2.32321 -0.5021355,0 -1.8350294,1.1302 -2.2119109,1.87555 -0.3642709,0.72039 -0.207407,0.84908 0.5457226,0.44766 z m 6.9560924,0.0478 c 0.825549,-0.28045 1.395411,-0.8283 1.474443,-1.41754 0.02192,-0.16337 0.01693,-0.29704 -0.01109,-0.29704 -0.02801,0 -0.155443,0.0797 -0.283175,0.17713 -0.519608,0.39633 -1.597115,0.69804 -2.49293,0.69804 -0.895817,0 -1.973324,-0.30171 -2.492933,-0.69804 -0.289969,-0.22117 -0.314903,-0.22058 -0.314903,0.007 0,0.68718 0.778337,1.37744 1.82327,1.61698 0.535512,0.12275 1.823322,0.074 2.297318,-0.0871 z m 0.0435,-1.54909 c 0.957425,-0.32491 1.415109,-0.75769 1.415109,-1.33807 0,-0.44291 -0.251554,-0.76945 -0.830453,-1.07799 -1.107689,-0.5904 -2.77414,-0.5904 -3.88183,0 -0.581771,0.31007 -0.830454,0.63459 -0.830454,1.08368 0,0.44714 0.250089,0.77594 0.813666,1.06975 0.373967,0.19497 0.556181,0.25716 1.228396,0.41929 0.332642,0.0803 1.687383,-0.0215 2.085566,-0.15666 z m -2.385403,-0.4151 c -1.080395,-0.24669 -1.537397,-0.77416 -1.124991,-1.29844 0.447498,-0.5689 2.305576,-0.81606 3.473334,-0.46201 1.301292,0.39453 1.301292,1.28695 0,1.68827 -0.519117,0.16009 -1.792003,0.19922 -2.348343,0.0722 z m 2.319147,-0.58849 c 0.417149,-0.14719 0.552146,-0.28363 0.428282,-0.43288 -0.250264,-0.30155 -1.688582,-0.49726 -2.514344,-0.34211 -0.526573,0.0989 -0.954279,0.29891 -0.954279,0.4462 0,0.13177 0.41412,0.3447 0.84976,0.43694 0.467839,0.0991 1.788016,0.0339 2.190581,-0.10815 z m -11.8122696,1.08922 c -0.140058,-0.0981 -0.1620812,-0.17988 -0.1620314,-0.60168 6.85e-5,-0.58143 0.2126652,-1.08727 0.8392628,-1.9969 0.2202765,-0.31978 0.4005023,-0.5952 0.4005023,-0.61205 0,-0.0169 -0.224645,-0.0307 -0.4992116,-0.0307 -0.6503517,0 -0.7406109,-0.0904 -0.7406109,-0.74198 0,-0.67414 0.055132,-0.71099 1.1834259,-0.79095 0.4980136,-0.0353 1.1492855,-0.11626 1.4472705,-0.17993 0.2979851,-0.0636 0.6327258,-0.13521 0.7438683,-0.15898 0.6116221,-0.13077 0.012175,-0.17022 -2.5862546,-0.17022 H 0.51669025 v -0.22009 -0.22007 l 3.70125205,0.0195 3.7012524,0.0195 -1.68e-5,-0.79122 c -1.68e-5,-0.78164 -0.00262,-0.79363 -0.2146313,-0.99168 -0.5345578,-0.49935 -0.2646046,-1.31666 0.4348867,-1.31666 0.3755743,0 0.5503143,0.0919 0.6906075,0.3632 0.1477366,0.28569 0.1383366,0.50132 -0.034191,0.78428 l -0.1437954,0.23583 1.6490386,1.76199 1.649041,1.76198 -0.173984,0.13378 c -0.09569,0.0736 -0.19575,0.13452 -0.22235,0.13541 -0.0266,7.5e-4 -0.732207,-0.72969 -1.5680124,-1.62348 l -1.5196461,-1.62509 -0.019287,2.20854 -0.019287,2.20854 H 8.1733696 7.9191658 v -1.45985 -1.45984 l -0.3464212,0.17451 c -0.9567747,0.48199 -2.3750923,0.83081 -3.7012354,0.91029 l -0.8022385,0.0481 v 0.25525 0.25526 l 0.4011193,-0.0227 c 0.2206152,-0.0125 0.5761856,-0.0715 0.7901563,-0.13146 0.2999809,-0.0839 0.4126715,-0.0892 0.4922826,-0.0231 0.163644,0.13581 0.1272806,0.23288 -0.2736453,0.73048 -0.4642911,0.57624 -1.1013456,1.54491 -1.2478098,1.89735 -0.060041,0.14448 -0.132166,0.39882 -0.160278,0.56521 -0.048653,0.28799 -0.042317,0.30252 0.1320138,0.30252 0.1568766,0 0.2345158,-0.0976 0.5416532,-0.68103 0.6549626,-1.24411 1.305768,-2.08466 1.9655305,-2.53859 0.2515512,-0.17308 1.7043311,-0.86449 1.8164293,-0.86449 0.013222,0 0.07552,0.0995 0.1384357,0.22121 l 0.114391,0.2212 -0.2766123,0.11383 c -0.1521372,0.0626 -0.5477706,0.24009 -0.8791854,0.3944 -0.9904934,0.46117 -1.7089769,1.2606 -2.422931,2.69589 -0.4164746,0.83725 -0.5270382,0.9481 -0.9457084,0.9481 -0.1858106,0 -0.4080888,-0.0507 -0.4978019,-0.11353 z m 5.6723748,-8.05471 c 0,-0.18346 -0.2184173,-0.30208 -0.3847694,-0.20899 -0.2834368,0.15862 -0.031363,0.57242 0.2552574,0.41903 0.071231,-0.0381 0.129512,-0.13264 0.129512,-0.21004 z m 0.2563786,3.33438 -0.099386,-0.23483 0.373474,-0.16632 c 0.6048869,-0.26936 0.663555,-0.27142 0.7560119,-0.0265 l 0.08132,0.21544 -0.5060175,0.2235 -0.5060175,0.22351 z m 2.2961982,-0.78181 c 0,-0.20143 0.02025,-0.2188 0.255257,-0.2188 0.235,0 0.255258,0.0174 0.255258,0.2188 0,0.20142 -0.02025,0.21879 -0.255258,0.21879 -0.234999,0 -0.255257,-0.0174 -0.255257,-0.21879 z m 1.021031,0 v -0.2188 h 2.16969 2.16969 v 0.2188 0.21879 h -2.169687 -2.16969 z m -9.3093956,-0.62925 c -0.9492261,-0.33649 -1.403041,-1.54489 -0.9338081,-2.48653 0.2070932,-0.41558 0.5355675,-0.7018 0.9890077,-0.86178 0.4648383,-0.16401 7.839371,-0.15735 8.323213,0.007 0.402074,0.137 0.826521,0.53044 1.011405,0.93752 0.178538,0.39311 0.178538,1.0773 0,1.4704 -0.272596,0.60021 -0.954457,1.05161 -1.588492,1.05161 -0.226475,0 -0.242266,-0.016 -0.242266,-0.24578 0,-0.23733 0.01132,-0.24704 0.329523,-0.28291 0.59705,-0.0673 1.00875,-0.45877 1.160113,-1.10311 l 0.04925,-0.20963 -0.249306,0.26433 c -0.208391,0.22097 -0.298759,0.26435 -0.55065,0.26435 -0.274248,0 -0.301344,0.0166 -0.301344,0.18564 0,0.2201 -0.275854,0.5186 -0.5407,0.58507 -0.4736333,0.11887 -0.9179147,-0.21958 -0.9179147,-0.69927 0,-0.16491 0.033791,-0.36297 0.075092,-0.44014 0.1000303,-0.18691 0.4485479,-0.36061 0.7235237,-0.36061 0.17654,0 0.222414,-0.0312 0.222414,-0.15147 0,-0.0833 0.09593,-0.24741 0.213183,-0.36466 0.166824,-0.16683 0.281804,-0.21446 0.528749,-0.21908 l 0.315566,-0.007 -0.291723,-0.13805 c -0.264447,-0.12513 -0.484375,-0.13822 -2.3520183,-0.13996 l -2.0602938,-0.002 v 0.29504 c 0,0.21466 -0.047962,0.343 -0.1760461,0.47108 -0.4874317,0.48743 -1.2825689,0.19538 -1.2825689,-0.47108 v -0.29504 l -0.3099557,0.003 -0.3099558,0.003 0.1987261,0.10784 c 0.2517466,0.13661 0.3482546,0.31733 0.3482546,0.65208 0,0.34519 -0.098681,0.51885 -0.376463,0.6625 -0.2178893,0.11267 -0.4667037,0.11146 -0.7357312,-0.004 -0.098971,-0.0423 -0.1276289,-0.0193 -0.1276289,0.1027 0,0.21766 -0.1919588,0.56813 -0.3606137,0.6584 -0.2638947,0.14123 -0.7246129,0.0905 -0.9160233,-0.10096 -0.5013128,-0.50131 -0.1947689,-1.28256 0.5032449,-1.28256 0.1799595,0 0.3474832,0.0328 0.3722736,0.0729 0.089549,0.14489 0.1823262,0.0683 0.1823262,-0.15066 0,-0.29444 0.1051742,-0.47892 0.3482546,-0.61083 0.1903765,-0.10331 0.1757436,-0.1079 -0.3482546,-0.10917 -0.8879515,-0.002 -1.3735347,0.31483 -1.5176948,0.9907 -0.1262026,0.59167 0.1383271,1.14976 0.6660617,1.40524 0.2892741,0.14003 0.4384323,0.15189 1.8774573,0.14921 1.4214696,-0.003 1.5451982,-0.0127 1.3644918,-0.11078 -0.2580752,-0.14004 -0.3482546,-0.31795 -0.3482546,-0.68706 0,-0.67117 0.7930402,-0.96541 1.2825689,-0.47589 0.1290131,0.12902 0.1760462,0.25616 0.1760462,0.47589 0,0.36911 -0.09018,0.54702 -0.3482546,0.68706 -0.191032,0.10368 -0.1782537,0.10797 0.3300218,0.11078 l 0.528748,0.003 v 0.25527 0.25525 l -2.3155513,-0.006 c -1.8401837,-0.005 -2.3776427,-0.0278 -2.6180013,-0.11298 z m 3.9027143,-1.02805 c 0.092871,-0.16596 -0.025377,-0.38478 -0.2079263,-0.38478 -0.1842785,0 -0.3016423,0.21183 -0.2111003,0.38101 0.08839,0.16516 0.3275028,0.16732 0.4190266,0.004 z m 3.5736073,0 c 0.09287,-0.16596 -0.02538,-0.38478 -0.2079269,-0.38478 -0.1842789,0 -0.3016423,0.21183 -0.2111003,0.38101 0.088391,0.16516 0.3275032,0.16732 0.4190272,0.004 z m -6.845683,-0.38478 c 0,-0.18344 -0.2184175,-0.30207 -0.3847698,-0.20897 -0.2834368,0.15861 -0.03136,0.57242 0.2552577,0.41902 0.071234,-0.0381 0.1295121,-0.13263 0.1295121,-0.21005 z m 7.911585,-0.4353 c 0.02375,-0.0385 -0.0273,-0.14037 -0.113438,-0.22651 l -0.156625,-0.15663 -0.151391,0.15139 c -0.146533,0.14653 -0.147148,0.15608 -0.01918,0.29749 0.131725,0.14555 0.328161,0.11624 0.440636,-0.0658 z m -6.6815705,-0.20095 c 0.092871,-0.16595 -0.025377,-0.38477 -0.2079265,-0.38477 -0.1842778,0 -0.3016421,0.21182 -0.2111001,0.381 0.088391,0.16517 0.3275033,0.16731 0.4190266,0.004 z m 1.5315459,-0.51052 c 0.09287,-0.16595 -0.025377,-0.38477 -0.2079266,-0.38477 -0.1842782,0 -0.3016423,0.21182 -0.2111002,0.38101 0.088391,0.16516 0.3275031,0.1673 0.4190268,0.004 z m -5.57226958,-1.38756 0.002862,-0.20056 1.56684638,-0.0365 1.5668458,-0.0364 0.2199575,-0.78918 0.2199568,-0.78916 0.2134746,0.0424 c 0.117411,0.0233 0.2267604,0.0557 0.2429989,0.0719 0.035348,0.0354 -0.4078934,1.6279 -0.5038898,1.81046 -0.061045,0.11609 -0.2237942,0.12763 -1.7995258,0.12763 H 0.51093824 Z m 4.68318038,0.15251 c -0.086556,-0.0866 -0.058035,-0.26174 0.1859558,-1.14222 l 0.2388913,-0.86206 0.2134744,0.0424 c 0.1174109,0.0233 0.2271148,0.0559 0.2437868,0.0727 0.016672,0.0166 -0.054777,0.32608 -0.1587764,0.68757 -0.1039988,0.36149 -0.1890887,0.69211 -0.1890887,0.7347 0,0.0536 1.1118424,0.0774 3.6100722,0.0774 1.9855404,0 3.6100724,-0.0108 3.6100724,-0.0239 0,-0.0131 -0.07834,-0.21826 -0.174089,-0.45582 -0.09575,-0.23756 -0.197089,-0.57141 -0.225202,-0.74188 l -0.05111,-0.30996 h 0.261669 c 0.167965,0 0.261668,0.0345 0.261668,0.0962 0,0.25172 0.246104,0.87527 0.479188,1.21412 0.462142,0.67184 0.788476,0.61982 -4.0228163,0.64121 -2.3289683,0.0103 -4.2566289,-0.003 -4.2836904,-0.0304 z m 9.7256978,-0.0331 c -0.55122,-0.21999 -0.993483,-0.84966 -1.073943,-1.52902 l -0.04251,-0.35897 h 0.265416 c 0.251454,0 0.265416,0.0126 0.265416,0.2398 0,0.30463 0.27176,0.84104 0.516159,1.01883 0.232569,0.16919 0.646155,0.2689 1.124783,0.27118 0.356163,0.002 0.364654,0.007 0.364654,0.22053 v 0.21879 l -0.619912,-0.005 c -0.340952,-0.002 -0.700977,-0.037 -0.800059,-0.0766 z"
       id="path854"
       inkscape:connector-curvature="0" />
    <path
       style="fill:#ffffff;stroke-width:0.00139221;stroke-miterlimit:4;stroke-dasharray:none"
       d="m 9.619933,286.10189 -0.9442898,-1.01379 0.1198206,-0.19898 c 0.149508,-0.24828 0.1815844,-0.43365 0.1139351,-0.65843 -0.1146339,-0.38091 -0.3804878,-0.56063 -0.784264,-0.53021 -0.4247795,0.032 -0.6709275,0.25475 -0.7025192,0.63569 -0.02167,0.26131 0.04004,0.43085 0.2379067,0.65364 0.090349,0.10173 0.1797621,0.22571 0.1986956,0.2755 0.018934,0.0498 0.034424,0.41507 0.034424,0.81171 v 0.72114 l -3.6559325,-0.0271 c -2.0107627,-0.015 -3.66144255,-0.0324 -3.6681775,-0.039 -0.006708,-0.007 -1.3881e-4,-0.93228 0.0146543,-2.05727 l 0.0269023,-2.04541 1.6429471,-0.0113 c 1.2458078,-0.008 1.6627877,-0.0227 1.725027,-0.0582 0.09114,-0.0521 0.2463755,-0.50395 0.4647667,-1.35284 l 0.1231951,-0.47886 0.4753619,0.0135 c 0.2614491,0.007 0.4806105,0.0182 0.4870254,0.024 0.00642,0.007 -0.072181,0.32294 -0.174656,0.70483 -0.2038212,0.75957 -0.2458863,0.99771 -0.1907283,1.07974 0.081406,0.12107 8.0574215,0.0824 8.4207165,-0.0408 0.206002,-0.0699 0.212148,-0.17045 0.02651,-0.4337 -0.185592,-0.26317 -0.384785,-0.65827 -0.483551,-0.95912 -0.04238,-0.12913 -0.07707,-0.24862 -0.07707,-0.26552 0,-0.0169 0.170312,-0.0308 0.37847,-0.0308 h 0.378466 l 0.04464,0.28057 c 0.06562,0.41245 0.258145,0.78666 0.557784,1.0842 0.133641,0.1327 0.30659,0.2709 0.384328,0.30714 0.188913,0.0881 0.512463,0.1314 0.987132,0.13229 l 0.391765,7.4e-4 0.02273,1.09586 c 0.0125,0.60272 0.03268,1.53099 0.04485,2.0628 l 0.02212,0.96693 H 14.12266 11.982401 v 0.0921 c 0,0.0885 -0.0092,0.0921 -0.230696,0.0921 -0.203911,0 -0.234919,-0.01 -0.267058,-0.0829 -0.0624,-0.14222 -0.469155,-0.13734 -0.506661,0.006 -0.01427,0.0546 -0.34733,0.26864 -0.403322,0.25922 -0.0058,-7.5e-4 -0.435364,-0.45795 -0.9547229,-1.01553 z m -1.9841401,0.11481 v -0.27627 H 7.1497185 6.6636441 l 0.1671773,-0.10602 c 0.2096622,-0.13295 0.289327,-0.31455 0.2891354,-0.65906 -1.457e-4,-0.28236 -0.06492,-0.42232 -0.2637841,-0.57006 -0.5298037,-0.3936 -1.2063608,-0.0688 -1.2084873,0.58001 -9.277e-4,0.28292 0.057894,0.43854 0.2217017,0.58653 0.1056941,0.0955 0.1327934,0.13901 0.095472,0.15333 -0.028663,0.0111 -0.6962845,0.0148 -1.4836054,0.008 l -1.4314921,-0.0115 -0.2317509,-0.10701 c -0.292411,-0.13502 -0.5637006,-0.4212 -0.657672,-0.69374 -0.1365125,-0.39592 -0.047522,-0.94074 0.2033283,-1.24486 0.2353123,-0.28527 0.7055823,-0.43902 1.3462419,-0.44015 l 0.3654616,-6.4e-4 -0.1683563,0.11152 c -0.1895876,0.12557 -0.2687344,0.26424 -0.3042842,0.53311 -0.037657,0.28483 -0.045154,0.29721 -0.1322121,0.21843 -0.094067,-0.0851 -0.4861134,-0.1162 -0.6758979,-0.0535 -0.3806511,0.12562 -0.5865723,0.54168 -0.4580656,0.92549 0.065336,0.19513 0.2115641,0.3662 0.3774104,0.44152 0.191157,0.0868 0.5714273,0.0932 0.7415431,0.0125 0.180105,-0.0855 0.3862186,-0.42779 0.3862186,-0.64145 0,-0.13993 0.031344,-0.15402 0.205032,-0.0922 0.2970119,0.10581 0.6039603,0.0488 0.8282419,-0.15382 0.1574383,-0.14223 0.2195383,-0.30364 0.2173141,-0.56486 -0.0027,-0.31706 -0.1237922,-0.53686 -0.366495,-0.66524 l -0.1289632,-0.0682 0.267058,-0.002 0.2670581,-0.002 8.069e-4,0.21181 c 0.0026,0.68181 0.6494086,1.01082 1.2233259,0.62226 0.1621207,-0.10975 0.2410274,-0.27575 0.2695186,-0.56701 l 0.026125,-0.26706 1.7725577,6.6e-4 c 1.9634045,7.3e-4 2.3209445,0.0227 2.6110535,0.15982 l 0.192901,0.0912 -0.212987,0.003 c -0.117144,0.002 -0.266328,0.0255 -0.331521,0.0527 -0.163613,0.0685 -0.382906,0.32194 -0.430053,0.49705 -0.04311,0.16008 -0.08849,0.18987 -0.2900708,0.1904 -0.1631651,4.4e-4 -0.4720405,0.13989 -0.5872365,0.26514 -0.1748928,0.19015 -0.2094843,0.60707 -0.072791,0.87732 0.1772771,0.3505 0.6142329,0.50135 0.9630653,0.33248 0.189353,-0.0917 0.380529,-0.29109 0.408528,-0.42615 0.01042,-0.0503 0.02722,-0.13154 0.03733,-0.18057 0.01656,-0.0803 0.04305,-0.0917 0.267059,-0.11506 0.301971,-0.0315 0.347267,-0.0528 0.575725,-0.2697 l 0.179708,-0.17071 -0.02341,0.12892 c -0.0433,0.23836 -0.238476,0.57766 -0.432773,0.75235 -0.184655,0.16602 -0.541388,0.31588 -0.751926,0.31588 -0.0472,0 -0.129123,0.0165 -0.182061,0.0366 -0.09146,0.0348 -0.0957,0.048 -0.08528,0.26706 l 0.01097,0.23046 0.179019,0.0114 c 0.428984,0.0273 0.903764,-0.17402 1.273999,-0.54019 0.303507,-0.30018 0.42871,-0.54575 0.486288,-0.95384 0.09018,-0.63918 -0.07278,-1.14712 -0.505219,-1.57472 -0.335365,-0.33162 -0.534931,-0.41772 -1.087714,-0.46936 -0.6223914,-0.0582 -6.9748215,-0.0599 -7.4970391,-0.002 -0.4558784,0.0504 -0.7032812,0.15802 -1.004075,0.43651 -0.9400475,0.87032 -0.6226546,2.55895 0.5616092,2.98795 0.2298707,0.0833 0.9516306,0.11096 3.0531458,0.11715 l 1.9062418,0.006 z"
       id="path866"
       inkscape:connector-curvature="0" />
    <path
       style="fill:#ffffff;stroke-width:0.00139221;stroke-miterlimit:4;stroke-dasharray:none"
       d="m 9.7927639,285.34287 c -0.03154,-0.0451 -0.057342,-0.10765 -0.057342,-0.13915 0,-0.0315 0.025801,-0.0941 0.057342,-0.13914 0.1159229,-0.16551 0.3846841,-0.0638 0.3846841,0.14555 0,0.1977 -0.2731597,0.29197 -0.3846841,0.13274 z"
       id="path868"
       inkscape:connector-curvature="0" />
    <path
       style="fill:#ffffff;stroke-width:0.00139221;stroke-miterlimit:4;stroke-dasharray:none"
       d="m 10.827039,284.57484 c -0.1232,-0.0969 -0.12181,-0.13646 0.01031,-0.2934 l 0.107368,-0.12753 0.132064,0.12694 c 0.152189,0.14629 0.165926,0.23194 0.0502,0.313 -0.109825,0.0769 -0.183957,0.0723 -0.299939,-0.019 z"
       id="path870"
       inkscape:connector-curvature="0" />
    <path
       style="fill:#ffffff;stroke-width:0.00139221;stroke-miterlimit:4;stroke-dasharray:none"
       d="m 8.0041488,284.57752 c -0.04052,-0.0405 -0.073672,-0.10618 -0.073672,-0.1459 0,-0.0933 0.1389722,-0.22246 0.2394313,-0.22246 0.096574,0 0.2394314,0.12784 0.2394314,0.21425 0,0.2032 -0.2579843,0.30131 -0.4051907,0.15411 z"
       id="path872"
       inkscape:connector-curvature="0" />
    <path
       style="fill:#ffffff;stroke-width:0.00139221;stroke-miterlimit:4;stroke-dasharray:none"
       d="m 6.2197114,285.34287 c -0.031538,-0.0451 -0.057342,-0.10765 -0.057342,-0.13915 0,-0.0315 0.025804,-0.0941 0.057342,-0.13914 0.1159233,-0.16551 0.3846849,-0.0638 0.3846849,0.14555 0,0.1977 -0.2731604,0.29197 -0.3846849,0.13274 z"
       id="path874"
       inkscape:connector-curvature="0" />
    <path
       style="fill:#ffffff;stroke-width:0.00139221;stroke-miterlimit:4;stroke-dasharray:none"
       d="m 5.7370855,283.82406 c -0.049728,-0.0497 -0.090415,-0.12119 -0.090415,-0.15881 0,-0.0976 0.1351962,-0.22964 0.2351572,-0.22964 0.1949548,0 0.2864274,0.30846 0.1250027,0.42152 -0.1123167,0.0787 -0.1643873,0.0723 -0.2697452,-0.0331 z"
       id="path876"
       inkscape:connector-curvature="0" />
    <path
       style="fill:#ffffff;stroke-width:0.00139221;stroke-miterlimit:4;stroke-dasharray:none"
       d="m 4.2469185,284.38275 c -0.1837899,-0.0924 -0.1139121,-0.43236 0.088589,-0.43087 0.097885,7.2e-4 0.1473723,0.0341 0.2005812,0.13514 0.060525,0.115 0.053677,0.151 -0.048065,0.25274 -0.1036689,0.10368 -0.1161114,0.10589 -0.2411053,0.043 z"
       id="path878"
       inkscape:connector-curvature="0" />
    <path
       style="fill:#ffffff;stroke-width:0.00139221;stroke-miterlimit:4;stroke-dasharray:none"
       d="m 2.9053672,285.09647 c -0.092412,-0.10211 -0.062455,-0.26457 0.061512,-0.33361 0.090969,-0.0507 0.1116256,-0.0507 0.202596,0 0.1969629,0.1097 0.1231677,0.40403 -0.1012983,0.40403 -0.054499,0 -0.127764,-0.0317 -0.1628122,-0.0704 z"
       id="path880"
       inkscape:connector-curvature="0" />
    <path
       style="fill:#ffffff;stroke-width:0.00139221;stroke-miterlimit:4;stroke-dasharray:none"
       d="m 8.4750118,286.98103 c 0.00583,-0.60271 0.014167,-1.1365 0.018514,-1.18619 0.00669,-0.0765 0.1259878,0.0354 0.7769819,0.7289 0.4229926,0.45059 0.7628013,0.82471 0.7551293,0.8314 -0.0077,0.007 -0.063021,0.0374 -0.1229936,0.0682 l -0.1090454,0.0559 -0.064371,-0.14379 c -0.03541,-0.0791 -0.092491,-0.15457 -0.1268572,-0.16775 -0.089048,-0.0342 -0.322565,0.0359 -0.7073232,0.21211 l -0.3337292,0.15289 0.09025,0.20406 c 0.049638,0.11224 0.085892,0.20771 0.080565,0.21214 -0.017165,0.0143 -0.245074,0.12796 -0.2565927,0.12796 -0.00612,0 -0.00635,-0.49315 -5.252e-4,-1.09587 z"
       id="path882"
       inkscape:connector-curvature="0" />
    <path
       style="fill:#ffffff;stroke-width:0.00139221;stroke-miterlimit:4;stroke-dasharray:none"
       d="m 3.0813265,292.03627 c -0.031548,-0.0822 0.018312,-0.36337 0.1152578,-0.64992 0.1309398,-0.38702 0.7633326,-1.3792 1.3228563,-2.07546 0.113966,-0.14181 0.2418275,-0.32867 0.2841367,-0.41524 0.072011,-0.14732 0.073105,-0.16321 0.017134,-0.24863 -0.075581,-0.11535 -0.2151828,-0.11892 -0.6677479,-0.017 -0.1813096,0.0408 -0.4995585,0.0847 -0.7072188,0.0976 l -0.377565,0.0234 v -0.22586 c 0,-0.27015 -0.071399,-0.24348 0.7977714,-0.29798 1.3260934,-0.0831 2.6093072,-0.38886 3.639714,-0.86711 0.1981914,-0.092 0.3669853,-0.16725 0.375098,-0.16725 0.00811,0 0.010185,0.26087 0.00461,0.5797 -0.00841,0.48064 -0.019585,0.58147 -0.065398,0.59007 -0.033624,0.006 -0.095738,-0.062 -0.1586762,-0.17451 -0.056883,-0.10167 -0.1272265,-0.18487 -0.1563201,-0.18487 -0.072236,0 -0.7035306,0.28579 -1.3083855,0.59231 -0.5639391,0.28578 -0.8723417,0.5237 -1.2621787,0.97369 -0.3270031,0.37746 -0.8149416,1.11578 -1.1663549,1.76486 -0.1519472,0.28065 -0.3279523,0.56599 -0.3911232,0.63408 -0.1207694,0.13018 -0.2595181,0.16214 -0.2956056,0.0681 z"
       id="path884"
       inkscape:connector-curvature="0" />
    <path
       style="fill:#ffffff;stroke-width:0.00139221;stroke-miterlimit:4;stroke-dasharray:none"
       d="m 6.9604737,294.09338 c -0.1004824,-0.10048 0.093352,-0.59193 0.3928461,-0.99602 0.3570035,-0.48168 1.073483,-1.10656 1.5588416,-1.35954 0.2582417,-0.13461 0.4790515,-0.1638 0.5157439,-0.0682 0.1029033,0.26816 -0.6613827,1.35176 -1.3366107,1.89503 -0.4190924,0.33719 -1.034577,0.62496 -1.1308209,0.52872 z"
       id="path886"
       inkscape:connector-curvature="0" />
    <path
       style="fill:#ffffff;stroke-width:0.00139221;stroke-miterlimit:4;stroke-dasharray:none"
       d="m 7.5570812,296.08617 c -0.1792044,-0.0552 -0.5147758,-0.26597 -0.5238035,-0.32905 -0.0029,-0.0203 0.119048,-0.0571 0.2709949,-0.082 0.6960436,-0.11375 1.4717045,-0.51562 2.16394,-1.12114 0.2755142,-0.241 0.7092354,-0.70969 0.7092354,-0.76643 0,-0.0177 -0.09466,-0.0993 -0.2103585,-0.18139 l -0.2103582,-0.14924 -0.1113019,0.13712 c -0.5612012,0.69132 -1.4802333,1.32062 -2.1919364,1.50091 -0.7174922,0.18176 -1.2866718,-0.0209 -1.4753911,-0.52528 -0.151719,-0.40551 -0.074772,-0.90235 0.2382543,-1.5384 0.6043976,-1.2281 1.8702911,-2.25275 2.9844753,-2.41572 0.317312,-0.0464 0.4525636,-0.0967 0.5004582,-0.18624 0.029074,-0.0543 0.079461,-0.0687 0.2419642,-0.0687 0.1811811,0 0.2020811,0.007 0.1782801,0.0645 -0.103938,0.24852 -0.1650991,0.5275 -0.1650991,0.75311 v 0.25846 l -0.1017576,-0.10894 c -0.4544568,-0.48649 -1.3461231,-0.20155 -2.3220439,0.74206 -0.8824946,0.85327 -1.3560124,1.88842 -1.0508202,2.2972 0.1345609,0.18022 0.2574721,0.24389 0.5005447,0.25926 0.7917952,0.0501 2.1400437,-1.01274 2.7502611,-2.16802 0.095844,-0.18146 0.1854116,-0.31877 0.1990391,-0.30514 0.013629,0.0136 0.025062,0.0924 0.025417,0.17519 0.00106,0.24953 0.099536,0.63642 0.2190779,0.8607 0.1183,0.22195 0.353573,0.48938 0.712881,0.8103 l 0.214305,0.19142 -0.195528,0.2859 c -0.517128,0.75614 -1.388849,1.38043 -2.2268513,1.59475 -0.3367682,0.0861 -0.8693572,0.0931 -1.1238781,0.0148 z"
       id="path888"
       inkscape:connector-curvature="0" />
    <path
       style="fill:#ffffff;stroke-width:0.00139221;stroke-miterlimit:4;stroke-dasharray:none"
       d="m 12.277078,292.48212 c -0.933297,-0.26504 -1.50492,-0.62031 -1.683313,-1.04619 -0.08172,-0.19511 -0.07332,-0.54682 0.01799,-0.75323 0.148961,-0.33676 0.635935,-0.68064 1.268555,-0.89581 0.896936,-0.30507 2.094227,-0.27943 2.984546,0.0639 0.36559,0.141 0.818355,0.44282 0.974436,0.64958 0.326494,0.43253 0.221816,1.0272 -0.245427,1.39425 -0.564405,0.44338 -1.226037,0.62675 -2.377477,0.65892 -0.580787,0.0162 -0.648915,0.011 -0.939307,-0.0714 z m 2.000472,-0.48202 c 0.557703,-0.0973 0.948271,-0.28998 1.183154,-0.5838 0.150837,-0.18868 0.159394,-0.45818 0.02107,-0.66372 -0.163607,-0.24311 -0.579094,-0.46749 -1.105067,-0.59678 -0.332565,-0.0818 -1.347587,-0.11232 -1.780046,-0.0536 -0.401965,0.0545 -0.88081,0.18752 -1.129779,0.31368 -0.507568,0.2572 -0.64638,0.7043 -0.330399,1.06419 0.217222,0.2474 0.84443,0.50458 1.398443,0.57342 0.367144,0.0456 1.346992,0.0156 1.742624,-0.0534 z"
       id="path890"
       inkscape:connector-curvature="0" />
    <path
       style="fill:#ffffff;stroke-width:0.00139221;stroke-miterlimit:4;stroke-dasharray:none"
       d="m 12.301638,294.02109 c -0.933964,-0.20035 -1.716331,-0.85226 -1.80677,-1.50551 -0.0341,-0.24627 0.01558,-0.27173 0.229851,-0.1178 0.584885,0.4202 1.419135,0.67386 2.347147,0.71368 0.574526,0.0246 0.9393,-0.0134 1.476332,-0.15402 0.501002,-0.13119 0.881962,-0.28999 1.191425,-0.49663 0.151947,-0.10146 0.290835,-0.18451 0.30864,-0.18456 0.06094,-1.4e-4 -0.01735,0.3865 -0.125385,0.6193 -0.266508,0.57426 -1.029559,1.0404 -1.876725,1.14647 -0.449503,0.0563 -1.440017,0.0444 -1.744515,-0.0209 z"
       id="path892"
       inkscape:connector-curvature="0" />
    <path
       style="fill:#ffffff;stroke-width:0.00139221;stroke-miterlimit:4;stroke-dasharray:none"
       d="m 12.36097,291.4865 c -0.29818,-0.0684 -0.645004,-0.22526 -0.753211,-0.34081 l -0.08581,-0.0916 0.110505,-0.0891 c 0.127639,-0.10292 0.408268,-0.21471 0.753283,-0.30008 0.32997,-0.0817 1.262566,-0.0804 1.721332,0.002 0.614714,0.11083 0.984243,0.30188 0.897478,0.46399 -0.05785,0.10811 -0.401842,0.25943 -0.725171,0.31901 -0.431062,0.0794 -1.631038,0.10214 -1.918406,0.0363 z"
       id="path894"
       inkscape:connector-curvature="0" />
  </g>
</svg>
