<?xml version="1.0" encoding="UTF-8" standalone="no"?>
<!-- Created with Inkscape (http://www.inkscape.org/) -->

<svg
   xmlns:dc="http://purl.org/dc/elements/1.1/"
   xmlns:cc="http://creativecommons.org/ns#"
   xmlns:rdf="http://www.w3.org/1999/02/22-rdf-syntax-ns#"
   xmlns:svg="http://www.w3.org/2000/svg"
   xmlns="http://www.w3.org/2000/svg"
   xmlns:sodipodi="http://sodipodi.sourceforge.net/DTD/sodipodi-0.dtd"
   xmlns:inkscape="http://www.inkscape.org/namespaces/inkscape"
   width="64"
   height="64"
   viewBox="0 0 16.933333 16.933334"
   version="1.1"
   id="svg8"
   inkscape:version="0.92.5 (2060ec1f9f, 2020-04-08)"
   sodipodi:docname="bodywash_64x64.svg">
  <defs
     id="defs2" />
  <sodipodi:namedview
     id="base"
     pagecolor="#ffffff"
     bordercolor="#666666"
     borderopacity="1.0"
     inkscape:pageopacity="0.0"
     inkscape:pageshadow="2"
     inkscape:zoom="3.959798"
     inkscape:cx="4.0751422"
     inkscape:cy="24.068105"
     inkscape:document-units="mm"
     inkscape:current-layer="layer1"
     showgrid="false"
     units="px"
     inkscape:window-width="1208"
     inkscape:window-height="987"
     inkscape:window-x="1992"
     inkscape:window-y="0"
     inkscape:window-maximized="1" />
  <metadata
     id="metadata5">
    <rdf:RDF>
      <cc:Work
         rdf:about="">
        <dc:format>image/svg+xml</dc:format>
        <dc:type
           rdf:resource="http://purl.org/dc/dcmitype/StillImage" />
        <dc:title></dc:title>
      </cc:Work>
    </rdf:RDF>
  </metadata>
  <g
     inkscape:label="Layer 1"
     inkscape:groupmode="layer"
     id="layer1"
     transform="translate(0,-280.06665)">
    <path
       style="fill:#000000;stroke-width:0.02954827"
       d="m 5.9182624,296.01721 c -0.060428,-0.0521 -0.1106872,-0.17285 -0.224234,-0.53925 -0.4999642,-1.61341 -0.6538736,-3.09939 -0.4834945,-4.66813 0.1838293,-1.69257 0.7185793,-3.25538 1.6197529,-4.73377 l 0.2558552,-0.41973 v -1.00432 -1.00434 l 0.070295,-0.0817 c 0.066545,-0.0774 0.086225,-0.0823 0.3693532,-0.0938 l 0.2990629,-0.0119 v -0.40516 -0.40517 l -0.1551285,-0.0366 c -0.3946502,-0.0929 -0.6666911,-0.12654 -1.1557728,-0.14241 -0.4929848,-0.0159 -0.5330197,-0.0216 -0.6057404,-0.0842 l -0.077865,-0.067 v -0.61085 -0.61086 l 0.08291,-0.0713 0.08291,-0.0713 1.9706988,6.8e-4 c 1.8544956,5.5e-4 1.9778064,0.004 2.0912158,0.0553 0.261641,0.11887 0.31691,0.28334 0.3031,0.90214 -0.0085,0.38084 -0.01851,0.45991 -0.06904,0.5457 -0.07444,0.1264 -0.18561,0.21004 -0.3138864,0.23622 l -0.09979,0.0204 -0.0082,0.3721 -0.0082,0.3721 0.2950144,0.0119 c 0.261479,0.0105 0.303563,0.0198 0.370211,0.0825 l 0.07519,0.0707 v 1.01806 1.01806 l 0.186979,0.29907 c 1.04269,1.66782 1.604067,3.403 1.736233,5.36662 0.07385,1.09708 -0.04855,2.38557 -0.328407,3.45714 -0.180661,0.69177 -0.348587,1.17357 -0.431867,1.23907 -0.07723,0.0607 -0.09193,0.0611 -2.9233967,0.0611 H 5.9962781 Z m 5.6222516,-0.76035 c 0.758278,-2.39779 0.658333,-4.9477 -0.286641,-7.3132 -0.157853,-0.39515 -0.513475,-1.09988 -0.771631,-1.52913 l -0.244344,-0.40629 -1.3912017,3.5e-4 -1.391201,3.3e-4 -0.2434128,0.4059 c -1.5911962,2.65337 -1.9856363,5.73509 -1.1108612,8.679 0.05788,0.1948 0.1167103,0.38433 0.1307377,0.42123 l 0.025492,0.0671 2.592473,-0.008 2.592475,-0.008 z m -3.2281187,-1.0058 c -1.9750232,-0.49896 -2.6551645,-3.1707 -1.1984797,-4.70788 0.1986479,-0.20962 0.4479517,-0.39153 0.7257066,-0.52955 0.3646219,-0.18118 0.5100224,-0.21193 1.0046424,-0.21255 0.4082166,-4.5e-4 0.4635007,0.006 0.6999463,0.0837 0.8365551,0.27422 1.4826091,0.99441 1.7269401,1.92512 0.106236,0.40467 0.113382,1.02033 0.01639,1.41263 -0.244594,0.98939 -0.894388,1.71414 -1.7932168,2.00008 -0.3035882,0.0965 -0.8594388,0.11003 -1.1819309,0.0285 z m 0.9584312,-0.48981 c 0.4264628,-0.10501 0.8691625,-0.41271 1.1367465,-0.79019 0.174633,-0.24635 0.268132,-0.44003 0.361377,-0.74859 0.06901,-0.22842 0.07865,-0.31086 0.07865,-0.67392 0,-0.3646 -0.0095,-0.44505 -0.07987,-0.67815 -0.132615,-0.43915 -0.287202,-0.70189 -0.592604,-1.00725 -0.2933952,-0.29337 -0.5440286,-0.44149 -0.9018439,-0.53298 -0.2846128,-0.0728 -0.7759373,-0.0467 -1.040559,0.0552 -0.6506467,0.25058 -1.1304402,0.80853 -1.3265665,1.54268 -0.088906,0.33278 -0.089091,0.90759 -4.478e-4,1.23944 0.2247981,0.84116 0.8828521,1.49633 1.6282605,1.6211 0.1818929,0.0305 0.5589124,0.0165 0.736819,-0.0273 z m -1.1800433,-8.75764 v -0.50233 h 0.2511609 0.2511596 v 0.50233 0.50232 h 0.2511609 0.2511596 v -0.50232 -0.50233 h 0.251161 0.2511598 v 0.50233 0.50232 h 0.2511608 0.2511602 v -0.76827 -0.76824 H 8.8442646 7.5884626 v 0.76824 0.76827 h 0.2511596 0.251161 z m 1.2705756,-1.90587 v -0.36935 H 8.8442646 8.3271691 v 0.36935 0.36936 h 0.5170955 0.5170942 z m 0.495816,-1.26319 0.0083,-0.37674 H 8.091717 6.3179371 v 0.24665 0.24666 l 0.371349,0.0198 c 0.4903233,0.0263 0.7579116,0.0653 1.1344265,0.16575 0.3097512,0.0827 0.3161032,0.0831 1.1683446,0.0788 l 0.8569006,-0.004 z"
       id="path13770"
       inkscape:connector-curvature="0" />
    <path
       style="fill:#ffffff;stroke-width:0.00079771;stroke-miterlimit:4;stroke-dasharray:none"
       d="m 8.5013336,293.76961 c -0.6902827,-0.1368 -1.3054237,-0.72824 -1.5492155,-1.48951 -0.059954,-0.18719 -0.082593,-0.31865 -0.098918,-0.57417 -0.061129,-0.95684 0.4123878,-1.83159 1.2064881,-2.22883 0.2465684,-0.12337 0.3762428,-0.15305 0.7270605,-0.16657 0.2684707,-0.0105 0.3287305,-0.006 0.4854361,0.0334 0.3536602,0.0893 0.65185,0.27265 0.9446192,0.58086 0.249887,0.26307 0.391057,0.50045 0.508652,0.8553 0.09936,0.29985 0.113764,0.42071 0.102722,0.86214 -0.0092,0.3713 -0.01389,0.40741 -0.07587,0.59774 -0.09156,0.2811 -0.157208,0.42248 -0.292958,0.63092 -0.267495,0.41073 -0.7427232,0.76457 -1.1757767,0.87543 -0.1822019,0.0466 -0.6014529,0.0592 -0.7822311,0.0234 z"
       id="path13772"
       inkscape:connector-curvature="0" />
    <path
       style="fill:#ffffff;stroke-width:0.00079771;stroke-miterlimit:4;stroke-dasharray:none"
       d="m 6.1696426,295.28242 c -0.3437287,-1.09636 -0.5070544,-2.1552 -0.5070544,-3.28724 0,-0.77381 0.059966,-1.37414 0.2127056,-2.12965 0.2424856,-1.19936 0.6973851,-2.35319 1.3800597,-3.50043 l 0.2103282,-0.35344 1.3831689,5e-4 1.3831684,4.8e-4 0.183434,0.31082 c 0.661805,1.12136 1.038953,2.02233 1.305181,3.11789 0.469956,1.93394 0.411038,3.83567 -0.178894,5.77432 l -0.100111,0.32898 -1.267845,0.014 c -0.6973135,0.008 -1.8630388,0.014 -2.5905009,0.014 H 6.2606294 Z m 3.2425425,-1.02623 c 0.071458,-0.0181 0.2165708,-0.0703 0.3224601,-0.11597 0.7742148,-0.33378 1.3148618,-0.99255 1.5577848,-1.89814 0.05055,-0.18844 0.05506,-0.24001 0.05656,-0.64797 0.0018,-0.48622 -0.01722,-0.6398 -0.117304,-0.94726 -0.28198,-0.86618 -0.893116,-1.50285 -1.7067161,-1.77803 -0.1774605,-0.0599 -0.1847622,-0.0606 -0.6753892,-0.0606 -0.5772682,0 -0.64656,0.0142 -1.037031,0.21366 -0.641752,0.32769 -1.1007539,0.86878 -1.3377026,1.57696 -0.1073982,0.32099 -0.1442197,0.56222 -0.1438855,0.94261 4.227e-4,0.48074 0.084059,0.86266 0.2797547,1.27753 0.3588525,0.76077 1.0122056,1.29725 1.7745342,1.4571 0.1855424,0.039 0.8454152,0.0262 1.0269343,-0.0198 z"
       id="path13774"
       inkscape:connector-curvature="0" />
    <path
       style="fill:#ffffff;stroke-width:0.00079771;stroke-miterlimit:4;stroke-dasharray:none"
       d="m 7.6043326,284.7453 v -0.75982 H 8.8495811 10.09483 v 0.75982 0.75981 H 9.8521108 9.6093933 v -0.50655 -0.50653 H 9.3455695 9.0817455 v 0.50653 0.50655 H 8.8390288 8.5963107 v -0.50655 -0.50653 H 8.343039 8.0897687 v 0.50653 0.50655 H 7.8470506 7.6043326 Z"
       id="path13776"
       inkscape:connector-curvature="0" />
    <path
       style="fill:#ffffff;stroke-width:0.00079771;stroke-miterlimit:4;stroke-dasharray:none"
       d="m 8.343039,283.09904 v -0.35881 H 8.8495811 9.356123 v 0.35881 0.35879 H 8.8495811 8.343039 Z"
       id="path13778"
       inkscape:connector-curvature="0" />
    <path
       style="fill:#ffffff;stroke-width:0.00079771;stroke-miterlimit:4;stroke-dasharray:none"
       d="m 8.1530863,282.19161 c -0.075447,-0.009 -0.2553547,-0.0457 -0.3997803,-0.0819 -0.2894629,-0.0724 -0.6173322,-0.12099 -0.9404451,-0.13943 -0.1160763,-0.006 -0.270419,-0.0173 -0.3429706,-0.0237 l -0.1319132,-0.0119 v -0.23049 -0.23049 h 1.7593971 1.7593966 l -0.01031,0.35353 c -0.0057,0.19445 -0.01459,0.35828 -0.01989,0.36408 -0.01591,0.0174 -1.5255411,0.0176 -1.6735226,1.2e-4 z"
       id="path13780"
       inkscape:connector-curvature="0" />
  </g>
</svg>
