<?xml version="1.0" encoding="UTF-8" standalone="no"?>
<!-- Created with Inkscape (http://www.inkscape.org/) -->

<svg
   xmlns:dc="http://purl.org/dc/elements/1.1/"
   xmlns:cc="http://creativecommons.org/ns#"
   xmlns:rdf="http://www.w3.org/1999/02/22-rdf-syntax-ns#"
   xmlns:svg="http://www.w3.org/2000/svg"
   xmlns="http://www.w3.org/2000/svg"
   xmlns:sodipodi="http://sodipodi.sourceforge.net/DTD/sodipodi-0.dtd"
   xmlns:inkscape="http://www.inkscape.org/namespaces/inkscape"
   width="64"
   height="64"
   viewBox="0 0 16.933333 16.933334"
   version="1.1"
   id="svg8"
   inkscape:version="0.92.5 (2060ec1f9f, 2020-04-08)"
   sodipodi:docname="broken_64x64.svg">
  <defs
     id="defs2" />
  <sodipodi:namedview
     id="base"
     pagecolor="#ffffff"
     bordercolor="#666666"
     borderopacity="1.0"
     inkscape:pageopacity="0.0"
     inkscape:pageshadow="2"
     inkscape:zoom="1.979899"
     inkscape:cx="16.329019"
     inkscape:cy="-73.586705"
     inkscape:document-units="mm"
     inkscape:current-layer="layer1"
     showgrid="false"
     units="px"
     inkscape:window-width="1208"
     inkscape:window-height="987"
     inkscape:window-x="1992"
     inkscape:window-y="0"
     inkscape:window-maximized="1"
     showguides="false" />
  <metadata
     id="metadata5">
    <rdf:RDF>
      <cc:Work
         rdf:about="">
        <dc:format>image/svg+xml</dc:format>
        <dc:type
           rdf:resource="http://purl.org/dc/dcmitype/StillImage" />
        <dc:title></dc:title>
      </cc:Work>
    </rdf:RDF>
  </metadata>
  <g
     inkscape:label="Layer 1"
     inkscape:groupmode="layer"
     id="layer1"
     transform="translate(0,-280.06665)">
    <path
       style="fill:#000000;stroke-width:0.0296108"
       d="M 4.8761126,296.31763 C 4.7370941,296.24873 4.62668,296.07866 4.62668,295.93327 c 0,-0.24191 0.228253,-0.44416 0.501261,-0.44416 0.212155,0 0.5726493,-0.0783 0.8021759,-0.17431 0.5122343,-0.21416 0.973076,-0.675 1.1872432,-1.18723 0.1606675,-0.38429 0.1742919,-0.53349 0.1742919,-1.90865 v -1.25915 l -0.08143,-0.018 c -0.5090276,-0.11273 -0.8369643,-0.24475 -1.190315,-0.47915 -0.7176457,-0.47609 -1.2106901,-1.24139 -1.3496116,-2.09488 -0.036223,-0.22253 -0.043395,-0.80583 -0.043499,-3.53447 l -1.227e-4,-3.26796 0.062713,-0.11157 c 0.034489,-0.0614 0.1129236,-0.1398 0.1742931,-0.17431 l 0.1115815,-0.0627 h 3.6488705 3.6488712 l 0.11507,0.0646 c 0.07333,0.0412 0.136548,0.10904 0.174293,0.18701 0.05812,0.12006 0.05922,0.18282 0.05922,3.38111 0,3.50291 -3.12e-4,3.51097 -0.153626,3.97695 -0.225778,0.68621 -0.675524,1.27224 -1.273095,1.65887 -0.351038,0.22712 -0.646309,0.34363 -1.156821,0.45647 l -0.08143,0.0179 v 1.25914 c 0,1.37518 0.013624,1.52437 0.1742927,1.90865 0.214291,0.51254 0.664559,0.96345 1.181253,1.18296 0.233638,0.0993 0.592635,0.17858 0.808165,0.17858 0.204911,0 0.364065,0.0906 0.442036,0.25169 0.07485,0.1546 0.0745,0.23106 -0.0017,0.38863 -0.04428,0.0915 -0.09553,0.14271 -0.187013,0.18701 -0.125136,0.0606 -0.151248,0.0609 -3.7513894,0.0609 -3.5763743,-2e-5 -3.6270081,-7.8e-4 -3.7460793,-0.0597 z m 4.9688722,-0.99879 c -0.38868,-0.44985 -0.6387953,-0.98278 -0.7330695,-1.56197 -0.034061,-0.20926 -0.043403,-0.59315 -0.043497,-1.78742 -1.23e-4,-1.49439 9.744e-4,-1.52287 0.062594,-1.63251 0.084386,-0.15014 0.245111,-0.237 0.4385483,-0.237 0.2121552,0 0.5726494,-0.0783 0.8021764,-0.1743 0.512233,-0.21416 0.973076,-0.675 1.187243,-1.18723 0.176901,-0.42311 0.174292,-0.3686 0.174292,-3.64145 v -2.99193 h -1.435881 -1.43588 l -0.5927028,0.88831 -0.5927026,0.88833 h 0.963774 c 0.9074859,0 0.9705993,0.003 1.080639,0.0595 0.075219,0.0383 0.1381109,0.10123 0.1764848,0.1765 0.069962,0.13713 0.074904,0.23259 0.018974,0.36646 -0.057895,0.13856 -1.818715,2.77728 -1.8948643,2.8396 -0.3142367,0.25715 -0.7900373,-0.0156 -0.7159637,-0.41051 0.01199,-0.064 0.2780415,-0.49171 0.6985946,-1.12328 l 0.6792303,-1.02005 H 7.7196362 c -0.9070495,0 -0.970167,-0.003 -1.0802034,-0.0596 -0.2045802,-0.10438 -0.2916092,-0.36897 -0.1875424,-0.57021 0.026709,-0.0517 0.3399435,-0.53069 0.6960756,-1.06453 l 0.6475126,-0.97061 H 6.6552415 5.515004 v 2.99195 c 0,3.27285 -0.00261,3.21833 0.1742918,3.64144 0.2142913,0.51253 0.6645596,0.96344 1.1812544,1.18295 0.2336375,0.0993 0.5926352,0.17858 0.8081649,0.17858 0.204912,0 0.3640648,0.0907 0.4420365,0.25169 0.056851,0.11743 0.059202,0.18219 0.058638,1.61574 -5.708e-4,1.46314 -0.013689,1.72654 -0.1035878,2.0805 -0.1076936,0.42399 -0.3468595,0.88278 -0.6449334,1.23713 l -0.1716967,0.2041 h 1.3664615 1.3664611 z"
       id="path8503"
       inkscape:connector-curvature="0" />
    <path
       style="fill:#ffffff;stroke-width:0.00056526;stroke-miterlimit:4;stroke-dasharray:none"
       d="m 7.2911947,295.47056 c 0,-0.003 0.055709,-0.0738 0.1237983,-0.15516 0.3482328,-0.41646 0.6059524,-0.93659 0.6976789,-1.40809 0.053812,-0.27661 0.062978,-0.50213 0.071116,-1.74981 0.0083,-1.27307 -0.00224,-1.68094 -0.046115,-1.78599 -0.040537,-0.097 -0.1098388,-0.16947 -0.208603,-0.21808 -0.079339,-0.0391 -0.1199774,-0.0481 -0.2720983,-0.0603 -0.6153556,-0.0495 -1.0699809,-0.25361 -1.4805717,-0.66435 -0.3150763,-0.3152 -0.5350873,-0.70627 -0.5969589,-1.06105 -0.045287,-0.2597 -0.052853,-0.76171 -0.052937,-3.51233 l -8.3e-5,-2.74811 h 1.1292364 1.1292364 l -0.4610296,0.69169 c -0.6293422,0.94423 -0.8531106,1.28882 -0.8876442,1.36688 -0.019452,0.0439 -0.029282,0.0994 -0.029282,0.16515 0,0.17631 0.1030784,0.33288 0.2660144,0.40408 0.048558,0.0212 0.1415057,0.0267 0.6032865,0.0358 0.300236,0.005 0.732643,0.0114 0.9609046,0.0122 0.2282615,7.3e-4 0.4150209,0.004 0.4150209,0.009 0,0.003 -0.1995262,0.30881 -0.4433917,0.67675 -0.5312973,0.80163 -0.7615382,1.16056 -0.8532012,1.33009 -0.064839,0.11991 -0.067918,0.131 -0.060856,0.21895 0.019292,0.24035 0.2005042,0.40516 0.4462083,0.40584 0.096744,2.6e-4 0.1259643,-0.007 0.2007439,-0.0445 0.081336,-0.0417 0.098993,-0.0613 0.2499811,-0.27668 0.2076476,-0.29628 1.2622061,-1.87383 1.5136817,-2.26436 0.233891,-0.36323 0.2472288,-0.39122 0.2476528,-0.51983 6.189e-4,-0.18765 -0.120456,-0.35172 -0.3031849,-0.41084 -0.068286,-0.022 -0.1932738,-0.0262 -1.0167381,-0.034 l -0.9388808,-0.009 0.5870516,-0.87863 0.5870516,-0.87866 h 1.4347003 1.434699 l -0.0096,2.83037 c -0.0094,2.81228 -0.01661,3.19983 -0.06346,3.45103 -0.04407,0.23619 -0.201075,0.56635 -0.386464,0.81268 -0.183771,0.24418 -0.520972,0.52674 -0.79067,0.66256 -0.231393,0.11652 -0.5652441,0.20224 -0.8891282,0.22829 -0.2105084,0.0169 -0.2819365,0.0422 -0.3835575,0.13591 -0.1245042,0.11477 -0.1318459,0.14406 -0.1477131,0.58936 -0.016452,0.46169 -0.00261,2.49648 0.018714,2.75064 0.056421,0.67255 0.3458023,1.30567 0.8574306,1.87592 l 0.030192,0.0337 H 8.6323375 c -0.7376287,0 -1.3411431,-0.003 -1.3411431,-0.008 z"
       id="path8505"
       inkscape:connector-curvature="0" />
  </g>
</svg>
