<?xml version="1.0" encoding="UTF-8" standalone="no"?>
<!-- Created with Inkscape (http://www.inkscape.org/) -->

<svg
   xmlns:dc="http://purl.org/dc/elements/1.1/"
   xmlns:cc="http://creativecommons.org/ns#"
   xmlns:rdf="http://www.w3.org/1999/02/22-rdf-syntax-ns#"
   xmlns:svg="http://www.w3.org/2000/svg"
   xmlns="http://www.w3.org/2000/svg"
   xmlns:sodipodi="http://sodipodi.sourceforge.net/DTD/sodipodi-0.dtd"
   xmlns:inkscape="http://www.inkscape.org/namespaces/inkscape"
   width="64"
   height="64"
   viewBox="0 0 16.933333 16.933334"
   version="1.1"
   id="svg8"
   inkscape:version="0.92.5 (2060ec1f9f, 2020-04-08)"
   sodipodi:docname="broom_64x64.svg">
  <defs
     id="defs2" />
  <sodipodi:namedview
     id="base"
     pagecolor="#ffffff"
     bordercolor="#666666"
     borderopacity="1.0"
     inkscape:pageopacity="0.0"
     inkscape:pageshadow="2"
     inkscape:zoom="3.959798"
     inkscape:cx="70.481184"
     inkscape:cy="9.3230098"
     inkscape:document-units="mm"
     inkscape:current-layer="layer1"
     showgrid="false"
     units="px"
     inkscape:window-width="1208"
     inkscape:window-height="987"
     inkscape:window-x="1992"
     inkscape:window-y="0"
     inkscape:window-maximized="1" />
  <metadata
     id="metadata5">
    <rdf:RDF>
      <cc:Work
         rdf:about="">
        <dc:format>image/svg+xml</dc:format>
        <dc:type
           rdf:resource="http://purl.org/dc/dcmitype/StillImage" />
        <dc:title />
      </cc:Work>
    </rdf:RDF>
  </metadata>
  <g
     inkscape:label="Layer 1"
     inkscape:groupmode="layer"
     id="layer1"
     transform="translate(0,-280.06665)">
    <path
       style="fill:#000000;stroke-width:0.03136316"
       d="m 8.7389867,296.1697 c -0.713488,-0.0481 -1.4158781,-0.33897 -1.8014085,-0.74611 -0.050664,-0.0535 -0.1078646,-0.0973 -0.1271118,-0.0973 -0.019248,0 -0.147156,-0.0543 -0.2842416,-0.12067 -1.2385696,-0.59964 -1.784333,-2.06446 -1.2462686,-3.34496 0.3026361,-0.72021 0.9814407,-1.29573 1.7575792,-1.49014 l 0.1332934,-0.0334 v -0.32324 c 0,-0.38325 0.026795,-0.42706 0.2612157,-0.42706 h 0.1465054 v -2.39928 c 0,-2.31119 -0.00212,-2.39929 -0.057865,-2.39929 -0.031826,0 -0.081694,-0.0263 -0.1108179,-0.0585 -0.048553,-0.0536 -0.052214,-0.1989 -0.044065,-1.7485 l 0.00889,-1.68998 0.087677,-0.14916 c 0.2640938,-0.44927 0.9405312,-0.44927 1.2046251,0 l 0.087677,0.14916 0.00889,1.68998 c 0.00815,1.5496 0.00449,1.69485 -0.044065,1.7485 -0.029124,0.0322 -0.071935,0.0585 -0.095136,0.0585 -0.034969,0 -0.042184,0.41038 -0.042184,2.39929 v 2.39928 h 0.1362732 c 0.2071124,0 0.236027,0.0508 0.2467548,0.43389 l 0.00901,0.32177 0.210769,0.0736 c 0.4915106,0.17159 0.8328669,0.56801 0.9873669,1.14664 0.07844,0.29377 0.074,0.951 -0.0082,1.20748 -0.04754,0.14842 -0.06034,0.28095 -0.06059,0.62727 -2.85e-4,0.40142 0.0061,0.45118 0.07391,0.58022 0.101702,0.19338 0.151783,0.24452 0.3335,0.34054 0.151821,0.0802 0.173887,0.0829 0.692788,0.0829 0.628841,0 0.656028,0.01 0.631276,0.22948 -0.0085,0.0758 -0.073,0.25381 -0.143221,0.39553 -0.220492,0.44497 -0.663111,0.82411 -1.151683,0.9865 -0.361048,0.12001 -1.2284291,0.19566 -1.8011784,0.15709 z m -0.1214001,-0.49816 c -0.2283079,-0.18046 -0.276795,-0.29719 -0.1716889,-0.41333 0.07462,-0.0825 0.2057183,-0.072 0.295463,0.0236 0.041819,0.0446 0.1585984,0.13616 0.2595107,0.20357 0.7180486,0.47967 1.7816086,0.26588 2.2595796,-0.45422 0.178737,-0.26927 0.192419,-0.25376 -0.223801,-0.25376 -0.411213,0 -0.588021,-0.0439 -0.835071,-0.20759 -0.317079,-0.21002 -0.4615174,-0.52853 -0.4818727,-1.06262 -0.011462,-0.30076 -2.845e-4,-0.42751 0.067304,-0.76308 0.091906,-0.45632 0.1005371,-0.72361 0.033573,-1.03975 -0.0657,-0.31016 -0.1788314,-0.52063 -0.3774177,-0.70212 -0.3001809,-0.27435 -0.4008995,-0.29806 -1.321928,-0.31119 -0.724404,-0.0103 -0.8100929,-0.005 -1.0284447,0.0541 -0.749339,0.20558 -1.3032499,0.73217 -1.5527504,1.47617 -0.09399,0.28028 -0.117975,0.80925 -0.051195,1.12908 0.063043,0.30193 0.2897454,0.75397 0.4918344,0.98072 0.1663765,0.18666 0.3993267,0.38509 0.4236027,0.36081 0.00805,-0.008 -0.021667,-0.0967 -0.066046,-0.19709 -0.044378,-0.10035 -0.1168208,-0.30841 -0.1609844,-0.46238 -0.089527,-0.3121 -0.074953,-0.41367 0.064374,-0.44864 0.1466601,-0.0368 0.1918105,0.0248 0.3300816,0.45031 0.3209399,0.98769 0.8706427,1.51642 1.7791214,1.71123 0.1186122,0.0254 0.2627947,0.0474 0.3204054,0.0488 l 0.1047467,0.003 -0.1583963,-0.1252 z M 6.890276,293.04753 c -0.1825529,-0.23207 -0.2372326,-0.89951 -0.1007376,-1.22963 0.1223342,-0.29587 0.3459715,-0.56917 0.6221651,-0.76034 0.1518077,-0.10507 0.2304101,-0.11373 0.3031196,-0.0334 0.101997,0.11271 0.066566,0.20924 -0.1348941,0.36751 -0.4426362,0.34776 -0.5973801,0.80587 -0.440868,1.30516 0.080124,0.2556 0.078934,0.32532 -0.00657,0.38521 -0.1001136,0.0701 -0.1674432,0.0605 -0.242211,-0.0345 z m 1.691895,-2.91183 v -0.1725 H 8.0646788 7.5471868 v 0.1725 0.17249 h 0.517492 0.5174922 z m -0.376358,-2.94814 v -2.39928 H 8.0803604 7.9549077 v 2.39928 2.39929 H 8.0803604 8.205813 Z m 0.188179,-3.92039 v -1.14476 H 8.0646788 7.7353658 v 1.14476 1.14475 h 0.329313 0.3293132 z m 0,-1.67949 c 0,-0.20475 -0.069635,-0.33642 -0.208633,-0.3945 -0.2425487,-0.10134 -0.449655,0.0774 -0.4498761,0.38821 l -1.171e-4,0.16466 h 0.329313 0.3293132 z"
       id="path8852"
       inkscape:connector-curvature="0" />
    <path
       style="fill:#ffffff;stroke-width:0.0025401;stroke-miterlimit:4;stroke-dasharray:none"
       d="m 7.7373027,283.26459 v -1.14251 h 0.3248327 0.3248328 v 1.14251 1.14252 H 8.0621354 7.7373027 Z"
       id="path8854"
       inkscape:connector-curvature="0" />
    <path
       style="fill:#ffffff;stroke-width:0.0025401;stroke-miterlimit:4;stroke-dasharray:none"
       d="m 7.7439741,281.58415 c 0.027579,-0.32896 0.2152251,-0.48049 0.4544365,-0.36698 0.1137062,0.054 0.1673968,0.15877 0.1823034,0.35587 l 0.012722,0.1682 H 8.0621198 7.7308044 Z"
       id="path8856"
       inkscape:connector-curvature="0" />
    <path
       style="fill:#ffffff;stroke-width:0.0025401;stroke-miterlimit:4;stroke-dasharray:none"
       d="m 7.9613252,287.18499 v -2.39704 h 0.1120114 0.1120113 v 2.39704 2.39704 H 8.0733366 7.9613252 Z"
       id="path8858"
       inkscape:connector-curvature="0" />
    <path
       style="fill:#ffffff;stroke-width:0.0025401;stroke-miterlimit:4;stroke-dasharray:none"
       d="m 7.5580846,290.13089 v -0.16802 h 0.5040508 0.504051 v 0.16802 0.16801 H 8.0621354 7.5580846 Z"
       id="path8860"
       inkscape:connector-curvature="0" />
    <path
       style="fill:#ffffff;stroke-width:0.0025401;stroke-miterlimit:4;stroke-dasharray:none"
       d="m 8.4043503,295.74309 c -0.9579313,-0.20198 -1.4734266,-0.6922 -1.8333482,-1.74347 -0.1150352,-0.336 -0.1643216,-0.41623 -0.2615234,-0.42573 -0.09028,-0.009 -0.1589984,0.0278 -0.1861422,0.0992 -0.03568,0.0938 0.060191,0.47227 0.2220891,0.87665 0.025898,0.0647 0.036918,0.11761 0.024487,0.11761 -0.048999,0 -0.4156095,-0.37911 -0.51916,-0.53685 -0.3136994,-0.47789 -0.4264184,-0.91757 -0.3757087,-1.46551 0.035079,-0.37904 0.1284794,-0.65382 0.3265642,-0.96073 0.288843,-0.44753 0.6842199,-0.74783 1.2188224,-0.92574 0.1868346,-0.0622 0.2018056,-0.0635 0.7952802,-0.0716 0.6950843,-0.009 1.1153956,0.0179 1.2925589,0.0842 0.2204162,0.0825 0.4912146,0.35428 0.6032115,0.60547 0.1467852,0.32922 0.1714498,0.78095 0.070556,1.29224 -0.052517,0.26614 -0.061033,0.36448 -0.060757,0.70156 3.575e-4,0.43435 0.025287,0.57554 0.1450094,0.82124 0.079584,0.16333 0.2693576,0.34834 0.4490066,0.43773 0.194128,0.0966 0.360954,0.12998 0.649838,0.12998 0.277558,0 0.401334,0.015 0.401334,0.0486 0,0.0113 -0.04943,0.0939 -0.109835,0.18338 -0.337106,0.49957 -0.914289,0.76178 -1.5534845,0.70574 -0.3231314,-0.0283 -0.6276904,-0.16455 -0.9116007,-0.40771 -0.1570002,-0.13447 -0.2644828,-0.14875 -0.3541748,-0.047 -0.095309,0.10809 -0.071421,0.18035 0.1198966,0.36269 0.1599632,0.15247 0.1664864,0.16232 0.1064624,0.16085 -0.035168,-6.9e-4 -0.1518903,-0.0202 -0.2593817,-0.0428 z m -1.332849,-2.61963 c 0.1410767,-0.0536 0.1590349,-0.15095 0.078626,-0.42609 -0.068458,-0.23424 -0.067332,-0.54327 0.00264,-0.72358 0.076036,-0.19594 0.2098528,-0.37899 0.3917745,-0.5359 0.2434328,-0.20996 0.2772616,-0.28105 0.1912378,-0.40186 -0.062297,-0.0875 -0.1758626,-0.0887 -0.302579,-0.003 -0.3564984,0.24023 -0.6395612,0.62903 -0.7035334,0.96636 -0.0713,0.37597 0.019809,0.92226 0.180633,1.08308 0.067977,0.068 0.081834,0.0715 0.1612034,0.0413 z"
       id="path8862"
       inkscape:connector-curvature="0" />
    <path
       style="stroke-width:0.25253814;fill:#ffffff"
       d="m 30.176098,26.973557 c 0,-7.800623 0.0492,-8.965104 0.378807,-8.965104 0.329604,0 0.378807,1.164481 0.378807,8.965104 0,7.800622 -0.0492,8.965104 -0.378807,8.965104 -0.329604,0 -0.378807,-1.164482 -0.378807,-8.965104 z"
       id="path13"
       inkscape:connector-curvature="0"
       transform="matrix(0.26458333,0,0,0.26458333,0,280.06665)" />
  </g>
</svg>
