<?xml version="1.0" encoding="UTF-8" standalone="no"?>
<!-- Created with Inkscape (http://www.inkscape.org/) -->

<svg
   xmlns:dc="http://purl.org/dc/elements/1.1/"
   xmlns:cc="http://creativecommons.org/ns#"
   xmlns:rdf="http://www.w3.org/1999/02/22-rdf-syntax-ns#"
   xmlns:svg="http://www.w3.org/2000/svg"
   xmlns="http://www.w3.org/2000/svg"
   xmlns:sodipodi="http://sodipodi.sourceforge.net/DTD/sodipodi-0.dtd"
   xmlns:inkscape="http://www.inkscape.org/namespaces/inkscape"
   width="64"
   height="64"
   viewBox="0 0 16.933333 16.933334"
   version="1.1"
   id="svg8"
   inkscape:version="0.92.5 (2060ec1f9f, 2020-04-08)"
   sodipodi:docname="capiluve_64x64.svg">
  <defs
     id="defs2" />
  <sodipodi:namedview
     id="base"
     pagecolor="#ffffff"
     bordercolor="#666666"
     borderopacity="1.0"
     inkscape:pageopacity="0.0"
     inkscape:pageshadow="2"
     inkscape:zoom="3.959798"
     inkscape:cx="102.1421"
     inkscape:cy="22.268387"
     inkscape:document-units="mm"
     inkscape:current-layer="layer1"
     showgrid="false"
     units="px"
     inkscape:window-width="1208"
     inkscape:window-height="987"
     inkscape:window-x="1992"
     inkscape:window-y="0"
     inkscape:window-maximized="1" />
  <metadata
     id="metadata5">
    <rdf:RDF>
      <cc:Work
         rdf:about="">
        <dc:format>image/svg+xml</dc:format>
        <dc:type
           rdf:resource="http://purl.org/dc/dcmitype/StillImage" />
        <dc:title></dc:title>
      </cc:Work>
    </rdf:RDF>
  </metadata>
  <g
     inkscape:label="Layer 1"
     inkscape:groupmode="layer"
     id="layer1"
     transform="translate(0,-280.06665)">
    <path
       style="fill:#000000;stroke-width:0.03099099"
       d="m 0.5825022,296.38749 -0.0760653,-0.0761 v -2.1102 -2.11021 l 0.0760653,-0.0761 c 0.0753118,-0.0753 0.0818198,-0.0761 0.6522198,-0.0761 0.5703945,0 0.5769112,6.9e-4 0.6522198,0.0761 0.096954,0.097 0.096954,0.21578 0,0.31273 -0.073281,0.0733 -0.091473,0.0761 -0.4958558,0.0761 H 0.97129877 v 1.95383 1.95384 l -0.0760653,0.0761 c -0.0418435,0.0418 -0.11220227,0.0761 -0.15636402,0.0761 -0.0441585,0 -0.11452593,-0.0343 -0.15636401,-0.0761 z m 7.927356,0.0153 c -0.070136,-0.0659 -0.094006,-0.22499 -0.045283,-0.30161 0.012918,-0.0203 0.2044655,-0.12675 0.4256521,-0.23651 1.5341267,-0.76128 2.7702617,-2.09467 2.8831347,-3.10997 0.01983,-0.17833 0.01584,-0.19679 -0.05854,-0.27117 l -0.07981,-0.0798 H 7.1123517 c -4.2617495,0 -4.5264285,-0.003 -4.5879817,-0.0543 -0.035925,-0.0298 -0.073892,-0.0986 -0.084375,-0.15291 -0.015364,-0.0796 -0.00371,-0.11404 0.060483,-0.17819 l 0.079538,-0.0795 h 0.617962 0.6179631 l 0.015549,-1.07695 c 0.014195,-0.98312 0.022221,-1.11067 0.092161,-1.46431 0.222475,-1.1249 0.6852381,-1.99652 1.3967355,-2.63077 0.7869697,-0.70154 1.8508531,-1.04634 2.8847008,-0.93494 0.5555319,0.0598 0.6522263,0.16392 0.4532457,0.4878 -0.1482705,0.24132 -0.2529219,0.65283 -0.2665189,1.04799 -0.01105,0.32104 -0.016401,0.34497 -0.091899,0.41063 -0.1028072,0.0894 -0.1758936,0.0881 -0.2841779,-0.005 -0.086351,-0.0744 -0.086919,-0.0773 -0.082431,-0.42612 0.0036,-0.27671 0.02209,-0.41374 0.087334,-0.64568 0.1288665,-0.45814 0.153621,-0.419 -0.2622974,-0.41461 -0.8513336,0.009 -1.5797611,0.30876 -2.2083325,0.90878 -0.6747129,0.64408 -1.0617427,1.4623 -1.2143569,2.56725 -0.034735,0.2515 -0.048297,0.60619 -0.048297,1.26289 v 0.91317 h 0.464864 0.4648651 v -0.69504 -0.69505 l 0.081656,-0.0642 c 0.1062904,-0.0836 0.1742185,-0.081 0.280759,0.0109 l 0.086952,0.0747 0.00939,0.68454 0.00939,0.68455 h 0.6989361 c 0.6539691,0 0.6974189,-0.003 0.6753713,-0.0543 -0.012961,-0.0298 -0.050808,-0.13094 -0.084102,-0.22469 -0.1268922,-0.35725 -0.013922,-0.76913 0.290164,-1.05791 l 0.1512853,-0.14366 -0.1779518,-0.13371 c -0.4709986,-0.35392 -0.8890868,-0.88375 -1.0674224,-1.35272 -0.090752,-0.23868 -0.099903,-0.25115 -0.1409927,-0.19249 -0.070649,0.10089 -0.2155324,0.52406 -0.2704652,0.79 -0.060527,0.29304 -0.1073387,0.355 -0.2682059,0.355 -0.166102,0 -0.228127,-0.0977 -0.2020851,-0.31857 0.054139,-0.45899 0.2693973,-1.0035 0.528741,-1.33749 l 0.1415025,-0.18222 -0.00732,-0.24554 c -0.00677,-0.22516 -0.00131,-0.25047 0.065812,-0.305 0.09286,-0.0755 0.2353994,-0.0763 0.309889,-0.002 0.043972,0.044 0.062862,0.12668 0.079624,0.34864 0.07731,1.02359 0.4586028,1.64609 1.3788123,2.25103 0.4044977,0.26591 0.4363521,0.29608 0.4363521,0.41328 0,0.13871 -0.08776,0.21254 -0.2916643,0.24534 -0.2357379,0.0379 -0.4086679,0.15199 -0.4848631,0.31981 -0.1406956,0.30988 -0.020529,0.62158 0.2961664,0.7682 0.1051985,0.0487 0.2037263,0.0574 0.6508111,0.0577 l 0.5268464,3.5e-4 0.2324326,-0.19724 c 0.6406287,-0.54364 1.3395848,-0.89119 2.2003608,-1.09412 0.262211,-0.0618 0.43898,-0.08 0.910213,-0.0938 l 0.584806,-0.017 0.133265,-0.28713 c 0.320731,-0.69103 0.493083,-1.28415 0.4736,-1.62979 -0.01404,-0.24903 -0.10367,-0.39615 -0.37522,-0.61587 -0.151599,-0.12266 -0.660114,-0.43404 -0.708841,-0.43404 -0.0083,0 -0.0467,0.07 -0.08537,0.15558 -0.152613,0.33767 -0.484367,0.68118 -0.657891,0.68118 -0.118873,0 -0.212576,-0.0992 -0.212576,-0.22488 0,-0.0812 0.03196,-0.13178 0.163774,-0.259 0.170182,-0.16427 0.389517,-0.52721 0.343171,-0.56786 -0.01462,-0.0128 -0.166043,-0.0829 -0.336495,-0.15575 -0.17045,-0.0728 -0.329228,-0.15061 -0.35284,-0.17282 -0.02361,-0.0222 -0.06888,-0.17744 -0.100591,-0.34494 -0.03171,-0.16751 -0.09607,-0.38129 -0.143014,-0.47506 -0.07846,-0.15674 -0.09323,-0.1699 -0.182869,-0.16308 -0.05364,0.004 -0.214012,0.0578 -0.356396,0.11921 -0.5817424,0.25118 -0.768467,0.32037 -0.9182935,0.34024 -0.1420344,0.0188 -0.165021,0.0131 -0.237045,-0.0589 -0.1573577,-0.15735 -0.057917,-0.36328 0.1949656,-0.40372 0.072899,-0.0117 0.3226233,-0.10537 0.5549319,-0.2083 0.512526,-0.22705 0.762436,-0.29229 0.93827,-0.24495 0.269689,0.0726 0.441874,0.32599 0.566326,0.83335 l 0.07073,0.28834 0.463275,0.20798 c 1.537065,0.69008 1.970812,1.19201 1.813035,2.09802 -0.05098,0.29274 -0.223499,0.81411 -0.405998,1.22695 -0.08403,0.19007 -0.148561,0.34979 -0.143421,0.35493 0.0051,0.005 0.141819,0.0438 0.303731,0.0858 0.443317,0.11518 0.592351,0.17801 0.645082,0.27196 0.05947,0.10592 0.01768,0.23715 -0.09581,0.30086 -0.07423,0.0416 -0.105329,0.0383 -0.355986,-0.0382 -0.96286,-0.29399 -1.899179,-0.2952 -2.815917,-0.003 -0.307545,0.0978 -0.996139,0.43689 -1.2237434,0.6026 l -0.1700494,0.1238 1.0223018,7.1e-4 c 0.961956,5.8e-4 1.030534,0.004 1.161761,0.0639 0.241176,0.10934 0.372964,0.28061 0.416295,0.54101 0.02468,0.14832 -0.02411,0.48318 -0.105559,0.72442 -0.03203,0.0949 -0.05578,0.1746 -0.05277,0.1772 0.0029,0.002 0.10308,-0.0159 0.222392,-0.0413 0.325565,-0.069 0.768905,-0.0406 1.099436,0.0702 0.435749,0.1462 0.59638,0.2794 1.836961,1.52315 1.234443,1.2376 1.225787,1.22629 1.062851,1.38922 -0.162309,0.16231 -0.148389,0.17301 -1.425307,-1.09563 -1.260792,-1.25262 -1.329511,-1.30856 -1.738472,-1.41508 -0.246855,-0.0643 -0.605249,-0.0601 -0.85823,0.01 -0.302838,0.084 -0.527354,0.23278 -0.778264,0.51583 -0.744761,0.84015 -1.5062159,1.43976 -2.3653865,1.86261 -0.4171578,0.20532 -0.5249082,0.22914 -0.6222381,0.13753 z m 7.2185228,-4.00734 c -0.338931,-0.32602 -0.580737,-0.52216 -0.862614,-0.69969 -0.170496,-0.10734 -0.196449,-0.1449 -0.196449,-0.28404 0,-0.0955 0.121405,-0.21665 0.21714,-0.21665 0.143833,0 0.821949,0.51644 1.231689,0.93802 0.283596,0.29179 0.312136,0.37195 0.179608,0.50448 -0.136585,0.13658 -0.20667,0.10679 -0.569374,-0.24212 z M 9.1224456,288.1181 c -0.042335,-0.0214 -0.090304,-0.0769 -0.1065962,-0.12322 -0.031405,-0.0893 -0.020703,-0.11725 0.1689029,-0.44126 0.049869,-0.0852 0.112128,-0.22751 0.1383414,-0.31621 0.071763,-0.24279 0.2348643,-0.32512 0.391984,-0.19786 0.057917,0.0469 0.072429,0.0872 0.069655,0.1937 -0.00677,0.25753 -0.2955331,0.81252 -0.4624006,0.88855 -0.09785,0.0446 -0.1047071,0.0444 -0.1998815,-0.003 z M 3.884452,287.35218 c -0.060538,-0.0605 -0.061979,-0.1033 -0.061979,-1.82847 0,-1.72516 0.00142,-1.76793 0.061979,-1.82847 0.078315,-0.0783 0.2193718,-0.0795 0.3142251,-0.003 l 0.073161,0.0593 v 1.77196 1.77196 l -0.073161,0.0593 c -0.094858,0.0768 -0.2359082,0.0756 -0.3142251,-0.003 z m 1.0677812,-1.09877 -0.076065,-0.0761 v -1.19038 c 0,-1.15736 0.00175,-1.19265 0.064228,-1.27205 0.08883,-0.11293 0.2475736,-0.11293 0.3364026,0 0.062449,0.0794 0.064229,0.11469 0.064229,1.27205 v 1.19038 l -0.076065,0.0761 c -0.041833,0.0418 -0.1122012,0.0761 -0.1563629,0.0761 -0.044158,0 -0.114526,-0.0342 -0.1563641,-0.0761 z m 1.0662829,-0.63399 -0.073161,-0.0593 v -0.90423 -0.90421 l 0.073161,-0.0593 c 0.099073,-0.0803 0.2265721,-0.075 0.3088232,0.0125 0.065953,0.0702 0.067383,0.0906 0.067383,0.96072 0,0.84767 -0.00284,0.89187 -0.061979,0.95098 -0.078315,0.0783 -0.2193706,0.0795 -0.3142251,0.003 z m -2.1700646,-2.48681 c -0.1371468,-0.0376 -0.3495333,-0.21314 -0.4196485,-0.34696 -0.029384,-0.0561 -0.059839,-0.21509 -0.071588,-0.37377 -0.018476,-0.2495 -0.028576,-0.28314 -0.1047289,-0.34865 l -0.084288,-0.0725 H 1.9133812 0.65856637 l -0.0760653,-0.0761 c -0.0418326,-0.0418 -0.0760653,-0.1122 -0.0760653,-0.15637 0,-0.0441 0.0342326,-0.11452 0.0760653,-0.15637 l 0.0760653,-0.0761 1.27978663,3.5e-4 1.2797876,3.5e-4 0.1549544,0.0733 c 0.2937816,0.13889 0.4144475,0.34111 0.4418162,0.74041 0.026371,0.38475 -0.04798,0.36339 1.2648508,0.36339 0.6393763,0 1.1271767,-0.0127 1.1738598,-0.0303 0.1270664,-0.0484 0.1572861,-0.1531 0.1177772,-0.40834 -0.06662,-0.43039 -0.3571775,-0.84927 -0.7147891,-1.0305 -0.344661,-0.17465 -0.3235732,-0.17332 -2.7562989,-0.17332 H 0.65856637 l -0.0760653,-0.0761 c -0.0973146,-0.0973 -0.0968997,-0.21583 0.001092,-0.31384 l 0.0771791,-0.0772 2.34786913,0.009 2.3478691,0.009 0.2317326,0.0845 c 0.4720447,0.17227 0.8376794,0.49693 1.0565444,0.93813 0.3175501,0.64014 0.2650928,1.17425 -0.1399334,1.42476 l -0.1516402,0.0938 -1.1956491,0.005 c -0.7207233,0.003 -1.2407242,-0.007 -1.3091273,-0.0257 z"
       id="path14173"
       inkscape:connector-curvature="0" />
    <path
       style="fill:none;stroke:#000000;stroke-width:0.00351394;stroke-linecap:butt;stroke-linejoin:miter;stroke-miterlimit:4;stroke-dasharray:none;stroke-opacity:1"
       d="m 0.65857183,281.06113 v 0.92963"
       id="path14175"
       inkscape:connector-curvature="0" />
    <path
       style="fill:none;stroke:#000000;stroke-width:0.00351394;stroke-linecap:butt;stroke-linejoin:miter;stroke-miterlimit:4;stroke-dasharray:none;stroke-opacity:1"
       d="m 8.5508096,286.11699 0.8411851,0.17709"
       id="path14177"
       inkscape:connector-curvature="0" />
    <path
       style="fill:none;stroke:#000000;stroke-width:0.00351394;stroke-linecap:butt;stroke-linejoin:miter;stroke-miterlimit:4;stroke-dasharray:none;stroke-opacity:1"
       d="m 14.173462,291.09769 0.841184,0.37632"
       id="path14179"
       inkscape:connector-curvature="0" />
    <path
       style="fill:none;stroke:#000000;stroke-width:0.00351394;stroke-linecap:butt;stroke-linejoin:miter;stroke-miterlimit:4;stroke-dasharray:none;stroke-opacity:1"
       d="m 15.728381,292.39546 0.01677,3.3066"
       id="path14181"
       inkscape:connector-curvature="0" />
    <path
       style="fill:none;stroke:#000000;stroke-width:0.00351394;stroke-linecap:butt;stroke-linejoin:miter;stroke-miterlimit:4;stroke-dasharray:none;stroke-opacity:1"
       d="m 8.5098582,296.4028 -7.927356,-0.0153"
       id="path14183"
       inkscape:connector-curvature="0" />
    <path
       style="fill:none;stroke:#000000;stroke-width:0.00351394;stroke-linecap:butt;stroke-linejoin:miter;stroke-miterlimit:4;stroke-dasharray:none;stroke-opacity:1"
       d="m 1.666382,292.18237 1.4167313,-0.0442"
       id="path14185"
       inkscape:connector-curvature="0" />
    <path
       style="fill:#ffffff;stroke-width:0.00354961;stroke-miterlimit:4;stroke-dasharray:none"
       d="m 3.9779536,282.65151 c -0.1117797,-0.0323 -0.121556,-0.0542 -0.152338,-0.34045 -0.043274,-0.40241 -0.1463148,-0.5648 -0.4592187,-0.7237 l -0.1791148,-0.091 H 1.9341643 0.68104526 v -0.20348 -0.20349 l 2.19922084,1.9e-4 c 1.209572,10e-5 2.2792935,0.0133 2.3771606,0.0294 0.5339703,0.0875 0.9960542,0.57487 1.0956548,1.1557 0.032344,0.18864 0.030596,0.22688 -0.013453,0.29412 -0.028489,0.0435 -0.094344,0.086 -0.1505854,0.0973 -0.1542249,0.0308 -2.0984272,0.0181 -2.2110914,-0.0145 z"
       id="path14189"
       inkscape:connector-curvature="0" />
    <path
       style="fill:#ffffff;stroke-width:0.00354961;stroke-miterlimit:4;stroke-dasharray:none"
       d="m 3.6550813,296.37442 -2.67663244,-0.008 0.008299,-1.96967 0.008299,-1.96967 0.42500344,-0.01 c 0.4109326,-0.01 0.4269832,-0.0129 0.4847659,-0.0886 0.032868,-0.043 0.074416,-0.0959 0.092313,-0.11739 0.019775,-0.0238 0.1089002,-0.0389 0.2269772,-0.0384 0.1882631,6.5e-4 0.1959144,0.004 0.2413843,0.10177 0.046943,0.101 0.04703,0.10111 0.344362,0.12104 0.1635718,0.011 2.2143747,0.0215 4.5573393,0.0235 l 4.259935,0.003 0.06807,0.0724 c 0.126176,0.13431 0.06489,0.48204 -0.166524,0.94499 -0.439594,0.87934 -1.419588,1.77273 -2.6418058,2.40831 -0.4524878,0.23531 -0.5050849,0.28864 -0.4475413,0.45371 l 0.033588,0.0963 -1.0705896,-0.008 c -0.5888244,-0.004 -2.2750726,-0.0114 -3.7472204,-0.0158 z"
       id="path14191"
       inkscape:connector-curvature="0" />
    <path
       style="fill:#ffffff;stroke-width:0.00354961;stroke-miterlimit:4;stroke-dasharray:none"
       d="m 4.3199295,290.84897 c 0.014326,-1.17891 0.042673,-1.4136 0.245976,-2.03642 0.3814707,-1.16863 1.2714768,-2.07808 2.3353449,-2.38638 0.3226888,-0.0935 1.0347802,-0.1632 1.1326113,-0.11084 0.066445,0.0356 0.066882,0.0301 -0.032267,0.39346 -0.0329,0.12053 -0.068345,0.38124 -0.078773,0.57936 -0.018891,0.35885 -0.01864,0.36059 0.066478,0.46175 0.1038008,0.12337 0.2259561,0.13438 0.3247078,0.0293 0.056967,-0.0606 0.072658,-0.13053 0.097391,-0.43391 0.034888,-0.428 0.097129,-0.68741 0.2272305,-0.94701 0.052468,-0.10471 0.1006888,-0.19613 0.107164,-0.20322 0.00644,-0.007 0.110465,0.005 0.2310818,0.0285 0.1488482,0.0281 0.2193041,0.0557 0.2193041,0.0857 0,0.0243 0.041472,0.0858 0.092161,0.1365 0.082322,0.0823 0.1065525,0.0901 0.2269651,0.0727 0.074143,-0.0109 0.3798251,-0.11738 0.679293,-0.2371 0.307135,-0.12279 0.579401,-0.21354 0.624581,-0.2082 0.113086,0.0133 0.177506,0.14168 0.288221,0.57402 0.05362,0.20939 0.116212,0.38518 0.144512,0.40587 0.02745,0.0201 0.188957,0.0977 0.358889,0.17249 0.169933,0.0748 0.308969,0.1449 0.308969,0.1558 0,0.052 -0.237108,0.40452 -0.361345,0.53734 -0.134221,0.14349 -0.153264,0.18718 -0.141266,0.32404 0.0074,0.0846 0.116035,0.17219 0.213547,0.17219 0.158572,0 0.45211,-0.28564 0.619304,-0.60263 0.0613,-0.11623 0.124153,-0.21132 0.139674,-0.21132 0.06031,0 0.610259,0.35304 0.766658,0.49216 0.340538,0.3029 0.364018,0.66848 0.09295,1.44723 -0.09172,0.26351 -0.371468,0.92981 -0.405491,0.96579 -0.0049,0.005 -0.288761,0.0226 -0.630818,0.0387 -0.420209,0.0198 -0.703151,0.049 -0.872368,0.0902 -0.848438,0.20629 -1.5652208,0.56451 -2.201842,1.10038 l -0.2267228,0.19085 -0.559713,-0.01 -0.5597119,-0.01 -0.1324099,-0.0939 C 7.4130181,291.63734 7.340779,291.345 7.4827249,291.09439 c 0.082519,-0.14568 0.2075099,-0.22537 0.4536781,-0.28926 0.2237155,-0.0581 0.289298,-0.11463 0.289298,-0.24953 0,-0.13071 -0.026927,-0.15727 -0.4697919,-0.46345 -0.8828222,-0.61035 -1.2361304,-1.18819 -1.3311094,-2.17702 -0.024296,-0.25293 -0.059621,-0.37622 -0.1185263,-0.41368 -0.063104,-0.0401 -0.2231793,-0.0271 -0.2963061,0.0241 -0.062056,0.0435 -0.069579,0.0759 -0.069579,0.29962 0,0.24741 -0.00197,0.25364 -0.1415343,0.44923 -0.285545,0.40016 -0.5158843,1.0266 -0.5158843,1.40303 0,0.18649 0.029428,0.2299 0.1756588,0.25915 0.1658662,0.0332 0.2406779,-0.0638 0.3380973,-0.43825 0.09952,-0.38253 0.2096774,-0.68172 0.2567765,-0.69742 0.018072,-0.007 0.070748,0.0856 0.117056,0.20366 0.1654272,0.42165 0.5757183,0.94706 1.0084495,1.29139 l 0.2022237,0.16091 -0.1522637,0.1666 c -0.2970411,0.32501 -0.3868092,0.69434 -0.2578914,1.06104 0.03575,0.10166 0.065004,0.19679 0.065004,0.21131 0,0.0145 -0.3028819,0.0264 -0.6730706,0.0264 H 5.6899384 v -0.67458 -0.67457 l -0.086089,-0.0758 c -0.1062686,-0.0936 -0.22397,-0.0981 -0.3323133,-0.0129 l -0.082486,0.0649 v 0.68646 0.68645 H 4.7479729 4.306896 Z m 5.0788069,-2.78177 c 0.1530335,-0.13436 0.3674686,-0.57477 0.385453,-0.79165 0.011684,-0.1409 0.00317,-0.17905 -0.052239,-0.23447 -0.070431,-0.0704 -0.1904515,-0.0857 -0.2833153,-0.0359 -0.031066,0.0166 -0.088972,0.11172 -0.1286765,0.21131 -0.039703,0.0996 -0.1341821,0.29693 -0.2099406,0.43851 -0.1501126,0.28053 -0.1524199,0.33989 -0.01734,0.44614 0.1107172,0.0871 0.1765902,0.0798 0.3060562,-0.0338 z"
       id="path14193"
       inkscape:connector-curvature="0" />
    <path
       style="fill:#ffffff;stroke-width:0.00354961;stroke-miterlimit:4;stroke-dasharray:none"
       d="m 14.98772,294.72939 c -0.832383,-0.82287 -1.090832,-1.04346 -1.382482,-1.17994 -0.366344,-0.17144 -0.897927,-0.23501 -1.310596,-0.15675 -0.09123,0.0172 -0.171103,0.0262 -0.177502,0.0198 -0.0064,-0.007 0.019,-0.12268 0.05644,-0.25842 0.03744,-0.13573 0.06961,-0.34572 0.07149,-0.46664 0.0061,-0.3943 -0.205654,-0.66621 -0.572195,-0.73474 -0.09275,-0.0174 -0.578578,-0.0316 -1.079627,-0.0316 H 9.6822525 l 0.1658509,-0.1117 c 0.2528226,-0.17025 0.8708916,-0.47016 1.1825696,-0.57381 0.420074,-0.1397 0.735409,-0.19583 1.202152,-0.214 0.51207,-0.0199 0.834535,0.018 1.448117,0.17049 l 0.461987,0.11479 0.08478,-0.0633 0.08478,-0.0633 0.181513,0.0783 c 0.139777,0.0603 0.177632,0.0905 0.164637,0.13148 -0.03251,0.10243 0.04559,0.21444 0.241349,0.34616 0.218021,0.1467 0.629737,0.48154 0.733346,0.59642 0.06528,0.0724 0.06677,0.10067 0.0842,1.59983 0.0097,0.83939 0.01507,1.52569 0.0118,1.52513 -0.0033,-5.7e-4 -0.33699,-0.32831 -0.741616,-0.72831 z"
       id="path14195"
       inkscape:connector-curvature="0" />
  </g>
</svg>
