<?xml version="1.0" encoding="UTF-8" standalone="no"?>
<!-- Created with Inkscape (http://www.inkscape.org/) -->

<svg
   xmlns:dc="http://purl.org/dc/elements/1.1/"
   xmlns:cc="http://creativecommons.org/ns#"
   xmlns:rdf="http://www.w3.org/1999/02/22-rdf-syntax-ns#"
   xmlns:svg="http://www.w3.org/2000/svg"
   xmlns="http://www.w3.org/2000/svg"
   xmlns:sodipodi="http://sodipodi.sourceforge.net/DTD/sodipodi-0.dtd"
   xmlns:inkscape="http://www.inkscape.org/namespaces/inkscape"
   width="64"
   height="64"
   viewBox="0 0 16.933333 16.933334"
   version="1.1"
   id="svg8"
   inkscape:version="0.92.5 (2060ec1f9f, 2020-04-08)"
   sodipodi:docname="carpet_64x64.svg">
  <defs
     id="defs2" />
  <sodipodi:namedview
     id="base"
     pagecolor="#ffffff"
     bordercolor="#666666"
     borderopacity="1.0"
     inkscape:pageopacity="0.0"
     inkscape:pageshadow="2"
     inkscape:zoom="5.6"
     inkscape:cx="53.062072"
     inkscape:cy="22.496535"
     inkscape:document-units="mm"
     inkscape:current-layer="layer1"
     showgrid="false"
     units="px"
     inkscape:window-width="1208"
     inkscape:window-height="987"
     inkscape:window-x="1992"
     inkscape:window-y="0"
     inkscape:window-maximized="1" />
  <metadata
     id="metadata5">
    <rdf:RDF>
      <cc:Work
         rdf:about="">
        <dc:format>image/svg+xml</dc:format>
        <dc:type
           rdf:resource="http://purl.org/dc/dcmitype/StillImage" />
        <dc:title></dc:title>
      </cc:Work>
    </rdf:RDF>
  </metadata>
  <g
     inkscape:label="Layer 1"
     inkscape:groupmode="layer"
     id="layer1"
     transform="translate(0,-280.06665)">
    <path
       style="fill:#ffffff;stroke-width:0.22907396;stroke-miterlimit:4;stroke-dasharray:none"
       d=""
       id="path12841"
       inkscape:connector-curvature="0"
       transform="matrix(0.26458333,0,0,0.26458333,0,280.06665)" />
    <path
       style="fill:#000000;stroke-width:0.03043075"
       d="m 0.77909377,296.13985 v -0.25904 H 1.2964161 1.8137386 v -0.25867 -0.25866 H 1.2964161 0.77909377 v -0.25866 -0.25866 H 1.2964161 1.8137386 v -0.25867 -0.25866 H 1.2964161 0.77909377 v -0.25865 -0.25867 H 1.2964161 1.8137386 v -0.25866 -0.25867 H 1.2964161 0.77909377 v -0.25865 -0.25867 H 1.2964161 1.8137386 v -0.25866 -0.25867 H 1.2964161 0.77909377 v -0.25865 -0.25866 H 1.2964161 1.8137386 v -0.25867 -0.25866 H 1.2964161 0.77909377 v -0.25865 -0.25866 H 1.2964161 1.8137386 v -0.25867 -0.25866 H 1.2964161 0.77909377 v -0.25865 -0.25867 H 1.2964161 1.8137386 v -0.27387 -0.27388 H 1.2964161 0.77909377 v -0.24345 -0.24345 H 1.2964161 1.8137386 v -0.27388 -0.27387 H 1.2964161 0.77909377 v -0.25866 -0.25867 H 1.2964161 1.8137386 v -0.25866 -0.25865 H 1.2964161 0.77909377 v -0.25867 -0.25866 H 1.2964161 1.8137386 v -0.25867 -0.25865 H 1.2964161 0.77909377 v -0.25867 -0.25866 H 1.2964161 1.8137386 v -0.25867 -0.25864 H 1.2964161 0.77909377 v -0.25866 -0.25867 H 1.2964161 1.8137386 v -0.25866 -0.25866 H 1.2964161 0.77909377 v -0.25866 -0.25867 H 6.2374526 11.695812 l 0.03731,-0.18965 c 0.177253,-0.90096 0.907518,-1.64821 1.794528,-1.83625 0.29708,-0.063 0.76668,-0.0553 1.054523,0.0174 0.482874,0.12174 0.94105,0.40919 1.238292,0.7769 0.203393,0.25161 0.305944,0.43957 0.423294,0.77587 l 0.100655,0.28847 0.0082,5.49244 c 0.0089,6.02425 0.0176,5.71544 -0.173117,6.19174 -0.256889,0.64154 -0.787804,1.13012 -1.478317,1.36042 l -0.213015,0.0709 -6.8545236,0.007 -6.85452504,0.007 z m 11.55199823,-0.4728 c -0.110905,-0.11755 -0.24396,-0.28872 -0.295683,-0.38038 l -0.09404,-0.16664 H 8.3068213 c -3.1049799,0 -3.6499214,-0.006 -3.7400758,-0.0441 -0.058042,-0.0242 -0.1082063,-0.0482 -0.1114703,-0.0532 -0.00325,-0.005 -0.013538,-0.2762 -0.022824,-0.60256 l -0.016886,-0.5934 -0.5670862,-0.008 c -0.5660733,-0.008 -0.5672271,-0.008 -0.6466535,-0.0878 l -0.079565,-0.0796 v -3.72192 -3.72192 l 0.073386,-0.0854 0.073386,-0.0854 0.5808818,-0.01 0.5808818,-0.01 v -0.56676 c 0,-0.54003 0.00313,-0.57009 0.06616,-0.6372 l 0.066159,-0.0704 H 8.1182077 11.6733 v -0.3956 -0.3956 H 7.0021812 2.3310621 v 5.96442 5.96444 h 5.100836 5.1008339 z m -9.2088306,-0.80568 v -0.25867 h 0.2586607 0.258662 v 0.25867 0.25866 H 3.3809221 3.1222614 Z m 0,-9.87477 v -0.24344 h 0.2586607 0.258662 v 0.24344 0.24343 H 3.3809221 3.1222614 Z m 11.2959136,10.86125 c 0.226069,-0.0461 0.619333,-0.24511 0.803876,-0.4066 0.208645,-0.18262 0.421922,-0.50184 0.515986,-0.77232 0.470315,-1.35238 -0.772455,-2.70412 -2.159895,-2.34926 -0.341121,0.0872 -0.576692,0.22393 -0.839891,0.48732 -0.354515,0.3548 -0.518357,0.74854 -0.521961,1.25436 -0.0038,0.53061 0.154118,0.91138 0.534074,1.28792 0.262439,0.2601 0.500144,0.40203 0.809642,0.48348 0.201147,0.0529 0.635583,0.0606 0.858169,0.0152 z m -0.753316,-0.52938 c -0.359369,-0.11358 -0.631637,-0.34461 -0.794615,-0.67437 -0.09614,-0.19453 -0.114506,-0.26521 -0.126046,-0.48493 -0.02182,-0.4157 0.09184,-0.72014 0.371113,-0.99403 0.737192,-0.72303 1.962072,-0.35241 2.167692,0.6559 0.134857,0.66129 -0.254946,1.302 -0.910568,1.4967 -0.183802,0.0546 -0.535987,0.0549 -0.707576,7e-4 z m 0.77256,-0.59359 c 0.172902,-0.11803 0.267301,-0.24625 0.326839,-0.44408 0.05498,-0.18269 0.05443,-0.23852 -0.0042,-0.43623 -0.118312,-0.39841 -0.599303,-0.6494 -0.977347,-0.51002 -0.323536,0.11923 -0.527467,0.4037 -0.526268,0.73398 0.0012,0.32099 0.155493,0.56864 0.440576,0.70702 0.1291,0.0627 0.185629,0.0719 0.373088,0.0616 0.188578,-0.0108 0.242383,-0.0268 0.367387,-0.11225 z m -2.713188,-0.26672 c -0.0098,-0.0795 -0.02701,-0.25752 -0.03828,-0.3956 l -0.02051,-0.25105 H 8.7801496 5.894856 l -0.085383,-0.0735 -0.085383,-0.0734 -0.00939,-0.58087 -0.00939,-0.5809 H 5.1385315 c -0.5400347,0 -0.5700937,-0.003 -0.6372012,-0.0661 l -0.070435,-0.0661 v -2.44575 -2.44575 l 0.074699,-0.0746 c 0.073916,-0.074 0.080541,-0.0746 0.6371999,-0.0746 h 0.5625082 l 0.00939,-0.57741 c 0.00903,-0.55401 0.012261,-0.58022 0.078758,-0.64664 l 0.069316,-0.0692 2.9052968,-0.007 2.9052978,-0.007 v -0.39528 -0.39529 l -3.3702047,0.007 -3.370206,0.007 -0.015212,0.58855 c -0.019692,0.76174 0.038398,0.70476 -0.7184932,0.70476 H 3.6396503 v 3.37782 3.37781 h 0.5340485 c 0.554989,0 0.6813137,0.0241 0.7251394,0.1383 0.010356,0.0271 0.01891,0.29234 0.01891,0.58945 0,0.29711 0.00916,0.54933 0.020294,0.56048 0.011202,0.0108 1.546631,0.0203 3.4121625,0.0203 h 3.3918773 z m -0.05093,-1.55957 v -0.3956 H 9.4200391 7.1667797 l -0.074699,-0.0746 c -0.073916,-0.074 -0.074699,-0.0805 -0.074699,-0.63719 v -0.56253 l -0.5774119,-0.01 c -0.5539434,-0.01 -0.5802265,-0.0123 -0.6466535,-0.0786 -0.069159,-0.0691 -0.069255,-0.0706 -0.077939,-1.1786 -0.00747,-0.95751 -0.00217,-1.1219 0.038819,-1.2012 0.026124,-0.0505 0.050586,-0.0945 0.054345,-0.0978 0.00373,-0.003 0.2738558,-0.0135 0.600225,-0.0229 l 0.5933995,-0.0169 0.00831,-0.56709 c 0.00819,-0.56608 0.00843,-0.56722 0.08784,-0.64666 l 0.079565,-0.0796 h 2.247725 2.2477252 v -0.39559 -0.39561 H 8.9497785 6.226226 v 0.56128 c 0,0.54929 -0.00157,0.5631 -0.073386,0.64666 l -0.073386,0.0854 -0.5808829,0.01 -0.5808818,0.01 v 2.06509 2.06506 l 0.5808721,0.01 0.5808722,0.01 0.073386,0.0854 c 0.071832,0.0835 0.073386,0.0973 0.073386,0.64664 v 0.56128 h 2.7235525 2.7235499 z m 1.120624,-0.80319 c 0.683408,-0.41515 1.487551,-0.46361 2.20672,-0.13301 0.259523,0.11936 0.441816,0.24778 0.667262,0.47025 l 0.175549,0.17323 -0.0082,-4.63888 -0.0082,-4.63887 -0.08305,-0.22754 c -0.164537,-0.45086 -0.488052,-0.82217 -0.890742,-1.02235 -0.292911,-0.1456 -0.500224,-0.19479 -0.822844,-0.19521 -0.529551,-7e-4 -0.89809,0.15227 -1.279582,0.53116 -0.256397,0.25464 -0.387891,0.47088 -0.491808,0.80881 -0.04663,0.15163 -0.05189,0.5646 -0.06069,4.77321 l -0.0096,4.60722 0.208996,-0.19715 c 0.114952,-0.10841 0.293229,-0.24832 0.396183,-0.31087 z M 11.6733,289.91637 v -2.06928 H 9.6040055 7.5347151 v 0.53403 c 0,0.4192 -0.01,0.55337 -0.046419,0.62384 -0.025534,0.0494 -0.049503,0.0925 -0.05326,0.0957 -0.00373,0.003 -0.2738569,0.0135 -0.6002262,0.0228 l -0.5933994,0.0169 -0.00819,0.78358 -0.00807,0.78359 H 6.7985431 7.371937 l 0.073772,0.0784 c 0.071748,0.0762 0.074037,0.0938 0.083263,0.63906 l 0.00952,0.56058 h 2.0674092 2.0674078 z"
       id="path13446"
       inkscape:connector-curvature="0" />
    <path
       style="fill:#ffffff;stroke-width:0.00348544;stroke-miterlimit:4;stroke-dasharray:none"
       d="m 2.3452519,289.92322 v -5.94813 h 4.6570634 4.6570627 v 0.38425 0.38424 H 8.0983386 c -3.5316124,0 -3.5615028,5.1e-4 -3.617132,0.062 -0.04878,0.0539 -0.057933,0.13561 -0.070231,0.62651 l -0.01414,0.56452 -0.5686027,0.0127 -0.5686025,0.0128 -0.073061,0.0849 -0.073061,0.0849 0.00783,3.75276 0.00783,3.75275 0.081624,0.0609 c 0.072157,0.0538 0.1461677,0.0628 0.6378491,0.0769 l 0.5562235,0.0159 v 0.17519 c 0,0.0963 0.00903,0.36282 0.020006,0.59218 0.01962,0.40924 0.021487,0.4178 0.099908,0.45828 0.065233,0.0336 0.752445,0.0428 3.7434434,0.0502 l 3.6635396,0.008 0.08324,0.14204 c 0.04578,0.078 0.171762,0.24354 0.279952,0.36759 l 0.196709,0.22556 H 7.418486 2.345311 Z m 1.3153194,4.94141 -0.00891,-0.26897 -0.2689719,-0.008 -0.2689719,-0.008 v 0.27786 0.27785 h 0.2778534 0.2778546 z m 0.00651,-9.87511 v -0.24594 H 3.3904191 3.1137617 v 0.24594 0.2459 h 0.2766574 0.2766562 z"
       id="path13448"
       inkscape:connector-curvature="0" />
    <path
       style="fill:#ffffff;stroke-width:0.00348544;stroke-miterlimit:4;stroke-dasharray:none"
       d="m 4.9460449,294.53165 c -0.010239,-0.0267 -0.018657,-0.2811 -0.018657,-0.56528 0,-0.70721 0.049611,-0.65882 -0.6888762,-0.67191 l -0.571451,-0.01 v -3.36161 -3.36161 l 0.552539,-0.01 c 0.7346195,-0.0127 0.6853761,0.0359 0.7085723,-0.70035 0.00952,-0.30356 0.023667,-0.55759 0.031363,-0.56452 0.00771,-0.007 1.5182918,-0.0226 3.3569091,-0.0344 l 3.3429419,-0.0219 v 0.3869 0.38691 l -2.1133541,7e-5 c -1.1623443,3e-5 -2.4776215,0.01 -2.9228359,0.0204 l -0.8094834,0.0204 -0.051152,0.078 c -0.041793,0.0638 -0.053188,0.18093 -0.062282,0.64053 l -0.011081,0.56248 H 5.1332513 4.5773049 l -0.086214,0.0826 -0.086214,0.0826 v 2.43271 2.43268 l 0.079252,0.0745 c 0.077071,0.0725 0.094801,0.0748 0.6455336,0.0842 l 0.5662888,0.01 v 0.56103 0.56103 l 0.086214,0.0826 0.086214,0.0827 h 2.8915638 2.8915639 l 0.02038,0.2536 c 0.0112,0.13949 0.02839,0.31239 0.0382,0.38425 l 0.01783,0.13065 H 8.3463484 c -3.055191,0 -3.3833692,-0.005 -3.4002265,-0.0486 z"
       id="path13450"
       inkscape:connector-curvature="0" />
    <path
       style="fill:#ffffff;stroke-width:0.00348544;stroke-miterlimit:4;stroke-dasharray:none"
       d="m 6.2474217,292.82044 c -0.00205,-0.51623 -0.018729,-0.64814 -0.096367,-0.75758 -0.050996,-0.0719 -0.063618,-0.0737 -0.6378492,-0.0886 l -0.5858188,-0.0154 v -2.03989 c 0,-1.12192 0.0035,-2.04226 0.00771,-2.04516 0.00422,-0.002 0.2690599,-0.0134 0.5885179,-0.0231 l 0.5808326,-0.0177 0.064702,-0.0867 c 0.059041,-0.0791 0.065629,-0.13496 0.075373,-0.63783 l 0.010719,-0.55111 h 2.7021074 2.7021064 v 0.38404 0.38405 l -2.263738,0.007 -2.263738,0.007 -0.062064,0.0831 c -0.055344,0.0741 -0.06363,0.14266 -0.076494,0.63313 l -0.014441,0.55001 -0.5845095,0.0204 c -0.666275,0.0231 -0.6500862,0.0162 -0.6852497,0.29116 -0.011562,0.0901 -0.015056,0.61257 -0.00783,1.16114 0.012875,0.9815 0.014176,0.9985 0.08148,1.06586 0.065112,0.0652 0.096415,0.0689 0.6516532,0.0785 l 0.5832618,0.01 v 0.56214 c 0,0.52216 0.00445,0.56791 0.063715,0.64314 l 0.063715,0.0811 H 9.4023535 11.65949 v 0.38425 0.38425 H 8.9543963 6.249303 Z"
       id="path13452"
       inkscape:connector-curvature="0" />
    <path
       style="fill:#ffffff;stroke-width:0.00348544;stroke-miterlimit:4;stroke-dasharray:none"
       d="m 7.5345151,291.4203 c -0.00807,-0.46124 -0.018175,-0.56015 -0.064124,-0.63016 l -0.0545,-0.083 H 6.8325371 6.2491922 v -0.78385 -0.78386 H 6.705998 c 0.2512426,0 0.5225655,-0.008 0.6029386,-0.0201 0.2116577,-0.0289 0.2313225,-0.0926 0.2313225,-0.74747 v -0.52356 h 2.0595599 2.059559 v 2.05955 2.05956 H 9.6017593 7.5441398 Z"
       id="path13454"
       inkscape:connector-curvature="0" />
    <path
       style="fill:#ffffff;stroke-width:0.00348544;stroke-miterlimit:4;stroke-dasharray:none"
       d="m 12.218882,287.95589 0.01039,-4.61096 0.0793,-0.21832 c 0.105223,-0.28968 0.265966,-0.52542 0.511908,-0.75079 0.379441,-0.34769 0.674254,-0.46421 1.184868,-0.46835 0.502795,-0.005 0.877416,0.13899 1.231496,0.47021 0.229433,0.21462 0.350379,0.39101 0.47441,0.6919 l 0.08815,0.21386 0.01839,4.63758 0.01839,4.63756 -0.06724,-0.059 c -0.03697,-0.0324 -0.148446,-0.13137 -0.247692,-0.21983 -0.209146,-0.18644 -0.639348,-0.40403 -0.956922,-0.48402 -0.30168,-0.076 -0.816053,-0.0702 -1.126169,0.0125 -0.407949,0.10889 -0.754223,0.30873 -1.096841,0.633 l -0.13271,0.12561 z"
       id="path13456"
       inkscape:connector-curvature="0" />
    <path
       style="fill:#ffffff;stroke-width:0.00348544;stroke-miterlimit:4;stroke-dasharray:none"
       d="m 13.672828,295.83735 c -0.312112,-0.045 -0.607459,-0.21295 -0.906821,-0.51606 -0.402853,-0.40787 -0.522575,-0.69032 -0.522575,-1.23283 0,-0.54785 0.132723,-0.86882 0.522575,-1.26373 0.196534,-0.19909 0.312786,-0.28904 0.469091,-0.36292 0.719942,-0.34028 1.542841,-0.18765 2.081246,0.38605 0.217409,0.23167 0.343382,0.44828 0.432452,0.74362 0.05816,0.19286 0.06585,0.27501 0.05318,0.56869 -0.01759,0.40775 -0.07677,0.58746 -0.306664,0.93118 -0.182725,0.2732 -0.379622,0.43823 -0.716535,0.60062 -0.353075,0.17016 -0.656283,0.21001 -1.105949,0.14538 z m 0.602914,-0.48899 c 0.393525,-0.0741 0.750254,-0.3544 0.927657,-0.72892 0.09177,-0.19374 0.09858,-0.23067 0.0979,-0.53098 -6e-4,-0.2609 -0.01381,-0.35519 -0.06894,-0.49185 -0.20534,-0.50898 -0.668827,-0.81714 -1.221382,-0.81202 -0.301759,0.002 -0.538141,0.0822 -0.772817,0.25929 -0.361777,0.27312 -0.519756,0.628 -0.49668,1.11567 0.01156,0.24314 0.0273,0.30966 0.113577,0.47842 0.28362,0.55473 0.820748,0.82331 1.4207,0.71039 z"
       id="path13458"
       inkscape:connector-curvature="0" />
    <path
       style="fill:#ffffff;stroke-width:0.00348544;stroke-miterlimit:4;stroke-dasharray:none"
       d="m 13.734307,294.76881 c -0.625168,-0.28499 -0.610755,-1.13669 0.02372,-1.4018 0.364014,-0.15209 0.826618,0.0703 0.976174,0.46914 0.07755,0.20684 0.06615,0.3426 -0.04866,0.57968 -0.168176,0.34727 -0.606736,0.51002 -0.951232,0.35298 z"
       id="path13460"
       inkscape:connector-curvature="0" />
  </g>
</svg>
