<?xml version="1.0" encoding="UTF-8" standalone="no"?>
<svg
   xmlns:dc="http://purl.org/dc/elements/1.1/"
   xmlns:cc="http://creativecommons.org/ns#"
   xmlns:rdf="http://www.w3.org/1999/02/22-rdf-syntax-ns#"
   xmlns:svg="http://www.w3.org/2000/svg"
   xmlns="http://www.w3.org/2000/svg"
   xmlns:sodipodi="http://sodipodi.sourceforge.net/DTD/sodipodi-0.dtd"
   xmlns:inkscape="http://www.inkscape.org/namespaces/inkscape"
   width="64"
   height="64"
   viewBox="0 0 16.933333 16.933333"
   version="1.1"
   id="svg8"
   sodipodi:docname="seren_changing_diaper_64x64.svg"
   inkscape:version="1.0.2 (1.0.2+r75+1)">
  <defs
     id="defs2" />
  <sodipodi:namedview
     id="base"
     pagecolor="#ffffff"
     bordercolor="#666666"
     borderopacity="1.0"
     inkscape:pageopacity="0.0"
     inkscape:pageshadow="2"
     inkscape:zoom="2.8284271"
     inkscape:cx="143.07483"
     inkscape:cy="31.491608"
     inkscape:document-units="mm"
     inkscape:current-layer="layer1"
     inkscape:document-rotation="0"
     showgrid="false"
     inkscape:snap-global="false"
     fit-margin-top="0"
     fit-margin-left="0"
     fit-margin-right="0"
     fit-margin-bottom="0"
     inkscape:window-width="1366"
     inkscape:window-height="704"
     inkscape:window-x="0"
     inkscape:window-y="0"
     inkscape:window-maximized="0"
     units="px" />
  <metadata
     id="metadata5">
    <rdf:RDF>
      <cc:Work
         rdf:about="">
        <dc:format>image/svg+xml</dc:format>
        <dc:type
           rdf:resource="http://purl.org/dc/dcmitype/StillImage" />
        <dc:title />
      </cc:Work>
    </rdf:RDF>
  </metadata>
  <g
     inkscape:label="Calque 1"
     inkscape:groupmode="layer"
     id="layer1"
     transform="translate(-44.581036,-28.552681)">
    <text
       xml:space="preserve"
       style="font-style:normal;font-weight:normal;font-size:10.5833px;line-height:1.25;font-family:sans-serif;fill:#000000;fill-opacity:1;stroke:none;stroke-width:0.264583"
       x="51.724785"
       y="39.66518"
       id="text1411"><tspan
         sodipodi:role="line"
         id="tspan1409"
         x="51.724785"
         y="39.66518"
         style="stroke-width:0.264583" /></text>
    <path
       style="fill:#000000;stroke-width:0.0298725"
       d="m 52.336004,43.896645 c -0.107657,-0.107658 -0.09329,-0.211152 0.06107,-0.441364 0.07396,-0.110204 0.134421,-0.207528 0.134421,-0.216255 0,-0.0085 -0.04533,-0.01585 -0.1008,-0.01585 -0.18219,0 -0.833628,-0.123485 -1.183712,-0.224391 -0.668094,-0.192544 -1.330332,-0.518813 -1.94305,-0.957282 -0.301908,-0.216054 -0.891938,-0.778008 -1.140538,-1.086272 -1.170685,-1.451664 -1.634398,-3.315074 -1.275492,-5.12552 0.04714,-0.237828 0.07459,-0.312429 0.13467,-0.365939 0.09487,-0.08452 0.190299,-0.08541 0.295383,-0.0027 0.0762,0.05994 0.08086,0.0762 0.06634,0.231513 -0.0086,0.09187 -0.03766,0.288027 -0.0646,0.435896 -0.06876,0.377467 -0.09111,1.04098 -0.04872,1.44586 0.253869,2.424587 1.914591,4.381424 4.248491,5.006014 0.293809,0.07861 0.862526,0.175691 0.936404,0.159811 0.03561,-0.0074 0.01912,-0.04997 -0.07364,-0.189079 -0.06794,-0.101962 -0.11947,-0.215251 -0.119534,-0.262745 -1.26e-4,-0.15829 0.184631,-0.272023 0.343164,-0.211183 0.02716,0.01057 0.172258,0.201979 0.32238,0.425683 0.214575,0.319707 0.272963,0.429076 0.272963,0.51127 0,0.0822 -0.05843,0.191561 -0.272963,0.511268 -0.150122,0.223704 -0.295194,0.415255 -0.32238,0.425685 -0.09816,0.03772 -0.198018,0.01754 -0.26993,-0.05431 z m 6.296369,-5.114627 c -0.02092,-0.0085 -0.05779,-0.05368 -0.0821,-0.100596 -0.0391,-0.07568 -0.03877,-0.108277 0.0032,-0.288558 0.19508,-0.831439 0.208225,-1.719244 0.0373,-2.518363 -0.19768,-0.924049 -0.635398,-1.822925 -1.236479,-2.539168 -0.881047,-1.049831 -2.196973,-1.779609 -3.557317,-1.972786 -0.356275,-0.05059 -0.361674,-0.04653 -0.220385,0.165494 0.138964,0.208548 0.150734,0.315145 0.04628,0.419575 -0.07988,0.07988 -0.153472,0.09121 -0.264319,0.0407 -0.06203,-0.02825 -0.487972,-0.62828 -0.587778,-0.827965 -0.06392,-0.127783 -0.0085,-0.225395 0.295374,-0.524328 0.246738,-0.242416 0.308126,-0.287946 0.388237,-0.287946 0.123803,0 0.241814,0.114843 0.241814,0.23533 0,0.05078 -0.03159,0.126245 -0.07396,0.176562 l -0.07396,0.08788 0.335324,0.05138 c 1.391895,0.21329 2.576303,0.824296 3.547448,1.830038 1.019251,1.055559 1.593442,2.308741 1.735364,3.787491 0.07259,0.756325 -0.07058,2.021011 -0.251122,2.218038 -0.05885,0.06425 -0.187653,0.0857 -0.283307,0.04722 z"
       id="path1677"
       sodipodi:nodetypes="ccsscccccccccccccccscccccccccccccccsscccssccc" />
    <path
       style="fill:#000000;stroke-width:0.0136997"
       d="m 46.982877,34.43146 c -0.66748,-0.09886 -1.245858,-0.584194 -1.457996,-1.223415 -0.08252,-0.24864 -0.08617,-0.288796 -0.09293,-1.022961 l -0.0061,-0.671572 -0.05982,-0.02476 c -0.09291,-0.03841 -0.177913,-0.122106 -0.228633,-0.225074 l -0.04503,-0.09141 -0.0043,-0.389142 c -0.0037,-0.361598 -0.0024,-0.395768 0.0242,-0.48273 0.03542,-0.116682 0.141585,-0.239722 0.245293,-0.284335 l 0.06692,-0.0288 0.0154,-0.103448 c 0.04903,-0.329613 0.210788,-0.542211 0.48124,-0.632467 0.07182,-0.02397 0.193695,-0.02535 2.602941,-0.02936 1.84409,-0.0031 2.555372,2.3e-5 2.630335,0.01143 0.32352,0.04924 0.532392,0.292241 0.595661,0.692977 0.008,0.05085 0.01409,0.05786 0.06195,0.0722 0.09132,0.02736 0.18408,0.112762 0.23515,0.216507 l 0.04569,0.09278 v 0.445527 c 0,0.42884 -9.44e-4,0.447947 -0.02986,0.510152 -0.04379,0.09486 -0.143929,0.195269 -0.230387,0.231105 l -0.07317,0.03033 -0.0061,0.665799 c -0.0051,0.538322 -0.01045,0.687178 -0.0283,0.777444 -0.151735,0.766435 -0.768587,1.354353 -1.536322,1.464255 -0.193537,0.02769 -3.017798,0.02674 -3.205719,-9.46e-4 z m 0.595925,-0.228814 c -2.8e-5,-0.10444 -0.03085,-0.358333 -0.06277,-0.51716 -0.09471,-0.471271 -0.288018,-0.856648 -0.574262,-1.144871 -0.208278,-0.209712 -0.461142,-0.365768 -0.74859,-0.462002 -0.115806,-0.03879 -0.37545,-0.09811 -0.489079,-0.11178 l -0.07319,-0.0088 0.0064,0.449302 c 0.0051,0.358986 0.01108,0.46996 0.0299,0.552051 0.07663,0.333845 0.207666,0.572175 0.444839,0.809073 0.19933,0.199099 0.381137,0.313314 0.630211,0.395903 0.186078,0.0617 0.318181,0.07983 0.593434,0.0814 l 0.243173,0.0014 z m 1.828351,-0.08905 c 0.01289,-0.194263 0.04888,-0.443091 0.07016,-0.484678 0.03119,-0.06091 0.100745,-0.07153 0.152136,-0.02325 0.03718,0.03491 0.03889,0.06701 0.0123,0.230505 -0.01045,0.06405 -0.02338,0.182721 -0.02877,0.263721 l -0.0099,0.147264 0.231105,-5.3e-5 c 0.428077,-1.04e-4 0.696371,-0.07494 1.01674,-0.283571 0.10501,-0.06839 0.353794,-0.319355 0.425034,-0.428756 0.06954,-0.106809 0.153052,-0.277607 0.190896,-0.390443 0.0672,-0.200374 0.07443,-0.266104 0.08106,-0.736995 l 0.0064,-0.449305 -0.07321,0.009 c -0.122167,0.01493 -0.326139,0.06113 -0.463633,0.104967 -0.546093,0.174116 -0.953236,0.546153 -1.185173,1.082991 -0.03185,0.07365 -0.06887,0.146078 -0.08235,0.160972 -0.04697,0.05191 -0.145041,0.02277 -0.162904,-0.04843 -0.0064,-0.02528 0.01002,-0.0791 0.05873,-0.193 0.11849,-0.277148 0.256899,-0.481624 0.467408,-0.690485 0.350116,-0.347372 0.786294,-0.545285 1.373501,-0.623225 l 0.06507,-0.0086 v -0.108337 -0.108363 l -0.866503,-0.0037 -0.866507,-0.0037 -0.08161,-0.04007 c -0.106808,-0.05244 -0.18657,-0.136382 -0.234803,-0.247113 -0.03653,-0.08383 -0.04186,-0.08955 -0.08339,-0.08955 -0.119039,0 -0.27916,-0.100573 -0.336552,-0.211408 -0.03935,-0.07602 -0.04974,-0.267575 -0.01933,-0.356838 0.04612,-0.135286 0.162223,-0.224316 0.334345,-0.256326 0.08148,-0.01516 0.08429,-0.01715 0.106249,-0.07459 0.03209,-0.08405 0.127785,-0.184171 0.221278,-0.231543 l 0.08014,-0.0406 0.873349,-0.0039 c 0.744206,-0.0033 0.873357,-0.0067 0.873357,-0.02331 0,-0.04484 -0.03322,-0.16972 -0.0632,-0.237766 -0.06088,-0.138088 -0.168177,-0.230891 -0.310562,-0.26863 -0.07793,-0.02066 -0.301626,-0.02223 -2.626474,-0.01853 l -2.541289,0.004 -0.0657,0.03061 c -0.175018,0.08153 -0.277352,0.229944 -0.305652,0.443289 l -0.0089,0.06725 h 0.378504 c 0.360239,0 0.379828,0.0014 0.405904,0.0274 0.032,0.03195 0.03566,0.09301 0.008,0.130957 -0.01833,0.02512 -0.04445,0.02701 -0.469213,0.03409 -0.47884,0.008 -0.498193,0.01066 -0.571394,0.07901 -0.08485,0.07925 -0.09014,0.109162 -0.09014,0.509443 0,0.324032 0.0029,0.368926 0.02528,0.417836 0.03061,0.06632 0.07397,0.108054 0.141674,0.136339 0.04408,0.01843 0.169722,0.02117 0.958788,0.02088 0.854316,-2.83e-4 0.911348,-0.0019 0.963921,-0.02567 0.06163,-0.02797 0.115361,-0.08697 0.115361,-0.126569 0,-0.02408 -0.01597,-0.02556 -0.284268,-0.02556 l -0.284267,-1.1e-5 -0.083,-0.03926 c -0.154569,-0.07313 -0.246069,-0.227629 -0.236368,-0.399108 0.0089,-0.156988 0.09674,-0.284685 0.244013,-0.354646 0.07189,-0.03415 0.08854,-0.0361 0.361659,-0.04266 l 0.286308,-0.0069 -0.03794,-0.04503 c -0.07314,-0.08682 -0.09156,-0.0909 -0.43442,-0.09642 -0.285321,-0.0048 -0.312654,-0.0071 -0.334496,-0.03128 -0.03095,-0.03422 -0.03037,-0.100497 9.45e-4,-0.13536 0.02367,-0.02615 0.04171,-0.02757 0.348203,-0.02765 0.391855,-8.3e-5 0.418163,0.0061 0.543622,0.130082 0.05621,0.05549 0.09002,0.102264 0.103707,0.143455 0.01998,0.06016 0.02164,0.06137 0.101564,0.07645 0.152251,0.02872 0.254653,0.09583 0.310622,0.203622 0.04011,0.07723 0.05018,0.278773 0.01866,0.373631 -0.04445,0.133818 -0.170113,0.229853 -0.325892,0.249036 -0.07128,0.0088 -0.0717,0.0092 -0.09605,0.07733 -0.03222,0.09019 -0.08732,0.166951 -0.159284,0.221834 -0.113712,0.08673 -0.1097,0.0864 -1.052984,0.0864 h -0.85374 v 0.10802 0.108019 l 0.113014,0.01621 c 0.559795,0.08034 0.990454,0.281688 1.333365,0.623418 0.412402,0.410976 0.650523,0.998675 0.698225,1.723282 l 0.0088,0.133567 h 0.805727 0.805719 z m -1.008706,-1.735023 c -0.144788,-0.05112 -0.216846,-0.108341 -0.216846,-0.172225 0,-0.102318 0.08402,-0.122717 0.213336,-0.05179 0.07364,0.04035 0.09208,0.0445 0.197654,0.0445 0.105571,0 0.12402,-0.0043 0.197651,-0.0445 0.09689,-0.05313 0.161352,-0.05785 0.192011,-0.01409 0.04498,0.06421 0.02635,0.119158 -0.05867,0.173335 -0.157654,0.100444 -0.35511,0.12479 -0.525145,0.06476 z m -0.98164,-0.108465 c -0.0259,-0.02755 -0.02977,-0.04736 -0.02977,-0.151321 0,-0.108738 0.0029,-0.12267 0.03365,-0.153236 0.04035,-0.04034 0.08869,-0.04305 0.132676,-0.0074 0.02985,0.02419 0.03236,0.0361 0.03236,0.156104 0,0.108546 -0.0043,0.134665 -0.02607,0.158757 -0.03566,0.03945 -0.104321,0.03808 -0.142757,-0.0029 z m 2.208808,0.0029 c -0.02182,-0.0241 -0.02607,-0.05022 -0.02607,-0.158756 0,-0.120003 0.0024,-0.131921 0.03231,-0.156106 0.04399,-0.03563 0.09233,-0.03287 0.132676,0.0074 0.03067,0.03067 0.03363,0.04437 0.03363,0.155154 0,0.109334 -0.0033,0.124524 -0.0317,0.151319 -0.04086,0.03841 -0.10655,0.03884 -0.140844,9.46e-4 z m 2.113583,-0.958411 c 0.02122,-0.008 0.05628,-0.03114 0.07793,-0.05137 0.07381,-0.06901 0.07711,-0.09107 0.07678,-0.512425 -3.07e-4,-0.430328 -0.007,-0.468178 -0.09242,-0.529036 -0.07763,-0.05528 -0.137865,-0.0584 -1.052021,-0.05422 -0.875231,0.0039 -0.87601,0.0043 -0.932891,0.03444 -0.03132,0.01673 -0.07042,0.04757 -0.08692,0.0685 l -0.02996,0.03808 0.278703,0.0069 c 0.264863,0.0065 0.282443,0.0086 0.354052,0.04266 0.147263,0.06996 0.23513,0.197658 0.244013,0.354648 0.0096,0.171479 -0.0818,0.325981 -0.236368,0.399106 l -0.083,0.03927 -0.284267,9e-6 c -0.173539,5e-6 -0.284268,0.0052 -0.284268,0.01319 0,0.02726 0.09083,0.115287 0.143735,0.139317 0.05132,0.02329 0.114215,0.02495 0.961629,0.02522 0.608038,2.03e-4 0.919411,-0.0047 0.945275,-0.01423 z m -3.964787,-0.369842 c 0.114181,-0.03171 0.185186,-0.143587 0.160519,-0.252958 -0.01583,-0.07027 -0.04789,-0.112066 -0.110294,-0.143899 -0.05259,-0.02683 -0.07429,-0.02797 -0.464611,-0.02416 -0.390662,0.0039 -0.411207,0.0054 -0.448087,0.03264 -0.06225,0.04617 -0.100304,0.11274 -0.100272,0.175438 4.2e-5,0.104095 0.06707,0.19034 0.166061,0.213718 0.0703,0.01659 0.736458,0.01592 0.796697,-9.45e-4 z m 2.488107,-0.01971 c 0.06973,-0.04106 0.101047,-0.09171 0.107649,-0.1741 0.0065,-0.08055 -0.023,-0.139733 -0.09692,-0.194532 -0.0369,-0.02736 -0.05743,-0.02882 -0.448082,-0.03264 -0.390315,-0.0037 -0.412011,-0.0029 -0.464611,0.02416 -0.170153,0.08679 -0.148707,0.324493 0.03534,0.391808 0.04176,0.01526 0.133685,0.01866 0.436507,0.01607 0.35556,-0.0033 0.386989,-0.0054 0.430106,-0.03072 z"
       id="path1697" />
    <path
       style="fill:#000000;stroke-width:0.0136997"
       d="m 55.883333,44.804789 c -0.66748,-0.09886 -1.245858,-0.584194 -1.457996,-1.223415 -0.08252,-0.24864 -0.08617,-0.288796 -0.09293,-1.022961 l -0.0061,-0.671572 -0.05982,-0.02476 c -0.09291,-0.03841 -0.177913,-0.122106 -0.228633,-0.225074 l -0.04503,-0.09141 -0.0043,-0.389142 c -0.0037,-0.361598 -0.0024,-0.395768 0.0242,-0.48273 0.03542,-0.116682 0.141585,-0.239722 0.245293,-0.284335 l 0.06692,-0.0288 0.0154,-0.103448 c 0.04903,-0.329613 0.210788,-0.542211 0.48124,-0.632467 0.07182,-0.02397 0.193695,-0.02535 2.602941,-0.02936 1.84409,-0.0031 2.555372,2.3e-5 2.630335,0.01143 0.32352,0.04924 0.532392,0.292241 0.595661,0.692977 0.008,0.05085 0.01409,0.05786 0.06195,0.0722 0.09132,0.02736 0.18408,0.112762 0.23515,0.216507 l 0.04569,0.09278 v 0.445527 c 0,0.42884 -9.44e-4,0.447947 -0.02986,0.510152 -0.04379,0.09486 -0.143929,0.195269 -0.230387,0.231105 l -0.07317,0.03033 -0.0061,0.665799 c -0.0051,0.538322 -0.01045,0.687178 -0.0283,0.777444 -0.151735,0.766435 -0.768587,1.354353 -1.536322,1.464255 -0.193537,0.02769 -3.017798,0.02674 -3.205719,-9.46e-4 z m 0.595925,-0.228814 c -2.8e-5,-0.10444 -0.03085,-0.358333 -0.06277,-0.51716 -0.09471,-0.471271 -0.288018,-0.856648 -0.574262,-1.144871 -0.208278,-0.209712 -0.461142,-0.365768 -0.74859,-0.462002 -0.115806,-0.03879 -0.37545,-0.09811 -0.489079,-0.11178 l -0.07319,-0.0088 0.0064,0.449302 c 0.0051,0.358986 0.01108,0.46996 0.0299,0.552051 0.07663,0.333845 0.207666,0.572175 0.444839,0.809073 0.19933,0.199099 0.381137,0.313314 0.630211,0.395903 0.186078,0.0617 0.318181,0.07983 0.593434,0.0814 l 0.243173,0.0014 z m 1.828351,-0.08905 c 0.01289,-0.194263 0.04888,-0.443091 0.07016,-0.484678 0.03119,-0.06091 0.100745,-0.07153 0.152136,-0.02325 0.03718,0.03491 0.03889,0.06701 0.0123,0.230505 -0.01045,0.06405 -0.02338,0.182721 -0.02877,0.263721 l -0.0099,0.147264 0.231105,-5.3e-5 c 0.428077,-1.04e-4 0.696371,-0.07494 1.01674,-0.283571 0.10501,-0.06839 0.353794,-0.319355 0.425034,-0.428756 0.06954,-0.106809 0.153052,-0.277607 0.190896,-0.390443 0.0672,-0.200374 0.07443,-0.266104 0.08106,-0.736995 l 0.0064,-0.449305 -0.07321,0.009 c -0.122167,0.01493 -0.326139,0.06113 -0.463633,0.104967 -0.546093,0.174116 -0.953236,0.546153 -1.185173,1.082991 -0.03185,0.07365 -0.06887,0.146078 -0.08235,0.160972 -0.04697,0.05191 -0.145041,0.02277 -0.162904,-0.04843 -0.0064,-0.02528 0.01002,-0.0791 0.05873,-0.193 0.11849,-0.277148 0.256899,-0.481624 0.467408,-0.690485 0.350116,-0.347372 0.786294,-0.545285 1.373501,-0.623225 l 0.06507,-0.0086 v -0.108337 -0.108363 l -0.866503,-0.0037 -0.866507,-0.0037 -0.08161,-0.04007 c -0.106808,-0.05244 -0.18657,-0.136382 -0.234803,-0.247113 -0.03653,-0.08383 -0.04186,-0.08955 -0.08339,-0.08955 -0.119039,0 -0.27916,-0.100573 -0.336552,-0.211408 -0.03935,-0.07602 -0.04974,-0.267575 -0.01933,-0.356838 0.04612,-0.135286 0.162223,-0.224316 0.334345,-0.256326 0.08148,-0.01516 0.08429,-0.01715 0.106249,-0.07459 0.03209,-0.08405 0.127785,-0.184171 0.221278,-0.231543 l 0.08014,-0.0406 0.873349,-0.0039 c 0.744206,-0.0033 0.873357,-0.0067 0.873357,-0.02331 0,-0.04484 -0.03322,-0.16972 -0.0632,-0.237766 -0.06088,-0.138088 -0.168177,-0.230891 -0.310562,-0.26863 -0.07793,-0.02066 -0.301626,-0.02223 -2.626474,-0.01853 l -2.541289,0.004 -0.0657,0.03061 c -0.175018,0.08153 -0.277352,0.229944 -0.305652,0.443289 l -0.0089,0.06725 h 0.378504 c 0.360239,0 0.379828,0.0014 0.405904,0.0274 0.032,0.03195 0.03566,0.09301 0.008,0.130957 -0.01833,0.02512 -0.04445,0.02701 -0.469213,0.03409 -0.47884,0.008 -0.498193,0.01066 -0.571394,0.07901 -0.08485,0.07925 -0.09014,0.109162 -0.09014,0.509443 0,0.324032 0.0029,0.368926 0.02528,0.417836 0.03061,0.06632 0.07397,0.108054 0.141674,0.136339 0.04408,0.01843 0.169722,0.02117 0.958788,0.02088 0.854316,-2.83e-4 0.911348,-0.0019 0.963921,-0.02567 0.06163,-0.02797 0.115361,-0.08697 0.115361,-0.126569 0,-0.02408 -0.01597,-0.02556 -0.284268,-0.02556 l -0.284267,-1.1e-5 -0.083,-0.03926 c -0.154569,-0.07313 -0.246069,-0.227629 -0.236368,-0.399108 0.0089,-0.156988 0.09674,-0.284685 0.244013,-0.354646 0.07189,-0.03415 0.08854,-0.0361 0.361659,-0.04266 l 0.286308,-0.0069 -0.03794,-0.04503 c -0.07314,-0.08682 -0.09156,-0.0909 -0.43442,-0.09642 -0.285321,-0.0048 -0.312654,-0.0071 -0.334496,-0.03128 -0.03095,-0.03422 -0.03037,-0.100497 9.45e-4,-0.13536 0.02367,-0.02615 0.04171,-0.02757 0.348203,-0.02765 0.391855,-8.3e-5 0.418163,0.0061 0.543622,0.130082 0.05621,0.05549 0.09002,0.102264 0.103707,0.143455 0.01998,0.06016 0.02164,0.06137 0.101564,0.07645 0.152251,0.02872 0.254653,0.09583 0.310622,0.203622 0.04011,0.07723 0.05018,0.278773 0.01866,0.373631 -0.04445,0.133818 -0.170113,0.229853 -0.325892,0.249036 -0.07128,0.0088 -0.0717,0.0092 -0.09605,0.07733 -0.03222,0.09019 -0.08732,0.166951 -0.159284,0.221834 -0.113712,0.08673 -0.1097,0.0864 -1.052984,0.0864 h -0.85374 v 0.10802 0.108019 l 0.113014,0.01621 c 0.559795,0.08034 0.990454,0.281688 1.333365,0.623418 0.412402,0.410976 0.650523,0.998675 0.698225,1.723282 l 0.0088,0.133567 h 0.805727 0.805719 z m -1.008706,-1.735023 c -0.144788,-0.05112 -0.216846,-0.108341 -0.216846,-0.172225 0,-0.102318 0.08402,-0.122717 0.213336,-0.05179 0.07364,0.04035 0.09208,0.0445 0.197654,0.0445 0.105571,0 0.12402,-0.0043 0.197651,-0.0445 0.09689,-0.05313 0.161352,-0.05785 0.192011,-0.01409 0.04498,0.06421 0.02635,0.119158 -0.05867,0.173335 -0.157654,0.100444 -0.35511,0.12479 -0.525145,0.06476 z m -0.98164,-0.108465 c -0.0259,-0.02755 -0.02977,-0.04736 -0.02977,-0.151321 0,-0.108738 0.0029,-0.12267 0.03365,-0.153236 0.04035,-0.04034 0.08869,-0.04305 0.132676,-0.0074 0.02985,0.02419 0.03236,0.0361 0.03236,0.156104 0,0.108546 -0.0043,0.134665 -0.02607,0.158757 -0.03566,0.03945 -0.104321,0.03808 -0.142757,-0.0029 z m 2.208808,0.0029 c -0.02182,-0.0241 -0.02607,-0.05022 -0.02607,-0.158756 0,-0.120003 0.0024,-0.131921 0.03231,-0.156106 0.04399,-0.03563 0.09233,-0.03287 0.132676,0.0074 0.03067,0.03067 0.03363,0.04437 0.03363,0.155154 0,0.109334 -0.0033,0.124524 -0.0317,0.151319 -0.04086,0.03841 -0.10655,0.03884 -0.140844,9.46e-4 z m 2.113583,-0.958411 c 0.02122,-0.008 0.05628,-0.03114 0.07793,-0.05137 0.07381,-0.06901 0.07711,-0.09107 0.07678,-0.512425 -3.07e-4,-0.430328 -0.007,-0.468178 -0.09242,-0.529036 -0.07763,-0.05528 -0.137865,-0.0584 -1.052021,-0.05422 -0.875231,0.0039 -0.87601,0.0043 -0.932891,0.03444 -0.03132,0.01673 -0.07042,0.04757 -0.08692,0.0685 l -0.02996,0.03808 0.278703,0.0069 c 0.264863,0.0065 0.282443,0.0086 0.354052,0.04266 0.147263,0.06996 0.23513,0.197658 0.244013,0.354648 0.0096,0.171479 -0.0818,0.325981 -0.236368,0.399106 l -0.083,0.03927 -0.284267,9e-6 c -0.173539,5e-6 -0.284268,0.0052 -0.284268,0.01319 0,0.02726 0.09083,0.115287 0.143735,0.139317 0.05132,0.02329 0.114215,0.02495 0.961629,0.02522 0.608038,2.03e-4 0.919411,-0.0047 0.945275,-0.01423 z m -3.964787,-0.369842 c 0.114181,-0.03171 0.185186,-0.143587 0.160519,-0.252958 -0.01583,-0.07027 -0.04789,-0.112066 -0.110294,-0.143899 -0.05259,-0.02683 -0.07429,-0.02797 -0.464611,-0.02416 -0.390662,0.0039 -0.411207,0.0054 -0.448087,0.03264 -0.06225,0.04617 -0.100304,0.11274 -0.100272,0.175438 4.2e-5,0.104095 0.06707,0.19034 0.166061,0.213718 0.0703,0.01659 0.736458,0.01592 0.796697,-9.45e-4 z m 2.488107,-0.01971 c 0.06973,-0.04106 0.101047,-0.09171 0.107649,-0.1741 0.0065,-0.08055 -0.023,-0.139733 -0.09692,-0.194532 -0.0369,-0.02736 -0.05743,-0.02882 -0.448082,-0.03264 -0.390315,-0.0037 -0.412011,-0.0029 -0.464611,0.02416 -0.170153,0.08679 -0.148707,0.324493 0.03534,0.391808 0.04176,0.01526 0.133685,0.01866 0.436507,0.01607 0.35556,-0.0033 0.386989,-0.0054 0.430106,-0.03072 z"
       id="path1697-1" />
    <path
       style="fill:#ffffff;stroke:none;stroke-width:0.353553"
       d="m 12.319,21.179634 c -0.129636,-0.129636 -0.235702,-0.62825 -0.235702,-1.108029 0,-2.719343 -2.3172653,-6.177323 -4.8328097,-7.211848 C 6.505582,12.553413 5.4983657,12.136477 5.0122298,11.933233 4.3028782,11.636667 4.7614235,11.558973 7.3344445,11.53977 10.384984,11.517 10.612278,11.46071 12.019027,10.379521 c 1.194009,-0.9176814 1.478484,-1.3552737 1.478484,-2.2742722 0,-0.8006616 -0.195767,-1.2000853 -0.660479,-1.3475793 C 12.473769,6.6423743 11.892264,6.2339054 11.544799,5.849961 10.74715,4.9685688 7.8406569,4.8369415 7.8406569,5.6822103 c 0,0.3677061 0.4065599,0.5465742 1.3258252,0.5833037 1.2029089,0.048063 1.2274919,0.067352 0.2651651,0.208061 -1.3590016,0.1987099 -1.9459225,0.694612 -1.9391297,1.6384115 0.00824,1.1453808 0.4924631,1.6788844 1.8050393,1.9887575 0.9172712,0.216549 0.4967952,0.28934 -1.8104533,0.313419 C 3.0949347,10.46 2.8909094,10.367504 2.8909094,8.3304514 c 0,-1.9201179 0.2503399,-2.117911 2.6805667,-2.117911 1.152808,0 1.562074,-0.1389474 1.562074,-0.5303301 0,-0.3830162 -0.392837,-0.5303301 -1.4142135,-0.5303301 -1.5148242,0 -1.745356,-0.3254568 -0.8586297,-1.2121831 C 5.3387756,3.4616284 6.769283,3.3841132 15.113755,3.3841132 c 9.585226,0 9.706672,0.00921 10.49296,0.7954951 l 0.795495,0.7954952 -3.653617,0.1767767 c -2.661799,0.1287885 -3.767738,0.3207412 -4.074009,0.7071068 -0.231216,0.2916815 -0.734925,0.7054761 -1.119354,0.9195435 -0.89111,0.4962101 -1.093717,2.0482392 -0.348743,2.6714686 0.312186,0.2611685 0.886585,0.7930499 1.276443,1.1819589 0.58684,0.585411 1.329305,0.737531 4.314057,0.883883 l 3.605223,0.176777 -1.944544,0.606694 c -1.069499,0.333682 -2.313757,0.867649 -2.765017,1.186593 -1.125129,0.795223 -2.891837,3.295995 -2.891837,4.09339 0,0.878494 0.955235,0.836093 1.238042,-0.05495 0.554814,-1.748062 2.769939,-3.565047 5.193653,-4.260159 0.982401,-0.281749 0.992926,-0.268043 0.992926,1.292899 0,1.699169 -0.719732,3.766417 -1.692862,4.862316 -0.812147,0.914607 -3.194761,1.978589 -4.452193,1.988175 -0.970998,0.0074 -1.008991,-0.05103 -0.814098,-1.252014 0.171192,-1.054935 0.106853,-1.241303 -0.395682,-1.146153 -0.387336,0.07334 -0.639398,0.520012 -0.710905,1.259778 l -0.110789,1.146153 h -2.747101 c -1.510905,0 -2.853167,-0.106066 -2.982803,-0.235702 z m 4.360492,-7.012142 c 0.523319,-0.630561 0.59997,-0.594572 -1.502602,-0.705503 -1.181173,-0.06232 -1.679379,0.04667 -1.679379,0.367376 0,0.923016 2.478027,1.186339 3.181981,0.338127 z m -5.303301,-0.707107 c 0,-0.902675 -0.482559,-1.179688 -0.894347,-0.5134 -0.294109,0.475879 0.05519,1.397283 0.529697,1.397283 0.200558,0 0.36465,-0.397747 0.36465,-0.883883 z m 8.485281,0 c 0,-0.549972 -0.200347,-0.883884 -0.53033,-0.883884 -0.329983,0 -0.53033,0.333912 -0.53033,0.883884 0,0.549972 0.200347,0.883883 0.53033,0.883883 0.329983,0 0.53033,-0.333911 0.53033,-0.883883 z"
       id="path12"
       transform="matrix(0.26458333,0,0,0.26458333,44.581036,28.552681)" />
    <path
       style="fill:#ffffff;stroke-width:0.353553"
       d="m 21.275686,10.00056 c 0.964572,-0.3346066 1.26256,-0.6483705 1.351372,-1.4229143 0.146657,-1.2790252 -0.415883,-1.9338011 -1.819644,-2.1179969 -0.617495,-0.081025 0.540968,-0.1299966 2.574362,-0.1088252 3.63759,0.037874 3.700506,0.052716 3.909919,0.9223769 0.11706,0.4861359 0.117729,1.3611806 0.0015,1.9445437 l -0.21135,1.0606598 -3.521791,0.07571 c -3.151591,0.06775 -3.391716,0.03059 -2.284354,-0.353554 z"
       id="path14"
       transform="matrix(0.26458333,0,0,0.26458333,44.581036,28.552681)" />
    <path
       style="fill:#ffffff;stroke-width:0.353553"
       d="M 8.3056627,21.025764 C 7.0227827,20.654568 5.1066044,18.881166 4.6278748,17.622011 4.4503613,17.155115 4.305123,15.987972 4.305123,15.028359 c 0,-1.944748 0.2600362,-2.092724 2.2210643,-1.263918 2.3074639,0.975222 3.9983547,3.315674 4.3736587,6.053812 0.207568,1.514379 0.175221,1.595432 -0.624647,1.565197 C 9.8112454,21.36591 8.9249543,21.204954 8.3056627,21.025764 Z"
       id="path16"
       transform="matrix(0.26458333,0,0,0.26458333,44.581036,28.552681)" />
    <path
       style="fill:#ffffff;stroke-width:0.353553"
       d="M 8.9042725,8.7059942 C 8.0124101,8.1264605 9.0030642,7.570248 10.709437,7.6924666 c 1.09328,0.078306 1.550637,0.2674838 1.550637,0.6413941 0,0.6305271 -2.5269178,0.9107434 -3.3558015,0.3721335 z"
       id="path18"
       transform="matrix(0.26458333,0,0,0.26458333,44.581036,28.552681)" />
    <path
       style="fill:#ffffff;stroke-width:0.353553"
       d=""
       id="path20"
       transform="matrix(0.26458333,0,0,0.26458333,44.581036,28.552681)" />
    <path
       style="fill:#ffffff;stroke-width:0.353553"
       d="m 24.546055,10.565021 c 0.340295,-0.08893 0.897142,-0.08893 1.237437,0 0.340295,0.08893 0.06187,0.161688 -0.618719,0.161688 -0.68059,0 -0.959013,-0.07276 -0.618718,-0.161688 z"
       id="path22"
       transform="matrix(0.26458333,0,0,0.26458333,44.581036,28.552681)" />
    <path
       style="fill:#ffffff;stroke-width:0.353553"
       d="m 45.84106,59.333938 c -0.669284,-4.119482 -2.706838,-6.722203 -6.078285,-7.764251 l -2.046856,-0.632642 3.358757,-0.176777 c 3.069665,-0.161561 3.472871,-0.268069 4.684572,-1.237437 1.047192,-0.83776 1.325817,-1.304467 1.325825,-2.220805 7e-6,-0.784523 -0.200312,-1.232114 -0.618708,-1.38243 -0.340295,-0.122258 -0.903339,-0.515012 -1.251209,-0.872788 -0.815435,-0.838654 -3.786927,-0.932948 -3.786927,-0.120171 0,0.380345 0.424957,0.544519 1.502602,0.580501 l 1.502602,0.05017 -1.407281,0.214994 c -1.139899,0.174145 -1.47442,0.406756 -1.760644,1.224272 -0.301299,0.860576 -0.237207,1.103334 0.43501,1.647662 0.433604,0.351112 0.788371,0.732207 0.788371,0.846878 0,0.282557 -3.847611,0.198718 -4.949747,-0.107854 -0.790806,-0.219973 -0.883883,-0.43034 -0.883883,-1.99769 v -1.751827 l 2.032932,-0.106032 c 1.491507,-0.07779 2.032932,-0.242575 2.032932,-0.618719 0,-0.362432 -0.414468,-0.512686 -1.414214,-0.512686 -1.555426,0 -1.747495,-0.295899 -0.767656,-1.182641 0.568235,-0.514246 1.810257,-0.585126 10.253048,-0.585126 9.490883,0 9.616064,0.0096 10.401986,0.795495 l 0.795495,0.795495 -3.653617,0.176777 c -2.661798,0.128788 -3.767737,0.320741 -4.074009,0.707107 -0.231216,0.291681 -0.734925,0.705476 -1.119354,0.919543 -1.294947,0.721085 -1.063231,1.993173 0.608225,3.339058 1.436546,1.156732 1.695096,1.231048 4.877854,1.402056 2.518575,0.135323 3.095073,0.24921 2.300241,0.454413 -3.090801,0.797956 -5.843757,3.078981 -6.380881,5.287027 -0.336523,1.383401 0.678962,1.300737 1.260239,-0.102588 0.607259,-1.466052 2.916597,-3.369455 4.609356,-3.799123 l 1.39517,-0.354132 v 1.744259 c 0,1.860269 -0.846197,3.922096 -2.060295,5.020074 -0.833179,0.753491 -3.050167,1.607657 -4.231299,1.630243 -0.737682,0.01411 -0.790394,-0.09707 -0.579371,-1.221918 0.181729,-0.968695 0.116639,-1.237437 -0.299706,-1.237437 -0.576031,0 -0.961057,0.719801 -0.961057,1.796683 0,0.611714 -0.275674,0.678191 -2.812407,0.678191 h -2.812406 z m 4.355293,-5.815954 c 0.736505,-0.736504 0.473644,-0.908987 -1.343502,-0.881574 -1.145304,0.01728 -1.767767,0.179257 -1.767767,0.460014 0,0.837255 2.373921,1.158909 3.111269,0.42156 z M 45.198582,53.0346 c 0.298347,-0.777481 -0.511368,-1.556775 -0.923937,-0.889225 -0.345826,0.559559 -0.1104,1.44332 0.384487,1.44332 0.179753,0 0.422506,-0.249343 0.53945,-0.554095 z m 8.250463,-0.329788 c 0,-0.549972 -0.200347,-0.883884 -0.53033,-0.883884 -0.329983,0 -0.53033,0.333912 -0.53033,0.883884 0,0.549972 0.200347,0.883883 0.53033,0.883883 0.329983,0 0.53033,-0.333911 0.53033,-0.883883 z"
       id="path24"
       transform="matrix(0.26458333,0,0,0.26458333,44.581036,28.552681)" />
    <path
       style="fill:#ffffff;stroke-width:0.353553"
       d=""
       id="path26"
       transform="matrix(0.26458333,0,0,0.26458333,44.581036,28.552681)" />
    <path
       style="fill:#ffffff;stroke-width:0.353553"
       d="m 51.939007,47.89936 c -1.007597,-0.586598 -0.350106,-1.028179 1.530903,-1.028179 1.251641,0 1.746902,0.138662 1.746902,0.489094 0,0.833832 -2.161027,1.189246 -3.277805,0.539085 z"
       id="path28"
       transform="matrix(0.26458333,0,0,0.26458333,44.581036,28.552681)" />
    <path
       style="fill:#ffffff;stroke-width:0.353553"
       d="m 55.216812,49.503584 c 0,-0.140994 0.258536,-0.445399 0.574524,-0.676455 0.557379,-0.407566 0.796447,-2.117042 0.357458,-2.556031 -0.119387,-0.119387 -0.815445,-0.33311 -1.546796,-0.47494 -0.958366,-0.185856 -0.337396,-0.269229 2.223482,-0.298533 2.342202,-0.0268 3.697809,0.10394 3.977475,0.383606 0.463053,0.463053 0.586992,2.974664 0.159099,3.224137 -0.499602,0.29128 -5.745242,0.654868 -5.745242,0.398216 z"
       id="path30"
       transform="matrix(0.26458333,0,0,0.26458333,44.581036,28.552681)" />
    <path
       style="fill:#ffffff;stroke-width:0.353553"
       d="m 41.958559,60.234893 c -1.328418,-0.462211 -3.185735,-2.192952 -3.709006,-3.456241 -0.218671,-0.527918 -0.348645,-1.765844 -0.288832,-2.750946 l 0.108751,-1.791095 1.39377,0.480961 c 0.766573,0.264529 1.800717,0.775748 2.298096,1.136042 1.186567,0.859528 2.848872,4.145842 2.848872,5.63211 0,0.99009 -0.124639,1.169666 -0.795495,1.146127 -0.437523,-0.01535 -1.272792,-0.193983 -1.856156,-0.396958 z"
       id="path32"
       transform="matrix(0.26458333,0,0,0.26458333,44.581036,28.552681)" />
    <path
       style="fill:#ffffff;stroke-width:0.353553"
       d="m 42.908117,47.920973 c -1.261153,-0.518982 -0.568735,-1.049792 1.369405,-1.049792 1.317099,0 1.746901,0.13048 1.746901,0.53033 0,0.291681 -0.198873,0.532502 -0.441941,0.535157 -0.243068,0.0027 -0.76014,0.07597 -1.149049,0.162919 -0.388909,0.08695 -1.075301,0.0066 -1.525316,-0.178614 z"
       id="path34"
       transform="matrix(0.26458333,0,0,0.26458333,44.581036,28.552681)" />
    <path
       style="fill:#ffffff;stroke-width:0.353553"
       d="m 51.939007,47.89936 c -1.007597,-0.586598 -0.350106,-1.028179 1.530903,-1.028179 1.251641,0 1.746902,0.138662 1.746902,0.489094 0,0.833832 -2.161027,1.189246 -3.277805,0.539085 z"
       id="path36"
       transform="matrix(0.26458333,0,0,0.26458333,44.581036,28.552681)" />
    <path
       style="fill:#ffffff;stroke-width:0.353553"
       d="m 55.216812,49.503584 c 0,-0.140994 0.258536,-0.445399 0.574524,-0.676455 0.557379,-0.407566 0.796447,-2.117042 0.357458,-2.556031 -0.119387,-0.119387 -0.815445,-0.33311 -1.546796,-0.47494 -0.958366,-0.185856 -0.337396,-0.269229 2.223482,-0.298533 2.342202,-0.0268 3.697809,0.10394 3.977475,0.383606 0.463053,0.463053 0.586992,2.974664 0.159099,3.224137 -0.499602,0.29128 -5.745242,0.654868 -5.745242,0.398216 z"
       id="path38"
       transform="matrix(0.26458333,0,0,0.26458333,44.581036,28.552681)" />
    <path
       style="fill:#ffffff;stroke-width:0.353553"
       d="m 18.096661,8.7059942 c -0.891863,-0.5795337 0.09879,-1.1357462 1.805165,-1.0135276 1.09328,0.078306 1.550637,0.2674838 1.550637,0.6413941 0,0.6305271 -2.526919,0.9107434 -3.355802,0.3721335 z"
       id="path40"
       transform="matrix(0.26458333,0,0,0.26458333,44.581036,28.552681)" />
  </g>
</svg>
