<?xml version="1.0" encoding="UTF-8" standalone="no"?>
<!-- Created with Inkscape (http://www.inkscape.org/) -->

<svg
   xmlns:dc="http://purl.org/dc/elements/1.1/"
   xmlns:cc="http://creativecommons.org/ns#"
   xmlns:rdf="http://www.w3.org/1999/02/22-rdf-syntax-ns#"
   xmlns:svg="http://www.w3.org/2000/svg"
   xmlns="http://www.w3.org/2000/svg"
   xmlns:sodipodi="http://sodipodi.sourceforge.net/DTD/sodipodi-0.dtd"
   xmlns:inkscape="http://www.inkscape.org/namespaces/inkscape"
   width="64"
   height="64"
   viewBox="0 0 16.933333 16.933334"
   version="1.1"
   id="svg8"
   inkscape:version="0.92.5 (2060ec1f9f, 2020-04-08)"
   sodipodi:docname="change_64x64.svg">
  <defs
     id="defs2" />
  <sodipodi:namedview
     id="base"
     pagecolor="#ffffff"
     bordercolor="#666666"
     borderopacity="1.0"
     inkscape:pageopacity="0.0"
     inkscape:pageshadow="2"
     inkscape:zoom="5.6"
     inkscape:cx="55.824006"
     inkscape:cy="24.27286"
     inkscape:document-units="mm"
     inkscape:current-layer="layer1"
     showgrid="false"
     units="px"
     inkscape:window-width="1208"
     inkscape:window-height="987"
     inkscape:window-x="1992"
     inkscape:window-y="0"
     inkscape:window-maximized="1" />
  <metadata
     id="metadata5">
    <rdf:RDF>
      <cc:Work
         rdf:about="">
        <dc:format>image/svg+xml</dc:format>
        <dc:type
           rdf:resource="http://purl.org/dc/dcmitype/StillImage" />
        <dc:title></dc:title>
      </cc:Work>
    </rdf:RDF>
  </metadata>
  <g
     inkscape:label="Layer 1"
     inkscape:groupmode="layer"
     id="layer1"
     transform="translate(0,-280.06665)">
    <path
       style="fill:#000000;stroke-width:0.03718032"
       d="m 14.063231,296.26639 c -0.08224,0.0483 -0.227381,0.10574 -0.322592,0.12732 -0.229951,0.0521 -5.0953206,0.11059 -5.2920933,0.0636 -0.4416923,-0.10543 -0.9130683,-0.46052 -1.132918,-0.85341 -0.2237038,-0.39978 -0.2352307,-0.53132 -0.2729785,-3.11438 -0.031017,-2.12296 -0.025175,-2.5104 0.040807,-2.70717 0.1366167,-0.40735 0.4073546,-0.65314 0.7495109,-0.68047 0.4111051,-0.0328 0.6597668,0.10029 1.242551,0.66519 l 0.4302485,0.41706 0.3276172,-0.26492 c 0.4600462,-0.37196 1.1501152,-1.09368 1.4454452,-1.51158 0.62402,-0.88317 1.065589,-1.85418 1.299166,-2.85684 0.193905,-0.83237 0.244705,-1.94636 0.130191,-2.8552 -0.02703,-0.21451 -0.03339,-0.44215 -0.01415,-0.50588 0.07589,-0.25128 0.356397,-0.41875 0.624371,-0.37282 0.206035,0.0353 0.399143,0.23327 0.786196,0.80583 1.442881,2.13439 1.953554,4.83491 1.383946,7.31843 -0.320112,1.39569 -0.985441,2.7871 -1.816859,3.79963 l -0.210849,0.2568 0.438456,0.45575 c 0.485207,0.50437 0.579208,0.65214 0.614074,0.96533 0.02382,0.21393 -0.07695,0.53673 -0.208452,0.66782 -0.05091,0.0503 -0.159462,0.13149 -0.241644,0.17995 z m -1.916011,-2.09633 c -0.04398,-0.27552 -0.01234,-0.34638 0.33056,-0.74048 0.175194,-0.20134 0.371311,-0.43635 0.435864,-0.52222 1.483148,-1.97342 2.019218,-4.41677 1.498213,-6.82882 -0.07191,-0.33293 -0.463555,-1.5299 -0.51813,-1.58356 -0.0097,-0.01 -0.04576,0.1982 -0.08014,0.46165 -0.195594,1.49899 -0.783266,2.9507 -1.692291,4.18041 -0.534513,0.72311 -1.377117,1.53398 -2.1213662,2.04151 -0.365074,0.24897 -0.4992499,0.28956 -0.7250881,0.21932 -0.1638156,-0.0509 -0.2117466,-0.089 -0.6577879,-0.52195 l -0.4811024,-0.46702 0.030016,2.21076 c 0.030077,2.21477 0.047557,2.42067 0.21994,2.59067 0.1766185,0.17417 0.3352564,0.18352 2.5721466,0.15146 l 2.220601,-0.0318 -0.505627,-0.51674 c -0.458518,-0.4686 -0.507508,-0.52852 -0.525811,-0.64316 z m -8.3940852,1.00131 c -0.076899,0.0245 -0.2132465,0.0271 -0.3031265,0.005 -0.1412646,-0.0342 -0.1848717,-0.0646 -0.3216521,-0.22356 -0.4520808,-0.52559 -1.0170649,-1.49885 -1.3573755,-2.33827 -0.7184728,-1.7722 -0.86462504,-3.75405 -0.4190431,-5.68242 0.2902648,-1.25621 1.0005691,-2.71152 1.7932646,-3.67412 l 0.2134492,-0.25916 -0.4532773,-0.46717 c -0.52892,-0.54515 -0.6205999,-0.70989 -0.6024195,-1.08249 0.019332,-0.39609 0.2502818,-0.66945 0.683888,-0.80955 0.3287073,-0.10629 5.1385127,-0.16951 5.44682,-0.0717 0.326201,0.10348 0.5115282,0.21212 0.7412656,0.43451 0.249092,0.24116 0.3984906,0.49038 0.4853916,0.80979 0.0966,0.35506 0.151031,5.18287 0.06137,5.44343 -0.138071,0.40125 -0.4439338,0.64095 -0.8285816,0.64934 -0.3636566,0.008 -0.4780125,-0.0559 -1.0651666,-0.595 l -0.5201301,-0.47754 -0.2523589,0.19547 c -1.6592455,1.28552 -2.7355928,3.22057 -2.9764759,5.35109 -0.061293,0.54211 -0.051705,1.37568 0.021839,1.89923 0.076949,0.54778 -0.015838,0.786 -0.3477159,0.89276 z M 2.9913336,292.0889 c 0.1404195,-1.12332 0.546951,-2.34004 1.1071317,-3.31358 0.6585842,-1.14451 1.5377244,-2.1132 2.6095714,-2.87532 0.6856701,-0.48756 0.7376277,-0.48055 1.462153,0.19747 l 0.5131634,0.4802 -0.032859,-2.22939 c -0.023371,-1.58552 -0.050496,-2.26317 -0.09391,-2.34627 -0.0765,-0.14644 -0.2253441,-0.28862 -0.3668349,-0.35041 -0.063413,-0.0276 -1.0338706,-0.0345 -2.329177,-0.0165 l -2.2204298,0.031 0.4878044,0.49944 c 0.4266129,0.4368 0.4926742,0.51716 0.5265959,0.64073 0.074883,0.27275 0.040423,0.35574 -0.3184193,0.76699 -0.6056069,0.6941 -0.9436648,1.20042 -1.3167764,1.97241 -0.2495547,0.51633 -0.5238674,1.30899 -0.6308782,1.823 -0.2587969,1.24298 -0.2288293,2.65248 0.081457,3.83226 0.1313221,0.49932 0.4274312,1.3212 0.4628553,1.28471 0.00564,-0.006 0.032008,-0.18436 0.058554,-0.39672 z"
       id="path2102"
       inkscape:connector-curvature="0" />
    <path
       style="fill:#ffffff;stroke-width:0.00100374;stroke-miterlimit:4;stroke-dasharray:none"
       d="m 2.8698202,292.35253 c -0.097432,-0.22482 -0.3467285,-0.99571 -0.4204194,-1.30006 -0.1820124,-0.75175 -0.2567768,-1.75322 -0.1943888,-2.60384 0.1052859,-1.43552 0.6560653,-2.95293 1.4979403,-4.12688 0.084835,-0.11836 0.3060332,-0.39709 0.4915461,-0.61941 0.3776338,-0.45265 0.4373441,-0.54502 0.4478563,-0.69274 0.015389,-0.21618 -0.039442,-0.30278 -0.498861,-0.78779 -0.2293293,-0.2421 -0.4391031,-0.46556 -0.4661655,-0.49657 -0.044484,-0.051 0.1357518,-0.0578 1.8642154,-0.0712 2.1248078,-0.0165 2.5290932,-0.0122 2.6209948,0.0274 0.093643,0.0405 0.2850215,0.23582 0.3270183,0.33393 0.020258,0.0474 0.051258,0.53391 0.068852,1.08122 0.035254,1.09672 0.071367,3.44336 0.052821,3.43269 -0.00667,-0.004 -0.219352,-0.19608 -0.4731128,-0.42747 -0.2652871,-0.24192 -0.5108995,-0.44854 -0.5779053,-0.48616 -0.1652834,-0.0928 -0.3290555,-0.0838 -0.532253,0.0292 -0.2129668,0.11853 -0.7246286,0.49551 -1.0514603,0.7748 -0.3298757,0.28193 -1.1057719,1.11409 -1.3446519,1.44222 -0.920444,1.26438 -1.4671986,2.60462 -1.6909504,4.14502 -0.03418,0.2353 -0.065768,0.43154 -0.070195,0.4361 -0.00442,0.005 -0.027342,-0.0362 -0.050892,-0.0906 z"
       id="path2104"
       inkscape:connector-curvature="0" />
    <path
       style="fill:#ffffff;stroke-width:0.00100374;stroke-miterlimit:4;stroke-dasharray:none"
       d="m 11.126142,295.34282 c -2.4697405,0.0296 -2.5432529,0.0258 -2.7128176,-0.13885 -0.1847852,-0.17939 -0.1901608,-0.24248 -0.231678,-2.72015 l -0.034102,-2.03487 0.4911799,0.45829 c 0.488516,0.45582 0.491991,0.45855 0.6399114,0.50193 0.081807,0.024 0.189399,0.0362 0.239112,0.027 0.3963161,-0.0726 1.6032323,-1.06976 2.2941463,-1.89521 1.075666,-1.28512 1.741162,-2.78709 2.005174,-4.52557 0.03906,-0.25725 0.0768,-0.46813 0.08385,-0.46862 0.01832,-10e-4 0.367255,1.04514 0.44885,1.34624 0.03777,0.13935 0.09715,0.43134 0.131982,0.64886 0.305917,1.91088 -0.04625,3.82631 -1.009843,5.49243 -0.261339,0.45188 -0.530512,0.82908 -0.933346,1.3079 -0.188589,0.22418 -0.358131,0.44268 -0.376738,0.48557 -0.0461,0.10614 -0.04524,0.30449 0.0019,0.4178 0.02864,0.069 0.158881,0.21845 0.497458,0.57094 0.252252,0.26262 0.458722,0.4831 0.458823,0.48995 3.14e-4,0.007 -0.897089,0.0232 -1.993752,0.0363 z"
       id="path2106"
       inkscape:connector-curvature="0" />
  </g>
</svg>
