<?xml version="1.0" encoding="UTF-8" standalone="no"?>
<svg
   xmlns:dc="http://purl.org/dc/elements/1.1/"
   xmlns:cc="http://creativecommons.org/ns#"
   xmlns:rdf="http://www.w3.org/1999/02/22-rdf-syntax-ns#"
   xmlns:svg="http://www.w3.org/2000/svg"
   xmlns="http://www.w3.org/2000/svg"
   xmlns:sodipodi="http://sodipodi.sourceforge.net/DTD/sodipodi-0.dtd"
   xmlns:inkscape="http://www.inkscape.org/namespaces/inkscape"
   width="64"
   height="64"
   viewBox="0 0 16.933333 16.933333"
   version="1.1"
   id="svg8"
   sodipodi:docname="seren_changing_clothes_64x64.svg"
   inkscape:version="1.0.2-2 (e86c870879, 2021-01-15)">
  <defs
     id="defs2" />
  <sodipodi:namedview
     id="base"
     pagecolor="#ffffff"
     bordercolor="#666666"
     borderopacity="1.0"
     inkscape:pageopacity="0.0"
     inkscape:pageshadow="2"
     inkscape:zoom="8"
     inkscape:cx="33.939701"
     inkscape:cy="30.604374"
     inkscape:document-units="mm"
     inkscape:current-layer="layer1"
     inkscape:document-rotation="0"
     showgrid="false"
     inkscape:snap-global="false"
     fit-margin-top="0"
     fit-margin-left="0"
     fit-margin-right="0"
     fit-margin-bottom="0"
     inkscape:window-width="1540"
     inkscape:window-height="967"
     inkscape:window-x="1806"
     inkscape:window-y="64"
     inkscape:window-maximized="0"
     units="px" />
  <metadata
     id="metadata5">
    <rdf:RDF>
      <cc:Work
         rdf:about="">
        <dc:format>image/svg+xml</dc:format>
        <dc:type
           rdf:resource="http://purl.org/dc/dcmitype/StillImage" />
        <dc:title></dc:title>
      </cc:Work>
    </rdf:RDF>
  </metadata>
  <g
     inkscape:label="Calque 1"
     inkscape:groupmode="layer"
     id="layer1"
     transform="translate(-44.581036,-28.552681)">
    <text
       xml:space="preserve"
       style="font-style:normal;font-weight:normal;font-size:10.5833px;line-height:1.25;font-family:sans-serif;fill:#000000;fill-opacity:1;stroke:none;stroke-width:0.264583"
       x="51.724785"
       y="39.66518"
       id="text1411"><tspan
         sodipodi:role="line"
         id="tspan1409"
         x="51.724785"
         y="39.66518"
         style="stroke-width:0.264583"></tspan></text>
    <path
       style="fill:#000000;stroke-width:0.0298725"
       d="m 54.964789,44.374599 -0.07333,-0.07333 v -1.599537 -1.599548 h -0.524138 c -0.516647,0 -0.525163,-10e-4 -0.597445,-0.07333 l -0.07333,-0.07333 v -0.809272 -0.809275 l 0.07333,-0.07333 0.07333,-0.07333 h 1.282569 c 1.476464,0 1.396332,-0.01501 1.441374,0.269886 0.04533,0.286712 0.205203,0.432119 0.475133,0.432119 0.269931,0 0.429816,-0.145407 0.475134,-0.432119 0.04501,-0.284891 -0.03508,-0.269886 1.441374,-0.269886 h 1.282579 l 0.07333,0.07333 0.07333,0.07333 v 0.809275 0.809272 l -0.07333,0.07333 c -0.07227,0.07227 -0.08083,0.07333 -0.597445,0.07333 h -0.524139 v 1.599548 1.599537 l -0.07333,0.07333 -0.07333,0.07333 H 57.04228 55.038106 Z m 3.750369,-2.004175 v -1.599537 l 0.07333,-0.07333 c 0.07227,-0.07227 0.08083,-0.07333 0.597457,-0.07333 h 0.524127 V 40.146263 39.668302 H 58.9414 57.972738 l -0.07206,0.156832 c -0.101856,0.221542 -0.20011,0.326038 -0.416175,0.442548 -0.172331,0.09293 -0.209693,0.101452 -0.442156,0.100912 -0.207464,-4.86e-4 -0.27851,-0.01341 -0.388344,-0.07063 -0.235337,-0.12261 -0.351891,-0.235554 -0.451148,-0.437178 l -0.09478,-0.192488 h -0.96676 -0.96676 v 0.477962 0.477967 h 0.524128 c 0.516647,0 0.525174,0.001 0.597456,0.07333 l 0.07333,0.07333 v 1.599537 1.599538 h 1.672866 1.672866 z m -3.033421,-0.863582 c -0.04628,-0.04617 -0.07333,-0.107456 -0.07333,-0.165665 0,-0.05822 0.02705,-0.119438 0.07333,-0.165654 l 0.07333,-0.07333 h 0.809273 0.809283 l 0.07333,0.07333 c 0.04617,0.04617 0.07333,0.107456 0.07333,0.165654 0,0.05822 -0.02716,0.119438 -0.07333,0.165665 l -0.07333,0.07333 H 56.56434 55.755067 Z m 2.15082,0 c -0.04617,-0.04617 -0.07333,-0.107456 -0.07333,-0.165665 0,-0.05822 0.02716,-0.119438 0.07333,-0.165654 0.06403,-0.06403 0.100057,-0.07333 0.285145,-0.07333 0.185075,0 0.221084,0.0095 0.285156,0.07333 0.04617,0.04617 0.07333,0.107456 0.07333,0.165654 0,0.05822 -0.02705,0.119438 -0.07333,0.165665 -0.06403,0.06403 -0.100057,0.07333 -0.285156,0.07333 -0.185064,0 -0.221084,-0.0095 -0.285145,-0.07333 z m -5.496553,2.389803 c -0.107657,-0.107658 -0.09329,-0.211152 0.06107,-0.441364 0.07396,-0.110204 0.134421,-0.207528 0.134421,-0.216255 0,-0.0085 -0.04533,-0.01585 -0.1008,-0.01585 -0.18219,0 -0.833628,-0.123485 -1.183712,-0.224391 -0.668094,-0.192544 -1.330332,-0.518813 -1.94305,-0.957282 -0.301908,-0.216054 -0.891938,-0.778008 -1.140538,-1.086272 -1.170685,-1.451664 -1.634398,-3.315074 -1.275492,-5.12552 0.04714,-0.237828 0.07459,-0.312429 0.13467,-0.365939 0.09487,-0.08452 0.190299,-0.08541 0.295383,-0.0027 0.0762,0.05994 0.08086,0.0762 0.06634,0.231513 -0.0086,0.09187 -0.03766,0.288027 -0.0646,0.435896 -0.06876,0.377467 -0.09111,1.04098 -0.04872,1.44586 0.253869,2.424587 1.914591,4.381424 4.248491,5.006014 0.293809,0.07861 0.862526,0.175691 0.936404,0.159811 0.03561,-0.0074 0.01912,-0.04997 -0.07364,-0.189079 -0.06794,-0.101962 -0.11947,-0.215251 -0.119534,-0.262745 -1.26e-4,-0.15829 0.184631,-0.272023 0.343164,-0.211183 0.02716,0.01057 0.172258,0.201979 0.32238,0.425683 0.214575,0.319707 0.272963,0.429076 0.272963,0.51127 0,0.0822 -0.05843,0.191561 -0.272963,0.511268 -0.150122,0.223704 -0.295194,0.415255 -0.32238,0.425685 -0.09816,0.03772 -0.198018,0.01754 -0.26993,-0.05431 z m 6.296369,-5.114627 c -0.02092,-0.0085 -0.05779,-0.05368 -0.0821,-0.100596 -0.0391,-0.07568 -0.03877,-0.108277 0.0032,-0.288558 0.19508,-0.831439 0.208225,-1.719244 0.0373,-2.518363 -0.19768,-0.924049 -0.635398,-1.822925 -1.236479,-2.539168 -0.881047,-1.049831 -2.196973,-1.779609 -3.557317,-1.972786 -0.356275,-0.05059 -0.361674,-0.04653 -0.220385,0.165494 0.138964,0.208548 0.150734,0.315145 0.04628,0.419575 -0.07988,0.07988 -0.153472,0.09121 -0.264319,0.0407 -0.06203,-0.02825 -0.487972,-0.62828 -0.587778,-0.827965 -0.06392,-0.127783 -0.0085,-0.225395 0.295374,-0.524328 0.246738,-0.242416 0.308126,-0.287946 0.388237,-0.287946 0.123803,0 0.241814,0.114843 0.241814,0.23533 0,0.05078 -0.03159,0.126245 -0.07396,0.176562 l -0.07396,0.08788 0.335324,0.05138 c 1.391895,0.21329 2.576303,0.824296 3.547448,1.830038 1.019251,1.055559 1.593442,2.308741 1.735364,3.787491 0.07259,0.756325 -0.07058,2.021011 -0.251122,2.218038 -0.05885,0.06425 -0.187653,0.0857 -0.283307,0.04722 z m -11.792922,-3.966637 -0.07333,-0.07333 v -1.599539 -1.599541 h -0.524128 c -0.516652,0 -0.525174,-0.001 -0.597451,-0.07333 l -0.07333,-0.07333 v -0.809272 -0.809275 l 0.07333,-0.07333 0.07333,-0.07333 h 1.282569 c 1.476471,0 1.39634,-0.01501 1.441375,0.269886 0.04533,0.286713 0.205205,0.43212 0.475136,0.43212 0.269932,0 0.429815,-0.145407 0.475138,-0.43212 0.04503,-0.28489 -0.0351,-0.269886 1.441374,-0.269886 h 1.282566 l 0.07333,0.07333 0.07333,0.07333 v 0.809275 0.809275 l -0.07333,0.07333 c -0.07227,0.07227 -0.08083,0.07333 -0.597457,0.07333 h -0.524127 v 1.599541 1.599539 l -0.07333,0.07333 -0.07333,0.07333 H 48.91694 46.912763 Z m 3.750365,-2.004179 v -1.59954 l 0.07333,-0.07333 c 0.07228,-0.07227 0.0808,-0.07333 0.597449,-0.07333 h 0.524128 V 30.58704 30.109079 h -0.968667 -0.968669 l -0.0721,0.156831 c -0.101845,0.221543 -0.200111,0.326038 -0.416176,0.442548 -0.172337,0.09293 -0.20969,0.101452 -0.442156,0.100912 -0.20746,-4.85e-4 -0.27851,-0.01341 -0.388343,-0.07062 -0.235335,-0.122611 -0.351888,-0.235555 -0.451147,-0.437179 l -0.09475,-0.192486 h -0.966759 -0.966757 v 0.47796 0.477962 h 0.524129 c 0.51665,0 0.525173,10e-4 0.597451,0.07333 l 0.07333,0.07333 v 1.599539 1.599541 h 1.672864 1.672864 z m -3.033423,-0.863589 c -0.04622,-0.04622 -0.07333,-0.107453 -0.07333,-0.165656 0,-0.0582 0.0271,-0.119437 0.07333,-0.165657 l 0.07333,-0.07333 h 0.809275 0.809275 l 0.07333,0.07333 c 0.04621,0.04622 0.07333,0.107454 0.07333,0.165657 0,0.05821 -0.0271,0.119436 -0.07333,0.165656 l -0.07333,0.07333 h -0.809279 -0.809276 z m 2.150824,0 c -0.04622,-0.04622 -0.07333,-0.107453 -0.07333,-0.165656 0,-0.0582 0.0271,-0.119437 0.07333,-0.165657 0.06406,-0.06406 0.100087,-0.07333 0.285149,-0.07333 0.185068,0 0.221083,0.0093 0.285146,0.07333 0.04622,0.04622 0.07333,0.107454 0.07333,0.165657 0,0.05821 -0.0271,0.119436 -0.07333,0.165656 -0.06406,0.06406 -0.100077,0.07333 -0.285146,0.07333 -0.18507,0 -0.221086,-0.0093 -0.285149,-0.07333 z"
       id="path1677" />
    <path
       style="fill:#ffffff;stroke-width:2.12598;stroke-linecap:round;stroke-miterlimit:4;stroke-dasharray:none"
       d="m 10.127201,15.998748 c 0,-5.981953 -0.0027,-6.0455374 -0.2627412,-6.2812502 -0.2307081,-0.2090917 -0.5050264,-0.2429822 -2.25,-0.277975 L 5.6272012,9.3996713 V 7.6582728 5.9168743 h 3.6060157 3.6060161 l 0.237734,0.53125 c 0.333347,0.7449102 0.989595,1.4338103 1.71697,1.802399 0.5537,0.2805811 0.741937,0.3096571 1.757932,0.2715396 1.089464,-0.040874 1.169392,-0.063943 1.880247,-0.5426886 0.57763,-0.3890202 0.836763,-0.6734062 1.167476,-1.28125 l 0.425059,-0.78125 h 3.551275 3.551275 v 1.7413985 1.7413985 l -1.987259,0.039852 c -1.744973,0.034993 -2.019291,0.068883 -2.25,0.277975 -0.260081,0.2357128 -0.262741,0.2992967 -0.262741,6.2812497 v 6.043126 h -6.25 -6.25 z m 7.865928,-3.161231 c 0.328696,-0.41787 0.328696,-0.798416 0,-1.216285 l -0.259073,-0.329358 h -3.169355 -3.169355 l -0.268842,0.341778 c -0.302387,0.384422 -0.268108,0.917134 0.08405,1.30627 0.188115,0.207865 0.471076,0.226952 3.364443,0.226952 h 3.159054 z m 3.577253,0.02254 c 0.37625,-0.376249 0.391245,-0.802137 0.0438,-1.243848 -0.249206,-0.316814 -0.312555,-0.332475 -1.205801,-0.298107 -0.854992,0.0329 -0.965867,0.06727 -1.190757,0.369142 -0.286918,0.385132 -0.226379,0.843671 0.162762,1.232811 0.195483,0.195482 0.417,0.24682 1.065001,0.24682 0.702022,0 0.861743,-0.04356 1.125,-0.306818 z"
       id="path1679"
       transform="matrix(0.26458333,0,0,0.26458333,44.581036,28.552681)" />
    <path
       style="fill:#ffffff;stroke-width:2.12598;stroke-linecap:round;stroke-miterlimit:4;stroke-dasharray:none"
       d="m 40.877201,52.188664 v -5.978211 l -0.322198,-0.303039 c -0.307728,-0.289429 -0.408783,-0.304838 -2.25,-0.343089 l -1.927802,-0.04005 v -1.741201 -1.741201 h 3.551275 3.551275 l 0.426291,0.78125 c 0.322137,0.590371 0.602529,0.903413 1.147616,1.28125 0.696155,0.482553 0.761723,0.50149 1.879017,0.542689 1.036971,0.03824 1.222353,0.0099 1.777791,-0.27154 0.727374,-0.368588 1.383623,-1.057488 1.716969,-1.802399 l 0.237735,-0.53125 h 3.606015 3.606016 v 1.741399 1.741398 l -1.987259,0.03985 c -1.744973,0.03499 -2.019291,0.06888 -2.25,0.277975 -0.260081,0.235713 -0.262741,0.299297 -0.262741,6.28125 v 6.043126 h -6.25 -6.25 z m 7.879568,-3.30304 c 0.273215,-0.442395 0.239757,-0.877227 -0.09618,-1.25 -0.177765,-0.197256 -0.504558,-0.21875 -3.325955,-0.21875 -3.040395,0 -3.136996,0.0077 -3.418126,0.27179 -0.359934,0.33814 -0.371836,0.839577 -0.03023,1.273853 l 0.259072,0.329357 h 3.180265 3.180265 z m 3.302332,0.328603 c 0.305166,-0.117104 0.58534,-0.747641 0.493969,-1.11169 -0.125058,-0.498269 -0.51161,-0.685663 -1.414376,-0.685663 -0.657432,0 -0.861757,0.05062 -1.097187,0.27179 -0.383517,0.360295 -0.37619,0.90269 0.01751,1.296392 0.25716,0.25716 0.427469,0.306818 1.052276,0.306818 0.410001,0 0.836514,-0.03494 0.947805,-0.07765 z"
       id="path1681"
       transform="matrix(0.26458333,0,0,0.26458333,44.581036,28.552681)" />
  </g>
</svg>
