<svg xmlns="http://www.w3.org/2000/svg" xmlns:xlink="http://www.w3.org/1999/xlink" xmlns:svgjs="http://svgjs.com/svgjs" width="288" height="288" version="1.1" style=""><rect id="backgroundrect" width="100%" height="100%" x="0" y="0" fill="none" stroke="none"/><defs id="SvgjsDefs1002"/><g class="currentLayer" style=""><title>Layer 1</title><g id="SvgjsG1008"><svg xmlns="http://www.w3.org/2000/svg" width="288" height="288" fill="currentColor" class="bi bi-chat-text" viewBox="0 0 16 16" id="svg_6"><path fill-rule="evenodd" d="M2.678 11.894a1 1 0 0 1 .287.801 10.97 10.97 0 0 1-.398 2c1.395-.323 2.247-.697 2.634-.893a1 1 0 0 1 .71-.074A8.06 8.06 0 0 0 8 14c3.996 0 7-2.807 7-6 0-3.192-3.004-6-7-6S1 4.808 1 8c0 1.468.617 2.83 1.678 3.894zm-.493 3.905a21.682 21.682 0 0 1-.713.129c-.2.032-.352-.176-.273-.362a9.68 9.68 0 0 0 .244-.637l.003-.01c.248-.72.45-1.548.524-2.319C.743 11.37 0 9.76 0 8c0-3.866 3.582-7 8-7s8 3.134 8 7-3.582 7-8 7a9.06 9.06 0 0 1-2.347-.306c-.52.263-1.639.742-3.468 1.105z" fill="#0dcaf0" class="color000 svgShape" id="svg_9"/><path fill-rule="evenodd" d="M4 5.5a.5.5 0 0 1 .5-.5h7a.5.5 0 0 1 0 1h-7a.5.5 0 0 1-.5-.5zM4 8a.5.5 0 0 1 .5-.5h7a.5.5 0 0 1 0 1h-7A.5.5 0 0 1 4 8zm0 2.5a.5.5 0 0 1 .5-.5h4a.5.5 0 0 1 0 1h-4a.5.5 0 0 1-.5-.5z" fill="#0dcaf0" class="color000 svgShape" id="svg_7"/></svg></g><path fill="#0dcaf0" fill-opacity="1" stroke="#0dcaf0" stroke-opacity="1" stroke-width="2" stroke-dasharray="none" stroke-linejoin="round" stroke-linecap="butt" stroke-dashoffset="" fill-rule="nonzero" opacity="1" marker-start="" marker-mid="" marker-end="" id="svg_4" d="M 11.796613055262753 105.7039520102458 C 11.796613055262753 105.7039520102458 66.59887353281653 44.122030442685386 66.10169491525424 44.06779661016949 C 66.59887353281653 44.122030442685386 150.21469364289857 24.348018930165992 149.71751412429379 24.293785310734464 C 150.21469364289857 24.348018930165992 230.44068320797726 50.90169153269203 229.94350282485877 50.847457627118644 C 230.44068320797726 50.90169153269203 279.5932261105255 123.21807649276299 279.0960451977401 123.1638418079096 C 279.5932261105255 123.21807649276299 272.8135650205188 192.14463090783062 272.316384180791 192.090395480226 C 272.8135650205188 192.14463090783062 219.70621981546674 244.6870043553822 219.2090395480226 244.63276836158192 C 219.70621981546674 244.6870043553822 142.87006079539134 261.07118532289826 142.3728813559322 261.0169491525424 C 142.87006079539134 261.07118532289826 96.54237668034591 255.42146774789268 96.045197740113 255.36723163841808 C 96.54237668034591 255.42146774789268 33.26553984028379 278.5853098054154 32.70056808278326 278.5853098054154 C 32.135596325282734 278.5853098054154 51.90960783780213 225.4779646003633 51.41242937853107 225.4237288135593 C 51.90960783780213 225.4779646003633 14.621471842765516 188.75480036282727 14.124293785310734 188.70056497175142 C 14.621471842765516 188.75480036282727 5.581923722756642 128.30282231026797 5.084745762711864 128.24858757062148 C 5.581923722756642 128.30282231026797 7.276838995258346 114.17852837275412 6.779661016949152 114.12429378531073" style="color: rgb(13, 202, 240);"/><path fill="#0dcaf0" fill-opacity="1" stroke="#000000" stroke-opacity="1" stroke-width="13" stroke-dasharray="none" stroke-linejoin="round" stroke-linecap="butt" stroke-dashoffset="" fill-rule="nonzero" opacity="1" marker-start="" marker-mid="" marker-end="" d="M6.252362705578745,145.71751177338322 C6.252362705578745,70.80725305553591 67.80742147178303,10.129943494079571 143.80132118314634,10.129943494079571 C219.79522089450964,10.129943494079571 281.35027966071397,70.80725305553591 281.35027966071397,145.71751177338322 C281.35027966071397,220.62777049123056 219.79522089450964,281.3050800526869 143.80132118314634,281.3050800526869 C67.80742147178303,281.3050800526869 6.252362705578745,220.62777049123056 6.252362705578745,145.71751177338322 z" id="svg_8" class=""/><path fill="#0dcaf0" fill-opacity="1" stroke="#000000" stroke-opacity="1" stroke-width="2" stroke-dasharray="none" stroke-linejoin="round" stroke-linecap="butt" stroke-dashoffset="" fill-rule="nonzero" opacity="1" marker-start="" marker-mid="" marker-end="" id="svg_10" d="M33.83051159778438,233.95254096287164 " style="color: rgb(13, 202, 240);"/><path fill="#0dcaf0" fill-opacity="1" stroke="#000000" stroke-opacity="1" stroke-width="2" stroke-dasharray="none" stroke-linejoin="round" stroke-linecap="butt" stroke-dashoffset="" fill-rule="nonzero" opacity="1" marker-start="" marker-mid="" marker-end="" id="svg_12" d="M33.952532500852676,234.51750641354946 " style="color: rgb(13, 202, 240);"/><path fill="#0dcaf0" fill-opacity="1" stroke="#000000" stroke-opacity="1" stroke-width="13" stroke-dasharray="none" stroke-linejoin="round" stroke-linecap="butt" stroke-dashoffset="" fill-rule="nonzero" opacity="1" marker-start="" marker-mid="" marker-end="" id="svg_14" d="M37.13423059733494,232.11638290533588 L34.84209058987721,242.0389906583445 L32.20501308536991,252.97057664991843 L29.567935580862606,263.35559446754024 L25.876030808652487,273.1940247622942 L24.293780571848,277.56665722403216 L25.348617174801074,280.84613398895016 L29.040521947011197,282.48587720863804 L33.7872633221744,281.3927118373601 L42.753323103399126,279.7529782921301 L56.46611492453679,276.47350152721214 L68.59666584412022,273.1940247622942 L75.45306175468906,271.0077036941962 L83.89170790206238,267.72822692927826 C84.07419337411447,268.1906369938914 87.7660981463246,268.73721484230146 87.7660981463246,268.73721484230146 " style="color: rgb(13, 202, 240);" class=""/><path fill="#0dcaf0" fill-opacity="1" stroke="#000000" stroke-opacity="1" stroke-width="6" stroke-dasharray="none" stroke-linejoin="round" stroke-linecap="butt" stroke-dashoffset="" fill-rule="nonzero" opacity="1" marker-start="" marker-mid="" marker-end="" d="M79.94123987576367,268.6418068809488L79.94123987576367,269.20677863844935" id="svg_22"/><path fill="#0dcaf0" fill-opacity="1" stroke="#0dcaf0" stroke-opacity="1" stroke-width="13" stroke-dasharray="none" stroke-linejoin="round" stroke-linecap="butt" stroke-dashoffset="" fill-rule="nonzero" opacity="1" marker-start="" marker-mid="" marker-end="" d="M51.90960283530319,232.17201831058873 C51.90960283530319,218.26137438102546 61.217638055997966,206.99375279807916 72.70903956302851,206.99375279807916 C84.20044107005906,206.99375279807916 93.50847629075383,218.26137438102546 93.50847629075383,232.17201831058873 C93.50847629075383,246.08266224015216 84.20044107005906,257.3502838230984 72.70903956302851,257.3502838230984 C61.217638055997966,257.3502838230984 51.90960283530319,246.08266224015216 51.90960283530319,232.17201831058873 z" id="svg_5" class=""/><path fill="#0dcaf0" fill-opacity="1" stroke="#0dcaf0" stroke-opacity="1" stroke-width="13" stroke-dasharray="none" stroke-linejoin="round" stroke-linecap="butt" stroke-dashoffset="" fill-rule="nonzero" opacity="1" marker-start="" marker-mid="" marker-end="" d="M49.12994349002838,236.82485884428024 C49.12994349002838,230.7475107779819 52.71005398726595,225.82485884428024 57.12994349002838,225.82485884428024 C61.54983299279081,225.82485884428024 65.12994349002838,230.7475107779819 65.12994349002838,236.82485884428024 C65.12994349002838,242.9022069105786 61.54983299279081,247.82485884428024 57.12994349002838,247.82485884428024 C52.71005398726595,247.82485884428024 49.12994349002838,242.9022069105786 49.12994349002838,236.82485884428024 z" id="svg_13" class=""/></g></svg>