<?xml version="1.0" encoding="UTF-8" standalone="no"?>
<svg
   xmlns:dc="http://purl.org/dc/elements/1.1/"
   xmlns:cc="http://creativecommons.org/ns#"
   xmlns:rdf="http://www.w3.org/1999/02/22-rdf-syntax-ns#"
   xmlns:svg="http://www.w3.org/2000/svg"
   xmlns="http://www.w3.org/2000/svg"
   xmlns:sodipodi="http://sodipodi.sourceforge.net/DTD/sodipodi-0.dtd"
   xmlns:inkscape="http://www.inkscape.org/namespaces/inkscape"
   width="64"
   height="64"
   viewBox="0 0 16.933333 16.933333"
   version="1.1"
   id="svg8"
   sodipodi:docname="seren_chit_chat_64x64.svg"
   inkscape:version="1.0.2 (1.0.2+r75+1)">
  <defs
     id="defs2" />
  <sodipodi:namedview
     id="base"
     pagecolor="#ffffff"
     bordercolor="#666666"
     borderopacity="1.0"
     inkscape:pageopacity="0.0"
     inkscape:pageshadow="2"
     inkscape:zoom="5.6568542"
     inkscape:cx="-18.225269"
     inkscape:cy="57.289982"
     inkscape:document-units="mm"
     inkscape:current-layer="layer1"
     inkscape:document-rotation="0"
     showgrid="false"
     inkscape:snap-global="false"
     fit-margin-top="0"
     fit-margin-left="0"
     fit-margin-right="0"
     fit-margin-bottom="0"
     inkscape:window-width="1366"
     inkscape:window-height="704"
     inkscape:window-x="0"
     inkscape:window-y="0"
     inkscape:window-maximized="0"
     units="px" />
  <metadata
     id="metadata5">
    <rdf:RDF>
      <cc:Work
         rdf:about="">
        <dc:format>image/svg+xml</dc:format>
        <dc:type
           rdf:resource="http://purl.org/dc/dcmitype/StillImage" />
        <dc:title />
      </cc:Work>
    </rdf:RDF>
  </metadata>
  <g
     inkscape:label="Calque 1"
     inkscape:groupmode="layer"
     id="layer1"
     transform="translate(-44.581036,-28.552681)">
    <text
       xml:space="preserve"
       style="font-style:normal;font-weight:normal;font-size:10.5833px;line-height:1.25;font-family:sans-serif;fill:#000000;fill-opacity:1;stroke:none;stroke-width:0.264583"
       x="51.724785"
       y="39.66518"
       id="text1411"><tspan
         sodipodi:role="line"
         id="tspan1409"
         x="51.724785"
         y="39.66518"
         style="stroke-width:0.264583" /></text>
    <text
       xml:space="preserve"
       style="font-size:4.75019px;line-height:1.25;font-family:sans-serif;fill:#ffffff;stroke-width:0.178132"
       x="49.30521"
       y="43.237057"
       id="text1415"><tspan
         sodipodi:role="line"
         id="tspan1413"
         x="49.30521"
         y="43.237057"
         style="fill:#ffffff;stroke-width:0.178132">H2</tspan></text>
    <path
       style="fill:#000000;stroke-width:0.0325281"
       d="m 56.463929,42.238348 c -0.06036,-0.04068 -0.144673,-0.124845 -0.187355,-0.187036 -0.07452,-0.108585 -0.0768,-0.128572 -0.05725,-0.503411 0.01119,-0.214686 0.02893,-0.449002 0.0394,-0.520703 l 0.01905,-0.130367 -1.56767,-0.125203 c -0.862219,-0.06886 -1.616444,-0.13867 -1.676058,-0.15513 -0.176741,-0.0488 -0.413707,-0.228989 -0.512679,-0.389841 -0.07245,-0.117741 -0.110763,-0.254926 -0.177166,-0.634298 -0.04661,-0.266235 -0.08673,-0.487299 -0.08919,-0.491251 -0.0057,-0.0092 -0.781946,0.05347 -0.913547,0.07376 l -0.09943,0.01533 0.05704,0.528287 c 0.07875,0.729331 0.07682,0.861169 -0.01514,1.035488 -0.139094,0.263667 -0.498544,0.371808 -0.771356,0.232065 -0.06193,-0.03172 -0.591687,-0.441575 -1.177245,-0.910786 l -1.06465,-0.853111 h -0.986956 c -1.167634,0 -1.20145,-0.0066 -1.48912,-0.289956 -0.1335,-0.131503 -0.198688,-0.226634 -0.235959,-0.344342 -0.0728,-0.229908 -0.811941,-6.434739 -0.78822,-6.61683 0.04953,-0.380225 0.365299,-0.653195 0.75561,-0.653195 0.183414,0 10.756085,1.535477 10.970831,1.593302 0.296747,0.07991 0.566147,0.406253 0.603504,0.731078 0.01328,0.115437 -0.01864,0.380796 -0.107751,0.8959 -0.06964,0.402534 -0.123679,0.735668 -0.120089,0.740297 0.0036,0.0047 0.868801,-0.11673 1.922689,-0.269688 1.197067,-0.173738 1.958887,-0.270593 2.030011,-0.258086 0.293359,0.05159 0.533683,0.305731 0.570496,0.603311 0.01085,0.08767 -0.09623,1.086824 -0.274446,2.560999 -0.321387,2.658452 -0.309994,2.601409 -0.562928,2.817913 -0.224734,0.192364 -0.338036,0.213284 -1.155124,0.213284 h -0.727322 l -0.821165,0.661184 c -0.451642,0.363652 -0.85728,0.670843 -0.901419,0.682646 -0.170584,0.04562 -0.377505,0.02379 -0.489403,-0.05161 z M 57.7676,40.456154 c 0.241521,-0.190634 0.49036,-0.373983 0.552977,-0.407439 0.09941,-0.05311 0.207721,-0.06234 0.853862,-0.07272 0.407009,-0.0066 0.739867,-0.02147 0.739688,-0.03319 -1.96e-4,-0.01171 0.111537,-0.954962 0.248259,-2.096096 0.13672,-1.141134 0.241546,-2.081826 0.232944,-2.090429 -0.0128,-0.0128 -3.665006,0.504388 -3.69366,0.523055 -0.0048,0.0031 -0.07496,0.392104 -0.155877,0.864359 -0.08091,0.472257 -0.160922,0.910669 -0.177804,0.97425 -0.07257,0.273318 -0.404263,0.599484 -0.689954,0.67847 -0.07623,0.02108 -0.654862,0.07941 -1.28584,0.129636 -0.630976,0.05022 -1.152639,0.09714 -1.15925,0.104253 -0.0067,0.0071 0.01233,0.159313 0.04209,0.338217 l 0.05411,0.325281 0.633482,0.05316 c 0.348414,0.02923 1.123842,0.09238 1.723173,0.140327 0.981777,0.07854 1.105968,0.09495 1.254056,0.165667 0.232217,0.110899 0.324556,0.278482 0.317575,0.576367 -0.0038,0.160595 0.0051,0.213634 0.03294,0.196671 0.02095,-0.01277 0.235704,-0.179201 0.477224,-0.369835 z m -7.487231,-1.258015 c -0.04762,-0.476275 -0.02123,-0.597736 0.166806,-0.767611 0.165368,-0.1494 0.252887,-0.169674 0.989535,-0.229238 0.33762,-0.0273 0.621801,-0.05758 0.631513,-0.0673 0.0097,-0.0097 -0.03702,-0.34374 -0.103851,-0.742283 -0.138282,-0.824644 -0.133238,-0.916062 0.06488,-1.175523 0.186805,-0.244651 0.217807,-0.252457 2.078944,-0.523428 0.930303,-0.135447 1.70678,-0.251446 1.725504,-0.257775 0.04666,-0.01577 0.31457,-1.588031 0.274783,-1.612621 -0.01705,-0.01053 -0.598507,-0.102146 -1.29213,-0.20358 -0.693623,-0.101433 -3.016247,-0.441264 -5.161386,-0.75518 -2.145138,-0.313916 -3.903332,-0.566913 -3.907097,-0.562216 -0.0038,0.0048 0.151736,1.325926 0.345558,2.936066 0.193821,1.610139 0.352854,2.953142 0.353405,2.984451 8.9e-4,0.05298 0.07253,0.05698 1.033768,0.05763 0.931051,6.28e-4 1.045694,0.0066 1.164029,0.06034 0.0722,0.03279 0.473339,0.332716 0.891431,0.666492 0.418092,0.333777 0.765413,0.60162 0.771827,0.595207 0.0065,-0.0065 -0.0059,-0.187961 -0.02752,-0.403444 z m 4.039255,-1.230879 c 0.59933,-0.04653 1.099641,-0.09427 1.111801,-0.106082 0.02485,-0.02414 0.266985,-1.402318 0.249387,-1.419467 -0.0171,-0.01667 -2.789859,0.392476 -2.812369,0.414986 -0.01851,0.01851 0.02237,0.295024 0.139108,0.940761 0.05019,0.277684 0.05279,0.282768 0.136774,0.268722 0.04709,-0.0079 0.57597,-0.05239 1.175299,-0.09892 z"
       id="path1453" />
    <path
       style="fill:#ffffff;stroke:none;stroke-width:0.176777"
       d="M 18.986226,39.575546 C 17.673659,38.544489 16.246081,37.474681 15.81383,37.198197 l -0.785911,-0.5027 h -3.844045 c -2.4158457,0 -3.8853429,-0.06682 -3.9552001,-0.179853 C 7.1224,36.343688 4.4788772,14.374367 4.5552682,14.297976 c 0.039797,-0.0398 35.1558278,5.071895 37.5003168,5.458762 l 1.414213,0.233361 -0.048,0.53033 c -0.09496,1.049263 -0.7945,5.004929 -0.921415,5.210283 -0.07621,0.123311 -2.710957,0.598527 -6.38674,1.151946 -3.441356,0.518124 -6.597024,1.078089 -7.012594,1.244368 -0.909215,0.363796 -1.629547,1.445508 -1.629547,2.447069 0,0.359392 0.166207,1.730781 0.36935,3.047534 0.203141,1.316752 0.335894,2.427551 0.295002,2.468441 -0.04089,0.04089 -1.190429,0.18609 -2.554531,0.322664 -3.739349,0.374386 -3.991832,0.571494 -4.120229,3.216577 l -0.08839,1.820887 z"
       id="path12"
       transform="matrix(0.26458333,0,0,0.26458333,44.581036,28.552681)" />
    <path
       style="fill:#ffffff;stroke-width:0.176777"
       d="m 47.941253,45.275161 c -0.163112,-1.96692 -0.520619,-2.082837 -8.415651,-2.728649 -3.433261,-0.28084 -6.27956,-0.547885 -6.325109,-0.593434 -0.116153,-0.116153 -0.433187,-2.127024 -0.348671,-2.21154 0.03813,-0.03813 2.084795,-0.254864 4.548153,-0.481639 2.463358,-0.226775 4.682191,-0.490965 4.93074,-0.587088 0.632671,-0.244677 1.49661,-1.003502 1.917073,-1.683825 0.23345,-0.377731 0.574583,-1.786042 0.992792,-4.098578 0.350423,-1.937711 0.664328,-3.550305 0.697565,-3.583542 0.05177,-0.05177 10.394709,-1.552444 12.884271,-1.869398 l 0.856928,-0.109098 -0.119722,1.103835 c -0.06585,0.60711 -0.471352,4.108619 -0.901122,7.781132 -0.429771,3.672513 -0.781401,6.705778 -0.781401,6.740588 0,0.03481 -1.252905,0.09691 -2.784233,0.13799 -1.864697,0.05003 -2.93019,0.153156 -3.226175,0.312257 -0.349003,0.1876 -2.227222,1.572053 -3.645956,2.687469 -0.140434,0.11041 -0.222498,-0.129333 -0.279482,-0.81648 z"
       id="path14"
       transform="matrix(0.26458333,0,0,0.26458333,44.581036,28.552681)" />
    <path
       style="fill:#ffffff;stroke-width:0.176777"
       d="M 31.813323,34.088041 C 31.650453,33.140076 31.478977,32.1609 31.432265,31.912096 l -0.08493,-0.452372 2.43731,-0.378755 c 5.266898,-0.818469 7.835595,-1.155316 7.948573,-1.042338 0.140473,0.140473 -0.627156,4.734278 -0.827078,4.949576 -0.132058,0.142214 -6.815166,0.814729 -8.154651,0.820595 l -0.642038,0.0028 z"
       id="path16"
       transform="matrix(0.26458333,0,0,0.26458333,44.581036,28.552681)" />
  </g>
</svg>
