<?xml version="1.0" encoding="UTF-8" standalone="no"?>
<!-- Created with Inkscape (http://www.inkscape.org/) -->

<svg
   xmlns:dc="http://purl.org/dc/elements/1.1/"
   xmlns:cc="http://creativecommons.org/ns#"
   xmlns:rdf="http://www.w3.org/1999/02/22-rdf-syntax-ns#"
   xmlns:svg="http://www.w3.org/2000/svg"
   xmlns="http://www.w3.org/2000/svg"
   xmlns:sodipodi="http://sodipodi.sourceforge.net/DTD/sodipodi-0.dtd"
   xmlns:inkscape="http://www.inkscape.org/namespaces/inkscape"
   width="64"
   height="64"
   viewBox="0 0 16.933333 16.933334"
   version="1.1"
   id="svg8"
   inkscape:version="0.92.5 (2060ec1f9f, 2020-04-08)"
   sodipodi:docname="cleaning_dust_64x64.svg">
  <defs
     id="defs2" />
  <sodipodi:namedview
     id="base"
     pagecolor="#ffffff"
     bordercolor="#666666"
     borderopacity="1.0"
     inkscape:pageopacity="0.0"
     inkscape:pageshadow="2"
     inkscape:zoom="3.959798"
     inkscape:cx="73.129229"
     inkscape:cy="42.303005"
     inkscape:document-units="mm"
     inkscape:current-layer="layer1"
     showgrid="false"
     units="px"
     inkscape:window-width="1208"
     inkscape:window-height="987"
     inkscape:window-x="1992"
     inkscape:window-y="0"
     inkscape:window-maximized="1" />
  <metadata
     id="metadata5">
    <rdf:RDF>
      <cc:Work
         rdf:about="">
        <dc:format>image/svg+xml</dc:format>
        <dc:type
           rdf:resource="http://purl.org/dc/dcmitype/StillImage" />
        <dc:title></dc:title>
      </cc:Work>
    </rdf:RDF>
  </metadata>
  <g
     inkscape:label="Layer 1"
     inkscape:groupmode="layer"
     id="layer1"
     transform="translate(0,-280.06665)">
    <path
       style="fill:#000000;stroke-width:0.03059013"
       d="m 9.9069574,296.38102 c -1.8386185,-0.23086 -3.4207084,-1.53376 -3.972771,-3.27169 -0.1155752,-0.36385 -0.1934884,-0.74502 -0.2003037,-0.97994 -0.00455,-0.15653 0.00498,-0.19068 0.071229,-0.25455 0.076082,-0.0733 3.2794224,-1.93061 3.4269462,-1.98686 0.057427,-0.0219 0.1676098,-0.18672 0.4282616,-0.64062 0.193015,-0.33613 0.3837645,-0.63711 0.4238895,-0.66885 0.111448,-0.0882 0.258602,-0.072 0.481927,0.0529 0.108757,0.0608 0.202322,0.10551 0.207921,0.0995 0.0056,-0.007 0.260034,-0.44479 0.565412,-0.97475 0.305376,-0.52998 0.589927,-0.99457 0.632336,-1.03243 0.112845,-0.10075 0.269052,-0.0923 0.381949,0.0206 0.167613,0.16761 0.152403,0.20946 -0.464968,1.27919 -0.304912,0.52833 -0.556134,0.98074 -0.55827,1.00535 -0.0024,0.0274 0.180081,0.15056 0.470262,0.31749 0.364051,0.20942 0.482193,0.26422 0.508796,0.23603 0.04335,-0.0459 3.223612,-5.55815 3.222087,-5.58471 -0.0014,-0.0238 -0.930435,-0.55473 -0.970792,-0.55473 -0.01591,0 -0.227041,0.34548 -0.469163,0.76776 -0.242123,0.42226 -0.47054,0.80082 -0.507592,0.84122 -0.09814,0.10704 -0.307291,0.10346 -0.417902,-0.008 -0.149047,-0.14904 -0.123387,-0.23254 0.295699,-0.96202 0.60945,-1.06084 0.629707,-1.09292 0.746253,-1.18182 0.09585,-0.0731 0.139831,-0.085 0.312756,-0.085 0.200421,0 0.203595,10e-4 0.802174,0.34459 0.330527,0.18952 0.642211,0.38677 0.692634,0.43835 0.124349,0.12718 0.180517,0.33307 0.136004,0.49853 -0.0186,0.0691 -0.771154,1.40242 -1.67235,2.96287 -0.901196,1.56047 -1.638538,2.84813 -1.638538,2.86147 0,0.0133 0.09113,0.0776 0.2025,0.14274 0.215836,0.12625 0.309001,0.26219 0.269748,0.39359 -0.01094,0.0366 -0.171163,0.33117 -0.356051,0.65456 l -0.33616,0.58799 0.0043,2.01865 c 0.0049,2.28276 0.0188,2.14852 -0.236247,2.27716 -0.212753,0.10735 -0.777526,0.28261 -1.092894,0.33923 -0.334386,0.06 -1.079161,0.0845 -1.3890865,0.0455 z m 0.5146906,-1.5663 c 0.05593,-0.54259 0.11372,-1.00955 0.128417,-1.03769 0.04366,-0.0835 0.182924,-0.17826 0.262181,-0.17826 0.116424,0 0.242276,0.0805 0.284232,0.18178 0.0324,0.0782 0.02278,0.24025 -0.06101,1.02716 -0.05472,0.51386 -0.09211,0.94167 -0.08307,0.9507 0.02741,0.0274 0.542021,-0.0795 0.802501,-0.16667 l 0.244721,-0.0819 0.0079,-1.71464 0.0079,-1.71465 -1.321836,-0.76274 c -0.7270097,-0.4195 -1.3435273,-0.76273 -1.3700375,-0.76273 -0.026509,0 -0.705576,0.37765 -1.5090332,0.83922 l -1.4608315,0.83921 0.020258,0.13967 c 0.020464,0.14112 0.1327612,0.5555 0.1941601,0.7165 l 0.033323,0.0874 0.098941,-0.0746 c 0.4557208,-0.34364 1.3457113,-0.97649 1.4049262,-0.999 0.2490428,-0.0947 0.4989132,0.22751 0.3458796,0.44599 -0.025231,0.0361 -0.390021,0.31551 -0.8106386,0.62109 -0.4206165,0.30556 -0.7647574,0.56254 -0.7647574,0.57104 0,0.009 0.072269,0.12094 0.1605985,0.24985 0.1864208,0.27207 0.5862135,0.69861 0.8463973,0.90302 l 0.1809716,0.14218 0.060537,-0.0994 c 0.033291,-0.0547 0.2901313,-0.49867 0.5707478,-0.98658 0.2806165,-0.48791 0.5370887,-0.91465 0.5699364,-0.94829 0.042467,-0.0436 0.100024,-0.0612 0.1991781,-0.0612 0.1148689,0 0.1524703,0.0152 0.2132809,0.0858 0.1467828,0.17064 0.1282123,0.21896 -0.5060686,1.31663 l -0.5798955,1.00355 0.229467,0.10454 c 0.3884545,0.17703 0.9895248,0.32454 1.4058688,0.34502 l 0.09317,0.004 z m 1.921507,-3.85435 c 0.137119,-0.23975 0.239807,-0.44506 0.228196,-0.45623 -0.01161,-0.0111 -0.454727,-0.27097 -0.984701,-0.57733 -0.529974,-0.30635 -1.019294,-0.58939 -1.087376,-0.62898 l -0.123787,-0.0719 -0.25722,0.44764 -0.2572202,0.44765 0.072832,0.0487 c 0.1576522,0.1054 2.0982782,1.22145 2.1281512,1.22386 0.01751,0.001 0.144008,-0.19359 0.281128,-0.43335 z m -10.7648023,4.75792 c -0.2658788,-0.16494 -0.1403142,-0.55943 0.1780672,-0.55943 0.048024,0 0.1181395,0.0401 0.1821016,0.104 0.1411245,0.14113 0.1411245,0.26267 0,0.40379 -0.1174159,0.11741 -0.2284703,0.13334 -0.3601688,0.0517 z m 12.0977793,-0.32735 c -0.07127,-0.0613 -0.08583,-0.098 -0.08583,-0.21678 0,-0.18285 0.107759,-0.2906 0.290607,-0.2906 0.182849,0 0.290606,0.10779 0.290606,0.2906 0,0.18285 -0.107759,0.2906 -0.290606,0.2906 -0.08164,0 -0.145871,-0.0232 -0.204778,-0.0738 z M 3.0700104,294.71088 c -0.9137295,-0.19589 -1.610679,-1.01375 -1.6210237,-1.90224 -0.00282,-0.24289 0.00105,-0.25828 0.082864,-0.32885 0.1140326,-0.0984 0.2930943,-0.10042 0.4044987,-0.004 0.067578,0.0582 0.085085,0.10682 0.1071523,0.29825 0.048262,0.41853 0.1590873,0.6705 0.407181,0.92577 0.256937,0.26437 0.5352503,0.39445 0.9556318,0.44664 0.2825025,0.0351 0.3798528,0.1114 0.3798528,0.29783 0,0.29071 -0.2212715,0.37326 -0.7161547,0.26716 z m 1.5209293,0.0194 c -0.097836,-0.0394 -0.1747522,-0.17459 -0.1711739,-0.30084 0.00238,-0.0833 0.027246,-0.13171 0.1020715,-0.19856 0.08515,-0.0761 0.1164635,-0.086 0.2245649,-0.0716 0.1592345,0.0213 0.263373,0.13379 0.263373,0.28436 0,0.13939 -0.042033,0.21424 -0.1523381,0.27128 -0.099558,0.0515 -0.1670703,0.0554 -0.266493,0.0153 z m 9.0634403,-1.51475 c -0.125439,-0.0654 -0.169048,-0.1344 -0.170168,-0.26918 -0.0014,-0.17126 0.116712,-0.27957 0.332845,-0.30517 0.308447,-0.0365 0.507819,-0.23981 0.551595,-0.5624 0.01807,-0.13319 0.04268,-0.18988 0.106091,-0.24443 0.114486,-0.0985 0.3005,-0.0972 0.400491,0.003 0.102007,0.10205 0.12046,0.2034 0.07732,0.42474 -0.09594,0.49215 -0.458054,0.86302 -0.943137,0.96595 -0.210291,0.0446 -0.248366,0.0433 -0.355033,-0.0123 z m -9.8793385,-1.04339 c -0.061696,-0.0617 -0.080643,-0.11103 -0.080643,-0.20996 0,-0.18006 0.1105475,-0.29062 0.2906059,-0.29062 0.267623,0 0.394375,0.30131 0.2084081,0.49542 -0.1134768,0.11844 -0.3027435,0.12078 -0.4183675,0.005 z M 3.3336792,290.8898 c -0.2249343,-0.0606 -0.4507461,-0.15914 -0.6487585,-0.28328 -0.2105303,-0.13198 -0.5447761,-0.47298 -0.6405177,-0.65346 -0.070297,-0.13251 -0.078617,-0.13773 -0.2725283,-0.17095 -0.7016197,-0.12018 -1.26059277,-0.78504 -1.25840228,-1.49679 0.001192,-0.37364 0.17454856,-0.78771 0.44491021,-1.06243 0.30055517,-0.3054 0.64230617,-0.44574 1.08539317,-0.44574 H 2.309231 l 0.065466,-0.19941 c 0.1167994,-0.35579 0.3296047,-0.62831 0.6598096,-0.84496 0.2528951,-0.16591 0.5135522,-0.24042 0.8411041,-0.24042 0.4482934,0 0.7641366,0.12653 1.0925919,0.43771 l 0.2020077,0.19139 0.2180368,-0.0755 c 0.3137631,-0.10871 0.7952748,-0.11077 1.1189082,-0.004 1.0368209,0.33954 1.5519267,1.50441 1.1032541,2.49494 -0.2869215,0.63343 -0.9369974,1.06104 -1.6243539,1.06847 l -0.2014412,0.002 -0.079571,0.16933 c -0.2440346,0.51935 -0.7527606,0.93601 -1.3422923,1.09939 -0.2682676,0.0743 -0.7797106,0.0815 -1.0290708,0.0143 z m 0.9419276,-0.62648 c 0.240205,-0.0695 0.4251633,-0.1834 0.6202734,-0.38197 0.1409415,-0.14344 0.3584907,-0.52117 0.3587258,-0.62287 1.842e-4,-0.0857 0.1189227,-0.2485 0.2051505,-0.28129 0.058034,-0.0221 0.1461317,-0.0208 0.2939198,0.004 0.6565315,0.11074 1.2807655,-0.34374 1.3981738,-1.01794 0.1748714,-1.00418 -0.9783947,-1.76187 -1.8436235,-1.21123 -0.1519026,0.0966 -0.3034867,0.11842 -0.413798,0.0594 -0.033865,-0.0181 -0.102949,-0.10552 -0.1535189,-0.19426 -0.1927886,-0.33819 -0.4416538,-0.49215 -0.8218306,-0.50844 -0.2193659,-0.01 -0.2719465,-5.7e-4 -0.4358319,0.0729 -0.361225,0.16211 -0.5496012,0.45618 -0.581541,0.90785 -0.015654,0.22138 -0.030853,0.27995 -0.087317,0.33641 -0.083178,0.0832 -0.2682285,0.0895 -0.4506616,0.0154 -0.071294,-0.0289 -0.2117231,-0.0502 -0.3364914,-0.0508 -0.2796025,-0.001 -0.4704747,0.0855 -0.6661146,0.30308 -0.3402528,0.37844 -0.3030155,0.93811 0.08515,1.27979 0.1722541,0.15163 0.3633169,0.2203 0.6128775,0.2203 0.2385973,0 0.306233,0.0496 0.4409398,0.32321 0.257989,0.52404 0.8683109,0.87048 1.4390295,0.81682 0.075714,-0.008 0.2271324,-0.0388 0.3364915,-0.0705 z m 8.3917542,-4.14258 c -0.195173,-0.0849 -0.234061,-0.33886 -0.07382,-0.48203 0.131783,-0.11776 0.282186,-0.11617 0.402601,0.004 0.156739,0.15675 0.102884,0.41853 -0.100707,0.48951 -0.114663,0.04 -0.108539,0.0403 -0.228081,-0.0117 z m -5.3716694,-0.61416 c -0.6336634,-0.12604 -1.2315845,-0.67799 -1.3960299,-1.2887 l -0.033767,-0.12539 -0.2838264,-0.0125 c -0.2497502,-0.0109 -0.3123754,-0.026 -0.521622,-0.12534 -0.5585008,-0.26523 -0.8807096,-0.81526 -0.8374836,-1.42963 0.074566,-1.05988 1.2451792,-1.68396 2.1808765,-1.1627 l 0.155171,0.0865 0.1504586,-0.15557 c 0.2022634,-0.20916 0.4700326,-0.37731 0.7309455,-0.459 0.2851827,-0.0893 0.7775981,-0.0942 1.0260396,-0.0108 0.4665443,0.15758 0.8549479,0.47865 1.0428572,0.86212 0.1014865,0.20709 0.1104305,0.21578 0.3343118,0.32444 0.5175921,0.25122 0.8253211,0.74054 0.8253211,1.31233 0,0.68559 -0.439493,1.24248 -1.1205495,1.41987 -0.097402,0.0254 -0.2189359,0.0462 -0.2700811,0.0462 -0.073937,10e-6 -0.1402568,0.0456 -0.323654,0.22262 -0.2725705,0.26304 -0.5704358,0.42255 -0.9228252,0.49419 -0.2788094,0.0567 -0.4549234,0.0569 -0.7361444,9.2e-4 z m 0.9105543,-0.69942 c 0.2138984,-0.10573 0.3109866,-0.19306 0.5601908,-0.50399 l 0.1011398,-0.12618 h 0.2418462 c 0.3123808,0 0.5229729,-0.0764 0.6947102,-0.25208 0.1769384,-0.18098 0.2515761,-0.35998 0.2520341,-0.60445 7.4e-4,-0.39263 -0.2407403,-0.70633 -0.6361585,-0.82644 -0.2513785,-0.0764 -0.2904098,-0.11313 -0.3721461,-0.35069 -0.2726117,-0.79238 -1.24857,-1.0342 -1.8611702,-0.46118 -0.082431,0.0771 -0.1937658,0.22253 -0.2474059,0.32317 -0.1077915,0.20224 -0.1716593,0.25061 -0.3309134,0.25061 -0.088768,0 -0.1364142,-0.0289 -0.2792536,-0.16978 -0.2229594,-0.21979 -0.387901,-0.29435 -0.6463709,-0.2922 -0.3590735,0.003 -0.6085626,0.15296 -0.7605811,0.45717 -0.1585207,0.31723 -0.1223168,0.63914 0.1054732,0.93778 0.1644562,0.21561 0.5211355,0.34159 0.8000642,0.28257 0.3516126,-0.0744 0.3898282,-0.0728 0.4917957,0.0213 0.082712,0.0764 0.099049,0.11881 0.1272795,0.33075 0.058381,0.43829 0.2778475,0.76802 0.6394712,0.96075 0.2412536,0.1286 0.3725306,0.15725 0.6578206,0.14357 0.2010544,-0.01 0.2779905,-0.0298 0.4621731,-0.12077 z"
       id="path7555"
       inkscape:connector-curvature="0" />
    <path
       style="fill:none;stroke:#000000;stroke-width:0.00346849;stroke-linecap:butt;stroke-linejoin:miter;stroke-miterlimit:4;stroke-dasharray:none;stroke-opacity:1"
       d="m 13.358692,284.69267 -1.267305,2.3161"
       id="path7557"
       inkscape:connector-curvature="0" />
    <path
       style="fill:#ffffff;stroke-width:0.00330333;stroke-miterlimit:4;stroke-dasharray:none"
       d="m 11.13994,290.84517 c -0.492029,-0.28365 -0.97518,-0.56259 -1.073669,-0.61988 l -0.1790704,-0.1041 0.2397404,-0.41802 c 0.131856,-0.2299 0.245175,-0.42452 0.251818,-0.43249 0.0096,-0.0115 2.100808,1.19186 2.15314,1.23906 0.02971,0.0268 -0.428775,0.84891 -0.474254,0.85042 -0.01271,4.2e-4 -0.425676,-0.23131 -0.917705,-0.51496 z"
       id="path7559"
       inkscape:connector-curvature="0" />
    <path
       style="fill:#ffffff;stroke-width:0.00330333;stroke-miterlimit:4;stroke-dasharray:none"
       d="m 9.6553893,295.68942 c -0.3975859,-0.0846 -1.0051042,-0.30382 -1.0051042,-0.36267 0,-0.0196 0.1996721,-0.38383 0.4437164,-0.8093 0.4415941,-0.7699 0.6923886,-1.25728 0.6924536,-1.34569 1.95e-5,-0.0256 -0.040062,-0.0894 -0.089071,-0.14202 -0.088952,-0.0955 -0.3175169,-0.12955 -0.4173286,-0.0622 -0.045348,0.0307 -0.4771393,0.745 -0.9768791,1.61624 -0.1275233,0.22233 -0.2479161,0.40423 -0.2675396,0.40423 -0.019619,0 -0.2104393,-0.17208 -0.4240333,-0.38238 -0.39262,-0.38658 -0.7349343,-0.8364 -0.675909,-0.88818 0.017669,-0.0155 0.3713942,-0.27842 0.7860502,-0.58425 0.7868628,-0.58037 0.8586866,-0.66357 0.7599268,-0.88032 -0.026737,-0.0587 -0.099807,-0.13 -0.162387,-0.15851 -0.150269,-0.0685 -0.2935287,0.01 -1.0954758,0.59543 l -0.6180201,0.45163 -0.091693,-0.31124 c -0.050429,-0.17118 -0.1037073,-0.37282 -0.1183832,-0.44808 l -0.026693,-0.13683 1.3045057,-0.74269 c 0.7174786,-0.40848 1.3855854,-0.78359 1.4846821,-0.83355 l 0.1801765,-0.0909 0.8030783,0.45295 c 0.441692,0.24912 1.039059,0.59048 1.32748,0.75858 l 0.524403,0.30564 -0.002,0.17902 c -0.0011,0.0985 -0.006,0.86443 -0.01092,1.70216 l -0.009,1.52315 -0.316826,0.0927 c -0.174255,0.051 -0.403077,0.10595 -0.508494,0.12215 l -0.191668,0.0295 0.02562,-0.19226 c 0.01408,-0.10573 0.05891,-0.54197 0.0996,-0.96938 l 0.07398,-0.77713 -0.10127,-0.10779 c -0.120023,-0.12776 -0.298468,-0.14027 -0.43411,-0.0304 -0.08585,0.0696 -0.106242,0.17262 -0.200904,1.01602 -0.05795,0.51626 -0.105614,0.97308 -0.105939,1.01514 -7.61e-4,0.0989 -0.160543,0.0967 -0.6560912,-0.009 z"
       id="path7561"
       inkscape:connector-curvature="0" />
    <path
       style="fill:#ffffff;stroke-width:0.00330333;stroke-miterlimit:4;stroke-dasharray:none"
       d="m 3.3461484,290.22478 c -0.3946848,-0.15415 -0.6478962,-0.37776 -0.8315881,-0.7344 -0.1275016,-0.24754 -0.2233245,-0.3144 -0.4520797,-0.31546 -0.4206295,-0.002 -0.7874272,-0.29181 -0.8852488,-0.69957 -0.086385,-0.36009 0.085767,-0.7416 0.428163,-0.94888 0.1844849,-0.1117 0.500509,-0.13048 0.808641,-0.0481 0.1039131,0.0277 0.2411182,0.0375 0.3049004,0.0215 0.1247868,-0.0313 0.1793066,-0.16435 0.2286588,-0.55791 0.062216,-0.49619 0.5236749,-0.8654 1.0101472,-0.80822 0.3713064,0.0437 0.5081334,0.13757 0.8188546,0.5622 0.1484976,0.20293 0.2848035,0.21327 0.6048717,0.0459 0.6013898,-0.31446 1.328249,-0.0807 1.6391489,0.52709 0.2910826,0.56907 0.025166,1.29891 -0.5771925,1.58416 -0.1796576,0.085 -0.2891575,0.10357 -0.6159542,0.10389 -0.4619532,5e-4 -0.4566362,-0.003 -0.6690797,0.45928 -0.1919436,0.41781 -0.4836556,0.69019 -0.8654942,0.80812 -0.352151,0.10878 -0.6689876,0.10892 -0.9467484,4.4e-4 z"
       id="path7563"
       inkscape:connector-curvature="0" />
    <path
       style="fill:#ffffff;stroke-width:0.00330333;stroke-miterlimit:4;stroke-dasharray:none"
       d="m 7.1936862,284.80961 c -0.4193003,-0.21377 -0.6379003,-0.51049 -0.7245019,-0.98343 -0.072821,-0.39767 -0.1200591,-0.42987 -0.5780181,-0.39405 -0.3414368,0.0268 -0.4022074,0.0196 -0.583738,-0.0682 -0.4799668,-0.23234 -0.602132,-0.85569 -0.2497697,-1.27445 0.1461533,-0.17369 0.3430543,-0.25515 0.6167645,-0.25515 0.2810227,0 0.3830336,0.0416 0.6335908,0.25848 0.3084375,0.26694 0.412016,0.25029 0.669539,-0.10769 0.3339749,-0.46425 0.6913129,-0.63834 1.1743402,-0.57214 0.3687271,0.0505 0.6723979,0.29105 0.8412882,0.66631 0.1504639,0.33431 0.1533369,0.33731 0.4222892,0.44149 0.1399242,0.0542 0.302178,0.14315 0.3605652,0.19768 0.4259314,0.39776 0.3060514,1.10722 -0.2280889,1.34986 -0.1098325,0.0499 -0.2798777,0.0806 -0.4497354,0.0811 -0.1502191,5.3e-4 -0.2731252,0.0167 -0.2731252,0.0359 0,0.0822 -0.4938606,0.54347 -0.6650281,0.62117 -0.2560692,0.11622 -0.7415339,0.11782 -0.9663718,0.003 z"
       id="path7565"
       inkscape:connector-curvature="0" />
    <path
       style="fill:#ffffff;stroke-width:0.00247749;stroke-miterlimit:4;stroke-dasharray:none"
       d="m 11.989453,289.43825 c -0.269622,-0.14827 -0.462416,-0.26612 -0.581029,-0.35514 l -0.07166,-0.0538 0.09176,-0.16773 c 0.05047,-0.0923 0.247401,-0.44036 0.43763,-0.77358 0.44446,-0.77855 0.566958,-1.01885 0.580457,-1.13861 0.0099,-0.0876 0.0035,-0.10432 -0.07226,-0.18815 l -0.08309,-0.092 0.07428,-0.13484 c 0.213893,-0.38823 0.233371,-0.41858 0.263351,-0.41024 0.01709,0.004 0.06642,0.0186 0.109605,0.0309 0.0661,0.0187 0.0947,0.0144 0.18086,-0.0273 0.132845,-0.0643 0.174839,-0.14322 0.161545,-0.30352 -0.0087,-0.10432 -0.0205,-0.12984 -0.08981,-0.19337 -0.04391,-0.0402 -0.07984,-0.079 -0.07984,-0.086 0,-0.01 0.231096,-0.43491 0.251234,-0.46211 0.0024,-0.003 0.04228,0.01 0.08877,0.0296 0.09466,0.0395 0.223317,0.0314 0.300197,-0.019 0.04508,-0.0296 0.145688,-0.19243 0.731772,-1.18478 0.306166,-0.5184 0.246554,-0.47455 0.476738,-0.35075 0.280789,0.15099 0.751452,0.42931 0.751452,0.44436 0,0.0224 -0.821647,1.45688 -2.180426,3.80663 -0.898007,1.55292 -1.027894,1.76986 -1.059659,1.76982 -0.01458,-1e-5 -0.141427,-0.0633 -0.281886,-0.14049 z"
       id="path7567"
       inkscape:connector-curvature="0" />
  </g>
</svg>
