<?xml version="1.0" encoding="UTF-8" standalone="no"?>
<svg
   xmlns:dc="http://purl.org/dc/elements/1.1/"
   xmlns:cc="http://creativecommons.org/ns#"
   xmlns:rdf="http://www.w3.org/1999/02/22-rdf-syntax-ns#"
   xmlns:svg="http://www.w3.org/2000/svg"
   xmlns="http://www.w3.org/2000/svg"
   xmlns:sodipodi="http://sodipodi.sourceforge.net/DTD/sodipodi-0.dtd"
   xmlns:inkscape="http://www.inkscape.org/namespaces/inkscape"
   width="64"
   height="64"
   viewBox="0 0 16.933333 16.933333"
   version="1.1"
   id="svg8"
   sodipodi:docname="seren_cleaning_64x64.svg"
   inkscape:version="1.0.2-2 (e86c870879, 2021-01-15)">
  <defs
     id="defs2" />
  <sodipodi:namedview
     id="base"
     pagecolor="#ffffff"
     bordercolor="#666666"
     borderopacity="1.0"
     inkscape:pageopacity="0.0"
     inkscape:pageshadow="2"
     inkscape:zoom="4"
     inkscape:cx="116.05753"
     inkscape:cy="43.23657"
     inkscape:document-units="mm"
     inkscape:current-layer="layer1"
     inkscape:document-rotation="0"
     showgrid="false"
     inkscape:snap-global="false"
     fit-margin-top="0"
     fit-margin-left="0"
     fit-margin-right="0"
     fit-margin-bottom="0"
     inkscape:window-width="1540"
     inkscape:window-height="967"
     inkscape:window-x="1806"
     inkscape:window-y="64"
     inkscape:window-maximized="0"
     units="px" />
  <metadata
     id="metadata5">
    <rdf:RDF>
      <cc:Work
         rdf:about="">
        <dc:format>image/svg+xml</dc:format>
        <dc:type
           rdf:resource="http://purl.org/dc/dcmitype/StillImage" />
        <dc:title></dc:title>
      </cc:Work>
    </rdf:RDF>
  </metadata>
  <g
     inkscape:label="Calque 1"
     inkscape:groupmode="layer"
     id="layer1"
     transform="translate(-44.581036,-28.552681)">
    <text
       xml:space="preserve"
       style="font-style:normal;font-weight:normal;font-size:10.5833px;line-height:1.25;font-family:sans-serif;fill:#000000;fill-opacity:1;stroke:none;stroke-width:0.264583"
       x="51.724785"
       y="39.66518"
       id="text1411"><tspan
         sodipodi:role="line"
         id="tspan1409"
         x="51.724785"
         y="39.66518"
         style="stroke-width:0.264583"></tspan></text>
    <path
       style="fill:#ffffff;stroke-width:2.12598;stroke-linecap:round;stroke-miterlimit:4;stroke-dasharray:none"
       d=""
       id="path1772"
       transform="matrix(0.26458333,0,0,0.26458333,44.581036,28.552681)" />
    <path
       style="fill:#000000;stroke-width:0.0313526"
       d="m 45.609683,45.065269 c -0.218482,-0.06903 -0.408939,-0.230447 -0.52144,-0.44192 -0.05555,-0.104468 -0.05881,-0.252577 -0.06686,-3.086103 -0.0093,-3.273151 -0.01651,-3.138805 0.181094,-3.37853 0.0516,-0.06257 0.167104,-0.150295 0.256732,-0.194961 l 0.162971,-0.08121 h 0.857042 c 0.921411,0 0.963364,0.0061 1.180224,0.171503 0.05818,0.04436 0.139265,0.143843 0.180233,0.221073 0.07224,0.13617 0.079,0.140418 0.223476,0.140418 h 0.148975 v -1.881155 -1.881155 h -0.225245 c -0.414189,0 -0.637949,-0.189246 -0.635862,-0.537795 6.94e-4,-0.132594 0.01845,-0.205124 0.06533,-0.268687 0.09287,-0.125867 5.241267,-4.575167 5.379852,-4.649326 0.142123,-0.07605 0.350341,-0.07866 0.48369,-0.006 0.0541,0.02945 0.562019,0.454408 1.128693,0.944342 l 1.030319,0.890788 0.01568,-0.54591 c 0.0181,-0.631158 0.05049,-0.724011 0.293254,-0.841535 0.124457,-0.06025 0.189443,-0.06493 0.901395,-0.06493 0.733882,0 0.773282,0.0031 0.905328,0.07054 0.162623,0.08309 0.244907,0.18594 0.284148,0.355143 0.01567,0.06764 0.02982,0.800199 0.03149,1.627907 l 0.0028,1.504924 0.374129,0.322642 c 0.205777,0.177452 0.398321,0.359547 0.427873,0.404654 0.03433,0.05239 0.0541,0.146164 0.05472,0.25957 0.002,0.344221 -0.223836,0.533734 -0.635938,0.533734 h -0.225244 v 2.806055 c 0,1.54333 0.01,2.806055 0.02219,2.806055 0.01221,0 0.468466,-0.14814 1.013889,-0.329201 1.067092,-0.354237 1.170021,-0.373812 1.464885,-0.278581 0.239684,0.07741 0.439608,0.247025 0.568567,0.482372 0.101466,0.185182 0.11171,0.226696 0.112203,0.454612 5.89e-4,0.296494 -0.09017,0.528973 -0.277754,0.711159 -0.102937,0.09997 -5.077525,3.15095 -5.406901,3.316123 -0.07468,0.03745 -0.242715,0.09544 -0.373408,0.128867 -0.228144,0.05835 -0.377347,0.06077 -3.739234,0.06077 h -3.501617 l -0.05971,0.06604 c -0.03287,0.03632 -0.116162,0.09628 -0.185136,0.133248 -0.118404,0.06345 -0.172709,0.06755 -0.97193,0.07328 -0.465588,0.0034 -0.881885,-0.0051 -0.925108,-0.01876 z m 1.727006,-0.596272 0.09165,-0.09164 v -2.87273 c 0,-3.050305 0.0014,-3.014287 -0.142497,-3.069607 -0.02795,-0.01071 -0.3959,-0.01948 -0.817746,-0.01948 h -0.767005 l -0.07696,0.07696 -0.07695,0.07696 v 2.903951 2.90395 l 0.09165,0.09164 0.09164,0.09165 h 0.757289 0.757282 z m 7.679808,-0.276379 c 0.186399,-0.07549 5.232583,-3.135343 5.356659,-3.248114 0.09056,-0.08231 0.160745,-0.23877 0.160044,-0.356792 -0.0014,-0.212726 -0.239088,-0.447782 -0.453069,-0.447782 -0.05167,0 -1.265267,0.391362 -2.696807,0.869694 l -2.602808,0.869693 -1.536272,0.01635 -1.53628,0.01635 -0.233789,0.085 c -0.128577,0.04675 -0.353725,0.158295 -0.500321,0.247877 -0.297062,0.18153 -0.402891,0.199732 -0.520247,0.08948 -0.100905,-0.09479 -0.104164,-0.249 -0.0076,-0.358177 0.117009,-0.132263 0.561471,-0.377124 0.890021,-0.490324 l 0.30922,-0.106541 1.074311,-0.01052 1.074312,-0.01053 0.06222,-0.121959 c 0.186937,-0.366357 -0.02424,-0.853567 -0.476189,-1.098593 l -0.198342,-0.107534 -1.050307,-0.01866 c -0.943133,-0.01675 -1.075906,-0.02558 -1.30113,-0.08654 -0.33769,-0.09139 -0.717112,-0.277287 -1.030098,-0.504689 -0.486423,-0.353406 -0.851202,-0.470322 -1.470274,-0.471237 l -0.368394,-5.45e-4 v 2.665508 2.665507 l 3.440946,-0.0084 3.440945,-0.0084 z m -0.189416,-2.897179 0.0987,-0.03441 -0.0111,-1.336527 -0.0111,-1.336527 -0.08175,-0.226761 c -0.117925,-0.327116 -0.226618,-0.496896 -0.477677,-0.746122 -0.473203,-0.46975 -1.119087,-0.648499 -1.755309,-0.485781 -0.340542,0.0871 -0.594354,0.232022 -0.85241,0.486734 -0.404819,0.399561 -0.543017,0.739256 -0.568852,1.398266 l -0.01671,0.426337 0.102189,0.02044 c 0.05618,0.01124 0.492505,0.02044 0.969557,0.02044 0.667016,0 0.908767,0.01079 1.046611,0.04669 0.544743,0.141887 0.984177,0.552346 1.134969,1.060132 0.05278,0.177686 0.0618,0.488325 0.01866,0.638934 -0.01567,0.05463 -0.01921,0.108737 -0.0078,0.120234 0.02573,0.02607 0.280119,-0.0061 0.412095,-0.05207 z m 1.615122,-0.53872 0.87787,-0.292953 v -2.897429 -2.897431 l -1.405815,-0.01567 -1.405822,-0.01568 -0.05993,-0.07402 c -0.05979,-0.07383 -0.07735,-0.204629 -0.04043,-0.30081 0.05347,-0.139325 0.09638,-0.14242 1.99337,-0.143766 l 1.796494,-0.0012 -0.09747,-0.08494 c -1.476356,-1.286631 -5.038318,-4.348897 -5.058542,-4.348897 -0.01526,0 -1.179711,0.994661 -2.587718,2.210357 l -2.560003,2.210356 0.757442,0.01567 0.757441,0.01567 0.0756,0.08797 c 0.08761,0.101926 0.09446,0.176545 0.02802,0.305042 -0.05659,0.109474 -0.100821,0.121913 -0.469714,0.132152 l -0.282179,0.0078 v 1.879308 1.879309 l 0.203793,0.03877 c 0.410486,0.0781 0.777916,0.245373 1.164355,0.53008 0.109714,0.08083 0.266498,0.18097 0.348407,0.222529 l 0.148926,0.07556 v -0.217727 c 0,-0.494842 0.126927,-0.996247 0.347275,-1.371823 0.05902,-0.10061 0.234302,-0.310316 0.389505,-0.466013 0.235829,-0.236588 0.331102,-0.307437 0.580024,-0.431336 0.417969,-0.208035 0.62401,-0.256128 1.097345,-0.256128 0.473016,0 0.678959,0.04801 1.097337,0.255819 0.249741,0.124044 0.343433,0.193752 0.580024,0.431546 0.314442,0.316038 0.455358,0.531839 0.583229,0.893185 0.132044,0.373153 0.153559,0.630878 0.153559,1.839881 0,1.045644 0.0034,1.111802 0.05486,1.095331 0.03017,-0.0096 0.449906,-0.149359 0.932736,-0.310483 z m -4.653578,-4.580466 c -0.05403,-0.05753 -0.07783,-0.133656 -0.09803,-0.313741 -0.07585,-0.676343 -0.661787,-1.209283 -1.329553,-1.209283 -0.07921,0 -0.125574,-0.02397 -0.186572,-0.09646 -0.106363,-0.126411 -0.103179,-0.231224 0.01047,-0.344884 0.07396,-0.07397 0.118688,-0.09165 0.23184,-0.09165 0.190048,0 0.509546,-0.102829 0.689162,-0.221804 0.326198,-0.216066 0.538349,-0.574664 0.584748,-0.988416 0.02344,-0.208869 0.04023,-0.257176 0.110413,-0.317553 0.106876,-0.09193 0.249456,-0.09201 0.341283,-1.88e-4 0.05354,0.05355 0.08004,0.134685 0.107611,0.329662 0.04515,0.319261 0.151229,0.549929 0.355889,0.773858 0.193272,0.211469 0.510912,0.379681 0.771195,0.4084 0.301972,0.03332 0.353219,0.04976 0.405922,0.130192 0.117154,0.178799 -0.0028,0.418831 -0.209779,0.418831 -0.04993,0 -0.16553,0.01572 -0.256912,0.03495 -0.579955,0.121982 -0.971208,0.556073 -1.071981,1.189345 -0.03204,0.201151 -0.05743,0.27321 -0.112092,0.317454 -0.101446,0.08215 -0.256822,0.07368 -0.343627,-0.01872 z m 0.309996,-1.321217 c 0.07243,-0.09593 0.21652,-0.2403 0.320199,-0.320814 l 0.188507,-0.146389 -0.07345,-0.04608 c -0.09219,-0.05783 -0.436744,-0.399033 -0.508652,-0.503687 l -0.05389,-0.07838 -0.0672,0.09406 c -0.086,0.12037 -0.358046,0.39271 -0.472912,0.473428 l -0.08859,0.06226 0.182654,0.14355 c 0.100461,0.07895 0.239087,0.222283 0.308061,0.318514 0.06901,0.09623 0.127246,0.17564 0.129486,0.176467 0.002,8.05e-4 0.06332,-0.07699 0.135763,-0.172919 z m 5.237133,-3.47815 v -1.269779 h -0.674083 -0.674077 l 3.53e-4,0.697595 3.54e-4,0.697594 0.664118,0.572185 c 0.365258,0.314702 0.668444,0.572184 0.673736,0.572184 0.0056,0 0.0096,-0.5714 0.0096,-1.269779 z m 1.142945,6.679523 c -0.05361,-0.05361 -0.07696,-0.111691 -0.07696,-0.191457 0,-0.09955 0.02968,-0.1453 0.227304,-0.35036 0.233443,-0.242229 0.384762,-0.336337 0.484211,-0.301144 0.120643,0.04269 0.197703,0.144547 0.197703,0.261306 0,0.102418 -0.02886,0.1425 -0.278135,0.386441 -0.313187,0.306474 -0.409085,0.340257 -0.554127,0.195214 z m 1.631754,0.01848 c -0.139168,-0.08619 -0.47957,-0.45381 -0.501646,-0.541762 -0.03045,-0.121221 0.03426,-0.244142 0.155071,-0.294614 0.152477,-0.06371 0.211263,-0.03193 0.511175,0.276407 0.294843,0.303109 0.317924,0.3759 0.167015,0.526806 -0.105934,0.105935 -0.199064,0.115249 -0.331615,0.03316 z m -1.160042,-1.177418 c -0.05174,-0.02284 -0.196344,-0.147648 -0.321364,-0.277348 -0.197634,-0.205031 -0.227304,-0.250764 -0.227304,-0.350317 0,-0.148429 0.113284,-0.268414 0.25343,-0.268414 0.08279,0 0.146278,0.04575 0.377653,0.272172 0.249291,0.243941 0.278135,0.284022 0.278135,0.386441 0,0.192952 -0.185164,0.314905 -0.36055,0.237466 z m 0.800435,0.0051 c -0.109873,-0.05667 -0.172181,-0.180902 -0.145015,-0.289143 0.01227,-0.04895 0.116746,-0.186918 0.232132,-0.30659 0.317778,-0.329594 0.443763,-0.374192 0.604105,-0.21385 0.15342,0.15342 0.129389,0.224286 -0.182689,0.538657 -0.286083,0.288193 -0.37904,0.337715 -0.508533,0.270926 z M 48.052975,31.896616 c -0.09078,-0.09078 -0.09164,-0.09509 -0.09164,-0.456038 0,-0.345082 0.0042,-0.36847 0.07696,-0.441348 0.05125,-0.05127 0.111446,-0.07662 0.180282,-0.07596 0.21799,0.002 0.275756,0.116911 0.275756,0.548023 0,0.326996 -0.002,0.33551 -0.09165,0.425322 -0.118917,0.118919 -0.23078,0.118919 -0.349703,0 z M 47.08346,30.900131 c -0.190859,-0.06977 -0.248861,-0.296191 -0.111156,-0.433895 0.07318,-0.07319 0.09545,-0.07696 0.454609,-0.07696 0.33423,0 0.384776,0.0071 0.439567,0.06191 0.131906,0.13191 0.1008,0.348213 -0.06194,0.430515 -0.07809,0.0395 -0.62523,0.05348 -0.721113,0.01843 z m 1.578821,-0.0076 c -0.171127,-0.07254 -0.219267,-0.298045 -0.091,-0.426313 0.07322,-0.07322 0.09536,-0.07696 0.456037,-0.07696 0.360682,0 0.38282,0.0037 0.456038,0.07696 0.09964,0.09963 0.100163,0.237423 0.0014,0.352393 -0.07331,0.0853 -0.08591,0.08819 -0.415424,0.09518 -0.186899,0.004 -0.370052,-0.0056 -0.407004,-0.02126 z m -0.532994,-0.533682 c -0.139196,-0.05757 -0.167957,-0.147755 -0.167957,-0.526658 0,-0.335114 0.0042,-0.359316 0.07696,-0.431961 0.09474,-0.09474 0.260768,-0.102483 0.366348,-0.01709 0.06908,0.05587 0.07471,0.08488 0.08437,0.434259 0.0098,0.355185 0.0069,0.378593 -0.0627,0.456271 -0.08292,0.09293 -0.198279,0.126013 -0.297013,0.08518 z"
       id="path2205" />
    <path
       style="fill:#ffffff;stroke-width:1.06648;stroke-linecap:round;stroke-miterlimit:4;stroke-dasharray:none"
       d="m 45.640221,44.425345 c -0.05631,-0.05633 -0.07524,-0.794893 -0.07524,-2.937423 0,-2.774687 0.0034,-2.865618 0.124382,-2.974745 0.109435,-0.09904 0.212039,-0.1087 0.853575,-0.08039 0.522799,0.02308 0.744666,0.05662 0.783879,0.118525 0.08948,0.141269 0.07158,5.783818 -0.01866,5.874032 -0.104018,0.104022 -1.563931,0.104022 -1.667957,0 z"
       id="path2207" />
    <path
       style="fill:#ffffff;stroke-width:1.06648;stroke-linecap:round;stroke-miterlimit:4;stroke-dasharray:none"
       d="m 48.010474,41.617694 v -2.635156 h 0.310441 c 0.526288,0 0.906985,0.118807 1.421226,0.443528 0.832671,0.525797 1.017052,0.574189 2.316136,0.607872 1.096477,0.02843 1.13961,0.03453 1.373849,0.19441 0.326962,0.223155 0.507687,0.576173 0.431459,0.842765 -0.05195,0.181694 -0.08597,0.203995 -0.368588,0.241698 -0.171238,0.02284 -0.690216,0.044 -1.153286,0.04703 l -0.841937,0.0055 -0.524671,0.253955 c -0.569095,0.275457 -0.712812,0.441885 -0.586072,0.678691 0.100176,0.187188 0.245891,0.167707 0.76147,-0.101802 l 0.449838,-0.235144 1.638175,-0.03136 1.638177,-0.03136 2.616617,-0.875429 2.616611,-0.875428 0.173769,0.129258 c 0.193813,0.144172 0.246467,0.329818 0.14652,0.516573 -0.06429,0.120127 -1.127375,0.790634 -4.07995,2.573288 l -1.410863,0.851829 -3.464457,0.01722 -3.464464,0.01721 z"
       id="path2209" />
    <path
       style="fill:#ffffff;stroke-width:1.06648;stroke-linecap:round;stroke-miterlimit:4;stroke-dasharray:none"
       d="m 54.469104,40.970062 c 0,-0.598096 -0.380337,-1.150319 -0.956276,-1.388432 -0.122841,-0.05079 -0.620874,-0.102341 -1.25408,-0.12981 l -1.050307,-0.04557 v -0.35724 c 0,-0.779295 0.372777,-1.407093 1.024986,-1.726189 0.71028,-0.347506 1.409366,-0.25666 1.981185,0.257452 0.178278,0.160285 0.396504,0.434236 0.484953,0.60878 0.153718,0.303348 0.162276,0.376561 0.194014,1.658943 0.03565,1.440478 0.0335,1.451512 -0.283385,1.453669 -0.128696,8.78e-4 -0.14109,-0.02824 -0.14109,-0.331606 z"
       id="path2211" />
    <path
       style="fill:#ffffff;stroke-width:1.06648;stroke-linecap:round;stroke-miterlimit:4;stroke-dasharray:none"
       d="m 55.462104,39.656618 c -0.02046,-1.29263 -0.02608,-1.343209 -0.189118,-1.691037 -0.222991,-0.475764 -0.683696,-0.957281 -1.147738,-1.199588 -0.356132,-0.18596 -0.41586,-0.197004 -1.067008,-0.197296 -0.618953,-2.5e-4 -0.726891,0.01709 -1.051556,0.169235 -0.450823,0.211254 -0.955582,0.720003 -1.162254,1.171434 -0.08557,0.186909 -0.186995,0.559695 -0.22539,0.828416 l -0.06981,0.488581 -0.430654,-0.277087 c -0.44218,-0.284502 -1.014471,-0.531084 -1.232587,-0.531084 -0.119478,0 -0.123057,-0.05355 -0.123057,-1.843645 v -1.843646 l 0.376592,-0.04371 c 0.335347,-0.03892 0.381003,-0.06126 0.416818,-0.203978 0.07796,-0.310619 -0.02018,-0.357533 -0.819279,-0.391679 l -0.733757,-0.03136 2.119883,-1.826337 c 2.901923,-2.500091 2.884564,-2.486005 2.990629,-2.425979 0.120199,0.06802 4.853065,4.14805 4.90015,4.224238 0.02275,0.03687 -0.601538,0.05976 -1.644335,0.06029 -0.92458,4.71e-4 -1.743616,0.01763 -1.820073,0.03812 -0.170462,0.0457 -0.236078,0.226338 -0.144432,0.397589 0.062,0.115881 0.12857,0.127778 0.714739,0.127778 0.355494,0 0.989677,0.01846 1.40929,0.04103 l 0.762928,0.04103 -0.0163,2.853569 -0.0163,2.853568 -0.813327,0.27202 c -0.447327,0.149609 -0.847,0.272019 -0.888155,0.272019 -0.055,0 -0.08042,-0.353784 -0.0959,-1.332485 z m -3.333403,-3.419223 c 0.04057,-0.02579 0.108166,-0.187614 0.150244,-0.359595 0.165987,-0.67843 0.478301,-1.005237 1.106505,-1.157853 0.386913,-0.09399 0.427076,-0.118841 0.445462,-0.275594 0.02448,-0.208724 -0.08275,-0.352693 -0.26303,-0.353167 -0.5311,-0.0014 -1.088307,-0.444614 -1.224035,-0.973646 -0.143835,-0.560605 -0.173242,-0.603702 -0.397093,-0.581895 -0.171813,0.01673 -0.209404,0.05182 -0.256122,0.239083 -0.125567,0.503321 -0.252071,0.756567 -0.481421,0.963771 -0.232104,0.209693 -0.575094,0.351938 -0.850426,0.352687 -0.166862,4.55e-4 -0.279037,0.115986 -0.279037,0.287387 0,0.178998 0.10182,0.256455 0.407579,0.310058 0.591399,0.103678 1.044454,0.541737 1.151192,1.113091 0.07999,0.428198 0.25599,0.584624 0.490182,0.435673 z"
       id="path2213" />
    <path
       style="fill:#ffffff;stroke-width:1.06648;stroke-linecap:round;stroke-miterlimit:4;stroke-dasharray:none"
       d="m 56.6382,32.01105 -0.601462,-0.512857 v -0.678541 -0.67854 h 0.627048 0.627054 v 1.191398 c 0,0.655269 -0.01151,1.191398 -0.02559,1.191398 -0.01408,0 -0.296244,-0.230787 -0.627054,-0.512858 z"
       id="path2215" />
    <path
       style="fill:#ffffff;stroke-width:1.06648;stroke-linecap:round;stroke-miterlimit:4;stroke-dasharray:none"
       d="m 51.684668,34.650391 -0.244872,-0.252101 0.266407,-0.271452 0.266414,-0.271455 0.266365,0.259163 0.266366,0.259164 -0.253923,0.266496 c -0.139661,0.146574 -0.269216,0.265549 -0.287901,0.264391 -0.01866,-0.0012 -0.144169,-0.115551 -0.278856,-0.254206 z"
       id="path2217" />
  </g>
</svg>
