<?xml version="1.0" encoding="UTF-8" standalone="no"?>
<!-- Created with Inkscape (http://www.inkscape.org/) -->

<svg
   width="64"
   height="64"
   viewBox="0 0 16.933333 16.933334"
   version="1.1"
   id="svg8"
   inkscape:version="1.2.2 (732a01da63, 2022-12-09)"
   sodipodi:docname="cleaning_bathroom.svg"
   xmlns:inkscape="http://www.inkscape.org/namespaces/inkscape"
   xmlns:sodipodi="http://sodipodi.sourceforge.net/DTD/sodipodi-0.dtd"
   xmlns="http://www.w3.org/2000/svg"
   xmlns:svg="http://www.w3.org/2000/svg"
   xmlns:rdf="http://www.w3.org/1999/02/22-rdf-syntax-ns#"
   xmlns:cc="http://creativecommons.org/ns#"
   xmlns:dc="http://purl.org/dc/elements/1.1/">
  <defs
     id="defs2" />
  <sodipodi:namedview
     id="base"
     pagecolor="#ffffff"
     bordercolor="#666666"
     borderopacity="1.0"
     inkscape:pageopacity="0.0"
     inkscape:pageshadow="2"
     inkscape:zoom="6"
     inkscape:cx="45.083333"
     inkscape:cy="35.166667"
     inkscape:document-units="mm"
     inkscape:current-layer="layer1"
     showgrid="false"
     units="px"
     inkscape:window-width="1920"
     inkscape:window-height="1009"
     inkscape:window-x="-8"
     inkscape:window-y="1072"
     inkscape:window-maximized="1"
     inkscape:showpageshadow="2"
     inkscape:pagecheckerboard="0"
     inkscape:deskcolor="#d1d1d1" />
  <metadata
     id="metadata5">
    <rdf:RDF>
      <cc:Work
         rdf:about="">
        <dc:format>image/svg+xml</dc:format>
        <dc:type
           rdf:resource="http://purl.org/dc/dcmitype/StillImage" />
        <dc:title />
      </cc:Work>
    </rdf:RDF>
  </metadata>
  <g
     inkscape:label="Layer 1"
     inkscape:groupmode="layer"
     id="layer1"
     transform="translate(0,-280.06665)">
    <path
       style="fill:#ffffff;stroke-width:0.02863424;stroke-miterlimit:4;stroke-dasharray:none"
       d=""
       id="path7728"
       inkscape:connector-curvature="0"
       transform="matrix(0.26458333,0,0,0.26458333,0,280.06665)" />
    <g
       transform="matrix(0.46227592,0,0,0.46227592,0.27632537,155.67796)"
       id="layer1-9"
       inkscape:label="Layer 1">
      <path
         inkscape:connector-curvature="0"
         id="path5367"
         d="M 2.8876246,296.1243 C 2.4740943,296.046 1.9969334,295.68282 1.8156218,295.30833 1.652729,294.97189 1.6493104,294.93564 1.6489272,293.54099 l -3.498e-4,-1.28963 0.072057,-0.0838 c 0.059832,-0.0696 0.095726,-0.0838 0.2115817,-0.0838 0.1158561,0 0.1517491,0.0142 0.2115819,0.0838 l 0.072056,0.0838 v 1.15283 c 0,0.70059 0.012818,1.22643 0.032671,1.34045 0.041981,0.24106 0.1797841,0.47073 0.3673277,0.61221 0.2833619,0.21375 0.2069,0.20781 2.5569322,0.19859 l 2.1037723,-0.009 0.1492831,-0.0686 c 0.187837,-0.0864 0.3846051,-0.27548 0.4876842,-0.46881 l 0.07959,-0.14929 0.00829,-1.96233 c 0.00917,-2.17091 0.00904,-2.17269 -0.1808178,-2.55843 -0.1126842,-0.22893 -0.390092,-0.53812 -0.6086974,-0.67843 -0.08483,-0.0544 -0.2594914,-0.14067 -0.3881365,-0.19163 -0.6182651,-0.24489 -1.0540149,-0.63223 -1.3220245,-1.17516 -0.1892123,-0.38332 -0.2400404,-0.65391 -0.2402868,-1.27921 l -2.15e-4,-0.5303 -1.141574,0.008 -1.1415739,0.008 -0.1408596,0.418 c -0.2541296,0.75411 -0.4526343,1.6687 -0.5442073,2.50738 -0.040672,0.37252 -0.045905,0.39077 -0.1348533,0.47024 -0.1026243,0.0917 -0.2024335,0.10415 -0.3255222,0.0404 -0.1535457,-0.0794 -0.1702127,-0.15456 -0.12835,-0.57868 0.084567,-0.85679 0.3241996,-1.93119 0.6073455,-2.72304 l 0.1548024,-0.43291 0.010458,-0.50453 0.010458,-0.50451 -0.2165683,0.0202 c -0.3834666,0.0357 -0.5334402,0.0869 -1.0777879,0.36869 -0.1118957,0.058 -0.24185758,0.0246 -0.3348223,-0.0859 -0.0706697,-0.084 -0.075448,-0.11043 -0.075448,-0.41754 0,-0.41555 0.0429223,-0.69223 0.15587475,-1.00474 0.28534925,-0.78949 1.00714555,-1.39453 1.84452165,-1.54613 0.1769543,-0.032 0.760835,-0.0408 2.7835298,-0.0415 2.2654155,-6.1e-4 2.5731643,0.004 2.6775744,0.0462 l 0.1179699,0.0472 0.4805823,-0.22634 c 0.2658406,-0.1252 0.5207114,-0.22635 0.5703888,-0.22635 0.2097246,0 0.3375843,0.20264 0.254033,0.40262 -0.042277,0.10122 -0.082647,0.12685 -0.5538191,0.35214 l -0.5082087,0.24299 v 0.40541 0.40538 l 0.8245178,0.38703 c 0.8493628,0.3987 0.9668818,0.47524 0.9668818,0.62966 0,0.0974 -0.07573,0.24051 -0.147629,0.27898 -0.03159,0.0169 -0.09535,0.0307 -0.141675,0.0307 -0.04633,0 -0.4536353,-0.17529 -0.9051271,-0.38954 l -0.8208946,-0.38956 -0.1452475,0.0462 c -0.1068152,0.0339 -0.2758861,0.0462 -0.6389706,0.0462 H 7.103295 l 0.017091,0.51502 c 0.014603,0.44023 0.028211,0.55003 0.093701,0.75602 0.077909,0.24505 0.2064524,0.46427 0.4200606,0.7164 0.1600147,0.18887 0.1657045,0.33539 0.01815,0.46723 -0.094747,0.0846 -0.1106397,0.0888 -0.2729374,0.0704 -0.5135338,-0.0581 -1.0230323,-0.29989 -1.4090361,-0.66868 l -0.1119626,-0.10697 v 0.59142 c 0,0.44277 0.011895,0.63752 0.047331,0.77487 0.074208,0.28762 0.2423539,0.57816 0.4624859,0.7991 0.1984376,0.19917 0.2512091,0.23001 0.9173689,0.53622 0.5762134,0.26486 1.0485088,0.83047 1.2372758,1.48175 0.067122,0.23155 0.067428,0.24209 0.067428,2.30766 0,2.33337 0.00872,2.23396 -0.2281928,2.60052 -0.2277193,0.35232 -0.5434933,0.58328 -0.9340767,0.68317 -0.2259277,0.0578 -0.321064,0.0602 -2.313344,0.0569 -1.1659876,-10e-4 -2.1432339,-0.0157 -2.2270091,-0.0316 z M 6.640685,286.01544 c -0.070547,-0.21149 -0.0782,-0.28334 -0.089053,-0.83599 l -0.011879,-0.6046 -0.079453,6.1e-4 c -0.055484,5.7e-4 -0.1572849,0.0685 -0.3375104,0.22528 l -0.2580579,0.22453 0.044049,0.16869 c 0.090643,0.34711 0.3227368,0.7006 0.6064179,0.92359 0.090317,0.071 0.1728611,0.1291 0.1834335,0.12911 0.010567,0 -0.015508,-0.10415 -0.057957,-0.23137 z m -1.3859419,-0.4777 0.00844,-0.33589 H 4.1724396 3.0816927 v 0.34373 0.34372 l 1.0823046,-0.008 1.0823045,-0.008 z m -3.5016719,-0.83925 0.2687098,-0.0755 1.7217791,-0.0166 1.7217795,-0.0166 0.3084736,-0.27151 c 0.1696611,-0.14933 0.3378216,-0.28705 0.3736892,-0.30603 0.035871,-0.019 0.1735821,-0.0345 0.3060309,-0.0345 h 0.240816 v -0.4491 -0.44909 l -1.9182904,0.009 c -1.8889863,0.009 -1.9212563,0.01 -2.1123596,0.0751 -0.6767305,0.23023 -1.1650357,0.81257 -1.2703743,1.51502 -0.020135,0.13426 -0.017674,0.14277 0.034682,0.11992 0.030995,-0.0136 0.1772739,-0.0586 0.3250645,-0.10014 z m 6.2549712,-1.16862 v -0.44784 H 7.6497629 7.2914826 v 0.44784 0.44787 H 7.6497629 8.0080424 Z M 4.350601,294.30976 c -0.032841,-0.0134 -0.086584,-0.0543 -0.119427,-0.0908 -0.052389,-0.0582 -0.060971,-0.11696 -0.069989,-0.47902 l -0.010274,-0.41269 -0.4145873,-0.01 c -0.4076027,-0.01 -0.4159795,-0.0111 -0.4972859,-0.0924 l -0.082699,-0.0828 v -0.77804 -0.77804 l 0.097506,-0.0871 c 0.097441,-0.087 0.097769,-0.0871 0.497236,-0.0871 H 4.150811 l 0.010328,-0.42047 0.010328,-0.42048 0.097506,-0.0871 0.097506,-0.0871 h 0.7324995 c 0.7763837,0 0.8662058,0.0142 0.9376461,0.14764 0.016906,0.0316 0.03074,0.23969 0.03074,0.46246 v 0.40502 h 0.3896193 c 0.4116769,0 0.5316995,0.0298 0.5947655,0.14763 0.041367,0.0774 0.041367,1.53829 0,1.61557 -0.063064,0.11784 -0.1830886,0.14763 -0.5947655,0.14763 h -0.389621 v 0.40503 c 0,0.22276 -0.013835,0.43088 -0.03074,0.46248 -0.071331,0.13328 -0.1621547,0.14772 -0.9157248,0.14573 -0.3908185,-8.1e-4 -0.7374499,-0.0129 -0.7702921,-0.0263 z m 1.1242265,-0.98937 0.010328,-0.42048 0.097506,-0.0871 c 0.097504,-0.0871 0.097512,-0.0871 0.5000989,-0.0871 h 0.4025943 v -0.35602 -0.35602 l -0.4174003,-0.01 c -0.4105928,-0.01 -0.4187482,-0.0111 -0.500099,-0.0924 -0.08126,-0.0813 -0.082879,-0.0899 -0.093027,-0.50011 l -0.010328,-0.41734 H 5.1090827 4.7536664 v 0.40502 c 0,0.22278 -0.013834,0.43088 -0.03074,0.46247 -0.063064,0.11784 -0.1830877,0.14763 -0.594765,0.14763 H 3.7385419 v 0.35828 0.35828 h 0.3896193 c 0.4116772,0 0.5317006,0.0298 0.5947649,0.14763 0.016906,0.0315 0.03074,0.23971 0.03074,0.46246 v 0.40504 h 0.3554163 0.355418 z m -3.6663126,-2.02614 c -0.1669428,-0.071 -0.2141277,-0.32345 -0.087885,-0.47021 0.059832,-0.0696 0.095726,-0.0838 0.2115819,-0.0838 0.178465,0 0.2836385,0.10513 0.2836385,0.28364 0,0.20871 -0.2156744,0.35186 -0.4073352,0.27035 z m 12.5079441,-3.49414 c -0.827215,-0.41833 -0.547398,-1.66787 0.376615,-1.68181 0.346611,-0.005 0.640352,0.17295 0.804071,0.48774 0.09467,0.18201 0.09972,0.20691 0.0877,0.432 -0.0145,0.27149 -0.07944,0.42758 -0.247986,0.59613 -0.168945,0.16895 -0.324589,0.23356 -0.596137,0.24747 -0.220972,0.0113 -0.252734,0.005 -0.424262,-0.0815 z m 0.597816,-0.59202 c 0.149268,-0.15581 0.08784,-0.41699 -0.113726,-0.48351 -0.207762,-0.0686 -0.437727,0.13555 -0.3858,0.34244 0.05577,0.2222 0.343855,0.30354 0.499526,0.14107 z m -3.413002,-1.24287 c -0.498924,-0.23859 -0.57922,-0.30564 -0.57922,-0.48369 0,-0.13528 0.144437,-0.27968 0.279727,-0.27968 0.109879,0 0.980318,0.41479 1.060159,0.5052 0.08721,0.0987 0.07922,0.28074 -0.01654,0.37651 -0.140866,0.14085 -0.232624,0.12626 -0.744133,-0.11834 z m 2.411396,-0.55184 c -0.09072,-0.081 -0.09855,-0.10317 -0.112434,-0.31894 -0.01394,-0.21657 -0.01987,-0.23323 -0.08957,-0.25186 -0.04105,-0.0109 -0.133581,-0.0485 -0.205616,-0.0834 l -0.130974,-0.0634 -0.162535,0.14855 c -0.140866,0.12875 -0.179238,0.14855 -0.28784,0.14855 -0.155054,0 -0.249406,-0.063 -0.281801,-0.18795 -0.03826,-0.14761 -0.01073,-0.22014 0.150372,-0.39641 0.118134,-0.12925 0.141721,-0.17135 0.114436,-0.20423 -0.01891,-0.0228 -0.05962,-0.11329 -0.09047,-0.20115 l -0.05611,-0.15974 -0.228895,-0.015 c -0.212339,-0.0139 -0.235187,-0.022 -0.31593,-0.11242 -0.09643,-0.10806 -0.109174,-0.20602 -0.04335,-0.33329 0.05679,-0.10983 0.105472,-0.12944 0.371156,-0.14959 l 0.220768,-0.0167 0.03756,-0.12768 c 0.02066,-0.0702 0.05978,-0.16157 0.08692,-0.203 0.04856,-0.0741 0.04697,-0.0779 -0.09777,-0.23629 -0.162835,-0.17817 -0.190747,-0.25796 -0.142476,-0.4073 0.04052,-0.12539 0.207963,-0.21837 0.33557,-0.18634 0.04637,0.0116 0.153467,0.0866 0.237972,0.16647 l 0.153645,0.14531 0.100507,-0.0574 c 0.05528,-0.0317 0.150893,-0.0735 0.212472,-0.0929 l 0.111963,-0.0354 v -0.19034 c 0,-0.22577 0.04175,-0.33162 0.153613,-0.38946 0.10415,-0.0539 0.185762,-0.0539 0.289907,0 0.111867,0.0579 0.153613,0.16369 0.153613,0.38946 v 0.19034 l 0.111964,0.0354 c 0.06158,0.0195 0.156825,0.0611 0.211656,0.0924 l 0.0997,0.057 0.159985,-0.14622 c 0.08799,-0.0804 0.195445,-0.15512 0.238785,-0.16599 0.121835,-0.0307 0.290489,0.0653 0.330044,0.18773 0.04836,0.14961 0.02034,0.22916 -0.144165,0.40914 -0.118136,0.12926 -0.141723,0.17135 -0.114436,0.20422 0.0189,0.0228 0.05962,0.1133 0.09047,0.20117 l 0.05611,0.15973 0.218898,0.0167 c 0.263813,0.0202 0.312573,0.0399 0.369285,0.14961 0.06582,0.12727 0.05307,0.22525 -0.04335,0.33328 -0.08075,0.0905 -0.103586,0.0986 -0.315932,0.11243 l -0.228894,0.0148 -0.05611,0.15975 c -0.03086,0.0879 -0.07157,0.17837 -0.09047,0.20114 -0.02729,0.0328 -0.0034,0.0753 0.116201,0.20617 0.15971,0.17474 0.186336,0.2444 0.148381,0.38824 -0.03261,0.12356 -0.133527,0.19273 -0.282398,0.19352 -0.108267,5.6e-4 -0.145949,-0.0189 -0.289319,-0.15 -0.137718,-0.12585 -0.173723,-0.14532 -0.218867,-0.11824 -0.02972,0.0178 -0.121209,0.0573 -0.203315,0.0878 l -0.149283,0.0555 -0.01492,0.2296 c -0.01386,0.21316 -0.02191,0.23584 -0.112434,0.31663 -0.06128,0.0547 -0.130433,0.087 -0.186133,0.087 -0.05569,0 -0.124855,-0.0323 -0.186133,-0.087 z m 0.530363,-1.19022 c 0.138874,-0.0715 0.283489,-0.21772 0.360931,-0.36485 0.03929,-0.0747 0.05497,-0.16848 0.0549,-0.32844 -1.13e-4,-0.2539 -0.05803,-0.39597 -0.227489,-0.55811 -0.376561,-0.3603 -0.977279,-0.25529 -1.228664,0.21477 -0.08522,0.15934 -0.09006,0.51788 -0.0091,0.67178 0.105254,0.19997 0.284412,0.35232 0.495971,0.42173 0.123145,0.0404 0.424725,0.01 0.553419,-0.0569 z m -4.5420776,-0.49623 c -0.1120845,-0.11208 -0.1282997,-0.20793 -0.058133,-0.34361 0.073685,-0.1425 0.1549905,-0.15624 0.8652106,-0.14622 l 0.649239,0.009 0.072,0.0838 c 0.07721,0.0898 0.09589,0.24872 0.04126,0.3508 -0.06971,0.13024 -0.168243,0.14763 -0.836604,0.14763 h -0.631459 z m 0.7620356,-1.80701 c -0.110099,-0.1101 -0.118253,-0.26205 -0.02009,-0.37451 0.08269,-0.0947 1.287811,-0.67269 1.402793,-0.67274 0.04792,-1e-5 0.121622,0.0357 0.178462,0.0865 0.126654,0.11317 0.136775,0.29215 0.02286,0.40432 -0.112193,0.11047 -1.265395,0.64373 -1.392099,0.64373 -0.07585,0 -0.128661,-0.0241 -0.191922,-0.0872 z"
         style="fill:#000000;stroke-width:0.02985667" />
      <path
         inkscape:connector-curvature="0"
         id="path5371"
         d="m 1.4183453,284.63383 c 0.072408,-0.39003 0.243085,-0.70842 0.5380372,-1.00366 0.2407291,-0.24096 0.5456843,-0.41977 0.8149303,-0.47784 0.074644,-0.016 0.9873557,-0.0389 2.0282448,-0.0509 l 1.8925274,-0.0216 v 0.43779 0.43779 l -0.2684282,0.0129 -0.2684273,0.0129 -0.1799709,0.14919 c -0.098984,0.0821 -0.2578954,0.21658 -0.3531359,0.29894 l -0.173165,0.14972 -1.6932001,0.01 -1.6932001,0.01 -0.3089107,0.0889 c -0.1699007,0.0489 -0.3208325,0.0889 -0.3354038,0.0889 -0.015204,0 -0.01516,-0.061 1.015e-4,-0.14326 z"
         style="fill:#ffffff;stroke-width:0.0011399;stroke-miterlimit:4;stroke-dasharray:none" />
      <path
         inkscape:connector-curvature="0"
         id="path5373"
         d="m 3.1030703,285.54616 v -0.31668 h 1.0706718 1.0706727 v 0.31668 0.31668 H 4.1737421 3.1030703 Z"
         style="fill:#ffffff;stroke-width:0.0011399;stroke-miterlimit:4;stroke-dasharray:none" />
      <path
         inkscape:connector-curvature="0"
         id="path5375"
         d="m 4.7618581,293.34444 c 0,-0.21458 -0.012922,-0.42411 -0.02872,-0.46565 -0.047331,-0.12449 -0.138276,-0.15084 -0.5669404,-0.1642 l -0.3996163,-0.0126 v -0.34045 -0.34045 l 0.4214391,-0.0108 c 0.5699821,-0.0141 0.5552996,5.8e-4 0.5685735,-0.56914 l 0.00982,-0.42149 h 0.3406239 0.3406234 l 0.013867,0.40886 c 0.013399,0.39515 0.01659,0.41159 0.095059,0.4901 0.079202,0.0792 0.09153,0.0815 0.5027835,0.0917 l 0.4215919,0.0108 v 0.34395 0.34394 H 6.0999836 c -0.3337697,0 -0.3936113,0.008 -0.4829374,0.0631 -0.056082,0.0347 -0.1153606,0.088 -0.1317392,0.11866 -0.01638,0.0307 -0.029778,0.23297 -0.029778,0.4497 v 0.39406 H 5.1086908 4.7618532 Z"
         style="fill:#ffffff;stroke-width:0.0011399;stroke-miterlimit:4;stroke-dasharray:none" />
      <path
         inkscape:connector-curvature="0"
         id="path5377"
         d="M 6.5024824,286.08402 C 6.2511593,285.88036 6.0258927,285.5351 5.9252653,285.19933 l -0.049714,-0.16588 0.1142066,-0.0999 c 0.2366997,-0.20703 0.4233439,-0.33741 0.4829875,-0.33741 0.059718,0 0.062159,0.0202 0.076058,0.62581 0.011248,0.49021 0.025641,0.65675 0.066409,0.76859 0.028631,0.0786 0.047072,0.1577 0.040995,0.17594 -0.00606,0.0182 -0.075258,-0.0189 -0.1537351,-0.0825 z"
         style="fill:#ffffff;stroke-width:0.0011399;stroke-miterlimit:4;stroke-dasharray:none" />
      <path
         inkscape:connector-curvature="0"
         id="path5379"
         d="m 7.2952807,283.52545 v -0.43731 H 7.6421183 7.988955 v 0.43731 0.43732 H 7.6421183 7.2952807 Z"
         style="fill:#ffffff;stroke-width:0.0011399;stroke-miterlimit:4;stroke-dasharray:none" />
      <path
         inkscape:connector-curvature="0"
         id="path5381"
         d="m 13.862512,284.25281 c -0.156804,-0.0578 -0.311666,-0.18198 -0.407533,-0.32684 -0.09399,-0.14204 -0.128243,-0.4575 -0.06912,-0.63666 0.140474,-0.42563 0.648076,-0.63475 1.04841,-0.43187 0.282289,0.14305 0.400955,0.34764 0.400955,0.6913 0,0.19225 -0.01144,0.23932 -0.08731,0.35893 -0.09176,0.14469 -0.237411,0.27226 -0.367185,0.3216 -0.146409,0.0556 -0.399813,0.0672 -0.518222,0.0235 z"
         style="fill:#ffffff;stroke-width:0.0011399;stroke-miterlimit:4;stroke-dasharray:none" />
      <path
         inkscape:connector-curvature="0"
         id="path5383"
         d="m 14.560414,287.23513 c -0.114231,-0.0621 -0.165223,-0.20092 -0.116767,-0.3179 0.05036,-0.12159 0.139346,-0.17977 0.27497,-0.17977 0.08809,0 0.128125,0.0201 0.192322,0.0964 0.200407,0.23817 -0.07357,0.55183 -0.350525,0.4013 z"
         style="fill:#ffffff;stroke-width:0.0011399;stroke-miterlimit:4;stroke-dasharray:none" />
      <path
         inkscape:connector-curvature="0"
         id="path5404"
         d="m 1.7953869,289.62945 -0.1468095,2.62191"
         style="fill:none;stroke:#000000;stroke-width:0.01;stroke-linecap:butt;stroke-linejoin:miter;stroke-miterlimit:4;stroke-dasharray:none;stroke-opacity:1" />
      <path
         transform="matrix(0.26458333,0,0,0.26458333,0,280.06665)"
         inkscape:connector-curvature="0"
         id="path5406"
         d="M 11.469286,58.339849 C 10.44679,58.196444 9.4796533,57.485608 8.9442557,56.483978 8.5644432,55.773417 8.5395832,55.481751 8.4548326,50.741908 L 8.3655469,45.748424 7.8813146,45.476963 C 7.4844908,45.254505 7.2951372,45.243983 6.832321,45.418676 l -0.5647612,0.213175 0.1095283,-0.662514 c 0.06024,-0.364382 0.1104126,-1.079338 0.1114935,-1.588788 l 0.00197,-0.926273 0.6048975,0.09816 c 0.4640934,0.07531 0.6927102,0.01036 0.9821429,-0.279084 0.790386,-0.790386 0.2836525,-1.984388 -0.8421727,-1.984388 -0.523668,0 -0.5662963,-0.04517 -0.5662963,-0.600076 0,-0.330043 0.050325,-0.967237 0.111833,-1.415987 0.1055182,-0.769839 0.1424611,-0.81504 0.6542486,-0.800489 0.8402972,0.02389 1.1215965,-0.488625 1.3650845,-2.487131 0.3247857,-2.665784 1.0270095,-5.903878 1.8145789,-8.367387 l 0.710292,-2.221787 h 4.259267 4.259267 l 0.06624,2.561611 0.06624,2.561611 0.748052,1.509632 c 1.02525,2.06904 2.314332,3.286923 4.647513,4.390818 2.174486,1.028811 3.528514,2.250235 4.267152,3.849256 l 0.51238,1.109215 -0.02853,7.824004 -0.02852,7.824001 -0.471398,0.712329 c -0.259268,0.391782 -0.844754,0.949105 -1.301079,1.238498 l -0.82968,0.526168 -7.598968,-0.02386 c -4.179432,-0.01312 -7.970142,-0.07592 -8.4238,-0.139543 z m 11.138931,-4.621952 c 0.19692,-0.163676 0.316038,-0.727719 0.4054,-1.919642 l 0.126544,-1.687861 h 1.496622 c 2.222868,0 2.210907,0.01962 2.210907,-3.626584 0,-3.677802 0.05406,-3.583972 -2.112979,-3.667395 l -1.606269,-0.06184 -0.126294,-1.68453 c -0.102112,-1.361983 -0.188289,-1.717707 -0.450066,-1.857806 -0.178073,-0.0953 -1.629678,-0.173277 -3.225786,-0.173277 -2.7338,0 -2.925973,0.02251 -3.315311,0.388271 -0.367828,0.345556 -0.413295,0.551826 -0.413295,1.875 v 1.486729 l -1.473215,0.0059 c -2.297063,0.0093 -2.276785,-0.02386 -2.276785,3.717909 0,3.677534 -0.05049,3.597573 2.271876,3.597573 h 1.478124 l 0.02113,1.205357 c 0.02979,1.699668 0.176854,2.229541 0.694078,2.500818 0.611408,0.320675 5.890352,0.237934 6.295322,-0.09867 z"
         style="fill:#ffffff;stroke-width:0.00674916;stroke-miterlimit:4;stroke-dasharray:none" />
    </g>
    <path
       style="fill:#ffffff;stroke-width:0.16197975;stroke-miterlimit:4;stroke-dasharray:none"
       d=""
       id="path8005"
       inkscape:connector-curvature="0"
       transform="matrix(0.26458333,0,0,0.26458333,0,280.06665)" />
    <path
       style="opacity:1;fill:#000000;stroke-width:0.0152681"
       d="m 9.199129,296.55391 c -0.037169,-0.0373 -0.037474,-0.0398 -0.037474,-0.32895 0,-0.39087 -0.023387,-0.36646 0.350478,-0.36646 0.1515385,0 0.2755247,-0.007 0.2755247,-0.007 0,-0.007 -0.034355,-0.0531 -0.076341,-0.10904 -0.041987,-0.056 -0.076341,-0.10804 -0.076341,-0.1152 0,-0.007 -0.089633,-0.0132 -0.199183,-0.0132 -0.1911194,0 -0.2006989,-0.003 -0.2366593,-0.0376 l -0.037475,-0.0375 v -2.97864 -2.97862 l 0.037475,-0.0376 0.037475,-0.0376 h 0.7800726 0.780076 l 0.03748,0.0376 c 0.03454,0.0346 0.03749,0.0489 0.03749,0.18323 v 0.14572 h 0.305369 0.305367 v -0.14572 c 0,-0.13435 0.0031,-0.14869 0.03748,-0.18323 0.03719,-0.0371 0.03982,-0.0376 0.328962,-0.0376 0.388014,0 0.366442,-0.0191 0.366442,0.32435 0,0.17507 -0.007,0.27654 -0.02352,0.34044 -0.04443,0.17186 -0.17985,0.32589 -0.345887,0.39338 -0.07536,0.0307 -0.112058,0.0333 -0.527609,0.0381 l -0.446597,0.007 v 0.73182 0.73183 h 0.122147 0.122146 v -0.45107 -0.45111 l 0.03749,-0.0375 c 0.03719,-0.0371 0.03982,-0.0375 0.328961,-0.0375 0.289123,0 0.291793,2.8e-4 0.328966,0.0375 0.03324,0.0333 0.03749,0.0505 0.03749,0.15394 0,0.0872 0.0049,0.1145 0.01906,0.10849 0.167077,-0.0701 0.298734,-0.0685 0.448288,0.007 0.104769,0.0516 0.169464,0.12097 0.223265,0.23955 0.02668,0.0589 0.03467,0.11003 0.03945,0.25311 l 0.0063,0.17943 h 0.144135 c 0.132675,0 0.147117,0.007 0.181612,0.0375 0.03719,0.0373 0.03748,0.0399 0.03748,0.32898 0,0.28912 -3.03e-4,0.29176 -0.03748,0.32895 l -0.03748,0.0376 h -1.0008 -1.000771 v 0.67181 0.67178 h 1.245064 1.245067 l 0.03748,0.0375 c 0.02063,0.0206 0.03748,0.047 0.03748,0.0587 0,0.0646 -0.06468,0.60192 -0.08497,0.70551 -0.03259,0.16643 -0.09975,0.36262 -0.176092,0.51445 -0.06415,0.12761 -0.19856,0.3379 -0.227286,0.35569 -0.05076,0.0316 0.0144,0.0384 0.358562,0.0384 h 0.374068 v -0.69541 -0.69537 l 0.03748,-0.0375 c 0.03393,-0.0339 0.04982,-0.0375 0.167321,-0.0375 h 0.129855 l -0.05876,-0.11103 c -0.107447,-0.20245 -0.15342,-0.39683 -0.153624,-0.6496 -1.11e-4,-0.13039 0.0031,-0.14495 0.03736,-0.17938 l 0.03748,-0.0376 h 1.000771 1.000772 v -0.26789 c 0,-0.26406 -8.26e-4,-0.26839 -0.03749,-0.30533 -0.04751,-0.0474 -0.07082,-0.0471 -0.14607,0.006 l -0.06075,0.0401 v 0.10554 c 0,0.0917 -0.005,0.11048 -0.03749,0.14302 -0.07807,0.0781 -0.206818,0.0221 -0.206818,-0.0901 v -0.0526 l -0.0878,0.0247 c -0.125066,0.0347 -0.437184,0.0333 -0.568606,-0.006 -0.481243,-0.13239 -0.824121,-0.4984 -0.909711,-0.97113 -0.02614,-0.14436 -0.02966,-0.97397 -0.0049,-1.13454 0.09963,-0.64389 0.705421,-1.10274 1.348697,-1.02147 0.273364,0.0347 0.494151,0.14096 0.699617,0.33725 0.189735,0.18126 0.309601,0.40306 0.355833,0.65838 0.02614,0.1444 0.02967,0.97398 0.005,1.13455 -0.02492,0.16111 -0.09679,0.34455 -0.188872,0.48212 l -0.08111,0.12118 0.04563,0.0434 c 0.05493,0.0522 0.09758,0.13145 0.111975,0.2082 l 0.01058,0.0564 h 0.08298 c 0.100077,0 0.157922,0.0447 0.157922,0.12216 0,0.0779 -0.05776,0.12214 -0.159622,0.12214 h -0.08467 v 0.12212 c 0,0.1 0.0042,0.12218 0.0236,0.12218 0.01298,0 0.04049,0.0169 0.06105,0.0376 0.03441,0.0345 0.03747,0.0489 0.03735,0.1794 -2.08e-4,0.25428 -0.04674,0.44981 -0.15465,0.64959 l -0.05978,0.11068 h 0.130869 c 0.118591,0 0.134386,0.007 0.168349,0.0375 l 0.03748,0.0376 v 0.6954 c 0,0.61702 0.0026,0.69539 0.0236,0.69539 0.01298,0 0.04048,0.0169 0.06106,0.0375 0.03718,0.0372 0.03748,0.0398 0.03748,0.32893 0,0.28911 -3.05e-4,0.29178 -0.03748,0.32898 l -0.03749,0.0375 h -3.58953 -3.5894515 z m 7.04704,-0.32895 v -0.12213 H 12.826057 9.4059459 v 0.12213 0.12218 h 3.4201111 3.420112 z m -3.565082,-0.46186 c 0.179097,-0.1973 0.323547,-0.45452 0.396352,-0.70575 0.01975,-0.0682 0.0469,-0.21292 0.06034,-0.3217 0.01342,-0.10879 0.02846,-0.23046 0.03339,-0.27032 l 0.0089,-0.0726 h -0.177022 -0.177018 v 0.45109 0.45111 l -0.03748,0.0376 -0.03749,0.0375 h -0.535748 -0.535782 l -0.03748,-0.0375 -0.03748,-0.0376 v -0.45111 -0.45109 h -0.366461 -0.36644 v 0.57324 0.57326 l -0.03748,0.0375 -0.03748,0.0376 h -0.436314 c -0.5001105,0 -0.4690244,-0.0148 -0.320849,0.14887 l 0.08659,0.0954 h 1.234176 1.234173 z m 1.488586,-0.35568 v -0.45108 l 0.03748,-0.0376 0.03749,-0.0376 h 0.780072 0.780075 l 0.03748,0.0376 0.03748,0.0376 v 0.45108 0.45108 h 0.122146 0.122148 v -0.6107 -0.61072 H 15.02474 13.92542 v 0.61072 0.6107 h 0.122147 0.122146 z m 1.465761,0.0846 v -0.3664 H 15.0247 14.413964 v 0.3664 0.36641 h 0.610736 0.610734 z m -5.9851943,-2.9314 v -2.80931 H 9.5280925 9.4059459 v 2.80931 2.8093 h 0.1221466 0.1221472 z m 0.4885873,0 v -2.80931 H 10.016679 9.8945338 v 2.80931 2.8093 h 0.1221452 0.122148 z m 0.488587,0 v -2.80931 H 10.505267 10.38312 v 2.80931 2.8093 h 0.122147 0.122147 z m 1.954349,2.44286 v -0.12215 h -0.36644 -0.366441 v 0.12215 0.12217 h 0.366441 0.36644 z m 0,-0.48857 v -0.12213 h -0.36644 -0.366441 v 0.12213 0.12214 h 0.366441 0.36644 z m 3.190533,-0.19383 c 0.123624,-0.14047 0.228564,-0.41334 0.229312,-0.59629 l 2.66e-4,-0.0647 h -0.979379 -0.979378 l 0.0084,0.11144 c 0.01513,0.19985 0.116706,0.43707 0.244868,0.57179 l 0.0472,0.0497 h 0.682785 0.682783 z m -0.545647,-1.53849 c 0.129387,-0.0276 0.229378,-0.0715 0.296498,-0.13029 0.0288,-0.0251 0.07477,-0.0555 0.102168,-0.0667 0.07381,-0.0308 0.20229,-0.18385 0.270931,-0.32263 0.0809,-0.16362 0.107607,-0.30117 0.102272,-0.52704 l -0.0042,-0.18108 -0.815806,0.47211 c -0.448692,0.25963 -0.82187,0.47813 -0.829285,0.48557 -0.02005,0.0202 0.132061,0.13592 0.25677,0.19567 0.192033,0.0921 0.412787,0.11853 0.620731,0.0744 z m -2.522737,-0.34413 v -0.12216 h -0.916103 -0.916102 v 0.12216 0.12216 h 0.916102 0.916103 z m 2.408443,-0.65361 0.889242,-0.51439 1.37e-4,-0.14796 c 7.6e-5,-0.0815 -0.0064,-0.15202 -0.01442,-0.15696 -0.0079,-0.007 -0.440972,0.23683 -0.962134,0.53729 -0.941862,0.54301 -0.947523,0.54656 -0.939709,0.59019 0.0043,0.0241 0.02614,0.0845 0.04844,0.13433 0.03067,0.0683 0.04653,0.0882 0.06488,0.0812 0.01337,-0.007 0.424475,-0.2407 0.913558,-0.52363 z m -3.507767,-0.0792 v -0.36641 h -0.122145 -0.122148 v 0.36641 0.36646 h 0.122148 0.122145 z m 0.730415,0.19958 c -0.0058,-0.18035 -0.01883,-0.21431 -0.110292,-0.28259 -0.05911,-0.0441 -0.203951,-0.0441 -0.263071,0 -0.09144,0.0683 -0.104708,0.10224 -0.110292,0.28259 l -0.0052,0.16688 h 0.246996 0.246995 z m 2.658503,-0.66182 c 0.499297,-0.28941 0.910424,-0.53408 0.913622,-0.54364 0.0036,-0.01 -0.01192,-0.0476 -0.03364,-0.0847 l -0.03945,-0.0675 -0.889452,0.51565 -0.889454,0.51564 -0.0045,0.1034 c -0.0036,0.0801 -9.7e-5,0.10158 0.01524,0.0953 0.0109,-0.007 0.428345,-0.24494 0.927639,-0.53435 z m -0.163663,-0.39395 c 0.422081,-0.2442 0.783287,-0.45415 0.802683,-0.46666 l 0.03524,-0.0226 -0.05819,-0.047 c -0.140445,-0.11325 -0.385544,-0.19496 -0.584922,-0.19496 -0.452396,0 -0.862317,0.33098 -0.954281,0.77052 -0.02071,0.099 -0.03236,0.40459 -0.01543,0.40459 0.0038,0 0.352788,-0.19978 0.774868,-0.44397 z m -3.040196,-0.53003 c 0.0594,-0.0311 0.09422,-0.063 0.127707,-0.11704 0.04365,-0.0704 0.04632,-0.0842 0.05111,-0.2627 l 0.005,-0.18832 h -0.123341 -0.123392 v 0.14573 c 0,0.13436 -0.0031,0.14868 -0.03749,0.18322 l -0.03749,0.0376 h -0.390057 -0.390038 v 0.12216 0.12212 h 0.418137 0.418137 z"
       id="path9798"
       inkscape:connector-curvature="0" />
    <path
       style="opacity:1;fill:#ffffff;stroke-width:0.00174878;stroke-miterlimit:4;stroke-dasharray:none"
       d="m 9.4065946,292.56087 v -2.80698 h 0.115675 0.1156753 v 2.80698 2.807 H 9.5222696 9.4065946 Z"
       id="path9800"
       inkscape:connector-curvature="0" />
    <path
       style="opacity:1;fill:#ffffff;stroke-width:0.00174878;stroke-miterlimit:4;stroke-dasharray:none"
       d="m 9.900142,292.56087 v -2.80698 h 0.115676 0.115675 v 2.80698 2.807 H 10.015818 9.900142 Z"
       id="path9802"
       inkscape:connector-curvature="0" />
    <path
       style="opacity:1;fill:#ffffff;stroke-width:0.00174878;stroke-miterlimit:4;stroke-dasharray:none"
       d="m 10.393689,292.56087 v -2.80698 h 0.115677 0.115674 v 2.80698 2.807 h -0.115674 -0.115677 z"
       id="path9804"
       inkscape:connector-curvature="0" />
    <path
       style="opacity:1;fill:#ffffff;stroke-width:0.00174878;stroke-miterlimit:4;stroke-dasharray:none"
       d="m 10.871815,290.23972 v -0.11569 h 0.391924 0.391924 l 0.03995,-0.0474 c 0.03643,-0.0433 0.03995,-0.0594 0.03995,-0.18506 v -0.13761 h 0.118048 0.118044 l -0.01,0.18564 c -0.01063,0.19771 -0.0246,0.2422 -0.09749,0.31016 -0.114088,0.10641 -0.109513,0.10555 -0.572045,0.10562 l -0.420286,6e-5 z"
       id="path9806"
       inkscape:connector-curvature="0" />
    <path
       style="opacity:1;fill:#ffffff;stroke-width:0.00174878;stroke-miterlimit:4;stroke-dasharray:none"
       d="m 11.365363,291.70487 v -0.3624 h 0.115674 0.115675 v 0.3624 0.36246 h -0.115675 -0.115674 z"
       id="path9808"
       inkscape:connector-curvature="0" />
    <path
       style="opacity:1;fill:#ffffff;stroke-width:0.00174878;stroke-miterlimit:4;stroke-dasharray:none"
       d="m 11.861381,291.90604 c 0.0064,-0.17224 0.02112,-0.20986 0.10742,-0.2743 0.05237,-0.0391 0.181603,-0.0398 0.248599,-0.002 0.07193,0.0414 0.09938,0.11247 0.110575,0.28638 l 0.0097,0.15037 h -0.24112 -0.241122 z"
       id="path9810"
       inkscape:connector-curvature="0" />
    <path
       style="opacity:1;fill:#ffffff;stroke-width:0.00174878;stroke-miterlimit:4;stroke-dasharray:none"
       d="m 10.871815,292.4452 v -0.11565 h 0.909978 0.909979 v 0.11565 0.11567 h -0.909979 -0.909978 z"
       id="path9812"
       inkscape:connector-curvature="0" />
    <path
       style="opacity:1;fill:#ffffff;stroke-width:0.00174878;stroke-miterlimit:4;stroke-dasharray:none"
       d="m 10.042383,295.75447 c -0.044298,-0.0504 -0.080547,-0.098 -0.080547,-0.10581 0,-0.0239 0.1454997,-0.0338 0.5024267,-0.034 0.335878,-1.2e-4 0.340934,-4.4e-4 0.374018,-0.0362 0.0332,-0.0352 0.03353,-0.0416 0.03353,-0.60919 v -0.57353 h 0.362448 0.362447 v 0.4503 0.45027 l 0.04147,0.0434 0.04146,0.0433 h 0.532233 0.532231 l 0.04329,-0.0416 0.04328,-0.0416 v -0.4521 -0.4521 h 0.170767 0.170766 l -0.0101,0.0887 c -0.02102,0.18449 -0.05639,0.41612 -0.07802,0.51072 -0.05348,0.23393 -0.204027,0.52082 -0.383518,0.73083 l -0.102161,0.11948 h -1.237742 -1.237694 z"
       id="path9814"
       inkscape:connector-curvature="0" />
    <path
       style="opacity:1;fill:#ffffff;stroke-width:0.00174878;stroke-miterlimit:4;stroke-dasharray:none"
       d="m 11.858911,294.51189 v -0.11568 h 0.354738 0.354737 v 0.11568 0.11566 h -0.354737 -0.354738 z"
       id="path9816"
       inkscape:connector-curvature="0" />
    <path
       style="opacity:1;fill:#ffffff;stroke-width:0.00174878;stroke-miterlimit:4;stroke-dasharray:none"
       d="m 11.858911,295.00542 v -0.11568 h 0.354738 0.354737 v 0.11568 0.1157 h -0.354737 -0.354738 z"
       id="path9818"
       inkscape:connector-curvature="0" />
    <path
       style="opacity:1;fill:#ffffff;stroke-width:0.00174878;stroke-miterlimit:4;stroke-dasharray:none"
       d="m 9.4065946,296.22384 v -0.11569 h 3.4162764 3.416275 v 0.11569 0.11567 H 12.822871 9.4065946 Z"
       id="path9820"
       inkscape:connector-curvature="0" />
    <path
       style="opacity:1;fill:#ffffff;stroke-width:0.00174878;stroke-miterlimit:4;stroke-dasharray:none"
       d="M 13.92564,295.24448 V 294.643 h 1.09506 1.095059 v 0.60148 0.60149 h -0.115677 -0.115674 v -0.45228 -0.4523 l -0.03571,-0.0333 c -0.0357,-0.0335 -0.03594,-0.0335 -0.820449,-0.0335 h -0.78475 l -0.04329,0.0414 -0.04328,0.0415 v 0.4444 0.44437 h -0.115661 -0.115677 z"
       id="path9822"
       inkscape:connector-curvature="0" />
    <path
       style="opacity:1;fill:#ffffff;stroke-width:0.00174878;stroke-miterlimit:4;stroke-dasharray:none"
       d="m 14.299823,294.33066 c -0.117668,-0.12213 -0.219893,-0.36001 -0.241882,-0.56293 l -0.01043,-0.0964 h 0.974676 0.974673 l -0.0088,0.1041 c -0.01474,0.17436 -0.105559,0.39465 -0.222534,0.5398 l -0.05281,0.0657 h -0.682281 -0.682282 z"
       id="path9824"
       inkscape:connector-curvature="0" />
    <path
       style="opacity:1;fill:#ffffff;stroke-width:0.00174878;stroke-miterlimit:4;stroke-dasharray:none"
       d="m 14.797248,292.76732 c -0.121238,-0.0293 -0.300589,-0.11884 -0.381038,-0.19024 l -0.06428,-0.0573 0.130029,-0.0779 c 0.271156,-0.16252 1.493346,-0.86831 1.503586,-0.86831 0.0062,0 0.0073,0.0989 0.0032,0.2198 -0.0089,0.25105 -0.03581,0.35815 -0.130696,0.51899 -0.09566,0.16215 -0.19943,0.25572 -0.432962,0.39038 -0.146551,0.0845 -0.42579,0.11312 -0.627617,0.0645 z"
       id="path9826"
       inkscape:connector-curvature="0" />
    <path
       style="opacity:1;fill:#ffffff;stroke-width:0.00174878;stroke-miterlimit:4;stroke-dasharray:none"
       d="m 14.135962,292.20806 c -0.05201,-0.11589 -0.05117,-0.13125 0.0095,-0.17683 0.13355,-0.10037 1.787357,-1.04349 1.829812,-1.04349 0.01312,0 0.01707,0.0402 0.01383,0.14173 l -0.0045,0.14175 -0.424143,0.2456 c -0.851041,0.49273 -1.357885,0.78185 -1.370737,0.78185 -0.0073,0 -0.03146,-0.0407 -0.05381,-0.0906 z"
       id="path9828"
       inkscape:connector-curvature="0" />
    <path
       style="opacity:1;fill:#ffffff;stroke-width:0.00174878;stroke-miterlimit:4;stroke-dasharray:none"
       d="m 14.061084,291.74837 c -0.0036,-0.007 -0.0036,-0.0476 -3.15e-4,-0.09 l 0.0064,-0.0773 0.81111,-0.47016 c 0.446112,-0.25857 0.843605,-0.48881 0.883316,-0.5116 l 0.07222,-0.0414 0.03496,0.0621 c 0.02952,0.0525 0.03168,0.0654 0.01383,0.0829 -0.03311,0.0326 -1.726511,1.02409 -1.792211,1.04927 -0.01241,0.007 -0.0255,0.007 -0.02911,-0.007 z"
       id="path9830"
       inkscape:connector-curvature="0" />
    <path
       style="opacity:1;fill:#ffffff;stroke-width:0.00174878;stroke-miterlimit:4;stroke-dasharray:none"
       d="m 14.049446,291.22293 c 9.34e-4,-0.13784 0.03063,-0.35132 0.06175,-0.44484 0.103228,-0.31019 0.399635,-0.56368 0.738764,-0.63183 0.25051,-0.0504 0.580116,0.0256 0.753487,0.1736 l 0.05065,0.0434 -0.397661,0.23043 c -0.677032,0.39234 -1.191856,0.68721 -1.199795,0.68721 -0.004,0 -0.0075,-0.026 -0.0072,-0.0575 z"
       id="path9832"
       inkscape:connector-curvature="0" />
    <path
       style="fill:#000000;stroke-width:0.0154661"
       d="m 11.847506,287.19993 c -0.02953,-0.0161 -0.06776,-0.0478 -0.08507,-0.0705 -0.03071,-0.0413 -0.03156,-0.0642 -0.03561,-1.00761 l -0.0039,-0.96548 H 11.06948 c -0.744639,0 -0.731108,0.004 -0.795923,-0.12427 l -0.0348,-0.0679 v -1.58976 c 0,-1.26151 -0.0037,-1.5897 -0.01936,-1.58961 -0.01062,7e-5 -0.03619,0.0245 -0.05677,0.0552 -0.09518,0.13977 -0.2857695,0.265 -0.4689226,0.30818 -0.5290868,0.12479 -1.0378261,-0.34196 -0.960187,-0.88089 0.052946,-0.36751 0.3543375,-0.65279 0.7217348,-0.6831 0.2371081,-0.0192 0.4778762,0.074 0.6422788,0.24981 0.05214,0.0561 0.0948,0.10805 0.0948,0.11623 0,0.009 0.06094,0.015 0.141179,0.015 h 0.141184 l 0.105017,-0.0991 c 0.119052,-0.11229 0.251168,-0.19094 0.409123,-0.24357 l 0.108264,-0.0362 1.137823,-0.009 c 1.137349,-0.009 1.137841,-0.009 1.17929,0.0281 0.05707,0.0447 0.05745,0.12387 8.58e-4,0.16845 -0.03988,0.0311 -0.05589,0.032 -0.751634,0.032 h -0.710904 l 0.107521,0.11513 c 0.113879,0.12196 0.196305,0.26747 0.245766,0.43392 0.02571,0.0866 0.02788,0.22885 0.03243,2.13045 l 0.0048,2.03762 h 1.275516 1.275513 v -1.97679 c 0,-1.36204 -0.0051,-2.00533 -0.01691,-2.06859 -0.0449,-0.24428 -0.215576,-0.47022 -0.437502,-0.57926 -0.148411,-0.0729 -0.240924,-0.0924 -0.438041,-0.0924 -0.0802,0 -0.158344,-0.009 -0.173629,-0.0151 -0.0426,-0.0232 -0.06732,-0.0955 -0.04891,-0.14375 0.02611,-0.069 0.06461,-0.0778 0.286282,-0.0696 0.3203,0.0122 0.511797,0.0877 0.718569,0.2826 l 0.106173,0.10017 h 0.14112 c 0.08021,0 0.141181,-0.009 0.141181,-0.015 0,-0.009 0.04267,-0.0608 0.09479,-0.1162 0.164405,-0.1758 0.405172,-0.26945 0.64228,-0.24988 0.344281,0.0288 0.628523,0.27569 0.708916,0.6167 0.113898,0.48307 -0.274324,0.97018 -0.773215,0.97018 -0.237629,0 -0.514791,-0.14267 -0.643076,-0.33104 -0.02056,-0.0299 -0.04607,-0.055 -0.05662,-0.0551 -0.01512,-7e-5 -0.02004,0.55385 -0.02318,2.64346 -0.0036,2.64276 -0.0037,2.64357 -0.03597,2.68628 -0.01757,0.0233 -0.0511,0.0569 -0.0746,0.0747 -0.04235,0.0316 -0.05466,0.0319 -1.576585,0.0362 -1.471068,0.008 -1.536077,0.005 -1.587513,-0.0246 z m 0.262159,-2.92171 c -2.91e-4,-2.97052 0.0034,-2.82862 -0.0904,-3.01553 -0.0573,-0.1135 -0.184796,-0.25575 -0.288253,-0.32159 -0.250618,-0.15946 -0.552185,-0.17237 -0.815446,-0.0351 l -0.09705,0.0504 0.309322,0.01 c 0.23721,0.009 0.325426,0.0152 0.378411,0.0356 0.231237,0.0884 0.388392,0.2742 0.432116,0.51152 0.01179,0.0637 0.01694,0.90336 0.01694,2.78778 v 2.69599 h 0.07736 0.07736 l -2.69e-4,-2.71819 z m 2.784163,2.40884 v -0.30932 h -1.27595 -1.275957 v 0.30932 0.30932 h 1.275957 1.27595 z m 0,-0.73463 v -0.19334 h -1.27595 -1.275957 v 0.19334 0.19333 h 1.275957 1.27595 z m -4.265148,-1.89594 0.0041,-0.8675 0.0365,-0.0299 c 0.04819,-0.0388 0.107773,-0.0371 0.151952,0.008 0.03183,0.0301 0.03579,0.0479 0.03579,0.1624 v 0.12877 h 0.43305 0.433053 v -0.83518 -0.83516 h -0.101258 c -0.08684,0 -0.106626,-0.009 -0.139198,-0.0377 -0.04837,-0.0487 -0.04837,-0.10769 0,-0.15607 0.03195,-0.0319 0.05283,-0.0377 0.131463,-0.0377 0.109355,0 0.113212,-0.009 0.05546,-0.12248 -0.04666,-0.092 -0.143121,-0.17714 -0.237169,-0.20921 -0.104823,-0.036 -1.9298332,-0.0367 -1.9988062,-3.8e-4 -0.083819,0.0435 -0.1147466,0.15117 -0.068827,0.23997 0.048291,0.0934 0.037521,0.0922 0.9044392,0.0922 h 0.790263 l 0.038,0.0377 c 0.04839,0.0487 0.04839,0.1077 0,0.15607 -0.03256,0.0322 -0.05231,0.0378 -0.139198,0.0378 h -0.101223 v 0.48014 0.48019 l -0.03801,0.0377 c -0.04214,0.0426 -0.0662,0.0459 -0.121996,0.021 -0.06754,-0.0304 -0.07205,-0.0653 -0.07205,-0.55578 v -0.46324 h -0.07731 -0.07734 v 1.56979 1.56979 h 0.07695 0.07694 z m 1.094602,0.55811 v -0.30931 H 11.290229 10.85718 v 0.30931 0.30935 h 0.433049 0.433053 z m 0,-0.73464 v -0.19333 H 11.290229 10.85718 v 0.19333 0.19334 h 0.433049 0.433053 z m -1.9879923,-1.98552 c 0.039359,-0.0171 0.093869,-0.0477 0.1211406,-0.0673 l 0.049566,-0.0358 -0.2474571,-0.009 c -0.2391156,-0.009 -0.2502834,-0.01 -0.3312925,-0.0542 -0.2422003,-0.13401 -0.28931,-0.44802 -0.096185,-0.64115 0.1052855,-0.10526 0.1737088,-0.12431 0.4495645,-0.12494 l 0.225369,-3.8e-4 -0.038676,-0.0323 c -0.021266,-0.0177 -0.076942,-0.0505 -0.1237283,-0.0729 -0.072035,-0.0343 -0.1063828,-0.0407 -0.2242579,-0.0407 -0.1184074,0 -0.1523027,0.009 -0.2269673,0.0414 -0.1228878,0.0573 -0.219958,0.15267 -0.2795481,0.27371 -0.045446,0.0923 -0.050268,0.11547 -0.050268,0.24161 0,0.11845 0.00617,0.15265 0.040759,0.22643 0.073719,0.15724 0.2071541,0.27263 0.3680033,0.31825 0.096017,0.0276 0.2742326,0.0156 0.3639475,-0.0239 z m 6.3403813,-0.009 c 0.118551,-0.0543 0.216517,-0.15053 0.275836,-0.27101 0.04551,-0.0923 0.05023,-0.11543 0.05023,-0.2419 0,-0.12646 -0.0046,-0.14956 -0.05023,-0.24197 -0.05957,-0.12108 -0.156612,-0.2161 -0.279547,-0.27374 -0.07469,-0.0352 -0.108559,-0.0412 -0.226968,-0.0412 -0.117874,0 -0.152223,0.009 -0.224259,0.0407 -0.04683,0.0226 -0.102462,0.055 -0.123728,0.0729 l -0.03868,0.0323 0.217585,3.9e-4 c 0.278066,0.002 0.353517,0.0211 0.455926,0.1235 0.147405,0.1474 0.162137,0.35803 0.03706,0.53015 -0.03373,0.0464 -0.08281,0.0889 -0.134421,0.1156 -0.07606,0.0394 -0.09717,0.0431 -0.328714,0.0503 l -0.247459,0.009 0.04638,0.0323 c 0.125204,0.0885 0.219925,0.11536 0.374897,0.10709 0.07639,-0.008 0.138686,-0.0181 0.196036,-0.044 z m -0.145109,-0.35856 c 0.05147,-0.0265 0.09228,-0.095 0.09228,-0.15441 0,-0.0593 -0.04083,-0.12777 -0.09228,-0.15437 -0.03735,-0.019 -0.121023,-0.0234 -0.473107,-0.0234 -0.401442,0 -0.427034,0.002 -0.416245,0.0275 0.02501,0.0588 0.06914,0.22974 0.06914,0.26775 0,0.0227 0.0043,0.0448 0.01031,0.0505 0.0056,0.009 0.180012,0.01 0.387422,0.01 0.30683,0 0.385563,-0.009 0.422477,-0.0232 z"
       id="path13681"
       inkscape:connector-curvature="0" />
    <path
       style="fill:none;stroke:#000000;stroke-width:0.000584545;stroke-linecap:butt;stroke-linejoin:miter;stroke-miterlimit:4;stroke-dasharray:none;stroke-opacity:1"
       d="m 13.252422,280.6848 0.703038,0.009"
       id="path13683"
       inkscape:connector-curvature="0" />
    <path
       style="fill:#ffffff;stroke-width:0.00029524;stroke-miterlimit:4;stroke-dasharray:none"
       d="m 12.34817,285.4743 c -2.25e-4,-0.0294 -0.0033,-0.91397 -0.0076,-1.96657 -0.0039,-1.11845 -0.0104,-1.95767 -0.01497,-2.01931 -0.0056,-0.0745 -0.0133,-0.12153 -0.0265,-0.16012 -0.06089,-0.17787 -0.128193,-0.28834 -0.26742,-0.43917 l -0.0669,-0.0723 0.537595,-4.1e-4 c 0.65932,-0.002 0.862851,-0.009 0.899219,-0.0255 0.02893,-0.0155 0.05621,-0.0546 0.05625,-0.0813 l 2.7e-5,-0.0172 h 0.155257 0.155255 l 0.0048,0.024 c 0.0088,0.043 0.03448,0.0761 0.06594,0.0843 0.01581,0.008 0.104328,0.0108 0.196701,0.016 0.185201,0.009 0.234253,0.0172 0.335898,0.0609 0.257398,0.11 0.434804,0.31744 0.496759,0.58087 0.01274,0.0542 0.0138,0.19 0.01673,2.06355 l 0.0033,2.0056 h -1.269775 -1.269863 z"
       id="path13685"
       inkscape:connector-curvature="0" />
    <path
       style="fill:#ffffff;stroke-width:0.00029524;stroke-miterlimit:4;stroke-dasharray:none"
       d="m 11.955609,284.29865 c -0.0027,-1.76961 -0.0064,-2.71863 -0.01168,-2.75997 -0.01026,-0.0808 -0.04049,-0.1713 -0.08205,-0.2455 -0.0467,-0.0836 -0.159893,-0.19526 -0.247584,-0.24436 -0.123755,-0.0695 -0.184039,-0.0787 -0.569551,-0.0888 l -0.214124,-0.009 0.07742,-0.0388 c 0.09532,-0.048 0.166891,-0.0727 0.252252,-0.0879 0.164887,-0.0294 0.340034,-0.005 0.493061,0.0743 0.16919,0.0847 0.348647,0.28755 0.404785,0.45718 0.0435,0.13135 0.04771,0.42042 0.04803,3.2672 l 2.52e-4,2.36886 h -0.07354 -0.07354 z"
       id="path13687"
       inkscape:connector-curvature="0" />
    <path
       style="fill:#ffffff;stroke-width:0.00029524;stroke-miterlimit:4;stroke-dasharray:none"
       d="m 10.473807,283.3515 v -1.56623 h 0.0736 0.07359 l 0.0033,0.45502 c 0.0033,0.47649 0.0056,0.5078 0.03854,0.54272 0.02234,0.0236 0.07868,0.0439 0.104142,0.0376 0.01129,-0.005 0.03781,-0.0215 0.0589,-0.0412 l 0.03836,-0.0362 v -0.47935 -0.47933 h 0.08615 c 0.09742,0 0.126343,-0.009 0.157987,-0.0457 0.0415,-0.0496 0.03552,-0.10936 -0.01578,-0.15881 l -0.02915,-0.0282 -0.757721,-0.008 c -0.7757084,-0.008 -0.8399524,-0.009 -0.8901192,-0.0352 -0.03401,-0.0191 -0.066798,-0.0874 -0.066798,-0.13823 0,-0.0492 0.029867,-0.1136 0.063279,-0.1374 0.043526,-0.0306 0.1319352,-0.0343 1.0029982,-0.0343 0.888392,8e-5 0.980195,0.007 1.051805,0.0367 0.08639,0.0399 0.177823,0.13591 0.217585,0.22872 0.02946,0.069 0.01786,0.0798 -0.08422,0.0813 -0.06994,0.002 -0.102304,0.0142 -0.131516,0.052 -0.0409,0.0541 -0.0285,0.11837 0.03123,0.16308 0.01848,0.0141 0.03521,0.0165 0.118644,0.0186 l 0.09711,0.005 v 0.8313 0.83129 h -0.42569 -0.42573 l -8.15e-4,-0.0608 c -3.07e-4,-0.0334 -0.0033,-0.0912 -0.0065,-0.12901 -0.005,-0.0562 -0.0094,-0.0719 -0.02488,-0.0889 -0.04699,-0.0502 -0.102623,-0.056 -0.160544,-0.0162 l -0.038,0.0257 -0.0046,0.36636 c -0.0029,0.20155 -0.0052,0.59225 -0.0057,0.86831 l -9.58e-4,0.50188 h -0.0741 -0.0742 z"
       id="path13689"
       inkscape:connector-curvature="0" />
    <path
       style="fill:#ffffff;stroke-width:0.00029524;stroke-miterlimit:4;stroke-dasharray:none"
       d="m 10.864384,283.87877 v -0.18749 h 0.425731 0.42573 v 0.18749 0.18749 h -0.42573 -0.425731 z"
       id="path13691"
       inkscape:connector-curvature="0" />
    <path
       style="fill:#ffffff;stroke-width:0.00029524;stroke-miterlimit:4;stroke-dasharray:none"
       d="m 10.864384,284.61306 v -0.30465 h 0.425731 0.42573 v 0.30465 0.30464 h -0.42573 -0.425731 z"
       id="path13693"
       inkscape:connector-curvature="0" />
    <path
       style="fill:#ffffff;stroke-width:0.00029524;stroke-miterlimit:4;stroke-dasharray:none"
       d="m 9.3688413,281.91388 c -0.1450842,-0.0397 -0.28446,-0.15907 -0.3549751,-0.30371 -0.038771,-0.0795 -0.047686,-0.12348 -0.047686,-0.23503 0,-0.11412 0.00918,-0.1559 0.053182,-0.24161 0.064743,-0.12615 0.1430078,-0.2028 0.2741545,-0.26841 l 0.073462,-0.0365 0.1315104,-0.005 c 0.1570051,-0.007 0.1988661,0.009 0.3037183,0.0693 0.1062421,0.0636 0.1067571,0.0627 -0.023898,0.0627 -0.1626066,3.1e-4 -0.3405315,0.0126 -0.3902979,0.0277 -0.059381,0.0171 -0.1076928,0.05 -0.1655445,0.11163 -0.058171,0.0621 -0.089203,0.12158 -0.1064443,0.20499 -0.035558,0.17197 0.060243,0.35835 0.226095,0.43986 0.071574,0.0355 0.113132,0.0409 0.3647645,0.0483 l 0.1899799,0.009 -0.033739,0.0231 c -0.062757,0.0428 -0.1546828,0.0845 -0.2100882,0.0964 -0.068677,0.0147 -0.2308619,0.0145 -0.2841722,-3.8e-4 z"
       id="path13695"
       inkscape:connector-curvature="0" />
    <path
       style="fill:#ffffff;stroke-width:0.00029524;stroke-miterlimit:4;stroke-dasharray:none"
       d="m 15.221369,281.54566 c -0.09551,-0.005 -0.09963,-0.008 -0.1027,-0.0208 -0.0018,-0.01 -0.0071,-0.0426 -0.0116,-0.0726 -0.0042,-0.03 -0.02053,-0.0956 -0.03549,-0.14451 -0.0178,-0.0587 -0.02443,-0.0917 -0.0194,-0.0969 0.01037,-0.0102 0.629709,-0.015 0.758429,-0.009 0.07325,0.009 0.105985,0.0109 0.124985,0.0228 0.03447,0.0199 0.07442,0.081 0.08075,0.12331 0.01196,0.0798 -0.0466,0.16684 -0.123737,0.18399 -0.04181,0.01 -0.481337,0.0162 -0.671359,0.01 z"
       id="path13697"
       inkscape:connector-curvature="0" />
    <path
       style="fill:#ffffff;stroke-width:0.00029524;stroke-miterlimit:4;stroke-dasharray:none"
       d="m 15.70517,281.91733 c -0.04843,-0.0112 -0.10687,-0.0385 -0.173379,-0.0808 l -0.06249,-0.0392 0.03905,-0.004 c 0.02152,-0.002 0.123568,-0.009 0.22686,-0.01 0.223737,-0.01 0.260571,-0.0171 0.348086,-0.0806 0.160791,-0.11555 0.217407,-0.33784 0.129896,-0.51006 -0.04975,-0.0979 -0.139865,-0.17863 -0.231037,-0.20688 -0.05794,-0.0176 -0.219398,-0.0301 -0.40262,-0.0303 l -0.108483,-2.7e-4 0.03024,-0.0236 c 0.01664,-0.0131 0.0668,-0.0427 0.111497,-0.0641 l 0.08126,-0.0409 0.134604,-0.005 c 0.127114,-0.005 0.137747,-0.002 0.190984,0.0169 0.08482,0.0297 0.137515,0.0638 0.216042,0.14216 0.06223,0.0621 0.07641,0.0814 0.113269,0.15539 l 0.04216,0.0845 v 0.14928 0.14927 l -0.02909,0.0612 c -0.0803,0.16894 -0.21247,0.28531 -0.369718,0.32552 -0.0655,0.0165 -0.228617,0.0209 -0.287065,0.009 z"
       id="path13699"
       inkscape:connector-curvature="0" />
    <path
       style="fill:#ffffff;stroke-width:0.00029524;stroke-miterlimit:4;stroke-dasharray:none"
       d="m 12.348581,285.95274 v -0.19138 h 1.269375 1.26938 v 0.19138 0.19138 h -1.26938 -1.269375 z"
       id="path13701"
       inkscape:connector-curvature="0" />
    <path
       style="fill:#ffffff;stroke-width:0.00029524;stroke-miterlimit:4;stroke-dasharray:none"
       d="m 12.348581,286.68702 v -0.30853 h 1.269375 1.26938 v 0.30853 0.30852 h -1.26938 -1.269375 z"
       id="path13703"
       inkscape:connector-curvature="0" />
  </g>
</svg>
