<?xml version="1.0" encoding="UTF-8" standalone="no"?>
<!-- Created with Inkscape (http://www.inkscape.org/) -->

<svg
   xmlns:dc="http://purl.org/dc/elements/1.1/"
   xmlns:cc="http://creativecommons.org/ns#"
   xmlns:rdf="http://www.w3.org/1999/02/22-rdf-syntax-ns#"
   xmlns:svg="http://www.w3.org/2000/svg"
   xmlns="http://www.w3.org/2000/svg"
   xmlns:sodipodi="http://sodipodi.sourceforge.net/DTD/sodipodi-0.dtd"
   xmlns:inkscape="http://www.inkscape.org/namespaces/inkscape"
   width="64"
   height="64"
   viewBox="0 0 16.933333 16.933334"
   version="1.1"
   id="svg8"
   inkscape:version="0.92.5 (2060ec1f9f, 2020-04-08)"
   sodipodi:docname="cleaning_machine_64x64.svg">
  <defs
     id="defs2" />
  <sodipodi:namedview
     id="base"
     pagecolor="#ffffff"
     bordercolor="#666666"
     borderopacity="1.0"
     inkscape:pageopacity="0.0"
     inkscape:pageshadow="2"
     inkscape:zoom="7.919596"
     inkscape:cx="27.010968"
     inkscape:cy="25.228057"
     inkscape:document-units="mm"
     inkscape:current-layer="layer1"
     showgrid="false"
     units="px"
     inkscape:window-width="1208"
     inkscape:window-height="987"
     inkscape:window-x="1992"
     inkscape:window-y="0"
     inkscape:window-maximized="1" />
  <metadata
     id="metadata5">
    <rdf:RDF>
      <cc:Work
         rdf:about="">
        <dc:format>image/svg+xml</dc:format>
        <dc:type
           rdf:resource="http://purl.org/dc/dcmitype/StillImage" />
        <dc:title></dc:title>
      </cc:Work>
    </rdf:RDF>
  </metadata>
  <g
     inkscape:label="Layer 1"
     inkscape:groupmode="layer"
     id="layer1"
     transform="translate(0,-280.06665)">
    <path
       style="fill:#000000;stroke-width:0.0311759"
       d="m 8.6060024,296.02576 c -0.2667824,-0.12473 -0.4503166,-0.39851 -0.4503166,-0.67175 0,-0.0637 -0.027366,-0.1265 -0.076521,-0.17566 l -0.076521,-0.0765 -1.2406599,-3.6e-4 c -1.2371505,-3.5e-4 -1.2411046,-4.6e-4 -1.3982723,-0.0737 -0.3551504,-0.16537 -0.5223943,-0.53215 -0.4124033,-0.90442 0.050595,-0.17124 0.3088614,-0.42951 0.4801059,-0.48011 0.094664,-0.028 0.6323016,-0.0379 2.0498158,-0.0379 h 1.9214946 v -0.2494 -0.24941 H 7.0251966 4.6476675 l -0.1451952,0.20021 c -0.3780148,0.52123 -1.0710202,0.83649 -1.7278118,0.78601 -0.2953588,-0.0227 -0.6283238,-0.1268 -0.8788534,-0.27477 -0.2247027,-0.1327 -0.5540462,-0.46205 -0.6867576,-0.68676 -0.40439304,-0.68472 -0.36500428,-1.55 0.099751,-2.19132 l 0.1128934,-0.15584 v -1.61136 c 0,-1.60105 -4.128e-4,-1.61148 -0.064401,-1.63178 -0.1026934,-0.0326 -0.2763273,-0.2007 -0.3505174,-0.33934 -0.062724,-0.11723 -0.06914,-0.17973 -0.078471,-0.76498 -0.00711,-0.44833 0.00155,-0.67946 0.029453,-0.7794 0.05404,-0.19382 0.30268367,-0.4429 0.49511387,-0.49598 0.1055686,-0.0291 0.5453844,-0.0364 1.7770261,-0.0294 1.6158925,0.009 1.6383604,0.0101 1.7643902,0.0775 0.1386457,0.0742 0.306739,0.24782 0.3393331,0.35051 l 0.02044,0.0644 h 2.8972579 2.8972573 v -1.35451 -1.3545 l -0.126965,-0.50826 c -0.106797,-0.42751 -0.124401,-0.54187 -0.110824,-0.71995 0.03109,-0.40784 0.265154,-0.75016 0.638599,-0.93402 0.199032,-0.098 0.218684,-0.10131 0.596819,-0.10131 0.378135,0 0.397787,0.004 0.596819,0.10131 0.373445,0.18386 0.607503,0.52618 0.638599,0.93402 0.01358,0.17808 -0.004,0.29244 -0.110824,0.71995 l -0.126965,0.50826 v 3.34976 3.34977 h 0.186324 0.186325 l 0.375572,0.49881 0.375574,0.49882 h 0.560435 0.560434 v 0.74822 0.74822 h -0.249406 -0.249407 v 0.99386 0.99387 l 0.381904,0.0137 c 0.33773,0.0121 0.400717,0.0233 0.544537,0.0973 0.3592,0.18468 0.554005,0.49911 0.554005,0.8942 0,0.40344 -0.207077,0.72846 -0.573649,0.90037 l -0.174164,0.0817 -3.429349,0.008 -3.4293485,0.008 z m 7.0510756,-0.50498 c 0.163594,-0.12215 0.214643,-0.22179 0.214643,-0.41895 0,-0.19715 -0.05105,-0.2968 -0.214642,-0.41894 -0.08541,-0.0638 -0.110326,-0.0643 -3.170221,-0.0725 l -3.0841364,-0.008 v -0.24895 -0.24896 H 7.4839873 5.5652517 l -0.076521,0.0765 c -0.1012391,0.10124 -0.1012391,0.24453 0,0.34576 l 0.076521,0.0765 h 1.2214544 c 0.8368036,0 1.2594835,0.0114 1.3422169,0.0362 0.2652515,0.0795 0.5245778,0.42016 0.5252722,0.69008 2.123e-4,0.0839 0.022646,0.14066 0.077241,0.19526 l 0.076931,0.0769 3.3813128,-0.008 c 3.360086,-0.008 3.381853,-0.008 3.467399,-0.0725 z m -5.256728,-2.4142 v -0.99763 H 10.150943 9.9015349 v 0.99763 0.99763 h 0.2494081 0.249407 z m 0.997629,0 v -0.99763 h -0.249407 -0.249407 v 0.99763 0.99763 h 0.249407 0.249407 z m 0.997629,0 v -0.99763 h -0.249407 -0.249408 v 0.99763 0.99763 h 0.249408 0.249407 z m 0.997629,0 v -0.99763 h -0.249408 -0.249407 v 0.99763 0.99763 h 0.249407 0.249408 z m 0.997628,0 v -0.99763 h -0.249406 -0.249408 v 0.99763 0.99763 h 0.249408 0.249406 z m -11.1155035,0.45108 c 0.7984018,-0.20796 1.2946402,-1.02595 1.0927117,-1.80121 -0.1408174,-0.54063 -0.5550141,-0.95616 -1.0927117,-1.09621 -0.7801268,-0.2032 -1.597365,0.29073 -1.8059341,1.09148 -0.2778665,1.06681 0.7391314,2.0838 1.8059341,1.80594 z M 2.615723,293.05043 c -0.2960486,-0.10578 -0.4494937,-0.24221 -0.60416,-0.53715 -0.059999,-0.11442 -0.073058,-0.18672 -0.073004,-0.40433 5.29e-5,-0.22725 0.012093,-0.28816 0.084531,-0.42763 0.1072855,-0.20656 0.2608546,-0.36014 0.4674198,-0.46742 0.1395105,-0.0724 0.2003056,-0.0845 0.4276264,-0.0845 0.2273208,0 0.2881167,0.012 0.4276263,0.0845 0.089443,0.0465 0.2140287,0.13586 0.2768477,0.19869 0.3749683,0.37497 0.3730965,1.01962 -0.0041,1.39678 -0.2535687,0.25357 -0.6805745,0.35621 -1.00283,0.24106 z m 0.4997177,-0.4852 c 0.3203209,-0.13383 0.3984077,-0.55377 0.149296,-0.80289 -0.350264,-0.35025 -0.9242329,-0.0365 -0.8320576,0.45481 0.05506,0.29351 0.3966251,0.46765 0.6827616,0.34808 z M 5.39104,292.4207 c 0.034438,-0.22454 0.00392,-0.7154 -0.059015,-0.94974 -0.2296155,-0.85475 -0.9366111,-1.55691 -1.7904048,-1.77815 -0.4397739,-0.11396 -1.002605,-0.091 -1.4184684,0.0579 l -0.1870554,0.067 -0.00902,0.27275 c -0.00492,0.15001 -0.00319,0.27274 0.00392,0.27274 0.00711,0 0.090783,-0.0344 0.18595,-0.0765 0.2700421,-0.11943 0.6463783,-0.18428 0.9465031,-0.1631 0.4769099,0.0336 0.9050211,0.23264 1.2562675,0.58388 0.3828401,0.38284 0.5652807,0.80407 0.5732818,1.32365 0.00264,0.17147 -0.00601,0.37195 -0.019155,0.44553 l -0.023958,0.13377 0.2574235,-0.009 0.2574244,-0.009 z m 4.0116816,-0.0623 V 292.109 H 9.1533138 8.9039074 v -0.74823 -0.74821 h 0.5604348 0.5604358 l 0.375572,-0.49882 0.375573,-0.49882 h 0.186324 0.186325 v -0.99763 -0.99762 H 6.5345389 1.9205058 v 0.82616 c 0,0.45438 0.00611,0.82616 0.013615,0.82616 0.00747,0 0.1302418,-0.0283 0.2727888,-0.0631 1.5869699,-0.38603 3.1630106,0.55086 3.6015916,2.14099 0.074617,0.27054 0.084814,0.3635 0.085807,0.78245 l 0.00109,0.47543 h 1.7536477 1.7536438 v -0.24941 z m -6.983402,-3.99051 v -0.24941 h 0.2494078 0.2494068 v 0.24941 0.2494 H 2.6687274 2.4193196 Z m 0.9976293,0 v -0.24941 h 0.2494069 0.2494077 v 0.24941 0.2494 H 3.6663558 3.4169489 Z m 0.9976284,0 v -0.24941 h 0.2494078 0.2494068 v 0.24941 0.2494 H 4.6639851 4.4145773 Z m 10.4751027,2.99288 v -0.2494 H 12.146201 9.4027216 v 0.2494 0.24942 h 2.7434794 2.743479 z m -1.434091,-0.99762 -0.189858,-0.24941 h -1.11953 -1.119531 l -0.189858,0.24941 -0.189856,0.24941 h 1.499245 1.499245 z m -0.810574,-3.99052 v -3.2423 h -0.498814 -0.498815 v 3.2423 3.24229 h 0.498815 0.498814 z m -7.8081461,0.6717 c 0.075901,-0.0759 0.076521,-0.0814 0.076521,-0.6717 0,-0.59035 -6.242e-4,-0.5958 -0.076521,-0.6717 l -0.076521,-0.0765 H 3.1675429 1.5747371 l -0.076521,0.0765 c -0.075902,0.0759 -0.076521,0.0814 -0.076521,0.6717 0,0.59035 6.243e-4,0.5958 0.076521,0.6717 l 0.076521,0.0765 h 1.5928058 1.5928049 z m 6.3117031,-0.42229 v -0.49881 H 8.2803897 5.4122066 v 0.40138 c 0,0.22077 -0.00875,0.44523 -0.019483,0.49882 l -0.019483,0.0974 h 2.8876666 2.8876668 z m 1.648462,-4.3794 c 0.112438,-0.44898 0.117623,-0.54664 0.0381,-0.71787 -0.126272,-0.27187 -0.329801,-0.38794 -0.682143,-0.38901 -0.253646,-7e-4 -0.410427,0.0508 -0.548508,0.18024 -0.110959,0.10404 -0.204913,0.30126 -0.205821,0.43204 -5.66e-4,0.0821 0.116057,0.63762 0.174036,0.82893 0.01495,0.0493 0.07006,0.0546 0.571742,0.0546 h 0.555205 z m -0.823718,-0.18646 c -0.154639,-0.15463 -0.04506,-0.42229 0.172885,-0.42229 0.128167,0 0.249407,0.12124 0.249407,0.24941 0,0.12817 -0.12124,0.24941 -0.249407,0.24941 -0.06074,0 -0.124648,-0.0283 -0.172885,-0.0765 z m -5.3670776,3.01327 c -0.2960486,-0.10578 -0.4494937,-0.24221 -0.60416,-0.53716 -0.059999,-0.11441 -0.073058,-0.18671 -0.073004,-0.40432 6.2e-5,-0.22725 0.012093,-0.28817 0.084531,-0.42763 0.1072854,-0.20657 0.2608545,-0.36014 0.4674197,-0.46742 0.1395097,-0.0725 0.2003056,-0.0845 0.4276264,-0.0845 0.2273208,0 0.2881167,0.012 0.4276263,0.0845 0.089443,0.0465 0.2140288,0.13586 0.2768477,0.19869 0.3749683,0.37497 0.3730965,1.01962 -0.00401,1.39677 -0.2535687,0.25358 -0.6805745,0.35622 -1.00283,0.24107 z m 0.4997177,-0.4852 c 0.3203209,-0.13383 0.3984077,-0.55378 0.1492961,-0.80289 -0.2022239,-0.20222 -0.4909812,-0.20222 -0.6932051,0 -0.3855383,0.38554 0.03986,1.0135 0.543909,0.80289 z m -3.2431969,-1.01124 c -0.2960486,-0.10578 -0.4494938,-0.24221 -0.60416,-0.53716 -0.059999,-0.11441 -0.073058,-0.18672 -0.073004,-0.40433 5.29e-5,-0.22725 0.012093,-0.28816 0.084531,-0.42762 0.1072855,-0.20657 0.2608545,-0.36014 0.4674198,-0.46742 0.1395096,-0.0725 0.2003055,-0.0845 0.4276263,-0.0845 0.2273208,0 0.2881168,0.012 0.4276264,0.0845 0.089452,0.0465 0.2140287,0.13586 0.2768477,0.19868 0.3749674,0.37497 0.3730956,1.01963 -0.00401,1.39678 -0.2535687,0.25357 -0.6805745,0.35621 -1.00283,0.24107 z m 0.4997177,-0.4852 c 0.3203209,-0.13384 0.3984076,-0.55378 0.149296,-0.80289 -0.2022238,-0.20223 -0.4909812,-0.20223 -0.693205,0 -0.3855384,0.38554 0.03986,1.01349 0.543909,0.80289 z m 4.2390192,-0.51243 c -0.2960486,-0.10578 -0.4494937,-0.24221 -0.60416,-0.53716 -0.059999,-0.11442 -0.073058,-0.18672 -0.073004,-0.40433 6.19e-5,-0.22725 0.012093,-0.28816 0.084531,-0.42762 0.1072845,-0.20656 0.2608545,-0.36013 0.4674197,-0.46742 0.1395097,-0.0725 0.2003056,-0.0845 0.4276264,-0.0845 0.2273203,0 0.2881163,0.012 0.4276259,0.0845 0.089443,0.0465 0.2140287,0.13586 0.2768477,0.19868 0.3749671,0.37497 0.3730951,1.01963 -0.00401,1.39678 -0.2535687,0.25357 -0.6805741,0.35622 -1.0028296,0.24107 z m 0.4997178,-0.48522 c 0.3203194,-0.13385 0.3984071,-0.55379 0.1492955,-0.8029 -0.2022234,-0.20222 -0.4909807,-0.20222 -0.6932046,0 -0.3855383,0.38554 0.03986,1.01349 0.5439091,0.8029 z"
       id="path8929"
       inkscape:connector-curvature="0" />
    <path
       style="fill:#ffffff;stroke-width:0.0035708;stroke-miterlimit:4;stroke-dasharray:none"
       d="m 1.5065789,287.02684 c -0.06061,-0.077 -0.065267,-0.12396 -0.065267,-0.65709 0,-0.53313 0.00465,-0.58004 0.065267,-0.65709 l 0.065267,-0.083 H 3.154437 4.737029 l 0.076348,0.0813 c 0.075036,0.0798 0.076348,0.0911 0.076348,0.65485 0,0.49607 -0.00756,0.58511 -0.055835,0.6588 l -0.055835,0.0852 H 3.1749545 1.5718529 Z"
       id="path8931"
       inkscape:connector-curvature="0" />
    <path
       style="fill:#ffffff;stroke-width:0.0035708;stroke-miterlimit:4;stroke-dasharray:none"
       d="m 5.4219683,286.62174 0.028359,-0.48818 h 2.8453207 2.845321 v 0.48813 0.48813 l -2.8736831,6e-5 -2.8736828,6e-5 0.028359,-0.4882 z"
       id="path8933"
       inkscape:connector-curvature="0" />
    <path
       style="fill:#ffffff;stroke-width:0.0035708;stroke-miterlimit:4;stroke-dasharray:none"
       d="m 6.7132815,284.56304 c -0.2353202,-0.10884 -0.341595,-0.38047 -0.239318,-0.61168 0.1549916,-0.35038 0.5806805,-0.40339 0.8113066,-0.10103 0.1159209,0.15199 0.1280702,0.40392 0.026081,0.54087 -0.1454622,0.19534 -0.3933008,0.26654 -0.5980696,0.17184 z"
       id="path8935"
       inkscape:connector-curvature="0" />
    <path
       style="fill:#ffffff;stroke-width:0.0035708;stroke-miterlimit:4;stroke-dasharray:none"
       d="m 8.6606563,282.03972 c -0.385286,-0.23492 -0.2536335,-0.82338 0.195534,-0.87401 0.4949922,-0.0558 0.7196575,0.61397 0.2931739,0.87401 -0.134744,0.0821 -0.3539634,0.0821 -0.4887079,0 z"
       id="path8937"
       inkscape:connector-curvature="0" />
    <path
       style="fill:#ffffff;stroke-width:0.0035708;stroke-miterlimit:4;stroke-dasharray:none"
       d="m 3.9764474,283.07362 c -0.2060331,-0.11367 -0.3251626,-0.3402 -0.2820758,-0.53638 0.030164,-0.13733 0.2197261,-0.33374 0.3580638,-0.37099 0.3289782,-0.0886 0.6616725,0.25571 0.5713225,0.59124 -0.071081,0.26397 -0.4268946,0.43773 -0.6473105,0.31613 z"
       id="path8939"
       inkscape:connector-curvature="0" />
    <path
       style="fill:#ffffff;stroke-width:0.0035708;stroke-miterlimit:4;stroke-dasharray:none"
       d="m 11.676343,286.36975 v -3.22797 h 0.472386 0.472386 v 3.22797 3.22797 h -0.472386 -0.472386 z"
       id="path8941"
       inkscape:connector-curvature="0" />
    <path
       style="fill:#ffffff;stroke-width:0.0035708;stroke-miterlimit:4;stroke-dasharray:none"
       d="m 11.579093,282.52055 c -0.05016,-0.13169 -0.15469,-0.66207 -0.15469,-0.78491 0,-0.0594 0.02697,-0.16058 0.05992,-0.22485 0.128358,-0.25029 0.324062,-0.35303 0.672467,-0.35303 0.287257,0 0.469858,0.0829 0.602156,0.27334 0.12928,0.1861 0.135135,0.35519 0.02761,0.7974 l -0.08806,0.36216 -0.543065,0.008 -0.543065,0.008 z m 0.756305,-0.46951 c 0.08834,-0.11231 0.08359,-0.24798 -0.01203,-0.3436 -0.161257,-0.16125 -0.42658,-0.0554 -0.42658,0.17023 0,0.23909 0.295142,0.35576 0.43861,0.17337 z"
       id="path8943"
       inkscape:connector-curvature="0" />
    <path
       style="fill:#ffffff;stroke-width:0.0035708;stroke-miterlimit:4;stroke-dasharray:none"
       d="m 5.9046814,292.07775 c -0.018508,-0.56612 -0.067764,-0.79687 -0.2579548,-1.20853 -0.1486854,-0.3218 -0.3107596,-0.55587 -0.5820876,-0.84062 -0.7728546,-0.8111 -1.8540858,-1.09366 -3.0328481,-0.79259 l -0.086609,0.0221 v -0.80647 -0.80647 h 4.5978931 4.597892 v 0.97626 0.97627 h -0.183946 -0.183947 l -0.38403,0.50388 -0.384031,0.50388 H 9.4550096 8.9050064 v 0.75582 0.75581 h 0.2361927 0.2361931 v 0.23619 0.2362 H 7.6493995 5.9214063 Z m -2.9832301,-3.70823 v -0.25194 H 2.669512 2.4175726 v 0.25194 0.25194 H 2.669512 2.9214513 Z m 1.0077574,0 v -0.25194 H 3.6615232 3.3938376 v 0.25194 0.25194 h 0.2676856 0.2676855 z m 1.0077574,0 v -0.25194 H 4.6692806 4.401595 v 0.25194 0.25194 h 0.2676856 0.2676855 z"
       id="path8945"
       inkscape:connector-curvature="0" />
    <path
       style="fill:#ffffff;stroke-width:0.0035708;stroke-miterlimit:4;stroke-dasharray:none"
       d="m 4.8984522,292.23521 c 0.024669,-0.68403 -0.1191696,-1.06464 -0.5747061,-1.52074 -0.3287221,-0.32911 -0.6006934,-0.48246 -0.9994382,-0.56352 -0.3806338,-0.0774 -0.730085,-0.0515 -1.0928803,0.0809 -0.3138835,0.11455 -0.2862413,0.12969 -0.2862413,-0.15678 v -0.25435 l 0.2019277,-0.0623 c 0.447447,-0.1382 0.9705594,-0.15603 1.3988574,-0.0477 0.098195,0.0249 0.2952348,0.10229 0.4378656,0.17212 0.596476,0.29197 1.050435,0.7987 1.2775982,1.42609 0.080996,0.2237 0.09514,0.31319 0.1087326,0.68797 0.00857,0.23695 0.00647,0.46723 -0.00465,0.51175 -0.019493,0.0776 -0.029599,0.0809 -0.2500594,0.0809 H 4.8857142 Z"
       id="path8947"
       inkscape:connector-curvature="0" />
    <path
       style="fill:#ffffff;stroke-width:0.0035708;stroke-miterlimit:4;stroke-dasharray:none"
       d="m 2.6414314,293.5632 c -0.6056736,-0.11895 -1.1446389,-0.71736 -1.1902253,-1.32151 -0.065267,-0.86497 0.6129886,-1.60281 1.4748008,-1.60435 0.6978699,-9.1e-4 1.3218031,0.53131 1.4476771,1.23566 0.173365,0.97009 -0.7602898,1.88108 -1.7322526,1.6902 z m 0.6988842,-0.55726 c 0.5020653,-0.22002 0.716032,-0.83611 0.4664511,-1.34308 -0.1054255,-0.21414 -0.1987108,-0.31001 -0.439311,-0.45144 -0.1322229,-0.0777 -0.1765828,-0.0863 -0.4460044,-0.0863 -0.2516167,0 -0.3206808,0.0115 -0.4344401,0.0723 -0.1977266,0.10558 -0.360065,0.26402 -0.4647414,0.45359 -0.083028,0.15036 -0.092146,0.19529 -0.09144,0.45045 6.826e-4,0.24611 0.012047,0.30508 0.086299,0.44772 0.2616655,0.50269 0.7969,0.68749 1.3231864,0.45686 z"
       id="path8949"
       inkscape:connector-curvature="0" />
    <path
       style="fill:#ffffff;stroke-width:0.0035708;stroke-miterlimit:4;stroke-dasharray:none"
       d="m 2.691794,292.52369 c -0.3704738,-0.19552 -0.3027548,-0.7639 0.1036877,-0.87028 0.3173053,-0.083 0.6180735,0.17155 0.5895574,0.49905 -0.030565,0.35103 -0.3784932,0.53734 -0.6932451,0.37123 z"
       id="path8951"
       inkscape:connector-curvature="0" />
    <path
       style="fill:#ffffff;stroke-width:0.0035708;stroke-miterlimit:4;stroke-dasharray:none"
       d="m 8.75859,295.51304 c -0.037226,-0.0405 -0.084012,-0.15363 -0.1039701,-0.2516 -0.044608,-0.219 -0.1800221,-0.4298 -0.3532969,-0.54996 l -0.1308177,-0.0908 -0.6641239,-0.0203 c -0.3652685,-0.0111 -0.9573812,-0.0218 -1.3158059,-0.0236 -0.6358976,-0.004 -0.6528695,-0.005 -0.7007068,-0.0734 -0.062578,-0.0894 -0.062578,-0.21156 0,-0.3009 l 0.049028,-0.07 H 7.4581481 9.3774 v 0.2362 0.23618 l 0.4330203,0.004 c 0.2381617,0.002 1.6330427,0.0129 3.0997347,0.0236 2.632035,0.0194 2.667869,0.0205 2.755587,0.0848 0.196748,0.1444 0.251852,0.45401 0.117339,0.6593 -0.1306,0.19932 0.08637,0.18734 -3.602856,0.19908 l -3.3539419,0.0107 z"
       id="path8953"
       inkscape:connector-curvature="0" />
    <path
       style="fill:#ffffff;stroke-width:0.0035708;stroke-miterlimit:4;stroke-dasharray:none"
       d="m 9.9127669,293.10913 v -0.99201 h 0.2361931 0.236194 v 0.99201 0.992 H 10.14896 9.9127669 Z"
       id="path8955"
       inkscape:connector-curvature="0" />
    <path
       style="fill:#ffffff;stroke-width:0.0035708;stroke-miterlimit:4;stroke-dasharray:none"
       d="m 10.920524,293.10913 v -0.99201 h 0.236194 0.236193 v 0.99201 0.992 h -0.236193 -0.236194 z"
       id="path8957"
       inkscape:connector-curvature="0" />
    <path
       style="fill:#ffffff;stroke-width:0.0035708;stroke-miterlimit:4;stroke-dasharray:none"
       d="m 11.896789,293.10913 v -0.99201 h 0.236194 0.236193 v 0.99201 0.992 h -0.236193 -0.236194 z"
       id="path8959"
       inkscape:connector-curvature="0" />
    <path
       style="fill:#ffffff;stroke-width:0.0035708;stroke-miterlimit:4;stroke-dasharray:none"
       d="m 12.904547,293.10913 v -0.99201 h 0.236193 0.236193 v 0.99201 0.992 H 13.14074 12.904547 Z"
       id="path8961"
       inkscape:connector-curvature="0" />
    <path
       style="fill:#ffffff;stroke-width:0.0035708;stroke-miterlimit:4;stroke-dasharray:none"
       d="m 13.912304,293.10913 v -0.99201 h 0.236193 0.236194 v 0.99201 0.992 h -0.236194 -0.236193 z"
       id="path8963"
       inkscape:connector-curvature="0" />
    <path
       style="fill:#ffffff;stroke-width:0.0035708;stroke-miterlimit:4;stroke-dasharray:none"
       d="m 9.4088883,291.3613 v -0.22045 h 2.7398407 2.73984 v 0.22045 0.22044 h -2.73984 -2.7398407 z"
       id="path8965"
       inkscape:connector-curvature="0" />
    <path
       style="fill:#ffffff;stroke-width:0.0035708;stroke-miterlimit:4;stroke-dasharray:none"
       d="m 10.700078,290.58914 c 0,-0.009 0.07403,-0.11528 0.16452,-0.2362 l 0.16452,-0.21984 1.118795,0.002 1.118797,0.002 0.157462,0.20777 c 0.0866,0.11427 0.162186,0.21991 0.16796,0.23476 0.0057,0.0148 -0.642577,0.027 -1.440779,0.027 -0.798201,0 -1.451275,-0.007 -1.451275,-0.0163 z"
       id="path8967"
       inkscape:connector-curvature="0" />
  </g>
</svg>
