<?xml version="1.0" encoding="UTF-8" standalone="no"?>
<!-- Created with Inkscape (http://www.inkscape.org/) -->

<svg
   xmlns:dc="http://purl.org/dc/elements/1.1/"
   xmlns:cc="http://creativecommons.org/ns#"
   xmlns:rdf="http://www.w3.org/1999/02/22-rdf-syntax-ns#"
   xmlns:svg="http://www.w3.org/2000/svg"
   xmlns="http://www.w3.org/2000/svg"
   xmlns:sodipodi="http://sodipodi.sourceforge.net/DTD/sodipodi-0.dtd"
   xmlns:inkscape="http://www.inkscape.org/namespaces/inkscape"
   width="64"
   height="64"
   viewBox="0 0 16.933333 16.933334"
   version="1.1"
   id="svg8"
   inkscape:version="0.92.5 (2060ec1f9f, 2020-04-08)"
   sodipodi:docname="cleaning_windows_64x64.svg">
  <defs
     id="defs2" />
  <sodipodi:namedview
     id="base"
     pagecolor="#ffffff"
     bordercolor="#666666"
     borderopacity="1.0"
     inkscape:pageopacity="0.0"
     inkscape:pageshadow="2"
     inkscape:zoom="7.919596"
     inkscape:cx="38.043519"
     inkscape:cy="25.652425"
     inkscape:document-units="mm"
     inkscape:current-layer="layer1"
     showgrid="false"
     units="px"
     inkscape:window-width="1208"
     inkscape:window-height="987"
     inkscape:window-x="1992"
     inkscape:window-y="0"
     inkscape:window-maximized="1" />
  <metadata
     id="metadata5">
    <rdf:RDF>
      <cc:Work
         rdf:about="">
        <dc:format>image/svg+xml</dc:format>
        <dc:type
           rdf:resource="http://purl.org/dc/dcmitype/StillImage" />
        <dc:title></dc:title>
      </cc:Work>
    </rdf:RDF>
  </metadata>
  <g
     inkscape:label="Layer 1"
     inkscape:groupmode="layer"
     id="layer1"
     transform="translate(0,-280.06665)">
    <path
       style="fill:#ffffff;stroke-width:0.02863424;stroke-miterlimit:4;stroke-dasharray:none"
       d=""
       id="path7728"
       inkscape:connector-curvature="0"
       transform="matrix(0.26458333,0,0,0.26458333,0,280.06665)" />
    <path
       style="fill:#ffffff;stroke-width:0.16197975;stroke-miterlimit:4;stroke-dasharray:none"
       d=""
       id="path8005"
       inkscape:connector-curvature="0"
       transform="matrix(0.26458333,0,0,0.26458333,0,280.06665)" />
    <path
       style="fill:#000000;stroke-width:0.03047319"
       d="m 2.204795,296.48766 c -0.5387696,-0.10189 -1.0405245,-0.55966 -1.21236156,-1.10581 -0.0667214,-0.21208 -0.0674993,-0.23673 -0.0668157,-2.11915 5.998e-4,-1.62763 0.008733,-1.97761 0.0557687,-2.40679 0.11163176,-1.01837 0.30844196,-1.90625 0.63296516,-2.85558 l 0.1790559,-0.52382 v -0.4443 -0.44431 l -0.083805,0.0198 c -0.2044707,0.048 -0.5136548,0.17046 -0.6580232,0.26074 -0.21860256,0.13647 -0.36034395,0.13553 -0.48435995,-0.003 l -0.0924417,-0.10352 0.0197606,-0.28097 c 0.0625446,-0.88983 0.53213355,-1.70166 1.27421965,-2.20292 0.2111066,-0.14255 0.6018406,-0.32438 0.8299418,-0.38613 l 0.2003268,-0.0543 v -1.33486 c 0,-0.97003 0.00987,-1.35671 0.036407,-1.41475 0.081034,-0.17787 -0.3600307,-0.16685 6.623522,-0.16685 h 6.4191695 l 0.105172,0.10515 0.105173,0.10514 -0.0091,0.72029 -0.0091,0.72029 -0.08549,0.0735 c -0.115944,0.0997 -0.292029,0.0997 -0.40799,2e-5 l -0.08549,-0.0735 -0.0097,-0.52074 -0.0097,-0.52075 H 12.609524 9.7470509 v 0.51804 c 0,0.28491 0.00547,0.51804 0.011959,0.51804 0.00664,0 0.1087241,-0.0412 0.2268778,-0.0915 0.2676483,-0.11388 0.3438563,-0.11447 0.4684043,-0.003 0.129247,0.11539 0.139555,0.29797 0.02332,0.41309 -0.07401,0.0733 -1.7171174,0.77847 -1.8139536,0.77847 -0.07492,0 -0.2222981,-0.0865 -0.256627,-0.15071 -0.049757,-0.093 -0.036575,-0.26111 0.026724,-0.34161 0.034619,-0.044 0.188585,-0.12718 0.380915,-0.20601 l 0.3228093,-0.13211 v -0.65134 -0.65134 h -2.86455 -2.8644799 v 1.12641 1.12643 l 1.5021841,0.009 c 1.3510147,0.008 1.5101067,0.0133 1.5809002,0.0603 0.076842,0.0503 0.08809,0.0476 0.4709545,-0.11353 0.2157306,-0.0907 0.4297343,-0.16534 0.4755609,-0.1659 0.049768,-4.8e-4 0.1231155,0.0347 0.1821492,0.0874 0.081057,0.0725 0.098815,0.11085 0.098815,0.21332 0,0.17558 -0.08115,0.24203 -0.5166588,0.42349 l -0.3656783,0.15242 -0.0085,0.39481 -0.0085,0.3948 0.2370213,0.10119 c 0.1303664,0.0557 0.2671629,0.12794 0.3040035,0.16078 0.1941977,0.17254 0.050036,0.50894 -0.2180827,0.50894 -0.039638,0 -0.1827955,-0.0475 -0.3181527,-0.10538 l -0.2461051,-0.10538 -0.1298937,0.059 c -0.1117632,0.0507 -0.2016745,0.059 -0.6441001,0.0596 l -0.5142042,6.9e-4 0.015371,0.54091 c 0.01671,0.58146 0.045402,0.72662 0.2079206,1.04863 0.047894,0.0949 0.156259,0.25566 0.2408139,0.35727 0.1816939,0.21833 0.2130197,0.29133 0.1790553,0.41734 -0.041908,0.15546 -0.1299682,0.21134 -0.3266893,0.20731 -0.4637433,-0.009 -1.0457916,-0.27409 -1.4635993,-0.66544 l -0.164212,-0.15375 0.017084,0.47233 c 0.011202,0.30983 0.034642,0.52998 0.068107,0.63993 0.086425,0.28392 0.2619932,0.58275 0.4574892,0.77871 0.2038557,0.20434 0.3957984,0.32351 0.7608806,0.4724 0.7530955,0.30713 1.2348257,0.85576 1.4697719,1.67386 0.037169,0.12946 0.051305,0.36611 0.061506,1.02893 l 0.013286,0.86086 h 1.1551697 1.1551673 v -3.36353 -3.3635 l -0.4315369,-0.179 c -0.3497137,-0.14502 -0.4421391,-0.19631 -0.4874557,-0.27039 -0.076946,-0.12586 -0.070216,-0.23766 0.020867,-0.34588 0.145496,-0.17292 0.1650657,-0.16855 1.2086653,0.26774 0.5800865,0.24252 0.9828395,0.42821 1.0290925,0.47448 0.102773,0.1027 0.104776,0.28569 0.0043,0.39266 -0.11415,0.12147 -0.212517,0.12565 -0.475472,0.0205 -0.1282035,-0.0512 -0.2389362,-0.0934 -0.2460486,-0.0934 -0.00699,0 -0.012902,1.35379 -0.012902,3.00844 v 3.00842 l 1.3042356,-1.30193 1.304237,-1.30192 h 0.133955 c 0.191858,0 0.304892,0.11167 0.304892,0.3013 v 0.13763 l -1.30192,1.30422 -1.301919,1.30425 h 0.867775 0.867772 l 1.774967,-1.77517 1.774965,-1.77516 v -0.86706 -0.86706 l -0.771944,0.76813 -0.771943,0.76811 H 13.79378 c -0.193471,0 -0.298772,-0.1055 -0.298772,-0.29932 v -0.13857 l 0.989341,-0.99233 0.989342,-0.99231 0.0087,-1.19875 0.0087,-1.19873 0.08549,-0.0735 c 0.115979,-0.0997 0.292035,-0.0997 0.407991,2e-5 l 0.08549,0.0736 0.0079,4.48494 0.0079,4.48496 -0.103903,0.10387 -0.103904,0.10387 H 11.349918 6.8216014 l -5.286e-4,0.41901 c -3.005e-4,0.24136 -0.018608,0.50456 -0.043294,0.6208 -0.125888,0.59387 -0.6124728,1.08876 -1.208712,1.2293 -0.160947,0.038 -0.4578557,0.0454 -1.7033559,0.0429 -0.8296342,-10e-4 -1.5769878,-0.0151 -1.6607889,-0.0319 z m 3.4325455,-0.67345 c 0.2005777,-0.0985 0.4003274,-0.30265 0.4935935,-0.50445 0.064859,-0.14027 0.065849,-0.16666 0.065849,-1.75757 0,-1.79982 0.00897,-1.71303 -0.2205374,-2.1554 -0.1418886,-0.27359 -0.4730749,-0.58968 -0.7582412,-0.72369 -0.5951705,-0.27966 -0.7731711,-0.37545 -0.932556,-0.50184 -0.3781318,-0.29986 -0.6935078,-0.79194 -0.8139894,-1.2701 -0.032212,-0.12775 -0.068354,-0.41268 -0.080331,-0.633 l -0.021773,-0.40059 -0.5365659,0.008 -0.5365638,0.008 -0.1163023,0.3352 c -0.3521171,1.01482 -0.5580437,2.06102 -0.6298122,3.19969 -0.041628,0.66032 -0.040564,3.50227 0.00137,3.69781 0.070099,0.32682 0.3602433,0.65246 0.6685694,0.7503 0.1124864,0.0358 0.4163271,0.0425 1.6912624,0.0376 l 1.5541321,-0.006 0.1719184,-0.0844 z m 9.8385305,-3.55713 c 0,-0.73744 -0.0034,-1.34082 -0.0078,-1.34082 -0.0042,0 -0.611002,0.60338 -1.34831,1.34082 L 12.7792,293.5979 h 1.348308 1.34831 z M 4.8223892,287.41946 c -0.094017,-0.28216 -0.1340309,-0.60801 -0.1340309,-1.09162 v -0.40918 h -0.071885 c -0.046012,0 -0.1666037,0.0829 -0.3352044,0.23084 -0.1448316,0.12699 -0.2631644,0.23323 -0.2629652,0.23617 2.184e-4,0.003 0.018602,0.0738 0.040982,0.15774 0.093162,0.34938 0.3459386,0.73325 0.6315054,0.95897 0.085475,0.0675 0.1654648,0.12281 0.1777651,0.12281 0.012338,0 -0.00855,-0.0926 -0.046183,-0.20569 z m -1.4443769,-0.51043 v -0.35044 H 2.8904425 2.4028708 v 0.35044 0.35045 h 0.4875717 0.4875698 z m -1.8588646,-0.87487 c 0.1992107,-0.0541 0.3475255,-0.0639 1.155397,-0.0768 l 0.9268461,-0.0151 0.3608109,-0.31666 0.3608091,-0.31665 H 4.597105 4.8711991 v -0.4594 -0.45937 l -0.9522874,0.0116 c -1.0500554,0.0133 -1.1230083,0.0238 -1.5321717,0.22055 -0.558152,0.26837 -1.0493302,0.84118 -1.1986036,1.39781 -0.030257,0.11295 -0.028891,0.11655 0.035496,0.0964 0.036844,-0.0116 0.1698117,-0.049 0.2955228,-0.0831 z M 6.21202,284.85209 V 284.395 H 5.8463406 5.4806623 v 0.45709 0.4571 H 5.8463406 6.21202 Z m 6.551737,2.76458 c -0.118276,-0.059 -0.182738,-0.22035 -0.182796,-0.4572 -6e-5,-0.27258 0.05744,-0.40697 0.199545,-0.46635 0.08709,-0.0364 0.131772,-0.0391 0.211914,-0.0133 0.162352,0.0536 0.197958,0.13875 0.197958,0.47322 0,0.32428 -0.02136,0.38842 -0.15176,0.45584 -0.10763,0.0557 -0.174196,0.0573 -0.274869,0.008 z m -1.240007,-1.24121 c -0.09747,-0.0392 -0.174083,-0.17387 -0.170514,-0.29969 0.0023,-0.0828 0.02712,-0.13116 0.100829,-0.19705 0.09633,-0.0859 0.10225,-0.0871 0.416909,-0.0771 0.306213,0.009 0.322174,0.0133 0.392677,0.0958 0.04747,0.0552 0.0735,0.12338 0.0735,0.19247 0,0.23719 -0.125584,0.31714 -0.493676,0.31432 -0.1391,-10e-4 -0.282973,-0.0133 -0.319706,-0.0289 z m 2.102651,0 c -0.09748,-0.0392 -0.174083,-0.17387 -0.170514,-0.29969 0.0023,-0.0828 0.02712,-0.13116 0.100829,-0.19705 0.09633,-0.0859 0.102238,-0.0871 0.416906,-0.0771 0.306213,0.009 0.322177,0.0133 0.392678,0.0958 0.04747,0.0552 0.0735,0.12338 0.0735,0.19247 0,0.23719 -0.125584,0.31714 -0.493677,0.31432 -0.139098,-10e-4 -0.282971,-0.0133 -0.319706,-0.0289 z m -0.862644,-0.86144 c -0.138188,-0.0691 -0.187883,-0.21705 -0.175069,-0.52143 0.01106,-0.26246 0.01461,-0.27373 0.112788,-0.36151 0.08773,-0.0784 0.118237,-0.0883 0.22653,-0.0738 0.08327,0.0116 0.148097,0.0434 0.193754,0.0967 0.0613,0.0711 0.06862,0.11237 0.06862,0.38481 0,0.33683 -0.02063,0.40049 -0.151761,0.46832 -0.107629,0.0557 -0.174196,0.0573 -0.274868,0.008 z m -4.3424306,-0.41648 c -0.1894957,-0.0777 -0.2406404,-0.33859 -0.094925,-0.48438 l 0.080999,-0.0811 0.9726548,-0.009 0.9726578,-0.009 0.100188,0.0895 c 0.08318,0.0744 0.100166,0.1112 0.100166,0.21762 0,0.10608 -0.01708,0.14332 -0.09882,0.21644 l -0.09882,0.0883 -0.9365698,-0.002 c -0.5151124,-10e-4 -0.963996,-0.0133 -0.9975157,-0.0269 z m 7.1552816,-1.08082 c -0.071,-0.0611 -0.08549,-0.0978 -0.08549,-0.21595 0,-0.18222 0.107338,-0.2895 0.289494,-0.2895 0.18215,0 0.289496,0.10748 0.289496,0.2895 0,0.18224 -0.107338,0.2895 -0.289496,0.2895 -0.08132,0 -0.145306,-0.0232 -0.203994,-0.0735 z"
       id="path8190"
       inkscape:connector-curvature="0" />
    <path
       style="fill:#00ffff;stroke:#000000;stroke-width:0.00345523;stroke-linecap:butt;stroke-linejoin:miter;stroke-miterlimit:4;stroke-dasharray:none;stroke-opacity:1"
       d="m 16.070098,282.57198 v 2.4577"
       id="path8192"
       inkscape:connector-curvature="0" />
    <path
       style="fill:#ffffff;stroke-width:0.0034903;stroke-miterlimit:4;stroke-dasharray:none"
       d="m 6.8253893,292.7127 -0.017653,-0.87297 -0.096614,-0.28841 C 6.5467206,291.06061 6.285961,290.67397 5.933335,290.39806 5.8034995,290.29652 5.5240064,290.13468 5.2361583,289.99452 4.8013961,289.7828 4.7352102,289.73967 4.5402247,289.54103 4.3094756,289.30594 4.124879,288.98495 4.0644844,288.71378 c -0.018033,-0.0807 -0.041551,-0.33701 -0.052371,-0.56948 -0.019229,-0.41289 -0.018412,-0.42153 0.038742,-0.37331 0.5500486,0.46479 1.0044875,0.68758 1.4744152,0.7228 0.2638267,0.0197 0.3544309,-0.0203 0.4070893,-0.18051 0.04829,-0.14693 0.026666,-0.20204 -0.1976852,-0.50463 -0.328883,-0.44357 -0.3943818,-0.67237 -0.4192089,-1.46455 l -0.013286,-0.42326 h 0.498525 c 0.3765507,0 0.5339496,-0.0116 0.6432967,-0.0494 0.1431985,-0.0488 0.1473183,-0.0482 0.3825697,0.0463 0.3035237,0.12206 0.4147362,0.1232 0.5326047,0.006 0.068318,-0.0684 0.089977,-0.11864 0.089977,-0.20863 0,-0.1716 -0.057477,-0.23137 -0.3520776,-0.36609 l -0.2630093,-0.12034 1.234e-4,-0.32323 c 1.864e-4,-0.43652 0.00326,-0.44394 0.2100493,-0.52606 0.2689946,-0.10666 0.5363065,-0.24365 0.6126812,-0.31377 0.096462,-0.0886 0.096462,-0.29438 0,-0.38225 -0.1792451,-0.16324 -0.1889636,-0.16249 -0.7464618,0.0609 -0.2888727,0.11575 -0.316038,0.1211 -0.4415347,0.0874 -0.086996,-0.0233 -0.6436064,-0.0427 -1.5929988,-0.0554 l -1.4592909,-0.0198 v -1.10317 -1.10315 h 2.8473884 2.8473887 v 0.64225 0.64225 l -0.1462168,0.0548 c -0.2088627,0.0784 -0.4846832,0.21941 -0.5428448,0.27757 -0.032115,0.0321 -0.04971,0.1027 -0.04971,0.19919 0,0.12528 0.013286,0.16002 0.081965,0.21394 0.1467291,0.1154 0.2113755,0.11214 0.5611044,-0.0289 0.6997687,-0.28204 1.4372754,-0.61954 1.4886294,-0.68123 0.0877,-0.10538 0.0708,-0.29196 -0.03611,-0.39887 -0.112904,-0.11295 -0.228337,-0.11597 -0.4794964,-0.0133 -0.1015861,0.0419 -0.1950839,0.0761 -0.2077833,0.0763 -0.012716,9e-5 -0.023079,-0.22148 -0.023079,-0.49237 v -0.49253 h 2.8434557 2.843453 l 0.02238,0.52347 c 0.02187,0.51153 0.02416,0.52487 0.100433,0.58487 0.105918,0.0834 0.312144,0.0822 0.419606,-0.002 l 0.08112,-0.0638 -9.79e-4,0.53322 c -8.16e-4,0.44411 -0.0076,0.52444 -0.04098,0.48059 -0.0582,-0.0767 -0.204231,-0.12357 -0.318075,-0.10212 -0.136973,0.0256 -0.224828,0.14692 -0.224828,0.31014 0,0.11027 0.01594,0.14502 0.09863,0.21463 0.08426,0.071 0.118827,0.0807 0.237351,0.0674 0.09286,-0.0116 0.156943,-0.0382 0.193809,-0.0837 0.05344,-0.066 0.05509,-0.0521 0.05509,0.46092 v 0.52895 l -0.08112,-0.0638 c -0.102204,-0.0804 -0.27254,-0.0826 -0.399597,-0.006 l -0.09591,0.0585 -0.02292,1.21005 -0.02292,1.21006 -0.973942,0.99662 c -0.95599,0.97827 -0.974112,0.99915 -0.983349,1.13303 -0.0079,0.11693 0.0038,0.14958 0.08229,0.22811 0.07479,0.0748 0.11744,0.0916 0.231351,0.0916 h 0.139649 l 0.755406,-0.74255 0.755403,-0.74254 v 0.84269 0.8427 l -1.7624,1.7622 -1.762403,1.7622 H 11.08159 10.235306 l 1.285035,-1.2853 1.285035,-1.28532 v -0.14844 c 0,-0.12376 -0.01537,-0.16381 -0.0917,-0.24013 -0.07874,-0.0788 -0.111122,-0.0904 -0.229075,-0.0824 -0.136138,0.009 -0.149179,0.0211 -1.432045,1.28187 l -1.2946612,1.2725 v -2.95783 c 0,-2.5754 0.00594,-2.95784 0.045029,-2.95784 0.024768,0 0.1153148,0.0277 0.2012282,0.0615 0.334444,0.13192 0.554085,0.0406 0.554085,-0.22998 0,-0.21108 -0.04565,-0.23851 -1.2091934,-0.72679 -0.8965305,-0.3762 -1.0135081,-0.39734 -1.1311227,-0.20445 -0.118106,0.19372 -0.0592,0.36001 0.1685578,0.47601 0.085517,0.0434 0.2801615,0.13155 0.4325348,0.19553 l 0.2770432,0.11633 0.0078,3.35727 0.0078,3.35726 H 7.9773451 6.8430237 Z m 6.2192687,-5.09894 c 0.139232,-0.0849 0.168408,-0.18317 0.154341,-0.51953 -0.01118,-0.26989 -0.01765,-0.29354 -0.09685,-0.36169 -0.108025,-0.0928 -0.287708,-0.0978 -0.39833,-0.0116 -0.163947,0.1289 -0.183498,0.66794 -0.03043,0.83821 0.111647,0.12414 0.228112,0.14103 0.371276,0.0537 z m -0.871863,-1.24396 c 0.189192,-0.0792 0.233023,-0.30873 0.09109,-0.47737 l -0.07968,-0.0947 h -0.330114 c -0.320388,0 -0.332448,0.002 -0.409371,0.0847 -0.108154,0.11563 -0.127672,0.1995 -0.0754,0.32463 0.07055,0.16894 0.151153,0.20637 0.443402,0.20637 0.150943,0 0.298536,-0.0171 0.360064,-0.0437 z m 2.063922,0.0171 c 0.176037,-0.0573 0.24583,-0.19946 0.194208,-0.39574 -0.04296,-0.16324 -0.119584,-0.19376 -0.487734,-0.19376 -0.316995,0 -0.328284,0.002 -0.408716,0.0864 -0.14187,0.14806 -0.09591,0.4269 0.08219,0.49879 0.07629,0.0307 0.528989,0.034 0.620054,0.003 z m -1.132976,-0.91001 c 0.08176,-0.0702 0.08694,-0.0901 0.09709,-0.3711 0.01291,-0.35492 -0.02308,-0.46714 -0.168957,-0.52808 -0.1432,-0.0597 -0.228352,-0.0512 -0.331814,0.0332 -0.07608,0.0623 -0.09363,0.1048 -0.114407,0.27722 -0.03286,0.27286 0.01141,0.50381 0.113533,0.59367 0.108899,0.0957 0.28996,0.0936 0.404542,-0.006 z m -2.64705,-0.4243 c 0.08455,-0.082 0.101516,-0.1211 0.101516,-0.23391 0,-0.11202 -0.01671,-0.1511 -0.09559,-0.22485 l -0.09561,-0.0892 H 9.3909769 8.4149511 l -0.078751,0.0847 c -0.043317,0.0465 -0.087694,0.12263 -0.098628,0.16913 -0.021659,0.0919 0.040977,0.27595 0.1088405,0.31972 0.048476,0.0313 0.6344015,0.0584 1.440761,0.0669 l 0.5680134,0.006 z"
       id="path8196"
       inkscape:connector-curvature="0" />
    <path
       style="fill:#ffffff;stroke-width:0.0034903;stroke-miterlimit:4;stroke-dasharray:none"
       d="m 14.128977,292.27744 c 0.719394,-0.71954 1.311513,-1.30826 1.315819,-1.30826 0.0044,0 0.0078,0.58872 0.0078,1.30826 v 1.30826 h -1.315818 -1.315821 z"
       id="path8198"
       inkscape:connector-curvature="0" />
    <path
       style="fill:#ffffff;stroke-width:0.0034903;stroke-miterlimit:4;stroke-dasharray:none"
       d="m 5.5098572,284.85885 v -0.44636 H 5.8484645 6.187073 v 0.44636 0.44634 H 5.8484645 5.5098572 Z"
       id="path8200"
       inkscape:connector-curvature="0" />
    <path
       style="fill:#ffffff;stroke-width:0.0034903;stroke-miterlimit:4;stroke-dasharray:none"
       d="m 1.2118599,286.0055 c 0.033085,-0.17178 0.2238227,-0.52225 0.4007525,-0.73622 0.3134911,-0.37916 0.7731064,-0.68414 1.1859295,-0.78696 0.1179532,-0.0295 0.4682842,-0.0484 1.1183159,-0.0606 l 0.9465644,-0.0171 v 0.45069 0.4507 H 4.582842 4.3022617 l -0.3484177,0.30783 -0.3484177,0.30783 -0.9793916,0.0285 c -0.8478303,0.0247 -1.0083238,0.037 -1.1947712,0.0925 -0.1184657,0.0351 -0.2206184,0.0639 -0.227021,0.0639 -0.00645,0 -0.00304,-0.045 0.00759,-0.10003 z"
       id="path8202"
       inkscape:connector-curvature="0" />
    <path
       style="fill:#ffffff;stroke-width:0.0034903;stroke-miterlimit:4;stroke-dasharray:none"
       d="m 4.6225843,287.41388 c -0.2292079,-0.21222 -0.4184379,-0.50023 -0.5194176,-0.7906 l -0.078091,-0.22453 0.1652181,-0.14938 c 0.1665467,-0.15053 0.4178627,-0.32862 0.4636755,-0.32862 0.013667,0 0.024752,0.18602 0.024752,0.41333 0,0.46475 0.035459,0.77468 0.1209334,1.057 0.031965,0.1055 0.046316,0.19192 0.031908,0.19192 -0.014426,0 -0.1084621,-0.0762 -0.2089882,-0.16931 z"
       id="path8204"
       inkscape:connector-curvature="0" />
    <path
       style="fill:#ffffff;stroke-width:0.0034903;stroke-miterlimit:4;stroke-dasharray:none"
       d="m 2.4315998,286.90589 v -0.33862 h 0.4617374 0.4617394 v 0.33862 0.3386 H 2.8933372 2.4315998 Z"
       id="path8206"
       inkscape:connector-curvature="0" />
    <path
       style="fill:#ffffff;stroke-width:0.0034903;stroke-miterlimit:4;stroke-dasharray:none"
       d="m 2.3220062,295.86385 c -0.2706794,-0.0397 -0.5407286,-0.2624 -0.6926271,-0.57106 l -0.075093,-0.15261 -0.010061,-1.56991 c -0.012528,-1.95056 0.026651,-2.66394 0.1985122,-3.61696 0.1019703,-0.56546 0.3323629,-1.42689 0.5050825,-1.88852 l 0.06507,-0.17387 h 0.5183284 0.518328 l 0.020102,0.26933 c 0.054781,0.73412 0.1443381,1.05014 0.4150763,1.46488 0.2813946,0.43104 0.549202,0.6464 1.1612796,0.93378 0.5648795,0.26523 0.8451656,0.51479 1.062297,0.94581 0.1694882,0.33646 0.1852432,0.54317 0.1732471,2.27281 -0.0099,1.41654 -0.010247,1.42495 -0.080405,1.55634 -0.092818,0.17387 -0.2728396,0.35082 -0.4744001,0.46642 l -0.1630546,0.0936 -1.492953,-0.003 c -0.8211266,-0.002 -1.5630514,-0.0133 -1.6487222,-0.0263 z"
       id="path8208"
       inkscape:connector-curvature="0" />
  </g>
</svg>
