<?xml version="1.0" encoding="UTF-8" standalone="no"?>
<!-- Created with Inkscape (http://www.inkscape.org/) -->

<svg
   xmlns:dc="http://purl.org/dc/elements/1.1/"
   xmlns:cc="http://creativecommons.org/ns#"
   xmlns:rdf="http://www.w3.org/1999/02/22-rdf-syntax-ns#"
   xmlns:svg="http://www.w3.org/2000/svg"
   xmlns="http://www.w3.org/2000/svg"
   xmlns:sodipodi="http://sodipodi.sourceforge.net/DTD/sodipodi-0.dtd"
   xmlns:inkscape="http://www.inkscape.org/namespaces/inkscape"
   width="64"
   height="64"
   viewBox="0 0 16.933333 16.933334"
   version="1.1"
   id="svg8"
   inkscape:version="0.92.5 (2060ec1f9f, 2020-04-08)"
   sodipodi:docname="cleaning_specific_64x64.svg">
  <defs
     id="defs2" />
  <sodipodi:namedview
     id="base"
     pagecolor="#ffffff"
     bordercolor="#666666"
     borderopacity="1.0"
     inkscape:pageopacity="0.0"
     inkscape:pageshadow="2"
     inkscape:zoom="5.6"
     inkscape:cx="45.232236"
     inkscape:cy="25.349674"
     inkscape:document-units="mm"
     inkscape:current-layer="layer1"
     showgrid="false"
     units="px"
     inkscape:window-width="1208"
     inkscape:window-height="987"
     inkscape:window-x="1992"
     inkscape:window-y="0"
     inkscape:window-maximized="1" />
  <metadata
     id="metadata5">
    <rdf:RDF>
      <cc:Work
         rdf:about="">
        <dc:format>image/svg+xml</dc:format>
        <dc:type
           rdf:resource="http://purl.org/dc/dcmitype/StillImage" />
        <dc:title></dc:title>
      </cc:Work>
    </rdf:RDF>
  </metadata>
  <g
     inkscape:label="Layer 1"
     inkscape:groupmode="layer"
     id="layer1"
     transform="translate(0,-280.06665)">
    <path
       style="fill:#ffffff;stroke-width:0.02863424;stroke-miterlimit:4;stroke-dasharray:none"
       d=""
       id="path7728"
       inkscape:connector-curvature="0"
       transform="matrix(0.26458333,0,0,0.26458333,0,280.06665)" />
    <path
       style="fill:#000000;stroke-width:0.01048916"
       d="m 11.214224,293.89062 c -0.0973,-0.0213 -0.19526,-0.0628 -0.22441,-0.095 -0.0296,-0.0327 -0.0469,-0.0952 -0.0474,-0.17116 l -4.6e-4,-0.0708 -0.74211,-2e-4 c -0.8258796,-2e-4 -0.8260596,-2e-4 -0.9676296,-0.0695 -0.0578,-0.0283 -0.0997,-0.0597 -0.15769,-0.11814 -0.0908,-0.0915 -0.13755,-0.17243 -0.16773,-0.29041 -0.0202,-0.0791 -0.0207,-0.12268 -0.0207,-1.85033 0,-1.72765 4.9e-4,-1.77122 0.0207,-1.85033 0.0302,-0.11798 0.0769,-0.1989 0.16773,-0.29041 0.091,-0.0917 0.19073,-0.14708 0.30979,-0.17207 0.10555,-0.0222 0.7755296,-0.0222 0.8810796,0 0.21621,0.0454 0.38797,0.20141 0.4734,0.43001 0.0185,0.0494 0.0199,0.10802 0.0248,1.0122 l 0.005,0.95976 0.0865,0.003 0.0865,0.003 7e-5,-1.27748 c 4e-5,-0.84639 0.004,-1.29064 0.0109,-1.31649 0.024,-0.0865 0.10783,-0.13697 0.28219,-0.17004 0.14271,-0.0271 0.27607,-0.0187 0.42012,0.0265 0.13875,0.0435 0.1765,0.0903 0.18613,0.23098 l 0.006,0.0827 0.74061,2e-4 c 0.82223,1.9e-4 0.82035,8e-5 0.96275,0.0686 0.0571,0.0275 0.10023,0.059 0.15482,0.11316 0.0842,0.0835 0.12852,0.15447 0.16498,0.26388 l 0.0245,0.0734 v 1.80938 1.80938 l -0.0245,0.0734 c -0.0355,0.10657 -0.0805,0.17964 -0.15845,0.25763 -0.0758,0.0758 -0.14871,0.12138 -0.25238,0.15777 -0.0654,0.023 -0.0843,0.0241 -0.46152,0.0279 -0.32586,0.003 -0.40667,0.001 -0.47103,-0.0123 -0.22202,-0.0464 -0.39307,-0.19415 -0.47552,-0.41074 l -0.0237,-0.0622 -0.005,-0.965 -0.005,-0.965 -0.0865,-0.003 -0.0865,-0.003 -2.4e-4,1.26699 c -1.6e-4,0.81831 -0.004,1.28333 -0.0109,1.31314 -0.006,0.0254 -0.02,0.0593 -0.0315,0.0754 -0.0674,0.0947 -0.37996,0.15069 -0.5872,0.10527 z m 0.29955,-0.17006 c 0.0339,-0.006 0.0796,-0.0186 0.10158,-0.0274 0.0399,-0.0159 0.0399,-0.016 0.0399,-0.0777 v -0.0618 h -0.26748 -0.26747 v 0.0582 c 0,0.0573 6.1e-4,0.0585 0.0391,0.0746 0.0993,0.0415 0.2408,0.0551 0.35436,0.0341 z m -0.57181,-1.28401 v -0.93878 l -0.0865,-2.3e-4 c -0.14452,-4.2e-4 -0.20101,-0.0225 -0.24387,-0.0953 -0.0205,-0.0347 -0.0211,-0.0594 -0.0262,-1.01111 l -0.005,-0.97549 -0.0336,-0.0709 c -0.0397,-0.0837 -0.11915,-0.17169 -0.18999,-0.21024 -0.10108,-0.055 -0.14333,-0.0598 -0.5316496,-0.0598 -0.37974,0 -0.42566,0.005 -0.52139,0.0536 -0.10074,0.0514 -0.19348,0.16946 -0.22444,0.28577 -0.0214,0.0803 -0.0214,3.54158 0,3.6219 0.031,0.11646 0.1237,0.23438 0.22477,0.28594 0.10145,0.0518 0.10494,0.052 0.8960496,0.0527 l 0.7421,6.9e-4 z m -1.1882296,0.74959 c -0.0938,-0.0234 -0.16628,-0.0834 -0.20846,-0.17259 -0.0536,-0.11333 -0.036,-0.24286 0.0457,-0.33566 0.0657,-0.0746 0.13173,-0.10399 0.23389,-0.10399 0.10216,0 0.1682,0.0294 0.2338896,0.10399 0.10156,0.11538 0.10197,0.29306 9.5e-4,0.40782 -0.0729,0.0828 -0.2041496,0.12587 -0.3059796,0.10043 z m 0.12369,-0.18254 c 0.0722,-0.0302 0.10336,-0.13936 0.0567,-0.19872 -0.0276,-0.0351 -0.073,-0.0589 -0.11238,-0.0589 -0.037,0 -0.0966,0.0384 -0.11453,0.0737 -0.0324,0.064 -9.6e-4,0.15569 0.0628,0.18343 0.0435,0.0189 0.063,0.019 0.10741,4.5e-4 z m -0.3733,-1.51698 c -0.0956,-0.0151 -0.18165,-0.0813 -0.23082,-0.17765 -0.0185,-0.0363 -0.0242,-0.0654 -0.0247,-0.12587 -10e-4,-0.12778 0.0574,-0.22295 0.17536,-0.28564 0.0636,-0.0338 0.20329,-0.0338 0.26689,0 0.11584,0.0616 0.17568,0.15733 0.17499,0.28002 -10e-4,0.19803 -0.16703,0.33983 -0.36171,0.30914 z m 0.10264,-0.18262 c 0.0127,-0.004 0.035,-0.0207 0.0494,-0.0379 0.10002,-0.11886 -0.0445,-0.28193 -0.17326,-0.19546 -0.0407,0.0273 -0.069,0.0933 -0.0583,0.13588 0.0102,0.0407 0.0566,0.0905 0.0943,0.10128 0.0329,0.009 0.0431,0.009 0.0878,-0.004 z m 0.14469,-1.43076 c -0.19131,-0.0507 -0.28995,-0.2596 -0.20618,-0.43668 0.0541,-0.11427 0.15278,-0.17679 0.27997,-0.17733 0.1742,-7.3e-4 0.3090596,0.1339 0.3090596,0.30854 0,0.16544 -0.12311,0.29847 -0.2863596,0.30944 -0.0358,0.002 -0.0792,6.2e-4 -0.0965,-0.004 z m 0.1307,-0.18464 c 0.0506,-0.0261 0.0738,-0.065 0.0738,-0.12329 0,-0.045 -0.005,-0.0568 -0.0348,-0.0869 -0.0638,-0.0638 -0.1615,-0.0553 -0.20615,0.018 -0.0399,0.0654 -0.0232,0.14079 0.0408,0.18387 0.041,0.0276 0.0837,0.0305 0.12638,0.008 z m 1.7730796,2.74795 v -0.93878 h -0.26748 -0.26747 v 0.93878 0.93878 h 0.26747 0.26748 z m 1.77267,0.90979 c 0.11601,-0.0469 0.2174,-0.14817 0.26492,-0.2647 l 0.0235,-0.0577 v -1.79889 -1.79889 l -0.0235,-0.0577 c -0.0475,-0.11639 -0.14854,-0.21747 -0.26492,-0.26493 l -0.0577,-0.0235 -0.76309,-0.003 -0.76309,-0.003 v 0.93776 0.93776 l 0.11368,0.005 c 0.13002,0.005 0.17171,0.023 0.21358,0.0903 l 0.0241,0.0388 0.005,0.98074 0.005,0.98074 0.0338,0.0691 c 0.0597,0.12207 0.17181,0.21373 0.30184,0.24686 0.0387,0.01 0.15407,0.0128 0.44055,0.0111 0.37392,-0.002 0.3902,-0.003 0.44579,-0.0256 z m -0.53774,-0.16017 c -0.0634,-0.0158 -0.11638,-0.0474 -0.15907,-0.0946 -0.14265,-0.1579 -0.0948,-0.39993 0.0979,-0.49486 0.0729,-0.036 0.18554,-0.0336 0.26518,0.005 0.14603,0.0717 0.21225,0.23793 0.1551,0.38932 -0.0274,0.0726 -0.0942,0.14503 -0.16102,0.17459 -0.0548,0.0242 -0.14491,0.0334 -0.19807,0.0201 z m 0.12569,-0.18498 c 0.0452,-0.0215 0.0763,-0.0699 0.0763,-0.11885 0,-0.11442 -0.14015,-0.17632 -0.22189,-0.098 -0.0721,0.0691 -0.0528,0.17938 0.0384,0.21966 0.0421,0.0186 0.0633,0.018 0.10717,-0.003 z m 0.11711,-1.43344 c -0.0881,-0.0328 -0.14612,-0.0841 -0.19014,-0.1684 -0.0328,-0.0629 -0.0328,-0.19248 1.2e-4,-0.25925 0.0551,-0.11191 0.16209,-0.17912 0.28501,-0.17912 0.25946,0 0.40125,0.29195 0.2433,0.50093 -0.0729,0.0964 -0.23074,0.14582 -0.33829,0.10584 z m 0.15754,-0.17958 c 0.10411,-0.0538 0.0864,-0.21487 -0.027,-0.2462 -0.0754,-0.0208 -0.15753,0.0338 -0.16798,0.11168 -0.014,0.10479 0.10015,0.18358 0.19501,0.13452 z m -0.43091,-1.52166 c -0.068,-0.0218 -0.1567,-0.10497 -0.18697,-0.17528 -0.0495,-0.11505 -0.0224,-0.25488 0.0662,-0.34165 0.0635,-0.0621 0.13237,-0.09 0.22229,-0.09 0.27134,0 0.40686,0.31511 0.22473,0.52255 -0.0709,0.0808 -0.21852,0.11897 -0.32627,0.0844 z m 0.15409,-0.17748 c 0.10274,-0.0429 0.10281,-0.19235 1.2e-4,-0.24108 -0.1303,-0.0618 -0.24871,0.10542 -0.14994,0.2118 0.0424,0.0457 0.0888,0.0548 0.14983,0.0293 z m -1.35845,1.53585 v -0.0946 l -0.26485,0.003 -0.26485,0.003 -0.003,0.0777 c -0.002,0.0427 -6.8e-4,0.084 0.002,0.0918 0.004,0.0113 0.0578,0.0141 0.26797,0.0141 h 0.26256 z m 0.008,-1.2087 -0.003,-0.93616 -0.2701,-0.003 -0.27009,-0.003 v 0.93895 0.93896 h 0.27277 0.27278 z m 4.7e-4,-1.18003 -0.003,-0.0603 -0.0734,-0.0255 c -0.10411,-0.0362 -0.28097,-0.0375 -0.39072,-0.003 l -0.0761,0.0239 v 0.0626 0.0626 h 0.27324 0.27324 z"
       id="path7797"
       inkscape:connector-curvature="0" />
    <path
       style="fill:#000000;stroke-width:0.01239559"
       d="m 11.126415,287.54884 c -0.56184,-0.0547 -0.87322,-0.26325 -0.9808,-0.65679 -0.0207,-0.0759 -0.022,-0.22056 -0.022,-2.50391 0,-2.71983 -0.008,-2.4787 0.0927,-2.68485 0.0909,-0.18556 0.28653,-0.3342 0.53427,-0.40599 0.20148,-0.0584 0.35207,-0.0754 0.66838,-0.0754 0.31631,0 0.4669,0.017 0.66838,0.0754 0.31638,0.0917 0.52075,0.2882 0.60394,0.58073 0.0175,0.0616 0.0224,0.15365 0.0283,0.53642 l 0.007,0.46205 0.17974,0.0604 c 0.0988,0.0332 0.27456,0.0977 0.39046,0.14334 0.72312,0.2846 1.03507,0.35516 1.64862,0.37288 0.12271,0.004 0.25636,0.0123 0.29699,0.0194 0.22109,0.0388 0.40367,0.22697 0.44303,0.45652 0.0493,0.28756 -0.14931,0.57158 -0.44253,0.63281 -0.13321,0.0278 -0.68076,-0.003 -0.98868,-0.0564 -0.31757,-0.0546 -0.55167,-0.12554 -1.0318,-0.31253 -0.18408,-0.0717 -0.37215,-0.14317 -0.41795,-0.15884 l -0.0833,-0.0285 -0.004,1.40913 c -0.004,1.56943 0.002,1.45265 -0.0906,1.64943 -0.0327,0.0695 -0.0663,0.1145 -0.13906,0.18648 -0.14823,0.14676 -0.32082,0.22481 -0.6066,0.27433 -0.16821,0.0292 -0.57008,0.0419 -0.75484,0.0238 z m 0.57501,-0.37235 c 0.34895,-0.0378 0.53873,-0.13667 0.61233,-0.31889 l 0.0286,-0.0709 0.003,-1.43854 0.003,-1.43854 -0.13355,-0.0211 c -0.20654,-0.0326 -0.34924,-0.0451 -0.59838,-0.0525 -0.12613,-0.004 -0.26257,-0.0127 -0.3032,-0.0198 -0.22107,-0.0388 -0.40366,-0.22696 -0.44303,-0.45652 -0.0488,-0.28478 0.14741,-0.57021 0.43385,-0.63104 0.14307,-0.0304 0.73964,0.003 1.00473,0.0557 l 0.0406,0.008 -0.004,-0.40146 c -0.004,-0.38469 -0.005,-0.40443 -0.0325,-0.47238 -0.0597,-0.14879 -0.20466,-0.24474 -0.44837,-0.29668 -0.1154,-0.0246 -0.16599,-0.0277 -0.44624,-0.0277 -0.28025,0 -0.33085,0.003 -0.44624,0.0277 -0.24353,0.0519 -0.38842,0.14772 -0.44859,0.29668 l -0.0286,0.0709 v 2.39855 2.39855 l 0.0286,0.0709 c 0.0719,0.17794 0.26467,0.28065 0.59733,0.31822 0.13588,0.0153 0.44135,0.0157 0.57999,6.7e-4 z m -0.36401,-0.76811 c -0.0314,-0.0156 -0.0607,-0.0431 -0.0775,-0.0729 -0.0257,-0.0457 -0.0269,-0.0626 -0.027,-0.36234 l -5e-5,-0.3144 -0.0797,-0.0412 c -0.20254,-0.10473 -0.32106,-0.34608 -0.28194,-0.57417 0.0518,-0.30206 0.33986,-0.50992 0.63624,-0.45909 0.23659,0.0406 0.4186,0.22303 0.45931,0.46047 0.0387,0.22557 -0.0808,0.46864 -0.28121,0.57229 l -0.0807,0.0417 -4e-5,0.30907 c -4e-5,0.28669 -0.002,0.3129 -0.0256,0.36183 -0.0185,0.0383 -0.04,0.0597 -0.0783,0.0783 -0.0661,0.032 -0.0998,0.0321 -0.16363,5.1e-4 z m 0.16861,-1.11553 c 0.13197,-0.0673 0.12716,-0.26405 -0.008,-0.3282 -0.12948,-0.0614 -0.27789,0.0442 -0.26186,0.18644 0.0151,0.13413 0.14802,0.20394 0.26989,0.14176 z m 3.71868,-1.1156 c 0.0953,-0.0486 0.12654,-0.18141 0.0635,-0.26988 -0.0454,-0.0637 -0.085,-0.0732 -0.34221,-0.0819 -0.68604,-0.0232 -1.00865,-0.0969 -1.84289,-0.42077 -0.51898,-0.20148 -0.81566,-0.27179 -1.28756,-0.30513 -0.2713,-0.0192 -0.42814,-0.0168 -0.4787,0.007 -0.12314,0.0584 -0.13734,0.23779 -0.0251,0.31768 0.0351,0.025 0.0589,0.0282 0.26807,0.0362 0.29571,0.0114 0.49673,0.03 0.71422,0.0664 0.33007,0.0552 0.53727,0.11721 1.03381,0.30958 0.6742,0.26119 0.87254,0.30905 1.48127,0.35747 0.0273,0.002 0.12093,0.005 0.20812,0.006 0.13704,0.002 0.16518,-0.001 0.20746,-0.0229 z"
       id="path7845"
       inkscape:connector-curvature="0" />
    <g
       transform="matrix(0.46227592,0,0,0.46227592,0.27632537,155.67796)"
       id="layer1-9"
       inkscape:label="Layer 1">
      <path
         inkscape:connector-curvature="0"
         id="path5367"
         d="M 2.8876246,296.1243 C 2.4740943,296.046 1.9969334,295.68282 1.8156218,295.30833 1.652729,294.97189 1.6493104,294.93564 1.6489272,293.54099 l -3.498e-4,-1.28963 0.072057,-0.0838 c 0.059832,-0.0696 0.095726,-0.0838 0.2115817,-0.0838 0.1158561,0 0.1517491,0.0142 0.2115819,0.0838 l 0.072056,0.0838 v 1.15283 c 0,0.70059 0.012818,1.22643 0.032671,1.34045 0.041981,0.24106 0.1797841,0.47073 0.3673277,0.61221 0.2833619,0.21375 0.2069,0.20781 2.5569322,0.19859 l 2.1037723,-0.009 0.1492831,-0.0686 c 0.187837,-0.0864 0.3846051,-0.27548 0.4876842,-0.46881 l 0.07959,-0.14929 0.00829,-1.96233 c 0.00917,-2.17091 0.00904,-2.17269 -0.1808178,-2.55843 -0.1126842,-0.22893 -0.390092,-0.53812 -0.6086974,-0.67843 -0.08483,-0.0544 -0.2594914,-0.14067 -0.3881365,-0.19163 -0.6182651,-0.24489 -1.0540149,-0.63223 -1.3220245,-1.17516 -0.1892123,-0.38332 -0.2400404,-0.65391 -0.2402868,-1.27921 l -2.15e-4,-0.5303 -1.141574,0.008 -1.1415739,0.008 -0.1408596,0.418 c -0.2541296,0.75411 -0.4526343,1.6687 -0.5442073,2.50738 -0.040672,0.37252 -0.045905,0.39077 -0.1348533,0.47024 -0.1026243,0.0917 -0.2024335,0.10415 -0.3255222,0.0404 -0.1535457,-0.0794 -0.1702127,-0.15456 -0.12835,-0.57868 0.084567,-0.85679 0.3241996,-1.93119 0.6073455,-2.72304 l 0.1548024,-0.43291 0.010458,-0.50453 0.010458,-0.50451 -0.2165683,0.0202 c -0.3834666,0.0357 -0.5334402,0.0869 -1.0777879,0.36869 -0.1118957,0.058 -0.24185758,0.0246 -0.3348223,-0.0859 -0.0706697,-0.084 -0.075448,-0.11043 -0.075448,-0.41754 0,-0.41555 0.0429223,-0.69223 0.15587475,-1.00474 0.28534925,-0.78949 1.00714555,-1.39453 1.84452165,-1.54613 0.1769543,-0.032 0.760835,-0.0408 2.7835298,-0.0415 2.2654155,-6.1e-4 2.5731643,0.004 2.6775744,0.0462 l 0.1179699,0.0472 0.4805823,-0.22634 c 0.2658406,-0.1252 0.5207114,-0.22635 0.5703888,-0.22635 0.2097246,0 0.3375843,0.20264 0.254033,0.40262 -0.042277,0.10122 -0.082647,0.12685 -0.5538191,0.35214 l -0.5082087,0.24299 v 0.40541 0.40538 l 0.8245178,0.38703 c 0.8493628,0.3987 0.9668818,0.47524 0.9668818,0.62966 0,0.0974 -0.07573,0.24051 -0.147629,0.27898 -0.03159,0.0169 -0.09535,0.0307 -0.141675,0.0307 -0.04633,0 -0.4536353,-0.17529 -0.9051271,-0.38954 l -0.8208946,-0.38956 -0.1452475,0.0462 c -0.1068152,0.0339 -0.2758861,0.0462 -0.6389706,0.0462 H 7.103295 l 0.017091,0.51502 c 0.014603,0.44023 0.028211,0.55003 0.093701,0.75602 0.077909,0.24505 0.2064524,0.46427 0.4200606,0.7164 0.1600147,0.18887 0.1657045,0.33539 0.01815,0.46723 -0.094747,0.0846 -0.1106397,0.0888 -0.2729374,0.0704 -0.5135338,-0.0581 -1.0230323,-0.29989 -1.4090361,-0.66868 l -0.1119626,-0.10697 v 0.59142 c 0,0.44277 0.011895,0.63752 0.047331,0.77487 0.074208,0.28762 0.2423539,0.57816 0.4624859,0.7991 0.1984376,0.19917 0.2512091,0.23001 0.9173689,0.53622 0.5762134,0.26486 1.0485088,0.83047 1.2372758,1.48175 0.067122,0.23155 0.067428,0.24209 0.067428,2.30766 0,2.33337 0.00872,2.23396 -0.2281928,2.60052 -0.2277193,0.35232 -0.5434933,0.58328 -0.9340767,0.68317 -0.2259277,0.0578 -0.321064,0.0602 -2.313344,0.0569 -1.1659876,-10e-4 -2.1432339,-0.0157 -2.2270091,-0.0316 z M 6.640685,286.01544 c -0.070547,-0.21149 -0.0782,-0.28334 -0.089053,-0.83599 l -0.011879,-0.6046 -0.079453,6.1e-4 c -0.055484,5.7e-4 -0.1572849,0.0685 -0.3375104,0.22528 l -0.2580579,0.22453 0.044049,0.16869 c 0.090643,0.34711 0.3227368,0.7006 0.6064179,0.92359 0.090317,0.071 0.1728611,0.1291 0.1834335,0.12911 0.010567,0 -0.015508,-0.10415 -0.057957,-0.23137 z m -1.3859419,-0.4777 0.00844,-0.33589 H 4.1724396 3.0816927 v 0.34373 0.34372 l 1.0823046,-0.008 1.0823045,-0.008 z m -3.5016719,-0.83925 0.2687098,-0.0755 1.7217791,-0.0166 1.7217795,-0.0166 0.3084736,-0.27151 c 0.1696611,-0.14933 0.3378216,-0.28705 0.3736892,-0.30603 0.035871,-0.019 0.1735821,-0.0345 0.3060309,-0.0345 h 0.240816 v -0.4491 -0.44909 l -1.9182904,0.009 c -1.8889863,0.009 -1.9212563,0.01 -2.1123596,0.0751 -0.6767305,0.23023 -1.1650357,0.81257 -1.2703743,1.51502 -0.020135,0.13426 -0.017674,0.14277 0.034682,0.11992 0.030995,-0.0136 0.1772739,-0.0586 0.3250645,-0.10014 z m 6.2549712,-1.16862 v -0.44784 H 7.6497629 7.2914826 v 0.44784 0.44787 H 7.6497629 8.0080424 Z M 4.350601,294.30976 c -0.032841,-0.0134 -0.086584,-0.0543 -0.119427,-0.0908 -0.052389,-0.0582 -0.060971,-0.11696 -0.069989,-0.47902 l -0.010274,-0.41269 -0.4145873,-0.01 c -0.4076027,-0.01 -0.4159795,-0.0111 -0.4972859,-0.0924 l -0.082699,-0.0828 v -0.77804 -0.77804 l 0.097506,-0.0871 c 0.097441,-0.087 0.097769,-0.0871 0.497236,-0.0871 H 4.150811 l 0.010328,-0.42047 0.010328,-0.42048 0.097506,-0.0871 0.097506,-0.0871 h 0.7324995 c 0.7763837,0 0.8662058,0.0142 0.9376461,0.14764 0.016906,0.0316 0.03074,0.23969 0.03074,0.46246 v 0.40502 h 0.3896193 c 0.4116769,0 0.5316995,0.0298 0.5947655,0.14763 0.041367,0.0774 0.041367,1.53829 0,1.61557 -0.063064,0.11784 -0.1830886,0.14763 -0.5947655,0.14763 h -0.389621 v 0.40503 c 0,0.22276 -0.013835,0.43088 -0.03074,0.46248 -0.071331,0.13328 -0.1621547,0.14772 -0.9157248,0.14573 -0.3908185,-8.1e-4 -0.7374499,-0.0129 -0.7702921,-0.0263 z m 1.1242265,-0.98937 0.010328,-0.42048 0.097506,-0.0871 c 0.097504,-0.0871 0.097512,-0.0871 0.5000989,-0.0871 h 0.4025943 v -0.35602 -0.35602 l -0.4174003,-0.01 c -0.4105928,-0.01 -0.4187482,-0.0111 -0.500099,-0.0924 -0.08126,-0.0813 -0.082879,-0.0899 -0.093027,-0.50011 l -0.010328,-0.41734 H 5.1090827 4.7536664 v 0.40502 c 0,0.22278 -0.013834,0.43088 -0.03074,0.46247 -0.063064,0.11784 -0.1830877,0.14763 -0.594765,0.14763 H 3.7385419 v 0.35828 0.35828 h 0.3896193 c 0.4116772,0 0.5317006,0.0298 0.5947649,0.14763 0.016906,0.0315 0.03074,0.23971 0.03074,0.46246 v 0.40504 h 0.3554163 0.355418 z m -3.6663126,-2.02614 c -0.1669428,-0.071 -0.2141277,-0.32345 -0.087885,-0.47021 0.059832,-0.0696 0.095726,-0.0838 0.2115819,-0.0838 0.178465,0 0.2836385,0.10513 0.2836385,0.28364 0,0.20871 -0.2156744,0.35186 -0.4073352,0.27035 z m 12.5079441,-3.49414 c -0.827215,-0.41833 -0.547398,-1.66787 0.376615,-1.68181 0.346611,-0.005 0.640352,0.17295 0.804071,0.48774 0.09467,0.18201 0.09972,0.20691 0.0877,0.432 -0.0145,0.27149 -0.07944,0.42758 -0.247986,0.59613 -0.168945,0.16895 -0.324589,0.23356 -0.596137,0.24747 -0.220972,0.0113 -0.252734,0.005 -0.424262,-0.0815 z m 0.597816,-0.59202 c 0.149268,-0.15581 0.08784,-0.41699 -0.113726,-0.48351 -0.207762,-0.0686 -0.437727,0.13555 -0.3858,0.34244 0.05577,0.2222 0.343855,0.30354 0.499526,0.14107 z m -3.413002,-1.24287 c -0.498924,-0.23859 -0.57922,-0.30564 -0.57922,-0.48369 0,-0.13528 0.144437,-0.27968 0.279727,-0.27968 0.109879,0 0.980318,0.41479 1.060159,0.5052 0.08721,0.0987 0.07922,0.28074 -0.01654,0.37651 -0.140866,0.14085 -0.232624,0.12626 -0.744133,-0.11834 z m 2.411396,-0.55184 c -0.09072,-0.081 -0.09855,-0.10317 -0.112434,-0.31894 -0.01394,-0.21657 -0.01987,-0.23323 -0.08957,-0.25186 -0.04105,-0.0109 -0.133581,-0.0485 -0.205616,-0.0834 l -0.130974,-0.0634 -0.162535,0.14855 c -0.140866,0.12875 -0.179238,0.14855 -0.28784,0.14855 -0.155054,0 -0.249406,-0.063 -0.281801,-0.18795 -0.03826,-0.14761 -0.01073,-0.22014 0.150372,-0.39641 0.118134,-0.12925 0.141721,-0.17135 0.114436,-0.20423 -0.01891,-0.0228 -0.05962,-0.11329 -0.09047,-0.20115 l -0.05611,-0.15974 -0.228895,-0.015 c -0.212339,-0.0139 -0.235187,-0.022 -0.31593,-0.11242 -0.09643,-0.10806 -0.109174,-0.20602 -0.04335,-0.33329 0.05679,-0.10983 0.105472,-0.12944 0.371156,-0.14959 l 0.220768,-0.0167 0.03756,-0.12768 c 0.02066,-0.0702 0.05978,-0.16157 0.08692,-0.203 0.04856,-0.0741 0.04697,-0.0779 -0.09777,-0.23629 -0.162835,-0.17817 -0.190747,-0.25796 -0.142476,-0.4073 0.04052,-0.12539 0.207963,-0.21837 0.33557,-0.18634 0.04637,0.0116 0.153467,0.0866 0.237972,0.16647 l 0.153645,0.14531 0.100507,-0.0574 c 0.05528,-0.0317 0.150893,-0.0735 0.212472,-0.0929 l 0.111963,-0.0354 v -0.19034 c 0,-0.22577 0.04175,-0.33162 0.153613,-0.38946 0.10415,-0.0539 0.185762,-0.0539 0.289907,0 0.111867,0.0579 0.153613,0.16369 0.153613,0.38946 v 0.19034 l 0.111964,0.0354 c 0.06158,0.0195 0.156825,0.0611 0.211656,0.0924 l 0.0997,0.057 0.159985,-0.14622 c 0.08799,-0.0804 0.195445,-0.15512 0.238785,-0.16599 0.121835,-0.0307 0.290489,0.0653 0.330044,0.18773 0.04836,0.14961 0.02034,0.22916 -0.144165,0.40914 -0.118136,0.12926 -0.141723,0.17135 -0.114436,0.20422 0.0189,0.0228 0.05962,0.1133 0.09047,0.20117 l 0.05611,0.15973 0.218898,0.0167 c 0.263813,0.0202 0.312573,0.0399 0.369285,0.14961 0.06582,0.12727 0.05307,0.22525 -0.04335,0.33328 -0.08075,0.0905 -0.103586,0.0986 -0.315932,0.11243 l -0.228894,0.0148 -0.05611,0.15975 c -0.03086,0.0879 -0.07157,0.17837 -0.09047,0.20114 -0.02729,0.0328 -0.0034,0.0753 0.116201,0.20617 0.15971,0.17474 0.186336,0.2444 0.148381,0.38824 -0.03261,0.12356 -0.133527,0.19273 -0.282398,0.19352 -0.108267,5.6e-4 -0.145949,-0.0189 -0.289319,-0.15 -0.137718,-0.12585 -0.173723,-0.14532 -0.218867,-0.11824 -0.02972,0.0178 -0.121209,0.0573 -0.203315,0.0878 l -0.149283,0.0555 -0.01492,0.2296 c -0.01386,0.21316 -0.02191,0.23584 -0.112434,0.31663 -0.06128,0.0547 -0.130433,0.087 -0.186133,0.087 -0.05569,0 -0.124855,-0.0323 -0.186133,-0.087 z m 0.530363,-1.19022 c 0.138874,-0.0715 0.283489,-0.21772 0.360931,-0.36485 0.03929,-0.0747 0.05497,-0.16848 0.0549,-0.32844 -1.13e-4,-0.2539 -0.05803,-0.39597 -0.227489,-0.55811 -0.376561,-0.3603 -0.977279,-0.25529 -1.228664,0.21477 -0.08522,0.15934 -0.09006,0.51788 -0.0091,0.67178 0.105254,0.19997 0.284412,0.35232 0.495971,0.42173 0.123145,0.0404 0.424725,0.01 0.553419,-0.0569 z m -4.5420776,-0.49623 c -0.1120845,-0.11208 -0.1282997,-0.20793 -0.058133,-0.34361 0.073685,-0.1425 0.1549905,-0.15624 0.8652106,-0.14622 l 0.649239,0.009 0.072,0.0838 c 0.07721,0.0898 0.09589,0.24872 0.04126,0.3508 -0.06971,0.13024 -0.168243,0.14763 -0.836604,0.14763 h -0.631459 z m 0.7620356,-1.80701 c -0.110099,-0.1101 -0.118253,-0.26205 -0.02009,-0.37451 0.08269,-0.0947 1.287811,-0.67269 1.402793,-0.67274 0.04792,-1e-5 0.121622,0.0357 0.178462,0.0865 0.126654,0.11317 0.136775,0.29215 0.02286,0.40432 -0.112193,0.11047 -1.265395,0.64373 -1.392099,0.64373 -0.07585,0 -0.128661,-0.0241 -0.191922,-0.0872 z"
         style="fill:#000000;stroke-width:0.02985667" />
      <path
         inkscape:connector-curvature="0"
         id="path5371"
         d="m 1.4183453,284.63383 c 0.072408,-0.39003 0.243085,-0.70842 0.5380372,-1.00366 0.2407291,-0.24096 0.5456843,-0.41977 0.8149303,-0.47784 0.074644,-0.016 0.9873557,-0.0389 2.0282448,-0.0509 l 1.8925274,-0.0216 v 0.43779 0.43779 l -0.2684282,0.0129 -0.2684273,0.0129 -0.1799709,0.14919 c -0.098984,0.0821 -0.2578954,0.21658 -0.3531359,0.29894 l -0.173165,0.14972 -1.6932001,0.01 -1.6932001,0.01 -0.3089107,0.0889 c -0.1699007,0.0489 -0.3208325,0.0889 -0.3354038,0.0889 -0.015204,0 -0.01516,-0.061 1.015e-4,-0.14326 z"
         style="fill:#ffffff;stroke-width:0.0011399;stroke-miterlimit:4;stroke-dasharray:none" />
      <path
         inkscape:connector-curvature="0"
         id="path5373"
         d="m 3.1030703,285.54616 v -0.31668 h 1.0706718 1.0706727 v 0.31668 0.31668 H 4.1737421 3.1030703 Z"
         style="fill:#ffffff;stroke-width:0.0011399;stroke-miterlimit:4;stroke-dasharray:none" />
      <path
         inkscape:connector-curvature="0"
         id="path5375"
         d="m 4.7618581,293.34444 c 0,-0.21458 -0.012922,-0.42411 -0.02872,-0.46565 -0.047331,-0.12449 -0.138276,-0.15084 -0.5669404,-0.1642 l -0.3996163,-0.0126 v -0.34045 -0.34045 l 0.4214391,-0.0108 c 0.5699821,-0.0141 0.5552996,5.8e-4 0.5685735,-0.56914 l 0.00982,-0.42149 h 0.3406239 0.3406234 l 0.013867,0.40886 c 0.013399,0.39515 0.01659,0.41159 0.095059,0.4901 0.079202,0.0792 0.09153,0.0815 0.5027835,0.0917 l 0.4215919,0.0108 v 0.34395 0.34394 H 6.0999836 c -0.3337697,0 -0.3936113,0.008 -0.4829374,0.0631 -0.056082,0.0347 -0.1153606,0.088 -0.1317392,0.11866 -0.01638,0.0307 -0.029778,0.23297 -0.029778,0.4497 v 0.39406 H 5.1086908 4.7618532 Z"
         style="fill:#ffffff;stroke-width:0.0011399;stroke-miterlimit:4;stroke-dasharray:none" />
      <path
         inkscape:connector-curvature="0"
         id="path5377"
         d="M 6.5024824,286.08402 C 6.2511593,285.88036 6.0258927,285.5351 5.9252653,285.19933 l -0.049714,-0.16588 0.1142066,-0.0999 c 0.2366997,-0.20703 0.4233439,-0.33741 0.4829875,-0.33741 0.059718,0 0.062159,0.0202 0.076058,0.62581 0.011248,0.49021 0.025641,0.65675 0.066409,0.76859 0.028631,0.0786 0.047072,0.1577 0.040995,0.17594 -0.00606,0.0182 -0.075258,-0.0189 -0.1537351,-0.0825 z"
         style="fill:#ffffff;stroke-width:0.0011399;stroke-miterlimit:4;stroke-dasharray:none" />
      <path
         inkscape:connector-curvature="0"
         id="path5379"
         d="m 7.2952807,283.52545 v -0.43731 H 7.6421183 7.988955 v 0.43731 0.43732 H 7.6421183 7.2952807 Z"
         style="fill:#ffffff;stroke-width:0.0011399;stroke-miterlimit:4;stroke-dasharray:none" />
      <path
         inkscape:connector-curvature="0"
         id="path5381"
         d="m 13.862512,284.25281 c -0.156804,-0.0578 -0.311666,-0.18198 -0.407533,-0.32684 -0.09399,-0.14204 -0.128243,-0.4575 -0.06912,-0.63666 0.140474,-0.42563 0.648076,-0.63475 1.04841,-0.43187 0.282289,0.14305 0.400955,0.34764 0.400955,0.6913 0,0.19225 -0.01144,0.23932 -0.08731,0.35893 -0.09176,0.14469 -0.237411,0.27226 -0.367185,0.3216 -0.146409,0.0556 -0.399813,0.0672 -0.518222,0.0235 z"
         style="fill:#ffffff;stroke-width:0.0011399;stroke-miterlimit:4;stroke-dasharray:none" />
      <path
         inkscape:connector-curvature="0"
         id="path5383"
         d="m 14.560414,287.23513 c -0.114231,-0.0621 -0.165223,-0.20092 -0.116767,-0.3179 0.05036,-0.12159 0.139346,-0.17977 0.27497,-0.17977 0.08809,0 0.128125,0.0201 0.192322,0.0964 0.200407,0.23817 -0.07357,0.55183 -0.350525,0.4013 z"
         style="fill:#ffffff;stroke-width:0.0011399;stroke-miterlimit:4;stroke-dasharray:none" />
      <path
         inkscape:connector-curvature="0"
         id="path5404"
         d="m 1.7953869,289.62945 -0.1468095,2.62191"
         style="fill:none;stroke:#000000;stroke-width:0.01;stroke-linecap:butt;stroke-linejoin:miter;stroke-miterlimit:4;stroke-dasharray:none;stroke-opacity:1" />
      <path
         transform="matrix(0.26458333,0,0,0.26458333,0,280.06665)"
         inkscape:connector-curvature="0"
         id="path5406"
         d="M 11.469286,58.339849 C 10.44679,58.196444 9.4796533,57.485608 8.9442557,56.483978 8.5644432,55.773417 8.5395832,55.481751 8.4548326,50.741908 L 8.3655469,45.748424 7.8813146,45.476963 C 7.4844908,45.254505 7.2951372,45.243983 6.832321,45.418676 l -0.5647612,0.213175 0.1095283,-0.662514 c 0.06024,-0.364382 0.1104126,-1.079338 0.1114935,-1.588788 l 0.00197,-0.926273 0.6048975,0.09816 c 0.4640934,0.07531 0.6927102,0.01036 0.9821429,-0.279084 0.790386,-0.790386 0.2836525,-1.984388 -0.8421727,-1.984388 -0.523668,0 -0.5662963,-0.04517 -0.5662963,-0.600076 0,-0.330043 0.050325,-0.967237 0.111833,-1.415987 0.1055182,-0.769839 0.1424611,-0.81504 0.6542486,-0.800489 0.8402972,0.02389 1.1215965,-0.488625 1.3650845,-2.487131 0.3247857,-2.665784 1.0270095,-5.903878 1.8145789,-8.367387 l 0.710292,-2.221787 h 4.259267 4.259267 l 0.06624,2.561611 0.06624,2.561611 0.748052,1.509632 c 1.02525,2.06904 2.314332,3.286923 4.647513,4.390818 2.174486,1.028811 3.528514,2.250235 4.267152,3.849256 l 0.51238,1.109215 -0.02853,7.824004 -0.02852,7.824001 -0.471398,0.712329 c -0.259268,0.391782 -0.844754,0.949105 -1.301079,1.238498 l -0.82968,0.526168 -7.598968,-0.02386 c -4.179432,-0.01312 -7.970142,-0.07592 -8.4238,-0.139543 z m 11.138931,-4.621952 c 0.19692,-0.163676 0.316038,-0.727719 0.4054,-1.919642 l 0.126544,-1.687861 h 1.496622 c 2.222868,0 2.210907,0.01962 2.210907,-3.626584 0,-3.677802 0.05406,-3.583972 -2.112979,-3.667395 l -1.606269,-0.06184 -0.126294,-1.68453 c -0.102112,-1.361983 -0.188289,-1.717707 -0.450066,-1.857806 -0.178073,-0.0953 -1.629678,-0.173277 -3.225786,-0.173277 -2.7338,0 -2.925973,0.02251 -3.315311,0.388271 -0.367828,0.345556 -0.413295,0.551826 -0.413295,1.875 v 1.486729 l -1.473215,0.0059 c -2.297063,0.0093 -2.276785,-0.02386 -2.276785,3.717909 0,3.677534 -0.05049,3.597573 2.271876,3.597573 h 1.478124 l 0.02113,1.205357 c 0.02979,1.699668 0.176854,2.229541 0.694078,2.500818 0.611408,0.320675 5.890352,0.237934 6.295322,-0.09867 z"
         style="fill:#ffffff;stroke-width:0.00674916;stroke-miterlimit:4;stroke-dasharray:none" />
    </g>
    <path
       style="fill:#ffffff;stroke-width:0.00200784;stroke-miterlimit:4;stroke-dasharray:none"
       d="m 11.131765,287.16705 c -0.2514,-0.0288 -0.41897,-0.0924 -0.51942,-0.19723 -0.11944,-0.12461 -0.11157,0.0576 -0.11157,-2.58249 0,-2.12222 0.003,-2.39914 0.0275,-2.45756 0.0579,-0.1387 0.18957,-0.23174 0.40628,-0.28717 0.11565,-0.0296 0.19585,-0.0354 0.48544,-0.0352 0.38034,2.9e-4 0.49995,0.0183 0.66841,0.10081 0.0536,0.0263 0.11798,0.072 0.14302,0.10172 0.0901,0.10685 0.0983,0.15051 0.10725,0.57457 l 0.008,0.39664 -0.0687,-0.011 c -0.20774,-0.0331 -0.4545,-0.052 -0.70623,-0.054 -0.27121,-0.002 -0.28749,-3.1e-4 -0.38072,0.044 -0.3583,0.17021 -0.44274,0.63145 -0.16623,0.90796 0.12507,0.12507 0.21375,0.15264 0.55113,0.17133 0.16327,0.009 0.40244,0.0294 0.53149,0.0452 l 0.23463,0.0288 -1.8e-4,1.4278 -1.7e-4,1.42779 -0.0416,0.0893 c -0.0703,0.15087 -0.19535,0.23194 -0.43601,0.28257 -0.15985,0.0336 -0.547,0.0474 -0.73272,0.0262 z m 0.36881,-0.75301 c 0.0938,-0.0445 0.10514,-0.0887 0.11226,-0.4378 l 0.006,-0.31469 0.067,-0.0342 c 0.0973,-0.0496 0.22329,-0.19811 0.26006,-0.30649 0.0933,-0.27496 -0.0306,-0.57172 -0.2909,-0.69711 -0.13424,-0.0647 -0.3217,-0.0682 -0.45676,-0.009 -0.11233,0.0495 -0.24076,0.17822 -0.29401,0.29458 -0.0572,0.12504 -0.0563,0.33814 0.002,0.45156 0.0673,0.13096 0.12295,0.19307 0.22421,0.25022 l 0.096,0.0542 v 0.30908 c 0,0.33894 0.0119,0.39005 0.10204,0.43897 0.0626,0.034 0.10065,0.034 0.17173,3.1e-4 z"
       id="path7989"
       inkscape:connector-curvature="0" />
    <path
       style="fill:#ffffff;stroke-width:0.00200784;stroke-miterlimit:4;stroke-dasharray:none"
       d="m 11.334995,285.28343 c -0.15882,-0.088 -0.0885,-0.32945 0.096,-0.32945 0.0237,0 0.069,0.0231 0.10059,0.0513 0.15188,0.1357 -0.0185,0.37682 -0.19659,0.27814 z"
       id="path7991"
       inkscape:connector-curvature="0" />
    <path
       style="fill:#ffffff;stroke-width:0.00200784;stroke-miterlimit:4;stroke-dasharray:none"
       d="m 14.573615,284.1653 c -0.41361,-0.0461 -0.60589,-0.0984 -1.2586,-0.34209 -0.69924,-0.26108 -0.96398,-0.32104 -1.60863,-0.3643 -0.19073,-0.0128 -0.36101,-0.0292 -0.37842,-0.0366 -0.0377,-0.0158 -0.0834,-0.0985 -0.0834,-0.15064 0,-0.0647 0.0498,-0.13703 0.10835,-0.15745 0.10983,-0.0383 0.58256,-0.0117 0.92274,0.052 0.26216,0.049 0.43968,0.10286 0.87218,0.26438 0.82107,0.30665 1.01838,0.35297 1.6899,0.39672 0.36832,0.024 0.37844,0.0257 0.42367,0.0709 0.0655,0.0655 0.0645,0.16981 -0.002,0.2367 -0.0471,0.0471 -0.0553,0.0488 -0.25637,0.0518 -0.11424,0.002 -0.30732,-0.008 -0.42906,-0.0215 z"
       id="path7993"
       inkscape:connector-curvature="0" />
    <path
       style="fill:#ffffff;stroke-width:0.00169903;stroke-miterlimit:4;stroke-dasharray:none"
       d="m 9.4005944,293.34924 c -0.0789,-0.0188 -0.18334,-0.0888 -0.23162,-0.15521 -0.10148,-0.13961 -0.0939,0.0186 -0.0947,-1.96571 l -7.2e-4,-1.79814 0.0323,-0.0701 c 0.0456,-0.099 0.14224,-0.19774 0.23388,-0.23915 0.0761,-0.0344 0.0897,-0.0354 0.4829,-0.0354 0.3904496,-2e-5 0.4071996,10e-4 0.4795096,0.0344 0.0894,0.0411 0.17495,0.12036 0.22974,0.21279 l 0.04,0.0674 0.007,0.98897 c 0.006,0.76694 0.0118,0.99655 0.0268,1.0227 0.0336,0.0589 0.086,0.081 0.21248,0.0897 l 0.1204,0.008 v 0.9269 0.9269 l -0.74548,-0.002 c -0.4100096,-8.5e-4 -0.7668396,-0.007 -0.7929496,-0.0128 z m 0.5587,-0.18645 c 0.0952,-0.0443 0.1514596,-0.11613 0.1729396,-0.22071 0.0218,-0.10602 -0.001,-0.18988 -0.0744,-0.2709 -0.0674,-0.0747 -0.1278596,-0.10175 -0.2276996,-0.10175 -0.18415,0 -0.31683,0.12771 -0.31681,0.30494 2e-5,0.2489 0.2222,0.39259 0.44593,0.28842 z m -0.24761,-1.70712 c 0.16245,-0.0858 0.21223,-0.33374 0.095,-0.47308 -0.068,-0.0808 -0.13615,-0.11221 -0.24524,-0.11299 -0.11929,-8.7e-4 -0.20383,0.0408 -0.26656,0.13131 -0.0335,0.0483 -0.0422,0.0795 -0.0466,0.16593 -0.005,0.10003 -0.002,0.11092 0.0448,0.18103 0.0675,0.10042 0.14395,0.14211 0.26129,0.14243 0.067,1.8e-4 0.10886,-0.009 0.15734,-0.0346 z m 0.2099,-1.58552 c 0.1354596,-0.0453 0.2143796,-0.15763 0.2144596,-0.30511 6e-5,-0.0984 -0.0229,-0.15474 -0.0909,-0.22343 -0.0586,-0.0591 -0.1240696,-0.0838 -0.2226796,-0.0838 -0.12717,0 -0.22197,0.0579 -0.27996,0.17103 -0.0449,0.0876 -0.0338,0.23796 0.0238,0.32105 0.0765,0.11038 0.22979,0.16225 0.35531,0.12022 z"
       id="path7995"
       inkscape:connector-curvature="0" />
    <path
       style="fill:#ffffff;stroke-width:0.00169903;stroke-miterlimit:4;stroke-dasharray:none"
       d="m 11.133824,290.01457 v -0.93653 l 0.16108,1.1e-4 c 0.0886,6e-5 0.2066,0.004 0.26223,0.01 l 0.10115,0.01 v 0.92687 0.92687 h -0.26223 -0.26223 z"
       id="path7997"
       inkscape:connector-curvature="0" />
    <path
       style="fill:#ffffff;stroke-width:0.00169903;stroke-miterlimit:4;stroke-dasharray:none"
       d="m 12.507874,293.34241 c -0.0936,-0.0341 -0.17229,-0.0979 -0.23304,-0.18887 l -0.0573,-0.0858 -0.009,-0.99751 c -0.008,-0.90482 -0.0114,-1.00114 -0.0345,-1.03645 -0.0373,-0.057 -0.0757,-0.0726 -0.20108,-0.0819 l -0.11238,-0.008 -0.004,-0.93511 -0.004,-0.93511 0.76436,0.008 c 0.74257,0.008 0.76627,0.009 0.83093,0.0407 0.0856,0.0414 0.18096,0.13715 0.22685,0.22772 l 0.0362,0.0714 -3.3e-4,1.80238 c -3.2e-4,1.73117 -0.001,1.80484 -0.0285,1.86438 -0.0375,0.0825 -0.12525,0.17765 -0.20969,0.22729 l -0.0687,0.0404 -0.41956,0.004 c -0.32719,0.003 -0.43211,-0.001 -0.47654,-0.0172 z m 0.55146,-0.16026 c 0.0373,-0.0103 0.0836,-0.0411 0.12273,-0.0817 0.19794,-0.20552 0.0584,-0.53105 -0.22762,-0.53105 -0.18234,0 -0.30718,0.12794 -0.30718,0.31479 0,0.21337 0.19821,0.35668 0.41207,0.29793 z m 0.3162,-1.63586 c 0.0963,-0.0502 0.17046,-0.17133 0.17071,-0.27877 1.8e-4,-0.0742 -0.0383,-0.16061 -0.0983,-0.22067 -0.13974,-0.13995 -0.37269,-0.11574 -0.48665,0.0506 -0.0318,0.0464 -0.0369,0.0707 -0.0369,0.17711 0,0.11562 0.003,0.12693 0.0465,0.18091 0.10487,0.12975 0.26219,0.16508 0.40452,0.0908 z m -0.32742,-1.67658 c 0.0471,-0.0119 0.0893,-0.0374 0.13114,-0.0792 0.20132,-0.20133 0.0643,-0.5327 -0.22027,-0.5327 -0.13779,0 -0.23875,0.0641 -0.28853,0.18329 -0.0259,0.0619 -0.0306,0.18493 -0.009,0.24113 0.0228,0.0598 0.10871,0.1477 0.17319,0.17699 0.0705,0.032 0.11866,0.0344 0.21368,0.0104 z"
       id="path7999"
       inkscape:connector-curvature="0" />
    <path
       style="fill:#ffffff;stroke-width:0.00169903;stroke-miterlimit:4;stroke-dasharray:none"
       d="m 11.133824,291.22832 v -0.0824 h 0.18521 c 0.10187,0 0.2165,-0.004 0.25474,-0.01 l 0.0695,-0.01 v 0.0919 0.0919 h -0.25473 -0.25474 z"
       id="path8001"
       inkscape:connector-curvature="0" />
    <path
       style="fill:#ffffff;stroke-width:0.00169903;stroke-miterlimit:4;stroke-dasharray:none"
       d="m 11.133824,292.43457 v -0.92904 h 0.25474 0.25473 v 0.92904 0.92904 h -0.25473 -0.25474 z"
       id="path8003"
       inkscape:connector-curvature="0" />
    <path
       style="fill:#ffffff;stroke-width:0.16197975;stroke-miterlimit:4;stroke-dasharray:none"
       d=""
       id="path8005"
       inkscape:connector-curvature="0"
       transform="matrix(0.26458333,0,0,0.26458333,0,280.06665)" />
    <path
       style="fill:#ffffff;stroke-width:0.00169903;stroke-miterlimit:4;stroke-dasharray:none"
       d="m 11.142245,287.60494 c 0.004,-0.0507 0.0101,-0.0574 0.0646,-0.0738 0.0861,-0.0258 0.28802,-0.0243 0.37938,0.003 0.0741,0.022 0.0776,0.0254 0.0776,0.0749 v 0.0519 h -0.26314 -0.26313 z"
       id="path8007"
       inkscape:connector-curvature="0" />
    <path
       style="fill:#ffffff;stroke-width:0.00169903;stroke-miterlimit:4;stroke-dasharray:none"
       d="m 12.874634,289.65772 c -0.032,-0.0341 -0.0424,-0.102 -0.0233,-0.15195 0.014,-0.0365 0.0896,-0.0702 0.13315,-0.0592 0.0503,0.0126 0.0973,0.0747 0.0973,0.1287 0,0.10136 -0.13788,0.15626 -0.20718,0.0825 z"
       id="path8009"
       inkscape:connector-curvature="0" />
    <path
       style="fill:#ffffff;stroke-width:0.00169903;stroke-miterlimit:4;stroke-dasharray:none"
       d="m 13.170044,291.37817 c -0.0215,-0.0117 -0.0471,-0.0405 -0.0569,-0.0641 -0.0497,-0.11991 0.10939,-0.2236 0.20158,-0.13141 0.0516,0.0516 0.0489,0.11827 -0.007,0.17416 -0.0484,0.0484 -0.0791,0.0532 -0.13769,0.0213 z"
       id="path8011"
       inkscape:connector-curvature="0" />
    <path
       style="fill:#ffffff;stroke-width:0.00169903;stroke-miterlimit:4;stroke-dasharray:none"
       d="m 12.889404,292.97999 c -0.0535,-0.0375 -0.0668,-0.0895 -0.0382,-0.14975 0.0385,-0.0812 0.13606,-0.0945 0.19687,-0.0269 0.0963,0.10699 -0.0406,0.25935 -0.15869,0.17664 z"
       id="path8013"
       inkscape:connector-curvature="0" />
    <path
       style="fill:#ffffff;stroke-width:0.00169903;stroke-miterlimit:4;stroke-dasharray:none"
       d="m 9.7445944,292.97027 c -0.0667,-0.0729 -0.0537,-0.15284 0.0323,-0.19917 0.0423,-0.0228 0.0534,-0.0234 0.0914,-0.005 0.0868,0.0418 0.10415,0.14072 0.0364,0.20845 -0.041,0.041 -0.12071,0.0389 -0.16012,-0.004 z"
       id="path8015"
       inkscape:connector-curvature="0" />
    <path
       style="fill:#ffffff;stroke-width:0.00169903;stroke-miterlimit:4;stroke-dasharray:none"
       d="m 9.4765344,291.25979 c -0.0447,-0.0447 -0.0525,-0.0613 -0.0445,-0.0953 0.0235,-0.10003 0.14276,-0.14049 0.2115,-0.0718 0.0687,0.0687 0.0283,0.188 -0.0718,0.2115 -0.0339,0.008 -0.0505,2e-4 -0.0952,-0.0445 z"
       id="path8017"
       inkscape:connector-curvature="0" />
    <path
       style="fill:#ffffff;stroke-width:0.00169903;stroke-miterlimit:4;stroke-dasharray:none"
       d="m 9.7514644,289.66267 c -0.0505,-0.0397 -0.0625,-0.0943 -0.0333,-0.15085 0.0422,-0.0815 0.1365,-0.0913 0.20253,-0.021 0.0271,0.0288 0.0317,0.0465 0.0243,0.0924 -0.0162,0.10121 -0.11462,0.14162 -0.1936,0.0795 z"
       id="path8019"
       inkscape:connector-curvature="0" />
    <path
       style="fill:#000000;stroke-width:0.00915683"
       d="m 9.5810523,295.94673 c -0.1304334,-0.0277 -0.2626094,-0.11173 -0.3404,-0.21647 -0.1374371,-0.18504 -0.1584469,-0.40975 -0.057543,-0.61545 0.04303,-0.0877 0.099898,-0.15508 0.1778858,-0.21074 0.3491713,-0.24916 0.8289449,-0.0627 0.9153819,0.35578 0.0181,0.0876 0.01808,0.1441 -7.3e-5,0.23307 -0.06483,0.31767 -0.3768992,0.52136 -0.6952517,0.45381 z m 0.2285402,-0.14544 c 0.1579299,-0.0412 0.2795855,-0.16318 0.3209465,-0.32197 0.05931,-0.2277 -0.08644,-0.46796 -0.3209465,-0.52904 -0.2291351,-0.0597 -0.4691704,0.0854 -0.5304301,0.32059 -0.081614,0.31333 0.2170941,0.61204 0.5304301,0.53042 z m 1.4563165,0.14544 c -0.130433,-0.0277 -0.26261,-0.11173 -0.340399,-0.21647 -0.137438,-0.18504 -0.158448,-0.40975 -0.05754,-0.61545 0.04303,-0.0877 0.0999,-0.15508 0.177886,-0.21074 0.349171,-0.24916 0.828943,-0.0627 0.915381,0.35578 0.0181,0.0876 0.01808,0.1441 -7.2e-5,0.23307 -0.06483,0.31767 -0.376899,0.52136 -0.695251,0.45381 z m 0.228541,-0.14544 c 0.15793,-0.0412 0.279585,-0.16318 0.320946,-0.32197 0.05931,-0.2277 -0.08644,-0.46796 -0.320946,-0.52904 -0.229135,-0.0597 -0.469171,0.0854 -0.53043,0.32059 -0.08161,0.31333 0.217093,0.61204 0.53043,0.53042 z m 1.456316,0.14544 c -0.130433,-0.0277 -0.262609,-0.11173 -0.340399,-0.21647 -0.137437,-0.18504 -0.158447,-0.40975 -0.05754,-0.61545 0.04303,-0.0877 0.0999,-0.15508 0.177886,-0.21074 0.349171,-0.24916 0.828944,-0.0627 0.915382,0.35578 0.0181,0.0876 0.01808,0.1441 -7e-5,0.23307 -0.06483,0.31767 -0.376898,0.52136 -0.69525,0.45381 z m 0.228541,-0.14544 c 0.15793,-0.0412 0.279586,-0.16318 0.320946,-0.32197 0.05931,-0.2277 -0.08644,-0.46796 -0.320946,-0.52904 -0.229135,-0.0597 -0.46917,0.0854 -0.53043,0.32059 -0.08161,0.31333 0.217094,0.61204 0.53043,0.53042 z"
       id="path8117"
       inkscape:connector-curvature="0" />
    <path
       style="fill:#ffffff;stroke-width:0.0015396;stroke-miterlimit:4;stroke-dasharray:none"
       d="m 9.5708023,295.78549 c -0.3661416,-0.13087 -0.3967338,-0.62478 -0.04938,-0.79724 0.1120009,-0.0556 0.2496071,-0.0568 0.3588606,-0.003 0.2830301,0.139 0.3404291,0.4921 0.1139315,0.70088 -0.1209225,0.11146 -0.283278,0.14963 -0.4234119,0.0995 z"
       id="path8119"
       inkscape:connector-curvature="0" />
    <path
       style="fill:#ffffff;stroke-width:0.0015396;stroke-miterlimit:4;stroke-dasharray:none"
       d="m 11.263663,295.78797 c -0.293641,-0.10673 -0.395348,-0.43637 -0.209724,-0.67974 0.07885,-0.10338 0.249903,-0.17773 0.374847,-0.16293 0.139808,0.0166 0.279797,0.11545 0.348415,0.24613 0.03067,0.0584 0.03593,0.0853 0.03593,0.18385 0,0.0985 -0.0053,0.12538 -0.0358,0.18331 -0.101734,0.19294 -0.331567,0.29558 -0.513674,0.22938 z"
       id="path8121"
       inkscape:connector-curvature="0" />
    <path
       style="fill:#ffffff;stroke-width:0.0015396;stroke-miterlimit:4;stroke-dasharray:none"
       d="m 12.958778,295.7917 c -0.201518,-0.0754 -0.312584,-0.22396 -0.312584,-0.41821 0,-0.0799 0.007,-0.11028 0.04221,-0.18171 0.16021,-0.32543 0.601326,-0.32677 0.771506,-0.002 0.03179,0.0606 0.03695,0.0865 0.03695,0.18585 0,0.0993 -0.0052,0.12526 -0.03695,0.18586 -0.04823,0.0919 -0.121704,0.1629 -0.211982,0.20472 -0.08818,0.0408 -0.217994,0.0524 -0.289152,0.0259 z"
       id="path8123"
       inkscape:connector-curvature="0" />
  </g>
</svg>
