<?xml version="1.0" encoding="UTF-8" standalone="no"?>
<!-- Created with Inkscape (http://www.inkscape.org/) -->

<svg
   width="64"
   height="64"
   viewBox="0 0 16.933333 16.933334"
   version="1.1"
   id="svg8"
   inkscape:version="1.2.2 (732a01da63, 2022-12-09)"
   sodipodi:docname="cleaning_room.svg"
   xmlns:inkscape="http://www.inkscape.org/namespaces/inkscape"
   xmlns:sodipodi="http://sodipodi.sourceforge.net/DTD/sodipodi-0.dtd"
   xmlns="http://www.w3.org/2000/svg"
   xmlns:svg="http://www.w3.org/2000/svg"
   xmlns:rdf="http://www.w3.org/1999/02/22-rdf-syntax-ns#"
   xmlns:cc="http://creativecommons.org/ns#"
   xmlns:dc="http://purl.org/dc/elements/1.1/">
  <defs
     id="defs2" />
  <sodipodi:namedview
     id="base"
     pagecolor="#ffffff"
     bordercolor="#666666"
     borderopacity="1.0"
     inkscape:pageopacity="0.0"
     inkscape:pageshadow="2"
     inkscape:zoom="7.9195959"
     inkscape:cx="42.300138"
     inkscape:cy="32.072343"
     inkscape:document-units="mm"
     inkscape:current-layer="layer1"
     showgrid="false"
     units="px"
     inkscape:window-width="1920"
     inkscape:window-height="1009"
     inkscape:window-x="-8"
     inkscape:window-y="1072"
     inkscape:window-maximized="1"
     inkscape:showpageshadow="2"
     inkscape:pagecheckerboard="0"
     inkscape:deskcolor="#d1d1d1" />
  <metadata
     id="metadata5">
    <rdf:RDF>
      <cc:Work
         rdf:about="">
        <dc:format>image/svg+xml</dc:format>
        <dc:type
           rdf:resource="http://purl.org/dc/dcmitype/StillImage" />
        <dc:title />
      </cc:Work>
    </rdf:RDF>
  </metadata>
  <g
     inkscape:label="Layer 1"
     inkscape:groupmode="layer"
     id="layer1"
     transform="translate(0,-280.06665)">
    <path
       style="fill:#ffffff;stroke-width:0.02863424;stroke-miterlimit:4;stroke-dasharray:none"
       d=""
       id="path7728"
       inkscape:connector-curvature="0"
       transform="matrix(0.26458333,0,0,0.26458333,0,280.06665)" />
    <g
       transform="matrix(0.46227592,0,0,0.46227592,0.27632537,150.81151)"
       id="layer1-9"
       inkscape:label="Layer 1">
      <path
         inkscape:connector-curvature="0"
         id="path5367"
         d="M 2.8876246,296.1243 C 2.4740943,296.046 1.9969334,295.68282 1.8156218,295.30833 1.652729,294.97189 1.6493104,294.93564 1.6489272,293.54099 l -3.498e-4,-1.28963 0.072057,-0.0838 c 0.059832,-0.0696 0.095726,-0.0838 0.2115817,-0.0838 0.1158561,0 0.1517491,0.0142 0.2115819,0.0838 l 0.072056,0.0838 v 1.15283 c 0,0.70059 0.012818,1.22643 0.032671,1.34045 0.041981,0.24106 0.1797841,0.47073 0.3673277,0.61221 0.2833619,0.21375 0.2069,0.20781 2.5569322,0.19859 l 2.1037723,-0.009 0.1492831,-0.0686 c 0.187837,-0.0864 0.3846051,-0.27548 0.4876842,-0.46881 l 0.07959,-0.14929 0.00829,-1.96233 c 0.00917,-2.17091 0.00904,-2.17269 -0.1808178,-2.55843 -0.1126842,-0.22893 -0.390092,-0.53812 -0.6086974,-0.67843 -0.08483,-0.0544 -0.2594914,-0.14067 -0.3881365,-0.19163 -0.6182651,-0.24489 -1.0540149,-0.63223 -1.3220245,-1.17516 -0.1892123,-0.38332 -0.2400404,-0.65391 -0.2402868,-1.27921 l -2.15e-4,-0.5303 -1.141574,0.008 -1.1415739,0.008 -0.1408596,0.418 c -0.2541296,0.75411 -0.4526343,1.6687 -0.5442073,2.50738 -0.040672,0.37252 -0.045905,0.39077 -0.1348533,0.47024 -0.1026243,0.0917 -0.2024335,0.10415 -0.3255222,0.0404 -0.1535457,-0.0794 -0.1702127,-0.15456 -0.12835,-0.57868 0.084567,-0.85679 0.3241996,-1.93119 0.6073455,-2.72304 l 0.1548024,-0.43291 0.010458,-0.50453 0.010458,-0.50451 -0.2165683,0.0202 c -0.3834666,0.0357 -0.5334402,0.0869 -1.0777879,0.36869 -0.1118957,0.058 -0.24185758,0.0246 -0.3348223,-0.0859 -0.0706697,-0.084 -0.075448,-0.11043 -0.075448,-0.41754 0,-0.41555 0.0429223,-0.69223 0.15587475,-1.00474 0.28534925,-0.78949 1.00714555,-1.39453 1.84452165,-1.54613 0.1769543,-0.032 0.760835,-0.0408 2.7835298,-0.0415 2.2654155,-6.1e-4 2.5731643,0.004 2.6775744,0.0462 l 0.1179699,0.0472 0.4805823,-0.22634 c 0.2658406,-0.1252 0.5207114,-0.22635 0.5703888,-0.22635 0.2097246,0 0.3375843,0.20264 0.254033,0.40262 -0.042277,0.10122 -0.082647,0.12685 -0.5538191,0.35214 l -0.5082087,0.24299 v 0.40541 0.40538 l 0.8245178,0.38703 c 0.8493628,0.3987 0.9668818,0.47524 0.9668818,0.62966 0,0.0974 -0.07573,0.24051 -0.147629,0.27898 -0.03159,0.0169 -0.09535,0.0307 -0.141675,0.0307 -0.04633,0 -0.4536353,-0.17529 -0.9051271,-0.38954 l -0.8208946,-0.38956 -0.1452475,0.0462 c -0.1068152,0.0339 -0.2758861,0.0462 -0.6389706,0.0462 H 7.103295 l 0.017091,0.51502 c 0.014603,0.44023 0.028211,0.55003 0.093701,0.75602 0.077909,0.24505 0.2064524,0.46427 0.4200606,0.7164 0.1600147,0.18887 0.1657045,0.33539 0.01815,0.46723 -0.094747,0.0846 -0.1106397,0.0888 -0.2729374,0.0704 -0.5135338,-0.0581 -1.0230323,-0.29989 -1.4090361,-0.66868 l -0.1119626,-0.10697 v 0.59142 c 0,0.44277 0.011895,0.63752 0.047331,0.77487 0.074208,0.28762 0.2423539,0.57816 0.4624859,0.7991 0.1984376,0.19917 0.2512091,0.23001 0.9173689,0.53622 0.5762134,0.26486 1.0485088,0.83047 1.2372758,1.48175 0.067122,0.23155 0.067428,0.24209 0.067428,2.30766 0,2.33337 0.00872,2.23396 -0.2281928,2.60052 -0.2277193,0.35232 -0.5434933,0.58328 -0.9340767,0.68317 -0.2259277,0.0578 -0.321064,0.0602 -2.313344,0.0569 -1.1659876,-10e-4 -2.1432339,-0.0157 -2.2270091,-0.0316 z M 6.640685,286.01544 c -0.070547,-0.21149 -0.0782,-0.28334 -0.089053,-0.83599 l -0.011879,-0.6046 -0.079453,6.1e-4 c -0.055484,5.7e-4 -0.1572849,0.0685 -0.3375104,0.22528 l -0.2580579,0.22453 0.044049,0.16869 c 0.090643,0.34711 0.3227368,0.7006 0.6064179,0.92359 0.090317,0.071 0.1728611,0.1291 0.1834335,0.12911 0.010567,0 -0.015508,-0.10415 -0.057957,-0.23137 z m -1.3859419,-0.4777 0.00844,-0.33589 H 4.1724396 3.0816927 v 0.34373 0.34372 l 1.0823046,-0.008 1.0823045,-0.008 z m -3.5016719,-0.83925 0.2687098,-0.0755 1.7217791,-0.0166 1.7217795,-0.0166 0.3084736,-0.27151 c 0.1696611,-0.14933 0.3378216,-0.28705 0.3736892,-0.30603 0.035871,-0.019 0.1735821,-0.0345 0.3060309,-0.0345 h 0.240816 v -0.4491 -0.44909 l -1.9182904,0.009 c -1.8889863,0.009 -1.9212563,0.01 -2.1123596,0.0751 -0.6767305,0.23023 -1.1650357,0.81257 -1.2703743,1.51502 -0.020135,0.13426 -0.017674,0.14277 0.034682,0.11992 0.030995,-0.0136 0.1772739,-0.0586 0.3250645,-0.10014 z m 6.2549712,-1.16862 v -0.44784 H 7.6497629 7.2914826 v 0.44784 0.44787 H 7.6497629 8.0080424 Z M 4.350601,294.30976 c -0.032841,-0.0134 -0.086584,-0.0543 -0.119427,-0.0908 -0.052389,-0.0582 -0.060971,-0.11696 -0.069989,-0.47902 l -0.010274,-0.41269 -0.4145873,-0.01 c -0.4076027,-0.01 -0.4159795,-0.0111 -0.4972859,-0.0924 l -0.082699,-0.0828 v -0.77804 -0.77804 l 0.097506,-0.0871 c 0.097441,-0.087 0.097769,-0.0871 0.497236,-0.0871 H 4.150811 l 0.010328,-0.42047 0.010328,-0.42048 0.097506,-0.0871 0.097506,-0.0871 h 0.7324995 c 0.7763837,0 0.8662058,0.0142 0.9376461,0.14764 0.016906,0.0316 0.03074,0.23969 0.03074,0.46246 v 0.40502 h 0.3896193 c 0.4116769,0 0.5316995,0.0298 0.5947655,0.14763 0.041367,0.0774 0.041367,1.53829 0,1.61557 -0.063064,0.11784 -0.1830886,0.14763 -0.5947655,0.14763 h -0.389621 v 0.40503 c 0,0.22276 -0.013835,0.43088 -0.03074,0.46248 -0.071331,0.13328 -0.1621547,0.14772 -0.9157248,0.14573 -0.3908185,-8.1e-4 -0.7374499,-0.0129 -0.7702921,-0.0263 z m 1.1242265,-0.98937 0.010328,-0.42048 0.097506,-0.0871 c 0.097504,-0.0871 0.097512,-0.0871 0.5000989,-0.0871 h 0.4025943 v -0.35602 -0.35602 l -0.4174003,-0.01 c -0.4105928,-0.01 -0.4187482,-0.0111 -0.500099,-0.0924 -0.08126,-0.0813 -0.082879,-0.0899 -0.093027,-0.50011 l -0.010328,-0.41734 H 5.1090827 4.7536664 v 0.40502 c 0,0.22278 -0.013834,0.43088 -0.03074,0.46247 -0.063064,0.11784 -0.1830877,0.14763 -0.594765,0.14763 H 3.7385419 v 0.35828 0.35828 h 0.3896193 c 0.4116772,0 0.5317006,0.0298 0.5947649,0.14763 0.016906,0.0315 0.03074,0.23971 0.03074,0.46246 v 0.40504 h 0.3554163 0.355418 z m -3.6663126,-2.02614 c -0.1669428,-0.071 -0.2141277,-0.32345 -0.087885,-0.47021 0.059832,-0.0696 0.095726,-0.0838 0.2115819,-0.0838 0.178465,0 0.2836385,0.10513 0.2836385,0.28364 0,0.20871 -0.2156744,0.35186 -0.4073352,0.27035 z m 12.5079441,-3.49414 c -0.827215,-0.41833 -0.547398,-1.66787 0.376615,-1.68181 0.346611,-0.005 0.640352,0.17295 0.804071,0.48774 0.09467,0.18201 0.09972,0.20691 0.0877,0.432 -0.0145,0.27149 -0.07944,0.42758 -0.247986,0.59613 -0.168945,0.16895 -0.324589,0.23356 -0.596137,0.24747 -0.220972,0.0113 -0.252734,0.005 -0.424262,-0.0815 z m 0.597816,-0.59202 c 0.149268,-0.15581 0.08784,-0.41699 -0.113726,-0.48351 -0.207762,-0.0686 -0.437727,0.13555 -0.3858,0.34244 0.05577,0.2222 0.343855,0.30354 0.499526,0.14107 z m -3.413002,-1.24287 c -0.498924,-0.23859 -0.57922,-0.30564 -0.57922,-0.48369 0,-0.13528 0.144437,-0.27968 0.279727,-0.27968 0.109879,0 0.980318,0.41479 1.060159,0.5052 0.08721,0.0987 0.07922,0.28074 -0.01654,0.37651 -0.140866,0.14085 -0.232624,0.12626 -0.744133,-0.11834 z m 2.411396,-0.55184 c -0.09072,-0.081 -0.09855,-0.10317 -0.112434,-0.31894 -0.01394,-0.21657 -0.01987,-0.23323 -0.08957,-0.25186 -0.04105,-0.0109 -0.133581,-0.0485 -0.205616,-0.0834 l -0.130974,-0.0634 -0.162535,0.14855 c -0.140866,0.12875 -0.179238,0.14855 -0.28784,0.14855 -0.155054,0 -0.249406,-0.063 -0.281801,-0.18795 -0.03826,-0.14761 -0.01073,-0.22014 0.150372,-0.39641 0.118134,-0.12925 0.141721,-0.17135 0.114436,-0.20423 -0.01891,-0.0228 -0.05962,-0.11329 -0.09047,-0.20115 l -0.05611,-0.15974 -0.228895,-0.015 c -0.212339,-0.0139 -0.235187,-0.022 -0.31593,-0.11242 -0.09643,-0.10806 -0.109174,-0.20602 -0.04335,-0.33329 0.05679,-0.10983 0.105472,-0.12944 0.371156,-0.14959 l 0.220768,-0.0167 0.03756,-0.12768 c 0.02066,-0.0702 0.05978,-0.16157 0.08692,-0.203 0.04856,-0.0741 0.04697,-0.0779 -0.09777,-0.23629 -0.162835,-0.17817 -0.190747,-0.25796 -0.142476,-0.4073 0.04052,-0.12539 0.207963,-0.21837 0.33557,-0.18634 0.04637,0.0116 0.153467,0.0866 0.237972,0.16647 l 0.153645,0.14531 0.100507,-0.0574 c 0.05528,-0.0317 0.150893,-0.0735 0.212472,-0.0929 l 0.111963,-0.0354 v -0.19034 c 0,-0.22577 0.04175,-0.33162 0.153613,-0.38946 0.10415,-0.0539 0.185762,-0.0539 0.289907,0 0.111867,0.0579 0.153613,0.16369 0.153613,0.38946 v 0.19034 l 0.111964,0.0354 c 0.06158,0.0195 0.156825,0.0611 0.211656,0.0924 l 0.0997,0.057 0.159985,-0.14622 c 0.08799,-0.0804 0.195445,-0.15512 0.238785,-0.16599 0.121835,-0.0307 0.290489,0.0653 0.330044,0.18773 0.04836,0.14961 0.02034,0.22916 -0.144165,0.40914 -0.118136,0.12926 -0.141723,0.17135 -0.114436,0.20422 0.0189,0.0228 0.05962,0.1133 0.09047,0.20117 l 0.05611,0.15973 0.218898,0.0167 c 0.263813,0.0202 0.312573,0.0399 0.369285,0.14961 0.06582,0.12727 0.05307,0.22525 -0.04335,0.33328 -0.08075,0.0905 -0.103586,0.0986 -0.315932,0.11243 l -0.228894,0.0148 -0.05611,0.15975 c -0.03086,0.0879 -0.07157,0.17837 -0.09047,0.20114 -0.02729,0.0328 -0.0034,0.0753 0.116201,0.20617 0.15971,0.17474 0.186336,0.2444 0.148381,0.38824 -0.03261,0.12356 -0.133527,0.19273 -0.282398,0.19352 -0.108267,5.6e-4 -0.145949,-0.0189 -0.289319,-0.15 -0.137718,-0.12585 -0.173723,-0.14532 -0.218867,-0.11824 -0.02972,0.0178 -0.121209,0.0573 -0.203315,0.0878 l -0.149283,0.0555 -0.01492,0.2296 c -0.01386,0.21316 -0.02191,0.23584 -0.112434,0.31663 -0.06128,0.0547 -0.130433,0.087 -0.186133,0.087 -0.05569,0 -0.124855,-0.0323 -0.186133,-0.087 z m 0.530363,-1.19022 c 0.138874,-0.0715 0.283489,-0.21772 0.360931,-0.36485 0.03929,-0.0747 0.05497,-0.16848 0.0549,-0.32844 -1.13e-4,-0.2539 -0.05803,-0.39597 -0.227489,-0.55811 -0.376561,-0.3603 -0.977279,-0.25529 -1.228664,0.21477 -0.08522,0.15934 -0.09006,0.51788 -0.0091,0.67178 0.105254,0.19997 0.284412,0.35232 0.495971,0.42173 0.123145,0.0404 0.424725,0.01 0.553419,-0.0569 z m -4.5420776,-0.49623 c -0.1120845,-0.11208 -0.1282997,-0.20793 -0.058133,-0.34361 0.073685,-0.1425 0.1549905,-0.15624 0.8652106,-0.14622 l 0.649239,0.009 0.072,0.0838 c 0.07721,0.0898 0.09589,0.24872 0.04126,0.3508 -0.06971,0.13024 -0.168243,0.14763 -0.836604,0.14763 h -0.631459 z m 0.7620356,-1.80701 c -0.110099,-0.1101 -0.118253,-0.26205 -0.02009,-0.37451 0.08269,-0.0947 1.287811,-0.67269 1.402793,-0.67274 0.04792,-1e-5 0.121622,0.0357 0.178462,0.0865 0.126654,0.11317 0.136775,0.29215 0.02286,0.40432 -0.112193,0.11047 -1.265395,0.64373 -1.392099,0.64373 -0.07585,0 -0.128661,-0.0241 -0.191922,-0.0872 z"
         style="fill:#000000;stroke-width:0.0298567" />
      <path
         inkscape:connector-curvature="0"
         id="path5371"
         d="m 1.4183453,284.63383 c 0.072408,-0.39003 0.243085,-0.70842 0.5380372,-1.00366 0.2407291,-0.24096 0.5456843,-0.41977 0.8149303,-0.47784 0.074644,-0.016 0.9873557,-0.0389 2.0282448,-0.0509 l 1.8925274,-0.0216 v 0.43779 0.43779 l -0.2684282,0.0129 -0.2684273,0.0129 -0.1799709,0.14919 c -0.098984,0.0821 -0.2578954,0.21658 -0.3531359,0.29894 l -0.173165,0.14972 -1.6932001,0.01 -1.6932001,0.01 -0.3089107,0.0889 c -0.1699007,0.0489 -0.3208325,0.0889 -0.3354038,0.0889 -0.015204,0 -0.01516,-0.061 1.015e-4,-0.14326 z"
         style="fill:#ffffff;stroke-width:0.0011399;stroke-miterlimit:4;stroke-dasharray:none" />
      <path
         inkscape:connector-curvature="0"
         id="path5373"
         d="m 3.1030703,285.54616 v -0.31668 h 1.0706718 1.0706727 v 0.31668 0.31668 H 4.1737421 3.1030703 Z"
         style="fill:#ffffff;stroke-width:0.0011399;stroke-miterlimit:4;stroke-dasharray:none" />
      <path
         inkscape:connector-curvature="0"
         id="path5375"
         d="m 4.7618581,293.34444 c 0,-0.21458 -0.012922,-0.42411 -0.02872,-0.46565 -0.047331,-0.12449 -0.138276,-0.15084 -0.5669404,-0.1642 l -0.3996163,-0.0126 v -0.34045 -0.34045 l 0.4214391,-0.0108 c 0.5699821,-0.0141 0.5552996,5.8e-4 0.5685735,-0.56914 l 0.00982,-0.42149 h 0.3406239 0.3406234 l 0.013867,0.40886 c 0.013399,0.39515 0.01659,0.41159 0.095059,0.4901 0.079202,0.0792 0.09153,0.0815 0.5027835,0.0917 l 0.4215919,0.0108 v 0.34395 0.34394 H 6.0999836 c -0.3337697,0 -0.3936113,0.008 -0.4829374,0.0631 -0.056082,0.0347 -0.1153606,0.088 -0.1317392,0.11866 -0.01638,0.0307 -0.029778,0.23297 -0.029778,0.4497 v 0.39406 H 5.1086908 4.7618532 Z"
         style="fill:#ffffff;stroke-width:0.0011399;stroke-miterlimit:4;stroke-dasharray:none" />
      <path
         inkscape:connector-curvature="0"
         id="path5377"
         d="M 6.5024824,286.08402 C 6.2511593,285.88036 6.0258927,285.5351 5.9252653,285.19933 l -0.049714,-0.16588 0.1142066,-0.0999 c 0.2366997,-0.20703 0.4233439,-0.33741 0.4829875,-0.33741 0.059718,0 0.062159,0.0202 0.076058,0.62581 0.011248,0.49021 0.025641,0.65675 0.066409,0.76859 0.028631,0.0786 0.047072,0.1577 0.040995,0.17594 -0.00606,0.0182 -0.075258,-0.0189 -0.1537351,-0.0825 z"
         style="fill:#ffffff;stroke-width:0.0011399;stroke-miterlimit:4;stroke-dasharray:none" />
      <path
         inkscape:connector-curvature="0"
         id="path5379"
         d="m 7.2952807,283.52545 v -0.43731 H 7.6421183 7.988955 v 0.43731 0.43732 H 7.6421183 7.2952807 Z"
         style="fill:#ffffff;stroke-width:0.0011399;stroke-miterlimit:4;stroke-dasharray:none" />
      <path
         inkscape:connector-curvature="0"
         id="path5381"
         d="m 13.862512,284.25281 c -0.156804,-0.0578 -0.311666,-0.18198 -0.407533,-0.32684 -0.09399,-0.14204 -0.128243,-0.4575 -0.06912,-0.63666 0.140474,-0.42563 0.648076,-0.63475 1.04841,-0.43187 0.282289,0.14305 0.400955,0.34764 0.400955,0.6913 0,0.19225 -0.01144,0.23932 -0.08731,0.35893 -0.09176,0.14469 -0.237411,0.27226 -0.367185,0.3216 -0.146409,0.0556 -0.399813,0.0672 -0.518222,0.0235 z"
         style="fill:#ffffff;stroke-width:0.0011399;stroke-miterlimit:4;stroke-dasharray:none" />
      <path
         inkscape:connector-curvature="0"
         id="path5383"
         d="m 14.560414,287.23513 c -0.114231,-0.0621 -0.165223,-0.20092 -0.116767,-0.3179 0.05036,-0.12159 0.139346,-0.17977 0.27497,-0.17977 0.08809,0 0.128125,0.0201 0.192322,0.0964 0.200407,0.23817 -0.07357,0.55183 -0.350525,0.4013 z"
         style="fill:#ffffff;stroke-width:0.0011399;stroke-miterlimit:4;stroke-dasharray:none" />
      <path
         inkscape:connector-curvature="0"
         id="path5404"
         d="m 1.7953869,289.62945 -0.1468095,2.62191"
         style="fill:none;stroke:#000000;stroke-width:0.01;stroke-linecap:butt;stroke-linejoin:miter;stroke-miterlimit:4;stroke-dasharray:none;stroke-opacity:1" />
      <path
         transform="matrix(0.26458333,0,0,0.26458333,0,280.06665)"
         inkscape:connector-curvature="0"
         id="path5406"
         d="M 11.469286,58.339849 C 10.44679,58.196444 9.4796533,57.485608 8.9442557,56.483978 8.5644432,55.773417 8.5395832,55.481751 8.4548326,50.741908 L 8.3655469,45.748424 7.8813146,45.476963 C 7.4844908,45.254505 7.2951372,45.243983 6.832321,45.418676 l -0.5647612,0.213175 0.1095283,-0.662514 c 0.06024,-0.364382 0.1104126,-1.079338 0.1114935,-1.588788 l 0.00197,-0.926273 0.6048975,0.09816 c 0.4640934,0.07531 0.6927102,0.01036 0.9821429,-0.279084 0.790386,-0.790386 0.2836525,-1.984388 -0.8421727,-1.984388 -0.523668,0 -0.5662963,-0.04517 -0.5662963,-0.600076 0,-0.330043 0.050325,-0.967237 0.111833,-1.415987 0.1055182,-0.769839 0.1424611,-0.81504 0.6542486,-0.800489 0.8402972,0.02389 1.1215965,-0.488625 1.3650845,-2.487131 0.3247857,-2.665784 1.0270095,-5.903878 1.8145789,-8.367387 l 0.710292,-2.221787 h 4.259267 4.259267 l 0.06624,2.561611 0.06624,2.561611 0.748052,1.509632 c 1.02525,2.06904 2.314332,3.286923 4.647513,4.390818 2.174486,1.028811 3.528514,2.250235 4.267152,3.849256 l 0.51238,1.109215 -0.02853,7.824004 -0.02852,7.824001 -0.471398,0.712329 c -0.259268,0.391782 -0.844754,0.949105 -1.301079,1.238498 l -0.82968,0.526168 -7.598968,-0.02386 c -4.179432,-0.01312 -7.970142,-0.07592 -8.4238,-0.139543 z m 11.138931,-4.621952 c 0.19692,-0.163676 0.316038,-0.727719 0.4054,-1.919642 l 0.126544,-1.687861 h 1.496622 c 2.222868,0 2.210907,0.01962 2.210907,-3.626584 0,-3.677802 0.05406,-3.583972 -2.112979,-3.667395 l -1.606269,-0.06184 -0.126294,-1.68453 c -0.102112,-1.361983 -0.188289,-1.717707 -0.450066,-1.857806 -0.178073,-0.0953 -1.629678,-0.173277 -3.225786,-0.173277 -2.7338,0 -2.925973,0.02251 -3.315311,0.388271 -0.367828,0.345556 -0.413295,0.551826 -0.413295,1.875 v 1.486729 l -1.473215,0.0059 c -2.297063,0.0093 -2.276785,-0.02386 -2.276785,3.717909 0,3.677534 -0.05049,3.597573 2.271876,3.597573 h 1.478124 l 0.02113,1.205357 c 0.02979,1.699668 0.176854,2.229541 0.694078,2.500818 0.611408,0.320675 5.890352,0.237934 6.295322,-0.09867 z"
         style="fill:#ffffff;stroke-width:0.00674916;stroke-miterlimit:4;stroke-dasharray:none" />
    </g>
    <path
       style="fill:#ffffff;stroke-width:0.16197975;stroke-miterlimit:4;stroke-dasharray:none"
       d=""
       id="path8005"
       inkscape:connector-curvature="0"
       transform="matrix(0.26458333,0,0,0.26458333,0,280.06665)" />
    <path
       style="fill:#000000;stroke-width:0.0478349"
       d="m 6.6011181,296.40236 c -0.1651772,-0.09 -0.2813411,-0.34451 -0.2813411,-0.61699 0,-0.18746 -0.014013,-0.21998 -0.094914,-0.21998 -0.052209,0 -0.1652147,-0.0622 -0.2511348,-0.1395 l -0.1562193,-0.13943 -0.012899,-0.94883 -0.0129,-0.9487 0.9815689,-1.49988 0.981569,-1.49981 v -1.71873 c 0,-1.50196 -0.00976,-1.73369 -0.077278,-1.8368 -0.1134283,-0.17309 -0.1073007,-0.56616 0.011303,-0.72502 0.1784696,-0.23909 0.3409622,-0.32558 0.6113553,-0.32558 0.4571504,0 0.7457223,0.34706 0.6810188,0.81923 l -0.028692,0.20916 0.1784671,-5.1e-4 c 0.2698604,-0.002 0.7512976,-0.12561 1.229125,-0.31773 0.602552,-0.24237 0.979442,-0.24237 1.581991,0 0.477827,0.19212 0.959269,0.31666 1.229129,0.31773 l 0.178469,5.1e-4 -0.02862,-0.20916 c -0.06467,-0.47217 0.223864,-0.81923 0.681016,-0.81923 0.270418,0 0.432886,0.0866 0.611413,0.32558 0.121886,0.16334 0.12978,0.54422 0.01489,0.71953 -0.07225,0.11017 -0.08091,0.30824 -0.08091,1.84332 v 1.71966 l 0.981526,1.49881 0.981525,1.49892 -0.01288,0.9487 -0.01288,0.94883 -0.15622,0.13943 c -0.08596,0.077 -0.198932,0.1395 -0.251136,0.1395 -0.08086,0 -0.0949,0.0327 -0.0949,0.21998 0,0.27882 -0.117929,0.52977 -0.291086,0.61923 -0.187609,0.097 -0.86316,0.0935 -1.054443,-0.008 -0.174942,-0.0905 -0.280867,-0.32322 -0.280867,-0.61714 v -0.21678 H 11.151132 7.9461743 v 0.21683 c 0,0.29391 -0.1059231,0.52664 -0.2808668,0.61713 -0.1889944,0.0978 -0.8862708,0.0997 -1.0641887,0.004 z m 0.8698492,-0.31248 c 0.072409,-0.038 0.092527,-0.10118 0.092527,-0.28695 v -0.23754 H 7.132976 6.7024588 v 0.23682 c 0,0.17509 0.02183,0.2495 0.083711,0.28553 0.1097272,0.0638 0.5667147,0.0659 0.6847968,0.004 z m 8.0363137,0 c 0.07238,-0.038 0.09252,-0.10118 0.09252,-0.28695 v -0.23754 h -0.430522 -0.430512 v 0.23682 c 0,0.17509 0.02187,0.2495 0.08375,0.28553 0.109728,0.0638 0.566715,0.0659 0.684795,0.004 z m 0.570882,-0.90619 c 0.05884,-0.0371 0.07179,-0.18133 0.07179,-0.80046 V 293.6281 H 11.151135 6.1523569 v 0.75517 c 0,0.61918 0.012911,0.76337 0.071756,0.80049 0.097055,0.0609 9.7571131,0.0609 9.8540531,-7e-5 z m -5.118369,-3.80479 v -1.8904 l -1.104691,0.0133 -1.1046902,0.0133 -1.2153179,1.85787 c -0.6684246,1.0218 -1.2153179,1.86671 -1.2153179,1.87753 0,0.0109 1.0440038,0.0191 2.3200083,0.0191 h 2.3200087 z m -3.6474362,1.31262 c -0.096682,-0.0568 -0.1095705,-0.19039 -0.026312,-0.27364 0.042304,-0.0421 0.469089,-0.0581 1.6229805,-0.0581 1.3594737,0 1.5754767,0.01 1.6407477,0.0753 0.04132,0.0408 0.07517,0.0935 0.07517,0.11626 0,0.023 -0.03381,0.0748 -0.07517,0.11611 -0.06528,0.0658 -0.277591,0.075 -1.6144382,0.0733 -0.9562198,-5.5e-4 -1.5709785,-0.0193 -1.6229802,-0.0499 z m 0.4928253,-0.92592 c -0.032039,-0.0381 -0.044261,-0.1143 -0.027156,-0.16824 0.030373,-0.0956 0.062523,-0.0979 1.3853158,-0.0979 1.1772531,0 1.3624421,0.01 1.4170981,0.076 0.0456,0.0554 0.04906,0.0976 0.0126,0.15541 -0.04462,0.0702 -0.20036,0.0809 -1.3899392,0.0921 -1.1301585,0.0107 -1.3488013,0.003 -1.3979436,-0.0582 z m 0.5262108,-0.90886 c -0.042532,-0.051 -0.043477,-0.0939 -0.00375,-0.16838 0.051926,-0.0971 0.081403,-0.0993 1.1342285,-0.087 0.9478936,0.0115 1.0870946,0.0232 1.1311506,0.0923 0.03646,0.0584 0.03295,0.10051 -0.01261,0.15547 -0.05392,0.0654 -0.21448,0.076 -1.1274515,0.076 -0.8668746,0 -1.0751656,-0.0132 -1.1215902,-0.0694 z m 0.5420205,-0.71788 c -0.014562,-0.0376 -0.018973,-0.10788 -0.00981,-0.15538 0.015311,-0.0798 0.084048,-0.0867 0.8479076,-0.0867 0.723726,0 0.837751,0.0101 0.881525,0.0803 0.03651,0.058 0.03301,0.10046 -0.01258,0.15538 -0.08938,0.10778 -1.6658908,0.11407 -1.7070221,0.01 z m 7.1090746,3.11045 c 0,-0.0111 -0.546419,-0.85581 -1.214266,-1.87755 l -1.214259,-1.85758 -1.105747,-0.0135 -1.105742,-0.0133 v 1.89037 1.89037 h 2.32001 c 1.276003,0 2.320004,-0.01 2.320004,-0.0193 z m -4.229998,-0.5813 c -0.04129,-0.0408 -0.07519,-0.0935 -0.07519,-0.11624 0,-0.0231 0.03376,-0.0748 0.07519,-0.11619 0.0653,-0.0658 0.281271,-0.0752 1.64075,-0.0752 1.624264,0 1.680382,0.01 1.680382,0.19921 0,0.16698 -0.154424,0.18352 -1.715512,0.18352 -1.32754,0 -1.540418,-0.01 -1.60562,-0.0753 z m -0.03061,-0.90955 c -0.04556,-0.0554 -0.04903,-0.0976 -0.01258,-0.15537 0.04461,-0.0703 0.202145,-0.0807 1.416866,-0.0922 1.344073,-0.013 1.36714,-0.0113 1.397944,0.0861 0.07211,0.22701 0.0094,0.23758 -1.411636,0.23758 -1.153027,0 -1.335939,-0.01 -1.390551,-0.076 z m 0,-0.90888 c -0.04555,-0.0554 -0.04903,-0.0976 -0.01259,-0.15539 0.04411,-0.0699 0.183258,-0.0807 1.13115,-0.0923 1.05283,-0.0131 1.082298,-0.0101 1.134229,0.087 0.03983,0.0742 0.03889,0.1171 -0.0043,0.16838 -0.04647,0.0563 -0.254715,0.0691 -1.12159,0.0691 -0.912974,0 -1.073529,-0.0108 -1.127454,-0.0761 z m 0.0013,-0.71638 c -0.04645,-0.0564 -0.05003,-0.0986 -0.01345,-0.15654 0.04374,-0.0692 0.157836,-0.0799 0.882177,-0.0799 h 0.831903 v 0.14344 0.1435 l -0.818388,0.0137 c -0.703829,0.0115 -0.827317,0.004 -0.882179,-0.0636 z m -3.3577192,-0.6678 0.2036076,-0.30989 h 2.5824856 2.582486 l 0.203605,0.30989 c 0.111985,0.17052 0.214371,0.31045 0.227527,0.31097 0.01319,5.9e-4 0.01783,-0.58013 0.01041,-1.29056 l -0.01343,-1.29161 h -0.165972 -0.16592 l -0.0011,0.72954 c -3.76e-4,0.40122 -0.01894,0.75831 -0.04123,0.79351 -0.02224,0.0355 -0.09193,0.0571 -0.154738,0.0477 l -0.114174,-0.016 -0.01315,-0.76978 -0.01315,-0.76979 -0.460306,-0.057 c -0.42714,-0.052 -0.646057,-0.11375 -1.365897,-0.38239 -0.347757,-0.12987 -0.683082,-0.12987 -1.030844,0 -0.7198368,0.26864 -0.9387598,0.3299 -1.3658976,0.38239 l -0.4603072,0.057 -0.013105,0.76979 -0.013105,0.76978 -0.1141784,0.016 c -0.062802,0.01 -0.1324278,-0.0132 -0.1547322,-0.0477 -0.022299,-0.0355 -0.040888,-0.39229 -0.041289,-0.79351 L 8.4723707,287.1942 H 8.3064488 8.140527 l -0.013455,1.29161 c -0.00738,0.71043 -0.00267,1.29115 0.010453,1.29056 0.013152,-4.9e-4 0.1155414,-0.14045 0.2275257,-0.31097 z m 1.3706827,-0.81216 c -0.06988,-0.27851 0.1020755,-0.48441 0.2742865,-0.32862 0.16317,0.14772 0.07783,0.44825 -0.1272778,0.44825 -0.0849,0 -0.1252278,-0.0331 -0.1470087,-0.11963 z m 2.5251905,0.0618 c -0.147104,-0.14716 0.0172,-0.51064 0.199187,-0.44076 0.09645,0.0373 0.147026,0.21683 0.106448,0.37858 -0.03284,0.13092 -0.202333,0.16541 -0.305635,0.0616 z m -3.0479175,-0.56675 c -0.046805,-0.14751 0.061427,-0.24407 0.2548833,-0.22741 0.1804169,0.0159 0.2811931,0.12227 0.2333118,0.24703 -0.021593,0.0566 -0.089996,0.0787 -0.2435651,0.0787 -0.1731927,0 -0.2194112,-0.018 -0.24463,-0.0979 z m 0.9040515,0.0286 c -0.06468,-0.16861 8.84e-4,-0.24203 0.216247,-0.24203 0.24238,0 0.35403,0.10634 0.247061,0.23516 -0.08125,0.098 -0.426407,0.10304 -0.463308,0.01 z m 1.606661,-0.006 c -0.10903,-0.13139 0.0012,-0.23752 0.245755,-0.23752 0.201491,0 0.210044,0.009 0.210044,0.14348 0,0.1337 -0.01337,0.14448 -0.195478,0.15786 -0.135925,0.01 -0.215232,-0.01 -0.260321,-0.0636 z m 0.877201,-0.007 c -0.04781,-0.12476 0.0529,-0.23147 0.233311,-0.24706 0.193461,-0.0161 0.301696,0.08 0.254883,0.22738 -0.02519,0.0799 -0.0714,0.098 -0.24463,0.098 -0.153567,0 -0.221969,-0.0222 -0.243564,-0.0787 z m -2.8275479,-0.31357 c -0.074151,-0.0739 -0.074151,-0.33726 0,-0.4114 0.1372592,-0.13726 0.3252789,-0.01 0.3252789,0.22305 0,0.10632 -0.1186402,0.2457 -0.2091078,0.2457 -0.032324,0 -0.084603,-0.0261 -0.1161711,-0.058 z m 2.5051839,-0.0171 c -0.135617,-0.13559 -0.0599,-0.45099 0.108285,-0.45099 0.125956,0 0.199226,0.0968 0.199226,0.26309 0,0.24117 -0.157817,0.3376 -0.307511,0.1879 z m -3.7095274,-1.15663 c 0.1204633,-0.15311 0.1193277,-0.2541 -0.00464,-0.41174 -0.1885662,-0.23968 -0.6183865,-0.11389 -0.6183865,0.18101 0,0.18668 0.052922,0.27377 0.2052832,0.33784 0.1802904,0.0761 0.2975125,0.0462 0.4177284,-0.10711 z m 5.7400824,-0.0138 c 0.134782,-0.25186 -0.02546,-0.52435 -0.308467,-0.52435 -0.173553,0 -0.362236,0.17224 -0.362236,0.33068 0,0.11266 0.136457,0.29166 0.256005,0.33593 0.130164,0.0481 0.353862,-0.0281 0.414698,-0.14226 z"
       id="path10638"
       inkscape:connector-curvature="0" />
    <path
       style="fill:#ffffff;stroke-width:0.00387421;stroke-miterlimit:4;stroke-dasharray:none"
       d="m 6.7874892,295.18972 c -0.5541849,-0.0121 -0.5690565,-0.0143 -0.5889322,-0.0883 -0.01121,-0.0414 -0.020599,-0.3875 -0.020859,-0.76799 l -4.704e-4,-0.69196 h 4.9714474 4.971447 l -5.22e-4,0.72611 c -2.89e-4,0.39936 -0.01516,0.74907 -0.03287,0.77731 -0.02845,0.0455 -0.554727,0.051 -4.381525,0.0541 -2.3920223,0.002 -4.6049732,-0.004 -4.9176709,-0.01 z"
       id="path10640"
       inkscape:connector-curvature="0" />
    <path
       style="fill:#ffffff;stroke-width:0.00387421;stroke-miterlimit:4;stroke-dasharray:none"
       d="m 6.9345669,296.10419 c -0.081464,-0.0139 -0.1619509,-0.0473 -0.1788589,-0.0728 -0.016908,-0.0269 -0.030974,-0.13694 -0.031265,-0.24499 l -5.244e-4,-0.19657 h 0.4100177 0.4100159 v 0.20259 c 0,0.23527 -0.051802,0.30973 -0.2159911,0.31046 -0.059727,1.4e-4 -0.1393558,0.009 -0.1769413,0.0137 -0.037586,0.01 -0.1349889,0.003 -0.216454,-0.0121 z"
       id="path10642"
       inkscape:connector-curvature="0" />
    <path
       style="fill:#ffffff;stroke-width:0.00387421;stroke-miterlimit:4;stroke-dasharray:none"
       d="m 15.001703,296.11175 c -0.186311,-0.0171 -0.248299,-0.10304 -0.248299,-0.34199 v -0.18034 h 0.410015 0.410018 v 0.2025 c 0,0.22866 -0.05192,0.3097 -0.198909,0.31052 -0.05038,1.5e-4 -0.122273,0.008 -0.159853,0.0122 -0.03765,0.009 -0.133425,0.007 -0.212972,-0.004 z"
       id="path10644"
       inkscape:connector-curvature="0" />
    <path
       style="fill:#ffffff;stroke-width:0.00387421;stroke-miterlimit:4;stroke-dasharray:none"
       d="m 11.37077,291.3867 v -1.87918 h 0.729295 c 0.401117,0 0.893206,0.01 1.093544,0.0227 l 0.364238,0.0227 0.895394,1.37005 c 0.492463,0.75353 1.028978,1.57762 1.192248,1.83131 l 0.296855,0.46133 -0.603009,0.0214 c -0.331658,0.0122 -1.360262,0.0239 -2.285788,0.026 l -1.682777,0.006 z m 3.631911,1.28909 c 0.117884,-0.0775 0.117856,-0.17744 -4.2e-5,-0.25461 -0.08505,-0.0564 -0.215872,-0.06 -1.636472,-0.06 -1.470399,0 -1.547448,0.004 -1.615941,0.0655 -0.03956,0.0364 -0.07196,0.091 -0.07196,0.12283 0,0.0747 0.0966,0.1601 0.205007,0.18129 0.04695,0.01 0.747275,0.015 1.556205,0.0121 1.345429,-0.007 1.478667,-0.01 1.563185,-0.0661 z m -0.561498,-0.87674 c 0.07001,-0.0182 0.09253,-0.048 0.100838,-0.13266 0.0089,-0.0918 -0.0047,-0.11458 -0.0854,-0.14657 -0.136699,-0.0537 -2.596105,-0.0237 -2.701978,0.0341 -0.08393,0.0452 -0.104433,0.18708 -0.03369,0.2329 0.02347,0.0155 0.21953,0.0371 0.435642,0.0485 0.460614,0.026 2.153446,-0.003 2.284545,-0.0365 z m -0.499272,-0.90452 c 0.03588,-0.016 0.05975,-0.0661 0.05975,-0.12223 0,-0.18553 -0.02396,-0.18934 -1.107321,-0.17886 -1.067843,0.0102 -1.216104,0.0294 -1.216104,0.15971 0,0.0965 0.05402,0.14426 0.187925,0.16559 0.169793,0.0269 2.011308,0.008 2.075705,-0.0247 z m -0.902272,-0.69184 0.41538,-0.0228 v -0.14854 -0.14853 l -0.794403,0.005 c -0.436927,0.003 -0.832848,0.0145 -0.879834,0.027 -0.09524,0.0266 -0.132353,0.14867 -0.06847,0.22568 0.02166,0.0261 0.08048,0.0537 0.130755,0.061 0.158017,0.0245 0.764343,0.0257 1.196554,0.003 z"
       id="path10646"
       inkscape:connector-curvature="0" />
    <path
       style="fill:#ffffff;stroke-width:0.00387421;stroke-miterlimit:4;stroke-dasharray:none"
       d="m 6.8751734,293.23315 -0.5150244,-0.018 0.3203777,-0.49541 c 0.1762068,-0.27252 0.7128412,-1.09667 1.1925221,-1.8315 l 0.8721462,-1.33612 0.3613988,-0.0224 c 0.1987701,-0.0128 0.6972707,-0.0224 1.1077792,-0.0224 h 0.746383 v 1.87918 1.87933 l -1.7852802,-0.01 c -0.9819023,-0.006 -2.0170389,-0.0157 -2.3003024,-0.0263 z m 3.6421336,-0.52337 c 0.02859,-0.0148 0.0723,-0.0587 0.09713,-0.0982 0.03999,-0.064 0.03499,-0.082 -0.0442,-0.16162 l -0.08933,-0.0897 -1.2720129,-0.0122 c -0.6996075,-0.009 -1.4148541,-0.002 -1.5894361,0.0124 -0.2841894,0.021 -0.323058,0.0322 -0.3712368,0.10567 -0.04904,0.0748 -0.048947,0.0899 9.304e-4,0.16573 0.044105,0.0677 0.089844,0.0864 0.2345637,0.0972 0.3238378,0.0245 2.9802487,0.01 3.0335357,-0.0188 z m 0.04199,-0.92604 c 0.03288,-0.0159 0.05978,-0.0629 0.05978,-0.10605 0,-0.16721 -0.02603,-0.17059 -1.3633799,-0.18184 -0.6877605,-0.009 -1.2995776,-0.002 -1.3595934,0.01 -0.1166251,0.0216 -0.166969,0.10655 -0.1307527,0.22068 0.011548,0.0368 0.04718,0.0731 0.079178,0.0822 0.1004879,0.0277 2.651902,0.007 2.714748,-0.0257 z m 0.0053,-0.90655 c 0.09125,-0.0761 0.05715,-0.21539 -0.06025,-0.24653 -0.05384,-0.0148 -0.5472649,-0.0301 -1.0965183,-0.0368 -1.0911894,-0.0118 -1.1119464,-0.01 -1.1119464,0.18095 0,0.0733 0.018903,0.10174 0.076878,0.11415 0.042284,0.01 0.1076295,0.024 0.1452143,0.0322 0.037587,0.01 0.5003588,0.0135 1.0283864,0.01 0.770749,-0.007 0.971521,-0.0159 1.018226,-0.0547 z m -0.02008,-0.71582 c 0.109045,-0.0593 0.09176,-0.21465 -0.02765,-0.24759 -0.133483,-0.0374 -1.4885796,-0.0348 -1.5865883,0.004 -0.067248,0.026 -0.087642,0.0578 -0.087642,0.13601 0,0.084 0.0169,0.10642 0.09396,0.12344 0.051688,0.0117 0.109338,0.0268 0.1281301,0.0348 0.01879,0.01 0.3416804,0.01 0.7175281,0.006 0.4731761,-0.009 0.7076361,-0.0234 0.7622871,-0.0525 z"
       id="path10648"
       inkscape:connector-curvature="0" />
    <path
       style="fill:#ffffff;stroke-width:0.00387421;stroke-miterlimit:4;stroke-dasharray:none"
       d="m 8.1489155,289.54937 c -0.010314,-0.089 -0.00983,-0.64966 0.0011,-1.24631 l 0.01982,-1.08477 h 0.1483417 0.1483452 l 4.696e-4,0.6919 c 2.353e-4,0.38055 0.0096,0.72599 0.020776,0.76762 0.023578,0.0882 0.1192204,0.12723 0.2374864,0.0975 l 0.082951,-0.0206 v -0.763 -0.76291 l 0.4356423,-0.0584 c 0.3410049,-0.0455 0.5671812,-0.10189 1.0411523,-0.26138 0.825378,-0.27788 0.906339,-0.27792 1.729802,-0.002 0.464281,0.15604 0.703442,0.21637 1.038784,0.26202 l 0.435637,0.0589 v 0.75905 c 0,0.75829 5.4e-5,0.75904 0.07685,0.77967 0.11758,0.0313 0.152811,0.0265 0.211113,-0.0322 0.04546,-0.0459 0.05374,-0.16582 0.05374,-0.78586 v -0.73215 h 0.14834 0.148345 l 0.02252,0.67171 c 0.03027,0.90288 0.02839,1.78063 -0.0043,1.80047 -0.01441,0.01 -0.110492,-0.11292 -0.213552,-0.2708 l -0.187375,-0.28701 -2.586955,-5.5e-4 -2.5869571,-5.4e-4 -0.1436737,0.21352 c -0.079023,0.11749 -0.1698945,0.24776 -0.2019404,0.28953 -0.057781,0.0755 -0.058429,0.0746 -0.077013,-0.0854 z m 1.8868235,-0.84943 c 0.09585,-0.12182 0.0907,-0.26897 -0.01305,-0.37274 -0.1009753,-0.10106 -0.1242741,-0.10284 -0.2284017,-0.018 -0.062822,0.0503 -0.080668,0.0988 -0.080668,0.21682 0,0.0829 0.021111,0.17694 0.04689,0.20802 0.06983,0.0838 0.1946277,0.0692 0.2752227,-0.034 z m 2.511886,0.0146 c 0.13776,-0.19668 -0.0071,-0.52401 -0.199519,-0.45025 -0.07324,0.0274 -0.1573,0.18962 -0.1573,0.30241 0,0.193 0.25203,0.29747 0.356819,0.14784 z m -2.8596282,-0.51362 c 0.1191374,-0.0945 -0.048167,-0.29887 -0.2447235,-0.29887 -0.2776156,0 -0.3641193,0.28777 -0.105499,0.35099 0.089162,0.022 0.2958302,-0.01 0.3502225,-0.0516 z m 0.8712812,0.005 c 0.08045,-0.0418 0.0765,-0.18843 -0.006,-0.23275 -0.104115,-0.0562 -0.396716,-0.0446 -0.448124,0.0174 -0.06364,0.0769 -0.0024,0.22802 0.104506,0.25818 0.09285,0.0265 0.255548,0.009 0.349916,-0.0437 z m 2.511349,-0.004 c 0.07226,-0.0584 0.04948,-0.19084 -0.04331,-0.2517 -0.208408,-0.13658 -0.602021,0.10116 -0.417896,0.25237 0.09242,0.0762 0.366727,0.0757 0.461269,-5.9e-4 z m -0.89691,-0.11144 v -0.13671 l -0.178358,-0.0101 c -0.215454,-0.013 -0.317077,0.0348 -0.317077,0.14646 0,0.11402 0.08709,0.15526 0.307513,0.1455 l 0.187922,-0.01 z m -2.151029,-0.23766 c 0.144365,-0.14437 0.09097,-0.42627 -0.089694,-0.47347 -0.1078178,-0.0275 -0.2364547,0.11363 -0.2364547,0.26072 0,0.12657 0.1100172,0.29653 0.1919567,0.29653 0.027672,0 0.088064,-0.0376 0.134193,-0.0835 z m 2.48845,0.0394 c 0.08553,-0.0619 0.112486,-0.30912 0.04509,-0.41209 -0.0796,-0.12144 -0.186471,-0.13608 -0.283708,-0.0381 -0.128565,0.12858 -0.09915,0.35966 0.05681,0.44603 0.104823,0.0584 0.109,0.0584 0.181912,0.007 z"
       id="path10650"
       inkscape:connector-curvature="0" />
    <path
       style="fill:#ffffff;stroke-width:0.00387421;stroke-miterlimit:4;stroke-dasharray:none"
       d="m 13.775105,286.68616 c -0.1486,-0.1575 -0.148321,-0.26153 0.0016,-0.41092 0.129693,-0.12974 0.237931,-0.1469 0.399512,-0.0629 0.204963,0.10596 0.216791,0.40977 0.02064,0.52943 -0.167878,0.1024 -0.28739,0.0869 -0.42121,-0.0557 z"
       id="path10652"
       inkscape:connector-curvature="0" />
    <path
       style="fill:#ffffff;stroke-width:0.00387421;stroke-miterlimit:4;stroke-dasharray:none"
       d="m 8.1391988,286.75983 c -0.1853939,-0.0806 -0.2343382,-0.34866 -0.092454,-0.50612 0.071846,-0.0798 0.2626959,-0.11142 0.379637,-0.0624 0.1072308,0.0449 0.21095,0.19692 0.21095,0.31013 0,0.10123 -0.2110066,0.30777 -0.3126369,0.30604 -0.044166,-5.4e-4 -0.1276343,-0.0222 -0.1854946,-0.0477 z"
       id="path10654"
       inkscape:connector-curvature="0" />
  </g>
</svg>
