<?xml version="1.0" encoding="UTF-8" standalone="no"?>
<!-- Created with Inkscape (http://www.inkscape.org/) -->

<svg
   xmlns:dc="http://purl.org/dc/elements/1.1/"
   xmlns:cc="http://creativecommons.org/ns#"
   xmlns:rdf="http://www.w3.org/1999/02/22-rdf-syntax-ns#"
   xmlns:svg="http://www.w3.org/2000/svg"
   xmlns="http://www.w3.org/2000/svg"
   xmlns:sodipodi="http://sodipodi.sourceforge.net/DTD/sodipodi-0.dtd"
   xmlns:inkscape="http://www.inkscape.org/namespaces/inkscape"
   width="64"
   height="64"
   viewBox="0 0 16.933333 16.933334"
   version="1.1"
   id="svg8"
   inkscape:version="0.92.5 (2060ec1f9f, 2020-04-08)"
   sodipodi:docname="coat_64x64.svg">
  <defs
     id="defs2" />
  <sodipodi:namedview
     id="base"
     pagecolor="#ffffff"
     bordercolor="#666666"
     borderopacity="1.0"
     inkscape:pageopacity="0.0"
     inkscape:pageshadow="2"
     inkscape:zoom="1.979899"
     inkscape:cx="-58.548638"
     inkscape:cy="-4.8244142"
     inkscape:document-units="mm"
     inkscape:current-layer="layer1"
     showgrid="false"
     units="px"
     inkscape:window-width="1208"
     inkscape:window-height="987"
     inkscape:window-x="1992"
     inkscape:window-y="0"
     inkscape:window-maximized="1"
     showguides="false" />
  <metadata
     id="metadata5">
    <rdf:RDF>
      <cc:Work
         rdf:about="">
        <dc:format>image/svg+xml</dc:format>
        <dc:type
           rdf:resource="http://purl.org/dc/dcmitype/StillImage" />
        <dc:title></dc:title>
      </cc:Work>
    </rdf:RDF>
  </metadata>
  <g
     inkscape:label="Layer 1"
     inkscape:groupmode="layer"
     id="layer1"
     transform="translate(0,-280.06665)">
    <path
       style="fill:#000000;stroke-width:0.02947487"
       d="m 5.7055923,296.26686 c -0.5640577,-0.0648 -1.1855248,-0.30258 -1.58708,-0.60759 -0.5066305,-0.38482 -0.9407252,-1.03328 -0.9424966,-1.40792 -3.899e-4,-0.0814 0.025828,-0.2437 0.058254,-0.3607 0.032425,-0.11699 0.05895,-0.22422 0.05895,-0.23829 0,-0.014 -0.129345,-0.0327 -0.2874329,-0.0413 -0.3124808,-0.0172 -0.6178787,-0.10302 -0.8768246,-0.2464 -0.1864504,-0.10323 -0.5761478,-0.48846 -0.6590436,-0.65152 -0.089462,-0.17596 -0.080166,-0.29661 0.06844,-0.88838 0.4011307,-1.59733 0.7481532,-3.34557 1.0455496,-5.26726 0.1704032,-1.1011 0.2554572,-1.50397 0.4302621,-2.03793 0.3326582,-1.01614 0.7495884,-1.58221 1.2959306,-1.75949 0.1204655,-0.0391 0.1602454,-0.0703 0.2178695,-0.17127 0.6024836,-1.055 3.0470373,-1.63436 5.3086687,-1.25817 1.1793078,0.19617 2.0783088,0.65089 2.4554478,1.24198 0.06461,0.10128 0.129043,0.16949 0.160081,0.16951 0.02857,0 0.131529,0.0378 0.228797,0.0841 0.708303,0.33665 1.216781,1.43481 1.503251,3.24654 0.404428,2.55774 0.700688,4.07758 1.121579,5.75378 0.165586,0.65946 0.16735,0.75397 0.01835,0.98403 -0.220882,0.34106 -0.616622,0.62243 -1.036798,0.73715 -0.133797,0.0365 -0.303755,0.0529 -0.563458,0.0541 l -0.371872,0.002 0.05521,0.19927 c 0.05202,0.18777 0.05252,0.21234 0.0085,0.4256 -0.171552,0.83052 -0.626917,1.47569 -1.263609,1.7903 -0.358587,0.17717 -0.614585,0.23018 -1.121702,0.23225 -0.601776,0.002 -1.0488854,-0.0888 -1.7899704,-0.36535 l -0.3162262,-0.11801 -0.302746,0.10302 c -0.9911842,0.3371 -2.1081443,0.48892 -2.9158354,0.39633 z m 1.487178,-0.55389 c 0.4111669,-0.0716 0.7109955,-0.1449 1.1627545,-0.28465 l 0.3315925,-0.10259 v -4.1938 c 0,-4.60354 0.0096,-4.35435 -0.1774661,-4.60872 -0.2003129,-0.27238 -0.7315668,-0.57688 -1.3699647,-0.78519 -0.1783229,-0.0582 -0.576234,-0.16688 -0.8842464,-0.24154 -0.6121995,-0.14837 -0.9631508,-0.29128 -1.2526815,-0.51008 -0.4445343,-0.33595 -0.6779223,-0.82225 -0.6779223,-1.41257 v -0.27582 l -0.091019,0.0648 c -0.2467085,0.17567 -0.5585647,0.7203 -0.7472374,1.30497 -0.1319874,0.40902 -0.2575193,0.9886 -0.3553499,1.64066 -0.3229356,2.15246 -0.6144866,3.61853 -1.182478,5.94613 l -0.052037,0.21323 0.090075,0.12572 c 0.1183792,0.16522 0.3393173,0.33263 0.5375844,0.40734 0.2244798,0.0847 0.5718455,0.12883 0.7669859,0.0977 l 0.1602548,-0.0255 0.067663,-0.26528 c 0.4519553,-1.77183 0.6863159,-3.54747 0.6496807,-4.9223 -0.017856,-0.67022 -0.071124,-1.12373 -0.1844697,-1.57054 -0.090007,-0.35482 -0.090003,-0.40399 5.9e-5,-0.49405 0.1046578,-0.10464 0.2538782,-0.0988 0.3485628,0.0138 0.1242649,0.14768 0.2514608,0.71883 0.3179593,1.42774 0.044986,0.47962 0.020036,1.78637 -0.045389,2.37685 -0.1359285,1.22678 -0.360553,2.39173 -0.7303054,3.78752 -0.2123357,0.80155 -0.2170322,0.82642 -0.1763904,0.9341 0.1201735,0.31837 0.5437671,0.80178 0.881401,1.00587 0.3378115,0.2042 0.7394171,0.34028 1.1887343,0.40281 0.2955071,0.0412 1.0300282,0.0119 1.4236652,-0.0565 z m 4.1765607,0.0265 c 0.444834,-0.0694 0.842913,-0.28846 1.100001,-0.6052 0.251282,-0.30956 0.489111,-0.9044 0.454734,-1.13734 -0.008,-0.0543 -0.108157,-0.46353 -0.222526,-0.90932 -0.312705,-1.21889 -0.489218,-2.16677 -0.614737,-3.30119 -0.07196,-0.65035 -0.07125,-1.99394 0.0013,-2.5201 0.104842,-0.76007 0.336784,-1.45423 0.507613,-1.51918 0.173056,-0.0659 0.347718,0.0522 0.342183,0.23125 -0.0014,0.0437 -0.03588,0.15241 -0.07673,0.24157 -0.10054,0.21943 -0.211688,0.67438 -0.273655,1.12004 -0.06993,0.50297 -0.06953,1.77481 7.92e-4,2.41694 0.100235,0.91556 0.265997,1.85644 0.494286,2.80562 l 0.118291,0.49184 0.167419,0.024 c 0.229004,0.0328 0.611199,0.023 0.771655,-0.0197 0.291222,-0.0776 0.577788,-0.26381 0.71861,-0.46702 l 0.08033,-0.1159 -0.191,-0.79199 c -0.423812,-1.75738 -0.699362,-3.17352 -1.017387,-5.22873 -0.185779,-1.20058 -0.360436,-1.87114 -0.622978,-2.39181 -0.162927,-0.32313 -0.259352,-0.45844 -0.452445,-0.6349 -0.216041,-0.19745 -0.272621,-0.21104 -0.297155,-0.0713 -0.05542,0.31569 -0.233317,0.72503 -0.444513,1.02288 -0.327244,0.4615 -0.94815,0.87482 -1.593417,1.06068 -0.5532778,0.15937 -0.8985584,0.54839 -1.0709668,1.20664 -0.09366,0.35758 -0.1047436,0.33913 0.2038197,0.33913 h 0.2646745 l 0.057812,-0.11333 c 0.069163,-0.13558 0.2301206,-0.28286 0.3754686,-0.34359 0.05812,-0.0243 0.188744,-0.0441 0.290286,-0.0441 0.479175,0 0.828856,0.43257 0.724965,0.8968 -0.109598,0.48974 -0.643193,0.73618 -1.091733,0.50424 -0.098679,-0.051 -0.3261261,-0.30129 -0.3261261,-0.35884 0,-0.031 -0.063653,-0.04 -0.2800107,-0.04 H 9.1881951 v 3.92121 3.9212 l 0.1342945,0.0576 c 0.3231294,0.13851 0.9885174,0.31665 1.3541864,0.36253 0.184938,0.0233 0.508389,0.0183 0.692659,-0.0109 z m -0.760649,-8.33114 c 0.110526,-0.0995 0.07823,-0.35403 -0.05124,-0.40372 -0.114281,-0.0439 -0.244748,-0.0186 -0.306027,0.0593 -0.112355,0.14284 -0.05636,0.33791 0.11576,0.4032 0.06224,0.0236 0.182504,-0.007 0.241497,-0.0589 z m -2.0394649,-1.55848 c 0,-0.0423 -0.2233492,-0.54968 -0.3171475,-0.72047 -0.2889112,-0.52604 -0.74652,-1.14061 -1.347466,-1.80969 -0.17324,-0.19289 -0.3271696,-0.38275 -0.342067,-0.42194 -0.079408,-0.20887 0.01595,-0.48758 0.207591,-0.60678 0.1040004,-0.0646 0.1085101,-0.0648 1.6517155,-0.0648 h 1.5474311 l 0.1114468,0.0693 c 0.190884,0.11867 0.279922,0.39327 0.197668,0.60961 -0.01642,0.0431 -0.163359,0.22181 -0.3265416,0.39698 -0.3699325,0.39709 -0.7428021,0.86178 -1.0247875,1.27718 l -0.2167515,0.3193 0.1171986,0.25545 c 0.1007056,0.21952 0.1879848,0.44196 0.2315044,0.59002 0.00676,0.0229 0.067814,-0.0364 0.1440905,-0.14005 0.1212232,-0.16465 0.3925075,-0.3955 0.5745849,-0.48894 0.040523,-0.0207 0.2328522,-0.0938 0.4273862,-0.16205 0.194534,-0.0684 0.44145,-0.17003 0.548701,-0.22599 0.599495,-0.3128 0.977236,-0.83642 1.132406,-1.56972 0.03324,-0.15709 0.03342,-0.20471 0.0011,-0.28217 -0.122414,-0.29298 -0.572873,-0.59725 -1.215213,-0.82082 -1.3699962,-0.47687 -3.3710916,-0.44717 -4.7113302,0.0699 -0.3483894,0.13442 -0.5871638,0.27782 -0.800775,0.48094 -0.2334952,0.22202 -0.3028612,0.39551 -0.3258422,0.81491 -0.036446,0.66515 0.2036075,1.08733 0.7729183,1.35934 0.1631291,0.0779 0.4220166,0.15764 0.8400341,0.25863 0.6176471,0.14921 1.0283592,0.27748 1.407342,0.43952 0.23079,0.0987 0.612343,0.31268 0.6414364,0.35976 0.019072,0.0309 0.073413,0.0402 0.073413,0.0126 z m 0.02813,-1.68198 c 0.2302405,-0.32977 0.5689807,-0.74775 0.9107722,-1.12383 l 0.3013593,-0.3316 h -1.38791 -1.387909 l 0.2866249,0.31686 c 0.3235688,0.3577 0.6567118,0.76863 0.9105512,1.12318 0.09452,0.13201 0.1803615,0.24004 0.1907581,0.24004 0.0104,0 0.089486,-0.10106 0.1757533,-0.22465 z"
       id="path7989"
       inkscape:connector-curvature="0" />
    <path
       style="fill:#ffffff;stroke-width:0.00225064;stroke-miterlimit:4;stroke-dasharray:none"
       d="m 5.4405605,295.6789 c -0.6808504,-0.17356 -1.1939897,-0.51759 -1.5310703,-1.02649 -0.2200668,-0.33224 -0.2228833,-0.43083 -0.031957,-1.11824 0.2003486,-0.72132 0.5320527,-2.28584 0.662825,-3.12628 0.1533461,-0.98552 0.1552066,-3.40944 0.00309,-4.05721 -0.1261182,-0.53716 -0.2609935,-0.70216 -0.489,-0.59827 -0.1759004,0.0801 -0.1834315,0.17759 -0.058346,0.75508 0.2769981,1.27888 0.1345601,3.49868 -0.3649084,5.68684 -0.2151603,0.94261 -0.1965276,0.91696 -0.6328157,0.87137 -0.3986486,-0.0417 -0.7792401,-0.22524 -0.9522197,-0.45928 -0.1128776,-0.15272 -0.1122777,-0.15898 0.1026921,-1.07186 0.3692178,-1.56792 0.6068511,-2.76138 0.891286,-4.47629 0.2867342,-1.72879 0.4652542,-2.46356 0.7242067,-2.9808 0.1819444,-0.36343 0.4218246,-0.69628 0.5017988,-0.69628 0.031087,0 0.056519,0.12922 0.056519,0.28714 0,0.58967 0.3332237,1.16223 0.8535623,1.46664 0.1364444,0.0799 0.6768274,0.26907 1.2008518,0.42057 1.068242,0.3088 1.365557,0.4262 1.7651057,0.69693 0.5350177,0.36255 0.4953696,-0.004 0.5155858,4.77472 0.00982,2.3221 -0.00367,4.24353 -0.030015,4.26985 -0.026332,0.0264 -0.3660211,0.12991 -0.7548725,0.23016 -0.8707382,0.22452 -1.8958959,0.28845 -2.4323421,0.1517 z"
       id="path7991"
       inkscape:connector-curvature="0" />
    <path
       style="fill:#ffffff;stroke-width:0.00225064;stroke-miterlimit:4;stroke-dasharray:none"
       d="m 7.9848983,285.52052 c -0.2620121,-0.12353 -0.8778915,-0.33497 -1.3686204,-0.46987 -1.3948496,-0.38343 -1.6937661,-0.63199 -1.7412448,-1.44788 -0.021216,-0.36461 -0.00403,-0.47025 0.1132634,-0.69477 0.2494048,-0.47756 0.8897084,-0.80844 1.9842818,-1.02537 0.8225121,-0.163 2.5001993,-0.1309 3.2116177,0.0615 0.685181,0.18526 1.252589,0.46458 1.499929,0.73836 0.187657,0.20771 0.207573,0.25979 0.172781,0.45186 -0.0514,0.28379 -0.281615,0.78832 -0.475957,1.04311 -0.221895,0.29092 -0.517396,0.47721 -1.19307,0.75214 -0.4266345,0.17359 -0.6658378,0.31184 -0.8467284,0.48936 -0.1386623,0.1361 -0.2612216,0.23571 -0.2723535,0.22137 -0.01113,-0.0142 -0.089893,-0.19025 -0.175024,-0.39093 l -0.1547851,-0.36487 0.4084006,-0.54385 c 0.2246201,-0.29912 0.5841854,-0.7454 0.7990332,-0.99175 0.4453502,-0.51063 0.4861092,-0.67877 0.2364682,-0.97546 l -0.154164,-0.18321 H 8.5244249 c -1.8601309,0 -1.998458,0.0373 -1.998458,0.53844 0,0.15123 0.110736,0.32148 0.5545027,0.85247 0.304977,0.36493 0.6501059,0.79748 0.7669541,0.96124 0.2075386,0.29086 0.6697312,1.15893 0.6325694,1.18808 -0.010291,0.008 -0.2330826,-0.0865 -0.4950948,-0.20995 z"
       id="path7993"
       inkscape:connector-curvature="0" />
    <path
       style="fill:#ffffff;stroke-width:0.00225064;stroke-miterlimit:4;stroke-dasharray:none"
       d="m 7.9719521,283.78263 c -0.2363815,-0.30267 -0.5279159,-0.66419 -0.6478542,-0.80339 l -0.2180702,-0.25308 h 1.3199529 1.319953 l -0.3753594,0.43174 c -0.2064472,0.23744 -0.5037593,0.59919 -0.6606925,0.80389 -0.1569325,0.2047 -0.290466,0.37194 -0.2967394,0.37167 -0.00626,-2.9e-4 -0.2048095,-0.24816 -0.4411902,-0.55083 z"
       id="path7995"
       inkscape:connector-curvature="0" />
    <path
       style="fill:#ffffff;stroke-width:0.00225064;stroke-miterlimit:4;stroke-dasharray:none"
       d="m 10.065736,295.59092 c -0.2311036,-0.0606 -0.5191685,-0.15155 -0.6401442,-0.20209 l -0.2199546,-0.0919 v -3.90344 -3.90345 h 0.2035593 c 0.1552634,0 0.2603601,0.0546 0.4429642,0.23002 0.1316728,0.12651 0.3183063,0.24579 0.4147423,0.26509 0.571938,0.11439 1.086272,-0.44846 0.906784,-0.99231 -0.100796,-0.30541 -0.311129,-0.46833 -0.646183,-0.50052 -0.341736,-0.0328 -0.6372536,0.0936 -0.7385246,0.31579 -0.055798,0.12246 -0.1083667,0.14599 -0.3260682,0.14599 -0.2524049,0 -0.2585266,-0.004 -0.2225597,-0.16376 0.080654,-0.35711 0.3739878,-0.89583 0.5686243,-1.04429 0.1103538,-0.0841 0.4100492,-0.23368 0.6659912,-0.33222 0.549007,-0.21142 0.940211,-0.45192 1.242802,-0.76407 0.253628,-0.26164 0.561996,-0.82073 0.618348,-1.1211 0.04923,-0.26243 0.144096,-0.26142 0.377142,0.004 0.50062,0.57016 0.688839,1.1893 1.105463,3.6363 0.314981,1.85 0.562803,3.08674 0.917503,4.57877 0.167548,0.70478 0.16835,0.71676 0.05845,0.87324 -0.213559,0.30404 -0.841742,0.51336 -1.323769,0.44108 l -0.259604,-0.0389 -0.188434,-0.86734 c -0.334972,-1.54186 -0.434992,-2.37428 -0.435392,-3.62365 -3.75e-4,-1.171 0.03945,-1.50353 0.262523,-2.19228 0.148023,-0.457 0.11456,-0.59352 -0.153328,-0.62546 -0.141191,-0.0168 -0.17606,0.0179 -0.308675,0.30757 -0.234142,0.51144 -0.328632,1.06095 -0.365331,2.12457 -0.04926,1.42749 0.118959,2.73524 0.612581,4.7624 0.297017,1.21975 0.298013,1.30356 0.02201,1.85033 -0.202036,0.40022 -0.560407,0.72709 -0.938361,0.85589 -0.36542,0.12451 -1.128717,0.11333 -1.653151,-0.0241 z"
       id="path7997"
       inkscape:connector-curvature="0" />
    <path
       style="fill:#ffffff;stroke-width:0.00225064;stroke-miterlimit:4;stroke-dasharray:none"
       d="m 10.275748,287.33903 c -0.108198,-0.13036 -0.0038,-0.29561 0.186892,-0.29561 0.118502,0 0.14238,0.03 0.14238,0.17863 0,0.13578 -0.02984,0.18292 -0.124306,0.19642 -0.06837,0.01 -0.160604,-0.026 -0.204966,-0.0794 z"
       id="path7999"
       inkscape:connector-curvature="0" />
  </g>
</svg>
