<?xml version="1.0" encoding="UTF-8" standalone="no"?>
<!-- Created with Inkscape (http://www.inkscape.org/) -->

<svg
   xmlns:dc="http://purl.org/dc/elements/1.1/"
   xmlns:cc="http://creativecommons.org/ns#"
   xmlns:rdf="http://www.w3.org/1999/02/22-rdf-syntax-ns#"
   xmlns:svg="http://www.w3.org/2000/svg"
   xmlns="http://www.w3.org/2000/svg"
   xmlns:sodipodi="http://sodipodi.sourceforge.net/DTD/sodipodi-0.dtd"
   xmlns:inkscape="http://www.inkscape.org/namespaces/inkscape"
   width="64"
   height="64"
   viewBox="0 0 16.933333 16.933333"
   version="1.1"
   id="svg8"
   inkscape:version="0.92.5 (2060ec1f9f, 2020-04-08)"
   sodipodi:docname="comfort_help_64x64.svg">
  <defs
     id="defs2" />
  <sodipodi:namedview
     id="base"
     pagecolor="#ffffff"
     bordercolor="#666666"
     borderopacity="1.0"
     inkscape:pageopacity="0.0"
     inkscape:pageshadow="2"
     inkscape:zoom="2.8"
     inkscape:cx="106.00273"
     inkscape:cy="-33.113021"
     inkscape:document-units="mm"
     inkscape:current-layer="layer1"
     showgrid="false"
     units="px"
     inkscape:window-width="1208"
     inkscape:window-height="987"
     inkscape:window-x="1992"
     inkscape:window-y="0"
     inkscape:window-maximized="1"
     showguides="false" />
  <metadata
     id="metadata5">
    <rdf:RDF>
      <cc:Work
         rdf:about="">
        <dc:format>image/svg+xml</dc:format>
        <dc:type
           rdf:resource="http://purl.org/dc/dcmitype/StillImage" />
        <dc:title></dc:title>
      </cc:Work>
    </rdf:RDF>
  </metadata>
  <g
     inkscape:label="Layer 1"
     inkscape:groupmode="layer"
     id="layer1"
     transform="translate(0,-280.06667)">
    <path
       style="fill:#000000;stroke-width:0.03176613"
       d="m 13.503858,296.57102 c -0.03494,-0.019 -0.465551,-0.43477 -0.956906,-0.92396 l -0.893375,-0.88946 -0.297856,-0.004 c -0.224397,-0.003 -0.328447,-0.0194 -0.421901,-0.0658 -0.130911,-0.0649 -0.323429,-0.23822 -0.401315,-0.36118 l -0.04643,-0.0733 -0.158831,0.0726 c -0.217162,0.0993 -0.5428614,0.0982 -0.7525269,-0.002 -0.1372506,-0.0659 -0.4119013,-0.32011 -0.4418264,-0.40887 -0.00896,-0.0266 -0.073789,-0.0132 -0.2176193,0.0449 -0.3391197,0.13707 -0.6939207,0.0781 -0.9802847,-0.16283 -0.1101297,-0.0927 -0.2919805,-0.43232 -0.2919805,-0.54534 0,-0.0885 0.00699,-0.0874 -0.1470097,-0.0225 -0.3045713,0.1285 -0.7194612,0.0346 -0.974609,-0.22054 -0.1910041,-0.191 -0.2547925,-0.36522 -0.269852,-0.73702 -0.011375,-0.28084 -0.00553,-0.32702 0.04988,-0.39549 0.085884,-0.10605 0.276616,-0.10822 0.3609332,-0.004 0.046904,0.0579 0.059441,0.12652 0.059441,0.32528 0,0.33336 0.071734,0.48257 0.2752753,0.57261 0.1811674,0.0802 0.3211782,0.0584 0.4711364,-0.0733 0.1469016,-0.12898 0.1744195,-0.24971 0.1746289,-0.76615 1.559e-4,-0.3943 0.00635,-0.44296 0.063709,-0.50031 0.080257,-0.0802 0.224835,-0.0816 0.322084,-0.003 0.07489,0.0606 0.075015,0.062 0.090876,0.96093 0.017724,1.00473 0.02042,1.01712 0.2446035,1.1235 0.1775927,0.0843 0.3713937,0.0491 0.5137975,-0.0932 l 0.1151675,-0.11509 0.015885,-0.72694 c 0.014357,-0.65723 0.021687,-0.73333 0.076397,-0.7937 0.070703,-0.078 0.2307326,-0.0888 0.3225495,-0.0217 0.057862,0.0422 0.062642,0.10087 0.077545,0.95074 0.017699,1.00946 0.013909,0.99237 0.2570502,1.15919 0.1996723,0.13699 0.4883615,0.048 0.6085285,-0.18773 0.04732,-0.0928 0.05555,-0.20178 0.05559,-0.73629 3.1e-5,-0.58499 0.0044,-0.63168 0.06358,-0.69092 0.03779,-0.0378 0.105365,-0.0634 0.166772,-0.063 0.233865,0.002 0.246187,0.0496 0.246187,0.96943 0,0.87927 0.01288,0.94346 0.214236,1.06791 0.218499,0.13504 0.458424,0.0797 0.625604,-0.14406 0.06428,-0.0861 0.06579,-0.1281 0.08138,-2.26592 l 0.01588,-2.17819 0.08459,-0.0631 c 0.149765,-0.11178 0.218306,-0.0648 0.91604,0.62863 0.358164,0.35592 0.691448,0.66223 0.740631,0.68068 0.332936,0.12486 0.737348,-0.11331 0.776093,-0.45706 0.03592,-0.31872 0.03934,-0.31383 -0.828623,-1.18762 -0.534333,-0.53793 -0.874077,-0.85383 -1.024922,-0.95298 -0.187271,-0.12312 -0.516204,-0.25367 -1.934316,-0.76778 l -1.7086751,-0.62047 -1.1333855,-1.19124 c -0.623362,-0.65517 -1.9507393,-2.05492 -2.949727,-3.11055 -1.6359568,-1.72871 -1.8163408,-1.92959 -1.8163408,-2.02278 0,-0.0739 0.023887,-0.12226 0.083699,-0.16931 0.1340755,-0.10545 0.2272821,-0.085 0.3906913,0.0857 0.079777,0.0833 0.745175,0.7853 1.4786619,1.55989 1.1350709,1.19867 1.3384253,1.4001 1.3659431,1.35295 0.2729669,-0.46769 0.6274344,-0.67865 1.0793172,-0.64238 0.363353,0.0291 0.4647346,0.10265 1.2910478,0.93584 0.5696974,0.57443 0.7814741,0.81001 0.8822611,0.98142 0.081449,0.13852 0.276754,0.62121 0.506168,1.25099 l 0.373547,1.02544 1.015426,0.37145 c 0.558485,0.2043 1.065458,0.3972 1.126608,0.42866 0.268022,0.13793 0.543613,0.38102 1.321987,1.1661 0.754419,0.76091 0.835754,0.85342 0.897393,1.0206 0.09004,0.24423 0.0897,0.53346 -9.05e-4,0.77566 -0.0917,0.24507 -0.357808,0.51417 -0.591122,0.59774 l -0.167445,0.0599 0.219486,0.22379 c 0.120717,0.12308 0.235724,0.25565 0.255571,0.2946 0.04654,0.0913 0.0137,0.21971 -0.07145,0.27935 -0.15908,0.11142 -0.181209,0.0948 -1.172261,-0.88283 l -0.942542,-0.92974 -0.0094,1.84425 -0.0094,1.84424 -0.102051,0.20525 -0.102049,0.20525 0.888261,0.89073 c 0.837076,0.83941 0.888263,0.8974 0.888263,1.00628 0,0.1844 -0.176625,0.296 -0.333544,0.21075 z m -3.7158315,-9.8984 c -0.012034,-0.0305 -0.1367313,-0.37008 -0.2771105,-0.75445 -0.3851196,-1.05449 -0.3659133,-1.0244 -1.1835591,-1.85438 -0.4515611,-0.45837 -0.7453569,-0.7317 -0.8272973,-0.76964 -0.3760399,-0.1741 -0.8100168,0.076 -0.8214657,0.47333 l -0.00447,0.15457 1.2111226,1.28395 1.2111233,1.28396 0.3136515,0.11551 c 0.3701009,0.13631 0.4078444,0.14302 0.3779882,0.0672 z m 5.6465285,6.81292 c -0.404046,-0.40405 -0.612403,-0.63495 -0.612403,-0.67869 0,-0.12124 0.119102,-0.23368 0.24754,-0.23368 0.107906,0 0.155753,0.0399 0.69655,0.58069 0.540796,0.54079 0.580684,0.58864 0.580684,0.69654 0,0.12844 -0.112434,0.24755 -0.233684,0.24755 -0.04373,0 -0.274641,-0.20836 -0.678687,-0.61241 z m -9.1234198,-2.45731 c -0.049345,-0.0627 -0.065838,-0.12966 -0.065838,-0.26716 v -0.18346 l -0.4844327,-0.0108 c -0.473799,-0.0105 -0.4882695,-0.0129 -0.6591474,-0.10922 -0.1945657,-0.10963 -0.3850436,-0.33433 -0.440608,-0.51979 -0.050606,-0.16892 -0.044555,-0.49076 0.011766,-0.62556 0.02621,-0.0627 0.047649,-0.11774 0.047649,-0.12225 0,-0.004 -0.132933,-0.0141 -0.2954073,-0.0212 -0.3274701,-0.0143 -0.4815216,-0.0791 -0.6797738,-0.28579 -0.2252078,-0.23481 -0.3120112,-0.66689 -0.1913899,-0.95269 l 0.04901,-0.11613 -0.1162503,-0.0202 c -0.4053632,-0.0704 -0.6858092,-0.32601 -0.7858313,-0.71644 -0.050258,-0.19617 -0.028614,-0.4564 0.050202,-0.60368 0.031236,-0.0584 0.024023,-0.0634 -0.090593,-0.0634 -0.6208268,0 -1.0664848,-0.6374 -0.8639108,-1.2356 l 0.068813,-0.20321 -0.798173,-0.80215 c -0.78422286,-0.78813 -0.79799766,-0.80423 -0.78812236,-0.92133 0.012984,-0.15397 0.1359212,-0.25563 0.2693562,-0.22274 0.059813,0.0147 0.3593205,0.29039 0.89060906,0.81968 l 0.8004871,0.79747 0.1244164,-0.0373 c 0.2105098,-0.063 0.3419103,-0.0484 0.4165176,0.0464 0.036212,0.046 0.065838,0.10843 0.065838,0.13866 0,0.10211 -0.1208978,0.21327 -0.2738497,0.25178 -0.3321512,0.0836 -0.4672797,0.45421 -0.2611732,0.71623 0.128247,0.16304 0.1930567,0.17559 0.9066974,0.17545 0.603265,-9e-5 0.6697284,-0.006 0.7642551,-0.0632 0.2119492,-0.12923 0.2835994,-0.37003 0.1769659,-0.59474 -0.064007,-0.13488 -0.1985509,-0.22232 -0.3851691,-0.2503 -0.2169627,-0.0326 -0.3192419,-0.19339 -0.2295422,-0.36099 0.097502,-0.18218 0.5286422,-0.1229 0.8154665,0.11213 0.2625853,0.21517 0.389688,0.64399 0.285391,0.96286 -0.028546,0.0873 -0.051905,0.16489 -0.051905,0.17247 0,0.007 0.1536682,0.0204 0.3414854,0.0285 0.2869199,0.0123 0.3668655,0.0277 0.5003167,0.0965 0.4079829,0.21033 0.6046011,0.65221 0.4803624,1.07957 -0.065382,0.22492 -0.067019,0.2151 0.03584,0.21512 0.1462866,4e-5 0.4623483,0.17056 0.5877923,0.31711 0.2087554,0.24389 0.2723245,0.61309 0.1615418,0.93821 -0.029019,0.0852 -0.03974,0.15933 -0.023825,0.16481 0.1608032,0.0554 0.3777757,0.224 0.4727081,0.36743 0.30581,0.46202 0.1605944,1.08703 -0.3087658,1.32893 l -0.1191229,0.0614 v 0.21743 c 0,0.27004 -0.071071,0.38484 -0.2382458,0.38484 -0.077294,0 -0.1246568,-0.023 -0.1724085,-0.0837 z m 0.3056888,-0.99495 c 0.2129587,-0.12985 0.2807771,-0.35714 0.1729968,-0.57978 -0.1166552,-0.24097 -0.1878929,-0.26342 -0.8360599,-0.26342 -0.6124703,0 -0.645731,0.009 -0.7971372,0.21162 -0.078807,0.10556 -0.079789,0.34365 -0.00199,0.47617 0.111599,0.19004 0.2153785,0.21755 0.8201294,0.21742 0.4797225,-9e-5 0.5519374,-0.007 0.6420334,-0.062 z m -0.5398406,-1.39782 c 0.2745379,-0.1674 0.2745379,-0.59756 0,-0.76496 -0.09411,-0.0574 -0.1645021,-0.062 -0.9435003,-0.062 -0.7784796,0 -0.8494383,0.005 -0.9433165,0.0619 -0.1473532,0.0899 -0.2124822,0.20712 -0.2124822,0.38259 0,0.17548 0.065129,0.29275 0.2124822,0.3826 0.093878,0.0572 0.1648369,0.0619 0.9433165,0.0619 0.7789982,0 0.8493898,-0.004 0.9435003,-0.062 z m -0.775205,-1.40778 c 0.2704378,-0.2064 0.2177753,-0.6434 -0.093193,-0.77334 -0.079649,-0.0333 -0.296574,-0.0438 -0.903142,-0.0438 -0.6799186,0 -0.8148936,0.008 -0.9101056,0.0531 -0.3302514,0.15673 -0.3299147,0.63698 5.647e-4,0.80313 0.1270884,0.0639 0.1725496,0.0667 0.9618599,0.0581 l 0.8284677,-0.009 0.1155501,-0.0882 z"
       id="path3552"
       inkscape:connector-curvature="0" />
    <path
       style="fill:#ffffff;stroke-width:0.0024256;stroke-miterlimit:4;stroke-dasharray:none"
       d="m 11.049071,294.12401 c -0.113673,-0.11367 -0.128455,-0.21461 -0.129231,-0.88244 -9.96e-4,-0.83405 -0.03017,-1.01643 -0.171407,-1.07063 -0.23673,-0.0908 -0.307101,0.0605 -0.373224,0.80281 -0.05938,0.66659 -0.07673,0.72977 -0.232053,0.84518 -0.158049,0.11744 -0.1796502,0.11865 -0.3690198,0.0207 -0.1106286,-0.0572 -0.2048715,-0.11049 -0.2094282,-0.11841 -0.00453,-0.008 -0.026216,-0.44456 -0.048133,-0.9703 -0.033907,-0.81346 -0.056582,-0.96644 -0.1521574,-1.02651 -0.0817,-0.0514 -0.1429215,-0.0514 -0.2246209,1.2e-4 -0.094559,0.0595 -0.1151636,0.18832 -0.1303647,0.81485 -0.017482,0.72065 -0.023477,0.74842 -0.1897542,0.87922 -0.1189832,0.0936 -0.2218127,0.12301 -0.3349208,0.0958 -0.2828868,-0.068 -0.3231985,-0.19296 -0.3300607,-1.02318 -0.0081,-0.97997 -0.037722,-1.09481 -0.282401,-1.09481 -0.2236771,0 -0.2728917,0.12583 -0.2824004,0.72199 -0.00497,0.30982 -0.035609,0.43033 -0.1347514,0.52946 -0.3031045,0.30311 -0.7059504,0.0248 -0.7059504,-0.48772 0,-0.2122 -0.030335,-0.29412 -0.1283546,-0.34658 -0.093892,-0.0503 -0.1283544,-0.13437 -0.1283544,-0.31332 0,-0.15252 0.048333,-0.30036 0.1283544,-0.39263 0.071352,-0.0823 0.1283546,-0.2401 0.1283546,-0.3554 0,-0.15147 0.044108,-0.23633 0.1635074,-0.31457 0.5479627,-0.35903 0.5396841,-1.2645 -0.01455,-1.59152 -0.1171182,-0.0691 -0.1968923,-0.1516 -0.177276,-0.18334 0.075131,-0.12157 0.035976,-0.69141 -0.060298,-0.87759 -0.105353,-0.20373 -0.4632043,-0.46404 -0.6379288,-0.46404 -0.0839,0 -0.095264,-0.0544 -0.064892,-0.31088 0.072867,-0.61525 -0.2967783,-1.04197 -0.9431045,-1.08872 l -0.3631251,-0.0263 0.029292,-0.30488 c 0.037007,-0.38512 -0.1139709,-0.72223 -0.4036336,-0.90125 -0.2529971,-0.15636 -0.6588579,-0.18807 -0.742475,-0.058 -0.1039907,0.16175 -0.032186,0.28062 0.2518907,0.41701 0.4396991,0.21109 0.5269474,0.49168 0.2264012,0.72809 -0.1435395,0.11291 -0.2593077,0.13301 -0.7659486,0.13301 -0.6937226,0 -0.9071255,-0.0625 -0.9621848,-0.28189 -0.062555,-0.24925 0.025614,-0.41611 0.2915464,-0.55178 0.2758549,-0.14073 0.3327289,-0.23521 0.2445879,-0.40631 -0.04509,-0.0875 -0.121278,-0.11247 -0.3034245,-0.0993 -0.2311735,0.0167 -0.2845983,-0.0216 -1.0789245,-0.77306 L 0.60294524,283.0063 1.7570852,281.87463 c 0.6347773,-0.62241 1.1729493,-1.13634 1.1959376,-1.14207 0.022986,-0.006 0.1839866,0.15312 0.357775,0.35298 0.1737877,0.19985 1.4805497,1.5936 2.9039148,3.09721 l 2.5879377,2.73384 1.4601407,0.53061 c 2.207358,0.80217 2.210712,0.80407 3.208969,1.81965 0.529293,0.53849 0.850349,0.91445 0.850349,0.99578 0,0.26322 -0.128295,0.46643 -0.354032,0.56075 -0.301403,0.12594 -0.365191,0.0883 -1.170682,-0.69162 -0.782335,-0.75746 -0.919715,-0.79576 -0.988622,-0.27562 -0.02338,0.17649 -0.04504,1.18006 -0.04813,2.23016 -0.0053,1.8197 -0.01165,1.9153 -0.133977,2.03763 -0.0706,0.0706 -0.200554,0.12836 -0.288798,0.12836 -0.08824,0 -0.218203,-0.0578 -0.288797,-0.12836 z"
       id="path3556"
       inkscape:connector-curvature="0" />
    <path
       style="fill:#ffffff;stroke-width:0.0024256;stroke-miterlimit:4;stroke-dasharray:none"
       d="m 9.3987131,286.5735 c -0.2178301,-0.0771 -0.5054439,-0.34544 -1.4760776,-1.37696 -0.6630419,-0.70464 -1.2147842,-1.33811 -1.2260939,-1.40771 -0.031776,-0.19558 0.3202476,-0.51078 0.5704367,-0.51078 0.1758328,0 0.3071482,0.0984 0.8775898,0.65781 0.8243135,0.80834 0.9660825,1.00954 1.254875,1.78093 0.1255402,0.33533 0.2585516,0.6891 0.2955806,0.78616 0.07638,0.20023 0.072491,0.20116 -0.2963106,0.0705 z"
       id="path3558"
       inkscape:connector-curvature="0" />
    <path
       style="fill:#ffffff;stroke-width:0.0024256;stroke-miterlimit:4;stroke-dasharray:none"
       d="m 12.948279,295.30099 c -0.789175,-0.81661 -0.824803,-0.86486 -0.753757,-1.0208 0.04745,-0.10412 0.08989,-0.82807 0.116691,-1.99015 l 0.04212,-1.8265 0.920184,0.90663 c 0.777786,0.76633 0.943302,0.90082 1.069575,0.86913 0.113581,-0.0285 0.19954,0.0142 0.358581,0.17834 0.130809,0.13495 0.183053,0.23197 0.139433,0.25893 -0.129503,0.08 -0.07132,0.16803 0.505092,0.76386 l 0.574847,0.59422 -1.072221,1.06174 -1.072219,1.06174 z"
       id="path3560"
       inkscape:connector-curvature="0" />
    <path
       style="fill:#ffffff;stroke-width:0.0024256;stroke-miterlimit:4;stroke-dasharray:none"
       d="m 5.4335591,290.0359 c -0.2860242,-0.067 -0.3908249,-0.4846 -0.1714345,-0.68315 0.092078,-0.0833 0.2503028,-0.10622 0.7343995,-0.10622 0.5648753,0 0.6254817,0.012 0.7169413,0.14264 0.1467849,0.20956 0.1221937,0.40811 -0.069193,0.55866 -0.1377893,0.10839 -0.2536425,0.13163 -0.6257284,0.12557 -0.2511469,-0.004 -0.5143896,-0.021 -0.5849849,-0.0375 z"
       id="path3562"
       inkscape:connector-curvature="0" />
    <path
       style="fill:#ffffff;stroke-width:0.0024256;stroke-miterlimit:4;stroke-dasharray:none"
       d="m 4.1225831,288.49984 c -0.1664086,-0.21155 -0.1664086,-0.28455 0,-0.4961 0.1316974,-0.16744 0.1413882,-0.16911 0.9804679,-0.16911 0.9827788,0 1.1327239,0.0552 1.1327239,0.41716 0,0.36193 -0.1499451,0.41715 -1.1327239,0.41715 -0.8390797,0 -0.8487705,-0.002 -0.9804679,-0.1691 z"
       id="path3564"
       inkscape:connector-curvature="0" />
    <path
       style="fill:#ffffff;stroke-width:0.0024256;stroke-miterlimit:4;stroke-dasharray:none"
       d="m 3.469381,287.25394 c -0.402229,-0.15778 -0.3554825,-0.67539 0.070948,-0.78558 0.1235418,-0.0319 0.548666,-0.0478 0.9447211,-0.0354 0.8052738,0.0254 0.9378123,0.0874 0.9378123,0.43902 0,0.35202 -0.1168814,0.40202 -0.9960362,0.42599 -0.4428941,0.0121 -0.8637281,-0.007 -0.9574453,-0.044 z"
       id="path3566"
       inkscape:connector-curvature="0" />
  </g>
</svg>
