<?xml version="1.0" encoding="UTF-8" standalone="no"?>
<!-- Created with Inkscape (http://www.inkscape.org/) -->

<svg
   xmlns:dc="http://purl.org/dc/elements/1.1/"
   xmlns:cc="http://creativecommons.org/ns#"
   xmlns:rdf="http://www.w3.org/1999/02/22-rdf-syntax-ns#"
   xmlns:svg="http://www.w3.org/2000/svg"
   xmlns="http://www.w3.org/2000/svg"
   xmlns:sodipodi="http://sodipodi.sourceforge.net/DTD/sodipodi-0.dtd"
   xmlns:inkscape="http://www.inkscape.org/namespaces/inkscape"
   width="64"
   height="64"
   viewBox="0 0 16.933333 16.933333"
   version="1.1"
   id="svg8"
   inkscape:version="0.92.5 (2060ec1f9f, 2020-04-08)"
   sodipodi:docname="contention_stockings_64x64.svg">
  <defs
     id="defs2" />
  <sodipodi:namedview
     id="base"
     pagecolor="#ffffff"
     bordercolor="#666666"
     borderopacity="1.0"
     inkscape:pageopacity="0.0"
     inkscape:pageshadow="2"
     inkscape:zoom="5.6"
     inkscape:cx="38.164105"
     inkscape:cy="36.015138"
     inkscape:document-units="mm"
     inkscape:current-layer="layer1"
     showgrid="false"
     units="px"
     inkscape:window-width="1208"
     inkscape:window-height="987"
     inkscape:window-x="1992"
     inkscape:window-y="0"
     inkscape:window-maximized="1" />
  <metadata
     id="metadata5">
    <rdf:RDF>
      <cc:Work
         rdf:about="">
        <dc:format>image/svg+xml</dc:format>
        <dc:type
           rdf:resource="http://purl.org/dc/dcmitype/StillImage" />
        <dc:title></dc:title>
      </cc:Work>
    </rdf:RDF>
  </metadata>
  <g
     inkscape:label="Layer 1"
     inkscape:groupmode="layer"
     id="layer1"
     transform="translate(0,-280.06667)">
    <path
       style="fill:#000000;stroke-width:0.06534144"
       d="m 1.1828999,296.08556 c -0.25339743,-0.16233 -0.43994293,-0.59136 -0.38484133,-0.88508 0.078141,-0.41653 0.47820043,-0.74478 0.90771673,-0.74478 0.1237819,0 0.4266296,-0.0621 0.6729954,-0.13818 0.8581954,-0.26475 1.6736431,-0.75324 2.4193367,-1.44931 0.7385397,-0.68939 0.6780117,-0.0973 0.6756501,-6.60908 l -0.00207,-5.65581 h 0.3600429 0.360042 v 0.4193 0.4193 l 0.3430424,0.0757 c 0.5646546,0.12468 1.5372296,0.14937 2.0419202,0.0518 l 0.4573905,-0.0884 -0.02091,-0.38321 c -0.02407,-0.44103 0.01949,-0.4921 0.420873,-0.4936 l 0.269282,-9e-4 0.04021,0.31037 c 0.11435,0.88278 0.180352,2.29946 0.142315,3.05472 -0.05828,1.15733 -0.176674,2.01894 -0.522273,3.80103 -0.354674,1.82888 -0.4765395,2.72467 -0.5337689,3.92354 -0.039732,0.83224 -0.03117,0.94492 0.1022973,1.34597 l 0.1456546,0.4377 0.195204,-0.139 c 0.421469,-0.30011 0.9677995,-0.86185 1.0962275,-1.12715 0.133351,-0.27547 0.135073,-0.35122 0.135073,-5.9431 v -5.66408 h 0.359377 0.359378 v 0.42009 0.42009 l 0.375714,0.0846 c 0.478927,0.10787 1.858064,0.10911 2.220378,0.002 l 0.276471,-0.0817 -0.04,-0.38274 c -0.04426,-0.42351 -0.03532,-0.43331 0.433609,-0.47483 0.22711,-0.0201 0.227933,-0.0192 0.275466,0.30654 0.102662,0.70349 0.165238,2.52713 0.11574,3.37294 -0.06298,1.07613 -0.125859,1.52463 -0.456975,3.25921 -0.420694,2.20384 -0.529061,2.98512 -0.567393,4.09063 l -0.03649,1.05225 0.219114,0.64663 c 0.286167,0.84451 0.295633,1.34432 0.03553,1.87596 -0.212007,0.43333 -0.592382,0.78172 -1.008187,0.92339 -0.371195,0.12648 -0.566179,0.12705 -1.211642,0.004 -0.638982,-0.12227 -1.474146,-0.12241 -2.8202695,-5e-4 -1.4135759,0.12804 -2.5808774,0.12914 -2.7481866,0.003 -0.1674631,-0.12666 -0.928829,-0.12719 -2.2831041,-0.002 -0.5750047,0.0533 -1.398307,0.0966 -1.8295608,0.0961 -0.6745691,-7.4e-4 -0.8129143,-0.0192 -0.9903939,-0.13299 z m 2.6892707,-0.68292 c 0.5750048,-0.0521 1.2439379,-0.0953 1.4865185,-0.0961 0.2760771,-8.9e-4 0.4410545,-0.0282 0.4410545,-0.0732 0,-0.15683 0.2165014,-0.51466 0.3737142,-0.61767 0.091536,-0.06 0.3666447,-0.13419 0.6113503,-0.16492 0.3912391,-0.0491 1.3021215,-0.3482 1.5550927,-0.51059 0.074166,-0.0476 0.058185,-0.15714 -0.091508,-0.62725 -0.1759157,-0.55246 -0.1801794,-0.60028 -0.1419605,-1.59196 0.049228,-1.27731 0.165749,-2.16052 0.5385711,-4.0822 0.3232371,-1.6661 0.4669371,-2.70015 0.5035531,-3.62348 l 0.02405,-0.60655 -0.2979264,0.0512 c -0.3894593,0.0668 -1.9760305,0.0658 -2.3699315,-0.002 l -0.3077859,-0.0526 -0.018921,4.43049 -0.018922,4.43051 -0.1542342,0.28924 c -0.2081532,0.39036 -0.7184212,0.91864 -1.3393393,1.38661 -0.8433425,0.6356 -2.2139184,1.23185 -2.8316602,1.23185 -0.2177677,0 -0.3522684,0.10542 -0.3019115,0.23665 0.046152,0.12027 0.9551346,0.11698 2.3401948,-0.008 z m 5.4233409,-0.0316 c 0.8839625,-0.0955 2.1032975,-0.0794 2.7109825,0.0359 0.612565,0.1162 0.837045,0.0865 1.115403,-0.14775 0.466671,-0.39269 0.515803,-0.85014 0.194531,-1.8112 l -0.216742,-0.64837 0.03841,-1.11585 c 0.04435,-1.28866 0.1484,-2.09793 0.507331,-3.94611 0.360332,-1.85541 0.447768,-2.46533 0.496187,-3.46126 l 0.0422,-0.86817 -0.287887,0.0514 c -0.376709,0.0673 -1.965553,0.0662 -2.362477,-0.002 l -0.310372,-0.053 -0.0023,3.71212 c -0.0031,5.00732 -0.0034,5.01667 -0.176097,5.3957 -0.176365,0.38715 -0.925356,1.13531 -1.6065655,1.60476 -0.8368045,0.5767 -1.9981787,1.05481 -2.56966,1.05788 -0.2538921,0.002 -0.3789976,0.0904 -0.3249384,0.23128 0.040487,0.10551 0.1298126,0.11128 1.103991,0.0713 0.5829647,-0.0239 1.3245704,-0.0721 1.6480114,-0.10704 z M 8.7401087,282.73693 c 0.3422648,-0.0718 0.3603768,-0.0858 0.3803578,-0.29451 l 0.02098,-0.21913 -0.347686,0.0558 c -0.4465088,0.0717 -1.6669317,0.0719 -2.1935842,2.6e-4 l -0.4083835,-0.0554 v 0.19992 c 0,0.20659 0.096957,0.25928 0.6534137,0.35507 0.3348182,0.0577 1.5479657,0.0307 1.8949021,-0.0421 z m 5.0312903,0 c 0.342265,-0.0718 0.360377,-0.0858 0.380359,-0.29451 l 0.02098,-0.21913 -0.347688,0.0558 c -0.447894,0.0719 -1.667314,0.0718 -2.198242,-1.8e-4 l -0.413043,-0.0559 0.02099,0.21932 c 0.02033,0.21242 0.03332,0.22165 0.413043,0.29387 0.508018,0.0966 1.664769,0.0971 2.123597,7.4e-4 z M 0.76845237,293.31221 v -0.35938 H 1.2830164 c 0.2830099,0 0.6037098,-0.0178 0.7126656,-0.0396 0.1959991,-0.0392 0.1987042,-0.0359 0.2548175,0.31037 0.069436,0.42847 0.062286,0.43221 -0.8449684,0.44149 l -0.63707873,0.006 z m 1.83354753,-0.25557 -0.2001161,-0.29086 0.2124123,-0.14657 c 0.1168266,-0.0806 0.3710019,-0.27963 0.5648345,-0.44227 l 0.3524231,-0.2957 0.2183424,0.25809 c 0.1200892,0.14196 0.2187803,0.27881 0.2193145,0.30414 0.00117,0.0578 -0.7074128,0.63331 -0.9707044,0.78837 L 2.802115,293.34749 Z M 14.27496,292.77665 c -0.02092,-0.27659 -0.02343,-0.52652 -0.0056,-0.5554 0.01785,-0.0289 0.174594,-0.0525 0.348317,-0.0525 0.372902,0 0.395184,0.0348 0.395184,0.61792 0,0.40828 -0.0014,0.4115 -0.204192,0.45205 -0.485247,0.097 -0.491884,0.0913 -0.533734,-0.46205 z m -9.9391595,-0.7487 c 0.028805,-0.0466 0.017932,-0.0577 -0.028427,-0.029 -0.041278,0.0255 -0.1792143,-0.0331 -0.3065232,-0.13016 -0.2299048,-0.17536 -0.2306261,-0.17749 -0.1065619,-0.314 0.1880195,-0.20687 0.2933295,-0.43524 0.3345637,-0.7255 0.036071,-0.25396 0.04359,-0.26068 0.2649446,-0.23699 0.1252989,0.0134 0.2866233,0.0281 0.3584988,0.0326 0.1083793,0.007 0.1272756,0.0473 0.1107211,0.23698 -0.010981,0.12579 -0.051989,0.33161 -0.091122,0.4574 -0.084274,0.27083 -0.4224666,0.7841 -0.5166549,0.7841 -0.036332,0 -0.045082,-0.034 -0.019434,-0.0754 z m 10.0697425,-0.37024 c -0.135438,-0.0156 -0.174357,-0.0493 -0.150623,-0.13068 0.0176,-0.0603 0.05231,-0.38416 0.07713,-0.71958 0.0507,-0.68515 0.06531,-0.70285 0.523441,-0.63415 0.241668,0.0362 0.290509,0.0653 0.256927,0.1528 -0.02281,0.0594 -0.05895,0.39506 -0.08032,0.74584 l -0.03886,0.63778 -0.202538,-0.0156 c -0.111397,-0.009 -0.284721,-0.0249 -0.385164,-0.0365 z M 4.231549,289.45706 v -0.75143 h 0.3593774 0.3593783 v 0.75143 0.75143 H 4.5909264 4.231549 Z m 10.533313,0.21726 c -0.217393,-0.0486 -0.273504,-0.0876 -0.248801,-0.17269 0.01755,-0.0604 0.08096,-0.36339 0.140945,-0.67321 0.05997,-0.30982 0.127848,-0.59373 0.150825,-0.63091 0.02877,-0.0465 0.149087,-0.0464 0.386338,5e-4 0.270268,0.0534 0.337546,0.0909 0.312018,0.17351 -0.0179,0.058 -0.07732,0.32591 -0.132042,0.59544 -0.182174,0.89729 -0.113968,0.81811 -0.609283,0.70733 z m -10.533313,-2.0795 v -0.71874 h 0.3593774 0.3593783 v 0.71874 0.71877 H 4.5909264 4.231549 Z m 10.94239,0.12332 -0.263667,-0.0601 0.132984,-0.75024 0.132984,-0.75025 0.228695,0.0383 c 0.529933,0.0887 0.516726,0.0508 0.339973,0.97353 -0.122929,0.64171 -0.130696,0.64917 -0.570969,0.5488 z M 4.231549,285.7326 v -0.75143 h 0.3593774 0.3593783 v 0.75143 0.75143 H 4.5909264 4.231549 Z m 11.12438,-0.0106 c -0.04583,-0.0185 -0.08168,-0.14528 -0.08168,-0.28888 0,-0.23011 -0.01664,-0.25592 -0.165039,-0.25592 -0.159183,0 -0.150724,-0.0213 0.238392,-0.59999 l 0.403429,-0.59998 0.313693,0.61631 c 0.17253,0.33899 0.315185,0.63219 0.31701,0.65157 0.0018,0.0194 -0.07754,0.0341 -0.176369,0.0326 -0.161026,-0.002 -0.181796,0.0228 -0.199969,0.24244 -0.02002,0.24189 -0.0238,0.24497 -0.294037,0.23987 -0.150565,-0.003 -0.310511,-0.02 -0.355433,-0.0381 z M 3.9048416,284.81352 c 0,-0.031 0.6348826,-1.13518 0.6841989,-1.18995 0.019992,-0.0222 0.6879715,1.12963 0.6879715,1.18632 0,0.0223 -0.3087382,0.0406 -0.6860856,0.0406 -0.3773465,0 -0.6860848,-0.0166 -0.6860848,-0.037 z"
       id="path1042"
       inkscape:connector-curvature="0" />
    <path
       style="fill:#ffffff;stroke-width:0.00176399;stroke-miterlimit:4;stroke-dasharray:none"
       d="m 1.6177078,295.44067 c -0.04492,-0.0118 -0.081675,-0.0505 -0.081675,-0.0863 0,-0.0949 0.1269025,-0.14508 0.4468919,-0.17691 0.5556211,-0.0552 1.6386897,-0.51649 2.4172558,-1.0294 0.7515877,-0.49514 1.4111492,-1.16067 1.6805192,-1.69572 l 0.1225786,-0.24348 v -4.3942 -4.39421 l 0.1050132,0.0335 c 0.175368,0.0558 2.1361408,0.0828 2.4853084,0.0341 0.1796886,-0.0251 0.3359226,-0.0371 0.3471856,-0.0267 0.0395,0.0362 -0.09096,1.63333 -0.1843684,2.25701 -0.051899,0.34655 -0.208083,1.23916 -0.3470722,1.98358 -0.3168068,1.69683 -0.4305505,2.50451 -0.4972362,3.53081 -0.068878,1.06009 -0.0368,1.63637 0.1178456,2.11657 0.1786639,0.55477 0.1803402,0.54967 -0.2380113,0.72384 -0.3408022,0.14188 -1.1547372,0.37267 -1.3162567,0.37322 -0.3282793,8.9e-4 -0.6817357,0.24507 -0.8247061,0.56918 -0.04868,0.11036 -0.1100961,0.21608 -0.1364747,0.23494 -0.026377,0.0189 -0.184477,0.0347 -0.3513313,0.0353 -0.1668542,5.3e-4 -0.8284364,0.0427 -1.4701825,0.0939 -1.0770729,0.0858 -2.0781442,0.11268 -2.2752827,0.0611 z"
       id="path1046"
       inkscape:connector-curvature="0" />
    <path
       style="fill:#ffffff;stroke-width:0.00176399;stroke-miterlimit:4;stroke-dasharray:none"
       d="m 6.6116615,295.44766 c -0.019254,-0.0204 -0.035001,-0.0746 -0.035001,-0.1205 0,-0.0858 0.032429,-0.0955 0.5326869,-0.15964 0.4935895,-0.0633 1.6217369,-0.5503 2.2443241,-0.96891 0.7054085,-0.47428 1.4395665,-1.1856 1.6804315,-1.62815 0.18628,-0.34226 0.206756,-0.85842 0.208373,-5.25274 l 0.0014,-3.88459 0.221694,0.0341 c 0.284929,0.0438 2.264812,0.0445 2.504148,8.8e-4 l 0.182193,-0.0333 -0.03114,0.72227 c -0.04205,0.97525 -0.125657,1.58459 -0.473545,3.45138 -0.365754,1.96264 -0.478212,2.84083 -0.530551,4.14311 l -0.04084,1.01605 0.186933,0.57081 c 0.161674,0.49369 0.187683,0.63121 0.19249,1.01784 0.0051,0.41585 -0.0033,0.4598 -0.122033,0.63007 -0.151181,0.21689 -0.389675,0.38799 -0.61011,0.43771 -0.09259,0.0209 -0.342341,0.009 -0.59747,-0.0281 -0.75743,-0.11052 -1.885198,-0.12829 -2.8586915,-0.0451 -1.0702642,0.0915 -2.6073203,0.14748 -2.6553201,0.0967 z"
       id="path1048"
       inkscape:connector-curvature="0" />
    <path
       style="fill:#ffffff;stroke-width:0.00176399;stroke-miterlimit:4;stroke-dasharray:none"
       d="m 11.850644,282.74973 c -0.316919,-0.0566 -0.538912,-0.1241 -0.570403,-0.17362 -0.0192,-0.0302 -0.03524,-0.11313 -0.03562,-0.18432 l -7.12e-4,-0.12945 0.385047,0.0361 c 0.497239,0.0466 1.788361,0.0465 2.193606,-2.1e-4 l 0.31504,-0.0363 -7.15e-4,0.12965 c -9.89e-4,0.1782 -0.04934,0.23954 -0.235929,0.29929 -0.15888,0.0509 -1.826648,0.0988 -2.050307,0.0588 z"
       id="path1050"
       inkscape:connector-curvature="0" />
    <path
       style="fill:#ffffff;stroke-width:0.00176399;stroke-miterlimit:4;stroke-dasharray:none"
       d="m 6.5999929,282.70604 c -0.2972046,-0.0743 -0.3967158,-0.15825 -0.3967158,-0.33484 0,-0.10815 0.00252,-0.10861 0.3850482,-0.0728 0.4985995,0.0468 1.7886801,0.0464 2.1965177,-5e-4 l 0.3179515,-0.0366 -0.01458,0.17662 c -0.01318,0.15963 -0.03254,0.1828 -0.2012695,0.24096 -0.286278,0.0987 -1.922867,0.11807 -2.2869514,0.0272 z"
       id="path1052"
       inkscape:connector-curvature="0" />
    <path
       style="fill:#ffffff;stroke-width:0.00176399;stroke-miterlimit:4;stroke-dasharray:none"
       d="m 6.9500364,281.56329 c -0.1668542,-0.0232 -0.4031333,-0.066 -0.5250652,-0.0951 l -0.2216941,-0.0531 v -0.39206 -0.39206 h 1.4285031 c 1.2834339,0 1.4256273,0.007 1.4001743,0.0738 -0.01558,0.0407 -0.02833,0.22789 -0.02833,0.41619 v 0.34235 l -0.2450316,0.055 c -0.3185488,0.0715 -1.4201801,0.0989 -1.8085576,0.045 z"
       id="path1054"
       inkscape:connector-curvature="0" />
    <path
       style="fill:#ffffff;stroke-width:0.00176399;stroke-miterlimit:4;stroke-dasharray:none"
       d="m 11.640618,281.51525 c -0.102679,-0.0241 -0.233945,-0.0548 -0.291702,-0.0682 -0.09809,-0.0228 -0.105013,-0.049 -0.105013,-0.39691 v -0.37249 h 1.405167 c 1.133446,0 1.400666,0.0117 1.381895,0.0606 -0.0128,0.0334 -0.0087,0.2008 0.009,0.37209 l 0.03223,0.31143 -0.142304,0.0564 c -0.176887,0.0702 -2.020728,0.0999 -2.28924,0.037 z"
       id="path1056"
       inkscape:connector-curvature="0" />
  </g>
</svg>
