<?xml version="1.0" encoding="UTF-8" standalone="no"?>
<!-- Created with Inkscape (http://www.inkscape.org/) -->

<svg
   xmlns:dc="http://purl.org/dc/elements/1.1/"
   xmlns:cc="http://creativecommons.org/ns#"
   xmlns:rdf="http://www.w3.org/1999/02/22-rdf-syntax-ns#"
   xmlns:svg="http://www.w3.org/2000/svg"
   xmlns="http://www.w3.org/2000/svg"
   xmlns:sodipodi="http://sodipodi.sourceforge.net/DTD/sodipodi-0.dtd"
   xmlns:inkscape="http://www.inkscape.org/namespaces/inkscape"
   width="64"
   height="64"
   viewBox="0 0 16.933333 16.933333"
   version="1.1"
   id="svg8"
   inkscape:version="0.92.5 (2060ec1f9f, 2020-04-08)"
   sodipodi:docname="contention_band_64x64.svg">
  <defs
     id="defs2" />
  <sodipodi:namedview
     id="base"
     pagecolor="#ffffff"
     bordercolor="#666666"
     borderopacity="1.0"
     inkscape:pageopacity="0.0"
     inkscape:pageshadow="2"
     inkscape:zoom="7.9195959"
     inkscape:cx="28.535449"
     inkscape:cy="36.486795"
     inkscape:document-units="mm"
     inkscape:current-layer="layer1"
     showgrid="false"
     units="px"
     inkscape:window-width="1208"
     inkscape:window-height="987"
     inkscape:window-x="1992"
     inkscape:window-y="0"
     inkscape:window-maximized="1" />
  <metadata
     id="metadata5">
    <rdf:RDF>
      <cc:Work
         rdf:about="">
        <dc:format>image/svg+xml</dc:format>
        <dc:type
           rdf:resource="http://purl.org/dc/dcmitype/StillImage" />
        <dc:title></dc:title>
      </cc:Work>
    </rdf:RDF>
  </metadata>
  <g
     inkscape:label="Layer 1"
     inkscape:groupmode="layer"
     id="layer1"
     transform="translate(0,-280.06667)">
    <path
       style="fill:#000000;stroke-width:0.07086431"
       d="M 3.9002919,296.3125 C 2.325834,296.06792 1.1814507,295.47499 0.79776336,294.70503 l -0.1854889,-0.37222 v -5.85392 -5.85391 l 0.1775051,-0.3562 c 0.097628,-0.19591 0.24910004,-0.42315 0.33660524,-0.50498 0.3029327,-0.28325 1.0119492,-0.6606 1.5760924,-0.83881 1.1318449,-0.35756 1.5473922,-0.38205 6.4843792,-0.38222 4.4362906,-1.5e-4 4.5775436,0.004 4.8017066,0.14066 0.39727,0.24222 0.512553,0.51709 0.512853,1.2228 l 2.65e-4,0.62006 h 0.432193 c 0.524856,0 0.861879,0.14659 1.054841,0.45882 0.115219,0.18642 0.142795,0.35285 0.142581,0.86053 -4.29e-4,0.9925 -0.277903,1.30263 -1.165477,1.30263 h -0.464138 v 1.34642 1.34642 l 0.478334,2.7e-4 c 0.551077,2.7e-4 0.865322,0.14785 1.041809,0.48913 0.160099,0.3096 0.150951,1.36687 -0.01427,1.65007 -0.180536,0.30941 -0.567178,0.4825 -1.077857,0.4825 h -0.42801 l -2.94e-4,0.62006 c -2.95e-4,0.70571 -0.115584,0.98058 -0.512854,1.22279 -0.215509,0.1314 -0.360119,0.14084 -2.162009,0.14108 l -1.9310346,2.7e-4 -0.0078,0.72636 c -0.0099,0.92438 -0.0267,1.11 -0.128486,1.41841 -0.09451,0.28638 -0.600177,0.78859 -1.069476,1.06216 -1.077198,0.62795 -3.1503885,0.91289 -4.7894785,0.65827 z m 3.1143465,-0.74914 c 0.803102,-0.17482 1.579223,-0.54676 1.913865,-0.91717 l 0.258353,-0.28596 v -5.14229 -5.14228 l -0.194877,0.13746 c -1.427111,1.00669 -4.4645365,1.24444 -6.4843116,0.50756 -0.3021839,-0.11025 -0.6944225,-0.29831 -0.8716408,-0.41791 -0.1772176,-0.11961 -0.3371727,-0.21746 -0.3554552,-0.21746 -0.01828,0 -0.024656,2.30647 -0.014164,5.12549 l 0.019076,5.1255 0.1897225,0.2487 c 0.368282,0.48278 1.5694069,0.9702 2.7552677,1.1181 0.7230679,0.0902 2.0291247,0.0246 2.7841644,-0.13974 z m -2.9867041,-2.209 c -0.055131,-0.0551 -0.085033,-0.34173 -0.085033,-0.81494 v -0.7299 H 3.2342591 c -1.0060125,0 -0.9921006,0.0189 -0.9921006,-1.34642 0,-1.3653 -0.013915,-1.34643 0.9921006,-1.34643 h 0.7086424 v -0.72989 c 0,-0.47322 0.029902,-0.75981 0.085033,-0.81495 0.058931,-0.059 0.427211,-0.0851 1.1996324,-0.0851 0.9187819,0 1.1341572,0.0196 1.2259517,0.11136 0.08628,0.0863 0.1113591,0.2698 0.1113591,0.81494 v 0.70358 h 0.6778697 c 1.006498,0 0.952009,-0.0771 0.952009,1.34642 0,1.42349 0.05449,1.34642 -0.952009,1.34642 H 6.5648775 v 0.70358 c 0,0.54513 -0.025075,0.72866 -0.1113591,0.81494 -0.091795,0.0918 -0.3071698,0.11136 -1.2259517,0.11136 -0.7724214,0 -1.1407008,-0.0261 -1.1996324,-0.0851 z m 1.8830954,-1.33225 c 0.015524,-0.59659 0.04279,-0.76164 0.1375569,-0.83265 0.075799,-0.0568 0.3674929,-0.0886 0.8132918,-0.0886 h 0.6951 v -0.63778 -0.63778 h -0.6951 c -0.4457989,0 -0.7374889,-0.0318 -0.8132918,-0.0886 -0.094765,-0.071 -0.1220318,-0.23607 -0.1375569,-0.83266 l -0.019367,-0.74408 -0.6554944,-0.0204 -0.6554953,-0.0204 v 0.74272 c 0,0.94045 -0.023107,0.96334 -0.9724358,0.96334 h -0.657444 v 0.63778 0.63777 h 0.657444 c 0.9493308,0 0.9724358,0.0229 0.9724358,0.96335 v 0.74272 l 0.6554953,-0.0204 0.6554944,-0.0204 z m 7.8111443,-0.35432 c 0.116532,-0.11653 0.141729,-0.23621 0.141729,-0.67321 v -0.53148 l -0.442902,-1.4e-4 c -0.279653,-8e-5 -0.534322,-0.0458 -0.690928,-0.12402 -0.654216,-0.32682 -0.783817,-1.70256 -0.211997,-2.2504 0.187688,-0.17982 0.281673,-0.2099 0.76224,-0.24399 l 0.548154,-0.0389 v -1.31099 -1.31099 l -0.499642,-0.0354 c -0.837909,-0.0594 -1.102434,-0.33446 -1.147367,-1.19295 -0.05134,-0.98083 0.337178,-1.4287 1.23954,-1.42892 l 0.442902,-1.1e-4 v -0.53148 c 0,-0.86929 0.187817,-0.81494 -2.815911,-0.81494 H 8.5155374 l 0.357175,0.24053 c 0.404322,0.27229 0.783775,0.67723 0.894245,0.95432 0.101057,0.25348 0.103672,0.3698 0.116926,5.20066 l 0.01161,4.23413 h 1.8424726 c 1.747987,0 1.849741,-0.007 1.984201,-0.14173 z m 1.642015,-1.95975 c 0.09931,-0.0899 0.129593,-0.22116 0.129593,-0.56186 0,-0.66438 -0.0058,-0.66729 -1.337311,-0.66729 -0.772421,0 -1.1407,0.0261 -1.199632,0.0851 -0.0505,0.0505 -0.08503,0.2937 -0.08503,0.59883 0,0.41456 0.02395,0.52774 0.124012,0.58602 0.06868,0.04 0.595786,0.0732 1.181397,0.0744 0.886508,0.002 1.078328,-0.0168 1.186977,-0.11513 z m -8.2678296,-5.40098 c 1.76401,-0.43716 2.512677,-1.24219 1.843772,-1.98259 -0.507673,-0.56193 -1.529686,-0.94273 -2.8970648,-1.07943 -2.5061256,-0.25054 -5.07749184,0.73603 -4.7224278,1.81189 0.1998639,0.6056 1.2808586,1.15114 2.7344716,1.37999 0.6722348,0.10584 2.3853142,0.0327 3.041249,-0.12986 z m -2.8539449,-0.51032 c -1.0743708,-0.10383 -1.7262426,-0.35732 -1.9100404,-0.74275 -0.1113351,-0.23347 -0.1101652,-0.25485 0.024074,-0.4397 0.3428928,-0.47217 1.322864,-0.71965 2.8620087,-0.72277 1.8990246,-0.003 2.9763006,0.34096 2.9763006,0.95262 0,0.51369 -0.676632,0.82292 -2.0904971,0.95541 -0.8574464,0.0804 -1.0036683,0.0801 -1.8618448,-0.003 z m 2.3746696,-0.70546 c 0.2430773,-0.0395 0.5300773,-0.10691 0.6377783,-0.14991 l 0.195819,-0.0782 -0.221775,-0.0943 c -0.7307312,-0.31071 -3.2241909,-0.3091 -3.9562816,0.003 l -0.2155311,0.0918 0.2047668,0.0816 c 0.1126213,0.0448 0.3677334,0.10884 0.5669143,0.14216 0.5164809,0.0864 2.2659747,0.0891 2.7883093,0.004 z m 8.7653399,1.30785 c 0.15773,-0.15773 0.153599,-0.9292 -0.0059,-1.10546 -0.103626,-0.11452 -0.240257,-0.1296 -1.173917,-0.1296 -0.592852,0 -1.116804,0.0322 -1.19371,0.0733 -0.116207,0.0622 -0.13707,0.15172 -0.13707,0.58817 0,0.30593 0.03451,0.54933 0.08503,0.59986 0.05893,0.059 0.42721,0.0851 1.199631,0.0851 0.918782,0 1.134159,-0.0196 1.225953,-0.11136 z"
       id="path961"
       inkscape:connector-curvature="0" />
    <path
       style="fill:#ffffff;stroke-width:0.00135276;stroke-miterlimit:4;stroke-dasharray:none"
       d="m 4.4539994,295.70545 c -0.7395165,-0.0588 -1.6604192,-0.31387 -2.2842317,-0.63272 -0.2546602,-0.13016 -0.3909754,-0.23064 -0.605963,-0.44665 l -0.2773869,-0.2787 v -5.1215 c 0,-4.08769 0.00903,-5.11606 0.044741,-5.09458 0.024604,0.0148 0.1252718,0.0781 0.2236997,0.14048 0.9155684,0.58098 2.1405728,0.87837 3.6203872,0.87891 0.7788158,2.9e-4 1.2314734,-0.0405 1.8736677,-0.16881 0.744116,-0.14869 1.474713,-0.42727 1.915028,-0.73022 0.08575,-0.059 0.165079,-0.10726 0.176297,-0.10726 0.01122,0 0.02039,2.29629 0.02039,5.10287 v 5.10287 l -0.152116,0.18078 c -0.378762,0.45012 -1.178633,0.84418 -2.084877,1.02713 -0.6544937,0.13213 -1.8009771,0.20055 -2.4696406,0.1474 z m 1.9408895,-2.31862 c 0.1492524,-0.0853 0.1677883,-0.17396 0.1823686,-0.87222 l 0.013932,-0.66726 0.6494139,-0.0158 c 0.372706,-0.009 0.692093,-0.0335 0.749575,-0.0573 0.187137,-0.0775 0.204072,-0.18588 0.204072,-1.30605 0,-0.65119 -0.01424,-1.05673 -0.03967,-1.12968 -0.06953,-0.19947 -0.183643,-0.23042 -0.913983,-0.24787 l -0.6494227,-0.0155 -0.012726,-0.66839 c -0.013992,-0.73498 -0.040223,-0.83334 -0.2368783,-0.88836 -0.125835,-0.0352 -2.1075857,-0.036 -2.2325923,-8.6e-4 -0.051965,0.0146 -0.1073736,0.0549 -0.1231324,0.0895 -0.015755,0.0346 -0.035062,0.37862 -0.042893,0.76445 l -0.014249,0.70151 -0.6729759,0.0204 c -1.0564708,0.0319 -1.0201401,-0.0168 -1.0201401,1.36841 0,1.38769 -0.033839,1.34258 1.027868,1.37042 l 0.671563,0.0176 8.541e-4,0.61238 c 7.788e-4,0.55828 0.028507,0.85054 0.086161,0.90819 0.055567,0.0555 0.4003738,0.0735 1.3088691,0.068 0.7219621,-0.004 1.0055203,-0.0181 1.063988,-0.0515 z"
       id="path963"
       inkscape:connector-curvature="0" />
    <path
       style="fill:#ffffff;stroke-width:0.00135276;stroke-miterlimit:4;stroke-dasharray:none"
       d="m 4.1164263,284.43016 c -0.8319674,-0.11673 -1.7737594,-0.44182 -2.2709941,-0.78393 -0.1780075,-0.12247 -0.3888855,-0.34805 -0.46751,-0.50009 -0.092548,-0.17896 -0.072581,-0.46438 0.045512,-0.6506 0.5153084,-0.81256 2.5250894,-1.39011 4.3548647,-1.25146 1.4328975,0.10858 2.4480205,0.443 3.0383585,1.00097 0.458059,0.43293 0.457691,0.83418 -0.0012,1.25353 -0.469048,0.42869 -1.412013,0.7847 -2.3750568,0.8967 -0.4483588,0.0521 -2.0315988,0.0759 -2.3240231,0.0349 z m 2.3914203,-0.6591 c 1.2164878,-0.18245 1.6859168,-0.44466 1.6862718,-0.94191 1.06e-4,-0.1667 -0.01495,-0.20458 -0.134086,-0.33713 -0.152851,-0.17004 -0.506442,-0.34682 -0.867953,-0.43393 -0.5301169,-0.12774 -0.8324676,-0.15069 -1.9685538,-0.14945 -1.2213356,0.002 -1.541203,0.0347 -2.1096963,0.2195 -0.3468304,0.11281 -0.5243337,0.21771 -0.7109737,0.4202 -0.1725457,0.18719 -0.1903883,0.30293 -0.080043,0.51923 0.1882651,0.36903 0.7888271,0.61319 1.8090596,0.73548 0.5428774,0.065 1.8457497,0.0475 2.375974,-0.032 z"
       id="path967"
       inkscape:connector-curvature="0" />
    <path
       style="fill:#ffffff;stroke-width:0.00135276;stroke-miterlimit:4;stroke-dasharray:none"
       d="m 4.2213522,283.10488 c -0.4816453,-0.034 -1.0737562,-0.17011 -1.0737562,-0.24683 0,-0.0153 0.1006649,-0.0609 0.2236988,-0.10126 0.4251203,-0.13948 0.7715639,-0.16942 1.9417103,-0.16779 0.9877461,0.002 1.1468745,0.01 1.449571,0.0761 0.1870123,0.041 0.4044483,0.10167 0.4831903,0.13486 0.178292,0.0751 0.145416,0.0986 -0.28005,0.19965 -0.5465783,0.12981 -1.7455618,0.17582 -2.7443642,0.1053 z"
       id="path969"
       inkscape:connector-curvature="0" />
    <path
       style="fill:#ffffff;stroke-width:0.00135276;stroke-miterlimit:4;stroke-dasharray:none"
       d="m 9.9088954,289.0968 c -0.0019,-1.49347 -0.01396,-3.57749 -0.02691,-4.63115 l -0.02353,-1.91575 -0.11591,-0.23544 c -0.136964,-0.27821 -0.456549,-0.61965 -0.814854,-0.87057 -0.137634,-0.0964 -0.266288,-0.1893 -0.285897,-0.20648 -0.02034,-0.0178 1.009684,-0.0267 2.3980576,-0.0206 2.350916,0.0103 2.438568,0.013 2.576592,0.0822 0.207291,0.10385 0.231796,0.18027 0.232402,0.72478 l 4.96e-4,0.47424 -0.259491,2.8e-4 c -1.009282,8.5e-4 -1.423854,0.3803 -1.422106,1.30095 0.0012,0.6359 0.138689,1.00784 0.437027,1.18229 0.197843,0.11569 0.390818,0.15878 0.841911,0.188 l 0.366867,0.0238 v 1.29717 1.29716 l -0.331075,0.0243 c -0.735066,0.0539 -0.875418,0.10768 -1.103368,0.42235 -0.370836,0.51193 -0.296212,1.52025 0.145175,1.96164 0.14523,0.14522 0.202304,0.17573 0.422493,0.22581 0.140019,0.0318 0.401928,0.0579 0.582021,0.0579 h 0.327442 l -0.01238,0.49853 c -0.01088,0.43806 -0.02145,0.51079 -0.08718,0.59952 -0.15298,0.20652 -0.128461,0.20391 -2.063762,0.21989 l -1.7806476,0.0147 z"
       id="path971"
       inkscape:connector-curvature="0" />
    <path
       style="fill:#ffffff;stroke-width:0.00135276;stroke-miterlimit:4;stroke-dasharray:none"
       d="m 13.287418,284.47118 c -0.161432,-0.0138 -0.302425,-0.0339 -0.313317,-0.0447 -0.05032,-0.0503 -0.09712,-0.4733 -0.08376,-0.75708 0.01067,-0.22674 0.0309,-0.33015 0.0728,-0.37205 0.08336,-0.0833 0.684492,-0.12735 1.530479,-0.11201 0.485799,0.009 0.723341,0.0269 0.781504,0.0593 0.126709,0.0707 0.192094,0.27005 0.195003,0.59457 0.0032,0.35472 -0.05053,0.52983 -0.181173,0.59058 -0.113106,0.0526 -1.526657,0.0819 -2.001539,0.0415 z"
       id="path973"
       inkscape:connector-curvature="0" />
    <path
       style="fill:#ffffff;stroke-width:0.00135276;stroke-miterlimit:4;stroke-dasharray:none"
       d="m 13.195755,289.76749 c -0.277113,-0.0407 -0.295021,-0.0775 -0.293917,-0.60465 0.0011,-0.50959 0.0281,-0.595 0.199104,-0.62921 0.188626,-0.0377 1.97222,-0.0252 2.116411,0.0147 0.209821,0.0583 0.242652,0.13639 0.242652,0.57736 0,0.21123 -0.01725,0.42193 -0.03834,0.4682 -0.08175,0.17943 -0.127481,0.18728 -1.124898,0.19312 -0.511824,0.003 -1.00728,-0.006 -1.101013,-0.0196 z"
       id="path975"
       inkscape:connector-curvature="0" />
  </g>
</svg>
