<?xml version="1.0" encoding="UTF-8" standalone="no"?>
<!-- Created with Inkscape (http://www.inkscape.org/) -->

<svg
   xmlns:dc="http://purl.org/dc/elements/1.1/"
   xmlns:cc="http://creativecommons.org/ns#"
   xmlns:rdf="http://www.w3.org/1999/02/22-rdf-syntax-ns#"
   xmlns:svg="http://www.w3.org/2000/svg"
   xmlns="http://www.w3.org/2000/svg"
   xmlns:sodipodi="http://sodipodi.sourceforge.net/DTD/sodipodi-0.dtd"
   xmlns:inkscape="http://www.inkscape.org/namespaces/inkscape"
   width="64"
   height="64"
   viewBox="0 0 16.933333 16.933333"
   version="1.1"
   id="svg8"
   inkscape:version="0.92.5 (2060ec1f9f, 2020-04-08)"
   sodipodi:docname="cushion_64x64.svg">
  <defs
     id="defs2" />
  <sodipodi:namedview
     id="base"
     pagecolor="#ffffff"
     bordercolor="#666666"
     borderopacity="1.0"
     inkscape:pageopacity="0.0"
     inkscape:pageshadow="2"
     inkscape:zoom="3.959798"
     inkscape:cx="74.703942"
     inkscape:cy="-12.824565"
     inkscape:document-units="mm"
     inkscape:current-layer="layer1"
     showgrid="false"
     units="px"
     inkscape:window-width="1208"
     inkscape:window-height="987"
     inkscape:window-x="1992"
     inkscape:window-y="0"
     inkscape:window-maximized="1"
     showguides="false" />
  <metadata
     id="metadata5">
    <rdf:RDF>
      <cc:Work
         rdf:about="">
        <dc:format>image/svg+xml</dc:format>
        <dc:type
           rdf:resource="http://purl.org/dc/dcmitype/StillImage" />
        <dc:title></dc:title>
      </cc:Work>
    </rdf:RDF>
  </metadata>
  <g
     inkscape:label="Layer 1"
     inkscape:groupmode="layer"
     id="layer1"
     transform="translate(0,-280.06667)">
    <path
       style="fill:#000000;stroke-width:0.06567266"
       d="m 7.0282409,295.34887 c -0.7195291,-0.0419 -2.0866691,-0.22517 -2.9022935,-0.38911 l -0.8336034,-0.16744 -0.5015767,0.24786 c -1.0572108,0.52247 -1.87008396,0.29625 -1.87008396,-0.5205 0,-0.35493 0.40888206,-1.09425 0.82044376,-1.48346 l 0.3615826,-0.34197 0.2079348,-1.52321 0.2079349,-1.52321 -0.1151683,-0.93278 c -0.063328,-0.51303 -0.09604,-0.96371 -0.072662,-1.00151 0.07565,-0.12234 0.298286,-0.0735 0.360092,0.079 0.083088,0.20505 0.199807,1.24608 0.2011281,1.79404 5.946e-4,0.25043 -0.1074708,1.26231 -0.2401589,2.24873 -0.3163223,2.3515 -0.3513323,2.26586 1.0599593,2.59331 1.5560161,0.36104 2.8813308,0.50581 4.629922,0.50581 1.7467474,0 3.2503144,-0.17203 4.8222014,-0.55217 0.649613,-0.1571 0.911625,-0.31231 1.025894,-0.60795 0.03489,-0.0902 -0.04368,-0.89737 -0.215431,-2.2119 l -0.270401,-2.06973 0.271808,-2.05177 c 0.259747,-1.9606 0.267013,-2.06185 0.163936,-2.2791 -0.145181,-0.30598 -0.432269,-0.42319 -1.631841,-0.66634 -0.539582,-0.10946 -1.010612,-0.19903 -1.046731,-0.19931 -0.03762,-2.7e-4 -0.05654,0.13268 -0.04431,0.31134 0.02729,0.39928 -0.168645,0.7115 -0.580106,0.92425 -0.508226,0.26279 -1.2849488,0.10717 -1.8892896,-0.37849 -0.2350755,-0.18899 -0.2792759,-0.20019 -0.6844704,-0.17405 -0.3707673,0.023 -0.4790514,0.0617 -0.7518481,0.26307 -0.5965174,0.4406 -1.5016888,0.56195 -1.9139799,0.25647 -0.3372077,-0.24986 -0.4882677,-0.54547 -0.4559459,-0.89253 l 0.029151,-0.31314 -0.2367412,0.0402 c -0.3319405,0.0563 -1.6325729,0.34301 -1.9235955,0.42406 -0.3104519,0.0864 -0.5792421,0.40105 -0.5776539,0.67607 6.692e-4,0.11463 0.045148,0.51752 0.098826,0.8953 0.087195,0.61344 0.086907,0.69762 -0.00243,0.78696 -0.1829482,0.18295 -0.3203288,0.006 -0.3931204,-0.50309 -0.062208,-0.43594 -0.086132,-0.48232 -0.4526115,-0.87709 -0.4247815,-0.4576 -0.76220185,-1.08915 -0.76228228,-1.42682 -7.18e-5,-0.29516 0.15997198,-0.5817 0.39183378,-0.70161 0.4202696,-0.21741 1.1852085,-0.0698 1.7751949,0.3424 l 0.3545978,0.24786 0.7257586,-0.14159 c 0.3991689,-0.0778 0.836507,-0.16054 0.9718657,-0.18353 l 0.2461041,-0.0419 -0.1311655,-0.25705 c -0.264083,-0.51765 -0.088343,-1.09938 0.4183626,-1.38486 0.5463775,-0.3078 1.2553664,-0.14532 1.8685875,0.42828 0.3123704,0.2922 0.3321643,0.30018 0.7440592,0.30018 0.4090343,0 0.4318123,-0.009 0.6827529,-0.26825 0.5956586,-0.61576 1.4337531,-0.80368 1.9780401,-0.44346 0.463818,0.30693 0.618397,0.9135 0.346465,1.35953 -0.07404,0.12149 -0.125652,0.22746 -0.11468,0.23579 0.01091,0.009 0.452637,0.0959 0.981466,0.19501 l 0.961513,0.18008 0.360451,-0.23924 c 1.059037,-0.70316 2.149592,-0.51392 2.14938,0.37296 -6.7e-5,0.32084 -0.327632,0.95497 -0.708234,1.3711 l -0.335045,0.36636 -0.200726,1.53677 c -0.110403,0.8452 -0.19975,1.72947 -0.198571,1.96501 0.0011,0.23551 0.08633,1.05711 0.189208,1.82566 l 0.187055,1.39736 0.338036,0.35743 c 0.379156,0.40086 0.728225,1.0714 0.728303,1.39893 1.98e-4,0.80497 -0.817699,1.03298 -1.859059,0.51831 l -0.490605,-0.2424 -0.647559,0.13355 c -1.831407,0.37755 -3.7645801,0.5197 -5.605846,0.41217 z m -4.5875623,-0.58998 0.2442947,-0.0976 -0.2846755,-0.2737 c -0.2772656,-0.26652 -0.4886641,-0.74774 -0.3950848,-0.89915 0.021827,-0.0353 0.00976,-0.064 -0.026709,-0.064 -0.1469904,0 -0.6637574,0.92675 -0.6637574,1.19036 0,0.0316 0.062036,0.11948 0.1378287,0.1953 0.1167766,0.1169 0.1841256,0.13097 0.4408334,0.0925 0.1666637,-0.0258 0.4129344,-0.0893 0.5472965,-0.14332 z m 12.7174844,-0.006 c 0.127892,-0.17146 -0.0569,-0.72255 -0.379567,-1.13196 l -0.129413,-0.16427 -0.0015,0.18812 c -0.0021,0.26795 -0.25426,0.68164 -0.512732,0.84141 -0.263939,0.16313 -0.219193,0.23293 0.228154,0.35673 0.372776,0.10315 0.676691,0.0686 0.795001,-0.0902 z M 2.057998,285.15994 c 0.049858,-0.24929 0.3308691,-0.57642 0.6273773,-0.73024 l 0.2383209,-0.1235 -0.3870432,-0.17835 c -0.7937395,-0.3661 -1.2006083,-0.27083 -1.1399883,0.26709 0.032483,0.2883 0.4693812,1.04985 0.5674898,0.98919 0.030788,-0.0201 0.073036,-0.11976 0.093829,-0.22373 z m 12.97873,-0.37894 c 0.271866,-0.54381 0.105515,-0.92794 -0.374042,-0.86364 -0.287352,0.0384 -0.935832,0.30322 -0.935832,0.38198 0,0.0293 0.06649,0.0732 0.147765,0.098 0.277754,0.0845 0.559594,0.35311 0.682081,0.65034 l 0.122406,0.29709 0.111344,-0.14706 c 0.06124,-0.0807 0.172063,-0.26852 0.246276,-0.41684 z m -8.3578004,0.40137 c 0.1821728,-0.054 0.4099247,-0.16025 0.5060859,-0.23579 l 0.1748204,-0.13757 -0.132975,-0.21512 c -0.2004963,-0.32439 -0.1865095,-0.98898 0.027571,-1.30425 l 0.1604028,-0.23636 -0.2096582,-0.17721 c -0.5139005,-0.43439 -1.1325957,-0.52728 -1.4604837,-0.21913 -0.2274072,0.21368 -0.2594304,0.46381 -0.099516,0.77729 0.1568415,0.30739 0.1705411,0.62785 0.036877,0.86166 -0.2166659,0.37902 -0.093973,0.75586 0.2968785,0.91181 0.2271488,0.0908 0.321874,0.0873 0.7000971,-0.0258 z m 4.0821894,-0.0724 c 0.250584,-0.17548 0.28809,-0.37954 0.140901,-0.7668 -0.164711,-0.43336 -0.164222,-0.64317 0.0022,-0.9694 0.162384,-0.3183 0.121975,-0.52842 -0.144837,-0.75293 -0.34292,-0.28855 -0.9027325,-0.19759 -1.3839811,0.22517 l -0.2373732,0.20851 0.1600582,0.23579 c 0.2173551,0.32029 0.2307675,1.02931 0.024412,1.29161 -0.165515,0.21052 -0.1367372,0.26308 0.2550649,0.46719 0.3722062,0.19387 0.9513512,0.22374 1.1835432,0.0612 z m -1.8582199,-0.71278 c 0.1238706,-0.12378 0.1612069,-0.23033 0.1612069,-0.4597 0,-0.46162 -0.1394083,-0.56122 -0.7855141,-0.56122 -0.4532663,0 -0.5406392,0.0201 -0.6567265,0.1436 -0.1817708,0.19502 -0.1806794,0.63286 0.0022,0.86534 0.1253354,0.1594 0.1749066,0.17291 0.6268748,0.17291 0.4334953,0 0.5095753,-0.0201 0.6519618,-0.16112 z m -1.5134555,7.94518 c -1.0844778,-0.23751 -2.2218355,-1.04125 -2.8603219,-2.02127 -1.1678929,-1.79264 0.4562275,-4.02351 2.4813751,-3.40839 0.312198,0.0948 0.5488703,0.22029 0.7512852,0.39855 0.4282337,0.37696 0.5630755,0.3923 0.9088016,0.10338 1.0155032,-0.84841 2.3221154,-0.78078 3.1717194,0.16429 0.787694,0.87612 0.767816,2.03578 -0.05279,3.08027 -1.065229,1.3559 -2.8235274,2.0285 -4.400067,1.68322 z m 1.8902914,-0.47198 c 0.675225,-0.19846 1.234099,-0.54621 1.82449,-1.13553 0.697992,-0.69671 0.872766,-1.03272 0.872766,-1.67788 0,-0.57341 -0.179156,-0.97842 -0.594596,-1.34409 -0.713839,-0.62834 -1.7155565,-0.60108 -2.4769169,0.0675 -0.2386942,0.20966 -0.5763901,0.30283 -0.8490031,0.23436 -0.088544,-0.023 -0.2896383,-0.14849 -0.4468532,-0.28032 -0.4104989,-0.34467 -0.7472298,-0.48014 -1.19765,-0.4818 -0.5576244,-0.002 -0.8661721,0.11405 -1.2599674,0.47385 -0.4166911,0.38084 -0.5858967,0.76635 -0.5840643,1.3307 0.00196,0.60075 0.2431172,1.05616 0.9025234,1.70423 0.7089085,0.69673 1.5005485,1.1099 2.3786884,1.24144 0.3112791,0.0465 1.0559644,-0.0229 1.4305831,-0.13211 z m -1.2483385,-2.05888 c -0.2699133,-0.0609 -0.5434452,-0.23895 -0.5434452,-0.35397 0,-0.0489 0.045752,-0.12695 0.1016695,-0.17319 0.083547,-0.0692 0.1424813,-0.065 0.3305933,0.0258 0.2885441,0.13758 0.4239287,0.13729 0.7160799,-0.002 0.2149427,-0.10258 0.2417675,-0.10281 0.3395715,-0.006 0.1355597,0.13557 0.079009,0.28146 -0.1546588,0.3991 -0.2531405,0.12752 -0.5382784,0.16744 -0.7898077,0.11061 z M 6.146221,289.57744 c -0.1326015,-0.13269 -0.1325442,-0.44887 1.321e-4,-0.58153 0.056751,-0.0569 0.1247322,-0.10315 0.15104,-0.10315 0.2247362,0 0.2910083,0.60635 0.078665,0.71996 -0.095696,0.0512 -0.1520452,0.0425 -0.2298485,-0.0353 z m 3.981771,0.0258 c -0.161637,-0.1617 -0.06384,-0.70929 0.126657,-0.70929 0.11198,0 0.25426,0.22058 0.25426,0.39405 0,0.17347 -0.14228,0.39404 -0.25426,0.39404 -0.02642,0 -0.08332,-0.0356 -0.126657,-0.0787 z"
       id="path2822"
       inkscape:connector-curvature="0" />
    <path
       style="fill:#ffffff;stroke-width:0.00125367;stroke-miterlimit:4;stroke-dasharray:none"
       d="m 1.8054979,285.21778 c -0.1411889,-0.1973 -0.3318313,-0.5856 -0.3784472,-0.77073 -0.08036,-0.31912 0.063472,-0.5153 0.3776976,-0.5153 0.1843267,0 0.3548477,0.0517 0.7658493,0.23206 l 0.3277242,0.14388 -0.1618674,0.0812 c -0.3491382,0.17547 -0.5658758,0.41474 -0.6925925,0.76439 -0.036475,0.10086 -0.082227,0.18812 -0.1016695,0.19472 -0.01953,0.006 -0.080934,-0.0522 -0.1367085,-0.13011 z"
       id="path2826"
       inkscape:connector-curvature="0" />
    <path
       style="fill:#ffffff;stroke-width:0.00125367;stroke-miterlimit:4;stroke-dasharray:none"
       d="m 6.8037087,294.87601 c -0.6013309,-0.0428 -1.2723631,-0.12149 -1.8409212,-0.21598 -0.6147405,-0.102 -1.7993114,-0.36483 -2.0250585,-0.44921 -0.1996921,-0.0747 -0.3562636,-0.22947 -0.4137128,-0.40929 -0.059393,-0.18582 -0.024699,-0.72201 0.1140477,-1.75976 0.2560988,-1.91606 0.2956667,-2.51132 0.2187912,-3.29153 -0.081595,-0.8283 -0.1651129,-1.10344 -0.3349359,-1.10344 -0.045464,0 -0.063931,-0.0439 -0.087281,-0.20736 -0.028721,-0.20104 -0.026997,-0.20965 0.05971,-0.28146 0.04914,-0.0407 0.098165,-0.10946 0.1089647,-0.15221 0.010912,-0.0431 -0.017232,-0.36791 -0.062467,-0.72198 -0.090669,-0.71071 -0.099602,-0.90879 -0.047245,-1.04785 0.046096,-0.12235 0.2499239,-0.33227 0.3962997,-0.4079 0.1472202,-0.0761 2.0028692,-0.49814 2.1899789,-0.49814 0.051438,0 0.0577,0.0338 0.053764,0.29021 -0.00517,0.34438 0.063328,0.51921 0.2945696,0.75046 0.1712016,0.17117 0.3107304,0.2424 0.5696237,0.29025 0.4548402,0.0841 1.012163,-0.0707 1.5699282,-0.43635 0.2808269,-0.18409 0.4563825,-0.23119 0.8621426,-0.23119 0.2407334,0 0.2675294,0.008 0.4183856,0.11545 0.5625642,0.40312 0.9339232,0.54793 1.4050628,0.54793 0.688126,0 1.157404,-0.39367 1.179585,-0.98951 0.0046,-0.12177 0.0098,-0.24727 0.01149,-0.27915 0.002,-0.0353 0.02969,-0.0581 0.07123,-0.0581 0.105779,0 1.230334,0.22517 1.670116,0.33452 0.601004,0.14933 0.810567,0.26336 0.940099,0.51129 0.09903,0.18957 0.08036,0.3919 -0.310884,3.36976 l -0.124587,0.94832 0.189237,1.47306 c 0.335901,2.61477 0.345232,2.74977 0.204431,2.95698 -0.100604,0.14791 -0.432128,0.31518 -0.828726,0.41783 -0.76234,0.1973 -1.907473,0.39214 -2.869181,0.48821 -0.6391555,0.0638 -2.9218636,0.0934 -3.5823267,0.0462 z m 2.2617882,-2.52047 c 1.3157051,-0.26795 2.5409551,-1.16235 3.0978761,-2.26114 0.27583,-0.54422 0.338179,-1.18273 0.166836,-1.70845 -0.230078,-0.70592 -0.9196,-1.3533 -1.616257,-1.51753 -0.270717,-0.0638 -0.749146,-0.064 -1.0188921,-4.2e-4 -0.3068906,0.0724 -0.6483891,0.2421 -0.9588755,0.47701 -0.4262434,0.32229 -0.5076079,0.32252 -0.9042121,0.002 -0.4579076,-0.3696 -0.9220934,-0.53836 -1.492639,-0.54264 -0.3645466,-0.002 -0.5873499,0.0449 -0.9121648,0.19444 -0.8922931,0.41092 -1.4261889,1.38977 -1.2800083,2.34678 0.094116,0.61617 0.3683807,1.0929 0.9791663,1.702 0.4354425,0.43422 0.8113508,0.70976 1.3078986,0.95868 0.4872108,0.24412 0.8076832,0.33741 1.4806713,0.43058 0.1990602,0.0287 0.8369951,-0.0172 1.1506034,-0.0816 z"
       id="path2828"
       inkscape:connector-curvature="0" />
    <path
       style="fill:#ffffff;stroke-width:0.00125367;stroke-miterlimit:4;stroke-dasharray:none"
       d="m 7.5997804,291.94046 c -0.8631968,-0.18525 -1.7491629,-0.73734 -2.4048038,-1.49863 -0.4076213,-0.47328 -0.5712264,-0.81244 -0.6042605,-1.25264 -0.043023,-0.57337 0.1309071,-1.02183 0.548681,-1.41481 0.2658348,-0.25016 0.5161781,-0.39824 0.7725324,-0.45735 0.2553521,-0.0589 0.7606222,-0.0428 1.0024988,0.0319 0.2055223,0.0634 0.2972433,0.11833 0.8518004,0.51062 0.190875,0.13499 0.2613258,0.16572 0.4088419,0.17778 0.2615268,0.0229 0.4942186,-0.0606 0.7846667,-0.27772 0.4509114,-0.33692 0.8195391,-0.47785 1.2499757,-0.47785 0.660664,0 1.304872,0.41027 1.593545,1.01489 l 0.125162,0.26221 v 0.49755 0.49755 l -0.118844,0.24873 c -0.13487,0.28232 -0.323431,0.51845 -0.748858,0.93793 -0.728878,0.71873 -1.4450008,1.09477 -2.3154781,1.21586 -0.3441609,0.048 -0.8825627,0.0401 -1.1454538,-0.0172 z m 1.0558782,-2.1557 c 0.2112663,-0.0626 0.4035888,-0.22258 0.4035888,-0.33522 0,-0.0793 -0.1315102,-0.24383 -0.1950108,-0.24383 -0.017807,0 -0.148455,0.0465 -0.2905687,0.10339 -0.2845031,0.11405 -0.3458813,0.11141 -0.6919521,-0.0287 -0.1893815,-0.0764 -0.2808843,-0.0589 -0.3656838,0.0707 -0.068986,0.10545 -0.041013,0.19645 0.088544,0.28878 0.2670698,0.19014 0.6977449,0.2493 1.0510676,0.14447 z m 1.7085204,-0.14963 c 0.179043,-0.14073 0.195987,-0.46831 0.03418,-0.66062 -0.108189,-0.12867 -0.1957,-0.12781 -0.274911,0.002 -0.134927,0.222 -0.114307,0.56814 0.04032,0.67644 0.09093,0.0638 0.0969,0.0632 0.20041,-0.0172 z m -3.917047,-0.0713 c 0.084266,-0.0974 0.079613,-0.43862 -0.00804,-0.5822 -0.084983,-0.13929 -0.1670659,-0.1367 -0.295457,0.009 -0.088659,0.10109 -0.102934,0.14274 -0.102934,0.30108 0,0.15997 0.012924,0.19674 0.099258,0.28318 0.1107168,0.11061 0.2044597,0.10717 0.30706,-0.0115 z"
       id="path2830"
       inkscape:connector-curvature="0" />
    <path
       style="fill:#ffffff;stroke-width:0.00125367;stroke-miterlimit:4;stroke-dasharray:none"
       d="m 1.4553775,294.77802 c -0.1161448,-0.11604 -0.1303327,-0.14648 -0.1125836,-0.24039 0.043713,-0.23148 0.5238035,-1.08617 0.6101624,-1.08608 0.013498,2e-5 0.025849,0.0709 0.027284,0.15766 0.00402,0.22144 0.1650555,0.52036 0.4334493,0.8049 0.1209986,0.12837 0.2141384,0.23895 0.2069584,0.24613 -0.039806,0.0396 -0.3861556,0.15365 -0.6041282,0.19874 -0.3704457,0.0764 -0.4095542,0.0709 -0.5612776,-0.081 z"
       id="path2832"
       inkscape:connector-curvature="0" />
    <path
       style="fill:#ffffff;stroke-width:0.00125367;stroke-miterlimit:4;stroke-dasharray:none"
       d="m 14.300062,294.80671 c -0.347938,-0.10855 -0.350899,-0.1235 -0.07614,-0.38471 0.263278,-0.25016 0.394481,-0.47598 0.433282,-0.74561 l 0.02528,-0.17462 0.155836,0.23436 c 0.257105,0.38672 0.392463,0.77984 0.327429,0.9509 -0.07441,0.19587 -0.453814,0.24815 -0.865549,0.11977 z"
       id="path2834"
       inkscape:connector-curvature="0" />
    <path
       style="fill:#ffffff;stroke-width:0.00125367;stroke-miterlimit:4;stroke-dasharray:none"
       d="m 14.587988,285.08725 c -0.127345,-0.29964 -0.341929,-0.53337 -0.604909,-0.65887 -0.117553,-0.056 -0.213737,-0.11719 -0.213737,-0.13557 0,-0.0887 0.756874,-0.36158 0.99988,-0.36051 0.254174,10e-4 0.411843,0.19557 0.37592,0.46388 -0.02326,0.17347 -0.239528,0.63253 -0.373867,0.79348 l -0.09262,0.11084 z"
       id="path2836"
       inkscape:connector-curvature="0" />
    <path
       style="fill:#ffffff;stroke-width:0.00125367;stroke-miterlimit:4;stroke-dasharray:none"
       d="m 9.8822846,285.14343 c -0.2969649,-0.0818 -0.62402,-0.27314 -0.62402,-0.3649 0,-0.0229 0.043482,-0.12665 0.096644,-0.22775 0.1944363,-0.36962 0.167669,-0.91041 -0.063874,-1.2893 l -0.1275756,-0.20881 0.1220326,-0.10969 c 0.3370611,-0.30271 0.6943844,-0.47087 1.0005344,-0.47087 0.195011,0 0.470088,0.13354 0.58488,0.28404 0.133836,0.17548 0.137024,0.325 0.01292,0.61332 -0.139236,0.32371 -0.143027,0.54813 -0.0158,0.93034 0.159742,0.47963 0.118442,0.66284 -0.18427,0.81749 -0.169708,0.0867 -0.537577,0.0985 -0.8016,0.0258 z"
       id="path2838"
       inkscape:connector-curvature="0" />
    <path
       style="fill:#ffffff;stroke-width:0.00125367;stroke-miterlimit:4;stroke-dasharray:none"
       d="m 7.68352,284.41583 c -0.2645138,-0.28032 -0.2255116,-0.82474 0.069073,-0.96452 0.1310219,-0.0623 0.8665283,-0.0672 1.0381807,-0.006 0.1842407,0.0646 0.2489475,0.1841 0.2505271,0.46311 0.00156,0.27716 -0.064707,0.42452 -0.245817,0.54658 -0.10144,0.0684 -0.1490869,0.0747 -0.5581758,0.0747 H 7.7900464 Z"
       id="path2840"
       inkscape:connector-curvature="0" />
    <path
       style="fill:#ffffff;stroke-width:0.00125367;stroke-miterlimit:4;stroke-dasharray:none"
       d="m 6.0356565,285.20926 c -0.4153642,-0.1528 -0.5334907,-0.46039 -0.3469611,-0.90357 0.1195051,-0.28404 0.1160874,-0.50522 -0.012636,-0.82701 -0.1852171,-0.46259 -0.1076728,-0.73598 0.2617853,-0.92289 0.085213,-0.0432 0.1737864,-0.0541 0.3648654,-0.0449 0.3040185,0.0143 0.5767951,0.13097 0.8861297,0.37845 l 0.2025929,0.16198 -0.1100272,0.16658 c -0.267271,0.40447 -0.2784432,1.07147 -0.024412,1.45704 l 0.085385,0.12953 -0.07855,0.0623 c -0.1414761,0.11233 -0.4502048,0.2559 -0.6971992,0.32446 -0.2782708,0.077 -0.3621828,0.0799 -0.5308456,0.0172 z"
       id="path2842"
       inkscape:connector-curvature="0" />
  </g>
</svg>
