<?xml version="1.0" encoding="UTF-8" standalone="no"?>
<!-- Created with Inkscape (http://www.inkscape.org/) -->

<svg
   xmlns:dc="http://purl.org/dc/elements/1.1/"
   xmlns:cc="http://creativecommons.org/ns#"
   xmlns:rdf="http://www.w3.org/1999/02/22-rdf-syntax-ns#"
   xmlns:svg="http://www.w3.org/2000/svg"
   xmlns="http://www.w3.org/2000/svg"
   xmlns:sodipodi="http://sodipodi.sourceforge.net/DTD/sodipodi-0.dtd"
   xmlns:inkscape="http://www.inkscape.org/namespaces/inkscape"
   width="64"
   height="64"
   viewBox="0 0 16.933333 16.933334"
   version="1.1"
   id="svg8"
   inkscape:version="0.92.5 (2060ec1f9f, 2020-04-08)"
   sodipodi:docname="daily_64x64.svg">
  <defs
     id="defs2" />
  <sodipodi:namedview
     id="base"
     pagecolor="#ffffff"
     bordercolor="#666666"
     borderopacity="1.0"
     inkscape:pageopacity="0.0"
     inkscape:pageshadow="2"
     inkscape:zoom="7.919596"
     inkscape:cx="45.466191"
     inkscape:cy="37.112075"
     inkscape:document-units="mm"
     inkscape:current-layer="layer1"
     showgrid="false"
     units="px"
     inkscape:window-width="1208"
     inkscape:window-height="987"
     inkscape:window-x="1992"
     inkscape:window-y="0"
     inkscape:window-maximized="1" />
  <metadata
     id="metadata5">
    <rdf:RDF>
      <cc:Work
         rdf:about="">
        <dc:format>image/svg+xml</dc:format>
        <dc:type
           rdf:resource="http://purl.org/dc/dcmitype/StillImage" />
        <dc:title></dc:title>
      </cc:Work>
    </rdf:RDF>
  </metadata>
  <g
     inkscape:label="Layer 1"
     inkscape:groupmode="layer"
     id="layer1"
     transform="translate(0,-280.06665)">
    <path
       style="fill:#ffffff;stroke-width:0.3239595;stroke-miterlimit:4;stroke-dasharray:none"
       d=""
       id="path11271"
       inkscape:connector-curvature="0"
       transform="matrix(0.26458333,0,0,0.26458333,0,280.06665)" />
    <path
       style="fill:#000000;stroke-width:0.02956485"
       d="m 7.8449198,296.13357 c -1.139806,-0.10867 -2.280054,-0.4886 -3.248725,-1.08246 -0.986184,-0.6046 -1.937027,-1.56011 -2.523067,-2.53543 -1.60803094,-2.67619 -1.44227795,-5.96498 0.426531,-8.46302 0.494567,-0.66109 1.151602,-1.27874 1.864511,-1.75275 2.261975,-1.50396 5.1302921,-1.68078 7.5572922,-0.46586 1.226731,0.61409 2.351546,1.64725 3.071005,2.82079 1.360704,2.21948 1.478676,4.99365 0.311508,7.32526 -0.614083,1.22673 -1.647249,2.35155 -2.820781,3.07101 -1.373829,0.84225 -3.0514282,1.23376 -4.6382742,1.08246 z m 1.566938,-1.39756 c 0.6677522,-0.12235 1.1891572,-0.29453 1.7715612,-0.585 0.656228,-0.32728 1.175747,-0.70981 1.703741,-1.25449 0.379467,-0.39145 0.608904,-0.69021 0.651475,-0.84831 0.125105,-0.4646 -0.370907,-0.8487 -0.80566,-0.62388 -0.04449,0.023 -0.187272,0.1732 -0.317304,0.33376 -0.28491,0.35182 -0.691668,0.73666 -1.052533,0.99584 -0.323716,0.23249 -0.995092,0.57199 -1.3699071,0.69273 -1.2830161,0.41332 -2.6846721,0.31402 -3.8630721,-0.27366 -1.540907,-0.76846 -2.561955,-2.17546 -2.826336,-3.89467 -0.0497,-0.32322 -0.0497,-1.0959 0,-1.41912 0.107753,-0.70069 0.337673,-1.35118 0.679246,-1.92171 1.2342,-2.06149 3.729676,-2.99532 6.0053031,-2.24723 1.2823181,0.42155 2.3327391,1.31551 2.9531721,2.51331 0.185637,0.35839 0.337701,0.72993 0.314266,0.76784 -0.0077,0.0124 -0.114842,0.029 -0.238173,0.0369 -0.186274,0.012 -0.244967,0.029 -0.346655,0.10043 -0.171546,0.12056 -0.242757,0.25459 -0.241502,0.45454 5.58e-4,0.0953 0.02211,0.20258 0.05185,0.25862 0.02795,0.0527 0.246661,0.26555 0.486016,0.47304 0.239356,0.20749 0.530468,0.46648 0.646917,0.57553 0.223617,0.2094 0.298416,0.24471 0.513193,0.24227 0.24164,-0.003 0.319288,-0.0661 0.88708,-0.72318 0.292643,-0.33869 0.560351,-0.66371 0.594907,-0.72228 0.06285,-0.10652 0.07984,-0.30202 0.03819,-0.43944 -0.03674,-0.12123 -0.169314,-0.26298 -0.300023,-0.3208 -0.118569,-0.0524 -0.169627,-0.056 -0.520591,-0.0366 -0.214022,0.0118 -0.393963,0.023 -0.399871,0.0247 -0.0059,0.002 -0.06831,-0.16214 -0.138674,-0.36421 -0.780101,-2.24025 -2.716942,-3.82939 -5.0687822,-4.15883 -0.449885,-0.063 -1.269442,-0.0622 -1.699978,0.002 -0.43057,0.0639 -1.033813,0.22311 -1.404068,0.37062 -1.667851,0.66447 -2.991089,2.02385 -3.605452,3.70394 -0.398005,1.08843 -0.473849,2.39985 -0.205222,3.54857 0.193965,0.82944 0.582571,1.6462 1.125303,2.36513 0.237077,0.31404 0.857644,0.93378 1.174937,1.17336 0.85744,0.64744 1.792771,1.04493 2.855372,1.21344 0.452026,0.0717 1.528672,0.0646 1.951281,-0.0128 z m -0.872164,-4.6003 v -0.35478 l -0.716947,-7.8e-4 -0.716948,-7.9e-4 0.118259,-0.10624 c 0.696796,-0.62601 0.915052,-0.868 1.083042,-1.20078 0.300735,-0.59576 0.172966,-1.25853 -0.308627,-1.60093 -0.313785,-0.22309 -0.866396,-0.29759 -1.350929,-0.18213 -0.250827,0.0598 -0.704237,0.26433 -0.72901,0.32888 -0.01512,0.0394 0.175041,0.56214 0.222473,0.61158 0.0115,0.012 0.07363,-0.0141 0.13807,-0.058 0.369613,-0.25163 0.911356,-0.28642 1.146489,-0.0736 0.166653,0.15082 0.195367,0.45329 0.06919,0.72889 -0.13923,0.30412 -0.423833,0.61528 -1.298079,1.41919 l -0.347387,0.31944 v 0.26243 0.26243 h 1.345201 1.3452 v -0.35478 z m 2.9860502,-0.0887 v -0.44347 h 0.221737 0.221736 v -0.34 -0.33999 h -0.221736 -0.221737 v -1.10868 -1.10869 l -0.55434,4.5e-4 -0.554342,4.5e-4 -0.7169481,1.15568 -0.7169471,1.15568 v 0.29255 0.29256 h 0.8425981 0.8425991 v 0.44348 0.44347 h 0.42869 0.42869 z m -1.486067,-1.48563 c 0.123907,-0.19919 0.323563,-0.54843 0.443678,-0.77608 l 0.218391,-0.41391 -0.01669,0.36681 c -0.0092,0.20175 -0.01669,0.55098 -0.01669,0.77608 v 0.40927 H 10.241378 9.8143919 Z"
       id="path11652"
       inkscape:connector-curvature="0" />
    <path
       style="fill:#ffffff;stroke-width:0.00338627;stroke-miterlimit:4;stroke-dasharray:none"
       d="m 7.7968608,294.76635 c -1.0605,-0.0791 -2.256601,-0.54324 -3.14518,-1.22048 -0.303981,-0.23169 -0.748035,-0.65474 -1.022816,-0.97445 -0.596644,-0.69418 -1.098242,-1.68331 -1.310139,-2.58352 -0.14218,-0.60403 -0.190884,-1.46586 -0.119473,-2.11413 0.199355,-1.80976 1.215413,-3.4653 2.763435,-4.50268 0.760431,-0.50959 1.809123,-0.89937 2.684848,-0.9979 0.350514,-0.0394 1.075695,-0.039 1.442164,7.8e-4 1.3943912,0.15155 2.7570602,0.82438 3.7554962,1.85431 0.642798,0.66307 1.054984,1.32303 1.405558,2.25048 l 0.158046,0.41811 h 0.459084 c 0.456797,0 0.459632,4.4e-4 0.569047,0.0837 0.181808,0.13834 0.256572,0.34646 0.199972,0.55665 -0.03341,0.12406 -0.358728,0.53816 -0.877934,1.11753 -0.329193,0.36733 -0.431996,0.43725 -0.642673,0.43711 -0.220065,-1.1e-4 -0.26059,-0.0269 -0.879066,-0.58006 -0.756556,-0.67667 -0.768503,-0.69038 -0.785971,-0.90181 -0.01706,-0.20644 0.03852,-0.33298 0.205674,-0.46827 0.08344,-0.0675 0.153945,-0.0915 0.340304,-0.1158 0.129281,-0.0168 0.245786,-0.0406 0.258902,-0.0529 0.03482,-0.0325 -0.101979,-0.37566 -0.308489,-0.77378 -1.321305,-2.54728 -4.4407412,-3.51574 -6.9826482,-2.16784 -0.879684,0.46647 -1.714981,1.31813 -2.15905,2.20134 -0.625292,1.24364 -0.726889,2.63273 -0.289942,3.96423 0.877987,2.67545 3.813667,4.14265 6.5038912,3.25051 0.325975,-0.1081 0.968074,-0.42535 1.271166,-0.62806 0.315642,-0.21111 0.718941,-0.57712 1.051957,-0.95471 0.374454,-0.42458 0.395098,-0.4426 0.54571,-0.47644 0.16834,-0.0378 0.333908,0.0111 0.477978,0.14127 0.135707,0.1226 0.192544,0.26888 0.169945,0.43737 -0.04728,0.35251 -0.978482,1.32022 -1.755175,1.82398 -0.713193,0.46257 -1.719329,0.8462 -2.4744002,0.94345 -0.334209,0.043 -1.134867,0.06 -1.510221,0.032 z"
       id="path11654"
       inkscape:connector-curvature="0" />
    <path
       style="fill:#ffffff;stroke-width:0.00338627;stroke-miterlimit:4;stroke-dasharray:none"
       d="m 5.8705678,290.21728 v -0.24845 l 0.554511,-0.51637 c 0.904168,-0.84196 1.123632,-1.13799 1.14181,-1.54018 0.012,-0.26554 -0.04875,-0.38884 -0.24016,-0.4874 -0.104126,-0.0536 -0.182482,-0.0691 -0.346366,-0.0686 -0.265577,9e-4 -0.41822,0.0407 -0.652104,0.17045 l -0.184407,0.10227 -0.08952,-0.23214 c -0.151427,-0.39266 -0.153461,-0.37143 0.04576,-0.47757 0.538545,-0.28693 1.157146,-0.34494 1.662403,-0.1559 0.338273,0.12656 0.621751,0.49477 0.673286,0.87453 0.08014,0.59059 -0.192369,1.08959 -0.989811,1.81244 l -0.345942,0.31358 0.273757,0.0191 c 0.150566,0.0105 0.471985,0.0206 0.714265,0.0224 l 0.440509,0.003 v 0.32851 0.32852 h -1.328993 -1.328993 z"
       id="path11656"
       inkscape:connector-curvature="0" />
    <path
       style="fill:#ffffff;stroke-width:0.00338627;stroke-miterlimit:4;stroke-dasharray:none"
       d="m 10.678835,290.0327 v -0.43305 H 9.8426139 9.0063938 v -0.2955 -0.2955 l 0.7065101,-1.13802 0.7065101,-1.13802 h 0.54782 0.547821 v 1.10501 1.105 h 0.223987 0.223988 v 0.32852 0.32851 h -0.223988 -0.223987 v 0.43305 0.43304 h -0.41811 -0.41811 z m 0.01,-1.87172 c 0.01075,-0.42991 0.01581,-0.78538 0.01126,-0.78994 -0.0046,-0.005 -0.08847,0.14213 -0.186476,0.32599 -0.098,0.18385 -0.290304,0.52131 -0.427336,0.74989 -0.1370311,0.22859 -0.2560621,0.43364 -0.2645141,0.45566 -0.01241,0.0323 0.06761,0.04 0.4160801,0.04 h 0.431444 z"
       id="path11658"
       inkscape:connector-curvature="0" />
  </g>
</svg>
