<?xml version="1.0" encoding="UTF-8" standalone="no"?>
<!-- Created with Inkscape (http://www.inkscape.org/) -->

<svg
   xmlns:dc="http://purl.org/dc/elements/1.1/"
   xmlns:cc="http://creativecommons.org/ns#"
   xmlns:rdf="http://www.w3.org/1999/02/22-rdf-syntax-ns#"
   xmlns:svg="http://www.w3.org/2000/svg"
   xmlns="http://www.w3.org/2000/svg"
   xmlns:sodipodi="http://sodipodi.sourceforge.net/DTD/sodipodi-0.dtd"
   xmlns:inkscape="http://www.inkscape.org/namespaces/inkscape"
   width="64"
   height="64"
   viewBox="0 0 16.933333 16.933334"
   version="1.1"
   id="svg8"
   inkscape:version="0.92.5 (2060ec1f9f, 2020-04-08)"
   sodipodi:docname="day_64x64.svg">
  <defs
     id="defs2" />
  <sodipodi:namedview
     id="base"
     pagecolor="#ffffff"
     bordercolor="#666666"
     borderopacity="1.0"
     inkscape:pageopacity="0.0"
     inkscape:pageshadow="2"
     inkscape:zoom="3.959798"
     inkscape:cx="98.002303"
     inkscape:cy="57.388059"
     inkscape:document-units="mm"
     inkscape:current-layer="layer1"
     showgrid="false"
     units="px"
     inkscape:window-width="1208"
     inkscape:window-height="987"
     inkscape:window-x="1992"
     inkscape:window-y="0"
     inkscape:window-maximized="1" />
  <metadata
     id="metadata5">
    <rdf:RDF>
      <cc:Work
         rdf:about="">
        <dc:format>image/svg+xml</dc:format>
        <dc:type
           rdf:resource="http://purl.org/dc/dcmitype/StillImage" />
        <dc:title></dc:title>
      </cc:Work>
    </rdf:RDF>
  </metadata>
  <g
     inkscape:label="Layer 1"
     inkscape:groupmode="layer"
     id="layer1"
     transform="translate(0,-280.06665)">
    <path
       style="fill:#000000;stroke-width:0.03109608"
       d="m 8.2517461,296.54067 -0.1057269,-0.10573 v -1.10856 c 0,-1.20251 0.00509,-1.24189 0.1701606,-1.3171 0.1387338,-0.0632 0.2329107,-0.0445 0.3460347,0.0685 l 0.1057268,0.10572 v 1.12568 1.12567 l -0.1057268,0.10573 c -0.076185,0.0762 -0.1335307,0.10573 -0.2052338,0.10573 -0.071702,0 -0.129049,-0.0295 -0.2052346,-0.10573 z m -2.4449247,-1.5582 c -0.2031203,-0.11392 -0.1956139,-0.23723 0.05041,-0.82807 0.2167782,-0.52062 0.2787401,-0.59896 0.4738066,-0.59896 0.088391,0 0.1325267,0.0223 0.2054301,0.10393 0.07699,0.0861 0.09016,0.12308 0.077083,0.21611 -0.021181,0.1507 -0.3765289,0.99331 -0.4498027,1.06658 -0.079639,0.0797 -0.2521374,0.0992 -0.3569215,0.0404 z m 5.0230476,0.0155 c -0.03748,-0.0151 -0.08974,-0.0604 -0.116141,-0.10069 -0.08827,-0.13471 -0.422079,-0.97042 -0.422079,-1.0567 0,-0.13454 0.153848,-0.28517 0.291274,-0.28517 0.195068,0 0.25703,0.0784 0.473809,0.59896 0.247819,0.59516 0.254417,0.71924 0.04404,0.82804 -0.101208,0.0523 -0.169833,0.0563 -0.2709,0.0156 z M 3.0470342,294.2286 c -0.1529806,-0.077 -0.2128753,-0.23995 -0.1426032,-0.38804 0.07173,-0.15116 1.4097345,-1.4711 1.517572,-1.49706 0.2089189,-0.0503 0.427579,0.16833 0.3772541,0.37725 -0.02533,0.10517 -1.3440661,1.44496 -1.4907703,1.51458 -0.1254945,0.0596 -0.1299381,0.0595 -0.2614526,-0.006 z m 10.5531848,0.006 c -0.147614,-0.074 -1.461095,-1.41268 -1.485516,-1.51405 -0.01218,-0.0506 -0.0018,-0.1301 0.02552,-0.19547 0.05416,-0.12963 0.217597,-0.2141 0.351738,-0.18178 0.106974,0.0258 1.445554,1.3453 1.516602,1.49502 0.121262,0.25554 -0.154709,0.52337 -0.408342,0.39628 z m -5.5474876,-1.52569 c -1.4087981,-0.17655 -2.5845902,-0.98983 -3.2023965,-2.21507 -0.6621446,-1.31316 -0.5557315,-2.848 0.284496,-4.10338 0.2040196,-0.30483 0.7193878,-0.82114 1.021287,-1.02316 1.6245075,-1.08706 3.6710231,-0.92907 5.0752631,0.39181 0.608299,0.57219 1.061855,1.41302 1.209554,2.24234 0.05341,0.29989 0.05349,1.06771 1.29e-4,1.36823 -0.0656,0.36954 -0.244856,0.89219 -0.344101,1.00326 -0.106059,0.1187 -0.265824,0.13225 -0.397769,0.0337 -0.148275,-0.1107 -0.153922,-0.213 -0.03089,-0.55948 0.642144,-1.80837 -0.287805,-3.75966 -2.0918633,-4.38932 -1.7823225,-0.62209 -3.7238235,0.32378 -4.3513173,2.11989 -0.1849271,0.52933 -0.233521,1.11562 -0.1384013,1.66982 0.12357,0.71998 0.4461731,1.34126 0.9633057,1.85519 0.9486364,0.94277 2.3018918,1.24391 3.5685822,0.79412 0.2438225,-0.0866 0.3258271,-0.10328 0.401085,-0.0817 0.223987,0.0643 0.294772,0.35835 0.123151,0.51169 -0.103404,0.0924 -0.5534948,0.25261 -0.9091651,0.32362 -0.2344777,0.0469 -0.9794104,0.0836 -1.1809479,0.0583 z m 2.8421816,-1.17494 c -0.116346,-0.11635 -0.133625,-0.21657 -0.06141,-0.3562 0.04914,-0.095 0.165586,-0.15999 0.286771,-0.15999 0.117824,0 0.290839,0.18498 0.290839,0.31095 0,0.0717 -0.02954,0.12906 -0.105726,0.20524 -0.07619,0.0762 -0.133531,0.10573 -0.205235,0.10573 -0.0717,0 -0.129049,-0.0295 -0.205233,-0.10573 z m -8.6338268,-0.0833 c -0.071091,-0.0414 -0.1477053,-0.19165 -0.1477053,-0.28964 0,-0.0427 0.03148,-0.11338 0.069961,-0.15718 0.08276,-0.0942 0.9805375,-0.48357 1.1149119,-0.48357 0.1385736,0 0.2890758,0.15165 0.2890758,0.29127 0,0.19507 -0.078324,0.25703 -0.5989472,0.47381 -0.4680126,0.19487 -0.6180073,0.22896 -0.7273008,0.16531 z m 11.6532558,-0.167 c -0.508358,-0.2143 -0.587716,-0.27799 -0.587716,-0.47164 0,-0.13997 0.150484,-0.29127 0.289701,-0.29127 0.103457,0 1.006069,0.37406 1.093468,0.45316 0.08507,0.077 0.106117,0.23549 0.04658,0.35063 -0.111838,0.21628 -0.247668,0.20968 -0.842024,-0.0408 z m -5.908255,-0.47072 c -0.11972,-0.0246 -0.3498336,-0.10941 -0.5113635,-0.1884 -0.2429686,-0.1188 -0.3402416,-0.18984 -0.5632305,-0.41133 -0.2271778,-0.22566 -0.2920663,-0.31417 -0.4128708,-0.56315 -0.2032463,-0.4189 -0.2919135,-0.90572 -0.2012171,-1.10478 0.020431,-0.0448 0.075712,-0.10147 0.1228402,-0.12585 0.1396395,-0.0722 0.2398586,-0.0549 0.3562046,0.0614 0.085437,0.0855 0.105726,0.12991 0.105726,0.2317 0,0.81203 0.728715,1.52835 1.5548048,1.52835 0.8158116,0 1.5548033,-0.71685 1.5548033,-1.50823 0,-0.14623 0.05849,-0.26073 0.15999,-0.31323 0.13964,-0.0722 0.239859,-0.0549 0.356205,0.0614 0.08987,0.0898 0.105727,0.12739 0.105727,0.25009 0,0.26563 -0.09064,0.61468 -0.238677,0.91914 -0.120079,0.24695 -0.187522,0.33929 -0.41115,0.56292 -0.223627,0.22362 -0.3159655,0.29107 -0.5629202,0.41115 -0.4693972,0.22823 -0.9267368,0.28926 -1.4148718,0.1888 z m -7.4039756,-1.92162 c -0.11634605,-0.11635 -0.13362513,-0.21657 -0.0614127,-0.3562 0.0799819,-0.15467 0.12370334,-0.16 1.3129393,-0.16 h 1.1055578 l 0.1057269,0.10572 c 0.1434589,0.14346 0.1434589,0.26702 0,0.41048 l -0.1057269,0.10572 H 1.8335175 0.70783919 Z m 13.2469296,0 c -0.116347,-0.11635 -0.133626,-0.21657 -0.06141,-0.3562 0.07998,-0.15467 0.123703,-0.16 1.31294,-0.16 h 1.105558 l 0.105727,0.10572 c 0.07618,0.0762 0.105726,0.13354 0.105726,0.20525 0,0.0717 -0.02954,0.12905 -0.105726,0.20523 l -0.105727,0.10572 h -1.125678 -1.125679 z m -6.5301767,-1.86577 c -0.1163461,-0.11634 -0.1336252,-0.21657 -0.061413,-0.3562 0.049141,-0.095 0.1655855,-0.15999 0.2867697,-0.15999 0.1178242,0 0.2908401,0.18499 0.2908401,0.31096 0,0.13827 -0.1726927,0.31096 -0.3109606,0.31096 -0.071702,0 -0.1290481,-0.0295 -0.2052337,-0.10573 z m 1.8657645,0 c -0.116346,-0.11634 -0.1336251,-0.21657 -0.061413,-0.3562 0.049141,-0.095 0.1655846,-0.15999 0.2867688,-0.15999 0.1178242,0 0.2908401,0.18499 0.2908401,0.31096 0,0.0717 -0.029544,0.12905 -0.1057259,0.20523 -0.076185,0.0762 -0.1335307,0.10573 -0.2052347,0.10573 -0.071702,0 -0.1290481,-0.0295 -0.2052337,-0.10573 z m -6.2161067,-0.27858 c -0.1368222,-0.0569 -0.3572326,-0.14884 -0.489801,-0.20447 -0.2957209,-0.12413 -0.3781275,-0.2149 -0.3546765,-0.3907 0.020773,-0.1557 0.1371074,-0.26436 0.2830252,-0.26436 0.1576948,0 1.0455594,0.37981 1.119627,0.47895 0.096141,0.1287 0.080213,0.28884 -0.039361,0.39568 -0.1287499,0.11504 -0.2112231,0.11263 -0.5188137,-0.0151 z m 10.4620219,0.0186 c -0.08159,-0.0729 -0.103918,-0.11704 -0.103918,-0.20543 0,-0.1954 0.07806,-0.25692 0.601213,-0.47376 0.60165,-0.2494 0.716857,-0.25471 0.828801,-0.0383 0.05662,0.1095 0.04055,0.25466 -0.03778,0.34122 -0.0634,0.07 -0.922729,0.43395 -1.072085,0.45398 -0.09268,0.0124 -0.130486,-0.002 -0.216235,-0.0778 z m -9.065861,-1.76601 c -0.1476127,-0.0739 -1.4610938,-1.41267 -1.4855144,-1.51405 -0.050327,-0.20892 0.1683352,-0.42758 0.377255,-0.37725 0.1069743,0.0257 1.445554,1.34531 1.5166013,1.49503 0.1212611,0.25554 -0.1547088,0.52335 -0.4083419,0.39627 z m 7.917886,-0.006 c -0.15298,-0.077 -0.212875,-0.23994 -0.142603,-0.38802 0.07174,-0.15118 1.409734,-1.4711 1.517572,-1.49708 0.208919,-0.0503 0.427579,0.16834 0.377254,0.37725 -0.02533,0.10517 -1.344067,1.44497 -1.49077,1.51459 -0.125495,0.0596 -0.129939,0.0595 -0.261453,-0.006 z M 6.202502,283.7929 c -0.1295667,-0.0574 -0.1379632,-0.0715 -0.3528983,-0.59047 -0.2397771,-0.57896 -0.2454108,-0.70471 -0.036416,-0.81278 0.2501444,-0.12936 0.353642,-0.0349 0.5958687,0.54386 0.2369867,0.56623 0.250036,0.64298 0.1312403,0.77188 -0.1069077,0.116 -0.212089,0.14324 -0.3377975,0.0875 z m 4.287792,0.0126 c -0.09732,-0.0403 -0.198645,-0.18429 -0.198645,-0.28227 0,-0.10074 0.375647,-1.0041 0.453158,-1.08975 0.07698,-0.0851 0.235492,-0.10612 0.35064,-0.0466 0.113373,0.0586 0.16018,0.13496 0.16018,0.26124 0,0.14064 -0.383725,1.03704 -0.470986,1.10024 -0.09476,0.0686 -0.211742,0.0913 -0.294347,0.0571 z M 8.2517461,283.29423 8.1460192,283.1885 v -1.10856 c 0,-1.20251 0.00509,-1.24189 0.1701606,-1.3171 0.1387338,-0.0633 0.2329107,-0.0446 0.3460347,0.0685 l 0.1057268,0.10573 v 1.12568 1.12567 l -0.1057268,0.10573 c -0.076185,0.0762 -0.1335307,0.10573 -0.2052338,0.10573 -0.071702,0 -0.129049,-0.0296 -0.2052346,-0.10573 z"
       id="path6669"
       inkscape:connector-curvature="0" />
    <path
       style="fill:none;stroke:#000000;stroke-width:0.00424231;stroke-linecap:butt;stroke-linejoin:miter;stroke-miterlimit:4;stroke-dasharray:none;stroke-opacity:1"
       d="m 11.801315,290.28685 -0.651958,1.06298 -1.2047039,0.7937"
       id="path6671"
       inkscape:connector-curvature="0" />
    <path
       style="fill:#ffffff;stroke-width:0.00107135;stroke-miterlimit:4;stroke-dasharray:none"
       d="M 8.1213023,292.08087 C 7.4564829,292.01067 6.8325011,291.75204 6.3164447,291.33272 6.176733,291.2192 5.9154943,290.95627 5.7982462,290.81117 5.4024109,290.32131 5.1506059,289.721 5.0674548,289.06895 c -0.024598,-0.19288 -0.020922,-0.6073 0.00722,-0.81978 0.11671,-0.87957 0.5924883,-1.70961 1.291788,-2.25365 0.3640084,-0.28319 0.8016369,-0.4982 1.2438499,-0.61109 0.3339503,-0.0853 0.4580611,-0.0997 0.85241,-0.0993 0.3057871,3.5e-4 0.3792406,0.005 0.5362083,0.0329 0.5822183,0.10395 1.079279,0.32004 1.546594,0.67237 0.163408,0.12321 0.508304,0.47378 0.637384,0.64788 0.364722,0.49192 0.587322,1.05299 0.660715,1.66532 0.0084,0.0702 0.01509,0.24236 0.01485,0.38267 -7.01e-4,0.41407 -0.05105,0.71292 -0.193037,1.14625 -0.09483,0.2894 -0.106944,0.37432 -0.06647,0.4658 0.01583,0.0358 0.04532,0.0759 0.06554,0.0891 0.02022,0.0132 0.03676,0.0289 0.03676,0.0347 0,0.009 -0.387757,0.64782 -0.401883,0.66196 -0.0028,0.003 -0.03309,-0.0109 -0.06734,-0.0306 -0.18079,-0.10333 -0.407215,0.0201 -0.44418,0.24219 -0.01034,0.0621 0.01473,0.14405 0.05907,0.19306 0.03036,0.0335 0.04592,0.0208 -0.324221,0.26432 l -0.30691,0.20188 -0.06159,-0.0615 c -0.07226,-0.0721 -0.156762,-0.10294 -0.2437372,-0.0888 -0.032332,0.006 -0.1666589,0.0444 -0.2984965,0.0869 -0.447906,0.1445 -0.6929584,0.18817 -1.0996417,0.19599 -0.1520054,0.003 -0.3279905,-1.7e-4 -0.3910786,-0.006 z m 0.6320189,-1.23982 c 0.2424148,-0.0371 0.4299054,-0.0972 0.6870524,-0.22007 0.2078677,-0.0994 0.3290713,-0.18996 0.5470998,-0.40902 0.2340196,-0.23512 0.2934236,-0.31608 0.4107766,-0.55978 0.14307,-0.29712 0.219395,-0.57157 0.23535,-0.8463 0.01105,-0.19024 -0.0015,-0.22879 -0.106816,-0.32929 -0.101973,-0.0973 -0.172063,-0.12254 -0.26881,-0.0969 -0.176777,0.0468 -0.238512,0.14621 -0.257728,0.41507 -0.014957,0.20925 -0.058477,0.37132 -0.1470961,0.54776 -0.2931378,0.58368 -0.9424387,0.95365 -1.546952,0.88148 -0.7423099,-0.0886 -1.3522348,-0.71368 -1.3898437,-1.4243 -0.00408,-0.078 -0.01706,-0.1686 -0.028738,-0.20143 -0.02545,-0.0715 -0.1511877,-0.19238 -0.2257812,-0.21699 -0.1205637,-0.0398 -0.2830327,0.0369 -0.3462699,0.1633 -0.031526,0.0631 -0.03536,0.0881 -0.034786,0.22677 0.00111,0.27028 0.087558,0.58334 0.2543472,0.92125 0.1066085,0.21598 0.2066387,0.34725 0.4244504,0.55703 0.2006364,0.19323 0.2895074,0.25662 0.5189126,0.37015 0.229595,0.11362 0.4535073,0.19047 0.6370442,0.21863 0.1770391,0.0271 0.4697269,0.0284 0.6377851,0.003 z M 7.623729,287.11108 c 0.1536224,-0.0788 0.2411737,-0.22333 0.2085854,-0.34435 -0.022922,-0.0851 -0.1140121,-0.19048 -0.2018468,-0.23346 -0.065534,-0.032 -0.084455,-0.0354 -0.141326,-0.0247 -0.1817467,0.034 -0.3057307,0.19729 -0.2748234,0.36204 0.01217,0.0648 0.091429,0.1654 0.1729891,0.21944 0.077389,0.0512 0.1627431,0.0589 0.2364217,0.0211 z m 1.8957022,-0.0172 c 0.1627292,-0.10466 0.2229629,-0.25172 0.1564759,-0.38204 -0.036861,-0.0722 -0.1567741,-0.1815 -0.2176663,-0.19832 -0.066692,-0.0184 -0.1724732,0.003 -0.2401541,0.0471 -0.1285878,0.0851 -0.1771817,0.25816 -0.1062251,0.37832 0.1067197,0.18071 0.2705816,0.24299 0.4075696,0.1549 z"
       id="path6673"
       inkscape:connector-curvature="0" />
  </g>
</svg>
