<?xml version="1.0" encoding="UTF-8" standalone="no"?>
<!-- Created with Inkscape (http://www.inkscape.org/) -->

<svg
   xmlns:dc="http://purl.org/dc/elements/1.1/"
   xmlns:cc="http://creativecommons.org/ns#"
   xmlns:rdf="http://www.w3.org/1999/02/22-rdf-syntax-ns#"
   xmlns:svg="http://www.w3.org/2000/svg"
   xmlns="http://www.w3.org/2000/svg"
   xmlns:sodipodi="http://sodipodi.sourceforge.net/DTD/sodipodi-0.dtd"
   xmlns:inkscape="http://www.inkscape.org/namespaces/inkscape"
   width="64"
   height="64"
   viewBox="0 0 16.933333 16.933333"
   version="1.1"
   id="svg8"
   inkscape:version="0.92.5 (2060ec1f9f, 2020-04-08)"
   sodipodi:docname="denture_care_64x64.svg">
  <defs
     id="defs2" />
  <sodipodi:namedview
     id="base"
     pagecolor="#ffffff"
     bordercolor="#666666"
     borderopacity="1.0"
     inkscape:pageopacity="0.0"
     inkscape:pageshadow="2"
     inkscape:zoom="0.98994949"
     inkscape:cx="142.22564"
     inkscape:cy="-78.711823"
     inkscape:document-units="mm"
     inkscape:current-layer="layer1"
     showgrid="false"
     units="px"
     inkscape:window-width="1208"
     inkscape:window-height="987"
     inkscape:window-x="1992"
     inkscape:window-y="0"
     inkscape:window-maximized="1" />
  <metadata
     id="metadata5">
    <rdf:RDF>
      <cc:Work
         rdf:about="">
        <dc:format>image/svg+xml</dc:format>
        <dc:type
           rdf:resource="http://purl.org/dc/dcmitype/StillImage" />
        <dc:title></dc:title>
      </cc:Work>
    </rdf:RDF>
  </metadata>
  <g
     inkscape:label="Layer 1"
     inkscape:groupmode="layer"
     id="layer1"
     transform="translate(0,-280.06667)">
    <path
       style="fill:#000000;stroke-width:0.03145954"
       d="m 4.1699936,296.53208 c -0.3150061,-0.10936 -0.5152465,-0.3327 -0.5806389,-0.64755 -0.027248,-0.13117 -0.2735834,-7.23851 -0.2873929,-8.2917 -0.00353,-0.27186 0.00205,-0.30198 0.066228,-0.35394 0.038571,-0.0312 0.1110281,-0.0568 0.1610219,-0.0568 0.1430724,0 0.2085991,0.0916 0.2286982,0.31966 0.00967,0.1097 0.06159,1.62928 0.115383,3.37685 0.1073108,3.4861 0.086076,3.24063 0.2937406,3.39568 0.086747,0.0648 0.093249,0.0649 4.3607608,0.0649 4.2675157,0 4.2740137,-9e-5 4.3607617,-0.0649 0.20952,-0.15643 0.180057,0.28031 0.355356,-5.26753 0.08775,-2.77709 0.167606,-5.17046 0.177456,-5.31859 l 0.01791,-0.26933 -0.232916,-0.0361 c -0.230976,-0.0359 -0.406795,-0.0885 -1.013531,-0.30255 -0.38528,-0.13599 -0.797279,-0.19121 -1.226922,-0.16446 -0.389819,0.0242 -0.590402,0.0713 -1.0762453,0.25201 -0.504134,0.18758 -0.8330193,0.24731 -1.3618699,0.24731 -0.5288501,0 -0.8577351,-0.0597 -1.3618696,-0.24731 -0.4858439,-0.18077 -0.6864253,-0.22773 -1.0762455,-0.25201 -0.4312279,-0.0269 -0.8418225,0.0285 -1.2269216,0.16524 -0.5802513,0.20612 -0.7792606,0.26534 -1.0143712,0.30191 l -0.2337557,0.0363 0.017949,0.23776 c 0.00989,0.13075 0.034296,0.79066 0.054281,1.46646 0.028191,0.95313 0.027874,1.24452 -0.00136,1.29921 -0.080005,0.14949 -0.2967086,0.14844 -0.3900065,-0.002 -0.035967,-0.058 -0.061829,-0.60688 -0.131159,-2.78464 -0.047494,-1.49187 -0.077448,-2.75995 -0.066558,-2.81799 0.019825,-0.10571 0.1318923,-0.23525 0.2607563,-0.30144 0.049972,-0.0257 1.4603305,-0.0353 5.1687928,-0.0353 5.5299452,0 5.1769752,-0.0114 5.3452842,0.16901 0.05091,0.0544 0.07979,0.12937 0.08913,0.23107 0.0076,0.0828 -0.09415,3.47023 -0.226115,7.52772 -0.189004,5.81111 -0.249725,7.41188 -0.286025,7.54034 -0.06578,0.23278 -0.21753,0.416 -0.4379,0.52872 l -0.185172,0.0947 -4.2492749,0.006 c -3.9703723,0.006 -4.2596408,0.003 -4.4072284,-0.0477 z m 8.6352074,-0.47339 c 0.180536,-0.0969 0.213012,-0.20563 0.237457,-0.79556 l 0.02168,-0.52316 -0.167337,0.0434 c -0.138277,0.0359 -0.896813,0.0434 -4.3681942,0.0426 -2.310472,-3.7e-4 -4.2504069,-0.013 -4.3109669,-0.0278 -0.060556,-0.0149 -0.1364838,-0.0379 -0.1687201,-0.0512 -0.056315,-0.0232 -0.057748,-0.003 -0.036559,0.50759 0.024849,0.59912 0.056747,0.70694 0.2378332,0.80407 0.1033776,0.0555 0.287627,0.058 4.2774017,0.058 3.9897753,0 4.1740243,-0.002 4.2774013,-0.058 z M 9.2317203,282.88305 c 0.121446,-0.0276 0.3691102,-0.10593 0.5503627,-0.174 0.567099,-0.21301 0.800455,-0.25668 1.372589,-0.25678 0.597002,-1.2e-4 0.814435,0.0403 1.424341,0.26467 0.392597,0.14444 0.807189,0.24644 0.84558,0.20805 0.01766,-0.0176 0.06976,-1.251 0.07236,-1.71233 l 0.0015,-0.25953 H 8.5239657 3.5495064 l 0.020189,0.74716 c 0.01114,0.41093 0.028567,0.85798 0.03881,0.99344 l 0.01862,0.24628 0.1616698,-0.0206 c 0.088917,-0.0114 0.3244719,-0.0776 0.5234539,-0.14737 0.8882311,-0.31129 1.2978082,-0.3785 1.9245044,-0.31578 0.3969965,0.0396 0.606938,0.0925 1.2074057,0.30351 0.225863,0.0794 0.5160773,0.15748 0.6449208,0.17356 0.3039715,0.0379 0.8626913,0.0134 1.1426698,-0.0503 z m -3.7891797,10.07606 c -0.4825667,-0.13011 -0.7776361,-0.51522 -0.8078116,-1.0543 -0.018382,-0.32851 0.023088,-0.50004 0.1580811,-0.65378 0.113256,-0.129 0.2237316,-0.1835 0.4362251,-0.21519 l 0.1460553,-0.0219 0.0123,-0.2176 c 0.011026,-0.1954 0.022667,-0.22798 0.1140006,-0.31939 l 0.1017066,-0.10188 0.4320545,-0.01 c 0.3580748,-0.006 0.4514875,-0.0192 0.5455572,-0.0702 0.1095047,-0.0593 0.1795761,-0.0613 1.9865264,-0.0542 1.7004212,0.006 1.8783982,0.0122 1.9313652,0.06 0.04749,0.0428 0.141745,0.0546 0.506129,0.063 l 0.447782,0.0107 0.101708,0.10187 c 0.09133,0.0914 0.102955,0.124 0.114001,0.31941 l 0.0123,0.2176 0.146057,0.0218 c 0.212494,0.0318 0.322968,0.0862 0.436224,0.21519 0.135648,0.15451 0.176488,0.32498 0.157799,0.65873 -0.02646,0.47255 -0.243509,0.80479 -0.648678,0.99295 -0.160941,0.0748 -0.21968,0.0832 -0.654674,0.0941 l -0.477871,0.0119 -0.08054,-0.0806 c -0.108425,-0.10846 -0.107447,-0.24643 0.0023,-0.33279 0.07435,-0.0585 0.125676,-0.0652 0.498404,-0.0652 0.374265,0 0.429277,-0.006 0.554164,-0.0732 0.07626,-0.0403 0.180108,-0.13206 0.230779,-0.20399 0.07981,-0.11334 0.09398,-0.16602 0.10596,-0.39431 0.01304,-0.24836 0.0096,-0.26647 -0.05981,-0.3151 -0.133683,-0.0937 -0.196398,-0.0679 -0.258257,0.10646 -0.06876,0.1936 -0.209503,0.35893 -0.380401,0.44689 -0.180005,0.0926 -0.460357,0.0932 -0.648001,0.001 l -0.141673,-0.0694 -0.185222,0.0935 c -0.232938,0.1175 -0.4126113,0.12197 -0.6403836,0.0159 l -0.1651631,-0.0768 -0.165162,0.0768 c -0.098148,0.0457 -0.2226081,0.0768 -0.3067311,0.0768 -0.084121,0 -0.2085864,-0.0311 -0.3067304,-0.0768 l -0.165162,-0.0768 -0.1651631,0.0768 c -0.098148,0.0457 -0.2226075,0.0768 -0.3067305,0.0768 -0.084121,0 -0.2085876,-0.0311 -0.3067304,-0.0768 l -0.1651632,-0.0768 -0.165162,0.0768 c -0.2487473,0.11581 -0.5063568,0.0959 -0.7241251,-0.0557 -0.08661,-0.0603 -0.08785,-0.0602 -0.2359473,0.0123 -0.1957819,0.0958 -0.4720811,0.0964 -0.6567147,10e-4 -0.1715552,-0.0883 -0.3403003,-0.28941 -0.3891291,-0.4638 -0.043879,-0.15672 -0.1147077,-0.18205 -0.248022,-0.0887 -0.0694,0.0487 -0.072844,0.0667 -0.059806,0.3151 0.011981,0.22829 0.026145,0.28099 0.1059587,0.39431 0.050665,0.0719 0.1545206,0.16373 0.2307783,0.20399 l 0.1386516,0.0732 h 2.0521666 c 1.9581931,0 2.0554964,0.002 2.1248631,0.0589 0.101015,0.0817 0.101015,0.27236 0,0.35417 -0.069418,0.0562 -0.1648562,0.0587 -2.1219461,0.0567 -1.5192049,-0.001 -2.0864425,-0.0122 -2.1930417,-0.0409 z m 1.7941763,-1.24615 c 0.094579,-0.0506 0.1270792,-0.20888 0.1270792,-0.61883 v -0.38854 h -0.253997 -0.253998 l 0.010231,0.45901 c 0.00977,0.43846 0.013505,0.4617 0.08445,0.51908 0.081165,0.0657 0.1963128,0.0774 0.2862754,0.0293 z m 0.943786,0 c 0.094579,-0.0506 0.1270792,-0.20888 0.1270792,-0.61883 v -0.38854 H 8.0559064 7.8042296 v 0.39119 c 0,0.40086 0.026646,0.53863 0.1175371,0.60765 0.062022,0.0471 0.1794421,0.0509 0.2587362,0.007 z m 0.943787,0 c 0.094578,-0.0506 0.1270792,-0.20888 0.1270792,-0.61883 v -0.38854 H 8.9996927 8.7480156 v 0.39119 c 0,0.40086 0.026646,0.53863 0.1175383,0.60765 0.062022,0.0471 0.1794405,0.0509 0.258736,0.007 z m 0.9278891,0.0114 c 0.110049,-0.0423 0.142976,-0.18224 0.142976,-0.60808 v -0.41054 H 9.9434779 9.6918026 v 0.39119 c 0,0.40087 0.026642,0.53863 0.1175371,0.60765 0.055937,0.0425 0.1613213,0.051 0.2428393,0.0198 z m -3.8109937,-0.0485 c 0.1293573,-0.0689 0.1453243,-0.1224 0.1463644,-0.49036 l 0.00102,-0.35392 H 6.1211688 5.8537626 v 0.33905 c 0,0.36205 0.03067,0.45499 0.1685291,0.51062 0.094044,0.0379 0.1396302,0.0369 0.2189186,-0.005 z m 4.8898917,-0.0752 c 0.0642,-0.073 0.07078,-0.11254 0.07078,-0.42474 v -0.3443 H 10.93445 10.667045 l 10e-4,0.35392 c 6.48e-4,0.22873 0.01457,0.37142 0.03932,0.40339 0.110937,0.14322 0.303316,0.14853 0.423703,0.0117 z m -3.8787364,-1.74498 c -0.106947,-0.0546 -0.2010406,-0.0617 -0.9083847,-0.0696 -0.8935023,-0.0106 -0.9415261,-0.0212 -1.1581677,-0.27444 -0.1357631,-0.1586 -0.1814587,-0.30864 -0.1814587,-0.59578 v -0.22537 l -0.168827,-0.19911 c -0.3169818,-0.37365 -0.4603633,-0.77332 -0.4603633,-1.2832 0,-0.29708 0.00307,-0.31038 0.095693,-0.4159 0.1378023,-0.15694 0.2161119,-0.16261 0.6628863,-0.048 0.3984141,0.10219 0.9156555,0.15267 1.1376264,0.11106 0.061396,-0.0116 0.1955273,-0.0905 0.3094132,-0.18208 0.3209388,-0.25821 0.4856449,-0.32041 0.8873352,-0.33509 0.3200101,-0.0117 0.3448041,-0.007 0.41684,0.0596 0.091964,0.0864 0.099422,0.21458 0.01829,0.31477 -0.051678,0.0637 -0.096148,0.0744 -0.3917697,0.0932 -0.3619693,0.0231 -0.3618431,0.0231 -0.7072531,0.28715 -0.2828448,0.21623 -0.4560392,0.25958 -0.9495119,0.23758 -0.3424431,-0.0152 -0.6321198,-0.066 -0.9526085,-0.16661 -0.1367496,-0.0429 -0.023054,0.59132 0.1518937,0.84738 l 0.082769,0.12116 0.1146839,-0.11175 c 0.063079,-0.0615 0.1673173,-0.13365 0.2316458,-0.16046 0.223269,-0.093 0.5950907,-0.0457 0.751212,0.0956 0.047244,0.0427 0.064295,0.0395 0.1694783,-0.0319 0.2285049,-0.15506 0.562137,-0.15186 0.7883491,0.007 0.086564,0.0611 0.1458868,0.0849 0.1587915,0.0641 0.011368,-0.0183 0.093181,-0.0671 0.1819054,-0.10845 0.2888763,-0.13451 0.6354402,-0.0952 0.8933306,0.10167 l 0.1062197,0.0811 0.068501,-0.0644 c 0.2141578,-0.20105 0.6297252,-0.25439 0.9219195,-0.11832 0.088728,0.0412 0.1705778,0.0901 0.1819069,0.10844 0.012905,0.0209 0.072221,-0.003 0.1587904,-0.0641 0.2262121,-0.15946 0.5598451,-0.16267 0.7883511,-0.007 0.105182,0.0714 0.122238,0.0746 0.169478,0.0319 0.156122,-0.14129 0.527943,-0.1886 0.751211,-0.0956 0.06433,0.0269 0.16857,0.099 0.231646,0.16046 l 0.114683,0.11174 0.08277,-0.12115 c 0.111686,-0.16347 0.206947,-0.48298 0.206947,-0.69409 0,-0.152 -0.0067,-0.17048 -0.05505,-0.15174 -0.262685,0.10188 -0.618291,0.15515 -1.04603,0.15673 -0.524928,0.002 -0.610233,-0.0239 -0.914968,-0.27649 -0.2584631,-0.21427 -0.3614656,-0.2409 -0.9317916,-0.2409 H 8.7746307 l -0.091952,-0.092 c -0.1092888,-0.10924 -0.1155195,-0.1842 -0.024907,-0.2994 l 0.067058,-0.0853 0.6014614,0.0106 c 0.5706191,0.0107 0.6103345,0.0144 0.7744899,0.0918 0.09515,0.0447 0.263492,0.15425 0.37406,0.2432 0.113885,0.0916 0.248015,0.17056 0.309413,0.18208 0.221972,0.0416 0.739212,-0.01 1.137626,-0.11106 0.446775,-0.1146 0.525084,-0.1089 0.662887,0.048 0.09264,0.1055 0.0957,0.11882 0.0957,0.41588 0,0.5099 -0.14338,0.90956 -0.460363,1.28321 l -0.168827,0.19902 v 0.22537 c 0,0.28715 -0.0457,0.43717 -0.18146,0.59579 -0.216464,0.25288 -0.265065,0.26444 -1.155027,0.27444 -0.70164,0.007 -0.7995014,0.0154 -0.9123273,0.0698 -0.1179261,0.0568 -0.2034771,0.061 -1.2785981,0.0609 -1.0767457,-8e-5 -1.1600298,-0.004 -1.2715171,-0.0609 z m 1.0493348,-0.72288 c 0.015381,-0.4681 -0.012721,-0.62265 -0.1355515,-0.74547 -0.089691,-0.0897 -0.1253274,-0.1039 -0.2601275,-0.1039 -0.1107665,0 -0.1804947,0.0191 -0.2397202,0.0658 -0.153367,0.12065 -0.1766423,0.20932 -0.1766423,0.67299 v 0.4272 l 0.4011093,-0.01 0.4011095,-0.01 z m 1.2642884,-0.11164 c 0,-0.46265 -0.023338,-0.55145 -0.1766414,-0.67204 -0.058623,-0.0461 -0.1290059,-0.0657 -0.2360782,-0.0657 -0.1920105,0 -0.3313728,0.11118 -0.3746882,0.29887 -0.033398,0.14471 -0.040958,0.81277 -0.00955,0.84416 0.011538,0.0116 0.1955734,0.021 0.408974,0.021 H 9.5659803 Z M 6.0739544,288.8993 c 0,-0.40841 -0.00273,-0.42546 -0.081449,-0.51907 -0.067809,-0.0806 -0.1042077,-0.0968 -0.2174203,-0.0968 -0.1132106,0 -0.1496065,0.0162 -0.2174192,0.0968 -0.0763,0.0907 -0.081449,0.11764 -0.081449,0.42712 0,0.32315 0.00205,0.33233 0.091964,0.42229 0.082995,0.083 0.1121194,0.092 0.2988652,0.092 h 0.2069074 z m 0.9437871,-0.0339 c 0,-0.41422 -0.0058,-0.46194 -0.06292,-0.51908 -0.093681,-0.0937 -0.2620714,-0.0839 -0.343772,0.02 -0.058839,0.0748 -0.065205,0.12545 -0.065205,0.5191 v 0.43619 h 0.2359469 0.2359473 z m 3.4920095,0.02 c 0,-0.39364 -0.0064,-0.44427 -0.06521,-0.51909 -0.0817,-0.1039 -0.250096,-0.11367 -0.343772,-0.02 -0.05713,0.0572 -0.06292,0.10497 -0.06292,0.51908 v 0.45617 h 0.235946 0.235947 z m 0.977666,0.34423 c 0.08996,-0.0899 0.09196,-0.0991 0.09196,-0.42228 0,-0.30949 -0.0051,-0.33645 -0.08145,-0.42713 -0.06782,-0.0806 -0.104212,-0.0968 -0.21742,-0.0968 -0.113223,0 -0.149607,0.0162 -0.217421,0.0968 -0.07876,0.0937 -0.08145,0.11072 -0.08145,0.51908 v 0.42229 h 0.206907 c 0.186742,0 0.21587,-0.01 0.298867,-0.092 z m -0.607575,-2.70661 c -0.162867,-0.0513 -0.3079,-0.16439 -0.3896,-0.3038 -0.07163,-0.12224 -0.08033,-0.16692 -0.06958,-0.35728 0.01044,-0.18467 0.02671,-0.23567 0.107573,-0.33732 0.306015,-0.38462 0.867496,-0.33415 1.088993,0.0979 0.09128,0.17802 0.06961,0.46974 -0.04742,0.63864 -0.145575,0.21005 -0.467063,0.33208 -0.689958,0.26187 z m 0.264488,-0.49383 c 0.06533,-0.0591 0.0762,-0.19982 0.01978,-0.25623 -0.121848,-0.12186 -0.353872,0.0373 -0.27437,0.18821 0.06907,0.13111 0.158496,0.15499 0.254591,0.068 z m 0.655263,-0.78424 c -0.178679,-0.10166 -0.266947,-0.20825 -0.332936,-0.40221 -0.09798,-0.28796 0.01336,-0.61277 0.271356,-0.79155 0.10206,-0.0707 0.17509,-0.0937 0.329203,-0.10348 0.256292,-0.0163 0.403574,0.0346 0.563701,0.19499 0.338081,0.33859 0.24553,0.91154 -0.180568,1.11781 -0.197646,0.0957 -0.466508,0.0892 -0.650756,-0.0156 z m 0.548748,-0.52661 c 0.04022,-0.11417 -0.01044,-0.24718 -0.112857,-0.29627 -0.192365,-0.0922 -0.408672,0.121 -0.306839,0.30242 0.102613,0.18281 0.354442,0.17913 0.419702,-0.005 z"
       id="path377"
       inkscape:connector-curvature="0" />
    <path
       style="fill:#ffffff;stroke-width:0.0008493;stroke-miterlimit:4;stroke-dasharray:none"
       d="m 7.9898909,282.90399 c -0.084428,-0.019 -0.2816101,-0.0753 -0.4381873,-0.12519 -0.1565771,-0.0498 -0.3908613,-0.12429 -0.5206313,-0.16538 -0.3289939,-0.10422 -0.5230219,-0.14161 -0.8944934,-0.17253 -0.5490119,-0.0457 -0.8694199,0.007 -1.7181722,0.2855 -0.4251337,0.13922 -0.7406548,0.21496 -0.7706256,0.18498 -0.021951,-0.022 -0.050655,-0.56464 -0.068138,-1.28835 l -0.015971,-0.66148 h 4.9583046 4.9583023 v 0.35609 c 0,0.37979 -0.03704,1.34458 -0.05773,1.50339 -0.01125,0.0862 -0.01846,0.0955 -0.07424,0.0955 -0.09442,0 -0.372087,-0.0779 -0.879229,-0.24648 -0.253363,-0.0842 -0.531442,-0.16692 -0.617956,-0.18368 -0.215215,-0.0418 -1.155277,-0.0418 -1.370736,-3e-5 -0.08652,0.0167 -0.379763,0.10529 -0.6516637,0.19675 -0.2718996,0.0915 -0.5702034,0.18172 -0.6628976,0.20054 -0.2543684,0.0517 -0.9808751,0.0643 -1.1759363,0.0204 z"
       id="path381"
       inkscape:connector-curvature="0" />
    <path
       style="fill:#ffffff;stroke-width:0.0008493;stroke-miterlimit:4;stroke-dasharray:none"
       d="m 4.5255437,294.31091 c -0.251445,-0.0114 -0.3035817,-0.0199 -0.3744033,-0.064 -0.1716633,-0.10675 -0.1629204,0.0149 -0.2886456,-4.01611 -0.037002,-1.18647 -0.076232,-2.31505 -0.087168,-2.50793 -0.022452,-0.39601 -0.05278,-0.4962 -0.16168,-0.53417 -0.062295,-0.0217 -0.065603,-0.0294 -0.065727,-0.15323 -6.26e-5,-0.0717 -0.00648,-0.21237 -0.014324,-0.31258 l -0.014187,-0.18216 0.058975,-0.0148 c 0.032443,-0.007 0.076709,-0.0418 0.098399,-0.0749 0.03524,-0.0538 0.03882,-0.1174 0.033841,-0.60075 -0.00534,-0.52044 -0.033035,-1.42766 -0.06392,-2.09625 -0.012107,-0.26226 -0.00921,-0.32141 0.016324,-0.32885 0.017097,-0.004 0.1292594,-0.0263 0.2492474,-0.0476 0.1199869,-0.0212 0.4434927,-0.11345 0.7189029,-0.20514 0.6533647,-0.21741 0.7856469,-0.24273 1.2651067,-0.24214 0.4744024,5.4e-4 0.6464112,0.0321 1.164129,0.21315 0.5020054,0.17556 0.7690103,0.23923 1.127625,0.26886 0.60461,0.0499 1.0196917,-0.007 1.7081026,-0.23775 0.6651916,-0.22216 0.7659366,-0.24185 1.2471486,-0.24358 0.495587,-10e-4 0.64111,0.0257 1.292087,0.24383 0.271902,0.0912 0.585373,0.18184 0.696606,0.20158 0.329259,0.0584 0.3068,0.0484 0.292966,0.13064 -0.01552,0.0922 -0.05261,1.15946 -0.191896,5.52163 -0.120251,3.76601 -0.145741,4.44091 -0.18153,4.80657 -0.04225,0.43165 -0.06843,0.45395 -0.559968,0.47685 -0.4047,0.0189 -7.5317649,0.0179 -7.9660077,-10e-4 z m 6.9864113,-1.32704 c 0.409567,-0.053 0.768154,-0.38072 0.876585,-0.80126 0.04794,-0.18595 0.04785,-0.59324 -1.8e-4,-0.73417 -0.04536,-0.13313 -0.207183,-0.31441 -0.321484,-0.36014 -0.04838,-0.0193 -0.154628,-0.0468 -0.236119,-0.0611 l -0.148165,-0.0258 -9.72e-4,-0.12691 c -0.0017,-0.22452 -0.02998,-0.31318 -0.133318,-0.41848 l -0.09462,-0.0964 -0.430462,-0.01 c -0.368726,-0.007 -0.441743,-0.0157 -0.509112,-0.0522 -0.07375,-0.04 -0.165648,-0.0439 -1.4718577,-0.0615 -1.7359396,-0.0233 -2.3073468,-0.0107 -2.4694658,0.0557 -0.098375,0.0401 -0.1754963,0.0482 -0.5416625,0.0567 l -0.4269504,0.0106 -0.074948,0.0709 c -0.1100163,0.1039 -0.1363825,0.16991 -0.1526882,0.38204 l -0.014665,0.19087 -0.1468192,0.0256 c -0.080755,0.0141 -0.1786464,0.0389 -0.2175476,0.0551 -0.1102892,0.046 -0.2332317,0.1663 -0.2981808,0.29158 -0.051144,0.0987 -0.060498,0.14839 -0.068002,0.36156 -0.014937,0.42457 0.081256,0.70673 0.3239649,0.95025 0.2149707,0.21568 0.3643498,0.27525 0.754262,0.30074 0.3858119,0.0253 3.9700262,0.0143 4.0245225,-0.0122 0.1089127,-0.0531 0.1394048,-0.26481 0.052665,-0.36564 -0.053113,-0.0617 -0.054189,-0.0619 -0.4438031,-0.0783 -0.2148116,-0.01 -1.1549828,-0.0172 -2.08927,-0.0181 l -1.6987027,-10e-4 -0.1326925,-0.0859 c -0.1403168,-0.0908 -0.2431181,-0.2168 -0.2789786,-0.34184 -0.031284,-0.10912 -0.032285,-0.46566 -0.00136,-0.50286 0.014073,-0.0169 0.056304,-0.0436 0.093863,-0.0591 0.060033,-0.0249 0.073083,-0.0232 0.1080838,0.0145 0.021894,0.0234 0.058248,0.0933 0.08079,0.15507 0.028533,0.0782 0.086349,0.15784 0.1903744,0.26219 0.1242532,0.12463 0.1715471,0.15628 0.281077,0.18813 0.1728965,0.0502 0.381998,0.0353 0.5704194,-0.041 l 0.1432405,-0.058 0.084667,0.0534 c 0.2264405,0.14293 0.4844389,0.15811 0.7398239,0.0436 0.1274656,-0.0572 0.1473249,-0.0603 0.2114602,-0.0338 0.3312686,0.1374 0.4855631,0.14452 0.7323268,0.0338 0.1274657,-0.0572 0.147324,-0.0603 0.2114592,-0.0338 0.330081,0.1369 0.4858331,0.14439 0.7294467,0.035 0.1485503,-0.0666 0.1469571,-0.0667 0.3626256,0.0234 0.2000062,0.0836 0.3793822,0.0715 0.6177022,-0.0416 l 0.169642,-0.0806 0.129354,0.0606 c 0.173948,0.0815 0.475976,0.0871 0.639365,0.0117 0.152085,-0.0701 0.288958,-0.21877 0.39034,-0.42393 0.104446,-0.21139 0.150011,-0.23304 0.259643,-0.12342 l 0.06985,0.0699 -0.01541,0.19576 c -0.0085,0.10765 -0.02483,0.23227 -0.03631,0.27689 -0.02901,0.11265 -0.178699,0.27469 -0.317641,0.34393 -0.108028,0.0539 -0.139534,0.0582 -0.43232,0.0597 -0.445506,0.002 -0.544049,0.0193 -0.622846,0.10754 -0.09407,0.10528 -0.08207,0.21016 0.03896,0.34026 0.05215,0.0561 0.05288,0.0562 0.418587,0.0496 0.201486,-0.003 0.436177,-0.0157 0.521533,-0.0267 z m -1.6863915,-3.12049 c 0.1222858,-0.0468 0.1855165,-0.0517 0.8876085,-0.0701 0.915812,-0.024 0.926592,-0.0261 1.121395,-0.23442 0.170668,-0.18245 0.2077,-0.28476 0.224089,-0.61908 l 0.01262,-0.2574 0.115643,-0.13631 c 0.240705,-0.28376 0.358802,-0.50022 0.441637,-0.80949 0.03778,-0.14104 0.04878,-0.25032 0.05108,-0.50719 0.003,-0.3264 0.0028,-0.3277 -0.06036,-0.41056 -0.136768,-0.17965 -0.241767,-0.19504 -0.655783,-0.096 -0.354769,0.0848 -0.661001,0.12591 -0.939285,0.12607 -0.279479,1.6e-4 -0.287066,-0.002 -0.58875,-0.21916 -0.38625,-0.27717 -0.4422221,-0.29128 -1.2078303,-0.3043 l -0.5112255,-0.01 -0.05652,0.0741 c -0.092532,0.12132 -0.093874,0.18704 -0.00614,0.30221 l 0.076015,0.0999 0.167497,0.005 c 0.5030816,0.0175 0.9404694,0.0496 1.0066614,0.0737 0.041337,0.0151 0.1808454,0.10675 0.3100294,0.20371 0.308839,0.23177 0.359581,0.24627 0.86197,0.24655 0.473814,2.5e-4 0.753534,-0.0341 1.00654,-0.12362 0.120879,-0.0427 0.129055,-0.0282 0.108413,0.19393 -0.01801,0.19374 -0.105917,0.4644 -0.197222,0.60723 l -0.06795,0.10625 -0.125233,-0.10198 c -0.160948,-0.1311 -0.228779,-0.16523 -0.376207,-0.18921 -0.166658,-0.0272 -0.37891,0.007 -0.533148,0.0871 l -0.128945,0.0665 -0.160067,-0.0821 c -0.144015,-0.0738 -0.177703,-0.082 -0.33594,-0.082 -0.163053,0 -0.189235,0.006 -0.359203,0.0953 l -0.1833317,0.0953 -0.06588,-0.047 c -0.2710131,-0.19299 -0.7586654,-0.18529 -1.0225522,0.0161 -0.08536,0.0651 -0.1136654,0.0764 -0.1418959,0.0561 -0.1031165,-0.0738 -0.2706641,-0.16388 -0.3498661,-0.18782 -0.049437,-0.015 -0.1731341,-0.0267 -0.2748839,-0.0262 -0.1706435,0.001 -0.1994139,0.007 -0.370761,0.0932 l -0.1857626,0.0923 -0.1081406,-0.0665 c -0.2498376,-0.15372 -0.5174393,-0.16378 -0.7715238,-0.029 l -0.1434599,0.0761 -0.1176418,-0.0663 c -0.211201,-0.11888 -0.5435962,-0.1342 -0.7374332,-0.0339 -0.039957,0.0207 -0.12185,0.0836 -0.1819941,0.13984 -0.1233085,0.11534 -0.1243532,0.11501 -0.2239261,-0.0722 C 4.921772,287.73836 4.828734,287.34498 4.8590698,287.2241 l 0.014869,-0.0592 0.1516515,0.0436 c 0.2563,0.0734 0.5192524,0.11186 0.8594924,0.12547 0.5050588,0.0202 0.6284401,-0.016 1.0106279,-0.29652 0.2389325,-0.17537 0.3121744,-0.20137 0.6297621,-0.22358 0.2931142,-0.0205 0.3725015,-0.0507 0.4177982,-0.15915 0.044368,-0.10614 0.023758,-0.19567 -0.061635,-0.26752 -0.063818,-0.0536 -0.081756,-0.0567 -0.3297977,-0.0564 -0.2756228,4.1e-4 -0.5110063,0.038 -0.6367645,0.10199 -0.041231,0.0209 -0.1710323,0.10635 -0.2884444,0.18981 -0.3126859,0.22229 -0.3192053,0.22474 -0.5999868,0.22458 -0.2765856,-1.6e-4 -0.5794294,-0.0411 -0.9378361,-0.12679 -0.4203991,-0.10049 -0.5442227,-0.078 -0.6683791,0.12171 -0.047586,0.0765 -0.051996,0.10844 -0.050484,0.36476 0.00319,0.54393 0.1287275,0.88578 0.4840138,1.31828 0.1302996,0.15863 0.1322878,0.16317 0.1327266,0.30337 7.014e-4,0.23167 0.040457,0.44342 0.1057082,0.5633 0.081415,0.1496 0.2695502,0.31851 0.3921948,0.35215 0.057531,0.0157 0.4041582,0.0347 0.8501062,0.0465 0.6233631,0.0165 0.7722774,0.0266 0.8651376,0.0593 0.1920624,0.0675 0.284776,0.0718 1.4042561,0.067 1.0690771,-0.004 1.0923588,-0.005 1.2215139,-0.055 z m 1.4860545,-3.38316 c 0.13285,-0.0619 0.243741,-0.16671 0.310077,-0.29296 0.03826,-0.0728 0.04804,-0.13167 0.04875,-0.29333 8.09e-4,-0.18069 -0.0056,-0.21335 -0.06046,-0.3066 -0.200708,-0.34142 -0.636223,-0.43174 -0.957978,-0.19865 -0.154463,0.11185 -0.22131,0.23965 -0.239478,0.45776 -0.0201,0.24124 0.02959,0.36853 0.207197,0.53086 0.203722,0.18619 0.438418,0.2211 0.691875,0.10284 z m 1.094421,-1.19393 c 0.14497,-0.0497 0.295147,-0.18849 0.370461,-0.34244 0.05197,-0.10614 0.06267,-0.15727 0.06226,-0.29692 -8.63e-4,-0.28687 -0.144449,-0.52564 -0.388073,-0.64528 -0.110358,-0.0542 -0.153792,-0.0625 -0.320238,-0.0617 -0.163167,10e-4 -0.211818,0.0107 -0.318675,0.0628 -0.234417,0.11468 -0.386154,0.36026 -0.384109,0.62167 0.004,0.51635 0.474441,0.83462 0.978372,0.66196 z"
       id="path383"
       inkscape:connector-curvature="0" />
    <path
       style="fill:#ffffff;stroke-width:0.0008493;stroke-miterlimit:4;stroke-dasharray:none"
       d="m 10.941921,286.0133 c -0.102017,-0.10948 -0.036,-0.26542 0.112368,-0.26542 0.129285,0 0.17747,0.14084 0.08737,0.25539 -0.0571,0.0727 -0.137681,0.0766 -0.199734,0.0107 z"
       id="path385"
       inkscape:connector-curvature="0" />
    <path
       style="fill:#ffffff;stroke-width:0.0008493;stroke-miterlimit:4;stroke-dasharray:none"
       d="m 12.029103,284.80666 c -0.03806,-0.0232 -0.08287,-0.0751 -0.09957,-0.1155 -0.02698,-0.0651 -0.02554,-0.0823 0.01305,-0.15434 0.08587,-0.16025 0.290995,-0.16011 0.378316,2.9e-4 0.05111,0.0939 0.03719,0.17775 -0.04273,0.25767 -0.06549,0.0654 -0.154226,0.0697 -0.24908,0.0118 z"
       id="path387"
       inkscape:connector-curvature="0" />
    <path
       style="fill:#ffffff;stroke-width:0.0008493;stroke-miterlimit:4;stroke-dasharray:none"
       d="m 8.7690731,289.39839 c -0.00739,-0.0191 -0.00875,-0.20872 -0.00319,-0.42133 0.00898,-0.3435 0.01563,-0.39734 0.059885,-0.48298 0.1563445,-0.30254 0.6065022,-0.25166 0.6983066,0.0789 0.012958,0.0466 0.023637,0.25931 0.023701,0.4725 l 1.247e-4,0.38763 H 9.1651947 c -0.324569,0 -0.3847403,-0.005 -0.3960489,-0.0347 z"
       id="path389"
       inkscape:connector-curvature="0" />
    <path
       style="fill:#ffffff;stroke-width:0.0008493;stroke-miterlimit:4;stroke-dasharray:none"
       d="m 7.5068832,289.00057 c 0.0066,-0.35702 0.014858,-0.44512 0.046982,-0.50444 0.129072,-0.23826 0.4736579,-0.27712 0.629295,-0.071 0.08736,0.11571 0.1060257,0.22437 0.1061621,0.61793 1.069e-4,0.31012 -0.005,0.36473 -0.035422,0.37639 -0.019552,0.007 -0.1974394,0.0136 -0.3953119,0.0136 H 7.4988203 Z"
       id="path391"
       inkscape:connector-curvature="0" />
    <path
       style="fill:#ffffff;stroke-width:0.0008493;stroke-miterlimit:4;stroke-dasharray:none"
       d="m 6.5591787,288.91559 c 0,-0.45351 0.017983,-0.53434 0.1319401,-0.59328 0.084542,-0.0437 0.1226867,-0.0441 0.2038064,-0.002 0.097625,0.0505 0.1136767,0.13352 0.1136767,0.58828 v 0.41236 H 6.7838914 6.5591799 Z"
       id="path393"
       inkscape:connector-curvature="0" />
    <path
       style="fill:#ffffff;stroke-width:0.0008493;stroke-miterlimit:4;stroke-dasharray:none"
       d="m 5.7336017,289.29965 c -0.115043,-0.0188 -0.2003551,-0.0935 -0.2304738,-0.2019 -0.028738,-0.10348 -0.02909,-0.4848 -5.354e-4,-0.58439 0.067672,-0.23597 0.3452202,-0.29653 0.4948075,-0.10799 0.054713,0.0691 0.056372,0.0818 0.063545,0.49311 l 0.00739,0.4223 -0.1197244,-0.002 c -0.065853,-10e-4 -0.162594,-0.0107 -0.2149911,-0.0183 z"
       id="path395"
       inkscape:connector-curvature="0" />
    <path
       style="fill:#ffffff;stroke-width:0.0008493;stroke-miterlimit:4;stroke-dasharray:none"
       d="m 10.045473,288.87187 0.008,-0.44893 0.0618,-0.0617 c 0.08622,-0.0862 0.217104,-0.0863 0.303359,-4e-5 l 0.0618,0.0617 0.0069,0.44897 0.0069,0.44896 h -0.228391 -0.228367 z"
       id="path397"
       inkscape:connector-curvature="0" />
    <path
       style="fill:#ffffff;stroke-width:0.0008493;stroke-miterlimit:4;stroke-dasharray:none"
       d="m 10.986522,288.96687 c 2.97e-4,-0.19467 0.0096,-0.39298 0.02067,-0.44071 0.05678,-0.24471 0.34219,-0.31424 0.495629,-0.12075 0.05419,0.0683 0.05618,0.0827 0.05618,0.40276 v 0.3319 l -0.07038,0.0703 c -0.07652,0.0765 -0.185995,0.10765 -0.384662,0.10924 l -0.117973,10e-4 z"
       id="path399"
       inkscape:connector-curvature="0" />
    <path
       style="fill:#ffffff;stroke-width:0.0008493;stroke-miterlimit:4;stroke-dasharray:none"
       d="m 10.770214,291.6278 c -0.0734,-0.0631 -0.09476,-0.18129 -0.09718,-0.53742 l -0.0016,-0.24157 h 0.258417 0.258418 v 0.30409 c 0,0.21198 -0.0097,0.32723 -0.03195,0.38051 -0.0599,0.14335 -0.269563,0.1946 -0.386077,0.0943 z"
       id="path401"
       inkscape:connector-curvature="0" />
    <path
       style="fill:#ffffff;stroke-width:0.0008493;stroke-miterlimit:4;stroke-dasharray:none"
       d="m 9.800306,291.67463 c -0.071954,-0.0766 -0.094024,-0.21805 -0.094621,-0.60672 L 9.7051458,290.714 h 0.2359461 0.2359471 v 0.37205 c 0,0.5413 -0.03629,0.63915 -0.2370288,0.63915 -0.066572,0 -0.1054162,-0.0141 -0.1396935,-0.0506 z"
       id="path403"
       inkscape:connector-curvature="0" />
    <path
       style="fill:#ffffff;stroke-width:0.0008493;stroke-miterlimit:4;stroke-dasharray:none"
       d="m 8.8565189,291.67463 c -0.071957,-0.0766 -0.094022,-0.21805 -0.094624,-0.60672 l -5.39e-4,-0.35391 h 0.2380512 0.2380518 l -0.00821,0.42133 c -0.010337,0.53631 -0.032258,0.58987 -0.2411667,0.58987 -0.058196,0 -0.098774,-0.0156 -0.1316182,-0.0506 z"
       id="path405"
       inkscape:connector-curvature="0" />
    <path
       style="fill:#ffffff;stroke-width:0.0008493;stroke-miterlimit:4;stroke-dasharray:none"
       d="m 7.9127329,291.67463 c -0.071957,-0.0766 -0.094022,-0.21805 -0.094624,-0.60672 l -5.4e-4,-0.35391 h 0.2380515 0.2380515 l -0.00818,0.42133 c -0.010348,0.53631 -0.032261,0.58987 -0.2411686,0.58987 -0.058191,0 -0.098774,-0.0156 -0.1316183,-0.0506 z"
       id="path407"
       inkscape:connector-curvature="0" />
    <path
       style="fill:#ffffff;stroke-width:0.0008493;stroke-miterlimit:4;stroke-dasharray:none"
       d="m 6.9831758,291.69126 c -0.032523,-0.0177 -0.066887,-0.0501 -0.07638,-0.0722 -0.00943,-0.0221 -0.021997,-0.23466 -0.027806,-0.47258 l -0.010571,-0.43256 h 0.2407149 0.2407149 l -0.00818,0.42133 c -0.010231,0.52864 -0.034546,0.59141 -0.2282321,0.58896 -0.039161,-4.9e-4 -0.097807,-0.0153 -0.1303247,-0.0329 z"
       id="path409"
       inkscape:connector-curvature="0" />
    <path
       style="fill:#ffffff;stroke-width:0.0008493;stroke-miterlimit:4;stroke-dasharray:none"
       d="M 6.0271855,291.66993 C 5.896339,291.61303 5.877063,291.55459 5.8665046,291.18292 l -0.00943,-0.33411 H 6.118273 6.3794713 l -0.00125,0.29775 c -0.00148,0.34494 -0.02435,0.43293 -0.1312637,0.50482 -0.087599,0.0589 -0.1205426,0.0616 -0.2196926,0.0185 z"
       id="path411"
       inkscape:connector-curvature="0" />
    <path
       style="fill:#ffffff;stroke-width:0.0008493;stroke-miterlimit:4;stroke-dasharray:none"
       d="m 4.5704857,296.08684 c -0.4222817,-0.0211 -0.4819232,-0.0799 -0.5270131,-0.51928 -0.012936,-0.12612 -0.023531,-0.36084 -0.023531,-0.52165 v -0.29237 l 0.050564,0.0152 c 0.1747472,0.0525 0.6809574,0.0583 4.6019918,0.0519 3.3593536,-0.005 4.2069506,-0.0126 4.2762026,-0.036 0.04751,-0.016 0.09124,-0.0243 0.09719,-0.0183 0.01803,0.0181 -0.03536,0.90158 -0.06198,1.02565 -0.02796,0.13038 -0.130653,0.25229 -0.237252,0.28166 -0.07506,0.0207 -7.7781118,0.033 -8.176178,0.0132 z"
       id="path413"
       inkscape:connector-curvature="0" />
  </g>
</svg>
