<?xml version="1.0" encoding="UTF-8" standalone="no"?>
<svg
   xmlns:dc="http://purl.org/dc/elements/1.1/"
   xmlns:cc="http://creativecommons.org/ns#"
   xmlns:rdf="http://www.w3.org/1999/02/22-rdf-syntax-ns#"
   xmlns:svg="http://www.w3.org/2000/svg"
   xmlns="http://www.w3.org/2000/svg"
   xmlns:sodipodi="http://sodipodi.sourceforge.net/DTD/sodipodi-0.dtd"
   xmlns:inkscape="http://www.inkscape.org/namespaces/inkscape"
   width="64"
   height="64"
   viewBox="0 0 16.933333 16.933333"
   version="1.1"
   id="svg8"
   sodipodi:docname="seren_diaper_64x64.svg"
   inkscape:version="1.0.2-2 (e86c870879, 2021-01-15)">
  <defs
     id="defs2" />
  <sodipodi:namedview
     id="base"
     pagecolor="#ffffff"
     bordercolor="#666666"
     borderopacity="1.0"
     inkscape:pageopacity="0.0"
     inkscape:pageshadow="2"
     inkscape:zoom="8"
     inkscape:cx="28.926191"
     inkscape:cy="28.276409"
     inkscape:document-units="mm"
     inkscape:current-layer="layer1"
     inkscape:document-rotation="0"
     showgrid="false"
     inkscape:snap-global="false"
     fit-margin-top="0"
     fit-margin-left="0"
     fit-margin-right="0"
     fit-margin-bottom="0"
     inkscape:window-width="1540"
     inkscape:window-height="967"
     inkscape:window-x="1954"
     inkscape:window-y="32"
     inkscape:window-maximized="0"
     units="px" />
  <metadata
     id="metadata5">
    <rdf:RDF>
      <cc:Work
         rdf:about="">
        <dc:format>image/svg+xml</dc:format>
        <dc:type
           rdf:resource="http://purl.org/dc/dcmitype/StillImage" />
        <dc:title></dc:title>
      </cc:Work>
    </rdf:RDF>
  </metadata>
  <g
     inkscape:label="Calque 1"
     inkscape:groupmode="layer"
     id="layer1"
     transform="translate(-44.581036,-28.552681)">
    <text
       xml:space="preserve"
       style="font-style:normal;font-weight:normal;font-size:10.5833px;line-height:1.25;font-family:sans-serif;fill:#000000;fill-opacity:1;stroke:none;stroke-width:0.264583"
       x="51.724785"
       y="39.66518"
       id="text1411"><tspan
         sodipodi:role="line"
         id="tspan1409"
         x="51.724785"
         y="39.66518"
         style="stroke-width:0.264583"></tspan></text>
    <text
       xml:space="preserve"
       style="font-size:4.75019px;line-height:1.25;font-family:sans-serif;fill:#ffffff;stroke-width:0.178132"
       x="49.30521"
       y="43.237057"
       id="text1415"><tspan
         sodipodi:role="line"
         id="tspan1413"
         x="49.30521"
         y="43.237057"
         style="fill:#ffffff;stroke-width:0.178132">H2</tspan></text>
    <path
       style="fill:#000000;stroke-width:0.0325879"
       d="m 49.534474,43.383319 c -0.198981,-0.09812 -0.216656,-0.159776 -0.241761,-0.843239 -0.01725,-0.469583 -0.03942,-0.682153 -0.09165,-0.879873 -0.33558,-1.270385 -1.178932,-2.21238 -2.38823,-2.66756 -0.302496,-0.113856 -0.629259,-0.180653 -1.052529,-0.215152 -0.291008,-0.02372 -0.396826,-0.04554 -0.468537,-0.0966 -0.178493,-0.127098 -0.180112,-0.149369 -0.104623,-1.443584 0.03797,-0.650219 0.06881,-1.198674 0.06871,-1.218787 -1.06e-4,-0.02011 -0.0612,-0.04633 -0.135722,-0.05824 -0.183523,-0.02935 -0.309753,-0.10957 -0.369061,-0.234562 -0.07401,-0.155948 -0.07401,-3.356555 0,-3.512503 0.07267,-0.153184 0.216425,-0.223341 0.494086,-0.24116 0.131241,-0.0084 0.239554,-0.01705 0.240701,-0.01918 9.64e-4,-0.0021 0.01349,-0.173186 0.02747,-0.380135 0.02833,-0.419808 0.06688,-0.5135 0.246099,-0.598555 0.09844,-0.0467 0.800523,-0.05168 7.284705,-0.05168 8.042969,0 7.333191,-0.02297 7.461184,0.241433 0.0478,0.09876 0.06659,0.202556 0.06659,0.367657 0,0.126527 0.0087,0.274039 0.01956,0.327808 0.01918,0.09596 0.0239,0.09804 0.254907,0.112864 0.274239,0.0176 0.418433,0.08838 0.490828,0.240951 0.07402,0.155948 0.07402,3.356555 0,3.512504 -0.05927,0.124991 -0.185537,0.205214 -0.369061,0.234561 -0.0745,0.01192 -0.135616,0.03813 -0.135722,0.05824 -9.6e-5,0.02011 0.03084,0.568568 0.06871,1.218787 0.07546,1.294215 0.07392,1.316486 -0.104622,1.443584 -0.0717,0.05107 -0.177529,0.07288 -0.468537,0.0966 -0.614292,0.05007 -1.011445,0.162207 -1.530944,0.432273 -0.801757,0.416797 -1.455677,1.159638 -1.776927,2.018561 -0.157165,0.420227 -0.201198,0.677484 -0.224491,1.311751 -0.03267,0.88798 -0.04067,0.896167 -0.88058,0.896167 h -0.524626 v -4.483947 c 0,-4.092385 -0.0048,-4.491831 -0.05329,-4.574179 -0.120861,-0.204599 -0.03026,-0.196825 -2.293033,-0.196825 -2.262724,0 -2.172162,-0.0078 -2.293024,0.196825 -0.04867,0.08235 -0.05329,0.481794 -0.05329,4.574179 v 4.48395 l -0.529551,-7.38e-4 c -0.415512,-5.79e-4 -0.552025,-0.01181 -0.633884,-0.05219 z m -1.784915,-8.259894 c 0.940658,-0.173891 1.30227,-1.309621 0.630781,-1.981112 -0.173183,-0.173177 -0.380327,-0.280498 -0.630781,-0.326797 -0.112343,-0.02077 -0.615612,-0.0355 -1.212586,-0.0355 H 45.51644 v 1.189458 1.189457 h 1.020533 c 0.596974,0 1.100243,-0.01474 1.212586,-0.0355 z M 60.572034,33.96947 v -1.189457 h -1.053117 c -0.617664,0 -1.133077,0.01464 -1.246489,0.03541 -0.377127,0.06906 -0.659838,0.290696 -0.822766,0.645025 -0.07276,0.158182 -0.08423,0.22756 -0.08423,0.509022 0,0.280343 0.01157,0.351131 0.08307,0.506599 0.157753,0.343058 0.425005,0.562913 0.776256,0.638587 0.117267,0.02527 0.55825,0.03976 1.263682,0.04154 l 1.083542,0.0027 z m -9.059425,5.246647 v -4.220128 h 1.531628 1.531628 v 4.220128 4.22013 h -1.531628 -1.531628 z"
       id="path1437" />
  </g>
</svg>
