<?xml version="1.0" encoding="UTF-8" standalone="no"?>
<!-- Created with Inkscape (http://www.inkscape.org/) -->

<svg
   xmlns:dc="http://purl.org/dc/elements/1.1/"
   xmlns:cc="http://creativecommons.org/ns#"
   xmlns:rdf="http://www.w3.org/1999/02/22-rdf-syntax-ns#"
   xmlns:svg="http://www.w3.org/2000/svg"
   xmlns="http://www.w3.org/2000/svg"
   xmlns:sodipodi="http://sodipodi.sourceforge.net/DTD/sodipodi-0.dtd"
   xmlns:inkscape="http://www.inkscape.org/namespaces/inkscape"
   width="64"
   height="64"
   viewBox="0 0 16.933333 16.933334"
   version="1.1"
   id="svg8"
   inkscape:version="0.92.5 (2060ec1f9f, 2020-04-08)"
   sodipodi:docname="dinner_ware_64x64.svg">
  <defs
     id="defs2" />
  <sodipodi:namedview
     id="base"
     pagecolor="#ffffff"
     bordercolor="#666666"
     borderopacity="1.0"
     inkscape:pageopacity="0.0"
     inkscape:pageshadow="2"
     inkscape:zoom="7.919596"
     inkscape:cx="40.118545"
     inkscape:cy="41.978035"
     inkscape:document-units="mm"
     inkscape:current-layer="layer1"
     showgrid="false"
     units="px"
     inkscape:window-width="1208"
     inkscape:window-height="987"
     inkscape:window-x="1992"
     inkscape:window-y="0"
     inkscape:window-maximized="1" />
  <metadata
     id="metadata5">
    <rdf:RDF>
      <cc:Work
         rdf:about="">
        <dc:format>image/svg+xml</dc:format>
        <dc:type
           rdf:resource="http://purl.org/dc/dcmitype/StillImage" />
        <dc:title></dc:title>
      </cc:Work>
    </rdf:RDF>
  </metadata>
  <g
     inkscape:label="Layer 1"
     inkscape:groupmode="layer"
     id="layer1"
     transform="translate(0,-280.06665)">
    <path
       style="fill:#000000;stroke-width:0.03041367"
       d="m 2.0602363,292.71515 c -0.6691784,-0.16203 -1.22492632,-0.74497 -1.36498157,-1.43175 -0.0557081,-0.27316 -0.0359988,-0.41556 0.0689395,-0.49809 l 0.0769144,-0.0605 -0.0761433,-0.21107 c -0.10928392,-0.30298 -0.13352842,-0.55814 -0.0632822,-0.66605 0.0301436,-0.0464 0.0728812,-0.0979 0.0949721,-0.11459 0.0325947,-0.0246 0.0249817,-0.0734 -0.0403644,-0.25851 -0.0540071,-0.15297 -0.0815124,-0.29546 -0.0835048,-0.43255 -0.002682,-0.18479 0.005123,-0.21256 0.0813105,-0.28893 l 0.0842812,-0.0845 0.97510437,-0.0153 0.9751042,-0.0152 -0.081174,-0.0761 c -0.5104916,-0.47817 -0.957815,-1.74336 -0.7276482,-2.05804 0.09242,-0.12635 0.2445515,-0.19247 0.4430332,-0.19251 l 0.1714715,-5e-5 -0.1905578,-0.28501 c -0.2059423,-0.30802 -0.3569856,-0.65966 -0.423084,-0.98499 -0.1014363,-0.49927 -0.07996,-0.66826 0.1003182,-0.78947 l 0.1033415,-0.0695 h 2.6582099 c 2.9178398,0 2.784588,-0.008 2.8827765,0.18149 0.1604456,0.31026 -0.1014754,1.23725 -0.4986952,1.76499 l -0.1259078,0.16728 0.206111,0.0171 c 0.3561306,0.0295 0.4646276,0.13564 0.4646276,0.45454 0,0.52283 -0.2806779,1.21058 -0.6918951,1.69535 l -0.1612425,0.1901 0.9359982,1.1e-4 c 0.869163,9e-5 0.9428315,0.003 1.0317065,0.0584 0.1831154,0.11169 0.1952958,0.38924 0.035786,0.81556 l -0.061801,0.16518 0.086807,0.0908 c 0.078816,0.0825 0.086229,0.10866 0.080542,0.28491 -0.0037,0.11579 -0.038631,0.28789 -0.086432,0.42639 l -0.08017,0.23226 0.06273,0.044 c 0.034502,0.0242 0.077837,0.0948 0.096295,0.15688 0.075779,0.25505 -0.1541403,0.88758 -0.4408305,1.21276 -0.076119,0.0864 -0.1383963,0.16503 -0.1383963,0.17486 0,0.009 0.0753,0.0179 0.1673254,0.0179 h 0.1673248 l 0.7146719,-0.62704 0.7146709,-0.62707 v -1.1161 -1.1161 l -0.114051,-0.0543 c -0.235588,-0.11228 -0.6215304,-0.38747 -0.8516348,-0.60732 -0.8331121,-0.79594 -1.2189938,-1.95443 -1.0255698,-3.0789 0.063432,-0.36874 0.094754,-0.45325 0.2012124,-0.54284 l 0.091545,-0.077 h 2.7149772 c 2.5916,0 2.717264,0.002 2.765311,0.0556 0.02769,0.0305 0.05034,0.10509 0.05034,0.16554 0,0.19931 -0.025,0.20463 -0.961765,0.20463 h -0.826581 l -0.04105,0.15968 c -0.067,0.26058 -0.05023,1.04738 0.0285,1.33593 0.153088,0.5612 0.409905,1.0132 0.79382,1.39713 0.23012,0.23011 0.574463,0.47777 0.812977,0.58471 l 0.124704,0.0559 0.16396,-0.0829 c 0.87236,-0.44123 1.47469,-1.29745 1.60948,-2.28787 0.04096,-0.30103 0.02729,-0.73426 -0.03169,-1.0029 l -0.03505,-0.15966 h -0.431719 c -0.506861,0 -0.5669,-0.0222 -0.5669,-0.20991 0,-0.20393 0.03598,-0.21588 0.649756,-0.21588 0.697629,0 0.716487,0.0108 0.821239,0.47582 0.160259,0.71123 0.0616,1.52817 -0.2676,2.21579 -0.316144,0.66036 -0.877802,1.24929 -1.481231,1.55317 l -0.208782,0.10519 v 1.12348 1.12348 l 0.729225,0.64159 c 0.401074,0.35288 0.750071,0.67136 0.775548,0.70773 0.06249,0.0892 0.05831,0.15082 -0.01672,0.24619 l -0.06303,0.0802 -6.6964043,-0.002 c -5.3275351,-0.002 -6.7292509,-0.0108 -6.8570816,-0.0416 z m 5.5638031,-0.4663 c 0.445458,-0.14994 0.8412566,-0.5792 0.9263403,-1.00461 l 0.019386,-0.097 H 7.6059348 c -1.1086661,0 -1.1413842,-0.006 -1.1413842,-0.22811 0,-0.21843 0.043525,-0.22811 1.0276361,-0.22811 0.8481318,0 0.8501871,-10e-5 0.8945057,-0.0685 0.054715,-0.0843 0.1754709,-0.40427 0.1754709,-0.46495 0,-0.0387 -0.4753368,-0.0444 -3.7144479,-0.0444 H 1.1332662 l 0.01822,0.11229 c 0.010025,0.0619 0.056291,0.18834 0.1028239,0.28132 l 0.084605,0.16906 2.1790003,0.0153 c 2.0884784,0.0146 2.1816602,0.0177 2.2430088,0.0731 0.063921,0.0578 0.086289,0.21144 0.040735,0.27967 -0.066718,0.0998 -0.1479486,0.1034 -2.4117986,0.1034 H 1.1332709 l 0.016739,0.1031 c 0.026866,0.16552 0.1657036,0.4288 0.3118632,0.59137 0.2301037,0.25593 0.5229715,0.41195 0.8654883,0.46109 0.092001,0.0133 1.2758536,0.0218 2.6307834,0.0189 l 2.4635083,-0.005 z m 3.7057686,0.0583 c 0,-0.0144 -0.153968,-0.16154 -0.342153,-0.32688 -0.188185,-0.16537 -0.390607,-0.34416 -0.449827,-0.39733 l -0.107673,-0.0967 -0.4549804,0.39739 c -0.2502391,0.21854 -0.4595425,0.40915 -0.4651181,0.42356 -0.00559,0.0143 0.4015866,0.0262 0.9048075,0.0262 0.503219,0 0.914944,-0.0121 0.914944,-0.0262 z m 1.086233,-0.0725 c 0.06332,-0.0543 0.38541,-0.33624 0.715779,-0.62653 l 0.60067,-0.52776 v -1.11645 -1.11644 l -0.190085,-0.1011 c -0.43596,-0.23168 -0.846754,-0.58177 -1.13724,-0.96916 -0.09652,-0.12872 -0.184511,-0.2452 -0.19554,-0.25884 -0.01099,-0.0137 -0.0866,0.0685 -0.167932,0.18248 -0.294406,0.41267 -0.768985,0.82458 -1.206106,1.04685 l -0.174878,0.0889 0.0022,1.13247 0.0022,1.13247 0.704902,0.61553 c 0.644177,0.56251 0.714638,0.61556 0.817896,0.61588 0.08385,2.3e-4 0.142672,-0.0251 0.228103,-0.0984 z m 2.44319,0.0548 c -0.04072,-0.0491 -0.884359,-0.79248 -0.899323,-0.79248 -0.01529,0 -0.854743,0.74043 -0.896492,0.79072 -0.03354,0.0404 0.06914,0.0457 0.897177,0.0457 0.811344,0 0.930244,-0.006 0.898638,-0.044 z m -6.4829976,-2.68064 c 0.064842,-0.0825 0.1859303,-0.37864 0.1859303,-0.45481 0,-0.0388 -0.474849,-0.0444 -3.7104682,-0.0444 H 1.1412266 v 0.0693 c 0,0.038 0.047371,0.16812 0.1052609,0.28892 l 0.1052596,0.21963 h 3.4813463 3.4813464 z m -1.9973745,-1.10542 c 0.4283065,-0.32424 0.7649002,-0.84513 0.8905865,-1.3782 0.024675,-0.10467 0.045061,-0.22791 0.045306,-0.2739 l 4.381e-4,-0.0836 H 6.4788142 c -0.7958255,0 -0.839326,-0.003 -0.897204,-0.0608 -0.090562,-0.0906 -0.081104,-0.25337 0.019308,-0.33235 0.071525,-0.0563 0.1216776,-0.063 0.4665915,-0.063 h 0.3864556 l 0.1814437,-0.19009 c 0.2184513,-0.22886 0.3495659,-0.41645 0.4680778,-0.66971 0.096287,-0.20578 0.2117032,-0.61857 0.2117032,-0.75717 v -0.0866 l -2.4711116,0.008 -2.4711115,0.008 0.00932,0.1065 c 0.037441,0.42796 0.3014451,0.98372 0.6364711,1.33986 l 0.227325,0.24164 h 0.7378741 c 0.7004348,0 0.7419399,0.003 0.8180097,0.063 0.1004118,0.079 0.1098695,0.24178 0.019308,0.33235 -0.058766,0.0588 -0.1013796,0.0608 -1.2575634,0.0608 H 2.3669759 l 0.026668,0.17488 c 0.094615,0.62032 0.4437818,1.20125 0.9483055,1.57776 l 0.1782236,0.133 H 4.8504939 6.180814 Z m 4.2483921,-0.1527 c 0.442013,-0.22312 0.877613,-0.63455 1.172153,-1.10713 l 0.147181,-0.23614 -0.08001,-0.26435 c -0.04401,-0.1454 -0.09642,-0.33962 -0.11649,-0.43163 -0.04311,-0.19764 -0.05122,-0.90186 -0.01375,-1.19372 l 0.02636,-0.2053 H 10.239632 8.7165768 l -0.038458,0.12925 c -0.024138,0.0811 -0.038592,0.31606 -0.038828,0.63109 -3.216e-4,0.43 0.00969,0.53882 0.069838,0.76033 0.221818,0.81675 0.7646897,1.51289 1.4729912,1.88889 0.121036,0.0643 0.230721,0.11724 0.243744,0.11759 0.01302,3.4e-4 0.103649,-0.0396 0.201381,-0.0889 z m -0.356619,-0.9539 c -0.05791,-0.0615 -0.06613,-0.10478 -0.06613,-0.34778 v -0.27737 l -0.2357064,0.13463 c -0.129638,0.0742 -0.2671216,0.13475 -0.3055186,0.13487 -0.09065,3.4e-4 -0.2191172,-0.12908 -0.2191172,-0.22068 0,-0.10721 0.054408,-0.16325 0.3001888,-0.30899 l 0.223512,-0.13253 -0.2188004,-0.12998 c -0.2451894,-0.14566 -0.3208195,-0.2349 -0.2930007,-0.34575 0.051516,-0.20527 0.220561,-0.22095 0.5165921,-0.0481 0.1145004,0.0669 0.2135084,0.12166 0.2200164,0.12166 0.0065,0 0.01183,-0.12379 0.01183,-0.27511 0,-0.25154 0.0064,-0.28149 0.07466,-0.34976 0.08309,-0.0831 0.130128,-0.0909 0.241587,-0.0401 0.103607,0.0472 0.119211,0.092 0.138474,0.39777 l 0.0167,0.26501 0.207532,-0.12061 c 0.318802,-0.1852 0.507189,-0.14895 0.507189,0.0975 0,0.12504 -0.03498,0.16074 -0.296172,0.30241 -0.104343,0.0566 -0.189888,0.11036 -0.190086,0.11941 -2.17e-4,0.009 0.08936,0.0689 0.199023,0.13313 0.256178,0.14986 0.287235,0.18301 0.287235,0.30656 0,0.074 -0.022,0.1194 -0.08014,0.16509 -0.109125,0.0858 -0.139991,0.0812 -0.394852,-0.0587 -0.121914,-0.0669 -0.229148,-0.12164 -0.2383,-0.12164 -0.0092,0 -0.01663,0.11699 -0.01663,0.25989 0,0.23539 -0.007,0.26693 -0.07466,0.33455 -0.09579,0.0957 -0.227761,0.0975 -0.315425,0.003 z m 3.524892,-0.009 c -0.05292,-0.0672 -0.06304,-0.12306 -0.06304,-0.34777 v -0.26761 l -0.235705,0.13464 c -0.129639,0.0742 -0.263455,0.13474 -0.29737,0.13486 -0.08823,3.3e-4 -0.186812,-0.0773 -0.208634,-0.16423 -0.03425,-0.13649 0.0273,-0.2183 0.266891,-0.35462 0.125747,-0.0716 0.222314,-0.14029 0.214592,-0.15279 -0.0077,-0.0125 -0.102375,-0.0721 -0.210336,-0.13248 -0.290062,-0.16222 -0.347608,-0.26964 -0.226746,-0.42331 0.0898,-0.1141 0.206763,-0.1034 0.473065,0.0437 l 0.224243,0.12378 v -0.27723 c 0,-0.25708 0.0057,-0.28291 0.07805,-0.35529 0.06319,-0.0631 0.0964,-0.0744 0.174472,-0.0588 0.161328,0.0324 0.186952,0.0824 0.203684,0.39794 l 0.01521,0.28689 0.207532,-0.12062 c 0.235144,-0.1366 0.375668,-0.15463 0.461924,-0.0593 0.06481,0.0716 0.07263,0.21892 0.01527,0.28803 -0.02207,0.0267 -0.126876,0.0968 -0.232901,0.15615 -0.106022,0.0593 -0.199092,0.11808 -0.206814,0.13051 -0.0077,0.0125 0.08629,0.0798 0.208922,0.14958 0.263858,0.15011 0.325072,0.24691 0.249096,0.39383 -0.08782,0.16982 -0.175753,0.16861 -0.482538,-0.006 l -0.235705,-0.13464 v 0.26764 c 0,0.32228 -0.05629,0.4279 -0.228103,0.4279 -0.074,0 -0.119351,-0.022 -0.165068,-0.0802 z"
       id="path12399"
       inkscape:connector-curvature="0" />
    <path
       style="fill:none;stroke:#000000;stroke-width:0.00344848;stroke-linecap:butt;stroke-linejoin:miter;stroke-miterlimit:4;stroke-dasharray:none;stroke-opacity:1"
       d="m 13.755494,284.67668 1.38251,0.0154"
       id="path12401"
       inkscape:connector-curvature="0" />
    <path
       style="fill:#ffffff;stroke-width:0.00246319;stroke-miterlimit:4;stroke-dasharray:none"
       d="m 3.4223359,288.56698 c -0.5591161,-0.39974 -0.9394601,-1.02274 -1.0292217,-1.68589 l -0.015437,-0.1141 1.1697058,-0.002 c 0.6433392,-0.001 1.1941467,-0.008 1.2240168,-0.0168 0.033351,-0.008 0.069736,-0.046 0.094281,-0.096 0.035652,-0.0725 0.036827,-0.0912 0.010854,-0.17328 -0.05213,-0.16474 -0.069327,-0.16793 -0.9017937,-0.16799 l -0.7206172,-2e-5 -0.1878254,-0.20796 c -0.2806835,-0.31099 -0.4415524,-0.57681 -0.5709444,-0.94368 -0.056528,-0.1603 -0.1271326,-0.49331 -0.1085257,-0.51191 0.00355,-0.003 1.1133707,-0.0136 2.4663374,-0.0221 2.2261654,-0.0142 2.45994,-0.0125 2.45994,0.0182 0,0.0828 -0.067932,0.37648 -0.1301351,0.5626 -0.1209171,0.3618 -0.2689365,0.6003 -0.573571,0.92412 l -0.1672623,0.1778 -0.4004516,0.007 -0.4004514,0.007 -0.060185,0.0603 c -0.080855,0.0809 -0.086405,0.24905 -0.010721,0.32476 l 0.049458,0.0496 0.8485929,0.006 0.8485929,0.006 -0.014674,0.11325 c -0.064109,0.49503 -0.3081514,0.9972 -0.6710673,1.38087 -0.049137,0.052 -0.1689473,0.15703 -0.26625,0.23353 l -0.1769147,0.13909 H 4.852987 3.5179078 Z"
       id="path12403"
       inkscape:connector-curvature="0" />
    <path
       style="fill:#ffffff;stroke-width:0.00246319;stroke-miterlimit:4;stroke-dasharray:none"
       d="m 1.3040498,289.56478 c -0.07102,-0.14015 -0.1605678,-0.37551 -0.1605678,-0.42203 0,-0.0317 0.3183649,-0.0337 3.6550726,-0.0235 2.0102894,0.006 3.6777941,0.0185 3.7055648,0.0273 0.04146,0.0131 0.047962,0.0262 0.036329,0.0726 -0.021397,0.0852 -0.1592793,0.37564 -0.1994321,0.42001 -0.033721,0.0374 -0.1936604,0.039 -3.5074449,0.039 H 1.361455 Z"
       id="path12405"
       inkscape:connector-curvature="0" />
    <path
       style="fill:#ffffff;stroke-width:0.00246319;stroke-miterlimit:4;stroke-dasharray:none"
       d="m 2.2895826,292.28422 c -0.3791697,-0.0639 -0.713864,-0.27941 -0.9258178,-0.5963 -0.1043166,-0.15597 -0.177367,-0.31762 -0.2082419,-0.46082 l -0.014966,-0.0694 2.2444697,-0.007 c 2.4489936,-0.008 2.3939148,-0.005 2.4370909,-0.12777 0.026046,-0.0742 -6.39e-5,-0.20721 -0.050578,-0.25773 -0.028102,-0.0281 -0.088165,-0.0445 -0.1997356,-0.0549 -0.087751,-0.008 -1.0719325,-0.0213 -2.1870743,-0.0292 -1.9569954,-0.0139 -2.0285787,-0.0158 -2.0576607,-0.0556 -0.045424,-0.0622 -0.1546612,-0.33844 -0.171667,-0.4342 l -0.014982,-0.0844 3.6022957,0.0145 c 1.9812626,0.008 3.6495333,0.02 3.707267,0.0269 0.1006485,0.0121 0.1043808,0.0148 0.090619,0.0701 -0.021009,0.084 -0.1377864,0.35936 -0.1727798,0.40727 -0.028386,0.0389 -0.078398,0.0419 -0.8736998,0.0539 -1.0327074,0.0155 -1.0298474,0.0147 -1.0315916,0.23987 -0.00174,0.2262 0.045456,0.23528 1.2253284,0.23586 0.9871981,3.4e-4 0.8979731,-0.0237 0.8119036,0.22014 -0.065528,0.18563 -0.1863597,0.36671 -0.3535386,0.52979 -0.1640544,0.16004 -0.3268319,0.26006 -0.5541034,0.34048 l -0.1735306,0.0614 -2.5129848,-0.002 c -1.3821419,-0.001 -2.5593498,-0.0108 -2.6160174,-0.0199 z"
       id="path12407"
       inkscape:connector-curvature="0" />
    <path
       style="fill:#ffffff;stroke-width:0.00246319;stroke-miterlimit:4;stroke-dasharray:none"
       d="M 10.203721,288.31892 C 9.9229452,288.16817 9.7564079,288.04172 9.5072435,287.79001 9.1677301,287.44702 8.944998,287.08803 8.7838437,286.624 8.7426987,286.50555 8.6970387,286.34017 8.68238,286.25653 8.646838,286.05377 8.661339,285.09236 8.701459,284.9911 l 0.027968,-0.0706 h 1.510558 1.510558 l -0.01426,0.0924 c -0.02932,0.18984 -0.0397,0.87884 -0.01661,1.10362 0.01482,0.14437 0.0587,0.35192 0.118566,0.56073 l 0.09504,0.33152 -0.118216,0.18874 c -0.228513,0.36482 -0.515697,0.68109 -0.831365,0.91556 -0.179939,0.13366 -0.493374,0.3053 -0.556489,0.30471 -0.02207,-1.8e-4 -0.122637,-0.0447 -0.223478,-0.0988 z m 0.340703,-0.88339 c 0.09042,-0.0444 0.113162,-0.1106 0.128141,-0.37292 l 0.01424,-0.24952 0.235817,0.1205 c 0.262829,0.13433 0.304429,0.13729 0.412215,0.0295 0.04879,-0.0488 0.06239,-0.0823 0.06239,-0.15313 0,-0.1118 -0.06371,-0.1792 -0.313883,-0.33239 l -0.171141,-0.10477 0.220061,-0.12881 c 0.121032,-0.0709 0.230161,-0.14767 0.24251,-0.17076 0.01235,-0.023 0.02231,-0.0792 0.02213,-0.12484 -10e-4,-0.25835 -0.193351,-0.28753 -0.551195,-0.0835 l -0.160287,0.0913 -0.01481,-0.21911 c -0.02477,-0.36666 -0.05878,-0.43286 -0.237236,-0.46181 -0.06815,-0.0108 -0.08722,-0.003 -0.154366,0.064 -0.07608,0.0761 -0.07661,0.0781 -0.07686,0.26888 -1.21e-4,0.10576 -0.0061,0.22772 -0.01328,0.27105 l -0.01303,0.0789 -0.167281,-0.094 c -0.2925512,-0.16452 -0.4435865,-0.17797 -0.5236635,-0.0466 -0.094718,0.15534 -0.037828,0.25089 0.2628996,0.44153 l 0.1947715,0.12348 -0.1796602,0.10733 c -0.2484489,0.14851 -0.3208668,0.22137 -0.3208668,0.32286 0,0.0583 0.016952,0.0986 0.061863,0.14657 0.1104118,0.1182 0.1560869,0.11458 0.443221,-0.0348 l 0.2552584,-0.13281 v 0.2654 c 0,0.29505 0.01681,0.34305 0.138562,0.39572 0.06897,0.0298 0.11616,0.026 0.203448,-0.017 z"
       id="path12409"
       inkscape:connector-curvature="0" />
    <path
       style="fill:#ffffff;stroke-width:0.00246319;stroke-miterlimit:4;stroke-dasharray:none"
       d="m 9.7073195,292.30806 -0.1800953,-0.0122 0.1349879,-0.11953 c 0.7588039,-0.67164 0.7634019,-0.67524 0.8108509,-0.6335 0.421062,0.37028 0.789694,0.7001 0.810577,0.72526 0.02295,0.0277 -0.0087,0.0338 -0.237504,0.0462 -0.297045,0.016 -1.0654124,0.0124 -1.3388165,-0.006 z"
       id="path12411"
       inkscape:connector-curvature="0" />
    <path
       style="fill:#ffffff;stroke-width:0.00246319;stroke-miterlimit:4;stroke-dasharray:none"
       d="m 13.179006,292.30857 -0.119084,-0.0128 0.439343,-0.38559 c 0.241638,-0.2121 0.449344,-0.38562 0.461564,-0.38562 0.01988,0 0.270519,0.21436 0.735225,0.6288 l 0.159689,0.14241 -0.127104,0.014 c -0.157116,0.0172 -1.386488,0.0163 -1.549633,-0.001 z"
       id="path12413"
       inkscape:connector-curvature="0" />
    <path
       style="fill:#ffffff;stroke-width:0.00246319;stroke-miterlimit:4;stroke-dasharray:none"
       d="m 13.852981,288.3828 c -0.344955,-0.15465 -0.867862,-0.59437 -1.11504,-0.93768 -0.28959,-0.4022 -0.493432,-0.91222 -0.538649,-1.3477 -0.02992,-0.28817 -0.01596,-0.89695 0.02434,-1.06129 l 0.02758,-0.11253 0.827576,-0.007 c 0.65886,-0.006 0.838651,-0.0133 0.881889,-0.0375 0.06897,-0.0386 0.08614,-0.065 0.08655,-0.13253 l 3.23e-4,-0.0543 0.287852,0.006 c 0.15832,0.003 0.300074,0.0108 0.315007,0.0156 0.01494,0.005 0.02715,0.0336 0.02715,0.0635 0,0.0352 0.02076,0.0681 0.05874,0.093 0.05024,0.0329 0.122068,0.0396 0.496667,0.0459 l 0.437934,0.007 0.03801,0.21639 c 0.05461,0.31085 0.05084,0.80793 -0.0083,1.0964 -0.191601,0.93464 -0.730113,1.66053 -1.566151,2.11109 l -0.16293,0.0877 z m 0.243459,-0.9348 c 0.05849,-0.0362 0.08996,-0.16355 0.09885,-0.40012 l 0.0095,-0.25139 0.209269,0.11566 c 0.216262,0.11954 0.314736,0.15161 0.390959,0.12742 0.0631,-0.0201 0.133309,-0.14458 0.133309,-0.23649 0,-0.0956 -0.0716,-0.17027 -0.291727,-0.30436 -0.08279,-0.0505 -0.154157,-0.10267 -0.1586,-0.11591 -0.0044,-0.0133 0.07515,-0.0745 0.176855,-0.13595 0.209835,-0.12674 0.273508,-0.19473 0.273391,-0.29193 -1.21e-4,-0.0927 -0.07272,-0.20452 -0.144599,-0.22256 -0.08412,-0.0211 -0.233607,0.0244 -0.405845,0.12367 -0.08176,0.0471 -0.156113,0.081 -0.165256,0.0753 -0.0092,-0.006 -0.02164,-0.11616 -0.02777,-0.24552 -0.01378,-0.29065 -0.04463,-0.36259 -0.17007,-0.39636 -0.10811,-0.0291 -0.14724,-0.0177 -0.228496,0.0671 -0.06223,0.0648 -0.06372,0.0719 -0.07071,0.33391 l -0.0072,0.26765 -0.199229,-0.10446 c -0.311575,-0.16332 -0.418772,-0.16441 -0.517158,-0.006 -0.08475,0.13713 -0.02529,0.22912 0.259288,0.40107 0.09918,0.0599 0.1768,0.11953 0.172493,0.13246 -0.0043,0.0129 -0.08546,0.0711 -0.180326,0.1292 -0.22462,0.13762 -0.270384,0.18952 -0.269768,0.30589 7.75e-4,0.1457 0.113834,0.24833 0.246202,0.22346 0.03757,-0.007 0.162846,-0.0651 0.278383,-0.12891 l 0.210069,-0.11603 0.0072,0.25575 c 0.0077,0.27588 0.03288,0.34372 0.150471,0.40586 0.04704,0.0248 0.174015,0.0196 0.220567,-0.009 z"
       id="path12415"
       inkscape:connector-curvature="0" />
  </g>
</svg>
