<?xml version="1.0" encoding="UTF-8" standalone="no"?>
<!-- Created with Inkscape (http://www.inkscape.org/) -->

<svg
   xmlns:dc="http://purl.org/dc/elements/1.1/"
   xmlns:cc="http://creativecommons.org/ns#"
   xmlns:rdf="http://www.w3.org/1999/02/22-rdf-syntax-ns#"
   xmlns:svg="http://www.w3.org/2000/svg"
   xmlns="http://www.w3.org/2000/svg"
   xmlns:sodipodi="http://sodipodi.sourceforge.net/DTD/sodipodi-0.dtd"
   xmlns:inkscape="http://www.inkscape.org/namespaces/inkscape"
   width="64"
   height="64"
   viewBox="0 0 16.933333 16.933334"
   version="1.1"
   id="svg8"
   inkscape:version="0.92.5 (2060ec1f9f, 2020-04-08)"
   sodipodi:docname="disinfection_64x64.svg">
  <defs
     id="defs2" />
  <sodipodi:namedview
     id="base"
     pagecolor="#ffffff"
     bordercolor="#666666"
     borderopacity="1.0"
     inkscape:pageopacity="0.0"
     inkscape:pageshadow="2"
     inkscape:zoom="5.6"
     inkscape:cx="33.561976"
     inkscape:cy="22.782463"
     inkscape:document-units="mm"
     inkscape:current-layer="layer1"
     showgrid="false"
     units="px"
     inkscape:window-width="1208"
     inkscape:window-height="987"
     inkscape:window-x="1992"
     inkscape:window-y="0"
     inkscape:window-maximized="1" />
  <metadata
     id="metadata5">
    <rdf:RDF>
      <cc:Work
         rdf:about="">
        <dc:format>image/svg+xml</dc:format>
        <dc:type
           rdf:resource="http://purl.org/dc/dcmitype/StillImage" />
        <dc:title></dc:title>
      </cc:Work>
    </rdf:RDF>
  </metadata>
  <g
     inkscape:label="Layer 1"
     inkscape:groupmode="layer"
     id="layer1"
     transform="translate(0,-280.06665)">
    <path
       style="fill:#000000;stroke-width:0.02985667"
       d="M 2.8876246,296.1243 C 2.4740943,296.046 1.9969334,295.68282 1.8156218,295.30833 1.652729,294.97189 1.6493104,294.93564 1.6489272,293.54099 l -3.498e-4,-1.28963 0.072057,-0.0838 c 0.059832,-0.0696 0.095726,-0.0838 0.2115817,-0.0838 0.1158561,0 0.1517491,0.0142 0.2115819,0.0838 l 0.072056,0.0838 v 1.15283 c 0,0.70059 0.012818,1.22643 0.032671,1.34045 0.041981,0.24106 0.1797841,0.47073 0.3673277,0.61221 0.2833619,0.21375 0.2069,0.20781 2.5569322,0.19859 l 2.1037723,-0.009 0.1492831,-0.0686 c 0.187837,-0.0864 0.3846051,-0.27548 0.4876842,-0.46881 l 0.07959,-0.14929 0.00829,-1.96233 c 0.00917,-2.17091 0.00904,-2.17269 -0.1808178,-2.55843 -0.1126842,-0.22893 -0.390092,-0.53812 -0.6086974,-0.67843 -0.08483,-0.0544 -0.2594914,-0.14067 -0.3881365,-0.19163 -0.6182651,-0.24489 -1.0540149,-0.63223 -1.3220245,-1.17516 -0.1892123,-0.38332 -0.2400404,-0.65391 -0.2402868,-1.27921 l -2.15e-4,-0.5303 -1.141574,0.008 -1.1415739,0.008 -0.1408596,0.418 c -0.2541296,0.75411 -0.4526343,1.6687 -0.5442073,2.50738 -0.040672,0.37252 -0.045905,0.39077 -0.1348533,0.47024 -0.1026243,0.0917 -0.2024335,0.10415 -0.3255222,0.0404 -0.1535457,-0.0794 -0.1702127,-0.15456 -0.12835,-0.57868 0.084567,-0.85679 0.3241996,-1.93119 0.6073455,-2.72304 l 0.1548024,-0.43291 0.010458,-0.50453 0.010458,-0.50451 -0.2165683,0.0202 c -0.3834666,0.0357 -0.5334402,0.0869 -1.0777879,0.36869 -0.1118957,0.058 -0.24185758,0.0246 -0.3348223,-0.0859 -0.0706697,-0.084 -0.075448,-0.11043 -0.075448,-0.41754 0,-0.41555 0.0429223,-0.69223 0.15587475,-1.00474 0.28534925,-0.78949 1.00714555,-1.39453 1.84452165,-1.54613 0.1769543,-0.032 0.760835,-0.0408 2.7835298,-0.0415 2.2654155,-6.1e-4 2.5731643,0.004 2.6775744,0.0462 l 0.1179699,0.0472 0.4805823,-0.22634 c 0.2658406,-0.1252 0.5207114,-0.22635 0.5703888,-0.22635 0.2097246,0 0.3375843,0.20264 0.254033,0.40262 -0.042277,0.10122 -0.082647,0.12685 -0.5538191,0.35214 l -0.5082087,0.24299 v 0.40541 0.40538 l 0.8245178,0.38703 c 0.8493628,0.3987 0.9668818,0.47524 0.9668818,0.62966 0,0.0974 -0.07573,0.24051 -0.147629,0.27898 -0.03159,0.0169 -0.09535,0.0307 -0.141675,0.0307 -0.04633,0 -0.4536353,-0.17529 -0.9051271,-0.38954 l -0.8208946,-0.38956 -0.1452475,0.0462 c -0.1068152,0.0339 -0.2758861,0.0462 -0.6389706,0.0462 H 7.103295 l 0.017091,0.51502 c 0.014603,0.44023 0.028211,0.55003 0.093701,0.75602 0.077909,0.24505 0.2064524,0.46427 0.4200606,0.7164 0.1600147,0.18887 0.1657045,0.33539 0.01815,0.46723 -0.094747,0.0846 -0.1106397,0.0888 -0.2729374,0.0704 -0.5135338,-0.0581 -1.0230323,-0.29989 -1.4090361,-0.66868 l -0.1119626,-0.10697 v 0.59142 c 0,0.44277 0.011895,0.63752 0.047331,0.77487 0.074208,0.28762 0.2423539,0.57816 0.4624859,0.7991 0.1984376,0.19917 0.2512091,0.23001 0.9173689,0.53622 0.5762134,0.26486 1.0485088,0.83047 1.2372758,1.48175 0.067122,0.23155 0.067428,0.24209 0.067428,2.30766 0,2.33337 0.00872,2.23396 -0.2281928,2.60052 -0.2277193,0.35232 -0.5434933,0.58328 -0.9340767,0.68317 -0.2259277,0.0578 -0.321064,0.0602 -2.313344,0.0569 -1.1659876,-10e-4 -2.1432339,-0.0157 -2.2270091,-0.0316 z M 6.640685,286.01544 c -0.070547,-0.21149 -0.0782,-0.28334 -0.089053,-0.83599 l -0.011879,-0.6046 -0.079453,6.1e-4 c -0.055484,5.7e-4 -0.1572849,0.0685 -0.3375104,0.22528 l -0.2580579,0.22453 0.044049,0.16869 c 0.090643,0.34711 0.3227368,0.7006 0.6064179,0.92359 0.090317,0.071 0.1728611,0.1291 0.1834335,0.12911 0.010567,0 -0.015508,-0.10415 -0.057957,-0.23137 z m -1.3859419,-0.4777 0.00844,-0.33589 H 4.1724396 3.0816927 v 0.34373 0.34372 l 1.0823046,-0.008 1.0823045,-0.008 z m -3.5016719,-0.83925 0.2687098,-0.0755 1.7217791,-0.0166 1.7217795,-0.0166 0.3084736,-0.27151 c 0.1696611,-0.14933 0.3378216,-0.28705 0.3736892,-0.30603 0.035871,-0.019 0.1735821,-0.0345 0.3060309,-0.0345 h 0.240816 v -0.4491 -0.44909 l -1.9182904,0.009 c -1.8889863,0.009 -1.9212563,0.01 -2.1123596,0.0751 -0.6767305,0.23023 -1.1650357,0.81257 -1.2703743,1.51502 -0.020135,0.13426 -0.017674,0.14277 0.034682,0.11992 0.030995,-0.0136 0.1772739,-0.0586 0.3250645,-0.10014 z m 6.2549712,-1.16862 v -0.44784 H 7.6497629 7.2914826 v 0.44784 0.44787 H 7.6497629 8.0080424 Z M 4.350601,294.30976 c -0.032841,-0.0134 -0.086584,-0.0543 -0.119427,-0.0908 -0.052389,-0.0582 -0.060971,-0.11696 -0.069989,-0.47902 l -0.010274,-0.41269 -0.4145873,-0.01 c -0.4076027,-0.01 -0.4159795,-0.0111 -0.4972859,-0.0924 l -0.082699,-0.0828 v -0.77804 -0.77804 l 0.097506,-0.0871 c 0.097441,-0.087 0.097769,-0.0871 0.497236,-0.0871 H 4.150811 l 0.010328,-0.42047 0.010328,-0.42048 0.097506,-0.0871 0.097506,-0.0871 h 0.7324995 c 0.7763837,0 0.8662058,0.0142 0.9376461,0.14764 0.016906,0.0316 0.03074,0.23969 0.03074,0.46246 v 0.40502 h 0.3896193 c 0.4116769,0 0.5316995,0.0298 0.5947655,0.14763 0.041367,0.0774 0.041367,1.53829 0,1.61557 -0.063064,0.11784 -0.1830886,0.14763 -0.5947655,0.14763 h -0.389621 v 0.40503 c 0,0.22276 -0.013835,0.43088 -0.03074,0.46248 -0.071331,0.13328 -0.1621547,0.14772 -0.9157248,0.14573 -0.3908185,-8.1e-4 -0.7374499,-0.0129 -0.7702921,-0.0263 z m 1.1242265,-0.98937 0.010328,-0.42048 0.097506,-0.0871 c 0.097504,-0.0871 0.097512,-0.0871 0.5000989,-0.0871 h 0.4025943 v -0.35602 -0.35602 l -0.4174003,-0.01 c -0.4105928,-0.01 -0.4187482,-0.0111 -0.500099,-0.0924 -0.08126,-0.0813 -0.082879,-0.0899 -0.093027,-0.50011 l -0.010328,-0.41734 H 5.1090827 4.7536664 v 0.40502 c 0,0.22278 -0.013834,0.43088 -0.03074,0.46247 -0.063064,0.11784 -0.1830877,0.14763 -0.594765,0.14763 H 3.7385419 v 0.35828 0.35828 h 0.3896193 c 0.4116772,0 0.5317006,0.0298 0.5947649,0.14763 0.016906,0.0315 0.03074,0.23971 0.03074,0.46246 v 0.40504 h 0.3554163 0.355418 z m -3.6663126,-2.02614 c -0.1669428,-0.071 -0.2141277,-0.32345 -0.087885,-0.47021 0.059832,-0.0696 0.095726,-0.0838 0.2115819,-0.0838 0.178465,0 0.2836385,0.10513 0.2836385,0.28364 0,0.20871 -0.2156744,0.35186 -0.4073352,0.27035 z m 12.5079441,-3.49414 c -0.827215,-0.41833 -0.547398,-1.66787 0.376615,-1.68181 0.346611,-0.005 0.640352,0.17295 0.804071,0.48774 0.09467,0.18201 0.09972,0.20691 0.0877,0.432 -0.0145,0.27149 -0.07944,0.42758 -0.247986,0.59613 -0.168945,0.16895 -0.324589,0.23356 -0.596137,0.24747 -0.220972,0.0113 -0.252734,0.005 -0.424262,-0.0815 z m 0.597816,-0.59202 c 0.149268,-0.15581 0.08784,-0.41699 -0.113726,-0.48351 -0.207762,-0.0686 -0.437727,0.13555 -0.3858,0.34244 0.05577,0.2222 0.343855,0.30354 0.499526,0.14107 z m -3.413002,-1.24287 c -0.498924,-0.23859 -0.57922,-0.30564 -0.57922,-0.48369 0,-0.13528 0.144437,-0.27968 0.279727,-0.27968 0.109879,0 0.980318,0.41479 1.060159,0.5052 0.08721,0.0987 0.07922,0.28074 -0.01654,0.37651 -0.140866,0.14085 -0.232624,0.12626 -0.744133,-0.11834 z m 2.411396,-0.55184 c -0.09072,-0.081 -0.09855,-0.10317 -0.112434,-0.31894 -0.01394,-0.21657 -0.01987,-0.23323 -0.08957,-0.25186 -0.04105,-0.0109 -0.133581,-0.0485 -0.205616,-0.0834 l -0.130974,-0.0634 -0.162535,0.14855 c -0.140866,0.12875 -0.179238,0.14855 -0.28784,0.14855 -0.155054,0 -0.249406,-0.063 -0.281801,-0.18795 -0.03826,-0.14761 -0.01073,-0.22014 0.150372,-0.39641 0.118134,-0.12925 0.141721,-0.17135 0.114436,-0.20423 -0.01891,-0.0228 -0.05962,-0.11329 -0.09047,-0.20115 l -0.05611,-0.15974 -0.228895,-0.015 c -0.212339,-0.0139 -0.235187,-0.022 -0.31593,-0.11242 -0.09643,-0.10806 -0.109174,-0.20602 -0.04335,-0.33329 0.05679,-0.10983 0.105472,-0.12944 0.371156,-0.14959 l 0.220768,-0.0167 0.03756,-0.12768 c 0.02066,-0.0702 0.05978,-0.16157 0.08692,-0.203 0.04856,-0.0741 0.04697,-0.0779 -0.09777,-0.23629 -0.162835,-0.17817 -0.190747,-0.25796 -0.142476,-0.4073 0.04052,-0.12539 0.207963,-0.21837 0.33557,-0.18634 0.04637,0.0116 0.153467,0.0866 0.237972,0.16647 l 0.153645,0.14531 0.100507,-0.0574 c 0.05528,-0.0317 0.150893,-0.0735 0.212472,-0.0929 l 0.111963,-0.0354 v -0.19034 c 0,-0.22577 0.04175,-0.33162 0.153613,-0.38946 0.10415,-0.0539 0.185762,-0.0539 0.289907,0 0.111867,0.0579 0.153613,0.16369 0.153613,0.38946 v 0.19034 l 0.111964,0.0354 c 0.06158,0.0195 0.156825,0.0611 0.211656,0.0924 l 0.0997,0.057 0.159985,-0.14622 c 0.08799,-0.0804 0.195445,-0.15512 0.238785,-0.16599 0.121835,-0.0307 0.290489,0.0653 0.330044,0.18773 0.04836,0.14961 0.02034,0.22916 -0.144165,0.40914 -0.118136,0.12926 -0.141723,0.17135 -0.114436,0.20422 0.0189,0.0228 0.05962,0.1133 0.09047,0.20117 l 0.05611,0.15973 0.218898,0.0167 c 0.263813,0.0202 0.312573,0.0399 0.369285,0.14961 0.06582,0.12727 0.05307,0.22525 -0.04335,0.33328 -0.08075,0.0905 -0.103586,0.0986 -0.315932,0.11243 l -0.228894,0.0148 -0.05611,0.15975 c -0.03086,0.0879 -0.07157,0.17837 -0.09047,0.20114 -0.02729,0.0328 -0.0034,0.0753 0.116201,0.20617 0.15971,0.17474 0.186336,0.2444 0.148381,0.38824 -0.03261,0.12356 -0.133527,0.19273 -0.282398,0.19352 -0.108267,5.6e-4 -0.145949,-0.0189 -0.289319,-0.15 -0.137718,-0.12585 -0.173723,-0.14532 -0.218867,-0.11824 -0.02972,0.0178 -0.121209,0.0573 -0.203315,0.0878 l -0.149283,0.0555 -0.01492,0.2296 c -0.01386,0.21316 -0.02191,0.23584 -0.112434,0.31663 -0.06128,0.0547 -0.130433,0.087 -0.186133,0.087 -0.05569,0 -0.124855,-0.0323 -0.186133,-0.087 z m 0.530363,-1.19022 c 0.138874,-0.0715 0.283489,-0.21772 0.360931,-0.36485 0.03929,-0.0747 0.05497,-0.16848 0.0549,-0.32844 -1.13e-4,-0.2539 -0.05803,-0.39597 -0.227489,-0.55811 -0.376561,-0.3603 -0.977279,-0.25529 -1.228664,0.21477 -0.08522,0.15934 -0.09006,0.51788 -0.0091,0.67178 0.105254,0.19997 0.284412,0.35232 0.495971,0.42173 0.123145,0.0404 0.424725,0.01 0.553419,-0.0569 z m -4.5420776,-0.49623 c -0.1120845,-0.11208 -0.1282997,-0.20793 -0.058133,-0.34361 0.073685,-0.1425 0.1549905,-0.15624 0.8652106,-0.14622 l 0.649239,0.009 0.072,0.0838 c 0.07721,0.0898 0.09589,0.24872 0.04126,0.3508 -0.06971,0.13024 -0.168243,0.14763 -0.836604,0.14763 h -0.631459 z m 0.7620356,-1.80701 c -0.110099,-0.1101 -0.118253,-0.26205 -0.02009,-0.37451 0.08269,-0.0947 1.287811,-0.67269 1.402793,-0.67274 0.04792,-1e-5 0.121622,0.0357 0.178462,0.0865 0.126654,0.11317 0.136775,0.29215 0.02286,0.40432 -0.112193,0.11047 -1.265395,0.64373 -1.392099,0.64373 -0.07585,0 -0.128661,-0.0241 -0.191922,-0.0872 z"
       id="path5367"
       inkscape:connector-curvature="0" />
    <path
       style="fill:#ffffff;stroke-width:0.0011399;stroke-miterlimit:4;stroke-dasharray:none"
       d="m 1.4183453,284.63383 c 0.072408,-0.39003 0.243085,-0.70842 0.5380372,-1.00366 0.2407291,-0.24096 0.5456843,-0.41977 0.8149303,-0.47784 0.074644,-0.016 0.9873557,-0.0389 2.0282448,-0.0509 l 1.8925274,-0.0216 v 0.43779 0.43779 l -0.2684282,0.0129 -0.2684273,0.0129 -0.1799709,0.14919 c -0.098984,0.0821 -0.2578954,0.21658 -0.3531359,0.29894 l -0.173165,0.14972 -1.6932001,0.01 -1.6932001,0.01 -0.3089107,0.0889 c -0.1699007,0.0489 -0.3208325,0.0889 -0.3354038,0.0889 -0.015204,0 -0.01516,-0.061 1.015e-4,-0.14326 z"
       id="path5371"
       inkscape:connector-curvature="0" />
    <path
       style="fill:#ffffff;stroke-width:0.0011399;stroke-miterlimit:4;stroke-dasharray:none"
       d="m 3.1030703,285.54616 v -0.31668 h 1.0706718 1.0706727 v 0.31668 0.31668 H 4.1737421 3.1030703 Z"
       id="path5373"
       inkscape:connector-curvature="0" />
    <path
       style="fill:#ffffff;stroke-width:0.0011399;stroke-miterlimit:4;stroke-dasharray:none"
       d="m 4.7618581,293.34444 c 0,-0.21458 -0.012922,-0.42411 -0.02872,-0.46565 -0.047331,-0.12449 -0.138276,-0.15084 -0.5669404,-0.1642 l -0.3996163,-0.0126 v -0.34045 -0.34045 l 0.4214391,-0.0108 c 0.5699821,-0.0141 0.5552996,5.8e-4 0.5685735,-0.56914 l 0.00982,-0.42149 h 0.3406239 0.3406234 l 0.013867,0.40886 c 0.013399,0.39515 0.01659,0.41159 0.095059,0.4901 0.079202,0.0792 0.09153,0.0815 0.5027835,0.0917 l 0.4215919,0.0108 v 0.34395 0.34394 H 6.0999836 c -0.3337697,0 -0.3936113,0.008 -0.4829374,0.0631 -0.056082,0.0347 -0.1153606,0.088 -0.1317392,0.11866 -0.01638,0.0307 -0.029778,0.23297 -0.029778,0.4497 v 0.39406 H 5.1086908 4.7618532 Z"
       id="path5375"
       inkscape:connector-curvature="0" />
    <path
       style="fill:#ffffff;stroke-width:0.0011399;stroke-miterlimit:4;stroke-dasharray:none"
       d="M 6.5024824,286.08402 C 6.2511593,285.88036 6.0258927,285.5351 5.9252653,285.19933 l -0.049714,-0.16588 0.1142066,-0.0999 c 0.2366997,-0.20703 0.4233439,-0.33741 0.4829875,-0.33741 0.059718,0 0.062159,0.0202 0.076058,0.62581 0.011248,0.49021 0.025641,0.65675 0.066409,0.76859 0.028631,0.0786 0.047072,0.1577 0.040995,0.17594 -0.00606,0.0182 -0.075258,-0.0189 -0.1537351,-0.0825 z"
       id="path5377"
       inkscape:connector-curvature="0" />
    <path
       style="fill:#ffffff;stroke-width:0.0011399;stroke-miterlimit:4;stroke-dasharray:none"
       d="m 7.2952807,283.52545 v -0.43731 H 7.6421183 7.988955 v 0.43731 0.43732 H 7.6421183 7.2952807 Z"
       id="path5379"
       inkscape:connector-curvature="0" />
    <path
       style="fill:#ffffff;stroke-width:0.0011399;stroke-miterlimit:4;stroke-dasharray:none"
       d="m 13.862512,284.25281 c -0.156804,-0.0578 -0.311666,-0.18198 -0.407533,-0.32684 -0.09399,-0.14204 -0.128243,-0.4575 -0.06912,-0.63666 0.140474,-0.42563 0.648076,-0.63475 1.04841,-0.43187 0.282289,0.14305 0.400955,0.34764 0.400955,0.6913 0,0.19225 -0.01144,0.23932 -0.08731,0.35893 -0.09176,0.14469 -0.237411,0.27226 -0.367185,0.3216 -0.146409,0.0556 -0.399813,0.0672 -0.518222,0.0235 z"
       id="path5381"
       inkscape:connector-curvature="0" />
    <path
       style="fill:#ffffff;stroke-width:0.0011399;stroke-miterlimit:4;stroke-dasharray:none"
       d="m 14.560414,287.23513 c -0.114231,-0.0621 -0.165223,-0.20092 -0.116767,-0.3179 0.05036,-0.12159 0.139346,-0.17977 0.27497,-0.17977 0.08809,0 0.128125,0.0201 0.192322,0.0964 0.200407,0.23817 -0.07357,0.55183 -0.350525,0.4013 z"
       id="path5383"
       inkscape:connector-curvature="0" />
    <path
       style="fill:none;stroke:#000000;stroke-width:0.01;stroke-linecap:butt;stroke-linejoin:miter;stroke-opacity:1;stroke-miterlimit:4;stroke-dasharray:none"
       d="m 1.7953869,289.62945 -0.1468095,2.62191"
       id="path5404"
       inkscape:connector-curvature="0" />
    <path
       style="fill:#ffffff;stroke-width:0.00674916;stroke-miterlimit:4;stroke-dasharray:none"
       d="M 11.469286,58.339849 C 10.44679,58.196444 9.4796533,57.485608 8.9442557,56.483978 8.5644432,55.773417 8.5395832,55.481751 8.4548326,50.741908 L 8.3655469,45.748424 7.8813146,45.476963 C 7.4844908,45.254505 7.2951372,45.243983 6.832321,45.418676 l -0.5647612,0.213175 0.1095283,-0.662514 c 0.06024,-0.364382 0.1104126,-1.079338 0.1114935,-1.588788 l 0.00197,-0.926273 0.6048975,0.09816 c 0.4640934,0.07531 0.6927102,0.01036 0.9821429,-0.279084 0.790386,-0.790386 0.2836525,-1.984388 -0.8421727,-1.984388 -0.523668,0 -0.5662963,-0.04517 -0.5662963,-0.600076 0,-0.330043 0.050325,-0.967237 0.111833,-1.415987 0.1055182,-0.769839 0.1424611,-0.81504 0.6542486,-0.800489 0.8402972,0.02389 1.1215965,-0.488625 1.3650845,-2.487131 0.3247857,-2.665784 1.0270095,-5.903878 1.8145789,-8.367387 l 0.710292,-2.221787 h 4.259267 4.259267 l 0.06624,2.561611 0.06624,2.561611 0.748052,1.509632 c 1.02525,2.06904 2.314332,3.286923 4.647513,4.390818 2.174486,1.028811 3.528514,2.250235 4.267152,3.849256 l 0.51238,1.109215 -0.02853,7.824004 -0.02852,7.824001 -0.471398,0.712329 c -0.259268,0.391782 -0.844754,0.949105 -1.301079,1.238498 l -0.82968,0.526168 -7.598968,-0.02386 c -4.179432,-0.01312 -7.970142,-0.07592 -8.4238,-0.139543 z m 11.138931,-4.621952 c 0.19692,-0.163676 0.316038,-0.727719 0.4054,-1.919642 l 0.126544,-1.687861 h 1.496622 c 2.222868,0 2.210907,0.01962 2.210907,-3.626584 0,-3.677802 0.05406,-3.583972 -2.112979,-3.667395 l -1.606269,-0.06184 -0.126294,-1.68453 c -0.102112,-1.361983 -0.188289,-1.717707 -0.450066,-1.857806 -0.178073,-0.0953 -1.629678,-0.173277 -3.225786,-0.173277 -2.7338,0 -2.925973,0.02251 -3.315311,0.388271 -0.367828,0.345556 -0.413295,0.551826 -0.413295,1.875 v 1.486729 l -1.473215,0.0059 c -2.297063,0.0093 -2.276785,-0.02386 -2.276785,3.717909 0,3.677534 -0.05049,3.597573 2.271876,3.597573 h 1.478124 l 0.02113,1.205357 c 0.02979,1.699668 0.176854,2.229541 0.694078,2.500818 0.611408,0.320675 5.890352,0.237934 6.295322,-0.09867 z"
       id="path5406"
       inkscape:connector-curvature="0"
       transform="matrix(0.26458333,0,0,0.26458333,0,280.06665)" />
  </g>
</svg>
