<?xml version="1.0" encoding="UTF-8" standalone="no"?>
<svg
   xmlns:dc="http://purl.org/dc/elements/1.1/"
   xmlns:cc="http://creativecommons.org/ns#"
   xmlns:rdf="http://www.w3.org/1999/02/22-rdf-syntax-ns#"
   xmlns:svg="http://www.w3.org/2000/svg"
   xmlns="http://www.w3.org/2000/svg"
   xmlns:sodipodi="http://sodipodi.sourceforge.net/DTD/sodipodi-0.dtd"
   xmlns:inkscape="http://www.inkscape.org/namespaces/inkscape"
   width="64"
   height="64"
   viewBox="0 0 16.933333 16.933333"
   version="1.1"
   id="svg8"
   sodipodi:docname="seren_doctor_64x64.svg"
   inkscape:version="1.0.2-2 (e86c870879, 2021-01-15)">
  <defs
     id="defs2" />
  <sodipodi:namedview
     id="base"
     pagecolor="#ffffff"
     bordercolor="#666666"
     borderopacity="1.0"
     inkscape:pageopacity="0.0"
     inkscape:pageshadow="2"
     inkscape:zoom="5.4453128"
     inkscape:cx="97.433327"
     inkscape:cy="44.699985"
     inkscape:document-units="mm"
     inkscape:current-layer="layer1"
     inkscape:document-rotation="0"
     showgrid="false"
     inkscape:snap-global="false"
     fit-margin-top="0"
     fit-margin-left="0"
     fit-margin-right="0"
     fit-margin-bottom="0"
     inkscape:window-width="1540"
     inkscape:window-height="967"
     inkscape:window-x="1954"
     inkscape:window-y="32"
     inkscape:window-maximized="0"
     units="px" />
  <metadata
     id="metadata5">
    <rdf:RDF>
      <cc:Work
         rdf:about="">
        <dc:format>image/svg+xml</dc:format>
        <dc:type
           rdf:resource="http://purl.org/dc/dcmitype/StillImage" />
        <dc:title></dc:title>
      </cc:Work>
    </rdf:RDF>
  </metadata>
  <g
     inkscape:label="Calque 1"
     inkscape:groupmode="layer"
     id="layer1"
     transform="translate(-44.581036,-28.552681)">
    <path
       style="fill:#000000;stroke-width:0.0312807"
       d="m 51.357787,45.042306 c -0.663951,-0.102346 -1.241313,-0.407996 -1.768102,-0.936003 -0.641348,-0.642833 -1.08308,-1.514346 -1.284958,-2.53517 -0.06734,-0.340506 -0.07176,-0.446891 -0.08289,-1.990938 l -0.01173,-1.631209 -0.146346,-0.03686 c -0.434379,-0.109377 -0.932644,-0.495378 -1.172083,-0.907997 -0.196655,-0.338891 -0.257543,-0.581158 -0.255507,-1.016625 0.0016,-0.323164 0.01315,-0.407279 0.08381,-0.604801 0.214095,-0.598645 0.641086,-1.029611 1.236315,-1.247833 0.290627,-0.106549 0.751534,-0.131077 1.08191,-0.05758 0.388983,0.08654 0.652677,0.236811 0.958966,0.546485 0.27751,0.280575 0.409155,0.497911 0.513407,0.847591 0.301868,1.012527 -0.342134,2.161035 -1.367931,2.439561 l -0.150637,0.0409 0.01209,1.56722 c 0.01303,1.688212 0.01992,1.771125 0.198348,2.388707 0.353586,1.223812 1.179093,2.125269 2.12739,2.32311 1.026209,0.214091 2.074165,-0.407811 2.663364,-1.580559 0.415514,-0.827042 0.51884,-1.505738 0.501947,-3.297065 l -0.0093,-0.982285 -0.270802,-0.0844 c -0.519533,-0.161934 -0.944526,-0.483157 -1.220769,-0.922698 -0.09963,-0.158525 -2.62585,-4.532806 -2.69453,-4.665728 -0.02807,-0.0543 -0.08724,-0.223218 -0.131512,-0.375368 -0.150848,-0.518434 -0.08565,-1.185585 0.159938,-1.636666 0.133269,-0.244782 0.38453,-0.55557 0.569666,-0.704633 0.228028,-0.183596 0.688858,-0.410741 0.929769,-0.458286 0.163447,-0.03226 0.207102,-0.05761 0.345871,-0.200903 0.246829,-0.254866 0.541411,-0.322451 0.869848,-0.199566 0.189241,0.07081 0.369901,0.244933 0.448427,0.432227 0.0644,0.153579 0.06257,0.458879 -0.0037,0.614341 -0.224305,0.526423 -0.951843,0.647906 -1.326269,0.221458 l -0.102643,-0.116903 -0.190457,0.06431 c -0.378217,0.127726 -0.65924,0.371987 -0.836821,0.727355 -0.182784,0.365789 -0.205004,0.812619 -0.05831,1.172565 0.08164,0.200316 2.473871,4.365928 2.708523,4.716377 0.257704,0.384876 0.644174,0.604847 1.116541,0.63551 0.457474,0.0297 0.841926,-0.124423 1.14924,-0.460705 0.112425,-0.123021 0.534292,-0.825959 1.48054,-2.466951 0.727825,-1.262199 1.344945,-2.348948 1.371372,-2.414998 0.14005,-0.350016 0.123121,-0.788266 -0.04437,-1.148599 -0.166589,-0.358401 -0.55535,-0.687278 -0.930284,-0.78698 -0.131135,-0.03488 -0.134177,-0.03383 -0.234375,0.08029 -0.422356,0.481035 -1.247376,0.254497 -1.364939,-0.374788 -0.05472,-0.292885 0.06375,-0.613436 0.290668,-0.786518 0.330868,-0.252366 0.765662,-0.215158 1.064679,0.09111 0.13456,0.137827 0.186487,0.168896 0.330783,0.197929 0.563845,0.113443 1.074125,0.465318 1.408826,0.971489 0.406682,0.615034 0.483975,1.386451 0.207138,2.067398 -0.08581,0.211077 -2.63091,4.629515 -2.824509,4.903511 -0.28164,0.398601 -0.805597,0.75953 -1.245518,0.857979 l -0.174399,0.03903 v 1.180378 c 0,0.649208 -0.01424,1.326152 -0.03166,1.504321 -0.193424,1.980122 -1.327365,3.55227 -2.841605,3.939733 -0.280075,0.07166 -0.78554,0.09986 -1.052486,0.05871 z"
       id="path1279" />
  </g>
</svg>
