<?xml version="1.0" encoding="UTF-8" standalone="no"?>
<!-- Created with Inkscape (http://www.inkscape.org/) -->

<svg
   xmlns:dc="http://purl.org/dc/elements/1.1/"
   xmlns:cc="http://creativecommons.org/ns#"
   xmlns:rdf="http://www.w3.org/1999/02/22-rdf-syntax-ns#"
   xmlns:svg="http://www.w3.org/2000/svg"
   xmlns="http://www.w3.org/2000/svg"
   xmlns:sodipodi="http://sodipodi.sourceforge.net/DTD/sodipodi-0.dtd"
   xmlns:inkscape="http://www.inkscape.org/namespaces/inkscape"
   width="64"
   height="64"
   viewBox="0 0 16.933333 16.933334"
   version="1.1"
   id="svg8"
   inkscape:version="0.92.5 (2060ec1f9f, 2020-04-08)"
   sodipodi:docname="door_64x64.svg">
  <defs
     id="defs2" />
  <sodipodi:namedview
     id="base"
     pagecolor="#ffffff"
     bordercolor="#666666"
     borderopacity="1.0"
     inkscape:pageopacity="0.0"
     inkscape:pageshadow="2"
     inkscape:zoom="5.6"
     inkscape:cx="46.643533"
     inkscape:cy="20.640156"
     inkscape:document-units="mm"
     inkscape:current-layer="layer1"
     showgrid="false"
     units="px"
     inkscape:window-width="1208"
     inkscape:window-height="987"
     inkscape:window-x="1992"
     inkscape:window-y="0"
     inkscape:window-maximized="1"
     showguides="false" />
  <metadata
     id="metadata5">
    <rdf:RDF>
      <cc:Work
         rdf:about="">
        <dc:format>image/svg+xml</dc:format>
        <dc:type
           rdf:resource="http://purl.org/dc/dcmitype/StillImage" />
        <dc:title></dc:title>
      </cc:Work>
    </rdf:RDF>
  </metadata>
  <g
     inkscape:label="Layer 1"
     inkscape:groupmode="layer"
     id="layer1"
     transform="translate(0,-280.06665)">
    <path
       style="fill:#000000;stroke-width:0.03883337"
       d="m 6.4126367,296.40214 c -0.1195702,-0.0487 -0.1644769,-0.18691 -0.1644769,-0.5064 v -0.26929 H 3.4698089 0.69145794 l -0.0953182,-0.0953 c -0.0524272,-0.0524 -0.0953182,-0.13185 -0.0953182,-0.17651 0,-0.0446 0.0428961,-0.12408 0.0953182,-0.17652 l 0.0953182,-0.0953 H 1.7999743 2.90849 v -6.757 c 0,-6.70523 5.873e-4,-6.75761 0.077667,-6.83468 0.075139,-0.0751 0.1294449,-0.0777 1.6698351,-0.0777 h 1.592168 v -0.26931 c 0,-0.30885 0.041176,-0.44626 0.151421,-0.50526 0.058442,-0.0313 0.9645087,0.0588 3.6888769,0.36656 1.986272,0.2244 3.629847,0.40801 3.65239,0.40801 0.02253,0 0.07593,0.035 0.118652,0.0777 0.07707,0.0771 0.07767,0.12945 0.07767,6.83468 v 6.757 h 1.108515 1.108518 l 0.09532,0.0953 c 0.120951,0.12095 0.120951,0.23208 0,0.35303 l -0.09532,0.0953 h -1.227996 -1.227994 l -3.443483,0.38735 c -1.8939149,0.21305 -3.5133826,0.39564 -3.5988154,0.40575 -0.085434,0.0101 -0.1949071,0.002 -0.2432739,-0.0174 z m 1.2802777,-0.64087 c 1.8560836,-0.21044 5.6711566,-0.63966 5.6854796,-0.63966 0.0083,0 0.0151,-2.97076 0.0151,-6.60168 0,-3.63092 -0.0073,-6.60168 -0.01619,-6.60168 -0.01554,0 -3.886664,-0.43555 -5.6843971,-0.63956 -0.476207,-0.054 -0.8737642,-0.0983 -0.8834592,-0.0983 -0.0097,0 -0.01763,3.30279 -0.01763,7.33952 0,4.03673 0.00794,7.33951 0.01763,7.33951 0.0097,0 0.4072522,-0.0441 0.8834592,-0.0982 z m 0.016827,-6.48272 c -0.5757982,-0.20527 -0.7090236,-0.96147 -0.2416798,-1.3718 0.2971946,-0.26095 0.7191711,-0.26095 1.0163658,0 0.3866581,0.33948 0.3866581,0.88687 0,1.22636 -0.2206827,0.19377 -0.494777,0.24522 -0.774686,0.14544 z m 0.4412531,-0.56445 c 0.1603752,-0.16039 0.045767,-0.466 -0.17475,-0.466 -0.053397,0 -0.1320337,0.035 -0.1747502,0.0776 -0.1603752,0.16038 -0.045767,0.466 0.1747502,0.466 0.053397,0 0.1320336,-0.0349 0.17475,-0.0776 z m -3.9998371,0.233 c 0,-6.0839 6.606e-4,-6.13633 0.077667,-6.21334 0.073527,-0.0735 0.1294449,-0.0777 1.0485015,-0.0777 H 6.24816 v -0.3495 -0.3495 H 4.8501582 3.4521565 v 6.56285 6.56284 H 3.8016568 4.151157 Z m 2.0970021,0.19417 v -5.94151 H 5.4714919 4.6948242 v 5.94151 5.9415 h 0.7766677 0.7766672 z"
       id="path7744"
       inkscape:connector-curvature="0" />
    <path
       style="fill:#ffffff;stroke-width:0.00104836;stroke-miterlimit:4;stroke-dasharray:none"
       d="m 3.4746115,288.52995 v -6.5462 h 1.3869056 1.3869055 v 0.33155 0.33152 l -0.9837467,0.009 c -0.8892111,0.008 -0.9883598,0.0129 -1.0317422,0.0563 -0.036842,0.0369 -0.05273,0.12064 -0.068367,0.36059 -0.011205,0.17191 -0.021244,2.94317 -0.022304,6.15838 l -0.00197,5.84581 H 3.8074351 3.4745781 Z"
       id="path7746"
       inkscape:connector-curvature="0" />
    <path
       style="fill:#ffffff;stroke-width:0.00104836;stroke-miterlimit:4;stroke-dasharray:none"
       d="m 6.8179836,295.42761 c -0.025433,-0.57616 -0.00614,-14.18294 0.020123,-14.20921 0.011577,-0.0116 0.548309,0.0383 1.1927387,0.1109 2.4484777,0.27573 5.3289757,0.59897 5.3374517,0.59897 0.0048,0 0.0088,2.96354 0.0088,6.58562 v 6.5856 l -0.07628,0.0146 c -0.04195,0.009 -0.13869,0.0217 -0.21497,0.0302 -0.07628,0.009 -1.474281,0.16489 -3.1066694,0.34727 -1.6323877,0.18239 -3.0072777,0.33729 -3.0553103,0.34421 l -0.087331,0.0125 z m 1.4720256,-6.15969 c 0.4075932,-0.18979 0.5977623,-0.66797 0.4251842,-1.06915 -0.085303,-0.19828 -0.3152509,-0.40358 -0.5181228,-0.46255 -0.6472858,-0.18817 -1.2222901,0.48984 -0.9502398,1.12048 0.075194,0.1743 0.2814908,0.37155 0.4515907,0.43178 0.184093,0.0652 0.4254532,0.0568 0.5915877,-0.0205 z"
       id="path7748"
       inkscape:connector-curvature="0" />
    <path
       style="fill:#ffffff;stroke-width:0.00104836;stroke-miterlimit:4;stroke-dasharray:none"
       d="m 7.8306075,288.70177 c -0.1999014,-0.19991 9.09e-4,-0.53566 0.2448641,-0.40949 0.096525,0.05 0.1538657,0.17761 0.1295229,0.28845 -0.022569,0.10274 -0.09019,0.16538 -0.2028439,0.18792 -0.072715,0.0145 -0.1012353,0.004 -0.1715431,-0.0669 z"
       id="path7750"
       inkscape:connector-curvature="0" />
  </g>
</svg>
