<?xml version="1.0" encoding="UTF-8" standalone="no"?>
<!-- Created with Inkscape (http://www.inkscape.org/) -->

<svg
   xmlns:dc="http://purl.org/dc/elements/1.1/"
   xmlns:cc="http://creativecommons.org/ns#"
   xmlns:rdf="http://www.w3.org/1999/02/22-rdf-syntax-ns#"
   xmlns:svg="http://www.w3.org/2000/svg"
   xmlns="http://www.w3.org/2000/svg"
   xmlns:sodipodi="http://sodipodi.sourceforge.net/DTD/sodipodi-0.dtd"
   xmlns:inkscape="http://www.inkscape.org/namespaces/inkscape"
   width="64"
   height="64"
   viewBox="0 0 16.933333 16.933334"
   version="1.1"
   id="svg8"
   inkscape:version="0.92.5 (2060ec1f9f, 2020-04-08)"
   sodipodi:docname="drain_64x64.svg">
  <defs
     id="defs2" />
  <sodipodi:namedview
     id="base"
     pagecolor="#ffffff"
     bordercolor="#666666"
     borderopacity="1.0"
     inkscape:pageopacity="0.0"
     inkscape:pageshadow="2"
     inkscape:zoom="7.919596"
     inkscape:cx="15.587435"
     inkscape:cy="30.142336"
     inkscape:document-units="mm"
     inkscape:current-layer="layer1"
     showgrid="false"
     units="px"
     inkscape:window-width="1208"
     inkscape:window-height="987"
     inkscape:window-x="1992"
     inkscape:window-y="0"
     inkscape:window-maximized="1" />
  <metadata
     id="metadata5">
    <rdf:RDF>
      <cc:Work
         rdf:about="">
        <dc:format>image/svg+xml</dc:format>
        <dc:type
           rdf:resource="http://purl.org/dc/dcmitype/StillImage" />
        <dc:title></dc:title>
      </cc:Work>
    </rdf:RDF>
  </metadata>
  <g
     inkscape:label="Layer 1"
     inkscape:groupmode="layer"
     id="layer1"
     transform="translate(0,-280.06665)">
    <path
       style="fill:#000000;stroke-width:0.06922311"
       d="m 6.4378782,296.15388 c -2.7217862,-0.32646 -4.7104498,-1.41298 -5.44769096,-2.97636 -1.14916563,-2.4369 1.69761876,-5.00362 5.76031486,-5.1936 0.7363841,-0.0344 0.8799462,-0.0241 0.9566214,0.0682 0.068182,0.082 0.071548,0.14364 0.013706,0.25156 -0.065373,0.12213 -0.142594,0.14295 -0.5323999,0.14295 -1.0961374,0 -2.6580585,0.35235 -3.6575847,0.8251 -1.8423241,0.87137 -2.63600941,2.24051 -2.1099873,3.6398 0.2167934,0.57671 1.0550631,1.40469 1.8372458,1.8147 1.2032851,0.63075 2.5717528,0.93738 4.1834647,0.93738 3.2723549,0 5.9203109,-1.43074 6.1968929,-3.34828 0.06065,-0.42051 -0.113862,-1.09703 -0.396689,-1.53777 -0.234184,-0.36493 -0.213915,-0.54496 0.06608,-0.58689 0.166986,-0.0249 0.351744,0.21069 0.62437,0.79645 0.16128,0.34652 0.187047,0.49157 0.188126,1.05912 0.0011,0.57176 -0.02321,0.70982 -0.186113,1.05746 -0.445228,0.95014 -1.119658,1.58339 -2.304667,2.16396 -0.918424,0.44995 -1.7228296,0.68956 -2.7804031,0.82819 -0.7176279,0.094 -1.8783655,0.12212 -2.4113308,0.0581 z m 0.053227,-1.82782 c -1.5411853,-0.20047 -2.878197,-0.94077 -3.2740404,-1.81283 -0.1776377,-0.39133 -0.1771798,-1.0284 0.00102,-1.42104 0.3147771,-0.69352 1.2799395,-1.33887 2.4764219,-1.65581 0.5861842,-0.15528 0.8141367,-0.17857 1.7471006,-0.17857 0.9329638,0 1.1609164,0.0232 1.7471006,0.17857 0.7679581,0.20343 1.5043471,0.56502 1.9505161,0.95776 0.656763,0.57809 0.850937,1.45623 0.484572,2.19142 -0.624536,1.25328 -2.9128532,2.02926 -5.1326908,1.7405 z m 1.7592017,-0.66042 c 0.2612839,-0.19438 0.2813085,-0.39202 0.057548,-0.56803 -0.4243499,-0.33378 -1.3511549,-0.32326 -1.7500933,0.02 -0.1603423,0.13793 -0.1741732,0.18027 -0.1070626,0.32758 0.130033,0.28538 0.4701729,0.40756 1.0727558,0.38529 0.4106789,-0.0156 0.5762293,-0.0528 0.7268421,-0.16465 z M 5.930603,293.43099 c -0.017748,-0.18608 -0.05229,-0.26026 -0.1056572,-0.22682 -0.043616,0.0274 -0.2506228,0.085 -0.4600219,0.12822 l -0.380727,0.0784 0.449949,0.14452 c 0.2474738,0.0795 0.4663491,0.14625 0.4863911,0.14833 0.020039,0.002 0.024566,-0.12057 0.010057,-0.27261 z m 3.5216617,0.12613 0.4454068,-0.15042 -0.3800485,-0.0764 c -0.2090261,-0.042 -0.4157308,-0.0987 -0.4593436,-0.12613 -0.053367,-0.0335 -0.087909,0.0409 -0.1056572,0.22683 -0.014574,0.15215 -0.00815,0.27651 0.01388,0.27651 0.022172,0 0.240739,-0.0677 0.4857128,-0.1504 z M 5.7568401,292.6425 c 0.1728512,-0.14868 0.1818519,-0.17733 0.090389,-0.28762 -0.1266845,-0.15268 -0.4909314,-0.3087 -0.7209692,-0.3087 -0.2544883,0 -0.7128412,0.20034 -0.7641275,0.33399 -0.02913,0.0759 0.017869,0.16898 0.1369728,0.27151 0.2677968,0.23035 0.9853639,0.2251 1.257741,-0.008 z m 4.6272819,0.008 c 0.232778,-0.20024 0.17718,-0.35323 -0.180331,-0.49627 -0.3198523,-0.12804 -0.5332748,-0.13742 -0.8019945,-0.0352 -0.3193955,0.12143 -0.4444129,0.26784 -0.3613028,0.42313 0.09877,0.18452 0.306269,0.25474 0.7681473,0.25988 0.31317,0.003 0.431432,-0.0275 0.575481,-0.15165 z m -6.1792393,-0.84245 0.1668136,-0.1093 -0.2821465,-0.30061 -0.2821448,-0.30059 -0.1193285,0.24875 c -0.1490131,0.31061 -0.1533851,0.56107 -0.015615,0.89088 l 0.1073574,0.25695 0.1291136,-0.2884 c 0.071011,-0.15856 0.2041804,-0.33758 0.2959236,-0.39769 z m 7.0076083,0.44807 c 0.137232,-0.26537 0.134248,-0.63094 -0.0077,-0.92835 l -0.113186,-0.23736 -0.28484,0.28693 -0.28484,0.28694 0.259588,0.24887 c 0.142768,0.13689 0.259586,0.31599 0.259586,0.39803 0,0.20228 0.04582,0.18755 0.171289,-0.055 z m -2.9177135,-0.10618 c 0.5809933,-0.27576 0.5811269,-0.65945 3.4e-4,-0.94237 -0.4437534,-0.21617 -1.2401627,-0.22871 -1.6450954,-0.0259 -0.374823,0.18773 -0.5630907,0.45255 -0.4594269,0.64625 0.077968,0.14574 0.3662195,0.32498 0.6967931,0.43335 0.2822627,0.0926 1.1169219,0.0265 1.4073996,-0.11138 z m -2.7440036,-0.93877 c 0.618329,-0.22954 0.2908402,-0.68957 -0.4903849,-0.68885 -0.3438475,2.7e-4 -0.7531627,0.22718 -0.7210284,0.39963 0.051927,0.27868 0.7748511,0.45129 1.2114133,0.28922 z m 4.7287791,-0.0489 c 0.324749,-0.16239 0.343254,-0.32505 0.05684,-0.49966 -0.3677682,-0.22422 -1.0717092,-0.16291 -1.280593,0.11155 -0.2844036,0.37369 0.6560395,0.67192 1.223752,0.38809 z m -2.1811696,-0.7833 c 0.2915255,-0.14138 0.2995582,-0.30912 0.022866,-0.47782 -0.4656204,-0.28388 -1.5795445,-0.11276 -1.5795445,0.24254 0,0.0597 0.1320975,0.16984 0.294199,0.24563 0.3391216,0.15839 0.9243829,0.15354 1.2624739,-0.0104 z M 6.031615,289.9197 C 6.016,289.9041 5.898459,289.9187 5.7705409,289.9518 l -0.2325656,0.0607 0.2076693,0.1015 c 0.1922234,0.094 0.2116407,0.0916 0.2610741,-0.0321 0.029373,-0.0735 0.040579,-0.1466 0.024897,-0.16222 z m 3.2790195,0.10276 c 0,-0.0297 -0.038932,-0.0545 -0.086538,-0.055 -0.047589,-5.2e-4 -0.1527953,-0.0188 -0.2338009,-0.0405 -0.1262681,-0.0339 -0.1426286,-0.0156 -0.1146789,0.13099 0.030032,0.15701 0.048422,0.16448 0.2338009,0.0945 0.1106712,-0.0419 0.2012155,-0.10026 0.2012155,-0.12995 z m 2.9765915,-0.43859 c -1.616369,-0.34716 -3.9428088,-1.55497 -4.9866919,-2.58892 -0.6972805,-0.69065 -0.7588775,-0.86553 -0.7585652,-2.1536 2.082e-4,-0.94928 0.015787,-1.09394 0.1398701,-1.29741 0.3736258,-0.61282 1.5749365,-0.66772 3.1645939,-0.14452 l 0.4319741,0.1421 0.364092,-0.17485 c 0.200252,-0.0961 0.477316,-0.19485 0.615703,-0.21929 0.214829,-0.038 0.299652,-0.11468 0.580277,-0.52548 0.36517,-0.53444 0.808063,-0.95159 1.375412,-1.29544 0.829316,-0.50261 2.134891,-0.77253 2.59239,-0.53595 0.450744,0.23309 0.549273,0.87446 0.186669,1.21511 -0.125314,0.1178 -0.318667,0.18059 -0.752511,0.24466 -0.321126,0.0473 -0.757746,0.16586 -0.970266,0.26313 -0.418873,0.19177 -1.035385,0.72429 -1.194302,1.0316 -0.09108,0.17613 -0.08549,0.21343 0.06881,0.45782 0.1823,0.28878 0.318259,0.70702 0.319067,0.98152 4.19e-4,0.1303 0.07979,0.22316 0.321186,0.37566 0.535101,0.33808 1.520475,1.32435 1.716838,1.71838 0.221421,0.44434 0.238,0.92528 0.04054,1.1763 -0.17629,0.22411 -1.573463,1.2678 -1.825448,1.36359 -0.259033,0.0985 -0.880584,0.0836 -1.429656,-0.0344 z m 1.609627,-0.67363 c 0.366752,-0.24799 0.367402,-0.24712 -0.294386,-0.39621 -0.925844,-0.20857 -3.473195,-1.31573 -4.1745304,-1.81438 -0.2185162,-0.15527 -0.2339293,-0.41763 -0.026856,-0.45711 0.068773,-0.0139 0.6917844,0.25825 1.3844634,0.60303 1.775574,0.8838 3.372196,1.40309 3.969514,1.29104 0.618585,-0.11607 0.571046,-0.6241 -0.130191,-1.39137 -0.32003,-0.35016 -1.115256,-0.99946 -1.224095,-0.99946 -0.02726,0 -0.09968,0.10514 -0.160984,0.2337 -0.177676,0.37259 -0.434077,0.42148 -0.944489,0.1801 -0.477496,-0.22582 -0.563567,-0.39359 -0.439803,-0.85727 0.09266,-0.34719 0.01959,-0.49874 -0.271287,-0.56264 -0.197902,-0.0434 -0.243025,-0.0201 -0.456268,0.23667 -0.17952,0.21613 -0.286056,0.28489 -0.441332,0.28489 -0.219946,0 -0.668679,-0.2025 -0.8495682,-0.3834 -0.1395577,-0.13949 -0.142646,-0.46229 -0.00694,-0.72473 l 0.1041304,-0.20136 -0.4675481,-0.14538 c -1.0310775,-0.32079 -2.0235998,-0.34631 -2.3104913,-0.0593 -0.2531454,0.25314 0.039939,0.75735 0.8054638,1.38566 0.5334042,0.43779 0.5924909,0.53478 0.41537,0.68178 -0.1632395,0.13549 -0.3906263,0.0339 -0.8454626,-0.37772 -0.2327756,-0.21065 -0.4416906,-0.383 -0.4642568,-0.383 -0.022571,0 -0.041031,0.16516 -0.041031,0.36717 0,0.28443 0.044154,0.43653 0.1959014,0.67493 0.7639019,1.20005 3.6113094,2.76267 5.5842274,3.06453 0.388965,0.0595 0.757819,-0.0249 1.090453,-0.24996 z m -1.047017,-3.31995 c 0.122364,-0.29023 0.121219,-0.78539 -0.0024,-1.07893 l -0.09731,-0.23094 -0.176079,0.22498 c -0.126927,0.16222 -0.177714,0.31358 -0.181935,0.54245 -0.0033,0.1746 -0.03056,0.36969 -0.0608,0.43353 -0.04101,0.0869 -0.0053,0.14297 0.140893,0.2222 0.265583,0.144 0.26979,0.14262 0.377707,-0.11329 z m -1.832684,-1.27295 c 0.134214,-0.11608 0.29634,-0.64798 0.197495,-0.64798 -0.223132,0 -1.004113,0.64857 -1.004113,0.83388 0,0.0226 0.101234,0.0892 0.224975,0.14816 0.215201,0.10254 0.229486,0.10047 0.328809,-0.0489 0.05711,-0.0858 0.170891,-0.21418 0.252834,-0.28502 z m 1.398411,-0.60905 c 0.591995,-1.19469 1.737714,-1.97717 2.894977,-1.97717 0.379176,0 0.52015,-0.1946 0.300276,-0.41447 -0.148822,-0.14886 -0.276309,-0.14816 -1.069515,0.005 -0.936173,0.18191 -2.049833,1.07447 -2.551989,2.04529 -0.338894,0.6552 -0.342786,0.92439 -0.01337,0.92439 0.11938,0 0.209578,-0.11988 0.439618,-0.58406 z"
       id="path10363"
       inkscape:connector-curvature="0" />
    <path
       style="fill:none;stroke:#000000;stroke-width:0.00784892;stroke-linecap:butt;stroke-linejoin:miter;stroke-miterlimit:4;stroke-dasharray:none;stroke-opacity:1"
       d="m 7.3861163,288.21534 2.7970357,0.27971"
       id="path10365"
       inkscape:connector-curvature="0" />
    <path
       style="fill:none;stroke:#000000;stroke-width:0.00784892;stroke-linecap:butt;stroke-linejoin:miter;stroke-miterlimit:4;stroke-dasharray:none;stroke-opacity:1"
       d="m 13.329817,290.41799 -1.818074,-1.29361"
       id="path10367"
       inkscape:connector-curvature="0" />
    <path
       style="fill:#ffffff;stroke-width:0.0039643;stroke-miterlimit:4;stroke-dasharray:none"
       d="m 6.6487103,295.62239 c -1.5112074,-0.12527 -2.8295218,-0.52731 -3.7576035,-1.14584 -0.6043369,-0.40277 -1.2088074,-1.04042 -1.4162495,-1.494 -0.2200463,-0.48116 -0.2479232,-1.1007 -0.072884,-1.61979 0.3215398,-0.95353 1.3226864,-1.80326 2.7294076,-2.31657 0.4708964,-0.17176 1.2242049,-0.36741 1.784046,-0.46316 0.3316996,-0.0568 1.266282,-0.1362 1.6352514,-0.13914 0.034577,-2.8e-4 0.098994,-0.0395 0.143149,-0.0872 l 0.080292,-0.0865 0.7484036,0.0747 0.7484037,0.0748 0.5594075,0.27147 c 0.6707089,0.32548 1.3094959,0.58319 1.8562649,0.74894 0.377475,0.11432 0.434199,0.14417 0.894584,0.47007 0.479154,0.33917 0.491716,0.35132 0.498062,0.48218 0.0041,0.0843 0.06692,0.24506 0.168792,0.43196 0.330936,0.6071 0.449601,1.22833 0.326592,1.70976 -0.412703,1.6152 -2.502683,2.83989 -5.2477056,3.07504 -0.3865286,0.0332 -1.3474924,0.0409 -1.6782203,0.0139 z m 1.7681626,-1.28965 c 1.7412731,-0.24288 3.0211601,-1.02019 3.3245861,-2.01917 0.0605,-0.19918 0.07023,-0.3022 0.0563,-0.5958 -0.02478,-0.52231 -0.184415,-0.87224 -0.573661,-1.25757 -0.457487,-0.45288 -1.3677899,-0.89104 -2.3122268,-1.11294 -0.2541151,-0.0596 -0.4639862,-0.0747 -1.2530776,-0.0897 -1.0570425,-0.02 -1.3496298,0.005 -1.9575597,0.16518 -1.1915778,0.31471 -2.1557842,0.94996 -2.4814808,1.63488 -0.1919996,0.40376 -0.1938074,1.07481 -0.00398,1.48903 0.3810756,0.83165 1.712147,1.56685 3.2393035,1.78918 0.4373707,0.0637 1.4947117,0.0619 1.9618242,-0.003 z"
       id="path10371"
       inkscape:connector-curvature="0" />
    <path
       style="fill:#ffffff;stroke-width:0.0039643;stroke-miterlimit:4;stroke-dasharray:none"
       d="m 3.6919956,292.24 c -0.1239781,-0.31034 -0.1173507,-0.5991 0.020456,-0.89085 l 0.1055184,-0.22342 0.259719,0.28812 c 0.2397431,0.26591 0.2544847,0.29099 0.1916681,0.3258 -0.127205,0.0704 -0.2704964,0.25185 -0.3815441,0.48286 l -0.1107579,0.23042 z"
       id="path10373"
       inkscape:connector-curvature="0" />
    <path
       style="fill:#ffffff;stroke-width:0.0039643;stroke-miterlimit:4;stroke-dasharray:none"
       d="m 4.8078627,292.76736 c -0.1949333,-0.055 -0.3243712,-0.13532 -0.3970873,-0.24638 -0.077239,-0.11779 -0.039556,-0.17505 0.1993192,-0.30238 0.4004374,-0.21343 0.8418678,-0.17352 1.1536746,0.10427 l 0.1507135,0.13429 -0.087405,0.0956 c -0.1898187,0.20763 -0.6791506,0.31065 -1.0192177,0.21455 z"
       id="path10375"
       inkscape:connector-curvature="0" />
    <path
       style="fill:#ffffff;stroke-width:0.0039643;stroke-miterlimit:4;stroke-dasharray:none"
       d="m 5.4774521,293.55212 c -0.2764248,-0.0902 -0.3802221,-0.13775 -0.332149,-0.15198 0.038464,-0.0121 0.1879259,-0.0478 0.332149,-0.081 0.1442247,-0.0334 0.2881822,-0.0737 0.3199106,-0.09 0.070611,-0.036 0.0915,0.0105 0.121983,0.26934 0.012318,0.1041 0.00833,0.18835 -0.00885,0.18716 -0.017003,-10e-4 -0.2119703,-0.0612 -0.4331097,-0.13361 z"
       id="path10377"
       inkscape:connector-curvature="0" />
    <path
       style="fill:#ffffff;stroke-width:0.0039643;stroke-miterlimit:4;stroke-dasharray:none"
       d="m 7.068265,293.79382 c -0.3315279,-0.0543 -0.5258835,-0.17816 -0.6143353,-0.39172 -0.039417,-0.0951 -0.034127,-0.11138 0.071982,-0.22081 0.1833665,-0.1892 0.4169211,-0.27107 0.8274072,-0.29007 0.4518174,-0.0208 0.7830885,0.0664 0.9733738,0.25676 0.1363482,0.13637 0.146324,0.18276 0.070681,0.32902 -0.06178,0.11955 -0.1993783,0.22193 -0.3676388,0.27375 -0.1683055,0.0518 -0.749023,0.0779 -0.9614807,0.043 z"
       id="path10379"
       inkscape:connector-curvature="0" />
    <path
       style="fill:#ffffff;stroke-width:0.0039643;stroke-miterlimit:4;stroke-dasharray:none"
       d="m 8.9742817,293.5066 c 8.293e-4,-0.28801 0.00728,-0.29137 0.3879268,-0.20252 0.1805525,0.0422 0.3518769,0.0846 0.3807218,0.0941 0.042106,0.0139 -0.27546,0.13742 -0.7062744,0.27417 -0.055223,0.0175 -0.062839,-0.003 -0.062371,-0.16585 z"
       id="path10381"
       inkscape:connector-curvature="0" />
    <path
       style="fill:#ffffff;stroke-width:0.0039643;stroke-miterlimit:4;stroke-dasharray:none"
       d="M 9.3758191,292.7463 C 9.05112,292.6679 8.9443472,292.449 9.1474745,292.27808 c 0.1577572,-0.13272 0.425587,-0.20871 0.6773132,-0.19211 0.2716553,0.0179 0.6002563,0.16239 0.6581093,0.28937 0.03654,0.0802 0.02986,0.10182 -0.06102,0.19743 -0.167889,0.17659 -0.258446,0.20636 -0.6160269,0.20242 -0.1788279,-0.002 -0.3723419,-0.0156 -0.4300318,-0.029 z"
       id="path10383"
       inkscape:connector-curvature="0" />
    <path
       style="fill:#ffffff;stroke-width:0.0039643;stroke-miterlimit:4;stroke-dasharray:none"
       d="m 11.072614,292.38198 c -0.0021,-0.12439 -0.122764,-0.31925 -0.319368,-0.51586 l -0.198224,-0.19821 0.270329,-0.26874 0.270328,-0.26876 0.08163,0.1861 c 0.08519,0.19423 0.127604,0.53957 0.09037,0.73606 -0.02691,0.1421 -0.193495,0.42335 -0.19508,0.32941 z"
       id="path10385"
       inkscape:connector-curvature="0" />
    <path
       style="fill:#ffffff;stroke-width:0.0039643;stroke-miterlimit:4;stroke-dasharray:none"
       d="m 9.5303718,291.24002 c -0.2161098,-0.0366 -0.4460505,-0.15875 -0.4930584,-0.26183 -0.129738,-0.28473 0.5573759,-0.53593 1.0634876,-0.3888 0.23572,0.0686 0.411314,0.20496 0.411314,0.31958 0,0.21068 -0.5657173,0.40143 -0.9817432,0.33105 z"
       id="path10387"
       inkscape:connector-curvature="0" />
    <path
       style="fill:#ffffff;stroke-width:0.0039643;stroke-miterlimit:4;stroke-dasharray:none"
       d="m 8.9290781,290.16672 c -0.0085,-0.0156 -0.026493,-0.0732 -0.039834,-0.12891 l -0.024237,-0.10109 0.1641418,0.0226 c 0.090286,0.0121 0.1855421,0.0226 0.2117031,0.0226 0.080101,0 0.052968,0.0654 -0.048578,0.11711 -0.1425939,0.0725 -0.245595,0.0991 -0.2631855,0.0681 z"
       id="path10389"
       inkscape:connector-curvature="0" />
    <path
       style="fill:#ffffff;stroke-width:0.0039643;stroke-miterlimit:4;stroke-dasharray:none"
       d="m 6.8235235,292.21559 c -0.2792231,-0.094 -0.5837588,-0.30156 -0.6278434,-0.42771 -0.077898,-0.22291 0.2842336,-0.56208 0.7193437,-0.67374 0.3114407,-0.08 0.9477818,-0.0523 1.2246749,0.0533 0.519943,0.19815 0.6986391,0.49764 0.4500045,0.75415 -0.1574276,0.16239 -0.361955,0.2523 -0.7137728,0.31366 -0.4265221,0.0744 -0.7937063,0.0675 -1.0524069,-0.0196 z"
       id="path10391"
       inkscape:connector-curvature="0" />
    <path
       style="fill:#ffffff;stroke-width:0.0039643;stroke-miterlimit:4;stroke-dasharray:none"
       d="m 7.2183867,290.46827 c -0.243324,-0.0269 -0.5657659,-0.1702 -0.6343564,-0.28196 -0.059022,-0.0961 0.057097,-0.22477 0.2820841,-0.31246 0.1613831,-0.0629 0.27618,-0.0793 0.5692617,-0.0815 0.4200527,-0.003 0.6244048,0.055 0.7866312,0.22441 0.085012,0.0887 0.093859,0.11555 0.061572,0.18633 -0.045057,0.099 -0.2965481,0.22412 -0.5054112,0.25167 -0.2915307,0.0385 -0.3274055,0.0393 -0.5597873,0.0139 z"
       id="path10393"
       inkscape:connector-curvature="0" />
    <path
       style="fill:#ffffff;stroke-width:0.0039643;stroke-miterlimit:4;stroke-dasharray:none"
       d="m 5.7258419,290.09037 c -0.1399394,-0.0745 -0.1104977,-0.10337 0.1352378,-0.13256 l 0.1755212,-0.0208 -0.038255,0.10966 c -0.043824,0.12578 -0.1010944,0.13498 -0.2725071,0.0435 z"
       id="path10395"
       inkscape:connector-curvature="0" />
    <path
       style="fill:#ffffff;stroke-width:0.0039643;stroke-miterlimit:4;stroke-dasharray:none"
       d="m 4.9553195,291.23405 c -0.2782601,-0.0319 -0.5320475,-0.15615 -0.5763384,-0.28202 -0.041327,-0.11745 0.00607,-0.17682 0.2396823,-0.29966 0.1535587,-0.0807 0.2186931,-0.0931 0.4916774,-0.0931 0.3602305,-1.3e-4 0.5962225,0.082 0.7029711,0.245 0.055275,0.0843 0.056559,0.10445 0.011624,0.18364 -0.1073575,0.18958 -0.4695416,0.29215 -0.8696805,0.2463 z"
       id="path10397"
       inkscape:connector-curvature="0" />
    <path
       style="fill:#ffffff;stroke-width:0.0039643;stroke-miterlimit:4;stroke-dasharray:none"
       d="m 12.775394,289.14024 c -1.261815,-0.18897 -3.1785361,-1.0443 -4.4417977,-1.98212 -0.6316464,-0.46892 -1.1059625,-0.98437 -1.230435,-1.33716 -0.053853,-0.15268 -0.074637,-0.73496 -0.026163,-0.73293 0.0144,6e-4 0.1992896,0.15024 0.4108141,0.33254 0.546463,0.47093 0.7274753,0.54814 0.9123823,0.38908 0.142351,-0.12248 0.096705,-0.22136 -0.2394359,-0.51878 -0.9546245,-0.84468 -1.2162588,-1.23866 -1.0028,-1.51002 0.109023,-0.13863 0.396246,-0.20877 0.8368175,-0.20442 0.4519788,0.005 0.8606225,0.0734 1.4439094,0.24362 0.3490194,0.10182 0.4435297,0.14209 0.4295705,0.18301 -0.0099,0.0288 -0.051858,0.14991 -0.093357,0.26905 -0.1446584,0.41522 -0.034803,0.63854 0.4225408,0.85893 0.157619,0.0761 0.295141,0.11397 0.448761,0.12438 l 0.221504,0.0156 0.259692,-0.27088 0.259695,-0.27089 0.148146,0.0236 c 0.302183,0.0482 0.380025,0.17587 0.311017,0.50998 -0.05482,0.2654 -0.05094,0.47239 0.01111,0.59235 0.09092,0.17581 0.560035,0.41988 0.85918,0.447 0.272638,0.0247 0.384719,-0.0414 0.545887,-0.3215 0.151251,-0.26296 0.122244,-0.26667 0.557246,0.0712 1.699439,1.32038 1.794263,2.352 0.184626,2.00858 -0.844987,-0.1803 -1.766969,-0.53496 -3.299868,-1.26935 -1.1398545,-0.54611 -1.3095845,-0.60728 -1.4090064,-0.50786 -0.06107,0.0611 -0.049931,0.24373 0.020004,0.32827 0.1244118,0.15041 0.5886497,0.41373 1.4184754,0.80454 1.252004,0.58968 2.182509,0.94055 3.143411,1.18533 0.129808,0.0332 0.235969,0.0781 0.235932,0.1 -1.03e-4,0.0591 -0.309977,0.25946 -0.545544,0.35279 -0.247144,0.0978 -0.518891,0.12769 -0.792293,0.0868 z"
       id="path10399"
       inkscape:connector-curvature="0" />
    <path
       style="fill:#ffffff;stroke-width:0.0039643;stroke-miterlimit:4;stroke-dasharray:none"
       d="m 10.398486,284.61261 c -0.09135,-0.0475 -0.166067,-0.0996 -0.166067,-0.11588 0,-0.14417 0.788773,-0.80839 0.960087,-0.80839 0.01041,0 0.01853,0.0511 0.01812,0.11364 -10e-4,0.15805 -0.116084,0.39551 -0.275261,0.56819 -0.07393,0.0802 -0.161869,0.18773 -0.195435,0.23896 -0.07462,0.11381 -0.128195,0.11434 -0.341425,0.003 z"
       id="path10401"
       inkscape:connector-curvature="0" />
    <path
       style="fill:#ffffff;stroke-width:0.0039643;stroke-miterlimit:4;stroke-dasharray:none"
       d="m 11.805743,284.21285 c -0.03846,-0.0385 -0.06983,-0.0895 -0.06973,-0.11363 9.18e-4,-0.20586 0.309569,-0.84551 0.586259,-1.21495 0.440258,-0.58786 1.179708,-1.17416 1.766012,-1.40027 0.322557,-0.12439 0.890666,-0.24241 1.190395,-0.24727 0.177995,-0.003 0.216862,0.008 0.305927,0.0943 0.122277,0.11711 0.131299,0.23869 0.02296,0.30968 -0.04604,0.0302 -0.242291,0.0671 -0.469741,0.0887 -0.470418,0.0445 -0.771434,0.13133 -1.155392,0.33396 -0.364686,0.19244 -0.625702,0.39335 -0.935496,0.72012 -0.281635,0.29707 -0.419121,0.49673 -0.695281,1.00974 -0.264093,0.49059 -0.383273,0.58218 -0.545903,0.41956 z"
       id="path10405"
       inkscape:connector-curvature="0" />
    <path
       style="fill:#ffffff;stroke-width:0.0039643;stroke-miterlimit:4;stroke-dasharray:none"
       d="m 12.537473,285.71708 c -0.191073,-0.101 -0.218181,-0.14817 -0.174819,-0.30436 0.02039,-0.0734 0.03716,-0.20573 0.03727,-0.29402 2.77e-4,-0.23049 0.07722,-0.454 0.221186,-0.64255 l 0.125316,-0.16412 0.05618,0.13394 c 0.09449,0.22534 0.131837,0.46899 0.112024,0.73087 -0.01956,0.2586 -0.142837,0.61052 -0.212893,0.60776 -0.02167,-8.5e-4 -0.09559,-0.0313 -0.164263,-0.0676 z"
       id="path10407"
       inkscape:connector-curvature="0" />
  </g>
</svg>
