<?xml version="1.0" encoding="UTF-8" standalone="no"?>
<!-- Created with Inkscape (http://www.inkscape.org/) -->

<svg
   xmlns:dc="http://purl.org/dc/elements/1.1/"
   xmlns:cc="http://creativecommons.org/ns#"
   xmlns:rdf="http://www.w3.org/1999/02/22-rdf-syntax-ns#"
   xmlns:svg="http://www.w3.org/2000/svg"
   xmlns="http://www.w3.org/2000/svg"
   xmlns:sodipodi="http://sodipodi.sourceforge.net/DTD/sodipodi-0.dtd"
   xmlns:inkscape="http://www.inkscape.org/namespaces/inkscape"
   width="64"
   height="64"
   viewBox="0 0 16.933333 16.933334"
   version="1.1"
   id="svg8"
   inkscape:version="0.92.5 (2060ec1f9f, 2020-04-08)"
   sodipodi:docname="dress_64x64.svg">
  <defs
     id="defs2" />
  <sodipodi:namedview
     id="base"
     pagecolor="#ffffff"
     bordercolor="#666666"
     borderopacity="1.0"
     inkscape:pageopacity="0.0"
     inkscape:pageshadow="2"
     inkscape:zoom="7.919596"
     inkscape:cx="19.233861"
     inkscape:cy="33.202157"
     inkscape:document-units="mm"
     inkscape:current-layer="layer1"
     showgrid="false"
     units="px"
     inkscape:window-width="1208"
     inkscape:window-height="987"
     inkscape:window-x="1992"
     inkscape:window-y="0"
     inkscape:window-maximized="1" />
  <metadata
     id="metadata5">
    <rdf:RDF>
      <cc:Work
         rdf:about="">
        <dc:format>image/svg+xml</dc:format>
        <dc:type
           rdf:resource="http://purl.org/dc/dcmitype/StillImage" />
        <dc:title></dc:title>
      </cc:Work>
    </rdf:RDF>
  </metadata>
  <g
     inkscape:label="Layer 1"
     inkscape:groupmode="layer"
     id="layer1"
     transform="translate(0,-280.06665)">
    <path
       style="fill:#000000;stroke-width:0.0311391"
       d="M 7.5689479,296.46185 C 7.1276,296.42275 6.4893213,296.31724 6.0597326,296.21234 5.572129,296.09328 5.0135847,295.91111 4.9542917,295.85181 c -0.1352071,-0.1352 -0.05594,-0.36104 0.1333524,-0.37992 0.053396,-0.005 0.2504147,0.0398 0.4378176,0.10053 2.1087453,0.6817 4.3656895,0.57499 6.4963773,-0.30717 0.238663,-0.0988 1.09151,-0.52017 1.226926,-0.60618 0.03443,-0.0217 -3.99e-4,-0.0877 -0.164997,-0.31197 -0.518955,-0.70704 -1.139335,-1.69197 -1.746922,-2.77343 -0.573745,-1.02124 -1.5103131,-2.93266 -1.5103131,-3.08235 0,-0.26135 0.3336551,-0.32348 0.4466941,-0.0832 0.02544,0.0541 0.167351,0.35755 0.315355,0.6744 0.80409,1.72134 1.973569,3.75941 2.801379,4.88199 l 0.144209,0.19557 0.209148,-0.11616 c 0.294159,-0.16337 0.717842,-0.4206 0.957031,-0.58107 l 0.203198,-0.13631 -0.273137,-0.29415 c -1.336758,-1.43964 -2.748197,-3.38701 -4.059024,-5.60025 l -0.138319,-0.23353 H 8.3497499 6.2664321 l -0.4246522,0.70218 c -1.2100122,2.00079 -2.443681,3.68026 -3.7611,5.12023 -0.1412935,0.15444 -0.2568972,0.2908 -0.2568972,0.30302 0,0.0534 1.3289438,0.86516 1.3537242,0.82688 0.00291,-0.005 0.090213,-0.1274 0.1939242,-0.27297 0.9132769,-1.28195 2.0482783,-3.28791 2.8743364,-5.08 0.2214135,-0.48034 0.2783302,-0.55617 0.4174116,-0.55617 0.089549,0 0.2051387,0.12759 0.2051387,0.22646 0,0.26081 -1.2737357,2.76341 -2.1114739,4.14857 -0.3256137,0.53839 -0.9036506,1.41086 -1.1552985,1.74379 -0.2268313,0.30009 -0.2541315,0.25786 0.3722098,0.57568 0.2382246,0.12087 0.4474722,0.24655 0.4649932,0.2793 0.08253,0.15421 -0.026753,0.34387 -0.1981328,0.34387 -0.1020625,0 -0.7891339,-0.34351 -1.1230083,-0.56146 -0.2597918,-0.16961 -0.327868,-0.26544 -0.2734213,-0.38493 0.032684,-0.0717 0.01987,-0.0825 -0.3436228,-0.28804 -0.2076647,-0.11745 -0.507214,-0.30012 -0.6656649,-0.40593 -0.5893784,-0.39361 -0.659696,-0.46348 -0.6211125,-0.61722 0.011405,-0.0455 0.1973336,-0.26723 0.4131704,-0.49284 0.3809602,-0.39822 1.0462856,-1.17791 1.492595,-1.74917 0.6909163,-0.88436 1.6922094,-2.35609 2.3591959,-3.4676 l 0.3990906,-0.66507 -0.014618,-0.81402 c -0.014035,-0.78151 -0.019002,-0.8352 -0.1243896,-1.34341 -0.060373,-0.29117 -0.1756615,-0.79991 -0.2561899,-1.13054 -0.1023928,-0.42044 -0.1404797,-0.63282 -0.1266722,-0.70644 0.026642,-0.14202 0.2340427,-0.44616 0.3893885,-0.571 0.1017229,-0.0817 0.1265072,-0.12175 0.1265072,-0.2042 0,-0.18623 0.1217451,-0.59069 0.266026,-0.88378 0.1035143,-0.21029 0.1988005,-0.34766 0.351012,-0.50602 0.3187049,-0.3316 0.4240902,-0.29978 0.6620106,0.19989 0.1813449,0.38084 0.2999764,0.73463 0.3496284,1.04266 0.029065,0.18032 0.050517,0.23538 0.099442,0.25518 0.034307,0.0138 0.2176194,0.0894 0.4073565,0.16776 l 0.3449773,0.14252 0.3400826,-0.14275 c 0.1870463,-0.0786 0.3684631,-0.15416 0.4031468,-0.16808 0.048907,-0.0196 0.071438,-0.0742 0.1003843,-0.24295 0.053763,-0.31346 0.1796449,-0.6934 0.349286,-1.05412 0.2184043,-0.46439 0.333366,-0.51692 0.5952068,-0.272 0.173139,0.16194 0.390493,0.47472 0.492606,0.70888 0.08263,0.18948 0.189953,0.60201 0.189953,0.73018 0,0.0744 0.03935,0.13432 0.18032,0.27507 0.182474,0.18215 0.349045,0.46247 0.349045,0.58739 0,0.0375 -0.04959,0.27647 -0.110193,0.53102 -0.08913,0.37436 -0.125178,0.47625 -0.188572,0.5329 -0.08845,0.079 -0.131911,0.0854 -0.2426,0.0349 -0.152317,-0.0695 -0.157863,-0.16106 -0.03841,-0.63509 0.120601,-0.47859 0.1206,-0.4786 -0.06798,-0.6759 -0.164196,-0.17179 -0.347154,-0.22226 -0.7343288,-0.20255 -0.4398053,0.0224 -0.6803765,0.0969 -1.5313135,0.47472 -0.089794,0.0398 -0.1141733,0.0337 -0.4203772,-0.10671 -0.5725622,-0.26248 -0.9926723,-0.37626 -1.3894897,-0.37626 -0.2887353,0 -0.4382387,0.042 -0.5878685,0.16541 -0.232739,0.19184 -0.2363056,0.21298 -0.1179405,0.69912 0.136399,0.56021 0.341231,1.57089 0.388034,1.91465 l 0.037092,0.27245 h 1.9971839 1.9972033 l 0.06851,-0.44094 c 0.03768,-0.24252 0.08888,-0.47201 0.113749,-0.50997 0.09023,-0.13772 0.327363,-0.1205 0.395339,0.0287 0.02629,0.0576 0.02158,0.14396 -0.01998,0.36652 -0.03861,0.20662 -0.05865,0.51499 -0.06907,1.06295 l -0.01469,0.77192 0.164235,0.28682 c 1.142981,1.99606 2.841075,4.32056 4.15274,5.68459 0.509631,0.52999 0.511355,0.52225 -0.225863,1.01303 -0.217137,0.14456 -0.55084,0.3492 -0.74156,0.45476 l -0.346767,0.19191 0.03417,0.0906 c 0.04784,0.12675 -0.0321,0.22477 -0.338638,0.41522 -1.082469,0.67252 -2.594128,1.19432 -3.9842517,1.3753 -0.4481243,0.0584 -1.5288184,0.0829 -1.9617639,0.0445 z m 2.7869501,-10.05733 v -0.3114 H 8.3629944 6.3700917 v 0.3114 0.3114 h 1.9929027 1.9929036 z m -3.3653022,-4.52437 c -0.074073,-0.28913 -0.2218441,-0.65831 -0.2623004,-0.6553 -0.052923,0.005 -0.2576982,0.41948 -0.3224691,0.65437 l -0.061602,0.22341 0.3108678,-7e-4 c 0.1709777,-3.6e-4 0.3188794,0.006 0.3286707,0.0171 0.055371,0.0554 0.058071,-0.0388 0.00687,-0.23882 z m 3.0509882,0.22311 h 0.307843 l -0.04429,-0.18983 c -0.04699,-0.20141 -0.188533,-0.51772 -0.289295,-0.64648 l -0.06063,-0.0774 -0.0623,0.14533 c -0.1582336,0.36914 -0.2716704,0.83797 -0.1906381,0.78789 0.017305,-0.0107 0.1699811,-0.0195 0.3392939,-0.0195 z"
       id="path15251"
       inkscape:connector-curvature="0" />
    <path
       style="fill:none;stroke:#000000;stroke-width:0.00235383;stroke-linecap:butt;stroke-linejoin:miter;stroke-miterlimit:4;stroke-dasharray:none;stroke-opacity:1"
       d="m 10.904839,283.7392 -0.173004,1.22676"
       id="path15253"
       inkscape:connector-curvature="0" />
    <path
       style="fill:#800000;stroke:#000000;stroke-width:0.00235383;stroke-linecap:butt;stroke-linejoin:miter;stroke-miterlimit:4;stroke-dasharray:none;stroke-opacity:1"
       d="m 4.1262339,295.34619 1.1323888,0.36173"
       id="path15255"
       inkscape:connector-curvature="0" />
    <path
       style="fill:#ffffff;stroke-width:0.00118886;stroke-miterlimit:4;stroke-dasharray:none"
       d="m 7.9062584,295.99929 c -0.043254,-0.004 -0.1812608,-0.0135 -0.3066884,-0.0229 -0.6257888,-0.0465 -1.2912129,-0.17455 -1.9580895,-0.37687 -0.3808853,-0.11555 -0.5217268,-0.14469 -0.5978351,-0.12367 -0.0335,0.009 -0.079882,0.0371 -0.1030701,0.0621 l -0.042163,0.045 -0.2222824,-0.0708 -0.2222824,-0.0708 0.00985,-0.0617 c 0.020153,-0.12605 -3.928e-4,-0.16783 -0.1208248,-0.24574 -0.060176,-0.0389 -0.2569101,-0.14702 -0.4371876,-0.2402 -0.3706636,-0.19156 -0.4228878,-0.22469 -0.4359209,-0.27663 -0.011989,-0.0478 0.00111,-0.0706 0.1706478,-0.29758 0.2895189,-0.38761 0.9774994,-1.44441 1.2962575,-1.9912 0.7774871,-1.33368 1.789988,-3.32541 1.9248505,-3.78643 0.027098,-0.0926 0.00103,-0.17283 -0.079952,-0.24599 -0.052399,-0.0473 -0.074503,-0.0567 -0.1330234,-0.0567 -0.056643,0 -0.081327,0.0103 -0.1279724,0.0507 -0.059583,0.0524 -0.1093825,0.14901 -0.5651808,1.09739 -0.5382613,1.11994 -1.2811705,2.46458 -1.9353173,3.50284 -0.3211078,0.50964 -0.8293005,1.24689 -0.8595074,1.24689 -0.060373,0 -1.0381769,-0.58924 -1.2642365,-0.76185 l -0.067662,-0.0516 0.057821,-0.069 c 0.031798,-0.038 0.1466253,-0.1681 0.255162,-0.2892 0.3655707,-0.40789 0.4342373,-0.48663 0.6790219,-0.77852 1.1062515,-1.31915 2.0825278,-2.71121 3.1746694,-4.52672 l 0.2752338,-0.45752 2.0769529,-7.1e-4 2.0769528,-7.1e-4 0.237767,0.39713 c 1.277168,2.13316 2.589139,3.93777 3.917758,5.38887 0.161469,0.17636 0.295753,0.3262 0.298408,0.33298 0.0094,0.024 -0.558191,0.38314 -1.057761,0.66919 l -0.28228,0.16163 -0.13561,-0.18389 c -0.87958,-1.19273 -2.006062,-3.17286 -2.93064,-5.15148 -0.108534,-0.23227 -0.208681,-0.43961 -0.222547,-0.46079 -0.08627,-0.13166 -0.3067158,-0.1317 -0.3929665,-7e-5 -0.048983,0.0748 -0.046151,0.1357 0.013521,0.29018 0.1403445,0.36341 0.7733535,1.65867 1.1967715,2.44884 0.599934,1.1196 1.301599,2.26284 1.935388,3.1534 0.220301,0.30954 0.243489,0.34606 0.243489,0.38341 0,0.0299 -0.274776,0.17647 -0.80211,0.42778 -0.45643,0.21751 -0.649978,0.29688 -1.075517,0.44106 -0.709861,0.24049 -1.4241515,0.39337 -2.1958293,0.46999 -0.2285603,0.0228 -1.092179,0.0431 -1.2660737,0.0301 z"
       id="path15259"
       inkscape:connector-curvature="0" />
    <path
       style="fill:#ffffff;stroke-width:0.00118886;stroke-miterlimit:4;stroke-dasharray:none"
       d="m 6.3728152,286.40684 v -0.30669 h 1.989544 1.9895448 v 0.30669 0.30668 H 8.3623592 6.3728152 Z"
       id="path15261"
       inkscape:connector-curvature="0" />
    <path
       style="fill:#ffffff;stroke-width:0.00118886;stroke-miterlimit:4;stroke-dasharray:none"
       d="m 6.3508502,285.5772 c -0.00378,-0.0195 -0.025775,-0.15924 -0.048927,-0.31062 -0.06499,-0.42497 -0.2053751,-1.10954 -0.4080019,-1.98954 -0.072475,-0.31477 -0.052218,-0.37508 0.1855003,-0.55235 0.1654301,-0.12336 0.4015517,-0.1652 0.7435323,-0.13173 0.336139,0.0329 0.6835208,0.13897 1.1882751,0.36287 0.1407642,0.0625 0.2846736,0.11678 0.3197989,0.12074 0.054195,0.005 0.1137869,-0.0144 0.3936048,-0.1345 0.3540299,-0.15214 0.6825266,-0.2689 0.8723425,-0.31006 0.1525972,-0.0331 0.6541148,-0.0498 0.7670338,-0.0256 0.13766,0.0294 0.225765,0.0807 0.344547,0.20025 0.167835,0.16888 0.169906,0.19069 0.06045,0.6365 -0.06745,0.27467 -0.09441,0.44909 -0.0807,0.52214 0.0099,0.0531 0.05273,0.10206 0.126953,0.14552 0.02563,0.015 0.02572,0.0262 0.0015,0.19658 -0.04012,0.28264 -0.03452,0.26721 -0.09703,0.26721 -0.06559,0 -0.146011,0.0321 -0.181786,0.0725 -0.03692,0.0419 -0.08309,0.23482 -0.139041,0.58144 -0.02642,0.16366 -0.05191,0.31702 -0.05664,0.34079 l -0.0086,0.0432 H 8.3457072 6.3577127 l -0.00687,-0.0354 z"
       id="path15263"
       inkscape:connector-curvature="0" />
    <path
       style="fill:#ffffff;stroke-width:0.00118886;stroke-miterlimit:4;stroke-dasharray:none"
       d="m 6.89969,282.10472 c -0.0519,-0.005 -0.1952186,-0.0124 -0.3184841,-0.0133 -0.1232653,-8.5e-4 -0.2241189,-0.005 -0.2241189,-0.008 0,-0.004 0.02494,-0.0892 0.055425,-0.18978 0.080157,-0.26445 0.2676055,-0.65257 0.3151726,-0.65257 0.019466,0 0.090711,0.14718 0.1560867,0.32243 0.088545,0.23735 0.1601525,0.56348 0.1220847,0.55601 -0.00644,-8.5e-4 -0.054264,-0.007 -0.1061623,-0.014 z"
       id="path15265"
       inkscape:connector-curvature="0" />
    <path
       style="fill:#ffffff;stroke-width:0.00118886;stroke-miterlimit:4;stroke-dasharray:none"
       d="m 9.6851252,282.09609 c -0.00913,-0.0238 0.028159,-0.21461 0.069509,-0.35529 0.056297,-0.19156 0.189944,-0.51826 0.209561,-0.51228 0.03168,0.009 0.1483038,0.20037 0.2131048,0.34843 0.05693,0.13009 0.122084,0.33006 0.150375,0.46154 l 0.011,0.0512 -0.193913,8.6e-4 c -0.106653,6.9e-4 -0.2521848,0.005 -0.3234047,0.0121 -0.089913,0.007 -0.1315527,0.005 -0.1362324,-0.006 z"
       id="path15267"
       inkscape:connector-curvature="0" />
  </g>
</svg>
