<?xml version="1.0" encoding="UTF-8" standalone="no"?>
<!-- Created with Inkscape (http://www.inkscape.org/) -->

<svg
   xmlns:dc="http://purl.org/dc/elements/1.1/"
   xmlns:cc="http://creativecommons.org/ns#"
   xmlns:rdf="http://www.w3.org/1999/02/22-rdf-syntax-ns#"
   xmlns:svg="http://www.w3.org/2000/svg"
   xmlns="http://www.w3.org/2000/svg"
   xmlns:sodipodi="http://sodipodi.sourceforge.net/DTD/sodipodi-0.dtd"
   xmlns:inkscape="http://www.inkscape.org/namespaces/inkscape"
   width="64"
   height="64"
   viewBox="0 0 16.933333 16.933334"
   version="1.1"
   id="svg8"
   inkscape:version="0.92.5 (2060ec1f9f, 2020-04-08)"
   sodipodi:docname="drop_a_comment_64x64x.svg">
  <defs
     id="defs2" />
  <sodipodi:namedview
     id="base"
     pagecolor="#ffffff"
     bordercolor="#666666"
     borderopacity="1.0"
     inkscape:pageopacity="0.0"
     inkscape:pageshadow="2"
     inkscape:zoom="2.8"
     inkscape:cx="119.14766"
     inkscape:cy="-16.515695"
     inkscape:document-units="mm"
     inkscape:current-layer="layer1"
     showgrid="false"
     units="px"
     inkscape:window-width="1208"
     inkscape:window-height="987"
     inkscape:window-x="1992"
     inkscape:window-y="0"
     inkscape:window-maximized="1" />
  <metadata
     id="metadata5">
    <rdf:RDF>
      <cc:Work
         rdf:about="">
        <dc:format>image/svg+xml</dc:format>
        <dc:type
           rdf:resource="http://purl.org/dc/dcmitype/StillImage" />
        <dc:title></dc:title>
      </cc:Work>
    </rdf:RDF>
  </metadata>
  <g
     inkscape:label="Layer 1"
     inkscape:groupmode="layer"
     id="layer1"
     transform="translate(0,-280.06665)">
    <path
       style="fill:#000000;stroke-width:0.03004684"
       d="m 1.3526031,296.07686 c -0.1029403,-0.0316 -0.1941707,-0.0925 -0.3054975,-0.20379 -0.2767323,-0.27673 -0.25385449,0.25037 -0.25366428,-5.84441 1.1106e-4,-3.55906 0.0105148,-5.40262 0.0308598,-5.4759 0.0491842,-0.17709 0.21158198,-0.39069 0.37222748,-0.48958 l 0.1478516,-0.091 1.7969945,-0.009 c 1.7692576,-0.009 1.7979317,-0.008 1.8577738,0.0526 0.070734,0.0707 0.07917,0.20442 0.018147,0.2879 -0.041115,0.0562 -0.1039216,0.0588 -1.7652511,0.0734 -1.5729791,0.0137 -1.7310644,0.0196 -1.8197685,0.0681 -0.2024279,0.1106 -0.1883012,-0.26508 -0.1883012,5.00831 v 4.77895 h 2.9445898 2.9445901 v -0.39004 c 0,-0.38038 -0.00165,-0.39038 -0.067603,-0.40378 -0.3482462,-0.0708 -0.5551105,-0.13671 -0.7728773,-0.24634 -0.4835235,-0.24346 -0.8320155,-0.59517 -1.0682816,-1.07815 -0.1461584,-0.29878 -0.2138515,-0.54604 -0.2426767,-0.88638 -0.016399,-0.19367 -0.011223,-0.23485 0.037074,-0.29287 0.0877,-0.10542 0.2319313,-0.12 0.3196477,-0.0323 0.058636,0.0586 0.075779,0.11496 0.091433,0.30006 0.066729,0.78946 0.5635083,1.43066 1.3176512,1.70078 0.1919176,0.0688 0.2688922,0.0791 0.5959678,0.0804 0.307657,0.001 0.4136247,-0.0109 0.5859124,-0.0651 0.2969589,-0.094 0.5681845,-0.26183 0.795728,-0.49208 0.3391915,-0.34325 0.5267861,-0.7453 0.5622323,-1.20496 0.015583,-0.20205 0.03158,-0.25958 0.087865,-0.31585 0.09089,-0.0908 0.2059108,-0.0874 0.302474,0.01 0.074964,0.0749 0.077232,0.0874 0.059014,0.32302 -0.050271,0.65011 -0.3707814,1.26702 -0.8691026,1.67283 -0.3213266,0.26168 -0.6861452,0.41997 -1.2161438,0.52767 -0.065925,0.0134 -0.067603,0.0234 -0.067603,0.4031 v 0.38934 l 1.80199,0.009 1.801989,0.009 0.06593,0.066 c 0.08096,0.081 0.08622,0.22636 0.01123,0.30926 -0.05443,0.0601 -0.08224,0.0605 -5.0378531,0.0605 H 1.2440244 v 0.34704 c 0,0.39172 0.031604,0.48951 0.1892511,0.58564 0.094529,0.0576 0.1969448,0.0586 5.928349,0.0587 l 5.8321545,10e-5 0.101648,-0.0686 c 0.154588,-0.10423 0.176712,-0.17535 0.177207,-0.56998 l 4.43e-4,-0.35306 H 12.82707 c -0.605944,0 -0.649734,-0.003 -0.706101,-0.0601 -0.08096,-0.081 -0.07937,-0.24365 0.003,-0.31834 0.05721,-0.0518 0.123945,-0.0581 0.706099,-0.0668 l 0.64292,-0.01 v -3.65952 c 0,-3.65675 6.1e-5,-3.65959 0.06227,-3.7387 0.08044,-0.10226 0.238344,-0.10869 0.327164,-0.0134 0.06106,0.0655 0.06126,0.0801 0.06126,4.34063 0,4.22359 -7.38e-4,4.27685 -0.06105,4.43805 -0.08136,0.21742 -0.294134,0.41825 -0.511586,0.48283 -0.142801,0.0424 -0.768127,0.0472 -6.0055644,0.0452 -5.1071026,-0.002 -5.8647238,-0.009 -5.9929407,-0.0472 z m 5.6678983,-3.72298 c -0.2309709,-0.0622 -0.388554,-0.15143 -0.5693341,-0.32241 -0.1981664,-0.18742 -0.3236718,-0.40181 -0.3832989,-0.65478 -0.06641,-0.28178 -0.067297,-3.16584 -0.00106,-3.4468 0.060892,-0.25825 0.1439267,-0.40964 0.3339978,-0.60891 0.5319917,-0.55774 1.3834078,-0.55774 1.9154007,0 0.1839853,0.19289 0.2700299,0.34537 0.3344562,0.59273 0.066386,0.25486 0.066386,3.21976 0,3.47464 -0.064425,0.24733 -0.1504709,0.39982 -0.3344562,0.59273 -0.3399997,0.35643 -0.8313916,0.49783 -1.295708,0.3728 z m 0.6406353,-0.45464 c 0.1011915,-0.0343 0.2019246,-0.10411 0.318172,-0.22027 0.1966282,-0.19642 0.2655819,-0.3733 0.2655819,-0.6813 v -0.18984 H 8.0646091 c -0.2155209,0 -0.300468,-0.0624 -0.300468,-0.2207 0,-0.14552 0.084805,-0.20859 0.3015939,-0.22427 l 0.1791556,-0.013 v -0.25179 -0.25178 H 8.0836849 c -0.2095474,0 -0.3195438,-0.0784 -0.3195438,-0.22754 0,-0.16099 0.083718,-0.22317 0.300468,-0.22317 h 0.1802815 v -0.22173 -0.22175 L 8.065735,288.939 c -0.223647,-0.0162 -0.3015939,-0.0776 -0.3015939,-0.23758 0,-0.15341 0.079938,-0.20738 0.3071539,-0.20738 h 0.1735956 v -0.18986 c 0,-0.30798 -0.06895,-0.48487 -0.2655819,-0.6813 -0.1923441,-0.19213 -0.3723869,-0.27062 -0.6207997,-0.27062 -0.2479307,0 -0.4286764,0.0786 -0.6171514,0.26819 -0.1949694,0.19619 -0.2692312,0.38422 -0.2692312,0.68172 v 0.19187 h 0.1769533 c 0.2179902,0 0.3138125,0.0634 0.3138125,0.20731 0,0.15 -0.093619,0.22188 -0.309317,0.23748 l -0.1814488,0.0131 v 0.22175 0.22173 h 0.1802814 c 0.1402181,0 0.1936356,0.0134 0.2403741,0.0601 0.097648,0.0977 0.090441,0.22536 -0.018242,0.32301 -0.058565,0.0526 -0.111518,0.0676 -0.2388311,0.0676 H 6.4721264 v 0.2554 0.2554 h 0.1635827 c 0.2111507,0 0.3280916,0.0877 0.3236847,0.24265 -0.00425,0.15009 -0.091764,0.20805 -0.314083,0.20805 H 6.4645911 l 0.013658,0.24789 c 0.01052,0.18976 0.032147,0.28399 0.092484,0.40183 0.094339,0.18425 0.3091564,0.38161 0.4820195,0.44286 0.1701339,0.0603 0.4291549,0.0598 0.6083778,-10e-4 z m -3.8209633,-1.54527 c -0.054088,-0.0598 -0.057242,-0.12365 -0.057242,-1.15946 v -1.09622 l 0.070935,-0.0574 c 0.091965,-0.0745 0.2287202,-0.0732 0.3046515,0.002 0.05788,0.0579 0.060089,0.1002 0.060089,1.15012 0,1.2323 0.00153,1.22359 -0.2073747,1.22359 -0.077562,0 -0.1320637,-0.0202 -0.1710661,-0.0633 z m 6.7050036,-0.003 c -0.04024,-0.0574 -0.04677,-0.21887 -0.04677,-1.1568 0,-1.04996 0.0023,-1.09223 0.06009,-1.15012 0.08099,-0.081 0.243657,-0.0793 0.318347,0.003 0.05408,0.0598 0.05724,0.12353 0.05724,1.15364 0,1.03012 -0.0032,1.09391 -0.05724,1.15365 -0.08068,0.0892 -0.268142,0.0872 -0.331667,-0.003 z m -5.5962524,-0.57666 -0.084309,-0.0725 v -0.49752 c 0,-0.47217 0.0033,-0.50089 0.065937,-0.56345 0.080965,-0.081 0.2263714,-0.0862 0.3092616,-0.0109 0.056167,0.0508 0.060479,0.0918 0.060479,0.57371 v 0.51899 l -0.07917,0.0623 c -0.1030827,0.0811 -0.1689348,0.0786 -0.2722062,-0.0109 z m 4.5469615,0.0109 -0.07917,-0.0623 v -0.50529 c 0,-0.43752 0.00709,-0.51362 0.052587,-0.56742 0.085904,-0.10151 0.1960221,-0.1106 0.2962407,-0.0245 l 0.086861,0.0747 0.00968,0.45682 c 0.010629,0.49747 -0.010281,0.60028 -0.133361,0.65636 -0.1042998,0.0475 -0.142327,0.0429 -0.2328789,-0.0284 z m -6.697402,-0.15609 c -0.027209,-0.0206 -0.063586,-0.0756 -0.080859,-0.12215 -0.041351,-0.11142 -0.040229,-0.49708 0.00177,-0.61767 0.057218,-0.16414 0.2368687,-0.20726 0.352164,-0.0845 0.059038,0.0628 0.065335,0.10194 0.065335,0.40563 0,0.29603 -0.00721,0.34326 -0.060089,0.39618 -0.067816,0.0678 -0.2041848,0.0789 -0.2783486,0.0226 z m 8.8416989,-0.0226 c -0.05308,-0.053 -0.06009,-0.1002 -0.06009,-0.40344 0,-0.33515 0.0018,-0.34485 0.07917,-0.40564 0.09964,-0.0784 0.204108,-0.0796 0.280628,-0.002 0.08308,0.083 0.09849,0.16923 0.08641,0.48325 -0.0095,0.24502 -0.01804,0.2801 -0.08148,0.33145 -0.09197,0.0744 -0.228727,0.0733 -0.30465,-0.002 z m -5.4086256,-3.51335 c -0.236773,-0.0726 -0.4367034,-0.26179 -0.5288892,-0.5008 -0.053721,-0.13928 -0.056828,-0.25813 -0.056828,-2.1755 v -2.02815 l 0.084167,-0.1714 c 0.089685,-0.18264 0.1937359,-0.28677 0.3930861,-0.39343 l 0.1236871,-0.0662 4.5956866,-0.009 c 5.234368,-0.01 4.805262,-0.0298 5.081354,0.2463 0.265944,0.26594 0.256394,0.16864 0.246747,2.51386 l -0.0084,2.02517 -0.06781,0.1269 c -0.08648,0.16183 -0.236243,0.3116 -0.385797,0.38581 -0.114342,0.0567 -0.233646,0.0584 -4.75952,0.0633 -2.5532317,0.002 -4.6761276,-0.004 -4.7175497,-0.0179 z m 9.3677376,-0.52563 0.112239,-0.10281 0.0082,-1.98569 c 0.009,-2.19562 0.01638,-2.10553 -0.182369,-2.22673 -0.09428,-0.0574 -0.186363,-0.0586 -4.636334,-0.0587 l -4.5401398,-1.2e-4 -0.1021024,0.0687 c -0.058328,0.0392 -0.1174727,0.1133 -0.1379592,0.17277 -0.026241,0.0762 -0.036319,0.61448 -0.037559,2.00555 -0.00189,2.0638 -0.00425,2.0326 0.1639738,2.16488 l 0.082808,0.0651 h 4.5785346 4.578531 z m -6.2705371,-1.02791 c -0.060266,-0.0766 -0.062274,-0.1126 -0.062274,-1.11311 v -1.03391 l 0.073747,-0.0737 c 0.070014,-0.0701 0.0918,-0.0737 0.430327,-0.0737 0.4377411,0 0.5953441,0.0462 0.7768891,0.22773 0.221795,0.22182 0.273716,0.54462 0.132208,0.822 -0.06747,0.13225 -0.244877,0.29626 -0.366223,0.33856 -0.047,0.0164 -0.08545,0.0401 -0.08545,0.0526 0,0.0125 0.11485,0.15386 0.255211,0.3141 0.140367,0.16022 0.263818,0.32562 0.274337,0.36753 0.02866,0.11424 -0.07229,0.23387 -0.207054,0.2454 -0.103046,0.009 -0.12106,-0.005 -0.462741,-0.38668 l -0.3555256,-0.39586 -0.00863,0.32581 c -0.00756,0.28458 -0.016729,0.33445 -0.072849,0.39419 -0.091268,0.0972 -0.2410546,0.0922 -0.3220119,-0.0109 z m 0.8691771,-1.35874 c 0.106095,-0.0785 0.138712,-0.18755 0.09073,-0.30342 -0.05242,-0.12656 -0.170653,-0.18167 -0.3896946,-0.18167 h -0.181774 v 0.26542 c 0,0.14597 0.010162,0.27584 0.02253,0.2886 0.039414,0.0405 0.3792966,-0.0109 0.4582146,-0.0689 z m 1.29768,1.37665 c -0.06525,-0.0609 -0.06576,-0.0694 -0.06576,-1.12211 0,-1.04031 0.0012,-1.06194 0.06324,-1.11807 0.05674,-0.0514 0.113549,-0.0573 0.552711,-0.0573 0.43916,0 0.495963,0.005 0.552712,0.0573 0.07387,0.0668 0.08413,0.21814 0.0207,0.30508 -0.03674,0.0503 -0.09111,0.0603 -0.398121,0.0734 l -0.355571,0.015 -0.0087,0.24789 -0.0087,0.24788 h 0.297631 c 0.255609,0 0.308809,0.009 0.376801,0.0623 0.05809,0.0457 0.07917,0.0898 0.07917,0.16554 0,0.16773 -0.0726,0.20546 -0.428926,0.22289 l -0.307222,0.015 -0.0087,0.24789 -0.0087,0.24788 h 0.327677 c 0.286007,0 0.337747,0.009 0.406848,0.0623 0.05742,0.0451 0.07917,0.0899 0.07917,0.16309 0,0.0731 -0.02175,0.11791 -0.07917,0.16307 -0.07245,0.057 -0.119168,0.0623 -0.550199,0.0623 -0.432501,0 -0.476412,-0.004 -0.536793,-0.0613 z m 2.473198,0.0209 c -0.350634,-0.11625 -0.596081,-0.32833 -0.745932,-0.64464 -0.0874,-0.1845 -0.09538,-0.22652 -0.09538,-0.50244 0,-0.2793 0.0071,-0.31552 0.09818,-0.50053 0.125726,-0.25539 0.386921,-0.50358 0.629413,-0.59809 0.361546,-0.14091 0.879619,-0.077 1.10591,0.13643 0.119994,0.11319 0.130297,0.1858 0.04223,0.29775 -0.07692,0.0978 -0.193121,0.10335 -0.361633,0.0174 -0.161658,-0.0825 -0.383476,-0.10575 -0.553499,-0.0583 -0.182408,0.0511 -0.414927,0.26121 -0.481284,0.43497 -0.07721,0.20217 -0.05063,0.48037 0.06352,0.66503 0.218448,0.35333 0.707997,0.45456 1.003665,0.20754 0.150251,-0.12554 0.210455,-0.14619 0.312782,-0.10727 0.09534,0.0363 0.153333,0.14974 0.128028,0.25056 -0.02532,0.10086 -0.184851,0.25163 -0.364804,0.34475 -0.180886,0.0936 -0.582072,0.12274 -0.781217,0.0567 z M 7.3977442,284.2778 c -0.1484423,-0.0414 -0.1869945,-0.065 -0.3508951,-0.21325 -0.336962,-0.30495 -0.3249855,-0.88349 0.024822,-1.19884 0.1740883,-0.15696 0.3099066,-0.20962 0.5443143,-0.21106 0.3341431,-0.002 0.5904953,0.15817 0.7573483,0.47339 0.092414,0.17458 0.092414,0.52349 0,0.69807 -0.1034608,0.19544 -0.2092119,0.30307 -0.3777047,0.38439 -0.1949966,0.0941 -0.4138303,0.11875 -0.5978806,0.0674 z m 0.4560686,-0.49992 c 0.1208528,-0.0861 0.1724922,-0.25983 0.1246584,-0.41949 -0.1207655,-0.40308 -0.7333209,-0.30394 -0.7333209,0.11868 0,0.31115 0.3507118,0.48449 0.6086625,0.30081 z"
       id="path481"
       inkscape:connector-curvature="0" />
    <path
       style="fill:#ffffff;stroke-width:0.00081116;stroke-miterlimit:4;stroke-dasharray:none"
       d="m 2.1776939,295.6511 c -0.7643437,-0.0133 -0.7795833,-0.0164 -0.8671119,-0.18341 -0.039165,-0.0747 -0.045994,-0.13115 -0.052587,-0.4346 l -0.00756,-0.34875 4.8794517,-0.002 c 2.6836988,-9.9e-4 4.9362363,-0.01 5.0056403,-0.0175 0.148968,-0.0186 0.185011,-0.0552 0.185011,-0.1879 0,-0.0719 -0.01433,-0.10813 -0.06661,-0.16759 l -0.06661,-0.0759 -1.6235253,-1.2e-4 c -0.8929386,-6e-5 -1.7041472,-0.005 -1.8026858,-0.014 l -0.1791602,-0.0139 0.00744,-0.36231 c 0.00579,-0.28057 0.014213,-0.36647 0.037393,-0.38079 0.016457,-0.0109 0.085975,-0.0296 0.1544725,-0.043 0.6406683,-0.12605 1.2144211,-0.4992 1.5548153,-1.01124 0.2497867,-0.37572 0.4177173,-0.90103 0.4177173,-1.30664 0,-0.22348 -0.23189,-0.34499 -0.3882765,-0.20347 -0.040583,0.0367 -0.057821,0.1087 -0.1137628,0.47514 -0.06159,0.40336 -0.2371204,0.74446 -0.5379073,1.04526 -0.253669,0.25366 -0.5579259,0.43169 -0.8819888,0.51612 -0.1732234,0.0451 -0.7679755,0.0453 -0.9406412,3.9e-4 -0.5645456,-0.14705 -1.0813934,-0.59386 -1.299901,-1.12374 -0.076216,-0.18482 -0.1220236,-0.36989 -0.1515838,-0.61241 -0.012807,-0.10509 -0.033624,-0.21134 -0.046254,-0.23608 -0.057903,-0.11342 -0.1940041,-0.15223 -0.3148628,-0.0897 -0.1006373,0.052 -0.1190487,0.11473 -0.1034836,0.35215 0.037323,0.56961 0.3142236,1.16726 0.7207348,1.55565 0.341044,0.32583 0.7432085,0.53362 1.2356767,0.63843 0.070829,0.0151 0.1408456,0.0366 0.1556008,0.0479 0.019648,0.015 0.026831,0.1204 0.026831,0.3935 v 0.37296 H 4.184399 1.2548325 l 5.104e-4,-4.42655 c 4.844e-4,-4.18614 0.011342,-5.10396 0.062015,-5.23719 0.0319,-0.0839 0.1110574,-0.12449 0.2853452,-0.14627 0.086069,-0.0109 0.8663475,-0.0283 1.7339496,-0.0389 0.9922191,-0.0122 1.5985754,-0.0275 1.634376,-0.0416 0.037015,-0.0146 0.065737,-0.049 0.082147,-0.0988 l 0.025224,-0.0764 h 0.243394 c 0.1338666,0 0.2586701,-0.005 0.277342,-0.013 0.030292,-0.0118 0.034002,0.0363 0.034451,0.44533 2.8e-4,0.2521 0.00934,0.57169 0.020014,0.71019 0.017214,0.22229 0.027658,0.26711 0.089047,0.3823 0.07878,0.14779 0.2293333,0.29375 0.3791118,0.36751 l 0.1015231,0.05 3.7175134,0.005 3.717512,0.005 0.01135,0.0688 c 0.01363,0.0829 0.05466,0.47219 0.05466,0.51859 0,0.0208 -0.01954,0.033 -0.05246,0.033 -0.02885,0 -0.07906,0.0229 -0.111589,0.0507 -0.05074,0.0437 -0.06138,0.0734 -0.07499,0.20927 -0.0087,0.0871 -0.01646,1.74326 -0.01718,3.68032 l -0.0013,3.52192 -0.196456,0.0139 c -0.108049,0.008 -0.36157,0.0145 -0.563379,0.0149 -0.564069,0.001 -0.645928,0.0312 -0.645928,0.23516 0,0.0817 0.01123,0.11732 0.04885,0.15499 0.04841,0.0485 0.05485,0.0489 0.702881,0.0552 l 0.654027,0.005 v 0.27519 c 0,0.31003 -0.02565,0.48349 -0.08066,0.5456 -0.02056,0.0231 -0.07504,0.0697 -0.121082,0.10336 l -0.08371,0.0612 -5.1637639,-0.004 c -2.8400662,-0.002 -5.4679846,-0.01 -5.8398139,-0.0161 z m 5.5801276,-3.30712 c 0.2167886,-0.0711 0.3607933,-0.16351 0.5480655,-0.3516 0.1881677,-0.18898 0.2863353,-0.3507 0.3476637,-0.5727 0.034652,-0.12543 0.037866,-0.27576 0.037866,-1.76818 0,-1.8098 0.00413,-1.75217 -0.1441288,-2.03649 -0.1026685,-0.19692 -0.3918185,-0.47575 -0.5990822,-0.57765 -0.5727449,-0.28162 -1.2034324,-0.13953 -1.6346466,0.36823 -0.1189542,0.14009 -0.192851,0.28242 -0.241181,0.46455 -0.078331,0.29521 -0.078188,3.26843 1.714e-4,3.56095 0.1202584,0.44889 0.5342068,0.84027 1.0012902,0.94668 0.1844603,0.0421 0.5004952,0.0264 0.6839772,-0.0338 z m -3.5915224,-1.96377 c 0.014485,-0.0199 0.033755,-0.0905 0.042804,-0.15702 0.02142,-0.15732 0.021751,-1.98501 3.781e-4,-2.09031 -0.031616,-0.15575 -0.2235217,-0.20308 -0.370102,-0.0913 l -0.077729,0.0593 0.00898,1.07578 c 0.00626,0.75648 0.016423,1.09356 0.034144,1.13574 0.013859,0.0329 0.056652,0.0742 0.095108,0.0914 0.085762,0.0387 0.2302549,0.0258 0.2664407,-0.0236 z m 6.6476459,0.0247 c 0.04849,-0.0202 0.07937,-0.0524 0.09589,-0.0999 0.02676,-0.0768 0.03195,-2.11207 0.0057,-2.20969 -0.009,-0.0334 -0.04568,-0.069 -0.09654,-0.094 -0.07034,-0.0347 -0.09404,-0.0367 -0.165909,-0.0152 -0.164559,0.0492 -0.158782,0.004 -0.158782,1.21454 0,1.00084 0.0027,1.07906 0.03881,1.13418 0.06362,0.0972 0.159089,0.12085 0.280906,0.07 z M 5.1781292,289.8253 c 0.13788,-0.0712 0.136539,-0.0648 0.1290781,-0.63266 -0.0065,-0.49175 -0.00898,-0.51882 -0.051925,-0.56174 -0.1001287,-0.1001 -0.314538,-0.0659 -0.3715399,0.0593 -0.014567,0.0321 -0.023287,0.2341 -0.023287,0.53968 v 0.48859 l 0.069458,0.0524 c 0.1218713,0.0918 0.1599379,0.1002 0.2482296,0.0546 z m 4.5449294,-0.001 c 0.1335984,-0.0559 0.1480949,-0.12283 0.1433218,-0.66255 l -0.00413,-0.46863 -0.057029,-0.0464 c -0.1457166,-0.11871 -0.2879787,-0.10683 -0.3572181,0.0298 -0.03249,0.0641 -0.037535,0.14032 -0.037559,0.56823 l -3.07e-5,0.4942 0.090145,0.0585 c 0.1040868,0.0675 0.120815,0.0695 0.2225175,0.0271 z m -6.6439598,-0.21788 c 0.051784,-0.0502 0.053898,-0.0633 0.060538,-0.37165 0.00768,-0.35698 -0.00968,-0.42477 -0.1242212,-0.48398 -0.082773,-0.0428 -0.1261421,-0.041 -0.2077444,0.009 -0.09688,0.059 -0.1247009,0.16049 -0.1240877,0.45228 4.135e-4,0.19662 0.00874,0.26372 0.040726,0.32988 0.070261,0.14517 0.2398874,0.1761 0.3547939,0.0648 z m 8.8938852,-0.008 c 0.04084,-0.0408 0.0457,-0.0738 0.05198,-0.35448 0.0057,-0.25115 3.86e-4,-0.32328 -0.0278,-0.38267 -0.06777,-0.14281 -0.233612,-0.17106 -0.352447,-0.06 l -0.06665,0.0623 v 0.32512 c 0,0.37235 0.01899,0.43858 0.134407,0.46894 0.0898,0.0236 0.203505,-0.002 0.260514,-0.0591 z"
       id="path485"
       inkscape:connector-curvature="0" />
    <path
       style="fill:#ffffff;stroke-width:0.00081116;stroke-miterlimit:4;stroke-dasharray:none"
       d="m 6.2704995,285.61127 c -0.1347337,-0.10227 -0.1464196,-0.14999 -0.1690044,-0.68985 -0.020226,-0.48354 -0.00614,-3.16876 0.017817,-3.39331 0.011342,-0.10607 0.023275,-0.12845 0.1179215,-0.22066 l 0.1053388,-0.10259 4.5439666,0.005 c 4.495414,0.005 4.54487,0.008 4.62843,0.0489 0.149512,0.076 0.164557,0.11519 0.186579,0.48574 0.01111,0.1866 0.01351,1.06602 0.0055,2.0253 l -0.01403,1.69551 -0.109829,0.10097 -0.109829,0.10107 -4.562589,9.7e-4 -4.5625903,9.8e-4 z m 3.3651759,-1.04093 c 0.07364,-0.0636 0.095332,-0.1678 0.097057,-0.46679 l 0.00141,-0.24681 0.1861769,0.20388 c 0.4079517,0.44677 0.5282057,0.55802 0.6031687,0.55802 0.08445,0 0.186945,-0.0502 0.216904,-0.10607 0.06245,-0.11672 0.0084,-0.22027 -0.308772,-0.59139 -0.100873,-0.11803 -0.183594,-0.22181 -0.183815,-0.23061 -2.1e-4,-0.009 0.04246,-0.0362 0.09485,-0.0607 0.122293,-0.0575 0.297491,-0.23277 0.358386,-0.35856 0.07089,-0.14644 0.07947,-0.38658 0.01947,-0.54555 -0.08931,-0.23664 -0.311678,-0.41898 -0.568266,-0.46597 -0.1635834,-0.03 -0.6564132,-0.0302 -0.735102,-4.4e-4 -0.033234,0.0126 -0.082147,0.0433 -0.1087063,0.0682 l -0.048286,0.0452 v 0.99975 c 0,0.58599 0.00863,1.02999 0.020947,1.0728 0.011579,0.0402 0.042179,0.0955 0.068123,0.12326 0.064532,0.0687 0.2079241,0.0697 0.2864357,0.002 z m 2.9743626,-0.0325 c 0.08456,-0.0948 0.08456,-0.19435 1.4e-5,-0.28906 l -0.06257,-0.0701 -0.345205,-0.008 -0.345205,-0.008 v -0.0812 c 0,-0.0447 0.0062,-0.15361 0.01361,-0.2422 l 0.01361,-0.16106 0.249297,-0.0137 c 0.393366,-0.0217 0.474645,-0.0616 0.474645,-0.23306 0,-0.0588 -0.01697,-0.0997 -0.06257,-0.15082 l -0.06257,-0.0701 -0.313014,-0.008 -0.313014,-0.008 v -0.0811 c 0,-0.0446 0.0062,-0.1535 0.01361,-0.24207 l 0.01361,-0.16107 0.313681,-0.0133 c 0.37123,-0.0155 0.402349,-0.0228 0.443313,-0.10205 0.06108,-0.11814 0.01581,-0.28129 -0.08913,-0.32119 -0.02971,-0.0118 -0.26533,-0.0205 -0.523594,-0.0205 -0.465441,0 -0.470099,4.6e-4 -0.529788,0.0517 l -0.06022,0.0518 v 1.07681 1.07682 l 0.06149,0.0529 0.06149,0.0529 0.492946,-0.005 0.492944,-0.005 z m 1.994171,0.0417 c 0.07735,-0.0203 0.19567,-0.0741 0.265561,-0.12064 0.242737,-0.16174 0.31478,-0.34599 0.189917,-0.48573 -0.08903,-0.0996 -0.185067,-0.0953 -0.342764,0.0154 -0.16599,0.11661 -0.202373,0.13438 -0.321005,0.15654 -0.293851,0.0549 -0.620914,-0.11941 -0.750991,-0.40025 -0.07049,-0.15217 -0.08732,-0.368 -0.0411,-0.52696 0.04343,-0.1494 0.21199,-0.34154 0.381647,-0.43501 0.101735,-0.056 0.134542,-0.0629 0.296807,-0.0624 0.147702,5.7e-4 0.209114,0.0119 0.322617,0.0583 0.07711,0.0316 0.169931,0.0636 0.206282,0.0707 0.1452,0.029 0.297834,-0.13936 0.244035,-0.26925 -0.05108,-0.1233 -0.239813,-0.24638 -0.459016,-0.29933 -0.135266,-0.0327 -0.472437,-0.0325 -0.606373,3.8e-4 -0.292785,0.0718 -0.609225,0.33519 -0.77086,0.64163 l -0.0849,0.16096 v 0.34339 0.3434 l 0.08174,0.16725 c 0.147314,0.30145 0.436698,0.5509 0.754672,0.65054 0.125754,0.0393 0.467752,0.0345 0.633743,-0.01 z m -6.8455215,-0.28296 c 0.2658086,-0.0504 0.4766285,-0.20241 0.6024221,-0.43439 0.070722,-0.1304 0.072766,-0.14113 0.072766,-0.38099 0,-0.22495 -0.00519,-0.25727 -0.058116,-0.36486 -0.079949,-0.1624 -0.2353919,-0.31452 -0.4033188,-0.39471 -0.1272279,-0.0608 -0.158389,-0.0666 -0.3541239,-0.0666 -0.1869496,-4e-5 -0.2298391,0.008 -0.3326616,0.056 -0.3859985,0.18319 -0.5841567,0.63453 -0.4512542,1.02782 0.089248,0.2641 0.3085232,0.47808 0.5585639,0.54503 0.1434944,0.0384 0.2170497,0.041 0.3657212,0.0127 z"
       id="path487"
       inkscape:connector-curvature="0" />
    <path
       style="fill:#ffffff;stroke-width:0.00081116;stroke-miterlimit:4;stroke-dasharray:none"
       d="m 9.7466358,283.23076 c -0.00791,-0.009 -0.014308,-0.12859 -0.014308,-0.26828 v -0.25396 l 0.1448683,1.2e-4 c 0.2820789,2.3e-4 0.4131439,0.0853 0.4131439,0.26816 0,0.12485 -0.0846,0.21231 -0.236976,0.24499 -0.1213669,0.026 -0.2848871,0.0309 -0.3067287,0.01 z"
       id="path489"
       inkscape:connector-curvature="0" />
    <path
       style="fill:#ffffff;stroke-width:0.00081116;stroke-miterlimit:4;stroke-dasharray:none"
       d="m 7.1179577,291.90512 c -0.2958625,-0.0833 -0.5844083,-0.41578 -0.613848,-0.70716 -0.00602,-0.0597 -0.016623,-0.16887 -0.023559,-0.24266 l -0.012595,-0.13413 0.1244729,-5.2e-4 c 0.2721967,-10e-4 0.3712859,-0.061 0.3712859,-0.22433 0,-0.16845 -0.114141,-0.24694 -0.3594891,-0.2472 L 6.4915501,290.349 v -0.24446 -0.24448 l 0.1630948,-0.009 c 0.156436,-0.009 0.1660756,-0.0118 0.236083,-0.0879 0.094943,-0.10357 0.098911,-0.20081 0.012169,-0.29789 -0.056911,-0.0637 -0.072069,-0.0688 -0.236083,-0.0782 l -0.1752638,-0.0109 v -0.20875 -0.20875 l 0.1486243,-0.0124 c 0.2403386,-0.0202 0.3235406,-0.0831 0.3235406,-0.24513 0,-0.15821 -0.099018,-0.22045 -0.3511325,-0.22069 l -0.1257807,-1.2e-4 0.00839,-0.23071 c 0.00709,-0.19388 0.017604,-0.25053 0.065878,-0.35479 0.07976,-0.17226 0.2692337,-0.36477 0.4434507,-0.45054 0.1301366,-0.064 0.1567916,-0.0692 0.3557484,-0.0692 0.1893197,0 0.2300245,0.008 0.3399535,0.0585 0.1664997,0.078 0.3837928,0.29589 0.4590814,0.46036 0.047401,0.10346 0.058742,0.16404 0.066635,0.35559 l 0.00946,0.23083 -0.1261624,1.2e-4 c -0.255798,2.4e-4 -0.3515152,0.0621 -0.3515152,0.22711 0,0.16418 0.127723,0.24493 0.3873727,0.24493 h 0.084793 v 0.21463 0.21462 l -0.1234071,1.2e-4 c -0.2529164,2.4e-4 -0.3487577,0.0626 -0.3487577,0.22711 0,0.16588 0.115535,0.24455 0.3594889,0.24481 l 0.1126759,1.2e-4 v 0.24682 0.2468 h -0.097813 c -0.2492964,0 -0.3743577,0.0818 -0.3743577,0.24494 0,0.16504 0.095722,0.22688 0.3515154,0.22711 l 0.1261622,1.2e-4 -0.00946,0.23084 c -0.00791,0.19155 -0.019234,0.25205 -0.066635,0.3556 -0.074421,0.16254 -0.2932197,0.38307 -0.4523506,0.45593 -0.1520705,0.0696 -0.4219304,0.0887 -0.5890492,0.0416 z"
       id="path491"
       inkscape:connector-curvature="0" />
  </g>
</svg>
