<?xml version="1.0" encoding="UTF-8" standalone="no"?>
<!-- Created with Inkscape (http://www.inkscape.org/) -->

<svg
   xmlns:dc="http://purl.org/dc/elements/1.1/"
   xmlns:cc="http://creativecommons.org/ns#"
   xmlns:rdf="http://www.w3.org/1999/02/22-rdf-syntax-ns#"
   xmlns:svg="http://www.w3.org/2000/svg"
   xmlns="http://www.w3.org/2000/svg"
   xmlns:sodipodi="http://sodipodi.sourceforge.net/DTD/sodipodi-0.dtd"
   xmlns:inkscape="http://www.inkscape.org/namespaces/inkscape"
   width="64"
   height="64"
   viewBox="0 0 16.933333 16.933333"
   version="1.1"
   id="svg8"
   inkscape:version="0.92.5 (2060ec1f9f, 2020-04-08)"
   sodipodi:docname="ears_cleaning_64x64.svg">
  <defs
     id="defs2" />
  <sodipodi:namedview
     id="base"
     pagecolor="#ffffff"
     bordercolor="#666666"
     borderopacity="1.0"
     inkscape:pageopacity="0.0"
     inkscape:pageshadow="2"
     inkscape:zoom="5.6"
     inkscape:cx="79.095616"
     inkscape:cy="5.8538084"
     inkscape:document-units="mm"
     inkscape:current-layer="layer1"
     showgrid="false"
     units="px"
     inkscape:window-width="1208"
     inkscape:window-height="987"
     inkscape:window-x="1992"
     inkscape:window-y="0"
     inkscape:window-maximized="1" />
  <metadata
     id="metadata5">
    <rdf:RDF>
      <cc:Work
         rdf:about="">
        <dc:format>image/svg+xml</dc:format>
        <dc:type
           rdf:resource="http://purl.org/dc/dcmitype/StillImage" />
        <dc:title></dc:title>
      </cc:Work>
    </rdf:RDF>
  </metadata>
  <g
     inkscape:label="Layer 1"
     inkscape:groupmode="layer"
     id="layer1"
     transform="translate(0,-280.06667)">
    <path
       style="fill:#000000;stroke-width:0.03126785"
       d="m 0.57620712,296.08759 c -0.0343997,-0.0188 -0.0801262,-0.0563 -0.10162067,-0.0832 C 0.3654,295.86753 0.36974143,295.86253 2.115757,294.1154 c 1.8229164,-1.82407 1.7629178,-1.77426 1.9326033,-1.60457 0.088194,0.0882 0.094829,0.14248 0.031873,0.26093 -0.054214,0.102 -3.22509082,3.26832 -3.32218176,3.3174 -0.0833067,0.0421 -0.10225578,0.0419 -0.1818454,-0.002 z m -0.0769555,-1.93966 c -0.0715214,-0.0768 -0.080292,-0.15318 -0.0291607,-0.25413 0.0190242,-0.0376 1.07175938,-1.10951 2.33940598,-2.38211 l 2.3048131,-2.31382 0.4107168,-0.62576 c 0.2258948,-0.34416 0.4570978,-0.67359 0.5137862,-0.73203 0.2464292,-0.25411 0.5671477,-0.38427 0.9431906,-0.3828 0.9976175,0.004 1.5242924,1.13848 0.9135908,1.96806 -0.1199083,0.16288 -0.2259445,0.24489 -0.8360812,0.64662 l -0.6987574,0.46008 -0.8285984,0.82468 c -0.4557291,0.45357 -0.8637746,0.83752 -0.9067675,0.85322 -0.090946,0.0333 -0.2100032,-0.003 -0.2700515,-0.082 -0.1026363,-0.13509 -0.069365,-0.18007 0.7150939,-0.96694 l 0.7577209,-0.76003 -0.3042874,-0.30429 -0.3042883,-0.30428 -2.212767,2.21194 c -2.13077936,2.13 -2.21704697,2.21196 -2.3282861,2.21196 -0.078575,0 -0.13591112,-0.0219 -0.17927371,-0.0684 z m 6.32944778,-4.47768 c 0.6439696,-0.42852 0.7382459,-0.51616 0.8243516,-0.76628 0.1008363,-0.29291 -0.012478,-0.67548 -0.2513317,-0.8485 -0.1631246,-0.11817 -0.405509,-0.16825 -0.6015767,-0.12431 -0.1984189,0.0445 -0.2919802,0.0969 -0.4286513,0.24011 -0.1073552,0.11251 -0.8393329,1.20579 -0.8393329,1.25362 0,0.0235 0.6304302,0.66411 0.653551,0.66411 0.00751,0 0.2968679,-0.18844 0.64299,-0.41875 z m 3.5254476,3.95144 c -0.6503639,-0.1704 -1.1277504,-0.61297 -1.3390843,-1.24143 -0.068273,-0.20303 -0.085863,-0.32846 -0.1064743,-0.75913 -0.01358,-0.28375 -0.053726,-0.70359 -0.089229,-0.93295 -0.1264264,-0.81693 -0.1899078,-1.71105 -0.2700916,-3.80414 -0.025697,-0.67069 -0.055746,-1.4305 -0.06679,-1.68846 -0.016224,-0.37904 -0.00979,-0.51968 0.033492,-0.73316 0.1346634,-0.66393 0.4891581,-1.17743 1.1122742,-1.61114 0.1461764,-0.10176 0.490904,-0.40421 0.766062,-0.67213 0.326593,-0.31799 0.583832,-0.53917 0.740925,-0.63704 1.358507,-0.84646 3.093588,-0.67648 4.222847,0.4137 0.147083,0.14199 0.17979,0.19223 0.17979,0.27616 0,0.12914 -0.09446,0.22767 -0.218252,0.22767 -0.06984,0 -0.144054,-0.0462 -0.296289,-0.18406 -0.258704,-0.23444 -0.485264,-0.38441 -0.8122,-0.53762 -0.71364,-0.33443 -1.594473,-0.35379 -2.331599,-0.0512 -0.445733,0.18293 -0.642946,0.32463 -1.187012,0.85287 -0.284396,0.27613 -0.636685,0.58514 -0.7828619,0.68669 -0.3769352,0.26186 -0.601192,0.50341 -0.750783,0.80869 -0.2009526,0.4101 -0.2301689,0.57566 -0.2075681,1.17627 0.1473813,3.91661 0.1823634,4.47208 0.3494128,5.54831 0.047726,0.3075 0.077385,0.6315 0.077385,0.84547 0,0.55107 0.1191854,0.88982 0.4183226,1.18896 0.2956506,0.29564 0.7137756,0.44079 1.1955506,0.41502 0.55042,-0.0295 1.001074,-0.28829 1.308757,-0.75169 0.194502,-0.29295 0.240954,-0.47655 0.270882,-1.07068 0.03104,-0.61631 0.06234,-0.8316 0.171995,-1.18322 0.216714,-0.69488 0.710856,-1.32784 1.371573,-1.75687 0.513495,-0.33344 0.982714,-0.87884 1.185561,-1.37805 0.115483,-0.2842 0.581469,-1.84354 0.629768,-2.1074 0.09233,-0.50438 0.03382,-1.07402 -0.161759,-1.57505 -0.153154,-0.39235 -0.160209,-0.44435 -0.0729,-0.53728 0.09214,-0.0981 0.227899,-0.0999 0.323498,-0.004 0.08796,0.088 0.246895,0.49137 0.338583,0.85939 0.08644,0.34697 0.09501,1.08497 0.01664,1.43348 -0.109252,0.48586 -0.593393,2.00503 -0.7269,2.28092 -0.270676,0.55936 -0.674491,1.0077 -1.276974,1.41781 -0.94129,0.64072 -1.334266,1.43153 -1.334266,2.685 0,0.84664 -0.44434,1.56935 -1.199116,1.95037 -0.421507,0.21278 -1.015015,0.27289 -1.48318,0.15023 z m 0.165234,-3.679 c -0.03439,-0.008 -0.216544,-0.0644 -0.404775,-0.12606 -0.2991398,-0.098 -0.3608711,-0.13071 -0.4901881,-0.26003 -0.1269288,-0.12694 -0.1609324,-0.18958 -0.2393337,-0.44095 -0.1592954,-0.51072 -0.178783,-0.60939 -0.1380253,-0.69886 0.048692,-0.10686 0.1782825,-0.15524 0.2908846,-0.10861 0.095843,0.0397 0.1399062,0.13164 0.2465883,0.51447 0.1221947,0.43852 0.1338883,0.45001 0.6030892,0.59301 0.41684,0.12704 0.555389,0.0641 0.619245,-0.28133 0.07856,-0.42493 0.276255,-0.61937 0.743165,-0.73089 0.143393,-0.0342 0.293388,-0.0837 0.333321,-0.10985 0.08928,-0.0585 0.458562,-0.76165 0.567842,-1.08123 0.06151,-0.17988 0.08072,-0.30007 0.08249,-0.51592 0.0045,-0.54517 -0.162338,-0.95735 -0.538243,-1.33014 -0.31958,-0.31692 -0.671718,-0.48471 -1.310462,-0.62442 l -0.25976,-0.0568 -0.03457,0.0833 c -0.01901,0.0458 -0.03418,0.21696 -0.03372,0.38033 0.0012,0.40229 0.07071,0.5768 0.487379,1.22282 0.184214,0.28562 0.334935,0.54754 0.334935,0.58205 0,0.19607 -0.265695,0.30115 -0.397414,0.15718 -0.110187,-0.12042 -0.640529,-0.96741 -0.729291,-1.16472 -0.3308137,-0.73534 -0.175793,-1.60865 0.38807,-2.1862 0.58892,-0.6032 1.512663,-0.77669 2.263835,-0.42518 0.29421,0.13767 0.480042,0.28569 0.775954,0.61806 0.293344,0.32947 0.328928,0.43508 0.190441,0.56519 -0.125863,0.11824 -0.227486,0.0903 -0.406869,-0.11181 -0.314182,-0.354 -0.523116,-0.53703 -0.717823,-0.6288 -0.473795,-0.22332 -0.94633,-0.21142 -1.409582,0.0355 -0.174566,0.0931 -0.488875,0.36733 -0.488875,0.42663 0,0.0142 0.05405,0.0344 0.120112,0.045 0.257688,0.0412 0.690741,0.18541 0.974262,0.32442 0.249815,0.12249 0.342394,0.19081 0.582257,0.42974 0.242823,0.24186 0.306556,0.32808 0.428822,0.58014 0.182642,0.37651 0.238594,0.61831 0.239174,1.03365 6.5e-4,0.46923 -0.07015,0.72281 -0.36563,1.30959 -0.343985,0.68306 -0.426863,0.76517 -0.882215,0.87393 -0.386019,0.0922 -0.446644,0.14461 -0.482142,0.41682 -0.05908,0.45306 -0.513954,0.78591 -0.942953,0.69 z"
       id="path688"
       inkscape:connector-curvature="0" />
    <path
       style="fill:#ffffff;stroke-width:0.00084413;stroke-miterlimit:4;stroke-dasharray:none"
       d="m 10.51737,293.16271 c -0.29235,-0.0644 -0.5282071,-0.19343 -0.7282041,-0.39847 -0.2831568,-0.29031 -0.3693083,-0.53978 -0.4003647,-1.15934 -0.011532,-0.23007 -0.026244,-0.45621 -0.032692,-0.50252 -0.2072325,-1.48854 -0.2313299,-1.80321 -0.3350286,-4.37481 -0.069238,-1.71695 -0.071141,-2.04207 -0.013249,-2.26649 0.1211279,-0.46959 0.3735278,-0.82587 0.8241116,-1.1633 0.2715648,-0.20336 0.4323528,-0.34279 0.9089058,-0.78812 0.491833,-0.45962 0.629695,-0.56467 0.937896,-0.71472 0.492593,-0.2398 0.838386,-0.31259 1.407054,-0.29617 0.309138,0.009 0.419101,0.0214 0.591856,0.0668 0.531393,0.13997 0.917962,0.35027 1.368587,0.74454 0.154618,0.13528 0.272387,0.185 0.345501,0.14587 0.04083,-0.0219 0.05829,-0.008 0.166545,0.13704 0.162223,0.21658 0.161174,0.21438 0.123105,0.25779 -0.06913,0.0788 -0.0652,0.13248 0.02933,0.40024 0.211198,0.59822 0.257926,0.86283 0.238584,1.35104 -0.0139,0.35101 -0.02781,0.41362 -0.285111,1.28338 -0.330999,1.1189 -0.435571,1.37884 -0.698359,1.73595 -0.201211,0.27344 -0.524271,0.57989 -0.867989,0.82338 -0.548397,0.38849 -0.912823,0.79043 -1.164464,1.28431 -0.232403,0.45614 -0.3123,0.78906 -0.360861,1.50368 -0.03864,0.56866 -0.06528,0.76239 -0.127997,0.93116 -0.0663,0.17838 -0.241844,0.42504 -0.429054,0.60288 -0.200211,0.19018 -0.486786,0.33983 -0.754551,0.39403 -0.206074,0.0418 -0.55836,0.0425 -0.743553,0.002 z m 0.500296,-3.28246 c 0.240093,-0.12165 0.402254,-0.34747 0.456838,-0.63614 0.05004,-0.26466 0.08113,-0.2905 0.483421,-0.40192 0.46543,-0.12891 0.537682,-0.20195 0.883475,-0.89315 0.297252,-0.59416 0.356287,-0.81453 0.353497,-1.31953 -0.0023,-0.42878 -0.05128,-0.63434 -0.242858,-1.02076 -0.12161,-0.24529 -0.168908,-0.31484 -0.33371,-0.49073 -0.244672,-0.26113 -0.414294,-0.38896 -0.695415,-0.52407 -0.24532,-0.11792 -0.676542,-0.26698 -0.897985,-0.31041 -0.07707,-0.0151 -0.144494,-0.0345 -0.149824,-0.0431 -0.03351,-0.0542 0.334092,-0.35656 0.562008,-0.46222 0.240065,-0.1113 0.423345,-0.1471 0.699486,-0.13659 0.18783,0.007 0.272492,0.0222 0.425336,0.076 0.268044,0.0942 0.406594,0.19481 0.755693,0.54893 0.351402,0.35646 0.405065,0.38381 0.536277,0.27342 0.113835,-0.0958 0.125796,-0.15299 0.06003,-0.28704 -0.06256,-0.12749 -0.37321,-0.48862 -0.543827,-0.63217 -0.796862,-0.67044 -1.978428,-0.62127 -2.712584,0.11289 -0.380455,0.38046 -0.575672,0.85588 -0.575672,1.40196 0,0.27436 0.04225,0.51599 0.127438,0.72878 0.107928,0.2696 0.680074,1.18101 0.801198,1.27629 0.119066,0.0936 0.323881,0.0294 0.36251,-0.11381 0.02542,-0.0942 -0.01011,-0.16645 -0.348806,-0.70923 -0.39954,-0.64028 -0.451084,-0.77773 -0.450864,-1.20228 1.57e-4,-0.28036 0.02745,-0.40651 0.088,-0.40651 0.02274,0 0.18559,0.0361 0.36188,0.0803 0.577155,0.14455 0.881218,0.3033 1.191563,0.62214 0.355531,0.36525 0.502519,0.73747 0.502519,1.27256 0,0.28638 -0.04671,0.47696 -0.200542,0.81812 -0.152093,0.33732 -0.378117,0.73335 -0.442672,0.77565 -0.0284,0.0186 -0.169167,0.0683 -0.312818,0.11039 -0.143649,0.0421 -0.309459,0.10278 -0.368465,0.13482 -0.199549,0.10837 -0.324738,0.28964 -0.38503,0.55749 -0.04747,0.21091 -0.07282,0.26641 -0.152104,0.33313 -0.06282,0.0529 -0.08134,0.057 -0.203695,0.0451 -0.156589,-0.0152 -0.526668,-0.12797 -0.630626,-0.19212 -0.09317,-0.0575 -0.1397338,-0.15281 -0.2406852,-0.49267 -0.1220595,-0.41093 -0.1786659,-0.49135 -0.3458255,-0.49135 -0.077834,0 -0.1914659,0.0903 -0.2108569,0.16756 -0.017395,0.0693 0.02799,0.271 0.1444866,0.64205 0.1025007,0.32647 0.1990238,0.4706 0.3934223,0.58746 0.12768,0.0768 0.6578137,0.25785 0.8113287,0.27717 0.149352,0.0188 0.311997,-0.009 0.44446,-0.0762 z"
       id="path696"
       inkscape:connector-curvature="0" />
    <path
       style="fill:#ffffff;stroke-width:0.00084413;stroke-miterlimit:4;stroke-dasharray:none"
       d="m 5.85511,289.7527 c -0.1689021,-0.17408 -0.3070951,-0.32324 -0.3070951,-0.33146 0,-0.0461 0.6937262,-1.07661 0.8390363,-1.24638 0.046731,-0.0546 0.1390223,-0.12153 0.2278889,-0.16528 0.1343414,-0.0661 0.1684719,-0.0734 0.3396588,-0.0725 0.2430605,9.8e-4 0.384635,0.0594 0.5247803,0.21527 0.1281648,0.14254 0.1903829,0.30908 0.1903829,0.50956 0,0.22798 -0.064614,0.38197 -0.2271202,0.54127 -0.1190625,0.11671 -1.2079515,0.86564 -1.2589628,0.8659 -0.011814,6e-5 -0.159667,-0.14231 -0.3285691,-0.31639 z"
       id="path698"
       inkscape:connector-curvature="0" />
    <path
       style="fill:#ffffff;stroke-width:0.00084413;stroke-miterlimit:4;stroke-dasharray:none"
       d="m 0.57506079,295.47399 c 0.008097,-0.11441 0.0147706,-0.44265 0.0147706,-0.72944 v -0.52142 h 0.077014 c 0.0597166,0 0.10861866,-0.0259 0.21775828,-0.11548 0.077414,-0.0635 1.08315743,-1.05576 2.23499033,-2.20499 l 2.094242,-2.0895 0.2953792,0.29539 0.2953791,0.29537 -0.5486581,0.5528 c -0.9203957,0.92735 -0.9818167,1.00133 -0.937296,1.12905 0.023688,0.068 0.019941,0.0744 -0.1281629,0.22256 -0.139557,0.13956 -0.1574739,0.1507 -0.2101359,0.13068 -0.1003134,-0.0382 -0.2183827,0.0475 -0.7044179,0.51089 -0.4613934,0.43991 -1.9773142,1.9585 -2.46175244,2.4661 l -0.2538663,0.266 z"
       id="path700"
       inkscape:connector-curvature="0" />
  </g>
</svg>
