<?xml version="1.0" encoding="UTF-8" standalone="no"?>
<!-- Created with Inkscape (http://www.inkscape.org/) -->

<svg
   xmlns:dc="http://purl.org/dc/elements/1.1/"
   xmlns:cc="http://creativecommons.org/ns#"
   xmlns:rdf="http://www.w3.org/1999/02/22-rdf-syntax-ns#"
   xmlns:svg="http://www.w3.org/2000/svg"
   xmlns="http://www.w3.org/2000/svg"
   xmlns:sodipodi="http://sodipodi.sourceforge.net/DTD/sodipodi-0.dtd"
   xmlns:inkscape="http://www.inkscape.org/namespaces/inkscape"
   width="64"
   height="64"
   viewBox="0 0 16.933333 16.933333"
   version="1.1"
   id="svg8"
   inkscape:version="0.92.5 (2060ec1f9f, 2020-04-08)"
   sodipodi:docname="ears_64x64.svg">
  <defs
     id="defs2" />
  <sodipodi:namedview
     id="base"
     pagecolor="#ffffff"
     bordercolor="#666666"
     borderopacity="1.0"
     inkscape:pageopacity="0.0"
     inkscape:pageshadow="2"
     inkscape:zoom="2.8"
     inkscape:cx="90.849522"
     inkscape:cy="8.6313702"
     inkscape:document-units="mm"
     inkscape:current-layer="layer1"
     showgrid="false"
     units="px"
     inkscape:window-width="1208"
     inkscape:window-height="987"
     inkscape:window-x="1992"
     inkscape:window-y="0"
     inkscape:window-maximized="1" />
  <metadata
     id="metadata5">
    <rdf:RDF>
      <cc:Work
         rdf:about="">
        <dc:format>image/svg+xml</dc:format>
        <dc:type
           rdf:resource="http://purl.org/dc/dcmitype/StillImage" />
        <dc:title></dc:title>
      </cc:Work>
    </rdf:RDF>
  </metadata>
  <g
     inkscape:label="Layer 1"
     inkscape:groupmode="layer"
     id="layer1"
     transform="translate(0,-280.06667)">
    <path
       style="fill:#000000;stroke-width:0.0291673"
       d="m 7.1605394,295.97965 c -1.0194084,-0.14959 -1.8369646,-0.69205 -2.1950848,-1.45646 -0.052002,-0.111 -0.1577559,-0.32612 -0.2350097,-0.47805 -0.3575818,-0.70323 -0.6430059,-1.4486 -0.753347,-1.96733 -0.09238,-0.43429 -0.092462,-0.95657 -2.095e-4,-1.22519 0.1221229,-0.35553 0.343435,-0.58518 0.6999877,-0.72636 0.1440988,-0.0571 0.2199149,-0.0654 0.6023571,-0.0667 0.3263731,-8.5e-4 0.4956437,0.0122 0.6663663,0.0523 0.4241753,0.0994 0.5475751,0.2878 0.8190789,1.25017 0.2014822,0.71418 0.2880132,0.94785 0.402382,1.0866 l 0.09071,0.11005 0.2503418,-0.0122 c 0.3533935,-0.0172 0.5515306,-0.10952 0.6437098,-0.29994 0.055683,-0.11502 0.063816,-0.16716 0.049477,-0.31715 -0.029383,-0.30732 -0.2062447,-0.72436 -0.5270554,-1.24276 -0.1944287,-0.31419 -0.1855374,-0.36306 0.1182692,-0.65006 0.4394717,-0.41517 0.8364307,-0.99779 0.9888319,-1.45133 0.076807,-0.22858 0.073213,-0.58435 -0.00771,-0.76291 -0.1207173,-0.26638 -0.4646223,-0.51106 -0.8140315,-0.57916 -0.5169122,-0.10076 -1.0009986,0.24051 -1.3679261,0.96433 -0.1264947,0.24953 -0.2434338,0.3101 -0.4212192,0.21816 -0.089233,-0.0461 -0.1869862,-0.25196 -0.3328752,-0.70086 -0.3010856,-0.92643 -0.3861482,-1.89603 -0.2238965,-2.55213 0.077164,-0.31203 0.275197,-0.7208 0.4589066,-0.94724 0.3532284,-0.43538 0.9186352,-0.74651 1.5400237,-0.84744 0.3400093,-0.0552 1.0444467,-0.0552 1.3610969,0 1.2702436,0.22151 2.0799426,1.02232 2.2717176,2.24677 0.07479,0.47751 0.03091,1.28787 -0.105028,1.93963 -0.05732,0.2748 -0.08357,0.34728 -0.145256,0.40105 -0.10621,0.0926 -0.231916,0.0852 -0.336792,-0.0196 -0.102222,-0.10222 -0.105411,-0.15961 -0.02953,-0.53133 0.142809,-0.69953 0.157317,-1.50365 0.03545,-1.96472 -0.287646,-1.08825 -1.166596,-1.63203 -2.5552768,-1.58088 -0.4970668,0.0183 -0.6747756,0.0575 -1.0270938,0.22665 -0.4306979,0.20675 -0.7578278,0.57801 -0.8956901,1.01652 -0.1836884,0.58427 -0.1647002,1.24984 0.060394,2.11692 0.041646,0.16041 0.081401,0.30162 0.088346,0.3138 0.00695,0.0122 0.066473,-0.046 0.1322835,-0.12925 0.3676594,-0.46512 0.8352699,-0.72415 1.3072652,-0.72415 0.2192973,0 0.5745906,0.0938 0.7898963,0.20857 0.2449532,0.13056 0.5590292,0.4292 0.6526677,0.62059 0.3715197,0.75936 0.092355,1.63994 -0.852763,2.68989 l -0.2139935,0.23774 0.090626,0.1537 c 0.1598246,0.27106 0.317965,0.60387 0.3974026,0.83632 0.065051,0.19036 0.077711,0.2794 0.07984,0.56164 0.00231,0.30913 -0.00354,0.34686 -0.07464,0.48126 -0.213733,0.40392 -0.6099176,0.59656 -1.2287345,0.5975 -0.3407228,4.7e-4 -0.4294111,-0.031 -0.5951684,-0.21139 -0.2134985,-0.23235 -0.3037615,-0.44767 -0.5609283,-1.33802 -0.1974321,-0.68354 -0.2720029,-0.86537 -0.3630115,-0.88513 -0.3704725,-0.0805 -0.7221273,-0.0951 -0.9462597,-0.0394 -0.2254645,0.056 -0.350888,0.15325 -0.4383467,0.33982 -0.1818075,0.38784 -0.048857,1.17964 0.3608603,2.14914 0.2551953,0.60386 0.650256,1.36775 0.8033179,1.55329 0.3768548,0.45684 0.9715692,0.74229 1.7266074,0.82876 0.5324099,0.061 1.2583221,-0.0598 1.7530856,-0.29164 0.5372998,-0.25178 0.7159606,-0.43046 0.9819518,-0.98205 0.344896,-0.71521 0.534616,-1.26911 0.819205,-2.39172 0.205553,-0.81083 0.355497,-1.20422 0.767112,-2.01254 0.428327,-0.84114 0.609797,-1.26304 0.834293,-1.93963 0.804648,-2.42506 0.399787,-4.33211 -1.153153,-5.43178 -0.425898,-0.30158 -0.914922,-0.50571 -1.483137,-0.61904 -1.5311358,-0.30542 -2.8296348,-0.22273 -3.8259149,0.24364 -1.0023209,0.46919 -1.7240467,1.41441 -2.0547689,2.69105 -0.1908568,0.73674 -0.2513237,1.35548 -0.2201838,2.2531 0.012292,0.35435 0.023909,0.70635 0.025811,0.78222 0.00415,0.16491 -0.062962,0.24904 -0.2188269,0.27433 -0.1395482,0.0226 -0.2511529,-0.0738 -0.2912265,-0.25185 -0.046686,-0.20735 -0.077558,-1.22652 -0.050523,-1.66791 0.12207,-1.99303 0.8525837,-3.47947 2.1141155,-4.30178 0.7240686,-0.47197 1.7292287,-0.7388 2.7831694,-0.7388 0.8459623,0 1.9803541,0.17555 2.5798041,0.39923 0.717166,0.26761 1.448582,0.81349 1.888094,1.40915 0.822052,1.11412 1.051184,2.5419 0.676373,4.21468 -0.20117,0.89781 -0.485054,1.63324 -1.131522,2.93131 -0.45509,0.9138 -0.514763,1.07452 -0.774251,2.08546 -0.261582,1.0191 -0.471496,1.61763 -0.819007,2.33524 -0.213934,0.44178 -0.363718,0.63696 -0.668276,0.87085 -0.3992205,0.30658 -0.9266425,0.52292 -1.5339624,0.6292 -0.2966265,0.0519 -0.9361325,0.0598 -1.23961,0.0152 z"
       id="path617"
       inkscape:connector-curvature="0" />
    <path
       style="fill:#ffffff;stroke-width:0.00157484;stroke-miterlimit:4;stroke-dasharray:none"
       d="m 7.0973786,295.40709 c -0.3688267,-0.0831 -0.6024515,-0.17328 -0.882235,-0.34059 -0.3971571,-0.2375 -0.6141276,-0.51808 -0.9855156,-1.27445 -0.5432666,-1.10642 -0.7619079,-1.7905 -0.7642639,-2.39122 -0.00156,-0.39699 0.08725,-0.58262 0.3427126,-0.71638 0.165936,-0.0869 0.2260519,-0.0949 0.5809313,-0.0778 0.2177132,0.0105 0.4293488,0.0329 0.4703016,0.0498 0.1094327,0.0453 0.1641915,0.175 0.4044247,0.95821 0.2625719,0.85605 0.3614162,1.07473 0.5839338,1.2919 l 0.1705877,0.16647 0.4041524,-0.002 c 0.6040647,-0.003 0.8756303,-0.10876 1.1503008,-0.45025 0.1275252,-0.15856 0.1288709,-0.1653 0.1288709,-0.64622 v -0.486 l -0.2553516,-0.51946 -0.255351,-0.51946 0.3178526,-0.38167 c 0.7482767,-0.8985 1.001585,-1.61087 0.817099,-2.2979 -0.067933,-0.25296 -0.1047412,-0.31008 -0.3706682,-0.57515 -0.3803251,-0.37911 -0.6635825,-0.49739 -1.1911012,-0.49739 -0.3075042,0 -0.3871183,0.0162 -0.6041798,0.12255 -0.1452629,0.0712 -0.368168,0.23804 -0.5320425,0.3982 l -0.2820371,0.27563 -0.062956,-0.21068 c -0.2634114,-0.88153 -0.2417422,-1.9081 0.051656,-2.44716 0.2467344,-0.45334 0.8081332,-0.82803 1.373738,-0.91689 0.3525962,-0.0554 1.1184649,-0.0193 1.4445607,0.068 0.7483135,0.20048 1.2096892,0.63915 1.4701432,1.39778 0.11059,0.32211 0.11045,1.34226 -2.5e-4,1.96469 -0.04342,0.24411 -0.06786,0.4727 -0.05432,0.508 0.01354,0.0353 0.07237,0.0955 0.13073,0.1337 0.150371,0.0985 0.306593,0.0494 0.375984,-0.11824 0.196473,-0.47468 0.278675,-2.00128 0.136205,-2.52982 -0.176411,-0.65446 -0.617362,-1.26884 -1.134133,-1.58017 -0.5851486,-0.35254 -1.3651451,-0.50173 -2.2063896,-0.42202 -1.0055195,0.0953 -1.6958741,0.53022 -2.0658253,1.30154 -0.2350234,0.49 -0.3041645,0.85531 -0.2785095,1.47149 0.032412,0.77849 0.3488482,2.02292 0.5765388,2.26732 0.145463,0.15613 0.3236613,0.10585 0.4735649,-0.13362 0.2780792,-0.44425 0.5074813,-0.71872 0.6997848,-0.83729 0.3859636,-0.23795 0.8831461,-0.18064 1.252372,0.14436 0.2281275,0.20081 0.2912214,0.37388 0.2698268,0.74017 -0.025985,0.44487 -0.3442811,1.00578 -0.9110406,1.60545 -0.1760589,0.18629 -0.333624,0.38171 -0.3501448,0.43425 -0.022994,0.0732 0.025306,0.19246 0.2059341,0.50871 0.129785,0.22722 0.2809136,0.54049 0.3358419,0.69613 0.2290364,0.64899 0.069573,0.91372 -0.5963116,0.98998 l -0.2187617,0.0251 -0.1194762,-0.1884 c -0.069983,-0.11035 -0.2037524,-0.47687 -0.3229167,-0.88478 -0.1118921,-0.38302 -0.2596917,-0.80983 -0.3284431,-0.94848 -0.1060476,-0.21386 -0.1565951,-0.26789 -0.3333405,-0.35626 -0.1860024,-0.093 -0.269949,-0.10572 -0.7830137,-0.11863 -0.5505729,-0.0138 -0.584057,-0.01 -0.7983728,0.095 -0.1230341,0.0602 -0.288017,0.18064 -0.3666288,0.26766 l -0.142931,0.15821 -0.1921082,-1.25072 c -0.185237,-1.20598 -0.1893497,-1.25265 -0.1149775,-1.30475 0.071269,-0.0499 0.078628,-0.14669 0.096826,-1.27336 0.021276,-1.31725 0.055955,-1.58358 0.3040536,-2.33527 0.662523,-2.00731 2.2918245,-2.96094 4.6852534,-2.74228 1.4713133,0.13442 2.2749143,0.45163 3.0184783,1.19148 0.79138,0.78745 1.09954,1.65519 1.0506,2.9584 -0.04556,1.21319 -0.323849,2.13046 -1.194631,3.93759 -0.469459,0.97426 -0.590487,1.30149 -0.87341,2.36139 -0.233917,0.8763 -0.422867,1.40821 -0.709457,1.99716 -0.282937,0.58145 -0.4867738,0.80033 -0.9484868,1.01848 -0.5979878,0.28254 -1.5131255,0.40035 -2.0936746,0.26956 z"
       id="path621"
       inkscape:connector-curvature="0" />
  </g>
</svg>
