<?xml version="1.0" encoding="UTF-8" standalone="no"?>
<!-- Created with Inkscape (http://www.inkscape.org/) -->

<svg
   xmlns:dc="http://purl.org/dc/elements/1.1/"
   xmlns:cc="http://creativecommons.org/ns#"
   xmlns:rdf="http://www.w3.org/1999/02/22-rdf-syntax-ns#"
   xmlns:svg="http://www.w3.org/2000/svg"
   xmlns="http://www.w3.org/2000/svg"
   xmlns:sodipodi="http://sodipodi.sourceforge.net/DTD/sodipodi-0.dtd"
   xmlns:inkscape="http://www.inkscape.org/namespaces/inkscape"
   width="64"
   height="64"
   viewBox="0 0 16.933333 16.933334"
   version="1.1"
   id="svg8"
   inkscape:version="0.92.5 (2060ec1f9f, 2020-04-08)"
   sodipodi:docname="end_of_service_64x64.svg">
  <defs
     id="defs2" />
  <sodipodi:namedview
     id="base"
     pagecolor="#ffffff"
     bordercolor="#666666"
     borderopacity="1.0"
     inkscape:pageopacity="0.0"
     inkscape:pageshadow="2"
     inkscape:zoom="7.919596"
     inkscape:cx="59.176484"
     inkscape:cy="41.038701"
     inkscape:document-units="mm"
     inkscape:current-layer="layer1"
     showgrid="false"
     units="px"
     inkscape:window-width="1208"
     inkscape:window-height="987"
     inkscape:window-x="1992"
     inkscape:window-y="0"
     inkscape:window-maximized="1" />
  <metadata
     id="metadata5">
    <rdf:RDF>
      <cc:Work
         rdf:about="">
        <dc:format>image/svg+xml</dc:format>
        <dc:type
           rdf:resource="http://purl.org/dc/dcmitype/StillImage" />
        <dc:title></dc:title>
      </cc:Work>
    </rdf:RDF>
  </metadata>
  <g
     inkscape:label="Layer 1"
     inkscape:groupmode="layer"
     id="layer1"
     transform="translate(0,-280.06665)">
    <path
       style="fill:#ffffff;stroke-width:0.22907396;stroke-miterlimit:4;stroke-dasharray:none"
       d=""
       id="path12841"
       inkscape:connector-curvature="0"
       transform="matrix(0.26458333,0,0,0.26458333,0,280.06665)" />
    <path
       style="fill:#000000;stroke-width:0.07897957"
       d="m 1.1008039,294.29903 -0.57465731,-0.36883 0.0218002,-0.55285 0.0218002,-0.55285 H 8.507194 16.444641 l 0.02172,0.55285 0.02172,0.55285 -0.597981,0.37516 -0.597982,0.37515 -6.8083362,-0.006 -6.8083341,-0.006 z m 0.5351675,-2.77254 c 0,-2.27767 1.246,-4.46746 3.2541973,-5.71912 0.6255729,-0.38991 1.6029484,-0.78361 2.1849598,-0.88013 l 0.344975,-0.0573 -0.048209,-0.36664 c -0.026513,-0.20166 -0.071213,-0.6043 -0.099329,-0.89479 -0.049706,-0.51352 -0.044421,-0.53485 0.1907797,-0.77005 0.238118,-0.23812 0.2544462,-0.2419 1.0438485,-0.2419 0.7810558,0 0.8079602,0.006 1.0328093,0.23087 0.26576,0.26575 0.2846488,0.4884 0.1196484,1.41035 -0.056602,0.31625 -0.08138,0.58774 -0.055078,0.60332 0.026302,0.0155 0.2432992,0.0687 0.4822136,0.11818 0.645207,0.13343 0.686786,0.17497 0.492815,0.49227 -0.774708,1.26719 -0.398297,3.06914 0.830538,3.97595 0.454385,0.33529 1.232651,0.59314 1.790324,0.59314 0.477166,0 1.155937,-0.18247 1.530528,-0.41144 0.143461,-0.0876 0.278985,-0.14129 0.301166,-0.1191 0.160346,0.16034 0.493341,2.3716 0.395527,2.6265 -0.0384,0.10012 -0.960272,0.11547 -6.9180115,0.11547 H 1.6359711 Z m 1.6228455,-0.56411 c 0.028917,-0.0467 0.1035954,-0.30445 0.1659527,-0.5726 0.2524469,-1.08555 1.0768894,-2.27765 2.0890517,-3.02064 0.2917413,-0.21416 0.3891785,-0.33433 0.3715092,-0.45819 -0.098701,-0.69183 -1.796932,0.71819 -2.505626,2.08038 -0.3381442,0.64996 -0.6661314,1.733 -0.5871492,1.93883 0.0519,0.13524 0.3882238,0.15849 0.4662616,0.0322 z m 9.1446321,-1.63588 c -2.086604,-0.74577 -2.258797,-3.60154 -0.275875,-4.57531 0.375751,-0.18453 0.547859,-0.21955 1.078904,-0.21955 0.531045,0 0.703153,0.0351 1.078903,0.21955 0.515608,0.2532 0.959368,0.70897 1.199479,1.2319 0.234837,0.51146 0.234837,1.48236 0,1.99383 -0.535033,1.16526 -1.910986,1.76789 -3.081411,1.34958 z m 1.948233,-2.3465 v -0.27642 h -1.145204 -1.145204 v 0.27642 0.27643 h 1.145204 1.145204 z"
       id="path13258"
       inkscape:connector-curvature="0" />
    <path
       style="fill:#ffffff;stroke-width:0.00226151;stroke-miterlimit:4;stroke-dasharray:none"
       d="m 2.9295151,291.02088 c -0.034962,-0.0106 -0.082729,-0.0438 -0.1061476,-0.0735 -0.036886,-0.0469 -0.040868,-0.0701 -0.029773,-0.17427 0.04442,-0.41674 0.333733,-1.27577 0.601369,-1.7856 0.4892559,-0.93197 1.5303966,-2.00896 2.1399941,-2.21368 0.2094447,-0.0702 0.3161884,-0.0245 0.3341496,0.14356 0.012914,0.12079 -0.05767,0.20735 -0.360993,0.4427 -0.3441556,0.26702 -0.6014464,0.50072 -0.8233651,0.74788 -0.6142808,0.6841 -1.0506255,1.45198 -1.2426195,2.18676 -0.1372793,0.52539 -0.1845338,0.66958 -0.2289872,0.6987 -0.057139,0.0374 -0.2043327,0.0516 -0.2836267,0.0275 z"
       id="path13260"
       inkscape:connector-curvature="0" />
    <path
       style="fill:#ffffff;stroke-width:0.00226151;stroke-miterlimit:4;stroke-dasharray:none"
       d="m 12.078191,286.98296 v -0.26925 h 1.136885 1.136885 v 0.26925 0.26927 h -1.136885 -1.136885 z"
       id="path13262"
       inkscape:connector-curvature="0" />
  </g>
</svg>
