<?xml version="1.0" encoding="UTF-8" standalone="no"?>
<!-- Created with Inkscape (http://www.inkscape.org/) -->

<svg
   xmlns:dc="http://purl.org/dc/elements/1.1/"
   xmlns:cc="http://creativecommons.org/ns#"
   xmlns:rdf="http://www.w3.org/1999/02/22-rdf-syntax-ns#"
   xmlns:svg="http://www.w3.org/2000/svg"
   xmlns="http://www.w3.org/2000/svg"
   xmlns:sodipodi="http://sodipodi.sourceforge.net/DTD/sodipodi-0.dtd"
   xmlns:inkscape="http://www.inkscape.org/namespaces/inkscape"
   width="64"
   height="64"
   viewBox="0 0 16.933333 16.933334"
   version="1.1"
   id="svg8"
   inkscape:version="0.92.5 (2060ec1f9f, 2020-04-08)"
   sodipodi:docname="entrance_front_64x64.svg">
  <defs
     id="defs2" />
  <sodipodi:namedview
     id="base"
     pagecolor="#ffffff"
     bordercolor="#666666"
     borderopacity="1.0"
     inkscape:pageopacity="0.0"
     inkscape:pageshadow="2"
     inkscape:zoom="5.6"
     inkscape:cx="57.680725"
     inkscape:cy="9.3604785"
     inkscape:document-units="mm"
     inkscape:current-layer="layer1"
     showgrid="false"
     units="px"
     inkscape:window-width="1208"
     inkscape:window-height="987"
     inkscape:window-x="1992"
     inkscape:window-y="0"
     inkscape:window-maximized="1" />
  <metadata
     id="metadata5">
    <rdf:RDF>
      <cc:Work
         rdf:about="">
        <dc:format>image/svg+xml</dc:format>
        <dc:type
           rdf:resource="http://purl.org/dc/dcmitype/StillImage" />
        <dc:title></dc:title>
      </cc:Work>
    </rdf:RDF>
  </metadata>
  <g
     inkscape:label="Layer 1"
     inkscape:groupmode="layer"
     id="layer1"
     transform="translate(0,-280.06665)">
    <path
       style="fill:#000000;stroke-width:0.07921179"
       d="m 0.58524339,296.49801 c -0.029042,-0.0291 -0.052807,-1.82914 -0.052807,-4.00019 v -3.94739 h 0.2376348 c 0.30256051,0 0.32581371,-0.24085 0.04125,-0.4273 -0.5007158,-0.32809 -0.5829813,-1.19078 -0.1560429,-1.63641 0.43796721,-0.45715 1.13357171,-0.46199 1.56573741,-0.0114 0.4596817,0.4798 0.4318088,1.15273 -0.065847,1.58969 -0.3470802,0.30474 -0.361386,0.48492 -0.038503,0.48492 0.2323552,0 0.237636,0.009 0.237636,0.39606 0,0.39235 0.00239,0.39606 0.2522323,0.39606 0.6024219,0 1.2487891,-0.52395 1.6240157,-1.31645 0.1211078,-0.25578 0.3754249,-0.58595 0.6318711,-0.82033 0.4093432,-0.37411 0.5041113,-0.41632 2.0497938,-0.91296 l 1.6206065,-0.52072 1.6206052,0.52072 c 1.545781,0.49667 1.640428,0.53883 2.049891,0.91305 0.273145,0.24965 0.522513,0.57984 0.685621,0.90784 0.376355,0.75683 0.984102,1.22885 1.582222,1.22885 0.235408,0 0.24018,-0.008 0.24018,-0.39606 0,-0.38725 0.0052,-0.39606 0.237635,-0.39606 0.322884,0 0.30858,-0.18018 -0.0385,-0.48492 -0.500883,-0.43979 -0.525309,-1.14992 -0.05505,-1.60045 0.460349,-0.44105 1.120141,-0.43217 1.554211,0.0209 0.427672,0.44639 0.34586,1.30879 -0.155314,1.63717 -0.284926,0.18669 -0.261284,0.4273 0.04199,0.4273 h 0.238366 l -0.02054,3.9804 -0.02054,3.98039 -1.434471,0.0215 c -1.176564,0.0177 -1.451634,9e-4 -1.52994,-0.0935 -0.147366,-0.17757 0.142656,-0.29027 0.683757,-0.26572 l 0.458781,0.0209 0.02437,-0.33665 0.02437,-0.33666 H 8.5328132 2.3451845 l 0.024358,0.33666 0.024358,0.33665 1.6453357,0.008 c 0.9049346,0.005 1.6668006,0.0298 1.6930355,0.056 0.026238,0.0262 0.026592,0.1027 7.785e-4,0.16994 -0.040919,0.10657 -0.3690728,0.12223 -2.5709635,0.12223 -1.3882341,0 -2.54782421,-0.0238 -2.57686881,-0.0528 z m 1.45221611,-3.96113 v -3.66961 H 1.4433718 0.84928299 v 3.63055 c 0,1.99679 0.015046,3.64539 0.033431,3.66354 0.018385,0.0181 0.28572781,0.0358 0.59408881,0.0391 l 0.5606571,0.006 z m -0.8157835,2.53806 c -0.030547,-0.0305 -0.055543,-0.82943 -0.055543,-1.7753 0,-1.46901 0.018203,-1.73488 0.1248555,-1.82339 0.2331919,-0.19352 0.270891,0.0866 0.2510367,1.86546 -0.016732,1.49938 -0.036497,1.74489 -0.1421191,1.76519 -0.067477,0.013 -0.1476756,-10e-4 -0.1782269,-0.0319 z m 14.975681,-2.54411 0.0206,-3.66356 h -0.594881 -0.594877 v 3.68682 3.68683 l 0.574283,-0.0233 0.574286,-0.0233 z m -0.638347,1.19751 c -0.03055,-0.0306 -0.05554,-0.85275 -0.05554,-1.8271 0,-1.55127 0.01578,-1.77759 0.126809,-1.82021 0.06975,-0.0268 0.158697,10e-4 0.197665,0.0619 0.03897,0.0607 0.06211,0.89428 0.05142,1.85217 -0.01673,1.49939 -0.0365,1.7449 -0.14212,1.7652 -0.06748,0.013 -0.147674,-10e-4 -0.178226,-0.0319 z m -12.4917969,0.75842 v -0.71747 l -0.3366498,0.0244 -0.3366498,0.0244 -0.023526,0.58668 c -0.012937,0.32267 -0.00513,0.63456 0.017314,0.6931 0.024836,0.0647 0.1659159,0.10646 0.3601731,0.10646 h 0.3193328 z m 1.7030533,0.005 v -0.67375 H 4.0969667 3.4236659 l -0.023526,0.58668 c -0.012937,0.32267 -0.00456,0.63601 0.018556,0.69632 0.032177,0.0839 0.1961106,0.10418 0.6968242,0.0866 l 0.6547459,-0.023 z m 1.7030544,0 v -0.71292 H 5.80002 5.1267192 v 0.71292 0.7129 H 5.80002 6.4733208 Z m 1.8844056,-0.0227 0.022933,-0.69601 -0.7754412,0.0227 -0.7754422,0.0227 -0.023526,0.58668 c -0.012937,0.32267 -0.00467,0.63591 0.018465,0.69609 0.03245,0.0846 0.2087453,0.10429 0.7760373,0.0866 l 0.7340456,-0.0228 z m 1.8781526,0.0227 v -0.67331 l -0.7723124,-0.0227 -0.7723158,-0.0227 v 0.66297 c 0,0.36464 0.024996,0.68798 0.055566,0.71854 0.030558,0.0305 0.3781023,0.0454 0.7723158,0.0331 l 0.7167434,-0.0226 z m 1.703053,0 v -0.71292 h -0.673297 -0.673301 v 0.71292 0.7129 h 0.673301 0.673297 z m 1.703055,0 v -0.67331 h -0.6733 -0.673301 l -0.02353,0.58668 c -0.01294,0.32267 -0.0046,0.63601 0.01856,0.69632 0.03218,0.0839 0.196112,0.10418 0.696824,0.0866 l 0.654747,-0.023 z m 1.029753,0 v -0.67331 l -0.33665,-0.0244 -0.336651,-0.0244 v 0.72201 0.72202 l 0.336651,-0.0244 0.33665,-0.0244 z M 3.0672131,293.30314 c 0,-0.13496 -0.052807,-0.15843 -0.3564528,-0.15843 -0.3036456,0 -0.3564528,0.0235 -0.3564528,0.15843 0,0.13495 0.052807,0.15842 0.3564528,0.15842 0.3036444,0 0.3564528,-0.0235 0.3564528,-0.15842 z m 1.7426593,0 c 0,-0.1467 -0.052807,-0.15843 -0.7129057,-0.15843 -0.6600984,0 -0.7129056,0.0117 -0.7129056,0.15843 0,0.14668 0.052807,0.15842 0.7129056,0.15842 0.6600984,0 0.7129057,-0.0117 0.7129057,-0.15842 z m 1.6634484,0 c 0,-0.146 -0.052807,-0.15843 -0.6733008,-0.15843 -0.6204924,0 -0.6733008,0.0124 -0.6733008,0.15843 0,0.14599 0.052807,0.15842 0.6733008,0.15842 0.6204924,0 0.6733008,-0.0124 0.6733008,-0.15842 z m 1.9010809,0 c 0,-0.14787 -0.052807,-0.15843 -0.7921165,-0.15843 -0.7393092,0 -0.7921176,0.0103 -0.7921176,0.15843 0,0.14785 0.052807,0.15842 0.7921176,0.15842 0.7393082,0 0.7921165,-0.0103 0.7921165,-0.15842 z m 1.9010833,0 c 0,-0.14787 -0.05281,-0.15843 -0.7921177,-0.15843 -0.7393081,0 -0.7921165,0.0103 -0.7921165,0.15843 0,0.14785 0.052807,0.15842 0.7921165,0.15842 0.7393097,0 0.7921177,-0.0103 0.7921177,-0.15842 z m 1.663447,0 c 0,-0.146 -0.05281,-0.15843 -0.673297,-0.15843 -0.620493,0 -0.673301,0.0124 -0.673301,0.15843 0,0.14599 0.05281,0.15842 0.673301,0.15842 0.620492,0 0.673297,-0.0124 0.673297,-0.15842 z m 1.742661,0 c 0,-0.1467 -0.05281,-0.15843 -0.712906,-0.15843 -0.660097,0 -0.712906,0.0117 -0.712906,0.15843 0,0.14668 0.05281,0.15842 0.712906,0.15842 0.660098,0 0.712906,-0.0117 0.712906,-0.15842 z m 1.029753,0 c 0,-0.13496 -0.05281,-0.15843 -0.356452,-0.15843 -0.303647,0 -0.356455,0.0235 -0.356455,0.15843 0,0.13495 0.05281,0.15842 0.356455,0.15842 0.303643,0 0.356452,-0.0235 0.356452,-0.15842 z M 3.0672131,292.03772 v -0.71092 l -0.2574378,0.0445 c -0.4650091,0.0804 -0.4554678,0.0648 -0.4554678,0.74119 v 0.63618 h 0.3564528 0.3564528 z m 1.7401403,-0.93271 c -0.00274,-1.80845 0.023742,-1.75917 -0.4727519,-0.87882 -0.1716058,0.3043 -0.4055123,0.5825 -0.6138906,0.73016 l -0.3366498,0.23857 v 0.77686 0.77687 h 0.7129056 0.7129057 l -0.00251,-1.64364 z m 1.6659674,-0.49081 v -2.13445 l -0.4365243,0.15018 c -0.2400877,0.0826 -0.5430733,0.21313 -0.6733008,0.29006 l -0.2367765,0.13986 v 1.8444 1.8444 H 5.80002 6.4733208 Z m 1.9010809,-0.28151 c 0,-1.32878 -0.026649,-2.41596 -0.059213,-2.41596 -0.032564,0 -0.3890217,0.10988 -0.7921165,0.24417 l -0.7329058,0.24417 v 2.17179 2.17179 H 7.582284 8.3744005 Z m -0.7347192,1.00981 c -0.1749683,-0.19334 -0.2950332,-0.53715 -0.2950332,-0.84483 0,-0.26468 0.2753521,-0.75983 0.4554245,-0.81896 0.1713311,-0.0563 0.2057726,0.21506 0.049262,0.388 -0.1998856,0.22087 -0.1998856,0.78635 0,1.00723 0.1413987,0.15624 0.1323691,0.40732 -0.014635,0.40732 -0.038183,0 -0.1259327,-0.0625 -0.1950004,-0.13876 z m 2.6358025,-0.76564 v -2.17179 L 9.5425826,288.1609 c -0.4030983,-0.13429 -0.7595523,-0.24417 -0.79212,-0.24417 -0.032564,0 -0.059213,1.08718 -0.059213,2.41596 v 2.41596 h 0.7921165 0.7921179 z m -1.15261,0.80362 c -0.024038,-0.0627 0.033613,-0.24505 0.1281508,-0.40527 0.1906052,-0.32306 0.1691666,-0.68323 -0.055452,-0.93142 -0.1393243,-0.15394 -0.088837,-0.41724 0.069996,-0.36508 0.054437,0.0179 0.1823508,0.15451 0.2842575,0.30363 0.1494012,0.21863 0.1783911,0.34515 0.1496805,0.6533 -0.048864,0.52452 -0.4582626,1.05332 -0.5766418,0.74484 z m 2.816057,-0.47623 v -1.8444 l -0.236776,-0.13986 c -0.130226,-0.0769 -0.43321,-0.20746 -0.673301,-0.29006 l -0.436521,-0.15018 v 2.13445 2.13445 h 0.673301 0.673297 z m 1.742661,1.0625 v -0.78191 l -0.277046,-0.18844 c -0.302752,-0.20592 -0.636279,-0.63434 -0.902125,-1.15878 -0.09385,-0.18516 -0.187746,-0.33665 -0.208646,-0.33665 -0.02089,0 -0.03799,0.73073 -0.03799,1.62384 v 1.62384 h 0.712905 0.712907 z m 1.029753,0.15288 c 0,-0.34595 -0.02674,-0.64427 -0.05941,-0.66289 -0.03268,-0.0186 -0.193077,-0.058 -0.356452,-0.0875 l -0.297045,-0.0536 v 0.71651 0.71649 h 0.356456 0.356451 z M 2.8640278,291.00795 c 0.1959316,-0.0745 0.2031853,-0.1011 0.2031853,-0.7451 0,-0.72878 0.04231,-0.68032 -0.4950738,-0.56711 -0.2151362,0.0453 -0.2178318,0.0536 -0.2178318,0.66486 0,0.76688 0.045,0.82403 0.5097203,0.64735 z M 14.694748,290.3921 c 0.01266,-0.35942 -0.0051,-0.65435 -0.03961,-0.65538 -0.03443,-9e-4 -0.196282,-0.0329 -0.359656,-0.0709 l -0.297045,-0.069 v 0.66752 c 0,0.61775 0.01329,0.67295 0.178226,0.74063 0.09802,0.0402 0.249518,0.0658 0.336651,0.0569 0.142197,-0.0146 0.16078,-0.0832 0.181432,-0.66976 z m -10.8490254,-0.0252 c 0.082853,-0.10588 0.242593,-0.37466 0.3549779,-0.59717 0.112385,-0.22252 0.2954253,-0.51283 0.4067548,-0.64513 0.1723752,-0.20486 0.2024171,-0.31823 0.2024171,-0.76381 0,-0.28779 -0.026729,-0.52312 -0.059407,-0.52296 -0.032678,1.6e-4 -0.1804313,0.23435 -0.3283486,0.52039 -0.1659444,0.32093 -0.416198,0.64692 -0.6534578,0.85125 l -0.3845183,0.33113 -3.88e-5,0.61838 c -3.76e-5,0.59871 0.0049,0.61492 0.1554719,0.50946 0.085531,-0.06 0.2232984,-0.1956 0.3061509,-0.30154 z m 9.4533664,-1.15357 c -0.23704,-0.20735 -0.494372,-0.54339 -0.657061,-0.85802 -0.147088,-0.28445 -0.294163,-0.51732 -0.326837,-0.51748 -0.03268,-1.6e-4 -0.05941,0.23517 -0.05941,0.52296 0,0.44558 0.03004,0.55895 0.202416,0.76381 0.111337,0.1323 0.293243,0.42261 0.404254,0.64513 0.111006,0.22251 0.331819,0.54015 0.490686,0.70588 l 0.288851,0.30132 0.02335,-0.61138 0.02338,-0.61137 z M 5.32871,288.56026 c 0.041386,-0.0382 0.3158575,-0.14801 0.609931,-0.24409 l 0.5346798,-0.17468 v -0.66836 -0.66835 l -0.217833,0.0483 c -0.1198074,0.0266 -0.413882,0.14308 -0.6534978,0.25895 l -0.4356648,0.21066 -0.023001,0.6535 c -0.021896,0.62205 0.015718,0.74059 0.1853907,0.58409 z m 6.593624,-0.58409 -0.02302,-0.6535 -0.435664,-0.21066 c -0.239615,-0.11587 -0.53369,-0.23239 -0.653497,-0.25895 l -0.217831,-0.0483 v 0.66835 0.66836 l 0.53468,0.17469 c 0.294072,0.0961 0.568541,0.20592 0.60993,0.24409 0.169667,0.15649 0.207291,0.0379 0.18539,-0.5841 z m -10.4039321,0.4091 c -0.025509,-0.0413 -0.08014,-0.0541 -0.121402,-0.0286 -0.041261,0.0255 -0.054164,0.0801 -0.028655,0.1214 0.025509,0.0413 0.08014,0.0541 0.1214019,0.0286 0.041261,-0.0255 0.054164,-0.0801 0.028655,-0.1214 z m 14.1789111,0 c -0.02551,-0.0413 -0.08014,-0.0541 -0.121404,-0.0286 -0.04127,0.0255 -0.05416,0.0801 -0.02865,0.1214 0.02551,0.0413 0.08014,0.0541 0.121403,0.0286 0.04126,-0.0255 0.05416,-0.0801 0.02866,-0.1214 z M 1.9643409,287.76444 c 0.4899116,-0.48991 0.1618719,-1.27348 -0.5331399,-1.27348 -0.3898116,0 -0.74034201,0.35629 -0.74034201,0.75251 0,0.21427 0.060125,0.34954 0.2315426,0.52097 0.31956531,0.31956 0.72237401,0.31956 1.04193931,0 z m -1.11505791,-0.56418 c 0,-0.2388 0.34913301,-0.55088 0.61628661,-0.55088 0.2678796,0 0.5718899,0.28694 0.5718899,0.53979 0,0.23221 -0.2547376,0.22891 -0.3574718,-0.005 -0.1131372,-0.2572 -0.3352342,-0.27008 -0.4464884,-0.0259 -0.1127953,0.24756 -0.38421631,0.27698 -0.38421631,0.0416 z m 6.81221311,0.56951 0.6733008,-0.2139 0.022807,-0.68539 0.022819,-0.68539 -0.6565023,0.20104 c -0.9829748,0.301 -0.9337409,0.24938 -0.9337409,0.97894 0,0.4552 0.027572,0.6292 0.099015,0.62477 0.05446,-0.003 0.4020006,-0.10236 0.7723135,-0.22007 z m 2.6139889,-0.4047 c 0,-0.72956 0.04924,-0.67794 -0.9337409,-0.97894 l -0.6565023,-0.20104 0.022808,0.68539 0.022819,0.68539 0.6733008,0.2139 c 0.3703163,0.11766 0.7178544,0.21668 0.7723154,0.22007 0.07144,0.005 0.09901,-0.16957 0.09901,-0.62477 z m 5.867765,0.39937 c 0.171424,-0.17143 0.231543,-0.3067 0.231543,-0.52097 0,-0.66728 -0.833313,-1.0093 -1.292174,-0.53035 -0.301305,0.31449 -0.293761,0.73886 0.01868,1.05132 0.319564,0.31956 0.722373,0.31956 1.041937,0 z m -1.115055,-0.58637 c 0,-0.24459 0.31328,-0.52869 0.582988,-0.52869 0.256014,0 0.605188,0.31783 0.605188,0.55088 0,0.22236 -0.257939,0.21067 -0.357472,-0.0162 -0.04359,-0.0994 -0.148302,-0.17823 -0.236618,-0.17823 -0.08831,0 -0.193027,0.0789 -0.236614,0.17823 -0.105649,0.24082 -0.357472,0.23659 -0.357472,-0.006 z m -4.078014,9.29581 c -0.120089,-0.1943 0.09235,-0.23989 1.118052,-0.23989 0.976839,0 1.068168,0.0121 1.043904,0.13862 -0.02345,0.12228 -0.149482,0.14122 -1.069097,0.16069 -0.652755,0.0138 -1.061331,-0.008 -1.092859,-0.0594 z M 3.6503404,285.97607 c -0.062746,-0.16353 0.022329,-0.35646 0.1571998,-0.35646 0.1585711,0 0.3155703,0.21368 0.2611685,0.35545 -0.059384,0.15475 -0.3590927,0.15548 -0.4183683,9e-4 z m 9.0301456,-0.47527 c -0.02509,-0.0653 -0.02413,-0.17479 0.0021,-0.24319 0.06542,-0.17048 0.39579,-0.11284 0.431677,0.0752 0.04767,0.24992 -0.344144,0.40158 -0.433809,0.16792 z m 2.752097,-0.86129 c -0.118971,-0.14335 -0.02832,-0.36649 0.148868,-0.36649 0.219365,0 0.360227,0.2102 0.23886,0.35645 -0.122905,0.14808 -0.269992,0.1519 -0.387728,0.0103 z M 2.5919423,284.33064 c -0.2878672,-0.14315 -0.5007637,-0.61395 -0.3988456,-0.88202 0.055645,-0.14636 0.052009,-0.31523 -0.011957,-0.55437 -0.2047093,-0.76538 0.4239373,-1.36576 1.1637595,-1.11141 0.1678057,0.0577 0.3362805,0.1606 0.3743888,0.2287 0.05234,0.0935 0.1057285,0.10429 0.2182753,0.0441 0.2370706,-0.12687 0.8107124,-0.0927 1.111179,0.0662 0.1518029,0.0802 0.3457695,0.27298 0.4310384,0.42817 0.1213723,0.22091 0.2173611,0.29215 0.4421047,0.32808 0.7013868,0.11216 0.8926167,1.03076 0.2909481,1.39762 -0.2303389,0.14045 -0.4041799,0.15504 -1.8386275,0.15424 -1.1021427,-5.9e-4 -1.6444968,-0.0308 -1.7822653,-0.0993 z M 5.99805,284.01261 c 0.1364052,-0.0686 0.2055766,-0.17684 0.2222827,-0.34769 0.031151,-0.31853 -0.2088399,-0.50595 -0.5723549,-0.44695 -0.2403499,0.039 -0.2589983,0.0238 -0.352231,-0.2874 -0.1652936,-0.5517 -0.7543319,-0.78983 -1.2805851,-0.51769 -0.2471876,0.12783 -0.4726778,0.48207 -0.4726778,0.74256 0,0.23084 -0.1219969,0.26915 -0.3997689,0.12551 -0.2262276,-0.11699 -0.2617998,-0.11686 -0.4426461,10e-4 -0.1529734,0.10019 -0.1912162,0.18455 -0.1721906,0.37961 0.039346,0.40335 0.2309545,0.45006 1.8463292,0.45006 0.9877769,0 1.4866508,-0.0307 1.6238425,-0.0996 z m -2.0451206,-0.42909 c 0.023229,-0.12064 0.1113819,-0.14223 0.5807872,-0.14223 0.4391002,0 0.5533977,0.0245 0.5533977,0.11881 0,0.0927 -0.1277426,0.12397 -0.5807872,0.14223 -0.5228338,0.0211 -0.578054,0.009 -0.5533977,-0.11881 z m -0.5674709,-0.99726 c 0.1419731,-0.26489 0.1423105,-0.2823 0.00787,-0.404 -0.2965469,-0.26837 -0.7619025,-0.11503 -0.9099303,0.29985 -0.1099458,0.30815 0.00707,0.42799 0.3940163,0.40363 0.3201784,-0.0202 0.3760062,-0.0531 0.5080733,-0.29948 z m 4.6720975,1.74268 c -0.2482042,-0.12555 -0.4252412,-0.48335 -0.3626157,-0.73287 0.1841802,-0.73384 1.3131562,-0.64674 1.3131562,0.10132 0,0.35435 -0.069346,0.48728 -0.3225128,0.61819 -0.2723191,0.14082 -0.3718903,0.14295 -0.6280277,0.0133 z m 0.5134327,-0.34304 c 0.1573765,-0.15737 0.1291059,-0.41884 -0.057959,-0.53612 -0.3103135,-0.19452 -0.6260604,0.34417 -0.3290337,0.56136 0.1826836,0.13358 0.2313511,0.1304 0.3869974,-0.0252 z m 5.1043863,-0.28906 c -0.354472,-0.23889 -0.590599,-0.79717 -0.512726,-1.21227 0.08013,-0.42713 0.536595,-0.86705 0.976835,-0.94142 0.703752,-0.11891 1.364361,0.45467 1.363685,1.18399 -8.98e-4,0.90242 -1.078911,1.47437 -1.827794,0.9697 z m 1.241922,-0.40605 c 0.546165,-0.54617 0.204769,-1.38812 -0.564582,-1.39236 -0.391393,-0.002 -0.65162,0.16984 -0.80221,0.53026 -0.228465,0.54678 0.200878,1.13042 0.832112,1.13112 0.196398,2.3e-4 0.335348,-0.0696 0.53468,-0.26902 z m -13.6719551,0.30892 c -0.07867,-0.0948 -0.07867,-0.14284 0,-0.23764 0.2075257,-0.25005 0.5403799,-0.0638 0.4247044,0.23764 -0.025076,0.0653 -0.1087034,0.11882 -0.1858443,0.11882 -0.077142,0 -0.1846247,-0.0535 -0.2388601,-0.11882 z m 5.6526822,-1.18818 c -0.070075,-0.18259 0.028358,-0.35645 0.2018301,-0.35645 0.1960672,0 0.2695961,0.11387 0.2049657,0.31756 -0.058597,0.18461 -0.3405366,0.21156 -0.4067958,0.0389 z m 3.2190389,0 c -0.1213663,-0.14623 0.01949,-0.35645 0.23886,-0.35645 0.177201,0 0.26784,0.22314 0.148865,0.36649 -0.117732,0.14186 -0.264819,0.13806 -0.387725,-0.0102 z"
       id="path11037"
       inkscape:connector-curvature="0" />
    <path
       style="fill:#ffffff;stroke-width:0.00320768;stroke-miterlimit:4;stroke-dasharray:none"
       d="m 1.1546338,296.17308 -0.25460891,-0.0159 -0.017507,-0.65067 c -0.00957,-0.35786 -0.019172,-1.9969 -0.021212,-3.64232 l -0.00376,-2.99166 H 1.4374886 2.0174324 v 3.66355 3.66354 l -0.3041163,-0.006 c -0.1672643,-0.003 -0.418692,-0.0125 -0.5587263,-0.0212 z m 0.2938991,-1.0871 c 0.068947,-0.0831 0.092792,-0.55485 0.097408,-1.92751 0.00559,-1.66314 -0.00695,-1.77497 -0.1943677,-1.72793 -0.1451191,0.0365 -0.1624282,0.13088 -0.1844299,1.00654 -0.027595,1.09826 0.00764,2.62775 0.061253,2.66172 0.059817,0.0378 0.1840731,0.0307 0.2201434,-0.0128 z"
       id="path11039"
       inkscape:connector-curvature="0" />
    <path
       style="fill:#ffffff;stroke-width:0.00320768;stroke-miterlimit:4;stroke-dasharray:none"
       d="m 1.2463084,287.95674 c -0.1744679,-0.0649 -0.39169341,-0.25648 -0.47598551,-0.41976 -0.084984,-0.16463 -0.07427,-0.43007 0.02503,-0.62017 0.1444933,-0.27658 0.46816301,-0.45226 0.74744291,-0.40568 0.5236237,0.0873 0.7885649,0.60829 0.5408439,1.06344 -0.1712001,0.31454 -0.5519775,0.48834 -0.8373361,0.38217 z m -0.095915,-0.67954 c 0.049012,-0.0528 0.1187257,-0.13554 0.1549179,-0.18389 0.1160221,-0.15498 0.2651817,-0.10429 0.3838173,0.13051 0.1126243,0.22288 0.3566409,0.19198 0.3566409,-0.0451 0,-0.23509 -0.3197168,-0.54052 -0.5657988,-0.54048 -0.2355285,2e-5 -0.55490451,0.24402 -0.62480881,0.47734 -0.029054,0.097 -0.027139,0.12419 0.01313,0.18565 0.067659,0.10326 0.17222481,0.0944 0.28209761,-0.0239 z"
       id="path11041"
       inkscape:connector-curvature="0" />
    <path
       style="fill:#ffffff;stroke-width:0.00320768;stroke-miterlimit:4;stroke-dasharray:none"
       d="m 1.3771115,288.46254 c -0.0098,-0.0255 -0.00422,-0.06 0.012333,-0.0766 0.043107,-0.0431 0.1247712,-0.003 0.1135133,0.0547 -0.012538,0.0651 -0.1031867,0.0808 -0.1258403,0.0218 z"
       id="path11043"
       inkscape:connector-curvature="0" />
    <path
       style="fill:#ffffff;stroke-width:0.00320768;stroke-miterlimit:4;stroke-dasharray:none"
       d="m 2.4619405,291.03866 c -0.071739,-0.0718 -0.09001,-0.21863 -0.090444,-0.72743 -4.912e-4,-0.57267 -0.00672,-0.56134 0.3440005,-0.63098 0.3476512,-0.0691 0.334703,-0.0917 0.3339701,0.58666 -6.645e-4,0.61951 -0.00809,0.6462 -0.2019292,0.7293 -0.1929362,0.0827 -0.3302293,0.0978 -0.3856023,0.0424 z"
       id="path11045"
       inkscape:connector-curvature="0" />
    <path
       style="fill:#ffffff;stroke-width:0.00320768;stroke-miterlimit:4;stroke-dasharray:none"
       d="m 2.3622656,292.1754 c 0.00786,-0.3632 0.024643,-0.59534 0.045786,-0.63426 0.039095,-0.072 0.1419242,-0.10976 0.4392735,-0.1615 l 0.2168846,-0.0377 v 0.70317 0.70317 H 2.7070229 2.349836 Z"
       id="path11047"
       inkscape:connector-curvature="0" />
    <path
       style="fill:#ffffff;stroke-width:0.00320768;stroke-miterlimit:4;stroke-dasharray:none"
       d="m 2.4771262,293.43715 c -0.089532,-0.0195 -0.1342692,-0.11204 -0.095402,-0.19739 0.032256,-0.0708 0.090808,-0.0792 0.4703001,-0.0679 0.1900935,0.006 0.2613417,0.0926 0.1739493,0.21202 -0.030638,0.0419 -0.082613,0.0538 -0.2616825,0.0597 -0.1229008,0.005 -0.2521275,10e-4 -0.2871697,-0.007 z"
       id="path11049"
       inkscape:connector-curvature="0" />
    <path
       style="fill:#ffffff;stroke-width:0.00320768;stroke-miterlimit:4;stroke-dasharray:none"
       d="m 2.4701152,295.14446 -0.070725,-0.0359 v -0.62617 c 0,-0.34439 0.0065,-0.63271 0.014567,-0.6407 0.00798,-0.008 0.157592,-0.0236 0.3324064,-0.0346 l 0.3178453,-0.0202 v 0.69713 0.69713 l -0.2616825,-3.9e-4 c -0.1546079,-2.4e-4 -0.2906199,-0.0152 -0.3324063,-0.0364 z"
       id="path11051"
       inkscape:connector-curvature="0" />
    <path
       style="fill:#ffffff;stroke-width:0.00320768;stroke-miterlimit:4;stroke-dasharray:none"
       d="m 3.5130541,295.14942 c -0.114546,-0.0421 -0.1315507,-0.2258 -0.090877,-0.98222 l 0.018488,-0.34391 H 4.1011316 4.761597 v 0.66048 0.6605 l -0.3182613,0.0183 c -0.4378122,0.0252 -0.8410963,0.0195 -0.9302839,-0.0132 z"
       id="path11053"
       inkscape:connector-curvature="0" />
    <path
       style="fill:#ffffff;stroke-width:0.00320768;stroke-miterlimit:4;stroke-dasharray:none"
       d="m 5.1293681,294.4881 v -0.6931 h 0.6648138 0.6648126 v 0.6931 0.69309 H 5.7941819 5.1293681 Z"
       id="path11055"
       inkscape:connector-curvature="0" />
    <path
       style="fill:#ffffff;stroke-width:0.00320768;stroke-miterlimit:4;stroke-dasharray:none"
       d="m 6.9540683,295.16291 c -0.1254995,-0.0357 -0.1273049,-0.0455 -0.1273049,-0.69075 0,-0.33948 0.00957,-0.623 0.021223,-0.63004 0.011672,-0.007 0.3573715,-0.0222 0.768225,-0.0336 l 0.7470075,-0.0209 -0.020346,0.67505 c -0.01117,0.37128 -0.023594,0.67831 -0.027572,0.68228 -0.0159,0.016 -1.3085377,0.0331 -1.361231,0.018 z"
       id="path11057"
       inkscape:connector-curvature="0" />
    <path
       style="fill:#ffffff;stroke-width:0.00320768;stroke-miterlimit:4;stroke-dasharray:none"
       d="m 8.8453082,295.16095 c -0.062154,-0.008 -0.094308,-0.03 -0.1064351,-0.0733 -0.00957,-0.0342 -0.0256,-0.33896 -0.035653,-0.67738 l -0.018271,-0.61531 h 0.2120952 c 0.1166524,0 0.4623865,0.008 0.768298,0.0186 l 0.5562027,0.0186 v 0.65597 0.65596 l -0.3606963,0.0184 c -0.371089,0.0189 -0.8582674,0.0181 -1.0155493,-10e-4 z"
       id="path11059"
       inkscape:connector-curvature="0" />
    <path
       style="fill:#ffffff;stroke-width:0.00320768;stroke-miterlimit:4;stroke-dasharray:none"
       d="m 10.617614,294.4881 v -0.6931 h 0.650667 0.650669 v 0.6931 0.69309 h -0.650669 -0.650667 z"
       id="path11061"
       inkscape:connector-curvature="0" />
    <path
       style="fill:#ffffff;stroke-width:0.00320768;stroke-miterlimit:4;stroke-dasharray:none"
       d="m 12.414023,295.16072 c -0.12297,-0.0302 -0.127304,-0.0497 -0.127304,-0.57312 0,-0.276 0.0081,-0.56087 0.01799,-0.63306 l 0.01799,-0.13125 h 0.646823 0.646823 v 0.66048 0.6605 l -0.318262,0.0183 c -0.354062,0.0204 -0.797256,0.0195 -0.88406,-0.002 z"
       id="path11063"
       inkscape:connector-curvature="0" />
    <path
       style="fill:#ffffff;stroke-width:0.00320768;stroke-miterlimit:4;stroke-dasharray:none"
       d="M 14.012404,294.49955 V 293.795 h 0.108897 c 0.05989,0 0.20629,0.008 0.325334,0.0183 l 0.216442,0.0183 v 0.65825 0.65825 l -0.219246,0.0172 c -0.120586,0.009 -0.266986,0.0221 -0.325334,0.028 l -0.106082,0.0114 z"
       id="path11065"
       inkscape:connector-curvature="0" />
    <path
       style="fill:#ffffff;stroke-width:0.00320768;stroke-miterlimit:4;stroke-dasharray:none"
       d="m 15.03084,292.55084 v -3.67829 h 0.579944 0.579944 v 1.94734 c 0,1.07104 -0.0084,2.71308 -0.01877,3.64898 l -0.01877,1.70165 -0.08731,0.0131 c -0.04802,0.007 -0.300546,0.0204 -0.561167,0.0293 l -0.473856,0.0162 z m 0.762329,1.17523 c 0.01854,-0.0223 0.04564,-0.16555 0.06019,-0.31825 0.03483,-0.3653 0.03677,-2.98225 0.0024,-3.1597 -0.02788,-0.14368 -0.06465,-0.18653 -0.160048,-0.18653 -0.08982,0 -0.12943,0.0394 -0.158441,0.15766 -0.06727,0.27418 -0.05518,3.40238 0.01359,3.51365 0.02916,0.0472 0.201581,0.0423 0.242374,-0.007 z"
       id="path11067"
       inkscape:connector-curvature="0" />
    <path
       style="fill:#ffffff;stroke-width:0.00320768;stroke-miterlimit:4;stroke-dasharray:none"
       d="m 14.097274,293.41908 c -0.08258,-0.0416 -0.108373,-0.16345 -0.0456,-0.21554 0.05713,-0.0474 0.543316,-0.0474 0.600442,1e-5 0.06851,0.0569 0.03904,0.20347 -0.04561,0.22681 -0.120221,0.0332 -0.434765,0.0262 -0.509217,-0.0114 z"
       id="path11069"
       inkscape:connector-curvature="0" />
    <path
       style="fill:#ffffff;stroke-width:0.00320768;stroke-miterlimit:4;stroke-dasharray:none"
       d="m 12.432837,293.43005 c -0.166557,-0.0291 -0.222372,-0.12055 -0.129952,-0.21298 0.03401,-0.034 0.112089,-0.0454 0.332406,-0.0482 0.506789,-0.007 0.937162,0.009 0.988127,0.0361 0.07113,0.0377 0.0627,0.15639 -0.01414,0.19894 -0.07353,0.0407 -0.977931,0.0609 -1.176436,0.0262 z"
       id="path11071"
       inkscape:connector-curvature="0" />
    <path
       style="fill:#ffffff;stroke-width:0.00320768;stroke-miterlimit:4;stroke-dasharray:none"
       d="m 10.801498,293.4387 c -0.03112,-0.008 -0.08522,-0.0198 -0.120233,-0.0272 -0.05074,-0.0114 -0.06365,-0.0329 -0.06365,-0.10908 0,-0.0643 0.01593,-0.10155 0.04882,-0.11418 0.08457,-0.0325 1.131028,-0.0221 1.194418,0.0118 0.07393,0.0396 0.07972,0.1836 0.0085,0.21381 -0.05663,0.024 -0.982207,0.0456 -1.067945,0.0248 z"
       id="path11073"
       inkscape:connector-curvature="0" />
    <path
       style="fill:#ffffff;stroke-width:0.00320768;stroke-miterlimit:4;stroke-dasharray:none"
       d="m 8.8683061,293.43024 c -0.1952033,-0.0344 -0.2405869,-0.17903 -0.075387,-0.2403 0.091948,-0.0341 1.3332699,-0.025 1.3991759,0.0103 0.07361,0.0394 0.07917,0.18346 0.0082,0.21373 -0.06847,0.0292 -1.1812973,0.0427 -1.332031,0.0162 z"
       id="path11075"
       inkscape:connector-curvature="0" />
    <path
       style="fill:#ffffff;stroke-width:0.00320768;stroke-miterlimit:4;stroke-dasharray:none"
       d="m 6.9823583,293.43147 c -0.062233,-0.0114 -0.1290728,-0.0302 -0.1485224,-0.0423 -0.056204,-0.0348 -0.041933,-0.1545 0.022534,-0.189 0.079148,-0.0424 1.361019,-0.0424 1.4401626,0 0.069357,0.0371 0.07639,0.14816 0.012732,0.20099 -0.050927,0.0423 -1.1242219,0.0668 -1.3269046,0.0303 z"
       id="path11077"
       inkscape:connector-curvature="0" />
    <path
       style="fill:#ffffff;stroke-width:0.00320768;stroke-miterlimit:4;stroke-dasharray:none"
       d="m 5.2890892,293.42965 c -0.1541965,-0.0322 -0.2039251,-0.12392 -0.1152652,-0.21258 0.033647,-0.0336 0.1110399,-0.0455 0.3182613,-0.0484 0.4671611,-0.007 0.8656842,0.009 0.9174017,0.0364 0.061755,0.0327 0.064433,0.14631 0.00456,0.19596 -0.052499,0.0435 -0.9448289,0.0663 -1.1250073,0.0287 z"
       id="path11079"
       inkscape:connector-curvature="0" />
    <path
       style="fill:#ffffff;stroke-width:0.00320768;stroke-miterlimit:4;stroke-dasharray:none"
       d="m 3.6017128,293.43833 c -0.1924609,-0.0349 -0.1980299,-0.0383 -0.1980299,-0.12381 0,-0.13359 0.057845,-0.14577 0.6931026,-0.14577 0.3662061,0 0.5977282,0.0114 0.6347799,0.0312 0.074133,0.0397 0.08006,0.1836 0.00878,0.21413 -0.055178,0.0236 -1.0276017,0.0443 -1.138669,0.0243 z"
       id="path11081"
       inkscape:connector-curvature="0" />
    <path
       style="fill:#ffffff;stroke-width:0.00320768;stroke-miterlimit:4;stroke-dasharray:none"
       d="m 3.4036829,291.97224 v -0.77603 l 0.2239457,-0.15781 c 0.3319584,-0.23394 0.5511124,-0.49528 0.8079723,-0.96353 0.1778703,-0.32425 0.2708067,-0.44842 0.3078925,-0.41136 0.023127,0.0231 0.034639,0.46384 0.040691,1.55849 l 0.00843,1.52627 H 4.0981476 3.4036772 Z"
       id="path11083"
       inkscape:connector-curvature="0" />
    <path
       style="fill:#ffffff;stroke-width:0.00320768;stroke-miterlimit:4;stroke-dasharray:none"
       d="m 5.1362354,290.90341 0.00729,-1.84487 0.2546088,-0.13465 c 0.2110922,-0.11159 0.7345734,-0.32347 0.9972201,-0.40352 l 0.063658,-0.0194 v 2.12366 2.12365 H 5.7939995 5.1289806 Z"
       id="path11085"
       inkscape:connector-curvature="0" />
    <path
       style="fill:#ffffff;stroke-width:0.00320768;stroke-miterlimit:4;stroke-dasharray:none"
       d="m 6.8053703,290.57784 0.00729,-2.17045 0.7307846,-0.23754 c 0.5571956,-0.18112 0.7386334,-0.2297 0.7638277,-0.20452 0.024517,0.0245 0.035562,0.64599 0.042811,2.40799 l 0.0098,2.37495 H 7.5790527 6.7982146 Z m 1.1116362,0.87811 c 0.067739,-0.0677 0.040349,-0.26494 -0.053958,-0.3886 -0.074589,-0.0978 -0.1592914,-0.36228 -0.1592914,-0.49741 0,-0.13448 0.084551,-0.39941 0.1583453,-0.49616 0.085201,-0.1117 0.1208058,-0.30302 0.068195,-0.36641 -0.1029587,-0.12405 -0.3058682,0.0382 -0.4755831,0.38027 -0.098194,0.19793 -0.1044518,0.22644 -0.1024686,0.46678 0.0016,0.19187 0.017507,0.29531 0.063556,0.41297 0.087799,0.22431 0.2155682,0.41416 0.3227271,0.47949 0.1123735,0.0685 0.1187086,0.0688 0.1784778,0.009 z"
       id="path11087"
       inkscape:connector-curvature="0" />
    <path
       style="fill:#ffffff;stroke-width:0.00320768;stroke-miterlimit:4;stroke-dasharray:none"
       d="m 8.6955593,291.31255 c 0.00182,-1.57185 0.03636,-3.33615 0.065892,-3.36568 0.010258,-0.0103 0.3462162,0.0895 0.7464844,0.22178 l 0.7277593,0.24051 0.0073,2.16955 0.0073,2.16956 H 9.4721357 8.6939875 Z m 0.7196282,0.0459 c 0.1875882,-0.20764 0.2962688,-0.52837 0.2968125,-0.87594 2.849e-4,-0.18194 -0.012469,-0.24025 -0.083514,-0.38192 -0.1017734,-0.20291 -0.3097641,-0.43593 -0.3891152,-0.43593 -0.1596652,0 -0.1730226,0.21644 -0.026683,0.4324 0.1962906,0.28967 0.2004304,0.51963 0.016128,0.89565 -0.1119518,0.2284 -0.1389162,0.38626 -0.076618,0.44856 0.064525,0.0645 0.1558538,0.0358 0.2629921,-0.0829 z"
       id="path11089"
       inkscape:connector-curvature="0" />
    <path
       style="fill:#ffffff;stroke-width:0.00320768;stroke-miterlimit:4;stroke-dasharray:none"
       d="m 10.617614,290.6235 c 0,-1.68811 0.0073,-2.12202 0.03536,-2.11136 0.01944,0.007 0.169033,0.0604 0.332407,0.11787 0.163374,0.0575 0.440262,0.17539 0.615305,0.26211 l 0.318263,0.15766 v 1.84924 1.84925 h -0.650669 -0.650668 z"
       id="path11091"
       inkscape:connector-curvature="0" />
    <path
       style="fill:#ffffff;stroke-width:0.00320768;stroke-miterlimit:4;stroke-dasharray:none"
       d="m 12.258429,291.81928 c 0,-1.13947 0.03002,-2.30605 0.05856,-2.27596 0.01165,0.0123 0.09269,0.15391 0.180103,0.31473 0.327042,0.60167 0.591577,0.92959 0.955781,1.18479 l 0.220043,0.15418 v 0.77563 0.77562 h -0.707248 -0.707248 z"
       id="path11093"
       inkscape:connector-curvature="0" />
    <path
       style="fill:#ffffff;stroke-width:0.00320768;stroke-miterlimit:4;stroke-dasharray:none"
       d="m 14.012404,292.04069 v -0.70758 l 0.120232,0.0189 c 0.06613,0.0102 0.209173,0.0394 0.317879,0.0646 l 0.197646,0.0457 0.01997,0.1125 c 0.01094,0.0619 0.0207,0.35126 0.0216,0.64301 l 0.0016,0.53043 h -0.339479 -0.339479 z"
       id="path11095"
       inkscape:connector-curvature="0" />
    <path
       style="fill:#ffffff;stroke-width:0.00320768;stroke-miterlimit:4;stroke-dasharray:none"
       d="m 14.224578,291.00012 c -0.196425,-0.067 -0.20861,-0.11422 -0.210577,-0.81555 l -0.0016,-0.56926 0.317289,0.0685 c 0.17451,0.0377 0.324093,0.0753 0.332408,0.0837 0.02212,0.0222 0.0138,0.96797 -0.0096,1.09149 -0.03744,0.19756 -0.151906,0.23531 -0.427913,0.14112 z"
       id="path11097"
       inkscape:connector-curvature="0" />
    <path
       style="fill:#ffffff;stroke-width:0.00320768;stroke-miterlimit:4;stroke-dasharray:none"
       d="m 13.425004,290.52894 c -0.217986,-0.23356 -0.438353,-0.54974 -0.615673,-0.88337 -0.05934,-0.11159 -0.183951,-0.30896 -0.276931,-0.4385 -0.245585,-0.34214 -0.254798,-0.37144 -0.256288,-0.81545 -7.04e-4,-0.21006 0.0086,-0.41919 0.02061,-0.46473 l 0.02188,-0.0829 0.0558,0.0829 c 0.03069,0.0456 0.127455,0.21012 0.215033,0.36571 0.278637,0.49506 0.476894,0.73998 0.894188,1.1047 l 0.192618,0.16835 -0.02288,0.59172 -0.02288,0.59172 z"
       id="path11099"
       inkscape:connector-curvature="0" />
    <path
       style="fill:#ffffff;stroke-width:0.00320768;stroke-miterlimit:4;stroke-dasharray:none"
       d="m 11.706775,288.5321 c -0.07779,-0.0437 -0.354685,-0.15206 -0.615306,-0.24085 l -0.473855,-0.16145 v -0.64706 c 0,-0.54882 0.0063,-0.64707 0.04135,-0.64707 0.09098,0 0.474298,0.14192 0.839422,0.31079 l 0.385704,0.17839 0.02038,0.51645 c 0.01906,0.48291 0.0067,0.73301 -0.0375,0.75913 -0.01037,0.006 -0.08241,-0.0246 -0.160205,-0.0684 z"
       id="path11101"
       inkscape:connector-curvature="0" />
    <path
       style="fill:#ffffff;stroke-width:0.00320768;stroke-miterlimit:4;stroke-dasharray:none"
       d="m 10.06596,287.9532 c -0.01556,-0.006 -0.3083598,-0.0945 -0.6506688,-0.19821 -0.3423078,-0.10372 -0.6330416,-0.19883 -0.6460753,-0.21131 -0.022283,-0.0213 -0.082693,-1.30415 -0.06237,-1.32446 0.013529,-0.0136 1.1332127,0.32956 1.2716752,0.38966 0.063658,0.0276 0.1475589,0.0846 0.1864589,0.12657 0.0691,0.0745 0.07093,0.0879 0.07951,0.577 0.01071,0.60939 -0.01363,0.69672 -0.178527,0.64075 z"
       id="path11103"
       inkscape:connector-curvature="0" />
    <path
       style="fill:#ffffff;stroke-width:0.00320768;stroke-miterlimit:4;stroke-dasharray:none"
       d="m 6.834375,287.88948 c -0.011968,-0.0428 -0.021759,-0.29478 -0.021759,-0.55998 0,-0.54389 0.013997,-0.59075 0.205547,-0.68848 0.080995,-0.0413 0.844119,-0.28873 1.2867469,-0.41718 0.045444,-0.0132 0.049217,0.0154 0.045911,0.34825 -0.00194,0.19943 -0.011523,0.50093 -0.021223,0.67001 l -0.017621,0.30742 -0.16974,0.0539 c -0.594792,0.189 -1.1870959,0.36382 -1.2326973,0.36382 -0.034137,0 -0.061265,-0.028 -0.07517,-0.0779 z"
       id="path11105"
       inkscape:connector-curvature="0" />
    <path
       style="fill:#ffffff;stroke-width:0.00320768;stroke-miterlimit:4;stroke-dasharray:none"
       d="m 5.1858489,288.56118 c -0.031231,-0.0584 -0.038366,-0.79941 -0.010258,-1.06805 l 0.017895,-0.17124 0.300363,-0.14209 c 0.3953624,-0.18703 0.7119094,-0.31086 0.8518401,-0.33323 l 0.1133309,-0.0181 v 0.65194 0.65193 l -0.4452859,0.14842 c -0.2449068,0.0816 -0.5250222,0.18996 -0.6224768,0.24076 -0.1676496,0.0874 -0.1787103,0.0895 -0.2053829,0.0397 z"
       id="path11107"
       inkscape:connector-curvature="0" />
    <path
       style="fill:#ffffff;stroke-width:0.00320768;stroke-miterlimit:4;stroke-dasharray:none"
       d="m 3.421547,290.69153 c -0.0098,-0.0103 -0.017861,-0.27432 -0.017861,-0.58776 v -0.56992 l 0.078111,-0.0578 c 0.1754584,-0.12972 0.5497823,-0.50512 0.6807848,-0.68274 0.076903,-0.10429 0.2057829,-0.30886 0.2864094,-0.45467 0.08063,-0.1458 0.1803573,-0.31612 0.2216228,-0.37848 l 0.075033,-0.11341 0.024643,0.0951 c 0.013552,0.0523 0.020072,0.27353 0.01451,0.49163 -0.011284,0.44006 -0.01851,0.46316 -0.2345938,0.7458 -0.067271,0.088 -0.1828523,0.26818 -0.2568485,0.40045 -0.3275018,0.58533 -0.4570886,0.78725 -0.5919038,0.92222 -0.1525027,0.15269 -0.2504166,0.21898 -0.2798886,0.18951 z"
       id="path11109"
       inkscape:connector-curvature="0" />
    <path
       style="fill:#ffffff;stroke-width:0.00320768;stroke-miterlimit:4;stroke-dasharray:none"
       d="m 15.407782,287.94924 c -0.291127,-0.10316 -0.518391,-0.41771 -0.518391,-0.71748 0,-0.20752 0.04503,-0.32354 0.186279,-0.47988 0.153804,-0.17024 0.298767,-0.23686 0.520969,-0.23943 0.537124,-0.006 0.91701,0.53389 0.704933,1.00218 -0.08187,0.18077 -0.309344,0.38561 -0.486744,0.43829 -0.174068,0.0516 -0.252773,0.051 -0.407046,-0.003 z m -0.02648,-0.73929 c 0.168344,-0.22616 0.322447,-0.23565 0.46163,-0.0284 0.107051,0.15939 0.204928,0.21426 0.30273,0.16969 0.05962,-0.0271 0.07336,-0.0529 0.07336,-0.13763 0,-0.2614 -0.342265,-0.57597 -0.626682,-0.57597 -0.283402,0 -0.627295,0.36287 -0.569084,0.60049 0.02552,0.10417 0.06801,0.13848 0.160284,0.12942 0.06723,-0.007 0.111815,-0.0422 0.197762,-0.1576 z"
       id="path11111"
       inkscape:connector-curvature="0" />
    <path
       style="fill:#ffffff;stroke-width:0.00320768;stroke-miterlimit:4;stroke-dasharray:none"
       d="m 15.557673,288.46118 c -0.02388,-0.0622 0.0019,-0.0979 0.0709,-0.0979 0.04274,0 0.05463,0.0157 0.04784,0.0634 -0.01083,0.0759 -0.09361,0.1 -0.118731,0.0345 z"
       id="path11113"
       inkscape:connector-curvature="0" />
    <path
       style="fill:#ffffff;stroke-width:0.00320768;stroke-miterlimit:4;stroke-dasharray:none"
       d="m 14.174631,283.52327 c -0.614122,-0.14469 -0.856363,-0.79538 -0.485974,-1.30539 0.259803,-0.35774 0.864102,-0.40948 1.211456,-0.10372 0.196288,0.17277 0.256733,0.30534 0.256665,0.56289 -7.5e-5,0.26959 -0.08052,0.43489 -0.319187,0.65586 -0.220711,0.20433 -0.393288,0.25389 -0.66296,0.19036 z"
       id="path11115"
       inkscape:connector-curvature="0" />
    <path
       style="fill:#ffffff;stroke-width:0.00320768;stroke-miterlimit:4;stroke-dasharray:none"
       d="m 8.2836948,284.05854 c -0.1109716,-0.0613 -0.1832752,-0.14715 -0.2002287,-0.23752 -0.035767,-0.19067 0.1649676,-0.43145 0.3275337,-0.39288 0.1033462,0.0245 0.2230601,0.15049 0.2427446,0.25541 0.021519,0.11471 -0.050824,0.27519 -0.1586577,0.35198 -0.088985,0.0634 -0.1302981,0.0678 -0.2113919,0.023 z"
       id="path11117"
       inkscape:connector-curvature="0" />
    <path
       style="fill:#ffffff;stroke-width:0.00320768;stroke-miterlimit:4;stroke-dasharray:none"
       d="m 3.086037,284.06194 c -0.3678873,-0.0429 -0.5050448,-0.13587 -0.5421022,-0.36762 -0.027355,-0.17108 0.023867,-0.29846 0.1595513,-0.39675 0.1394644,-0.10098 0.2354771,-0.1044 0.4127284,-0.0146 0.3009443,0.1525 0.4060481,0.11977 0.4393669,-0.13684 0.040737,-0.31371 0.2484266,-0.60966 0.5216599,-0.74335 0.2154211,-0.10543 0.513811,-0.10988 0.7346975,-0.0114 0.1835887,0.0821 0.3752163,0.28788 0.4416408,0.47426 0.026751,0.0751 0.073062,0.19024 0.1029018,0.25591 l 0.054255,0.11941 0.2624484,-0.006 c 0.2923056,-0.007 0.3983054,0.0321 0.4849329,0.17876 0.060421,0.10224 0.058894,0.29875 -0.00331,0.42322 -0.068548,0.13721 -0.2018814,0.1937 -0.5332835,0.22592 -0.3289721,0.032 -2.2590361,0.0312 -2.5355132,-9.2e-4 z m 1.9180242,-0.40789 c 0.1201082,-0.0501 0.1325321,-0.14448 0.024449,-0.18557 -0.1093074,-0.0416 -0.9164477,-0.0344 -1.0024506,0.009 -0.090307,0.0455 -0.1161087,0.20502 -0.036975,0.22874 0.103483,0.031 0.915896,-0.0103 1.0149771,-0.052 z"
       id="path11119"
       inkscape:connector-curvature="0" />
    <path
       style="fill:#ffffff;stroke-width:0.00320768;stroke-miterlimit:4;stroke-dasharray:none"
       d="m 2.5761446,282.84404 c -0.2119596,-0.0825 -0.084836,-0.53019 0.1975239,-0.69567 0.2336774,-0.13693 0.5171747,-0.0908 0.6655,0.10817 l 0.055543,0.0746 -0.1091707,0.20654 c -0.1465256,0.27721 -0.1999289,0.3124 -0.4946567,0.3259 -0.130289,0.006 -0.2719247,-0.002 -0.314745,-0.0194 z"
       id="path11121"
       inkscape:connector-curvature="0" />
  </g>
</svg>
