<?xml version="1.0" encoding="UTF-8" standalone="no"?>
<!-- Created with Inkscape (http://www.inkscape.org/) -->

<svg
   xmlns:dc="http://purl.org/dc/elements/1.1/"
   xmlns:cc="http://creativecommons.org/ns#"
   xmlns:rdf="http://www.w3.org/1999/02/22-rdf-syntax-ns#"
   xmlns:svg="http://www.w3.org/2000/svg"
   xmlns="http://www.w3.org/2000/svg"
   xmlns:sodipodi="http://sodipodi.sourceforge.net/DTD/sodipodi-0.dtd"
   xmlns:inkscape="http://www.inkscape.org/namespaces/inkscape"
   width="64"
   height="64"
   viewBox="0 0 16.933333 16.933334"
   version="1.1"
   id="svg8"
   inkscape:version="0.92.5 (2060ec1f9f, 2020-04-08)"
   sodipodi:docname="face_mask_64x64.svg">
  <defs
     id="defs2" />
  <sodipodi:namedview
     id="base"
     pagecolor="#ffffff"
     bordercolor="#666666"
     borderopacity="1.0"
     inkscape:pageopacity="0.0"
     inkscape:pageshadow="2"
     inkscape:zoom="3.959798"
     inkscape:cx="14.447672"
     inkscape:cy="-18.10164"
     inkscape:document-units="mm"
     inkscape:current-layer="layer1"
     showgrid="false"
     units="px"
     inkscape:window-width="1208"
     inkscape:window-height="987"
     inkscape:window-x="1992"
     inkscape:window-y="0"
     inkscape:window-maximized="1"
     showguides="false" />
  <metadata
     id="metadata5">
    <rdf:RDF>
      <cc:Work
         rdf:about="">
        <dc:format>image/svg+xml</dc:format>
        <dc:type
           rdf:resource="http://purl.org/dc/dcmitype/StillImage" />
        <dc:title></dc:title>
      </cc:Work>
    </rdf:RDF>
  </metadata>
  <g
     inkscape:label="Layer 1"
     inkscape:groupmode="layer"
     id="layer1"
     transform="translate(0,-280.06665)">
    <path
       style="fill:#000000;stroke-width:0.03046314"
       d="M 7.3607405,292.75256 C 6.3155663,292.63672 5.5754014,292.39298 4.7739078,291.9007 l -0.2614709,-0.16061 -0.3655571,-0.0171 c -1.5049036,-0.0702 -2.7952254,-1.04847 -3.2738217,-2.48217 -0.212039,-0.63519 -0.2960963,-1.42532 -0.2013635,-1.89279 0.132539,-0.65404 0.5216806,-1.16229 1.120784,-1.46388 0.3276104,-0.1649 0.6236693,-0.22568 1.0099107,-0.20729 0.3418924,0.0163 0.7416877,0.12915 0.8646956,0.24415 0.097734,0.0914 0.092248,0.24363 -0.011724,0.32541 -0.1034547,0.0814 -0.1337542,0.0798 -0.3742906,-0.0199 -0.1798187,-0.0745 -0.237944,-0.0831 -0.5659582,-0.0835 -0.4310054,-5.8e-4 -0.6059748,0.0511 -0.9367165,0.27655 -0.2367114,0.16137 -0.4134766,0.36923 -0.5390071,0.6338 -0.1273568,0.26842 -0.165999,0.51108 -0.1450975,0.91114 0.051203,0.98004 0.3880702,1.79305 0.994012,2.39899 0.2705618,0.27056 0.5229707,0.44753 0.8708419,0.61054 0.252075,0.11814 0.6928033,0.24781 0.9710952,0.28574 0.1365235,0.0186 0.1469281,0.0156 0.125005,-0.0354 -0.033394,-0.0779 -0.104975,-0.40777 -0.1057406,-0.48724 -5.186e-4,-0.0534 -0.024687,-0.0699 -0.1275285,-0.0873 -0.1946924,-0.0328 -0.5190829,-0.15065 -0.7516224,-0.27285 -0.7591843,-0.39893 -1.2617469,-1.20085 -1.3797765,-2.20165 -0.082567,-0.7001 0.075515,-1.10502 0.526955,-1.34979 0.1812919,-0.0982 0.2104325,-0.10457 0.4823481,-0.10457 0.2415119,0 0.3132468,0.0118 0.4335107,0.071 0.2184294,0.10757 0.4103646,0.29777 0.708879,0.70245 l 0.2709392,0.36729 0.1285702,-0.13418 c 0.070712,-0.0739 0.1717957,-0.15654 0.2246263,-0.18386 l 0.096056,-0.0497 -0.07324,-0.0972 c -0.3030079,-0.40172 -0.3880363,-0.53859 -0.3880363,-0.62462 0,-0.15048 0.2044597,-0.27183 0.3269228,-0.19404 0.020642,0.0131 0.1440132,0.16599 0.274168,0.33974 0.130155,0.17375 0.2597781,0.33013 0.2880523,0.34751 0.040908,0.0251 0.2966934,-0.0907 1.2524269,-0.56749 0.660562,-0.32951 1.3022867,-0.633 1.4260555,-0.67444 0.511603,-0.17125 1.0035998,-0.17104 1.5197189,6.9e-4 0.1256611,0.0419 0.6877051,0.30636 1.2489893,0.58786 0.561284,0.28153 1.106379,0.54995 1.211325,0.59651 0.231475,0.10265 0.213766,0.11377 0.533639,-0.33372 0.42051,-0.58829 0.862783,-0.95814 1.331813,-1.11374 0.281307,-0.0933 0.77109,-0.11546 1.072269,-0.0484 0.724902,0.16128 1.299205,0.68503 1.539869,1.40433 0.07467,0.22318 0.08146,0.2835 0.08059,0.71589 -0.001,0.52245 -0.04665,0.82744 -0.197095,1.31824 -0.157971,0.51538 -0.583221,1.25046 -0.773576,1.33718 -0.107123,0.0489 -0.24694,-0.0158 -0.28777,-0.13287 -0.03689,-0.10576 -0.0444,-0.0892 0.222901,-0.49254 0.390135,-0.58865 0.577248,-1.24099 0.577909,-2.01479 3.34e-4,-0.39748 -0.0085,-0.48074 -0.06726,-0.63972 -0.353253,-0.95459 -1.470616,-1.3717 -2.335852,-0.87199 -0.242257,0.13992 -0.453821,0.34992 -0.736485,0.73105 -0.14447,0.1948 -0.275198,0.37046 -0.290508,0.39036 -0.01919,0.0249 0.002,0.0516 0.06821,0.0859 0.05283,0.0273 0.153904,0.11005 0.224617,0.18386 l 0.12857,0.13418 0.270939,-0.3673 c 0.298515,-0.40467 0.490451,-0.59487 0.70888,-0.70244 0.120264,-0.0592 0.191998,-0.071 0.43351,-0.071 0.271916,0 0.301056,0.006 0.482348,0.10458 0.45502,0.24671 0.612674,0.65707 0.523773,1.36336 -0.13197,1.04846 -0.635336,1.82218 -1.447837,2.22546 -0.197627,0.0981 -0.512085,0.20642 -0.689746,0.23762 l -0.110944,0.0194 -0.03391,0.228 c -0.01865,0.1254 -0.04866,0.25556 -0.06669,0.28924 -0.01803,0.0336 -0.02604,0.068 -0.0178,0.0762 0.02529,0.0252 0.540317,-0.081 0.782002,-0.16132 0.125661,-0.0418 0.328912,-0.12994 0.45167,-0.1959 0.122759,-0.066 0.257039,-0.11991 0.2984,-0.11991 0.08254,0 0.224751,0.12315 0.224751,0.19463 0,0.13154 -0.06454,0.19708 -0.327994,0.33315 -0.511799,0.26433 -1.108988,0.41619 -1.637801,0.41644 -0.238183,1.2e-4 -0.250219,0.003 -0.456947,0.13743 -0.798853,0.51658 -1.664002,0.79505 -2.7864562,0.89691 -0.4650114,0.0422 -1.5429534,0.0347 -1.9801041,-0.0136 z m 2.4060073,-0.48648 c 0.4350522,-0.0699 0.9569912,-0.20775 1.2582792,-0.33239 l 0.250228,-0.1035 0.0083,-0.54642 0.0083,-0.54643 -0.373841,0.0554 c -1.1102942,0.16456 -1.4356512,0.18963 -2.4757972,0.1908 -1.0420004,8.7e-4 -1.4943989,-0.0334 -2.5290578,-0.19339 l -0.3497089,-0.054 v 0.54227 0.54229 l 0.1447,0.0649 c 0.404424,0.18141 1.1251266,0.36038 1.6983198,0.42177 0.4363045,0.0467 1.9807579,0.0197 2.3603129,-0.0412 z m -4.6602791,-2.6055 c 0,-1.20188 -0.010765,-1.88871 -0.029594,-1.88871 -0.069169,0 -0.3886019,0.16222 -0.4681517,0.23774 -0.191583,0.18189 -0.1868079,0.14464 -0.1968306,1.53538 -0.00975,1.35275 -0.00209,1.44457 0.13417,1.6065 0.077536,0.0921 0.4892588,0.3978 0.5358411,0.3978 0.013511,0 0.024564,-0.84991 0.024565,-1.88871 z m 6.8720943,1.76217 c 0.236025,-0.16581 0.341891,-0.26443 0.4037,-0.37609 0.04494,-0.0812 0.05059,-0.23759 0.05059,-1.4013 0,-0.72046 -0.01052,-1.34737 -0.02329,-1.39313 -0.03904,-0.13954 -0.209071,-0.30296 -0.410144,-0.39423 -0.104353,-0.0473 -0.203735,-0.0861 -0.220857,-0.0861 -0.02087,0 -0.03113,0.62283 -0.03113,1.88871 0,1.0388 0.01148,1.88871 0.0255,1.88871 0.01402,0 0.106555,-0.0569 0.205627,-0.12654 z m -2.0893812,-0.95202 c 0.5008652,-0.0591 1.2750552,-0.16787 1.3479942,-0.18931 0.04881,-0.0144 0.05331,-0.0758 0.05331,-0.72729 v -0.71162 l -0.236089,-0.0906 c -0.293164,-0.11257 -0.947614,-0.3173 -1.2718362,-0.39786 -1.0977689,-0.2728 -1.6359489,-0.26965 -2.7721459,0.0162 -0.3539384,0.089 -0.8736096,0.253 -1.21091,0.38203 l -0.236089,0.0903 v 0.71162 c 0,0.65132 0.00453,0.71297 0.053313,0.72764 0.089332,0.0268 1.1277172,0.16492 1.5003097,0.19947 0.1926797,0.0178 0.3983056,0.0379 0.456947,0.0447 0.2651573,0.0302 1.9285812,-0.01 2.3151982,-0.0551 z m -5.9335713,-1.18332 0.00845,-0.92151 -0.1249273,-0.13708 c -0.068706,-0.0754 -0.2045853,-0.24676 -0.3019463,-0.38079 -0.4319991,-0.59474 -0.5683587,-0.70119 -0.8702779,-0.67934 -0.3431336,0.0248 -0.5458682,0.25725 -0.5458682,0.62583 0,0.47857 0.147016,1.04128 0.3721321,1.42435 0.1491413,0.25378 0.4607223,0.56808 0.7097184,0.71588 0.1630857,0.0968 0.6157266,0.27193 0.7069849,0.27352 0.028313,4.6e-4 0.039234,-0.2197 0.045694,-0.92086 z m 9.3375695,0.81507 c 0.428669,-0.15463 0.838441,-0.49381 1.067509,-0.88361 0.225116,-0.38307 0.372132,-0.94578 0.372132,-1.42435 0,-0.36858 -0.202735,-0.60102 -0.545869,-0.62583 -0.301918,-0.0219 -0.438278,0.0846 -0.870278,0.67934 -0.09736,0.13403 -0.233236,0.30538 -0.301946,0.38079 l -0.124928,0.13708 0.0085,0.92373 0.0085,0.92375 0.09812,-0.0211 c 0.05396,-0.0117 0.183685,-0.0521 0.288262,-0.0898 z m -7.2728174,-1.90873 c 0.5041439,-0.17106 1.0488771,-0.31604 1.5383879,-0.40946 0.7996901,-0.15263 1.4749619,-0.1034 2.5353785,0.18481 0.330718,0.0899 0.961769,0.2921 1.143047,0.36628 0.04924,0.0202 0.0532,-0.01 0.05188,-0.38509 l -0.0014,-0.4069 -1.057167,-0.52489 c -0.5814422,-0.2887 -1.1599807,-0.55574 -1.2856412,-0.59344 -0.3146014,-0.0944 -0.7211454,-0.0944 -1.0357469,0 -0.1256604,0.0377 -0.7041988,0.30474 -1.2856408,0.59344 l -1.057167,0.52489 -0.0014,0.4069 c -0.00131,0.376 0.00262,0.40521 0.051884,0.38461 0.029324,-0.0122 0.2109572,-0.0758 0.4036369,-0.14115 z"
       id="path8345"
       inkscape:connector-curvature="0" />
    <path
       style="fill:#ffffff;stroke-width:0.0008224;stroke-miterlimit:4;stroke-dasharray:none"
       d="m 3.9283057,291.25173 c -0.2718353,-0.0374 -0.7890075,-0.19915 -1.0444507,-0.32663 -0.4689737,-0.23406 -0.9323807,-0.65801 -1.2338266,-1.12877 -0.3712919,-0.57983 -0.5872622,-1.46588 -0.5365019,-2.20106 0.039043,-0.56547 0.374939,-1.04319 0.9217121,-1.31092 0.2210279,-0.10822 0.4097789,-0.13847 0.7824785,-0.12542 0.2517411,0.009 0.3041394,0.0177 0.4647312,0.0785 0.1884807,0.0715 0.3041743,0.086 0.3464348,0.0438 0.018549,-0.0186 0.081869,0.0281 0.2514787,0.18542 0.1893602,0.17559 0.2250404,0.21882 0.2166878,0.26251 -0.017277,0.0904 0.032192,0.18845 0.2419938,0.47987 l 0.2036481,0.28288 -0.072751,0.0383 c -0.040011,0.021 -0.1370639,0.0985 -0.2156748,0.17203 -0.07895,0.0739 -0.1505281,0.12487 -0.1599066,0.11398 -0.00933,-0.0108 -0.1187288,-0.15679 -0.2430905,-0.32434 -0.2904006,-0.39124 -0.4910092,-0.59107 -0.6967014,-0.69397 -0.1555648,-0.0779 -0.1592198,-0.0785 -0.4340982,-0.0785 -0.3207093,0 -0.3922325,0.019 -0.606402,0.16142 -0.3235519,0.2151 -0.4479049,0.48867 -0.4459095,0.98095 0.00419,1.02932 0.5043878,1.99101 1.2753967,2.45203 0.2072342,0.1239 0.5080045,0.24939 0.7621899,0.31797 l 0.2176012,0.0587 0.050105,0.23935 c 0.027554,0.13164 0.056739,0.26138 0.064854,0.28831 0.015533,0.0515 0.017417,0.051 -0.1100022,0.0335 z"
       id="path8349"
       inkscape:connector-curvature="0" />
    <path
       style="fill:#ffffff;stroke-width:0.0008224;stroke-miterlimit:4;stroke-dasharray:none"
       d="m 4.9401168,291.45036 c -0.2263549,-0.15544 -0.3851657,-0.29461 -0.4327314,-0.37925 -0.02983,-0.053 -0.055422,-0.15233 -0.06841,-0.26529 -0.02534,-0.22039 -0.025863,-1.6982 -7.731e-4,-2.19558 0.020441,-0.40527 0.041789,-0.47775 0.1729219,-0.58702 0.099023,-0.0826 0.4323705,-0.25017 0.4541557,-0.2284 0.022115,0.0221 0.033238,3.47513 0.011672,3.62139 l -0.017155,0.11633 z"
       id="path8351"
       inkscape:connector-curvature="0" />
    <path
       style="fill:#ffffff;stroke-width:0.0008224;stroke-miterlimit:4;stroke-dasharray:none"
       d="m 5.5848271,288.29654 c -0.00749,-0.0197 -0.013685,-0.19467 -0.013685,-0.389 v -0.35334 l 0.9084545,-0.44813 c 1.4280597,-0.70447 1.5056759,-0.73362 1.954864,-0.73433 0.420573,-6.6e-4 0.5505946,0.049 2.0271044,0.77348 l 0.810537,0.39773 v 0.39337 c 0,0.21636 -0.0028,0.39339 -0.0062,0.39339 -0.0034,0 -0.167411,-0.0543 -0.364469,-0.12061 -0.653016,-0.21983 -1.2391002,-0.37362 -1.7508899,-0.45941 -0.1887273,-0.0317 -0.3498099,-0.0398 -0.7615789,-0.0387 -0.5901396,0.002 -0.7631104,0.0266 -1.5047702,0.21667 -0.3048977,0.0782 -1.0790359,0.31961 -1.2504236,0.39001 -0.022385,0.01 -0.040273,0.002 -0.048954,-0.0212 z"
       id="path8353"
       inkscape:connector-curvature="0" />
    <path
       style="fill:#ffffff;stroke-width:0.0008224;stroke-miterlimit:4;stroke-dasharray:none"
       d="m 7.5186039,290.51374 c -0.047873,-0.005 -0.3024553,-0.0337 -0.5657437,-0.0629 -0.6270419,-0.0697 -1.3048773,-0.16391 -1.3416366,-0.18661 -0.023213,-0.0143 -0.030605,-0.16088 -0.036018,-0.71428 l -0.0068,-0.69625 0.082976,-0.0354 c 0.190157,-0.0813 1.0658446,-0.35997 1.3932364,-0.44327 1.0180716,-0.25901 1.6267409,-0.27228 2.5461208,-0.0555 0.4313742,0.10168 1.3228202,0.3773 1.5876802,0.49084 l 0.0937,0.0401 -3.34e-4,0.68076 c -1.74e-4,0.37442 -0.0087,0.69402 -0.01901,0.71025 -0.01031,0.0162 -0.06643,0.0385 -0.124783,0.0495 -0.284738,0.0538 -1.2691052,0.17393 -1.5815722,0.19309 -0.3834628,0.0235 -1.8870231,0.0456 -2.0277821,0.0297 z"
       id="path8355"
       inkscape:connector-curvature="0" />
    <path
       style="fill:#ffffff;stroke-width:0.0008224;stroke-miterlimit:4;stroke-dasharray:none"
       d="M 7.2574912,292.2776 C 6.76907,292.2111 6.1523717,292.05487 5.7833714,291.90401 l -0.2013529,-0.0822 -0.00584,-0.54081 -0.00584,-0.54081 0.051238,0.0129 c 0.089018,0.0223 1.1019145,0.16294 1.3856501,0.19235 0.3794064,0.0393 2.4541262,0.039 2.8287212,-4.5e-4 0.3071282,-0.0323 1.3397822,-0.17359 1.3980412,-0.19124 0.03556,-0.0108 0.03807,0.0243 0.03807,0.52925 v 0.5408 l -0.201275,0.0792 c -0.539899,0.21253 -1.1633122,0.35309 -1.7148892,0.38664 -0.5230176,0.0318 -1.831563,0.0243 -2.0984445,-0.0119 z"
       id="path8357"
       inkscape:connector-curvature="0" />
    <path
       style="fill:#ffffff;stroke-width:0.0008224;stroke-miterlimit:4;stroke-dasharray:none"
       d="m 11.76122,290.61988 c -0.01413,-0.77974 9.59e-4,-2.80927 0.02103,-2.82933 0.0038,-0.003 0.06916,0.0183 0.145409,0.0489 0.183205,0.0734 0.339669,0.19458 0.420837,0.32584 l 0.06597,0.10672 v 1.33992 c 0,1.53268 0.01432,1.41899 -0.203129,1.6128 -0.108752,0.097 -0.396956,0.30374 -0.423279,0.30374 -0.0057,0 -0.01778,-0.4088 -0.02684,-0.90846 z"
       id="path8359"
       inkscape:connector-curvature="0" />
    <path
       style="fill:#ffffff;stroke-width:0.0008224;stroke-miterlimit:4;stroke-dasharray:none"
       d="m 12.806279,291.22906 c 0.0331,-0.0805 0.0721,-0.24781 0.08629,-0.37011 0.0082,-0.0702 0.02152,-0.13851 0.02972,-0.15177 0.0082,-0.0132 0.08101,-0.0394 0.161827,-0.0581 0.200881,-0.0466 0.541186,-0.17497 0.712073,-0.26864 0.69621,-0.38163 1.139763,-1.01982 1.32695,-1.90922 0.06475,-0.30763 0.08162,-0.77936 0.03496,-0.97693 -0.07531,-0.31886 -0.261669,-0.54941 -0.56543,-0.69954 l -0.158955,-0.0785 -0.302445,0.008 c -0.282203,0.006 -0.311182,0.0114 -0.433001,0.0707 -0.179063,0.087 -0.449263,0.36159 -0.733569,0.74552 l -0.228443,0.3085 -0.117377,-0.11999 c -0.06456,-0.066 -0.158647,-0.14873 -0.209087,-0.18389 l -0.0917,-0.0639 0.163851,-0.22252 c 0.51911,-0.70497 0.809977,-0.95114 1.270733,-1.07549 0.190087,-0.0513 0.588628,-0.0505 0.783337,0.002 0.32667,0.0875 0.658848,0.30257 0.87017,0.56355 0.130816,0.16155 0.269542,0.43635 0.306072,0.60632 0.04214,0.19608 0.01425,0.99557 -0.04432,1.26988 -0.103183,0.48327 -0.259421,0.84866 -0.568609,1.32977 -0.158804,0.2471 -0.17431,0.28083 -0.167866,0.36498 l 0.0071,0.0928 -0.235054,0.1985 -0.235051,0.1985 -0.102581,-0.0121 c -0.0931,-0.0111 -0.130825,8.7e-4 -0.408207,0.13064 -0.316562,0.14789 -0.548146,0.22506 -0.846895,0.28223 -0.330787,0.0632 -0.321873,0.0627 -0.304486,0.0204 z"
       id="path8361"
       inkscape:connector-curvature="0" />
  </g>
</svg>
