<?xml version="1.0" encoding="UTF-8" standalone="no"?>
<!-- Created with Inkscape (http://www.inkscape.org/) -->

<svg
   xmlns:dc="http://purl.org/dc/elements/1.1/"
   xmlns:cc="http://creativecommons.org/ns#"
   xmlns:rdf="http://www.w3.org/1999/02/22-rdf-syntax-ns#"
   xmlns:svg="http://www.w3.org/2000/svg"
   xmlns="http://www.w3.org/2000/svg"
   xmlns:sodipodi="http://sodipodi.sourceforge.net/DTD/sodipodi-0.dtd"
   xmlns:inkscape="http://www.inkscape.org/namespaces/inkscape"
   width="64"
   height="64"
   viewBox="0 0 16.933333 16.933334"
   version="1.1"
   id="svg8"
   inkscape:version="0.92.5 (2060ec1f9f, 2020-04-08)"
   sodipodi:docname="farm_work_64x64.svg">
  <defs
     id="defs2" />
  <sodipodi:namedview
     id="base"
     pagecolor="#ffffff"
     bordercolor="#666666"
     borderopacity="1.0"
     inkscape:pageopacity="0.0"
     inkscape:pageshadow="2"
     inkscape:zoom="1.979899"
     inkscape:cx="9.2809522"
     inkscape:cy="5.0957134"
     inkscape:document-units="mm"
     inkscape:current-layer="layer1"
     showgrid="false"
     units="px"
     inkscape:window-width="1208"
     inkscape:window-height="987"
     inkscape:window-x="1992"
     inkscape:window-y="0"
     inkscape:window-maximized="1" />
  <metadata
     id="metadata5">
    <rdf:RDF>
      <cc:Work
         rdf:about="">
        <dc:format>image/svg+xml</dc:format>
        <dc:type
           rdf:resource="http://purl.org/dc/dcmitype/StillImage" />
        <dc:title></dc:title>
      </cc:Work>
    </rdf:RDF>
  </metadata>
  <g
     inkscape:label="Layer 1"
     inkscape:groupmode="layer"
     id="layer1"
     transform="translate(0,-280.06665)">
    <path
       style="fill:#000000;stroke-width:0.03508267"
       d="m 5.66246,295.81596 c -0.18216,-0.0688 -0.39205,-0.26442 -0.474186,-0.44199 l -0.0744,-0.16086 -0.0095,-4.58706 -0.0095,-4.58705 H 4.592122 c -0.464837,0 -0.51168,-0.006 -0.621124,-0.0798 -0.169124,-0.11397 -0.269946,-0.28192 -0.295406,-0.49209 -0.01216,-0.10032 -0.01714,-0.96505 -0.01107,-1.92162 l 0.01102,-1.7392 0.09633,-0.14551 c 0.122131,-0.18449 0.275625,-0.26567 0.504535,-0.26683 0.136444,-6.3e-4 0.213466,0.0213 0.319031,0.0912 0.245858,0.1627 0.255361,0.21093 0.255494,1.29647 7e-5,0.52771 0.01044,1.20812 0.02303,1.51202 l 0.02292,0.55255 h 0.222545 0.222545 v -1.52087 c 0,-1.04031 0.01257,-1.55854 0.03979,-1.64011 0.05307,-0.15906 0.22532,-0.33672 0.374065,-0.38581 0.277859,-0.0917 0.624845,0.0533 0.730057,0.30514 0.03933,0.0941 0.0489,0.42284 0.0489,1.67934 v 1.5623 h 0.245578 0.245579 v -1.5501 c 0,-1.50207 0.0023,-1.55481 0.07354,-1.702 0.201563,-0.41638 0.809662,-0.43242 1.039046,-0.0274 l 0.07907,0.13961 5.29e-4,1.94179 c 6.53e-4,2.16154 0.008,2.09079 -0.238301,2.27888 -0.120071,0.0917 -0.139767,0.0948 -0.661252,0.10574 l -0.537495,0.0112 -0.0091,4.62243 -0.0091,4.62244 -0.106176,0.17173 c -0.149768,0.24223 -0.380048,0.3784 -0.660585,0.3906 -0.118555,0.005 -0.268646,-0.0107 -0.333534,-0.0352 z m 0.473717,-0.48612 c 0.177439,-0.0868 0.170503,0.10617 0.170503,-4.74417 v -4.52913 l -0.359597,-0.01 -0.359598,-0.01 5.29e-4,4.53566 c 4.04e-4,3.55588 0.01,4.55461 0.04434,4.62337 0.08744,0.175 0.30314,0.23248 0.503833,0.13426 z m 1.571304,-9.80205 c 0.04868,-0.0487 0.05507,-0.26312 0.05465,-1.83307 -2.65e-4,-0.97786 -0.0097,-1.81237 -0.021,-1.85445 -0.02497,-0.0931 -0.110876,-0.13166 -0.174957,-0.0785 -0.03812,0.0316 -0.04909,0.36676 -0.05695,1.74031 l -0.0097,1.70114 -0.08282,0.067 c -0.07839,0.0635 -0.15646,0.067 -1.459971,0.067 -1.3401,0 -1.379634,-0.002 -1.469584,-0.0727 l -0.09244,-0.0727 v -1.62178 c 0,-1.21461 -0.01057,-1.63235 -0.0421,-1.66388 -0.05944,-0.0594 -0.156991,-0.0523 -0.182186,0.0134 -0.01171,0.0305 -0.02129,0.8483 -0.02129,1.81729 0,1.3235 0.01048,1.77226 0.0421,1.80389 0.03159,0.0316 0.468771,0.0421 1.751628,0.0421 1.507339,0 1.716048,-0.007 1.764657,-0.0551 z m -1.628838,-2.18765 c 0,-1.32156 -0.0067,-1.5128 -0.05506,-1.56111 -0.04156,-0.0416 -0.07166,-0.0462 -0.122789,-0.0188 -0.06532,0.035 -0.06773,0.0904 -0.06773,1.56111 v 1.52486 h 0.12279 0.122789 z m 5.52552,12.45636 c -0.16768,-0.0766 -0.341557,-0.24787 -0.428137,-0.42174 -0.05953,-0.11955 -0.06353,-0.38161 -0.0723,-4.73116 l -0.0093,-4.6046 -0.63975,-6.3e-4 c -0.351862,-2.6e-4 -0.657121,-0.0121 -0.678351,-0.0263 -0.109277,-0.073 -0.119271,-0.19079 -0.119271,-1.40615 0,-1.42394 0.02246,-1.61045 0.249864,-2.07527 0.198184,-0.40509 0.626858,-0.83739 1.013112,-1.02169 0.39263,-0.18734 0.561532,-0.22379 1.034939,-0.22338 0.366709,2.6e-4 0.457243,0.0128 0.702126,0.0966 0.693639,0.23743 1.268868,0.84244 1.475556,1.55193 0.05213,0.17896 0.0635,0.40695 0.0759,1.52188 0.008,0.72126 0.0055,1.34769 -0.0057,1.39208 -0.04569,0.18202 -0.08164,0.19085 -0.776933,0.19085 h -0.646523 v 4.52767 c 0,3.33556 -0.01078,4.57051 -0.04096,4.69036 -0.0538,0.21367 -0.336712,0.51161 -0.537901,0.56646 -0.206168,0.0562 -0.437127,0.0458 -0.596404,-0.027 z m 0.587634,-0.5347 0.09648,-0.10242 v -4.56019 -4.56019 h -0.350826 -0.350827 v 4.55805 4.55806 l 0.08891,0.10565 c 0.14464,0.1719 0.354927,0.17232 0.516271,9.4e-4 z m -1.096334,-10.42843 c 0,-0.70517 0.0043,-0.75501 0.07271,-0.84198 0.0977,-0.12421 0.248033,-0.12421 0.345735,0 0.06841,0.087 0.07271,0.13681 0.07271,0.84198 v 0.74955 h 0.350827 0.350826 v -0.74955 c 0,-0.70517 0.0043,-0.75501 0.07271,-0.84198 0.0977,-0.12421 0.248032,-0.12421 0.345734,0 0.06841,0.087 0.07271,0.13681 0.07271,0.84198 v 0.74955 h 0.473617 0.473615 l -4.04e-4,-1.14896 c -4.04e-4,-1.24206 -0.01199,-1.34313 -0.196673,-1.72322 -0.119045,-0.245 -0.496219,-0.63055 -0.732815,-0.7491 -0.574086,-0.28764 -1.140332,-0.28959 -1.707059,-0.006 -0.224136,0.11221 -0.548647,0.42178 -0.692192,0.66031 -0.229112,0.38073 -0.249276,0.52772 -0.249276,1.81711 v 1.14972 h 0.473616 0.473616 z m -2.587736,8.28257 c -0.441238,-0.16771 -0.619017,-0.63059 -0.401856,-1.04629 0.291374,-0.55775 1.126514,-0.48325 1.326323,0.11831 0.08566,0.2579 0.003,0.60305 -0.183607,0.76686 -0.18992,0.1667 -0.531024,0.24088 -0.74086,0.16112 z m 0.412612,-0.51649 c 0.138902,-0.1389 0.05576,-0.39242 -0.144165,-0.4396 -0.134,-0.0316 -0.288522,0.10982 -0.288522,0.26411 0,0.21588 0.279101,0.32908 0.432687,0.17549 z m 4.892437,-3.27863 c -0.04736,-0.0474 -0.08611,-0.11912 -0.08611,-0.15947 0,-0.0403 0.03875,-0.1121 0.08611,-0.15946 0.04736,-0.0474 0.119122,-0.0861 0.159467,-0.0861 0.04034,0 0.112105,0.0388 0.159466,0.0861 0.04736,0.0474 0.08611,0.11912 0.08611,0.15946 0,0.0947 -0.150926,0.24558 -0.24558,0.24558 -0.04035,0 -0.112104,-0.0387 -0.159466,-0.0861 z M 2.923749,288.92858 c -0.101263,-0.12873 -0.09133,-0.20402 0.0468,-0.35475 l 0.119516,-0.13041 -0.119516,-0.13229 c -0.141773,-0.15693 -0.149925,-0.2452 -0.03341,-0.36172 0.116519,-0.11652 0.204795,-0.10837 0.36172,0.0334 l 0.132291,0.11952 0.130416,-0.11952 c 0.150731,-0.13814 0.226016,-0.14807 0.354751,-0.0468 0.126761,0.0997 0.121964,0.2367 -0.01281,0.36583 -0.05789,0.0555 -0.105248,0.11553 -0.105248,0.13349 0,0.018 0.04736,0.0866 0.105248,0.15253 0.122223,0.1392 0.134267,0.26382 0.03508,0.36301 -0.103694,0.10369 -0.226714,0.087 -0.380031,-0.0515 l -0.134652,-0.12165 -0.11791,0.12165 c -0.146595,0.15125 -0.278345,0.16132 -0.382259,0.0292 z"
       id="path7158"
       inkscape:connector-curvature="0" />
    <path
       style="fill:#ffffff;stroke-width:0.00267884;stroke-miterlimit:4;stroke-dasharray:none"
       d="m 5.738958,295.29702 c -0.0349,-0.0255 -0.07712,-0.11721 -0.09383,-0.20377 -0.01671,-0.0866 -0.03107,-2.15479 -0.03192,-4.59609 l -0.0016,-4.43872 h 0.336669 0.336669 l -0.0018,4.35012 c -9.95e-4,2.39257 -0.014,4.45981 -0.02889,4.59388 -0.01952,0.17574 -0.04562,0.25732 -0.09355,0.29237 -0.08438,0.0617 -0.338612,0.063 -0.421791,0.002 z"
       id="path7160"
       inkscape:connector-curvature="0" />
    <path
       style="fill:#ffffff;stroke-width:0.00267884;stroke-miterlimit:4;stroke-dasharray:none"
       d="m 5.860285,283.33851 c 3.11e-4,-0.81376 0.01464,-1.50183 0.03186,-1.52903 0.01722,-0.0272 0.05438,-0.0406 0.08255,-0.0298 0.0758,0.0291 0.09722,0.42999 0.09746,1.82462 l 2.1e-4,1.21379 H 5.966049 5.859732 Z"
       id="path7162"
       inkscape:connector-curvature="0" />
    <path
       style="fill:#ffffff;stroke-width:0.00267884;stroke-miterlimit:4;stroke-dasharray:none"
       d="m 5.855278,283.33582 c 2.81e-4,-0.81376 0.01464,-1.50183 0.03186,-1.52903 0.0574,-0.0907 0.13372,-0.0142 0.157263,0.1576 0.01263,0.0922 0.02297,0.77132 0.02297,1.50927 v 1.34173 H 5.961054 5.854737 Z"
       id="path7164"
       inkscape:connector-curvature="0" />
    <path
       style="fill:#ffffff;stroke-width:0.00267884;stroke-miterlimit:4;stroke-dasharray:none"
       d="m 4.254896,285.53641 c -0.05015,-0.0138 -0.06193,-0.10813 -0.0847,-0.67859 -0.03448,-0.86378 -2.1e-4,-2.90803 0.04959,-2.95782 0.02597,-0.026 0.05369,-0.0235 0.09186,0.008 0.0478,0.0397 0.05466,0.24931 0.05466,1.6704 v 1.62503 l 0.09584,0.0628 c 0.08681,0.0569 0.223798,0.0638 1.453952,0.0729 1.201597,0.009 1.372295,0.003 1.481188,-0.0483 l 0.123077,-0.0584 v -1.28391 c 0,-1.57079 0.02582,-2.14411 0.0978,-2.17173 0.02811,-0.0108 0.06521,0.003 0.08243,0.0298 0.0429,0.0677 0.04071,3.61392 -0.0023,3.68195 -0.029,0.0459 -0.262231,0.0539 -1.709382,0.0584 -0.921687,0.003 -1.702008,-0.002 -1.734045,-0.0107 z"
       id="path7166"
       inkscape:connector-curvature="0" />
    <path
       style="fill:#ffffff;stroke-width:0.00267884;stroke-miterlimit:4;stroke-dasharray:none"
       d="m 10.178274,284.44979 c 0,-1.18938 0.02253,-1.4196 0.166763,-1.70423 0.101532,-0.20037 0.417082,-0.5467 0.63535,-0.69734 0.233281,-0.161 0.637133,-0.28057 0.94767,-0.28057 0.318717,0 0.755401,0.12553 0.964494,0.27724 0.256542,0.18614 0.513306,0.48115 0.638083,0.73313 0.107445,0.21697 0.127283,0.29997 0.156696,0.65562 0.01852,0.22395 0.03394,0.79391 0.03425,1.26658 l 5.91e-4,0.85939 H 13.264019 12.80588 l -0.01142,-0.73704 c -0.0098,-0.6334 -0.02026,-0.7505 -0.07426,-0.83281 -0.07995,-0.12186 -0.26492,-0.13261 -0.365799,-0.0213 -0.06113,0.0675 -0.06859,0.14619 -0.07889,0.83281 l -0.01138,0.7583 h -0.334148 -0.334148 v -0.73944 c 0,-0.69441 -0.0045,-0.74512 -0.07345,-0.83281 -0.08217,-0.10447 -0.225874,-0.12374 -0.333873,-0.0448 -0.0861,0.063 -0.120031,0.3613 -0.12244,1.07658 l -0.0018,0.54044 h -0.442985 -0.442986 z"
       id="path7168"
       inkscape:connector-curvature="0" />
    <path
       style="fill:#ffffff;stroke-width:0.00267884;stroke-miterlimit:4;stroke-dasharray:none"
       d="m 11.721097,295.26618 -0.125269,-0.10998 v -4.55022 -4.55023 h 0.33667 0.336668 v 4.55023 4.55022 l -0.125269,0.10998 c -0.0689,0.0605 -0.164028,0.10999 -0.211399,0.10999 -0.04737,0 -0.142503,-0.0495 -0.211401,-0.10999 z"
       id="path7170"
       inkscape:connector-curvature="0" />
    <path
       style="fill:#ffffff;stroke-width:0.00267884;stroke-miterlimit:4;stroke-dasharray:none"
       d="m 8.591412,292.59221 c -0.158822,-0.11124 -0.06122,-0.40553 0.134498,-0.40553 0.20809,0 0.319787,0.2466 0.176566,0.38982 -0.08497,0.085 -0.203633,0.091 -0.311064,0.0157 z"
       id="path7172"
       inkscape:connector-curvature="0" />
  </g>
</svg>
