<?xml version="1.0" encoding="UTF-8" standalone="no"?>
<!-- Created with Inkscape (http://www.inkscape.org/) -->

<svg
   xmlns:dc="http://purl.org/dc/elements/1.1/"
   xmlns:cc="http://creativecommons.org/ns#"
   xmlns:rdf="http://www.w3.org/1999/02/22-rdf-syntax-ns#"
   xmlns:svg="http://www.w3.org/2000/svg"
   xmlns="http://www.w3.org/2000/svg"
   xmlns:sodipodi="http://sodipodi.sourceforge.net/DTD/sodipodi-0.dtd"
   xmlns:inkscape="http://www.inkscape.org/namespaces/inkscape"
   width="64"
   height="64"
   viewBox="0 0 16.933333 16.933334"
   version="1.1"
   id="svg8"
   inkscape:version="0.92.5 (2060ec1f9f, 2020-04-08)"
   sodipodi:docname="female_upper_underwear_64x64.svg">
  <defs
     id="defs2" />
  <sodipodi:namedview
     id="base"
     pagecolor="#ffffff"
     bordercolor="#666666"
     borderopacity="1.0"
     inkscape:pageopacity="0.0"
     inkscape:pageshadow="2"
     inkscape:zoom="3.959798"
     inkscape:cx="85.297161"
     inkscape:cy="40.219091"
     inkscape:document-units="mm"
     inkscape:current-layer="layer1"
     showgrid="false"
     units="px"
     inkscape:window-width="1208"
     inkscape:window-height="987"
     inkscape:window-x="1992"
     inkscape:window-y="0"
     inkscape:window-maximized="1" />
  <metadata
     id="metadata5">
    <rdf:RDF>
      <cc:Work
         rdf:about="">
        <dc:format>image/svg+xml</dc:format>
        <dc:type
           rdf:resource="http://purl.org/dc/dcmitype/StillImage" />
        <dc:title></dc:title>
      </cc:Work>
    </rdf:RDF>
  </metadata>
  <g
     inkscape:label="Layer 1"
     inkscape:groupmode="layer"
     id="layer1"
     transform="translate(0,-280.06665)">
    <path
       style="fill:#000000;stroke-width:0.03155101"
       d="m 7.9508068,296.51285 c -0.5176732,-0.0987 -0.7573283,-0.20912 -1.698404,-0.78233 -0.2429434,-0.14798 -0.7145089,-0.4121 -1.0479251,-0.58695 -0.7597463,-0.39843 -1.0313578,-0.57987 -1.3504177,-0.9021 -0.2493884,-0.25186 -0.4287069,-0.53382 -0.518907,-0.81591 l -0.037988,-0.11881 -0.224224,0.004 c -0.2069615,0.004 -0.2298371,-0.002 -0.2971248,-0.0801 -0.05926,-0.0689 -0.072863,-0.12131 -0.072718,-0.28018 2.506e-4,-0.26575 0.078233,-0.76365 0.1763876,-1.12619 0.181598,-0.67077 0.6082238,-1.60435 0.7718077,-1.68894 0.1350748,-0.0698 9.2630665,-0.07 9.3981305,-2.4e-4 0.159027,0.0823 0.569555,0.97069 0.757021,1.63832 0.108256,0.38552 0.19173,0.89973 0.19173,1.18105 0,0.15683 -0.01375,0.20736 -0.07615,0.27991 -0.0717,0.0834 -0.08908,0.088 -0.296979,0.0797 l -0.220822,-0.009 -0.03813,0.11925 c -0.09007,0.28165 -0.269749,0.56458 -0.519051,0.81733 -0.302477,0.30664 -0.644739,0.53615 -1.335557,0.89559 -0.28312,0.14731 -0.737455,0.40132 -1.009633,0.56445 -0.8083037,0.48448 -0.9594799,0.56892 -1.1416644,0.63763 -0.4916521,0.18545 -1.0097433,0.24895 -1.40937,0.17273 z m 0.7691802,-0.54142 c 0.4386233,-0.0906 0.4616296,-0.10682 0.5554686,-0.39164 0.244614,-0.74247 0.7676834,-1.4928 1.3414364,-1.92428 0.269302,-0.20253 0.882361,-0.50564 1.267366,-0.62663 0.407048,-0.12792 0.707851,-0.18662 1.170947,-0.22855 0.214956,-0.0195 0.392743,-0.0374 0.395084,-0.0401 0.02906,-0.032 -0.153863,-0.89204 -0.214055,-1.00644 -0.02711,-0.0515 -0.140799,-0.0552 -1.701581,-0.0552 H 9.8621252 l -0.077446,-0.0775 c -0.1062681,-0.10627 -0.1045623,-0.26469 0.00393,-0.36666 l 0.081397,-0.0765 1.5731248,-0.0158 1.573125,-0.0157 -0.122368,-0.26029 -0.122368,-0.2603 H 8.35053 3.9295378 l -0.1223678,0.2603 -0.1223677,0.26029 1.5731249,0.0157 1.5731249,0.0158 0.081396,0.0765 c 0.1085099,0.10197 0.1102165,0.26039 0.00393,0.36666 l -0.077446,0.0775 H 5.1664079 c -1.5607813,0 -1.6744691,0.003 -1.7015812,0.0552 -0.060192,0.1144 -0.2431144,0.97445 -0.2140546,1.00644 0.00231,0.003 0.1801282,0.0206 0.395084,0.0401 0.6827927,0.0618 1.2266084,0.20678 1.7861912,0.47616 0.4648153,0.22377 0.6928304,0.38323 1.0096322,0.7061 0.4503727,0.45899 0.7908666,1.01122 0.9829169,1.59414 0.079823,0.24226 0.089242,0.25565 0.2128704,0.30241 0.1851479,0.07 0.5145585,0.13655 0.690716,0.13948 0.083157,0.002 0.2594569,-0.0198 0.3917752,-0.0472 z m -0.4880149,-4.02146 c -0.039185,-0.0157 -0.087588,-0.0645 -0.1075608,-0.10834 -0.037192,-0.0816 -0.1838346,-0.14247 -0.344173,-0.14282 -0.090648,-2.4e-4 -0.2079217,-0.1086 -0.2220489,-0.20526 -0.043135,-0.2951 0.216494,-0.39072 0.6723959,-0.24762 0.1132449,0.0356 0.1638473,0.0381 0.2144291,0.0111 0.036414,-0.0195 0.1471876,-0.0487 0.2461642,-0.0648 0.3018505,-0.0493 0.4610465,0.0433 0.4547614,0.26431 -0.00333,0.11681 -0.119689,0.24208 -0.2250893,0.24231 -0.160075,3.6e-4 -0.3069881,0.0612 -0.3440404,0.14254 -0.033901,0.0744 -0.151584,0.14377 -0.2362069,0.13925 -0.020563,-8.6e-4 -0.069443,-0.0149 -0.1086313,-0.0306 z m 2.8943169,2.78574 c 0.808568,-0.42945 1.057622,-0.58941 1.312444,-0.84292 0.187056,-0.18611 0.385756,-0.47567 0.350559,-0.51087 -0.02802,-0.028 -0.516608,0.0792 -0.817053,0.17929 -0.895817,0.29845 -1.54811,0.8448 -1.9479,1.63153 -0.052933,0.10416 -0.096243,0.19759 -0.096243,0.2076 0,0.01 0.1171334,-0.0545 0.2602964,-0.14325 0.143162,-0.0888 0.565216,-0.32343 0.937897,-0.52138 z m -4.3949574,0.56763 c -0.1376645,-0.30932 -0.3517457,-0.61941 -0.6294449,-0.91176 -0.3356426,-0.35335 -0.7773455,-0.62276 -1.3552595,-0.82664 -0.2786756,-0.0983 -0.8048193,-0.21302 -0.8356532,-0.18219 -0.033097,0.0331 0.1633642,0.32267 0.3357674,0.49489 0.2469491,0.2467 0.5570187,0.44664 1.3429553,0.86596 0.3755181,0.20035 0.7847336,0.42717 0.9093662,0.50403 0.1246327,0.0769 0.2365677,0.14037 0.2487455,0.14112 0.012175,7.1e-4 0.00479,-0.0377 -0.016476,-0.0854 z m -2.3046971,-6.61948 c -1.0527756,-0.2092 -1.7082467,-0.85146 -1.930323,-1.8914 -0.07418,-0.34738 -0.074436,-1.07799 -5.01e-4,-1.4198 0.1417745,-0.65543 0.4420176,-1.25561 0.8326265,-1.66441 0.1077327,-0.11275 0.1115084,-0.12406 0.078994,-0.23663 -0.1843955,-0.63842 -0.2675973,-0.9731 -0.3229826,-1.2992 -0.076634,-0.45122 -0.1463394,-1.36765 -0.1162288,-1.52815 0.02913,-0.15528 0.1572176,-0.25219 0.3026062,-0.22893 0.1858567,0.0298 0.2085724,0.0873 0.2335376,0.59167 0.039082,0.78961 0.1284185,1.33811 0.3219104,1.97645 0.061611,0.20326 0.1145573,0.3721 0.1176627,0.3752 0.00308,0.003 0.1546346,0.0218 0.3367319,0.0415 0.6253793,0.0679 1.1342007,0.2077 1.6600964,0.45616 0.3947027,0.18646 0.6450838,0.36181 0.9451584,0.66188 0.2956585,0.29566 0.4767118,0.55225 0.6488055,0.91948 l 0.122738,0.26192 0.1808985,0.0405 c 0.099494,0.0222 0.3299765,0.0404 0.5121841,0.0404 0.1822067,0 0.4126893,-0.0182 0.5121832,-0.0404 l 0.1808986,-0.0405 0.1227379,-0.26192 c 0.1720938,-0.36723 0.3531471,-0.62382 0.6488056,-0.91948 0.3016504,-0.30165 0.5530404,-0.47725 0.9451584,-0.6602 0.535419,-0.24981 1.04318,-0.38992 1.664374,-0.45927 l 0.335364,-0.0375 0.100335,-0.32677 c 0.199602,-0.65007 0.296726,-1.2391 0.336701,-2.04197 0.02433,-0.48856 0.04821,-0.54771 0.233165,-0.5773 0.145388,-0.0233 0.273474,0.0736 0.302606,0.22894 0.03011,0.1605 -0.0396,1.07692 -0.116229,1.52815 -0.05527,0.32542 -0.140665,0.66899 -0.322184,1.2962 -0.03217,0.11116 -0.02815,0.12101 0.113444,0.27851 0.55569,0.61806 0.850687,1.42078 0.852461,2.31965 0.0022,1.144 -0.422078,1.94923 -1.24435,2.36131 -0.4727,0.23689 -0.697622,0.28401 -1.36839,0.2867 -0.427966,0.002 -0.630119,-0.0112 -0.820326,-0.0525 -0.772925,-0.16765 -1.4957274,-0.52362 -2.0660199,-1.01749 -0.3448818,-0.29867 -0.4777361,-0.29815 -0.824404,0.003 -0.2515823,0.2187 -0.6349126,0.47433 -0.9391989,0.62633 -0.3126192,0.15617 -0.9018824,0.34907 -1.250091,0.40923 -0.3464302,0.0598 -1.0204446,0.06 -1.3209518,2.3e-4 z m 1.4707488,-0.57838 c 0.5587286,-0.13269 1.0947929,-0.39158 1.5649238,-0.75575 l 0.074069,-0.0574 -0.069375,-0.34461 c -0.1846888,-0.91735 -0.5576453,-1.6805 -1.049677,-2.14788 -0.4688937,-0.44541 -1.3987962,-0.80823 -2.2571728,-0.88069 l -0.2622981,-0.0221 -0.1114972,0.10679 c -0.2968444,0.28431 -0.626048,0.89246 -0.7334524,1.35494 -0.088036,0.37909 -0.1083953,0.69283 -0.068221,1.05129 0.0832,0.74233 0.4101782,1.27688 0.9476523,1.54923 0.5078356,0.25735 1.2610932,0.31339 1.9650523,0.14619 z m 6.5020287,-0.004 c 0.663464,-0.20024 1.074775,-0.63114 1.255339,-1.31512 0.09428,-0.35715 0.09621,-1.02751 0.004,-1.39773 -0.128971,-0.51793 -0.374935,-0.98927 -0.694663,-1.33118 l -0.149096,-0.15943 -0.252409,0.0209 c -0.87321,0.0721 -1.78814,0.42484 -2.270606,0.87541 -0.4955258,0.46277 -0.8816057,1.24946 -1.0555506,2.15081 -0.036064,0.1869 -0.065578,0.34465 -0.065578,0.35055 0,0.0282 0.5778592,0.401 0.7730008,0.49865 0.7926188,0.39661 1.7588158,0.51748 2.4555388,0.3072 z m -4.0488675,-1.21417 c 0.095442,0 0.210226,0.0103 0.255075,0.0229 0.079977,0.0225 0.082696,0.018 0.1411299,-0.23663 0.032772,-0.14277 0.064142,-0.28164 0.0697,-0.30859 0.00879,-0.0426 -0.05224,-0.049 -0.4659071,-0.049 -0.4136666,0 -0.4746992,0.007 -0.4659072,0.049 0.00556,0.0269 0.036936,0.16582 0.0697,0.30859 0.058439,0.25459 0.061158,0.25914 0.141129,0.23663 0.044853,-0.0127 0.1596338,-0.0229 0.255075,-0.0229 z"
       id="path14716"
       inkscape:connector-curvature="0" />
    <path
       style="fill:#ffffff;stroke-width:0.02863424;stroke-miterlimit:4;stroke-dasharray:none"
       d="m 16.455265,30.312776 c -3.305461,-1.00912 -5.050763,-3.632732 -5.050763,-7.592527 0,-3.617835 2.216112,-8.088564 4.003637,-8.076835 2.692376,0.01767 7.173392,1.812439 8.929674,3.576588 1.414144,1.420478 2.806304,4.109225 3.486674,6.733984 0.508729,1.962597 0.516613,2.127631 0.122445,2.563182 -0.656955,0.725926 -3.627067,2.189281 -5.340935,2.631444 -1.599508,0.412658 -5.036302,0.504387 -6.150732,0.164164 z"
       id="path14766"
       inkscape:connector-curvature="0"
       transform="matrix(0.26458333,0,0,0.26458333,0,280.06665)" />
    <path
       style="fill:#ffffff;stroke-width:0.02863424;stroke-miterlimit:4;stroke-dasharray:none"
       d="m 40.572657,30.171522 c -1.661745,-0.45294 -2.51464,-0.831704 -4.246103,-1.885657 -1.652293,-1.005764 -1.668724,-1.074168 -0.913045,-3.801128 0.950114,-3.428603 2.696232,-6.076013 4.963409,-7.525366 1.507944,-0.963994 4.514917,-1.979459 6.526767,-2.204112 1.505125,-0.168069 1.545281,-0.156333 2.223698,0.64992 0.379991,0.451594 0.971502,1.374835 1.314468,2.051646 2.702364,5.332858 1.065308,11.355098 -3.451325,12.696393 -1.613208,0.479072 -4.695156,0.487861 -6.417869,0.0183 z"
       id="path14768"
       inkscape:connector-curvature="0"
       transform="matrix(0.26458333,0,0,0.26458333,0,280.06665)" />
  </g>
</svg>
