<?xml version="1.0" encoding="UTF-8" standalone="no"?>
<!-- Created with Inkscape (http://www.inkscape.org/) -->

<svg
   xmlns:dc="http://purl.org/dc/elements/1.1/"
   xmlns:cc="http://creativecommons.org/ns#"
   xmlns:rdf="http://www.w3.org/1999/02/22-rdf-syntax-ns#"
   xmlns:svg="http://www.w3.org/2000/svg"
   xmlns="http://www.w3.org/2000/svg"
   xmlns:sodipodi="http://sodipodi.sourceforge.net/DTD/sodipodi-0.dtd"
   xmlns:inkscape="http://www.inkscape.org/namespaces/inkscape"
   width="64"
   height="64"
   viewBox="0 0 16.933333 16.933334"
   version="1.1"
   id="svg8"
   inkscape:version="0.92.5 (2060ec1f9f, 2020-04-08)"
   sodipodi:docname="floor_64x64.svg">
  <defs
     id="defs2" />
  <sodipodi:namedview
     id="base"
     pagecolor="#ffffff"
     bordercolor="#666666"
     borderopacity="1.0"
     inkscape:pageopacity="0.0"
     inkscape:pageshadow="2"
     inkscape:zoom="5.6"
     inkscape:cx="83.238086"
     inkscape:cy="31.77626"
     inkscape:document-units="mm"
     inkscape:current-layer="layer1"
     showgrid="false"
     units="px"
     inkscape:window-width="1208"
     inkscape:window-height="987"
     inkscape:window-x="1992"
     inkscape:window-y="0"
     inkscape:window-maximized="1" />
  <metadata
     id="metadata5">
    <rdf:RDF>
      <cc:Work
         rdf:about="">
        <dc:format>image/svg+xml</dc:format>
        <dc:type
           rdf:resource="http://purl.org/dc/dcmitype/StillImage" />
        <dc:title></dc:title>
      </cc:Work>
    </rdf:RDF>
  </metadata>
  <g
     inkscape:label="Layer 1"
     inkscape:groupmode="layer"
     id="layer1"
     transform="translate(0,-280.06665)">
    <path
       style="fill:#000000;stroke-width:0.02910683"
       d="m 1.2501038,296.0175 c -0.1476991,-0.0671 -0.26057477,-0.26965 -0.2356917,-0.42298 0.028339,-0.17463 2.639178,-8.0336 2.6929678,-8.10619 0.028927,-0.039 0.088765,-0.098 0.132969,-0.13097 0.080379,-0.06 0.080462,-0.06 4.6167767,-0.06 4.5363184,0 4.5363984,0 4.6167764,0.06 0.04421,0.033 0.104045,0.0919 0.132969,0.13097 0.05379,0.0726 2.66463,7.93156 2.692968,8.10619 0.02488,0.15333 -0.08799,0.3559 -0.235691,0.42298 -0.115569,0.0525 -0.353161,0.0542 -7.2070224,0.0542 -6.8538608,0 -7.0914527,-0.002 -7.2070218,-0.0542 z m 6.7704196,-2.57878 v -1.76113 l -2.4071329,0.007 -2.4071319,0.007 -0.5752937,1.73186 c -0.3164116,0.95253 -0.5757543,1.74168 -0.5763171,1.75368 -5.618e-4,0.012 1.3415277,0.0218 2.9824256,0.0218 h 2.98345 z m 6.8390806,1.7393 c -5.61e-4,-0.012 -0.259907,-0.80117 -0.576318,-1.75369 l -0.575294,-1.73186 -2.407132,-0.007 -2.4071321,-0.007 v 1.76113 1.76113 h 2.9834501 c 1.640898,0 2.98299,-0.0103 2.982426,-0.0218 z m -6.8390806,-5.69788 v -1.32458 l -1.8239904,0.007 -1.8239893,0.007 -0.4317896,1.29501 c -0.2374845,0.71226 -0.4317896,1.30494 -0.4317896,1.31709 0,0.0122 1.0151005,0.0221 2.2557789,0.0221 h 2.25578 z m 5.3847636,1.30249 c 0,-0.0122 -0.194306,-0.60483 -0.431789,-1.31708 l -0.43179,-1.295 -1.82399,-0.007 -1.8239901,-0.007 v 1.32458 1.32458 h 2.2557791 c 1.240679,0 2.25578,-0.0103 2.25578,-0.0221 z m -7.757919,-4.4312 c -0.1576951,-0.0781 -0.212936,-0.18322 -0.2593127,-0.49367 -0.1005385,-0.67302 -0.5087225,-1.0812 -1.181729,-1.18174 -0.3116268,-0.0466 -0.417205,-0.10245 -0.4942318,-0.26153 -0.072437,-0.14965 -0.072437,-0.2262 0,-0.37583 0.077023,-0.15912 0.182605,-0.21499 0.4942318,-0.26155 0.6730065,-0.10059 1.0811926,-0.50872 1.181729,-1.18172 0.046556,-0.31163 0.102418,-0.41721 0.2615383,-0.49424 0.1496448,-0.0724 0.2261903,-0.0724 0.3758341,0 0.1591161,0.077 0.214987,0.18261 0.2615383,0.49424 0.1005384,0.673 0.5087224,1.08118 1.1817299,1.18172 0.3116269,0.0466 0.4172051,0.10245 0.4942319,0.26155 0.072437,0.14963 0.072437,0.22618 0,0.37583 -0.077023,0.15911 -0.182605,0.21498 -0.4942319,0.26153 -0.6730075,0.10059 -1.0811925,0.50872 -1.1817299,1.18174 -0.046546,0.31162 -0.1024181,0.4172 -0.2615383,0.49423 -0.1499753,0.0726 -0.2305124,0.0725 -0.3780597,-5.6e-4 z m 0.3981157,-1.90656 0.2183011,-0.2183 -0.2131363,-0.21313 -0.2131374,-0.21314 -0.2133046,0.2133 -0.2133037,0.21331 0.2060269,0.21375 c 0.1133157,0.11755 0.206978,0.21572 0.2081409,0.21812 0.00114,0.002 0.1003526,-0.0939 0.2204131,-0.21391 z m 4.8411133,1.03336 c -0.157695,-0.0781 -0.212936,-0.18323 -0.259312,-0.49367 -0.100539,-0.67302 -0.508723,-1.0812 -1.1817297,-1.18174 -0.1437725,-0.0215 -0.3008314,-0.0624 -0.3490207,-0.0908 -0.0946,-0.0559 -0.2028067,-0.24724 -0.2028067,-0.35865 0,-0.11141 0.1082087,-0.30278 0.2028067,-0.35865 0.048188,-0.0285 0.2052482,-0.0693 0.3490207,-0.0908 0.3435906,-0.0513 0.5950047,-0.16966 0.8035377,-0.37819 0.208535,-0.20853 0.326865,-0.45995 0.378192,-0.80353 0.04656,-0.31164 0.102428,-0.41722 0.261538,-0.49424 0.149645,-0.0724 0.22619,-0.0724 0.375835,0 0.159115,0.077 0.214986,0.1826 0.261537,0.49424 0.100539,0.673 0.508724,1.08118 1.18173,1.18172 0.311627,0.0466 0.417205,0.10245 0.494232,0.26154 0.07244,0.14964 0.07244,0.22619 0,0.37584 -0.07702,0.15911 -0.182605,0.21498 -0.494232,0.26153 -0.34359,0.0513 -0.595005,0.16966 -0.803538,0.37819 -0.208534,0.20854 -0.326864,0.45995 -0.378192,0.80355 -0.04656,0.31162 -0.102418,0.4172 -0.261537,0.49422 -0.149976,0.0726 -0.230513,0.0725 -0.378061,-5.5e-4 z m 0.398116,-1.90656 0.218301,-0.21831 -0.213136,-0.21313 -0.213138,-0.21313 -0.213304,0.21329 -0.213304,0.21332 0.206028,0.21373 c 0.113315,0.11757 0.206978,0.21573 0.20814,0.21814 0.0011,0.002 0.100352,-0.0939 0.220413,-0.21391 z"
       id="path8638"
       inkscape:connector-curvature="0" />
    <path
       style="fill:#ffffff;stroke-width:0.00471472;stroke-miterlimit:4;stroke-dasharray:none"
       d="m 4.6288109,290.77455 c -0.588894,-0.006 -1.0705594,-0.0255 -1.0703673,-0.0423 1.921e-4,-0.0167 0.1832526,-0.59182 0.4068022,-1.27791 l 0.4064541,-1.24743 1.8177908,-0.0109 1.8177908,-0.0108 v 1.31024 1.31024 l -1.1538777,-0.009 c -0.6346325,-0.005 -1.6357,-0.015 -2.2245929,-0.0215 z"
       id="path8640"
       inkscape:connector-curvature="0" />
    <path
       style="fill:#ffffff;stroke-width:0.00471472;stroke-miterlimit:4;stroke-dasharray:none"
       d="m 2.1027534,295.13075 c 0,-0.0627 1.0856272,-3.34413 1.11646,-3.37465 0.014861,-0.0148 1.0982578,-0.0347 2.407546,-0.0445 l 2.3805221,-0.0178 v 1.73892 1.73892 H 5.0550174 c -1.9113725,0 -2.952264,-0.0145 -2.952264,-0.041 z"
       id="path8642"
       inkscape:connector-curvature="0" />
    <path
       style="fill:#ffffff;stroke-width:0.00471472;stroke-miterlimit:4;stroke-dasharray:none"
       d="m 8.9220677,293.41882 v -1.7529 l 0.630329,0.0273 c 0.3466805,0.015 1.4218553,0.0273 2.3892763,0.0273 h 1.758947 l 0.536949,1.63205 c 0.295321,0.89764 0.549927,1.67417 0.56579,1.72562 l 0.02885,0.0936 H 11.877138 8.9220707 Z"
       id="path8644"
       inkscape:connector-curvature="0" />
    <path
       style="fill:#ffffff;stroke-width:0.00471472;stroke-miterlimit:4;stroke-dasharray:none"
       d="m 8.9220677,289.50148 v -1.3154 h 1.8069703 1.806969 l 0.415622,1.27716 c 0.228591,0.70244 0.411845,1.2806 0.407229,1.28482 -0.0046,0.004 -1.004783,0.0214 -2.222592,0.0382 l -2.2141983,0.0306 z"
       id="path8646"
       inkscape:connector-curvature="0" />
    <path
       style="fill:#ffffff;stroke-width:0.00471472;stroke-miterlimit:4;stroke-dasharray:none"
       d="m 5.6365644,284.42239 -0.1842296,-0.18773 0.1963624,-0.19635 0.1963634,-0.19637 0.1963623,0.19637 0.1963624,0.19635 -0.1842296,0.18773 c -0.1013233,0.10327 -0.1951489,0.18771 -0.2084951,0.18771 -0.013343,0 -0.1071698,-0.0845 -0.2084962,-0.18771 z"
       id="path8648"
       inkscape:connector-curvature="0" />
    <path
       style="fill:#ffffff;stroke-width:0.00471472;stroke-miterlimit:4;stroke-dasharray:none"
       d="m 10.875795,283.54917 -0.18423,-0.18771 0.196363,-0.19636 0.196362,-0.19636 0.196362,0.19636 0.196363,0.19636 -0.18423,0.18771 c -0.101323,0.10328 -0.195149,0.18773 -0.208495,0.18773 -0.01334,0 -0.10717,-0.0845 -0.208495,-0.18773 z"
       id="path8650"
       inkscape:connector-curvature="0" />
  </g>
</svg>
