<?xml version="1.0" encoding="UTF-8" standalone="no"?>
<!-- Created with Inkscape (http://www.inkscape.org/) -->

<svg
   xmlns:dc="http://purl.org/dc/elements/1.1/"
   xmlns:cc="http://creativecommons.org/ns#"
   xmlns:rdf="http://www.w3.org/1999/02/22-rdf-syntax-ns#"
   xmlns:svg="http://www.w3.org/2000/svg"
   xmlns="http://www.w3.org/2000/svg"
   xmlns:sodipodi="http://sodipodi.sourceforge.net/DTD/sodipodi-0.dtd"
   xmlns:inkscape="http://www.inkscape.org/namespaces/inkscape"
   width="64"
   height="64"
   viewBox="0 0 16.933333 16.933334"
   version="1.1"
   id="svg8"
   inkscape:version="0.92.5 (2060ec1f9f, 2020-04-08)"
   sodipodi:docname="fork_64x64.svg">
  <defs
     id="defs2" />
  <sodipodi:namedview
     id="base"
     pagecolor="#ffffff"
     bordercolor="#666666"
     borderopacity="1.0"
     inkscape:pageopacity="0.0"
     inkscape:pageshadow="2"
     inkscape:zoom="2.8"
     inkscape:cx="-19.660347"
     inkscape:cy="35.564374"
     inkscape:document-units="mm"
     inkscape:current-layer="layer1"
     showgrid="false"
     units="px"
     inkscape:window-width="1208"
     inkscape:window-height="987"
     inkscape:window-x="1992"
     inkscape:window-y="0"
     inkscape:window-maximized="1" />
  <metadata
     id="metadata5">
    <rdf:RDF>
      <cc:Work
         rdf:about="">
        <dc:format>image/svg+xml</dc:format>
        <dc:type
           rdf:resource="http://purl.org/dc/dcmitype/StillImage" />
        <dc:title></dc:title>
      </cc:Work>
    </rdf:RDF>
  </metadata>
  <g
     inkscape:label="Layer 1"
     inkscape:groupmode="layer"
     id="layer1"
     transform="translate(0,-280.06665)">
    <path
       style="fill:#000000;stroke-width:0.03063141"
       d="m 8.363958,296.15928 c -0.3511504,-0.21413 -0.578789,-0.95427 -0.6555361,-2.13138 -0.044954,-0.68984 -0.018864,-1.13418 0.1547057,-2.63313 0.081467,-0.70359 0.077977,-0.74882 -0.061373,-0.79376 -0.1630738,-0.0526 -0.1572178,-0.13221 0.012914,-0.17499 0.076947,-0.0194 0.1399036,-0.0452 0.1399036,-0.0573 0,-0.0123 -0.055869,-0.0389 -0.1241452,-0.0593 -0.1323396,-0.0397 -0.1880459,-0.11469 -0.1177035,-0.15848 0.023507,-0.0154 0.1014993,-0.0355 0.1733129,-0.0464 0.071812,-0.0108 0.1366443,-0.0295 0.14407,-0.0417 0.11057,-0.17893 0.2761144,-3.35431 0.206713,-3.96527 -0.030056,-0.26474 -0.047475,-0.32049 -0.1490051,-0.4773 -0.078254,-0.12084 -0.1646773,-0.20729 -0.2706397,-0.27066 -0.4324498,-0.25867 -0.7831006,-0.78686 -0.9715584,-1.4635 -0.063541,-0.22814 -0.068107,-0.31592 -0.078423,-1.5062 l -0.010916,-1.26394 0.25456,-0.2739 0.2545601,-0.27392 0.015374,1.49191 0.015374,1.49191 0.091491,0.1808 c 0.1396884,0.27604 0.7048637,0.84535 0.8392112,0.84535 0.024798,0 0.034176,-0.5542 0.034176,-2.02168 v -2.02167 h 0.290998 0.290998 v 2.03895 2.03893 l 0.1873295,-0.13144 c 0.2536491,-0.17801 0.5561484,-0.51141 0.6692044,-0.73766 l 0.093044,-0.18618 v -1.4986 c 0,-0.82423 0.011377,-1.49401 0.025213,-1.4884 0.013837,0.006 0.1387659,0.13129 0.2775476,0.27919 l 0.252333,0.26897 -0.01076,1.24728 c -0.01076,1.23905 -0.01122,1.24921 -0.0918,1.53829 -0.09836,0.35328 -0.204306,0.59378 -0.3782728,0.85872 -0.1504348,0.2291 -0.4296256,0.50625 -0.6133252,0.60881 -0.2879247,0.16078 -0.4077806,0.54744 -0.409132,1.31992 -0.002,1.03103 0.1322628,3.10826 0.2147613,3.32736 0.017988,0.0478 0.061035,0.0706 0.1620576,0.0858 0.1403802,0.0211 0.2243762,0.0821 0.1898446,0.13791 -0.010608,0.0171 -0.073795,0.0458 -0.1404724,0.0638 -0.1494663,0.0403 -0.1553207,0.0824 -0.015067,0.10869 0.1143366,0.0214 0.1866284,0.0836 0.1555928,0.13391 -0.010608,0.0171 -0.072473,0.0455 -0.1375053,0.063 -0.1141982,0.0307 -0.1178111,0.0358 -0.1050353,0.14636 0.1106776,0.95784 0.20443,1.88494 0.225314,2.22805 0.0448,0.7358 -0.027227,1.68946 -0.1712251,2.26673 -0.1852662,0.74282 -0.5298181,1.10651 -0.8584609,0.90611 z"
       id="path12585"
       inkscape:connector-curvature="0"
       sodipodi:nodetypes="cscccsccccsccccccccccssccccccccscccsscccccccccccsccc" />
  </g>
</svg>
