<?xml version="1.0" encoding="UTF-8" standalone="no"?>
<!-- Created with Inkscape (http://www.inkscape.org/) -->

<svg
   xmlns:dc="http://purl.org/dc/elements/1.1/"
   xmlns:cc="http://creativecommons.org/ns#"
   xmlns:rdf="http://www.w3.org/1999/02/22-rdf-syntax-ns#"
   xmlns:svg="http://www.w3.org/2000/svg"
   xmlns="http://www.w3.org/2000/svg"
   xmlns:sodipodi="http://sodipodi.sourceforge.net/DTD/sodipodi-0.dtd"
   xmlns:inkscape="http://www.inkscape.org/namespaces/inkscape"
   width="64"
   height="64"
   viewBox="0 0 16.933333 16.933334"
   version="1.1"
   id="svg8"
   inkscape:version="0.92.5 (2060ec1f9f, 2020-04-08)"
   sodipodi:docname="fridge_64x64.svg">
  <defs
     id="defs2" />
  <sodipodi:namedview
     id="base"
     pagecolor="#ffffff"
     bordercolor="#666666"
     borderopacity="1.0"
     inkscape:pageopacity="0.0"
     inkscape:pageshadow="2"
     inkscape:zoom="2.8"
     inkscape:cx="13.386408"
     inkscape:cy="50.28577"
     inkscape:document-units="mm"
     inkscape:current-layer="layer1"
     showgrid="false"
     units="px"
     inkscape:window-width="1208"
     inkscape:window-height="987"
     inkscape:window-x="1992"
     inkscape:window-y="0"
     inkscape:window-maximized="1" />
  <metadata
     id="metadata5">
    <rdf:RDF>
      <cc:Work
         rdf:about="">
        <dc:format>image/svg+xml</dc:format>
        <dc:type
           rdf:resource="http://purl.org/dc/dcmitype/StillImage" />
        <dc:title></dc:title>
      </cc:Work>
    </rdf:RDF>
  </metadata>
  <g
     inkscape:label="Layer 1"
     inkscape:groupmode="layer"
     id="layer1"
     transform="translate(0,-280.06665)">
    <path
       style="fill:#000000;stroke-width:0.0291697"
       d="m 4.3833975,296.30436 c -0.1377492,-0.0682 -0.2424887,-0.19067 -0.29361,-0.34336 -0.024445,-0.073 -0.033203,-1.91571 -0.033203,-6.98814 0,-7.72609 -0.018809,-7.08648 0.2153805,-7.32068 0.2346029,-0.2346 0.00746,-0.22063 3.5857863,-0.22063 2.3515797,0 3.2079887,0.009 3.2927077,0.0343 0.149771,0.0449 0.368041,0.23912 0.435456,0.38753 0.04697,0.10338 0.05359,0.20157 0.05415,0.8041 7.22e-4,0.78526 -0.0068,0.81595 -0.200682,0.81595 -0.07524,0 -0.128235,-0.0195 -0.16607,-0.0613 -0.05061,-0.0559 -0.05639,-0.12091 -0.06483,-0.7283 l -0.0092,-0.66697 -0.08779,-0.0739 -0.08778,-0.0739 H 7.8741813 c -3.43938,0 -3.2751644,-0.009 -3.3470545,0.16635 -0.024631,0.0598 -0.031573,0.70495 -0.025987,2.41517 l 0.00759,2.33357 2.3116996,0.007 c 1.2714345,0.004 2.3116983,-0.004 2.3116983,-0.0164 0,-0.0132 -0.039385,-0.0616 -0.087504,-0.10773 -0.1377555,-0.13199 -0.098961,-0.33346 0.072501,-0.3765 0.1061638,-0.0266 0.2032501,0.035 0.4518295,0.28684 l 0.2180427,0.22091 h 0.5476591 c 0.301215,0 0.547662,-0.01 0.547662,-0.0223 0,-0.0124 -0.167543,-0.18947 -0.372318,-0.39379 l -0.372322,-0.37105 H 9.7807552 c -0.31803,0 -0.3632796,-0.006 -0.4152618,-0.0583 -0.035641,-0.0356 -0.058344,-0.0973 -0.058344,-0.15831 0,-0.13219 0.1087763,-0.22089 0.2709007,-0.22089 h 0.1171856 l -0.1648736,-0.17286 c -0.1674326,-0.17553 -0.177947,-0.19833 -0.1461824,-0.31689 0.022467,-0.0839 0.1667608,-0.16146 0.2525863,-0.13583 0.035293,0.01 0.133088,0.0862 0.2173149,0.16823 l 0.1531411,0.14907 v -0.11905 c 0,-0.24128 0.224547,-0.36446 0.374122,-0.20525 0.05781,0.0616 0.06342,0.0984 0.06342,0.4161 v 0.34857 l 0.379206,0.37836 0.379207,0.37837 v -0.50815 -0.50814 l -0.247942,-0.25341 c -0.274768,-0.28077 -0.302071,-0.35525 -0.176345,-0.48098 0.09551,-0.0955 0.196794,-0.0903 0.318343,0.0165 l 0.10028,0.0881 0.01008,-0.28022 c 0.0096,-0.26508 0.01454,-0.28399 0.09197,-0.35056 0.10028,-0.0862 0.164209,-0.0886 0.26426,-0.01 0.07381,0.0581 0.07686,0.0719 0.07686,0.35004 0,0.15927 0.0107,0.28958 0.02371,0.28958 0.01305,0 0.06144,-0.0394 0.107557,-0.0876 0.131979,-0.13775 0.333458,-0.0989 0.376491,0.0724 0.02665,0.10612 -0.03499,0.20326 -0.286844,0.45184 l -0.220911,0.21804 v 0.48933 c 0,0.26913 0.01008,0.48932 0.02229,0.48932 0.01232,0 0.18947,-0.16754 0.393791,-0.37231 l 0.371493,-0.37233 v -0.35579 c 0,-0.32843 0.0049,-0.36035 0.06384,-0.41525 0.150616,-0.14033 0.344535,-0.0343 0.344535,0.18846 0,0.0721 0.0088,0.13127 0.01954,0.13127 0.0107,0 0.107918,-0.0853 0.215937,-0.18962 0.21679,-0.20928 0.324827,-0.24186 0.435425,-0.13125 0.110592,0.11059 0.07802,0.21864 -0.131263,0.43543 -0.104286,0.10798 -0.189604,0.20517 -0.189604,0.21593 0,0.0112 0.05908,0.0195 0.131263,0.0195 0.227234,0 0.332796,0.20182 0.180432,0.34497 -0.06154,0.0578 -0.09834,0.0634 -0.41609,0.0634 h -0.348583 l -0.371493,0.37231 c -0.204321,0.20477 -0.371493,0.38198 -0.371493,0.39379 0,0.0112 0.220195,0.0215 0.489323,0.0215 h 0.489323 l 0.218043,-0.22091 c 0.248579,-0.25185 0.345671,-0.31349 0.451829,-0.28684 0.171456,0.043 0.210252,0.24451 0.0725,0.37648 -0.04813,0.0462 -0.0875,0.0945 -0.0875,0.10761 0,0.0131 0.130311,0.0236 0.289579,0.0236 0.278095,0 0.291978,0.002 0.350037,0.0769 0.07627,0.0969 0.07627,0.1577 0,0.25466 -0.05806,0.0738 -0.07194,0.0769 -0.350037,0.0769 -0.159268,0 -0.289579,0.009 -0.289579,0.018 0,0.01 0.03938,0.0629 0.0875,0.11768 0.107234,0.12216 0.11119,0.22245 0.01265,0.32099 -0.120458,0.12042 -0.217774,0.0805 -0.509114,-0.20944 l -0.248515,-0.24704 h -0.488016 c -0.268409,0 -0.488016,0.01 -0.488016,0.0223 0,0.0124 0.167544,0.18948 0.37232,0.3938 l 0.372318,0.37148 h 0.354807 c 0.348559,0 0.355872,8.5e-4 0.415263,0.0769 0.136671,0.17374 0.01509,0.36069 -0.234577,0.36069 h -0.09375 l 0.19439,0.20134 c 0.154557,0.16011 0.194389,0.21988 0.194389,0.29171 0,0.11905 -0.09027,0.20703 -0.212324,0.20703 -0.07899,0 -0.128354,-0.033 -0.283561,-0.18961 -0.103353,-0.10425 -0.198144,-0.18961 -0.210639,-0.18961 -0.01249,0 -0.02272,0.0591 -0.02272,0.13126 0,0.15779 -0.07425,0.24796 -0.204188,0.24796 -0.04862,0 -0.113441,-0.0259 -0.145849,-0.0583 -0.052,-0.052 -0.05834,-0.0973 -0.05834,-0.41609 v -0.35776 l -0.37232,-0.37149 c -0.204775,-0.20432 -0.381981,-0.37149 -0.39379,-0.37149 -0.01182,0 -0.02147,0.24646 -0.02147,0.54765 v 0.54768 l 0.22091,0.21804 c 0.25185,0.24858 0.313489,0.34567 0.286845,0.45182 -0.04303,0.17146 -0.244514,0.21025 -0.376492,0.0724 -0.04611,-0.048 -0.09451,-0.0874 -0.107545,-0.0874 -0.01305,0 -0.02371,1.49026 -0.02371,3.31169 0,3.61925 0.0099,3.41296 -0.173033,3.5911 -0.134109,0.13057 -0.287952,0.16436 -0.692444,0.15209 -0.518112,-0.0157 -0.560675,-0.0506 -0.8132204,-0.66673 L 9.8125262,295.331 8.2982248,295.3164 c -0.8328661,-0.007 -1.5382785,-0.0261 -1.5675824,-0.0404 -0.053766,-0.0261 -0.107159,-0.13108 -0.107159,-0.21073 0,-0.0238 0.03222,-0.0754 0.071593,-0.11482 l 0.071605,-0.0717 h 2.2182222 2.2182234 v -2.78874 -2.78872 l -0.103104,0.0906 c -0.124276,0.1091 -0.225056,0.11507 -0.321177,0.0189 -0.125726,-0.12571 -0.09843,-0.20019 0.176344,-0.48098 l 0.247943,-0.25338 v -0.56648 -0.5665 l -0.379206,0.37836 -0.379207,0.37837 v 0.35266 c 0,0.33092 -0.0042,0.35659 -0.06751,0.4161 -0.157659,0.1481 -0.370034,0.029 -0.370034,-0.20749 v -0.11718 l -0.1763878,0.16825 c -0.1589659,0.15162 -0.1856175,0.16646 -0.2698196,0.1502 -0.05139,-0.01 -0.1164021,-0.0457 -0.1444794,-0.0796 -0.089133,-0.10735 -0.063656,-0.19197 0.113827,-0.37805 l 0.1648745,-0.17299 H 9.5780164 c -0.237387,0 -0.3642462,-0.23163 -0.2070618,-0.37807 0.056938,-0.0531 0.1019218,-0.0595 0.4160891,-0.0595 h 0.3522503 l 0.371493,-0.37234 c 0.204321,-0.20477 0.371493,-0.38197 0.371493,-0.39379 0,-0.0112 -0.24586,-0.0215 -0.546355,-0.0215 H 9.7895703 l -0.2485209,0.24726 c -0.2913385,0.28988 -0.388655,0.32991 -0.5091125,0.20945 -0.1028174,-0.10288 -0.098289,-0.21915 0.012652,-0.32545 0.048131,-0.0462 0.087504,-0.0945 0.087504,-0.10774 0,-0.0132 -1.0402651,-0.0205 -2.3116996,-0.0164 l -2.3116995,0.007 -0.00746,3.82851 -0.00746,3.82853 H 5.1661092 5.838447 l 0.071593,0.0717 c 0.039385,0.0393 0.071605,0.0972 0.071605,0.12853 0,0.0955 -0.3678514,0.97071 -0.4527787,1.07715 -0.1330594,0.16676 -0.268078,0.20901 -0.6702553,0.20972 -0.2990415,5.3e-4 -0.368293,-0.009 -0.4753576,-0.0615 z m 0.8226517,-0.4411 c 0.038452,-0.0596 0.2215159,-0.50014 0.2215159,-0.5331 0,-0.007 -0.2100213,-0.0138 -0.4667154,-0.0138 H 4.4941344 v 0.24985 c 0,0.36393 -0.00123,0.36271 0.3649752,0.36271 0.2838682,0 0.3074646,-0.004 0.3469396,-0.0656 z m 5.9621148,0.0306 c 0.02221,-0.0221 0.03501,-0.13418 0.03501,-0.30627 v -0.27128 h -0.465306 -0.465303 l 0.118293,0.28439 c 0.06506,0.15643 0.133337,0.29406 0.151728,0.30584 0.05727,0.0367 0.58694,0.026 0.625586,-0.0127 z m -5.521826,-4.6359 c -0.1216518,-0.068 -0.131263,-0.10848 -0.131263,-0.55245 v -0.42844 l -0.088685,-0.0367 c -0.1171111,-0.0485 -0.2727741,-0.23361 -0.3150133,-0.3746 -0.021845,-0.0729 -0.03385,-0.37636 -0.03385,-0.85549 v -0.7425 l 0.080214,-0.15819 c 0.1052433,-0.20755 0.2598016,-0.31615 0.4826486,-0.33915 0.2187891,-0.0226 0.388283,0.0425 0.5403272,0.20745 0.1690249,0.18337 0.1876005,0.3039 0.1756754,1.13992 -0.00958,0.66965 -0.013037,0.70626 -0.080015,0.84233 -0.043851,0.0891 -0.1174471,0.17568 -0.1968958,0.23169 l -0.1268716,0.0894 v 0.42869 c 0,0.36586 -0.00746,0.43755 -0.051054,0.48903 -0.063706,0.0754 -0.1785963,0.10189 -0.2552348,0.059 z m 0.1779445,-1.41867 c 0.086471,-0.0577 0.099173,-0.16247 0.099173,-0.81775 0,-0.63252 -0.00323,-0.67306 -0.060459,-0.74575 -0.073969,-0.094 -0.2056436,-0.1025 -0.2895808,-0.0185 -0.055135,0.0551 -0.058344,0.0973 -0.058344,0.76651 0,0.79477 0.00958,0.83821 0.1839655,0.83738 0.051228,-2e-4 0.1075944,-0.01 0.1252432,-0.0219 z M 5.5879989,285.9554 c -0.2255913,-0.0566 -0.4252251,-0.23637 -0.4795461,-0.43198 -0.017665,-0.0637 -0.030665,-0.42619 -0.030764,-0.85797 l -1.642e-4,-0.7478 0.081508,-0.15601 c 0.2042938,-0.39107 0.6941254,-0.46068 1.0024036,-0.14248 0.1894404,0.19554 0.2064074,0.29804 0.1945246,1.17518 -0.00896,0.66601 -0.013311,0.71339 -0.074927,0.82869 -0.1317917,0.24658 -0.4418949,0.39531 -0.6930406,0.33237 z m 0.277112,-0.48673 c 0.036002,-0.0352 0.045294,-0.16819 0.05246,-0.75076 0.00846,-0.68404 0.00659,-0.7106 -0.053169,-0.7866 -0.075375,-0.0958 -0.2063353,-0.10499 -0.2909927,-0.0203 -0.055222,0.0552 -0.058344,0.0973 -0.058344,0.78547 v 0.72712 l 0.078957,0.0621 c 0.085625,0.0674 0.1916721,0.0607 0.2710823,-0.017 z"
       id="path5079"
       inkscape:connector-curvature="0" />
    <path
       style="fill:none;stroke:#000000;stroke-width:0.00262186;stroke-linecap:butt;stroke-linejoin:miter;stroke-miterlimit:4;stroke-dasharray:none;stroke-opacity:1"
       d="m 5.8385923,294.87872 0.9281275,2e-5"
       id="path5081"
       inkscape:connector-curvature="0" />
    <path
       style="fill:none;stroke:#000000;stroke-width:0.00262186;stroke-linecap:butt;stroke-linejoin:miter;stroke-miterlimit:4;stroke-dasharray:none;stroke-opacity:1"
       d="m 11.266212,283.16909 -0.06872,1.64721"
       id="path5083"
       inkscape:connector-curvature="0"
       sodipodi:nodetypes="cc" />
    <path
       style="fill:#ffffff;stroke-width:0.00093638;stroke-miterlimit:4;stroke-dasharray:none"
       d="m 4.5510217,295.87177 c -0.030478,-0.0305 -0.038925,-0.0958 -0.038925,-0.30084 v -0.2619 l 0.4397389,0.0179 c 0.2418568,0.01 0.4434935,0.0218 0.4480814,0.0264 0.012067,0.0124 -0.1599648,0.42791 -0.2060218,0.49819 -0.037146,0.0567 -0.050768,0.0592 -0.3213627,0.0592 -0.223851,0 -0.290663,-0.009 -0.3215045,-0.0389 z"
       id="path5087"
       inkscape:connector-curvature="0" />
    <path
       style="fill:#ffffff;stroke-width:0.00093638;stroke-miterlimit:4;stroke-dasharray:none"
       d="m 10.540081,295.88171 c -0.02391,-0.0299 -0.112758,-0.22548 -0.214606,-0.4727 l -0.03828,-0.0929 h 0.460785 0.460785 l -0.0145,0.27505 c -0.008,0.1513 -0.02169,0.28229 -0.03048,0.29113 -0.0088,0.009 -0.146757,0.0198 -0.306608,0.0242 -0.219867,0.006 -0.297079,1.5e-4 -0.31709,-0.0247 z"
       id="path5089"
       inkscape:connector-curvature="0" />
    <path
       style="fill:#ffffff;stroke-width:0.00093638;stroke-miterlimit:4;stroke-dasharray:none"
       d="m 4.5120892,291.05857 v -3.81159 l 1.6460881,-0.0179 c 1.4784752,-0.0162 2.9372937,-0.001 2.9372937,0.0294 0,0.006 -0.033451,0.0498 -0.07433,0.0963 -0.097904,0.11147 -0.098513,0.2112 -0.00187,0.30782 0.039895,0.0398 0.099172,0.0724 0.1320144,0.0724 0.086172,0 0.2519568,-0.11905 0.4638715,-0.33317 l 0.1851921,-0.18711 0.471347,0.002 c 0.259239,8.4e-4 0.496619,0.01 0.52751,0.0187 0.05059,0.0144 0.01987,0.0523 -0.309689,0.38012 l -0.365852,0.364 -0.3552498,0.007 c -0.3545442,0.007 -0.3553677,0.007 -0.4149807,0.0771 -0.1249944,0.14547 -0.030515,0.33953 0.1828447,0.37557 l 0.1037504,0.0175 -0.1360039,0.16031 c -0.1749601,0.20623 -0.1862221,0.34041 -0.035131,0.41855 0.1206565,0.0623 0.1828546,0.045 0.349017,-0.0977 l 0.1559678,-0.13389 0.02906,0.11445 c 0.03129,0.12328 0.127636,0.22764 0.210043,0.22764 0.08094,0 0.196043,-0.0723 0.221428,-0.13907 0.01304,-0.0343 0.02371,-0.2039 0.02371,-0.37693 v -0.31459 l 0.371626,-0.371 0.371625,-0.371 v 0.54551 0.54553 l -0.151395,0.14787 c -0.335574,0.32777 -0.399237,0.45511 -0.294254,0.58858 0.09498,0.12079 0.22926,0.11109 0.377517,-0.0271 l 0.06813,-0.0636 v 2.77944 2.77945 h -3.3446285 -3.34463 z m 1.3638073,0.17367 c 0.071518,-0.058 0.093711,-0.20612 0.096112,-0.64198 9.989e-4,-0.18054 0.011445,-0.32827 0.023101,-0.32827 0.056739,0 0.2498632,-0.20869 0.3029103,-0.32732 0.057461,-0.12851 0.058593,-0.14568 0.05919,-0.89904 5.535e-4,-0.72793 -0.00211,-0.77385 -0.051204,-0.87951 -0.1160288,-0.24961 -0.3292373,-0.39641 -0.5757342,-0.39641 -0.2819686,0 -0.4571302,0.1096 -0.59816,0.37416 l -0.08259,0.15497 0.014542,0.76249 c 0.012925,0.67694 0.019854,0.77444 0.061827,0.86889 0.063867,0.14372 0.1658502,0.25974 0.2791559,0.31754 l 0.093923,0.0479 0.00821,0.43216 c 0.00796,0.41782 0.010201,0.4343 0.068309,0.49606 0.073434,0.0781 0.2158196,0.0868 0.3003563,0.0184 z"
       id="path5091"
       inkscape:connector-curvature="0" />
    <path
       style="fill:#ffffff;stroke-width:0.00093638;stroke-miterlimit:4;stroke-dasharray:none"
       d="m 9.6151265,286.60477 c -0.2069897,-0.2109 -0.3760046,-0.33155 -0.4644749,-0.33155 -0.032718,0 -0.092617,0.0336 -0.1344663,0.0755 -0.064738,0.0648 -0.073409,0.0882 -0.060956,0.16491 0.00796,0.0491 0.042806,0.11893 0.077377,0.15505 0.034571,0.0361 0.062872,0.0734 0.062872,0.0829 0,0.01 -1.0316366,0.0173 -2.2925232,0.0173 H 4.5104309 l 0.00709,-2.35982 c 0.00386,-1.30442 0.016844,-2.38005 0.028985,-2.40507 0.012067,-0.0249 0.051104,-0.0583 0.086708,-0.0744 0.04818,-0.0217 0.8761888,-0.0309 3.2366709,-0.0361 l 3.1719182,-0.006 0.07362,0.0768 0.07362,0.0768 0.01814,0.64877 c 0.0099,0.35682 0.02114,0.68777 0.02478,0.73547 0.0112,0.14603 -0.03503,1.28028 -0.05337,1.30994 -0.01169,0.0189 -0.04432,0.007 -0.101101,-0.0341 -0.113354,-0.0836 -0.220145,-0.081 -0.304998,0.007 -0.116526,0.12166 -0.09518,0.19102 0.139837,0.45462 0.113528,0.12735 0.225011,0.24684 0.24775,0.26554 0.03605,0.0296 0.04135,0.0963 0.04135,0.51997 v 0.48596 l -0.369379,-0.36876 -0.369381,-0.36878 -0.0085,-0.35776 c -0.0085,-0.35686 -0.0086,-0.35792 -0.07795,-0.41753 -0.145043,-0.1247 -0.344867,-0.0275 -0.3787338,0.18436 l -0.01611,0.10077 -0.1594411,-0.13526 c -0.1840165,-0.15612 -0.2597431,-0.17038 -0.3776952,-0.0712 -0.1205695,0.10138 -0.1064624,0.19465 0.058506,0.38631 l 0.1347338,0.15654 -0.1100203,0.0214 c -0.2071937,0.0401 -0.2972177,0.23659 -0.1740395,0.37994 0.059613,0.0694 0.060434,0.0695 0.4149819,0.0771 l 0.3552492,0.007 0.365904,0.36401 0.365904,0.36401 -0.09338,0.017 c -0.05135,0.01 -0.288761,0.0178 -0.527561,0.0187 l -0.4341832,0.001 z M 5.900442,285.94792 c 0.1459274,-0.0437 0.3227734,-0.1921 0.3940092,-0.33058 l 0.063382,-0.12316 v -0.7563 c 0,-0.84042 -0.011445,-0.92376 -0.1488844,-1.08433 -0.044598,-0.0521 -0.1352575,-0.12391 -0.201465,-0.15947 -0.3359673,-0.18068 -0.6773686,-0.0648 -0.8780249,0.29784 l -0.077514,0.1401 0.014182,0.77854 c 0.014045,0.77113 0.014791,0.77976 0.077539,0.908 0.1334064,0.27268 0.4647548,0.41691 0.756775,0.32941 z"
       id="path5093"
       inkscape:connector-curvature="0" />
    <path
       style="fill:#ffffff;stroke-width:0.00093638;stroke-miterlimit:4;stroke-dasharray:none"
       d="m 5.6265794,285.48364 -0.086322,-0.0463 v -0.73152 c 0,-0.6846 0.00299,-0.73486 0.047198,-0.78365 0.064328,-0.071 0.1753421,-0.0672 0.2512304,0.009 l 0.060807,0.0608 -2.774e-4,0.63907 c -3.471e-4,0.76148 -0.00647,0.81433 -0.101026,0.86321 -0.08519,0.044 -0.06847,0.045 -0.1716175,-0.01 z"
       id="path5095"
       inkscape:connector-curvature="0" />
    <path
       style="fill:#ffffff;stroke-width:0.00093638;stroke-miterlimit:4;stroke-dasharray:none"
       d="m 5.5720942,289.78507 c -0.041587,-0.0728 -0.060608,-1.35966 -0.021621,-1.46222 0.031983,-0.0841 0.138472,-0.13076 0.2169343,-0.095 0.127567,0.0582 0.1339923,0.096 0.1338841,0.79127 -1.381e-4,0.78113 -0.00933,0.82171 -0.1854795,0.82171 -0.090079,0 -0.1180814,-0.0112 -0.1437205,-0.0557 z"
       id="path5097"
       inkscape:connector-curvature="0" />
  </g>
</svg>
