<?xml version="1.0" encoding="UTF-8" standalone="no"?>
<!-- Created with Inkscape (http://www.inkscape.org/) -->

<svg
   xmlns:dc="http://purl.org/dc/elements/1.1/"
   xmlns:cc="http://creativecommons.org/ns#"
   xmlns:rdf="http://www.w3.org/1999/02/22-rdf-syntax-ns#"
   xmlns:svg="http://www.w3.org/2000/svg"
   xmlns="http://www.w3.org/2000/svg"
   xmlns:sodipodi="http://sodipodi.sourceforge.net/DTD/sodipodi-0.dtd"
   xmlns:inkscape="http://www.inkscape.org/namespaces/inkscape"
   width="64"
   height="64"
   viewBox="0 0 16.933333 16.933334"
   version="1.1"
   id="svg8"
   inkscape:version="0.92.5 (2060ec1f9f, 2020-04-08)"
   sodipodi:docname="fridge_check_64x64.svg">
  <defs
     id="defs2" />
  <sodipodi:namedview
     id="base"
     pagecolor="#ffffff"
     bordercolor="#666666"
     borderopacity="1.0"
     inkscape:pageopacity="0.0"
     inkscape:pageshadow="2"
     inkscape:zoom="2.8"
     inkscape:cx="13.386408"
     inkscape:cy="50.28577"
     inkscape:document-units="mm"
     inkscape:current-layer="layer1"
     showgrid="false"
     units="px"
     inkscape:window-width="1208"
     inkscape:window-height="987"
     inkscape:window-x="1992"
     inkscape:window-y="0"
     inkscape:window-maximized="1" />
  <metadata
     id="metadata5">
    <rdf:RDF>
      <cc:Work
         rdf:about="">
        <dc:format>image/svg+xml</dc:format>
        <dc:type
           rdf:resource="http://purl.org/dc/dcmitype/StillImage" />
        <dc:title></dc:title>
      </cc:Work>
    </rdf:RDF>
  </metadata>
  <g
     inkscape:label="Layer 1"
     inkscape:groupmode="layer"
     id="layer1"
     transform="translate(0,-280.06665)">
    <path
       style="fill:#000000;stroke-width:0.01326176"
       d="m 12.773518,285.18607 c -0.254287,-0.0257 -0.343653,-0.0384 -0.514527,-0.073 -0.588339,-0.11909 -1.177242,-0.39912 -1.641518,-0.78058 -0.203687,-0.16736 -0.472419,-0.45675 -0.6285941,-0.67693 -0.02846,-0.0401 -0.0533,-0.0751 -0.05522,-0.0778 -0.0019,-0.003 -0.03323,0.0257 -0.06958,0.063 -0.05733,0.0589 -0.073,0.0679 -0.118074,0.0679 -0.094694,0 -0.1563469,-0.0899 -0.1207013,-0.17591 0.035542,-0.0858 0.5013154,-0.53932 0.7876224,-0.76689 0.634208,-0.50409 1.354188,-0.84635 2.035681,-0.9677 0.754619,-0.13437 1.543072,0.0121 2.336141,0.43399 0.364717,0.19401 0.686913,0.41793 1.038979,0.72206 0.181635,0.15691 0.5405,0.52622 0.562172,0.57854 0.03565,0.0861 -0.02601,0.17591 -0.120702,0.17591 -0.04507,0 -0.06075,-0.009 -0.118073,-0.0679 -0.03635,-0.0373 -0.06767,-0.0657 -0.06958,-0.063 -0.0019,0.003 -0.02676,0.0377 -0.05522,0.0778 -0.156174,0.22018 -0.424907,0.50957 -0.628594,0.67693 -0.537377,0.44152 -1.217096,0.73523 -1.917333,0.82848 -0.153333,0.0204 -0.593531,0.0361 -0.702874,0.0251 z m 0.588098,-0.27737 c 0.434214,-0.0485 0.77396,-0.14792 1.176396,-0.34424 0.488116,-0.23812 0.906421,-0.57785 1.211065,-0.98359 0.160968,-0.21439 0.15728,-0.19181 0.04799,-0.29379 -0.276947,-0.2584 -0.607594,-0.5103 -0.912694,-0.69531 -1.269847,-0.77002 -2.487705,-0.77002 -3.757551,0 -0.305101,0.18501 -0.635748,0.43691 -0.912695,0.69531 -0.109288,0.10198 -0.112976,0.0794 0.04799,0.29379 0.480817,0.64037 1.252213,1.11594 2.07905,1.28173 0.323219,0.0648 0.700439,0.0819 1.020445,0.0461 z m -0.526247,-0.39269 c -0.112154,-0.0186 -0.266107,-0.0748 -0.366872,-0.13392 -0.120484,-0.0706 -0.304416,-0.25457 -0.375051,-0.37505 -0.09701,-0.16548 -0.166919,-0.44293 -0.14331,-0.56878 0.01808,-0.0963 0.105441,-0.13982 0.191524,-0.0953 0.04676,0.0242 0.06823,0.072 0.06823,0.15201 0,0.0895 0.0447,0.25373 0.09537,0.35047 0.05637,0.10757 0.217255,0.26846 0.324837,0.32483 0.105663,0.0554 0.263216,0.0954 0.375494,0.0954 0.112277,0 0.26983,-0.04 0.375492,-0.0954 0.107584,-0.0564 0.268474,-0.21726 0.324837,-0.32483 0.09219,-0.17597 0.117032,-0.37942 0.06918,-0.56652 -0.03818,-0.14928 -0.09723,-0.25149 -0.212067,-0.36705 -0.219709,-0.22109 -0.513067,-0.28991 -0.818788,-0.1921 -0.124617,0.0399 -0.160998,0.0361 -0.209484,-0.0214 -0.03639,-0.0433 -0.0415,-0.084 -0.01724,-0.13722 0.04491,-0.0986 0.398185,-0.17665 0.633119,-0.13994 0.241854,0.0378 0.424741,0.13094 0.598784,0.30498 0.181089,0.18109 0.2758,0.37409 0.307735,0.62709 0.02688,0.21292 -0.02583,0.4601 -0.139413,0.65384 -0.07063,0.12048 -0.254568,0.30442 -0.375052,0.37505 -0.209352,0.12274 -0.473652,0.17278 -0.70733,0.13393 z m 0.06014,-0.66634 c -0.285052,-0.0802 -0.379056,-0.44758 -0.168408,-0.65823 0.08072,-0.0807 0.157456,-0.11142 0.278497,-0.11142 0.121042,0 0.197782,0.0307 0.278498,0.11142 0.08071,0.0807 0.111416,0.15746 0.111416,0.2785 0,0.0726 -0.0075,0.1161 -0.02785,0.16112 -0.03504,0.0776 -0.122078,0.16548 -0.196396,0.19836 -0.07627,0.0337 -0.196422,0.0426 -0.27576,0.0203 z m 0.197617,-0.29221 c 0.03249,-0.0325 0.04509,-0.0569 0.04509,-0.0875 0,-0.0306 -0.0126,-0.055 -0.04509,-0.0875 -0.03249,-0.0325 -0.05695,-0.0451 -0.08753,-0.0451 -0.05897,0 -0.132617,0.0736 -0.132617,0.13262 0,0.0589 0.07365,0.13262 0.132617,0.13262 0.03058,0 0.05504,-0.0126 0.08753,-0.0451 z m -0.929649,-0.49741 c -0.08451,-0.0362 -0.106861,-0.14573 -0.0428,-0.2098 0.08053,-0.0805 0.214599,-0.0248 0.214599,0.0892 0,0.0873 -0.09452,0.15367 -0.1718,0.12058 z m -0.823555,-1.47191 c -0.06059,-0.045 -0.548556,-0.53645 -0.580379,-0.58453 -0.07499,-0.11327 0.06431,-0.25257 0.177585,-0.17758 0.04807,0.0318 0.539526,0.51979 0.584525,0.58038 0.05189,0.0699 0.05115,0.1258 -0.0024,0.17934 -0.05354,0.0535 -0.109472,0.0543 -0.179339,0.002 z m 3.152014,-0.002 c -0.04681,-0.0468 -0.05393,-0.10587 -0.0191,-0.15849 0.03182,-0.0481 0.519791,-0.53952 0.580378,-0.58452 0.06987,-0.0519 0.125802,-0.0511 0.17934,0.002 0.05354,0.0535 0.05428,0.10947 0.0024,0.17934 -0.045,0.0606 -0.536453,0.54856 -0.584524,0.58038 -0.05262,0.0349 -0.111674,0.0277 -0.158487,-0.0191 z m -1.532754,-0.1171 c -0.01459,-0.006 -0.03846,-0.0247 -0.05305,-0.0409 -0.02542,-0.0283 -0.02653,-0.0481 -0.02653,-0.47868 v -0.44921 l 0.03647,-0.0364 c 0.0509,-0.0509 0.128136,-0.0509 0.179034,0 l 0.03647,0.0364 v 0.4503 0.4503 l -0.03315,0.0331 c -0.03683,0.0368 -0.09871,0.0524 -0.139248,0.035 z"
       id="path5008"
       inkscape:connector-curvature="0" />
    <path
       style="fill:#ffffff;stroke-width:0.00101265;stroke-miterlimit:4;stroke-dasharray:none"
       d="m 12.724311,284.90488 c -0.378859,-0.0528 -0.515463,-0.0807 -0.736803,-0.15067 -0.272541,-0.0862 -0.697651,-0.28668 -0.904646,-0.42673 -0.342497,-0.23171 -0.722611,-0.60479 -0.901236,-0.88455 l -0.0452,-0.0708 0.206322,-0.17994 c 0.864643,-0.7541 1.799891,-1.16541 2.649493,-1.16521 0.887582,2.1e-4 1.879312,0.44009 2.729052,1.21049 l 0.156942,0.14229 -0.125819,0.17074 c -0.161889,0.2197 -0.432839,0.48892 -0.670336,0.66605 -0.384707,0.28693 -0.975528,0.54779 -1.444608,0.63782 -0.216335,0.0416 -0.761276,0.0717 -0.913159,0.0505 z m 0.531044,-0.39969 c 0.220732,-0.0575 0.333807,-0.12243 0.496696,-0.28528 0.402743,-0.40262 0.430105,-0.99281 0.0666,-1.43642 -0.280955,-0.34288 -0.810484,-0.47701 -1.201043,-0.30425 -0.114523,0.0506 -0.123856,0.0619 -0.116085,0.14019 0.01233,0.12418 0.06884,0.14832 0.256463,0.10957 0.240281,-0.0497 0.403763,-0.0404 0.555771,0.0312 0.383661,0.18094 0.561602,0.60235 0.416549,0.9865 -0.106749,0.28271 -0.424754,0.50378 -0.724666,0.50378 -0.389503,0 -0.776991,-0.36795 -0.776991,-0.73781 0,-0.16183 -0.140514,-0.25081 -0.245724,-0.1556 -0.06142,0.0556 -0.06349,0.19178 -0.0058,0.38618 0.06472,0.21828 0.124006,0.31842 0.282195,0.47661 0.280334,0.28034 0.630286,0.38056 0.996092,0.28528 z m -0.06175,-0.67937 c 0.37039,-0.19682 0.231491,-0.75398 -0.187968,-0.75398 -0.144547,0 -0.273008,0.0711 -0.350043,0.19381 -0.06964,0.11091 -0.05986,0.3354 0.01933,0.44344 0.115696,0.15783 0.344449,0.20932 0.518678,0.11673 z m -0.889939,-0.78632 c 0.01768,-0.0177 0.03215,-0.0635 0.03215,-0.10182 0,-0.12866 -0.121037,-0.17821 -0.21893,-0.0896 -0.05559,0.0503 -0.06136,0.0968 -0.02126,0.17176 0.03144,0.0588 0.157095,0.0706 0.208041,0.0197 z"
       id="path5010"
       inkscape:connector-curvature="0" />
    <path
       style="fill:#ffffff;stroke-width:0.00101265;stroke-miterlimit:4;stroke-dasharray:none"
       d="m 12.930615,283.54856 c -0.04756,-0.0476 -0.03913,-0.11398 0.02143,-0.16879 0.05171,-0.0468 0.05546,-0.0468 0.107172,0 0.08641,0.0782 0.05368,0.20094 -0.05359,0.20094 -0.02358,0 -0.05734,-0.0145 -0.07502,-0.0321 z"
       id="path5012"
       inkscape:connector-curvature="0" />
    <path
       style="fill:#000000;stroke-width:0.0291697"
       d="m 1.359588,296.39885 c -0.1377492,-0.0682 -0.2424887,-0.19067 -0.29361,-0.34336 -0.024445,-0.073 -0.033203,-1.91571 -0.033203,-6.98814 0,-7.72609 -0.018809,-7.08648 0.2153805,-7.32068 0.2346029,-0.2346 0.00746,-0.22063 3.5857863,-0.22063 2.35158,0 3.207989,0.009 3.2927074,0.0343 0.1497714,0.0449 0.3680417,0.23912 0.4354559,0.38753 0.046974,0.10338 0.053592,0.20157 0.054152,0.8041 7.228e-4,0.78526 -0.00684,0.81595 -0.2006812,0.81595 -0.075238,0 -0.1282351,-0.0195 -0.1660704,-0.0613 -0.050606,-0.0559 -0.056391,-0.12091 -0.064825,-0.7283 l -0.00921,-0.66697 -0.08779,-0.0739 -0.087777,-0.0739 H 4.8503718 c -3.43938,0 -3.2751644,-0.009 -3.3470545,0.16635 -0.024631,0.0598 -0.031573,0.70495 -0.025987,2.41517 l 0.00759,2.33357 2.3116996,0.007 c 1.2714345,0.004 2.3116983,-0.004 2.3116983,-0.0164 0,-0.0132 -0.039385,-0.0616 -0.087504,-0.10773 -0.1377555,-0.13199 -0.098961,-0.33346 0.072501,-0.3765 0.1061638,-0.0266 0.2032501,0.035 0.4518295,0.28684 l 0.2180427,0.22091 h 0.5476594 c 0.3012147,0 0.5476618,-0.01 0.5476618,-0.0223 0,-0.0124 -0.1675433,-0.18947 -0.3723186,-0.39379 L 7.1138685,286.10562 H 6.7569457 c -0.31803,0 -0.3632796,-0.006 -0.4152618,-0.0583 -0.035641,-0.0356 -0.058344,-0.0973 -0.058344,-0.15831 0,-0.13219 0.1087763,-0.22089 0.2709007,-0.22089 h 0.1171856 l -0.1648736,-0.17286 c -0.1674326,-0.17553 -0.177947,-0.19833 -0.1461824,-0.31689 0.022467,-0.0839 0.1667608,-0.16146 0.2525863,-0.13583 0.035293,0.01 0.133088,0.0862 0.2173149,0.16823 l 0.1531414,0.14907 v -0.11905 c 0,-0.24128 0.2245464,-0.36446 0.3741212,-0.20525 0.057809,0.0616 0.06342,0.0984 0.06342,0.4161 v 0.34857 l 0.3792067,0.37836 0.3792067,0.37837 v -0.50815 -0.50814 L 7.931425,285.28724 c -0.2747671,-0.28077 -0.3020706,-0.35525 -0.1763447,-0.48098 0.095515,-0.0955 0.1967937,-0.0903 0.3183435,0.0165 l 0.1002796,0.0881 0.010077,-0.28022 c 0.00958,-0.26508 0.014543,-0.28399 0.09197,-0.35056 0.1002797,-0.0862 0.1642094,-0.0886 0.2642601,-0.01 0.073807,0.0581 0.076855,0.0719 0.076855,0.35004 0,0.15927 0.010699,0.28958 0.023711,0.28958 0.01305,0 0.061442,-0.0394 0.1075572,-0.0876 0.1319783,-0.13775 0.3334582,-0.0989 0.376491,0.0724 0.026647,0.10612 -0.034994,0.20326 -0.2868439,0.45184 l -0.2209114,0.21804 v 0.48933 c 0,0.26913 0.010077,0.48932 0.022293,0.48932 0.012316,0 0.1894702,-0.16754 0.3937915,-0.37231 l 0.3714925,-0.37233 v -0.35579 c 0,-0.32843 0.00485,-0.36035 0.063843,-0.41525 0.1506161,-0.14033 0.3445349,-0.0343 0.3445349,0.18846 0,0.0721 0.00883,0.13127 0.019543,0.13127 0.010699,0 0.1079179,-0.0853 0.2159367,-0.18962 0.21679,-0.20928 0.324827,-0.24186 0.435425,-0.13125 0.110592,0.11059 0.07802,0.21864 -0.131263,0.43543 -0.104286,0.10798 -0.189604,0.20517 -0.189604,0.21593 0,0.0112 0.05908,0.0195 0.131263,0.0195 0.227234,0 0.332796,0.20182 0.180432,0.34497 -0.06154,0.0578 -0.09834,0.0634 -0.41609,0.0634 H 9.7098841 l -0.3714926,0.37231 c -0.2043212,0.20477 -0.3714926,0.38198 -0.3714926,0.39379 0,0.0112 0.2201948,0.0215 0.4893228,0.0215 h 0.4893227 l 0.2180426,-0.22091 c 0.248579,-0.25185 0.345671,-0.31349 0.451829,-0.28684 0.171456,0.043 0.210252,0.24451 0.0725,0.37648 -0.04813,0.0462 -0.0875,0.0945 -0.0875,0.10761 0,0.0131 0.130311,0.0236 0.289579,0.0236 0.278095,0 0.291978,0.002 0.350037,0.0769 0.07627,0.0969 0.07627,0.1577 0,0.25466 -0.05806,0.0738 -0.07194,0.0769 -0.350037,0.0769 -0.159268,0 -0.289579,0.009 -0.289579,0.018 0,0.01 0.03938,0.0629 0.0875,0.11768 0.107234,0.12216 0.11119,0.22245 0.01265,0.32099 -0.120458,0.12042 -0.217774,0.0805 -0.509114,-0.20944 L 9.942937,287.30163 H 9.4549217 c -0.2684089,0 -0.4880165,0.01 -0.4880165,0.0223 0,0.0124 0.1675445,0.18948 0.3723198,0.3938 l 0.3723186,0.37148 H 10.06635 c 0.348559,0 0.355872,8.5e-4 0.415263,0.0769 0.136671,0.17374 0.01509,0.36069 -0.234577,0.36069 h -0.09375 l 0.19439,0.20134 c 0.154557,0.16011 0.194389,0.21988 0.194389,0.29171 0,0.11905 -0.09027,0.20703 -0.212324,0.20703 -0.07899,0 -0.128354,-0.033 -0.283561,-0.18961 -0.1033526,-0.10425 -0.1981437,-0.18961 -0.2106386,-0.18961 -0.01249,0 -0.022716,0.0591 -0.022716,0.13126 0,0.15779 -0.074255,0.24796 -0.2041881,0.24796 -0.048616,0 -0.1134413,-0.0259 -0.145849,-0.0583 -0.052,-0.052 -0.058344,-0.0973 -0.058344,-0.41609 v -0.35776 l -0.3723199,-0.37149 c -0.2047753,-0.20432 -0.3819808,-0.37149 -0.3937902,-0.37149 -0.011818,0 -0.021472,0.24646 -0.021472,0.54765 v 0.54768 l 0.2209101,0.21804 c 0.2518499,0.24858 0.3134894,0.34567 0.2868451,0.45182 -0.04303,0.17146 -0.2445139,0.21025 -0.3764922,0.0724 -0.046115,-0.048 -0.094507,-0.0874 -0.1075447,-0.0874 -0.01305,0 -0.023711,1.49026 -0.023711,3.31169 0,3.61925 0.00995,3.41296 -0.1730332,3.5911 -0.1341093,0.13057 -0.2879523,0.16436 -0.6924435,0.15209 -0.5181128,-0.0157 -0.5606754,-0.0506 -0.8132207,-0.66673 l -0.1494554,-0.3646 -1.5143014,-0.0146 c -0.8328661,-0.007 -1.5382785,-0.0261 -1.5675824,-0.0404 -0.053766,-0.0261 -0.107159,-0.13108 -0.107159,-0.21073 0,-0.0238 0.03222,-0.0754 0.071593,-0.11482 l 0.071605,-0.0717 h 2.2182222 2.2182233 v -2.78874 -2.78872 l -0.1031035,0.0906 c -0.1242767,0.1091 -0.2250564,0.11507 -0.3211774,0.0189 -0.1257259,-0.12571 -0.098426,-0.20019 0.1763435,-0.48098 l 0.2479437,-0.25338 v -0.56648 -0.5665 l -0.3792067,0.37836 -0.3792067,0.37837 v 0.35266 c 0,0.33092 -0.00423,0.35659 -0.067512,0.4161 -0.1576584,0.1481 -0.3700334,0.029 -0.3700334,-0.20749 v -0.11718 l -0.1763882,0.16825 c -0.1589659,0.15162 -0.1856175,0.16646 -0.2698196,0.1502 -0.05139,-0.01 -0.1164021,-0.0457 -0.1444794,-0.0796 -0.089133,-0.10735 -0.063656,-0.19197 0.113827,-0.37805 l 0.1648745,-0.17299 H 6.5542069 c -0.237387,0 -0.3642462,-0.23163 -0.2070618,-0.37807 0.056938,-0.0531 0.1019218,-0.0595 0.4160891,-0.0595 h 0.3522502 l 0.3714926,-0.37234 c 0.2043212,-0.20477 0.3714938,-0.38197 0.3714938,-0.39379 0,-0.0112 -0.2458599,-0.0215 -0.5463556,-0.0215 H 6.7657608 l -0.2485209,0.24726 c -0.2913385,0.28988 -0.388655,0.32991 -0.5091125,0.20945 -0.1028174,-0.10288 -0.098289,-0.21915 0.012652,-0.32545 0.048131,-0.0462 0.087504,-0.0945 0.087504,-0.10774 0,-0.0132 -1.0402651,-0.0205 -2.3116996,-0.0164 l -2.3116995,0.007 -0.00746,3.82851 -0.00746,3.82853 h 0.6723354 0.6723378 l 0.071593,0.0717 c 0.039385,0.0393 0.071605,0.0972 0.071605,0.12853 0,0.0955 -0.3678514,0.97071 -0.4527787,1.07715 -0.1330594,0.16676 -0.268078,0.20901 -0.6702553,0.20972 -0.2990415,5.3e-4 -0.368293,-0.009 -0.4753576,-0.0615 z m 0.8226517,-0.4411 c 0.038452,-0.0596 0.2215159,-0.50014 0.2215159,-0.5331 0,-0.007 -0.2100213,-0.0138 -0.4667154,-0.0138 H 1.4703249 v 0.24985 c 0,0.36393 -0.00123,0.36271 0.3649752,0.36271 0.2838682,0 0.3074646,-0.004 0.3469396,-0.0656 z m 5.9621147,0.0306 c 0.022206,-0.0221 0.035006,-0.13418 0.035006,-0.30627 V 295.4108 H 7.7140549 7.2487515 l 0.118293,0.28439 c 0.065062,0.15643 0.1333367,0.29406 0.1517282,0.30584 0.057274,0.0367 0.5869402,0.026 0.6255854,-0.0127 z m -5.5218259,-4.6359 c -0.1216518,-0.068 -0.131263,-0.10848 -0.131263,-0.55245 v -0.42844 l -0.088685,-0.0367 c -0.1171111,-0.0485 -0.2727741,-0.23361 -0.3150133,-0.3746 -0.021845,-0.0729 -0.03385,-0.37636 -0.03385,-0.85549 v -0.7425 l 0.080214,-0.15819 c 0.1052433,-0.20755 0.2598016,-0.31615 0.4826486,-0.33915 0.2187891,-0.0226 0.388283,0.0425 0.5403272,0.20745 0.1690249,0.18337 0.1876005,0.3039 0.1756754,1.13992 -0.00958,0.66965 -0.013037,0.70626 -0.080015,0.84233 -0.043851,0.0891 -0.1174471,0.17568 -0.1968958,0.23169 L 2.9288,290.37572 v 0.42869 c 0,0.36586 -0.00746,0.43755 -0.051054,0.48903 -0.063706,0.0754 -0.1785963,0.10189 -0.2552348,0.059 z m 0.1779445,-1.41867 c 0.086471,-0.0577 0.099173,-0.16247 0.099173,-0.81775 0,-0.63252 -0.00323,-0.67306 -0.060459,-0.74575 -0.073969,-0.094 -0.2056436,-0.1025 -0.2895808,-0.0185 -0.055135,0.0551 -0.058344,0.0973 -0.058344,0.76651 0,0.79477 0.00958,0.83821 0.1839655,0.83738 0.051228,-2e-4 0.1075944,-0.01 0.1252432,-0.0219 z m -0.2362836,-3.88389 c -0.2255913,-0.0566 -0.4252251,-0.23637 -0.4795461,-0.43198 -0.017665,-0.0637 -0.030665,-0.42619 -0.030764,-0.85797 l -1.642e-4,-0.7478 0.081508,-0.15601 c 0.2042938,-0.39107 0.6941254,-0.46068 1.0024036,-0.14248 0.1894404,0.19554 0.2064074,0.29804 0.1945246,1.17518 -0.00896,0.66601 -0.013311,0.71339 -0.074927,0.82869 -0.1317917,0.24658 -0.4418949,0.39531 -0.6930406,0.33237 z m 0.277112,-0.48673 c 0.036002,-0.0352 0.045294,-0.16819 0.05246,-0.75076 0.00846,-0.68404 0.00659,-0.7106 -0.053169,-0.7866 -0.075375,-0.0958 -0.2063353,-0.10499 -0.2909927,-0.0203 -0.055222,0.0552 -0.058344,0.0973 -0.058344,0.78547 v 0.72712 l 0.078957,0.0621 c 0.085625,0.0674 0.1916721,0.0607 0.2710823,-0.017 z"
       id="path5079"
       inkscape:connector-curvature="0" />
    <path
       style="fill:none;stroke:#000000;stroke-width:0.00262186;stroke-linecap:butt;stroke-linejoin:miter;stroke-miterlimit:4;stroke-dasharray:none;stroke-opacity:1"
       d="m 2.8147828,294.97321 0.9281275,2e-5"
       id="path5081"
       inkscape:connector-curvature="0" />
    <path
       style="fill:none;stroke:#000000;stroke-width:0.00262186;stroke-linecap:butt;stroke-linejoin:miter;stroke-miterlimit:4;stroke-dasharray:none;stroke-opacity:1"
       d="m 8.2424023,283.26358 -0.068719,1.64721"
       id="path5083"
       inkscape:connector-curvature="0"
       sodipodi:nodetypes="cc" />
    <path
       style="fill:#ffffff;stroke-width:0.00093638;stroke-miterlimit:4;stroke-dasharray:none"
       d="m 1.5272122,295.96626 c -0.030478,-0.0305 -0.038925,-0.0958 -0.038925,-0.30084 v -0.2619 l 0.4397389,0.0179 c 0.2418568,0.01 0.4434935,0.0218 0.4480814,0.0264 0.012067,0.0124 -0.1599648,0.42791 -0.2060218,0.49819 -0.037146,0.0567 -0.050768,0.0592 -0.3213627,0.0592 -0.223851,0 -0.290663,-0.009 -0.3215045,-0.0389 z"
       id="path5087"
       inkscape:connector-curvature="0" />
    <path
       style="fill:#ffffff;stroke-width:0.00093638;stroke-miterlimit:4;stroke-dasharray:none"
       d="m 7.516271,295.9762 c -0.02391,-0.0299 -0.1127571,-0.22548 -0.2146055,-0.4727 l -0.038278,-0.0929 h 0.4607852 0.4607851 l -0.014505,0.27505 c -0.00796,0.1513 -0.021695,0.28229 -0.030478,0.29113 -0.00883,0.009 -0.1467571,0.0198 -0.3066087,0.0242 -0.2198664,0.006 -0.2970784,1.5e-4 -0.3170896,-0.0247 z"
       id="path5089"
       inkscape:connector-curvature="0" />
    <path
       style="fill:#ffffff;stroke-width:0.00093638;stroke-miterlimit:4;stroke-dasharray:none"
       d="m 1.4882797,291.15306 v -3.81159 l 1.6460881,-0.0179 c 1.4784752,-0.0162 2.9372937,-0.001 2.9372937,0.0294 0,0.006 -0.033451,0.0498 -0.07433,0.0963 -0.097904,0.11147 -0.098513,0.2112 -0.00187,0.30782 0.039895,0.0398 0.099172,0.0724 0.1320144,0.0724 0.086172,0 0.2519568,-0.11905 0.4638715,-0.33317 l 0.1851921,-0.18711 0.4713468,0.002 c 0.2592393,8.4e-4 0.4966188,0.01 0.5275101,0.0187 0.050594,0.0144 0.019867,0.0523 -0.3096889,0.38012 l -0.3658522,0.364 -0.3552496,0.007 c -0.3545442,0.007 -0.3553677,0.007 -0.4149807,0.0771 -0.1249944,0.14547 -0.030515,0.33953 0.1828447,0.37557 l 0.1037504,0.0175 -0.1360039,0.16031 c -0.1749601,0.20623 -0.1862221,0.34041 -0.035131,0.41855 0.1206565,0.0623 0.1828546,0.045 0.349017,-0.0977 l 0.1559678,-0.13389 0.02906,0.11445 c 0.031287,0.12328 0.1276367,0.22764 0.2100437,0.22764 0.080935,0 0.1960423,-0.0723 0.2214276,-0.13907 0.013037,-0.0343 0.023711,-0.2039 0.023711,-0.37693 v -0.31459 l 0.3716257,-0.371 0.3716257,-0.371 v 0.54551 0.54553 l -0.1513948,0.14787 c -0.3355743,0.32777 -0.3992378,0.45511 -0.2942545,0.58858 0.09498,0.12079 0.2292599,0.11109 0.3775173,-0.0271 l 0.068135,-0.0636 v 2.77944 2.77945 H 4.832938 1.488308 Z m 1.3638073,0.17367 c 0.071518,-0.058 0.093711,-0.20612 0.096112,-0.64198 9.989e-4,-0.18054 0.011445,-0.32827 0.023101,-0.32827 0.056739,0 0.2498632,-0.20869 0.3029103,-0.32732 0.057461,-0.12851 0.058593,-0.14568 0.05919,-0.89904 5.535e-4,-0.72793 -0.00211,-0.77385 -0.051204,-0.87951 C 3.1661675,288.001 2.952959,287.8542 2.7064621,287.8542 c -0.2819686,0 -0.4571302,0.1096 -0.59816,0.37416 l -0.08259,0.15497 0.014542,0.76249 c 0.012925,0.67694 0.019854,0.77444 0.061827,0.86889 0.063867,0.14372 0.1658502,0.25974 0.2791559,0.31754 l 0.093923,0.0479 0.00821,0.43216 c 0.00796,0.41782 0.010201,0.4343 0.068309,0.49606 0.073434,0.0781 0.2158196,0.0868 0.3003563,0.0184 z"
       id="path5091"
       inkscape:connector-curvature="0" />
    <path
       style="fill:#ffffff;stroke-width:0.00093638;stroke-miterlimit:4;stroke-dasharray:none"
       d="m 6.591317,286.69926 c -0.2069897,-0.2109 -0.3760046,-0.33155 -0.4644749,-0.33155 -0.032718,0 -0.092617,0.0336 -0.1344663,0.0755 -0.064738,0.0648 -0.073409,0.0882 -0.060956,0.16491 0.00796,0.0491 0.042806,0.11893 0.077377,0.15505 0.034571,0.0361 0.062872,0.0734 0.062872,0.0829 0,0.01 -1.0316366,0.0173 -2.2925232,0.0173 H 1.4866214 l 0.00709,-2.35982 c 0.00386,-1.30442 0.016844,-2.38005 0.028985,-2.40507 0.012067,-0.0249 0.051104,-0.0583 0.086708,-0.0744 0.04818,-0.0217 0.8761888,-0.0309 3.2366709,-0.0361 l 3.1719178,-0.006 0.073621,0.0768 0.073621,0.0768 0.018138,0.64877 c 0.00995,0.35682 0.021136,0.68777 0.024781,0.73547 0.011196,0.14603 -0.035031,1.28028 -0.053368,1.30994 -0.011694,0.0189 -0.044324,0.007 -0.1011007,-0.0341 -0.1133543,-0.0836 -0.2201451,-0.081 -0.3049978,0.007 -0.1165264,0.12166 -0.095179,0.19102 0.1398367,0.45462 0.1135284,0.12735 0.2250116,0.24684 0.2477497,0.26554 0.036051,0.0296 0.041351,0.0963 0.041351,0.51997 v 0.48596 l -0.369379,-0.36876 -0.3693803,-0.36878 -0.00846,-0.35776 c -0.00846,-0.35686 -0.00858,-0.35792 -0.07795,-0.41753 -0.1450429,-0.1247 -0.3448671,-0.0275 -0.378734,0.18436 l -0.01611,0.10077 -0.1594411,-0.13526 c -0.1840165,-0.15612 -0.2597431,-0.17038 -0.3776952,-0.0712 -0.1205695,0.10138 -0.1064624,0.19465 0.058506,0.38631 l 0.1347338,0.15654 -0.1100203,0.0214 c -0.2071937,0.0401 -0.2972177,0.23659 -0.1740395,0.37994 0.059613,0.0694 0.060434,0.0695 0.4149819,0.0771 l 0.3552495,0.007 0.3659033,0.36401 0.3659045,0.36401 -0.093376,0.017 c -0.051353,0.01 -0.2887609,0.0178 -0.5275611,0.0187 l -0.4341832,0.001 z m -3.7146845,-0.65685 c 0.1459274,-0.0437 0.3227734,-0.1921 0.3940092,-0.33058 l 0.063382,-0.12316 v -0.7563 c 0,-0.84042 -0.011445,-0.92376 -0.1488844,-1.08433 -0.044598,-0.0521 -0.1352575,-0.12391 -0.201465,-0.15947 -0.3359673,-0.18068 -0.6773686,-0.0648 -0.8780249,0.29784 l -0.077514,0.1401 0.014182,0.77854 c 0.014045,0.77113 0.014791,0.77976 0.077539,0.908 0.1334064,0.27268 0.4647548,0.41691 0.756775,0.32941 z"
       id="path5093"
       inkscape:connector-curvature="0" />
    <path
       style="fill:#ffffff;stroke-width:0.00093638;stroke-miterlimit:4;stroke-dasharray:none"
       d="m 2.6027699,285.57813 -0.086322,-0.0463 v -0.73152 c 0,-0.6846 0.00299,-0.73486 0.047198,-0.78365 0.064328,-0.071 0.1753421,-0.0672 0.2512304,0.009 l 0.060807,0.0608 -2.774e-4,0.63907 c -3.471e-4,0.76148 -0.00647,0.81433 -0.101026,0.86321 -0.08519,0.044 -0.06847,0.045 -0.1716175,-0.01 z"
       id="path5095"
       inkscape:connector-curvature="0" />
    <path
       style="fill:#ffffff;stroke-width:0.00093638;stroke-miterlimit:4;stroke-dasharray:none"
       d="m 2.5482847,289.87956 c -0.041587,-0.0728 -0.060608,-1.35966 -0.021621,-1.46222 0.031983,-0.0841 0.138472,-0.13076 0.2169343,-0.095 0.127567,0.0582 0.1339923,0.096 0.1338841,0.79127 -1.381e-4,0.78113 -0.00933,0.82171 -0.1854795,0.82171 -0.090079,0 -0.1180814,-0.0112 -0.1437205,-0.0557 z"
       id="path5097"
       inkscape:connector-curvature="0" />
  </g>
</svg>
