<?xml version="1.0" encoding="UTF-8" standalone="no"?>
<!-- Created with Inkscape (http://www.inkscape.org/) -->

<svg
   xmlns:dc="http://purl.org/dc/elements/1.1/"
   xmlns:cc="http://creativecommons.org/ns#"
   xmlns:rdf="http://www.w3.org/1999/02/22-rdf-syntax-ns#"
   xmlns:svg="http://www.w3.org/2000/svg"
   xmlns="http://www.w3.org/2000/svg"
   xmlns:sodipodi="http://sodipodi.sourceforge.net/DTD/sodipodi-0.dtd"
   xmlns:inkscape="http://www.inkscape.org/namespaces/inkscape"
   width="64"
   height="64"
   viewBox="0 0 16.933333 16.933334"
   version="1.1"
   id="svg8"
   inkscape:version="0.92.5 (2060ec1f9f, 2020-04-08)"
   sodipodi:docname="general_cleaning_64x64.svg">
  <defs
     id="defs2" />
  <sodipodi:namedview
     id="base"
     pagecolor="#ffffff"
     bordercolor="#666666"
     borderopacity="1.0"
     inkscape:pageopacity="0.0"
     inkscape:pageshadow="2"
     inkscape:zoom="7.919596"
     inkscape:cx="52.411801"
     inkscape:cy="36.371105"
     inkscape:document-units="mm"
     inkscape:current-layer="layer1"
     showgrid="false"
     units="px"
     inkscape:window-width="1208"
     inkscape:window-height="987"
     inkscape:window-x="1992"
     inkscape:window-y="0"
     inkscape:window-maximized="1" />
  <metadata
     id="metadata5">
    <rdf:RDF>
      <cc:Work
         rdf:about="">
        <dc:format>image/svg+xml</dc:format>
        <dc:type
           rdf:resource="http://purl.org/dc/dcmitype/StillImage" />
        <dc:title></dc:title>
      </cc:Work>
    </rdf:RDF>
  </metadata>
  <g
     inkscape:label="Layer 1"
     inkscape:groupmode="layer"
     id="layer1"
     transform="translate(0,-280.06665)">
    <path
       style="fill:#000000;stroke-width:0.03301246"
       d="m 1.1613843,296.32299 c -0.18853606,-0.0498 -0.45387615,-0.32431 -0.51082815,-0.52854 -0.0524031,-0.18793 -0.0293067,-0.40255 0.0627269,-0.58295 l 0.0659601,-0.12933 -0.0733228,-0.15942 c -0.10544651,-0.22933 -0.10083682,-0.62294 0.009924,-0.85271 0.10152507,-0.21049 0.29987595,-0.40884 0.51035925,-0.51036 0.2446573,-0.11796 0.623783,-0.11636 0.8799597,0.003 0.2355004,0.11044 0.4308758,0.31024 0.5247356,0.53669 0.066264,0.1599 0.089249,0.18276 0.2506996,0.24968 0.2031478,0.0842 0.2758351,0.1684 0.2758351,0.31951 0,0.0749 -0.025337,0.12564 -0.086992,0.17422 -0.1092078,0.0859 -0.2095341,0.0866 -0.366569,0.002 -0.067753,-0.0363 -0.1723638,-0.0659 -0.2324689,-0.0659 -0.1430923,0 -0.2713407,-0.12469 -0.2713407,-0.26391 0,-0.14565 -0.1170827,-0.35515 -0.2406719,-0.43055 -0.2347993,-0.14326 -0.455688,-0.12197 -0.6494531,0.0623 -0.2142655,0.20382 -0.2206887,0.48827 -0.01655,0.73262 0.1565052,0.18731 0.1524077,0.29404 -0.017686,0.46076 -0.1594823,0.15637 -0.1758675,0.2893 -0.051011,0.41416 l 0.081022,0.081 h 1.2680295 c 1.2328421,0 1.2704415,0.002 1.35501,0.0685 0.1228768,0.0967 0.1228768,0.2947 0,0.39136 -0.084767,0.0667 -0.1194357,0.0683 -1.3617629,0.065 -0.771016,-0.002 -1.3265148,-0.0171 -1.4056925,-0.0379 z m 5.0167552,0.005 c -0.4736162,-0.0683 -1.2002271,-0.37544 -1.4637906,-0.61877 -0.1566332,-0.14469 -0.1748894,-0.2453 -0.068889,-0.38005 0.094274,-0.11989 0.2555573,-0.11701 0.4373229,0.008 0.2700986,0.18533 0.835457,0.43352 0.9875222,0.43352 0.015846,0 -0.058229,-0.0723 -0.1645257,-0.16083 -0.3321533,-0.27642 -0.6684921,-0.70125 -0.6684921,-0.84437 0,-0.0941 0.088384,-0.21384 0.1848995,-0.25054 0.1224607,-0.0466 0.2259625,0.0128 0.3740566,0.2128 0.3755211,0.50831 0.9678606,0.90825 1.5208289,1.02684 l 0.1155462,0.0248 -0.1650618,-0.13076 c -0.3281551,-0.26 -0.709768,-0.73776 -0.709768,-0.88858 0,-0.0413 0.034797,-0.11541 0.077308,-0.16491 0.1104884,-0.12853 0.2677138,-0.12357 0.381781,0.0112 0.047089,0.0559 0.1524717,0.18181 0.2341751,0.27988 0.3942768,0.47323 1.0232185,0.83427 1.5776401,0.90566 l 0.1555128,0.02 -0.1485502,-0.109 c -0.6608509,-0.48474 -1.0785875,-1.31748 -1.0923461,-2.17755 -0.00192,-0.11796 -0.020568,-0.29629 -0.041519,-0.39616 l -0.038078,-0.18156 -0.486933,-0.01 -0.4869346,-0.01 v 0.316 c 0,0.2915 -0.00624,0.32229 -0.081022,0.39704 -0.051075,0.0511 -0.1187473,0.081 -0.18307,0.081 -0.064328,0 -0.1319842,-0.0299 -0.1830685,-0.081 -0.074715,-0.0747 -0.081038,-0.10564 -0.081038,-0.39616 v -0.31511 H 5.8975474 5.6334477 v 0.31511 c 0,0.29055 -0.00624,0.32145 -0.081021,0.39616 -0.051075,0.0511 -0.1187474,0.081 -0.1830701,0.081 -0.064328,0 -0.1319842,-0.0299 -0.1830684,-0.081 -0.074715,-0.0747 -0.081038,-0.10564 -0.081038,-0.39616 v -0.31511 H 4.6134529 4.1216541 l -0.036397,0.20902 c -0.076604,0.43986 -0.010244,0.84226 0.2132315,1.29304 0.081006,0.16342 0.1471097,0.32379 0.1469016,0.35638 -6.61e-4,0.1018 -0.1500868,0.22135 -0.2765554,0.22135 -0.1391068,0 -0.2380021,-0.10564 -0.3797498,-0.40564 -0.1457493,-0.30846 -0.2042602,-0.50532 -0.2449231,-0.82408 -0.065176,-0.51092 0.056421,-1.10734 0.3125349,-1.53307 0.1300795,-0.21622 0.4374286,-0.56046 0.5996254,-0.67159 l 0.1155942,-0.0792 0.011044,-0.57883 c 0.00992,-0.51981 0.018327,-0.59263 0.08315,-0.71402 0.078365,-0.14678 0.2621966,-0.32479 0.3710187,-0.35932 l 0.068201,-0.0216 v -4.31032 c 0,-3.28771 0.0096,-4.34256 0.040143,-4.4462 0.083823,-0.2837 0.4469536,-0.54854 0.7521514,-0.54854 0.3051979,0 0.6683273,0.26484 0.7521515,0.54854 0.030539,0.1034 0.040143,1.07772 0.040143,4.07029 V 289.07 l -0.081038,0.081 c -0.1072071,0.10724 -0.2589345,0.10724 -0.3661369,0 l -0.081038,-0.081 v -3.93149 -3.93148 l -0.081038,-0.081 c -0.1072072,-0.10724 -0.2589346,-0.10724 -0.3661369,0 l -0.081038,0.081 v 4.2766 4.27662 h 0.4500907 c 0.5601902,0 0.6728169,0.0312 0.8880315,0.24647 0.2199331,0.21994 0.2464756,0.32236 0.2464756,0.9511 v 0.51315 l 0.3081781,0.30834 c 0.261566,0.26169 0.3314411,0.35576 0.4619799,0.62194 0.1968303,0.40136 0.2488029,0.60928 0.2856339,1.14269 0.048162,0.69743 0.2111235,1.0814 0.6438816,1.51705 0.2457649,0.2474 0.3049769,0.28674 0.8331538,0.55348 0.3127207,0.15798 0.5838357,0.31565 0.6024757,0.35048 0.05682,0.10612 0.03817,0.23146 -0.04714,0.31677 l -0.08104,0.081 -1.9244767,-0.005 c -1.0584617,-0.002 -2.0136088,-0.0168 -2.1225494,-0.0326 z m 1.1400499,-4.02233 c -0.2772069,-0.38931 -0.9014492,-0.69299 -1.4272844,-0.69435 -0.5140245,-10e-4 -1.0968598,0.27141 -1.4084135,0.65911 l -0.106647,0.13269 h 1.5058699 1.5058715 z m -1.986948,-1.14755 c 0.1297114,-0.0394 0.3024448,-0.0565 0.5662916,-0.0565 0.2638467,0 0.4365738,0.0173 0.5662932,0.0565 0.1026615,0.031 0.195505,0.0565 0.2063281,0.0565 0.010884,0 0.019671,-0.17152 0.019671,-0.38115 0,-0.36066 -0.00432,-0.3855 -0.081022,-0.46217 -0.080381,-0.0803 -0.086143,-0.081 -0.7112693,-0.081 -0.6251243,0 -0.6308944,6.3e-4 -0.7112677,0.081 -0.076668,0.0767 -0.081038,0.10148 -0.081038,0.46217 0,0.20963 0.0088,0.38115 0.019687,0.38115 0.010884,0 0.1036698,-0.0254 0.2063281,-0.0565 z m 6.1891356,5.12119 c -0.08261,-0.0826 -0.08482,-0.0956 -0.06985,-0.40629 0.01377,-0.28429 0.02801,-0.34452 0.125326,-0.52712 0.192246,-0.36067 0.474261,-0.53114 0.922892,-0.55779 0.155033,-0.01 0.305272,-0.0288 0.33385,-0.0435 0.03987,-0.0205 0.06066,-0.12485 0.08933,-0.44828 0.02055,-0.23186 0.03246,-0.42647 0.02644,-0.43249 -0.0061,-0.006 -0.120492,-0.0411 -0.254398,-0.078 -0.549814,-0.1511 -1.318013,-0.60737 -1.649374,-0.97948 -0.44384,-0.4984 -0.614851,-1.02018 -0.471881,-1.43979 0.09328,-0.27378 0.347524,-0.32652 0.494296,-0.10259 0.04719,0.072 0.05007,0.10547 0.01825,0.21166 -0.06268,0.20919 -0.04479,0.34323 0.07883,0.59029 0.224503,0.44876 0.844466,0.9264 1.491793,1.14935 0.295314,0.10164 0.32469,0.10628 0.344772,0.0538 0.01814,-0.0474 0.261667,-2.80567 0.259372,-2.93771 -5.49e-4,-0.0315 -0.14226,-0.0413 -0.596444,-0.0413 -0.58848,0 -0.596709,-9.9e-4 -0.676754,-0.081 -0.05107,-0.0511 -0.08104,-0.11876 -0.08104,-0.18307 0,-0.0643 0.02995,-0.13205 0.08104,-0.18308 0.08024,-0.0802 0.08701,-0.081 0.697388,-0.081 h 0.616357 l -0.0209,-0.10452 c -0.0286,-0.14309 -0.158186,-0.30417 -0.297922,-0.37048 -0.147237,-0.0699 -0.217623,-0.17002 -0.217623,-0.30962 0,-0.14085 -0.124718,-0.27176 -0.258943,-0.27176 -0.152776,0 -0.240175,-0.0946 -0.271686,-0.29387 -0.0354,-0.224 -0.151976,-0.37726 -0.34221,-0.44991 -0.267211,-0.10212 -0.522584,0.006 -0.661337,0.27982 -0.120092,0.23699 -0.203219,0.28359 -0.410915,0.23035 -0.132465,-0.0339 -0.190888,-0.0339 -0.303447,-2.4e-4 -0.132416,0.0397 -0.326434,0.19382 -0.326434,0.25934 0,0.0168 0.05951,0.0573 0.13224,0.0901 0.07273,0.0328 0.148822,0.0797 0.169103,0.10404 0.02028,0.0245 0.09183,0.0445 0.158986,0.0445 0.277225,0 0.588124,0.19037 0.716583,0.43879 0.07068,0.13669 0.09181,0.40983 0.04522,0.58461 -0.0763,0.2862 -0.445812,0.5612 -0.754072,0.5612 -0.0561,0 -0.156825,0.0373 -0.223845,0.0828 -0.145109,0.0984 -0.407677,0.18142 -0.5743442,0.18142 -0.289597,0 -0.6811784,-0.19492 -0.8296758,-0.41296 -0.074075,-0.10884 -0.088176,-0.11477 -0.269484,-0.11509 l -0.1913179,-2.4e-4 0.018135,0.10724 c 0.040911,0.24212 0.4176581,3.18718 0.4227959,3.30503 0.00448,0.10244 -0.012484,0.1431 -0.085983,0.20634 -0.1147138,0.0986 -0.2249621,0.10019 -0.3334769,0.005 -0.08203,-0.0724 -0.090369,-0.12133 -0.3182923,-1.87347 -0.2287011,-1.75804 -0.236283,-1.80256 -0.3315466,-1.94708 -0.214187,-0.32495 -0.2451103,-0.72807 -0.080734,-1.05246 0.1207801,-0.23836 0.2237857,-0.34451 0.4545468,-0.46845 0.1864105,-0.10003 0.2354636,-0.11172 0.4721244,-0.1122 0.2819141,-4.9e-4 0.5445684,0.085 0.6630117,0.21594 0.097652,0.10788 0.1607467,0.0771 0.2413857,-0.11733 0.147702,-0.35637 0.5010632,-0.6039 0.9088152,-0.63663 0.18738,-0.0144 0.211254,-0.0259 0.280835,-0.12741 0.09988,-0.14581 0.336601,-0.29991 0.560526,-0.36501 0.250738,-0.0728 0.516037,-0.0407 0.767249,0.0932 0.233238,0.12436 0.335181,0.23701 0.465523,0.5146 0.05328,0.11348 0.115082,0.20633 0.137346,0.20633 0.121277,0 0.448498,0.3937 0.448498,0.53959 0,0.0259 0.03342,0.069 0.07428,0.0957 0.148566,0.0975 0.299123,0.27644 0.381494,0.45337 0.111769,0.24007 0.125358,0.52774 0.05855,1.23863 -0.04893,0.52067 -0.0488,0.5636 0.0018,0.59422 0.02999,0.0181 0.167596,0.11572 0.30579,0.21667 0.885275,0.64708 1.175476,1.55284 0.675644,2.10877 -0.241858,0.26901 -0.641646,0.42948 -1.072778,0.43062 -0.208625,4.9e-4 -0.225362,0.0216 -0.226234,0.28545 l -4.48e-4,0.13637 0.123789,-0.0442 c 0.157673,-0.0563 0.32133,-0.0562 0.479703,3.7e-4 0.105302,0.0376 0.148694,0.0373 0.2776,-0.001 0.08403,-0.0253 0.207145,-0.0459 0.273592,-0.0459 0.286551,0 0.662587,0.186 0.825696,0.40841 0.07249,0.0989 0.103894,0.11396 0.26649,0.12868 0.320915,0.0291 0.557152,0.19591 0.68856,0.48621 0.134385,0.29688 0.07206,0.59259 -0.177916,0.84412 -0.231677,0.23312 -0.298938,0.2453 -1.354104,0.2453 h -0.878219 l -0.08104,-0.081 c -0.05108,-0.051 -0.08104,-0.11876 -0.08104,-0.18305 0,-0.0643 0.02995,-0.13205 0.08104,-0.18308 l 0.08104,-0.081 h 0.894337 0.894337 l 0.08104,-0.081 c 0.08789,-0.0879 0.105334,-0.2312 0.03872,-0.31797 -0.07183,-0.0936 -0.180442,-0.12917 -0.393837,-0.12917 -0.241672,0 -0.327777,-0.0458 -0.409322,-0.21761 -0.12683,-0.26727 -0.450856,-0.38147 -0.705613,-0.24869 -0.16713,0.0871 -0.253417,0.088 -0.380142,0.005 -0.155465,-0.10292 -0.253862,-0.0844 -0.451225,0.0851 -0.297855,0.25593 -0.500108,0.33594 -0.94588,0.37417 -0.223344,0.0192 -0.331385,0.044 -0.39411,0.0909 -0.122413,0.0914 -0.201905,0.2083 -0.226289,0.33279 l -0.02102,0.10724 h 0.583346 c 0.575336,0 0.584456,10e-4 0.664375,0.081 0.05107,0.0511 0.08104,0.11876 0.08104,0.18308 0,0.0643 -0.02995,0.13204 -0.08104,0.18305 l -0.08104,0.081 h -0.762254 -0.762286 z m 2.514728,-2.92273 c 0.0832,-0.0231 0.191586,-0.096 0.292995,-0.19732 0.158745,-0.15845 0.160745,-0.16316 0.146373,-0.33644 -0.02263,-0.27298 -0.136866,-0.46961 -0.459552,-0.79107 -0.159482,-0.15894 -0.3028,-0.28888 -0.318502,-0.28888 -0.01569,0 -0.0546,0.32311 -0.08645,0.71803 -0.03184,0.39491 -0.06601,0.76631 -0.0759,0.82531 l -0.01801,0.10723 0.193495,-2.5e-4 c 0.106423,-10e-5 0.252918,-0.0167 0.325546,-0.0367 z M 10.030921,290.261 c 0.04243,-0.0162 0.142292,-0.0837 0.221921,-0.1503 0.138034,-0.1154 0.152872,-0.11988 0.319097,-0.0992 0.158026,0.0197 0.182241,0.0144 0.258909,-0.0627 0.05428,-0.0543 0.08458,-0.12116 0.08458,-0.18661 0,-0.0655 -0.0303,-0.13237 -0.08458,-0.18661 -0.07662,-0.0767 -0.100933,-0.0826 -0.25848,-0.0629 -0.167847,0.021 -0.179531,0.0171 -0.33563,-0.11188 -0.2639761,-0.21814 -0.5144484,-0.22091 -0.7380852,-0.008 -0.2041354,0.1942 -0.2228542,0.49095 -0.044352,0.70309 0.1435724,0.17062 0.3825141,0.23913 0.5766182,0.16534 z m -1.228292,-0.55891 c 0,-0.1138 0.098932,-0.39277 0.1834878,-0.51736 0.1086317,-0.16009 0.073355,-0.19839 -0.1827163,-0.19839 -0.2075894,0 -0.3150286,0.0539 -0.4397766,0.2211 -0.077084,0.10324 -0.1076713,0.34017 -0.059878,0.4639 0.033644,0.0871 0.044496,0.0908 0.2669727,0.0908 0.2021811,0 0.2319039,-0.008 0.2319039,-0.06 z m -6.8007794,3.19838 c -0.3504624,-0.1066 -0.5940105,-0.4266 -0.5940105,-0.78049 0,-0.38038 0.3928699,-0.77326 0.7732568,-0.77326 0.4071759,0 0.7521066,0.31354 0.8012286,0.72831 0.060358,0.50968 -0.4914211,0.97422 -0.9804749,0.82544 z m 0.3813569,-0.57837 c 0.1637494,-0.16376 0.047713,-0.44717 -0.1830685,-0.44717 -0.1357135,0 -0.2640996,0.12837 -0.2640996,0.26409 0,0.13573 0.1283829,0.2641 0.2640996,0.2641 0.064328,0 0.1319842,-0.0299 0.1830685,-0.081 z m -1.2394671,-1.54674 c -0.16203193,-0.0511 -0.43836803,-0.33721 -0.48805178,-0.50537 -0.1457012,-0.49311 0.18142946,-0.97277 0.69990678,-1.02628 0.4520259,-0.0466 0.887849,0.39547 0.8344311,0.8465 -0.061206,0.51682 -0.5548266,0.84007 -1.0462861,0.68515 z m 0.4471682,-0.56606 c 0.1637494,-0.16376 0.047713,-0.44718 -0.1830685,-0.44718 -0.1357135,0 -0.2640997,0.12837 -0.2640997,0.2641 0,0.13573 0.1283829,0.26411 0.2640997,0.26411 0.064328,0 0.1319842,-0.0299 0.1830685,-0.081 z m 13.8142144,-0.22623 c -0.162034,-0.0511 -0.438368,-0.33723 -0.488052,-0.50539 -0.145701,-0.49309 0.181429,-0.97275 0.699907,-1.02627 0.452025,-0.0466 0.887849,0.39548 0.834431,0.84651 -0.06121,0.51682 -0.554827,0.84005 -1.046286,0.68515 z m 0.447168,-0.56608 c 0.05107,-0.0511 0.08104,-0.11876 0.08104,-0.18306 0,-0.0643 -0.02995,-0.13205 -0.08104,-0.18307 -0.05108,-0.0511 -0.118748,-0.081 -0.183069,-0.081 -0.06433,0 -0.131984,0.0299 -0.183068,0.081 -0.05107,0.0511 -0.08104,0.11876 -0.08104,0.18307 0,0.0644 0.02995,0.13205 0.08104,0.18306 0.05107,0.0511 0.118747,0.081 0.183068,0.081 0.06431,0 0.131984,-0.0299 0.183069,-0.081 z m -2.031766,-1.28263 c -0.162034,-0.0511 -0.438368,-0.33721 -0.488054,-0.50537 -0.145685,-0.4931 0.181431,-0.97277 0.699909,-1.02627 0.452026,-0.0467 0.887849,0.39547 0.834431,0.8465 -0.06121,0.51681 -0.554827,0.84005 -1.046286,0.68514 z m 0.447168,-0.56606 c 0.163748,-0.16376 0.04771,-0.44717 -0.183069,-0.44717 -0.135713,0 -0.264099,0.12837 -0.264099,0.26409 0,0.13573 0.128383,0.2641 0.264099,0.2641 0.06431,0 0.131985,-0.0299 0.183069,-0.081 z"
       id="path7319"
       inkscape:connector-curvature="0" />
    <path
       style="fill:none;stroke:#000000;stroke-width:0.00249542;stroke-linecap:butt;stroke-linejoin:miter;stroke-miterlimit:4;stroke-dasharray:none;stroke-opacity:1"
       d="m 6.1616326,289.07164 0.050899,1.10383"
       id="path7321"
       inkscape:connector-curvature="0" />
    <path
       style="fill:none;stroke:#000000;stroke-width:0.00249542;stroke-linecap:butt;stroke-linejoin:miter;stroke-miterlimit:4;stroke-dasharray:none;stroke-opacity:1"
       d="M 4.2783705,294.71074 5.078714,295.5111"
       id="path7323"
       inkscape:connector-curvature="0" />
    <path
       style="fill:none;stroke:#000000;stroke-width:0.00249542;stroke-linecap:butt;stroke-linejoin:miter;stroke-miterlimit:4;stroke-dasharray:none;stroke-opacity:1"
       d="m 3.0111622,294.77744 0.7336471,1.20051"
       id="path7325"
       inkscape:connector-curvature="0" />
    <path
       style="fill:#ffffff;stroke:#000000;stroke-width:0.00249542;stroke-linecap:butt;stroke-linejoin:miter;stroke-miterlimit:4;stroke-dasharray:none;stroke-opacity:1"
       d="m 13.130262,296.36443 h 0.852323"
       id="path7329"
       inkscape:connector-curvature="0" />
    <path
       style="fill:none;stroke:#000000;stroke-width:0.00249542;stroke-linecap:butt;stroke-linejoin:miter;stroke-miterlimit:4;stroke-dasharray:none;stroke-opacity:1"
       d="m 8.7469527,293.8437 4.0684093,0.0333 0.700702,-0.4838"
       id="path7331"
       inkscape:connector-curvature="0" />
    <path
       style="fill:#ffffff;stroke-width:0.00252076;stroke-miterlimit:4;stroke-dasharray:none"
       d="m 1.2283096,295.72519 c -0.096451,-0.1226 -0.087936,-0.17233 0.064279,-0.3749 0.073371,-0.0976 0.1333927,-0.20198 0.1333927,-0.23188 0,-0.0299 -0.056229,-0.14469 -0.1249416,-0.2551 -0.2054238,-0.33004 -0.1655229,-0.57853 0.1246055,-0.77598 0.2870937,-0.1954 0.6950458,0.0199 0.7556247,0.39869 0.029467,0.18432 0.1174829,0.28032 0.280925,0.30646 0.075884,0.0128 0.1826939,0.0451 0.2373731,0.0735 0.055012,0.0285 0.1591461,0.0471 0.23317,0.0418 l 0.1337608,-0.01 0.2802687,0.4575 0.2802688,0.45751 H 2.4622401 1.2974436 Z"
       id="path7333"
       inkscape:connector-curvature="0" />
    <path
       style="fill:#ffffff;stroke-width:0.00252076;stroke-miterlimit:4;stroke-dasharray:none"
       d="m 2.0320447,292.30108 c -0.1265743,-0.13477 -0.083327,-0.31615 0.092754,-0.38907 0.085999,-0.0357 0.1138976,-0.0335 0.1864793,0.0144 0.109416,0.0717 0.14783,0.17731 0.1070311,0.29435 -0.059126,0.16961 -0.2627648,0.21216 -0.3862707,0.0807 z"
       id="path7335"
       inkscape:connector-curvature="0" />
    <path
       style="fill:#ffffff;stroke-width:0.00252076;stroke-miterlimit:4;stroke-dasharray:none"
       d="m 1.241047,290.19551 c -0.045024,-0.045 -0.081854,-0.12069 -0.081854,-0.16826 0,-0.1074 0.1376343,-0.2501 0.2411713,-0.2501 0.1762996,0 0.3007674,0.19283 0.2210551,0.34249 -0.092386,0.17345 -0.2511237,0.20511 -0.3803725,0.0759 z"
       id="path7337"
       inkscape:connector-curvature="0" />
    <path
       style="fill:#ffffff;stroke-width:0.00252076;stroke-miterlimit:4;stroke-dasharray:none"
       d="m 5.6611235,285.46247 v -4.28134 l 0.08219,-0.0538 c 0.1113366,-0.073 0.2246756,-0.0677 0.3301525,0.016 l 0.087872,0.0691 v 4.26607 4.26607 H 5.9112324 5.6611251 Z"
       id="path7339"
       inkscape:connector-curvature="0" />
    <path
       style="fill:#ffffff;stroke-width:0.00252076;stroke-miterlimit:4;stroke-dasharray:none"
       d="m 5.1275606,290.81722 c 0,-0.35814 0.0024,-0.37018 0.087872,-0.43741 0.081582,-0.0642 0.1312799,-0.0691 0.6944856,-0.0691 0.7733544,0 0.7516377,-0.0144 0.7516377,0.51459 v 0.36022 l -0.091698,-0.0206 c -0.050434,-0.0112 -0.2230126,-0.0387 -0.3834984,-0.0607 -0.2789691,-0.0381 -0.6256141,-0.0165 -0.9670796,0.0607 l -0.091714,0.0206 z"
       id="path7341"
       inkscape:connector-curvature="0" />
    <path
       style="fill:#ffffff;stroke-width:0.00252076;stroke-miterlimit:4;stroke-dasharray:none"
       d="m 4.5130034,292.2614 c 0.2607416,-0.34186 0.8688069,-0.62071 1.3562585,-0.62199 0.3015453,-7.8e-4 0.5079406,0.0482 0.816162,0.19335 0.2218778,0.10452 0.6430796,0.44235 0.6430796,0.51574 0,0.017 -0.6232164,0.0298 -1.4523175,0.0298 H 4.4238669 Z"
       id="path7343"
       inkscape:connector-curvature="0" />
    <path
       style="fill:#ffffff;stroke-width:0.00252076;stroke-miterlimit:4;stroke-dasharray:none"
       d="m 8.5957135,295.72734 c -0.489494,-0.12805 -1.0315255,-0.49047 -1.4080582,-0.94131 -0.123325,-0.14757 -0.2557318,-0.27847 -0.2942499,-0.2907 -0.1767525,-0.0562 -0.3941711,0.17018 -0.3287792,0.34218 0.056725,0.14917 0.2429655,0.39086 0.4884039,0.63375 0.2657003,0.26293 0.2546066,0.29334 -0.05983,0.16396 -0.3719422,-0.15301 -0.6086495,-0.32577 -1.0197036,-0.74421 -0.2739224,-0.27883 -0.4282316,-0.41186 -0.477768,-0.41186 -0.098932,0 -0.2681235,0.17485 -0.2681235,0.27709 0,0.12629 0.2368048,0.45243 0.5359973,0.73827 0.1740155,0.16626 0.2425093,0.24984 0.1922894,0.23463 -0.1950184,-0.0591 -0.573888,-0.23117 -0.7730215,-0.35126 -0.1201078,-0.0725 -0.2428391,-0.13173 -0.2727172,-0.13173 -0.073947,0 -0.4495433,-0.36285 -0.4495433,-0.43429 0,-0.0315 -0.066504,-0.20733 -0.147798,-0.39068 -0.2360574,-0.5324 -0.284752,-0.86995 -0.1972976,-1.36764 l 0.019047,-0.10836 h 0.4798296 0.4798296 v 0.30271 c 0,0.29274 0.00336,0.30601 0.1013811,0.40406 0.085215,0.0851 0.1184272,0.098 0.2083064,0.08 0.1923711,-0.0384 0.2309484,-0.1106 0.2495888,-0.46705 l 0.016726,-0.31971 H 5.915786 6.1613493 v 0.2974 c 0,0.35347 0.011204,0.38973 0.1410275,0.45687 0.1179791,0.061 0.2312733,0.0399 0.3249203,-0.0607 0.057893,-0.0621 0.067625,-0.11732 0.067625,-0.3831 v -0.31051 l 0.4418557,5.1e-4 c 0.24302,3e-4 0.4618247,0.0128 0.486232,0.0286 0.042896,0.0272 0.05919,0.12756 0.1360977,0.83787 0.0763,0.7048 0.4397685,1.39477 0.9565012,1.81569 0.2023635,0.16484 0.1850276,0.17923 -0.1198677,0.0994 z"
       id="path7345"
       inkscape:connector-curvature="0" />
    <path
       style="fill:#ffffff;stroke-width:0.00252076;stroke-miterlimit:4;stroke-dasharray:none"
       d="m 9.0172002,293.7872 c 0.013445,-0.0523 -0.3085735,-2.69901 -0.3885787,-3.19304 -0.047505,-0.29335 -0.051939,-0.28346 0.1268783,-0.28346 0.1459733,0 0.1726583,0.0128 0.3084662,0.15286 0.2868408,0.29495 0.6633543,0.41929 1.004785,0.33181 0.106326,-0.0272 0.264823,-0.0853 0.352224,-0.129 0.08741,-0.0437 0.224266,-0.0895 0.304142,-0.1018 0.18269,-0.0282 0.306303,-0.0917 0.475853,-0.24492 0.196064,-0.17714 0.242406,-0.28603 0.241141,-0.56658 -9.34e-4,-0.20727 -0.01473,-0.26302 -0.09938,-0.40017 -0.119868,-0.19435 -0.380192,-0.36079 -0.6147,-0.39304 -0.09043,-0.0128 -0.248089,-0.0679 -0.350332,-0.12325 l -0.185899,-0.10068 0.07733,-0.0827 c 0.14346,-0.15365 0.249191,-0.18674 0.51808,-0.16238 0.239852,0.0218 0.246938,0.0202 0.335654,-0.0746 0.04984,-0.0533 0.120636,-0.1471 0.157321,-0.20867 0.255485,-0.42849 0.848852,-0.29995 0.933699,0.20225 0.03014,0.17837 0.13088,0.30033 0.248065,0.30033 0.148071,0 0.261632,0.11252 0.287451,0.28463 0.02241,0.14934 0.05655,0.19063 0.298781,0.36087 0.102181,0.0719 0.215884,0.24544 0.216063,0.32991 9.9e-5,0.0533 -0.04915,0.0584 -0.568977,0.0584 -0.5734,0 -0.667721,0.0163 -0.755406,0.13044 -0.07078,0.0922 -0.05056,0.25069 0.04322,0.3389 0.08317,0.0783 0.104902,0.0812 0.666952,0.0914 l 0.58099,0.0112 -2.32e-4,0.13957 c -2.3e-4,0.12981 -0.114138,1.47281 -0.205128,2.4182 l -0.03957,0.41114 -0.111449,-0.021 c -0.171995,-0.0323 -0.555155,-0.19692 -0.803306,-0.34519 -0.436614,-0.2609 -0.751327,-0.58122 -0.917072,-0.93343 -0.100341,-0.21323 -0.105703,-0.29461 -0.03819,-0.58042 0.01713,-0.0725 0.0012,-0.11076 -0.07976,-0.19175 -0.128959,-0.12901 -0.247996,-0.13125 -0.371972,-0.008 -0.285428,0.28544 -0.158442,0.96351 0.283657,1.51472 0.29292,0.36522 1.033377,0.84141 1.616065,1.03932 l 0.250108,0.085 -1.906029,8.5e-4 c -1.7990139,8.2e-4 -1.9051838,-0.003 -1.8909578,-0.0575 z"
       id="path7347"
       inkscape:connector-curvature="0" />
    <path
       style="fill:#ffffff;stroke-width:0.00252076;stroke-miterlimit:4;stroke-dasharray:none"
       d="m 9.6386415,290.20935 c -0.3371599,-0.1712 -0.3751066,-0.59212 -0.07606,-0.84375 0.1997081,-0.16804 0.3965688,-0.14645 0.7039855,0.0772 0.131616,0.0957 0.162816,0.10452 0.305321,0.086 0.139635,-0.0182 0.168709,-0.0112 0.24177,0.0623 0.106519,0.1066 0.105862,0.23301 -0.0018,0.34063 -0.0751,0.0751 -0.102741,0.0823 -0.241887,0.0632 -0.146581,-0.0202 -0.170091,-0.0128 -0.35103,0.11732 -0.2397311,0.17166 -0.3856452,0.19612 -0.5803531,0.0973 z"
       id="path7349"
       inkscape:connector-curvature="0" />
    <path
       style="fill:#ffffff;stroke-width:0.00252076;stroke-miterlimit:4;stroke-dasharray:none"
       d="m 8.3309304,289.68084 c -0.08267,-0.15446 -0.014886,-0.42185 0.1442286,-0.56856 0.067529,-0.0623 0.1353615,-0.0847 0.290234,-0.0959 0.1111606,-0.008 0.2162022,-5.2e-4 0.2334245,0.0167 0.019511,0.0195 -0.00624,0.10628 -0.068217,0.2305 -0.05474,0.10948 -0.1118328,0.25866 -0.1268623,0.33135 l -0.027338,0.13221 -0.2050556,0.01 c -0.1760835,0.008 -0.2100495,5.4e-4 -0.2403998,-0.0562 z"
       id="path7351"
       inkscape:connector-curvature="0" />
    <path
       style="fill:#ffffff;stroke-width:0.00252076;stroke-miterlimit:4;stroke-dasharray:none"
       d="m 13.245815,296.27251 c 0.08003,-0.11428 0.06553,-0.26827 -0.03408,-0.36192 -0.08288,-0.0779 -0.106391,-0.0813 -0.650279,-0.092 -0.613601,-0.0128 -0.614464,-0.0128 -0.51744,-0.19892 0.10351,-0.19893 0.188696,-0.24183 0.608504,-0.30633 0.464481,-0.0714 0.552874,-0.10548 0.85818,-0.33104 0.242161,-0.17889 0.341143,-0.20319 0.487321,-0.11956 0.108471,0.0619 0.229937,0.0619 0.378352,0 0.244957,-0.10228 0.501833,-0.0359 0.643527,0.16651 0.179499,0.25638 0.187756,0.26155 0.459494,0.2875 0.315136,0.0301 0.419441,0.0896 0.419441,0.23965 0,0.0597 -0.02335,0.14181 -0.05191,0.18264 -0.05149,0.0735 -0.05937,0.0741 -0.961268,0.0741 -0.900052,0 -0.910071,7.7e-4 -0.979391,0.0751 -0.112809,0.12084 -0.128623,0.24796 -0.04493,0.36117 l 0.07198,0.0973 h -0.369714 -0.369713 z"
       id="path7353"
       inkscape:connector-curvature="0" />
    <path
       style="fill:#ffffff;stroke-width:0.00252076;stroke-miterlimit:4;stroke-dasharray:none"
       d="m 13.928768,287.54542 c -0.118971,-0.11892 -0.123549,-0.21296 -0.01569,-0.32089 0.111385,-0.1114 0.258895,-0.10884 0.349245,0.006 0.112217,0.14261 0.07902,0.28508 -0.08709,0.37354 -0.106695,0.0568 -0.138627,0.0493 -0.246527,-0.0587 z"
       id="path7355"
       inkscape:connector-curvature="0" />
    <path
       style="fill:#ffffff;stroke-width:0.00252076;stroke-miterlimit:4;stroke-dasharray:none"
       d="m 15.504483,289.39984 c -0.08421,-0.0896 -0.09333,-0.21174 -0.02326,-0.31176 0.151367,-0.21611 0.505209,-0.0277 0.412056,0.21949 -0.06658,0.17661 -0.265253,0.22376 -0.388791,0.0922 z"
       id="path7357"
       inkscape:connector-curvature="0" />
  </g>
</svg>
