<?xml version="1.0" encoding="UTF-8" standalone="no"?>
<!-- Created with Inkscape (http://www.inkscape.org/) -->

<svg
   xmlns:dc="http://purl.org/dc/elements/1.1/"
   xmlns:cc="http://creativecommons.org/ns#"
   xmlns:rdf="http://www.w3.org/1999/02/22-rdf-syntax-ns#"
   xmlns:svg="http://www.w3.org/2000/svg"
   xmlns="http://www.w3.org/2000/svg"
   xmlns:sodipodi="http://sodipodi.sourceforge.net/DTD/sodipodi-0.dtd"
   xmlns:inkscape="http://www.inkscape.org/namespaces/inkscape"
   width="64"
   height="64"
   viewBox="0 0 16.933333 16.933334"
   version="1.1"
   id="svg8"
   inkscape:version="0.92.5 (2060ec1f9f, 2020-04-08)"
   sodipodi:docname="getting_dressed_64x64.svg">
  <defs
     id="defs2" />
  <sodipodi:namedview
     id="base"
     pagecolor="#ffffff"
     bordercolor="#666666"
     borderopacity="1.0"
     inkscape:pageopacity="0.0"
     inkscape:pageshadow="2"
     inkscape:zoom="5.6"
     inkscape:cx="71.669033"
     inkscape:cy="51.371941"
     inkscape:document-units="mm"
     inkscape:current-layer="layer1"
     showgrid="false"
     units="px"
     inkscape:window-width="1208"
     inkscape:window-height="987"
     inkscape:window-x="1992"
     inkscape:window-y="0"
     inkscape:window-maximized="1" />
  <metadata
     id="metadata5">
    <rdf:RDF>
      <cc:Work
         rdf:about="">
        <dc:format>image/svg+xml</dc:format>
        <dc:type
           rdf:resource="http://purl.org/dc/dcmitype/StillImage" />
        <dc:title></dc:title>
      </cc:Work>
    </rdf:RDF>
  </metadata>
  <g
     inkscape:label="Layer 1"
     inkscape:groupmode="layer"
     id="layer1"
     transform="translate(0,-280.06665)">
    <path
       style="fill:#000000;stroke-width:0.03017988"
       d="m 3.9652778,296.22363 c -0.2479541,-0.0885 -0.4459664,-0.30905 -0.5032319,-0.56054 -0.019915,-0.0875 -0.031625,-1.19948 -0.032883,-3.12362 l -0.00192,-2.98781 -0.951797,-0.70923 C 1.9364905,288.44083 1.4471359,288.052 1.3472568,287.94597 1.2445215,287.83692 1.1256097,287.6668 1.06248,287.53855 0.85888322,287.12492 0.86186671,287.1765 0.87114636,284.23059 l 0.008337,-2.64642 0.0657728,-0.14237 c 0.0922143,-0.1996 0.31879353,-0.43045 0.51897853,-0.52877 l 0.169748,-0.0833 h 1.0267186 1.0267193 l 0.2018443,0.0993 c 0.2195226,0.10805 0.3727944,0.26242 0.483398,0.48687 l 0.068051,0.13809 0.00814,2.13473 0.00814,2.13473 0.278573,0.2157 c 0.2679523,0.20746 0.6008059,0.43863 0.9629269,0.66876 l 0.1712956,0.10886 0.1179117,-0.18682 c 0.4314137,-0.68353 1.0894391,-1.15136 1.9086171,-1.35695 0.392572,-0.0985 1.0523204,-0.09 1.4637248,0.0189 0.7562588,0.20014 1.4404448,0.70157 1.8457938,1.35277 l 0.106627,0.1713 0.170625,-0.1081 c 0.307282,-0.19468 0.769848,-0.51595 1.000571,-0.69495 l 0.226349,-0.17559 0.01509,-2.14164 0.01509,-2.14164 0.06805,-0.13809 c 0.110604,-0.22445 0.263876,-0.37882 0.483399,-0.48687 l 0.201844,-0.0993 h 1.026719 1.026719 l 0.169748,0.0833 c 0.200185,0.0983 0.426764,0.32917 0.518979,0.52878 l 0.06577,0.14236 0.0083,2.64642 c 0.0093,2.94736 0.01238,2.89411 -0.192158,3.30963 -0.06739,0.13691 -0.180227,0.29615 -0.294674,0.41587 -0.102004,0.1067 -0.606471,0.50998 -1.121039,0.89618 l -0.935576,0.70216 -0.01509,3.06187 -0.01509,3.06188 -0.07056,0.14327 c -0.03881,0.0788 -0.125271,0.19011 -0.192143,0.24734 -0.247186,0.21159 0.09031,0.19804 -4.8958908,0.19657 -3.6795345,-0.001 -4.5195954,-0.009 -4.6122063,-0.0417 z m 9.1730622,-0.54277 c 0.08263,-0.071 0.08468,-0.0803 0.08468,-0.3848 v -0.31202 H 8.5904063 3.9577943 v 0.31202 c 0,0.30448 0.00207,0.31378 0.084678,0.3848 l 0.084678,0.0728 h 4.4632568 4.4632559 z m 0.09977,-3.78434 v -2.55937 l 0.09808,-0.0925 c 0.05394,-0.0509 0.532675,-0.418 1.063841,-0.81582 0.976099,-0.73106 1.139361,-0.87369 1.251302,-1.09311 0.143831,-0.28194 0.152062,-0.38124 0.152062,-1.8345 v -1.36685 h -1.280653 -1.280654 l -0.0095,0.91294 c -0.01062,1.01704 -0.0086,1.00603 -0.226386,1.20228 -0.06332,0.057 -0.260309,0.2094 -0.437752,0.33858 l -0.322624,0.23486 0.07054,0.10396 c 0.09384,0.13827 0.148954,0.37976 0.125586,0.55025 -0.10298,0.75132 -1.108831,1.29279 -2.8254017,1.52096 -0.3793629,0.0504 -1.6179902,0.0512 -2.0220524,10e-4 -1.1888588,-0.14696 -2.0685817,-0.46274 -2.522525,-0.9055 -0.2945306,-0.28727 -0.3997353,-0.61562 -0.3034093,-0.94697 0.026565,-0.0914 0.075557,-0.20081 0.1088635,-0.24316 l 0.060557,-0.077 -0.2788224,-0.20462 c -0.4045305,-0.29687 -0.5903004,-0.45906 -0.6492999,-0.56686 -0.045355,-0.0829 -0.053263,-0.21235 -0.061578,-1.00803 l -0.00956,-0.91244 H 2.6580657 1.377412 v 1.35661 c 0,0.8895 0.011681,1.41168 0.033933,1.51654 0.043846,0.20663 0.1507973,0.41697 0.2915582,0.57339 0.061667,0.0685 0.5467073,0.45009 1.0778728,0.84792 0.5311663,0.39782 1.0098948,0.76494 1.0638409,0.81582 l 0.098085,0.0925 v 2.55937 2.55937 h 4.6477011 4.6477018 z m -7.1507381,0.91247 c -0.057051,-0.0248 -0.3020999,-0.19338 -0.5445457,-0.37472 -0.3184562,-0.23818 -0.455107,-0.35968 -0.4923173,-0.43771 -0.0448,-0.0939 -0.05151,-0.21928 -0.05151,-0.96265 0,-0.83897 0.00126,-0.85651 0.068621,-0.95646 0.037743,-0.056 0.1144459,-0.13272 0.1704523,-0.17046 0.1003821,-0.0676 0.1149008,-0.0686 1.0212887,-0.0686 0.8929033,0 0.9228898,0.002 1.0382345,0.0667 0.065329,0.0367 0.1486609,0.11481 0.1851885,0.17354 0.063502,0.1021 0.066823,0.14275 0.075727,0.92837 0.012051,1.06346 0.049039,0.97104 -0.5765015,1.44058 -0.5554425,0.41693 -0.664798,0.4611 -0.8946426,0.36138 z m 0.963862,-1.75546 v -0.7021 H 6.2816449 5.512058 v 0.70866 0.70867 l 0.3797741,0.28561 0.3797742,0.28563 0.3898128,-0.29219 0.3898128,-0.29218 z m 2.672288,-2.58566 c 1.1501771,-0.16972 2.0187201,-0.54788 2.1860261,-0.95179 0.0423,-0.10212 0.0226,-0.26223 -0.04317,-0.35093 -0.03712,-0.0501 -0.05182,-0.0527 -0.106812,-0.0191 -0.918999,0.56149 -2.0695489,0.88153 -3.1691584,0.88153 -1.09961,0 -2.2501599,-0.32004 -3.1691593,-0.88153 -0.054987,-0.0336 -0.069686,-0.031 -0.1068122,0.0191 -0.082702,0.11153 -0.088459,0.25981 -0.015432,0.39747 0.2148916,0.40507 1.1994094,0.80032 2.2803804,0.91549 0.1659892,0.0177 0.3493326,0.0378 0.4074289,0.0447 0.2229425,0.0264 1.4477613,-0.0123 1.7367111,-0.055 z M 9.340003,287.46704 c 0.5376859,-0.0798 1.483716,-0.35695 1.483716,-0.43461 0,-0.0579 -0.261113,-0.40721 -0.431984,-0.57783 -0.7698573,-0.76873 -1.9566987,-0.96256 -2.9333326,-0.47905 -0.2919585,0.14453 -0.6122501,0.39266 -0.8090011,0.62671 -0.1612103,0.19178 -0.3081727,0.42357 -0.2839231,0.44782 0.00864,0.009 0.1390476,0.0616 0.2897865,0.11761 0.3278653,0.12189 0.793261,0.24125 1.1655561,0.29891 0.3773529,0.0584 1.1270665,0.0587 1.5191822,4.5e-4 z m -5.3972965,-4.22298 v -0.37725 H 2.6600594 1.3774142 v 0.37725 0.37725 h 1.2826452 1.2826451 z m 11.8606925,0 v -0.37725 H 14.520754 13.23811 v 0.37725 0.37725 h 1.282644 1.282645 z M 3.9376867,281.99915 c -0.009,-0.31703 -0.017755,-0.36539 -0.082537,-0.45622 -0.1432614,-0.20087 -0.215155,-0.21388 -1.1855809,-0.21463 -0.5399473,-4.5e-4 -0.8976771,0.0114 -0.9506667,0.0314 -0.1156162,0.0437 -0.2496844,0.17392 -0.2999354,0.29137 -0.026069,0.0609 -0.041553,0.20994 -0.041553,0.39988 v 0.30277 h 1.2851725 1.2851729 z m 11.8657103,0.0547 c 0,-0.33154 -0.02519,-0.42803 -0.145274,-0.55647 -0.152331,-0.16292 -0.199353,-0.16987 -1.143946,-0.16916 -0.973678,7.4e-4 -1.045181,0.0137 -1.188515,0.21463 -0.06478,0.0908 -0.07353,0.13919 -0.08254,0.45622 l -0.01008,0.35461 h 1.285173 1.285173 z m -9.8966815,3.35977 c -0.051325,-0.0216 -0.1067959,-0.0747 -0.1232683,-0.118 -0.018302,-0.0482 -0.029953,-0.64195 -0.029953,-1.52695 0,-1.52601 0.0051,-1.58701 0.1371619,-1.63768 0.1049894,-0.0403 0.2289191,-0.0176 0.3018181,0.0553 l 0.074078,0.0741 v 1.50629 c 0,1.45489 -0.00207,1.50888 -0.059677,1.58217 -0.073733,0.0937 -0.177833,0.1162 -0.3001588,0.0648 z m 5.1967675,0.0257 c -0.03702,-0.006 -0.09474,-0.0462 -0.128265,-0.0888 -0.05931,-0.0754 -0.06096,-0.11825 -0.06096,-1.58379 v -1.5063 l 0.07408,-0.0741 c 0.0729,-0.0729 0.196828,-0.0956 0.301818,-0.0553 0.132196,0.0507 0.137185,0.11084 0.136716,1.64719 -3.3e-4,1.09642 -0.0097,1.47584 -0.03773,1.53099 -0.0419,0.0824 -0.184048,0.14714 -0.285662,0.1301 z m -3.7074495,-0.83148 -0.088272,-0.0759 v -1.78584 -1.78584 l 0.088272,-0.0759 c 0.071114,-0.0612 0.109243,-0.0726 0.1961695,-0.0587 0.2245804,0.0359 0.213526,-0.0635 0.213526,1.92043 0,1.98392 0.011052,1.8845 -0.213526,1.92043 -0.086926,0.0139 -0.1250527,0.002 -0.1961695,-0.0587 z m 2.1092865,0.0394 c -0.036263,-0.0147 -0.0804,-0.0536 -0.098084,-0.0867 -0.021697,-0.0405 -0.03215,-0.63368 -0.03215,-1.82424 0,-1.973 -0.010978,-1.87475 0.213526,-1.91067 0.086927,-0.0139 0.1250527,-0.002 0.1961695,0.0587 l 0.088272,0.0759 v 1.78584 1.78584 l -0.084677,0.0729 c -0.087864,0.0756 -0.1701859,0.0879 -0.2830539,0.0425 z"
       id="path168"
       inkscape:connector-curvature="0" />
    <path
       style="fill:#ffffff;stroke-width:0.00162951;stroke-miterlimit:4;stroke-dasharray:none"
       d="m 3.9671709,291.89224 v -2.56082 l -0.1408823,-0.12303 c -0.077485,-0.0677 -0.5379787,-0.42376 -1.0233171,-0.7913 C 2.3176324,288.04954 1.8408221,287.66991 1.7433924,287.57345 1.4449432,287.278 1.426722,287.17297 1.3945961,285.56296 l -0.028215,-1.41417 h 1.2751343 1.275135 l 0.014485,0.91818 c 0.01248,0.79139 0.025063,0.93432 0.091103,1.03501 0.042137,0.0643 0.2577922,0.25583 0.4792264,0.42573 l 0.4026071,0.30891 -0.090644,0.15363 c -0.064989,0.11015 -0.089707,0.22262 -0.087332,0.39741 0.00993,0.73079 0.8781065,1.28722 2.4530822,1.57224 0.3299256,0.0597 0.6588754,0.0784 1.4012084,0.0798 1.0105214,0.001 1.2672476,-0.0253 2.0263643,-0.21383 1.422262,-0.35328 2.112455,-1.06374 1.768832,-1.82076 l -0.08318,-0.18324 0.424056,-0.32114 c 0.30182,-0.22858 0.43792,-0.36092 0.472154,-0.45913 0.02665,-0.0765 0.0481,-0.41099 0.0481,-0.75037 0,-0.33681 0.01246,-0.73165 0.0277,-0.8774 l 0.0277,-0.26501 h 1.247227 1.247227 l -0.01418,1.4551 c -0.01558,1.59849 -0.01696,1.60753 -0.291354,1.92006 -0.07576,0.0863 -0.611725,0.51853 -1.191031,0.96055 l -1.053286,0.80365 v 2.58246 2.58245 H 8.6019415 3.9671738 Z m 2.5868471,0.87434 c 0.3965314,-0.23898 0.8987512,-0.65075 0.9543226,-0.78244 0.04281,-0.10145 0.058856,-0.36397 0.058856,-0.96296 0,-1.22437 0.044985,-1.18408 -1.3218676,-1.18408 H 5.2863369 l -0.1529937,0.15302 -0.1529937,0.15302 0.00436,0.89897 c 0.00355,0.72716 0.016807,0.91675 0.069523,0.99201 0.066054,0.0943 0.4987045,0.44282 0.8530802,0.68721 0.2325676,0.16037 0.4324752,0.17436 0.6467114,0.0453 z"
       id="path170"
       inkscape:connector-curvature="0" />
    <path
       style="fill:#ffffff;stroke-width:0.00162951;stroke-miterlimit:4;stroke-dasharray:none"
       d="m 7.4966101,287.38183 c -0.3913803,-0.0844 -1.0265225,-0.28375 -1.0843576,-0.34032 -0.058161,-0.0569 0.3353126,-0.54257 0.6121191,-0.75557 0.9955026,-0.76602 2.3466783,-0.72168 3.2506884,0.10668 0.298734,0.27374 0.526757,0.57335 0.486245,0.63889 -0.03663,0.0593 -0.619966,0.24786 -1.0815136,0.34964 -0.5302326,0.11692 -1.6426525,0.11727 -2.1831813,6.8e-4 z"
       id="path172"
       inkscape:connector-curvature="0" />
    <path
       style="fill:#ffffff;stroke-width:0.00162951;stroke-miterlimit:4;stroke-dasharray:none"
       d="m 7.5240859,288.45705 c -1.0517775,-0.14434 -2.0102954,-0.53768 -2.1988653,-0.90233 -0.079376,-0.1535 -0.081045,-0.21966 -0.00806,-0.31949 0.053086,-0.0726 0.082981,-0.0641 0.4850343,0.13761 0.4863733,0.24403 1.0353702,0.43756 1.5709847,0.55382 0.5197561,0.11281 1.8914817,0.11426 2.4143907,0.002 0.5393097,-0.11521 1.0847667,-0.30543 1.5889967,-0.55413 0.478925,-0.23623 0.521526,-0.23477 0.522935,0.0179 8.88e-4,0.15361 -0.231547,0.41204 -0.503623,0.56003 -0.278465,0.15146 -0.783719,0.31734 -1.29504,0.42518 -0.48666,0.10264 -2.053874,0.15058 -2.57676,0.0788 z"
       id="path174"
       inkscape:connector-curvature="0" />
    <path
       style="fill:#ffffff;stroke-width:0.00162951;stroke-miterlimit:4;stroke-dasharray:none"
       d="m 5.876803,292.02509 -0.3538586,-0.26666 -0.00185,-0.70061 -0.00185,-0.70059 h 0.7544971 0.7544972 l -0.00178,0.70059 -0.00178,0.70061 -0.3635843,0.26947 c -0.1999713,0.1482 -0.3786194,0.2682 -0.3969945,0.26666 -0.018376,-10e-4 -0.1926468,-0.1228 -0.3872695,-0.26947 z"
       id="path176"
       inkscape:connector-curvature="0" />
    <path
       style="fill:#ffffff;stroke-width:0.00162951;stroke-miterlimit:4;stroke-dasharray:none"
       d="m 4.0615291,295.65858 c -0.078261,-0.0729 -0.094358,-0.13543 -0.094358,-0.36647 v -0.27856 h 4.6132108 4.6132101 v 0.29512 c 0,0.23114 -0.01709,0.31058 -0.07884,0.36646 -0.07229,0.0654 -0.447882,0.0714 -4.5188524,0.0714 -4.4086901,0 -4.4406739,-6.2e-4 -4.5343663,-0.0879 z"
       id="path178"
       inkscape:connector-curvature="0" />
    <path
       style="fill:#ffffff;stroke-width:0.00162951;stroke-miterlimit:4;stroke-dasharray:none"
       d="m 1.3803237,283.24339 v -0.34491 h 1.2718667 1.2718668 v 0.34491 0.34492 H 2.6521904 1.3803237 Z"
       id="path180"
       inkscape:connector-curvature="0" />
    <path
       style="fill:#ffffff;stroke-width:0.00162951;stroke-miterlimit:4;stroke-dasharray:none"
       d="m 1.3984311,282.00386 c 0.055283,-0.61572 0.1376531,-0.65844 1.2631529,-0.65505 0.5079708,10e-4 0.866015,0.0216 0.9606743,0.0539 0.2082988,0.071 0.3016457,0.27035 0.3017315,0.64428 l 6.07e-5,0.29102 H 2.6462368 1.3684238 Z"
       id="path182"
       inkscape:connector-curvature="0" />
    <path
       style="fill:#ffffff;stroke-width:0.00162951;stroke-miterlimit:4;stroke-dasharray:none"
       d="m 13.252874,282.20326 c 0.01482,-0.0741 0.02695,-0.229 0.02695,-0.34423 0,-0.17054 0.02339,-0.23568 0.125784,-0.3503 l 0.125784,-0.1408 h 0.972764 0.972764 l 0.140688,0.14065 c 0.131507,0.13148 0.141707,0.16313 0.156326,0.48504 l 0.01564,0.34438 h -1.281821 -1.281821 z"
       id="path184"
       inkscape:connector-curvature="0" />
    <path
       style="fill:#ffffff;stroke-width:0.00162951;stroke-miterlimit:4;stroke-dasharray:none"
       d="m 13.236706,283.24339 v -0.34491 h 1.271867 1.271866 v 0.34491 0.34492 h -1.271866 -1.271867 z"
       id="path186"
       inkscape:connector-curvature="0" />
  </g>
</svg>
