<?xml version="1.0" encoding="UTF-8" standalone="no"?>
<!-- Created with Inkscape (http://www.inkscape.org/) -->

<svg
   xmlns:dc="http://purl.org/dc/elements/1.1/"
   xmlns:cc="http://creativecommons.org/ns#"
   xmlns:rdf="http://www.w3.org/1999/02/22-rdf-syntax-ns#"
   xmlns:svg="http://www.w3.org/2000/svg"
   xmlns="http://www.w3.org/2000/svg"
   xmlns:sodipodi="http://sodipodi.sourceforge.net/DTD/sodipodi-0.dtd"
   xmlns:inkscape="http://www.inkscape.org/namespaces/inkscape"
   width="64"
   height="64"
   viewBox="0 0 16.933333 16.933334"
   version="1.1"
   id="svg8"
   inkscape:version="0.92.5 (2060ec1f9f, 2020-04-08)"
   sodipodi:docname="glass_64x64.svg">
  <defs
     id="defs2" />
  <sodipodi:namedview
     id="base"
     pagecolor="#ffffff"
     bordercolor="#666666"
     borderopacity="1.0"
     inkscape:pageopacity="0.0"
     inkscape:pageshadow="2"
     inkscape:zoom="2.8"
     inkscape:cx="36.48158"
     inkscape:cy="-19.568525"
     inkscape:document-units="mm"
     inkscape:current-layer="layer1"
     showgrid="false"
     units="px"
     inkscape:window-width="1208"
     inkscape:window-height="987"
     inkscape:window-x="1992"
     inkscape:window-y="0"
     inkscape:window-maximized="1" />
  <metadata
     id="metadata5">
    <rdf:RDF>
      <cc:Work
         rdf:about="">
        <dc:format>image/svg+xml</dc:format>
        <dc:type
           rdf:resource="http://purl.org/dc/dcmitype/StillImage" />
        <dc:title></dc:title>
      </cc:Work>
    </rdf:RDF>
  </metadata>
  <g
     inkscape:label="Layer 1"
     inkscape:groupmode="layer"
     id="layer1"
     transform="translate(0,-280.06665)">
    <path
       style="fill:#000000;stroke-width:0.02920033"
       d="m 5.9914694,296.02925 c -0.053326,-0.0263 -0.1321668,-0.094 -0.1752024,-0.15036 -0.1024435,-0.13431 -0.1114707,-0.39415 -0.018042,-0.51929 0.1474609,-0.19751 0.1560473,-0.19958 0.8981463,-0.21632 0.6433386,-0.0145 0.6840998,-0.0188 0.8228689,-0.0869 0.1857168,-0.0911 0.3608971,-0.26604 0.4533019,-0.45264 l 0.072304,-0.146 v -1.70822 c 0,-1.68323 -8.983e-4,-1.71018 -0.06241,-1.84319 -0.1321335,-0.28576 -0.4389408,-0.53522 -0.813599,-0.6615 -0.2788469,-0.094 -0.6879591,-0.2908 -0.9344108,-0.44952 -1.0054849,-0.64755 -1.703685,-1.63987 -1.9996804,-2.84204 -0.1932898,-0.78506 -0.1901477,-1.40456 0.012665,-2.49664 0.1818228,-0.97907 0.7324447,-2.94807 0.8787131,-3.14223 0.1493977,-0.19832 -0.063919,-0.18661 3.4005304,-0.18661 3.4662236,0 3.2499486,-0.012 3.4022146,0.1877 0.07851,0.10296 0.369937,1.04103 0.599199,1.92884 0.269365,1.04313 0.437037,2.02674 0.437037,2.56378 0,0.96445 -0.335615,2.01351 -0.897575,2.80562 -0.223913,0.31563 -0.748069,0.83581 -1.073447,1.06534 -0.288957,0.20382 -0.7916,0.46044 -1.1096131,0.56649 -0.3734244,0.12453 -0.6812476,0.37454 -0.8135995,0.66077 -0.061498,0.13301 -0.06241,0.15996 -0.06241,1.84319 v 1.70822 l 0.072304,0.146 c 0.092404,0.1866 0.2675851,0.36152 0.453302,0.45264 0.1386963,0.068 0.1797231,0.0724 0.8199816,0.0869 l 0.673981,0.0153 0.103017,0.0787 c 0.211956,0.16182 0.256457,0.44442 0.101899,0.64706 -0.156159,0.20474 -0.0082,0.19417 -2.7106995,0.19343 -2.1936176,-5.3e-4 -2.4433835,-0.005 -2.5307706,-0.0485 z m 3.3321764,-6.59046 c 1.3377852,-0.34516 2.3486432,-1.45689 2.6401952,-2.90361 0.07553,-0.37482 0.06842,-1.10214 -0.0156,-1.59239 -0.117883,-0.68792 -0.34877,-1.62609 -0.653233,-2.65429 l -0.06701,-0.22629 H 8.5266514 5.8253054 l -0.067011,0.22629 c -0.3044629,1.0282 -0.5353505,1.96637 -0.6532333,2.65429 -0.084009,0.49025 -0.091134,1.21757 -0.015599,1.59239 0.242845,1.20503 0.9784764,2.17914 2.025875,2.68263 0.2575202,0.12379 0.6491809,0.24571 0.9295081,0.28933 0.3150184,0.0491 0.9568303,0.0147 1.2787986,-0.0683 z"
       id="path12699"
       inkscape:connector-curvature="0" />
    <path
       style="fill:#ffffff;stroke-width:0.00334451;stroke-miterlimit:4;stroke-dasharray:none"
       d="m 7.9008477,289.46734 c -0.7080964,-0.15892 -1.2994565,-0.49348 -1.8073499,-1.02252 -0.6332213,-0.65958 -0.9926403,-1.49296 -1.0338406,-2.39719 -0.03603,-0.79077 0.1035955,-1.57632 0.5885257,-3.31118 l 0.1834949,-0.65644 2.6960092,0.007 2.696009,0.007 0.143827,0.50144 c 0.67389,2.34948 0.781611,3.37304 0.460987,4.38027 -0.398441,1.25171 -1.402289,2.20255 -2.6046407,2.46711 -0.304319,0.067 -1.06879,0.0806 -1.3230216,0.0234 z"
       id="path12701"
       inkscape:connector-curvature="0" />
  </g>
</svg>
