<?xml version="1.0" encoding="UTF-8" standalone="no"?>
<!-- Created with Inkscape (http://www.inkscape.org/) -->

<svg
   xmlns:dc="http://purl.org/dc/elements/1.1/"
   xmlns:cc="http://creativecommons.org/ns#"
   xmlns:rdf="http://www.w3.org/1999/02/22-rdf-syntax-ns#"
   xmlns:svg="http://www.w3.org/2000/svg"
   xmlns="http://www.w3.org/2000/svg"
   xmlns:sodipodi="http://sodipodi.sourceforge.net/DTD/sodipodi-0.dtd"
   xmlns:inkscape="http://www.inkscape.org/namespaces/inkscape"
   width="64"
   height="64"
   viewBox="0 0 16.933333 16.933334"
   version="1.1"
   id="svg8"
   inkscape:version="0.92.5 (2060ec1f9f, 2020-04-08)"
   sodipodi:docname="gloves_64x64.svg">
  <defs
     id="defs2" />
  <sodipodi:namedview
     id="base"
     pagecolor="#ffffff"
     bordercolor="#666666"
     borderopacity="1.0"
     inkscape:pageopacity="0.0"
     inkscape:pageshadow="2"
     inkscape:zoom="2.8"
     inkscape:cx="16.958055"
     inkscape:cy="-12.735755"
     inkscape:document-units="mm"
     inkscape:current-layer="layer1"
     showgrid="false"
     units="px"
     inkscape:window-width="1208"
     inkscape:window-height="987"
     inkscape:window-x="1992"
     inkscape:window-y="0"
     inkscape:window-maximized="1"
     showguides="false" />
  <metadata
     id="metadata5">
    <rdf:RDF>
      <cc:Work
         rdf:about="">
        <dc:format>image/svg+xml</dc:format>
        <dc:type
           rdf:resource="http://purl.org/dc/dcmitype/StillImage" />
        <dc:title></dc:title>
      </cc:Work>
    </rdf:RDF>
  </metadata>
  <g
     inkscape:label="Layer 1"
     inkscape:groupmode="layer"
     id="layer1"
     transform="translate(0,-280.06665)">
    <path
       style="fill:#000000;stroke-width:0.02806768"
       d="m 9.7689238,295.60642 c -0.2314141,-0.0592 -0.4103831,-0.16057 -0.57533,-0.32599 -0.2683485,-0.2691 -0.4011834,-0.66525 -0.3398425,-1.01348 0.016394,-0.0931 0.1164223,-0.38731 0.2222812,-0.65383 l 0.1924699,-0.48459 -0.1498862,-0.22295 c -0.1895633,-0.28197 -0.3983153,-0.70932 -0.5097896,-1.04362 -0.1466904,-0.4399 -0.2021236,-0.76234 -0.2197861,-1.2784 l -0.016128,-0.47114 -0.1235941,0.21685 c -0.067973,0.11927 -0.1655905,0.27531 -0.2169187,0.34675 l -0.093324,0.12989 0.1906146,0.47724 c 0.2272107,0.56886 0.2683975,0.75655 0.2234158,1.01818 -0.044105,0.25653 -0.1406776,0.45311 -0.3111413,0.63335 -0.2500319,0.26437 -0.51942,0.37947 -0.8881551,0.37947 -0.3090635,0 -0.580507,-0.10231 -0.7964988,-0.3002 l -0.072719,-0.0666 -0.1833998,0.11142 c -0.2897371,0.17602 -0.489338,0.23225 -0.8808009,0.24812 -0.460134,0.0187 -0.7364469,-0.0465 -1.0835569,-0.25552 l -0.1566696,-0.0943 -0.1223157,0.0981 c -0.067276,0.0539 -0.1917841,0.13097 -0.2766889,0.17117 -0.1382417,0.0655 -0.1880995,0.0731 -0.4771507,0.0735 -0.3033214,3.2e-4 -0.3337756,-0.005 -0.505218,-0.0865 -0.2674586,-0.12745 -0.4554499,-0.3104 -0.5819589,-0.56638 -0.1029441,-0.20829 -0.1056995,-0.22195 -0.1056995,-0.52407 v -0.3102 l 0.2018907,-0.50184 0.2018907,-0.50184 -0.1352587,-0.20044 c -0.3736764,-0.55376 -0.6269962,-1.23164 -0.7192886,-1.9248 -0.050074,-0.37607 -0.05866,-4.66496 -0.01004,-5.01453 0.1979207,-1.42299 1.4873605,-2.47791 2.9167305,-2.38624 1.3043604,0.0836 2.3741172,1.05695 2.5806801,2.34797 0.01612,0.10077 0.030135,0.65362 0.031299,1.23497 0.00126,0.61798 0.012124,1.02937 0.026368,0.99641 0.01334,-0.0308 0.050207,-0.27125 0.081922,-0.53419 0.064919,-0.53815 0.102296,-0.67135 0.2418814,-0.86198 0.2465379,-0.33668 0.7910058,-0.50778 1.1027891,-0.34655 0.1495378,0.0773 0.2645943,0.19474 0.3313887,0.33818 0.064792,0.13914 0.06589,0.15637 0.066156,1.03966 l 2.758e-4,0.89816 0.2596265,1.1e-4 c 0.2309976,1e-4 0.2775075,0.009 0.421789,0.0821 0.1792428,0.0906 0.3784233,0.28595 0.4629453,0.45404 0.072458,0.1441 0.1074764,0.31163 0.1607124,0.76884 0.02426,0.2084 0.05316,0.41048 0.0642,0.44907 0.01104,0.0386 0.02706,-0.44767 0.03559,-1.0806 0.01431,-1.06188 0.02014,-1.16742 0.07551,-1.3662 0.143919,-0.51676 0.379805,-0.9297 0.736111,-1.28863 0.349698,-0.35226 0.775595,-0.59904 1.263917,-0.73235 0.204608,-0.0558 0.304512,-0.0651 0.701693,-0.0651 0.554291,0 0.780161,0.0493 1.220943,0.26663 0.738143,0.36392 1.260377,1.01202 1.481394,1.83845 0.05866,0.21935 0.06028,0.27838 0.06966,2.55416 0.0063,1.50494 -8.13e-4,2.42694 -0.01993,2.60455 -0.07961,0.74105 -0.304625,1.38116 -0.700121,1.99168 l -0.170812,0.26367 0.201736,0.48909 0.201737,0.48908 0.0015,0.32337 c 0.0014,0.31285 -0.0017,0.32974 -0.09478,0.51925 -0.339416,0.69085 -1.211938,0.89701 -1.824645,0.43113 -0.123538,-0.0939 -0.160976,-0.1099 -0.196474,-0.0838 -0.128109,0.0942 -0.519339,0.26133 -0.703446,0.3005 -0.439848,0.0936 -0.969766,0.009 -1.353018,-0.21614 l -0.188209,-0.11052 -0.148603,0.113 c -0.08173,0.0621 -0.218069,0.13939 -0.302974,0.17163 -0.19063,0.0723 -0.5253059,0.0929 -0.7168895,0.0439 z m 0.5950982,-0.49658 c 0.06423,-0.0276 0.215797,-0.14467 0.336812,-0.26022 l 0.220028,-0.21009 0.126305,0.11272 c 0.342679,0.30583 0.615353,0.41748 1.025883,0.42002 0.424682,0.003 0.698488,-0.10504 1.002315,-0.39418 l 0.161699,-0.15389 0.221296,0.21535 c 0.251398,0.24465 0.415052,0.33119 0.62942,0.33283 0.207937,0.002 0.368565,-0.0556 0.512783,-0.18253 0.189769,-0.16705 0.24885,-0.29951 0.246631,-0.553 -0.0017,-0.19291 -0.01724,-0.24803 -0.186092,-0.65959 l -0.184248,-0.44907 H 12.08237 9.6878865 l -0.1899416,0.47714 c -0.2045451,0.51384 -0.2306303,0.66787 -0.1509286,0.89121 0.1421417,0.39831 0.6094472,0.58821 1.0170057,0.4133 z m -0.5027923,-0.448 c -0.092951,-0.0731 -0.117067,-0.1767 -0.064711,-0.27796 0.099183,-0.1918 0.3841423,-0.14302 0.4258473,0.0729 0.01457,0.0754 0.0035,0.10401 -0.06793,0.17542 -0.09929,0.0993 -0.19267,0.10873 -0.2932141,0.0297 z m 2.0687933,-0.0132 c -0.148249,-0.14824 -0.04915,-0.38018 0.162437,-0.38018 0.225951,0 0.303228,0.30472 0.103475,0.40802 -0.113494,0.0587 -0.187095,0.051 -0.265912,-0.0278 z m 2.134419,0.035 c -0.13639,-0.0782 -0.164453,-0.21877 -0.06812,-0.34124 0.0452,-0.0575 0.08275,-0.0739 0.168407,-0.0739 0.142222,0 0.222504,0.0764 0.222504,0.21178 0,0.17899 -0.174078,0.28869 -0.322778,0.20341 z M 3.3302448,292.81987 c 0.1255784,-0.0373 0.1940085,-0.0859 0.3910246,-0.27788 l 0.2388078,-0.23268 0.1784423,0.16254 c 0.5777665,0.52625 1.4028383,0.52803 1.9710261,0.004 l 0.1801491,-0.16607 0.2398526,0.23082 c 0.327828,0.31549 0.5268335,0.38108 0.857936,0.28275 0.2942216,-0.0874 0.5143592,-0.38058 0.5167586,-0.68829 9.673e-4,-0.12606 -0.033709,-0.24315 -0.1891828,-0.63851 l -0.1903863,-0.48413 -2.3987869,0.007 -2.3987877,0.007 -0.1899392,0.47716 c -0.2076039,0.52152 -0.225813,0.63155 -0.1441789,0.87112 0.063503,0.18638 0.2678598,0.38892 0.4483212,0.44435 0.179983,0.0553 0.304309,0.0554 0.4889435,6.4e-4 z M 2.884364,292.32296 c -0.08901,-0.0947 -0.082828,-0.25063 0.012924,-0.32595 0.2264833,-0.17815 0.5091598,0.11909 0.3062355,0.32202 -0.091159,0.0912 -0.2355459,0.0929 -0.3191621,0.004 z m 2.0848738,-0.004 c -0.1392212,-0.13921 -0.040568,-0.38018 0.1556478,-0.38018 0.1193209,0 0.2245421,0.10891 0.2245421,0.23241 0,0.19723 -0.2381657,0.2898 -0.3801899,0.14777 z m 2.1268118,0.0502 c -0.058571,-0.0236 -0.1245914,-0.17846 -0.106607,-0.2501 0.023624,-0.0941 0.125817,-0.1802 0.2139586,-0.1802 0.095277,0 0.2114241,0.0903 0.23451,0.18224 0.020465,0.0815 -0.042547,0.22315 -0.1109701,0.2494 -0.052691,0.0202 -0.1791221,0.0195 -0.2308915,-0.002 z m 7.5512934,0.30647 c 0.415184,-0.63386 0.613415,-1.23121 0.668307,-2.01385 0.01828,-0.26057 0.02542,-1.21787 0.01875,-2.51206 -0.01045,-2.02636 -0.01263,-2.09808 -0.07066,-2.31877 -0.123674,-0.4704 -0.326755,-0.80911 -0.692989,-1.15577 -0.536332,-0.50769 -1.293511,-0.72162 -2.021957,-0.57129 -0.868843,0.1793 -1.547118,0.82552 -1.786613,1.70218 -0.05705,0.2088 -0.06248,0.30734 -0.07764,1.40564 l -0.01629,1.18109 -0.0756,0.0991 c -0.180223,0.23613 -0.496398,0.25666 -0.71442,0.0464 -0.1106617,-0.10672 -0.1343076,-0.1987 -0.2081145,-0.80953 -0.066906,-0.55369 -0.1068868,-0.66172 -0.2929772,-0.79157 -0.063969,-0.0446 -0.1690006,-0.086 -0.2441355,-0.0961 -0.1212947,-0.0163 -0.1388698,-0.0107 -0.2192381,0.0697 l -0.087373,0.0874 0.011226,1.9722 c 0.010656,1.87222 0.014192,1.98572 0.069775,2.23884 0.1341738,0.611 0.3659856,1.14812 0.6753241,1.56478 l 0.067719,0.0912 h 2.4364022 2.436402 z m -4.498939,-0.36428 c -0.289986,-0.14704 -0.4286382,-0.44419 -0.3658202,-0.78401 0.084882,-0.45916 0.3934542,-0.8045 0.8375052,-0.9373 0.108408,-0.0324 0.130178,-0.0549 0.221201,-0.22808 0.193732,-0.36867 0.606888,-0.65851 1.033873,-0.72531 0.586983,-0.0918 1.215681,0.2342 1.467229,0.76084 0.06357,0.13312 0.09137,0.16313 0.164611,0.17782 0.293738,0.0589 0.649298,0.35343 0.790517,0.65476 0.06567,0.14013 0.07567,0.19699 0.07567,0.4302 0,0.2501 -0.0059,0.27826 -0.08495,0.40624 -0.0527,0.0853 -0.137082,0.16974 -0.22232,0.22245 l -0.137374,0.0849 -1.813377,0.007 -1.813376,0.007 z m 3.711414,-0.45826 c 0.0787,-0.0787 0.08443,-0.0971 0.06951,-0.22303 -0.0422,-0.35631 -0.291952,-0.58366 -0.676091,-0.61544 l -0.193717,-0.016 -0.04651,-0.16842 c -0.02558,-0.0926 -0.06322,-0.19998 -0.08366,-0.23857 -0.267526,-0.50538 -0.951736,-0.66272 -1.409738,-0.32419 -0.195766,0.14469 -0.31372,0.33497 -0.388019,0.62592 l -0.03046,0.11929 H 10.95812 c -0.228283,0 -0.358927,0.0532 -0.515361,0.20956 -0.247203,0.24719 -0.286832,0.57291 -0.08325,0.68426 0.03882,0.0212 0.574205,0.031 1.735338,0.0316 l 1.679203,7.4e-4 0.08577,-0.0858 z m -6.1482914,-1.52147 c 0.1875641,-0.29146 0.3495836,-0.62903 0.4591633,-0.9567 0.1902203,-0.5688 0.1893142,-0.55667 0.2020153,-2.70382 0.010233,-1.72933 0.0066,-1.95112 -0.032855,-2.02748 -0.1131509,-0.21881 -0.5490037,-0.10975 -0.684252,0.17121 -0.040953,0.0851 -0.079315,0.2869 -0.1288425,0.67778 -0.076852,0.60656 -0.1086973,0.69843 -0.2771597,0.79962 -0.1889975,0.11354 -0.3862768,0.0988 -0.5526541,-0.0411 -0.1697288,-0.14282 -0.1686744,-0.13497 -0.1686744,-1.25554 0,-0.56717 -0.013318,-1.12177 -0.02986,-1.24339 -0.1307689,-0.96158 -0.8450532,-1.7399 -1.7980013,-1.95917 -0.2945591,-0.0678 -0.7607222,-0.0623 -1.0490786,0.0123 -0.8470626,0.21928 -1.4596358,0.83003 -1.7042644,1.6992 l -0.063198,0.22454 -2.974e-4,2.38574 c -3.396e-4,2.681 -0.00304,2.63891 0.2089439,3.2733 0.1422376,0.42569 0.3065239,0.75314 0.5298981,1.05615 l 0.067246,0.0912 2.4455742,-3.3e-4 2.4455734,-3.1e-4 0.1307192,-0.20313 z m -4.4339818,-0.29808 c -0.1750045,-0.0611 -0.3189492,-0.19068 -0.4017979,-0.36183 -0.049955,-0.10318 -0.057318,-0.15925 -0.046922,-0.35734 0.010507,-0.2002 0.027718,-0.26609 0.1163178,-0.44536 0.1489453,-0.30137 0.4092499,-0.51522 0.7347252,-0.60363 0.098842,-0.0268 0.1224996,-0.0511 0.2041078,-0.20954 0.3506454,-0.68064 1.2015838,-0.94271 1.9105692,-0.58842 0.213077,0.10648 0.4800864,0.37731 0.5820279,0.59036 0.079424,0.16598 0.08613,0.17193 0.2601586,0.23026 0.4354294,0.14596 0.7228486,0.48684 0.7935833,0.94118 0.051519,0.33095 -0.093167,0.62802 -0.3808809,0.78202 -0.1133896,0.0606 -0.1264052,0.0612 -1.8684149,0.0678 -1.6460678,0.006 -1.7634325,0.004 -1.9034769,-0.0454 z m 3.6309147,-0.49319 c 0.094119,-0.0941 0.092699,-0.26526 -0.00378,-0.45893 C 6.77996,288.83103 6.529286,288.6829 6.2304847,288.6829 H 6.1112644 l -0.046811,-0.16102 c -0.1152226,-0.39635 -0.3386109,-0.62607 -0.7053395,-0.72535 -0.1554623,-0.0421 -0.2133328,-0.0452 -0.3623078,-0.0197 -0.4210205,0.0722 -0.6988884,0.33449 -0.8109589,0.76573 l -0.032826,0.12631 -0.1850275,0.0185 c -0.101765,0.0102 -0.2330426,0.0412 -0.291728,0.0691 -0.3186726,0.15123 -0.5129237,0.60581 -0.3349308,0.78381 l 0.068893,0.0688 h 1.7146802 1.7146803 z"
       id="path8266"
       inkscape:connector-curvature="0" />
    <path
       style="fill:#ffffff;stroke-width:0.00151547;stroke-miterlimit:4;stroke-dasharray:none"
       d="M 2.5636136,290.31867 C 2.3591321,290.0107 2.277237,289.8376 2.1133838,289.36702 1.9162788,288.80095 1.8940849,288.44755 1.8926345,285.85203 l -0.00119,-2.09298 0.099216,-0.31282 c 0.3600225,-1.13513 1.3967737,-1.81444 2.5312539,-1.65856 0.9165946,0.12594 1.7286102,0.8846 1.9215932,1.79535 0.041034,0.19366 0.058141,0.56118 0.05932,1.27455 8.86e-4,0.55132 0.018352,1.07459 0.038758,1.1628 0.041287,0.17846 0.1879171,0.32005 0.3689486,0.35626 0.1649246,0.033 0.4248682,-0.0818 0.4957935,-0.21899 0.032256,-0.0623 0.094197,-0.35531 0.1376456,-0.65098 0.043452,-0.29566 0.096007,-0.58231 0.1167953,-0.63699 0.059602,-0.15676 0.2720501,-0.31283 0.4258322,-0.31283 0.2799811,0 0.26847,-0.10117 0.2504583,2.20127 -0.015572,1.99061 -0.019524,2.08016 -0.1043448,2.36279 -0.1056913,0.35218 -0.2711914,0.72582 -0.4959396,1.11964 l -0.1658968,0.2907 H 5.1378114 2.7047413 Z m 4.5937522,-0.36088 c 0.2061766,-0.1573 0.2838444,-0.32302 0.2856247,-0.6094 0.00282,-0.45482 -0.293779,-0.87243 -0.7533264,-1.06062 -0.1692165,-0.0693 -0.2291461,-0.12198 -0.3274187,-0.28785 -0.386916,-0.65308 -1.174178,-0.88582 -1.8777201,-0.55512 -0.2107865,0.0991 -0.4360538,0.31423 -0.6065419,0.57929 -0.1067071,0.1659 -0.1653821,0.214 -0.3314049,0.27166 -0.2336856,0.0811 -0.4889636,0.31169 -0.6198771,0.55981 -0.072007,0.13647 -0.091013,0.23841 -0.091876,0.49283 -0.00126,0.37929 0.073475,0.5201 0.3493671,0.65802 0.1677913,0.0839 0.2030118,0.0852 1.9983697,0.0745 l 1.8275686,-0.0108 z"
       id="path8268"
       inkscape:connector-curvature="0" />
    <path
       style="fill:#ffffff;stroke-width:0.00151547;stroke-miterlimit:4;stroke-dasharray:none"
       d="m 3.3572673,289.51991 c -0.09214,-0.13155 -0.076485,-0.27397 0.052462,-0.47731 0.126288,-0.19913 0.2873368,-0.29419 0.5685526,-0.33561 0.1764631,-0.0259 0.1845239,-0.0333 0.2548479,-0.23402 0.09979,-0.2847 0.2357328,-0.45202 0.4575639,-0.56317 0.2712204,-0.13591 0.4380225,-0.15595 0.6856927,-0.0824 0.2838214,0.0843 0.5001595,0.29186 0.6239976,0.59872 l 0.097069,0.24053 0.226734,0.0454 c 0.3651426,0.0731 0.6194588,0.32603 0.6194588,0.61599 0,0.28985 0.058097,0.28096 -1.8353069,0.28096 h -1.688655 z"
       id="path8270"
       inkscape:connector-curvature="0" />
    <path
       style="fill:#ffffff;stroke-width:0.00151547;stroke-miterlimit:4;stroke-dasharray:none"
       d="M 2.8820193,292.80356 C 2.6909782,292.74466 2.4708696,292.53184 2.409916,292.34715 2.34499,292.1504 2.376682,291.98049 2.5710168,291.48354 l 0.1685594,-0.43104 2.222326,-0.008 c 1.2222791,-0.004 2.2965918,-0.009 2.3873618,-0.01 l 0.1650374,-0.002 0.1757847,0.45515 c 0.1141177,0.29549 0.1757854,0.51843 0.1757854,0.6355 0,0.35093 -0.2069492,0.6038 -0.5685414,0.69468 -0.2634442,0.0663 -0.423664,0.003 -0.7369838,-0.2899 l -0.257272,-0.24067 -0.196976,0.16492 c -0.3249072,0.27203 -0.6097637,0.3824 -0.9868503,0.3824 -0.383861,0 -0.6695094,-0.11302 -0.9582714,-0.37919 l -0.1823886,-0.16813 -0.2316033,0.20781 c -0.357835,0.32106 -0.5741909,0.39823 -0.8649654,0.30853 z m 0.3071802,-0.47087 c 0.1206451,-0.0949 0.1327183,-0.18119 0.043229,-0.30894 -0.074128,-0.10584 -0.2622089,-0.11963 -0.3557329,-0.0261 -0.093524,0.0935 -0.079721,0.28161 0.026108,0.35573 0.1169962,0.082 0.1598557,0.0789 0.2863959,-0.0207 z m 2.0426476,0.0459 c 0.2207752,-0.0839 0.1472948,-0.44399 -0.090611,-0.44399 -0.064073,0 -0.144856,0.0284 -0.1795108,0.063 -0.093525,0.0935 -0.079721,0.28161 0.026108,0.35573 0.1043055,0.073 0.1152753,0.0742 0.2440154,0.0252 z m 2.1528637,-0.043 c 0.044104,-0.0441 0.080194,-0.11628 0.080194,-0.16038 0,-0.11009 -0.139819,-0.24058 -0.2577643,-0.24058 -0.2147506,0 -0.3096435,0.29591 -0.1342807,0.41874 0.1199407,0.084 0.2155151,0.0785 0.3118516,-0.0178 z"
       id="path8272"
       inkscape:connector-curvature="0" />
    <path
       style="fill:#ffffff;stroke-width:0.00151547;stroke-miterlimit:4;stroke-dasharray:none"
       d="m 9.5468363,292.68645 c -0.181628,-0.24984 -0.4182943,-0.76099 -0.5430356,-1.17283 l -0.1092995,-0.36088 -0.027102,-2.06498 -0.027102,-2.06497 0.092062,-0.0972 c 0.084724,-0.0895 0.10435,-0.0935 0.2462184,-0.0511 0.2674542,0.0802 0.3683926,0.22775 0.4336995,0.63427 0.1530243,0.95252 0.1412347,0.9084 0.2797765,1.04693 0.1101084,0.11012 0.1605574,0.13103 0.3160554,0.13103 0.153316,0 0.209708,-0.0226 0.328976,-0.13191 l 0.143942,-0.13191 0.03122,-1.26145 c 0.028,-1.13069 0.03992,-1.2857 0.11512,-1.49544 0.130879,-0.36503 0.321274,-0.66545 0.588846,-0.9291 0.696436,-0.68622 1.726616,-0.84729 2.622425,-0.41 0.333312,0.16271 0.814219,0.63417 0.991088,0.97164 0.264633,0.50492 0.261263,0.47178 0.283411,2.78672 0.0214,2.23617 -0.0044,2.81919 -0.149842,3.38996 -0.087,0.34137 -0.275617,0.76989 -0.505284,1.14796 l -0.141898,0.23359 H 12.093424 9.670728 Z m 3.8294657,-0.29742 0.638683,-0.0265 0.15099,-0.13641 c 0.08305,-0.075 0.172307,-0.201 0.198362,-0.27994 0.0628,-0.19029 0.02621,-0.55936 -0.07517,-0.75806 -0.132575,-0.25987 -0.564851,-0.61679 -0.747005,-0.61679 -0.03383,0 -0.135174,-0.11663 -0.225202,-0.25919 -0.589975,-0.93416 -1.870229,-0.93145 -2.469796,0.005 -0.106063,0.16569 -0.178917,0.22831 -0.36407,0.31291 -0.283568,0.12958 -0.468012,0.3009 -0.598182,0.55565 -0.2460235,0.48145 -0.1325079,0.94232 0.286517,1.16322 0.101869,0.0537 0.307558,0.0636 1.343239,0.0649 0.672622,7.5e-4 1.510357,-0.0105 1.861631,-0.0249 z"
       id="path8274"
       inkscape:connector-curvature="0" />
    <path
       style="fill:#ffffff;stroke-width:0.00151547;stroke-miterlimit:4;stroke-dasharray:none"
       d="m 10.853504,291.89636 c -0.51943,-0.0218 -0.520967,-0.0222 -0.573403,-0.1318 -0.04552,-0.0952 -0.04224,-0.13285 0.02443,-0.28068 0.120049,-0.26618 0.283357,-0.39433 0.5691,-0.44656 l 0.245978,-0.0449 0.06863,-0.20326 c 0.121298,-0.35926 0.359499,-0.58477 0.693296,-0.65636 0.496367,-0.10646 0.981952,0.19977 1.113353,0.7021 0.04206,0.1608 0.04641,0.16396 0.288308,0.20894 0.287561,0.0535 0.411331,0.12543 0.518792,0.3016 0.130851,0.2145 0.142873,0.37769 0.0362,0.49125 l -0.09206,0.098 -1.185887,-0.008 c -0.652238,-0.004 -1.42026,-0.018 -1.706715,-0.0301 z"
       id="path8276"
       inkscape:connector-curvature="0" />
    <path
       style="fill:#ffffff;stroke-width:0.00151547;stroke-miterlimit:4;stroke-dasharray:none"
       d="m 9.7192472,295.07577 c -0.173092,-0.0853 -0.3179212,-0.26201 -0.3683885,-0.44943 -0.048042,-0.1784 0.00245,-0.40292 0.2086703,-0.92746 l 0.1339776,-0.34082 2.3848334,-0.0103 2.384832,-0.0103 0.179737,0.44854 c 0.226472,0.56517 0.240082,0.83337 0.05395,1.06333 -0.161706,0.1998 -0.352634,0.2931 -0.59976,0.2931 -0.229572,0 -0.394095,-0.0888 -0.684218,-0.36948 l -0.166766,-0.16132 -0.25425,0.20653 c -0.324726,0.26377 -0.569607,0.34016 -1.012424,0.31584 -0.363769,-0.0199 -0.522713,-0.0851 -0.861308,-0.35271 l -0.210544,-0.16642 -0.21002,0.19863 c -0.115512,0.10924 -0.26672,0.22794 -0.336018,0.26377 -0.160386,0.0829 -0.4725354,0.0822 -0.6423085,-0.002 z m 0.4245748,-0.41612 c 0.164378,-0.15314 0.07651,-0.39941 -0.142509,-0.39941 -0.1327863,0 -0.250897,0.106 -0.250897,0.22518 0,0.10454 0.1423296,0.25598 0.2405798,0.25598 0.03579,0 0.1045612,-0.0368 0.1528262,-0.0817 z m 2.122437,-0.007 c 0.07036,-0.0584 0.06284,-0.25432 -0.01266,-0.32982 -0.09353,-0.0935 -0.281608,-0.0797 -0.355733,0.0261 -0.08465,0.12087 -0.07858,0.18924 0.02674,0.30135 0.0914,0.0973 0.226173,0.0982 0.341661,0.002 z m 2.05518,0.008 c 0.154905,-0.1549 0.07601,-0.40096 -0.128568,-0.40096 -0.285122,0 -0.375163,0.29539 -0.132061,0.43325 0.115112,0.0653 0.169852,0.0585 0.260629,-0.0323 z"
       id="path8278"
       inkscape:connector-curvature="0" />
  </g>
</svg>
