<?xml version="1.0" encoding="UTF-8" standalone="no"?>
<!-- Created with Inkscape (http://www.inkscape.org/) -->

<svg
   xmlns:dc="http://purl.org/dc/elements/1.1/"
   xmlns:cc="http://creativecommons.org/ns#"
   xmlns:rdf="http://www.w3.org/1999/02/22-rdf-syntax-ns#"
   xmlns:svg="http://www.w3.org/2000/svg"
   xmlns="http://www.w3.org/2000/svg"
   xmlns:sodipodi="http://sodipodi.sourceforge.net/DTD/sodipodi-0.dtd"
   xmlns:inkscape="http://www.inkscape.org/namespaces/inkscape"
   width="64"
   height="64"
   viewBox="0 0 16.933333 16.933333"
   version="1.1"
   id="svg8"
   inkscape:version="0.92.5 (2060ec1f9f, 2020-04-08)"
   sodipodi:docname="hairdressing_64x64.svg">
  <defs
     id="defs2" />
  <sodipodi:namedview
     id="base"
     pagecolor="#ffffff"
     bordercolor="#666666"
     borderopacity="1.0"
     inkscape:pageopacity="0.0"
     inkscape:pageshadow="2"
     inkscape:zoom="3.959798"
     inkscape:cx="92.62867"
     inkscape:cy="19.64096"
     inkscape:document-units="mm"
     inkscape:current-layer="layer1"
     showgrid="false"
     units="px"
     inkscape:window-width="1208"
     inkscape:window-height="987"
     inkscape:window-x="1992"
     inkscape:window-y="0"
     inkscape:window-maximized="1"
     showguides="false" />
  <metadata
     id="metadata5">
    <rdf:RDF>
      <cc:Work
         rdf:about="">
        <dc:format>image/svg+xml</dc:format>
        <dc:type
           rdf:resource="http://purl.org/dc/dcmitype/StillImage" />
        <dc:title></dc:title>
      </cc:Work>
    </rdf:RDF>
  </metadata>
  <g
     inkscape:label="Layer 1"
     inkscape:groupmode="layer"
     id="layer1"
     transform="translate(0,-280.06667)">
    <path
       style="fill:#000000;stroke-width:0.03156499"
       d="m 2.2117412,296.6185 c -0.1917413,-0.0599 -0.3709887,-0.21548 -0.4644674,-0.40307 -0.080478,-0.1615 -0.081386,-0.17152 -0.0807,-0.89103 6.324e-4,-0.66332 0.0064,-0.7402 0.064869,-0.86916 0.035298,-0.0778 0.087203,-0.16692 0.1153517,-0.19802 0.030765,-0.034 0.039514,-0.0673 0.021937,-0.0834 -0.01608,-0.0147 -0.2707131,-0.18667 -0.5658453,-0.38202 -0.295133,-0.19535 -0.57566701,-0.39156 -0.62340896,-0.43603 l -0.0868033,-0.0808 v -0.91931 c 0,-1.04386 -0.0256783,-0.94072 0.29435379,-1.18234 0.48675047,-0.36751 1.31625647,-0.6441 2.05882527,-0.6865 l 0.3172369,-0.0181 0.049054,-0.28758 c 0.09132,-0.53532 0.2884188,-0.9109 0.6895452,-1.31395 0.1894072,-0.19031 0.3356002,-0.30463 0.4971657,-0.38878 0.1745204,-0.0909 1.4877602,-0.6333 2.2758708,-0.93999 0.07245,-0.0282 0.069523,-0.0339 -0.1219451,-0.2386 -0.295315,-0.31569 -0.4412619,-0.56169 -0.567957,-0.95732 l -0.055594,-0.1736 -0.2798829,-0.017 c -0.4005558,-0.0244 -0.6166041,-0.1504 -0.7795639,-0.4548 -0.061825,-0.11548 -0.068487,-0.17551 -0.068487,-0.61718 0,-0.52672 0.019109,-0.6047 0.1940775,-0.79199 0.07314,-0.0783 0.076825,-0.10315 0.086541,-0.58395 0.011102,-0.54942 0.046392,-0.73002 0.2260944,-1.1571 0.2128551,-0.50586 0.6949909,-1.08584 1.1662322,-1.4029 1.4868536,-1.0004 3.4768727,-0.80607 4.6941807,0.45839 0.611543,0.63523 0.889106,1.33139 0.874045,2.19219 -0.0069,0.39319 -0.005,0.40554 0.07328,0.48926 0.1613,0.17244 0.194836,0.2819 0.208103,0.67918 0.01605,0.48067 -0.005,0.60677 -0.138088,0.82782 l -0.109481,0.18181 0.151881,0.16127 c 0.08353,0.0887 0.259681,0.29621 0.391436,0.46114 0.361031,0.45192 0.46564,0.53906 0.714193,0.5949 0.171653,0.0386 0.389253,-0.004 0.613925,-0.12141 0.208327,-0.10844 0.303353,-0.11781 0.400053,-0.0395 0.09352,0.0758 0.126634,0.2465 0.127032,0.65497 6.8e-4,0.6959 -0.180907,1.22841 -0.553618,1.62349 l -0.20389,0.21614 0.103144,0.29544 0.103144,0.29544 0.0093,1.93335 0.0093,1.93335 h 0.26694 0.266941 v -1.38312 c 0,-1.62322 7.91e-4,-1.62877 0.263383,-1.88451 0.206711,-0.20131 0.324737,-0.23608 0.80134,-0.23608 0.335378,0 0.388277,0.007 0.461922,0.0654 0.06024,0.0474 0.08317,0.0945 0.08317,0.17103 0,0.25008 -0.09362,0.30015 -0.5611,0.30015 -0.325852,0 -0.347065,0.004 -0.417821,0.0794 -0.05637,0.06 -0.07787,0.1254 -0.08821,0.2683 l -0.01367,0.18896 h 0.46292 c 0.44941,0 0.465183,0.002 0.540399,0.0775 0.09538,0.0954 0.103178,0.26253 0.01721,0.36883 -0.05777,0.0714 -0.08002,0.0749 -0.536605,0.0847 l -0.476335,0.0101 v 0.26602 0.26603 h 0.459126 c 0.445382,0 0.461447,0.002 0.536605,0.0775 0.105412,0.10541 0.105412,0.27623 0,0.38165 -0.07516,0.0752 -0.09122,0.0775 -0.536605,0.0775 h -0.459126 v 0.42548 0.42548 l 0.118368,0.0609 c 0.155849,0.0802 0.273559,0.20781 0.352553,0.38231 0.05865,0.12955 0.06436,0.20605 0.06499,0.86973 6.8e-4,0.72035 -1.32e-4,0.72935 -0.08107,0.89177 -0.04497,0.0902 -0.133745,0.20706 -0.197281,0.25962 -0.242497,0.20058 0.188509,0.18864 -6.726224,0.18632 -5.1122161,-10e-4 -6.3244024,-0.01 -6.432165,-0.0436 z m 1.508292,-0.58315 0.092266,-0.0923 v -0.60373 c 0,-0.62798 -0.022844,-0.75566 -0.1434561,-0.80195 -0.028103,-0.0108 -0.3346657,-0.0196 -0.6812495,-0.0196 -0.8470664,0 -0.785109,-0.063 -0.785109,0.79745 0,0.66938 0.0059,0.70144 0.1420431,0.77592 0.039349,0.0215 0.2929126,0.0349 0.6731841,0.0355 l 0.6100539,7.2e-4 z m 1.3345558,-0.1761 0.087397,-0.26836 -0.2277579,-0.68648 c -0.1790683,-0.53972 -0.2309451,-0.73839 -0.242669,-0.92934 l -0.014915,-0.24287 -0.2045279,0.077 c -0.1124903,0.0424 -0.2730362,0.11427 -0.3567681,0.15985 l -0.152241,0.0829 0.1549225,0.15493 c 0.2362038,0.2362 0.2584192,0.34583 0.2455909,1.2119 l -0.010504,0.70896 0.3170348,-3e-5 0.3170347,-2e-5 z m 6.66286,0.0419 c -0.04237,-0.12457 -0.07703,-0.26166 -0.07703,-0.30467 0,-0.043 0.106533,-0.40241 0.236738,-0.7987 0.14324,-0.43595 0.236929,-0.77376 0.237223,-0.85534 2.51e-4,-0.0742 -0.158835,-0.82729 -0.353561,-1.67363 l -0.354048,-1.53879 H 9.8057295 8.2046898 l 0.092267,0.0923 0.092267,0.0923 v 1.43687 1.43688 l -0.07102,0.0795 c -0.133564,0.14948 -0.1869171,0.13896 -0.7758703,-0.15312 l -0.5445508,-0.27006 -0.4800751,0.003 c -0.3386811,0.002 -0.5959435,0.0229 -0.8734844,0.071 -0.3671164,0.0637 -0.3948582,0.0735 -0.4150894,0.14714 -0.061156,0.22261 -0.028801,0.38875 0.2250519,1.15557 l 0.2530246,0.76431 -0.079015,0.24742 c -0.043457,0.13608 -0.079195,0.25807 -0.079416,0.27109 -2.267e-4,0.013 1.4049708,0.0237 3.122651,0.0237 h 3.1230527 l -0.07703,-0.22648 z m 1.253871,-0.47201 c -0.0068,-0.44587 0.0022,-0.74924 0.02468,-0.8387 0.05028,-0.19965 0.176607,-0.37437 0.353654,-0.48909 l 0.153096,-0.0992 v -0.42082 -0.42081 h -0.489258 c -0.269091,0 -0.489257,0.006 -0.489257,0.0145 0,0.008 0.02841,0.1364 0.06313,0.28531 0.108438,0.46506 0.09429,0.58086 -0.171553,1.40454 l -0.234684,0.72712 0.07709,0.22833 c 0.0424,0.12559 0.08365,0.24609 0.09165,0.26779 0.01029,0.0279 0.105132,0.0394 0.323307,0.0395 l 0.308749,3e-5 z m 2.080963,0.60819 c 0.05494,-0.0679 0.06029,-0.13173 0.06029,-0.71954 0,-0.86333 0.06218,-0.79998 -0.785109,-0.79998 -0.346584,0 -0.653146,0.009 -0.68125,0.0196 -0.120615,0.0463 -0.143456,0.17397 -0.143456,0.80195 v 0.60373 l 0.09408,0.0941 0.09408,0.0941 0.650547,-0.01 c 0.640138,-0.01 0.65151,-0.0109 0.71083,-0.0842 z M 3.3724262,293.89848 c 0.1247431,-0.23309 0.5745281,-0.49596 1.1500857,-0.67216 0.3282212,-0.10049 0.9410372,-0.23321 1.2547084,-0.27175 l 0.1814987,-0.0223 v -0.56176 -0.56175 l -0.134151,-0.0212 c -0.3273277,-0.0518 -0.5449077,-0.13046 -1.0085384,-0.36464 -0.7043269,-0.35575 -0.8506588,-0.39266 -1.5561174,-0.39247 -0.3488877,9e-5 -0.6412636,0.016 -0.7575593,0.0414 -0.4547781,0.0989 -0.9323897,0.29038 -1.252157,0.50199 l -0.1209205,0.08 v 0.68531 0.68531 l 0.7181042,0.47832 0.7181029,0.47832 0.3813377,9e-5 c 0.3791671,10e-5 0.3815888,-3.6e-4 0.425606,-0.0826 z m 4.4801927,-1.54288 c 0,-0.49479 -0.00736,-0.89961 -0.016354,-0.89961 -0.00899,0 -0.1616914,0.0745 -0.3393236,0.16564 -0.3164865,0.16231 -0.3296192,0.16595 -0.6544006,0.1815 l -0.3314323,0.0158 v 0.53661 0.5366 l 0.3314323,0.0158 c 0.3250649,0.0155 0.3374975,0.019 0.6470827,0.17989 0.1736075,0.0902 0.3263031,0.16476 0.3393236,0.16564 0.013023,7.2e-4 0.023671,-0.4032 0.023671,-0.89798 z m 5.6501331,-0.86649 c 0,-0.6957 -0.01331,-1.1995 -0.0344,-1.30205 -0.01892,-0.092 -0.092,-0.28801 -0.162397,-0.43558 -0.153611,-0.32202 -0.468759,-0.65578 -0.765927,-0.81116 -0.21733,-0.11363 -1.152599,-0.49305 -1.170719,-0.47493 -0.0066,0.006 0.109,0.45852 0.256968,1.00419 0.147968,0.54566 0.368682,1.42535 0.490476,1.95485 0.121794,0.5295 0.235444,1.01599 0.252555,1.0811 l 0.03111,0.11837 h 0.551171 0.551171 z m -5.9657836,-0.49081 0.5208223,-0.26497 -1.0762315,-0.001 -1.0762322,-10e-4 -0.053206,0.24216 c -0.042795,0.19476 -0.045291,0.24717 -0.012764,0.26781 0.022246,0.0141 0.2961259,0.0251 0.6086193,0.0245 l 0.5681692,-0.001 z m -2.1785572,-0.26041 c 0.038687,-0.16927 0.1899605,-0.74652 0.3361658,-1.2828 0.1462045,-0.53627 0.2600935,-0.98077 0.2530864,-0.98778 -0.018771,-0.0188 -0.9521532,0.35789 -1.1726313,0.47322 -0.2223595,0.1163 -0.5669936,0.44641 -0.6944211,0.66514 -0.12135,0.2083 -0.2257627,0.50461 -0.2521044,0.71544 l -0.021735,0.17399 0.3154576,0.0711 c 0.2370888,0.0535 0.4122539,0.12078 0.7050874,0.27093 0.2142956,0.10988 0.4056333,0.20174 0.4251938,0.20413 0.020196,0.002 0.065962,-0.12865 0.1059042,-0.30341 z m 1.5115959,-1.63519 c 0.1626735,-0.59962 0.2877648,-1.09823 0.2779805,-1.10801 -0.00978,-0.01 -0.1379218,0.0296 -0.2847501,0.0874 l -0.2669595,0.10521 -0.2573688,0.9478 c -0.1415531,0.52129 -0.2646543,0.97266 -0.2735594,1.00304 -0.014505,0.0495 0.01113,0.0552 0.2463486,0.055 l 0.2625382,-2.3e-4 0.2957705,-1.09023 z m 3.3058349,1.03545 c -0.0093,-0.0304 -0.1465,-0.53107 -0.3049713,-1.11266 -0.1584724,-0.58159 -0.2903427,-1.05921 -0.2930458,-1.06139 -0.00273,-0.002 -0.1114456,0.015 -0.2416517,0.0382 -0.3045834,0.0542 -1.0527109,0.0542 -1.3572946,0 -0.1302053,-0.0232 -0.2389486,-0.0404 -0.2416517,-0.0382 -0.00273,0.002 -0.1345733,0.4798 -0.293045,1.06139 -0.1584724,0.58159 -0.2957093,1.08228 -0.3049719,1.11266 -0.015879,0.0521 0.07089,0.0553 1.518316,0.0553 1.447425,0 1.534194,-0.003 1.518316,-0.0553 z m 1.085795,0.0408 c 0,-0.008 -0.120735,-0.45598 -0.268302,-0.99563 -0.147566,-0.53966 -0.268302,-0.98581 -0.268302,-0.99145 0,-0.0212 -0.54148,-0.21367 -0.557086,-0.19807 -0.01469,0.0147 0.544679,2.11927 0.578318,2.17592 0.01486,0.025 0.515372,0.034 0.515372,0.009 z m 2.590294,-1.54802 c 0.106761,-0.21709 0.18608,-0.55564 0.186878,-0.79762 l 5.49e-4,-0.16632 -0.0868,0.0242 c -0.04775,0.0133 -0.228846,0.0242 -0.402453,0.0242 -0.276064,-1.2e-4 -0.338287,-0.0107 -0.496142,-0.0846 -0.225165,-0.10538 -0.438961,-0.30301 -0.744946,-0.68862 -0.130871,-0.16493 -0.344408,-0.40995 -0.474527,-0.5445 -0.229035,-0.23682 -0.241308,-0.24463 -0.384839,-0.24463 h -0.148258 l -0.0856,0.24463 c -0.117064,0.33456 -0.299586,0.63423 -0.544321,0.89366 -0.200229,0.21225 -0.203703,0.21878 -0.131294,0.24665 0.730251,0.28114 2.058551,0.82912 2.247458,0.92718 0.158302,0.0822 0.334772,0.21118 0.489257,0.35767 l 0.241642,0.22914 0.12013,-0.11584 c 0.06607,-0.0637 0.162042,-0.20107 0.213268,-0.30523 z m -4.5315404,-1.16805 c 0.3448464,-0.0724 0.65224,-0.24071 0.9151874,-0.5011 0.255885,-0.2534 0.364961,-0.42365 0.483162,-0.75416 0.07664,-0.21429 0.08239,-0.27172 0.09465,-0.94481 l 0.01305,-0.71666 -0.07438,-0.0145 c -0.0409,-0.008 -0.195111,-0.0309 -0.342678,-0.0509 -0.7562287,-0.10252 -1.5237621,-0.50202 -2.0632758,-1.07394 l -0.2057676,-0.21813 -0.1415936,0.19843 c -0.1757953,0.24636 -0.5849346,0.63261 -0.8170834,0.77139 -0.096098,0.0574 -0.2862855,0.15294 -0.4226396,0.21219 l -0.2479163,0.10775 -0.00886,0.62428 c -0.01044,0.73528 0.030261,1.00362 0.2071907,1.36605 0.2300149,0.47118 0.7556325,0.88053 1.2755612,0.99342 0.2735164,0.0593 1.054035,0.0598 1.3353949,7.1e-4 z m -1.0729931,-0.94012 c -0.2004055,-0.10452 -0.3316721,-0.19409 -0.35996,-0.24561 -0.086579,-0.1577 0.039658,-0.37659 0.2171793,-0.37659 0.051795,0 0.1979988,0.0514 0.3248967,0.11416 l 0.2307243,0.11416 0.2267023,-0.11416 c 0.2690287,-0.13548 0.3902895,-0.14441 0.4980154,-0.0367 0.089645,0.0897 0.10088,0.22229 0.027679,0.32679 -0.064041,0.0914 -0.6479174,0.38523 -0.7624287,0.38366 -0.048054,-7.2e-4 -0.229322,-0.0752 -0.4028107,-0.16572 z m -0.7334734,-1.1828 c -0.095461,-0.016 -0.1979101,-0.1536 -0.1979101,-0.26579 0,-0.2869 0.4590872,-0.33851 0.5205835,-0.0585 0.040586,0.18479 -0.1303234,0.35657 -0.3226734,0.32431 z m 2.1087591,-0.0268 c -0.2528965,-0.10633 -0.1673746,-0.48579 0.1094872,-0.48579 0.2243863,0 0.3428106,0.24215 0.204448,0.41806 -0.077119,0.098 -0.1859947,0.12152 -0.3139352,0.0677 z m -3.6639642,-0.2333 v -0.53661 H 5.782684 c -0.1524791,0 -0.1883827,0.0124 -0.2683027,0.0923 -0.090796,0.0908 -0.092267,0.0978 -0.092267,0.43949 0,0.32749 0.00468,0.35274 0.081719,0.44434 0.074279,0.0883 0.098703,0.0971 0.2683021,0.0971 h 0.186584 z m 5.810694,0.49614 c 0.09916,-0.0761 0.123525,-0.17717 0.123525,-0.51228 0,-0.32921 -0.0019,-0.33778 -0.09227,-0.4282 -0.07992,-0.0799 -0.115823,-0.0923 -0.268302,-0.0923 h -0.176035 v 0.53661 0.5366 l 0.181498,-7.2e-4 c 0.09982,-6e-4 0.204036,-0.0183 0.231582,-0.0394 z m -5.3893919,-1.63082 c 0.6159155,-0.21191 1.1285134,-0.67086 1.4371655,-1.28675 0.1049278,-0.20937 0.1670954,-0.26159 0.3114091,-0.26159 0.1174477,0 0.1627053,0.0389 0.3114489,0.26797 0.2548175,0.39239 0.6976645,0.78351 1.1389531,1.00593 0.4379953,0.22077 0.9991163,0.33541 1.6431843,0.33572 l 0.38667,2.4e-4 v -0.3106 c 0,-1.20549 -0.936728,-2.27717 -2.2568962,-2.58206 -0.3808392,-0.0879 -1.0750272,-0.0799 -1.4481321,0.0168 -0.6027432,0.15625 -0.9950157,0.37885 -1.4242824,0.80823 -0.5244881,0.52462 -0.7382296,0.99357 -0.7661556,1.68092 l -0.015706,0.38667 H 5.94952 c 0.1673659,0 0.3117696,-0.0206 0.430505,-0.0614 z"
       id="path2156"
       inkscape:connector-curvature="0" />
    <path
       style="fill:#ffffff;stroke-width:0.00085215;stroke-miterlimit:4;stroke-dasharray:none"
       d="m 1.8588475,293.50124 -0.715222,-0.47923 -6.289e-4,-0.68231 -6.245e-4,-0.68231 0.1183685,-0.0756 c 0.2723722,-0.17398 0.6357682,-0.3317 1.0284363,-0.44636 0.2347382,-0.0686 0.2521324,-0.0702 0.8239991,-0.0806 0.8482571,-0.0154 0.908018,-0.002 1.7042631,0.37787 0.5124849,0.2446 0.6413125,0.29311 0.9300392,0.35024 l 0.1972813,0.0391 v 0.54828 0.54829 l -0.073276,0.0111 c -1.0200717,0.15411 -1.7711333,0.38194 -2.1973537,0.66656 -0.1291924,0.0863 -0.28304,0.23673 -0.3348463,0.32747 -0.021484,0.0376 -0.061545,0.0427 -0.3945625,0.0494 l -0.370652,0.007 z"
       id="path2158"
       inkscape:connector-curvature="0" />
    <path
       style="fill:#ffffff;stroke-width:0.00085215;stroke-miterlimit:4;stroke-dasharray:none"
       d="m 2.5231266,296.1009 c -0.288998,-0.0221 -0.282214,-0.009 -0.305526,-0.59318 -0.011972,-0.30014 -0.010785,-0.55006 0.00317,-0.66996 0.028254,-0.24236 0.066192,-0.28242 0.2903304,-0.30658 0.2003405,-0.0216 1.1231072,0.005 1.1773173,0.0343 0.083543,0.0448 0.098314,0.14826 0.1090095,0.76412 l 0.010317,0.59413 -0.097337,0.0992 -0.097337,0.0992 -0.4518708,-0.004 c -0.2485292,-0.002 -0.5356709,-0.01 -0.6380928,-0.0178 z"
       id="path2160"
       inkscape:connector-curvature="0" />
    <path
       style="fill:#ffffff;stroke-width:0.00085215;stroke-miterlimit:4;stroke-dasharray:none"
       d="m 4.3489527,295.5895 c 0.014325,-0.67066 -0.00626,-1.00217 -0.071552,-1.15041 -0.026484,-0.0601 -0.109134,-0.17109 -0.1836658,-0.24651 l -0.135513,-0.13712 0.1308673,-0.0697 c 0.1813418,-0.0966 0.52605,-0.23325 0.5503966,-0.21821 0.011066,0.007 0.020124,0.0681 0.020124,0.13606 0,0.19815 0.058753,0.4315 0.2723225,1.08163 l 0.2005305,0.61043 -0.086212,0.2576 -0.086211,0.25761 -0.3112472,0.006 -0.311248,0.006 z"
       id="path2162"
       inkscape:connector-curvature="0" />
    <path
       style="fill:#ffffff;stroke-width:0.00085215;stroke-miterlimit:4;stroke-dasharray:none"
       d="m 6.0969481,296.10525 c -0.2945121,-0.004 -0.5354767,-0.01 -0.5354767,-0.0138 0,-0.004 0.035103,-0.11794 0.078003,-0.25312 l 0.078003,-0.2458 -0.1699079,-0.51869 c -0.2661407,-0.81246 -0.324295,-1.02938 -0.324295,-1.20964 0,-0.25739 0.00884,-0.26423 0.4367011,-0.33771 0.2028537,-0.0348 0.4103876,-0.0498 0.8033522,-0.058 l 0.529841,-0.011 0.4622017,0.22585 c 0.5576792,0.27251 0.6719769,0.31349 0.7659055,0.27458 0.036622,-0.0152 0.092341,-0.0614 0.1238164,-0.10261 l 0.057228,-0.075 v -1.43789 -1.43788 l -0.083489,-0.0855 -0.083488,-0.0855 h 1.5803813 1.5803803 l 0.01256,0.0507 c 0.08269,0.33396 0.531125,2.32983 0.604967,2.69256 l 0.09718,0.47737 -0.04244,0.1652 c -0.02335,0.0909 -0.117351,0.40363 -0.208903,0.69504 -0.243193,0.77409 -0.240887,0.76354 -0.200593,0.91877 0.01851,0.0713 0.05375,0.18798 0.07831,0.25928 l 0.04467,0.12965 -2.5747147,-0.005 c -1.4160928,-0.003 -2.8156797,-0.008 -3.1101925,-0.0117 z"
       id="path2164"
       inkscape:connector-curvature="0" />
    <path
       style="fill:#ffffff;stroke-width:0.00085215;stroke-miterlimit:4;stroke-dasharray:none"
       d="M 7.5117362,293.08625 C 7.2010509,292.93416 7.0689245,292.898 6.8238113,292.898 c -0.083561,0 -0.183819,-0.006 -0.2227948,-0.0142 l -0.070869,-0.0142 0.00604,-0.5213 0.00604,-0.52131 0.2868849,-0.015 c 0.3353513,-0.0175 0.3721513,-0.0278 0.7217203,-0.20238 0.145516,-0.0727 0.269803,-0.13212 0.2761941,-0.13212 0.018368,0 0.012828,1.6994 -0.00561,1.7272 -0.01108,0.0167 -0.1135638,-0.0225 -0.3096687,-0.11853 z"
       id="path2166"
       inkscape:connector-curvature="0" />
    <path
       style="fill:#ffffff;stroke-width:0.00085215;stroke-miterlimit:4;stroke-dasharray:none"
       d="m 5.8827575,291.23621 c -0.061962,-0.012 -0.063732,-0.0747 -0.00912,-0.32229 l 0.037298,-0.1691 1.059682,-0.004 1.059682,-0.004 -0.5072946,0.25699 -0.5072945,0.25699 -0.5411139,-0.002 c -0.297613,-7.2e-4 -0.5639423,-0.006 -0.5918438,-0.0116 z"
       id="path2168"
       inkscape:connector-curvature="0" />
    <path
       style="fill:#ffffff;stroke-width:0.00085215;stroke-miterlimit:4;stroke-dasharray:none"
       d="m 4.9073456,290.86639 c -0.3950086,-0.19382 -0.5573029,-0.2571 -0.8101944,-0.31594 -0.2721506,-0.0633 -0.2717549,-0.0632 -0.2717549,-0.11247 0,-0.097 0.074554,-0.39706 0.1389176,-0.55908 0.093174,-0.23456 0.2344627,-0.43903 0.4349644,-0.62949 0.2307854,-0.21922 0.353075,-0.29522 0.7338105,-0.45607 0.5696637,-0.24065 0.7769522,-0.31438 0.7850313,-0.2792 0.00396,0.0172 -0.1095901,0.47032 -0.2523087,1.00696 -0.1427187,0.53664 -0.2808477,1.06195 -0.3069534,1.16736 -0.061861,0.24975 -0.090473,0.33819 -0.1094282,0.33819 -0.00849,0 -0.1624303,-0.0721 -0.3420842,-0.16026 z"
       id="path2170"
       inkscape:connector-curvature="0" />
    <path
       style="fill:#ffffff;stroke-width:0.00085215;stroke-miterlimit:4;stroke-dasharray:none"
       d="m 6.1420409,290.17629 c -0.034103,-0.005 -0.062149,-0.0163 -0.062322,-0.0248 -1.899e-4,-0.008 0.117857,-0.45237 0.2622937,-0.98643 l 0.2626124,-0.97103 0.2168174,-0.0812 c 0.2301788,-0.0862 0.3184744,-0.11489 0.31796,-0.10325 -0.00115,0.0264 -0.2479925,0.97529 -0.3962426,1.52333 l -0.1783747,0.65941 -0.1803713,-0.004 c -0.099204,-0.002 -0.2082727,-0.008 -0.2423748,-0.0127 z"
       id="path2172"
       inkscape:connector-curvature="0" />
    <path
       style="fill:#ffffff;stroke-width:0.00085215;stroke-miterlimit:4;stroke-dasharray:none"
       d="m 7.4779169,290.17255 c -0.1973906,-0.008 -0.3255901,-0.0229 -0.3235582,-0.0365 0.010684,-0.0716 0.579855,-2.12243 0.5930849,-2.137 0.00881,-0.01 0.1420005,-7.2e-4 0.2959877,0.0193 0.3192294,0.0421 1.0890817,0.0338 1.3569326,-0.0147 0.083904,-0.0152 0.1574889,-0.0227 0.1635211,-0.0166 0.036917,0.0369 0.599275,2.14453 0.577912,2.16589 -0.02459,0.0246 -2.1753618,0.0404 -2.6638801,0.0196 z"
       id="path2174"
       inkscape:connector-curvature="0" />
    <path
       style="fill:#ffffff;stroke-width:0.00085215;stroke-miterlimit:4;stroke-dasharray:none"
       d="m 10.865517,290.17707 c -0.06511,-0.005 -0.118369,-0.013 -0.118369,-0.0173 0,-0.004 -0.06516,-0.24471 -0.1448,-0.5343 -0.206262,-0.75001 -0.423745,-1.60011 -0.41229,-1.61156 0.01404,-0.014 0.473016,0.14979 0.504905,0.18022 0.02831,0.0271 0.55642,1.95253 0.540017,1.96894 -0.0157,0.0157 -0.24205,0.0243 -0.369463,0.014 z"
       id="path2176"
       inkscape:connector-curvature="0" />
    <path
       style="fill:#ffffff;stroke-width:0.00085215;stroke-miterlimit:4;stroke-dasharray:none"
       d="m 12.249411,291.94541 c -0.225896,-0.96963 -0.391802,-1.63842 -0.644309,-2.59726 -0.12392,-0.47056 -0.221104,-0.85976 -0.215967,-0.8649 0.0144,-0.0144 0.855407,0.32794 1.074912,0.43756 0.363996,0.18177 0.64334,0.46872 0.831886,0.85452 0.184176,0.37685 0.180349,0.34428 0.1954,1.66279 l 0.01332,1.16678 h -0.550804 -0.550801 z"
       id="path2178"
       inkscape:connector-curvature="0" />
    <path
       style="fill:#ffffff;stroke-width:0.00085215;stroke-miterlimit:4;stroke-dasharray:none"
       d="m 12.429662,296.10257 c -0.05902,-0.0129 -0.07266,-0.0361 -0.152151,-0.25852 l -0.08732,-0.24427 0.178532,-0.55612 c 0.09819,-0.30588 0.201532,-0.64237 0.229642,-0.74778 0.06953,-0.2607 0.06964,-0.54621 3.22e-4,-0.84077 -0.02857,-0.12141 -0.04626,-0.23555 -0.03932,-0.25365 0.0105,-0.0273 0.0906,-0.0329 0.475536,-0.0329 h 0.462909 l -4.1e-5,0.41148 -4.1e-5,0.41147 -0.09974,0.063 c -0.162324,0.10256 -0.283147,0.23574 -0.358896,0.39563 l -0.07113,0.15012 v 0.76095 0.76094 l -0.236737,-0.003 c -0.130206,-10e-4 -0.265913,-0.009 -0.301571,-0.0169 z"
       id="path2180"
       inkscape:connector-curvature="0" />
    <path
       style="fill:#ffffff;stroke-width:0.00085215;stroke-miterlimit:4;stroke-dasharray:none"
       d="m 13.604907,296.03899 -0.08455,-0.0878 10e-4,-0.56272 c 0.0011,-0.61031 0.01426,-0.73452 0.08561,-0.80587 0.04487,-0.0449 0.07081,-0.0468 0.67334,-0.0483 0.705203,-0.002 0.740796,0.005 0.788861,0.14519 0.01792,0.0524 0.02733,0.26918 0.02818,0.64866 0.0014,0.61799 -0.01261,0.70708 -0.117297,0.74688 -0.02921,0.0111 -0.331543,0.0273 -0.671847,0.0361 l -0.618735,0.0158 z"
       id="path2182"
       inkscape:connector-curvature="0" />
    <path
       style="fill:#ffffff;stroke-width:0.00085215;stroke-miterlimit:4;stroke-dasharray:none"
       d="m 13.304134,288.83597 c -0.348385,-0.31918 -0.469071,-0.38218 -1.670961,-0.87222 -0.270304,-0.1102 -0.628432,-0.25377 -0.795839,-0.31903 -0.167407,-0.0653 -0.311666,-0.12513 -0.320576,-0.13304 -0.0089,-0.008 0.06079,-0.10043 0.15488,-0.20561 0.272319,-0.30439 0.427164,-0.55883 0.555435,-0.91271 0.03146,-0.0868 0.06469,-0.17669 0.07383,-0.19974 0.01428,-0.0361 0.03568,-0.0406 0.151765,-0.0322 l 0.135143,0.01 0.228795,0.23507 c 0.125837,0.12928 0.351288,0.38218 0.501002,0.56199 0.372249,0.44707 0.553028,0.60447 0.808187,0.70366 0.129265,0.0502 0.415295,0.0683 0.675743,0.0425 0.123649,-0.0122 0.228618,-0.0184 0.233264,-0.0137 0.0047,0.004 -0.0029,0.11408 -0.01682,0.24319 -0.04559,0.42337 -0.163574,0.73036 -0.365727,0.95155 -0.06263,0.0685 -0.121378,0.12459 -0.130552,0.12459 -0.0092,0 -0.107079,-0.0828 -0.217565,-0.18405 z"
       id="path2184"
       inkscape:connector-curvature="0" />
    <path
       style="fill:#ffffff;stroke-width:0.00085215;stroke-miterlimit:4;stroke-dasharray:none"
       d="m 8.0497599,287.46334 c -0.5656295,-0.1 -1.1586856,-0.57731 -1.380053,-1.11076 -0.1156028,-0.27859 -0.1403149,-0.44736 -0.154452,-1.05486 -0.00712,-0.30499 -0.00576,-0.61187 0.00302,-0.68194 l 0.015922,-0.1274 0.3422224,-0.16524 c 0.2341353,-0.11304 0.3956302,-0.2084 0.5113208,-0.3019 0.2132257,-0.17233 0.548341,-0.51986 0.6614084,-0.68591 l 0.086475,-0.127 0.2524476,0.251 c 0.6017079,0.59827 1.2411757,0.91306 2.1283579,1.04774 0.152113,0.0231 0.283265,0.0487 0.29145,0.0568 0.0082,0.008 0.004,0.33692 -0.0092,0.73051 -0.02277,0.67723 -0.02716,0.72443 -0.08176,0.8797 -0.178746,0.50828 -0.508076,0.88762 -0.973097,1.12087 -0.3234259,0.16223 -0.3949921,0.17495 -1.025862,0.18233 -0.3038136,0.004 -0.6045077,-0.003 -0.6682106,-0.014 z m 0.8330856,-0.84306 c 0.2752832,-0.12018 0.5120266,-0.26396 0.5474676,-0.3325 0.07425,-0.14358 0.00763,-0.3313 -0.1341964,-0.37811 -0.1013966,-0.0335 -0.2093405,-0.006 -0.4512325,0.11588 l -0.1791381,0.0901 -0.1937155,-0.0908 c -0.2746364,-0.1287 -0.3660741,-0.15225 -0.452417,-0.11648 -0.1745032,0.0723 -0.2205717,0.30582 -0.085132,0.43156 0.091722,0.0851 0.6368418,0.35791 0.7145632,0.35753 0.031708,-1.6e-4 0.1369189,-0.0349 0.2338007,-0.0772 z M 7.7282298,285.2934 c 0.1478751,-0.0995 0.1616324,-0.31554 0.026844,-0.42157 -0.076332,-0.0601 -0.2405186,-0.0607 -0.3377767,-10e-4 -0.134359,0.0819 -0.141307,0.27853 -0.014519,0.41087 0.079054,0.0825 0.2134301,0.0875 0.3254513,0.0122 z m 2.1572665,0.0164 c 0.069531,-0.0487 0.1176207,-0.15001 0.1176207,-0.24778 0,-0.0635 -0.017483,-0.0998 -0.076658,-0.15894 -0.066221,-0.0663 -0.091626,-0.0767 -0.1866279,-0.0767 -0.1241869,0 -0.1941328,0.0389 -0.2441375,0.13553 -0.065279,0.12622 -0.021678,0.28377 0.096234,0.34775 0.081309,0.0441 0.2306552,0.0442 0.2935688,10e-5 z"
       id="path2186"
       inkscape:connector-curvature="0" />
    <path
       style="fill:#ffffff;stroke-width:0.00085215;stroke-miterlimit:4;stroke-dasharray:none"
       d="m 11.355902,285.0862 v -0.53515 l 0.182339,0.008 c 0.177454,0.008 0.184399,0.0105 0.259283,0.0922 l 0.07695,0.084 v 0.31671 c 0,0.47033 -0.03422,0.52724 -0.33256,0.55301 l -0.186007,0.016 z"
       id="path2188"
       inkscape:connector-curvature="0" />
    <path
       style="fill:#ffffff;stroke-width:0.00085215;stroke-miterlimit:4;stroke-dasharray:none"
       d="m 5.7254039,283.67405 c 0.030218,-0.75592 0.2180405,-1.17285 0.7813683,-1.73446 0.3913487,-0.39015 0.7188598,-0.59079 1.2078824,-0.73996 0.3530333,-0.1077 0.4824439,-0.12457 0.958223,-0.12491 0.3411317,-2.5e-4 0.4826013,0.009 0.6312995,0.0408 1.0060849,0.21567 1.8605709,0.93251 2.1621489,1.81386 0.08102,0.23678 0.117348,0.44899 0.131333,0.76716 l 0.01327,0.30183 -0.471345,-0.0122 c -0.527627,-0.0137 -0.832886,-0.0591 -1.1861979,-0.17652 -0.5498347,-0.18271 -1.089788,-0.58507 -1.4451496,-1.07689 -0.2175268,-0.30105 -0.2628311,-0.34135 -0.383759,-0.34135 -0.127829,0 -0.2189219,0.0709 -0.3009723,0.23404 -0.2905089,0.57784 -0.8073424,1.06066 -1.3696961,1.27954 -0.1589659,0.0619 -0.2176771,0.0723 -0.461747,0.0822 l -0.2796239,0.0114 z"
       id="path2190"
       inkscape:connector-curvature="0" />
    <path
       style="fill:#ffffff;stroke-width:0.00085215;stroke-miterlimit:4;stroke-dasharray:none"
       d="m 5.647135,285.59947 c -0.033485,-0.005 -0.091027,-0.0436 -0.1278641,-0.0856 -0.081888,-0.0933 -0.1036861,-0.23169 -0.087949,-0.55849 l 0.010929,-0.2269 0.092558,-0.0863 c 0.089132,-0.0831 0.098432,-0.0863 0.2512561,-0.0863 h 0.1586983 v 0.52984 0.52984 l -0.1183692,-0.004 c -0.065106,-0.002 -0.1457678,-0.008 -0.1792561,-0.0127 z"
       id="path2192"
       inkscape:connector-curvature="0" />
  </g>
</svg>
