<?xml version="1.0" encoding="UTF-8" standalone="no"?>
<!-- Created with Inkscape (http://www.inkscape.org/) -->

<svg
   xmlns:dc="http://purl.org/dc/elements/1.1/"
   xmlns:cc="http://creativecommons.org/ns#"
   xmlns:rdf="http://www.w3.org/1999/02/22-rdf-syntax-ns#"
   xmlns:svg="http://www.w3.org/2000/svg"
   xmlns="http://www.w3.org/2000/svg"
   xmlns:sodipodi="http://sodipodi.sourceforge.net/DTD/sodipodi-0.dtd"
   xmlns:inkscape="http://www.inkscape.org/namespaces/inkscape"
   width="64"
   height="64"
   viewBox="0 0 16.933333 16.933334"
   version="1.1"
   id="svg8"
   inkscape:version="0.92.5 (2060ec1f9f, 2020-04-08)"
   sodipodi:docname="hairdresser_64x64.svg">
  <defs
     id="defs2" />
  <sodipodi:namedview
     id="base"
     pagecolor="#ffffff"
     bordercolor="#666666"
     borderopacity="1.0"
     inkscape:pageopacity="0.0"
     inkscape:pageshadow="2"
     inkscape:zoom="5.6"
     inkscape:cx="64.128695"
     inkscape:cy="36.036433"
     inkscape:document-units="mm"
     inkscape:current-layer="layer1"
     showgrid="false"
     units="px"
     inkscape:window-width="1208"
     inkscape:window-height="987"
     inkscape:window-x="1992"
     inkscape:window-y="0"
     inkscape:window-maximized="1" />
  <metadata
     id="metadata5">
    <rdf:RDF>
      <cc:Work
         rdf:about="">
        <dc:format>image/svg+xml</dc:format>
        <dc:type
           rdf:resource="http://purl.org/dc/dcmitype/StillImage" />
        <dc:title></dc:title>
      </cc:Work>
    </rdf:RDF>
  </metadata>
  <g
     inkscape:label="Layer 1"
     inkscape:groupmode="layer"
     id="layer1"
     transform="translate(0,-280.06665)">
    <path
       style="fill:#ffffff;stroke-width:0.3239595;stroke-miterlimit:4;stroke-dasharray:none"
       d=""
       id="path11271"
       inkscape:connector-curvature="0"
       transform="matrix(0.26458333,0,0,0.26458333,0,280.06665)" />
    <path
       style="fill:#000000;stroke-width:0.0316219"
       d="m 4.8456351,296.61121 c -0.8876179,-0.0576 -1.8301094,-0.21516 -2.4665083,-0.41238 -0.4100306,-0.12707 -0.9577423,-0.39287 -1.217443,-0.59081 -0.2451108,-0.18683 -0.78137427,-0.76654 -0.80828977,-0.87377 -0.033823,-0.13477 0.06248,-0.2644 0.2343262,-0.31544 0.81951267,-0.24337 1.00898527,-0.94606 0.78134897,-2.89775 -0.1728568,-1.48203 -0.2058044,-1.80197 -0.2409837,-2.34002 -0.1124791,-1.72035 0.2103967,-2.93672 0.9901538,-3.73021 0.6242805,-0.63528 1.4071937,-0.95351 2.534117,-1.03002 0.2483431,-0.0169 0.3556894,-0.0405 0.5217613,-0.11509 0.9798409,-0.43979 2.2202636,-0.66287 3.3178104,-0.59668 0.464324,0.028 0.553453,0.071 0.568806,0.27436 0.0076,0.10011 -0.0067,0.13939 -0.07296,0.20168 -0.07795,0.0732 -0.09784,0.0765 -0.373038,0.0622 -1.2088981,-0.0629 -2.2223844,0.1101 -3.1999089,0.54608 -0.2509051,0.11191 -0.3257763,0.13005 -0.6324384,0.15324 -0.7803404,0.059 -1.1574175,0.15147 -1.6443387,0.40319 -0.2295129,0.11865 -0.342742,0.20528 -0.5850052,0.4476 -0.5560341,0.55615 -0.8030389,1.16067 -0.8886163,2.1748 -0.056603,0.6708 -7.97e-4,1.51998 0.2133819,3.24842 0.072109,0.58187 0.086538,0.82501 0.088182,1.48623 0.00167,0.65742 -0.00746,0.82729 -0.053973,1.00873 -0.1173881,0.45784 -0.3411169,0.79754 -0.6600764,1.00222 l -0.1636997,0.10504 0.2026873,0.18642 c 0.4680924,0.43053 1.1794009,0.71802 2.2423948,0.90633 0.335763,0.0595 1.1544424,0.15786 1.3202144,0.15865 l 0.071145,3.6e-4 v -0.95099 -0.95099 L 4.7452112,293.9615 c -0.3686309,-0.43362 -0.6961425,-1.01193 -0.8980805,-1.58581 -0.064103,-0.18217 -0.1360349,-0.34124 -0.1598435,-0.35349 -0.023809,-0.0122 -0.1357835,-0.0638 -0.2488322,-0.11459 -0.3818615,-0.17152 -0.6758154,-0.51408 -0.8201329,-0.95577 -0.1510682,-0.46233 -0.1510407,-1.15977 6.02e-5,-1.56362 0.1130407,-0.30213 0.3953827,-0.48797 0.6817257,-0.44873 l 0.138347,0.019 v -0.25074 c 0,-0.74847 0.2269596,-1.63527 0.5440918,-2.12594 0.3628872,-0.56145 0.7244942,-0.82975 0.9185576,-0.68153 0.028461,0.0217 0.1052777,0.1458 0.1706997,0.27567 0.1723974,0.34223 0.4620416,0.6267 0.8043583,0.79 0.3796734,0.18111 0.5849676,0.21258 1.546653,0.2371 1.1805442,0.0301 1.4710082,0.0736 1.9289352,0.28921 0.2886168,0.13586 0.6091788,0.37669 0.8937224,0.67143 l 0.213044,0.22067 v 0.18886 c 0,0.10387 0.0083,0.23033 0.01843,0.28101 0.01678,0.0839 0.02824,0.091 0.128127,0.0794 0.162657,-0.019 0.372472,0.0514 0.488309,0.16391 0.372184,0.36137 0.41539,1.4141 0.08638,2.10457 -0.137313,0.28817 -0.42753,0.57445 -0.710959,0.7013 -0.118705,0.0531 -0.235308,0.10662 -0.259117,0.11887 -0.02381,0.0122 -0.0961,0.17131 -0.160653,0.35347 -0.1977656,0.55808 -0.4827354,1.06715 -0.8531444,1.52402 l -0.2236,0.2758 v 0.9533 0.95328 l 0.276692,-0.0219 c 1.6355324,-0.12914 2.8560154,-0.52193 3.4160154,-1.09939 l 0.135242,-0.13945 -0.180653,-0.12443 c -0.318009,-0.21902 -0.516151,-0.55347 -0.634228,-1.07054 -0.09457,-0.41414 -0.06976,-1.34767 0.06688,-2.51648 0.171474,-1.46676 0.208457,-1.9154 0.2086,-2.53058 1.32e-4,-0.60231 -0.03229,-0.94746 -0.126793,-1.34967 -0.141456,-0.602 -0.389831,-1.06278 -0.787852,-1.46159 -0.192728,-0.19311 -0.223615,-0.23951 -0.223615,-0.33595 0,-0.14162 0.116243,-0.26713 0.247408,-0.26713 0.181725,0 0.59739,0.41769 0.870721,0.87497 0.231219,0.38682 0.408076,0.91675 0.499694,1.49727 0.05451,0.34537 0.05491,1.84652 6.22e-4,2.32361 -0.02177,0.19132 -0.09095,0.77474 -0.153727,1.2965 -0.13967,1.16076 -0.161946,2.02132 -0.06238,2.4098 0.112364,0.43841 0.349408,0.7123 0.709,0.81924 0.212104,0.063 0.323546,0.16636 0.323546,0.2999 0,0.075 -0.06068,0.16088 -0.294811,0.41723 -0.376915,0.41269 -0.593839,0.58651 -0.97853,0.78411 -0.50148,0.2576 -1.161153,0.45287 -1.972683,0.58396 -0.8673324,0.14011 -0.9791134,0.14584 -3.0467349,0.15618 -1.1043943,0.006 -2.1929785,-0.002 -2.4190751,-0.0166 z m 3.5890859,-1.26167 v -0.75671 l -0.139749,0.0781 c -0.204782,0.11446 -0.6025387,0.25201 -0.8602098,0.29747 -0.1435625,0.0254 -0.3728661,0.0338 -0.6324378,0.0234 -0.4423565,-0.0177 -0.7622145,-0.0975 -1.1257125,-0.28064 -0.099509,-0.0501 -0.1884452,-0.0911 -0.197637,-0.0911 -0.0092,0 -0.016716,0.3344 -0.016716,0.74311 v 0.74312 h 1.4862297 1.4862292 z m -0.9567999,-0.93512 c 0.7777169,-0.18337 1.4123639,-0.78128 1.8724009,-1.76403 0.3632284,-0.77594 0.5108444,-1.48898 0.5742154,-2.77367 0.0193,-0.39132 0.028,-0.83923 0.01932,-0.99535 l -0.01578,-0.28385 -0.208929,-0.19795 C 9.317895,288.01943 8.984057,287.85718 8.466346,287.79069 c -0.147832,-0.019 -0.681451,-0.047 -1.1858209,-0.0623 -1.0196277,-0.0309 -1.1458201,-0.0512 -1.5883258,-0.25618 -0.3969572,-0.18386 -0.7263208,-0.4586 -0.9438668,-0.78733 l -0.084398,-0.12753 -0.1063218,0.13392 c -0.3321308,0.41836 -0.5273369,1.05398 -0.5789602,1.88517 -0.029251,0.47092 0.00645,1.79002 0.060016,2.2173 0.2096112,1.67221 0.9118793,2.94958 1.8938975,3.44485 0.3085019,0.15559 0.5981236,0.21961 1.0001166,0.22109 0.2004121,7.1e-4 0.4315068,-0.0185 0.5452402,-0.0453 z m -3.9309452,-3.29654 c -0.056198,-0.35542 -0.1085158,-0.97361 -0.1085158,-1.28226 0,-0.28444 -0.015093,-0.31714 -0.1636366,-0.35442 -0.1187815,-0.0298 -0.1755826,0.0707 -0.2208254,0.39058 -0.044409,0.314 -0.00348,0.71809 0.1010592,0.99715 0.066458,0.17744 0.3219245,0.49402 0.3986556,0.49402 0.02102,0 0.018708,-0.0841 -0.00674,-0.24507 z m 6.9859711,0.0854 c 0.256953,-0.28579 0.382323,-0.81257 0.31491,-1.32317 -0.04169,-0.3158 -0.105761,-0.42904 -0.225697,-0.39894 -0.04633,0.0117 -0.09991,0.0341 -0.119075,0.0501 -0.02112,0.0175 -0.04274,0.23136 -0.0549,0.54294 -0.01103,0.2827 -0.04122,0.65631 -0.0671,0.83023 -0.07886,0.53005 -0.0706,0.54631 0.151858,0.29888 z m 4.305209,-3.25273 c -0.318428,-0.0939 -1.320105,-0.47615 -1.456426,-0.5558 -0.386935,-0.22608 -0.647837,-0.74291 -0.604949,-1.19837 0.01725,-0.18317 0.26096,-0.91833 0.381347,-1.15034 l 0.05353,-0.10316 -0.08798,-0.0341 c -0.04839,-0.0187 -0.163914,-0.0627 -0.256727,-0.0978 l -0.168751,-0.0638 -0.08423,0.0787 c -0.125675,0.11749 -0.277344,0.18411 -0.462694,0.20325 -0.202965,0.0209 -0.362479,-0.027 -0.562877,-0.16917 l -0.150798,-0.10698 -1.4551736,0.53795 c -0.8003454,0.29587 -1.4948594,0.53795 -1.5433664,0.53795 -0.197886,0 -0.319218,-0.30256 -0.176691,-0.44059 0.03392,-0.0328 0.709121,-0.29716 1.5004594,-0.58736 0.7913376,-0.2902 1.4584386,-0.53853 1.4824446,-0.55186 0.05029,-0.0279 0.04597,-0.0296 -1.700611,-0.66829 -1.126868,-0.41206 -1.251534,-0.46464 -1.305094,-0.55044 -0.101683,-0.1629 0.01654,-0.39528 0.201099,-0.39528 0.04939,0 0.744812,0.24207 1.5453814,0.53792 l 1.4555796,0.53792 0.117162,-0.094 c 0.317448,-0.25459 0.776433,-0.247 1.053141,0.0174 l 0.08219,0.0785 0.1866,-0.0691 c 0.10263,-0.038 0.217993,-0.0807 0.256361,-0.0949 l 0.06976,-0.0258 -0.08888,-0.19895 c -0.04889,-0.10942 -0.144016,-0.35548 -0.211401,-0.54679 -0.107269,-0.30455 -0.12255,-0.38326 -0.122779,-0.63244 -2.28e-4,-0.25381 0.01052,-0.30744 0.09941,-0.49582 0.113525,-0.24058 0.310797,-0.46999 0.498532,-0.57975 0.235783,-0.13786 1.499776,-0.58658 1.706752,-0.6059 0.550507,-0.0514 1.067051,0.28759 1.280129,0.84011 0.05291,0.13722 0.110512,0.31151 0.127991,0.38731 0.09114,0.39528 -0.02137,0.80996 -0.307938,1.13499 -0.209141,0.23721 -0.225067,0.24427 -2.235921,0.99147 -0.573938,0.21326 -1.039573,0.40092 -1.034745,0.41701 0.0048,0.0161 0.417493,0.17992 0.917035,0.36408 1.995072,0.73549 2.155017,0.80663 2.373829,1.05585 0.323341,0.36826 0.396604,0.85246 0.208376,1.37715 -0.114899,0.32028 -0.212061,0.47842 -0.395032,0.64292 -0.340675,0.3063 -0.754297,0.40271 -1.18405,0.276 z m 0.546411,-0.51427 c 0.231354,-0.0583 0.419322,-0.26676 0.524089,-0.58134 0.04603,-0.13824 0.08356,-0.3082 0.08339,-0.37771 -4.18e-4,-0.17271 -0.125283,-0.42701 -0.267029,-0.54384 -0.140033,-0.11543 -1.81323,-0.74574 -1.939277,-0.73054 -0.117876,0.0142 -0.180072,0.12189 -0.342266,0.59257 -0.162231,0.47079 -0.169852,0.60937 -0.04678,0.85062 0.126914,0.24877 0.274105,0.32485 1.394027,0.7206 0.333032,0.11767 0.380817,0.12328 0.593843,0.0696 z m -3.121163,-3.02772 c 0.05573,-0.0557 0.09243,-0.12576 0.09243,-0.17635 0,-0.11933 -0.157694,-0.26879 -0.283602,-0.26879 -0.230994,0 -0.342286,0.30063 -0.170298,0.46003 0.115058,0.10663 0.245311,0.10127 0.361467,-0.0148 z m 2.47108,-1.45996 c 0.516845,-0.19122 0.90696,-0.35396 0.973274,-0.406 0.185749,-0.14579 0.269098,-0.32927 0.266723,-0.58717 -0.0051,-0.56199 -0.415396,-1.01823 -0.859763,-0.95623 -0.06515,0.009 -0.416358,0.12722 -0.780464,0.2625 -0.740088,0.27498 -0.846922,0.34369 -0.966474,0.62159 -0.09412,0.21878 -0.07512,0.37653 0.105074,0.87246 0.152192,0.41886 0.211453,0.51199 0.32578,0.51199 0.04029,0 0.461422,-0.14361 0.93585,-0.31914 z"
       id="path11476"
       inkscape:connector-curvature="0" />
    <path
       style="fill:none;stroke:#000000;stroke-width:0.00358548;stroke-linecap:butt;stroke-linejoin:miter;stroke-miterlimit:4;stroke-dasharray:none;stroke-opacity:1"
       d="m 8.897894,284.06062 1.533262,0.559 0.894402,0.76663"
       id="path11478"
       inkscape:connector-curvature="0" />
    <path
       style="fill:#ffffff;stroke-width:0.00362188;stroke-miterlimit:4;stroke-dasharray:none"
       d="m 4.7344963,296.05142 c -1.8577306,-0.19025 -2.7469156,-0.46526 -3.4432799,-1.06496 -0.091433,-0.0787 -0.1662233,-0.15036 -0.1662001,-0.15914 2.24e-5,-0.009 0.064566,-0.0567 0.1434276,-0.10656 0.2907652,-0.1837 0.5552306,-0.58925 0.6595692,-1.01144 0.073071,-0.29568 0.052683,-1.79952 -0.033779,-2.49156 -0.1483815,-1.18765 -0.1978703,-1.73296 -0.21632,-2.38362 -0.044104,-1.55531 0.1911282,-2.3292 0.9311188,-3.06329 0.1875488,-0.18606 0.3303606,-0.29371 0.5216402,-0.39323 0.471916,-0.24552 0.7731454,-0.32532 1.5267143,-0.40445 0.4298476,-0.0451 0.5022501,-0.0625 0.8562867,-0.20512 0.9560222,-0.38515 1.6386421,-0.51107 2.7803989,-0.51285 0.575755,-7.2e-4 0.643121,-0.007 0.702744,-0.0606 0.06483,-0.0585 0.0759,-0.0559 0.6568904,0.15814 0.325019,0.11974 0.6018056,0.22205 0.6150816,0.22733 0.01327,0.005 -0.223901,0.10118 -0.5270586,0.21308 -1.1676794,0.43101 -1.4657344,0.55568 -1.5175754,0.63481 -0.06772,0.10336 -0.02131,0.28362 0.09533,0.37019 l 0.08724,0.0647 0.359963,-0.1221 c 0.19798,-0.0672 0.745999,-0.2633 1.2178214,-0.43587 l 0.8578576,-0.31377 0.151288,0.13032 c 0.146327,0.12604 0.150837,0.13517 0.13753,0.27836 -0.01356,0.14596 -0.0104,0.15174 0.226158,0.4125 0.412423,0.45462 0.581506,0.7627 0.736551,1.34206 0.177896,0.66474 0.190918,1.74636 0.03758,3.12103 -0.04508,0.40408 -0.106165,0.9503 -0.135755,1.21383 -0.03498,0.31157 -0.05455,0.75287 -0.05594,1.26175 -0.0024,0.86297 0.01725,0.99253 0.212383,1.4031 0.0945,0.19884 0.359981,0.5039 0.536136,0.61607 l 0.07986,0.0509 -0.111801,0.1175 c -0.516354,0.54266 -1.769035,0.96837 -3.194294,1.08555 -0.131765,0.0108 -0.293476,0.0275 -0.359359,0.0372 l -0.119785,0.0175 v -0.94644 -0.94643 l 0.215615,-0.26856 c 0.389015,-0.48454 0.5838354,-0.83574 0.91842,-1.65565 0.08874,-0.21747 0.08937,-0.2181 0.331236,-0.3354 0.444302,-0.21547 0.747282,-0.59491 0.884533,-1.10775 0.07758,-0.28988 0.09472,-0.87619 0.03396,-1.16176 -0.100555,-0.47261 -0.308031,-0.69478 -0.68689,-0.7355 l -0.179584,-0.0193 -0.0092,-0.25555 -0.0092,-0.25554 -0.262317,-0.26471 c -0.5151426,-0.51984 -1.00562,-0.78381 -1.614731,-0.86899 -0.128925,-0.018 -0.631364,-0.0478 -1.1165293,-0.0662 -1.004419,-0.038 -1.2531679,-0.0756 -1.5981778,-0.24121 -0.3040392,-0.14592 -0.6433418,-0.4741 -0.8011746,-0.77492 -0.05877,-0.11201 -0.1337981,-0.2306 -0.1667298,-0.26353 -0.1707787,-0.17078 -0.5040253,0.0343 -0.863031,0.53107 -0.3676085,0.50869 -0.6342759,1.45449 -0.6342759,2.2496 v 0.24854 l -0.1517291,-0.0141 c -0.1227666,-0.0114 -0.1851708,0.004 -0.3269218,0.078 -0.3384715,0.17794 -0.4658304,0.54739 -0.4382055,1.27117 0.02507,0.65678 0.1737212,1.03128 0.5509774,1.38807 0.1050472,0.0994 0.2688701,0.20905 0.408651,0.27363 l 0.233314,0.1078 0.089704,0.23325 c 0.271793,0.70673 0.5226786,1.16595 0.880938,1.61248 l 0.2226477,0.27749 v 0.95246 c 0,0.52386 -0.010782,0.95016 -0.023954,0.94735 -0.01318,-0.003 -0.074268,-0.0103 -0.1357574,-0.0166 z"
       id="path11480"
       inkscape:connector-curvature="0" />
    <path
       style="fill:#ffffff;stroke-width:0.00362188;stroke-miterlimit:4;stroke-dasharray:none"
       d="m 6.4297722,294.3944 c -1.1683013,-0.25337 -2.0680846,-1.5671 -2.3507172,-3.43218 -0.063038,-0.41596 -0.1064094,-1.79402 -0.075088,-2.38566 0.043503,-0.82185 0.2519978,-1.49677 0.586779,-1.89949 l 0.07037,-0.0847 0.1507335,0.19955 c 0.2579168,0.34144 0.6476406,0.61945 1.0996346,0.78441 0.3023706,0.11035 0.5808448,0.1399 1.7965438,0.19068 1.1382865,0.0475 1.4596115,0.14918 1.9676565,0.62249 l 0.249538,0.23247 -0.0051,0.63506 c -0.01189,1.46417 -0.156372,2.37334 -0.510784,3.21413 -0.443218,1.05147 -1.158503,1.75794 -1.9495896,1.92556 -0.2713105,0.0575 -0.7590735,0.0564 -1.0299224,-0.002 z"
       id="path11482"
       inkscape:connector-curvature="0" />
    <path
       style="fill:#ffffff;stroke-width:0.00362188;stroke-miterlimit:4;stroke-dasharray:none"
       d="m 3.3827169,291.18552 c -0.080358,-0.0894 -0.1752203,-0.24032 -0.2108061,-0.33543 -0.1925425,-0.51462 -0.1346749,-1.35724 0.09321,-1.35724 0.1147043,0 0.1511487,0.12038 0.1707316,0.56397 0.010202,0.23113 0.041713,0.60978 0.07003,0.84145 0.028309,0.23168 0.045054,0.42764 0.037207,0.43549 -0.00785,0.008 -0.080013,-0.0588 -0.1603725,-0.14824 z"
       id="path11484"
       inkscape:connector-curvature="0" />
    <path
       style="fill:#ffffff;stroke-width:0.00362188;stroke-miterlimit:4;stroke-dasharray:none"
       d="m 10.356455,291.29096 c 0,-0.0369 0.02057,-0.25176 0.04571,-0.47743 0.02514,-0.22567 0.05536,-0.59403 0.06716,-0.81857 0.02285,-0.43471 0.05298,-0.51493 0.18629,-0.49583 0.03751,0.005 0.08851,0.0523 0.114592,0.10552 0.06345,0.12936 0.0848,0.74012 0.03399,0.97228 -0.05461,0.24951 -0.199861,0.54142 -0.333909,0.67106 -0.10202,0.0987 -0.113828,0.10312 -0.113829,0.043 z"
       id="path11486"
       inkscape:connector-curvature="0" />
    <path
       style="fill:#ffffff;stroke-width:0.00362188;stroke-miterlimit:4;stroke-dasharray:none"
       d="m 5.4696728,295.42625 c 2.689e-4,-0.37334 0.01347,-0.6993 0.029331,-0.72436 0.023932,-0.0378 0.071435,-0.0262 0.2790119,0.0681 0.4506992,0.20477 1.0961401,0.29309 1.5901851,0.21759 0.2561996,-0.0391 0.6989526,-0.17981 0.9199506,-0.29227 l 0.119786,-0.0609 v 0.73534 0.73534 H 6.9385615 5.4691859 Z"
       id="path11488"
       inkscape:connector-curvature="0" />
    <path
       style="fill:#ffffff;stroke-width:0.00362188;stroke-miterlimit:4;stroke-dasharray:none"
       d="m 14.578209,287.27342 c -0.51239,-0.17968 -0.936984,-0.36667 -1.039837,-0.45795 -0.08522,-0.0756 -0.210539,-0.35468 -0.210911,-0.46964 -7.09e-4,-0.21853 0.259659,-0.9603 0.378936,-1.07958 0.06115,-0.0611 0.06443,-0.0611 0.296481,0.009 0.302301,0.0917 1.016502,0.35729 1.384591,0.51495 0.324515,0.13901 0.454648,0.25621 0.543864,0.48981 0.05144,0.13472 0.05377,0.17551 0.01945,0.34168 -0.105841,0.51243 -0.393855,0.82684 -0.754969,0.82415 -0.07028,-5.2e-4 -0.348195,-0.0783 -0.617602,-0.17273 z"
       id="path11490"
       inkscape:connector-curvature="0" />
    <path
       style="fill:#ffffff;stroke-width:0.00362188;stroke-miterlimit:4;stroke-dasharray:none"
       d="m 13.71521,283.21259 c -0.07508,-0.0526 -0.302335,-0.62163 -0.360271,-0.90213 -0.03478,-0.16837 -0.03298,-0.21698 0.01346,-0.36431 0.09571,-0.30361 0.308985,-0.43932 1.156611,-0.73594 0.695474,-0.24337 0.780395,-0.24907 1.039267,-0.0697 0.431871,0.29929 0.521268,1.09081 0.154084,1.36426 -0.121261,0.0903 -0.556612,0.27238 -1.248258,0.52203 -0.641098,0.2314 -0.677087,0.24026 -0.754893,0.18576 z"
       id="path11492"
       inkscape:connector-curvature="0" />
    <path
       style="fill:#ffffff;stroke-width:0.00362188;stroke-miterlimit:4;stroke-dasharray:none"
       d="m 11.922471,284.41473 c -0.132132,-0.13213 -0.112168,-0.29868 0.04842,-0.4039 0.06672,-0.0437 0.0939,-0.0455 0.175834,-0.0116 0.107031,0.0443 0.190197,0.14388 0.190197,0.22765 0,0.0299 -0.03721,0.0985 -0.0827,0.1526 -0.098,0.11647 -0.23586,0.1311 -0.331749,0.0352 z"
       id="path11494"
       inkscape:connector-curvature="0" />
  </g>
</svg>
