<?xml version="1.0" encoding="UTF-8" standalone="no"?>
<!-- Created with Inkscape (http://www.inkscape.org/) -->

<svg
   xmlns:dc="http://purl.org/dc/elements/1.1/"
   xmlns:cc="http://creativecommons.org/ns#"
   xmlns:rdf="http://www.w3.org/1999/02/22-rdf-syntax-ns#"
   xmlns:svg="http://www.w3.org/2000/svg"
   xmlns="http://www.w3.org/2000/svg"
   xmlns:sodipodi="http://sodipodi.sourceforge.net/DTD/sodipodi-0.dtd"
   xmlns:inkscape="http://www.inkscape.org/namespaces/inkscape"
   width="64"
   height="64"
   viewBox="0 0 16.933333 16.933334"
   version="1.1"
   id="svg8"
   inkscape:version="0.92.5 (2060ec1f9f, 2020-04-08)"
   sodipodi:docname="hands_64x64.svg">
  <defs
     id="defs2" />
  <sodipodi:namedview
     id="base"
     pagecolor="#ffffff"
     bordercolor="#666666"
     borderopacity="1.0"
     inkscape:pageopacity="0.0"
     inkscape:pageshadow="2"
     inkscape:zoom="3.959798"
     inkscape:cx="35.006898"
     inkscape:cy="60.629239"
     inkscape:document-units="mm"
     inkscape:current-layer="layer1"
     showgrid="false"
     units="px"
     inkscape:window-width="1208"
     inkscape:window-height="987"
     inkscape:window-x="1992"
     inkscape:window-y="0"
     inkscape:window-maximized="1" />
  <metadata
     id="metadata5">
    <rdf:RDF>
      <cc:Work
         rdf:about="">
        <dc:format>image/svg+xml</dc:format>
        <dc:type
           rdf:resource="http://purl.org/dc/dcmitype/StillImage" />
        <dc:title></dc:title>
      </cc:Work>
    </rdf:RDF>
  </metadata>
  <g
     inkscape:label="Layer 1"
     inkscape:groupmode="layer"
     id="layer1"
     transform="translate(0,-280.06665)">
    <path
       style="fill:#000000;stroke-width:0.01820238"
       d="m 10.263244,293.53805 c -0.9064665,-0.13655 -1.6130111,-0.82321 -1.7775642,-1.72767 -0.018805,-0.10313 -0.024844,-0.35194 -0.024844,-1.01638 v -0.87983 l 0.042961,-0.0348 c 0.057645,-0.0467 0.1331024,-0.0441 0.1801109,0.005 0.037646,0.0403 0.038403,0.056 0.045223,0.94197 l 0.00689,0.90102 0.047312,0.17512 c 0.089114,0.32983 0.2411834,0.59965 0.4675209,0.82958 0.2384095,0.2422 0.5440248,0.41874 0.8674574,0.50109 l 0.162732,0.0415 h 1.483494 c 1.477671,0 1.484121,-1.3e-4 1.6438,-0.0409 0.554367,-0.14131 0.985659,-0.49329 1.248296,-1.01874 0.05863,-0.11738 0.09657,-0.1508 0.170632,-0.1508 0.05693,0 0.122675,0.0714 0.122675,0.13313 0,0.0549 -0.146265,0.32937 -0.26378,0.49489 -0.281641,0.39666 -0.745719,0.69785 -1.256118,0.81521 -0.157375,0.0363 -0.2207,0.0378 -1.61091,0.0418 -0.7959,0.002 -1.49607,-0.003 -1.555935,-0.0115 z m 4.748433,-1.77029 c -0.03376,-0.029 -0.04914,-0.0595 -0.04828,-0.0955 8.02e-4,-0.0323 0.235768,-0.50293 0.602501,-1.20675 0.337725,-0.64812 0.610739,-1.19347 0.622938,-1.24432 0.02931,-0.12212 0.01349,-0.31446 -0.03322,-0.40502 -0.119332,-0.23112 -0.406071,-0.35016 -0.663346,-0.27536 -0.181914,0.0528 -0.236777,0.12023 -0.742061,0.91139 -0.25233,0.39508 -0.469636,0.72733 -0.482899,0.73833 -0.01329,0.0115 -0.09649,0.0276 -0.184935,0.0369 -0.198645,0.0207 -0.325459,0.0574 -0.481774,0.13903 -0.379427,0.19827 -0.62929,0.57506 -0.669369,1.0094 -0.01068,0.11469 -0.0246,0.17321 -0.04758,0.19859 -0.04429,0.049 -0.142902,0.0475 -0.193278,-0.003 -0.03588,-0.0359 -0.03811,-0.0519 -0.02825,-0.20478 0.04447,-0.69068 0.570494,-1.27103 1.264466,-1.39505 l 0.131488,-0.0235 v -1.38886 -1.38886 l 0.03982,-0.0371 c 0.05089,-0.0473 0.124272,-0.0473 0.175153,0 l 0.03983,0.0371 v 1.20976 c 0,0.66535 0.0061,1.20976 0.01368,1.20976 0.0076,0 0.161002,-0.23082 0.341055,-0.51291 0.338429,-0.53024 0.430231,-0.64428 0.587547,-0.72989 0.509281,-0.27719 1.132697,0.0337 1.223367,0.61024 0.01823,0.11605 0.0047,0.29368 -0.02989,0.39037 -0.03988,0.11171 -1.237689,2.38855 -1.274044,2.4219 -0.05693,0.0523 -0.100794,0.0519 -0.16294,-0.002 z m -6.507862,-2.28566 -0.042961,-0.0348 -0.00516,-1.46235 c -0.00345,-0.96731 0.00149,-1.50547 0.014248,-1.58976 0.048886,-0.3216 0.2759085,-0.58944 0.5789152,-0.68302 0.2343488,-0.0723 0.5111344,-0.033 0.7087478,0.10041 l 0.095555,0.0647 v -0.12708 c 0,-0.25971 0.072823,-0.45134 0.239047,-0.62903 0.181231,-0.19373 0.386467,-0.27515 0.65503,-0.25983 0.127462,0.008 0.182788,0.0204 0.279735,0.0655 0.06648,0.0311 0.142504,0.0735 0.168962,0.0944 l 0.04811,0.0378 0.02493,-0.12326 c 0.03751,-0.18557 0.10398,-0.3091 0.239235,-0.44435 0.260571,-0.26056 0.615504,-0.32296 0.936952,-0.16467 0.290769,0.14321 0.451973,0.39897 0.480225,0.76211 l 0.0131,0.16827 0.08191,-0.0547 c 0.426693,-0.28462 0.981622,-0.12954 1.213429,0.33933 l 0.06984,0.14131 0.0055,0.5051 c 0.0055,0.48938 0.0044,0.50625 -0.03185,0.54253 -0.04784,0.0479 -0.135781,0.0483 -0.183073,0.001 -0.03413,-0.0342 -0.03641,-0.0606 -0.03641,-0.42441 0,-0.5454 -0.02744,-0.66241 -0.193075,-0.82339 -0.264921,-0.25747 -0.697987,-0.17701 -0.877324,0.16275 l -0.04906,0.0931 -0.0091,1.34962 c -0.0088,1.29471 -0.01045,1.3512 -0.04378,1.38792 -0.04051,0.0449 -0.132211,0.0509 -0.18482,0.0134 -0.03443,-0.0251 -0.03558,-0.07 -0.04444,-1.77969 l -0.0091,-1.75385 -0.06068,-0.12326 c -0.210402,-0.42732 -0.78175,-0.42406 -1.006777,0.005 l -0.04288,0.0818 -0.0091,1.75919 c -0.0088,1.69749 -0.01024,1.76051 -0.04377,1.79749 -0.04723,0.0522 -0.138591,0.0505 -0.189245,-0.003 l -0.03915,-0.0416 -0.0049,-1.44636 -0.0049,-1.44639 -0.04473,-0.0903 c -0.05455,-0.10998 -0.154907,-0.21328 -0.259395,-0.26683 -0.108035,-0.0553 -0.306307,-0.0673 -0.430924,-0.0258 -0.124688,0.0415 -0.27529,0.17986 -0.331932,0.30523 l -0.04336,0.0958 -0.0049,1.43729 -0.0049,1.43727 -0.03915,0.0416 c -0.05551,0.0591 -0.1461693,0.0562 -0.1952995,-0.005 -0.037129,-0.0473 -0.037714,-0.0639 -0.037714,-1.05507 0,-0.96385 -0.00149,-1.01127 -0.036544,-1.10477 -0.080573,-0.21533 -0.2841253,-0.35875 -0.5091861,-0.35875 -0.066704,0 -0.1595405,0.0133 -0.2063137,0.0291 -0.1160853,0.0395 -0.2542417,0.16829 -0.3164221,0.29496 l -0.050976,0.10387 -0.00516,1.52835 -0.00516,1.52836 -0.03907,0.0416 c -0.047806,0.0509 -0.1229419,0.0537 -0.1808892,0.008 z"
       id="path458"
       inkscape:connector-curvature="0" />
    <path
       style="fill:#ffffff;stroke-width:0.00069495;stroke-miterlimit:4;stroke-dasharray:none"
       d="m 10.08455,293.21317 c -0.300096,-0.0886 -0.5501414,-0.23071 -0.7722184,-0.43843 -0.2319469,-0.21697 -0.3919456,-0.47491 -0.503046,-0.81096 l -0.060803,-0.18385 -0.010449,-0.91937 c -0.010449,-0.93152 -0.014627,-0.98253 -0.079586,-1.00748 -0.017095,-0.005 -0.029402,-0.0589 -0.037967,-0.16143 l -0.012721,-0.15158 0.065028,-0.0535 0.065028,-0.0535 1.63e-4,-1.5294 1.631e-4,-1.52939 0.052938,-0.0919 c 0.064637,-0.11229 0.187346,-0.23606 0.2753515,-0.2778 0.098265,-0.0467 0.2908164,-0.0549 0.403848,-0.0171 0.1178132,0.0392 0.2620131,0.16656 0.3187413,0.2818 l 0.042812,0.087 0.00907,1.0305 c 0.00838,0.94633 0.011779,1.0346 0.041802,1.08027 0.04357,0.0665 0.1532345,0.07 0.2124185,0.008 l 0.03998,-0.0426 v -1.42901 -1.42903 l 0.04661,-0.092 c 0.06363,-0.12555 0.153787,-0.22089 0.267363,-0.28271 0.08061,-0.0439 0.116901,-0.0519 0.235421,-0.0523 0.222083,-5.6e-4 0.357246,0.0745 0.482269,0.26798 l 0.07158,0.11079 v 1.45056 1.45057 l 0.04513,0.0452 c 0.05776,0.0578 0.155419,0.0612 0.204466,0.008 0.03326,-0.0367 0.03515,-0.10953 0.04697,-1.8018 l 0.01234,-1.76349 0.04604,-0.0783 c 0.0633,-0.10769 0.167556,-0.20758 0.26838,-0.25725 0.06655,-0.0328 0.115952,-0.0416 0.231677,-0.0416 0.128467,0 0.159483,0.008 0.244896,0.054 0.113591,0.0629 0.187573,0.14131 0.250521,0.26555 l 0.04486,0.0885 0.01481,1.75586 c 0.01216,1.44487 0.01933,1.76127 0.04009,1.78629 0.0319,0.0386 0.155248,0.0404 0.192617,0.003 0.04217,-0.0421 0.04694,-0.1639 0.05893,-1.50791 l 0.01125,-1.25031 0.04734,-0.0828 c 0.06307,-0.11034 0.163548,-0.20465 0.273412,-0.2568 0.125543,-0.0597 0.31455,-0.0613 0.432392,-0.003 0.106853,0.0519 0.23125,0.17435 0.274727,0.27022 0.04864,0.10734 0.07242,0.34106 0.07242,0.71194 0,0.30235 0.0028,0.32962 0.03677,0.36364 0.02023,0.0204 0.05428,0.0369 0.07568,0.0369 0.0314,0 0.03677,0.008 0.02784,0.0415 -0.0061,0.0229 -0.01125,0.0932 -0.01137,0.15689 -2.03e-4,0.0932 -0.0065,0.11776 -0.03242,0.12687 -0.01766,0.005 -0.04667,0.0237 -0.06435,0.0392 -0.03013,0.0258 -0.03217,0.11661 -0.03217,1.41861 v 1.39101 l -0.133311,0.0226 c -0.268279,0.0452 -0.557403,0.19055 -0.770685,0.38712 -0.297494,0.27421 -0.464045,0.62065 -0.487794,1.01466 l -0.01068,0.17588 0.05277,0.0416 c 0.05667,0.0446 0.140111,0.0426 0.187308,-0.005 0.01329,-0.0133 0.03628,-0.1062 0.05112,-0.20644 0.05167,-0.34913 0.154356,-0.56266 0.376593,-0.78312 0.113925,-0.11296 0.176559,-0.15782 0.314331,-0.22463 0.167745,-0.0815 0.185579,-0.086 0.579812,-0.15005 0.05277,-0.009 0.08197,-0.0458 0.303389,-0.38619 0.596185,-0.91679 0.686147,-1.04854 0.784417,-1.14896 0.12296,-0.12573 0.204231,-0.1546 0.398327,-0.14226 0.201549,0.0133 0.360346,0.11378 0.441919,0.28046 0.03943,0.0805 0.04872,0.1261 0.04948,0.24285 0.0011,0.17588 0.0082,0.16012 -0.631895,1.40316 -0.247366,0.48037 -0.486115,0.95043 -0.530552,1.0446 l -0.08079,0.17112 0.03278,0.061 0.03278,0.0607 -0.07057,0.13068 c -0.06382,0.11814 -0.07602,0.13086 -0.127139,0.13106 -0.0674,3.5e-4 -0.10699,0.0404 -0.191259,0.19335 -0.114085,0.20708 -0.208024,0.33092 -0.376602,0.49645 -0.240333,0.23602 -0.520595,0.39162 -0.846558,0.47002 -0.139161,0.0334 -0.228426,0.0353 -1.654846,0.0346 l -1.50775,-6.2e-4 -0.151981,-0.045 z"
       id="path462"
       inkscape:connector-curvature="0" />
    <path
       style="fill:#000000;stroke-width:0.01842637"
       d="m 6.8976473,293.55228 c 0.9289131,-0.13655 1.6529546,-0.82321 1.8215822,-1.72766 0.019277,-0.10313 0.025465,-0.35195 0.025465,-1.01638 v -0.87983 l -0.044029,-0.0348 c -0.059069,-0.0467 -0.1363986,-0.0441 -0.1845711,0.006 -0.038576,0.0403 -0.039356,0.056 -0.046337,0.94197 l -0.007,0.90102 -0.048483,0.17512 c -0.091319,0.32983 -0.2471558,0.59966 -0.4790982,0.82959 -0.244313,0.2422 -0.5574965,0.41874 -0.8889379,0.50109 l -0.1667609,0.0415 H 5.3592442 c -1.5142633,0 -1.5208729,-1.2e-4 -1.6845063,-0.0408 -0.5680945,-0.14131 -1.0100662,-0.49329 -1.2792064,-1.01875 -0.060085,-0.11738 -0.098969,-0.1508 -0.1748575,-0.1508 -0.058332,0 -0.1257131,0.0714 -0.1257131,0.13313 0,0.0549 0.1498871,0.32938 0.2703118,0.49488 0.2886162,0.39667 0.7641846,0.69786 1.2872232,0.81521 0.1612719,0.0363 0.2261642,0.0377 1.6508009,0.0418 0.8156083,0.002 1.5331161,-0.003 1.5944629,-0.0115 z m -4.866016,-1.77029 c 0.034601,-0.029 0.050355,-0.0595 0.049472,-0.0955 -8.096e-4,-0.0323 -0.2416051,-0.50294 -0.6174201,-1.20677 -0.3460878,-0.64812 -0.62586213,-1.19347 -0.63836247,-1.24432 -0.0300343,-0.12212 -0.0138233,-0.31446 0.0340405,-0.40502 0.12228719,-0.23111 0.41612717,-0.35015 0.67977307,-0.27536 0.1864179,0.0528 0.2426402,0.12023 0.760436,0.91141 0.2585787,0.39506 0.481265,0.72731 0.4948562,0.73832 0.013625,0.0115 0.098875,0.0276 0.1895146,0.0369 0.2035635,0.0207 0.333518,0.0574 0.493704,0.13901 0.3888229,0.19827 0.6448728,0.57506 0.6859456,1.0094 0.010907,0.1147 0.0252,0.17322 0.048759,0.19859 0.045396,0.049 0.1464408,0.0475 0.1980658,-0.003 0.036761,-0.0359 0.039047,-0.0519 0.028943,-0.20478 -0.04558,-0.69068 -0.5846223,-1.27103 -1.2957791,-1.39505 l -0.1347426,-0.0239 v -1.38887 -1.38885 l -0.040814,-0.0371 c -0.052143,-0.0473 -0.1273486,-0.0473 -0.1794906,0 l -0.040814,0.0371 v 1.20975 c 0,0.66537 -0.00624,1.20976 -0.014012,1.20976 -0.00776,0 -0.164989,-0.23081 -0.349501,-0.5129 -0.3468091,-0.53025 -0.4408846,-0.64429 -0.6020958,-0.7299 -0.5218925,-0.27719 -1.16074649,0.0337 -1.2536624,0.61026 -0.0186794,0.11605 -0.004822,0.29366 0.0306424,0.39036 0.0408722,0.1117 1.268338,2.38854 1.3055924,2.4219 0.058332,0.0522 0.1032867,0.0519 0.1669749,-0.002 z m 6.6690141,-2.28566 0.044029,-0.0348 0.00528,-1.46236 c 0.00356,-0.9673 -0.00149,-1.50547 -0.014604,-1.58977 -0.050091,-0.3216 -0.2827407,-0.58944 -0.5932513,-0.68302 -0.2401512,-0.0723 -0.5237909,-0.033 -0.7262987,0.10042 l -0.09792,0.0647 v -0.12708 c 0,-0.25971 -0.074625,-0.45134 -0.2449664,-0.62903 -0.185718,-0.19373 -0.3960363,-0.27515 -0.67125,-0.25982 -0.130618,0.008 -0.187314,0.0204 -0.2866615,0.0655 -0.068116,0.0311 -0.1460332,0.0735 -0.1731454,0.0944 l -0.049298,0.0378 -0.025557,-0.12326 c -0.038438,-0.18557 -0.106554,-0.3091 -0.2451603,-0.44435 -0.2670246,-0.26056 -0.6307456,-0.32295 -0.9601526,-0.16467 -0.2979702,0.14321 -0.4631662,0.39898 -0.4921175,0.76212 l -0.013421,0.16828 -0.083948,-0.0547 c -0.4372584,-0.28464 -1.0059282,-0.12954 -1.2434765,0.33933 l -0.071567,0.1413 -0.00565,0.5051 c -0.00565,0.48939 -0.00446,0.50625 0.032637,0.54253 0.049026,0.0479 0.1391431,0.0482 0.1876063,10e-4 0.034978,-0.0342 0.037307,-0.0606 0.037307,-0.42441 0,-0.5454 0.028119,-0.66241 0.197856,-0.8234 0.2714803,-0.25747 0.7152701,-0.17701 0.8990479,0.16277 l 0.050274,0.0931 0.0093,1.34961 c 0.00896,1.29472 0.010677,1.35121 0.044856,1.38793 0.041515,0.0449 0.1354835,0.0509 0.1893965,0.0134 0.035281,-0.0251 0.036464,-0.07 0.045544,-1.77968 l 0.0093,-1.75386 0.06218,-0.12326 c 0.2156119,-0.42731 0.8011079,-0.42405 1.0317072,0.005 l 0.043937,0.0818 0.0093,1.75918 c 0.00896,1.69749 0.010449,1.76051 0.044855,1.79749 0.048403,0.0523 0.142023,0.0505 0.1939316,-0.003 l 0.040114,-0.0416 0.00505,-1.44636 0.00505,-1.44638 0.045843,-0.0903 c 0.0559,-0.10998 0.1587425,-0.21327 0.2658178,-0.26684 0.1107101,-0.0553 0.3138918,-0.0673 0.4415947,-0.0258 0.1277753,0.0415 0.2821058,0.17988 0.3401508,0.30525 l 0.044443,0.0958 0.00505,1.43729 0.00505,1.43726 0.040115,0.0416 c 0.056888,0.0591 0.1497887,0.0562 0.2001358,-0.005 0.038048,-0.0473 0.038645,-0.0639 0.038645,-1.05505 0,-0.96386 0.00149,-1.01129 0.03745,-1.10479 0.08257,-0.21532 0.291162,-0.35875 0.5217955,-0.35875 0.068357,0 0.1634912,0.0133 0.2114226,0.029 0.1189603,0.0395 0.2605367,0.16829 0.3242579,0.29497 l 0.052238,0.10387 0.00528,1.52836 0.00528,1.52836 0.040034,0.0416 c 0.048989,0.0509 0.1259854,0.0537 0.1853679,0.008 z"
       id="path458-3"
       inkscape:connector-curvature="0" />
    <path
       style="fill:#ffffff;stroke-width:0.00070351;stroke-miterlimit:4;stroke-dasharray:none"
       d="m 7.0807661,293.22742 c 0.3075278,-0.0886 0.563765,-0.23071 0.7913412,-0.43844 0.237691,-0.21697 0.4016517,-0.47492 0.5155028,-0.81096 l 0.062307,-0.18384 0.010677,-0.91938 c 0.010677,-0.93153 0.014994,-0.98252 0.081561,-1.00749 0.017519,-0.005 0.030126,-0.0589 0.038909,-0.16143 l 0.013031,-0.15156 -0.066635,-0.0535 -0.066635,-0.0535 -1.664e-4,-1.5294 -1.676e-4,-1.52939 -0.054247,-0.092 c -0.066234,-0.11227 -0.1919856,-0.23606 -0.2821702,-0.2778 -0.1006984,-0.0467 -0.2980171,-0.0549 -0.4138477,-0.0171 -0.1207305,0.0392 -0.2685021,0.16657 -0.3266343,0.28181 l -0.043868,0.087 -0.0093,1.03052 c -0.00861,0.94631 -0.012067,1.03459 -0.042836,1.08025 -0.044649,0.0665 -0.1570297,0.07 -0.2176797,0.008 l -0.040964,-0.0426 v -1.42903 -1.42902 l -0.047772,-0.0919 c -0.0652,-0.12555 -0.1575946,-0.2209 -0.2739831,-0.28271 -0.082605,-0.0439 -0.1197972,-0.0519 -0.2412511,-0.0523 -0.227582,-5.6e-4 -0.3660918,0.0745 -0.4942104,0.26798 l -0.07334,0.11079 v 1.45056 1.45056 l -0.046245,0.0452 c -0.059195,0.0578 -0.1592673,0.0612 -0.2095294,0.008 -0.034086,-0.0366 -0.036027,-0.10952 -0.048128,-1.80179 l -0.012652,-1.76349 -0.047175,-0.0783 c -0.064867,-0.10769 -0.1717046,-0.20758 -0.2750255,-0.25725 -0.068196,-0.0328 -0.1188237,-0.0416 -0.2374131,-0.0416 -0.1316478,0 -0.1634315,0.008 -0.2509605,0.0541 -0.1164046,0.0629 -0.1922174,0.14131 -0.2567239,0.26554 l -0.045969,0.0885 -0.015178,1.75587 c -0.012457,1.44487 -0.019816,1.76127 -0.04109,1.78628 -0.032698,0.0386 -0.159094,0.0404 -0.1973874,0.003 -0.043214,-0.0421 -0.048094,-0.16392 -0.060389,-1.50791 l -0.011527,-1.25033 -0.048507,-0.0828 c -0.064637,-0.11033 -0.1675979,-0.20464 -0.2801817,-0.25679 -0.1286523,-0.0597 -0.3223394,-0.0613 -0.4430998,-0.003 -0.1094989,0.0519 -0.2369763,0.17436 -0.28153,0.27022 -0.049849,0.10734 -0.074215,0.34107 -0.074215,0.71194 0,0.30234 -0.00294,0.32963 -0.037684,0.36364 -0.02073,0.0204 -0.055626,0.0369 -0.077555,0.0369 -0.032177,0 -0.037684,0.008 -0.028531,0.0415 0.00624,0.0229 0.011531,0.0932 0.011648,0.1569 2.071e-4,0.0932 0.00659,0.11775 0.033224,0.12687 0.018095,0.005 0.047826,0.0237 0.065944,0.0392 0.030872,0.0258 0.032966,0.11662 0.032966,1.41862 v 1.39101 l 0.1366126,0.0226 c 0.2749211,0.0453 0.5712046,0.19054 0.7897695,0.38711 0.3048598,0.27421 0.4755344,0.62067 0.4998728,1.01468 l 0.010907,0.17587 -0.054075,0.0416 c -0.058071,0.0446 -0.1435799,0.0426 -0.1919465,-0.006 -0.013628,-0.0133 -0.037175,-0.1062 -0.052376,-0.20644 -0.052949,-0.34912 -0.1581789,-0.56265 -0.3859182,-0.7831 -0.1167455,-0.11298 -0.1809306,-0.15783 -0.3221154,-0.22464 -0.1718983,-0.0815 -0.1901742,-0.086 -0.5941692,-0.15004 -0.054073,-0.009 -0.084004,-0.0458 -0.3109018,-0.3862 -0.610949,-0.91679 -0.7031386,-1.04855 -0.8038414,-1.14896 -0.126005,-0.12574 -0.2092883,-0.1546 -0.4081903,-0.14226 -0.2065399,0.0133 -0.36927052,0.11378 -0.45286277,0.28046 -0.040401,0.0805 -0.0499192,0.1261 -0.0507113,0.24285 -0.001149,0.17588 -0.00838,0.16011 0.64754327,1.40316 0.2534911,0.48037 0.4981515,0.95044 0.5436897,1.0446 l 0.082792,0.17112 -0.033589,0.0609 -0.033589,0.0607 0.07232,0.13068 c 0.065403,0.11814 0.077897,0.13086 0.1302876,0.13105 0.069062,3.6e-4 0.10964,0.0404 0.1959948,0.19337 0.1169105,0.20707 0.2131767,0.33091 0.3859283,0.49645 0.246284,0.23601 0.533486,0.39161 0.8675221,0.47002 0.1426063,0.0334 0.2340814,0.0353 1.6958231,0.0346 l 1.545085,-6.1e-4 0.1557461,-0.045 z"
       id="path462-6"
       inkscape:connector-curvature="0" />
  </g>
</svg>
