<?xml version="1.0" encoding="UTF-8" standalone="no"?>
<!-- Created with Inkscape (http://www.inkscape.org/) -->

<svg
   xmlns:dc="http://purl.org/dc/elements/1.1/"
   xmlns:cc="http://creativecommons.org/ns#"
   xmlns:rdf="http://www.w3.org/1999/02/22-rdf-syntax-ns#"
   xmlns:svg="http://www.w3.org/2000/svg"
   xmlns="http://www.w3.org/2000/svg"
   xmlns:sodipodi="http://sodipodi.sourceforge.net/DTD/sodipodi-0.dtd"
   xmlns:inkscape="http://www.inkscape.org/namespaces/inkscape"
   width="64"
   height="64"
   viewBox="0 0 16.933333 16.933334"
   version="1.1"
   id="svg8"
   inkscape:version="0.92.5 (2060ec1f9f, 2020-04-08)"
   sodipodi:docname="hat_64x64.svg">
  <defs
     id="defs2" />
  <sodipodi:namedview
     id="base"
     pagecolor="#ffffff"
     bordercolor="#666666"
     borderopacity="1.0"
     inkscape:pageopacity="0.0"
     inkscape:pageshadow="2"
     inkscape:zoom="2.8"
     inkscape:cx="-73.705269"
     inkscape:cy="22.4435"
     inkscape:document-units="mm"
     inkscape:current-layer="layer1"
     showgrid="false"
     units="px"
     inkscape:window-width="1208"
     inkscape:window-height="987"
     inkscape:window-x="1992"
     inkscape:window-y="0"
     inkscape:window-maximized="1"
     showguides="false" />
  <metadata
     id="metadata5">
    <rdf:RDF>
      <cc:Work
         rdf:about="">
        <dc:format>image/svg+xml</dc:format>
        <dc:type
           rdf:resource="http://purl.org/dc/dcmitype/StillImage" />
        <dc:title></dc:title>
      </cc:Work>
    </rdf:RDF>
  </metadata>
  <g
     inkscape:label="Layer 1"
     inkscape:groupmode="layer"
     id="layer1"
     transform="translate(0,-280.06665)">
    <path
       style="fill:#000000;stroke-width:0.02990541"
       d="m 8.4096816,293.51658 c -0.2999807,-0.12972 -0.2134984,-0.55424 0.1128979,-0.55424 0.2749125,0 0.3958832,0.35459 0.1745305,0.51159 -0.1090133,0.0774 -0.1821784,0.0882 -0.2874405,0.0426 z m -1.5797696,-0.0667 c -2.2566472,-0.29875 -4.1704975,-1.06792 -5.2011948,-2.09033 -1.08475473,-1.07602 -1.00488853,-2.25186 0.2118597,-3.11935 0.303926,-0.2167 0.9127857,-0.52564 1.3259192,-0.67279 l 0.2841021,-0.10123 0.080485,-0.25862 c 0.375938,-1.20857 1.1371491,-2.77155 1.593548,-3.27202 0.3197317,-0.35058 0.6996878,-0.51726 1.1819684,-0.51847 0.4646902,-0.001 0.7622551,0.12501 1.1562081,0.49028 0.4085448,0.37882 0.7126893,0.53189 1.0567974,0.53189 0.3453341,0 0.6389414,-0.14797 1.0496713,-0.52901 0.3899956,-0.3618 0.6869896,-0.49099 1.1334226,-0.49303 0.683615,-0.004 1.125762,0.28615 1.564425,1.0235 0.452903,0.76132 0.851177,1.63942 1.170691,2.58112 l 0.150761,0.44433 0.284102,0.10134 c 0.374882,0.13368 0.943767,0.41494 1.239911,0.61301 0.293109,0.19605 0.685909,0.58413 0.816433,0.80664 0.828757,1.41281 -0.574565,3.05129 -3.387143,3.9547 -0.751597,0.24144 -1.900473,0.47846 -2.517454,0.51938 l -0.2745478,0.0182 -0.091779,-0.0918 c -0.1416933,-0.1417 -0.1136267,-0.36355 0.057541,-0.45516 0.03108,-0.0167 0.2221787,-0.0514 0.4246178,-0.0775 1.807386,-0.23139 3.411908,-0.79658 4.438162,-1.56334 0.562245,-0.42008 0.952871,-0.96044 0.989957,-1.36942 0.04383,-0.48325 -0.283264,-0.94231 -0.971067,-1.36297 -0.246834,-0.15096 -0.779008,-0.39736 -0.804077,-0.37229 -0.0085,0.008 0.01275,0.15419 0.04674,0.32419 0.125621,0.62876 0.158251,0.89562 0.120668,0.98646 -0.03836,0.0926 -0.390785,0.3665 -0.82055,0.63778 -0.345079,0.21781 -1.200736,0.6392 -1.579806,0.77801 -2.7686452,1.01385 -5.7755779,0.60276 -8.1655903,-1.11631 -0.3366665,-0.24215 -0.3582749,-0.27532 -0.3344085,-0.51329 0.010926,-0.10694 0.058877,-0.3954 0.1071923,-0.64108 0.048194,-0.2457 0.082306,-0.45208 0.075751,-0.45865 -0.020881,-0.0209 -0.5513303,0.2262 -0.7893629,0.36779 -0.6376061,0.37928 -0.9917899,0.84052 -0.9917899,1.29157 0,0.33614 0.2378019,0.75527 0.6523557,1.14977 0.9551892,0.90898 2.7281356,1.59847 4.7888139,1.86231 0.2075986,0.0265 0.4032762,0.068 0.4424384,0.0937 0.1500329,0.0983 0.1595867,0.34854 0.017603,0.46025 -0.076965,0.0606 -0.2699595,0.0751 -0.5331574,0.0403 z m 2.9456884,-2.66819 c 1.1969366,-0.20528 2.2510506,-0.61971 3.2241096,-1.26758 l 0.368144,-0.24511 -0.01882,-0.13458 c -0.021,-0.15022 -0.138307,-0.75809 -0.148673,-0.77059 -0.0036,-0.005 -0.146586,0.0801 -0.31762,0.18788 -1.001442,0.63092 -2.128563,1.03106 -3.3762794,1.19865 -0.4582926,0.0615 -1.4045715,0.069 -1.8690796,0.0148 -1.2627935,-0.14742 -2.5407493,-0.59722 -3.5313132,-1.2429 -0.1422149,-0.0927 -0.2630885,-0.16402 -0.268612,-0.15849 -0.018695,0.0187 -0.1625488,0.76253 -0.1613834,0.83418 0.00121,0.0804 0.088619,0.15078 0.5490723,0.44327 0.928725,0.5899 2.1672879,1.03637 3.2328014,1.16535 0.1480299,0.018 0.3027971,0.0383 0.3439138,0.0451 0.041153,0.007 0.4179287,0.008 0.8373505,0.004 0.6120281,-0.007 0.8363915,-0.0218 1.1364086,-0.0734 z m -0.1943905,-1.62976 c 1.1934401,-0.18549 2.1873791,-0.56872 3.1602921,-1.21845 0.142712,-0.0953 0.26673,-0.18503 0.275617,-0.19939 0.0221,-0.0358 -0.196831,-0.72025 -0.370075,-1.15658 -0.39944,-1.00595 -0.993028,-2.10628 -1.255327,-2.32699 -0.315338,-0.26535 -0.754778,-0.32027 -1.110479,-0.1388 -0.06871,0.0351 -0.213923,0.14681 -0.3227426,0.24837 -0.5033912,0.4698 -0.9444822,0.67576 -1.4495607,0.67686 -0.4818435,0.001 -0.9273654,-0.20817 -1.4240555,-0.66871 -0.295926,-0.27439 -0.4798282,-0.35865 -0.7826981,-0.35865 -0.1963332,0 -0.256339,0.0134 -0.418912,0.0936 -0.1044002,0.0514 -0.2392344,0.14476 -0.2997015,0.20736 -0.2489096,0.25768 -0.8434081,1.36684 -1.1540838,2.15321 -0.1596352,0.40403 -0.4256736,1.18239 -0.4255765,1.24512 6.07e-5,0.0448 0.4677858,0.35506 0.8857509,0.5875 0.7883067,0.43837 1.8028826,0.76696 2.6729371,0.86569 0.1562604,0.0177 0.3244782,0.0379 0.3738134,0.0447 0.2007762,0.0279 1.3613425,-0.0109 1.6448012,-0.0548 z"
       id="path8066"
       inkscape:connector-curvature="0" />
    <path
       style="fill:#ffffff;stroke-width:0.00114176;stroke-miterlimit:4;stroke-dasharray:none"
       d="M 7.4226504,289.13102 C 6.7240793,289.02127 6.0458057,288.81938 5.3859963,288.5247 5.0534452,288.37618 4.4270681,288.01652 4.1529447,287.81666 l -0.1408311,-0.10267 0.089347,-0.27781 c 0.4065781,-1.26428 1.1065938,-2.71053 1.5054148,-3.11019 0.2139233,-0.21439 0.387604,-0.2857 0.6958032,-0.2857 0.3263842,0 0.4216554,0.0453 0.8507161,0.40428 0.389425,0.32582 0.6344256,0.46745 0.9470556,0.5474 0.621327,0.1589 1.1670488,-0.0109 1.7971038,-0.5596 0.1412319,-0.12296 0.3247459,-0.26148 0.4078169,-0.30783 0.134398,-0.075 0.181037,-0.0841 0.422931,-0.0836 0.471986,0.001 0.678504,0.15302 1.041501,0.76646 0.411239,0.69495 0.902078,1.7953 1.126672,2.52573 0.133632,0.4346 0.153481,0.37344 -0.197304,0.60783 -0.649054,0.43371 -1.589517,0.8504 -2.348482,1.04054 -0.6070641,0.15209 -0.8572847,0.18039 -1.7219128,0.19472 -0.721017,0.0121 -0.8803367,0.006 -1.2061139,-0.0452 z"
       id="path8070"
       inkscape:connector-curvature="0" />
    <path
       style="fill:#ffffff;stroke-width:0.00114176;stroke-miterlimit:4;stroke-dasharray:none"
       d="m 7.4649932,290.79354 c -1.1909517,-0.17319 -2.2994028,-0.57776 -3.2785676,-1.1966 -0.3813158,-0.24099 -0.4816371,-0.33139 -0.4820134,-0.43429 -5.221e-4,-0.14622 0.1276717,-0.75713 0.1588826,-0.75713 0.017117,0 0.1482361,0.0735 0.2912644,0.16327 0.9499207,0.59638 2.0276587,0.98667 3.2712232,1.18464 0.4876582,0.0777 1.6924247,0.0701 2.2451879,-0.0142 1.1216957,-0.17085 2.1944677,-0.55755 3.1589437,-1.13865 0.184922,-0.11144 0.346548,-0.19033 0.360327,-0.17592 0.01371,0.0143 0.05608,0.20787 0.09408,0.42999 0.06834,0.39946 0.06847,0.40433 0.0097,0.44757 -0.209432,0.1556 -0.840434,0.53238 -1.160311,0.69282 -0.684721,0.34347 -1.339249,0.56785 -2.114081,0.72472 -0.6598578,0.13361 -1.8977894,0.16934 -2.5550981,0.0737 z"
       id="path8072"
       inkscape:connector-curvature="0" />
    <path
       style="fill:#ffffff;stroke-width:0.00114176;stroke-miterlimit:4;stroke-dasharray:none"
       d="m 7.7332289,293.15611 c -0.2356532,-0.009 -0.2475014,-0.0136 -0.2803267,-0.0929 -0.059241,-0.14312 -0.1062212,-0.15796 -0.833041,-0.26355 -1.9754222,-0.287 -3.7658131,-1.03784 -4.599279,-1.92882 -0.6717425,-0.71809 -0.7110868,-1.27289 -0.1319933,-1.8614 0.1099844,-0.11168 0.2989244,-0.26711 0.4199317,-0.34524 0.2746939,-0.1774 0.8944549,-0.47869 0.90725,-0.44106 0.00486,0.0154 -0.0261,0.22165 -0.069681,0.45834 -0.043581,0.23668 -0.086919,0.51364 -0.09651,0.61547 -0.016632,0.17753 -0.013111,0.1899 0.083156,0.29958 0.1323455,0.15072 0.8526585,0.62472 1.3270967,0.87328 2.1861892,1.14538 4.7215243,1.31324 7.0689157,0.46804 0.704762,-0.25376 1.927045,-0.9366 2.298602,-1.28415 0.144059,-0.13474 0.148321,-0.14371 0.148321,-0.31096 0,-0.13972 -0.09785,-0.77294 -0.167053,-1.08052 l -0.01517,-0.0677 0.151005,0.0595 c 0.681721,0.26872 1.292498,0.7321 1.496419,1.13532 0.08097,0.16004 0.09056,0.20827 0.08996,0.45108 -5.6e-4,0.24488 -0.0097,0.28989 -0.09493,0.45332 -0.299956,0.57731 -0.891918,1.08905 -1.767472,1.52796 -0.960604,0.48152 -1.977522,0.78276 -3.359185,0.99508 -0.5829557,0.0896 -0.6930857,0.1269 -0.730779,0.24764 -0.01214,0.0379 -0.036661,0.0788 -0.055114,0.0909 -0.018574,0.0122 -0.1832224,0.0223 -0.3659956,0.0224 l -0.3322962,2.7e-4 -0.04953,-0.087 c -0.02962,-0.0521 -0.093353,-0.10154 -0.1587855,-0.12304 -0.093232,-0.0308 -0.1259722,-0.0279 -0.2224088,0.0191 -0.062155,0.0303 -0.1265185,0.0858 -0.1429191,0.12324 -0.024521,0.0561 -0.051108,0.0669 -0.1510403,0.0618 -0.066646,-0.004 -0.2319506,-0.0109 -0.3672703,-0.0163 z"
       id="path8074"
       inkscape:connector-curvature="0" />
  </g>
</svg>
