<?xml version="1.0" encoding="UTF-8" standalone="no"?>
<!-- Created with Inkscape (http://www.inkscape.org/) -->

<svg
   xmlns:dc="http://purl.org/dc/elements/1.1/"
   xmlns:cc="http://creativecommons.org/ns#"
   xmlns:rdf="http://www.w3.org/1999/02/22-rdf-syntax-ns#"
   xmlns:svg="http://www.w3.org/2000/svg"
   xmlns="http://www.w3.org/2000/svg"
   xmlns:sodipodi="http://sodipodi.sourceforge.net/DTD/sodipodi-0.dtd"
   xmlns:inkscape="http://www.inkscape.org/namespaces/inkscape"
   width="64"
   height="64"
   viewBox="0 0 16.933333 16.933334"
   version="1.1"
   id="svg8"
   inkscape:version="0.92.5 (2060ec1f9f, 2020-04-08)"
   sodipodi:docname="head_64x64.svg">
  <defs
     id="defs2" />
  <sodipodi:namedview
     id="base"
     pagecolor="#ffffff"
     bordercolor="#666666"
     borderopacity="1.0"
     inkscape:pageopacity="0.0"
     inkscape:pageshadow="2"
     inkscape:zoom="2.8"
     inkscape:cx="48.734967"
     inkscape:cy="24.066903"
     inkscape:document-units="mm"
     inkscape:current-layer="layer1"
     showgrid="false"
     units="px"
     inkscape:window-width="1208"
     inkscape:window-height="987"
     inkscape:window-x="1992"
     inkscape:window-y="0"
     inkscape:window-maximized="1" />
  <metadata
     id="metadata5">
    <rdf:RDF>
      <cc:Work
         rdf:about="">
        <dc:format>image/svg+xml</dc:format>
        <dc:type
           rdf:resource="http://purl.org/dc/dcmitype/StillImage" />
        <dc:title></dc:title>
      </cc:Work>
    </rdf:RDF>
  </metadata>
  <g
     inkscape:label="Layer 1"
     inkscape:groupmode="layer"
     id="layer1"
     transform="translate(0,-280.06665)">
    <path
       style="fill:#000000;stroke-width:0.02855973"
       d="m 3.9600057,295.81277 c -0.3187143,-0.0982 -0.5196021,-0.36375 -0.5196021,-0.68669 0,-0.12516 0.033695,-0.24418 0.1598271,-0.56458 0.441672,-1.12196 0.5984852,-2.28728 0.4284693,-3.1841 -0.1271554,-0.67073 -0.4032338,-1.24871 -0.9239568,-1.93437 -0.8514182,-1.12107 -1.1047328,-1.92473 -1.0253001,-3.25284 0.055031,-0.92014 0.3854333,-1.90442 0.8976708,-2.67422 0.3108727,-0.46719 0.8979798,-1.02073 1.4543126,-1.37118 1.4370248,-0.9052 3.5220247,-1.16278 5.6405475,-0.69684 1.539387,0.33856 2.31714,0.76706 2.96039,1.63099 0.396609,0.53267 0.638251,1.06495 0.835357,1.84009 0.121087,0.4762 0.143702,0.54211 0.303431,0.88446 0.257694,0.5523 0.222533,0.83354 -0.148815,1.19034 -0.247017,0.23733 -0.25249,0.24978 -0.180954,0.4115 0.03246,0.0734 0.07788,0.22423 0.100933,0.33524 0.06566,0.31609 0.178252,0.50785 0.529384,0.90152 0.368995,0.41371 0.594088,0.70443 0.683835,0.88321 0.04934,0.0983 0.06061,0.16039 0.05074,0.27946 -0.0216,0.26042 -0.184041,0.43446 -0.621864,0.66624 -0.08639,0.0457 -0.181094,0.10213 -0.210446,0.1252 -0.08958,0.0706 -0.06624,0.23881 0.06914,0.49823 0.06858,0.13143 0.125745,0.28533 0.13436,0.36176 0.01485,0.13179 0.0134,0.13457 -0.154159,0.29452 l -0.169153,0.16147 0.04295,0.16614 c 0.04049,0.1566 0.03972,0.17216 -0.01337,0.27131 -0.03585,0.067 -0.127131,0.15194 -0.251149,0.23379 -0.107157,0.0707 -0.208247,0.15257 -0.224648,0.18187 -0.03088,0.0552 -0.0222,0.18646 0.0331,0.50133 0.05395,0.3071 -0.03776,0.71976 -0.217628,0.97931 -0.144883,0.20907 -0.449709,0.36515 -0.713127,0.36515 -0.201539,0 -0.830521,-0.16825 -1.730113,-0.46282 l -0.533984,-0.17485 -0.12984,0.10636 c -0.234955,0.19253 -0.457526,0.54919 -0.6712765,1.07568 -0.151696,0.37365 -0.243372,0.49903 -0.4442533,0.60763 l -0.114239,0.0618 -2.6274958,0.005 c -1.4451222,0.003 -2.6597077,-0.005 -2.6990793,-0.0171 z m 5.2634294,-0.51662 c 0.040796,-0.0321 0.094873,-0.12356 0.1224254,-0.20706 0.1229197,-0.37255 0.393084,-0.85384 0.6515136,-1.16065 0.05824,-0.0692 0.095643,-0.13463 0.08311,-0.14554 -0.01253,-0.0109 -0.2348449,-0.094 -0.4940247,-0.18463 -1.0598364,-0.37063 -1.4753145,-0.70454 -1.5740341,-1.26499 -0.02539,-0.14416 -0.022767,-0.1861 0.016436,-0.2619 0.059194,-0.11448 0.1636639,-0.15695 0.2863841,-0.11645 0.1010852,0.0334 0.1438914,0.10061 0.1719955,0.27008 0.039181,0.23636 0.1574431,0.38712 0.4423474,0.56394 0.2397,0.14876 0.4190579,0.21979 1.4851048,0.58807 1.477295,0.51035 2.376657,0.76981 2.553408,0.73666 0.298328,-0.0559 0.473189,-0.46593 0.37636,-0.88238 -0.111496,-0.47953 3.02e-4,-0.8072 0.344168,-1.00872 l 0.126345,-0.074 -0.07224,-0.12326 c -0.11794,-0.20125 -0.08947,-0.28676 0.156597,-0.47035 0.0862,-0.0643 0.156458,-0.1259 0.156133,-0.13688 -3.24e-4,-0.0109 -0.04418,-0.10353 -0.09745,-0.20558 -0.0784,-0.15023 -0.09936,-0.22713 -0.109961,-0.40323 -0.0076,-0.12579 8.74e-4,-0.25992 0.02002,-0.31794 0.04451,-0.13489 0.228196,-0.31117 0.441383,-0.42361 0.24168,-0.12747 0.417753,-0.25636 0.417753,-0.30583 0,-0.0662 -0.227484,-0.36329 -0.568295,-0.74217 -0.469182,-0.52159 -0.577176,-0.70138 -0.687566,-1.14464 -0.0299,-0.12004 -0.08074,-0.28895 -0.112974,-0.37534 -0.105834,-0.28361 -0.03734,-0.47887 0.286643,-0.81717 0.260289,-0.27179 0.25558,-0.23846 0.09034,-0.63938 -0.18398,-0.44639 -0.235346,-0.59918 -0.336567,-1.00111 -0.233162,-0.92588 -0.536886,-1.49392 -1.09867,-2.05477 -0.331208,-0.33068 -0.579409,-0.49466 -1.03987,-0.68706 -0.512841,-0.21429 -1.3860818,-0.42762 -2.1735932,-0.53103 -0.4660814,-0.0611 -1.6478846,-0.0704 -2.02774,-0.0157 -1.0077479,0.14498 -1.7469554,0.40139 -2.4139441,0.83732 -0.8426475,0.55074 -1.357243,1.16837 -1.7223574,2.06721 -0.2977394,0.73296 -0.4126864,1.468 -0.3593175,2.29767 0.052212,0.81163 0.2598683,1.2916 0.9829059,2.27188 0.6363661,0.86277 0.9076775,1.51357 1.0125148,2.42873 0.098472,0.85965 -0.099231,2.08042 -0.496331,3.06469 -0.1531531,0.37961 -0.1636801,0.48836 -0.055508,0.57345 0.074849,0.0589 0.08891,0.0592 2.6093646,0.0592 2.4961869,0 2.5352062,-8.6e-4 2.6071887,-0.0575 z"
       id="path579"
       inkscape:connector-curvature="0"
       sodipodi:nodetypes="cssssssssscscccscsscccccscccccssccsccscccccsccscccscsscscccscsssscssscscscssssscsc" />
    <path
       style="fill:#ffffff;stroke-width:0.00077102;stroke-miterlimit:4;stroke-dasharray:none"
       d="m 4.1137638,295.3187 c -0.1759916,-0.0341 -0.2014245,-0.15609 -0.093778,-0.44967 0.2519595,-0.68718 0.3668945,-1.08113 0.4557008,-1.56196 0.2235777,-1.21054 0.1134389,-2.23658 -0.3380499,-3.14925 -0.1334891,-0.26984 -0.3790304,-0.65216 -0.793407,-1.23534 -0.4768425,-0.67108 -0.6897166,-1.16854 -0.7532699,-1.76027 -0.031581,-0.29401 -0.028079,-0.9305 0.00661,-1.20866 0.1322369,-1.05947 0.5869651,-2.0418 1.2559096,-2.71312 0.6402419,-0.6425 1.4831235,-1.10065 2.4582702,-1.33618 0.5498756,-0.13282 0.7520763,-0.15627 1.4423339,-0.16726 0.886154,-0.0141 1.2949798,0.0166 1.9796042,0.14877 1.0147863,0.19588 1.7943343,0.48273 2.2294413,0.82035 0.216728,0.16818 0.544235,0.50226 0.710502,0.72477 0.332748,0.44531 0.503734,0.83764 0.737949,1.69325 0.06108,0.22312 0.171969,0.55857 0.24642,0.74543 0.176994,0.44424 0.194576,0.50236 0.170861,0.56473 -0.01052,0.0276 -0.106603,0.14813 -0.213567,0.26784 -0.207859,0.23264 -0.287961,0.36772 -0.308786,0.52076 -0.01063,0.0779 0.0027,0.14748 0.07229,0.37739 0.04691,0.155 0.108759,0.35985 0.137435,0.45522 0.09396,0.31246 0.195409,0.46689 0.648537,0.98719 0.290118,0.33314 0.491627,0.58701 0.538851,0.67888 0.02014,0.0393 0.01252,0.0532 -0.06632,0.1224 -0.04899,0.0429 -0.177219,0.12797 -0.284938,0.18891 -0.3509,0.19852 -0.487878,0.35447 -0.511899,0.58279 -0.02114,0.20091 0.01532,0.39942 0.109329,0.59535 0.0458,0.0955 0.08328,0.18534 0.08328,0.19973 0,0.0144 -0.05029,0.0649 -0.111762,0.11238 -0.173577,0.13391 -0.255514,0.23401 -0.254971,0.31149 2.53e-4,0.0364 0.03066,0.12225 0.06756,0.19072 l 0.0671,0.12447 -0.08884,0.0472 c -0.148779,0.0789 -0.264329,0.19601 -0.334892,0.33934 -0.08492,0.1725 -0.09969,0.38012 -0.04761,0.66936 0.07728,0.42917 -0.03913,0.76791 -0.301479,0.87733 -0.09255,0.0386 -0.225161,0.0222 -0.58629,-0.0725 -0.452783,-0.11875 -1.451677,-0.44153 -2.403283,-0.77659 -0.6442728,-0.22686 -0.7912171,-0.2848 -0.982571,-0.38746 -0.3352507,-0.17987 -0.4825267,-0.3329 -0.540372,-0.56148 -0.055378,-0.21882 -0.089919,-0.28637 -0.1645269,-0.32178 -0.1870152,-0.0888 -0.355987,0.0272 -0.356271,0.24453 -3.415e-4,0.26117 0.1223083,0.52579 0.3447206,0.74377 0.2511908,0.24618 0.5910642,0.42238 1.3177294,0.68316 0.4792429,0.17199 0.4476879,0.12884 0.2694878,0.36855 -0.2514152,0.33821 -0.4536289,0.7059 -0.5831945,1.06041 -0.0661,0.18086 -0.1173364,0.23584 -0.238296,0.25569 -0.1247682,0.0205 -4.8859341,0.0199 -4.9915792,-5.6e-4 z"
       id="path581"
       inkscape:connector-curvature="0" />
  </g>
</svg>
