<?xml version="1.0" encoding="UTF-8" standalone="no"?>
<svg
   xmlns:dc="http://purl.org/dc/elements/1.1/"
   xmlns:cc="http://creativecommons.org/ns#"
   xmlns:rdf="http://www.w3.org/1999/02/22-rdf-syntax-ns#"
   xmlns:svg="http://www.w3.org/2000/svg"
   xmlns="http://www.w3.org/2000/svg"
   xmlns:sodipodi="http://sodipodi.sourceforge.net/DTD/sodipodi-0.dtd"
   xmlns:inkscape="http://www.inkscape.org/namespaces/inkscape"
   width="64"
   height="64"
   viewBox="0 0 16.933333 16.933333"
   version="1.1"
   id="svg8"
   sodipodi:docname="seren_health_check_64x64.svg"
   inkscape:version="1.0.2 (1.0.2+r75+1)">
  <defs
     id="defs2" />
  <sodipodi:namedview
     id="base"
     pagecolor="#ffffff"
     bordercolor="#666666"
     borderopacity="1.0"
     inkscape:pageopacity="0.0"
     inkscape:pageshadow="2"
     inkscape:zoom="8"
     inkscape:cx="34.397262"
     inkscape:cy="31.666667"
     inkscape:document-units="mm"
     inkscape:current-layer="layer1"
     inkscape:document-rotation="0"
     showgrid="false"
     inkscape:snap-global="false"
     fit-margin-top="0"
     fit-margin-left="0"
     fit-margin-right="0"
     fit-margin-bottom="0"
     inkscape:window-width="1366"
     inkscape:window-height="704"
     inkscape:window-x="0"
     inkscape:window-y="0"
     inkscape:window-maximized="0"
     units="px" />
  <metadata
     id="metadata5">
    <rdf:RDF>
      <cc:Work
         rdf:about="">
        <dc:format>image/svg+xml</dc:format>
        <dc:type
           rdf:resource="http://purl.org/dc/dcmitype/StillImage" />
        <dc:title />
      </cc:Work>
    </rdf:RDF>
  </metadata>
  <g
     inkscape:label="Calque 1"
     inkscape:groupmode="layer"
     id="layer1"
     transform="translate(-44.581036,-28.552681)">
    <text
       xml:space="preserve"
       style="font-style:normal;font-weight:normal;font-size:10.5833px;line-height:1.25;font-family:sans-serif;fill:#000000;fill-opacity:1;stroke:none;stroke-width:0.264583"
       x="51.724785"
       y="39.66518"
       id="text1411"><tspan
         sodipodi:role="line"
         id="tspan1409"
         x="51.724785"
         y="39.66518"
         style="stroke-width:0.264583" /></text>
    <path
       style="fill:#000000;stroke-width:0.0320977"
       d="m 46.312898,45.215218 c -0.185691,-0.06619 -0.354806,-0.20985 -0.450581,-0.38276 L 45.767237,44.6608 v -7.623211 -7.623208 l 0.09345,-0.168654 c 0.05139,-0.09276 0.141437,-0.205258 0.200096,-0.25 0.219032,-0.167065 0.286542,-0.175156 1.461278,-0.175156 h 1.088746 l 0.07878,0.07878 c 0.100411,0.100411 0.100411,0.223484 0,0.323895 l -0.07878,0.07878 h -1.059176 c -0.723682,0 -1.084576,0.01158 -1.139379,0.03655 -0.193022,0.08795 -0.18078,-0.464238 -0.171771,7.74704 l 0.0082,7.500203 0.104827,0.09366 0.104823,0.09366 h 4.364785 4.364783 l 6.08e-4,-0.842565 c 6.08e-4,-0.77775 0.0057,-0.85368 0.06602,-0.987007 0.08767,-0.193898 0.23664,-0.344991 0.430798,-0.436936 0.154998,-0.07341 0.187107,-0.07601 0.938855,-0.07631 l 0.77837,-3.03e-4 v -0.385172 -0.385173 h -0.09218 c -0.0507,0 -0.230263,-0.03502 -0.399031,-0.07784 -0.83133,-0.210883 -1.516527,-0.766383 -1.911435,-1.549623 -0.34555,-0.685352 -0.385704,-1.61356 -0.101469,-2.34572 0.121192,-0.312184 0.316883,-0.635677 0.516981,-0.854616 0.136846,-0.149732 0.181865,-0.179446 0.271875,-0.179446 0.06964,0 0.131067,0.02489 0.173315,0.07024 0.107396,0.115276 0.08331,0.224724 -0.09523,0.432693 -0.220563,0.256919 -0.43425,0.681358 -0.516786,1.026468 -0.09566,0.400009 -0.07527,0.942711 0.04928,1.311241 0.222994,0.65985 0.646248,1.147612 1.254091,1.445223 0.622442,0.304758 1.280654,0.343038 1.915386,0.111389 0.865047,-0.315702 1.473405,-1.07379 1.600048,-1.993852 0.14096,-1.024047 -0.424075,-2.064277 -1.367853,-2.518213 -0.594232,-0.285814 -1.29315,-0.317797 -1.941499,-0.08885 -0.12752,0.04503 -0.159257,0.04601 -0.239581,0.0074 -0.123613,-0.0594 -0.172354,-0.219659 -0.100265,-0.329677 0.06476,-0.09884 0.317316,-0.194748 0.694555,-0.263765 l 0.289799,-0.05302 v -3.112574 c 0,-3.395505 0.0065,-3.273766 -0.179595,-3.358562 -0.05853,-0.02668 -1.10783,-0.03655 -3.883735,-0.03655 h -3.80353 l -0.07878,-0.07878 c -0.100407,-0.100411 -0.100407,-0.223483 0,-0.323894 l 0.07878,-0.07878 h 3.833102 c 4.161759,0 3.96526,-0.0081 4.205632,0.175156 0.05866,0.04474 0.148703,0.15724 0.200099,0.25 l 0.09345,0.168654 0.0088,3.198581 0.0088,3.198585 0.207112,0.03607 c 1.779418,0.309872 2.870169,2.064659 2.340135,3.764784 -0.231311,0.741947 -0.739951,1.35457 -1.430969,1.723505 -0.270368,0.144348 -0.665963,0.275005 -0.93321,0.308219 l -0.184563,0.02294 v 0.523419 0.52342 l -0.104318,0.131015 c -0.19776,0.248375 -2.190819,2.337521 -2.264399,2.373574 -0.101675,0.04981 -9.062524,0.04663 -9.202512,-0.0033 z m 10.059362,-1.565496 0.681118,-0.722199 -0.568082,-0.0088 c -0.617963,-0.0096 -0.659681,-6.4e-5 -0.775343,0.176219 -0.04795,0.07308 -0.05824,0.179218 -0.06719,0.693179 -0.0063,0.360164 0.0015,0.602184 0.0189,0.595331 0.0162,-0.0064 0.335975,-0.336537 0.710591,-0.733749 z m -8.878331,-1.22111 c -0.111082,-0.04402 -0.2152,-0.119742 -0.310689,-0.225948 -0.419073,-0.466107 -0.276487,-1.140583 0.296584,-1.402941 0.335676,-0.15368 0.780512,-0.05513 1.017299,0.225383 0.272698,0.323046 0.280069,0.812771 0.01723,1.144636 -0.223222,0.281841 -0.673939,0.39618 -1.020424,0.25887 z m 0.552705,-0.480351 c 0.252231,-0.155892 0.240821,-0.556749 -0.01969,-0.691459 -0.159766,-0.08262 -0.33572,-0.06037 -0.465879,0.05892 -0.361232,0.331042 0.0682,0.89048 0.485559,0.632545 z m 1.277523,0.417328 c -0.150529,-0.06065 -0.180929,-0.249156 -0.05973,-0.370359 l 0.07878,-0.07878 h 1.713092 1.713093 l 0.06979,0.07428 c 0.09259,0.09855 0.08897,0.230432 -0.009,0.328391 l -0.07878,0.07878 -1.678566,-0.0022 c -0.923211,-0.0012 -1.710119,-0.01474 -1.748686,-0.03029 z m -0.05973,-1.137787 c -0.04333,-0.04333 -0.07878,-0.116208 -0.07878,-0.161947 0,-0.04574 0.03545,-0.118615 0.07878,-0.161947 l 0.07878,-0.07878 h 2.069137 c 1.138024,0 2.092519,0.009 2.121097,0.01993 0.02856,0.01097 0.07279,0.06022 0.09825,0.109463 0.05973,0.115499 0.01261,0.264266 -0.09992,0.315541 -0.05724,0.02607 -0.667357,0.03652 -2.134359,0.03652 h -2.054203 z m 7.841732,-0.709708 c -0.152823,-0.08292 -0.184964,-0.193287 -0.184964,-0.635112 v -0.399667 l -0.425297,-0.01146 c -0.639991,-0.01725 -0.698124,-0.07898 -0.698124,-0.741208 0,-0.362858 0.0067,-0.409645 0.07318,-0.508245 0.112857,-0.167469 0.185004,-0.188775 0.640991,-0.189303 l 0.409247,-6.08e-4 6.07e-4,-0.409244 c 6.08e-4,-0.455988 0.02185,-0.528135 0.189303,-0.640992 0.09852,-0.06639 0.145479,-0.07318 0.506106,-0.07318 0.667391,0 0.726013,0.05506 0.743351,0.698126 l 0.01146,0.425293 h 0.399667 c 0.642757,0 0.685357,0.04564 0.685357,0.734192 0,0.434567 -0.0024,0.451537 -0.08231,0.546318 -0.108607,0.129067 -0.248227,0.163494 -0.663966,0.163709 l -0.345049,2.43e-4 -2.44e-4,0.345049 c -2.43e-4,0.41574 -0.03464,0.555361 -0.16371,0.663967 -0.09511,0.08004 -0.110392,0.08227 -0.552746,0.08103 -0.339583,-9.11e-4 -0.47721,-0.01337 -0.542797,-0.04896 z m 0.777966,-0.856025 0.01605,-0.440857 0.104807,-0.104804 0.104805,-0.104808 0.440856,-0.01605 0.440854,-0.01604 0.0094,-0.232708 0.0094,-0.232709 -0.378557,-0.0019 c -0.444227,-0.0022 -0.573962,-0.03819 -0.674346,-0.187498 -0.06692,-0.09952 -0.07333,-0.145157 -0.07333,-0.521588 V 37.390583 H 57.64333 57.402598 l -6.5e-5,0.377147 c -6.3e-5,0.418204 -0.03812,0.542778 -0.202785,0.663747 -0.0783,0.05752 -0.146414,0.06791 -0.50554,0.07705 l -0.415029,0.01058 v 0.238181 0.238181 h 0.412522 c 0.376431,0 0.422066,0.0065 0.52159,0.07333 0.149298,0.100381 0.185369,0.230117 0.187495,0.674346 l 0.0019,0.378554 0.232708,-0.0094 0.232708,-0.0094 z m -10.366692,0.338923 c -0.207063,-0.0759 -0.45816,-0.338321 -0.529636,-0.553519 -0.149702,-0.450707 0.09184,-0.950678 0.538904,-1.115506 0.05621,-0.02072 0.196863,-0.03878 0.312558,-0.04012 0.489175,-0.0057 0.865867,0.372076 0.861771,0.864199 -0.0022,0.242283 -0.0394,0.359874 -0.175338,0.551568 -0.203034,0.286299 -0.662702,0.420055 -1.008259,0.293381 z m 0.493202,-0.476347 c 0.242902,-0.115263 0.296526,-0.451063 0.102942,-0.644644 -0.09312,-0.09313 -0.13124,-0.109134 -0.259852,-0.109134 -0.183849,0 -0.319683,0.07486 -0.384793,0.212076 -0.0953,0.200829 -0.03341,0.413504 0.153503,0.52747 0.123459,0.07528 0.249795,0.07991 0.3882,0.01422 z m 1.313521,0.401948 c -0.144142,-0.05897 -0.177937,-0.230314 -0.07199,-0.365002 l 0.06652,-0.08457 h 1.725353 1.725353 l 0.06978,0.07428 c 0.08613,0.09169 0.08944,0.215302 0.0084,0.315354 l -0.06135,0.07577 -1.696007,0.0065 c -0.939398,0.0036 -1.727285,-0.0064 -1.766126,-0.02228 z m -0.05973,-1.138218 c -0.04333,-0.04333 -0.07878,-0.116209 -0.07878,-0.161947 0,-0.04574 0.03545,-0.118615 0.07878,-0.161948 l 0.07878,-0.07878 h 2.069138 c 1.138024,0 2.092518,0.009 2.121096,0.01993 0.08556,0.03283 0.150191,0.189218 0.115698,0.279948 -0.07162,0.188367 0.01216,0.181579 -2.241313,0.181579 h -2.064619 z m -1.728118,-1.223703 c -0.232815,-0.07437 -0.480458,-0.333456 -0.551149,-0.576629 -0.112951,-0.388539 0.01811,-0.760889 0.348741,-0.990854 0.164396,-0.11434 0.203159,-0.126919 0.431795,-0.140155 0.20985,-0.01216 0.278563,-0.0027 0.41756,0.05703 0.200625,0.08631 0.394192,0.287387 0.471492,0.489795 0.07149,0.187198 0.05683,0.530708 -0.03033,0.710875 -0.188562,0.389745 -0.662724,0.585815 -1.088104,0.449938 z m 0.474326,-0.479454 c 0.132483,-0.06287 0.220013,-0.213375 0.217789,-0.37448 -0.0031,-0.225149 -0.159863,-0.381907 -0.385012,-0.385012 -0.420106,-0.0058 -0.578219,0.527439 -0.220976,0.745262 0.123458,0.07528 0.249794,0.07991 0.388199,0.01422 z m 1.313521,0.401948 c -0.144142,-0.05897 -0.177937,-0.230311 -0.07199,-0.365003 l 0.06652,-0.08457 h 1.725353 1.725353 l 0.06979,0.07429 c 0.08613,0.09169 0.08944,0.2153 0.0084,0.315353 l -0.06135,0.07577 -1.696007,0.0065 c -0.939399,0.0036 -1.727286,-0.0064 -1.766127,-0.02227 z m 0,-1.091754 c -0.144045,-0.05804 -0.177969,-0.229837 -0.07199,-0.364572 l 0.06652,-0.08457 H 51.4152 c 1.989641,0 2.100243,0.003 2.169619,0.05919 0.105795,0.08566 0.09905,0.249624 -0.01428,0.347109 l -0.08739,0.07516 -2.044438,-0.0022 c -1.124443,-0.0012 -2.075996,-0.01474 -2.114564,-0.03029 z m 3.516225,-1.882384 c -0.04655,-0.008 -0.162108,-0.06096 -0.256782,-0.117461 -0.206747,-0.123397 -0.360597,-0.338002 -0.411086,-0.573421 -0.135034,-0.62964 0.489446,-1.197801 1.104055,-1.004484 0.22482,0.07071 0.338561,0.17233 0.338561,0.302473 0,0.201305 -0.200524,0.282619 -0.42866,0.173828 -0.318051,-0.151668 -0.660563,0.182089 -0.523504,0.510119 0.09969,0.238592 0.397464,0.310659 0.595405,0.144102 0.128269,-0.107931 0.1985,-0.110879 0.312172,-0.01309 0.301084,0.25898 -0.215079,0.66754 -0.730161,0.577948 z m -5.413735,-0.09424 c -0.644596,-0.321215 -0.641512,-1.221268 0.0053,-1.562114 0.191069,-0.100682 0.557403,-0.100004 0.763248,0.0015 0.186713,0.09199 0.256864,0.227176 0.18465,0.355833 -0.06518,0.116111 -0.196251,0.157152 -0.326853,0.102343 -0.05674,-0.02382 -0.163287,-0.04981 -0.236768,-0.05776 -0.116877,-0.01264 -0.148272,-9.12e-4 -0.250739,0.09289 -0.273799,0.250918 -0.12719,0.669748 0.236194,0.674762 0.09505,0.0012 0.156724,-0.02075 0.229767,-0.08222 0.120391,-0.101304 0.218202,-0.106466 0.331321,-0.01747 0.17778,0.139842 0.05719,0.400286 -0.243399,0.525656 -0.190834,0.0796 -0.495619,0.06494 -0.692777,-0.0333 z m 1.567659,0.01282 c -0.06182,-0.06635 -0.06545,-0.110047 -0.06545,-0.787857 v -0.717605 l 0.07879,-0.07878 c 0.100408,-0.100411 0.223483,-0.100411 0.323894,0 0.06874,0.06874 0.07878,0.107621 0.07878,0.304928 v 0.226142 h 0.192588 0.192585 V 33.20669 c 0,-0.207043 0.05007,-0.364098 0.129656,-0.406692 0.0944,-0.05052 0.218455,-0.03638 0.287615,0.03278 0.06044,0.06044 0.06419,0.106992 0.06419,0.7953 0,0.837451 -0.0092,0.873783 -0.22153,0.873783 -0.184639,0 -0.235501,-0.07741 -0.25334,-0.385568 l -0.01485,-0.256389 H 49.598775 49.41031 V 34.0867 c 0,0.218153 -0.0342,0.340566 -0.109122,0.390592 -0.074,0.04942 -0.24153,0.02449 -0.306897,-0.04568 z m 1.830651,-0.01435 c -0.06246,-0.07941 -0.06652,-0.125376 -0.06652,-0.752785 0,-0.710371 0.01544,-0.799202 0.149489,-0.860283 0.102055,-0.0465 0.627082,-0.04605 0.729519,6.08e-4 0.106197,0.04839 0.160842,0.182883 0.119007,0.292911 C 51.71284,33.212404 51.629428,33.25 51.418551,33.25 c -0.169161,0 -0.178649,0.0042 -0.178649,0.08024 0,0.07587 0.0096,0.08024 0.176537,0.08024 0.214402,0 0.304928,0.07078 0.304928,0.238405 0,0.154613 -0.118377,0.243061 -0.325303,0.243061 -0.145175,0 -0.156162,0.0056 -0.156162,0.08024 0,0.07716 0.0079,0.08024 0.203659,0.08024 0.163333,0 0.215241,0.01279 0.262134,0.06461 0.07497,0.08283 0.07497,0.237311 0,0.320148 -0.05229,0.05778 -0.09843,0.0646 -0.436342,0.0646 -0.369985,0 -0.379253,-0.0019 -0.444393,-0.08457 z m 3.272311,-0.0022 c -0.06562,-0.08343 -0.06782,-0.113665 -0.05851,-0.80533 0.0096,-0.711122 0.01048,-0.719296 0.08546,-0.779959 0.155269,-0.125619 0.370861,-0.03161 0.395093,0.172277 l 0.01061,0.08915 0.171783,-0.150666 c 0.119696,-0.10498 0.199862,-0.150664 0.264391,-0.150664 0.134814,0 0.221831,0.09295 0.221831,0.236959 0,0.109438 -0.02289,0.140638 -0.259585,0.354024 l -0.25958,0.23401 0.261962,0.258882 c 0.299924,0.296392 0.334442,0.346969 0.308195,0.451549 -0.02914,0.116144 -0.108517,0.176456 -0.232207,0.176456 -0.09281,0 -0.145618,-0.03165 -0.302634,-0.181424 l -0.190194,-0.181396 v 0.11723 c 0,0.236363 -0.273592,0.340743 -0.416601,0.158936 z M 47.077309,32.094935 C 46.949,32.042002 46.938803,31.971126 46.938803,31.132217 v -0.806011 l 0.07878,-0.07878 c 0.100411,-0.100411 0.223483,-0.100411 0.323894,0 0.07136,0.07136 0.07878,0.10465 0.07878,0.353073 v 0.274288 h 0.272828 0.272833 v -0.28655 c 0,-0.271335 0.0045,-0.290082 0.08457,-0.353074 0.110107,-0.08661 0.180458,-0.08396 0.290787,0.01094 l 0.09006,0.07746 v 0.824052 0.824047 l -0.09006,0.07746 c -0.110329,0.0949 -0.18068,0.09755 -0.290787,0.01094 -0.08121,-0.06388 -0.08457,-0.07917 -0.08457,-0.385172 v -0.318647 h -0.272833 -0.272828 v 0.301372 c 0,0.240333 -0.01139,0.314817 -0.05617,0.367756 -0.06726,0.07948 -0.190413,0.109366 -0.286783,0.06959 z m 1.893457,-0.04583 -0.09006,-0.07746 v -0.817901 c 0,-1.029286 -0.04366,-0.95303 0.545662,-0.95303 0.478728,0 0.529611,0.02212 0.529611,0.230259 0,0.168559 -0.07179,0.214319 -0.353885,0.22558 l -0.239921,0.0096 -0.01,0.120365 -0.01,0.120368 h 0.212035 c 0.18232,0 0.22307,0.01103 0.290814,0.07878 0.100411,0.100411 0.100411,0.223486 0,0.323897 -0.0676,0.0676 -0.108612,0.07878 -0.288879,0.07878 h -0.210092 v 0.12839 0.128389 h 0.240733 c 0.197935,0 0.252146,0.01143 0.304928,0.06419 0.09558,0.09558 0.08559,0.267389 -0.02039,0.350746 -0.07424,0.0584 -0.128937,0.06652 -0.447578,0.06652 -0.337455,0 -0.369345,-0.0054 -0.453065,-0.07746 z m 1.466681,0.01328 c -0.0353,-0.0353 -0.06419,-0.101073 -0.06419,-0.146146 0,-0.132881 0.569267,-1.595788 0.64571,-1.659351 0.03716,-0.0309 0.108479,-0.05617 0.158499,-0.05617 0.177273,0 0.237247,0.100821 0.543224,0.913219 0.159252,0.422829 0.289551,0.785592 0.289551,0.806139 0,0.08577 -0.133963,0.206504 -0.229124,0.206504 -0.145487,0 -0.209187,-0.04914 -0.269957,-0.208269 l -0.0553,-0.144808 h -0.270107 -0.270109 l -0.04971,0.120369 c -0.02734,0.0662 -0.07217,0.145643 -0.09963,0.176538 -0.06844,0.07701 -0.248211,0.07262 -0.328856,-0.008 z m 0.834542,-0.782708 c 0,-0.0068 -0.02054,-0.06097 -0.04566,-0.120369 l -0.04566,-0.108001 -0.03459,0.09036 c -0.04997,0.130517 -0.04394,0.150377 0.04566,0.150377 0.04413,0 0.08024,-0.0055 0.08024,-0.01236 z m 1.295594,0.810826 c -0.126208,-0.06381 -0.140076,-0.157468 -0.140076,-0.946007 0,-0.603852 0.0095,-0.772743 0.04759,-0.846409 0.08201,-0.158593 0.316711,-0.160026 0.401042,-0.0024 0.01926,0.03597 0.03283,0.327799 0.03283,0.705415 v 0.644064 h 0.186991 c 0.153959,0 0.199321,0.01313 0.256783,0.07429 0.08611,0.09167 0.08944,0.215282 0.0085,0.315353 -0.05644,0.06977 -0.08761,0.07636 -0.393194,0.08309 -0.189463,0.0042 -0.361316,-0.0076 -0.400452,-0.02735 z m 1.603323,0.0037 c -0.124898,-0.05032 -0.138514,-0.128969 -0.138514,-0.80011 v -0.644007 h -0.11445 c -0.220028,0 -0.34286,-0.146816 -0.269999,-0.322716 0.05562,-0.13427 0.154065,-0.158751 0.638415,-0.158751 0.400104,0 0.45181,0.0065 0.528102,0.06652 0.06198,0.04875 0.08457,0.09592 0.08457,0.176538 0,0.151711 -0.09337,0.238403 -0.256779,0.238403 h -0.128387 l -6.07e-4,0.617881 c -2.43e-4,0.339834 -0.0093,0.650958 -0.02012,0.691385 -0.01085,0.04043 -0.06047,0.09459 -0.11031,0.120369 -0.10242,0.05296 -0.114629,0.0538 -0.212074,0.01452 z m 1.187616,6.08e-4 c -0.128317,-0.05296 -0.138511,-0.123838 -0.138511,-0.962747 v -0.805955 l 0.07878,-0.07878 c 0.04333,-0.04333 0.116208,-0.07878 0.161947,-0.07878 0.04574,0 0.118615,0.03545 0.161947,0.07878 0.07136,0.07136 0.07878,0.104653 0.07878,0.353076 v 0.274284 h 0.272832 0.272828 v -0.286548 c 0,-0.271334 0.0045,-0.290082 0.08457,-0.353077 0.09718,-0.07644 0.137228,-0.08108 0.251237,-0.02914 0.132422,0.06034 0.151008,0.195487 0.139817,1.016651 l -0.01021,0.749105 -0.09006,0.07741 c -0.110347,0.09485 -0.180698,0.09748 -0.290787,0.01088 -0.08121,-0.06388 -0.08457,-0.07917 -0.08457,-0.385172 v -0.318645 h -0.272831 -0.27283 v 0.301373 c 0,0.240335 -0.01139,0.314819 -0.05617,0.367755 -0.06725,0.07948 -0.190409,0.109366 -0.286779,0.06959 z"
       id="path1764" />
    <path
       style="fill:#ffffff;stroke-width:2.12598;stroke-linecap:round;stroke-miterlimit:4;stroke-dasharray:none"
       d=""
       id="path1772"
       transform="matrix(0.26458333,0,0,0.26458333,44.581036,28.552681)" />
    <path
       style="fill:#ffffff;stroke-width:2.12598;stroke-linecap:round;stroke-miterlimit:4;stroke-dasharray:none"
       d="m 41.841181,58.176975 c 0.01024,-2.242581 0.134224,-3.041168 0.534335,-3.441568 0.339343,-0.339589 0.340028,-0.339693 2.493091,-0.380326 l 2.153655,-0.04064 -0.444609,0.478143 c -2.189925,2.3551 -4.546049,4.790644 -4.634427,4.790644 -0.05965,0 -0.105575,-0.632813 -0.102045,-1.40625 z"
       id="path1774"
       transform="matrix(0.26458333,0,0,0.26458333,44.581036,28.552681)" />
    <path
       style="fill:#f9f9f9;stroke:#000000;stroke-width:0.0738563px;stroke-linecap:butt;stroke-linejoin:miter;stroke-opacity:1"
       d="m 48.425875,28.998011 c 1.162322,0.0011 1.162322,0.0011 1.162322,0.0011"
       id="path16" />
    <path
       style="fill:#ffffff;stroke-width:0.125"
       d="m 6.7374622,60.882054 -0.4097997,-0.340387 0.0348,-28.375 C 6.3886812,10.788305 6.4334286,3.7111093 6.5439365,3.4649648 6.6246074,3.2852787 6.7933574,3.0953217 6.9189365,3.042838 7.0445155,2.9903545 8.975387,2.920264 11.209762,2.8870814 c 3.886506,-0.057718 4.074684,-0.071512 4.34375,-0.3184126 0.154687,-0.1419443 0.28125,-0.3607755 0.28125,-0.4862914 0,-0.2040431 0.119138,-0.2282107 1.125,-0.2282107 0.867273,0 1.125,0.039093 1.125,0.1706426 0,0.093854 0.111511,0.3124057 0.247802,0.4856716 l 0.247801,0.3150289 14.478811,0.047128 c 16.423181,0.053456 15.064598,-0.0422 15.19697,1.0699995 0.03921,0.3294664 0.108398,5.7289303 0.15375,11.9988077 l 0.08245,11.399779 -0.297543,0.06045 c -2.976414,0.604653 -3.522483,0.849163 -3.585915,1.605647 -0.07976,0.951165 0.629646,1.187203 2.100871,0.69902 1.102225,-0.365742 3.783861,-0.401047 4.998784,-0.06581 2.53726,0.700108 4.710393,2.514194 5.858812,4.890814 0.706929,1.462966 0.929401,2.403886 0.933431,3.947829 0.01491,5.713423 -5.303497,10.181932 -10.79432,9.069348 -3.34606,-0.677997 -5.809288,-2.770591 -7.032437,-5.974285 -0.38003,-0.99538 -0.394363,-1.102335 -0.397999,-2.970063 -0.0031,-1.582269 0.0396,-2.06355 0.232787,-2.625 0.409501,-1.190124 0.925744,-2.176543 1.700754,-3.24974 0.412603,-0.571354 0.750188,-1.160167 0.750188,-1.308473 0,-0.447441 -0.447196,-0.816787 -0.98895,-0.816787 -0.40374,0 -0.556218,0.08366 -0.96819,0.53125 -2.092065,2.272916 -3.106588,5.647703 -2.67738,8.90625 0.623946,4.736995 4.270145,8.536121 9.04077,9.419953 l 1.09375,0.202634 v 1.329595 1.329594 l -3.03125,0.05502 c -3.404164,0.06179 -3.569053,0.100643 -4.493896,1.058861 -0.81552,0.844948 -0.849854,1.030803 -0.849854,4.600327 v 3.191515 l -16.46875,-0.0034 -16.46875,-0.0034 z m 6.5541568,-8.339155 c 1.485742,-0.441219 2.312389,-1.572227 2.322439,-3.177535 0.0044,-0.704529 -0.06037,-1.009667 -0.332355,-1.565591 -1.440761,-2.94481 -5.9553193,-2.144426 -6.390071,1.132894 -0.1206099,0.909201 0.1830794,1.857877 0.8300176,2.592837 0.9761044,1.108914 2.1424764,1.441314 3.5699694,1.017395 z m 17.984618,-0.524842 c 0.274107,-0.418342 0.267379,-0.989048 -0.01534,-1.301454 -0.205908,-0.227525 -0.489798,-0.237436 -6.80113,-0.237436 -6.11419,0 -6.600383,0.01568 -6.783388,0.21875 -0.525144,0.582726 -0.314905,1.462331 0.374407,1.566455 0.190564,0.02878 3.1947,0.06076 6.675855,0.07107 l 6.329373,0.01873 z m 2.516594,-3.92171 c 0.192138,-0.07305 0.391813,-0.199614 0.443723,-0.28125 0.160206,-0.251954 0.108137,-0.891129 -0.09638,-1.183117 l -0.194588,-0.277813 h -8.046339 -8.04634 l -0.259073,0.329357 c -0.142489,0.181146 -0.259072,0.45481 -0.259072,0.608143 0,0.153332 0.116583,0.426996 0.259072,0.608142 l 0.259073,0.329358 h 7.79529 c 5.200322,0 7.911582,-0.04421 8.144634,-0.13282 z m 17.531282,-2.799174 c 0.545823,-0.282256 0.737308,-0.848096 0.833933,-2.464291 l 0.08664,-1.449147 1.45129,-0.05175 c 1.127065,-0.04019 1.539859,-0.104071 1.847744,-0.285948 0.646412,-0.381859 0.730061,-0.673509 0.714966,-2.492818 -0.02128,-2.564965 -0.133212,-2.691317 -2.473689,-2.792395 l -1.55359,-0.0671 -0.0772,-1.326031 c -0.0898,-1.54252 -0.225481,-2.13975 -0.553562,-2.436658 -0.586941,-0.531175 -3.50484,-0.585851 -4.321735,-0.08098 -0.563491,0.348256 -0.692556,0.816754 -0.69345,2.517172 l -7.5e-4,1.325565 -1.541407,0.06657 c -2.516368,0.108674 -2.769766,0.387655 -2.685103,2.956184 0.03002,0.910607 0.116762,1.69433 0.205437,1.856075 0.281733,0.513884 0.83066,0.681131 2.467567,0.751824 l 1.529309,0.06605 0.04335,1.581811 c 0.06503,2.372868 0.1833,2.477176 2.830806,2.496589 1.119824,0.0082 1.633057,-0.03816 1.889394,-0.17072 z M 13.816542,43.093538 c 1.251395,-0.625329 1.76822,-1.512001 1.76822,-3.033583 0,-0.770757 -0.05879,-1.0404 -0.348343,-1.597765 -0.607925,-1.170192 -1.909709,-1.831261 -3.318577,-1.685231 -1.847053,0.191449 -3.0067411,1.499241 -3.0058319,3.389708 5e-4,1.040016 0.2546821,1.61086 1.0686866,2.400067 0.7092473,0.687641 1.2373843,0.901583 2.2403503,0.90754 0.676337,0.004 0.961911,-0.06413 1.595495,-0.380736 z m 17.44435,-0.226808 c 0.279019,-0.308312 0.29159,-0.914937 0.02732,-1.318267 L 31.079001,41.229167 H 24.455046 17.83109 l -0.247695,0.40625 c -0.313989,0.514978 -0.312023,0.729443 0.01044,1.139392 l 0.259073,0.329358 h 6.596554 c 6.321452,0 6.605515,-0.0099 6.811431,-0.237437 z m -1.697179,-3.869486 c 4.177086,-0.07621 4.42606,-0.09373 4.59375,-0.323219 0.227644,-0.31154 0.227605,-0.953258 -7.5e-5,-1.264717 -0.171946,-0.235215 -0.424427,-0.243705 -8.249692,-0.277419 l -8.072318,-0.03478 -0.249841,0.409777 c -0.328594,0.538945 -0.315874,0.750731 0.07284,1.212686 l 0.323611,0.384592 3.582638,-0.01317 c 1.970451,-0.0072 5.570041,-0.04943 7.99909,-0.09375 z M 13.362855,34.098465 c 0.735411,-0.204241 1.49509,-0.85599 1.878157,-1.611321 0.282377,-0.556791 0.34375,-0.841901 0.34375,-1.596906 0,-1.091094 -0.209205,-1.664146 -0.849853,-2.327913 -0.772635,-0.800517 -1.302153,-1.009885 -2.50252,-0.989482 -1.187716,0.02019 -1.800233,0.29016 -2.52112,1.111205 -0.5831278,0.664146 -0.79286,1.238199 -0.79286,2.170119 0,1.919448 1.390862,3.37599 3.222146,3.374302 0.416189,-3.75e-4 0.966224,-0.05888 1.2223,-0.130004 z M 31.260892,33.61673 c 0.282724,-0.312406 0.289452,-0.883112 0.01534,-1.301453 l -0.220228,-0.33611 h -6.612461 -6.612461 l -0.247695,0.40625 c -0.315329,0.517176 -0.314895,0.902485 0.0014,1.21875 0.243692,0.243692 0.416667,0.25 6.855626,0.25 6.330365,0 6.614581,-0.0099 6.820504,-0.237437 z m 2.744325,-4.092108 c 0.413059,-0.413059 0.442969,-1.029025 0.06651,-1.369832 -0.251864,-0.228016 -0.601909,-0.239831 -8.24638,-0.278346 L 17.842,27.836222 17.588848,28.251444 c -0.298132,0.489 -0.321044,0.838234 -0.07693,1.172581 0.161923,0.221773 0.390374,0.248464 2.65625,0.310334 1.3635,0.03723 4.960482,0.07942 7.993295,0.09375 l 5.514204,0.02606 z M 13.406273,22.343074 c 0.478204,-0.147711 1.133682,-0.814724 1.245104,-1.267011 0.06775,-0.275028 0.0111,-0.413409 -0.294238,-0.71875 -0.455279,-0.455279 -0.67993,-0.465778 -1.334877,-0.06239 -0.717793,0.4421 -1.238862,0.407876 -1.7625,-0.115761 -0.517974,-0.517974 -0.564057,-1.081683 -0.139883,-1.711115 0.377072,-0.559538 0.81393,-0.70611 1.532077,-0.514035 1.230221,0.329033 1.807806,0.09745 1.807806,-0.72485 0,-0.803057 -0.819046,-1.251653 -2.277235,-1.247255 -1.117625,0.0034 -1.728622,0.256727 -2.3911613,0.991522 -0.6532815,0.724528 -0.8725222,1.289561 -0.8752543,2.255733 -0.00674,2.383318 2.1078526,3.84978 4.4901616,3.113907 z m 4.350332,0.142045 c 0.372383,-0.14158 0.576425,-0.750994 0.57746,-1.724702 l 6.97e-4,-0.65625 h 0.609375 c 0.5825,0 0.61282,0.01723 0.6875,0.390625 0.04297,0.214843 0.07895,0.594531 0.07997,0.84375 0.0036,0.885373 0.491345,1.32784 1.294478,1.174311 0.487874,-0.09326 0.577194,-0.635398 0.577982,-3.508118 7.5e-4,-2.527291 -5e-4,-2.538098 -0.306121,-2.84375 -0.360576,-0.360577 -0.808337,-0.393861 -1.184761,-0.08807 -0.194369,0.157898 -0.301839,0.444771 -0.386335,1.03125 -0.06438,0.446875 -0.118189,0.882812 -0.119571,0.96875 -0.0017,0.103342 -0.209367,0.15625 -0.613408,0.15625 h -0.610894 l -0.05029,-0.89007 c -0.04439,-0.785624 -0.09087,-0.924973 -0.396076,-1.1875 -0.445781,-0.383445 -0.720208,-0.375224 -1.209184,0.03622 l -0.396523,0.333653 0.05193,2.697597 c 0.02856,1.483679 0.09618,2.795981 0.15026,2.916228 0.05408,0.120246 0.275144,0.26986 0.491251,0.332476 0.216108,0.06261 0.403324,0.11892 0.416035,0.12512 0.01271,0.0062 0.164016,-0.0423 0.336231,-0.107774 z m 9.234407,-0.282839 c 0.264222,-0.302946 0.28329,-0.837067 0.04168,-1.16749 -0.131988,-0.180503 -0.378634,-0.258193 -0.96875,-0.305141 -0.592389,-0.04713 -0.791679,-0.110182 -0.791679,-0.250482 0,-0.12878 0.17616,-0.208869 0.5625,-0.255735 0.997216,-0.120969 1.369745,-0.53614 1.175502,-1.310063 -0.09705,-0.386685 -0.396167,-0.559202 -0.969561,-0.559202 -1.097709,0 -1.144534,-0.431609 -0.05913,-0.545057 0.885352,-0.09254 1.228191,-0.33191 1.228191,-0.857535 0,-0.804948 -0.514538,-1.096015 -1.9375,-1.096015 -1.04518,0 -1.616486,0.180823 -1.79261,0.567372 -0.09497,0.20843 -0.14489,1.210851 -0.14489,2.909303 0,3.065939 0.01475,3.111234 1.033825,3.174853 1.348887,0.08421 2.388527,-0.03663 2.622425,-0.304808 z m 5.983819,0.20907 c 1.413936,-0.498866 1.845675,-1.847098 0.738365,-2.305761 -0.345877,-0.143267 -0.428734,-0.126357 -0.895987,0.182856 -0.898117,0.594347 -1.813702,0.375117 -2.189483,-0.524255 -0.239844,-0.574026 -0.134345,-0.968642 0.402478,-1.505466 0.395737,-0.395736 0.473794,-0.424115 0.961383,-0.349517 1.56995,0.240187 1.803164,0.231843 2.016076,-0.07213 0.64528,-0.921265 -0.38751,-1.849608 -2.063886,-1.855163 -0.983834,-0.0033 -1.552733,0.209495 -2.256415,0.843846 -1.713103,1.544317 -1.400075,4.143506 0.646986,5.372159 0.551399,0.330951 0.808189,0.40625 1.385419,0.40625 0.38971,0 0.954489,-0.08677 1.255064,-0.192817 z m 4.391181,-0.201362 c 0.120312,-0.142184 0.21875,-0.399744 0.21875,-0.572354 0,-0.301779 0.02654,-0.291162 0.690817,0.276349 0.540708,0.46194 0.786814,0.590184 1.132595,0.590184 0.569257,0 0.926588,-0.323362 0.926588,-0.8385 0,-0.32783 -0.18289,-0.59523 -1.01653,-1.486244 l -1.01653,-1.086491 0.905042,-0.838133 c 0.819374,-0.758796 0.904948,-0.883222 0.90403,-1.314477 -0.0022,-1.056078 -0.825937,-1.265583 -1.834377,-0.466573 l -0.620865,0.491926 -0.129135,-0.398037 c -0.249611,-0.769389 -1.303836,-0.898804 -1.658543,-0.2036 -0.199542,0.391092 -0.221182,5.388679 -0.02492,5.755397 0.282123,0.52715 1.111899,0.576484 1.523079,0.09055 z M 14.299584,13.242325 c 0.273832,-0.198133 0.277371,-0.241045 0.28125,-3.4103358 l 0.0039,-3.2096775 -0.329357,-0.2590725 C 13.79449,6.0006833 13.287522,6.0283788 12.968834,6.433524 c -0.21222,0.2697942 -0.259072,0.5071555 -0.259072,1.3125 v 0.9831427 h -0.91988 -0.919881 L 10.802062,7.6401808 C 10.744335,6.7148977 10.692628,6.5175949 10.458094,6.3276808 10.088079,6.0280605 9.5678874,6.0456352 9.1532819,6.3717639 L 8.8130872,6.639361 8.8551746,9.7963083 c 0.038595,2.8950287 0.061844,3.1787637 0.2802109,3.4199027 0.2976895,0.328734 0.9436905,0.346352 1.3267315,0.03618 0.245404,-0.198716 0.287886,-0.37656 0.34338,-1.4375 l 0.06333,-1.210728 h 0.920468 0.920468 v 1.134615 c 0,1.093407 0.01359,1.148202 0.374095,1.508711 0.40091,0.400909 0.656,0.399825 1.215727,-0.0052 z M 19.614541,13.473 c 0.514032,-0.142756 0.721223,-0.418037 0.718307,-0.954366 -0.0036,-0.670115 -0.401747,-0.914467 -1.489869,-0.914467 h -0.758217 v -0.4375 -0.4375 h 0.773194 c 0.93377,0 1.351806,-0.293848 1.351806,-0.9502171 0,-0.6163855 -0.466799,-0.9247832 -1.399778,-0.9247832 h -0.741062 l 0.03917,-0.40625 0.03917,-0.40625 0.88761,-0.0625 c 0.488185,-0.034375 0.980372,-0.1397 1.09375,-0.2340557 0.304869,-0.2537197 0.281494,-1.2168206 -0.03363,-1.3854675 -0.131872,-0.070575 -0.951287,-0.1370687 -1.820921,-0.1477627 -1.331614,-0.016375 -1.61435,0.013716 -1.791484,0.1906674 -0.184054,0.1838626 -0.214995,0.6096812 -0.247682,3.4085713 l -0.03735,3.1984605 0.285829,0.203543 c 0.157206,0.111949 0.42714,0.239076 0.599853,0.282504 0.516742,0.129934 2.030695,0.116401 2.531302,-0.02263 z m 3.669331,-0.04726 c 0.140105,-0.09813 0.358039,-0.407508 0.484297,-0.6875 l 0.229562,-0.509075 h 0.971321 0.971322 l 0.143743,0.435545 c 0.166014,0.503027 0.659902,0.939455 1.063145,0.939455 0.400664,0 0.9375,-0.464504 0.9375,-0.811184 0,-0.574736 -1.966819,-5.7040067 -2.396815,-6.2506577 -0.183854,-0.2337328 -0.362918,-0.3126731 -0.706008,-0.3112445 -0.252822,0.00105 -0.528123,0.045407 -0.61178,0.098564 -0.19474,0.1237421 -0.719265,1.2839411 -1.508667,3.3370219 -0.960713,2.4986283 -1.097025,2.9962923 -0.924444,3.3750673 0.232841,0.511032 0.89566,0.700015 1.346824,0.384008 z m 14.01964,-0.236991 c 0.273696,-0.246363 0.28125,-0.319722 0.28125,-2.731374 V 7.9791667 h 0.443181 c 0.537906,0 1.056819,-0.4603262 1.056819,-0.9375 0,-0.1796288 -0.140543,-0.464406 -0.315573,-0.6394362 -0.31412,-0.3141201 -0.324457,-0.3153885 -2.245882,-0.2755682 -2.176525,0.045107 -2.363545,0.1175084 -2.363545,0.9150044 0,0.5762563 0.268436,0.8255623 0.974616,0.9051591 l 0.575384,0.064854 0.0018,2.3899932 c 0.002,2.58045 0.07576,2.944734 0.624158,3.082378 0.385999,0.09688 0.606962,0.02946 0.96775,-0.2953 z m 8.169015,0.129297 0.424735,-0.286119 0.03725,-2.682631 C 45.976551,7.3222968 45.919829,6.6892343 45.575752,6.3451564 45.284788,6.0541933 44.741408,6.03341 44.362576,6.2987547 c -0.25187,0.1764165 -0.277814,0.2989836 -0.277814,1.3125 v 1.117912 h -1 -1 V 7.746024 c 0,-0.8053445 -0.04685,-1.0427058 -0.259073,-1.3125 -0.301772,-0.3836413 -0.897183,-0.4436087 -1.338113,-0.1347693 -0.27484,0.1925055 -0.277814,0.228997 -0.277814,3.4096867 0,3.6752916 0.0221,3.7707256 0.873015,3.7707256 0.778976,0 1.001985,-0.393245 1.001985,-1.766858 v -1.108142 h 1 1 v 1.230626 c 0,1.269885 0.07797,1.479555 0.625,1.680694 0.29645,0.109003 0.31498,0.104206 0.762765,-0.197439 z m -12.262765,-0.08888 c 0.312315,-0.312315 0.321766,-0.883677 0.02077,-1.255396 -0.17352,-0.214288 -0.396686,-0.296978 -0.91821,-0.340227 l -0.688975,-0.05714 -0.07724,-2.5173713 C 31.473237,6.6839115 31.453697,6.5292995 31.20047,6.3229107 30.847058,6.034875 30.269202,6.0447239 29.970045,6.3438817 c -0.337655,0.3376546 -0.415914,1.1989955 -0.36585,4.0266503 0.05721,3.231169 -0.01852,3.108629 1.920952,3.108629 1.267953,0 1.463663,-0.02904 1.684619,-0.25 z"
       id="path18"
       transform="matrix(0.26458333,0,0,0.26458333,44.581036,28.552681)" />
  </g>
</svg>
