<?xml version="1.0" encoding="UTF-8" standalone="no"?>
<!-- Created with Inkscape (http://www.inkscape.org/) -->

<svg
   xmlns:dc="http://purl.org/dc/elements/1.1/"
   xmlns:cc="http://creativecommons.org/ns#"
   xmlns:rdf="http://www.w3.org/1999/02/22-rdf-syntax-ns#"
   xmlns:svg="http://www.w3.org/2000/svg"
   xmlns="http://www.w3.org/2000/svg"
   xmlns:sodipodi="http://sodipodi.sourceforge.net/DTD/sodipodi-0.dtd"
   xmlns:inkscape="http://www.inkscape.org/namespaces/inkscape"
   width="64"
   height="64"
   viewBox="0 0 16.933333 16.933333"
   version="1.1"
   id="svg8"
   inkscape:version="0.92.5 (2060ec1f9f, 2020-04-08)"
   sodipodi:docname="hearing_aid_64x64.svg">
  <defs
     id="defs2" />
  <sodipodi:namedview
     id="base"
     pagecolor="#ffffff"
     bordercolor="#666666"
     borderopacity="1.0"
     inkscape:pageopacity="0.0"
     inkscape:pageshadow="2"
     inkscape:zoom="7.9195959"
     inkscape:cx="40.870038"
     inkscape:cy="18.214201"
     inkscape:document-units="mm"
     inkscape:current-layer="layer1"
     showgrid="false"
     units="px"
     inkscape:window-width="1208"
     inkscape:window-height="987"
     inkscape:window-x="1992"
     inkscape:window-y="0"
     inkscape:window-maximized="1" />
  <metadata
     id="metadata5">
    <rdf:RDF>
      <cc:Work
         rdf:about="">
        <dc:format>image/svg+xml</dc:format>
        <dc:type
           rdf:resource="http://purl.org/dc/dcmitype/StillImage" />
        <dc:title></dc:title>
      </cc:Work>
    </rdf:RDF>
  </metadata>
  <g
     inkscape:label="Layer 1"
     inkscape:groupmode="layer"
     id="layer1"
     transform="translate(0,-280.06667)">
    <path
       style="fill:#000000;stroke-width:0.03114629"
       d="m 2.5690596,294.56718 c -0.5268718,-0.16842 -0.9403187,-0.65822 -1.0198397,-1.20815 -0.016762,-0.11595 -0.030768,-0.36849 -0.0311,-0.56122 l -6.123e-4,-0.35039 H 1.1266318 c -0.40542822,0 -0.5450727,-0.0337 -0.58645834,-0.14156 -0.031789,-0.0828 -0.02189,-1.22821 0.0110981,-1.28994 0.0497117,-0.0929 0.20600718,-0.12578 0.59708444,-0.12578 h 0.3691081 v -0.48276 -0.48277 H 1.0955725 c -0.40640411,0 -0.42469681,-0.003 -0.49833959,-0.0764 -0.0759134,-0.0759 -0.0764492,-0.0806 -0.0764492,-0.68103 0,-0.80572 -0.0307302,-0.7639 0.57001529,-0.77564 l 0.4422394,-0.009 0.00765,-0.10907 c 0.023599,-0.33646 0.085391,-0.72835 0.1638459,-1.03898 0.1049853,-0.41569 0.2925671,-0.9102 0.3827104,-1.00888 0.0914,-0.10001 0.2475114,-0.0944 0.3312075,0.0115 0.085914,0.1092 0.082713,0.1415 -0.043601,0.44102 -0.1920147,0.45527 -0.3586466,1.17763 -0.3589222,1.55592 l -1.173e-4,0.16353 0.2413845,-7.2e-4 c 0.4453648,-10e-4 0.6858168,-0.10256 0.8294107,-0.34892 0.048168,-0.0827 0.1074473,-0.28131 0.1564255,-0.52423 0.1367718,-0.67832 0.3665135,-1.24841 0.727265,-1.80466 0.4162507,-0.64183 1.0418509,-1.25389 1.7025056,-1.66566 0.2660529,-0.16582 0.2671831,-0.17703 0.031738,-0.31502 -0.1636482,-0.0959 -0.3998639,-0.12718 -0.5620196,-0.0744 -0.1745422,0.0568 -0.700215,0.42252 -1.0946969,0.76153 -0.3309206,0.28441 -0.6806262,0.64946 -0.9258186,0.96647 -0.066244,0.0856 -0.1475726,0.18026 -0.1807227,0.21024 -0.1364081,0.12335 -0.3648322,0.0222 -0.3648322,-0.1616 0,-0.13103 0.3082831,-0.52938 0.7623694,-0.98508 0.5901793,-0.59228 1.3108594,-1.12201 1.6785299,-1.2338 0.2576324,-0.0783 0.5253475,-0.0643 0.7681684,0.0402 l 0.1585482,0.0682 0.083746,-0.0665 c 1.3193744,-1.04749 3.3483932,-1.43647 4.9945781,-0.95751 1.576209,0.45861 2.908098,1.75058 3.420205,3.31768 0.196358,0.60089 0.224948,0.81008 0.241168,1.76466 l 0.01487,0.87515 -0.0852,0.067 c -0.109973,0.0865 -0.177489,0.0846 -0.285303,-0.008 l -0.08739,-0.0751 -0.02063,-0.86703 c -0.01684,-0.70752 -0.0322,-0.91648 -0.08348,-1.13581 -0.21701,-0.92816 -0.606192,-1.62785 -1.280513,-2.30218 -0.562487,-0.56248 -1.13279,-0.92038 -1.828576,-1.14752 -0.999499,-0.32629 -2.1830474,-0.30033 -3.2966595,0.0723 -0.5029102,0.16829 -1.091069,0.47945 -1.3475418,0.71293 l -0.070824,0.0644 0.1788629,0.18075 c 0.098377,0.0994 0.1896904,0.18074 0.2029265,0.18074 0.013241,0 0.089665,-0.0501 0.1698389,-0.11123 0.2217014,-0.16923 0.8588831,-0.46687 1.2252027,-0.57232 1.5845317,-0.45613 2.9950223,-0.19368 4.1563693,0.77339 0.752496,0.6266 1.287977,1.61609 1.417825,2.61993 0.01662,0.12849 0.03065,0.83978 0.03118,1.58068 l 9.64e-4,1.34707 h 0.264744 0.264743 v -0.18222 c 0,-0.30924 0.07658,-0.4407 0.256743,-0.4407 0.161394,0 0.193618,0.0624 0.210452,0.40733 l 0.01558,0.31912 0.187708,0.0806 c 0.361979,0.15543 0.559571,0.29048 0.841269,0.57499 0.317311,0.32047 0.520081,0.6646 0.636197,1.0797 0.439519,1.57126 -0.760253,3.14672 -2.394308,3.14404 -0.181411,-3.6e-4 -0.42287,-0.0203 -0.536574,-0.0444 -0.948815,-0.20111 -1.75056,-1.01869 -1.92396,-1.96197 -0.05508,-0.29964 -0.04233,-0.7843 0.02801,-1.06384 0.08214,-0.32645 0.299323,-0.75929 0.506645,-1.00971 0.264133,-0.31903 0.708858,-0.63213 1.058765,-0.74542 l 0.116798,-0.0378 v -1.42623 c 0,-1.12425 -0.0098,-1.48264 -0.04645,-1.6926 -0.274811,-1.57589 -1.471355,-2.76745 -3.042894,-3.03024 -0.3906039,-0.0653 -1.0433203,-0.0453 -1.4923538,0.0457 -0.5611292,0.11379 -1.1455733,0.3485 -1.4984387,0.6019 l -0.1467677,0.10537 0.05919,0.0973 c 0.2317572,0.38109 0.192456,0.94464 -0.090749,1.30128 -0.4757479,0.5991 -0.7789552,1.20478 -0.9432999,1.88436 -0.056881,0.2352 -0.066142,0.40144 -0.083032,1.48997 l -0.019007,1.22524 -0.087394,0.0751 c -0.1076514,0.0925 -0.1753369,0.0945 -0.2846033,0.009 l -0.084498,-0.0665 0.013445,-1.24945 c 0.012374,-1.14378 0.019122,-1.27318 0.080493,-1.52979 0.1865689,-0.77999 0.4597501,-1.36428 0.9107443,-1.94795 0.2172877,-0.2812 0.2771829,-0.41398 0.2771829,-0.61449 0,-0.20229 -0.1105599,-0.41628 -0.3239428,-0.627 l -0.1703862,-0.16826 -0.2224566,0.13216 c -0.5347209,0.31767 -1.1031467,0.81912 -1.4673768,1.29448 -0.4476609,0.58424 -0.7245759,1.21341 -0.8815168,2.00284 -0.085965,0.43245 -0.1526892,0.59234 -0.3323646,0.79645 -0.2310225,0.26245 -0.6053927,0.3911 -1.1425067,0.39258 l -0.2267886,5.9e-4 0.00906,2.25032 c 0.00842,2.10118 0.012846,2.26019 0.066576,2.39937 0.084626,0.2192 0.321195,0.46194 0.5557651,0.57027 l 0.1959564,0.0904 H 3.7289007 4.647716 l 0.1905349,-0.088 c 0.2371954,-0.10957 0.4187115,-0.29209 0.5320357,-0.53486 l 0.087228,-0.18688 0.015576,-1.06933 c 0.014746,-1.01284 0.018765,-1.07166 0.076028,-1.11347 0.1496582,-0.10932 0.3390795,-0.0161 0.3768844,0.18539 0.011226,0.0596 0.014389,0.54046 0.00714,1.06849 -0.011863,0.86546 -0.019568,0.97924 -0.07761,1.15467 -0.1560926,0.47176 -0.5427408,0.85187 -1.0032143,0.98629 -0.1389977,0.0406 -0.341766,0.0491 -1.1368402,0.0477 -0.849821,-10e-4 -0.9894335,-0.009 -1.1463872,-0.0588 z m 12.0712844,-0.51045 c 0.783716,-0.28447 1.304151,-0.98203 1.350577,-1.81022 0.05534,-0.98708 -0.637737,-1.88759 -1.609999,-2.09189 -0.657463,-0.13815 -1.364221,0.0765 -1.844584,0.56044 -0.441564,0.44478 -0.639063,1.00726 -0.580919,1.6545 0.0638,0.71021 0.561449,1.36625 1.257517,1.65777 0.412149,0.17261 0.999545,0.18471 1.427408,0.0295 z m -0.977988,-0.7798 c -0.46418,-0.12514 -0.819334,-0.55467 -0.86003,-1.04012 -0.05645,-0.67326 0.472931,-1.25481 1.144154,-1.25693 0.379439,-10e-4 0.626462,0.10308 0.876015,0.3699 0.232046,0.24808 0.31074,0.45542 0.309601,0.81571 -0.0024,0.75271 -0.737753,1.30881 -1.46974,1.11144 z m 0.621863,-0.50668 c 0.347429,-0.17313 0.490737,-0.58673 0.322295,-0.93019 -0.152423,-0.31078 -0.509096,-0.47368 -0.826563,-0.37752 -0.208175,0.063 -0.34441,0.17695 -0.43921,0.3672 -0.144058,0.28909 -0.09736,0.57339 0.131739,0.80205 0.23523,0.23477 0.520744,0.28347 0.811739,0.13846 z M 1.5174998,291.66877 V 291.3573 H 1.252757 0.98801294 v 0.31147 0.31146 H 1.252757 1.5174998 Z m 0,-2.50729 V 288.8656 H 1.252757 0.98801294 v 0.29588 0.2959 H 1.252757 1.5174998 Z m 1.5147963,3.96889 c -0.081794,-0.0643 -0.082062,-0.0659 -0.082062,-0.50848 0,-0.42376 0.00332,-0.44701 0.072087,-0.51165 0.088976,-0.0836 0.2089233,-0.0867 0.3060047,-0.008 0.071232,0.0577 0.073528,0.0739 0.073528,0.51667 0,0.44283 -0.0023,0.45899 -0.073528,0.51666 -0.095252,0.0772 -0.1937112,0.0755 -0.2960254,-0.005 z m 0.9910651,-0.0115 c -0.073668,-0.0736 -0.076449,-0.0918 -0.076449,-0.49976 0,-0.40791 0.00281,-0.42608 0.076449,-0.49975 0.098097,-0.0981 0.2332472,-0.0999 0.323023,-0.004 0.062749,0.0667 0.067724,0.10345 0.067724,0.49975 0,0.41254 -0.00268,0.43037 -0.076449,0.50412 -0.042045,0.0421 -0.1127667,0.0764 -0.1571462,0.0764 -0.04438,0 -0.1151012,-0.0344 -0.1571476,-0.0764 z m 7.1281678,-2.97611 c -0.193384,-0.0779 -0.169625,-0.40413 0.04794,-0.65832 0.265039,-0.30963 0.752036,-0.3314 0.752036,-0.0337 0,0.13176 -0.07688,0.21669 -0.217728,0.24048 -0.140444,0.0237 -0.249466,0.13509 -0.249466,0.25483 0,0.0889 -0.129294,0.22882 -0.208822,0.22601 -0.03076,-10e-4 -0.08654,-0.0143 -0.123967,-0.0293 z m -0.986731,-0.15777 c -0.07165,-0.0564 -0.08206,-0.0872 -0.08206,-0.24352 0,-0.36338 0.16241,-0.73232 0.447862,-1.0174 0.470966,-0.47034 1.296332,-0.60968 1.296332,-0.21884 0,0.14718 -0.08843,0.2118 -0.329484,0.24082 -0.524965,0.0633 -0.894013,0.44684 -0.961269,0.99926 -0.01698,0.13947 -0.03923,0.1923 -0.10163,0.24139 -0.101363,0.0797 -0.166734,0.0793 -0.269744,-10e-4 z m -0.8820471,-0.0602 c -0.1117845,-0.045 -0.1442202,-0.14475 -0.125842,-0.38689 0.0348,-0.45846 0.1998879,-0.8871 0.4881485,-1.26742 0.2092677,-0.27609 0.4874916,-0.50037 0.8270036,-0.66664 0.320599,-0.15701 0.590327,-0.22769 0.915416,-0.2399 0.20599,-0.008 0.232166,-0.001 0.286362,0.0651 0.03281,0.0404 0.05965,0.11404 0.05965,0.16351 0,0.14519 -0.08645,0.20276 -0.342294,0.22798 -0.478409,0.0471 -0.901973,0.24213 -1.215021,0.55936 -0.3021507,0.30619 -0.5104286,0.7291 -0.5476008,1.11192 -0.032924,0.33915 -0.042619,0.36856 -0.1374682,0.41761 -0.1020641,0.0528 -0.1135449,0.0536 -0.2083505,0.0154 z"
       id="path767"
       inkscape:connector-curvature="0" />
    <path
       style="fill:#ffffff;stroke-width:0.00118914;stroke-miterlimit:4;stroke-dasharray:none"
       d="m 2.0352088,288.13878 c 0.028562,-0.37037 0.1636916,-0.93819 0.3297661,-1.38567 0.1427289,-0.38458 0.1438872,-0.39079 0.090328,-0.48412 l -0.054266,-0.0945 0.1644876,-0.26117 c 0.090469,-0.14365 0.1766777,-0.25363 0.1915759,-0.24442 0.07664,0.0473 0.1967282,-0.0461 0.4412495,-0.34338 0.4762914,-0.5791 1.2044289,-1.21982 1.745681,-1.5361 0.2713264,-0.15856 0.4736036,-0.16873 0.7319631,-0.0367 0.093186,0.0476 0.1739937,0.10192 0.1795734,0.12068 0.00561,0.0188 -0.092905,0.1023 -0.2188453,0.18578 -0.3570138,0.23645 -0.5833189,0.41731 -0.8854929,0.70765 -0.773535,0.74321 -1.2381249,1.55724 -1.4847103,2.60138 -0.1639148,0.69409 -0.2170606,0.79544 -0.4803173,0.91596 -0.1327369,0.0607 -0.2428847,0.0829 -0.4719338,0.0949 l -0.2987833,0.0156 z"
       id="path775"
       inkscape:connector-curvature="0" />
    <path
       style="fill:#ffffff;stroke-width:0.00118914;stroke-miterlimit:4;stroke-dasharray:none"
       d="M 2.6248447,294.06377 C 2.38513,293.9346 2.2400551,293.80237 2.1250892,293.60823 l -0.083848,-0.14158 -0.020397,-0.97533 c -0.011226,-0.53645 -0.021839,-1.56645 -0.023599,-2.2889 l -0.00319,-1.31357 0.1651777,-6.2e-4 c 0.4756434,-0.001 0.8894896,-0.12412 1.1195796,-0.33103 0.2129454,-0.19145 0.3075572,-0.38866 0.4174039,-0.87007 0.1229846,-0.53899 0.2433542,-0.89766 0.4210944,-1.25481 0.3858178,-0.77523 1.046535,-1.48511 1.8567741,-1.99495 l 0.2831401,-0.17815 0.1654188,0.17708 c 0.2249046,0.24079 0.3030657,0.3991 0.3031932,0.61412 1.25e-4,0.20115 -0.042887,0.29415 -0.2909572,0.62926 -0.3926119,0.53036 -0.6591355,1.0804 -0.8410471,1.73572 -0.069739,0.25122 -0.08534,0.39126 -0.1080596,0.97006 -0.014606,0.37204 -0.027516,0.97627 -0.028702,1.34273 l -0.00217,0.6663 0.082904,0.0652 c 0.045592,0.0358 0.1093098,0.0652 0.141581,0.0652 0.053156,0 0.05868,0.0282 0.05868,0.2989 0,0.27208 -0.00536,0.29889 -0.059445,0.29889 -0.032695,0 -0.091578,0.026 -0.1308502,0.0578 -0.07113,0.0577 -0.071461,0.062 -0.085149,1.10906 -0.013318,1.01844 -0.016035,1.05634 -0.08719,1.2154 -0.1003802,0.22437 -0.3296385,0.46022 -0.558583,0.57463 l -0.1900285,0.0949 -0.8995225,-7.1e-4 -0.8995212,-7.1e-4 z m 0.7220948,-0.92748 c 0.057123,-0.0571 0.062927,-0.10485 0.062927,-0.51791 0,-0.42753 -0.00421,-0.45885 -0.068859,-0.51912 -0.093798,-0.0874 -0.2308912,-0.0819 -0.3258538,0.0131 -0.074421,0.0744 -0.077227,0.0927 -0.077227,0.50482 0,0.41206 0.00281,0.43042 0.077227,0.50484 0.095341,0.0953 0.2443262,0.10179 0.3317868,0.0143 z m 0.9868261,-0.003 c 0.082559,-0.0649 0.082904,-0.067 0.082904,-0.50923 0,-0.4126 -0.00485,-0.44918 -0.068413,-0.51686 -0.090685,-0.0966 -0.2272071,-0.0947 -0.3263028,0.004 -0.074625,0.0746 -0.077227,0.092 -0.077227,0.51685 0,0.43746 4.082e-4,0.43993 0.082904,0.50482 0.045592,0.0358 0.1144761,0.0652 0.1530707,0.0652 0.038588,0 0.1074728,-0.0293 0.1530693,-0.0652 z"
       id="path777"
       inkscape:connector-curvature="0" />
    <path
       style="fill:#ffffff;stroke-width:0.00118914;stroke-miterlimit:4;stroke-dasharray:none"
       d="m 0.98725011,289.17202 v -0.28317 H 1.2389508 1.4906514 v 0.28317 0.28315 H 1.2389508 0.98725011 Z"
       id="path779"
       inkscape:connector-curvature="0" />
    <path
       style="fill:#ffffff;stroke-width:0.00118914;stroke-miterlimit:4;stroke-dasharray:none"
       d="m 0.98725011,291.67329 v -0.2989 H 1.2389508 1.4906514 v 0.2989 0.29889 H 1.2389508 0.98725011 Z"
       id="path781"
       inkscape:connector-curvature="0" />
    <path
       style="fill:#ffffff;stroke-width:0.00118914;stroke-miterlimit:4;stroke-dasharray:none"
       d="m 13.690741,288.11016 c -0.01161,-1.53378 -0.01161,-1.5338 -0.09291,-1.8327 -0.171729,-0.63163 -0.421951,-1.14037 -0.798717,-1.62388 -0.56809,-0.72905 -1.445234,-1.2687 -2.404583,-1.47937 -0.4061244,-0.0892 -1.3721512,-0.0807 -1.8248253,0.0161 -0.6107185,0.13051 -1.262551,0.38961 -1.6611813,0.66031 -0.1054062,0.0716 -0.2035337,0.13016 -0.2180518,0.13016 -0.014517,0 -0.1020513,-0.0767 -0.1945302,-0.17025 l -0.1681308,-0.17025 0.2163998,-0.15962 c 0.2497885,-0.18424 0.8006271,-0.46312 1.1484741,-0.58146 0.3447485,-0.11723 0.8250913,-0.22876 1.1757729,-0.27291 0.4362196,-0.0549 1.3317106,-0.0218 1.6991176,0.0626 0.929107,0.21382 1.563091,0.57015 2.267157,1.27421 0.695711,0.69571 1.079113,1.37772 1.288277,2.29164 0.0664,0.29008 0.119362,1.86155 0.09169,2.72063 l -0.02152,0.66857 h -0.245406 -0.245407 z"
       id="path783"
       inkscape:connector-curvature="0" />
    <path
       style="fill:#ffffff;stroke-width:0.00118914;stroke-miterlimit:4;stroke-dasharray:none"
       d="m 13.486544,294.09554 c -0.368534,-0.0801 -0.796345,-0.35658 -1.083738,-0.70045 -0.164202,-0.19646 -0.358458,-0.60346 -0.405899,-0.85044 -0.05127,-0.2669 -0.02107,-0.78785 0.05879,-1.01445 0.198082,-0.56203 0.56367,-0.9674 1.091813,-1.21063 0.306213,-0.14102 0.517509,-0.1853 0.867854,-0.18186 0.714886,0.006 1.386663,0.42661 1.724514,1.07715 0.164389,0.31652 0.223629,0.56063 0.223062,0.91917 -5.94e-4,0.37571 -0.06173,0.63157 -0.227355,0.95148 -0.249285,0.48152 -0.765397,0.88658 -1.285969,1.00929 -0.245281,0.0578 -0.698773,0.0582 -0.963072,7.4e-4 z m 0.839093,-0.83043 c 0.834999,-0.25989 1.09609,-1.33421 0.475155,-1.95514 -0.20782,-0.20782 -0.438895,-0.31299 -0.737288,-0.33556 -0.732544,-0.0554 -1.322288,0.52577 -1.270337,1.25187 0.03535,0.49404 0.419411,0.95766 0.885517,1.06893 0.180449,0.0431 0.452479,0.0304 0.646953,-0.0301 z"
       id="path785"
       inkscape:connector-curvature="0" />
    <path
       style="fill:#ffffff;stroke-width:0.00118914;stroke-miterlimit:4;stroke-dasharray:none"
       d="m 13.625186,292.7277 c -0.213382,-0.13532 -0.336282,-0.34236 -0.335402,-0.56504 4.02e-4,-0.10116 0.02508,-0.22844 0.05865,-0.30235 0.07937,-0.17475 0.288497,-0.34666 0.476589,-0.39179 0.465537,-0.11162 0.928894,0.35168 0.817214,0.81721 -0.107371,0.44756 -0.641939,0.67987 -1.017053,0.44197 z"
       id="path787"
       inkscape:connector-curvature="0" />
  </g>
</svg>
