<?xml version="1.0" encoding="UTF-8" standalone="no"?>
<svg
   xmlns:dc="http://purl.org/dc/elements/1.1/"
   xmlns:cc="http://creativecommons.org/ns#"
   xmlns:rdf="http://www.w3.org/1999/02/22-rdf-syntax-ns#"
   xmlns:svg="http://www.w3.org/2000/svg"
   xmlns="http://www.w3.org/2000/svg"
   xmlns:sodipodi="http://sodipodi.sourceforge.net/DTD/sodipodi-0.dtd"
   xmlns:inkscape="http://www.inkscape.org/namespaces/inkscape"
   width="64"
   height="64"
   viewBox="0 0 16.933333 16.933333"
   version="1.1"
   id="svg8"
   sodipodi:docname="seren_heartbeat_64x64.svg"
   inkscape:version="1.0.2-2 (e86c870879, 2021-01-15)">
  <defs
     id="defs2" />
  <sodipodi:namedview
     id="base"
     pagecolor="#ffffff"
     bordercolor="#666666"
     borderopacity="1.0"
     inkscape:pageopacity="0.0"
     inkscape:pageshadow="2"
     inkscape:zoom="2.7226564"
     inkscape:cx="80.324975"
     inkscape:cy="24.475905"
     inkscape:document-units="mm"
     inkscape:current-layer="layer1"
     inkscape:document-rotation="0"
     showgrid="false"
     inkscape:snap-global="false"
     fit-margin-top="0"
     fit-margin-left="0"
     fit-margin-right="0"
     fit-margin-bottom="0"
     inkscape:window-width="1540"
     inkscape:window-height="967"
     inkscape:window-x="1954"
     inkscape:window-y="32"
     inkscape:window-maximized="0"
     units="px" />
  <metadata
     id="metadata5">
    <rdf:RDF>
      <cc:Work
         rdf:about="">
        <dc:format>image/svg+xml</dc:format>
        <dc:type
           rdf:resource="http://purl.org/dc/dcmitype/StillImage" />
        <dc:title></dc:title>
      </cc:Work>
    </rdf:RDF>
  </metadata>
  <g
     inkscape:label="Calque 1"
     inkscape:groupmode="layer"
     id="layer1"
     transform="translate(-44.581036,-28.552681)">
    <path
       style="fill:#000000;stroke-width:0.0310063"
       d="m 53.049631,43.729056 c -0.02541,-0.02988 -0.06465,-0.103098 -0.0872,-0.162787 -0.131203,-0.347364 -0.635147,-0.943935 -1.230887,-1.457139 -0.48387,-0.416835 -0.759492,-0.606403 -1.742725,-1.19861 -1.92485,-1.159354 -2.811005,-1.832682 -3.481887,-2.645653 l -0.243631,-0.29523 2.50453,-0.01553 c 1.975098,-0.01221 2.521038,-0.02407 2.582615,-0.05593 0.162659,-0.08429 0.20357,-0.201732 0.401762,-1.153284 0.104776,-0.503078 0.200261,-0.939703 0.21218,-0.970288 0.0121,-0.03105 0.154122,0.789302 0.321655,1.857991 0.324997,2.073131 0.312087,2.021455 0.532232,2.130857 0.14573,0.07242 0.297112,0.04865 0.425943,-0.0669 0.08166,-0.07323 0.133631,-0.212542 0.418686,-1.122317 0.179001,-0.571291 0.332541,-1.059305 0.341202,-1.084474 0.0099,-0.02878 0.0622,0.03465 0.140689,0.170536 0.154083,0.266735 0.225495,0.345392 0.349029,0.384417 0.06199,0.01957 1.063566,0.02267 2.817029,0.0087 1.496451,-0.01199 2.72081,-0.0165 2.720802,-0.01002 -6.1e-5,0.03651 -0.478428,0.566037 -0.713138,0.789389 -0.630665,0.600164 -1.431874,1.164765 -2.948837,2.078019 -0.982864,0.591707 -1.258602,0.781318 -1.742682,1.19833 -0.591108,0.509216 -1.100754,1.112536 -1.230933,1.457177 -0.05829,0.154338 -0.120937,0.217046 -0.216815,0.217046 -0.04587,0 -0.104202,-0.02443 -0.129617,-0.05425 z M 52.79409,35.603748 c -0.378896,-2.43244 -0.363859,-2.355486 -0.48104,-2.461679 -0.19016,-0.172332 -0.45923,-0.134557 -0.605641,0.08503 -0.04477,0.06711 -0.178972,0.642876 -0.464358,1.992151 l -0.401386,1.897708 h -2.54969 -2.549691 l -0.07894,-0.172427 c -0.315667,-0.689503 -0.469951,-1.65879 -0.395653,-2.485683 0.0649,-0.7224 0.201203,-1.231093 0.48825,-1.8223 0.279753,-0.576178 0.593193,-0.990695 1.020504,-1.349584 0.820715,-0.689311 1.770202,-0.996546 2.938131,-0.950727 0.854577,0.03349 1.490092,0.238432 2.198602,0.708888 0.311344,0.206736 0.962121,0.828681 1.137991,1.087572 0.05503,0.08102 0.112661,0.147282 0.128076,0.147282 0.01542,0 0.07305,-0.06632 0.128076,-0.147282 0.175868,-0.258891 0.826647,-0.880836 1.137988,-1.087572 0.708511,-0.470456 1.344027,-0.675367 2.198604,-0.708888 1.567574,-0.06152 2.871692,0.57088 3.675645,1.782352 0.161918,0.243989 0.432122,0.808688 0.529729,1.107082 0.39874,1.218951 0.338583,2.567954 -0.166735,3.739018 l -0.101541,0.235304 -1.396006,0.02054 c -0.767805,0.01126 -2.059965,0.02024 -2.871468,0.02001 l -1.475458,-4.71e-4 -0.277605,-0.500695 c -0.323252,-0.583021 -0.384676,-0.663834 -0.536415,-0.705729 -0.223825,-0.06182 -0.408257,0.04401 -0.497967,0.28573 -0.03308,0.08914 -0.133667,0.399269 -0.223518,0.689179 -0.08986,0.289903 -0.171802,0.536821 -0.182109,0.548698 -0.01029,0.01185 -0.157179,-0.867156 -0.326382,-1.953396 z"
       id="path1327" />
  </g>
</svg>
