<?xml version="1.0" encoding="UTF-8" standalone="no"?>
<!-- Created with Inkscape (http://www.inkscape.org/) -->

<svg
   xmlns:dc="http://purl.org/dc/elements/1.1/"
   xmlns:cc="http://creativecommons.org/ns#"
   xmlns:rdf="http://www.w3.org/1999/02/22-rdf-syntax-ns#"
   xmlns:svg="http://www.w3.org/2000/svg"
   xmlns="http://www.w3.org/2000/svg"
   xmlns:sodipodi="http://sodipodi.sourceforge.net/DTD/sodipodi-0.dtd"
   xmlns:inkscape="http://www.inkscape.org/namespaces/inkscape"
   width="64"
   height="64"
   viewBox="0 0 16.933333 16.933334"
   version="1.1"
   id="svg8"
   inkscape:version="0.92.5 (2060ec1f9f, 2020-04-08)"
   sodipodi:docname="hoover_64x64.svg">
  <defs
     id="defs2" />
  <sodipodi:namedview
     id="base"
     pagecolor="#ffffff"
     bordercolor="#666666"
     borderopacity="1.0"
     inkscape:pageopacity="0.0"
     inkscape:pageshadow="2"
     inkscape:zoom="5.6"
     inkscape:cx="51.974035"
     inkscape:cy="41.790368"
     inkscape:document-units="mm"
     inkscape:current-layer="layer1"
     showgrid="false"
     units="px"
     inkscape:window-width="1208"
     inkscape:window-height="987"
     inkscape:window-x="1992"
     inkscape:window-y="0"
     inkscape:window-maximized="1" />
  <metadata
     id="metadata5">
    <rdf:RDF>
      <cc:Work
         rdf:about="">
        <dc:format>image/svg+xml</dc:format>
        <dc:type
           rdf:resource="http://purl.org/dc/dcmitype/StillImage" />
        <dc:title></dc:title>
      </cc:Work>
    </rdf:RDF>
  </metadata>
  <g
     inkscape:label="Layer 1"
     inkscape:groupmode="layer"
     id="layer1"
     transform="translate(0,-280.06665)">
    <path
       style="fill:#ffffff;stroke-width:0.22907396;stroke-miterlimit:4;stroke-dasharray:none"
       d=""
       id="path12841"
       inkscape:connector-curvature="0"
       transform="matrix(0.26458333,0,0,0.26458333,0,280.06665)" />
    <path
       style="fill:#000000;stroke-width:0.0305601"
       d="m 7.5564559,296.46099 c -0.2286732,-0.0434 -0.4968685,-0.19648 -0.6690663,-0.37847 -0.5414927,-0.57258 -0.4666633,-1.44629 0.1651453,-1.9282 0.100409,-0.0768 0.1066364,-0.0917 0.1066364,-0.2602 0,-0.15062 -0.038617,-0.27855 -0.2460032,-0.81284 -0.1352631,-0.34854 -0.2504934,-0.63842 -0.2560445,-0.64397 -0.00528,-0.005 -0.072411,0.005 -0.1485869,0.0241 -0.2578309,0.0647 -0.582439,-0.0893 -0.7075456,-0.33599 -0.021725,-0.0434 -0.722191,-1.85381 -1.5563587,-4.02396 -1.2623995,-3.28422 -1.5166774,-3.97096 -1.5166774,-4.09623 0,-0.20951 0.1020511,-0.39971 0.2777679,-0.51691 l 0.1402357,-0.0937 -0.1115611,-0.28819 -0.1115611,-0.2882 -0.7621086,-0.0144 c -0.7428189,-0.0145 -0.7664298,-0.0193 -0.9328341,-0.0956 -0.35915759,-0.16848 -0.56055625,-0.4855 -0.56055625,-0.88255 0,-0.39728 0.20139866,-0.71416 0.56055625,-0.88258 l 0.1707443,-0.0802 h 0.901524 c 1.0143058,0 1.0901878,0.01 1.4927049,0.20613 0.3043667,0.1482 0.6332849,0.45426 0.8016982,0.74632 0.059764,0.10379 0.1902473,0.40164 0.2899807,0.66265 l 0.1813171,0.47405 0.1986465,0.0337 c 0.2678721,0.0434 0.5394946,0.18248 0.7212601,0.36447 0.1130571,0.11296 0.5763994,0.85845 1.8704816,3.009 0.9461136,1.57233 1.7533163,2.94022 1.7937782,3.03981 0.1392701,0.34274 0.1511458,0.79907 0.030418,1.17039 -0.1586759,0.48796 -0.5094917,0.83133 -1.110458,1.08685 -0.057109,0.0241 -0.095341,0.0593 -0.086893,0.0801 0.0082,0.0193 0.079025,0.20082 0.1570832,0.40116 0.078108,0.20033 0.149118,0.37606 0.1578549,0.39005 0.00869,0.0144 0.1033074,-0.0546 0.2101852,-0.15254 0.1068777,-0.098 0.2698023,-0.21482 0.3621017,-0.2602 0.3484413,-0.17041 0.3918875,-0.17426 2.0367947,-0.17426 1.663411,0 1.688885,0.002 2.055009,0.1873 0.351578,0.17764 0.742562,0.65498 0.802978,0.98068 0.02607,0.14144 0.04779,0.15785 0.274437,0.20516 0.254354,0.0536 0.697923,0.2713 0.916063,0.44991 0.458988,0.37605 0.770142,0.95187 0.827198,1.53086 0.04055,0.41275 -0.0587,0.53063 -0.464396,0.55207 l -0.249141,0.0144 -0.05378,0.11925 c -0.06801,0.15109 -0.282161,0.34949 -0.462899,0.42963 -0.433403,0.19164 -0.942267,0.0337 -1.196462,-0.37509 l -0.111175,-0.17813 -2.402981,-0.002 -2.4029804,-0.002 -0.081344,0.10669 c -0.3177389,0.4166 -0.7947372,0.60044 -1.3011302,0.50156 z m 0.4478844,-0.65374 c 0.5280582,-0.15688 0.6282993,-0.85753 0.1664,-1.1632 -0.3645154,-0.24137 -0.8638463,-0.0337 -0.9789694,0.40357 -0.0993,0.37847 0.1980673,0.75906 0.6265653,0.80202 0.017859,0.002 0.1016653,-0.0193 0.1859999,-0.0434 z m 7.5745737,-0.72613 c -0.0922,-0.46391 -0.583665,-0.96113 -1.111424,-1.1242 -0.187833,-0.0579 -0.297173,-0.0599 -3.315776,-0.0584 l -3.1215515,0.002 0.1878817,0.0593 c 0.4749659,0.15062 0.8296244,0.57982 0.8882825,1.07506 l 0.017381,0.1453 h 3.2375443 3.237544 l -0.0198,-0.0994 z m -7.2358988,-1.91 c -0.03138,-0.11103 -0.4555118,-1.18508 -0.4754008,-1.20415 -0.028002,-0.029 -0.5858655,0.19551 -0.5866719,0.23413 -3.428e-4,0.0145 0.085589,0.25393 0.1909231,0.52705 l 0.1915507,0.49655 0.3473787,1e-4 c 0.3162417,4e-5 0.3460264,-0.005 0.3322202,-0.0536 z m 5.2481218,-0.0144 c -0.05649,-0.19068 -0.357275,-0.45377 -0.60185,-0.52637 -0.232729,-0.069 -2.931724,-0.069 -3.164462,0 -0.2445551,0.0724 -0.5453693,0.3355 -0.6018495,0.52637 l -0.020279,0.0686 h 2.2044495 2.204445 z m -6.1110552,-1.76325 c 0.5546668,-0.22206 1.0642841,-0.43591 1.13248,-0.4755 0.3912593,-0.22689 0.5943624,-0.73743 0.4706224,-1.18289 -0.03958,-0.14193 -3.4158052,-5.77583 -3.5409167,-5.90844 -0.1313527,-0.13903 -0.2943735,-0.20758 -0.4917367,-0.20564 -0.133236,0.002 -1.6340647,0.34901 -1.6728194,0.38763 -0.00459,0.005 0.639349,1.69176 1.4309817,3.74925 0.7916335,2.05747 1.467014,3.81431 1.5008441,3.90404 0.045861,0.12213 0.074246,0.15979 0.1117536,0.14917 0.027515,-0.01 0.504086,-0.19551 1.0587521,-0.41758 z m -0.7471491,-0.60516 c -0.073956,-0.068 -0.1974398,-0.36061 -0.6575238,-1.55779 -0.3115597,-0.81058 -0.5664021,-1.50504 -0.5663394,-1.54327 4.831e-4,-0.29544 0.4247134,-0.42095 0.5844181,-0.17283 0.077286,0.12021 1.1573948,2.95803 1.1573948,3.04102 0,0.27516 -0.3176418,0.41805 -0.5179497,0.23316 z m -2.6348545,-7.63045 c 0.1568414,-0.0387 0.291912,-0.0796 0.3000705,-0.0879 0.021238,-0.0193 -0.2478864,-0.69948 -0.3627781,-0.91508 -0.1758621,-0.3302 -0.5333638,-0.57268 -0.9354604,-0.63504 -0.3220832,-0.0502 -1.5592555,-0.029 -1.6459404,0.029 -0.1887993,0.12551 -0.1887993,0.42771 0,0.55298 0.052569,0.0337 0.2373622,0.0483 0.8614756,0.0599 0.8642084,0.0145 0.8604864,0.0145 1.0595,0.20614 0.086555,0.0826 0.1451116,0.19358 0.256624,0.48534 0.079458,0.20806 0.1527864,0.37798 0.1629243,0.3775 0.010136,-3.9e-4 0.1467522,-0.0337 0.3035943,-0.0739 z"
       id="path13527"
       inkscape:connector-curvature="0" />
    <path
       style="fill:#ffffff;stroke-width:0.00247505;stroke-miterlimit:4;stroke-dasharray:none"
       d="m 6.3726411,291.76842 c -0.012069,-0.0144 -0.5330357,-1.35828 -1.157752,-2.98506 -1.7919064,-4.66614 -1.8260166,-4.75613 -1.8093866,-4.77279 0.038617,-0.0386 1.5360165,-0.37894 1.6671475,-0.37894 0.1617173,0 0.3097731,0.0608 0.4187759,0.17136 0.1149396,0.11683 0.4466774,0.65287 1.7716262,2.86275 1.081624,1.80399 1.6364348,2.74436 1.7528623,2.97101 0.080229,0.15592 0.085303,0.17764 0.085495,0.36012 3.419e-4,0.32102 -0.1115132,0.57827 -0.3439997,0.79078 -0.083904,0.0768 -0.1876406,0.13757 -0.3744607,0.22013 -0.3106907,0.13709 -1.9347144,0.78768 -1.9662281,0.78768 -0.012069,0 -0.03186,-0.0145 -0.043928,-0.029 z m 0.7011919,-0.91961 c 0.039583,-0.0144 0.093072,-0.057 0.118802,-0.0898 0.078638,-0.0999 0.082114,-0.18923 0.01448,-0.37799 -0.2123081,-0.59319 -0.8760252,-2.33476 -1.0352426,-2.71646 -0.079362,-0.1902 -0.1544278,-0.26744 -0.2804707,-0.28868 -0.1614281,-0.029 -0.3523512,0.0951 -0.3858045,0.24765 -0.015933,0.0729 0.1013267,0.40936 0.5565974,1.59631 0.3208764,0.83655 0.5437663,1.38604 0.6040849,1.48935 0.087569,0.15014 0.2496723,0.20564 0.4073826,0.13951 z"
       id="path13529"
       inkscape:connector-curvature="0" />
    <path
       style="fill:#ffffff;stroke-width:0.00247505;stroke-miterlimit:4;stroke-dasharray:none"
       d="m 3.7580129,283.13672 c -0.019312,-0.0483 -0.074293,-0.18006 -0.1217948,-0.29881 C 3.4843,282.45944 3.406676,282.34412 3.2373798,282.2467 c -0.1179331,-0.068 -0.1844544,-0.0743 -1.0027061,-0.0994 -0.4772354,-0.0144 -0.7126719,-0.029 -0.7522706,-0.0487 -0.1939644,-0.0932 -0.2082537,-0.43591 -0.022204,-0.53203 0.1466557,-0.0758 1.3735594,-0.0879 1.7154692,-0.0144 0.3622949,0.0753 0.6988413,0.32247 0.8602111,0.63234 0.1029679,0.19743 0.3245934,0.75539 0.3299033,0.8304 0.00403,0.057 -0.00341,0.0608 -0.2184389,0.11875 -0.3769708,0.10138 -0.3487787,0.10089 -0.3894256,0.005 z"
       id="path13531"
       inkscape:connector-curvature="0" />
    <path
       style="fill:#ffffff;stroke-width:0.00247505;stroke-miterlimit:4;stroke-dasharray:none"
       d="m 7.6366145,293.12236 c -0.1246429,-0.29495 -0.3351651,-0.89041 -0.3246415,-0.91783 0.012548,-0.0338 0.2708161,-0.15013 0.447064,-0.20371 l 0.09283,-0.029 0.04055,0.0806 c 0.066132,0.13178 0.4166515,1.04219 0.4228309,1.09857 l 0.00577,0.0521 -0.3225178,0.005 -0.3225177,0.005 z"
       id="path13533"
       inkscape:connector-curvature="0" />
    <path
       style="fill:#ffffff;stroke-width:0.00247505;stroke-miterlimit:4;stroke-dasharray:none"
       d="m 7.6193805,295.78987 c -0.3437096,-0.13613 -0.5227861,-0.52294 -0.3851288,-0.8317 0.1893784,-0.42481 0.7136034,-0.5342 1.0321969,-0.21578 0.2328727,0.23268 0.2459066,0.58469 0.03186,0.86516 -0.072266,0.0946 -0.298815,0.20419 -0.4485127,0.21675 -0.086072,0.01 -0.1488281,-0.002 -0.2305078,-0.0338 z"
       id="path13535"
       inkscape:connector-curvature="0" />
    <path
       style="fill:#ffffff;stroke-width:0.00247505;stroke-miterlimit:4;stroke-dasharray:none"
       d="m 9.1303908,295.13002 c -0.0053,-0.029 -0.021724,-0.1173 -0.036206,-0.20033 -0.03862,-0.22303 -0.1695862,-0.46778 -0.3447714,-0.64509 -0.1576629,-0.15978 -0.2859747,-0.2433 -0.4912448,-0.32005 l -0.1334285,-0.0502 3.1105849,0.005 3.110583,0.005 0.141877,0.0483 c 0.333137,0.11394 0.690204,0.39151 0.892689,0.69433 0.09954,0.14868 0.198744,0.38474 0.198744,0.47261 0,0.0386 -0.129954,0.0386 -3.219311,0.0386 H 9.1405952 Z"
       id="path13537"
       inkscape:connector-curvature="0" />
    <path
       style="fill:#ffffff;stroke-width:0.00247505;stroke-miterlimit:4;stroke-dasharray:none"
       d="m 9.2269197,293.19188 c 0,-0.11731 0.2681612,-0.39296 0.4872909,-0.50095 l 0.1390278,-0.0686 0.6309346,-0.0241 c 0.657934,-0.0241 2.076876,-0.01 2.372709,0.0241 0.198839,0.0241 0.325558,0.0835 0.503819,0.24282 0.119527,0.10669 0.191937,0.2042 0.220032,0.29689 l 0.01497,0.0492 H 11.41137 c -1.4974655,0 -2.1843394,-0.005 -2.1843394,-0.0241 z"
       id="path13539"
       inkscape:connector-curvature="0" />
  </g>
</svg>
