<?xml version="1.0" encoding="UTF-8" standalone="no"?>
<svg
   xmlns:dc="http://purl.org/dc/elements/1.1/"
   xmlns:cc="http://creativecommons.org/ns#"
   xmlns:rdf="http://www.w3.org/1999/02/22-rdf-syntax-ns#"
   xmlns:svg="http://www.w3.org/2000/svg"
   xmlns="http://www.w3.org/2000/svg"
   xmlns:sodipodi="http://sodipodi.sourceforge.net/DTD/sodipodi-0.dtd"
   xmlns:inkscape="http://www.inkscape.org/namespaces/inkscape"
   width="64"
   height="64"
   viewBox="0 0 16.933333 16.933333"
   version="1.1"
   id="svg8"
   sodipodi:docname="seren_hydratation_64x64.svg"
   inkscape:version="1.0.2 (1.0.2+r75+1)">
  <defs
     id="defs2" />
  <sodipodi:namedview
     id="base"
     pagecolor="#ffffff"
     bordercolor="#666666"
     borderopacity="1.0"
     inkscape:pageopacity="0.0"
     inkscape:pageshadow="2"
     inkscape:zoom="10"
     inkscape:cx="24.048106"
     inkscape:cy="30.813941"
     inkscape:document-units="mm"
     inkscape:current-layer="layer1"
     inkscape:document-rotation="0"
     showgrid="false"
     inkscape:snap-global="false"
     fit-margin-top="0"
     fit-margin-left="0"
     fit-margin-right="0"
     fit-margin-bottom="0"
     inkscape:window-width="1366"
     inkscape:window-height="704"
     inkscape:window-x="0"
     inkscape:window-y="0"
     inkscape:window-maximized="0"
     units="px" />
  <metadata
     id="metadata5">
    <rdf:RDF>
      <cc:Work
         rdf:about="">
        <dc:format>image/svg+xml</dc:format>
        <dc:type
           rdf:resource="http://purl.org/dc/dcmitype/StillImage" />
        <dc:title />
      </cc:Work>
    </rdf:RDF>
  </metadata>
  <g
     inkscape:label="Calque 1"
     inkscape:groupmode="layer"
     id="layer1"
     transform="translate(-44.581036,-28.552681)">
    <path
       style="fill:#000000;stroke-width:0.0311304"
       d="m 50.760388,44.94526 c -1.416925,-0.132016 -2.698297,-0.761643 -3.497094,-1.718357 -0.74821,-0.89613 -1.094646,-1.907318 -1.094646,-3.195068 0,-0.588564 0.05873,-1.087856 0.19048,-1.620296 0.190826,-0.771008 0.06009,-0.484222 2.512273,-5.510373 1.791391,-3.671744 1.755233,-3.606641 2.090472,-3.76389 0.251169,-0.117816 0.59892,-0.114934 0.848208,0.007 0.09776,0.04783 0.230774,0.147275 0.295592,0.22099 0.0801,0.0911 0.35008,0.610948 0.842883,1.623 l 0.725039,1.488972 -0.385919,0.795644 c -0.42646,0.879215 -0.481368,1.010138 -0.594782,1.418253 -0.142751,0.513672 -0.185366,0.834565 -0.183959,1.385305 0.0018,0.721438 0.117945,1.243732 0.402623,1.811095 0.619597,1.234883 1.865779,2.008459 3.386648,2.102284 l 0.307894,0.019 -0.02064,0.345248 c -0.05717,0.953967 -0.304698,1.728615 -0.790632,2.474051 -0.234794,0.360189 -0.865926,0.990769 -1.227688,1.22662 -1.09649,0.714857 -2.405426,1.021054 -3.806715,0.890495 z m -2.673071,-3.459304 c 0.160578,-0.110029 0.172424,-0.166003 0.149381,-0.705802 -0.03142,-0.735458 0.05818,-1.343246 0.302497,-2.051665 0.145627,-0.42235 0.337933,-0.828439 0.555373,-1.172779 0.168871,-0.267435 0.187283,-0.36102 0.105104,-0.53421 -0.06722,-0.141734 -0.201029,-0.209181 -0.37579,-0.189482 -0.169172,0.01907 -0.218171,0.06307 -0.419163,0.376388 -0.417893,0.651461 -0.762475,1.590631 -0.879452,2.396996 -0.101834,0.701915 -0.08813,1.53728 0.02886,1.763567 0.09572,0.185108 0.351788,0.241291 0.533198,0.116987 z m 7.822723,-2.311621 c -1.04792,-0.198636 -1.860591,-0.758578 -2.282211,-1.572473 -0.279874,-0.540273 -0.381489,-1.034692 -0.351441,-1.709979 0.02092,-0.470288 0.09211,-0.844439 0.2401,-1.262099 0.10292,-0.290451 2.478207,-5.191665 2.58806,-5.340243 0.224007,-0.302986 0.752456,-0.310025 0.978984,-0.01304 0.09885,0.129601 2.411381,4.856998 2.549747,5.212318 0.117616,0.302055 0.210892,0.654395 0.265636,1.003416 0.04795,0.305955 0.0211,1.117809 -0.04585,1.386016 -0.284267,1.13825 -1.122784,1.949784 -2.326059,2.251225 -0.345221,0.08648 -1.263041,0.111946 -1.616957,0.04486 z m -1.071246,-2.02199 c 0.194991,-0.08147 0.2264,-0.178474 0.225779,-0.697144 -8.22e-4,-0.683215 0.145736,-1.244294 0.473276,-1.81182 0.196827,-0.341049 0.208234,-0.472822 0.05535,-0.639625 -0.08594,-0.09376 -0.123479,-0.111438 -0.246849,-0.116213 -0.189292,-0.0073 -0.282577,0.06197 -0.451722,0.33552 -0.19542,0.316038 -0.378383,0.757872 -0.482044,1.164095 -0.07361,0.288584 -0.09603,0.455237 -0.109816,0.817798 -0.0095,0.250446 -0.0073,0.520046 0.0046,0.599113 0.02576,0.171837 0.139472,0.319064 0.277199,0.358938 0.136293,0.03946 0.13442,0.03954 0.254566,-0.01066 z"
       id="path1375" />
    <text
       xml:space="preserve"
       style="font-style:normal;font-weight:normal;font-size:10.5833px;line-height:1.25;font-family:sans-serif;fill:#000000;fill-opacity:1;stroke:none;stroke-width:0.264583"
       x="51.724785"
       y="39.66518"
       id="text1411"><tspan
         sodipodi:role="line"
         id="tspan1409"
         x="51.724785"
         y="39.66518"
         style="stroke-width:0.264583" /></text>
    <text
       xml:space="preserve"
       style="font-size:4.75019px;line-height:1.25;font-family:sans-serif;fill:#ffffff;stroke-width:0.178132"
       x="49.30521"
       y="43.237057"
       id="text1415"><tspan
         sodipodi:role="line"
         id="tspan1413"
         x="49.30521"
         y="43.237057"
         style="fill:#ffffff;stroke-width:0.178132">H2</tspan></text>
    <text
       xml:space="preserve"
       style="font-size:5.81877px;line-height:1.25;font-family:sans-serif;stroke-width:0.218203"
       x="56.572784"
       y="43.625019"
       id="text1419"><tspan
         sodipodi:role="line"
         id="tspan1417"
         x="56.572784"
         y="43.625019"
         style="stroke-width:0.218203">O</tspan></text>
    <path
       style="fill:#ffffff;stroke:none;stroke-width:0.1"
       d="m 37.742639,32.46805 c -0.335928,-0.136049 -0.829654,-0.773106 -0.903265,-1.165486 -0.03773,-0.201109 -0.04418,-1.203321 -0.01434,-2.227138 0.04793,-1.64439 0.08996,-2.000204 0.360446,-3.050941 0.385317,-1.496832 0.698591,-2.331382 1.379577,-3.675135 0.846132,-1.669627 1.483236,-2.255605 2.295626,-2.111408 0.330457,0.05866 0.789584,0.450214 0.999767,0.852635 0.199419,0.38181 0.0641,0.834284 -0.662307,2.214563 -1.125199,2.138048 -1.469001,3.510522 -1.596725,6.374207 -0.05355,1.200689 -0.131325,1.965487 -0.218254,2.146267 -0.275717,0.573382 -1.056277,0.879053 -1.640522,0.642436 z"
       id="path14"
       transform="matrix(0.26458333,0,0,0.26458333,44.581036,28.552681)" />
    <path
       style="fill:#ffffff;stroke-width:0.1"
       d="m 11.773656,48.907032 c -0.433666,-0.235284 -0.650628,-0.790848 -0.782051,-2.002564 -0.202543,-1.867439 0.03901,-4.848207 0.569254,-7.024653 0.763319,-3.133118 2.643171,-7.197947 3.797558,-8.211513 0.281659,-0.2473 0.435048,-0.304291 0.818168,-0.303987 0.648229,5.14e-4 1.054575,0.267644 1.271614,0.835954 0.217764,0.570207 0.173,0.709623 -0.743715,2.316257 -1.423442,2.494723 -2.426525,5.391721 -2.803723,8.097415 -0.06134,0.44 -0.110246,1.836136 -0.108681,3.102524 0.0025,1.991546 -0.02057,2.348308 -0.170564,2.641519 -0.316091,0.61792 -1.223806,0.887626 -1.84786,0.549048 z"
       id="path16"
       transform="matrix(0.26458333,0,0,0.26458333,44.581036,28.552681)" />
  </g>
</svg>
