<?xml version="1.0" encoding="UTF-8" standalone="no"?>
<!-- Created with Inkscape (http://www.inkscape.org/) -->

<svg
   xmlns:dc="http://purl.org/dc/elements/1.1/"
   xmlns:cc="http://creativecommons.org/ns#"
   xmlns:rdf="http://www.w3.org/1999/02/22-rdf-syntax-ns#"
   xmlns:svg="http://www.w3.org/2000/svg"
   xmlns="http://www.w3.org/2000/svg"
   xmlns:sodipodi="http://sodipodi.sourceforge.net/DTD/sodipodi-0.dtd"
   xmlns:inkscape="http://www.inkscape.org/namespaces/inkscape"
   width="64"
   height="64"
   viewBox="0 0 16.933333 16.933334"
   version="1.1"
   id="svg8"
   inkscape:version="0.92.5 (2060ec1f9f, 2020-04-08)"
   sodipodi:docname="in_bed_64x64.svg">
  <defs
     id="defs2" />
  <sodipodi:namedview
     id="base"
     pagecolor="#ffffff"
     bordercolor="#666666"
     borderopacity="1.0"
     inkscape:pageopacity="0.0"
     inkscape:pageshadow="2"
     inkscape:zoom="7.919596"
     inkscape:cx="32.212625"
     inkscape:cy="50.290063"
     inkscape:document-units="mm"
     inkscape:current-layer="layer1"
     showgrid="false"
     units="px"
     inkscape:window-width="1208"
     inkscape:window-height="987"
     inkscape:window-x="1992"
     inkscape:window-y="0"
     inkscape:window-maximized="1" />
  <metadata
     id="metadata5">
    <rdf:RDF>
      <cc:Work
         rdf:about="">
        <dc:format>image/svg+xml</dc:format>
        <dc:type
           rdf:resource="http://purl.org/dc/dcmitype/StillImage" />
        <dc:title></dc:title>
      </cc:Work>
    </rdf:RDF>
  </metadata>
  <g
     inkscape:label="Layer 1"
     inkscape:groupmode="layer"
     id="layer1"
     transform="translate(0,-280.06665)">
    <path
       style="fill:#000000;stroke-width:0.03153238"
       d="m 1.2106226,294.34525 c -0.048757,-0.0356 -0.053092,-0.1146 -0.045436,-0.82772 l 0.00844,-0.78832 1.0878674,-0.73647 c 0.5983276,-0.40508 1.4532055,-0.9833 1.8997291,-1.28495 l 0.8118633,-0.54847 h 2.1090803 2.1090804 l 3.4479159,-2.24454 c 1.896356,-1.23451 3.477467,-2.2502 3.513582,-2.25709 0.132946,-0.0255 0.142262,0.0346 0.133332,0.85882 l -0.0084,0.77967 -1.078369,0.69845 -1.07837,0.69845 -0.0016,2.38631 c -0.0014,2.12595 -0.007,2.39175 -0.05116,2.43588 -0.04468,0.0446 -0.613778,0.0495 -5.7935672,0.0495 H 2.5305822 l -0.6072489,0.40988 c -0.3339865,0.22547 -0.6188432,0.40993 -0.6330135,0.40993 -0.014168,0 -0.050016,-0.0178 -0.079667,-0.0393 z m 1.959015,-1.54826 c 0.9313081,-0.63044 1.7242812,-1.16255 1.7621614,-1.18248 0.049858,-0.0262 0.6472111,-0.0362 2.1641518,-0.0362 h 2.0952773 l 3.4170799,-2.22418 c 3.378831,-2.19928 3.417191,-2.22539 3.426868,-2.33339 0.0054,-0.0601 -0.003,-0.10919 -0.01856,-0.10919 -0.0156,0 -0.543129,0.32007 -1.172301,0.71122 -1.225811,0.76212 -1.299861,0.79553 -1.31943,0.59531 -0.0093,-0.0955 0.0071,-0.107 1.253415,-0.88143 l 1.26286,-0.78474 v -0.24924 c 0,-0.19071 -0.0096,-0.24556 -0.04073,-0.2336 -0.02239,0.008 -1.547285,0.99628 -3.388629,2.19487 l -3.3478987,2.17924 H 7.1556389 5.0473728 l -1.8028535,1.21964 -1.8028535,1.21963 v 0.53042 c 0,0.29172 0.00787,0.53041 0.017344,0.53041 0.00959,0 0.7793238,-0.5158 1.7106332,-1.14624 z m 10.6642504,-1.70931 c 0,-1.74596 -0.008,-2.18866 -0.03941,-2.17032 -0.02168,0.0129 -1.049926,0.68043 -2.284993,1.48388 l -2.2455757,1.46085 H 7.1563158 5.0487251 l -1.0067706,0.67895 c -0.5537242,0.37341 -1.0205074,0.69269 -1.0372951,0.70947 -0.019677,0.0196 1.8991724,0.0304 5.3993545,0.0304 h 5.4298771 z m -12.5673983,0.70856 c -0.35497287,-0.0453 -0.64536071,-0.25689 -0.80889223,-0.58921 -0.0918457,-0.18666 -0.1036371,-0.24007 -0.10242072,-0.46377 0.001718,-0.31263 0.11123633,-0.58304 0.31032386,-0.7662 0.12961112,-0.11921 3.72239289,-2.38203 3.95065689,-2.48818 0.1078443,-0.05 0.2510365,-0.0571 1.3509091,-0.0661 l 1.230275,-0.0104 0.1050115,-0.20254 c 0.1947929,-0.37571 0.1568283,-0.34833 3.5502939,-2.5606 0.791662,-0.51611 0.943856,-0.58065 1.373088,-0.5823 0.369642,-10e-4 0.691678,0.10261 0.974284,0.31462 l 0.107146,0.0804 -0.02326,-0.0919 c -0.04614,-0.18228 -0.05608,-0.62597 -0.01796,-0.8002 0.10454,-0.47769 0.455313,-0.91901 0.888891,-1.11836 0.539943,-0.24825 1.122015,-0.20409 1.613937,0.1225 0.694961,0.46128 0.910708,1.4349 0.480602,2.16881 -0.472097,0.80558 -1.54953,1.0406 -2.325015,0.50717 -0.153717,-0.10573 -0.161541,-0.10792 -0.139543,-0.0374 0.01288,0.041 0.0309,0.20001 0.04017,0.35317 0.02919,0.4822 -0.122371,0.88197 -0.462446,1.21976 -0.118935,0.1182 -0.741309,0.54388 -1.940885,1.32771 -2.1495007,1.40453 -1.9867358,1.30298 -2.2284342,1.39031 l -0.1995586,0.0722 -1.8253263,-0.008 -1.8253282,-0.008 -1.690534,1.05421 c -0.9297939,0.5798 -1.7350928,1.07646 -1.7895532,1.10365 -0.1368093,0.0683 -0.4059759,0.10446 -0.5964358,0.0801 z m 0.5055205,-0.35085 c 0.069779,-0.0351 0.8738295,-0.5304 1.7867827,-1.10065 l 1.6599122,-1.03678 H 6.5065888 7.794474 l -0.1936639,-0.18429 c -0.3201896,-0.30468 -0.4839544,-0.69218 -0.4851478,-1.14796 l -7.271e-4,-0.27591 -1.1102406,2.5e-4 c -0.625708,8e-5 -1.1586532,0.0143 -1.2211705,0.031 -0.1568485,0.0435 -3.7713236,2.30395 -3.93040883,2.45795 -0.14151761,0.13695 -0.24278789,0.37521 -0.225515,0.53046 0.009869,0.0888 0.0215802,0.0822 1.06558713,-0.59779 0.5805825,-0.37813 1.0790277,-0.68751 1.1076547,-0.68751 0.028621,0 0.069063,0.0204 0.089856,0.0455 0.098385,0.1185 0.040327,0.16678 -1.0706604,0.88967 -0.5983276,0.38933 -1.09226782,0.72029 -1.09764724,0.7355 -0.0143822,0.0407 0.21155795,0.28101 0.31382574,0.33389 0.2297094,0.11878 0.5079376,0.12135 0.7357823,0.007 z m 7.3762813,-2.22831 c 0.2313113,-0.0813 3.8424625,-2.44493 4.0453895,-2.64786 0.08047,-0.0805 0.185853,-0.23148 0.2342,-0.33558 0.194544,-0.41893 0.175292,-0.85276 -0.05537,-1.2478 -0.328584,-0.56274 -1.015072,-0.8 -1.612089,-0.55714 -0.24777,0.10077 -3.8017999,2.43018 -3.9857584,2.61235 -0.5087933,0.50385 -0.5190282,1.31752 -0.023169,1.84182 0.3616302,0.38237 0.8960094,0.51023 1.3967969,0.33421 z m -0.5745024,-0.5723 c -0.6082762,-0.12494 -0.8464905,-0.90449 -0.412148,-1.34875 0.089928,-0.092 3.2678139,-2.14453 3.5397309,-2.28627 0.198112,-0.1033 0.501148,-0.0901 0.71874,0.0315 0.188418,0.10515 0.350509,0.3138 0.408037,0.52513 0.07382,0.2712 -0.05876,0.6412 -0.293731,0.81964 -0.136866,0.10388 -3.1799188,2.05279 -3.3830884,2.16662 -0.1797828,0.10077 -0.3800428,0.13266 -0.5775405,0.0921 z m 0.3883448,-0.31051 c 0.1037559,-0.0476 2.5096331,-1.57469 3.2693801,-2.07518 0.155038,-0.10216 0.227966,-0.17441 0.275908,-0.27345 0.116203,-0.24006 0.06958,-0.46271 -0.134419,-0.64182 -0.132745,-0.11649 -0.288697,-0.15488 -0.456707,-0.11218 -0.119851,0.0304 -3.3850909,2.09577 -3.5446641,2.24209 -0.1111222,0.10192 -0.1614665,0.25865 -0.1434165,0.44648 0.018046,0.18784 0.1111936,0.32113 0.2842758,0.40681 0.1640967,0.0813 0.2842255,0.0831 0.4496427,0.007 z m 6.3646151,-3.15764 c 0.478515,-0.17976 0.823944,-0.64773 0.864,-1.17049 0.06843,-0.89314 -0.799184,-1.62922 -1.65254,-1.40202 -0.53704,0.14297 -0.946383,0.59074 -1.01841,1.11396 -0.09588,0.69654 0.374589,1.37911 1.049601,1.52279 0.20105,0.0428 0.551572,0.0129 0.757349,-0.0642 z"
       id="path14017"
       inkscape:connector-curvature="0" />
    <path
       style="fill:#ffffff;stroke-width:0.00120387;stroke-miterlimit:4;stroke-dasharray:none"
       d="m 1.1741191,291.47171 c -0.093705,-0.0289 -0.19622979,-0.098 -0.29608766,-0.19943 l -0.15275274,-0.15516 0.9968447,-0.66196 c 0.5482634,-0.36406 1.0434273,-0.70613 1.1003634,-0.76017 0.1144416,-0.10861 0.1300548,-0.18333 0.051848,-0.24823 -0.066702,-0.0553 -0.1282374,-0.021 -1.2100886,0.67502 -0.86770018,0.55829 -0.98589999,0.62681 -1.02093809,0.59176 -0.0301663,-0.0302 0.0465662,-0.26679 0.12729284,-0.39255 0.0430888,-0.0671 0.23683035,-0.21911 0.51500125,-0.40403 0.5130678,-0.34108 2.2436614,-1.42671 2.9958036,-1.87932 l 0.5113062,-0.30769 h 1.1529872 1.1529893 v 0.18526 c 0,0.46361 0.1467622,0.84359 0.4517726,1.16965 l 0.1925806,0.20587 H 6.4787676 5.214492 l -1.5503616,0.96572 c -1.9088636,1.18902 -1.9038262,1.18601 -2.0600035,1.22873 -0.1621993,0.0444 -0.2517049,0.0415 -0.4300092,-0.0129 z"
       id="path14019"
       inkscape:connector-curvature="0" />
    <path
       style="fill:#ffffff;stroke-width:0.00120387;stroke-miterlimit:4;stroke-dasharray:none"
       d="m 1.4679587,293.39575 0.00873,-0.51668 1.7808896,-1.20491 1.7808882,-1.20488 h 2.1065373 2.1065394 l 0.6037797,-0.39259 c 0.3320771,-0.21591 1.4709621,-0.9566 2.5308561,-1.64597 1.059893,-0.68937 2.310502,-1.50116 2.779132,-1.80395 l 0.852054,-0.55054 v 0.2349 0.2349 l -1.164074,0.72623 c -0.640241,0.39943 -1.208651,0.76345 -1.263134,0.80894 -0.08165,0.0681 -0.09528,0.0978 -0.07756,0.16832 0.04391,0.17494 0.116173,0.14038 1.5492,-0.74155 0.71907,-0.44253 0.942173,-0.56605 0.950403,-0.52614 0.0059,0.0286 -0.01559,0.0819 -0.04778,0.1182 -0.07459,0.0843 -1.482291,1.0169 -4.422596,2.93002 l -2.3255005,1.5131 -2.1261817,0.0156 -2.1261829,0.0156 -0.7402787,0.49583 c -0.4071537,0.27269 -1.1702879,0.7848 -1.6958546,1.13802 -0.5255668,0.35324 -0.9810173,0.65621 -1.0121142,0.67328 -0.05325,0.0292 -0.056026,10e-4 -0.047784,-0.48564 z"
       id="path14021"
       inkscape:connector-curvature="0" />
    <path
       style="fill:#ffffff;stroke-width:0.00120387;stroke-miterlimit:4;stroke-dasharray:none"
       d="m 3.6426902,293.24155 -0.5733455,-0.0171 0.6051981,-0.41143 c 0.3328587,-0.2263 0.7814531,-0.53089 0.9968778,-0.67687 l 0.3916795,-0.26542 2.1087441,-2.2e-4 2.1087426,-2.2e-4 2.2456032,-1.46004 2.245603,-1.46006 0.02206,0.11449 c 0.01216,0.063 0.02289,1.03544 0.02389,2.16103 l 0.0018,2.04652 -4.8017673,-0.007 c -2.6409707,-0.005 -5.0597725,-0.0146 -5.3751122,-0.0239 z"
       id="path14023"
       inkscape:connector-curvature="0" />
    <path
       style="fill:#ffffff;stroke-width:0.00120387;stroke-miterlimit:4;stroke-dasharray:none"
       d="m 8.5479786,288.32186 c -0.1765699,-0.0789 -0.2797923,-0.22177 -0.2953178,-0.40899 -0.02264,-0.27296 0.037337,-0.37003 0.3642491,-0.58957 0.5669311,-0.3807 2.2034001,-1.41807 2.9346121,-1.86027 0.411391,-0.24878 0.548126,-0.27554 0.741623,-0.14514 0.182053,0.12264 0.26008,0.26792 0.244997,0.45605 -0.0239,0.29807 0.01188,0.26917 -1.633076,1.31896 -1.10457,0.70494 -1.83573,1.16314 -1.9493852,1.22165 -0.1220269,0.0628 -0.2771538,0.0655 -0.4077022,0.007 z"
       id="path14025"
       inkscape:connector-curvature="0" />
    <path
       style="fill:#ffffff;stroke-width:0.00120387;stroke-miterlimit:4;stroke-dasharray:none"
       d="m 8.4364947,289.24879 c -0.3789518,-0.0861 -0.7492729,-0.3874 -0.9174825,-0.74633 -0.076948,-0.16421 -0.085878,-0.21963 -0.085878,-0.53362 0,-0.31247 0.00902,-0.36932 0.083631,-0.52556 0.045994,-0.0963 0.137582,-0.23715 0.2035382,-0.31287 0.1690425,-0.19409 3.4434006,-2.36857 4.0100696,-2.66305 0.173772,-0.0903 0.212981,-0.0979 0.509641,-0.0979 0.295349,0 0.338775,0.008 0.536092,0.10181 0.272689,0.12922 0.492474,0.34798 0.62985,0.62703 0.08811,0.17898 0.109244,0.26299 0.120609,0.47965 0.02533,0.48271 -0.149039,0.8418 -0.55137,1.13545 -0.468669,0.34206 -2.912066,1.94361 -3.5512776,2.32773 -0.1313857,0.079 -0.2856221,0.15956 -0.3427345,0.17912 -0.1702206,0.0583 -0.4577992,0.0711 -0.6446942,0.0286 z m 0.6449833,-0.65211 c 0.1895634,-0.0841 3.376356,-2.11672 3.515559,-2.2424 0.03713,-0.0334 0.108691,-0.13552 0.159048,-0.22654 0.07625,-0.13795 0.09159,-0.20288 0.09178,-0.38857 1.9e-4,-0.18608 -0.01431,-0.24759 -0.08735,-0.37193 -0.219504,-0.37339 -0.676141,-0.54048 -1.033605,-0.3782 -0.3268,0.14838 -3.3905318,2.1403 -3.5787018,2.32676 -0.1728607,0.17126 -0.2388167,0.36307 -0.2125096,0.61795 0.058373,0.56563 0.6252773,0.89361 1.145787,0.66293 z"
       id="path14027"
       inkscape:connector-curvature="0" />
    <path
       style="fill:#ffffff;stroke-width:0.00120387;stroke-miterlimit:4;stroke-dasharray:none"
       d="m 14.431889,285.18268 c -0.09243,-0.0332 -0.215799,-0.09 -0.274137,-0.12607 -0.176354,-0.10907 -0.40008,-0.37368 -0.507477,-0.60039 -0.09399,-0.19841 -0.10145,-0.23875 -0.10145,-0.54862 0,-0.30818 0.0077,-0.35086 0.09904,-0.54345 0.182431,-0.38499 0.571346,-0.68021 1.011001,-0.76745 0.593013,-0.11763 1.28046,0.33218 1.466862,0.95986 0.172387,0.58049 -0.126692,1.26549 -0.672572,1.54045 -0.308556,0.15541 -0.729299,0.1907 -1.021267,0.0856 z"
       id="path14029"
       inkscape:connector-curvature="0" />
  </g>
</svg>
