<?xml version="1.0" encoding="UTF-8" standalone="no"?>
<svg
   xmlns:dc="http://purl.org/dc/elements/1.1/"
   xmlns:cc="http://creativecommons.org/ns#"
   xmlns:rdf="http://www.w3.org/1999/02/22-rdf-syntax-ns#"
   xmlns:svg="http://www.w3.org/2000/svg"
   xmlns="http://www.w3.org/2000/svg"
   xmlns:sodipodi="http://sodipodi.sourceforge.net/DTD/sodipodi-0.dtd"
   xmlns:inkscape="http://www.inkscape.org/namespaces/inkscape"
   width="64"
   height="64"
   viewBox="0 0 16.933333 16.933333"
   version="1.1"
   id="svg8"
   sodipodi:docname="seren_indoor_activity_64x64.svg"
   inkscape:version="1.0.2-2 (e86c870879, 2021-01-15)">
  <defs
     id="defs2" />
  <sodipodi:namedview
     id="base"
     pagecolor="#ffffff"
     bordercolor="#666666"
     borderopacity="1.0"
     inkscape:pageopacity="0.0"
     inkscape:pageshadow="2"
     inkscape:zoom="5.6568542"
     inkscape:cx="64.008022"
     inkscape:cy="43.060258"
     inkscape:document-units="mm"
     inkscape:current-layer="layer1"
     inkscape:document-rotation="0"
     showgrid="false"
     inkscape:snap-global="false"
     fit-margin-top="0"
     fit-margin-left="0"
     fit-margin-right="0"
     fit-margin-bottom="0"
     inkscape:window-width="1540"
     inkscape:window-height="967"
     inkscape:window-x="1806"
     inkscape:window-y="64"
     inkscape:window-maximized="0"
     units="px" />
  <metadata
     id="metadata5">
    <rdf:RDF>
      <cc:Work
         rdf:about="">
        <dc:format>image/svg+xml</dc:format>
        <dc:type
           rdf:resource="http://purl.org/dc/dcmitype/StillImage" />
        <dc:title></dc:title>
      </cc:Work>
    </rdf:RDF>
  </metadata>
  <g
     inkscape:label="Calque 1"
     inkscape:groupmode="layer"
     id="layer1"
     transform="translate(-44.581036,-28.552681)">
    <text
       xml:space="preserve"
       style="font-style:normal;font-weight:normal;font-size:10.5833px;line-height:1.25;font-family:sans-serif;fill:#000000;fill-opacity:1;stroke:none;stroke-width:0.264583"
       x="51.724785"
       y="39.66518"
       id="text1411"><tspan
         sodipodi:role="line"
         id="tspan1409"
         x="51.724785"
         y="39.66518"
         style="stroke-width:0.264583"></tspan></text>
    <path
       style="fill:#ffffff;stroke-width:2.12598;stroke-linecap:round;stroke-miterlimit:4;stroke-dasharray:none"
       d=""
       id="path1772"
       transform="matrix(0.26458333,0,0,0.26458333,44.581036,28.552681)" />
    <path
       style="fill:#000000;stroke-width:0.0764792"
       d="m 50.669537,44.952385 c -0.168253,-0.07654 -0.35315,-0.196236 -0.410881,-0.265998 -0.0902,-0.109003 -0.287003,-0.126839 -1.399543,-0.126839 -1.368216,0 -1.6489,-0.05832 -1.820073,-0.37816 -0.101332,-0.189336 -0.101332,-0.660409 0,-0.849744 0.20159,-0.376678 0.220757,-0.378161 4.888609,-0.378161 h 4.363118 l -0.0017,0.516235 c -0.0017,0.549111 -0.163388,1.022182 -0.430074,1.258992 -0.378672,0.336249 -0.609072,0.366275 -2.797041,0.364514 -1.852216,-0.0015 -2.12087,-0.01731 -2.392435,-0.140839 z m 4.825844,-0.652867 c 0.199414,-0.199412 0.260029,-0.324212 0.260029,-0.535355 V 43.488838 H 53.078636 50.40186 v 0.275325 c 0,0.211143 0.06062,0.335943 0.260029,0.535355 l 0.260031,0.26003 h 2.156716 2.156716 z m -5.628875,-0.543002 v -0.267678 h -1.143391 c -1.002898,0 -1.152456,0.01621 -1.217184,0.131864 -0.04681,0.08365 -0.04721,0.18152 -0.0012,0.267677 0.06465,0.12081 0.199119,0.135814 1.217184,0.135814 h 1.144489 z M 57.096125,43.335879 55.8643,42.112211 h -0.368746 c -0.34937,0 -0.394968,-0.02547 -0.867903,-0.484674 -0.460931,-0.447551 -0.499165,-0.509683 -0.499165,-0.811178 0,-0.307845 0.03728,-0.363778 0.652358,-0.978861 0.615085,-0.615081 0.671017,-0.652359 0.978864,-0.652359 0.301493,0 0.363626,0.03823 0.811177,0.499163 0.459211,0.472938 0.484673,0.518535 0.484673,0.867906 v 0.368743 l 1.223668,1.231825 c 1.222815,1.230965 1.223671,1.232068 1.223671,1.581773 0,0.280615 -0.04396,0.397007 -0.221882,0.587472 -0.188366,0.201646 -0.277109,0.237527 -0.587477,0.237527 h -0.365589 z m 1.859113,0.466573 c 0.02107,-0.149147 -0.195847,-0.40688 -1.158668,-1.376628 l -1.184605,-1.193125 -0.03405,-0.451769 c -0.03163,-0.419734 -0.05898,-0.475325 -0.385585,-0.783913 -0.193344,-0.182679 -0.393888,-0.332144 -0.445652,-0.332144 -0.126534,0 -1.138457,1.017677 -1.138457,1.144929 0,0.05533 0.167164,0.267754 0.371471,0.472063 0.352671,0.352671 0.39239,0.37147 0.784838,0.37147 h 0.413367 l 1.184507,1.187891 c 0.971781,0.974562 1.218837,1.184015 1.375699,1.16631 0.135717,-0.01532 0.198726,-0.07483 0.217135,-0.205084 z m -8.782816,-1.652001 c 0,-0.246434 0.01821,-0.267678 0.229438,-0.267678 0.211228,0 0.229438,0.02125 0.229438,0.267678 0,0.246433 -0.01821,0.267677 -0.229438,0.267677 -0.211227,0 -0.229438,-0.02125 -0.229438,-0.267677 z m 3.212131,0 c 0,-0.246434 0.01821,-0.267678 0.229437,-0.267678 0.211228,0 0.229438,0.02125 0.229438,0.267678 0,0.246433 -0.01821,0.267677 -0.229438,0.267677 -0.211227,0 -0.229437,-0.02125 -0.229437,-0.267677 z M 47.39589,41.940133 c -0.187562,-0.220835 -0.478072,-0.6147 -0.645573,-0.875257 -0.305922,-0.47587 -0.758494,-1.451256 -0.700353,-1.509399 0.01711,-0.01712 0.122666,-0.0541 0.234545,-0.08218 0.193662,-0.04861 0.221998,-0.01499 0.591081,0.701216 0.213216,0.413749 0.551807,0.954934 0.752421,1.202633 0.547465,0.675959 0.52733,0.631899 0.368803,0.807069 -0.07836,0.08659 -0.168898,0.157435 -0.201189,0.157435 -0.0323,0 -0.212172,-0.180681 -0.399735,-0.401515 z m 4.382598,-0.05736 c 0,-0.203945 0.02549,-0.229438 0.229437,-0.229438 0.203946,0 0.229438,0.02549 0.229438,0.229438 0,0.203945 -0.02549,0.229438 -0.229438,0.229438 -0.203946,0 -0.229437,-0.02549 -0.229437,-0.229438 z m 6.895331,-0.294049 -0.179001,-0.137689 0.356432,-0.509881 0.356431,-0.509881 0.226588,0.117173 c 0.140192,0.0725 0.205975,0.152381 0.172529,0.209515 -0.199316,0.340462 -0.654327,0.971561 -0.699466,0.970153 -0.02998,-9.25e-4 -0.135061,-0.06366 -0.233513,-0.13939 z m -7.736605,-0.508983 c 0,-0.254931 0.01275,-0.267678 0.267677,-0.267678 0.254933,0 0.26768,0.01275 0.26768,0.267678 0,0.25493 -0.01275,0.267677 -0.26768,0.267677 -0.254929,0 -0.267677,-0.01275 -0.267677,-0.267677 z m 1.911985,-0.267678 c 0,-0.203945 0.02549,-0.229438 0.229437,-0.229438 0.203944,0 0.229438,0.02549 0.229438,0.229438 0,0.203945 -0.02549,0.229438 -0.229438,0.229438 -0.203946,0 -0.229437,-0.02549 -0.229437,-0.229438 z m -2.982693,-0.267677 c 0,-0.254931 0.01275,-0.267678 0.267677,-0.267678 0.25493,0 0.267677,0.01275 0.267677,0.267678 0,0.25493 -0.01275,0.267677 -0.267677,0.267677 -0.254932,0 -0.267677,-0.01275 -0.267677,-0.267677 z m 1.911982,-0.267678 c 0,-0.203945 0.02549,-0.229438 0.229437,-0.229438 0.203946,0 0.229438,0.02549 0.229438,0.229438 0,0.203945 -0.02549,0.229438 -0.229438,0.229438 -0.203946,0 -0.229437,-0.02549 -0.229437,-0.229438 z m 5.789468,-0.502693 C 57.351418,39.55748 57.31859,39.447314 57.209067,38.569677 57.126577,37.908642 57.09737,37.82937 56.936326,37.82937 c -0.07146,0 -0.110205,-0.08066 -0.110205,-0.229437 v -0.229438 h 0.803034 0.803031 V 37.06458 c 0,-0.240079 -0.02879,-0.306078 -0.133839,-0.306664 -0.312108,-0.0017 -0.91785,-0.378118 -1.335931,-0.830079 -0.453739,-0.490506 -0.671649,-0.982254 -0.671649,-1.515674 v -0.253796 l 0.401515,7.51e-4 c 0.554628,0.0011 1.075582,0.263249 1.572156,0.791327 0.223215,0.237378 0.419157,0.431595 0.435425,0.431595 0.01627,0 0.21221,-0.194217 0.435427,-0.431595 0.496572,-0.528078 1.017528,-0.790295 1.572153,-0.791327 l 0.401519,-7.51e-4 v 0.253796 c 0,0.53342 -0.217911,1.025168 -0.67165,1.515674 -0.420509,0.454584 -1.024164,0.828371 -1.34055,0.830079 -0.113125,6.07e-4 -0.134113,0.05322 -0.114717,0.287544 l 0.02373,0.286798 0.783913,0.02179 0.783913,0.02179 v 0.226761 c 0,0.146454 -0.03903,0.226763 -0.110205,0.226763 -0.161048,0 -0.190251,0.07927 -0.272745,0.740306 -0.10952,0.877637 -0.142351,0.987804 -0.358885,1.204339 -0.189924,0.189924 -0.229337,0.196776 -1.13191,0.196776 -0.90257,0 -0.941983,-0.0068 -1.131907,-0.196776 z m 1.885729,-0.376773 c 0.109621,-0.109623 0.217011,-0.69141 0.232938,-1.261954 l 0.0074,-0.267677 h -0.994232 -0.99423 l 0.01587,0.305917 c 0.03505,0.675548 0.115663,1.114842 0.224536,1.223714 0.08361,0.08361 0.287775,0.114673 0.753819,0.114673 0.466044,0 0.670207,-0.03105 0.753822,-0.114673 z M 58.355707,36.07899 c 0,-0.223717 -0.463474,-0.84944 -0.803034,-1.084148 -0.659139,-0.455608 -0.840059,-0.324423 -0.434228,0.314859 0.219342,0.345514 0.628503,0.705658 0.946831,0.833398 0.256745,0.103029 0.290431,0.09559 0.290431,-0.06411 z m 1.338388,-0.156806 c 0.342942,-0.237048 0.803032,-0.861154 0.803032,-1.089302 0,-0.11883 -0.03527,-0.139222 -0.172078,-0.09948 -0.31597,0.09178 -0.781283,0.469044 -1.032472,0.837086 -0.452034,0.662325 -0.273773,0.818469 0.401518,0.351698 z m -6.615459,3.216882 c -0.655107,-0.215711 -1.081932,-0.572044 -1.385562,-1.156737 -0.264086,-0.508548 -0.253851,-1.348008 0.02284,-1.873742 0.406562,-0.772476 1.022577,-1.143644 1.898066,-1.143644 0.875492,0 1.491507,0.371168 1.898069,1.143644 0.165479,0.314413 0.201258,0.48437 0.201258,0.955991 0,0.887816 -0.387364,1.516405 -1.179324,1.913729 -0.367618,0.184433 -1.128285,0.268456 -1.455357,0.160759 z m 1.130526,-0.587199 c 1.329635,-0.555421 1.329635,-2.419157 0,-2.974578 -1.013551,-0.423384 -2.193892,0.365793 -2.199557,1.470625 -0.0058,1.127493 1.172349,1.933042 2.199557,1.503953 z m -1.397523,-0.721742 c -0.134177,-0.148266 -0.128546,-0.162034 0.217586,-0.532079 0.341673,-0.365277 0.355328,-0.397633 0.355328,-0.842026 v -0.462153 h 0.229437 0.229438 v 0.595328 0.595327 l -0.40392,0.398904 c -0.222157,0.219397 -0.423319,0.398903 -0.447025,0.398903 -0.0237,0 -0.105083,-0.0685 -0.180844,-0.152204 z m -7.400055,0.98735 c -0.303144,-0.176566 -0.363273,-0.466713 -0.363273,-1.752897 0,-1.699523 0.07932,-1.835503 1.070708,-1.835503 0.299976,0 0.611624,0.03544 0.692551,0.07875 0.196743,0.105294 0.37816,0.470711 0.37816,0.761706 v 0.236213 l 0.669193,-0.0221 0.669195,-0.02209 0.04504,-0.337507 c 0.07067,-0.529591 0.317152,-0.694962 1.035819,-0.694962 0.53379,0 0.591312,0.0161 0.798768,0.223554 l 0.223555,0.223555 v 1.388393 1.388394 l -0.223555,0.223554 c -0.207456,0.207456 -0.264978,0.223555 -0.798768,0.223555 -0.718667,0 -0.965148,-0.165372 -1.035819,-0.694963 l -0.04504,-0.337507 -0.669195,-0.02209 -0.669193,-0.0221 v 0.236214 c 0,0.290994 -0.181417,0.656412 -0.37816,0.761706 -0.188938,0.101116 -1.224656,0.09826 -1.399986,-0.0039 z m 1.094859,-0.45544 c 0.136752,-0.07319 0.147933,-0.171246 0.147933,-1.297457 0,-1.352495 -0.0094,-1.376628 -0.535357,-1.376628 -0.526237,0 -0.535354,0.02353 -0.535354,1.381783 0,1.197275 0.0037,1.224922 0.172078,1.29261 0.236149,0.09492 0.573024,0.09478 0.7507,-3.18e-4 z m 3.51302,-0.07379 c 0.138391,-0.13839 0.152959,-0.254931 0.152959,-1.223669 0,-0.968738 -0.01457,-1.085277 -0.152959,-1.223667 -0.18954,-0.189542 -0.658096,-0.204013 -0.85437,-0.02638 -0.123112,0.111414 -0.13986,0.257946 -0.13986,1.223667 0,0.995125 0.01422,1.111314 0.15296,1.250056 0.09468,0.09468 0.254929,0.152958 0.420633,0.152958 0.165707,0 0.325948,-0.05827 0.420637,-0.152958 z m -1.491345,-1.223669 v -0.267677 h -0.650074 -0.650075 l -0.0239,0.289845 -0.02393,0.289845 0.673993,-0.02217 0.673991,-0.02217 z m -2.351739,-2.423581 c -0.181885,-0.04753 -0.172693,-0.102647 0.124335,-0.745529 0.656613,-1.421149 1.956183,-2.783319 3.314187,-3.473827 0.412927,-0.209963 0.43088,-0.207773 0.533891,0.06513 0.085,0.225195 0.08011,0.232015 -0.305983,0.425935 -1.301438,0.653676 -2.542824,1.983679 -3.117403,3.339942 -0.181998,0.429599 -0.238428,0.469512 -0.549027,0.388343 z m 4.361242,-0.372414 c -0.298175,-0.161814 -0.365199,-0.335515 -0.365199,-0.946466 v -0.540383 h 0.267677 0.267677 v -1.611093 c 0,-0.95873 0.03188,-1.670672 0.07875,-1.758232 0.181235,-0.338643 0.420761,-0.37816 2.292112,-0.37816 1.871349,0 2.110875,0.03951 2.29211,0.37816 0.04686,0.08756 0.07875,0.799502 0.07875,1.758232 v 1.611093 h 0.267677 0.267677 v 0.540383 c 0,1.068494 0.0055,1.066488 -2.921534,1.062619 -1.895776,-0.0025 -2.355204,-0.02363 -2.525692,-0.116153 z m 4.909181,-0.56407 c 0.212262,-0.396614 0.26742,-0.387424 -2.325414,-0.387424 -1.373714,0 -2.423147,0.03003 -2.447885,0.07006 -0.02382,0.03853 -0.0094,0.158988 0.03184,0.267677 l 0.07513,0.197616 h 2.293581 c 2.189324,0 2.29718,-0.0067 2.37275,-0.14793 z m -0.456184,-2.380914 c 0,-0.858873 -0.03254,-1.51893 -0.07917,-1.606064 -0.07474,-0.139652 -0.177312,-0.147931 -1.832811,-0.147931 -1.655503,0 -1.758074,0.0083 -1.832815,0.147931 -0.08689,0.162359 -0.112767,2.92863 -0.02818,3.013213 0.02804,0.02804 0.888435,0.05099 1.911984,0.05099 h 1.860995 z m -2.794971,0.811537 c -0.173211,-0.173212 -0.187722,-0.244415 -0.187722,-0.921228 0,-0.676811 0.01451,-0.748015 0.187722,-0.921227 0.103248,-0.103247 0.253701,-0.187722 0.334345,-0.187722 0.219205,0 1.291292,0.727501 1.351462,0.91708 0.106456,0.335411 -0.02619,0.531386 -0.623638,0.921407 -0.319661,0.208677 -0.647184,0.379413 -0.727824,0.379413 -0.08065,0 -0.231097,-0.08447 -0.334345,-0.187723 z m 1.188906,-0.921228 c 0,-0.0092 -0.189286,-0.142262 -0.420637,-0.29587 l -0.420637,-0.279287 v 0.575157 0.575157 l 0.420637,-0.279286 c 0.231351,-0.153608 0.420637,-0.28675 0.420637,-0.295871 z m 5.009394,2.624932 c -0.08413,-0.04699 -0.1641,-0.09437 -0.177718,-0.105287 -0.03509,-0.02813 0.21119,-0.492943 0.261188,-0.492943 0.03893,0 0.346592,0.149503 0.400166,0.19445 0.04137,0.03471 -0.21587,0.494032 -0.275282,0.491538 -0.03047,-0.0013 -0.124228,-0.04077 -0.208354,-0.08776 z m 1.376627,0 c -0.08413,-0.04699 -0.166196,-0.09646 -0.182374,-0.109942 -0.06075,-0.05061 0.166484,-0.488288 0.253513,-0.488288 0.04995,0 0.155113,0.04701 0.233687,0.104463 0.127179,0.093 0.131963,0.130776 0.04358,0.344157 -0.109725,0.264899 -0.127965,0.272732 -0.348404,0.14961 z M 58.87194,32.775606 c -0.185397,-0.107984 -0.1716,-0.197828 0.133004,-0.866236 l 0.266838,-0.58554 0.230444,0.119168 c 0.225007,0.116356 0.227892,0.124987 0.122262,0.365674 -0.0595,0.135579 -0.186863,0.427189 -0.283026,0.648023 -0.179769,0.412832 -0.239089,0.453125 -0.469522,0.318911 z m 1.357509,-0.0075 c -0.08412,-0.04699 -0.166409,-0.09668 -0.182847,-0.110416 -0.01645,-0.01374 0.09894,-0.314087 0.25638,-0.667438 l 0.286269,-0.642456 0.225345,0.08506 c 0.263732,0.09955 0.258604,0.155638 -0.08408,0.919411 -0.239775,0.534412 -0.259486,0.550772 -0.501067,0.415841 z m -2.454605,-0.836739 c -0.210825,-0.234432 -0.999588,-0.781826 -1.458973,-1.012479 -0.390537,-0.196084 -0.394431,-0.201511 -0.308272,-0.429774 0.04799,-0.12715 0.115504,-0.231182 0.150023,-0.231182 0.220919,0 1.337899,0.7119 1.892166,1.205962 0.342178,0.305008 0.34332,0.307701 0.198466,0.468157 -0.183718,0.203506 -0.289972,0.20336 -0.47341,-6.36e-4 z"
       id="path1975" />
    <path
       style="fill:#ffffff;stroke-width:0.650375;stroke-linecap:round;stroke-miterlimit:4;stroke-dasharray:none"
       d="m 51.465867,32.734379 -0.236142,-0.0135 -0.02751,-0.256367 c -0.03906,-0.363911 0.0061,-2.566357 0.05523,-2.693077 0.02459,-0.06345 0.08194,-0.115706 0.146857,-0.133838 0.138955,-0.03881 3.20972,-0.03881 3.348673,0 0.06377,0.01781 0.12361,0.07152 0.149122,0.133838 0.02752,0.06723 0.04899,0.615363 0.06061,1.547638 l 0.01801,1.443546 -1.639353,-0.0073 c -0.901646,-0.004 -1.745619,-0.01344 -1.875496,-0.02087 z m 1.504958,-0.590053 c 0.346687,-0.198359 0.766307,-0.514797 0.869879,-0.65598 0.05535,-0.07544 0.0792,-0.165999 0.0792,-0.300638 0,-0.182504 -0.0101,-0.201867 -0.191199,-0.366779 -0.324455,-0.295446 -1.039382,-0.735086 -1.195371,-0.735086 -0.107741,0 -0.372609,0.187362 -0.453311,0.320661 -0.06356,0.104988 -0.0721,0.200626 -0.0721,0.807408 0,0.782647 0.01793,0.843872 0.301539,1.029465 0.196047,0.128293 0.288116,0.114504 0.661362,-0.09905 z"
       id="path1977" />
    <path
       style="fill:#ffffff;stroke-width:0.650375;stroke-linecap:round;stroke-miterlimit:4;stroke-dasharray:none"
       d="m 50.745905,33.693324 c -0.11408,-0.273033 -0.08912,-0.296526 0.344269,-0.32394 0.542042,-0.03428 3.898013,-0.03338 4.140351,0.0012 0.110917,0.01579 0.220948,0.04799 0.244518,0.07156 0.05812,0.05812 -0.02766,0.263698 -0.135954,0.325805 -0.06007,0.03445 -0.652003,0.04936 -2.306807,0.05813 l -2.226012,0.01179 z"
       id="path1979" />
    <path
       style="fill:#ffffff;stroke-width:0.650375;stroke-linecap:round;stroke-miterlimit:4;stroke-dasharray:none"
       d="M 53.250714,38.596803 C 52.678323,38.437534 52.196401,37.94403 52.067575,37.385231 51.875574,36.5524 52.4657,35.694244 53.35618,35.511354 c 0.644605,-0.132392 1.367863,0.2424 1.656004,0.85814 0.22884,0.489024 0.228912,0.900994 2.28e-4,1.389658 -0.306593,0.655177 -1.08587,1.025705 -1.761706,0.837651 z m 0.190548,-0.98731 0.414008,-0.391957 0.0037,-0.621393 0.0037,-0.621395 h -0.248555 -0.248558 v 0.383624 c 0,0.47676 -0.03395,0.561958 -0.380585,0.955342 -0.148219,0.168203 -0.269489,0.335009 -0.269489,0.370681 0,0.06739 0.219041,0.317054 0.278168,0.317054 0.01855,0 0.220031,-0.176381 0.447736,-0.391956 z"
       id="path1981" />
    <path
       style="fill:#ffffff;stroke-width:0.650375;stroke-linecap:round;stroke-miterlimit:4;stroke-dasharray:none"
       d="m 49.330372,38.350568 c -0.248436,-0.112857 -0.262719,-0.173365 -0.278351,-1.17914 -0.01561,-1.004486 0.01648,-1.268313 0.166202,-1.366416 0.256187,-0.16786 0.722288,-0.0886 0.849854,0.14453 0.05786,0.105728 0.06611,0.244896 0.06611,1.115036 0,1.136225 -0.01083,1.185266 -0.286101,1.295408 -0.199133,0.07967 -0.326689,0.07735 -0.517709,-0.0094 z"
       id="path1983" />
    <path
       style="fill:#ffffff;stroke-width:0.650375;stroke-linecap:round;stroke-miterlimit:4;stroke-dasharray:none"
       d="m 47.20885,37.261113 c 0,-0.04964 0.01095,-0.170098 0.02432,-0.267677 l 0.02432,-0.177415 h 0.625756 0.625756 v 0.242746 0.242747 l -0.407464,0.02493 c -0.224106,0.01371 -0.516639,0.02493 -0.650075,0.02493 -0.229464,0 -0.242608,-0.0049 -0.242608,-0.09026 z"
       id="path1985" />
    <path
       style="fill:#ffffff;stroke-width:0.650375;stroke-linecap:round;stroke-miterlimit:4;stroke-dasharray:none"
       d="m 45.870462,38.377593 c -0.252491,-0.07092 -0.247293,-0.04819 -0.260968,-1.141573 -0.01359,-1.08627 0.01709,-1.372995 0.157404,-1.471274 0.0548,-0.03839 0.174016,-0.05768 0.356394,-0.05768 0.351226,0 0.42118,0.05265 0.476842,0.358875 0.05776,0.317766 0.03183,2.079897 -0.03225,2.191949 -0.08211,0.143579 -0.411281,0.200075 -0.697424,0.119699 z"
       id="path1987" />
    <path
       style="fill:#ffffff;stroke-width:0.650375;stroke-linecap:round;stroke-miterlimit:4;stroke-dasharray:none"
       d="m 47.707298,43.97136 c -0.0886,-0.01581 -0.151203,-0.05703 -0.188924,-0.1244 -0.05027,-0.08976 -0.04967,-0.111052 0.0055,-0.195179 0.08433,-0.128692 0.228754,-0.143823 1.372903,-0.143823 h 0.950654 v 0.248558 0.248558 l -1.003831,-0.005 c -0.552085,-0.0028 -1.063419,-0.01568 -1.136297,-0.02868 z"
       id="path1989" />
    <path
       style="fill:#ffffff;stroke-width:0.650375;stroke-linecap:round;stroke-miterlimit:4;stroke-dasharray:none"
       d="M 50.713819,44.314062 C 50.466121,44.054376 50.42098,43.959204 50.42098,43.696667 v -0.188709 h 2.657655 2.657656 v 0.188709 c 0,0.262537 -0.04514,0.357709 -0.292839,0.617395 l -0.215919,0.226367 h -2.148898 -2.148898 z"
       id="path1991" />
    <path
       style="fill:#ffffff;stroke-width:0.650375;stroke-linecap:round;stroke-miterlimit:4;stroke-dasharray:none"
       d="m 58.519298,43.889451 c -0.096,-0.06359 -0.665102,-0.597035 -1.264658,-1.185429 l -1.090098,-1.069806 h -0.326356 c -0.179494,0 -0.371875,-0.01731 -0.427513,-0.03846 -0.120753,-0.04591 -0.521187,-0.418029 -0.673143,-0.625541 -0.0902,-0.123171 -0.101094,-0.161052 -0.06549,-0.227585 0.05435,-0.10156 0.731297,-0.80089 0.920782,-0.951233 l 0.143331,-0.113723 0.124346,0.07753 c 0.17839,0.111227 0.591272,0.541269 0.637023,0.663499 0.02136,0.05707 0.05002,0.26356 0.06367,0.458876 l 0.02483,0.35512 0.830214,0.841273 c 0.995068,1.00832 1.401905,1.445952 1.474233,1.585813 0.06903,0.133481 0.03837,0.24803 -0.08094,0.302387 -0.118348,0.05393 -0.0873,0.0617 -0.290243,-0.07272 z"
       id="path1993" />
    <path
       style="fill:#ffffff;stroke-width:0.650375;stroke-linecap:round;stroke-miterlimit:4;stroke-dasharray:none"
       d="m 58.146307,39.455819 c -0.172798,-0.04339 -0.254164,-0.148689 -0.304772,-0.394414 -0.04117,-0.199939 -0.113943,-0.872023 -0.115795,-1.069516 l -8.68e-4,-0.105158 h 0.980578 0.980578 l -0.02662,0.391955 c -0.02732,0.402243 -0.116232,0.912146 -0.179752,1.030837 -0.01966,0.03674 -0.07408,0.08789 -0.120915,0.113661 -0.102846,0.05659 -1.01873,0.08124 -1.212314,0.03264 z"
       id="path1995" />
    <path
       style="fill:#ffffff;stroke-width:0.650375;stroke-linecap:round;stroke-miterlimit:4;stroke-dasharray:none"
       d="m 58.126269,36.141432 c -0.376619,-0.130975 -0.89569,-0.631495 -1.114242,-1.074421 -0.168404,-0.341291 -0.07206,-0.397851 0.311911,-0.183121 0.397865,0.2225 0.927559,0.828739 0.995877,1.139793 0.03341,0.152095 -0.01321,0.180461 -0.193546,0.117749 z"
       id="path1997" />
    <path
       style="fill:#ffffff;stroke-width:0.650375;stroke-linecap:round;stroke-miterlimit:4;stroke-dasharray:none"
       d="m 59.076765,36.108061 c -0.07569,-0.197263 0.63233,-1.047443 1.046254,-1.256317 0.36293,-0.183141 0.43813,-0.116028 0.255736,0.228237 -0.209444,0.39532 -0.620018,0.812278 -0.978936,0.994156 -0.209796,0.10631 -0.291963,0.114939 -0.323054,0.03393 z"
       id="path1999" />
    <path
       style="fill:#ffffff;stroke-width:0.650375;stroke-linecap:round;stroke-miterlimit:4;stroke-dasharray:none"
       d="m 52.5624,31.213912 c 0,-0.406042 0.01053,-0.514579 0.0478,-0.492743 0.15748,0.09227 0.683969,0.451125 0.700063,0.477168 0.01515,0.0245 -0.43819,0.353539 -0.700063,0.508111 -0.03728,0.02201 -0.0478,-0.08638 -0.0478,-0.492536 z"
       id="path2001" />
  </g>
</svg>
