<?xml version="1.0" encoding="UTF-8" standalone="no"?>
<!-- Created with Inkscape (http://www.inkscape.org/) -->

<svg
   xmlns:dc="http://purl.org/dc/elements/1.1/"
   xmlns:cc="http://creativecommons.org/ns#"
   xmlns:rdf="http://www.w3.org/1999/02/22-rdf-syntax-ns#"
   xmlns:svg="http://www.w3.org/2000/svg"
   xmlns="http://www.w3.org/2000/svg"
   xmlns:sodipodi="http://sodipodi.sourceforge.net/DTD/sodipodi-0.dtd"
   xmlns:inkscape="http://www.inkscape.org/namespaces/inkscape"
   width="64"
   height="64"
   viewBox="0 0 16.933333 16.933334"
   version="1.1"
   id="svg8"
   inkscape:version="0.92.5 (2060ec1f9f, 2020-04-08)"
   sodipodi:docname="inner_shutter_64x64.svg">
  <defs
     id="defs2" />
  <sodipodi:namedview
     id="base"
     pagecolor="#ffffff"
     bordercolor="#666666"
     borderopacity="1.0"
     inkscape:pageopacity="0.0"
     inkscape:pageshadow="2"
     inkscape:zoom="5.6"
     inkscape:cx="45.418159"
     inkscape:cy="41.966292"
     inkscape:document-units="mm"
     inkscape:current-layer="layer1"
     showgrid="false"
     units="px"
     inkscape:window-width="1208"
     inkscape:window-height="987"
     inkscape:window-x="1992"
     inkscape:window-y="0"
     inkscape:window-maximized="1" />
  <metadata
     id="metadata5">
    <rdf:RDF>
      <cc:Work
         rdf:about="">
        <dc:format>image/svg+xml</dc:format>
        <dc:type
           rdf:resource="http://purl.org/dc/dcmitype/StillImage" />
        <dc:title></dc:title>
      </cc:Work>
    </rdf:RDF>
  </metadata>
  <g
     inkscape:label="Layer 1"
     inkscape:groupmode="layer"
     id="layer1"
     transform="translate(0,-280.06665)">
    <path
       style="fill:#000000;stroke-width:0.02945556"
       d="m 1.064291,296.08765 c -0.035393,-0.0143 -0.078467,-0.0523 -0.09573,-0.0846 -0.021961,-0.041 -0.031379,-2.2607 -0.031379,-7.39634 V 281.269 l 0.072297,-0.0723 0.072305,-0.0723 h 7.396021 7.396022 l 0.0723,0.0723 0.0723,0.0723 v 7.34724 c 0,7.18806 -0.0012,7.34874 -0.05626,7.41677 -0.05594,0.0691 -0.06033,0.0696 -0.7708,0.0784 -0.777108,0.01 -0.858057,-0.002 -0.905524,-0.13893 -0.03328,-0.0954 0.02008,-0.24843 0.09694,-0.27793 0.02743,-0.0105 0.307256,-0.0191 0.621842,-0.0191 h 0.571974 v -2.1208 -2.1208 H 15.37041 15.164221 v 1.3211 c 0,1.36156 -0.009,1.47785 -0.118983,1.53671 -0.03442,0.0184 -1.579859,0.0288 -4.280548,0.0288 H 6.53802 l -0.06105,-0.0776 c -0.06991,-0.0889 -0.07437,-0.12603 -0.02753,-0.22882 0.05142,-0.11285 0.169215,-0.13541 0.707268,-0.13541 h 0.496349 v -1.2224 -1.22241 H 5.38498 3.116902 v 0.40996 c 0,0.2255 -0.0086,0.43242 -0.01913,0.45985 -0.02926,0.0762 -0.182511,0.1302 -0.276657,0.0974 -0.122101,-0.0426 -0.146041,-0.13615 -0.146041,-0.57092 v -0.39627 H 2.45414 2.233224 v 1.22174 1.22174 l 1.79935,0.008 1.799352,0.008 0.07108,0.0826 c 0.08708,0.10125 0.08951,0.16581 0.01003,0.26684 l -0.06105,0.0776 H 3.908121 c -1.211636,0 -1.9641594,-0.0108 -1.9977416,-0.0288 -0.1099802,-0.0589 -0.1189843,-0.17516 -0.1189843,-1.53671 v -1.3209 H 1.5852016 1.3790123 v 2.12081 2.1208 h 6.1375097 6.137511 l 0.07761,0.0611 c 0.107333,0.0844 0.107333,0.23531 0,0.31974 l -0.07761,0.0611 -6.262697,-0.002 c -3.533557,-8e-4 -6.2907384,-0.0132 -6.3270458,-0.0278 z m 7.796432,-2.81142 c 0,-0.38502 0.01201,-0.62881 0.03328,-0.67549 0.0681,-0.14944 0.301699,-0.16272 0.37731,-0.0215 0.01919,0.0359 0.03125,0.29784 0.03125,0.67889 v 0.6205 h 2.70991 2.709912 v -1.2224 -1.2224 h -0.220917 -0.220917 v 0.39626 c 0,0.43477 -0.02394,0.52836 -0.146041,0.57092 -0.09415,0.0328 -0.247393,-0.0212 -0.276656,-0.0974 -0.01053,-0.0275 -0.01913,-0.23435 -0.01913,-0.45984 v -0.40996 H 11.570647 9.302569 v 0.22225 c 0,0.1967 -0.0083,0.23056 -0.0723,0.29456 -0.08663,0.0866 -0.190696,0.0926 -0.284918,0.0163 -0.06024,-0.0488 -0.07059,-0.0869 -0.08002,-0.29455 l -0.01083,-0.23853 H 8.474698 8.094895 v 1.2224 1.2224 h 0.382922 0.382922 z m 1.18036,0.31865 c -0.03358,-0.0426 -0.06105,-0.10727 -0.06105,-0.14354 0,-0.041 0.178791,-0.2895 0.472449,-0.65669 0.37758,-0.47214 0.490199,-0.59466 0.560852,-0.61017 0.167796,-0.0368 0.311466,0.13616 0.240717,0.28988 -0.03218,0.0699 -0.726129,0.94765 -0.871587,1.10241 -0.116626,0.12408 -0.252363,0.13129 -0.341382,0.0181 z m 3.111154,0.0449 c -0.07678,-0.0447 -0.112919,-0.15885 -0.07873,-0.24877 0.05035,-0.13243 0.491801,-0.6526 0.570631,-0.67239 0.151936,-0.0381 0.309368,0.11471 0.265452,0.25771 -0.02016,0.0657 -0.432006,0.59597 -0.511322,0.65843 -0.056,0.0441 -0.1747,0.0465 -0.246027,0.005 z m -1.862769,-0.56977 c -0.134504,-0.1345 -0.122326,-0.15811 0.441226,-0.85555 0.222541,-0.27541 0.442956,-0.51958 0.489811,-0.54259 0.156148,-0.0767 0.325359,0.0697 0.281676,0.2438 -0.01704,0.0679 -0.673957,0.90993 -0.882303,1.13091 -0.111423,0.11818 -0.227433,0.12641 -0.33041,0.0234 z M 2.675057,290.5944 v -0.39764 H 2.027035 1.3790131 v 0.39764 0.39765 H 2.027035 2.675057 Z m 11.163655,0 v -0.39764 H 8.477801 3.11689 v 0.39764 0.39765 h 5.360911 5.360911 z m 1.737877,0 v -0.39764 h -0.648022 -0.648022 v 0.39764 0.39765 h 0.648022 0.648022 z M 2.675057,289.35728 v -0.39765 H 2.027035 1.3790131 v 0.39765 0.39764 H 2.027035 2.675057 Z m 11.163655,0 v -0.39765 H 8.477801 3.11689 v 0.39765 0.39764 h 5.360911 5.360911 z m 1.737877,0 v -0.39765 h -0.648022 -0.648022 v 0.39765 0.39764 h 0.648022 0.648022 z M 2.675057,288.12015 V 287.7225 H 2.027035 1.3790131 v 0.39765 0.39765 H 2.027035 2.675057 Z m 11.163655,0 V 287.7225 H 8.477801 3.11689 v 0.39765 0.39765 h 5.360911 5.360911 z m 1.737877,0 v -0.39765 h -0.648022 -0.648022 v 0.39765 0.39765 h 0.648022 0.648022 z m -12.901532,-1.2377 v -0.39823 l -0.6406583,0.008 -0.6406581,0.008 -0.00821,0.39029 -0.00822,0.39029 H 2.0261878 2.675065 Z m 11.157145,0.008 -0.0082,-0.39029 H 8.47782 3.131637 l -0.0082,0.39029 -0.0082,0.39029 h 5.362621 5.36262 z m 1.737879,0 -0.0082,-0.39029 -0.640658,-0.008 -0.640658,-0.008 v 0.39822 0.39822 h 0.648877 0.648877 z m -12.895024,-1.2297 v -0.38292 H 2.027035 1.3790131 v 0.38292 0.38292 H 2.027035 2.675057 Z m 11.163655,0 v -0.38292 H 8.477801 3.11689 v 0.38292 0.38292 h 5.360911 5.360911 z m 1.737877,0 v -0.38292 h -0.648022 -0.648022 v 0.38292 0.38292 h 0.648022 0.648022 z M 2.675057,284.43834 v -0.39765 H 2.027035 1.3790131 v 0.39765 0.39766 H 2.027035 2.675057 Z m 11.163655,0 v -0.39765 h -0.661365 c -0.702289,0 -0.780988,-0.0129 -0.837621,-0.13718 -0.04599,-0.10093 -0.0413,-0.1385 0.02834,-0.22704 l 0.06105,-0.0776 h 0.704795 0.704795 v -0.39765 -0.39765 H 8.477796 3.116885 v 0.39765 0.39765 h 4.313101 4.3131 l 0.06105,0.0776 c 0.03358,0.0427 0.06105,0.0951 0.06105,0.11644 0,0.0779 -0.06715,0.18318 -0.137183,0.21508 -0.05155,0.0235 -1.275028,0.0327 -4.341447,0.0327 H 3.116887 v 0.39765 0.39765 h 5.360911 5.36091 z m 1.737877,0 v -0.39765 h -0.648022 -0.648022 v 0.39765 0.39766 h 0.648022 0.648022 z M 2.675057,283.20121 v -0.39765 H 2.027035 1.3790131 v 0.39765 0.39765 H 2.027035 2.675057 Z m 12.901532,0 v -0.39765 h -0.648022 -0.648022 v 0.39765 0.39765 h 0.648022 0.648022 z M 2.675057,281.96408 v -0.39765 H 2.027035 1.3790131 v 0.39765 0.39765 H 2.027035 2.675057 Z m 11.163655,0 v -0.39765 H 8.477801 3.11689 v 0.39765 0.39765 h 5.360911 5.360911 z m 1.737877,0 v -0.39765 h -0.648022 -0.648022 v 0.39765 0.39765 h 0.648022 0.648022 z M 4.093443,293.50329 c -0.0897,-0.0759 -0.103873,-0.18363 -0.03778,-0.28719 0.100957,-0.15819 1.1832,-1.38337 1.255401,-1.42121 0.137269,-0.072 0.336758,0.0864 0.298904,0.2372 -0.01695,0.0675 -0.976753,1.19903 -1.197985,1.41229 -0.126635,0.12207 -0.222872,0.13987 -0.318543,0.0589 z m 1.923481,-0.43313 c -0.11757,-0.11757 -0.09431,-0.1916 0.160841,-0.51188 0.322907,-0.40532 0.391334,-0.44646 0.543458,-0.3268 0.142423,0.11202 0.111459,0.2147 -0.170423,0.5651 -0.136418,0.16958 -0.270053,0.31677 -0.296964,0.3271 -0.09185,0.0352 -0.164569,0.0188 -0.236912,-0.0535 z m -2.367177,-0.40293 c -0.111165,-0.11932 -0.08189,-0.20519 0.181441,-0.53233 0.133654,-0.16604 0.274486,-0.31749 0.31296,-0.33656 0.08559,-0.0424 0.226642,-0.002 0.269408,0.0787 0.06453,0.12058 0.02976,0.1993 -0.229456,0.51938 -0.234077,0.28904 -0.268346,0.31978 -0.365538,0.32792 -0.08073,0.006 -0.122473,-0.007 -0.168815,-0.0571 z"
       id="path8525"
       inkscape:connector-curvature="0" />
    <path
       style="fill:#ffffff;stroke-width:0.0047712;stroke-miterlimit:4;stroke-dasharray:none"
       d="m 1.401551,281.9737 v -0.37871 H 2.0327413 2.663932 v 0.37871 0.37871 H 2.0327413 1.401551 Z"
       id="path8527"
       inkscape:connector-curvature="0" />
    <path
       style="fill:#ffffff;stroke-width:0.0047712;stroke-miterlimit:4;stroke-dasharray:none"
       d="M 1.401551,283.19401 V 282.8153 H 2.0327413 2.663932 v 0.37871 0.37871 H 2.0327413 1.401551 Z"
       id="path8529"
       inkscape:connector-curvature="0" />
    <path
       style="fill:#ffffff;stroke-width:0.0047712;stroke-miterlimit:4;stroke-dasharray:none"
       d="m 1.401551,284.45639 v -0.37872 H 2.0327413 2.663932 v 0.37872 0.37871 H 2.0327413 1.401551 Z"
       id="path8531"
       inkscape:connector-curvature="0" />
    <path
       style="fill:#ffffff;stroke-width:0.0047712;stroke-miterlimit:4;stroke-dasharray:none"
       d="m 1.401551,285.65565 v -0.35768 H 2.0327413 2.663932 v 0.35768 0.35767 H 2.0327413 1.401551 Z"
       id="path8533"
       inkscape:connector-curvature="0" />
    <path
       style="fill:#ffffff;stroke-width:0.0047712;stroke-miterlimit:4;stroke-dasharray:none"
       d="m 1.401551,286.89699 v -0.37872 H 2.0327413 2.663932 v 0.37872 0.37871 H 2.0327413 1.401551 Z"
       id="path8535"
       inkscape:connector-curvature="0" />
    <path
       style="fill:#ffffff;stroke-width:0.0047712;stroke-miterlimit:4;stroke-dasharray:none"
       d="m 1.401551,288.11729 v -0.37872 H 2.0327413 2.663932 v 0.37872 0.37871 H 2.0327413 1.401551 Z"
       id="path8537"
       inkscape:connector-curvature="0" />
    <path
       style="fill:#ffffff;stroke-width:0.0047712;stroke-miterlimit:4;stroke-dasharray:none"
       d="m 1.401551,289.3376 v -0.37872 H 2.0327413 2.663932 v 0.37872 0.37871 H 2.0327413 1.401551 Z"
       id="path8539"
       inkscape:connector-curvature="0" />
    <path
       style="fill:#ffffff;stroke-width:0.0047712;stroke-miterlimit:4;stroke-dasharray:none"
       d="m 1.401551,290.59997 v -0.37871 H 2.0327413 2.663932 v 0.37871 0.37872 H 2.0327413 1.401551 Z"
       id="path8541"
       inkscape:connector-curvature="0" />
    <path
       style="fill:#ffffff;stroke-width:0.0047712;stroke-miterlimit:4;stroke-dasharray:none"
       d="m 3.126805,290.59997 v -0.37871 h 5.344079 5.344078 v 0.37871 0.37872 H 8.470884 3.126805 Z"
       id="path8543"
       inkscape:connector-curvature="0" />
    <path
       style="fill:#ffffff;stroke-width:0.0047712;stroke-miterlimit:4;stroke-dasharray:none"
       d="m 3.126805,289.3376 v -0.37872 h 5.344079 5.344078 v 0.37872 0.37871 H 8.470884 3.126805 Z"
       id="path8545"
       inkscape:connector-curvature="0" />
    <path
       style="fill:#ffffff;stroke-width:0.0047712;stroke-miterlimit:4;stroke-dasharray:none"
       d="m 3.126805,288.11729 v -0.37872 h 5.344079 5.344078 v 0.37872 0.37871 H 8.470884 3.126805 Z"
       id="path8547"
       inkscape:connector-curvature="0" />
    <path
       style="fill:#ffffff;stroke-width:0.0047712;stroke-miterlimit:4;stroke-dasharray:none"
       d="m 3.127379,286.99167 c 3.16e-4,-0.15622 0.01199,-0.32664 0.02595,-0.37872 l 0.02537,-0.0947 h 5.318131 5.318131 v 0.37872 0.37871 H 8.470883 3.126804 Z"
       id="path8549"
       inkscape:connector-curvature="0" />
    <path
       style="fill:#ffffff;stroke-width:0.0047712;stroke-miterlimit:4;stroke-dasharray:none"
       d="m 3.126805,285.65565 v -0.35768 h 5.344079 5.344078 v 0.35768 0.35767 H 8.470884 3.126805 Z"
       id="path8551"
       inkscape:connector-curvature="0" />
    <path
       style="fill:#ffffff;stroke-width:0.0047712;stroke-miterlimit:4;stroke-dasharray:none"
       d="m 3.126805,284.46333 v -0.37178 l 4.29884,-0.0275 c 3.927551,-0.0252 4.305527,-0.0336 4.376254,-0.0976 0.09464,-0.0856 0.09825,-0.17685 0.01191,-0.30013 l -0.0655,-0.0935 H 7.437561 3.126812 v -0.37871 -0.37871 h 5.344079 5.344079 v 0.37871 0.37871 h -0.687787 c -0.612878,0 -0.695373,0.008 -0.757429,0.077 -0.07684,0.0849 -0.089,0.20601 -0.03004,0.29921 0.04883,0.0771 0.397138,0.12071 1.001858,0.12524 l 0.473392,0.003 v 0.37871 0.37871 H 8.470879 3.1268 Z"
       id="path8553"
       inkscape:connector-curvature="0" />
    <path
       style="fill:#ffffff;stroke-width:0.0047712;stroke-miterlimit:4;stroke-dasharray:none"
       d="m 3.126805,281.9737 v -0.37871 h 5.344079 5.344078 v 0.37871 0.37871 H 8.470884 3.126805 Z"
       id="path8555"
       inkscape:connector-curvature="0" />
    <path
       style="fill:#ffffff;stroke-width:0.0047712;stroke-miterlimit:4;stroke-dasharray:none"
       d="m 14.319915,281.9737 v -0.37871 h 0.61015 0.610151 v 0.37871 0.37871 h -0.610151 -0.61015 z"
       id="path8557"
       inkscape:connector-curvature="0" />
    <path
       style="fill:#ffffff;stroke-width:0.0047712;stroke-miterlimit:4;stroke-dasharray:none"
       d="m 14.319915,283.19401 v -0.37871 h 0.61015 0.610151 v 0.37871 0.37871 h -0.610151 -0.61015 z"
       id="path8559"
       inkscape:connector-curvature="0" />
    <path
       style="fill:#ffffff;stroke-width:0.0047712;stroke-miterlimit:4;stroke-dasharray:none"
       d="m 14.319915,284.45639 v -0.37872 h 0.61015 0.610151 v 0.37872 0.37871 h -0.610151 -0.61015 z"
       id="path8561"
       inkscape:connector-curvature="0" />
    <path
       style="fill:#ffffff;stroke-width:0.0047712;stroke-miterlimit:4;stroke-dasharray:none"
       d="m 14.319915,285.65565 v -0.35768 h 0.61015 0.610151 v 0.35768 0.35767 h -0.610151 -0.61015 z"
       id="path8563"
       inkscape:connector-curvature="0" />
    <path
       style="fill:#ffffff;stroke-width:0.0047712;stroke-miterlimit:4;stroke-dasharray:none"
       d="m 14.319915,286.89699 v -0.37872 h 0.61015 0.610151 v 0.37872 0.37871 h -0.610151 -0.61015 z"
       id="path8565"
       inkscape:connector-curvature="0" />
    <path
       style="fill:#ffffff;stroke-width:0.0047712;stroke-miterlimit:4;stroke-dasharray:none"
       d="m 14.319915,288.11729 v -0.37872 h 0.61015 0.610151 v 0.37872 0.37871 h -0.610151 -0.61015 z"
       id="path8567"
       inkscape:connector-curvature="0" />
    <path
       style="fill:#ffffff;stroke-width:0.0047712;stroke-miterlimit:4;stroke-dasharray:none"
       d="m 14.319915,289.3376 v -0.37872 h 0.61015 0.610151 v 0.37872 0.37871 h -0.610151 -0.61015 z"
       id="path8569"
       inkscape:connector-curvature="0" />
    <path
       style="fill:#ffffff;stroke-width:0.0047712;stroke-miterlimit:4;stroke-dasharray:none"
       d="m 14.319915,290.59997 v -0.37871 h 0.61015 0.610151 v 0.37871 0.37872 h -0.610151 -0.61015 z"
       id="path8571"
       inkscape:connector-curvature="0" />
  </g>
</svg>
