<?xml version="1.0" encoding="UTF-8" standalone="no"?>
<!-- Created with Inkscape (http://www.inkscape.org/) -->

<svg
   xmlns:dc="http://purl.org/dc/elements/1.1/"
   xmlns:cc="http://creativecommons.org/ns#"
   xmlns:rdf="http://www.w3.org/1999/02/22-rdf-syntax-ns#"
   xmlns:svg="http://www.w3.org/2000/svg"
   xmlns="http://www.w3.org/2000/svg"
   xmlns:sodipodi="http://sodipodi.sourceforge.net/DTD/sodipodi-0.dtd"
   xmlns:inkscape="http://www.inkscape.org/namespaces/inkscape"
   width="64"
   height="64"
   viewBox="0 0 16.933333 16.933334"
   version="1.1"
   id="svg8"
   inkscape:version="0.92.5 (2060ec1f9f, 2020-04-08)"
   sodipodi:docname="is_fit.svg">
  <defs
     id="defs2" />
  <sodipodi:namedview
     id="base"
     pagecolor="#ffffff"
     bordercolor="#666666"
     borderopacity="1.0"
     inkscape:pageopacity="0.0"
     inkscape:pageshadow="2"
     inkscape:zoom="22.4"
     inkscape:cx="35.12586"
     inkscape:cy="9.9145091"
     inkscape:document-units="mm"
     inkscape:current-layer="layer1"
     showgrid="false"
     units="px"
     inkscape:window-width="1208"
     inkscape:window-height="987"
     inkscape:window-x="1992"
     inkscape:window-y="0"
     inkscape:window-maximized="1" />
  <metadata
     id="metadata5">
    <rdf:RDF>
      <cc:Work
         rdf:about="">
        <dc:format>image/svg+xml</dc:format>
        <dc:type
           rdf:resource="http://purl.org/dc/dcmitype/StillImage" />
        <dc:title />
      </cc:Work>
    </rdf:RDF>
  </metadata>
  <g
     inkscape:label="Layer 1"
     inkscape:groupmode="layer"
     id="layer1"
     transform="translate(0,-280.06665)">
    <ellipse
       style="fill:#ffffff;stroke-width:0.00271013;stroke-miterlimit:4;stroke-dasharray:none"
       id="path14381"
       cx="8.0279598"
       cy="289.65515"
       rx="0.91749161"
       ry="0.98992509" />
    <path
       style="fill:none;stroke:#000000;stroke-width:0.00271013;stroke-linecap:butt;stroke-linejoin:miter;stroke-miterlimit:4;stroke-dasharray:none;stroke-opacity:1"
       d="m 4.7475037,293.16672 -0.5219303,0.91022"
       id="path14383"
       inkscape:connector-curvature="0" />
    <path
       style="fill:#ffffff;stroke-width:0.00273764;stroke-miterlimit:4;stroke-dasharray:none"
       d="m 2.0038955,294.037 c -0.2265303,-0.0141 -0.2922821,-0.0278 -0.4104563,-0.0856 -0.174697,-0.0853 -0.368372,-0.27564 -0.4554763,-0.44753 -0.095475,-0.18841 -0.1051273,-0.39109 -0.106545,-2.23768 l -0.00132,-1.59957 0.6217235,-1.5e-4 c 0.3419471,-7e-5 0.660632,-0.011 0.7081866,-0.0242 0.1496935,-0.0416 0.1640272,-0.10819 0.095619,-0.44443 -0.071864,-0.35321 0.1211141,-0.71829 0.4600816,-0.87041 0.1335111,-0.06 0.1698159,-0.0658 0.345062,-0.0562 0.5409621,0.0298 0.8384387,0.47593 0.7023459,1.05323 -0.032281,0.13687 -0.032149,0.16116 0.00132,0.23177 l 0.037428,0.0789 0.2705987,0.0156 c 0.1488257,0.009 0.4688799,0.0157 0.7112309,0.0157 l 0.4406365,1.2e-4 v 0.59154 0.59154 H 5.2706892 c -0.3613407,0 -0.6397126,0.11303 -0.8867123,0.36003 -0.555243,0.55524 -0.4575088,1.41599 0.2132863,1.87841 l 0.1266364,0.0873 -0.082231,0.14696 c -0.04523,0.0808 -0.1570571,0.27737 -0.2485013,0.43672 l -0.1662649,0.28974 -0.9767131,0.003 c -0.5371928,0.002 -1.0980972,-0.005 -1.2464523,-0.0144 z"
       id="path14385"
       inkscape:connector-curvature="0" />
    <path
       style="fill:#ffffff;stroke-width:0.00273764;stroke-miterlimit:4;stroke-dasharray:none"
       d="m 6.9954145,296.15337 c -0.010905,-0.0287 -0.076688,-0.20432 -0.1462087,-0.39023 -0.1523848,-0.40752 -0.2571201,-0.64352 -0.2967618,-0.66872 -0.071665,-0.0455 -0.1977973,-0.0177 -0.3415765,0.0756 -0.1808031,0.11725 -0.3298598,0.15619 -0.5400628,0.1411 -0.5330405,-0.0383 -0.8586611,-0.61159 -0.6289643,-1.10744 0.117511,-0.25367 0.3084079,-0.38692 0.6357514,-0.44376 0.2839508,-0.0494 0.357275,-0.1217 0.3008186,-0.29698 -0.015964,-0.0496 -0.1240238,-0.35091 -0.240109,-0.66962 -0.2497006,-0.68553 -0.260396,-0.72521 -0.2003533,-0.74307 0.023905,-0.008 0.2280348,-0.0837 0.4536004,-0.17015 l 0.4101203,-0.15721 0.057797,0.16097 c 0.072349,0.20151 0.1564335,0.32483 0.3290714,0.48262 0.2270745,0.20753 0.504853,0.31646 0.8099241,0.31759 0.3047707,0.002 0.5927429,-0.11194 0.8112337,-0.31859 0.2452991,-0.23199 0.355064,-0.47339 0.3834157,-0.84322 0.013174,-0.17198 0.00692,-0.2309 -0.042704,-0.39925 l -0.058176,-0.19748 0.4003059,-0.16933 c 0.2201656,-0.0931 0.4193889,-0.17658 0.442717,-0.18544 0.033888,-0.0128 0.053895,0.01 0.099466,0.1133 0.1389859,0.31521 1.0186224,2.68823 1.1443384,3.08711 0.06048,0.19189 0.08288,0.33802 0.05182,0.33802 -0.01269,0 -0.183141,-0.15225 -0.378757,-0.33836 -0.418889,-0.39851 -0.4983543,-0.44536 -0.7540489,-0.44454 -0.2162095,7.4e-4 -0.3525514,0.0545 -0.4921991,0.19413 -0.1396485,0.13965 -0.1934227,0.27598 -0.1941206,0.49219 -8.454e-4,0.26201 0.046216,0.34079 0.4600737,0.77013 0.3311688,0.34356 0.3479321,0.36549 0.2947291,0.38568 -0.1407215,0.0534 -2.3260945,0.87752 -2.5265882,0.95277 l -0.2247369,0.0843 z"
       id="path14389"
       inkscape:connector-curvature="0" />
    <rect
       style="fill:#ffffff;stroke-width:0.00271013;stroke-miterlimit:4;stroke-dasharray:none"
       id="rect14393"
       width="2.6833827"
       height="0.48307142"
       x="9.5732126"
       y="296.00513" />
    <path
       style="fill:#ffffff;stroke-width:0.00273764;stroke-miterlimit:4;stroke-dasharray:none"
       d="m 1.0312392,287.62041 c 0.00132,-1.85087 0.010773,-2.04518 0.109712,-2.22694 0.09014,-0.16561 0.3003032,-0.35628 0.4994572,-0.4531 l 0.1613881,-0.0785 h 1.8113487 1.8113436 v 0.66869 0.66868 l 0.064878,0.0677 c 0.074887,0.0782 0.1136903,0.0816 0.3368139,0.0299 0.3747574,-0.0869 0.7456641,0.0811 0.9141754,0.41419 0.059393,0.11739 0.069776,0.16651 0.070452,0.33338 8.839e-4,0.161 -0.010295,0.21962 -0.061864,0.33059 -0.1667008,0.35884 -0.5311565,0.51954 -0.9657162,0.4258 -0.1781295,-0.0384 -0.2857304,-0.015 -0.3226808,0.0705 -0.010684,0.0247 -0.024428,0.34101 -0.030531,0.70288 l -0.011082,0.65793 H 4.9267361 4.4345367 l -4.191e-4,-0.13883 c -0.00132,-0.49184 -0.267506,-0.93308 -0.6809022,-1.1294 -0.4772899,-0.22666 -1.0052925,-0.13892 -1.3731019,0.22819 -0.2432621,0.24279 -0.3600275,0.52959 -0.3600275,0.88429 v 0.15575 H 1.525121 1.0301605 Z"
       id="path14387"
       inkscape:connector-curvature="0" />
    <path
       style="fill:#000000;stroke-width:0.02390185"
       d="m 6.7727365,296.62565 c -0.042532,-0.0377 -0.1142049,-0.19626 -0.238556,-0.52802 -0.097769,-0.26085 -0.1831936,-0.47969 -0.1898321,-0.48633 -0.00662,-0.007 -0.085429,0.0185 -0.1750852,0.0559 -0.1459381,0.0609 -0.1905432,0.068 -0.4259277,0.0676 -0.2815126,-4.3e-4 -0.4217063,-0.0371 -0.6474939,-0.16942 -0.134253,-0.0787 -0.3536198,-0.31661 -0.428925,-0.46523 -0.231738,-0.4573 -0.1492839,-1.0167 0.2039998,-1.38394 0.1470595,-0.15287 0.3333592,-0.26925 0.5171852,-0.32306 l 0.1228024,-0.036 -0.2501153,-0.66339 C 5.123226,292.3289 5.0093564,291.99511 5.007743,291.95201 c -0.00221,-0.0546 0.014876,-0.0954 0.055606,-0.13438 0.066121,-0.0633 1.4411884,-0.58797 1.5409374,-0.58797 0.1088268,0 0.1722233,0.0923 0.1905874,0.27749 0.031582,0.31828 0.2008159,0.57214 0.4662283,0.69927 0.1769514,0.0847 0.47866,0.0897 0.6505426,0.0107 0.1682983,-0.0774 0.3363815,-0.24713 0.4123238,-0.41634 0.097912,-0.21819 0.091483,-0.42963 -0.021506,-0.70675 -0.093599,-0.22958 -0.105367,-0.32836 -0.046831,-0.39303 0.054187,-0.0599 1.3811494,-0.64264 1.4611954,-0.64171 0.1419689,0.002 0.1264968,-0.0296 0.5572361,1.1245 l 0.272789,0.73088 0.878294,0.60443 c 0.48306,0.33245 0.92245,0.65234 0.976415,0.7109 0.05396,0.0585 0.13216,0.1783 0.173764,0.2661 l 0.07564,0.15966 0.0069,1.41617 0.0069,1.4162 h -0.204061 -0.204061 v -1.36267 c 0,-1.31893 -0.0018,-1.36597 -0.04845,-1.46575 -0.02665,-0.0567 -0.0885,-0.14143 -0.137437,-0.18829 -0.09317,-0.0892 -1.245139,-0.89104 -1.258553,-0.876 -0.0043,0.005 0.07183,0.21839 0.169057,0.47474 0.09723,0.25635 0.198094,0.54609 0.224144,0.64388 0.05632,0.21141 0.06113,0.48545 0.01178,0.67072 l -0.03503,0.13146 0.208215,0.20926 0.208217,0.20927 -0.137113,0.13711 -0.13711,0.1371 -0.711026,-0.71002 c -0.7667238,-0.76563 -0.8176011,-0.80484 -0.985489,-0.75963 -0.154086,0.0415 -0.2360343,0.18206 -0.204406,0.35064 0.013435,0.0716 0.08867,0.16088 0.4177663,0.49581 l 0.4013837,0.40851 0.02752,0.1912 c 0.06967,0.4842 0.393389,0.80474 0.893033,0.88423 l 0.08963,0.0143 v 0.19782 0.19781 l -0.161335,-0.0191 c -0.216507,-0.0256 -0.415006,-0.0997 -0.608093,-0.22717 -0.201583,-0.13308 -0.345515,-0.29251 -0.458965,-0.50841 -0.048845,-0.0929 -0.096339,-0.16901 -0.1055374,-0.16901 -0.045732,0 -0.5658519,0.21388 -0.5731145,0.23567 -0.012513,0.0376 0.2011303,0.24175 0.2826642,0.27018 0.038907,0.0136 0.070766,0.0364 0.070766,0.0505 0,0.0537 -0.1058958,0.35191 -0.1249834,0.35191 -0.043665,0 -0.1905488,-0.0729 -0.2744463,-0.13621 -0.119806,-0.0904 -0.211036,-0.19026 -0.2839416,-0.31077 l -0.060743,-0.1004 -0.1836598,0.0678 c -0.1010143,0.0373 -0.5574456,0.20887 -1.0142957,0.38125 -0.45685,0.17238 -0.8515248,0.31342 -0.8770598,0.31342 -0.025516,0 -0.073786,-0.0242 -0.1072259,-0.0537 z m 1.7671132,-0.98109 c 0.6441531,-0.24319 1.2028161,-0.45452 1.2414718,-0.46964 l 0.070282,-0.0275 -0.3608032,-0.36336 c -0.4305307,-0.43358 -0.4721047,-0.50137 -0.4720348,-0.7697 4.84e-5,-0.16073 0.010207,-0.21059 0.063779,-0.31287 0.065485,-0.12501 0.1841401,-0.24565 0.3010846,-0.30612 0.1683414,-0.0871 0.4579493,-0.0879 0.6298579,-0.002 0.04399,0.0221 0.247864,0.20671 0.453047,0.41044 0.4094,0.40649 0.414735,0.40838 0.377052,0.13283 -0.02172,-0.15873 -1.2160843,-3.38015 -1.2584646,-3.39428 -0.017401,-0.006 -0.8815009,0.36134 -0.9057044,0.38482 -0.00223,0.002 0.023373,0.0844 0.056646,0.183 0.054018,0.16006 0.05906,0.20485 0.047193,0.41828 -0.014919,0.26821 -0.06371,0.42116 -0.1996991,0.62603 -0.1699862,0.2561 -0.4286106,0.42829 -0.75342,0.50165 -0.5630465,0.12714 -1.2055107,-0.24731 -1.3738043,-0.80073 -0.022685,-0.0746 -0.04301,-0.13871 -0.045113,-0.14232 -0.00603,-0.0104 -0.9044177,0.33312 -0.9283608,0.35497 -0.012302,0.0112 0.086737,0.3079 0.2324969,0.69632 0.1396745,0.3722 0.260832,0.71114 0.2692464,0.75321 0.012736,0.0636 0.00346,0.088 -0.053422,0.14517 -0.058958,0.059 -0.093285,0.0707 -0.2418355,0.0832 -0.2038219,0.0171 -0.4173612,0.11789 -0.5360112,0.25302 -0.2069139,0.23567 -0.2630439,0.59506 -0.1354523,0.86729 0.08064,0.17206 0.2274591,0.31879 0.3992375,0.39901 0.1104055,0.0516 0.1699378,0.0631 0.326811,0.0633 0.214718,2.8e-4 0.3340004,-0.0399 0.5107511,-0.17215 0.1145755,-0.0857 0.2220632,-0.10151 0.3033349,-0.0446 0.031759,0.0223 0.1177647,0.21962 0.2489727,0.57133 l 0.2004621,0.53735 0.1806031,-0.067 c 0.099331,-0.0368 0.7076363,-0.26596 1.3517932,-0.50914 z m -6.6805665,-1.1887 c -0.5397709,-0.0637 -1.00461237,-0.44371 -1.17357296,-0.9595 l -0.0573705,-0.17514 v -3.87209 c 0,-3.72128 0.001765,-3.87723 0.0447522,-4.00357 0.17111584,-0.50269 0.56634426,-0.86538 1.05473536,-0.96792 0.2505117,-0.0526 7.5643401,-0.0527 7.8159072,-1.8e-4 0.2568459,0.0537 0.4976175,0.18643 0.6932775,0.38224 0.194325,0.19447 0.303941,0.38591 0.370941,0.64789 0.04509,0.17633 0.04722,0.27081 0.04722,2.10598 v 1.92136 l -0.05867,0.0586 -0.05868,0.0587 H 9.891387 9.2449534 v 0.10852 0.10852 l -0.1969605,-0.007 -0.1969559,-0.007 -0.015872,-0.10756 c -0.00872,-0.0591 -0.027655,-0.13784 -0.042051,-0.17484 -0.040521,-0.10407 -0.031451,-0.17102 0.032405,-0.23996 l 0.058614,-0.0633 h 0.6829178 0.6829172 l -0.0065,-1.83574 -0.0065,-1.83573 -0.08905,-0.18016 c -0.108879,-0.22028 -0.2678908,-0.37636 -0.4912007,-0.48214 l -0.1607038,-0.0761 -1.8349425,-0.007 -1.8349463,-0.007 0.00647,0.50668 0.00647,0.50668 0.1673113,-0.005 c 0.4032899,-0.0118 0.8026361,0.19698 1.0288694,0.53782 0.530022,0.7985 -0.050385,1.86341 -1.0114082,1.85569 l -0.1976621,-0.002 0.00647,0.50546 0.00647,0.50545 0.6797418,0.007 c 0.6058028,0.006 0.6847457,0.0109 0.7257742,0.0478 0.078201,0.0704 0.089643,0.13635 0.047451,0.27346 -0.02142,0.0696 -0.039347,0.2018 -0.039825,0.29382 -8.839e-4,0.19282 0.067364,0.37088 0.200768,0.52283 0.08419,0.0959 0.2949038,0.22948 0.3625359,0.22986 0.022244,8e-5 0.046555,0.0101 0.054041,0.0223 0.018147,0.0294 -0.060612,0.38428 -0.085294,0.38428 -0.010641,0 -0.078724,-0.0223 -0.1513296,-0.0494 -0.4795887,-0.17945 -0.776996,-0.60984 -0.7796131,-1.12825 l -8.839e-4,-0.20962 -0.5066022,0.007 -0.5066068,0.007 -0.00633,0.77562 c -0.00618,0.75757 -0.0075,0.77692 -0.057944,0.8306 -0.062172,0.0662 -0.1476352,0.0701 -0.3572052,0.0164 -0.636908,-0.16317 -1.1884861,0.50407 -0.9095127,1.10023 0.071739,0.15329 0.2044711,0.30299 0.3232778,0.36459 0.078345,0.0406 0.076466,0.0651 -0.02142,0.27895 l -0.062304,0.13609 -0.099631,-0.0542 c -0.054797,-0.0298 -0.1703306,-0.12412 -0.2567363,-0.20958 -0.6472108,-0.64002 -0.3770525,-1.71114 0.5036316,-1.9968 0.086807,-0.0281 0.2025431,-0.0423 0.3410051,-0.0416 l 0.2095965,7.4e-4 -0.00639,-0.60062 -0.00639,-0.60061 -0.705107,-0.0129 c -0.3878046,-0.008 -0.7075145,-0.0151 -0.7104632,-0.0179 -0.00309,-0.003 -0.022898,-0.039 -0.04437,-0.0805 -0.036333,-0.0703 -0.036032,-0.0862 0.00434,-0.23305 0.1332279,-0.48403 -0.088203,-0.91507 -0.5371318,-1.04558 -0.2639639,-0.0767 -0.5470382,-0.008 -0.7563816,0.18575 -0.2334954,0.21523 -0.3165915,0.55099 -0.2133172,0.86191 0.044443,0.13382 0.032759,0.21211 -0.042091,0.28183 -0.049716,0.0463 -0.081978,0.0485 -0.7287178,0.0485 H 1.022888 l 2.707e-4,1.78666 c 2.705e-4,1.902 -0.00132,1.87298 0.1164734,2.1039 0.065907,0.1292 0.2570803,0.32209 0.3871545,0.39065 0.24102,0.12704 0.2153981,0.12475 1.4978934,0.13439 l 1.2010618,0.009 v 0.20177 0.20175 l -1.1054607,-0.003 c -0.6080008,-0.002 -1.1753745,-0.0114 -1.2608207,-0.0214 z m 0.167312,-5.39678 c 0,-0.67323 0.530052,-1.20978 1.1950946,-1.20974 0.4126329,3e-5 0.7707581,0.19274 1.0021475,0.53924 0.1316617,0.19718 0.1929426,0.40575 0.1929426,0.65673 v 0.20064 h 0.5138917 0.5138865 v -0.67703 c 0,-0.67184 4.192e-4,-0.67741 0.053782,-0.72545 0.084024,-0.0756 0.1191295,-0.0789 0.3076535,-0.0281 0.2231317,0.06 0.3867265,0.0453 0.5874078,-0.0525 0.1809119,-0.0882 0.3217336,-0.24139 0.3911804,-0.42549 0.070628,-0.18722 0.057113,-0.46572 -0.030928,-0.63691 -0.1364465,-0.26534 -0.3795255,-0.42176 -0.6807537,-0.43801 -0.1172977,-0.007 -0.2083662,0.003 -0.2851024,0.0291 -0.1546708,0.0527 -0.2159953,0.0483 -0.2845869,-0.0202 l -0.058672,-0.0586 v -0.683 -0.683 l -1.8344667,0.007 -1.8344668,0.007 -0.1606991,0.0761 c -0.1848775,0.0876 -0.3746444,0.25451 -0.4571683,0.40216 -0.1399628,0.25043 -0.135042,0.17315 -0.135042,2.11932 v 1.78838 h 0.5019396 0.5019396 z"
       id="path14377"
       inkscape:connector-curvature="0" />
    <ellipse
       style="fill:#ffffff;stroke-width:0.01113857;stroke-miterlimit:4;stroke-dasharray:none"
       id="path14510"
       cx="12.099022"
       cy="284.88196"
       rx="3.6964417"
       ry="3.7212505" />
    <path
       style="fill:#000000;stroke-width:0.01593677"
       d="m 11.696438,288.93732 c -0.9764,-0.1009 -1.8133912,-0.49748 -2.5029433,-1.1859 -0.6327997,-0.63177 -1.0196445,-1.39356 -1.1575238,-2.27945 -0.049735,-0.31952 -0.049735,-0.87574 0,-1.19526 0.1381826,-0.88785 0.522514,-1.64482 1.1575238,-2.27983 0.3512451,-0.35124 0.6573741,-0.57146 1.0845703,-0.78021 0.402613,-0.19674 0.760822,-0.30978 1.195256,-0.37722 0.297437,-0.0462 0.859919,-0.0498 1.147448,-0.008 0.537831,0.0791 1.025777,0.24393 1.458215,0.49234 0.284869,0.16364 0.345725,0.21339 0.389691,0.31863 0.05738,0.13727 0.0029,0.3184 -0.12191,0.40487 -0.05831,0.0403 -0.07965,0.0455 -0.186729,0.0455 -0.120475,0 -0.121437,-3.8e-4 -0.281784,-0.0996 -0.561641,-0.3474 -1.151125,-0.51453 -1.812098,-0.51372 -0.51862,7.3e-4 -0.9962,0.10706 -1.449598,0.3231 -1.0603056,0.50521 -1.7815431,1.51303 -1.923788,2.68823 -0.021021,0.17369 -0.021021,0.59208 0,0.76579 0.1594507,1.31735 1.0521583,2.42119 2.294486,2.83718 0.599786,0.20084 1.279951,0.23147 1.87926,0.0847 1.398308,-0.34252 2.418738,-1.50487 2.584833,-2.94427 0.02361,-0.20459 0.0098,-0.72118 -0.02429,-0.91031 -0.0142,-0.0788 -0.04452,-0.2174 -0.0673,-0.3078 -0.02973,-0.1179 -0.03842,-0.18319 -0.03077,-0.23108 0.04354,-0.27231 0.359481,-0.38423 0.560778,-0.19869 0.07515,0.0693 0.09404,0.11509 0.15643,0.379 0.07392,0.31275 0.09539,0.52023 0.09483,0.91636 -6.32e-4,0.42134 -0.03051,0.66432 -0.126349,1.02655 -0.07513,0.28399 -0.145387,0.47043 -0.285745,0.75836 -0.208635,0.42799 -0.488139,0.80954 -0.842835,1.15052 -0.313113,0.30101 -0.630859,0.52303 -1.022227,0.71427 -0.401511,0.19619 -0.76834,0.31196 -1.190341,0.37568 -0.245595,0.0371 -0.755464,0.0525 -0.97706,0.0296 z m 0.25586,-3.06683 c -0.04889,-0.0175 -0.225239,-0.18473 -0.792926,-0.7523 -0.406505,-0.40643 -0.74161,-0.75428 -0.756134,-0.78487 -0.01435,-0.0302 -0.02661,-0.0919 -0.02726,-0.13699 -0.0033,-0.22468 0.210026,-0.38551 0.431928,-0.32573 0.06944,0.0187 0.125313,0.0697 0.669603,0.61137 l 0.593838,0.59097 1.772772,-1.77208 c 1.253449,-1.25295 1.790131,-1.77924 1.832024,-1.79659 0.183483,-0.0758 0.409356,0.0313 0.459668,0.21818 0.02071,0.0769 0.01066,0.18334 -0.02357,0.24766 -0.01272,0.024 -0.889562,0.90896 -1.948537,1.96666 -1.670698,1.6687 -1.933846,1.92537 -1.98916,1.94021 -0.08407,0.0225 -0.145698,0.0207 -0.222242,-0.006 z"
       id="path14508"
       inkscape:connector-curvature="0" />
    <path
       style="fill:none;stroke:#000000;stroke-width:0.01;stroke-linecap:butt;stroke-linejoin:miter;stroke-opacity:1;stroke-miterlimit:4;stroke-dasharray:none"
       d="m 7.8426902,290.65233 c 0,0 0.087342,-0.70044 1.0083466,-0.79706"
       id="path16"
       inkscape:connector-curvature="0" />
    <path
       style="fill:#ffffff;stroke-width:0.00119309;stroke-miterlimit:4;stroke-dasharray:none"
       d="m 29.271414,39.83026 c -0.26888,-0.122056 -0.767938,-0.468282 -0.989089,-0.686192 -0.235937,-0.232478 -0.426973,-0.504102 -0.577571,-0.821219 -0.181572,-0.382338 -0.238126,-0.621829 -0.256976,-1.088217 -0.01889,-0.467264 0.01759,-0.813165 0.136279,-1.292502 0.04184,-0.168987 0.07608,-0.377375 0.07608,-0.463084 0,-0.31452 -0.211165,-0.582685 -0.510479,-0.648271 -0.208956,-0.04579 -2.050637,-0.09259 -3.735318,-0.09492 -0.69448,-9.63e-4 -1.278577,-0.01219 -1.297993,-0.02494 -0.02493,-0.01638 -0.0421,-0.578096 -0.05847,-1.913019 l -0.02317,-1.889826 0.374148,0.02223 c 0.606456,0.03603 1.294371,-0.04773 1.833816,-0.223268 1.018543,-0.331444 1.926105,-1.066372 2.484264,-2.011714 0.468108,-0.792825 0.69926,-1.793085 0.618184,-2.675051 -0.188317,-2.048553 -1.67295,-3.671953 -3.741367,-4.091069 -0.217466,-0.04406 -0.429306,-0.05759 -0.903144,-0.05767 L 22.08157,21.871421 22.0584,19.98299 c -0.01275,-1.038637 -0.01828,-1.892372 -0.01231,-1.89719 0.006,-0.0048 1.844736,-0.0019 4.086132,0.0064 l 4.075265,0.0152 0.02156,0.682434 c 0.03696,1.170092 0.163997,2.077479 0.443588,3.168537 0.607997,2.372604 1.669901,4.396899 3.282835,6.258029 0.432433,0.498976 1.355293,1.404801 1.849031,1.814899 0.800051,0.664523 1.601347,1.215936 2.435139,1.675744 l 0.469049,0.258665 v 1.206416 c 0,0.663529 0.0091,1.293731 0.02028,1.40045 l 0.02028,0.194034 h -2.589845 -2.589845 l -0.162167,0.177436 c -0.08919,0.09759 -0.185907,0.221886 -0.214923,0.276214 -0.0788,0.147542 -0.0666,0.431202 0.03157,0.7341 0.07128,0.219919 0.132042,0.500116 0.19841,0.914948 l 0.01571,0.09818 -0.180407,0.0212 c -1.084068,0.127411 -2.058506,0.578638 -2.709657,1.254744 -0.484057,0.502607 -0.695236,0.877738 -0.917144,1.629184 -0.01813,0.0614 -0.17047,0.04344 -0.359529,-0.04238 z"
       id="path823"
       inkscape:connector-curvature="0"
       transform="matrix(0.26458333,0,0,0.26458333,0,280.06665)" />
    <path
       style="fill:#ffffff;stroke-width:0.00119309;stroke-miterlimit:4;stroke-dasharray:none"
       d="m 29.227281,39.801678 c -0.501267,-0.240226 -1.020176,-0.668355 -1.296035,-1.069302 -0.156116,-0.226907 -0.343069,-0.642239 -0.413895,-0.919501 -0.120098,-0.470148 -0.113827,-1.071201 0.01729,-1.657281 0.136451,-0.609919 0.144645,-0.673952 0.106603,-0.833129 -0.05358,-0.224203 -0.271775,-0.442069 -0.488255,-0.487524 -0.231166,-0.04854 -1.042847,-0.07303 -3.170439,-0.09567 l -1.878252,-0.01999 -0.02043,-0.52086 c -0.01124,-0.286473 -0.02686,-1.140706 -0.03473,-1.898296 l -0.01429,-1.377436 0.602937,0.0013 c 0.914583,0.0019 1.454159,-0.110435 2.149733,-0.447612 1.280384,-0.620663 2.176215,-1.775118 2.483892,-3.200986 0.09249,-0.428624 0.100628,-1.28502 0.01619,-1.703316 -0.457341,-2.265515 -2.449366,-3.811057 -4.77733,-3.706562 l -0.414782,0.01862 -0.01862,-0.732392 c -0.01024,-0.402816 -0.0246,-1.263827 -0.0319,-1.913359 l -0.01328,-1.180966 1.299003,0.02083 c 0.714451,0.01146 2.558461,0.02085 4.0978,0.02087 l 2.798797,4.1e-5 0.0035,0.497185 c 0.01413,2.005827 0.478639,4.036165 1.373671,6.004222 1.105133,2.430043 3.07104,4.736242 5.415384,6.352769 0.363594,0.250714 1.162026,0.73205 1.475769,0.889671 l 0.228863,0.114977 v 1.404347 1.404346 h -2.575802 -2.575802 l -0.146875,0.160536 c -0.318311,0.347917 -0.351704,0.528524 -0.194269,1.050707 0.09005,0.298692 0.189134,0.782097 0.189346,0.923802 9.5e-5,0.05848 -0.0239,0.07028 -0.181411,0.08925 -0.312221,0.0376 -0.762817,0.144456 -1.094063,0.259455 -1.217177,0.422571 -2.087455,1.275186 -2.443077,2.393493 -0.101987,0.320713 -0.121662,0.327247 -0.475231,0.157804 z"
       id="path825"
       inkscape:connector-curvature="0"
       transform="matrix(0.26458333,0,0,0.26458333,0,280.06665)" />
    <path
       style="fill:none;stroke:#000000;stroke-width:0.01;stroke-linecap:butt;stroke-linejoin:miter;stroke-opacity:1;stroke-miterlimit:4;stroke-dasharray:none"
       d="m 9.5732125,296.48819 2.6834305,-6e-5"
       id="path19"
       inkscape:connector-curvature="0" />
    <path
       style="fill:#ffffff;stroke-width:0.00168729;stroke-miterlimit:4;stroke-dasharray:none"
       d="m 42.554431,61.270187 v -0.752803 l -0.345982,-0.05543 c -1.615041,-0.25875 -2.790679,-1.229241 -3.22142,-2.659284 -0.05151,-0.17101 -0.130695,-0.556004 -0.175966,-0.855543 L 38.72875,56.40251 37.576352,55.228375 c -1.297771,-1.322249 -1.761407,-1.834762 -1.873524,-2.07103 -0.09812,-0.206775 -0.09974,-0.614769 -0.0034,-0.846085 0.171939,-0.412656 0.612399,-0.677505 1.055867,-0.634894 0.435401,0.04184 0.750309,0.319013 3.883305,3.418017 l 2.169031,2.145498 0.531281,-0.532669 0.53128,-0.532668 -0.790255,-0.792295 -0.790256,-0.792294 0.08906,-0.334821 c 0.217658,-0.818339 0.209538,-1.842551 -0.02142,-2.701877 -0.109664,-0.408025 -0.436334,-1.342532 -1.091232,-3.1217 -0.198367,-0.538905 -0.351374,-0.989121 -0.340015,-1.00048 0.04792,-0.04792 2.984999,1.974261 4.386049,3.019786 0.350116,0.261272 0.675653,0.646965 0.818366,0.969593 0.148292,0.335237 0.170666,1.113323 0.172334,5.99316 l 0.0016,4.609375 h -1.875 -1.875 z"
       id="path826"
       inkscape:connector-curvature="0"
       transform="matrix(0.26458333,0,0,0.26458333,0,280.06665)" />
  </g>
</svg>
