<?xml version="1.0" encoding="UTF-8" standalone="no"?>
<!-- Created with Inkscape (http://www.inkscape.org/) -->

<svg
   xmlns:dc="http://purl.org/dc/elements/1.1/"
   xmlns:cc="http://creativecommons.org/ns#"
   xmlns:rdf="http://www.w3.org/1999/02/22-rdf-syntax-ns#"
   xmlns:svg="http://www.w3.org/2000/svg"
   xmlns="http://www.w3.org/2000/svg"
   xmlns:sodipodi="http://sodipodi.sourceforge.net/DTD/sodipodi-0.dtd"
   xmlns:inkscape="http://www.inkscape.org/namespaces/inkscape"
   width="64"
   height="64"
   viewBox="0 0 16.933333 16.933334"
   version="1.1"
   id="svg8"
   inkscape:version="0.92.5 (2060ec1f9f, 2020-04-08)"
   sodipodi:docname="resident_not_ok_64x64.svg">
  <defs
     id="defs2" />
  <sodipodi:namedview
     id="base"
     pagecolor="#ffffff"
     bordercolor="#666666"
     borderopacity="1.0"
     inkscape:pageopacity="0.0"
     inkscape:pageshadow="2"
     inkscape:zoom="3.959798"
     inkscape:cx="66.465973"
     inkscape:cy="-9.8571149"
     inkscape:document-units="mm"
     inkscape:current-layer="layer1"
     showgrid="false"
     units="px"
     inkscape:window-width="1208"
     inkscape:window-height="987"
     inkscape:window-x="1992"
     inkscape:window-y="0"
     inkscape:window-maximized="1" />
  <metadata
     id="metadata5">
    <rdf:RDF>
      <cc:Work
         rdf:about="">
        <dc:format>image/svg+xml</dc:format>
        <dc:type
           rdf:resource="http://purl.org/dc/dcmitype/StillImage" />
        <dc:title />
      </cc:Work>
    </rdf:RDF>
  </metadata>
  <g
     inkscape:label="Layer 1"
     inkscape:groupmode="layer"
     id="layer1"
     transform="translate(0,-280.06665)">
    <rect
       style="fill:#ffffff;stroke-width:0.00347126;stroke-miterlimit:4;stroke-dasharray:none"
       id="rect14264"
       width="8.6165142"
       height="0.72128898"
       x="4.0873728"
       y="295.7204" />
    <path
       style="fill:#000000;stroke-width:0.03061452"
       d="m 3.9438714,296.51012 c -0.069137,-0.0559 -0.072709,-0.0782 -0.082351,-0.51278 -0.014432,-0.65048 0.057523,-0.93782 0.3056138,-1.22038 0.1913533,-0.21795 0.3325127,-0.28307 1.3580562,-0.6266 0.5473572,-0.18335 1.0346856,-0.36148 1.082952,-0.39585 0.161344,-0.11489 0.187149,-0.21996 0.187149,-0.76205 v -0.49012 l -0.1721556,-0.17878 c -0.313493,-0.32557 -0.5269641,-0.69211 -0.6696929,-1.14988 -0.079974,-0.25652 -0.088052,-0.26889 -0.2162537,-0.33095 -0.286905,-0.13888 -0.4478423,-0.46448 -0.3819801,-0.77281 0.045153,-0.21136 0.1527855,-0.36822 0.319849,-0.46612 l 0.1363332,-0.0799 0.011412,-0.8632 c 0.013485,-1.02038 0.023861,-1.06704 0.2984985,-1.34196 0.1326583,-0.1328 0.2131996,-0.18546 0.3491171,-0.22832 0.1487807,-0.0469 0.1881539,-0.0752 0.2493646,-0.17944 0.1033959,-0.17604 0.3402309,-0.3976 0.5216367,-0.48802 0.2599655,-0.12958 0.4828998,-0.1454 1.8848198,-0.1338 1.507554,0.0125 1.485682,0.009 1.773673,0.2968 0.286101,0.2861 0.284111,0.27465 0.296765,1.70722 l 0.01081,1.23043 0.136573,0.08 c 0.16729,0.098 0.274921,0.25483 0.320088,0.46627 0.06505,0.3045 -0.105819,0.65269 -0.380678,0.77574 -0.113096,0.0507 -0.12296,0.0661 -0.176707,0.27839 -0.111247,0.43924 -0.366287,0.88141 -0.694677,1.20441 l -0.186751,0.18369 -6.37e-4,0.4852 c -7.05e-4,0.53692 0.02526,0.64234 0.186514,0.75716 0.04826,0.0343 0.535596,0.2125 1.082953,0.39585 1.025543,0.34352 1.166702,0.40865 1.358057,0.6266 0.248089,0.28256 0.320048,0.5699 0.305612,1.22037 -0.0097,0.43463 -0.01321,0.45687 -0.08236,0.51279 -0.09367,0.0757 -0.190433,0.0741 -0.290972,-0.004 l -0.08066,-0.0635 v -0.46674 c 0,-0.53117 -0.0362,-0.70355 -0.185769,-0.88438 -0.111924,-0.13534 -0.225487,-0.19696 -0.575834,-0.31251 l -0.256464,-0.0846 -0.07918,0.10331 c -0.259815,0.33902 -0.728847,0.76152 -0.845404,0.76152 -0.110674,0 -0.230989,-0.113 -0.230989,-0.21691 0,-0.0741 0.05947,-0.1484 0.336759,-0.42061 0.185218,-0.18182 0.336761,-0.34404 0.336761,-0.36049 0,-0.0165 -0.112387,-0.0667 -0.249734,-0.11175 l -0.249733,-0.082 -0.180795,0.16738 c -0.373354,0.34565 -0.8490001,0.60464 -1.3287557,0.72351 -0.3831416,0.095 -0.9869812,0.095 -1.3701217,0 C 7.344828,295.13944 6.8691821,294.88045 6.495827,294.5348 l -0.1807941,-0.16738 -0.249733,0.082 c -0.1373539,0.0451 -0.249734,0.0958 -0.249734,0.11286 0,0.0542 0.5280378,0.55192 0.7306432,0.68873 0.9317415,0.62913 2.0481816,0.77881 3.1084536,0.41673 0.3142534,-0.10736 0.3892603,-0.10781 0.4762573,-0.003 0.05822,0.0702 0.05272,0.21864 -0.0107,0.28873 -0.06258,0.0692 -0.5102017,0.22204 -0.8758355,0.29916 -0.3590354,0.0757 -1.109861,0.0758 -1.4694981,1.1e-4 -0.6070672,-0.12769 -1.1366405,-0.36309 -1.5982122,-0.71041 -0.2450048,-0.18435 -0.6001818,-0.53052 -0.7641101,-0.74473 l -0.079062,-0.10331 -0.2870716,0.0957 c -0.3397972,0.11337 -0.4514835,0.17676 -0.5584561,0.31701 -0.144983,0.19006 -0.1725263,0.32603 -0.1725263,0.85167 v 0.48376 l -0.080662,0.0635 c -0.100534,0.0791 -0.1973129,0.0808 -0.2909707,0.004 z m 4.9993907,-1.66927 c 0.4329999,-0.0846 0.7563965,-0.23039 1.1045559,-0.49778 l 0.175774,-0.13499 -0.163091,-0.15923 c -0.2338822,-0.22834 -0.2956077,-0.40882 -0.2956077,-0.86433 0,-0.193 -0.00518,-0.35091 -0.011502,-0.35091 -0.0063,0 -0.091094,0.0351 -0.1883758,0.0782 -0.60588,0.26795 -1.3690515,0.2825 -2.0043719,0.0382 -0.092604,-0.0356 -0.1814678,-0.0763 -0.1974638,-0.0905 -0.015997,-0.0142 -0.046989,-0.0258 -0.068878,-0.0258 -0.030338,0 -0.039802,0.0834 -0.039802,0.35091 0,0.4546 -0.06187,0.63613 -0.2940621,0.86282 l -0.1615468,0.15772 0.1742296,0.13656 c 0.5717057,0.44806 1.2947412,0.63129 1.9701391,0.49923 z m 0.1226465,-2.23819 c 0.4211,-0.10917 0.7591071,-0.31674 1.0866744,-0.66749 0.31324,-0.33541 0.483498,-0.68964 0.561327,-1.16785 0.03504,-0.21527 0.08723,-0.27825 0.248574,-0.29989 0.146415,-0.0196 0.23069,-0.0876 0.256903,-0.20682 0.03456,-0.15732 -0.07347,-0.28731 -0.266418,-0.32064 -0.187977,-0.0325 -0.191523,-0.046 -0.20841,-0.79239 l -0.01531,-0.67655 -1.5999384,-0.008 c -1.8641396,-0.009 -1.7813891,-0.0204 -1.8602147,0.25076 -0.052825,0.18171 -0.1073389,0.23169 -0.2527544,0.23169 -0.2541896,0 -0.2699975,-0.40474 -0.02706,-0.69283 0.1815095,-0.21524 0.1220157,-0.20862 2.0255546,-0.22562 l 1.7144129,-0.0153 0.0094,-0.38268 c 0.01036,-0.41979 -0.01675,-0.56176 -0.133542,-0.70055 -0.157553,-0.18725 -0.194944,-0.19126 -1.682848,-0.18114 -1.3129352,0.009 -1.3493389,0.0112 -1.4687624,0.0754 -0.2452549,0.13259 -0.3951744,0.34884 -0.4314609,0.62238 -0.025944,0.19555 -0.095713,0.27577 -0.2398362,0.27577 -0.075457,0 -0.1218365,-0.0216 -0.1651326,-0.0765 -0.074128,-0.0942 -0.099678,-0.0952 -0.1823589,-0.007 -0.1503814,0.16007 -0.1598705,0.23271 -0.1598705,1.22402 0,0.79028 -0.0071,0.93799 -0.047653,0.99595 -0.026215,0.0374 -0.064101,0.0682 -0.084188,0.0683 -0.2212568,10e-4 -0.381294,0.16076 -0.3416975,0.34105 0.022982,0.10455 0.1691668,0.20955 0.292175,0.20972 0.1181155,2.4e-4 0.1988789,0.11296 0.241223,0.33688 0.149524,0.79068 0.7154875,1.46663 1.4533847,1.73585 0.365716,0.13342 0.8859456,0.15531 1.2778337,0.0538 z m -0.9141467,-1.17931 c -0.1561539,-0.059 -0.1974954,-0.26592 -0.07522,-0.37657 0.051417,-0.0465 0.4560922,-0.1113 0.6954889,-0.1113 0.2138498,0 0.3220324,0.1978 0.1913016,0.34978 -0.061071,0.071 -0.1063926,0.087 -0.3160367,0.11096 -0.1346097,0.0154 -0.2860737,0.0336 -0.3365877,0.0403 -0.050515,0.007 -0.1220382,7e-4 -0.1589421,-0.0132 z m -1.0379334,-1.31766 c -0.045299,-0.05 -0.058322,-0.11085 -0.058322,-0.27231 0,-0.24902 0.057072,-0.33677 0.2190465,-0.33677 0.1670376,0 0.2248641,0.0848 0.2248641,0.32995 0,0.26419 -0.048814,0.34359 -0.2112935,0.34359 -0.079028,0 -0.1345589,-0.0205 -0.1742972,-0.0645 z m 2.4568161,0.009 c -0.037233,-0.0411 -0.050673,-0.1142 -0.050673,-0.27554 0,-0.25806 0.05519,-0.342 0.224864,-0.342 0.1619783,0 0.2190466,0.0878 0.2190466,0.33676 0,0.16147 -0.013023,0.22226 -0.058322,0.27232 -0.075108,0.0831 -0.2631661,0.0878 -0.3349225,0.009 z m -6.2654158,-3.91016 c -0.8114978,-0.17302 -1.5271487,-0.7383 -1.8814707,-1.48615 -0.4005639,-0.84544 -0.325332,-1.84333 0.1979461,-2.62558 0.9536902,-1.42571 2.9678586,-1.60336 4.1522868,-0.36626 1.0014148,1.04595 0.9979596,2.68354 -0.00789,3.71589 -0.3817592,0.39184 -0.885995,0.66519 -1.413046,0.76604 -0.2822906,0.054 -0.784974,0.0521 -1.0478765,-0.003 z m 1.0786587,-0.47105 c 0.547276,-0.13998 1.0272085,-0.48423 1.3235755,-0.94937 0.2532693,-0.3975 0.3519223,-0.7371 0.3526208,-1.2138 9.024e-4,-0.61609 -0.2023092,-1.10502 -0.6416336,-1.54375 -0.295477,-0.2951 -0.5477188,-0.45448 -0.903948,-0.57115 -0.3177593,-0.10409 -0.8864424,-0.11858 -1.2245801,-0.0312 -1.0912625,0.28187 -1.8160375,1.38397 -1.6391594,2.49255 0.1456183,0.91266 0.8655154,1.66667 1.7613081,1.84478 0.2420881,0.0481 0.7289298,0.0341 0.9718167,-0.028 z m -1.4321176,-1.27121 c -0.1381797,-0.13818 -0.092874,-0.23404 0.2895209,-0.61252 l 0.2772063,-0.27439 -0.3248768,-0.32968 c -0.3081667,-0.31272 -0.3238529,-0.33481 -0.3049458,-0.42934 0.025123,-0.12563 0.06996,-0.17046 0.1955835,-0.19559 0.09453,-0.0189 0.1166196,-0.003 0.4291201,0.30473 l 0.3294575,0.32465 0.3052184,-0.30484 c 0.3522366,-0.35179 0.4479718,-0.39562 0.5787207,-0.26487 0.1432784,0.14329 0.1134584,0.21612 -0.2275791,0.55588 -0.1683805,0.16775 -0.3061455,0.31824 -0.3061455,0.33445 0,0.0162 0.137765,0.16943 0.3061455,0.34054 0.3375958,0.34306 0.3738812,0.42935 0.2352893,0.55957 -0.1368514,0.12856 -0.2157592,0.0945 -0.5552724,-0.23959 -0.171109,-0.16838 -0.3243554,-0.30615 -0.3405496,-0.30615 -0.016188,0 -0.1666918,0.13777 -0.3344393,0.30615 -0.3377467,0.33902 -0.4129786,0.37048 -0.5524537,0.231 z m 9.6898231,1.74578 c -0.927924,-0.19372 -1.702843,-0.87649 -2.005825,-1.76729 -0.158957,-0.46736 -0.177351,-1.12278 -0.04454,-1.58714 0.314247,-1.09874 1.296671,-1.8855 2.434114,-1.94931 0.945799,-0.053 1.842274,0.39606 2.372353,1.18849 0.723468,1.08152 0.567155,2.51756 -0.371259,3.41073 -0.328602,0.31275 -0.71506,0.53727 -1.13406,0.65883 -0.287611,0.0835 -0.953431,0.10782 -1.250782,0.0457 z m 1.216156,-0.51525 c 1.089412,-0.37886 1.714673,-1.44986 1.492978,-2.5573 -0.05777,-0.28857 -0.263659,-0.72357 -0.456286,-0.96402 -0.269359,-0.33623 -0.738434,-0.63714 -1.164966,-0.74731 -0.338139,-0.0873 -0.906822,-0.0729 -1.224582,0.0312 -0.355857,0.11656 -0.608292,0.27599 -0.905647,0.57198 -0.21322,0.21225 -0.289205,0.31441 -0.40313,0.54198 -0.192008,0.38356 -0.248364,0.65395 -0.230493,1.1059 0.01116,0.28242 0.03154,0.40819 0.09754,0.60194 0.243169,0.71389 0.825145,1.25766 1.558728,1.45636 0.321324,0.087 0.9257,0.0671 1.23586,-0.0408 z m -1.514041,-1.53085 c -0.411503,-0.4125 -0.442841,-0.47748 -0.299424,-0.62089 0.132918,-0.13292 0.238139,-0.0893 0.551576,0.22867 l 0.213424,0.21652 0.634341,-0.63172 c 0.617933,-0.61539 0.636951,-0.63122 0.735216,-0.61156 0.127308,0.0254 0.171615,0.07 0.197203,0.19785 0.01996,0.0997 0.0058,0.11618 -0.727107,0.84915 -0.64313,0.64314 -0.760232,0.74744 -0.839054,0.74744 -0.07639,0 -0.153815,-0.0624 -0.466175,-0.37546 z"
       id="path14262"
       inkscape:connector-curvature="0" />
    <path
       style="fill:#ffffff;stroke-width:0.00350649;stroke-miterlimit:4;stroke-dasharray:none"
       d="m 8.1781099,292.62673 c -0.2920409,-0.0458 -0.5544557,-0.1462 -0.7987552,-0.30567 -0.528805,-0.34521 -0.8665528,-0.83267 -1.0250444,-1.47942 -0.068259,-0.2785 -0.1324127,-0.36403 -0.2923102,-0.38958 -0.1384309,-0.0222 -0.2506297,-0.13723 -0.2506297,-0.25708 0,-0.10208 0.1242237,-0.21786 0.2611675,-0.24356 0.1899046,-0.0356 0.1933395,-0.0529 0.2152455,-1.08188 0.010928,-0.51093 0.033357,-0.97816 0.049962,-1.03829 0.016605,-0.0602 0.064327,-0.14141 0.1060659,-0.1806 l 0.075874,-0.0713 0.096637,0.0813 c 0.053151,0.0448 0.1309876,0.0813 0.172978,0.0813 0.1096933,0 0.217359,-0.12286 0.2435605,-0.27795 0.047845,-0.28323 0.2023723,-0.50912 0.4264692,-0.62344 0.1154975,-0.059 0.1959306,-0.0638 1.3172556,-0.0788 0.7444324,-0.0102 1.2873734,-0.003 1.4414964,0.0162 0.223916,0.029 0.256534,0.0422 0.34565,0.1395 0.132672,0.14476 0.164396,0.28037 0.1646,0.70362 l 1.84e-4,0.35845 -0.62624,0.0202 c -0.344431,0.0112 -1.0298135,0.0204 -1.5230731,0.0206 -0.9600036,3.4e-4 -1.3701692,0.0305 -1.4904251,0.10916 -0.1096146,0.0718 -0.2512415,0.31145 -0.2740803,0.46375 -0.033481,0.22328 0.043203,0.35468 0.2070183,0.35468 0.1441233,0 0.202922,-0.0487 0.2577349,-0.2138 0.027871,-0.0839 0.0729,-0.17101 0.1000833,-0.19358 0.039396,-0.0327 0.383198,-0.0428 1.6953886,-0.0498 l 1.6459684,-0.009 0.01486,0.6582 c 0.0082,0.362 0.02502,0.68183 0.03744,0.71071 0.01241,0.0288 0.0893,0.0747 0.170863,0.10188 0.178761,0.0594 0.25865,0.14028 0.25865,0.26192 0,0.12737 -0.05516,0.18013 -0.246396,0.23573 -0.09139,0.0266 -0.179513,0.0733 -0.195847,0.10376 -0.01634,0.0306 -0.05225,0.1652 -0.07982,0.2993 -0.07023,0.3417 -0.202277,0.64048 -0.394746,0.89323 -0.3094944,0.40642 -0.7661453,0.72111 -1.2118945,0.83513 -0.2376405,0.0608 -0.659253,0.082 -0.8958829,0.0448 z m 0.5941063,-1.23875 c 0.1785172,-0.0353 0.2553894,-0.11018 0.2553894,-0.24885 0,-0.12672 -0.1280102,-0.21184 -0.3186223,-0.21184 -0.2142271,0 -0.5483407,0.0593 -0.6323327,0.11221 -0.1061897,0.0669 -0.097583,0.26322 0.015468,0.35249 0.075614,0.0597 0.10904,0.065 0.3015222,0.0475 0.119063,-0.0112 0.289424,-0.034 0.3785802,-0.0516 z m -1.3354451,-1.24679 c 0.050943,-0.0373 0.060034,-0.0822 0.060034,-0.29652 0,-0.22819 -0.0071,-0.25835 -0.073012,-0.31175 -0.099273,-0.0803 -0.2084467,-0.0743 -0.2995023,0.0168 -0.065555,0.0656 -0.075908,0.10432 -0.075908,0.28406 0,0.17116 0.011953,0.22088 0.067244,0.27974 0.077338,0.0824 0.2285942,0.0953 0.3211458,0.0277 z m 2.453432,-0.0102 c 0.1442859,-0.11941 0.1085668,-0.56857 -0.050009,-0.62887 -0.1095244,-0.0417 -0.2487145,-0.007 -0.291391,0.073 -0.019219,0.036 -0.034326,0.16301 -0.033583,0.28245 0.00112,0.18565 0.011265,0.22518 0.069554,0.27238 0.086734,0.0702 0.2213087,0.0707 0.3054291,10e-4 z"
       id="path14266"
       inkscape:connector-curvature="0" />
    <path
       style="fill:#ffffff;stroke-width:0.00350649;stroke-miterlimit:4;stroke-dasharray:none"
       d="m 7.9297559,294.79616 c -0.291996,-0.0791 -0.537012,-0.19107 -0.7838891,-0.35826 -0.3634121,-0.2461 -0.3470555,-0.20701 -0.1665318,-0.3979 0.2167416,-0.22916 0.2593189,-0.34228 0.2753261,-0.73145 0.00733,-0.1786 0.019535,-0.35472 0.027094,-0.39136 l 0.013733,-0.0667 0.2088951,0.0873 c 0.5928579,0.24793 1.4528541,0.24869 2.0283214,0.002 0.082205,-0.0353 0.1622227,-0.0641 0.177821,-0.0641 0.015603,0 0.028818,0.087 0.029369,0.19328 0.00146,0.28688 0.046707,0.58711 0.1077782,0.71581 0.029719,0.0626 0.1177077,0.18469 0.1955302,0.27126 l 0.141495,0.15736 -0.09148,0.0746 c -0.2100809,0.17129 -0.5429114,0.35309 -0.818223,0.44697 -0.2638871,0.09 -0.3362856,0.10115 -0.7112821,0.11006 -0.335932,0.008 -0.4597828,-0.001 -0.6339696,-0.0487 z"
       id="path14268"
       inkscape:connector-curvature="0" />
    <path
       style="fill:#ffffff;stroke-width:0.02863424;stroke-miterlimit:4;stroke-dasharray:none"
       d="M 11.817973,21.068171 C 10.144466,20.470957 8.8467505,19.445499 7.7865383,17.882522 5.3712472,14.321871 5.8951818,10.122813 9.1228199,7.1729338 10.904978,5.5441417 12.400495,5.0319551 15.003143,5.159033 c 2.386969,0.116547 3.884904,0.8080871 5.507223,2.5424774 1.633445,1.7462853 2.201169,3.1714266 2.204942,5.5350036 0.0027,1.671235 -0.10728,2.157279 -0.811655,3.588068 -1.391747,2.82704 -3.847211,4.45369 -6.980713,4.624451 -1.29012,0.07031 -2.129075,-0.0326 -3.104967,-0.380862 z m 1.476424,-5.231826 1.166726,-1.149182 1.278166,1.149182 c 1.326992,1.19308 1.776739,1.359267 2.28987,0.846136 0.49629,-0.496289 0.361758,-0.839718 -0.862245,-2.201104 l -1.165292,-1.296084 1.165292,-1.245791 c 1.283626,-1.372301 1.348718,-1.553001 0.768445,-2.1332734 -0.580272,-0.5802727 -0.760972,-0.515181 -2.133273,0.7684454 l -1.245791,1.165292 -1.269559,-1.141443 c -1.349886,-1.2136638 -2.11829,-1.3329979 -2.421985,-0.376138 -0.121089,0.381516 0.136047,0.807082 1.045642,1.730563 l 1.206218,1.224632 -1.180275,1.261809 c -1.225364,1.310013 -1.389812,1.73051 -0.877229,2.243092 0.527598,0.527599 1.035951,0.335169 2.23529,-0.846136 z"
       id="path14310"
       inkscape:connector-curvature="0"
       transform="matrix(0.26458333,0,0,0.26458333,0,280.06665)" />
    <path
       style="fill:#ffffff;stroke-width:0.00954475;stroke-miterlimit:4;stroke-dasharray:none"
       d="m 16.402347,59.727606 c 0.08609,-0.52086 0.157783,-1.193993 0.159312,-1.495853 0.0042,-0.834426 1.152601,-2.022439 2.345346,-2.426298 l 1.066698,-0.361181 1.908113,1.813336 c 1.117356,1.061856 2.573098,2.145633 3.512735,2.615175 l 1.604622,0.801839 h -5.376679 -5.37668 z"
       id="path14"
       inkscape:connector-curvature="0"
       transform="matrix(0.26458333,0,0,0.26458333,0,280.06665)" />
    <path
       style="fill:#ffffff;stroke-width:0.00954475;stroke-miterlimit:4;stroke-dasharray:none"
       d="m 37.525103,60.484828 c 0.998628,-0.49887 1.333731,-1.469654 0.603972,-1.749689 -0.242883,-0.0932 -1.188402,0.01315 -2.101152,0.236341 -3.810714,0.931816 -6.232051,0.752012 -9.29377,-0.690135 -1.625227,-0.765523 -4.361338,-2.914186 -4.361338,-3.424951 0,-0.106302 0.31484,-0.30303 0.699645,-0.437174 0.610654,-0.212874 0.826469,-0.134267 1.696711,0.617998 4.083744,3.530118 10.476765,3.613274 14.478052,0.188321 0.93172,-0.797518 1.18652,-0.896055 1.947758,-0.753246 0.481695,0.09037 0.875808,0.249134 0.875808,0.352817 0,0.103683 -0.511389,0.690405 -1.136421,1.303828 -1.233833,1.210915 -1.475904,2.13106 -0.631172,2.399167 0.609441,0.193429 1.523196,-0.414613 2.951225,-1.963841 l 1.026029,-1.113111 1.312965,0.48978 c 1.697732,0.633311 2.283512,1.539392 2.284807,3.534135 l 9.45e-4,1.452094 -5.618974,-3.92e-4 c -5.518285,-3.79e-4 -5.603135,-0.0083 -4.73509,-0.441942 z"
       id="path16"
       inkscape:connector-curvature="0"
       transform="matrix(0.26458333,0,0,0.26458333,0,280.06665)" />
  </g>
</svg>
