<?xml version="1.0" encoding="UTF-8" standalone="no"?>
<!-- Created with Inkscape (http://www.inkscape.org/) -->

<svg
   xmlns:dc="http://purl.org/dc/elements/1.1/"
   xmlns:cc="http://creativecommons.org/ns#"
   xmlns:rdf="http://www.w3.org/1999/02/22-rdf-syntax-ns#"
   xmlns:svg="http://www.w3.org/2000/svg"
   xmlns="http://www.w3.org/2000/svg"
   xmlns:sodipodi="http://sodipodi.sourceforge.net/DTD/sodipodi-0.dtd"
   xmlns:inkscape="http://www.inkscape.org/namespaces/inkscape"
   width="64"
   height="64"
   viewBox="0 0 16.933333 16.933334"
   version="1.1"
   id="svg8"
   inkscape:version="0.92.5 (2060ec1f9f, 2020-04-08)"
   sodipodi:docname="knife_64x64.svg">
  <defs
     id="defs2" />
  <sodipodi:namedview
     id="base"
     pagecolor="#ffffff"
     bordercolor="#666666"
     borderopacity="1.0"
     inkscape:pageopacity="0.0"
     inkscape:pageshadow="2"
     inkscape:zoom="3.959798"
     inkscape:cx="7.8142925"
     inkscape:cy="6.4053991"
     inkscape:document-units="mm"
     inkscape:current-layer="layer1"
     showgrid="false"
     units="px"
     inkscape:window-width="1208"
     inkscape:window-height="987"
     inkscape:window-x="1992"
     inkscape:window-y="0"
     inkscape:window-maximized="1" />
  <metadata
     id="metadata5">
    <rdf:RDF>
      <cc:Work
         rdf:about="">
        <dc:format>image/svg+xml</dc:format>
        <dc:type
           rdf:resource="http://purl.org/dc/dcmitype/StillImage" />
        <dc:title></dc:title>
      </cc:Work>
    </rdf:RDF>
  </metadata>
  <g
     inkscape:label="Layer 1"
     inkscape:groupmode="layer"
     id="layer1"
     transform="translate(0,-280.06665)">
    <path
       style="fill:#000000;stroke-width:0.03161303"
       d="m 8.5684636,296.68046 c -0.3437741,-0.21352 -0.5552946,-0.80422 -0.6692622,-1.86904 -0.070841,-0.66185 -0.040211,-1.50596 0.099224,-2.73475 0.061159,-0.539 0.1113049,-1.00371 0.1114267,-1.03269 1.551e-4,-0.0339 -0.047108,-0.0685 -0.1321568,-0.0968 -0.072808,-0.0243 -0.1380784,-0.0612 -0.1450432,-0.0821 -0.011308,-0.0339 0.026026,-0.055 0.2616159,-0.14741 0.053137,-0.0208 0.040811,-0.0317 -0.077203,-0.0676 -0.077236,-0.0236 -0.1554787,-0.0581 -0.1738714,-0.0768 -0.047299,-0.048 0.052128,-0.11478 0.2111303,-0.14164 l 0.1280957,-0.0216 -0.018771,-0.30468 c -0.039786,-0.64584 -0.1924541,-1.07162 -0.6469418,-1.80427 -0.4541909,-0.73218 -0.5502771,-1.04299 -0.5473992,-1.77064 0.00767,-1.93472 0.7323931,-4.11113 1.8068701,-5.42608 0.1802183,-0.22055 0.4921031,-0.51888 0.5424521,-0.51888 0.01328,0 0.02775,2.20811 0.03216,4.90691 l 0.008,4.9069 0.142259,0.0494 c 0.188212,0.0655 0.183033,0.12895 -0.01581,0.19387 -0.130538,0.0426 -0.147054,0.0558 -0.09484,0.0758 0.317756,0.12157 0.33529,0.156 0.116573,0.2289 -0.07281,0.0243 -0.132379,0.0595 -0.132379,0.0783 0,0.0188 0.05255,0.48351 0.116778,1.0327 0.106977,0.91471 0.116881,1.07148 0.117999,1.86787 9.17e-4,0.67841 -0.01107,0.94922 -0.05472,1.23291 -0.09926,0.64514 -0.270067,1.1488 -0.4647836,1.37057 -0.1846637,0.21032 -0.3491371,0.25793 -0.5214081,0.15094 z"
       id="path12585"
       inkscape:connector-curvature="0"
       sodipodi:nodetypes="cssccccccccssscsscscccssccscc" />
  </g>
</svg>
