<?xml version="1.0" encoding="UTF-8" standalone="no"?>
<!-- Created with Inkscape (http://www.inkscape.org/) -->

<svg
   xmlns:dc="http://purl.org/dc/elements/1.1/"
   xmlns:cc="http://creativecommons.org/ns#"
   xmlns:rdf="http://www.w3.org/1999/02/22-rdf-syntax-ns#"
   xmlns:svg="http://www.w3.org/2000/svg"
   xmlns="http://www.w3.org/2000/svg"
   xmlns:sodipodi="http://sodipodi.sourceforge.net/DTD/sodipodi-0.dtd"
   xmlns:inkscape="http://www.inkscape.org/namespaces/inkscape"
   width="64"
   height="64"
   viewBox="0 0 16.933333 16.933334"
   version="1.1"
   id="svg8"
   inkscape:version="0.92.5 (2060ec1f9f, 2020-04-08)"
   sodipodi:docname="leg_64x64.svg">
  <defs
     id="defs2" />
  <sodipodi:namedview
     id="base"
     pagecolor="#ffffff"
     bordercolor="#666666"
     borderopacity="1.0"
     inkscape:pageopacity="0.0"
     inkscape:pageshadow="2"
     inkscape:zoom="5.6"
     inkscape:cx="63.166424"
     inkscape:cy="36.58904"
     inkscape:document-units="mm"
     inkscape:current-layer="layer1"
     showgrid="false"
     units="px"
     inkscape:window-width="1208"
     inkscape:window-height="987"
     inkscape:window-x="1992"
     inkscape:window-y="0"
     inkscape:window-maximized="1" />
  <metadata
     id="metadata5">
    <rdf:RDF>
      <cc:Work
         rdf:about="">
        <dc:format>image/svg+xml</dc:format>
        <dc:type
           rdf:resource="http://purl.org/dc/dcmitype/StillImage" />
        <dc:title></dc:title>
      </cc:Work>
    </rdf:RDF>
  </metadata>
  <g
     inkscape:label="Layer 1"
     inkscape:groupmode="layer"
     id="layer1"
     transform="translate(0,-280.06665)">
    <path
       style="fill:#000000;stroke-width:0.02787484"
       d="m 2.0520211,295.90551 c -0.084772,-0.0341 -0.1119796,-0.15644 -0.088844,-0.39947 0.012403,-0.13032 0.038104,-0.59601 0.057106,-1.03487 0.064101,-1.48048 -0.027443,-3.06154 -0.3393121,-5.8604 -0.1007436,-0.90412 -0.1073851,-1.00587 -0.069435,-1.0638 0.079077,-0.12068 0.2813876,-0.11436 0.3484202,0.0109 0.028634,0.0535 0.1766286,1.32119 0.2933282,2.51257 0.1700775,1.73633 0.232365,3.205 0.1852754,4.36866 -0.01723,0.42584 -0.03917,0.8401 -0.048759,0.92059 l -0.017429,0.14634 h 1.3258268 1.3258276 l 0.088411,-0.3744 c 0.095327,-0.4037 0.1351394,-0.47113 0.2781833,-0.47113 0.1112266,0 0.1950529,0.0806 0.1954144,0.18783 1.69e-4,0.0475 -0.044858,0.2807 -0.1000426,0.51834 -0.080916,0.34844 -0.1136402,0.44418 -0.1690943,0.49477 l -0.068759,0.0627 -1.5803428,-0.002 c -0.8691883,-0.002 -1.5962855,-0.009 -1.6157723,-0.0165 z m 3.4051937,-1.77487 c -0.097544,-0.0839 -0.096483,-0.11315 0.026488,-0.72997 0.3727388,-1.86963 0.5079479,-3.29776 0.4080434,-4.30986 -0.069927,-0.70845 -0.2635482,-1.63182 -0.4612895,-2.19991 -0.1096784,-0.3151 -0.1115535,-0.33243 -0.050015,-0.46211 0.085756,-0.18072 0.136312,-0.19134 0.9021733,-0.18951 0.9874325,0.002 1.4617407,0.083 3.3449808,0.56852 1.7764652,0.45802 2.1816632,0.5245 3.3534672,0.55012 0.707646,0.0155 0.780973,0.0216 0.843214,0.0706 0.09628,0.0757 0.09372,0.22056 -0.0053,0.29842 -0.06788,0.0534 -0.109602,0.0578 -0.550527,0.0572 -1.242779,-0.002 -1.841526,-0.0898 -3.5293773,-0.52061 -2.0834294,-0.53176 -2.584029,-0.62086 -3.4913229,-0.62142 -0.4888844,-3.1e-4 -0.4696982,-0.01 -0.3956619,0.19832 0.1363826,0.38359 0.3287374,1.25442 0.4210025,1.90597 0.07673,0.54183 0.069545,1.7639 -0.014504,2.46692 -0.075819,0.63417 -0.2177269,1.51515 -0.3672427,2.27988 -0.098756,0.50511 -0.1216271,0.58512 -0.182924,0.64001 -0.089321,0.0799 -0.1560766,0.0793 -0.2512249,-0.002 z m 8.9879292,-6.41893 c -0.08526,-0.0959 -0.08986,-0.18981 -0.01365,-0.27848 0.06824,-0.0794 0.07411,-0.0807 0.406222,-0.0899 l 0.336976,-0.009 v -2.60098 c 0,-2.4247 -0.0032,-2.60221 -0.0475,-2.61921 -0.09665,-0.0371 -4.03297,-0.0508 -5.2626545,-0.0184 -2.0479932,0.0541 -2.6592366,0.099 -4.0557896,0.29793 -1.1011976,0.1569 -2.6713792,0.4132 -2.9793977,0.48634 -0.4651654,0.11043 -0.6937493,0.2698 -0.8304949,0.57901 -0.2738878,0.61931 -0.3178393,1.30719 -0.1733368,2.71286 0.051661,0.50252 0.058156,0.64554 0.03194,0.70308 -0.057224,0.1256 -0.2793612,0.13401 -0.3441028,0.013 -0.03557,-0.0665 -0.1155814,-0.74553 -0.1667394,-1.41517 -0.058877,-0.77064 0.00574,-1.45677 0.1839263,-1.95269 0.2096144,-0.58346 0.4320607,-0.80234 1.0056686,-0.98958 0.3159488,-0.10314 2.8333367,-0.51338 4.1784724,-0.68095 1.1193985,-0.13945 3.6970824,-0.21372 6.4251504,-0.18514 2.114632,0.0221 2.326633,0.0332 2.40198,0.12636 0.04869,0.0601 0.05101,0.19339 0.05101,2.92945 v 2.86647 l -0.06315,0.0734 c -0.06265,0.0729 -0.06705,0.0736 -0.550528,0.0888 -0.453023,0.0143 -0.490656,0.0117 -0.533982,-0.037 z M 2.5043061,286.07167 c -0.1321635,-0.13216 -0.07266,-0.25549 0.1796735,-0.37241 0.2668533,-0.12364 0.4365148,-0.26302 0.5371334,-0.44132 0.049766,-0.0882 0.1154992,-0.16452 0.1543984,-0.17931 0.1564049,-0.0594 0.3089854,0.0659 0.2767043,0.22725 -0.024284,0.12142 -0.1968619,0.36992 -0.3481786,0.50136 -0.1525672,0.13252 -0.5470454,0.33286 -0.6554232,0.33286 -0.043403,0 -0.1051734,-0.0293 -0.1443078,-0.0684 z m 10.3149579,-1.4288 c -0.630773,-0.0593 -2.173093,-0.35531 -2.24952,-0.43174 -0.07695,-0.077 -0.05825,-0.2373 0.03584,-0.30723 0.07183,-0.0534 0.07393,-0.0532 0.710809,0.0722 0.657505,0.1295 1.238482,0.22302 1.594407,0.25666 0.135939,0.0128 0.225747,0.037 0.271779,0.0732 0.09126,0.0718 0.09141,0.19716 3.27e-4,0.28824 -0.06948,0.0695 -0.09911,0.0734 -0.36364,0.0486 z"
       id="path387"
       inkscape:connector-curvature="0" />
    <path
       style="fill:#ffffff;stroke-width:0.00106423;stroke-miterlimit:4;stroke-dasharray:none"
       d="m 2.3955507,295.39786 c 0.00899,-0.0505 0.031051,-0.4149 0.049009,-0.80981 0.048407,-1.06433 0.010676,-2.29569 -0.1164741,-3.80131 -0.1115623,-1.32106 -0.3202553,-3.15475 -0.369519,-3.24679 -0.015342,-0.0287 -0.06413,-0.0647 -0.1084263,-0.0802 -0.083676,-0.0292 -0.083823,-0.0297 -0.1208761,-0.40392 -0.00353,-0.0353 0.024864,-0.0754 0.076049,-0.10768 l 0.081625,-0.0514 -0.017002,-0.30062 c -0.00935,-0.16533 -0.037708,-0.52869 -0.063021,-0.80745 -0.056606,-0.62346 -0.042734,-1.4663 0.029435,-1.78802 0.069097,-0.30803 0.197828,-0.62173 0.3078986,-0.75032 0.1234104,-0.14418 0.3645513,-0.27186 0.6496032,-0.34398 0.275317,-0.0696 1.4497222,-0.26689 2.6046002,-0.43744 2.1923692,-0.32379 3.0301816,-0.36825 6.9465398,-0.36864 2.207955,-2.3e-4 2.744018,0.006 2.773547,0.0363 0.02936,0.0293 0.03843,0.54533 0.04582,2.60802 l 0.0092,2.57143 -0.318956,0.0125 c -0.175426,0.006 -0.347316,0.028 -0.381977,0.0467 -0.06395,0.0346 -0.10941,0.14696 -0.09579,0.23666 0.0085,0.0559 -0.02851,0.0598 -0.301662,0.0312 -0.157939,-0.0166 -0.173078,-0.0239 -0.173078,-0.0845 0,-0.0366 -0.02415,-0.0905 -0.05367,-0.12005 -0.0632,-0.0632 -0.205704,-0.0775 -1.016333,-0.10194 -1.053358,-0.0317 -1.356337,-0.0833 -3.224073,-0.54781 -2.0515876,-0.51033 -2.2715813,-0.54664 -3.3226246,-0.54839 -0.8245101,-0.002 -0.8314257,9e-5 -0.9179039,0.1956 l -0.053792,0.1216 0.099519,0.31741 c 0.1287094,0.41052 0.2452783,0.87711 0.3335757,1.33522 0.270475,1.40328 0.2055681,2.64242 -0.2696607,5.14806 -0.099583,0.52506 -0.1117651,0.62796 -0.083565,0.70595 0.036922,0.1021 0.04086,0.21499 0.015018,0.43009 -0.014673,0.12213 -0.028171,0.14839 -0.083417,0.16225 -0.090746,0.0228 -0.1224323,0.0908 -0.2238606,0.48048 l -0.087945,0.33789 -1.3171022,0.007 -1.3171023,0.007 z m 0.5755844,-9.3703 c 0.271392,-0.13584 0.4657276,-0.30482 0.5918265,-0.51463 0.1187233,-0.19754 0.1252119,-0.31605 0.022161,-0.40469 -0.042013,-0.0361 -0.09931,-0.0657 -0.127331,-0.0657 -0.067598,0 -0.1909419,0.0992 -0.2393062,0.19255 -0.067481,0.13018 -0.2713934,0.30817 -0.476597,0.416 -0.2003182,0.10527 -0.328165,0.21449 -0.328165,0.28037 0,0.0198 0.032807,0.0749 0.072896,0.1226 0.1003071,0.11921 0.2048156,0.11349 0.4845157,-0.0265 z m 10.2329679,-1.43588 c 0.02772,-0.0342 0.05039,-0.10487 0.05039,-0.15701 0,-0.1414 -0.07907,-0.17698 -0.526237,-0.23678 -0.448265,-0.06 -0.72146,-0.10561 -1.44044,-0.24083 -0.284101,-0.0534 -0.547026,-0.0971 -0.584276,-0.0971 -0.105164,0 -0.180357,0.0945 -0.180357,0.2267 0,0.10497 0.0083,0.11756 0.104393,0.15769 0.193612,0.0809 1.502021,0.32959 2.176392,0.41369 0.195461,0.0244 0.347054,-7.4e-4 0.400138,-0.0662 z"
       id="path391"
       inkscape:connector-curvature="0" />
  </g>
</svg>
