<?xml version="1.0" encoding="UTF-8" standalone="no"?>
<svg
   xmlns:dc="http://purl.org/dc/elements/1.1/"
   xmlns:cc="http://creativecommons.org/ns#"
   xmlns:rdf="http://www.w3.org/1999/02/22-rdf-syntax-ns#"
   xmlns:svg="http://www.w3.org/2000/svg"
   xmlns="http://www.w3.org/2000/svg"
   xmlns:sodipodi="http://sodipodi.sourceforge.net/DTD/sodipodi-0.dtd"
   xmlns:inkscape="http://www.inkscape.org/namespaces/inkscape"
   width="64"
   height="64"
   viewBox="0 0 16.933333 16.933333"
   version="1.1"
   id="svg8"
   sodipodi:docname="light_friction_64x64.svg"
   inkscape:version="0.92.5 (2060ec1f9f, 2020-04-08)">
  <defs
     id="defs2" />
  <sodipodi:namedview
     id="base"
     pagecolor="#ffffff"
     bordercolor="#666666"
     borderopacity="1.0"
     inkscape:pageopacity="0.0"
     inkscape:pageshadow="2"
     inkscape:zoom="4"
     inkscape:cx="98.453057"
     inkscape:cy="48.936832"
     inkscape:document-units="mm"
     inkscape:current-layer="layer1"
     inkscape:document-rotation="0"
     showgrid="false"
     inkscape:snap-global="false"
     fit-margin-top="0"
     fit-margin-left="0"
     fit-margin-right="0"
     fit-margin-bottom="0"
     inkscape:window-width="1208"
     inkscape:window-height="967"
     inkscape:window-x="1992"
     inkscape:window-y="20"
     inkscape:window-maximized="0"
     units="px" />
  <metadata
     id="metadata5">
    <rdf:RDF>
      <cc:Work
         rdf:about="">
        <dc:format>image/svg+xml</dc:format>
        <dc:type
           rdf:resource="http://purl.org/dc/dcmitype/StillImage" />
        <dc:title />
      </cc:Work>
    </rdf:RDF>
  </metadata>
  <g
     inkscape:label="Calque 1"
     inkscape:groupmode="layer"
     id="layer1"
     transform="translate(-44.581036,-28.552681)">
    <text
       xml:space="preserve"
       style="font-style:normal;font-weight:normal;font-size:10.5833px;line-height:1.25;font-family:sans-serif;fill:#000000;fill-opacity:1;stroke:none;stroke-width:0.264583"
       x="51.724785"
       y="39.66518"
       id="text1411"><tspan
         sodipodi:role="line"
         id="tspan1409"
         x="51.724785"
         y="39.66518"
         style="stroke-width:0.264583" /></text>
    <path
       style="fill:#ffffff;stroke-width:2.12598;stroke-linecap:round;stroke-miterlimit:4;stroke-dasharray:none"
       d=""
       id="path1772"
       transform="matrix(0.26458333,0,0,0.26458333,44.581036,28.552681)" />
    <path
       id="path1926"
       style="fill:#000000;stroke-width:0.149354"
       transform="matrix(0.26458333,0,0,0.26458333,44.581036,28.552681)"
       d="m 34.308594,6.9785156 c -1.421533,-0.00814 -2.10531,0.2582004 -3.398438,1.3300782 -0.61525,0.5099829 -0.990965,0.9812199 -1.326172,1.6621093 -0.435772,0.8852409 -0.46313,1.0320699 -0.40039,2.1835939 0.08247,1.513644 0.219125,1.791988 1.93164,3.943359 1.244493,1.563402 2.12515,2.472521 2.732422,2.820313 0.231621,0.13265 0.178281,0.212628 -0.439453,0.65625 -0.387023,0.277939 -0.947549,0.887937 -1.246094,1.355469 -0.298545,0.467527 -3.193386,5.415387 -6.433593,10.99414 l -5.892578,10.142578 -0.904297,0.66211 c -1.671901,1.224604 -2.096347,1.47697 -2.640625,1.568359 L 15.75,44.388672 15.494141,43.609375 C 15.133657,42.50725 14.470866,41.613501 13.574219,41.023438 12.425333,40.267403 11.809272,40.169126 8.53125,40.224609 c -2.8267805,0.04784 -2.9216732,0.06007 -3.7539062,0.46875 -1.0563251,0.518725 -1.9458627,1.506659 -2.3632813,2.621094 -0.2618457,0.69891 -0.3086616,1.098294 -0.2675781,2.335938 0.042773,1.289072 0.1101139,1.616604 0.4863281,2.382812 0.3451465,0.702954 0.3903917,0.899733 0.2226563,0.951172 -0.1165153,0.03573 -0.5604057,0.421503 -0.9863282,0.855469 -0.8943269,0.911176 -1.24113766,1.827539 -1.24023435,3.269531 6.6898e-4,1.083972 0.36575986,1.789701 1.08593755,2.103516 0.4111559,0.179142 5.9741605,0.204947 37.6464842,0.177734 L 62.212738,55.525774 62.5,55.150391 V 54.203125 53.25 53.1875 H 60.59375 L 60.371094,52.705078 C 60.245912,52.435662 59.601065,51.789324 58.910156,51.240234 57.673805,50.257663 55.881191,48.084132 56.238281,48 c 0.08006,-0.01886 3.12945,0.310281 6.261719,0.658203 v -1.212891 -1.033203 c -2.134759,-0.237304 -4.766803,-0.53192 -4.867188,-0.533203 -0.256554,-0.0033 -0.270343,-0.196383 -0.236328,-3.326172 0.03829,-3.52179 -7.38e-4,-3.783333 -0.693359,-4.691406 -0.558777,-0.732593 -1.24338,-1.069757 -2.845703,-1.40039 -2.105677,-0.434457 -2.424596,-0.427074 -2.845703,0.0625 -0.325342,0.378258 -0.34961,0.533433 -0.34961,2.216796 v 1.810547 l -0.910156,-1.242187 c -0.785412,-1.072282 -0.889378,-1.289332 -0.757812,-1.578125 0.243825,-0.53514 3.318268,-6.107243 3.435547,-6.226563 0.10044,-0.102187 5.088516,1.79539 6.09375,2.31836 0.752915,0.391699 1.676257,1.555118 1.93164,2.433593 0.194457,0.668788 0.209151,1.255718 0.0918,3.896485 -0.10012,2.25185 0.28256,14.460547 0.4043,14.728515 0.316471,0.696454 1.480572,0.915294 1.826172,0.269532 0.243023,-0.454145 0.170996,-17.805759 -0.01367,-18.804688 -0.219942,-1.189772 -0.779082,-2.301933 -1.59961,-3.181641 -1.001366,-1.073601 -1.436645,-1.315809 -4.669921,-2.609374 -1.564827,-0.626049 -2.845703,-1.172967 -2.845703,-1.214844 0,-0.04189 0.30419,-0.681504 0.673828,-1.419922 0.74852,-1.495227 0.839913,-2.202505 0.40625,-3.132813 -0.387077,-0.830358 -8.60225,-10.074103 -9.40625,-10.583984 -1.091014,-0.691888 -2.398008,-0.860957 -3.855469,-0.498047 -0.259348,0.06458 -0.340781,-0.02659 -0.498047,-0.566406 C 40.743891,12.366934 40.309445,11.674653 39.113281,10.179688 36.965406,7.4952629 36.206208,6.9894763 34.308594,6.9785156 Z m -0.07813,2.2304688 c 0.548538,0 0.974961,0.091136 1.238281,0.2636718 0.637765,0.4178797 3.193694,3.7007498 3.363281,4.3203128 0.171179,0.625496 0.01041,1.594967 -0.304687,1.833984 -0.111183,0.08434 -0.614012,0.473091 -1.117188,0.863281 -1.578281,1.223872 -2.326265,0.98845 -4.185547,-1.3125 -1.76691,-2.186604 -1.858365,-2.345949 -1.851562,-3.197265 0.0073,-0.945555 0.308094,-1.466481 1.271484,-2.2011721 0.662344,-0.5051036 0.845426,-0.5703125 1.585938,-0.5703125 z m 8.544922,6.5117186 c 0.872335,-0.103248 1.645574,0.50849 3.177734,2.228516 l 1.572266,1.765625 -0.855469,0.607422 -0.855469,0.607422 -0.755859,-0.746094 c -0.851842,-0.841255 -1.479402,-0.979583 -2.013672,-0.445313 -0.554279,0.554287 -0.393435,1.077263 0.722656,2.347657 0.561763,0.639439 1.576384,1.991388 2.253906,3.005859 l 1.230469,1.845703 -1.228515,3.232422 c -0.676071,1.778472 -1.270537,3.273434 -1.320313,3.322266 -0.04981,0.04883 -0.314959,0.02103 -0.589844,-0.0625 -0.384264,-0.116761 -1.085424,-0.828147 -3.03125,-3.076172 -2.69568,-3.114335 -3.214579,-3.595704 -3.876953,-3.595704 -0.723575,0 -1.117466,0.292827 -2.222656,1.658204 l -1.072266,1.326172 -1.482422,-1.134766 c -0.814631,-0.624423 -1.480468,-1.151907 -1.480468,-1.173828 0,-0.06426 2.970922,-5.158163 3.195312,-5.478516 0.296168,-0.422838 6.912463,-5.502652 7.695313,-5.908203 0.344355,-0.178393 0.646721,-0.291756 0.9375,-0.326172 z m 6.228515,5.685547 1.837891,2.091797 c 1.010298,1.150031 1.857112,2.216032 1.882812,2.369141 0.02569,0.15312 -1.148821,2.464701 -2.611328,5.138671 -1.462514,2.673975 -2.706903,4.863282 -2.763672,4.863282 -0.05673,0 -0.246429,-0.202832 -0.421875,-0.449219 -0.379782,-0.533356 -0.491772,-0.114176 1.291016,-4.773438 0.769047,-2.009877 1.398438,-3.762701 1.398438,-3.894531 0,-0.13183 -0.538151,-1.061585 -1.195313,-2.066406 -0.657165,-1.004825 -1.195313,-1.877469 -1.195313,-1.939453 0,-0.06199 0.399817,-0.38924 0.888672,-0.726563 z m -11.939453,8.037109 c 0.199072,-0.0026 0.695035,0.508031 2.078125,2.09961 l 1.96875,2.265625 -0.640625,0.5625 c -0.383127,0.337247 -1.745673,2.221633 -3.388672,4.689453 -2.457271,3.690879 -2.785965,4.123737 -3.132812,4.109375 -0.55146,-0.02312 -7.099445,-0.899797 -7.16211,-0.958984 -0.0286,-0.02701 0.190732,-0.366815 0.486329,-0.753907 0.295581,-0.387099 0.537109,-0.79091 0.537109,-0.898437 0,-0.770706 -0.903416,-1.43558 -1.550781,-1.140625 -0.188916,0.08608 -0.741479,0.663323 -1.226563,1.283203 -0.795281,1.016285 -0.932937,1.128655 -1.404297,1.132812 -0.287508,0.0025 -0.614877,-0.05421 -0.726562,-0.125 -0.156631,-0.09924 0.588672,-1.491091 3.257812,-6.083984 1.90348,-3.275388 3.513167,-6.006287 3.576172,-6.070312 0.09097,-0.09243 2.033681,1.271553 2.609375,1.832031 0.07155,0.06965 -0.778039,1.244761 -1.904297,2.634765 -1.677758,2.070664 -2.033203,2.594501 -2.033203,2.994141 0,0.912317 1.137631,1.451424 1.755859,0.832031 0.143755,-0.144022 1.697519,-2.044122 3.455079,-4.220703 1.757556,-2.176581 3.276316,-4.044627 3.375,-4.152344 0.01801,-0.01966 0.04187,-0.03088 0.07031,-0.03125 z m 6.28125,6.16211 c 0.420726,0.01966 0.826542,0.140722 1.066406,0.353515 0.389488,0.345525 1.202736,1.438848 6.291016,8.460938 l 3.976563,5.488281 h -1.298829 l -1.300781,-0.002 -3.86914,-3.658203 c -3.419796,-3.232861 -3.927041,-3.658203 -4.355469,-3.658203 -0.482109,0 -0.819749,0.2804 -1.410157,1.175781 l -0.226562,0.34375 -2.501953,-0.267578 c -1.375941,-0.147024 -2.573215,-0.312233 -2.662109,-0.367188 -0.24409,-0.150856 4.536896,-7.242321 5.136718,-7.61914 0.298674,-0.187639 0.733571,-0.269658 1.154297,-0.25 z m 9.570313,2.93164 0.478515,0.09375 c 1.888638,0.377734 1.909832,0.426345 1.792969,4.087891 -0.08854,2.773209 -0.100914,2.857668 -0.404297,2.855469 -0.456896,-0.0033 -0.620101,-0.144119 -1.322265,-1.140625 l -0.632813,-0.898438 0.04492,-2.5 z m -43.9765629,3.90625 c 2.4880929,0.0023 2.7050179,0.0237 3.2597659,0.337891 0.881015,0.498977 1.268491,1.285875 1.271484,2.585938 0.0032,1.383756 -0.406306,2.211529 -1.335937,2.703124 -0.609321,0.322205 -0.815636,0.344316 -3.2773441,0.337891 C 5.915328,48.400814 5.4601421,48.280329 4.7851562,47.333984 4.4788255,46.904502 4.4375,46.674961 4.4375,45.416016 c 0,-1.32316 0.030249,-1.471123 0.4023438,-1.958985 0.7016314,-0.919876 1.0960944,-1.016434 4.0996093,-1.013672 z m 12.7460939,1.492188 c 0.611716,-0.0011 10.979072,1.25356 11.763672,1.423828 0.326589,0.07089 0.335937,0.125545 0.335937,1.9375 0,1.02525 -0.0167,1.862405 -0.03711,1.861328 -0.02053,-0.0011 -2.951098,-0.298859 -6.511719,-0.662109 -4.884967,-0.498369 -6.558908,-0.62 -6.822266,-0.5 -0.421024,0.191822 -0.732786,0.874754 -0.595703,1.30664 0.189646,0.597525 0.699105,0.755215 3.269532,1.009766 l 2.482421,0.246094 v 1.318359 1.316406 H 21.25976 16.949213 l -0.09766,-0.832031 c -0.1299,-1.105357 -0.67248,-2.131362 -1.519522,-2.876953 L 14.638672,48.873047 14.9375,48.455078 c 0.164349,-0.230804 0.414202,-0.771579 0.554688,-1.201172 l 0.255859,-0.78125 0.691406,-0.0039 c 0.90833,-0.0043 1.617851,-0.342485 3.238281,-1.542969 1.179621,-0.873921 1.416037,-0.989165 2.007813,-0.990234 z m 14.339844,1.791015 0.410156,0.0059 c 0.225898,0.0038 2.342123,0.227962 4.701172,0.498047 l 4.289062,0.490234 0.789063,0.728516 c 0.433878,0.400762 1.569012,1.472186 2.523437,2.378906 l 1.734375,1.648437 0.105469,0.857422 0.105469,0.859375 H 49.726562 48.767578 L 48.560547,52.5625 c -0.283964,-0.860425 -1.252112,-1.839867 -2.005859,-2.029297 -0.328578,-0.08257 -2.831168,-0.372594 -5.5625,-0.644531 L 36.025391,49.394531 V 47.560547 Z M 8.7675781,50.654297 c 3.6865439,0 4.2438559,0.03151 4.6953129,0.261719 0.674437,0.343903 1.057768,0.892725 1.160156,1.65625 l 0.08398,0.621093 H 8.7871094 2.8691406 v -0.5 c 0,-0.646635 0.5380556,-1.446143 1.1972656,-1.777343 0.4578293,-0.230174 1.0175423,-0.261719 4.7011719,-0.261719 z m 19.0429689,0.111328 0.708984,0.08789 c 0.390191,0.04813 4.440922,0.461748 9,0.919922 4.559055,0.458192 8.385569,0.886579 8.503907,0.951171 0.118299,0.06463 0.240933,0.196138 0.273437,0.292969 0.04462,0.133871 -2.161086,0.175781 -9.212891,0.175781 h -9.273437 v -1.21289 z m 26.847656,1.388672 1.904297,0.0059 0.595703,0.513672 0.597656,0.515625 -2.408203,0.002 c -2.373418,0.0022 -2.411294,-0.003 -2.5,-0.333984 -0.190972,-0.71252 -0.197928,-0.709172 1.810547,-0.703125 z"
       sodipodi:nodetypes="cscssssscccccccssccsscscccccccccsscccccsccscccssccccsssscscscscsscscccssscccccssccccssscccssssccssssssssccscccscscsssccscsssssssscscccccsccccscccccsccccsscscsscssccscscccccccccccccccsccccccccccccccsccccssccccscscccccsccccccccscc" />
    <path
       style="fill:#ffffff;stroke-width:1.5033;stroke-linecap:round;stroke-miterlimit:4;stroke-dasharray:none"
       d="M 6.4736572,48.270528 C 5.7655081,48.173874 5.2595648,47.878455 4.8661083,47.331883 L 4.5575942,46.90331 4.5285479,45.672578 c -0.015975,-0.676903 -0.00455,-1.361324 0.025396,-1.520936 0.082164,-0.437972 0.7038318,-1.167555 1.1839969,-1.389527 0.3925674,-0.181478 0.533202,-0.189834 3.1948764,-0.189834 3.0705678,0 2.9845228,-0.01382 3.6721308,0.589906 0.654686,0.574822 0.948716,1.671083 0.765056,2.852434 -0.165397,1.063872 -0.558078,1.637929 -1.431983,2.093402 -0.384173,0.200228 -0.474667,0.20784 -2.6516504,0.223039 -1.2396466,0.0087 -2.5053677,-0.01859 -2.8127136,-0.06053 z"
       id="path1935"
       transform="matrix(0.26458333,0,0,0.26458333,44.581036,28.552681)" />
    <path
       style="fill:#ffffff;stroke-width:1.5033;stroke-linecap:round;stroke-miterlimit:4;stroke-dasharray:none"
       d="m 2.9224098,52.778296 c 0,-0.47168 0.1753738,-0.869535 0.5813902,-1.318947 0.5187499,-0.574194 0.7147413,-0.639494 2.1567487,-0.718582 1.6491097,-0.09045 4.5476513,-0.09011 6.2050343,7.12e-4 1.184576,0.06492 1.333352,0.09207 1.708333,0.311827 0.481012,0.281892 0.888755,0.8709 0.971413,1.403262 0.03149,0.202819 0.07692,0.438367 0.10095,0.523441 0.0413,0.146202 -0.278767,0.154679 -5.8400878,0.154679 l -5.8837814,1e-6 z"
       id="path1937"
       transform="matrix(0.26458333,0,0,0.26458333,44.581036,28.552681)" />
    <path
       style="fill:#ffffff;stroke-width:1.5033;stroke-linecap:round;stroke-miterlimit:4;stroke-dasharray:none"
       d="m 16.932529,52.626456 c -0.145611,-1.313341 -0.658955,-2.333807 -1.620579,-3.221511 -0.300026,-0.276962 -0.545502,-0.524173 -0.545502,-0.549357 0,-0.02518 0.119466,-0.234168 0.265481,-0.464408 0.146014,-0.23024 0.371463,-0.744057 0.500998,-1.141814 l 0.235519,-0.723195 0.722159,-0.0379 c 0.920726,-0.04833 1.627907,-0.372308 3.043268,-1.394218 1.388631,-1.002611 1.601412,-1.104303 2.269227,-1.084513 1.126174,0.03337 11.460001,1.306025 11.715611,1.442823 0.103229,0.05525 0.166645,0.248487 0.207624,0.632664 0.07256,0.680227 0.02378,2.856921 -0.06602,2.946375 -0.03599,0.03585 -2.104278,-0.140364 -4.596195,-0.391586 -5.82377,-0.587123 -7.30555,-0.719237 -8.071851,-0.719677 -0.570874,-3.27e-4 -0.64488,0.02114 -0.8651,0.251005 -0.670399,0.699745 -0.436549,1.547493 0.503916,1.826781 0.399123,0.118527 2.502643,0.384198 4.233735,0.534714 l 0.68501,0.05956 v 1.271246 1.271247 H 21.269355 16.98888 Z"
       id="path1939"
       transform="matrix(0.26458333,0,0,0.26458333,44.581036,28.552681)" />
    <path
       style="fill:#ffffff;stroke-width:1.5033;stroke-linecap:round;stroke-miterlimit:4;stroke-dasharray:none"
       d="m 27.847924,51.98564 c 0,-0.631977 0.02427,-1.149048 0.05394,-1.149048 0.151268,0 11.750278,1.199437 14.61853,1.511681 2.473835,0.269308 3.370611,0.397991 3.535534,0.507332 0.21963,0.145613 0.217486,0.146841 -0.353554,0.202461 -0.315988,0.03078 -4.462507,0.06061 -9.214485,0.06629 l -8.639961,0.01033 z"
       id="path1941"
       transform="matrix(0.26458333,0,0,0.26458333,44.581036,28.552681)" />
    <path
       style="fill:#ffffff;stroke-width:1.5033;stroke-linecap:round;stroke-miterlimit:4;stroke-dasharray:none"
       d="M 48.627587,52.607942 C 48.321948,51.769697 47.473803,50.832655 46.774715,50.560863 46.459282,50.438228 44.293999,50.178006 40.266487,49.778707 38.273329,49.5811 36.513297,49.398397 36.355302,49.372701 L 36.06804,49.325981 V 47.56222 45.798458 l 0.419845,0.0023 c 0.230914,0.0012 2.322918,0.216236 4.648896,0.47775 4.009915,0.450842 4.241206,0.486504 4.463611,0.688229 0.129008,0.117013 1.273346,1.193051 2.542972,2.391196 l 2.308411,2.178447 0.06041,0.644491 c 0.03323,0.35447 0.08098,0.714096 0.106128,0.79917 0.04148,0.140352 -0.03971,0.15468 -0.876473,0.15468 h -0.922191 z"
       id="path1943"
       transform="matrix(0.26458333,0,0,0.26458333,44.581036,28.552681)" />
    <path
       style="fill:#ffffff;stroke-width:1.5033;stroke-linecap:round;stroke-miterlimit:4;stroke-dasharray:none"
       d="m 53.105787,53.073932 c -0.08458,-0.02214 -0.188634,-0.166679 -0.231225,-0.321203 -0.141661,-0.513965 -0.0435,-0.543208 1.912838,-0.569837 l 1.742543,-0.02372 0.53033,0.487599 0.53033,0.487599 -2.165515,-0.01009 c -1.191033,-0.0056 -2.234718,-0.02821 -2.319301,-0.05034 z"
       id="path1945"
       transform="matrix(0.26458333,0,0,0.26458333,44.581036,28.552681)" />
    <path
       style="fill:#ffffff;stroke-width:1.5033;stroke-linecap:round;stroke-miterlimit:4;stroke-dasharray:none"
       d="m 49.986082,47.851856 c -3.425487,-3.239677 -4.828459,-4.533354 -5.313734,-4.899781 -0.561606,-0.424063 -0.94293,-0.497647 -1.328431,-0.256346 -0.254555,0.159337 -0.87999,0.870502 -1.080215,1.228284 -0.07247,0.129494 -0.276215,0.120157 -2.282811,-0.104613 -2.466781,-0.276317 -2.7814,-0.327639 -2.825841,-0.460963 -0.03998,-0.11995 1.520147,-2.612639 2.70487,-4.32169 1.395771,-2.013504 2.128534,-2.962631 2.427747,-3.144593 0.378908,-0.230428 0.943613,-0.296286 1.46599,-0.17097 0.572123,0.13725 0.848513,0.440372 2.70887,2.970867 1.579258,2.148139 7.917708,10.887847 8.022528,11.061783 0.05201,0.0863 -0.200616,0.11013 -1.153973,0.108857 l -1.220557,-0.0016 z"
       id="path1947"
       transform="matrix(0.26458333,0,0,0.26458333,44.581036,28.552681)" />
    <path
       style="fill:#ffffff;stroke-width:1.5033;stroke-linecap:round;stroke-miterlimit:4;stroke-dasharray:none"
       d="m 58.960622,45.984382 c -0.704897,-0.07941 -1.331349,-0.17596 -1.392116,-0.214562 -0.08464,-0.05377 -0.110895,-0.746009 -0.112237,-2.959688 -0.0024,-3.881964 -0.06299,-4.238114 -0.879163,-5.163898 -0.607416,-0.688988 -1.681809,-1.091592 -3.839674,-1.438827 -0.962416,-0.154868 -1.319058,-0.118723 -1.629392,0.165135 -0.383131,0.350446 -0.4103,0.486589 -0.455922,2.284644 l -0.0442,1.741758 -0.686207,-0.957181 c -1.097257,-1.530549 -1.06696,-1.315091 -0.370952,-2.638073 0.74053,-1.40761 2.774882,-5.07607 2.873683,-5.18199 0.113105,-0.121255 3.839828,1.238873 5.775452,2.107845 0.741529,0.332899 1.521564,1.141267 1.961018,2.032249 l 0.346501,0.702522 0.0055,4.843846 c 0.0049,4.339467 -0.0089,4.842637 -0.132582,4.832222 -0.07594,-0.0064 -0.71481,-0.07659 -1.419707,-0.156002 z"
       id="path1949"
       transform="matrix(0.26458333,0,0,0.26458333,44.581036,28.552681)" />
    <path
       style="fill:#ffffff;stroke-width:1.5033;stroke-linecap:round;stroke-miterlimit:4;stroke-dasharray:none"
       d="M 60.473704,52.803232 C 60.30433,52.472784 59.44117,51.596771 58.518681,50.819099 57.79337,50.207651 56.222885,48.343126 56.220962,48.09118 c -3.69e-4,-0.04835 1.309173,0.06536 3.358379,0.291607 l 1.016466,0.112227 0.05662,1.148692 c 0.120647,2.447825 0.140808,3.490983 0.06747,3.490983 -0.04196,0 -0.152751,-0.149156 -0.24619,-0.331457 z"
       id="path1951"
       transform="matrix(0.26458333,0,0,0.26458333,44.581036,28.552681)" />
    <path
       style="fill:#ffffff;stroke-width:1.5033;stroke-linecap:round;stroke-miterlimit:4;stroke-dasharray:none"
       d="m 47.04141,35.473704 c -0.159493,-0.201376 -0.27838,-0.455248 -0.27838,-0.594455 0,-0.133634 0.401704,-1.301266 0.892674,-2.594737 0.99878,-2.631303 2.024142,-5.446845 2.024142,-5.558092 0,-0.09242 -0.731008,-1.319083 -1.666189,-2.795932 -0.693431,-1.095076 -0.716307,-1.147686 -0.569546,-1.309854 0.278077,-0.307272 1.545771,-1.147287 1.616486,-1.071136 1.02582,1.104677 3.624453,4.213047 3.624453,4.335411 0,0.235188 -4.206233,8.078136 -5.117963,9.54296 l -0.247297,0.397319 z"
       id="path1953"
       transform="matrix(0.26458333,0,0,0.26458333,44.581036,28.552681)" />
    <path
       style="fill:#ffffff;stroke-width:1.5033;stroke-linecap:round;stroke-miterlimit:4;stroke-dasharray:none"
       d="m 44.322194,33.424032 c -0.540935,-0.120089 -0.756851,-0.338271 -4.207251,-4.251383 -1.946617,-2.207665 -2.37509,-2.537528 -3.15692,-2.430366 -0.566644,0.07767 -0.985646,0.407753 -1.85216,1.459118 -0.418768,0.508101 -0.865206,1.043269 -0.992085,1.189262 l -0.23069,0.265441 -1.301456,-1.010727 c -0.715801,-0.5559 -1.362284,-1.058189 -1.436629,-1.116198 -0.117074,-0.09135 -0.03146,-0.286615 0.639474,-1.458408 1.907386,-3.331288 2.399495,-4.095619 2.931729,-4.553475 1.122576,-0.965701 5.512594,-4.323186 6.70697,-5.12949 1.458124,-0.984357 2.139166,-0.833441 3.754646,0.832012 1.051575,1.084104 2.20471,2.37957 2.199962,2.471502 -0.0022,0.04222 -0.35021,0.32053 -0.773398,0.618463 l -0.769433,0.541696 -0.620162,-0.588115 c -1.047186,-0.993072 -1.650075,-1.12813 -2.230363,-0.499638 -0.545136,0.59042 -0.413364,0.930993 1.077007,2.78359 0.564859,0.702144 1.501183,1.978986 2.080718,2.837425 l 1.053702,1.560798 -0.822713,2.156517 c -1.198973,3.142779 -1.645722,4.271133 -1.714563,4.330468 -0.03359,0.02895 -0.184958,0.02513 -0.336385,-0.0085 z"
       id="path1955"
       transform="matrix(0.26458333,0,0,0.26458333,44.581036,28.552681)" />
    <path
       style="fill:#ffffff;stroke-width:1.5033;stroke-linecap:round;stroke-miterlimit:4;stroke-dasharray:none"
       d="m 35.184157,16.98887 c -0.543616,-0.288094 -1.131102,-0.878406 -2.203031,-2.213624 -1.430098,-1.781361 -1.551654,-2.00114 -1.539159,-2.782868 0.0058,-0.361901 0.07098,-0.762052 0.156193,-0.958673 0.171428,-0.39555 0.712319,-0.95894 1.333125,-1.3885759 0.394605,-0.2730909 0.514263,-0.3085961 1.139345,-0.3380679 0.997494,-0.047031 1.256317,0.056758 1.934612,0.7757868 1.206119,1.27855 2.662046,3.312986 2.795284,3.905983 0.08691,0.386787 0.005,1.078418 -0.165326,1.396751 -0.125519,0.234534 -1.651629,1.377291 -2.125218,1.59137 -0.491568,0.222207 -0.921728,0.226074 -1.325825,0.01192 z"
       id="path1957"
       transform="matrix(0.26458333,0,0,0.26458333,44.581036,28.552681)" />
    <path
       style="fill:#ffffff;stroke-width:0.00944882;stroke-miterlimit:4;stroke-dasharray:none"
       d="m 23.053057,41.628208 c 0,-0.429128 6.360776,-11.499487 6.743115,-11.735785 0.234455,-0.144901 2.256885,1.282161 2.256885,1.592498 0,0.120239 -0.85219,1.328897 -1.893755,2.685906 -1.494642,1.947304 -1.867638,2.599016 -1.769834,3.092316 0.162873,0.821484 -0.829763,2.000025 -1.684538,2.000025 -0.43933,0 -0.931787,0.367258 -1.676126,1.25 -0.579708,0.6875 -1.261405,1.25 -1.514881,1.25 -0.253476,0 -0.460866,-0.06073 -0.460866,-0.13496 z"
       id="path25"
       inkscape:connector-curvature="0"
       transform="matrix(0.26458333,0,0,0.26458333,44.581036,28.552681)" />
  </g>
</svg>
