<?xml version="1.0" encoding="UTF-8" standalone="no"?>
<!-- Created with Inkscape (http://www.inkscape.org/) -->

<svg
   xmlns:dc="http://purl.org/dc/elements/1.1/"
   xmlns:cc="http://creativecommons.org/ns#"
   xmlns:rdf="http://www.w3.org/1999/02/22-rdf-syntax-ns#"
   xmlns:svg="http://www.w3.org/2000/svg"
   xmlns="http://www.w3.org/2000/svg"
   xmlns:sodipodi="http://sodipodi.sourceforge.net/DTD/sodipodi-0.dtd"
   xmlns:inkscape="http://www.inkscape.org/namespaces/inkscape"
   width="64"
   height="64"
   viewBox="0 0 16.933333 16.933333"
   version="1.1"
   id="svg8"
   inkscape:version="0.92.5 (2060ec1f9f, 2020-04-08)"
   sodipodi:docname="liquid_64x64.svg">
  <defs
     id="defs2" />
  <sodipodi:namedview
     id="base"
     pagecolor="#ffffff"
     bordercolor="#666666"
     borderopacity="1.0"
     inkscape:pageopacity="0.0"
     inkscape:pageshadow="2"
     inkscape:zoom="3.959798"
     inkscape:cx="74.448886"
     inkscape:cy="-8.6297457"
     inkscape:document-units="mm"
     inkscape:current-layer="layer1"
     showgrid="false"
     units="px"
     inkscape:window-width="1208"
     inkscape:window-height="987"
     inkscape:window-x="1992"
     inkscape:window-y="0"
     inkscape:window-maximized="1"
     showguides="false" />
  <metadata
     id="metadata5">
    <rdf:RDF>
      <cc:Work
         rdf:about="">
        <dc:format>image/svg+xml</dc:format>
        <dc:type
           rdf:resource="http://purl.org/dc/dcmitype/StillImage" />
        <dc:title></dc:title>
      </cc:Work>
    </rdf:RDF>
  </metadata>
  <g
     inkscape:label="Layer 1"
     inkscape:groupmode="layer"
     id="layer1"
     transform="translate(0,-280.06667)">
    <path
       style="fill:#000000;stroke-width:0.02979556"
       d="m 7.8654546,296.18462 c -1.0351009,-0.10412 -1.8418214,-0.40039 -2.5951525,-0.95307 -1.0192638,-0.74778 -1.6795845,-1.81211 -1.8932414,-3.05159 -0.056499,-0.32776 -0.047543,-1.298 0.016364,-1.77283 0.2984898,-2.2178 1.366965,-4.72252 3.1902929,-7.47869 0.2493451,-0.37691 0.6543842,-0.95345 0.9000866,-1.2812 0.4654423,-0.62088 0.5508725,-0.7002 0.754095,-0.7002 0.2032225,0 0.2886538,0.0793 0.7540951,0.7002 0.475482,0.63426 1.2034547,1.71546 1.5848567,2.35385 1.418718,2.37464 2.248473,4.49614 2.505522,6.40604 0.06391,0.47483 0.07286,1.44507 0.01636,1.77283 -0.239702,1.39058 -1.064184,2.58687 -2.283521,3.31326 -0.53419,0.31824 -1.1947239,0.55259 -1.8245653,0.64733 -0.236788,0.0356 -0.9366713,0.063 -1.1251955,0.0441 z m 1.8790969,-1.83184 c 0.4699355,-0.0852 0.9430345,-0.45187 1.1562875,-0.8962 0.306072,-0.63771 0.181845,-1.35776 -0.321006,-1.86061 -0.6511915,-0.65119 -1.6490305,-0.65119 -2.3002225,0 -0.6511911,0.65119 -0.6511911,1.64903 0,2.30022 0.3996342,0.39963 0.9069426,0.55775 1.464941,0.45659 z m 0.9063525,-4.38876 c 0.177637,-0.11755 0.253698,-0.2661 0.253698,-0.49545 0,-0.23235 -0.07621,-0.378 -0.262204,-0.50109 -0.166225,-0.10999 -0.457218,-0.11428 -0.62622,-0.01 -0.2255532,0.14023 -0.3315333,0.41861 -0.2602048,0.68351 0.041002,0.15228 0.2233706,0.34735 0.3653448,0.3908 0.156195,0.0478 0.401794,0.016 0.529586,-0.0685 z"
       id="path1715"
       inkscape:connector-curvature="0" />
    <path
       style="fill:#ffffff;stroke-width:0.00160876;stroke-miterlimit:4;stroke-dasharray:none"
       d="m 8.9225533,294.27632 c -0.4459566,-0.16548 -0.7647914,-0.46824 -0.9795262,-0.93015 -0.094584,-0.20345 -0.1136481,-0.30455 -0.1144164,-0.60683 -8.189e-4,-0.32291 0.013992,-0.39299 0.1350655,-0.63892 0.1730949,-0.35161 0.4687761,-0.64729 0.8203814,-0.82038 0.2455468,-0.12088 0.3165165,-0.13594 0.6389275,-0.13552 0.3189646,4.1e-4 0.3974724,0.0169 0.6510879,0.13659 0.349106,0.16481 0.657841,0.46755 0.825365,0.80935 0.106269,0.21683 0.120297,0.29251 0.120455,0.64978 1.49e-4,0.34988 -0.0152,0.43717 -0.113899,0.64776 -0.15816,0.33744 -0.458438,0.64443 -0.790025,0.80766 -0.359092,0.17678 -0.8457436,0.20967 -1.1934157,0.0806 z"
       id="path1717"
       inkscape:connector-curvature="0" />
    <path
       style="fill:#ffffff;stroke-width:0.00160876;stroke-miterlimit:4;stroke-dasharray:none"
       d="m 9.9296532,289.85082 c -0.1426648,-0.14267 -0.1652524,-0.19126 -0.1652524,-0.35551 0,-0.34039 0.2364542,-0.58403 0.5680612,-0.5853 0.315593,-9.6e-4 0.538632,0.22685 0.538632,0.55075 0,0.35669 -0.206562,0.55531 -0.577523,0.55531 -0.174018,0 -0.219166,-0.0205 -0.3639178,-0.16525 z"
       id="path1719"
       inkscape:connector-curvature="0" />
  </g>
</svg>
