<?xml version="1.0" encoding="UTF-8" standalone="no"?>
<!-- Created with Inkscape (http://www.inkscape.org/) -->

<svg
   xmlns:dc="http://purl.org/dc/elements/1.1/"
   xmlns:cc="http://creativecommons.org/ns#"
   xmlns:rdf="http://www.w3.org/1999/02/22-rdf-syntax-ns#"
   xmlns:svg="http://www.w3.org/2000/svg"
   xmlns="http://www.w3.org/2000/svg"
   xmlns:sodipodi="http://sodipodi.sourceforge.net/DTD/sodipodi-0.dtd"
   xmlns:inkscape="http://www.inkscape.org/namespaces/inkscape"
   width="64"
   height="64"
   viewBox="0 0 16.933333 16.933333"
   version="1.1"
   id="svg8"
   inkscape:version="0.92.5 (2060ec1f9f, 2020-04-08)"
   sodipodi:docname="liquid_qtty_normal_64x64.svg">
  <defs
     id="defs2" />
  <sodipodi:namedview
     id="base"
     pagecolor="#ffffff"
     bordercolor="#666666"
     borderopacity="1.0"
     inkscape:pageopacity="0.0"
     inkscape:pageshadow="2"
     inkscape:zoom="5.6"
     inkscape:cx="57.557247"
     inkscape:cy="19.452257"
     inkscape:document-units="mm"
     inkscape:current-layer="layer1"
     showgrid="false"
     units="px"
     inkscape:window-width="1208"
     inkscape:window-height="987"
     inkscape:window-x="1992"
     inkscape:window-y="0"
     inkscape:window-maximized="1"
     showguides="false" />
  <metadata
     id="metadata5">
    <rdf:RDF>
      <cc:Work
         rdf:about="">
        <dc:format>image/svg+xml</dc:format>
        <dc:type
           rdf:resource="http://purl.org/dc/dcmitype/StillImage" />
        <dc:title></dc:title>
      </cc:Work>
    </rdf:RDF>
  </metadata>
  <g
     inkscape:label="Layer 1"
     inkscape:groupmode="layer"
     id="layer1"
     transform="translate(0,-280.06667)">
    <path
       style="fill:#000000;stroke-width:0.03074057"
       d="m 8.883167,296.40421 c -0.6578866,-0.14033 -1.1088141,-0.59922 -1.2943527,-1.31704 -0.040387,-0.15623 -0.055919,-0.33309 -0.056721,-0.64555 -0.00105,-0.40813 0.00408,-0.44527 0.099304,-0.71856 0.1941273,-0.55717 0.6411643,-1.32143 1.1671083,-1.99527 0.3373283,-0.43218 0.4099928,-0.49856 0.5457807,-0.49856 0.1357252,0 0.2140927,0.0716 0.5528249,0.50544 0.5640278,0.72232 1.0782668,1.63956 1.2160028,2.16898 0.05878,0.22593 0.06556,0.31126 0.05013,0.63019 -0.02134,0.44076 -0.07756,0.68859 -0.226483,0.9986 -0.142718,0.29709 -0.433931,0.59514 -0.716355,0.73319 -0.3658305,0.17884 -0.8926714,0.23343 -1.337216,0.13852 z m 0.7531436,-0.50376 c 0.5250374,-0.0831 0.8422104,-0.41355 0.9671954,-1.0077 0.106981,-0.50854 0.04032,-0.91789 -0.241099,-1.48095 -0.22124,-0.44263 -0.6825372,-1.13993 -1.0015917,-1.51401 -0.023461,-0.0276 -0.5084418,0.62261 -0.7371486,0.98814 -0.2345618,0.37489 -0.4465125,0.8148 -0.5209176,1.08117 -0.1423401,0.50959 -0.043268,1.14239 0.2391265,1.52726 0.2552304,0.34787 0.7270423,0.49588 1.294435,0.40609 z m -0.6916633,-0.53868 c -0.2666223,-0.1382 -0.4453754,-0.43384 -0.4447627,-0.73571 3.968e-4,-0.19464 0.07086,-0.3961 0.1660998,-0.47495 0.1603876,-0.13275 0.4430014,0.0254 0.4041495,0.22628 -0.068157,0.35222 -0.069932,0.34329 0.1010748,0.50898 0.1195725,0.1158 0.1576957,0.17471 0.1576957,0.24344 0,0.13262 -0.027766,0.1848 -0.1251594,0.23515 -0.1093942,0.0566 -0.1445958,0.0562 -0.2590954,-0.003 z m 3.4899257,-3.16432 c -1.135133,-0.25634 -1.764215,-1.18948 -1.761468,-2.61284 8.6e-4,-0.44645 0.04037,-0.65412 0.21348,-1.12204 0.276052,-0.74616 1.011981,-1.89098 1.743939,-2.71285 0.250253,-0.28099 0.274322,-0.29972 0.38526,-0.29972 0.105658,0 0.137391,0.0207 0.296419,0.19214 0.596962,0.64402 1.316928,1.68677 1.660845,2.40544 0.296189,0.61895 0.390196,0.99206 0.391129,1.55239 0.0015,0.89789 -0.23075,1.54895 -0.729818,2.0459 -0.26724,0.26613 -0.534285,0.42194 -0.894179,0.52175 -0.260273,0.0722 -1.039264,0.0899 -1.305607,0.0298 z m 1.144499,-0.53596 c 0.557691,-0.1426 0.895934,-0.45391 1.097834,-1.01033 0.121692,-0.33538 0.168333,-0.63963 0.165859,-1.08192 -0.0019,-0.32332 -0.01514,-0.42701 -0.0836,-0.6538 -0.206008,-0.68171 -0.678929,-1.49299 -1.3968,-2.39615 l -0.335124,-0.42161 -0.07742,0.0834 c -0.409986,0.44211 -1.110579,1.47405 -1.390323,2.04788 -0.384014,0.78775 -0.458082,1.28473 -0.304691,2.04441 0.123524,0.61179 0.422392,1.05242 0.866075,1.27692 0.339366,0.1717 1.018864,0.22351 1.458181,0.11116 z m -0.963588,-0.50239 c -0.130986,-0.10049 -0.152453,-0.25815 -0.05113,-0.37532 0.05452,-0.0631 0.112561,-0.0861 0.274272,-0.10883 0.708007,-0.0996 1.046284,-0.48973 0.990832,-1.14267 -0.01989,-0.23422 -0.0191,-0.23775 0.07359,-0.33045 0.104707,-0.10478 0.154991,-0.11372 0.278413,-0.0499 0.108535,0.0562 0.156998,0.16489 0.179151,0.40213 0.03996,0.42796 -0.119877,0.89065 -0.403255,1.16732 -0.275495,0.26897 -0.776159,0.47841 -1.138166,0.47612 -0.08521,-5.6e-4 -0.176879,-0.0179 -0.203704,-0.0384 z m -7.7439631,0.51482 C 3.2327688,291.42681 2.198999,290.43804 1.86077,288.79423 c -0.085725,-0.41664 -0.1353468,-1.03417 -0.1131246,-1.40757 0.067348,-1.13117 0.7634336,-2.63985 2.0585373,-4.46168 0.6770727,-0.95243 1.5921125,-2.08561 1.7501144,-2.1673 0.2029187,-0.1049 0.2592918,-0.0542 1.0812041,0.97271 1.6660156,2.08159 2.7066602,3.96929 2.9227938,5.30183 0.057586,0.35504 0.057285,0.75824 -9.526e-4,1.26148 -0.1947097,1.68262 -1.000326,2.77279 -2.374328,3.213 -0.1562429,0.0501 -0.4052409,0.11348 -0.5533291,0.14124 -0.3738226,0.0696 -1.3726756,0.0845 -1.7601705,0.026 z m 1.5295468,-0.52095 c 1.0996569,-0.16713 1.8180816,-0.66415 2.2785794,-1.5764 0.2937794,-0.58196 0.464126,-1.65185 0.3762115,-2.36285 -0.135861,-1.09871 -0.9226211,-2.62552 -2.3140672,-4.49074 -0.349322,-0.46826 -0.9070259,-1.17163 -1.030762,-1.29999 -0.051575,-0.0535 -0.00212,-0.10524 -0.5336787,0.55685 -1.3039199,1.62382 -2.2668118,3.18835 -2.6654647,4.3309 -0.1951923,0.55943 -0.2365034,0.8009 -0.2340329,1.36795 0.00863,1.98651 0.935874,3.20722 2.6387572,3.47406 0.3499063,0.0548 1.1243996,0.055 1.4844574,2.2e-4 z m -1.6217675,-0.52094 c -0.5393646,-0.1199 -1.0442209,-0.41723 -1.3663889,-0.80477 -0.2684152,-0.3229 -0.485583,-0.80891 -0.5891602,-1.31858 -0.060218,-0.29626 -0.088026,-1.11401 -0.047577,-1.39868 0.024659,-0.17359 0.049167,-0.24386 0.099122,-0.28437 0.08683,-0.0704 0.2496731,-0.0686 0.3389919,0.003 0.070133,0.0567 0.071102,0.0663 0.074371,0.7301 0.00348,0.71341 0.035892,0.93521 0.2008918,1.37621 0.1621799,0.43347 0.5353242,0.83627 0.9561207,1.03213 0.2152681,0.10025 0.5136757,0.1855 0.6489997,0.1855 0.1079775,0 0.2547897,0.0731 0.2803241,0.13972 0.041039,0.10687 0.017893,0.23317 -0.056357,0.30742 -0.086588,0.0866 -0.2490646,0.0962 -0.5393569,0.0317 z"
       id="path1786"
       inkscape:connector-curvature="0" />
    <path
       style="fill:#ffffff;stroke-width:0.00674916;stroke-miterlimit:4;stroke-dasharray:none"
       d="m 33.695741,59.643785 c -2.215314,-0.77805 -3.339529,-2.792698 -3.17212,-5.684593 0.06938,-1.198443 0.194639,-1.623304 0.922447,-3.128722 0.875988,-1.81192 1.960399,-3.546124 3.190579,-5.102419 l 0.719557,-0.910308 0.340959,0.4275 c 0.694288,0.87051 2.427558,3.499176 3.048891,4.623928 1.380135,2.498353 1.711441,4.62597 1.050847,6.74846 -0.662896,2.129891 -1.86256,3.04245 -4.171868,3.173453 -0.77036,0.0437 -1.556321,-0.01631 -1.929292,-0.147299 z m 1.21463,-1.838311 c 0.578872,-0.405457 0.516429,-1.147803 -0.150277,-1.786547 -0.497488,-0.476624 -0.542062,-0.611279 -0.491071,-1.483468 0.04988,-0.853185 0.0056,-0.997356 -0.400125,-1.303753 -1.00504,-0.758929 -1.90871,0.37142 -1.735775,2.171183 0.09309,0.968829 0.634864,1.838621 1.457796,2.34043 0.674547,0.411326 0.811716,0.417788 1.319452,0.06215 z"
       id="path1807"
       inkscape:connector-curvature="0"
       transform="matrix(0.26458333,0,0,0.26458333,0,280.06667)" />
    <path
       style="fill:#ffffff;stroke-width:0.00674916;stroke-miterlimit:4;stroke-dasharray:none"
       d="m 47.319249,43.799236 c -3.113049,-0.660582 -4.933422,-3.536804 -4.917256,-7.76935 0.007,-1.830837 0.335982,-2.995175 1.507695,-5.33595 1.199152,-2.395592 4.65373,-7.362948 5.257166,-7.559306 0.109391,-0.0356 0.801488,0.72181 1.537993,1.683125 3.711959,4.84499 5.320904,8.237846 5.313585,11.205006 -0.0092,3.725877 -1.467567,6.5083 -3.894355,7.429994 -1.140499,0.433163 -3.570535,0.608395 -4.804828,0.346481 z m 3.826567,-2.421545 c 1.606627,-0.782232 2.436978,-1.710889 2.915738,-3.260932 0.39696,-1.285208 0.435136,-1.961932 0.165455,-2.932986 -0.265578,-0.956286 -0.994856,-1.289673 -1.697399,-0.77596 -0.285743,0.20894 -0.347713,0.480674 -0.356331,1.5625 -0.01832,2.299648 -0.958217,3.443737 -3.259696,3.967855 -0.772438,0.175908 -1.306229,0.408499 -1.508122,0.657139 -0.412486,0.507997 -0.396699,0.63447 0.147074,1.178243 0.414751,0.414752 0.549726,0.448368 1.383928,0.344677 0.508396,-0.0632 1.502604,-0.396436 2.209353,-0.740536 z"
       id="path1828"
       inkscape:connector-curvature="0"
       transform="matrix(0.26458333,0,0,0.26458333,0,280.06667)" />
  </g>
</svg>
