<?xml version="1.0" encoding="UTF-8" standalone="no"?>
<!-- Created with Inkscape (http://www.inkscape.org/) -->

<svg
   xmlns:dc="http://purl.org/dc/elements/1.1/"
   xmlns:cc="http://creativecommons.org/ns#"
   xmlns:rdf="http://www.w3.org/1999/02/22-rdf-syntax-ns#"
   xmlns:svg="http://www.w3.org/2000/svg"
   xmlns="http://www.w3.org/2000/svg"
   xmlns:sodipodi="http://sodipodi.sourceforge.net/DTD/sodipodi-0.dtd"
   xmlns:inkscape="http://www.inkscape.org/namespaces/inkscape"
   width="64"
   height="64"
   viewBox="0 0 16.933333 16.933334"
   version="1.1"
   id="svg8"
   inkscape:version="0.92.5 (2060ec1f9f, 2020-04-08)"
   sodipodi:docname="litter_change_64x64.svg">
  <defs
     id="defs2" />
  <sodipodi:namedview
     id="base"
     pagecolor="#ffffff"
     bordercolor="#666666"
     borderopacity="1.0"
     inkscape:pageopacity="0.0"
     inkscape:pageshadow="2"
     inkscape:zoom="5.6"
     inkscape:cx="31.707783"
     inkscape:cy="39.041909"
     inkscape:document-units="mm"
     inkscape:current-layer="layer1"
     showgrid="false"
     units="px"
     inkscape:window-width="1208"
     inkscape:window-height="987"
     inkscape:window-x="1992"
     inkscape:window-y="0"
     inkscape:window-maximized="1" />
  <metadata
     id="metadata5">
    <rdf:RDF>
      <cc:Work
         rdf:about="">
        <dc:format>image/svg+xml</dc:format>
        <dc:type
           rdf:resource="http://purl.org/dc/dcmitype/StillImage" />
        <dc:title></dc:title>
      </cc:Work>
    </rdf:RDF>
  </metadata>
  <g
     inkscape:label="Layer 1"
     inkscape:groupmode="layer"
     id="layer1"
     transform="translate(0,-280.06665)">
    <path
       style="fill:#000000;stroke-width:0.03425868"
       d="m 1.3853953,293.55777 c -0.065816,-0.0533 -0.1113498,-0.23819 -0.3389973,-1.37662 l -0.26297265,-1.31508 -0.118722,-0.0635 c -0.1854275,-0.0992 -0.39412812,-0.34463 -0.44367074,-0.52157 -0.078314,-0.27969 0.0157405,-0.61505 0.22759654,-0.81156 0.1898667,-0.17613 0.3102393,-0.21424 0.72293405,-0.22889 l 0.3857756,-0.0137 0.2308807,-0.23916 c 0.3703229,-0.3836 0.7783356,-0.62242 1.3101108,-0.76685 0.2641957,-0.0718 1.004216,-0.0856 1.2131595,-0.0228 0.1273551,0.0383 0.1419892,0.0345 0.2912705,-0.0751 0.3274408,-0.24036 0.9698079,-0.49885 1.2396804,-0.49885 0.079504,0 0.093265,-0.0171 0.1130137,-0.14064 0.029331,-0.18343 0.1039531,-0.328 0.2458086,-0.47627 0.1139489,-0.11915 0.1145319,-0.12133 0.066241,-0.25694 -0.1091393,-0.30651 -0.042181,-0.57671 0.2040634,-0.8235 0.097844,-0.098 0.2243294,-0.18747 0.2923599,-0.2067 l 0.1199002,-0.0339 0.018145,-0.27724 c 0.022615,-0.34564 0.1377686,-0.55637 0.3888217,-0.71159 0.1553042,-0.0961 0.1926941,-0.10348 0.6157514,-0.12206 0.2736255,-0.0122 0.4840228,-0.0378 0.536054,-0.0656 0.0471,-0.0251 0.2490686,-0.20577 0.448807,-0.40129 0.3958296,-0.38746 0.467737,-0.41927 0.629246,-0.2784 0.07422,0.0647 0.101828,0.14565 0.172403,0.50532 0.11888,0.60581 0.106175,0.88282 -0.05801,1.26586 -0.05181,0.12085 -0.05643,0.15744 -0.02123,0.16826 0.02473,0.007 0.114629,0.0851 0.199781,0.17225 0.2285264,0.23386 0.2930274,0.51211 0.1874474,0.80862 -0.04828,0.13559 -0.04771,0.13785 0.06624,0.25694 0.136458,0.14262 0.210677,0.28153 0.243286,0.45536 0.02062,0.10991 0.03662,0.12728 0.117362,0.12728 0.0844,0 0.132485,-0.0632 0.495131,-0.64993 0.530509,-0.85845 0.7283,-1.0281 1.199879,-1.02912 0.411877,-9.1e-4 0.401922,0.006 0.712687,-0.49244 l 0.280132,-0.4493 -0.0086,-0.32546 c -0.01375,-0.51771 0.103904,-0.88909 0.45397,-1.43292 0.367754,-0.5713 0.928286,-0.86705 1.553932,-0.81988 0.904617,0.0683 1.581348,0.86532 1.505248,1.77303 -0.02376,0.28338 -0.128432,0.555 -0.352285,0.91417 -0.286434,0.45956 -0.641394,0.7679 -1.097358,0.95321 -0.181233,0.0737 -0.193124,0.0872 -0.47465,0.54116 l -0.28876,0.4656 0.122608,0.28293 c 0.07876,0.18174 0.128603,0.3576 0.139371,0.49175 0.0166,0.20687 0.0091,0.23518 -0.181173,0.68505 -0.008,0.0188 0.05842,0.0842 0.147536,0.14506 0.175028,0.11963 0.339657,0.26915 0.508762,0.46194 l 0.106929,0.12189 0.389826,0.014 c 0.312322,0.0109 0.417071,0.0283 0.52686,0.0863 0.352737,0.1864 0.531206,0.5845 0.427721,0.95411 -0.04954,0.17695 -0.258242,0.42229 -0.44367,0.52158 l -0.118722,0.0635 -0.262971,1.31508 c -0.227654,1.13843 -0.273184,1.32332 -0.338999,1.37661 -0.0726,0.0588 -0.388705,0.0616 -7.0229445,0.0616 -6.6342401,0 -6.950342,-0.002 -7.0229464,-0.0616 z m 13.8560917,-1.50578 c 0.111447,-0.56055 0.209259,-1.05387 0.217374,-1.09627 l 0.01476,-0.0771 H 13.517796 11.56197 l -0.364512,0.48817 c -0.200482,0.26851 -0.395305,0.51518 -0.432941,0.54814 -0.0637,0.0559 -0.226276,0.06 -2.3561689,0.06 -2.1298941,0 -2.2924626,-0.004 -2.3561692,-0.06 -0.037639,-0.0329 -0.2324596,-0.27963 -0.4329414,-0.54814 L 5.254721,290.8786 H 3.2988959 1.3430695 l 0.014757,0.0771 c 0.00814,0.0424 0.1059328,0.53572 0.2173736,1.09627 l 0.2026194,1.0192 h 6.6305272 6.6305273 z m -3.987693,-1.67867 c 0.434764,-0.5794 0.824151,-1.07218 0.865306,-1.09506 0.05445,-0.0302 0.392086,-0.042 1.239619,-0.043 l 1.164795,-10e-4 -0.102775,-0.0859 c -0.166496,-0.13914 -0.641346,-0.35709 -0.895121,-0.41084 -0.307632,-0.0652 -0.623594,-0.0632 -0.920588,0.006 -0.35529,0.0826 -0.383764,0.0768 -0.668045,-0.13772 -0.456357,-0.34421 -0.951471,-0.49499 -1.498638,-0.45638 -0.157708,0.0109 -0.332107,0.0441 -0.387553,0.0731 -0.05544,0.0292 -0.1509144,0.0799 -0.2121524,0.11283 -0.100492,0.0542 -0.261533,0.061 -1.6529812,0.0697 -1.6814236,0.0109 -1.7041696,0.009 -1.9379008,-0.18823 -0.092403,-0.0777 -0.1208718,-0.0838 -0.2928348,-0.0623 -0.3975178,0.0497 -0.7367447,0.19424 -1.0981759,0.46804 -0.2595537,0.19662 -0.2925979,0.2028 -0.6450937,0.12084 -0.5949984,-0.13827 -1.315405,0.0181 -1.7783335,0.38597 l -0.1324453,0.10531 1.1609413,10e-4 c 0.8447897,9e-4 1.1813178,0.0125 1.2357672,0.0429 0.041149,0.0228 0.4305402,0.51567 0.8653045,1.09507 l 0.7904787,1.05345 h 2.0549748 2.0549741 z m -3.3095019,0.14715 c -0.2030517,-0.20304 0.023028,-0.5415 0.2883118,-0.43162 0.1016455,0.0421 0.1757378,0.15976 0.1757378,0.27908 0,0.10566 -0.1517395,0.23664 -0.27407,0.23664 -0.066752,0 -0.1369731,-0.0311 -0.1899796,-0.084 z m 1.9184865,-0.27406 c -0.203052,-0.20305 0.02303,-0.54152 0.2883124,-0.43164 0.101645,0.0421 0.175736,0.15976 0.175736,0.27909 0,0.10567 -0.151738,0.23663 -0.274069,0.23663 -0.06675,0 -0.1369744,-0.0311 -0.1899794,-0.084 z m -3.014764,-0.54814 c -0.2030518,-0.20304 0.023028,-0.54152 0.2883118,-0.43163 0.1016455,0.0421 0.1757377,0.15976 0.1757377,0.27907 0,0.10567 -0.1517395,0.23665 -0.27407,0.23665 -0.066751,0 -0.136973,-0.0311 -0.1899795,-0.084 z m 1.9184863,-0.27407 c -0.2030518,-0.20305 0.023028,-0.54152 0.2883106,-0.43163 0.1016455,0.0422 0.1757377,0.15976 0.1757377,0.27908 0,0.10567 -0.1517383,0.23664 -0.2740687,0.23664 -0.066752,0 -0.1369743,-0.0311 -0.1899796,-0.084 z m -4.1266143,0.63223 -0.2086302,-0.27407 H 2.6669169 0.90257735 l -0.084083,0.084 c -0.053003,0.053 -0.084095,0.12323 -0.084095,0.18998 0,0.0668 0.03108,0.13698 0.084095,0.18998 l 0.084083,0.084 H 2.8755482 4.8485179 Z m 11.3583084,0.18998 c 0.053,-0.053 0.08409,-0.12323 0.08409,-0.18998 0,-0.0668 -0.03108,-0.13698 -0.08409,-0.18998 l -0.0841,-0.0841 h -1.764338 -1.76434 l -0.208631,0.27408 -0.208632,0.27406 h 1.972971 1.97297 z m -1.943245,-2.12078 c 0.106395,-0.21303 0.09433,-0.32017 -0.07958,-0.70712 -0.08479,-0.18866 -0.154164,-0.37106 -0.154164,-0.40532 0,-0.0589 0.702615,-1.22844 0.808131,-1.34517 0.02719,-0.0301 0.114714,-0.074 0.194487,-0.0975 0.409674,-0.12097 0.768874,-0.41956 1.028044,-0.85463 0.185858,-0.31199 0.24299,-0.51209 0.221755,-0.77663 -0.05682,-0.70782 -0.729881,-1.16203 -1.418773,-0.95745 -0.252872,0.0751 -0.45791,0.25003 -0.657216,0.56073 -0.297115,0.46318 -0.328199,0.56711 -0.329481,1.10164 l -0.0011,0.46308 -0.342587,0.55934 c -0.482635,0.78799 -0.427808,0.74221 -0.922691,0.77041 -0.294071,0.0168 -0.43763,0.0401 -0.511489,0.0833 -0.06752,0.0395 -0.211739,0.23576 -0.421168,0.57333 -0.175171,0.28234 -0.318848,0.52309 -0.319284,0.53498 -4.41e-4,0.0121 0.07082,0.0396 0.158352,0.0617 0.273885,0.069 0.560718,0.2007 0.819949,0.37659 0.241499,0.16386 0.254266,0.16824 0.38052,0.1308 0.193333,-0.0573 0.98439,-0.0448 1.192656,0.0188 0.254089,0.0777 0.271734,0.0731 0.353643,-0.0908 z m 0.605599,-3.06874 c -0.173958,-0.0424 -0.313145,-0.13112 -0.442421,-0.28214 -0.317418,-0.37084 -0.224243,-0.94663 0.195141,-1.20591 0.632241,-0.39089 1.415429,0.20702 1.207603,0.92191 -0.119148,0.40983 -0.552635,0.66538 -0.960323,0.56614 z m 0.366359,-0.62026 c 0.08717,-0.0872 0.100686,-0.12208 0.0829,-0.21411 -0.04221,-0.2185 -0.296233,-0.30513 -0.455624,-0.15539 -0.131375,0.12342 -0.09221,0.37439 0.06855,0.43916 0.130509,0.0526 0.197205,0.0373 0.304166,-0.0696 z m -5.3323094,3.34316 c 0.053,-0.053 0.08408,-0.12323 0.08408,-0.18998 0,-0.0668 -0.03108,-0.13698 -0.08408,-0.18998 l -0.08408,-0.084 H 8.1342778 6.6580411 l -0.084095,0.084 c -0.053003,0.053 -0.084083,0.12322 -0.084083,0.18998 0,0.0668 0.03108,0.13697 0.084083,0.18998 l 0.084095,0.084 h 1.4762367 1.4762378 z m -0.27407,-1.09628 c 0.053,-0.053 0.08409,-0.12324 0.08409,-0.18998 0,-0.0668 -0.03108,-0.13698 -0.08409,-0.18998 l -0.08408,-0.084 H 8.1342778 6.9321099 l -0.084083,0.084 c -0.053003,0.053 -0.084083,0.12323 -0.084083,0.18998 0,0.0668 0.03108,0.13697 0.084083,0.18998 l 0.084083,0.084 h 1.2021679 1.2021678 z m -0.3205955,-1.24265 c 0.1004674,-0.20403 0.1134874,-0.26265 0.1134874,-0.51095 0,-0.15426 -0.011417,-0.2919 -0.025311,-0.30587 -0.013919,-0.014 -0.1102688,0.0549 -0.2140908,0.15314 -0.2804184,0.26521 -0.4298794,0.31934 -0.9475792,0.34317 -0.5369504,0.0248 -0.577339,0.0493 -0.577339,0.35073 v 0.20024 h 0.768674 0.7686739 z"
       id="path6740"
       inkscape:connector-curvature="0" />
    <path
       style="fill:#ffffff;stroke-width:0.00261593;stroke-miterlimit:4;stroke-dasharray:none"
       d="m 1.7786889,292.98354 c -0.056464,-0.23681 -0.3980559,-1.98752 -0.3980559,-2.04009 0,-0.0593 0.093156,-0.0622 1.9293116,-0.0602 l 1.9293116,0.002 0.3979745,0.52434 c 0.3670497,0.4836 0.4087111,0.52655 0.5361342,0.55279 0.075982,0.0157 1.1298087,0.024 2.3418242,0.0186 l 2.2036649,-0.01 0.08063,-0.076 c 0.04434,-0.0418 0.236359,-0.28656 0.426695,-0.54383 l 0.346064,-0.46777 1.941073,-10e-4 1.941074,-0.001 -0.180872,0.92573 c -0.09948,0.50914 -0.194809,0.9958 -0.211843,1.08145 l -0.03097,0.15573 -6.616715,0.009 -6.6167154,0.009 z"
       id="path6742"
       inkscape:connector-curvature="0" />
    <path
       style="fill:#ffffff;stroke-width:0.00261593;stroke-miterlimit:4;stroke-dasharray:none"
       d="m 0.82944095,290.23622 c -0.094577,-0.12024 -0.091273,-0.25905 0.00838,-0.35267 0.080063,-0.0752 0.080865,-0.0753 1.83363795,-0.0753 h 1.7535422 l 0.1581098,0.19899 c 0.2850094,0.35869 0.493291,0.32011 -1.7279638,0.32011 H 0.90117575 Z"
       id="path6744"
       inkscape:connector-curvature="0" />
    <path
       style="fill:#ffffff;stroke-width:0.00261593;stroke-miterlimit:4;stroke-dasharray:none"
       d="m 5.6720846,290.49589 c -0.3710189,-0.49544 -0.7466627,-0.9813 -0.8347648,-1.0797 l -0.1601867,-0.17889 -1.1551078,-0.0174 -1.1551078,-0.0172 0.1235122,-0.0945 c 0.1489485,-0.11393 0.5104465,-0.2793 0.7243466,-0.33129 0.313561,-0.0763 0.5970899,-0.0847 0.9257392,-0.0277 0.4392133,0.0762 0.4549951,0.0742 0.6834601,-0.0859 0.4272244,-0.29927 0.6975415,-0.42122 1.06476,-0.48036 0.20551,-0.033 0.2120285,-0.0316 0.4173599,0.0951 l 0.2085901,0.12869 1.6117061,-4.7e-4 1.6117089,-4.8e-4 0.17809,-0.0935 c 0.2156144,-0.11319 0.5793054,-0.17645 0.8405634,-0.1463 0.461555,0.0533 0.77726,0.17566 1.168486,0.453 0.118017,0.0837 0.261384,0.16149 0.3186,0.17293 0.05722,0.0109 0.240971,-0.006 0.408345,-0.0396 0.545202,-0.10821 1.119325,0.006 1.622473,0.32181 l 0.20453,0.12851 -1.17231,0.0172 -1.172311,0.0174 -0.148755,0.16909 c -0.08181,0.093 -0.457506,0.57958 -0.834866,1.0813 l -0.68611,0.91218 -2.0590862,-10e-4 -2.059086,-0.001 z m 2.6535707,0.0332 c 0.1097344,-0.10312 0.1075482,-0.28112 -0.00486,-0.39352 -0.2501993,-0.25019 -0.6166915,0.0984 -0.3970357,0.37758 0.092864,0.11806 0.2850641,0.12568 0.4018842,0.0159 z m 1.9666897,-0.3167 c 0.07852,-0.1121 0.06172,-0.22594 -0.04978,-0.33746 -0.113245,-0.11319 -0.225486,-0.1282 -0.3432114,-0.0458 -0.115066,0.0806 -0.156194,0.21215 -0.104973,0.3358 0.08247,0.19909 0.3724024,0.2267 0.4979754,0.0474 z m -3.1317362,-0.45628 c 0.128968,-0.0667 0.1827154,-0.16777 0.1553795,-0.29223 -0.04512,-0.20543 -0.2813123,-0.30128 -0.4382319,-0.17785 -0.1705456,0.13416 -0.1498667,0.38158 0.03991,0.47758 0.1101959,0.0557 0.1213333,0.0554 0.2429375,-0.007 z m 1.9692216,-0.31416 c 0.1262158,-0.10628 0.1398528,-0.23932 0.037809,-0.36904 -0.090144,-0.11466 -0.2178789,-0.14434 -0.3427174,-0.0798 -0.2043453,0.10567 -0.1968734,0.38343 0.013409,0.49845 0.1078154,0.059 0.1762952,0.0472 0.2914987,-0.0497 z"
       id="path6746"
       inkscape:connector-curvature="0" />
    <path
       style="fill:#ffffff;stroke-width:0.00261593;stroke-miterlimit:4;stroke-dasharray:none"
       d="m 12.029298,290.28415 c 0.01812,-0.0238 0.106589,-0.14059 0.196596,-0.25955 l 0.163648,-0.21629 h 1.756876 1.756875 l 0.07524,0.0802 c 0.0947,0.10081 0.09601,0.23023 0.0035,0.34781 l -0.07172,0.0912 h -1.956968 c -1.560095,0 -1.95031,-0.008 -1.924044,-0.0432 z"
       id="path6748"
       inkscape:connector-curvature="0" />
    <path
       style="fill:#ffffff;stroke-width:0.00261593;stroke-miterlimit:4;stroke-dasharray:none"
       d="m 13.752453,288.21101 c -0.149732,-0.0492 -1.047032,-0.0765 -1.216082,-0.037 -0.137385,0.0321 -0.156639,0.0254 -0.46793,-0.1616 -0.178557,-0.10724 -0.441112,-0.23319 -0.583456,-0.27987 -0.142343,-0.0466 -0.270869,-0.0944 -0.285612,-0.10591 -0.03342,-0.0261 0.496638,-0.87978 0.630062,-1.01465 0.107718,-0.10895 0.284138,-0.15644 0.590667,-0.15917 0.432335,-0.004 0.460484,-0.0284 0.953576,-0.83045 l 0.307614,-0.50037 0.01989,-0.52051 c 0.01817,-0.47555 0.02797,-0.53646 0.113329,-0.70482 0.338734,-0.66813 0.682921,-0.94042 1.188756,-0.94042 0.567246,0 1.050514,0.4856 1.050514,1.05558 0,0.24454 -0.0768,0.46438 -0.262841,0.75238 -0.256436,0.39699 -0.544342,0.63285 -0.964236,0.78995 -0.185581,0.0695 -0.209887,0.0924 -0.385562,0.36476 -0.103127,0.15984 -0.291359,0.4706 -0.418302,0.69057 l -0.230808,0.39993 0.144236,0.35261 c 0.194505,0.47551 0.204213,0.53936 0.111216,0.73147 -0.07987,0.16499 -0.111726,0.17767 -0.295032,0.11757 z m 1.317416,-3.16009 c 0.372913,-0.11126 0.583811,-0.39906 0.583999,-0.79695 1.38e-4,-0.27574 -0.05055,-0.39721 -0.244251,-0.58532 -0.373776,-0.363 -0.998037,-0.28067 -1.275578,0.16824 -0.09075,0.14679 -0.10473,0.2021 -0.10473,0.41437 0,0.20538 0.0155,0.27132 0.09594,0.40816 0.108362,0.18434 0.274929,0.32472 0.466346,0.39304 0.169836,0.0606 0.271057,0.0602 0.478279,-10e-4 z"
       id="path6750"
       inkscape:connector-curvature="0" />
    <path
       style="fill:#ffffff;stroke-width:0.00261593;stroke-miterlimit:4;stroke-dasharray:none"
       d="m 7.4713752,285.47057 c 0,-0.27052 0.041975,-0.29652 0.5412741,-0.33527 0.5777944,-0.0448 0.6472908,-0.0687 0.9498189,-0.32699 0.111459,-0.0951 0.1960292,-0.1442 0.2153235,-0.1249 0.066059,0.0661 0.00789,0.53057 -0.094698,0.75583 l -0.098476,0.21629 H 8.228002 7.4713849 Z"
       id="path6752"
       inkscape:connector-curvature="0" />
    <path
       style="fill:#ffffff;stroke-width:0.00261593;stroke-miterlimit:4;stroke-dasharray:none"
       d="m 6.868838,286.65646 c -0.1083377,-0.12875 -0.11237,-0.2013 -0.017866,-0.32144 l 0.071731,-0.0912 h 1.2026829 1.2026827 l 0.07524,0.08 c 0.09471,0.1008 0.09601,0.23024 0.0035,0.34782 l -0.07173,0.0912 H 8.1467657 6.9584303 Z"
       id="path6754"
       inkscape:connector-curvature="0" />
    <path
       style="fill:#ffffff;stroke-width:0.00261593;stroke-miterlimit:4;stroke-dasharray:none"
       d="m 6.5741183,287.74455 c -0.094504,-0.12012 -0.090472,-0.19267 0.017866,-0.32143 l 0.089597,-0.10651 h 1.4653433 1.465344 l 0.07157,0.10056 c 0.09359,0.13143 0.09064,0.25017 -0.0085,0.34334 -0.07965,0.0748 -0.08832,0.0752 -1.5547804,0.0752 H 6.6458738 Z"
       id="path6756"
       inkscape:connector-curvature="0" />
  </g>
</svg>
