<?xml version="1.0" encoding="UTF-8" standalone="no"?>
<!-- Created with Inkscape (http://www.inkscape.org/) -->

<svg
   xmlns:dc="http://purl.org/dc/elements/1.1/"
   xmlns:cc="http://creativecommons.org/ns#"
   xmlns:rdf="http://www.w3.org/1999/02/22-rdf-syntax-ns#"
   xmlns:svg="http://www.w3.org/2000/svg"
   xmlns="http://www.w3.org/2000/svg"
   xmlns:sodipodi="http://sodipodi.sourceforge.net/DTD/sodipodi-0.dtd"
   xmlns:inkscape="http://www.inkscape.org/namespaces/inkscape"
   width="64"
   height="64"
   viewBox="0 0 16.933333 16.933334"
   version="1.1"
   id="svg8"
   inkscape:version="0.92.5 (2060ec1f9f, 2020-04-08)"
   sodipodi:docname="locked_window_64x64.svg">
  <defs
     id="defs2" />
  <sodipodi:namedview
     id="base"
     pagecolor="#ffffff"
     bordercolor="#666666"
     borderopacity="1.0"
     inkscape:pageopacity="0.0"
     inkscape:pageshadow="2"
     inkscape:zoom="7.919596"
     inkscape:cx="36.05142"
     inkscape:cy="55.866361"
     inkscape:document-units="mm"
     inkscape:current-layer="layer1"
     showgrid="false"
     units="px"
     inkscape:window-width="1208"
     inkscape:window-height="987"
     inkscape:window-x="1992"
     inkscape:window-y="0"
     inkscape:window-maximized="1" />
  <metadata
     id="metadata5">
    <rdf:RDF>
      <cc:Work
         rdf:about="">
        <dc:format>image/svg+xml</dc:format>
        <dc:type
           rdf:resource="http://purl.org/dc/dcmitype/StillImage" />
        <dc:title />
      </cc:Work>
    </rdf:RDF>
  </metadata>
  <g
     inkscape:label="Layer 1"
     inkscape:groupmode="layer"
     id="layer1"
     transform="translate(0,-280.06665)">
    <path
       style="fill:#000000;stroke-width:0.02916996"
       d="m 2.2682462,295.03965 c -0.055005,-0.0281 -0.1403358,-0.10147 -0.1896037,-0.16313 l -0.089581,-0.11206 -0.0084,-1.01829 -0.0084,-1.01829 h -0.277487 c -0.1821794,0 -0.3045402,-0.0134 -0.3562543,-0.0412 -0.1057601,-0.0553 -0.2285056,-0.18832 -0.2665087,-0.2889 -0.043514,-0.11526 -0.043514,-9.6966 0,-9.8119 0.04217,-0.11173 0.1681073,-0.24133 0.2816058,-0.2899 0.078845,-0.0338 1.2249218,-0.0401 7.1612228,-0.0401 6.6707899,5e-5 7.0729709,0.003 7.1673809,0.0511 0.055,0.0281 0.140335,0.10148 0.189605,0.16314 l 0.08958,0.11206 0.0082,1.51448 0.0082,1.51449 -0.0726,0.0726 c -0.08681,0.0869 -0.189535,0.0929 -0.283502,0.0168 l -0.06887,-0.0558 -0.01462,-1.46839 -0.01462,-1.46838 H 8.508303 1.4929282 v 4.78387 4.78388 l 0.2406525,0.008 0.2406525,0.008 v -4.48009 -4.4801 l 0.071604,-0.0716 0.071604,-0.0716 h 6.3908729 6.3908729 l 0.0716,0.0716 0.0716,0.0716 v 4.4801 4.48009 l 0.240652,-0.008 0.240652,-0.008 0.01462,-2.89206 c 0.01411,-2.79202 0.01647,-2.8942 0.07016,-2.95347 0.08113,-0.0897 0.23017,-0.0822 0.306939,0.0151 0.06025,0.0766 0.06045,0.0872 0.06045,2.97343 0,1.97564 -0.0099,2.92269 -0.03103,2.9787 -0.038,0.10064 -0.160749,0.23365 -0.266517,0.28891 -0.0517,0.0271 -0.174031,0.0412 -0.355925,0.0412 h -0.277157 l -0.0087,1.01829 -0.0087,1.01828 -0.08958,0.11206 c -0.160362,0.20057 -0.214922,0.21404 -0.866895,0.2141 -0.508962,3e-5 -0.590074,-0.007 -0.685493,-0.0551 -0.133901,-0.0684 -0.195068,-0.13441 -0.253354,-0.274 l -0.04526,-0.10837 -0.26943,-2.2e-4 c -0.439872,-2.1e-4 -0.612098,-0.0828 -0.710486,-0.34041 -0.04755,-0.12449 -0.04876,-0.18027 -0.01579,-0.7357 0.01959,-0.33055 0.04353,-0.65679 0.05319,-0.72497 l 0.01756,-0.12398 H 8.5082912 4.8543651 l 0.017053,0.12398 c 0.00941,0.0682 0.033181,0.39479 0.052888,0.72579 0.033047,0.55531 0.031871,0.61215 -0.015289,0.7357 -0.098805,0.25873 -0.2700452,0.33933 -0.7214988,0.33959 l -0.2807607,1.1e-4 -0.016129,0.081 c -0.022815,0.11408 -0.123216,0.2317 -0.2552204,0.29904 -0.1009887,0.0516 -0.1729929,0.0575 -0.6900278,0.0575 -0.4919415,-2e-5 -0.5920532,-0.008 -0.6772896,-0.0511 z m 1.21799,-0.61982 c 0.0126,-0.28812 -0.045194,-1.4499 -0.098536,-1.98356 -0.040271,-0.40288 -0.039717,-0.42643 0.01176,-0.49588 0.084843,-0.11458 0.2924674,-0.11576 0.3533496,-0.002 0.036021,0.0674 0.1078601,0.80203 0.1314147,1.34383 0.00941,0.21659 0.024579,0.51568 0.033702,0.66463 l 0.016633,0.27085 0.2816091,-0.008 0.2816075,-0.008 -0.00672,-0.42298 c -0.017372,-1.08295 -0.2452055,-2.54106 -0.6244331,-3.99627 -0.081533,-0.31286 -0.1548684,-0.59835 -0.1629999,-0.63446 -0.014785,-0.0657 -0.014953,-0.0657 -0.6531,-0.0657 h -0.638339 v 2.76628 c 0,1.52147 0.00907,2.77533 0.020094,2.78639 0.011088,0.0118 0.2506119,0.0168 0.5323521,0.0118 l 0.5122534,-0.008 z m 11.1116828,-2.55967 0.0074,-2.77844 h -0.635693 -0.635695 l -0.05039,0.18232 c -0.460455,1.66606 -0.745419,3.37587 -0.759618,4.5578 l -0.0045,0.37921 0.281609,0.008 0.281608,0.008 0.01663,-0.27085 c 0.0091,-0.14902 0.02429,-0.44805 0.0337,-0.66463 0.02355,-0.5418 0.09539,-1.27655 0.131414,-1.34383 0.06089,-0.11374 0.269044,-0.11257 0.352392,0.002 0.05022,0.0691 0.05082,0.0963 0.01126,0.51049 -0.08085,0.84757 -0.129332,2.13633 -0.08214,2.18353 0.01109,0.0118 0.25061,0.0168 0.532352,0.0118 l 0.512254,-0.008 z m -2.359168,0.2103 c 0.01799,-0.12097 0.03271,-0.23256 0.03271,-0.24795 0,-0.0176 -0.958529,-0.028 -2.5961254,-0.028 -2.5572335,0 -2.5970007,-9e-4 -2.6544656,-0.0583 -0.078594,-0.0786 -0.077065,-0.23652 0.00302,-0.30905 0.055459,-0.0502 0.1197214,-0.0564 0.6709087,-0.0645 l 0.609578,-0.008 v -3.86337 -3.86338 H 6.9955289 5.686676 l -0.035181,0.18231 c -0.1290458,0.66883 -0.4906075,1.8873 -0.592915,1.99813 -0.080946,0.0877 -0.2085566,0.0852 -0.2996783,-0.007 -0.039381,-0.0393 -0.071604,-0.087 -0.071604,-0.10584 0,-0.0188 0.065287,-0.23584 0.1450904,-0.4823 0.1224431,-0.37817 0.3249564,-1.14334 0.3947715,-1.49163 l 0.019002,-0.0948 H 3.8291021 2.4120413 v 1.83771 1.83771 H 3.1555087 3.898976 l 0.070428,-0.11156 c 0.038742,-0.0613 0.1321708,-0.23529 0.2076376,-0.3865 0.075468,-0.15121 0.1643607,-0.30446 0.1975454,-0.34057 0.1084818,-0.11794 0.3145098,-0.062 0.3542417,0.0964 0.021942,0.0874 -0.048957,0.25675 -0.2763119,0.66006 l -0.1483833,0.26322 0.045731,0.11424 c 0.035063,0.0877 0.04558,0.2247 0.045093,0.58771 -7.174e-4,0.52908 -0.0334,0.65852 -0.1967255,0.77928 l -0.08612,0.0637 0.070328,0.2382 c 0.1053065,0.35668 0.3164789,1.23559 0.4055812,1.6881 l 0.078711,0.39975 0.7858957,0.008 0.7858957,0.008 0.055728,0.0689 c 0.073587,0.0909 0.070563,0.20328 -0.00773,0.28658 -0.063053,0.0672 -0.06769,0.0675 -0.8021739,0.0675 -0.4520786,0 -0.738748,0.0101 -0.738748,0.0281 0,0.0151 0.014785,0.12701 0.032711,0.24794 l 0.032711,0.21997 h 3.6974919 3.6974934 z m 0.162076,-0.9833 c 0.07216,-0.39518 0.269474,-1.2339 0.394148,-1.67534 l 0.108617,-0.38457 -0.08541,-0.0632 c -0.162597,-0.12029 -0.195309,-0.25017 -0.196023,-0.77876 -4.42e-4,-0.36356 0.01008,-0.5 0.04521,-0.588 l 0.04585,-0.11458 -0.138269,-0.24333 c -0.4823,-0.84882 -0.998846,-2.31309 -1.210038,-3.43015 l -0.03448,-0.18231 H 10.021578 8.7127249 v 3.86501 3.86502 h 1.8194141 1.819418 z m -8.457383,-2.89512 v -0.43755 l -0.7657114,-0.008 -0.7657115,-0.008 v 0.45311 0.4531 l 0.7657115,-0.008 0.7657114,-0.008 z m 10.661618,-4.3e-4 v -0.45263 l -0.765711,0.008 -0.765712,0.008 -0.0082,0.40696 c -0.0045,0.22384 -0.0016,0.42402 0.0064,0.44485 0.01142,0.0297 0.178285,0.0378 0.773865,0.0378 h 0.759336 z m 0,-2.72692 v -1.83774 h -1.416063 -1.416066 l 0.01976,0.10938 c 0.0987,0.54656 0.447433,1.70417 0.696822,2.31306 0.136236,0.33262 0.440676,0.95525 0.557832,1.14083 l 0.07078,0.11223 h 0.743469 0.743467 z"
       id="path9119"
       inkscape:connector-curvature="0" />
    <path
       style="fill:#f9f9f9;stroke-width:0.00472495;stroke-miterlimit:4;stroke-dasharray:none"
       d="m 2.4388282,288.1716 c 0,-0.38595 0.0084,-0.4388 0.065909,-0.41673 0.036256,0.0134 0.3737909,0.0254 0.7500851,0.0254 h 0.6841695 v 0.41671 0.41672 H 3.1889067 2.4388215 Z"
       id="path9121"
       inkscape:connector-curvature="0" />
    <path
       style="fill:#f9f9f9;stroke-width:0.00472495;stroke-miterlimit:4;stroke-dasharray:none"
       d="m 4.8136386,292.20775 c -2.637e-4,-0.0401 -0.012096,-0.14331 -0.026293,-0.22919 l -0.025823,-0.15625 0.6826104,-6e-4 c 0.7604713,-6.9e-4 0.8823046,-0.0306 0.9043991,-0.22165 0.023067,-0.19958 -0.046706,-0.23562 -0.4664986,-0.24103 -0.2091966,-0.003 -0.5661348,-0.0168 -0.7931956,-0.0312 l -0.4128373,-0.0264 -0.096957,-0.47207 c -0.053325,-0.25964 -0.172158,-0.76505 -0.2640659,-1.12312 l -0.1670993,-0.65104 0.1143452,-0.11946 0.1143453,-0.11945 0.00336,-0.71597 0.00336,-0.71598 0.1737322,-0.31609 c 0.2045764,-0.3722 0.2232268,-0.54548 0.069555,-0.64617 -0.094789,-0.0622 -0.1131356,-0.0623 -0.2034912,-0.003 -0.054619,0.0358 -0.1924581,0.23953 -0.306301,0.45276 l -0.2069857,0.38768 -0.7354837,0.0118 -0.7354854,0.0118 v -1.81367 -1.81366 h 1.3918666 1.3918666 l -0.063154,0.28128 c -0.034727,0.15473 -0.1479633,0.57194 -0.2516233,0.92719 -0.2505145,0.85853 -0.254434,0.89143 -0.1169493,0.98151 0.087649,0.0575 0.1304066,0.0628 0.2102568,0.0264 0.082357,-0.0375 0.1332291,-0.14818 0.2852044,-0.62057 0.101728,-0.31618 0.2382114,-0.80461 0.3032904,-1.08537 l 0.118327,-0.51047 H 6.99037 8.272824 v 3.82944 3.82942 l -0.6064043,0.0304 c -0.6452474,0.0323 -0.72708,0.0602 -0.72708,0.24709 0,0.21379 -0.051292,0.20959 2.7150084,0.22267 l 2.5772569,0.0118 v 0.0971 c 0,0.0534 -0.01176,0.15574 -0.02604,0.22742 l -0.02604,0.1302 H 8.4968181 c -3.4793859,0 -3.6827326,-0.003 -3.683166,-0.0729 z"
       id="path9123"
       inkscape:connector-curvature="0" />
    <path
       style="fill:#f9f9f9;stroke-width:0.00472495;stroke-miterlimit:4;stroke-dasharray:none"
       d="m 2.4388282,291.86396 v -2.7503 h 0.6213637 0.6213619 l 0.2098955,0.86468 c 0.35549,1.46446 0.517166,2.48792 0.5726989,3.62541 l 0.028998,0.59382 H 4.2216997 3.9502516 l -0.027704,-0.57299 c -0.036205,-0.74877 -0.1098426,-1.54979 -0.1529027,-1.66329 -0.048419,-0.12769 -0.1875221,-0.16045 -0.3178951,-0.0751 -0.107877,0.0707 -0.1080786,0.0719 -0.081466,0.4931 0.078946,1.24986 0.1170501,2.11568 0.095529,2.17173 -0.019825,0.0516 -0.1159245,0.0632 -0.5256201,0.0632 H 2.4388266 Z"
       id="path9125"
       inkscape:connector-curvature="0" />
    <path
       style="fill:#f9f9f9;stroke-width:0.00472495;stroke-miterlimit:4;stroke-dasharray:none"
       d="m 8.7312056,287.48847 v -3.83376 h 1.2910174 1.291019 l 0.02043,0.0937 c 0.289038,1.32639 0.703527,2.52839 1.170661,3.39485 0.156733,0.29072 0.178401,0.3588 0.14346,0.45068 -0.05418,0.14247 -0.05252,0.95619 0.0024,1.1538 0.02369,0.0852 0.08253,0.18268 0.130743,0.21646 l 0.08768,0.0615 -0.212769,0.867 c -0.117016,0.47685 -0.235461,0.99357 -0.263197,1.14829 l -0.05044,0.28128 h -1.805543 -1.8055 z"
       id="path9127"
       inkscape:connector-curvature="0" />
    <path
       style="fill:#f9f9f9;stroke-width:0.00472495;stroke-miterlimit:4;stroke-dasharray:none"
       d="m 13.566727,294.02046 c 9.02e-4,-0.32661 0.02695,-0.90279 0.05788,-1.28041 0.03105,-0.37901 0.04101,-0.7267 0.02223,-0.77608 -0.04005,-0.10534 -0.217745,-0.16111 -0.327075,-0.10248 -0.105743,0.0566 -0.134052,0.28709 -0.237047,1.92982 l -0.02547,0.40631 h -0.270487 -0.270489 l 0.02596,-0.46881 c 0.07365,-1.32988 0.330331,-2.87916 0.702476,-4.24006 l 0.09686,-0.35421 0.61181,-0.0118 0.611813,-0.0118 v 2.75143 2.75142 H 14.06513 13.565074 l 0.0016,-0.59382 z"
       id="path9129"
       inkscape:connector-curvature="0" />
    <path
       style="fill:#f9f9f9;stroke-width:0.00472495;stroke-miterlimit:4;stroke-dasharray:none"
       d="m 13.084667,288.52649 c -0.01529,-0.0479 -0.01462,-0.23462 0.0014,-0.41489 l 0.02901,-0.32778 0.725126,-0.0118 0.725124,-0.0118 -5.2e-5,0.42712 -5.4e-5,0.42714 h -0.726438 c -0.700315,0 -0.727435,-0.003 -0.754089,-0.0872 z"
       id="path9131"
       inkscape:connector-curvature="0" />
    <path
       style="fill:#ececec;stroke-width:0.00472495;stroke-miterlimit:4;stroke-dasharray:none"
       d="m 12.795701,286.64462 c -0.171365,-0.3495 -0.397532,-0.88864 -0.502593,-1.19804 -0.19689,-0.57986 -0.477856,-1.59004 -0.478089,-1.71896 -1.23e-4,-0.068 0.09307,-0.0729 1.375022,-0.0729 h 1.375157 v 1.8127 1.81271 h -0.728962 -0.728962 z"
       id="path9133"
       inkscape:connector-curvature="0" />
    <path
       style="fill:none;stroke:#000000;stroke-width:0.00330746;stroke-linecap:butt;stroke-linejoin:miter;stroke-miterlimit:4;stroke-dasharray:none;stroke-opacity:1"
       d="m 15.97805,285.61116 -0.01378,1.13373"
       id="path9135"
       inkscape:connector-curvature="0" />
    <path
       style="fill:#ffffff;stroke-width:0.00118124;stroke-miterlimit:4;stroke-dasharray:none"
       d="m 15.052411,287.80991 v -4.47794 l -0.07629,-0.0763 -0.07629,-0.0763 H 12.059119 9.2184076 v -0.2344 -0.23441 h 3.1497324 3.14973 l 0.0069,0.59643 c 0.0037,0.32803 0.0094,0.93865 0.01243,1.35692 0.003,0.41828 0.0082,0.81207 0.01159,0.87509 l 0.006,0.11458 0.05247,0.041 c 0.107154,0.0837 0.208214,0.0805 0.301829,-0.0101 0.02702,-0.0259 0.05163,-0.0472 0.05469,-0.0472 0.0079,0 0.0069,0.40056 -0.0014,0.66767 -0.004,0.12617 -0.01025,0.2108 -0.01462,0.19484 -0.03038,-0.11273 -0.187108,-0.17068 -0.296131,-0.10954 -0.06551,0.0368 -0.07663,0.0711 -0.08864,0.2741 -0.01109,0.18597 -0.02522,1.78549 -0.03708,4.17405 l -0.0071,1.43507 h -0.05952 c -0.03275,0 -0.137631,0.003 -0.233086,0.007 l -0.173559,0.007 z"
       id="path9137"
       inkscape:connector-curvature="0" />
    <path
       style="fill:#000000;stroke-width:0.01920989"
       d="m 8.1365279,293.3535 c -0.8066219,-0.0878 -1.5595542,-0.44492 -2.1150283,-1.00316 -0.4536658,-0.45594 -0.7646619,-0.99952 -0.9200687,-1.6082 -0.053138,-0.20813 -0.050333,-0.2603 0.017672,-0.3283 0.1158007,-0.1158 0.2807466,-0.0464 0.327,0.13771 0.1578881,0.62826 0.4125348,1.08549 0.84477,1.51683 0.7267494,0.72523 1.7084287,1.04222 2.7101052,0.87511 0.6321725,-0.10546 1.2187269,-0.40908 1.6785109,-0.86887 1.218157,-1.21815 1.218157,-3.1762 0,-4.39436 -1.054288,-1.05429 -2.6816285,-1.21229 -3.9260675,-0.3812 -0.3007083,0.20083 -0.651917,0.54984 -0.8430913,0.83782 -0.2189964,0.3299 -0.3612508,0.65669 -0.4642273,1.06644 -0.046256,0.18405 -0.2111993,0.25352 -0.327,0.13772 -0.065105,-0.0651 -0.06962,-0.11391 -0.027372,-0.29608 0.113137,-0.48784 0.4239282,-1.0844 0.7652112,-1.46882 l 0.1244562,-0.14019 0.00885,-0.85872 c 0.00812,-0.78842 0.012226,-0.87402 0.050122,-1.04549 0.2320895,-1.05011 1.0645178,-1.82359 2.1153755,-1.96556 0.2540995,-0.0343 0.3990367,-0.0343 0.6531362,0 0.8573689,0.11583 1.603679,0.66929 1.943883,1.44155 0.205602,0.46672 0.226018,0.61492 0.226482,1.64398 l 3.79e-4,0.77953 0.101809,0.11373 c 0.460768,0.51472 0.75128,1.13315 0.861071,1.83301 0.01415,0.0902 0.02562,0.31374 0.02562,0.49946 0,0.35441 -0.02162,0.54305 -0.09725,0.84875 -0.332325,1.34314 -1.460588,2.37883 -2.8308322,2.59856 -0.2314823,0.0371 -0.6919486,0.0518 -0.9034726,0.0287 z m -1.323867,-6.54276 0.094434,-0.0514 v -0.40744 c 0,-0.44275 0.024139,-0.64505 0.1028593,-0.86191 0.1551938,-0.42755 0.5485437,-0.80731 0.977011,-0.94324 0.4303849,-0.13654 0.8044981,-0.10885 1.2048806,0.0892 0.1801411,0.0891 0.2246423,0.12208 0.396275,0.29371 0.1723869,0.17239 0.2040435,0.21521 0.2920255,0.39505 0.1540137,0.31481 0.1619007,0.35763 0.1721397,0.93444 l 0.0089,0.5022 0.09901,0.0529 c 0.05446,0.0291 0.174648,0.10374 0.267096,0.1659 l 0.168087,0.11302 -5.8e-5,-0.62008 c -7.1e-5,-0.67366 -0.016,-0.83576 -0.109118,-1.10993 -0.331632,-0.97651 -1.3396145,-1.58414 -2.340086,-1.41064 -0.7385383,0.12807 -1.3395967,0.60878 -1.6147559,1.29143 -0.1383906,0.34334 -0.1466009,0.40468 -0.1568295,1.17181 l -0.00904,0.67802 0.1763603,-0.11581 c 0.096998,-0.0637 0.2188548,-0.13893 0.2707937,-0.16719 z m 0.6277695,-0.26467 c 0.1981041,-0.0674 0.4873707,-0.12228 0.7815698,-0.14832 0.409464,-0.0363 0.8799622,0.0162 1.2988293,0.14485 l 0.1524905,0.0468 -3.798e-4,-0.33943 c -2.178e-4,-0.22261 -0.010007,-0.38569 -0.028441,-0.47388 -0.09076,-0.43419 -0.4714206,-0.81079 -0.9151015,-0.90535 -0.5162315,-0.11002 -1.0689821,0.15671 -1.3012697,0.62792 -0.1110465,0.22526 -0.1361469,0.36543 -0.1365465,0.76248 -1.893e-4,0.18226 0.00252,0.33137 0.00592,0.33137 0.00347,0 0.067739,-0.0209 0.1428964,-0.0465 z m 0.8960131,4.80353 c -0.1789178,-0.0449 -0.3362477,-0.17696 -0.4150787,-0.34838 -0.040953,-0.089 -0.044622,-0.12609 -0.050388,-0.50858 l -0.00619,-0.41254 -0.083529,-0.0893 c -0.1708049,-0.18259 -0.2748494,-0.48501 -0.249561,-0.72536 0.053274,-0.50636 0.4409858,-0.86587 0.9410262,-0.87258 0.2786854,-0.003 0.4979771,0.0856 0.6910153,0.28164 0.3581168,0.36362 0.3717988,0.93025 0.031456,1.30264 l -0.096018,0.10506 -0.00592,0.42109 c -0.00565,0.40484 -0.00771,0.4247 -0.053641,0.51462 -0.1338189,0.26202 -0.4279812,0.40078 -0.7032044,0.33169 z m 0.2381085,-0.38484 c 0.1269714,-0.0657 0.1277229,-0.0687 0.138473,-0.5562 0.01098,-0.49797 0.00613,-0.47876 0.1643455,-0.65052 0.2332583,-0.25322 0.2398246,-0.58296 0.016195,-0.81306 -0.2946995,-0.30322 -0.7869694,-0.19836 -0.9505156,0.20248 -0.015344,0.0377 -0.026896,0.12652 -0.026215,0.20171 0.0015,0.16978 0.049366,0.28134 0.1797592,0.41921 0.1494729,0.15805 0.1552019,0.18159 0.1552019,0.63767 0,0.43887 0.009,0.47963 0.120994,0.54792 0.072795,0.0444 0.1308108,0.0475 0.2017719,0.0108 z m -3.4850407,-0.92564 c -0.1374846,-0.0678 -0.135716,-0.25821 0.003,-0.32404 0.1002562,-0.0476 0.1747408,-0.031 0.2437367,0.0541 0.067937,0.0839 0.02987,0.22514 -0.07515,0.27885 -0.056167,0.0287 -0.09984,0.0264 -0.1715979,-0.009 z m 5.7844257,0.0123 c -0.116856,-0.0478 -0.153874,-0.20658 -0.06919,-0.29673 0.06101,-0.0649 0.138268,-0.0794 0.219305,-0.0409 0.142921,0.0678 0.144561,0.25878 0.0028,0.32605 -0.06927,0.0329 -0.09596,0.0349 -0.152916,0.0116 z M 10.76445,289.4561 c -0.03789,-0.0299 -0.06551,-0.086 -0.102577,-0.20838 -0.248845,-0.82158 -0.8986342,-1.42099 -1.7229429,-1.58939 -0.076814,-0.0157 -0.2290153,-0.0359 -0.3382273,-0.0449 -0.1776407,-0.0147 -0.2039107,-0.0218 -0.2492921,-0.0672 -0.071653,-0.0716 -0.070668,-0.18451 0.00225,-0.25724 0.050837,-0.0506 0.060483,-0.0528 0.2396871,-0.051 0.5556061,0.005 1.1870224,0.25577 1.6379512,0.64903 0.337372,0.29424 0.620391,0.72225 0.767062,1.16004 0.09821,0.29314 0.06982,0.42182 -0.09719,0.44048 -0.06705,0.007 -0.09574,10e-4 -0.136712,-0.0315 z"
       id="path9034"
       inkscape:connector-curvature="0" />
    <path
       style="fill:none;stroke:#000000;stroke-width:0.00217813;stroke-linecap:butt;stroke-linejoin:miter;stroke-miterlimit:4;stroke-dasharray:none;stroke-opacity:1"
       d="m 5.2383348,289.16303 -0.048025,0.69292 0.061742,0.63119"
       id="path9036"
       inkscape:connector-curvature="0" />
    <path
       style="fill:#f9f9f9;stroke-width:0.00220024;stroke-miterlimit:4;stroke-dasharray:none"
       d="m 8.0141201,292.94101 c -0.850015,-0.13351 -1.6272941,-0.63658 -2.1163959,-1.36978 -0.1874896,-0.28106 -0.3187557,-0.57757 -0.4350003,-0.98258 -0.039448,-0.13746 -0.1175215,-0.23909 -0.1836475,-0.23909 -0.026378,0 -0.049067,-0.0984 -0.04923,-0.21345 -7.97e-5,-0.0549 0.010844,-0.0741 0.056739,-0.10025 0.08183,-0.0466 0.114122,-0.16191 0.069487,-0.24823 -0.018781,-0.0363 -0.058059,-0.0731 -0.091379,-0.0856 -0.055683,-0.0209 -0.057889,-0.0259 -0.046807,-0.1071 0.0064,-0.0468 0.011627,-0.11016 0.011627,-0.14069 0,-0.0454 0.00834,-0.0555 0.045867,-0.0555 0.089199,0 0.1391993,-0.0829 0.2434065,-0.40332 0.1714373,-0.52725 0.3757885,-0.87786 0.7187461,-1.23316 0.3099689,-0.32113 0.6158956,-0.5449 0.9518778,-0.69626 1.1748305,-0.5293 2.5000891,-0.30855 3.4264822,0.57074 0.457249,0.43401 0.761812,0.97732 0.903195,1.61122 0.06276,0.28141 0.07242,0.82527 0.02009,1.13234 -0.169301,0.99359 -0.803357,1.84291 -1.7009985,2.2785 -0.4559673,0.22125 -0.8563479,0.31174 -1.3651247,0.30852 -0.1670344,-10e-4 -0.3735571,-0.0129 -0.4589387,-0.0263 z m 0.7170497,-1.6188 c 0.1193425,-0.0528 0.2533616,-0.18255 0.3102732,-0.30044 0.045003,-0.0932 0.04906,-0.12721 0.061619,-0.51697 l 0.013451,-0.41721 0.085113,-0.10464 c 0.1925133,-0.23666 0.2465972,-0.39471 0.2356613,-0.68862 -0.0066,-0.17835 -0.01388,-0.21023 -0.078914,-0.34708 -0.1198368,-0.25218 -0.3335875,-0.44428 -0.5795271,-0.52083 -0.1457255,-0.0453 -0.3913907,-0.0485 -0.5505974,-0.007 -0.4880725,0.12713 -0.805381,0.65918 -0.6800616,1.14031 0.039659,0.15225 0.1327651,0.33031 0.2251011,0.43049 l 0.077149,0.0837 0.014724,0.43376 c 0.014608,0.43037 0.015167,0.43457 0.071519,0.53774 0.083827,0.15348 0.2347906,0.27051 0.4073205,0.31575 0.089476,0.0235 0.292176,0.003 0.3871662,-0.0389 z m 2.2920342,-1.27273 c 0.07806,-0.0326 0.1329,-0.13636 0.113319,-0.21437 -0.019,-0.0757 -0.115206,-0.14532 -0.200805,-0.14532 -0.151913,0 -0.231667,0.16988 -0.14398,0.30667 0.05044,0.0787 0.127679,0.0964 0.231466,0.053 z m -0.01696,-0.60064 c 0.04847,-0.0417 0.05404,-0.0585 0.05081,-0.15305 -0.0045,-0.13119 -0.07841,-0.35691 -0.190704,-0.58243 -0.26714,-0.53645 -0.667453,-0.94136 -1.183405,-1.19699 -0.389612,-0.19304 -0.7085938,-0.27602 -1.0736513,-0.27931 -0.2178357,-0.002 -0.2202611,-10e-4 -0.2668175,0.0524 -0.054717,0.0634 -0.063056,0.17594 -0.017815,0.24053 0.038202,0.0546 0.1122902,0.0759 0.3575381,0.10292 0.5475689,0.0604 1.0052864,0.27081 1.3700347,0.62977 0.265457,0.26124 0.439413,0.54295 0.591812,0.9584 0.04275,0.11655 0.09395,0.2215 0.117402,0.24065 0.06145,0.0502 0.178708,0.044 0.244802,-0.0129 z"
       id="path9048"
       inkscape:connector-curvature="0" />
    <path
       style="fill:#f9f9f9;stroke-width:0.00220024;stroke-miterlimit:4;stroke-dasharray:none"
       d="m 8.3993612,290.95201 c -0.1173249,-0.0525 -0.1271852,-0.0918 -0.1414131,-0.56364 -0.014023,-0.46513 -0.013683,-0.46378 -0.1643591,-0.64031 -0.1207557,-0.14146 -0.1542026,-0.21974 -0.1631814,-0.38193 -0.00647,-0.11709 -1.45e-4,-0.15577 0.039775,-0.24256 0.055956,-0.12167 0.1648267,-0.23303 0.2865035,-0.29304 0.1228435,-0.0606 0.344624,-0.06 0.4603274,10e-4 0.2104437,0.1113 0.326548,0.29352 0.3241913,0.50881 -0.0017,0.15596 -0.046923,0.26283 -0.1724073,0.40751 -0.1432749,0.16518 -0.1489256,0.18776 -0.1654095,0.66085 -0.00809,0.23234 -0.023907,0.43606 -0.035541,0.45779 -0.053117,0.0992 -0.1609187,0.13352 -0.2684866,0.0854 z"
       id="path9050"
       inkscape:connector-curvature="0" />
    <path
       style="fill:#f9f9f9;stroke-width:0.00220024;stroke-miterlimit:4;stroke-dasharray:none"
       d="m 6.3826783,286.44718 c 0.01533,-0.69777 0.027747,-0.82721 0.1000479,-1.04314 0.2333897,-0.69702 0.7840048,-1.21816 1.4795565,-1.40033 0.4968076,-0.13013 0.9868814,-0.079 1.4489917,0.15117 0.4322848,0.2153 0.8246336,0.62732 1.0021376,1.05237 0.147994,0.3544 0.176514,0.5806 0.168076,1.33303 l -0.0059,0.52771 -0.222029,-0.14434 c -0.122115,-0.0794 -0.236723,-0.14901 -0.254682,-0.1547 -0.02916,-0.009 -0.03372,-0.0647 -0.04267,-0.51922 -0.0115,-0.58407 -0.01932,-0.62652 -0.171514,-0.93061 -0.087303,-0.17443 -0.1241172,-0.22361 -0.2962474,-0.3957 -0.2092034,-0.20915 -0.3444294,-0.29386 -0.6177009,-0.38692 -0.8141563,-0.27726 -1.7489349,0.20582 -1.9925572,1.02975 -0.058509,0.19787 -0.07983,0.41835 -0.07983,0.82548 v 0.36077 l -0.082471,0.0459 c -0.045357,0.0252 -0.1523286,0.0906 -0.2377109,0.14525 -0.085381,0.0546 -0.1674006,0.10676 -0.182265,0.11578 -0.022988,0.014 -0.024969,-0.0775 -0.013206,-0.61224 z"
       id="path9052"
       inkscape:connector-curvature="0" />
    <path
       style="fill:#ffffff;stroke-width:0.00477237;stroke-miterlimit:4;stroke-dasharray:none"
       d="M 5.6710826,28.058898 V 10.002421 h 26.4344624 26.43446 l 0.08204,1.15582 c 0.04512,0.635701 0.08204,3.124464 0.08204,5.530585 0,2.920625 0.04461,4.419374 0.134205,4.508971 0.08733,0.08733 0.111473,0.65846 0.06912,1.635184 -0.0358,0.825538 -0.119051,6.387592 -0.185007,12.360119 -0.06595,5.972527 -0.125469,10.873345 -0.132252,10.890707 -0.0068,0.01736 -0.38167,0.03157 -0.833082,0.03157 H 56.936324 V 29.217329 12.319285 L 56.64408,12.044737 56.351837,11.770188 h -24.24752 c -23.3302424,0 -24.2554255,0.0087 -24.4564937,0.230914 -0.1922666,0.212452 -0.2089738,1.585377 -0.2089738,17.172593 V 46.115374 H 6.5549661 5.6710826 Z"
       id="path24"
       inkscape:connector-curvature="0"
       transform="matrix(0.26458333,0,0,0.26458333,0,280.06665)" />
  </g>
</svg>
