<?xml version="1.0" encoding="UTF-8" standalone="no"?>
<!-- Created with Inkscape (http://www.inkscape.org/) -->

<svg
   xmlns:dc="http://purl.org/dc/elements/1.1/"
   xmlns:cc="http://creativecommons.org/ns#"
   xmlns:rdf="http://www.w3.org/1999/02/22-rdf-syntax-ns#"
   xmlns:svg="http://www.w3.org/2000/svg"
   xmlns="http://www.w3.org/2000/svg"
   xmlns:sodipodi="http://sodipodi.sourceforge.net/DTD/sodipodi-0.dtd"
   xmlns:inkscape="http://www.inkscape.org/namespaces/inkscape"
   width="64"
   height="64"
   viewBox="0 0 16.933333 16.933334"
   version="1.1"
   id="svg8"
   inkscape:version="0.92.5 (2060ec1f9f, 2020-04-08)"
   sodipodi:docname="lock_64x64.svg">
  <defs
     id="defs2" />
  <sodipodi:namedview
     id="base"
     pagecolor="#ffffff"
     bordercolor="#666666"
     borderopacity="1.0"
     inkscape:pageopacity="0.0"
     inkscape:pageshadow="2"
     inkscape:zoom="3.959798"
     inkscape:cx="93.660385"
     inkscape:cy="62.124224"
     inkscape:document-units="mm"
     inkscape:current-layer="layer1"
     showgrid="false"
     units="px"
     inkscape:window-width="1208"
     inkscape:window-height="987"
     inkscape:window-x="1992"
     inkscape:window-y="0"
     inkscape:window-maximized="1" />
  <metadata
     id="metadata5">
    <rdf:RDF>
      <cc:Work
         rdf:about="">
        <dc:format>image/svg+xml</dc:format>
        <dc:type
           rdf:resource="http://purl.org/dc/dcmitype/StillImage" />
        <dc:title></dc:title>
      </cc:Work>
    </rdf:RDF>
  </metadata>
  <g
     inkscape:label="Layer 1"
     inkscape:groupmode="layer"
     id="layer1"
     transform="translate(0,-280.06665)">
    <path
       style="fill:#000000;stroke-width:0.02821962"
       d="m 7.7664313,295.83853 c -1.1849394,-0.12898 -2.291009,-0.65359 -3.1070093,-1.47366 -0.6664416,-0.66978 -1.1232994,-1.46831 -1.3515949,-2.36246 -0.078063,-0.30576 -0.073939,-0.38239 0.025956,-0.48228 0.1701132,-0.17011 0.4124218,-0.0681 0.4803686,0.2023 0.2319397,0.92292 0.60602,1.5946 1.2409795,2.22824 1.0676066,1.06538 2.5097086,1.53104 3.9811863,1.28555 0.9286713,-0.15492 1.7903285,-0.60095 2.4657585,-1.27639 1.789491,-1.78948 1.789491,-4.66588 0,-6.45538 -1.5487654,-1.54876 -3.9393534,-1.78087 -5.767454,-0.55998 -0.4417441,0.29502 -0.9576757,0.80772 -1.2385133,1.23077 -0.3217096,0.48463 -0.530683,0.96468 -0.681957,1.56662 -0.06795,0.27037 -0.3102554,0.37242 -0.4803686,0.20231 -0.095644,-0.0957 -0.1022727,-0.16734 -0.04021,-0.43495 0.1662003,-0.71664 0.6227573,-1.593 1.1241072,-2.15772 l 0.1828278,-0.20594 0.012996,-1.26148 c 0.011934,-1.1582 0.017958,-1.28394 0.073627,-1.53583 0.3409432,-1.54263 1.5637931,-2.67889 3.1075189,-2.88744 0.3732761,-0.0504 0.586191,-0.0504 0.9594671,0 1.2594879,0.17016 2.3558289,0.98319 2.8555939,2.11766 0.302032,0.68562 0.332024,0.90333 0.332706,2.41503 l 5.57e-4,1.14514 0.149559,0.16707 c 0.676874,0.75614 1.103641,1.66462 1.264925,2.69272 0.02079,0.13252 0.03763,0.46089 0.03763,0.73372 0,0.52063 -0.03176,0.79774 -0.142868,1.24682 -0.488191,1.9731 -2.145626,3.49454 -4.1585352,3.81733 -0.3400516,0.0545 -1.0164836,0.0761 -1.3272156,0.0422 z m -1.9447809,-9.61142 0.1387247,-0.0755 v -0.59854 c 0,-0.6504 0.035461,-0.94758 0.1511027,-1.26615 0.2279813,-0.62808 0.8058189,-1.18595 1.4352435,-1.38564 0.6322425,-0.20058 1.18182,-0.1599 1.769988,0.13102 0.2646306,0.13088 0.3300032,0.17934 0.5821344,0.43147 0.2532383,0.25324 0.2997423,0.31615 0.4289893,0.58033 0.226248,0.46246 0.237834,0.52536 0.252876,1.3727 l 0.01309,0.73775 0.145448,0.0777 c 0.08,0.0428 0.256561,0.15239 0.392368,0.2437 l 0.246922,0.16603 -8.5e-5,-0.91091 c -1.04e-4,-0.98961 -0.02351,-1.22774 -0.160295,-1.6305 -0.487173,-1.43451 -1.967915,-2.32712 -3.4376228,-2.07225 -1.084924,0.18814 -1.9678875,0.89431 -2.3721005,1.89713 -0.2032985,0.50437 -0.2153596,0.59448 -0.2303849,1.72141 l -0.013281,0.99601 0.2590753,-0.17012 c 0.1424913,-0.0936 0.3215016,-0.20409 0.3978,-0.24561 z m 0.9222029,-0.3888 c 0.2910181,-0.099 0.7159553,-0.17963 1.1481384,-0.21788 0.6015091,-0.0533 1.2926773,0.0238 1.9079996,0.21279 l 0.2240107,0.0688 -5.58e-4,-0.49862 c -3.2e-4,-0.32702 -0.0147,-0.56659 -0.041781,-0.69614 -0.1333274,-0.63784 -0.6925231,-1.19107 -1.3442974,-1.32997 -0.7583518,-0.16162 -1.5703507,0.2302 -1.9115849,0.92242 -0.163129,0.33091 -0.2000023,0.53682 -0.2005896,1.12009 -2.776e-4,0.26774 0.00366,0.48679 0.00866,0.48679 0.00509,0 0.099505,-0.0307 0.2099177,-0.0683 z m 1.3162568,7.05646 c -0.2628329,-0.066 -0.4939524,-0.25996 -0.6097563,-0.51178 -0.060158,-0.13081 -0.065549,-0.18523 -0.07402,-0.74711 l -0.00913,-0.60602 -0.1227051,-0.13118 c -0.2509155,-0.26824 -0.4037578,-0.71249 -0.3666096,-1.06557 0.078259,-0.74385 0.6478158,-1.27198 1.3823828,-1.28184 0.4093925,-0.005 0.7315358,0.12581 1.0151118,0.41374 0.5260791,0.53416 0.5461777,1.36655 0.046208,1.9136 l -0.1410525,0.15433 -0.00866,0.61859 c -0.0083,0.59471 -0.011327,0.62389 -0.078795,0.75599 -0.196582,0.38491 -0.6287106,0.58874 -1.0330173,0.48725 z m 0.3497858,-0.56533 c 0.1865229,-0.0965 0.1876261,-0.10088 0.2034181,-0.81707 0.016128,-0.73152 0.00901,-0.7033 0.2414268,-0.95562 0.3426596,-0.37199 0.3523055,-0.85638 0.023787,-1.1944 -0.4329185,-0.44544 -1.1560706,-0.2914 -1.3963227,0.29745 -0.022537,0.0553 -0.039513,0.18586 -0.038514,0.29631 0.00223,0.24941 0.07252,0.41329 0.2640691,0.61582 0.2195778,0.23218 0.2279946,0.26676 0.2279946,0.93675 0,0.64471 0.013219,0.70459 0.177742,0.80491 0.1069363,0.0652 0.192163,0.0697 0.2964056,0.0159 z m -5.1195781,-1.35978 c -0.2019677,-0.0996 -0.1993695,-0.37932 0.00437,-0.47602 0.1472772,-0.0699 0.2566966,-0.0456 0.3580526,0.0795 0.099804,0.12321 0.043878,0.33074 -0.1103958,0.40963 -0.082508,0.0422 -0.1466676,0.0388 -0.2520804,-0.0132 z m 8.4974092,0.018 c -0.171664,-0.0702 -0.226043,-0.30347 -0.101638,-0.43589 0.08963,-0.0954 0.203118,-0.11658 0.322163,-0.0601 0.209953,0.0996 0.212361,0.38015 0.0041,0.47897 -0.101763,0.0483 -0.140964,0.0512 -0.224637,0.017 z m -0.160838,-0.87453 c -0.05566,-0.0439 -0.09624,-0.12636 -0.150687,-0.30611 -0.365557,-1.20691 -1.320108,-2.08746 -2.5310292,-2.33484 -0.1128414,-0.023 -0.3364278,-0.0528 -0.4968613,-0.066 -0.2609567,-0.0216 -0.2995482,-0.032 -0.3662142,-0.0987 -0.1052592,-0.10526 -0.1038123,-0.27106 0.0033,-0.37789 0.07468,-0.0744 0.088854,-0.0775 0.3521038,-0.0749 0.8161939,0.008 1.7437539,0.37573 2.4061759,0.95344 0.495604,0.43224 0.911364,1.061 1.126826,1.70411 0.144273,0.43063 0.102563,0.61967 -0.142778,0.64708 -0.09849,0.011 -0.140642,0.002 -0.200832,-0.0462 z"
       id="path9034"
       inkscape:connector-curvature="0" />
    <path
       style="fill:none;stroke:#000000;stroke-width:0.00319971;stroke-linecap:butt;stroke-linejoin:miter;stroke-miterlimit:4;stroke-dasharray:none;stroke-opacity:1"
       d="m 3.5089415,289.68266 -0.070548,1.01791 0.090705,0.92723"
       id="path9036"
       inkscape:connector-curvature="0" />
    <path
       style="fill:#f9f9f9;stroke-width:0.00323219;stroke-miterlimit:4;stroke-dasharray:none"
       d="m 7.5866124,295.23257 c -1.248685,-0.19612 -2.3905202,-0.93514 -3.1090175,-2.01222 -0.2754252,-0.41289 -0.4682575,-0.84846 -0.6390224,-1.44343 -0.057954,-0.20192 -0.172641,-0.35123 -0.2697815,-0.35123 -0.038746,0 -0.072083,-0.14457 -0.072315,-0.31356 -1.169e-4,-0.0806 0.015932,-0.10892 0.083347,-0.14726 0.1202105,-0.0684 0.1676472,-0.23785 0.1020782,-0.36465 -0.027589,-0.0534 -0.085293,-0.10741 -0.134237,-0.12578 -0.081803,-0.0307 -0.085043,-0.0381 -0.068763,-0.15734 0.0094,-0.0688 0.017084,-0.16182 0.017084,-0.20667 0,-0.0667 0.012246,-0.0815 0.067379,-0.0815 0.1310353,0 0.2044865,-0.12171 0.357568,-0.59249 0.2518447,-0.77454 0.5520391,-1.28958 1.055849,-1.81153 0.4553493,-0.47174 0.9047605,-0.80047 1.3983229,-1.02282 1.7258448,-0.77755 3.6726689,-0.45326 5.0335549,0.83844 0.671706,0.63756 1.119113,1.43569 1.326807,2.3669 0.0922,0.41339 0.10638,1.21233 0.02952,1.66343 -0.248706,1.4596 -1.180143,2.70726 -2.498793,3.34714 -0.6698222,0.32503 -1.2579876,0.45796 -2.0053886,0.45323 -0.2453764,-0.002 -0.5487608,-0.0189 -0.6741882,-0.0387 z m 1.0533569,-2.37803 c 0.175316,-0.0776 0.3721926,-0.26818 0.4557966,-0.44135 0.066112,-0.13692 0.072065,-0.18688 0.090522,-0.75945 l 0.019761,-0.61288 0.1250329,-0.15372 c 0.2828048,-0.34766 0.3622548,-0.57983 0.3461897,-1.01159 -0.00975,-0.262 -0.020395,-0.30883 -0.1159262,-0.50987 -0.1760416,-0.37045 -0.4900448,-0.65265 -0.8513339,-0.7651 -0.2140725,-0.0666 -0.5749591,-0.0712 -0.8088357,-0.0104 -0.7169863,0.18675 -1.1831168,0.96834 -0.9990217,1.67513 0.058257,0.22365 0.1950344,0.48523 0.3306771,0.63239 l 0.1133333,0.12295 0.021627,0.63719 c 0.021457,0.63222 0.022278,0.63839 0.1050629,0.78995 0.1231433,0.22547 0.3449115,0.39739 0.5983601,0.46385 0.1314423,0.0345 0.4292108,0.004 0.5687531,-0.0572 z m 3.3670327,-1.86966 c 0.114674,-0.0479 0.195232,-0.20032 0.166468,-0.31492 -0.02791,-0.1112 -0.16924,-0.21347 -0.294986,-0.21347 -0.223162,0 -0.340322,0.24955 -0.211508,0.4505 0.0741,0.1156 0.187562,0.14159 0.340026,0.0779 z m -0.02491,-0.88235 c 0.0712,-0.0613 0.07939,-0.086 0.07464,-0.22484 -0.0066,-0.19272 -0.115181,-0.52431 -0.280147,-0.85559 -0.392432,-0.78806 -0.980498,-1.38288 -1.73844,-1.75841 -0.572346,-0.28357 -1.0409347,-0.40547 -1.5772095,-0.41031 -0.3200039,-0.003 -0.3235669,-0.002 -0.3919591,0.077 -0.080384,0.0932 -0.092631,0.25845 -0.02617,0.35334 0.056124,0.0802 0.1649561,0.11145 0.5252286,0.15119 0.8043872,0.0887 1.476781,0.39783 2.012602,0.92514 0.38996,0.38377 0.645504,0.7976 0.869381,1.40791 0.0628,0.17121 0.138022,0.32539 0.172465,0.35351 0.09027,0.0737 0.262525,0.0646 0.359618,-0.019 z"
       id="path9048"
       inkscape:connector-curvature="0" />
    <path
       style="fill:#f9f9f9;stroke-width:0.00323219;stroke-miterlimit:4;stroke-dasharray:none"
       d="m 8.1525379,292.31071 c -0.1723527,-0.0772 -0.1868371,-0.13488 -0.2077381,-0.828 -0.0206,-0.68328 -0.0201,-0.6813 -0.2414464,-0.94062 -0.177392,-0.20781 -0.2265255,-0.32281 -0.2397157,-0.56106 -0.00952,-0.17201 -2.133e-4,-0.22884 0.058427,-0.35633 0.082196,-0.17873 0.2421327,-0.34232 0.4208779,-0.43048 0.1804589,-0.089 0.5062581,-0.0882 0.6762277,0.002 0.309145,0.1635 0.4797037,0.43118 0.4762423,0.74745 -0.0025,0.22911 -0.068932,0.3861 -0.2532692,0.59863 -0.2104729,0.24265 -0.2187736,0.27582 -0.2429887,0.97081 -0.011889,0.34131 -0.035122,0.64057 -0.052206,0.67249 -0.078027,0.1458 -0.2363919,0.19615 -0.394411,0.12541 z"
       id="path9050"
       inkscape:connector-curvature="0" />
    <path
       style="fill:#f9f9f9;stroke-width:0.00323219;stroke-miterlimit:4;stroke-dasharray:none"
       d="m 5.1899997,285.69304 c 0.022519,-1.02503 0.040763,-1.21518 0.1469719,-1.53239 0.3428524,-1.02393 1.1517149,-1.78949 2.1734905,-2.05711 0.7298186,-0.19116 1.4497441,-0.11606 2.1285914,0.22207 0.6350325,0.31628 1.2113995,0.92155 1.4721545,1.54596 0.217406,0.52061 0.259303,0.85291 0.246907,1.95823 l -0.0087,0.77522 -0.326164,-0.21204 c -0.179389,-0.11662 -0.34775,-0.21889 -0.374132,-0.22726 -0.04284,-0.0136 -0.04954,-0.0951 -0.06268,-0.76273 -0.0169,-0.85802 -0.02838,-0.92038 -0.251957,-1.36708 -0.12825,-0.25625 -0.18233,-0.32849 -0.4351916,-0.58129 -0.3073225,-0.30725 -0.5059717,-0.43169 -0.9074115,-0.56839 -1.196008,-0.40731 -2.5692126,0.30235 -2.9270975,1.51271 -0.085953,0.29067 -0.1172712,0.61456 -0.1172712,1.21264 v 0.52998 l -0.1211512,0.0674 c -0.066629,0.037 -0.2237729,0.1331 -0.3492003,0.21338 -0.1254265,0.0802 -0.2459145,0.15682 -0.26775,0.17008 -0.033774,0.0205 -0.036675,-0.11381 -0.019404,-0.8994 z"
       id="path9052"
       inkscape:connector-curvature="0" />
  </g>
</svg>
