<?xml version="1.0" encoding="UTF-8" standalone="no"?>
<!-- Created with Inkscape (http://www.inkscape.org/) -->

<svg
   xmlns:dc="http://purl.org/dc/elements/1.1/"
   xmlns:cc="http://creativecommons.org/ns#"
   xmlns:rdf="http://www.w3.org/1999/02/22-rdf-syntax-ns#"
   xmlns:svg="http://www.w3.org/2000/svg"
   xmlns="http://www.w3.org/2000/svg"
   xmlns:sodipodi="http://sodipodi.sourceforge.net/DTD/sodipodi-0.dtd"
   xmlns:inkscape="http://www.inkscape.org/namespaces/inkscape"
   width="64"
   height="64"
   viewBox="0 0 16.933333 16.933334"
   version="1.1"
   id="svg8"
   inkscape:version="0.92.5 (2060ec1f9f, 2020-04-08)"
   sodipodi:docname="main_room_64x64.svg">
  <defs
     id="defs2" />
  <sodipodi:namedview
     id="base"
     pagecolor="#ffffff"
     bordercolor="#666666"
     borderopacity="1.0"
     inkscape:pageopacity="0.0"
     inkscape:pageshadow="2"
     inkscape:zoom="3.959798"
     inkscape:cx="90.410943"
     inkscape:cy="-0.65991027"
     inkscape:document-units="mm"
     inkscape:current-layer="layer1"
     showgrid="false"
     units="px"
     inkscape:window-width="1208"
     inkscape:window-height="987"
     inkscape:window-x="1992"
     inkscape:window-y="0"
     inkscape:window-maximized="1" />
  <metadata
     id="metadata5">
    <rdf:RDF>
      <cc:Work
         rdf:about="">
        <dc:format>image/svg+xml</dc:format>
        <dc:type
           rdf:resource="http://purl.org/dc/dcmitype/StillImage" />
        <dc:title></dc:title>
      </cc:Work>
    </rdf:RDF>
  </metadata>
  <g
     inkscape:label="Layer 1"
     inkscape:groupmode="layer"
     id="layer1"
     transform="translate(0,-280.06665)">
    <path
       style="fill:#000000;stroke-width:0.03189164"
       d="m 1.5149266,296.33896 c -0.05614,-0.0569 -0.093462,-0.18886 -0.1804029,-0.63783 l -0.1096191,-0.56608 h -0.202297 c -0.17226185,0 -0.21391815,-0.0116 -0.28057665,-0.0783 l -0.078279,-0.0783 6.983e-4,-1.47644 c 6.026e-4,-1.36427 0.00517,-1.48613 0.059283,-1.604 0.1141914,-0.24867 0.29139065,-0.33486 0.68844965,-0.33486 h 0.2721032 l 6.983e-4,-0.91688 c 6.026e-4,-0.82125 0.00684,-0.9302 0.059283,-1.04445 0.06968,-0.15174 0.1407988,-0.21974 0.2989445,-0.28582 0.1038201,-0.0434 0.6526029,-0.049 4.7437381,-0.049 4.091135,0 4.639918,0.006 4.743739,0.049 0.158146,0.0661 0.229267,0.13408 0.298944,0.28582 0.05247,0.11425 0.05865,0.2232 0.05928,1.04445 l 6.98e-4,0.91688 h 0.272103 c 0.554766,0 0.746348,0.1903 0.747729,0.74272 l 6.98e-4,0.28029 0.277969,-0.009 0.277968,-0.009 0.102352,-0.61452 0.102353,-0.61452 -0.125188,-0.37263 c -0.06886,-0.20494 -0.125189,-0.40624 -0.125189,-0.44733 0,-0.041 0.03523,-0.10992 0.07828,-0.15298 0.06251,-0.0625 0.110828,-0.0783 0.239856,-0.0783 h 0.161576 l -0.342841,-0.41087 -0.342841,-0.41087 -0.140804,0.12394 c -0.237938,0.20944 -0.479024,0.2373 -0.710058,0.082 -0.252291,-0.16954 -0.450804,-0.70745 -0.455384,-1.23395 -0.0024,-0.26952 0.0067,-0.32057 0.08209,-0.46243 0.171543,-0.32284 0.427571,-0.47693 0.792292,-0.47683 0.44012,1.2e-4 0.726182,0.22682 0.873316,0.6921 0.01332,0.0421 0.05237,0.0558 0.159137,0.0558 h 0.141489 l -0.01678,-0.18506 c -0.03207,-0.35372 0.166951,-0.93598 0.436484,-1.27696 0.141651,-0.17921 0.398521,-0.32391 0.574986,-0.32391 0.389349,0 0.790198,0.47323 0.956563,1.12928 0.0762,0.30049 0.08024,0.46273 0.01684,0.67623 -0.09654,0.32509 -0.356454,0.59652 -0.657626,0.68675 l -0.1178,0.0353 -0.178715,0.62641 c -0.09829,0.34452 -0.178716,0.63689 -0.178716,0.64972 0,0.0129 0.108139,0.0233 0.240309,0.0233 0.448625,0 0.495107,0.1028 0.306526,0.67789 l -0.128042,0.39048 0.102461,0.60594 0.102462,0.60595 0.217201,0.0159 c 0.336486,0.0247 0.339073,0.0306 0.339073,0.77038 0,0.59861 -6.75e-4,0.60454 -0.07828,0.68214 -0.06429,0.0643 -0.109884,0.0783 -0.255133,0.0783 h -0.176896 v 1.1481 1.1481 h -0.255133 -0.255133 v -1.1481 -1.1481 H 13.930633 12.9101 v 0.43198 c 0,0.41613 -0.0029,0.43486 -0.07828,0.51027 -0.06666,0.0667 -0.108314,0.0783 -0.280575,0.0783 h -0.202296 l -0.109619,0.56608 c -0.145073,0.74916 -0.104228,0.70959 -0.732462,0.70959 -0.468459,0 -0.483358,-0.002 -0.559553,-0.0783 -0.07716,-0.0772 -0.07828,-0.0863 -0.07828,-0.63783 v -0.55955 H 10.358769 9.8485032 v -0.25513 -0.25513 h 1.2760308 1.276032 l -0.0083,-1.2677 -0.0083,-1.26769 h -0.494315 -0.49432 l -0.01595,0.95163 -0.01595,0.95164 -0.07529,0.0609 c -0.0733,0.0593 -0.192057,0.061 -4.5011614,0.061 -4.3091047,0 -4.4278586,-10e-4 -4.501161,-0.061 l -0.07529,-0.0609 -0.015948,-0.95164 -0.015948,-0.95163 H 1.6842355 1.1899152 l -0.00834,1.26769 -0.00834,1.2677 h 4.082497 4.0824955 v 0.25513 0.25513 H 6.0214957 2.7047652 v 0.55955 c 0,0.55158 -0.00112,0.56068 -0.07828,0.63783 -0.076195,0.0762 -0.091093,0.0783 -0.5595535,0.0783 -0.4568647,0 -0.4848644,-0.004 -0.5520577,-0.0718 z m 0.6796244,-0.82121 v -0.3827 H 1.9673238 1.7400953 l 0.017471,0.0877 c 0.00961,0.0482 0.042887,0.22045 0.073953,0.3827 l 0.056483,0.295 h 0.1532753 0.153274 z m 9.547823,0.0877 c 0.03107,-0.16225 0.06434,-0.33446 0.07395,-0.3827 l 0.01747,-0.0877 H 11.60657 11.379342 v 0.3827 0.3827 h 0.153275 0.153274 z m -5.2159318,-2.39932 -0.010572,-0.39812 -0.1042613,-0.10417 -0.1042607,-0.10417 H 4.6183176 2.9292877 l -0.1042613,0.10417 -0.1042614,0.10417 -0.010572,0.39812 -0.010572,0.39812 h 1.9187003 1.9187003 z m 4.3372628,0 -0.01058,-0.39812 -0.104261,-0.10417 -0.104261,-0.10417 H 8.9555745 7.2665439 l -0.1042606,0.10417 -0.1042614,0.10417 -0.010572,0.39812 -0.010572,0.39812 h 1.9187003 1.9187002 z m 4.597767,0.14299 v -0.25513 h -1.275665 -1.275665 v 0.25513 0.25513 h 1.275665 1.275665 z m -0.661721,-1.41121 -0.109454,-0.6458 0.07976,-0.24716 0.07976,-0.24716 H 14.44094 14.032061 l 0.07976,0.24716 0.07976,0.24716 -0.109454,0.6458 -0.109454,0.64581 h 0.468265 0.468265 z m -7.9645921,0.35818 c 0.026108,-0.0423 0.2933842,-0.17556 0.406672,-0.20284 0.073152,-0.0176 0.084943,-0.0339 0.069373,-0.096 -0.010313,-0.0411 -0.00182,-0.13765 0.018881,-0.21455 0.03212,-0.11931 0.1269718,-0.22991 0.6467012,-0.75403 0.7434897,-0.74978 0.8735547,-0.8251 1.1950832,-0.69216 0.1334209,0.0552 1.286397,1.18138 1.368793,1.33703 0.0275,0.052 0.05882,0.16454 0.06961,0.25021 0.01818,0.14434 0.02815,0.15869 0.135914,0.19566 l 0.1163,0.0399 0.01874,-0.11721 c 0.02873,-0.17965 0.181381,-0.36666 0.352732,-0.4321 l 0.146374,-0.0559 -0.0085,-0.88047 -0.0085,-0.88047 H 6.7869425 2.2104918 l -0.00848,0.88047 -0.00848,0.88047 0.1463744,0.0559 c 0.171169,0.0654 0.3239961,0.2524 0.3526459,0.43156 l 0.018658,0.11667 0.1399895,-0.0461 c 0.1210267,-0.0399 0.137549,-0.0558 0.1219763,-0.11785 -0.00991,-0.0394 -0.00105,-0.13469 0.019621,-0.21159 0.03212,-0.11932 0.1269725,-0.22991 0.6467012,-0.75403 0.6184312,-0.62366 0.7728678,-0.74119 0.9739379,-0.74119 0.2094501,0 0.3323886,0.0908 0.9410078,0.69483 0.6214687,0.61681 0.7202173,0.74991 0.7215098,0.97251 5.062e-4,0.0865 0.016458,0.12552 0.05651,0.13804 0.1298339,0.0406 0.3634146,0.15501 0.3955913,0.19377 0.041693,0.0503 0.079777,0.0536 0.1070768,0.009 z m -1.1189828,-0.28376 c 0.041386,-0.0457 0.047258,-0.0759 0.023301,-0.1196 -0.044033,-0.0804 -1.0704326,-1.09494 -1.1077339,-1.09494 -0.016521,0 -0.2874252,0.25768 -0.6020087,0.57263 -0.7596259,0.76051 -0.8077426,0.70303 0.5885804,0.70303 0.9869543,0 1.0454877,-0.003 1.0978604,-0.0611 z m 4.3372629,0 c 0.04139,-0.0457 0.04726,-0.0759 0.0233,-0.1196 -0.04403,-0.0804 -1.0704325,-1.09494 -1.1077345,-1.09494 -0.016521,0 -0.2874245,0.25768 -0.602008,0.57263 -0.7596266,0.76051 -0.8077433,0.70303 0.5885797,0.70303 0.9869549,0 1.0454888,-0.003 1.0978608,-0.0611 z m 4.419865,-2.50615 c 0.07445,-0.26311 0.14128,-0.49387 0.148502,-0.5128 0.0072,-0.0189 -0.04495,-0.0606 -0.115942,-0.0926 -0.07099,-0.032 -0.1451,-0.0775 -0.164687,-0.10112 -0.02597,-0.0313 -0.132523,-0.0429 -0.393358,-0.0429 h -0.357744 l -0.04098,0.12417 c -0.02311,0.07 -0.02953,0.14303 -0.01473,0.16742 0.044,0.0725 0.786657,0.95523 0.795397,0.94541 0.0045,-0.005 0.06908,-0.22444 0.143537,-0.48755 z m -1.676728,-0.35878 c 0.180162,-0.18424 0.352753,-0.55762 0.352753,-0.76314 0,-0.14775 -0.01282,-0.18129 -0.104262,-0.27273 -0.08973,-0.0897 -0.126306,-0.10426 -0.262492,-0.10426 -0.135041,0 -0.172989,0.0147 -0.258916,0.10068 -0.125761,0.12577 -0.149735,0.31229 -0.0816,0.63487 0.0485,0.22959 0.168098,0.52417 0.212823,0.52417 0.01361,0 0.07737,-0.0538 0.141693,-0.11959 z m 2.434087,-0.73103 c 0.173439,-0.12949 0.21507,-0.22121 0.212186,-0.46749 -0.0021,-0.18144 -0.02376,-0.27874 -0.10479,-0.47139 -0.111969,-0.26619 -0.295205,-0.5067 -0.386034,-0.5067 -0.0319,0 -0.10465,0.0531 -0.161673,0.11809 -0.215207,0.2451 -0.384702,0.75217 -0.336791,1.00756 0.02619,0.13961 0.155312,0.3015 0.288769,0.36206 0.129074,0.0586 0.382783,0.0367 0.488333,-0.0421 z m -14.48863205,0.26207 -0.078279,-0.0783 v -1.96279 -1.96279 h 0.2551333 0.25513385 v 1.00459 1.00459 h 0.080734 c 0.2336386,0 0.7612291,-0.25381 1.0301119,-0.49556 0.1988029,-0.17874 0.4535556,-0.55224 0.5469771,-0.80193 0.038006,-0.10158 0.08229,-0.20058 0.098403,-0.22 0.016116,-0.0194 0.134034,-0.0871 0.262044,-0.15033 0.4164261,-0.20581 0.7966312,-0.68145 0.8704873,-1.08899 0.035619,-0.19653 0.1210742,-0.25893 0.3887078,-0.2838 0.5300023,-0.0493 1.0051839,-0.27821 1.3946591,-0.67196 0.3592123,-0.36316 0.565164,-0.74309 0.64706,-1.19368 l 0.0299,-0.16452 H 3.8485596 1.174016 v 1.27566 1.27567 H 0.91888205 0.66374875 v -1.45252 -1.45252 l 0.078279,-0.0783 0.078281,-0.0783 H 7.3754894 13.930671 v 0.25494 0.25494 l -2.543359,0.008 -2.5433577,0.008 -0.058333,0.17541 c -0.1583992,0.47629 -0.011116,0.88136 0.4367924,1.20128 0.664856,0.47487 0.8689933,1.07041 0.6293416,1.83601 -0.122653,0.39183 -0.1297781,0.44653 -0.085897,0.65947 0.059255,0.28755 0.1756959,0.45167 0.4734787,0.66735 0.2933,0.21243 0.39236,0.3099 0.513084,0.50482 0.226233,0.36528 0.274911,0.83263 0.133005,1.27696 -0.04363,0.13661 -0.07951,0.25914 -0.07973,0.2723 -2.29e-4,0.0131 0.128754,0.0239 0.286618,0.0239 h 0.287023 v 0.25513 0.25514 H 6.0998235 0.82030855 Z m 9.53548105,-0.47185 c 0.209642,-0.67533 0.223588,-0.79197 0.128811,-1.07732 -0.06344,-0.19099 -0.205846,-0.36196 -0.4419176,-0.53058 -0.6648561,-0.47487 -0.8689937,-1.07041 -0.6293416,-1.83601 0.1226529,-0.39183 0.129778,-0.44653 0.085897,-0.65947 -0.059255,-0.28755 -0.1756966,-0.45166 -0.4734785,-0.66735 -0.3954285,-0.28641 -0.5371211,-0.46463 -0.6604437,-0.83071 -0.077603,-0.23035 -0.086909,-0.62209 -0.020054,-0.84423 l 0.044912,-0.14923 -0.6428802,0.009 -0.6428803,0.009 -0.00943,0.0957 c -0.016919,0.17173 -0.1286336,0.56991 -0.2140725,0.76301 -0.2749976,0.62152 -0.8156749,1.16233 -1.4365794,1.43692 -0.2029471,0.0897 -0.6202105,0.20789 -0.7342692,0.20789 -0.057551,0 -0.1000766,0.0612 -0.2361328,0.33974 -0.1396445,0.28591 -0.2047123,0.37815 -0.4105788,0.58203 -0.13455,0.13325 -0.3347696,0.2925 -0.444932,0.35389 -0.1875692,0.10453 -0.2082902,0.12786 -0.3261126,0.36716 -0.2161471,0.43901 -0.5917813,0.85005 -1.0028887,1.09741 -0.2262607,0.13615 -0.6357551,0.28297 -0.8640024,0.3098 l -0.1731208,0.0203 v 0.52182 0.52183 h 4.5455581 c 3.6085869,0 4.5481098,-0.008 4.5579348,-0.0399 z m -1.7046332,-0.72553 v -0.25513 H 8.828012 9.0831446 v 0.25513 0.25513 H 8.828012 8.5728788 Z m -4.1230313,-0.0327 c -0.3493403,-0.0882 -0.4514112,-0.25374 -0.4526401,-0.73427 -7.681e-4,-0.28827 0.00559,-0.31758 0.1183279,-0.54563 0.1434521,-0.29025 0.3281249,-0.47105 0.6246185,-0.61152 0.1978058,-0.0937 0.237366,-0.10092 0.5537608,-0.10092 0.3341859,0 0.3426328,-0.002 0.4393578,-0.0945 l 0.098621,-0.0945 0.1813351,0.18133 0.1813351,0.18133 -0.094481,0.0986 c -0.09272,0.0968 -0.094481,0.10499 -0.094481,0.44096 0,0.33106 -0.00391,0.35029 -0.1191064,0.58339 -0.2154866,0.43609 -0.5983317,0.69194 -1.068881,0.71434 -0.1359249,0.006 -0.3014199,-0.002 -0.3677669,-0.0187 z m 0.5315218,-0.51628 c 0.1751757,-0.0517 0.4393711,-0.31595 0.4911278,-0.49112 0.054046,-0.18292 0.048969,-0.38021 -0.011333,-0.44051 -0.060302,-0.0603 -0.2575842,-0.0654 -0.4405051,-0.0113 -0.1751757,0.0517 -0.4393704,0.31596 -0.4911278,0.49113 -0.054046,0.18292 -0.048969,0.38021 0.011333,0.44051 0.060302,0.0603 0.2575842,0.0654 0.4405051,0.0113 z m 2.7861152,-1.26946 c -0.3621996,-0.0915 -0.673002,-0.3468 -0.8442856,-0.69343 -0.116555,-0.23588 -0.1203061,-0.25414 -0.1203061,-0.58581 0,-0.33597 -0.00175,-0.34419 -0.094481,-0.44096 l -0.094481,-0.0986 0.1813351,-0.18133 0.1813351,-0.18134 0.098621,0.0945 c 0.096784,0.0927 0.104998,0.0945 0.4409645,0.0945 0.3310605,0 0.3502893,0.004 0.5833867,0.11911 0.2903056,0.14344 0.4710856,0.32807 0.6115708,0.62461 0.091558,0.19326 0.1008496,0.24114 0.100143,0.51599 -0.0014,0.55614 -0.156051,0.72678 -0.6809936,0.75159 -0.1336967,0.006 -0.2969608,-0.002 -0.3628092,-0.0188 z m 0.5001459,-0.5278 c 0.060302,-0.0603 0.065378,-0.25758 0.011333,-0.44051 -0.051755,-0.17517 -0.3159528,-0.43937 -0.4911285,-0.49112 -0.1829209,-0.0541 -0.3802023,-0.0489 -0.4405044,0.0113 -0.060302,0.0603 -0.065379,0.25758 -0.011333,0.4405 0.047999,0.16245 0.3149508,0.43888 0.4714822,0.48822 0.1715475,0.054 0.4018735,0.0499 0.4601507,-0.008 z m 3.7814366,1.56013 c -0.552261,-0.0838 -1.106952,-0.3337 -1.498907,-0.67516 l -0.11162,-0.0972 0.180269,-0.18198 0.18027,-0.18197 0.154592,0.12919 c 0.324065,0.27082 0.798373,0.46663 1.226737,0.50644 l 0.219467,0.0204 v 0.25056 0.25055 l -0.135539,-0.004 c -0.07455,-0.002 -0.171418,-0.01 -0.215269,-0.0165 z m 1.117648,-0.34807 c -0.0394,-0.13272 -0.0666,-0.24434 -0.06046,-0.24806 0.02867,-0.0173 0.367437,-0.15591 0.409823,-0.16768 0.03198,-0.009 0.08679,0.0557 0.16533,0.19495 l 0.117492,0.20823 -0.06965,0.0444 c -0.06342,0.0404 -0.449599,0.20942 -0.478639,0.20942 -0.0068,0 -0.04449,-0.10858 -0.0839,-0.2413 z m 2.294757,-2.4376 v -2.29621 H 14.951206 14.44094 v -0.25513 -0.25514 h 0.68712 c 0.687012,0 0.687132,2e-5 0.765399,0.0783 l 0.07828,0.0783 v 2.47305 2.47305 h -0.255133 -0.255134 z m -3.50438,1.72291 c -0.610616,-0.16553 -1.057989,-0.5937 -1.267024,-1.21265 -0.04283,-0.12681 -0.05924,-0.26818 -0.05924,-0.51026 0,-0.24209 0.01642,-0.38347 0.05924,-0.51027 0.27904,-0.82623 1.007844,-1.32718 1.840013,-1.26474 0.434175,0.0326 0.835611,0.2191 1.142627,0.53092 0.220193,0.22364 0.366186,0.48851 0.450099,0.81661 0.08759,0.34246 0.08346,0.50558 -0.01528,0.60433 -0.07736,0.0774 -0.08507,0.0783 -0.65719,0.0783 -0.457774,0 -0.575628,0.009 -0.56322,0.0409 0.0086,0.0225 0.139326,0.24113 0.290437,0.48588 0.340525,0.55153 0.349566,0.64499 0.07589,0.78461 -0.411776,0.21007 -0.886887,0.26739 -1.296352,0.1564 z m 0.803397,-0.49634 c 0.07614,-0.0303 0.07347,-0.036 -0.298734,-0.63967 -0.174357,-0.28279 -0.317013,-0.53842 -0.317013,-0.56807 0,-0.0805 0.08614,-0.2316 0.144941,-0.25416 0.02839,-0.0109 0.344652,-0.0198 0.702796,-0.0198 0.529084,0 0.65117,-0.008 0.65117,-0.0436 0,-0.024 -0.05037,-0.14424 -0.111944,-0.26731 -0.136041,-0.27193 -0.327438,-0.45616 -0.615836,-0.5928 -0.192651,-0.0913 -0.241999,-0.10092 -0.515994,-0.10092 -0.273995,0 -0.323343,0.01 -0.515994,0.10092 -0.296476,0.14046 -0.481165,0.32127 -0.624619,0.6115 -0.112418,0.22744 -0.119106,0.25808 -0.119106,0.54562 0,0.27588 0.0095,0.32476 0.100921,0.51767 0.05551,0.11717 0.159524,0.27661 0.231148,0.3543 0.139428,0.15127 0.426629,0.32125 0.628435,0.37194 0.13147,0.033 0.563165,0.0228 0.659829,-0.0156 z m 1.418052,0.30024 -0.182669,-0.16116 0.112406,-0.14721 c 0.44443,-0.58205 0.52416,-1.4374 0.19655,-2.1086 -0.05641,-0.11556 -0.102672,-0.22099 -0.102815,-0.23427 -4.1e-4,-0.0377 0.374774,-0.27746 0.40497,-0.25879 0.05041,0.0311 0.242502,0.44452 0.317382,0.68297 0.06394,0.20363 0.07468,0.30429 0.07468,0.70025 0,0.51585 -0.05017,0.74167 -0.254755,1.14672 -0.100829,0.19962 -0.333658,0.54329 -0.367132,0.5419 -0.0088,-3.6e-4 -0.09815,-0.0732 -0.198616,-0.16181 z M 1.9394184,284.41954 v -0.25513 H 2.194551 2.4496842 v 0.25513 0.25513 H 2.194551 1.9394184 Z m 1.275665,-1.78593 v -0.25514 h 0.2551333 0.2551332 v 0.25514 0.25513 H 3.4702167 3.2150834 Z m 6.633461,-0.25514 v -0.25513 h 0.2551326 0.255133 v 0.25513 0.25514 H 10.103677 9.8485444 Z"
       id="path12092"
       inkscape:connector-curvature="0" />
    <path
       style="fill:none;stroke:#000000;stroke-width:0.00361606;stroke-linecap:butt;stroke-linejoin:miter;stroke-miterlimit:4;stroke-dasharray:none;stroke-opacity:1"
       d="m 0.92572065,283.69962 v 1.75404"
       id="path12094"
       inkscape:connector-curvature="0" />
    <path
       style="fill:none;stroke:#000000;stroke-width:0.00361606;stroke-linecap:butt;stroke-linejoin:miter;stroke-miterlimit:4;stroke-dasharray:none;stroke-opacity:1"
       d="m 13.27234,281.37609 1.754041,0.0228"
       id="path12096"
       inkscape:connector-curvature="0" />
    <path
       style="fill:none;stroke:#000000;stroke-width:0.00361606;stroke-linecap:butt;stroke-linejoin:miter;stroke-miterlimit:4;stroke-dasharray:none;stroke-opacity:1"
       d="m 15.461472,286.20539 -0.275633,0.61505"
       id="path12098"
       inkscape:connector-curvature="0" />
    <path
       style="fill:#ff0000;stroke:#000000;stroke-width:0.00361606;stroke-linecap:butt;stroke-linejoin:miter;stroke-miterlimit:4;stroke-dasharray:none;stroke-opacity:1"
       d="M 10.333754,294.90725 H 8.5797134"
       id="path12100"
       inkscape:connector-curvature="0" />
    <path
       style="fill:none;stroke:#000000;stroke-width:0.00361606;stroke-linecap:butt;stroke-linejoin:miter;stroke-miterlimit:4;stroke-dasharray:none;stroke-opacity:1"
       d="m 11.379343,288.75672 -0.01595,1.03648"
       id="path12102"
       inkscape:connector-curvature="0" />
    <path
       style="fill:#ffffff;stroke-width:0.00365277;stroke-miterlimit:4;stroke-dasharray:none"
       d="m 9.3584361,294.75793 v -0.14497 H 5.2621058 1.1657762 l 0.020948,-0.41075 c 0.011521,-0.22591 0.021004,-0.79129 0.021081,-1.2564 l 1.278e-4,-0.84566 h 0.4791784 0.4791791 l 0.013819,0.95421 c 0.012541,0.86567 0.019105,0.95807 0.070763,0.99584 0.031317,0.0229 0.1900124,0.0511 0.352655,0.0627 0.1626425,0.0116 2.1664626,0.0165 4.4529347,0.0109 3.9156848,-0.01 4.1622848,-0.0135 4.2443808,-0.0673 l 0.08716,-0.0571 1.94e-4,-0.68383 c 9.6e-5,-0.37611 0.0095,-0.80344 0.02089,-0.94961 l 0.02069,-0.26578 h 0.457862 0.457861 l 0.02031,0.16913 c 0.01117,0.093 0.02044,0.6584 0.0206,1.2564 l 2.81e-4,1.08727 H 11.114178 9.8416693 v 0.14497 0.14497 H 9.6000538 9.3584382 Z"
       id="path12104"
       inkscape:connector-curvature="0" />
    <path
       style="fill:#ffffff;stroke-width:0.00365277;stroke-miterlimit:4;stroke-dasharray:none"
       d="m 1.8375074,295.55526 c -0.032323,-0.17275 -0.065525,-0.33222 -0.073786,-0.35437 -0.011068,-0.0297 0.041016,-0.0403 0.1978288,-0.0403 h 0.2128471 v 0.35437 0.35437 H 2.0353362 1.8962747 Z"
       id="path12106"
       inkscape:connector-curvature="0" />
    <path
       style="fill:#ffffff;stroke-width:0.00365277;stroke-miterlimit:4;stroke-dasharray:none"
       d="m 9.3584361,294.75793 v -0.14497 H 5.2620339 1.1656317 l 0.021046,-0.5074 c 0.011577,-0.27906 0.021095,-0.84444 0.02115,-1.2564 l 9.57e-5,-0.74901 H 1.6866724 2.16542 l 0.015697,0.95129 c 0.014622,0.88613 0.019873,0.95433 0.076697,0.99587 0.1069637,0.0782 0.7195162,0.0879 4.8952937,0.0769 3.8227423,-0.01 4.0656843,-0.014 4.1477353,-0.0677 l 0.08716,-0.0571 2.26e-4,-0.73216 c 1.31e-4,-0.40269 0.0095,-0.83002 0.02077,-0.94961 l 0.02054,-0.21746 h 0.45825 0.45825 l 0.01997,0.12081 c 0.01098,0.0665 0.02013,0.63182 0.02033,1.2564 l 3.55e-4,1.13559 h -1.2725 -1.2725086 v 0.14498 0.14496 H 9.6000559 9.3584403 Z"
       id="path12108"
       inkscape:connector-curvature="0" />
    <path
       style="fill:#ffffff;stroke-width:0.00365277;stroke-miterlimit:4;stroke-dasharray:none"
       d="m 2.7220591,293.2018 v -0.38027 l 0.1062339,-0.10296 0.106234,-0.10297 h 1.6918027 1.6918027 l 0.087908,0.0918 c 0.083003,0.0866 0.089007,0.11361 0.1075921,0.48323 l 0.019684,0.39148 H 4.6276892 2.7220605 Z"
       id="path12110"
       inkscape:connector-curvature="0" />
    <path
       style="fill:#ffffff;stroke-width:0.00365277;stroke-miterlimit:4;stroke-dasharray:none"
       d="m 7.0658257,293.20353 c 0.011081,-0.37292 0.012729,-0.38008 0.1112496,-0.48323 l 0.099998,-0.1047 h 1.6786704 1.6786705 l 0.1,0.1047 c 0.09852,0.10315 0.100164,0.11031 0.11125,0.48323 l 0.01125,0.37854 H 8.9557414 7.0545718 Z"
       id="path12112"
       inkscape:connector-curvature="0" />
    <path
       style="fill:#ffffff;stroke-width:0.00365277;stroke-miterlimit:4;stroke-dasharray:none"
       d="m 8.0537115,292.04846 c -0.035437,-0.008 -0.097049,-0.0222 -0.1369157,-0.0307 -0.039864,-0.009 -0.072485,-0.0323 -0.072485,-0.053 0,-0.0565 1.0692056,-1.12102 1.1259466,-1.12102 0.066824,0 1.0969174,1.03258 1.0969174,1.09957 0,0.0293 -0.02537,0.0647 -0.05638,0.0785 -0.061077,0.0273 -1.8512009,0.0517 -1.9570864,0.0266 z"
       id="path12114"
       inkscape:connector-curvature="0" />
    <path
       style="fill:#ffffff;stroke-width:0.00365277;stroke-miterlimit:4;stroke-dasharray:none"
       d="m 3.6566721,292.04112 c -0.2130237,-0.0408 -0.17539,-0.10317 0.4157397,-0.68948 l 0.5513106,-0.54681 0.3136234,0.29975 c 0.1724937,0.16486 0.4255203,0.41792 0.5622817,0.56235 0.226952,0.23968 0.2447557,0.26794 0.2039554,0.32375 -0.04198,0.0575 -0.1022232,0.0615 -0.9896119,0.0665 -0.5197008,0.003 -0.995485,-0.004 -1.0572989,-0.0161 z"
       id="path12116"
       inkscape:connector-curvature="0" />
    <path
       style="fill:#ffffff;stroke-width:0.00365277;stroke-miterlimit:4;stroke-dasharray:none"
       d="m 6.5347138,292.16937 c -0.227859,-0.11477 -0.2305976,-0.11768 -0.2502426,-0.26577 -0.026848,-0.20241 -0.134962,-0.34406 -0.6762929,-0.88607 -0.5495439,-0.55024 -0.7464853,-0.70807 -0.920166,-0.73741 -0.2253027,-0.038 -0.3750721,0.0643 -0.986779,0.67442 -0.6594934,0.65779 -0.7174263,0.73163 -0.7429437,0.94709 -0.017184,0.14509 -0.029983,0.16672 -0.116467,0.19687 -0.053438,0.0186 -0.099953,0.0339 -0.1033634,0.0339 -0.00342,0 -0.023846,-0.0589 -0.045408,-0.13087 -0.050017,-0.16694 -0.2331806,-0.37043 -0.3758088,-0.4175 l -0.1106288,-0.0365 v -0.66931 c 0,-0.36811 0.00931,-0.7584 0.020696,-0.86732 l 0.020697,-0.19801 h 4.5538926 4.5538928 v 0.8659 0.86591 l -0.100926,0.0418 c -0.204953,0.0849 -0.382305,0.29167 -0.382305,0.44574 0,0.0878 -0.04442,0.10789 -0.140973,0.0639 -0.05021,-0.0229 -0.08815,-0.0724 -0.09906,-0.12928 -0.0097,-0.0507 -0.02686,-0.13931 -0.03807,-0.1969 -0.01532,-0.0787 -0.141244,-0.2276 -0.507393,-0.59993 -0.6640987,-0.67532 -0.8833147,-0.86174 -1.0455522,-0.88914 -0.2318804,-0.0392 -0.3697275,0.0533 -0.9938671,0.66644 -0.6337783,0.62266 -0.750996,0.77524 -0.750996,0.97759 0,0.13065 -0.00412,0.13584 -0.1530226,0.19177 -0.084163,0.0316 -0.1915039,0.0843 -0.2385355,0.11714 -0.1054882,0.0736 -0.091547,0.076 -0.3703777,-0.0645 z"
       id="path12118"
       inkscape:connector-curvature="0" />
    <path
       style="fill:#ffffff;stroke-width:0.00365277;stroke-miterlimit:4;stroke-dasharray:none"
       d="m 11.388008,295.51499 v -0.35437 h 0.2094 c 0.11517,0 0.2094,0.0129 0.2094,0.0287 0,0.0158 -0.02899,0.16958 -0.06443,0.34181 -0.03544,0.17222 -0.06443,0.31879 -0.06443,0.32569 0,0.007 -0.06524,0.0126 -0.14497,0.0126 h -0.144973 z"
       id="path12120"
       inkscape:connector-curvature="0" />
    <path
       style="fill:#ffffff;stroke-width:0.00365277;stroke-miterlimit:4;stroke-dasharray:none"
       d="m 12.934348,293.34045 v -0.24162 h 1.256401 1.256401 v 0.24162 0.24162 h -1.256401 -1.256401 z"
       id="path12122"
       inkscape:connector-curvature="0" />
    <path
       style="fill:#ffffff;stroke-width:0.00365277;stroke-miterlimit:4;stroke-dasharray:none"
       d="m 13.997045,292.55923 c -2.23e-4,-0.0133 0.04651,-0.30132 0.103865,-0.64008 l 0.104276,-0.61591 -0.05783,-0.18947 c -0.03181,-0.10421 -0.06502,-0.21485 -0.07382,-0.24586 -0.01459,-0.0515 0.01781,-0.0564 0.370845,-0.0564 h 0.386836 l -0.07986,0.23356 -0.07986,0.23356 0.09852,0.57988 c 0.05419,0.31893 0.105758,0.6125 0.114607,0.65236 l 0.01609,0.0725 h -0.451629 c -0.248395,0 -0.451814,-0.0109 -0.45204,-0.0242 z"
       id="path12124"
       inkscape:connector-curvature="0" />
    <path
       style="fill:#ffffff;stroke-width:0.00365277;stroke-miterlimit:4;stroke-dasharray:none"
       d="m 12.563338,289.06369 c -0.0949,-0.20729 -0.162294,-0.57963 -0.133065,-0.73515 0.01237,-0.0658 0.06378,-0.15552 0.12002,-0.2094 0.08126,-0.0778 0.124193,-0.0937 0.246735,-0.091 0.125031,0.003 0.163255,0.0199 0.243097,0.10925 0.08432,0.0944 0.09324,0.12412 0.08108,0.27061 -0.0075,0.0905 -0.05302,0.25054 -0.101133,0.35562 -0.09053,0.19772 -0.291585,0.46937 -0.347388,0.46937 -0.01751,0 -0.06672,-0.0762 -0.109346,-0.16929 z"
       id="path12128"
       inkscape:connector-curvature="0" />
    <path
       style="fill:#ffffff;stroke-width:0.00365277;stroke-miterlimit:4;stroke-dasharray:none"
       d="m 14.835479,288.46541 c -0.128917,-0.0194 -0.261646,-0.13418 -0.327555,-0.28318 -0.05206,-0.1177 -0.05665,-0.16736 -0.03048,-0.32986 0.05234,-0.32502 0.272748,-0.76235 0.425373,-0.84403 0.05564,-0.0297 0.08157,-0.0177 0.174854,0.0812 0.06024,0.0639 0.156806,0.21348 0.214594,0.33247 0.08842,0.18206 0.106955,0.26055 0.116967,0.49532 0.01188,0.27847 0.0117,0.27919 -0.0959,0.39491 -0.110985,0.11935 -0.300122,0.17999 -0.477854,0.1532 z"
       id="path12130"
       inkscape:connector-curvature="0" />
    <path
       style="fill:#ffffff;stroke-width:0.00365277;stroke-miterlimit:4;stroke-dasharray:none"
       d="m 12.924562,292.28515 c -0.03565,-0.55021 -0.187834,-0.7039 -0.720074,-0.72718 l -0.296724,-0.013 -0.01021,-0.93856 c -0.0096,-0.87853 -0.01444,-0.94575 -0.07638,-1.0512 -0.07827,-0.13323 -0.250977,-0.25783 -0.357392,-0.25783 h -0.07577 v -0.53156 -0.53155 h -0.273831 c -0.165789,0 -0.273831,-0.0131 -0.273831,-0.0331 0,-0.0182 0.0308,-0.15188 0.06844,-0.29712 0.05414,-0.20883 0.06515,-0.32485 0.05272,-0.55486 -0.02538,-0.46941 -0.193031,-0.78169 -0.588289,-1.0958 -0.34279,-0.27241 -0.450298,-0.38858 -0.5330891,-0.57601 -0.09736,-0.22042 -0.092289,-0.45648 0.017394,-0.80965 0.1196218,-0.38518 0.1272999,-0.80972 0.019649,-1.08645 -0.1050127,-0.26996 -0.312215,-0.52937 -0.6074685,-0.76054 -0.4868586,-0.38118 -0.6118381,-0.70062 -0.4707929,-1.2033 l 0.052572,-0.18736 h 2.5407725 2.540773 v -0.11275 -0.11276 h 0.241616 0.241615 v 0.11276 0.11275 h 0.515447 0.515447 v 2.28329 2.28329 l -0.07931,0.17933 -0.07931,0.17934 -0.09853,-0.0492 c -0.347708,-0.17346 -0.775195,0.0812 -1.031263,0.61444 -0.158069,0.32914 -0.225714,0.59428 -0.225714,0.88471 v 0.22892 h -0.111858 c -0.105115,0 -0.117858,-0.0121 -0.211415,-0.20135 -0.19802,-0.40048 -0.446806,-0.55395 -0.866812,-0.53472 -0.3366,0.0154 -0.521777,0.11194 -0.694517,0.36206 -0.124721,0.18059 -0.129221,0.19634 -0.140041,0.49018 -0.02313,0.62814 0.19205,1.20327 0.511101,1.36603 0.222534,0.11353 0.398948,0.0844 0.650081,-0.10727 l 0.149212,-0.1139 0.312505,0.37607 0.312504,0.37606 -0.137685,0.0235 c -0.166862,0.0285 -0.288522,0.13429 -0.288522,0.25092 0,0.0471 0.05271,0.2512 0.11714,0.45346 l 0.117139,0.36775 -0.09131,0.5722 c -0.05022,0.3147 -0.09931,0.58455 -0.109085,0.59964 -0.0098,0.0151 -0.128131,0.0344 -0.263009,0.0428 l -0.245232,0.0154 z m -0.505661,-5.82072 v -0.25575 l -0.153023,-0.0197 c -0.513439,-0.0662 -0.90676,-0.21646 -1.252769,-0.4787 -0.108742,-0.0824 -0.212411,-0.14984 -0.230375,-0.14984 -0.01796,0 -0.106826,0.0856 -0.197474,0.19025 l -0.164813,0.19025 0.185788,0.14824 c 0.4384,0.34981 1.134194,0.61809 1.627427,0.62749 l 0.185239,0.003 z m 1.17845,-0.006 c 0.113747,-0.0538 0.206813,-0.10934 0.206813,-0.12354 0,-0.0469 -0.15976,-0.3127 -0.221505,-0.36859 -0.05729,-0.0518 -0.07217,-0.0502 -0.273905,0.0306 -0.117331,0.047 -0.213329,0.10408 -0.213329,0.1269 0,0.0228 0.02998,0.13859 0.06663,0.25724 0.07699,0.24926 0.07303,0.24856 0.435293,0.0774 z m -0.598572,-0.8627 c 0.115169,-0.0398 0.265496,-0.10893 0.334058,-0.15368 0.11958,-0.078 0.124004,-0.0872 0.108574,-0.22407 -0.01165,-0.10341 -0.08731,-0.26161 -0.274755,-0.57454 -0.200959,-0.3355 -0.247954,-0.43596 -0.210638,-0.45028 0.02642,-0.0101 0.279455,-0.0184 0.562306,-0.0184 0.503068,0 0.516,-10e-4 0.593351,-0.0791 0.09531,-0.0953 0.10422,-0.27732 0.02917,-0.59574 -0.122403,-0.51931 -0.461858,-0.94835 -0.937573,-1.185 -0.882961,-0.43925 -1.893015,-0.12283 -2.378365,0.74506 -0.144449,0.25829 -0.210067,0.52097 -0.210067,0.84092 0,0.78823 0.472295,1.44416 1.229455,1.70751 0.209501,0.0729 0.276598,0.0809 0.590715,0.0709 0.260705,-0.008 0.409718,-0.0304 0.563771,-0.0836 z m 1.60288,-0.27579 c 0.244022,-0.36925 0.358648,-0.6891 0.394928,-1.10203 0.05216,-0.59367 -0.02288,-1.02781 -0.258411,-1.49503 -0.117913,-0.23391 -0.117222,-0.23358 -0.292862,-0.13798 -0.08608,0.0469 -0.180746,0.11196 -0.210378,0.1447 -0.05067,0.056 -0.04793,0.0725 0.04626,0.27715 0.266916,0.58008 0.267794,1.26077 0.0023,1.78845 -0.05562,0.11057 -0.146363,0.26439 -0.201644,0.34185 l -0.100509,0.14083 0.176351,0.15813 c 0.09699,0.087 0.198472,0.15408 0.225508,0.14911 0.02704,-0.005 0.125339,-0.1243 0.218452,-0.26518 z m -4.228437,-2.93317 v -0.25772 l -0.265777,-0.009 -0.2657778,-0.009 v 0.27644 0.27644 l 0.2657778,-0.009 0.265777,-0.009 z"
       id="path12132"
       inkscape:connector-curvature="0" />
    <path
       style="fill:#ffffff;stroke-width:0.00365277;stroke-miterlimit:4;stroke-dasharray:none"
       d="m 11.86833,285.03845 c -0.267257,-0.13354 -0.478094,-0.34699 -0.604635,-0.61214 -0.09141,-0.19153 -0.101195,-0.24156 -0.101195,-0.5172 0,-0.28438 0.0077,-0.32053 0.112796,-0.53064 0.129273,-0.25839 0.34108,-0.47384 0.599719,-0.61002 0.1585,-0.0835 0.202491,-0.0913 0.511671,-0.0913 0.305128,0 0.356223,0.009 0.521638,0.09 0.261968,0.12865 0.487896,0.3444 0.604044,0.57683 0.05418,0.10842 0.0985,0.21656 0.0985,0.2403 0,0.0338 -0.08897,0.0432 -0.410747,0.0434 -0.22591,10e-5 -0.531941,0.01 -0.680067,0.0211 -0.257119,0.02 -0.272074,0.0255 -0.330088,0.12061 -0.03342,0.0548 -0.06076,0.1214 -0.06076,0.14798 8e-6,0.0266 0.145804,0.29289 0.323992,0.59181 0.178187,0.29892 0.316303,0.56349 0.306923,0.58794 -0.01298,0.0338 -0.09686,0.0444 -0.351182,0.0444 -0.311493,0 -0.348114,-0.007 -0.540619,-0.10319 z"
       id="path12134"
       inkscape:connector-curvature="0" />
    <path
       style="fill:#ffffff;stroke-width:0.00365277;stroke-miterlimit:4;stroke-dasharray:none"
       d="m 7.831692,285.12805 c -0.1478289,-0.0548 -0.3832467,-0.27572 -0.4551931,-0.42733 -0.032881,-0.0693 -0.047426,-0.17226 -0.041184,-0.29155 0.00876,-0.16737 0.017666,-0.18721 0.096349,-0.21476 0.2411506,-0.0844 0.6519857,0.14371 0.796532,0.4423 0.068535,0.14158 0.0888,0.38861 0.038405,0.46815 -0.040353,0.0637 -0.2895417,0.077 -0.4349106,0.0232 z"
       id="path12136"
       inkscape:connector-curvature="0" />
    <path
       style="fill:#ffffff;stroke-width:0.00365277;stroke-miterlimit:4;stroke-dasharray:none"
       d="m 1.1757195,287.72329 v -0.51101 l 0.1758426,-0.0207 c 0.2458373,-0.0289 0.6877891,-0.19534 0.9239771,-0.348 0.3900009,-0.25207 0.7224307,-0.62648 0.9636399,-1.08534 0.090755,-0.17264 0.142786,-0.22797 0.3309781,-0.35196 0.3692171,-0.24324 0.6247177,-0.52309 0.8273792,-0.90623 l 0.177459,-0.33548 0.1930178,-0.0408 c 0.7571715,-0.15984 1.3755685,-0.57355 1.8145897,-1.21398 0.199071,-0.29039 0.3878119,-0.77288 0.4407453,-1.1267 l 0.022896,-0.15302 h 0.6190834 0.6190834 l -0.044075,0.20134 c -0.054646,0.24963 -0.030186,0.61059 0.057195,0.84414 0.1046454,0.27969 0.2504353,0.46338 0.5691176,0.71709 0.3538888,0.28174 0.4740832,0.43402 0.5261346,0.66661 0.046072,0.20587 0.033223,0.32829 -0.077602,0.73951 -0.1895027,0.70316 -0.043928,1.23543 0.4519398,1.65246 0.4071316,0.34241 0.5822526,0.54114 0.6358356,0.72157 0.06664,0.22441 0.06366,0.27514 -0.03962,0.67486 l -0.0874,0.33826 -0.3540439,0.02 c -0.1947251,0.011 -2.2422711,0.0219 -4.5501031,0.0242 l -4.1960585,0.004 z m 7.9249934,-0.24604 v -0.27384 H 8.8268815 8.5530502 v 0.27384 0.27383 h 0.2738313 0.2738314 z m -4.1222742,-0.0163 c 0.414841,-0.0787 0.7341588,-0.32651 0.9248932,-0.71784 0.092391,-0.18956 0.1047006,-0.24617 0.1047006,-0.48148 0,-0.31023 0.034885,-0.45614 0.13436,-0.56204 l 0.071468,-0.0761 -0.174298,-0.17649 c -0.095864,-0.0971 -0.1871984,-0.17649 -0.2029638,-0.17649 -0.015767,0 -0.069219,0.0341 -0.1187825,0.0758 -0.079123,0.0666 -0.1332205,0.0779 -0.4434433,0.0926 -0.3150542,0.0149 -0.3763618,0.0281 -0.5659784,0.12143 -0.2589095,0.12746 -0.5060818,0.37829 -0.6269772,0.63627 -0.077546,0.16547 -0.086671,0.22156 -0.08519,0.52358 0.00244,0.50161 0.080807,0.63485 0.4283727,0.72846 0.1874205,0.0505 0.3350189,0.0538 0.5538387,0.0123 z m 3.5746115,-1.85318 c 0.1892345,-0.10887 0.2577238,-0.2904 0.2577238,-0.68312 0,-0.31359 -0.00614,-0.34443 -0.1093231,-0.54933 -0.1338405,-0.26577 -0.3658515,-0.4907 -0.6398518,-0.62032 -0.1819419,-0.0861 -0.2326499,-0.0952 -0.530267,-0.0952 -0.3233516,-3e-5 -0.3311065,-0.002 -0.4449481,-0.10175 l -0.1158602,-0.10173 -0.1909363,0.18894 -0.1909356,0.18894 0.088222,0.092 c 0.082533,0.0861 0.089372,0.11524 0.1060727,0.45239 0.014594,0.29464 0.032902,0.39272 0.1003329,0.53757 0.1514403,0.32532 0.4195348,0.58841 0.724476,0.71097 0.2191042,0.0881 0.7784992,0.0766 0.9452951,-0.0194 z"
       id="path12138"
       inkscape:connector-curvature="0" />
    <path
       style="fill:#ffffff;stroke-width:0.00365277;stroke-miterlimit:4;stroke-dasharray:none"
       d="m 4.554229,286.89234 c -0.063214,-0.0763 -0.04686,-0.33126 0.031045,-0.48396 0.07635,-0.14966 0.2602642,-0.32119 0.4126479,-0.38486 0.058305,-0.0244 0.1784491,-0.0443 0.266987,-0.0443 0.1854548,0 0.2281258,0.0465 0.2269688,0.24756 -0.00147,0.2495 -0.2289805,0.56047 -0.4895428,0.66901 -0.1610464,0.0671 -0.3911085,0.0653 -0.4481064,-0.003 z"
       id="path12140"
       inkscape:connector-curvature="0" />
    <path
       style="fill:#ffffff;stroke-width:0.00365277;stroke-miterlimit:4;stroke-dasharray:none"
       d="m 1.1757195,285.65707 v -0.99868 H 1.0629652 0.95021155 v -0.24161 -0.24162 H 1.0629652 1.1757195 v -1.2725 -1.27251 h 2.6577721 c 2.4187149,0 2.657772,0.005 2.657772,0.0517 0,0.0284 -0.022994,0.1408 -0.051106,0.24966 -0.1651849,0.63981 -0.7476569,1.28901 -1.3910734,1.55046 -0.1090284,0.0443 -0.3401582,0.10335 -0.5136204,0.13122 -0.3652928,0.0587 -0.4351989,0.10575 -0.4918672,0.33103 -0.1020577,0.40574 -0.4527101,0.83343 -0.8710124,1.06239 -0.2410926,0.13195 -0.2426748,0.13369 -0.3781891,0.41564 -0.1904866,0.39631 -0.4310666,0.69969 -0.7025693,0.88598 -0.269954,0.18523 -0.6440506,0.3475 -0.801114,0.3475 h -0.114993 z m 1.2886164,-1.24029 v -0.27383 H 2.1905045 1.9166738 v 0.27383 0.27383 h 0.2738307 0.2738314 z m 1.2818663,-1.7799 0.00936,-0.26578 H 3.4804278 3.2052941 v 0.27513 0.27514 l 0.2657769,-0.009 0.2657777,-0.009 z"
       id="path12142"
       inkscape:connector-curvature="0" />
  </g>
</svg>
