<?xml version="1.0" encoding="UTF-8" standalone="no"?>
<!-- Created with Inkscape (http://www.inkscape.org/) -->

<svg
   xmlns:dc="http://purl.org/dc/elements/1.1/"
   xmlns:cc="http://creativecommons.org/ns#"
   xmlns:rdf="http://www.w3.org/1999/02/22-rdf-syntax-ns#"
   xmlns:svg="http://www.w3.org/2000/svg"
   xmlns="http://www.w3.org/2000/svg"
   xmlns:sodipodi="http://sodipodi.sourceforge.net/DTD/sodipodi-0.dtd"
   xmlns:inkscape="http://www.inkscape.org/namespaces/inkscape"
   width="64"
   height="64"
   viewBox="0 0 16.933333 16.933334"
   version="1.1"
   id="svg8"
   inkscape:version="0.92.5 (2060ec1f9f, 2020-04-08)"
   sodipodi:docname="male_underwear_64x64.svg">
  <defs
     id="defs2" />
  <sodipodi:namedview
     id="base"
     pagecolor="#ffffff"
     bordercolor="#666666"
     borderopacity="1.0"
     inkscape:pageopacity="0.0"
     inkscape:pageshadow="2"
     inkscape:zoom="3.959798"
     inkscape:cx="39.819878"
     inkscape:cy="15.694046"
     inkscape:document-units="mm"
     inkscape:current-layer="layer1"
     showgrid="false"
     units="px"
     inkscape:window-width="1208"
     inkscape:window-height="987"
     inkscape:window-x="1992"
     inkscape:window-y="0"
     inkscape:window-maximized="1" />
  <metadata
     id="metadata5">
    <rdf:RDF>
      <cc:Work
         rdf:about="">
        <dc:format>image/svg+xml</dc:format>
        <dc:type
           rdf:resource="http://purl.org/dc/dcmitype/StillImage" />
        <dc:title></dc:title>
      </cc:Work>
    </rdf:RDF>
  </metadata>
  <g
     inkscape:label="Layer 1"
     inkscape:groupmode="layer"
     id="layer1"
     transform="translate(0,-280.06665)">
    <path
       style="fill:#000000;stroke-width:0.02769959"
       d="m 4.2272752,294.14951 c -0.802313,-0.0408 -1.5523458,-0.19427 -2.311063,-0.47295 -0.3777313,-0.13873 -0.6274685,-0.26092 -0.6765648,-0.33101 -0.04133,-0.059 -0.045454,-0.28476 -0.045183,-2.47556 2.407e-4,-1.9196 0.00854,-2.48826 0.040745,-2.79179 0.061932,-0.58357 0.1645638,-1.14287 0.3351536,-1.82646 l 0.094694,-0.37946 v -0.74056 c 0,-0.86433 0.00872,-0.90077 0.2610096,-1.09125 0.5941795,-0.44861 1.9400195,-0.73721 4.2678738,-0.91518 0.6208976,-0.0475 2.8683142,-0.065 3.6115845,-0.0282 2.5875574,0.12818 4.3836754,0.49588 4.9080514,1.00477 0.18727,0.18173 0.191885,0.20661 0.191885,1.03409 v 0.73633 l 0.09493,0.37947 c 0.175104,0.69996 0.295455,1.37673 0.348257,1.95834 0.01585,0.17446 0.02767,1.32319 0.02769,2.68761 2.6e-5,2.64809 0.01422,2.45567 -0.18878,2.55848 -0.368301,0.18651 -1.176333,0.44884 -1.713051,0.55614 -1.006771,0.20126 -2.384818,0.19582 -3.6383158,-0.0144 -0.4271196,-0.0716 -0.5297303,-0.10714 -0.5761794,-0.19947 -0.01341,-0.0267 -0.091756,-0.28907 -0.1740966,-0.58313 l -0.1497089,-0.53467 -0.1384979,0.0222 c -0.076173,0.0122 -0.3067728,0.0223 -0.512442,0.0223 -0.2056699,0 -0.4362684,-0.01 -0.5124426,-0.0223 l -0.138498,-0.0222 -0.1491885,0.53467 c -0.1531498,0.54885 -0.1889309,0.63818 -0.2738149,0.68361 -0.081213,0.0435 -0.8770425,0.16834 -1.3356689,0.20957 -0.5811935,0.0523 -1.14905,0.0663 -1.6483769,0.041 z m 0.9417854,-0.46874 c 0.689455,-0.0332 1.6982753,-0.14726 1.742276,-0.19698 0.015166,-0.0172 0.2661389,-0.89369 0.2660362,-0.92916 -5.55e-5,-0.0176 -0.06553,-0.0689 -0.1455143,-0.1141 -0.3514638,-0.19846 -0.6838451,-0.54677 -0.8759314,-0.91789 -0.1182317,-0.22844 -0.2251274,-0.54488 -0.2251274,-0.66644 0,-0.27494 0.39903,-0.30638 0.4587831,-0.0361 0.1064331,0.48133 0.3710599,0.89121 0.7244751,1.12211 0.3532211,0.23078 0.6939862,0.32589 1.1676025,0.32589 0.9463512,0 1.5977571,-0.44845 1.8508096,-1.27417 0.08583,-0.28007 0.14759,-0.3601 0.277901,-0.3601 0.114403,0 0.229358,0.10429 0.229358,0.20807 0,0.21313 -0.191191,0.67569 -0.400573,0.9691 -0.154949,0.21715 -0.4377041,0.47498 -0.6696587,0.61063 -0.096937,0.0567 -0.1762485,0.11434 -0.1762485,0.12813 0,0.0315 0.2526313,0.91946 0.2657771,0.93406 0.044794,0.0498 1.0547101,0.164 1.7332111,0.19606 1.243396,0.0588 2.389257,-0.13131 3.410998,-0.56574 l 0.105515,-0.0448 -0.01078,-2.42959 c -0.0126,-2.84158 -2.2e-4,-2.67977 -0.317928,-4.15387 -0.01746,-0.081 -0.02958,-0.0795 -0.250037,0.0312 -0.51704,0.25966 -1.512561,0.48254 -2.760216,0.61796 -0.458349,0.0498 -0.459171,0.05 -0.459299,0.11928 -7.02e-4,0.37697 -0.109034,1.61209 -0.191786,2.18655 -0.04447,0.30871 -0.05733,0.35097 -0.124285,0.40857 -0.08264,0.0711 -0.145954,0.0797 -0.247295,0.0335 -0.131001,-0.0597 -0.14381,-0.12936 -0.0925,-0.50308 0.09449,-0.6882 0.211089,-2.10857 0.175975,-2.14369 -0.0069,-0.007 -0.247616,0.003 -0.534926,0.0225 -0.6990871,0.0469 -2.9157178,0.0468 -3.6062793,-5e-5 -0.2945431,-0.0201 -0.5418739,-0.03 -0.5496242,-0.0223 -0.035295,0.0353 0.062037,1.24449 0.162506,2.01891 0.06574,0.50674 0.058401,0.56516 -0.07888,0.62771 -0.101342,0.0461 -0.164656,0.0376 -0.2472956,-0.0335 -0.066962,-0.0576 -0.079814,-0.0999 -0.1242846,-0.40857 -0.08239,-0.57195 -0.1919155,-1.81217 -0.1919155,-2.17317 v -0.0847 l -0.450118,-0.0479 c -1.2354328,-0.13137 -2.2519284,-0.35823 -2.7692673,-0.61804 -0.1024545,-0.0514 -0.1969683,-0.0935 -0.2100308,-0.0935 -0.028675,0 -0.151535,0.5304 -0.2245598,0.96948 -0.1226361,0.73738 -0.127018,0.85189 -0.127018,3.31955 v 2.36393 l 0.1661981,0.0681 c 0.8183952,0.33531 1.5513293,0.48637 2.7145596,0.55947 0.030467,0.002 0.3046953,-0.009 0.6093906,-0.0232 z M 9.6563944,286.811 c 2.0958736,-0.0943 3.8205476,-0.36641 4.5150336,-0.71245 0.267142,-0.1331 0.263145,-0.12383 0.263145,-0.61083 0,-0.33111 -0.0078,-0.42427 -0.03463,-0.41324 -0.616824,0.2537 -0.941837,0.34825 -1.62735,0.47342 -1.414042,0.25818 -3.7161556,0.3936 -5.5122194,0.32424 -2.3348579,-0.0902 -3.9775942,-0.32841 -4.8742868,-0.70694 -0.1290331,-0.0545 -0.2380998,-0.099 -0.2423708,-0.099 -0.00427,0 -0.00777,0.19104 -0.00777,0.42452 0,0.48371 -0.00352,0.47549 0.2631454,0.60729 0.7225087,0.35707 2.5476334,0.63708 4.7089305,0.72246 0.5184904,0.0205 2.0057659,0.015 2.5483622,-0.009 z m 0.6924896,-1.45175 c 0.304696,-0.0224 0.815753,-0.0689 1.135683,-0.10314 0.668943,-0.0715 0.665456,-0.0749 -0.166197,-0.15884 -1.149032,-0.11602 -1.4340548,-0.12805 -3.033105,-0.12805 -1.0326716,0 -1.7204938,0.0123 -2.0220705,0.036 -0.5964286,0.047 -1.5387853,0.14244 -1.6619754,0.16822 -0.1635353,0.0343 1.2167744,0.16978 2.2852166,0.22441 0.6669967,0.0341 2.7998361,0.0103 3.4624483,-0.0387 z M 3.5872402,284.8575 c 1.2737508,-0.24947 2.8291604,-0.37294 4.6980248,-0.37294 1.886005,0 3.45075,0.12508 4.721004,0.37738 0.222808,0.0442 0.39784,0.0648 0.462823,0.0544 0.156584,-0.025 0.601338,-0.17837 0.7502,-0.25864 0.284959,-0.15365 0.27178,-0.22837 -0.06939,-0.39337 -0.673165,-0.32558 -2.221457,-0.58315 -4.1749705,-0.69455 -0.6654901,-0.0379 -2.722658,-0.0376 -3.3793495,5.3e-4 -2.0649585,0.12001 -3.587253,0.38099 -4.2464882,0.72799 -0.2790126,0.14686 -0.2676668,0.22567 0.055387,0.3847 0.1924155,0.0947 0.6465842,0.24058 0.7563549,0.2429 0.038084,7.6e-4 0.2299666,-0.03 0.4263996,-0.0685 z"
       id="path15018"
       inkscape:connector-curvature="0" />
    <path
       style="fill:#ffffff;stroke-width:0.00448678;stroke-miterlimit:4;stroke-dasharray:none"
       d="m 4.0927506,293.65181 c -0.7863065,-0.0786 -1.3852518,-0.2123 -2.0774695,-0.46375 l -0.3165666,-0.11499 0.00891,-2.43042 c 0.00518,-1.40445 0.026666,-2.58075 0.050979,-2.78655 0.050829,-0.43026 0.2291959,-1.33335 0.2718059,-1.37619 0.016838,-0.017 0.1479732,0.0241 0.2914071,0.0913 0.4830062,0.22603 1.4468506,0.42743 2.9408601,0.61453 l 0.1608641,0.0202 0.068477,0.84199 c 0.063993,0.78689 0.1583062,1.58552 0.2043864,1.7307 0.011035,0.0348 0.065695,0.0876 0.1214531,0.11748 0.086836,0.0465 0.1165501,0.0458 0.2070913,-0.004 0.1375699,-0.0769 0.1487124,-0.21349 0.070298,-0.86213 -0.07215,-0.59686 -0.1620981,-1.74051 -0.1387259,-1.76388 0.0091,-0.009 0.3992422,0.002 0.8669743,0.024 0.8331805,0.0398 3.1755832,0.0185 3.5954051,-0.0327 l 0.21245,-0.0258 -0.02774,0.41168 c -0.01526,0.22641 -0.05336,0.65205 -0.08468,0.94587 -0.03132,0.29382 -0.06797,0.68796 -0.08145,0.87589 -0.0241,0.33595 -0.02279,0.34283 0.07803,0.40887 0.244274,0.16006 0.36441,-0.007 0.441038,-0.61206 0.0569,-0.44955 0.112631,-1.03947 0.161493,-1.70952 l 0.0251,-0.34433 0.164783,-0.0207 c 1.507711,-0.1897 2.424363,-0.38096 2.932003,-0.61178 0.150841,-0.0686 0.287534,-0.11099 0.303763,-0.0942 0.01623,0.0167 0.08625,0.31535 0.155602,0.66357 0.120436,0.60471 0.127556,0.69353 0.158614,1.97854 0.01789,0.73998 0.03368,1.9264 0.0351,2.63649 l 0.0026,1.29107 -0.187961,0.0799 c -0.331089,0.14072 -0.930335,0.31743 -1.396676,0.41186 -0.409305,0.0829 -0.556872,0.0916 -1.521673,0.0901 -0.785605,-0.002 -1.20408,-0.02 -1.580947,-0.0707 -0.2818944,-0.0379 -0.5184138,-0.0749 -0.5256,-0.0821 -0.024344,-0.0244 -0.2479266,-0.83431 -0.2468275,-0.89416 6.006e-4,-0.0327 0.109122,-0.13067 0.2411586,-0.21773 0.4440949,-0.2928 0.8201809,-0.82286 0.9470669,-1.33479 0.0544,-0.21949 0.0382,-0.27911 -0.100613,-0.37006 -0.168446,-0.11037 -0.269257,-0.0326 -0.397919,0.30705 -0.3369388,0.88942 -0.8873053,1.26587 -1.8481863,1.26418 -0.2892607,-5.1e-4 -0.4765844,-0.0229 -0.6528913,-0.0778 -0.5844081,-0.18211 -1.0085009,-0.61596 -1.1773342,-1.20441 -0.074564,-0.25989 -0.1938038,-0.36958 -0.3571666,-0.32858 -0.1507659,0.0378 -0.2025161,0.18555 -0.1441432,0.41143 0.1340523,0.51875 0.5394584,1.08364 0.9708134,1.35274 0.1221046,0.0762 0.222337,0.1652 0.222738,0.19786 4.042e-4,0.0326 -0.054517,0.24877 -0.1220378,0.48029 l -0.122768,0.42094 -0.1445622,0.0229 c -0.7417089,0.1171 -2.1550274,0.19312 -2.6573088,0.14292 z"
       id="path15020"
       inkscape:connector-curvature="0" />
    <path
       style="fill:#ffffff;stroke-width:0.00448678;stroke-miterlimit:4;stroke-dasharray:none"
       d="m 6.3680742,286.76719 c -1.8433907,-0.1302 -3.2240925,-0.36136 -3.8733306,-0.64849 -0.328357,-0.14522 -0.3409645,-0.16829 -0.3409645,-0.62412 0,-0.36247 0.00607,-0.39468 0.069249,-0.36919 1.1681192,0.47115 2.9332493,0.71361 5.5300254,0.7596 2.6819485,0.0475 5.0589305,-0.19722 6.2576685,-0.64422 0.198887,-0.0741 0.372504,-0.13484 0.385815,-0.13484 0.01332,0 0.0242,0.1652 0.0242,0.36711 0,0.43905 -0.03807,0.51171 -0.337453,0.64411 -0.550584,0.24349 -1.641273,0.4489 -3.164567,0.59599 -0.736228,0.0711 -3.7950654,0.10741 -4.5506466,0.0541 z"
       id="path15022"
       inkscape:connector-curvature="0" />
    <path
       style="fill:#ffffff;stroke-width:0.00448678;stroke-miterlimit:4;stroke-dasharray:none"
       d="m 2.8066982,284.81405 c -0.2953783,-0.0965 -0.593271,-0.23719 -0.6308123,-0.29793 -0.064938,-0.10507 0.3125288,-0.29767 0.8935559,-0.45592 1.169446,-0.31855 3.0314229,-0.4965 5.2017838,-0.49714 1.8204764,-5.4e-4 3.2688674,0.10817 4.5241484,0.3396 0.851714,0.15702 1.585797,0.43041 1.585797,0.59059 0,0.065 -0.402485,0.26281 -0.722102,0.35487 -0.222654,0.0642 -0.242747,0.063 -0.9497,-0.0552 -1.532763,-0.25618 -2.8990751,-0.3408 -4.976101,-0.30817 -1.8270108,0.0287 -2.729811,0.10278 -3.9966549,0.32799 -0.2938136,0.0523 -0.5609167,0.0942 -0.5935625,0.0934 -0.032649,-7.5e-4 -0.1840048,-0.0423 -0.3363524,-0.0921 z"
       id="path15024"
       inkscape:connector-curvature="0" />
    <path
       style="fill:#ffffff;stroke-width:0.00448678;stroke-miterlimit:4;stroke-dasharray:none"
       d="m 6.4472157,285.35531 c -0.1088201,-0.007 -0.4969796,-0.0398 -0.8625781,-0.072 -0.3655976,-0.0322 -0.6905735,-0.0587 -0.7221676,-0.0587 -0.031592,0 -0.057441,-0.0151 -0.057441,-0.0335 0,-0.0185 0.3516857,-0.0674 0.7815241,-0.10881 1.135315,-0.10941 4.3125173,-0.10954 5.4212049,-2.1e-4 0.418956,0.0413 0.761739,0.0875 0.761739,0.10255 0,0.0297 -0.69455,0.10141 -1.543263,0.15914 -0.4928994,0.0335 -3.3248136,0.0422 -3.7790153,0.0115 z"
       id="path15026"
       inkscape:connector-curvature="0" />
  </g>
</svg>
