<?xml version="1.0" encoding="UTF-8" standalone="no"?>
<!-- Created with Inkscape (http://www.inkscape.org/) -->

<svg
   xmlns:dc="http://purl.org/dc/elements/1.1/"
   xmlns:cc="http://creativecommons.org/ns#"
   xmlns:rdf="http://www.w3.org/1999/02/22-rdf-syntax-ns#"
   xmlns:svg="http://www.w3.org/2000/svg"
   xmlns="http://www.w3.org/2000/svg"
   xmlns:sodipodi="http://sodipodi.sourceforge.net/DTD/sodipodi-0.dtd"
   xmlns:inkscape="http://www.inkscape.org/namespaces/inkscape"
   width="64"
   height="64"
   viewBox="0 0 16.933333 16.933334"
   version="1.1"
   id="svg8"
   inkscape:version="0.92.5 (2060ec1f9f, 2020-04-08)"
   sodipodi:docname="mattress_64x64.svg">
  <defs
     id="defs2" />
  <sodipodi:namedview
     id="base"
     pagecolor="#ffffff"
     bordercolor="#666666"
     borderopacity="1.0"
     inkscape:pageopacity="0.0"
     inkscape:pageshadow="2"
     inkscape:zoom="7.919596"
     inkscape:cx="26.149408"
     inkscape:cy="41.928626"
     inkscape:document-units="mm"
     inkscape:current-layer="layer1"
     showgrid="false"
     units="px"
     inkscape:window-width="1208"
     inkscape:window-height="987"
     inkscape:window-x="1992"
     inkscape:window-y="0"
     inkscape:window-maximized="1" />
  <metadata
     id="metadata5">
    <rdf:RDF>
      <cc:Work
         rdf:about="">
        <dc:format>image/svg+xml</dc:format>
        <dc:type
           rdf:resource="http://purl.org/dc/dcmitype/StillImage" />
        <dc:title></dc:title>
      </cc:Work>
    </rdf:RDF>
  </metadata>
  <g
     inkscape:label="Layer 1"
     inkscape:groupmode="layer"
     id="layer1"
     transform="translate(0,-280.06665)">
    <path
       style="fill:#000000;stroke-width:0.07275629"
       d="m 1.0938331,293.90836 c -0.35988235,-0.16347 -0.66792597,-0.5158 -0.7251366,-0.8294 -0.0234615,-0.12887 -0.0329578,-0.65644 -0.021134,-1.17236 0.0188064,-0.81257 0.0392886,-0.94882 0.15325373,-1.01859 0.19405993,-0.11878 0.34133658,0.12171 0.34133658,0.55739 0,0.29588 0.0356578,0.39113 0.21266159,0.56814 l 0.2126801,0.21268 h 7.2140603 7.2140682 l 0.212673,-0.21268 0.212672,-0.21268 v -0.94711 -0.94711 l -0.20008,0.10438 c -0.30308,0.1581 -14.6809979,0.15734 -14.9067588,-8.2e-4 -0.13904653,-0.0974 -0.1580857,-0.0914 -0.23290175,0.0727 -0.0447816,0.0983 -0.12473686,0.17882 -0.17761829,0.17882 -0.24001465,0 -0.27075664,-0.16744 -0.27075664,-1.47465 v -1.29997 l 0.43503354,-1.81466 c 0.23926984,-0.99804 0.48417234,-1.90966 0.54422254,-2.02578 0.1434875,-0.27747 0.4302762,-0.49713 0.7677211,-0.58799 0.1751604,-0.0472 2.2071758,-0.0667 5.6757599,-0.0548 4.9506034,0.0171 5.4093034,0.0288 5.4793624,0.13987 0.05549,0.0879 0.05021,0.15284 -0.01918,0.23647 -0.08572,0.1033 -0.667581,0.11523 -5.612143,0.11523 H 2.0871195 l -0.1925797,0.16566 c -0.1681499,0.14462 -0.2471461,0.39018 -0.6224925,1.93497 -0.43830147,1.8039 -0.49020533,2.16163 -0.35128918,2.4212 0.19150898,0.35783 0.0842565,0.35283 7.56079668,0.35283 7.4765002,0 7.3692852,0.004 7.5607962,-0.35283 0.138916,-0.25957 0.08701,-0.6173 -0.35129,-2.4212 -0.49381,-2.03235 -0.531805,-2.10063 -1.168843,-2.10063 -0.194574,0 -0.405561,-0.0198 -0.468858,-0.0441 -0.149188,-0.0572 -0.149188,-0.36373 0,-0.42098 0.330421,-0.12679 1.063195,0.0327 1.352306,0.29434 0.257815,0.23332 0.344281,0.49044 0.789558,2.34781 l 0.435034,1.81466 v 2.76496 c 0,1.78191 -0.02758,2.83779 -0.0776,2.96978 -0.110353,0.29125 -0.349649,0.53033 -0.686338,0.68573 -0.276638,0.12768 -0.64172,0.13432 -7.3847644,0.13432 -6.7268714,0 -7.1089398,-0.006 -7.3877682,-0.13356 z M 15.90834,293.32315 c 0.165507,-0.16551 0.212673,-0.27845 0.212673,-0.50929 0,-0.16314 -0.0082,-0.29613 -0.01818,-0.29553 -0.01006,5.5e-4 -0.149152,0.0484 -0.309216,0.1059 -0.435182,0.15679 -14.1888338,0.15679 -14.6240163,0 -0.1600594,-0.0577 -0.31038981,-0.10535 -0.3340561,-0.1059 -0.0236477,-5.5e-4 -0.0197375,0.15246 0.008379,0.34014 0.0363094,0.23898 0.11033411,0.39159 0.2471741,0.50929 l 0.195382,0.16807 h 7.2044068 7.2044195 z m -0.149651,-3.7533 c 0.269296,-0.13926 0.362324,-0.31418 0.362324,-0.68133 v -0.29149 l -0.20008,0.10439 c -0.299978,0.15649 -14.5786782,0.15649 -14.8786593,0 l -0.20008361,-0.10439 v 0.29149 c 0,0.36073 0.0912391,0.53881 0.34742541,0.67782 0.3026159,0.16421 14.2517865,0.16759 14.5690735,0.003 z m -8.0955581,2.30664 c -0.1547154,-0.0301 -0.2220648,-0.22734 -0.1197094,-0.35069 0.065357,-0.0787 0.3972345,-0.1 1.5655137,-0.1 h 1.4825988 v -0.25463 -0.25465 H 8.4816013 6.3716696 v 0.24981 c 0,0.21844 0.025137,0.25271 0.2000835,0.27284 0.1581417,0.0182 0.2049715,0.0658 0.2234427,0.22671 l 0.023368,0.20369 -0.4599009,-0.0217 -0.4599102,-0.0217 -0.021414,-0.57076 c -0.013407,-0.35818 0.010244,-0.60883 0.063495,-0.673 0.1151101,-0.13869 4.9347133,-0.15288 5.0726703,-0.0149 0.121646,0.12165 0.118489,1.21536 -0.0037,1.26042 -0.103542,0.0382 -3.1709312,0.0829 -3.3467526,0.0487 z m 6.7005381,-0.23232 c -0.120048,-0.12005 -0.277222,-0.21828 -0.349276,-0.21828 -0.170533,0 -0.322332,-0.18588 -0.267815,-0.32795 0.02354,-0.0613 0.144607,-0.13189 0.269039,-0.15678 0.124431,-0.0249 0.243763,-0.0909 0.265181,-0.14673 0.05249,-0.13677 0.408695,-0.31437 0.630541,-0.31437 0.241544,0 0.606005,0.318 0.663268,0.5787 0.05383,0.24505 -0.109926,0.61492 -0.322639,0.72876 -0.280156,0.14993 -0.655599,0.0894 -0.888299,-0.14335 z m 0.727735,-0.39536 c 0.03549,-0.18602 -0.194557,-0.36056 -0.328602,-0.24932 -0.104267,0.0867 -0.129315,0.29699 -0.04533,0.38096 0.09714,0.0971 0.347082,0.01 0.373942,-0.13164 z M 2.5710776,287.60144 c -0.3263752,-0.17709 -0.3778322,-0.70256 -0.073084,-0.74605 0.1192626,-0.0171 0.1818637,0.0268 0.2339165,0.1637 0.039102,0.10287 0.1218043,0.18694 0.1838095,0.18694 0.062005,0 0.1447164,-0.0842 0.1838095,-0.18694 0.1058191,-0.27832 0.3905127,-0.21988 0.4203143,0.0862 0.017503,0.17946 -0.025417,0.26668 -0.2056604,0.41835 -0.2560838,0.21547 -0.4515869,0.23593 -0.743133,0.0778 z m 2.6987497,-0.10374 c -0.2667719,-0.26677 -0.2708777,-0.60498 -0.00745,-0.64235 0.1200538,-0.0171 0.182506,0.0265 0.2346613,0.16369 0.093566,0.24612 0.3342982,0.24919 0.3955772,0.004 0.050368,-0.20078 0.2633087,-0.2455 0.3977187,-0.0835 0.1258355,0.15163 -0.041151,0.54098 -0.2863603,0.66779 -0.3075968,0.15908 -0.4918532,0.13129 -0.7337857,-0.11064 z m 2.9952022,0.026 c -0.180253,-0.15167 -0.223126,-0.23889 -0.2056603,-0.41835 0.029793,-0.30615 0.3144955,-0.36456 0.4203142,-0.0862 0.039103,0.10287 0.1218043,0.18694 0.1838096,0.18694 0.062005,0 0.1447163,-0.0842 0.1838095,-0.18694 0.052137,-0.13719 0.1146075,-0.18076 0.2346613,-0.16371 0.324718,0.0461 0.2234986,0.61404 -0.1388602,0.77914 -0.2720136,0.12394 -0.4296896,0.0982 -0.6780741,-0.11083 z m 2.8253025,-0.026 c -0.266772,-0.26677 -0.270887,-0.60498 -0.0075,-0.64235 0.120045,-0.0171 0.182507,0.0265 0.234661,0.16369 0.0905,0.23799 0.276157,0.24056 0.365701,0.004 0.07579,-0.19945 0.295745,-0.2424 0.427595,-0.0835 0.125835,0.15163 -0.04115,0.54098 -0.28636,0.66779 -0.307606,0.15908 -0.491854,0.13129 -0.733786,-0.11064 z m 2.76474,0 c -0.279466,-0.27946 -0.273708,-0.61912 0.01049,-0.61912 0.118841,0 0.206784,0.0567 0.25371,0.16371 0.0395,0.09 0.121772,0.1637 0.182828,0.1637 0.06105,0 0.143325,-0.0737 0.182826,-0.1637 0.106787,-0.24342 0.382068,-0.2574 0.44105,-0.0224 0.08493,0.33837 -0.278023,0.69537 -0.706966,0.69537 -0.0805,0 -0.244281,-0.0979 -0.363945,-0.21757 z M 2.8290422,286.1895 c -0.3917229,-0.16456 -0.5180518,-0.84165 -0.1471836,-0.78891 0.088633,0.0125 0.1934549,0.0966 0.2329577,0.18662 0.039475,0.09 0.1217669,0.16369 0.1828226,0.16369 0.061075,0 0.1433291,-0.0737 0.1828227,-0.16369 0.1074481,-0.24489 0.4284419,-0.22549 0.4577874,0.0277 0.045712,0.39413 -0.5071404,0.74352 -0.9092068,0.57461 z m 2.6522922,-0.0432 c -0.3263752,-0.17709 -0.3778322,-0.70256 -0.073084,-0.74604 0.1192626,-0.0171 0.1818637,0.0268 0.2339166,0.16369 0.039102,0.10287 0.1217949,0.18693 0.1838002,0.18693 0.062005,0 0.1447257,-0.0842 0.1838095,-0.18693 0.1058191,-0.27831 0.3905126,-0.2199 0.4203142,0.0862 0.017503,0.17944 -0.025417,0.26666 -0.2056603,0.41834 -0.2560746,0.21548 -0.4515869,0.23593 -0.7431236,0.0778 z m 2.8547592,0.0197 c -0.3838931,-0.19418 -0.4631779,-0.77893 -0.1056232,-0.77893 0.126636,0 0.1883342,0.0507 0.2212547,0.18189 0.059771,0.23815 0.2731773,0.23537 0.3826828,-0.004 0.1185643,-0.26022 0.4018895,-0.22091 0.4342235,0.0602 0.016665,0.14517 -0.037147,0.26103 -0.1944788,0.41835 -0.2338235,0.23382 -0.4487567,0.26976 -0.7380591,0.12342 z m 2.7871684,0.0235 c -0.214412,-0.09 -0.402886,-0.39177 -0.373633,-0.5981 0.03277,-0.23092 0.358615,-0.23392 0.459398,-0.004 0.03947,0.09 0.121775,0.1637 0.182832,0.1637 0.06107,0 0.14332,-0.0737 0.182822,-0.1637 0.09364,-0.21345 0.371203,-0.25748 0.431207,-0.0685 0.05232,0.16487 -0.04562,0.45625 -0.195038,0.58026 -0.148775,0.12348 -0.499226,0.16958 -0.687588,0.0904 z m 2.652285,-0.0432 c -0.326372,-0.1771 -0.377829,-0.70256 -0.07306,-0.74604 0.11926,-0.0171 0.181863,0.0268 0.233915,0.16369 0.03909,0.10277 0.121803,0.18693 0.183808,0.18693 0.062,0 0.144719,-0.0842 0.183808,-0.18693 0.105814,-0.27831 0.390509,-0.2199 0.420315,0.0862 0.01747,0.17944 -0.02541,0.26666 -0.205662,0.41834 -0.256078,0.21548 -0.451587,0.23593 -0.743129,0.0778 z M 2.8688709,284.58748 c -0.266772,-0.26677 -0.2708871,-0.60499 -0.00745,-0.64235 0.1200445,-0.017 0.182506,0.0265 0.2346613,0.16369 0.090494,0.23799 0.2761658,0.24054 0.3657012,0.004 0.07988,-0.21018 0.3215805,-0.24437 0.4247179,-0.06 0.1635972,0.29234 -0.2303973,0.75128 -0.6449765,0.75128 -0.085094,0 -0.2526299,-0.0979 -0.3722927,-0.21758 z m 2.7709961,0.11345 c -0.3802435,-0.21282 -0.4535607,-0.76895 -0.1013775,-0.76895 0.1266268,0 0.1883342,0.0507 0.2212548,0.18189 0.059771,0.23814 0.2731773,0.23536 0.3826827,-0.004 0.1161624,-0.25495 0.4017593,-0.22145 0.4333206,0.0508 0.048691,0.42018 -0.5418951,0.76171 -0.9358803,0.54119 z m 2.5402171,-0.11345 c -0.2667719,-0.26677 -0.270887,-0.60499 -0.00745,-0.64235 0.1200446,-0.017 0.1824968,0.0265 0.2346521,0.16369 0.090494,0.23799 0.2761658,0.24054 0.3657011,0.004 0.075784,-0.19944 0.295745,-0.24239 0.4276041,-0.0835 0.1258355,0.15163 -0.041151,0.54098 -0.2863604,0.66779 -0.3076061,0.15908 -0.4918531,0.13128 -0.7337857,-0.11065 z m 2.7647589,0.1072 c -0.233507,-0.12685 -0.393315,-0.51775 -0.271613,-0.66438 0.13441,-0.16197 0.347332,-0.11725 0.397719,0.0835 0.06126,0.24413 0.30201,0.24106 0.395576,-0.004 0.05214,-0.13719 0.114617,-0.18076 0.234662,-0.1637 0.263076,0.0373 0.258961,0.37559 -0.0075,0.64236 -0.237994,0.23798 -0.45154,0.26858 -0.748534,0.1072 z m 2.546447,-0.1072 c -0.266772,-0.26677 -0.270884,-0.60499 -0.0078,-0.64235 0.120046,-0.017 0.182501,0.0265 0.234658,0.16369 0.09357,0.2461 0.334302,0.24918 0.395575,0.004 0.03292,-0.13116 0.09462,-0.18188 0.221254,-0.18188 0.360818,0 0.275207,0.567 -0.11617,0.7694 -0.301238,0.15577 -0.486903,0.12671 -0.727507,-0.1139 z"
       id="path10721"
       inkscape:connector-curvature="0" />
    <path
       style="fill:none;stroke:#000000;stroke-width:0.00824953;stroke-linecap:butt;stroke-linejoin:miter;stroke-miterlimit:4;stroke-dasharray:none;stroke-opacity:1"
       d="m 13.004685,283.27529 1.273235,0.013"
       id="path10723"
       inkscape:connector-curvature="0" />
    <path
       style="fill:none;stroke:#000000;stroke-width:0.00824953;stroke-linecap:butt;stroke-linejoin:miter;stroke-miterlimit:4;stroke-dasharray:none;stroke-opacity:1"
       d="m 0.56288678,289.89441 0.0367749,1.52502"
       id="path10725"
       inkscape:connector-curvature="0" />
    <path
       style="fill:#ffffff;stroke-width:0.00416665;stroke-miterlimit:4;stroke-dasharray:none"
       d="m 1.1128537,292.0378 c -0.19777475,-0.20545 -0.22940119,-0.2741 -0.25315129,-0.54952 -0.034075,-0.39511 -0.0512987,-0.45832 -0.16395104,-0.60002 -0.0949352,-0.11946 -0.1093007,-0.16777 -0.1093007,-0.36743 0,-0.16742 0.0145238,-0.23544 0.0535331,-0.25041 0.0294199,-0.0113 0.0953356,-0.0868 0.14642011,-0.16766 l 0.0928218,-0.14711 0.12971782,0.0542 c 0.2394281,0.10006 3.0654563,0.13613 8.7826929,0.11214 5.1761966,-0.0216 6.1146346,-0.0409 6.2002296,-0.12645 0.02374,-0.0237 0.05639,-0.0432 0.07256,-0.0432 0.01617,0 0.0294,0.41811 0.0294,0.92912 v 0.92913 l -0.19408,0.19167 -0.19408,0.19167 H 8.484413 1.2631561 Z m 5.7074236,-0.31235 c -0.025323,-0.18998 -0.1220276,-0.30318 -0.2590911,-0.30318 -0.1256213,0 -0.168634,-0.0721 -0.168634,-0.28295 v -0.19477 h 2.094598 2.0946078 v 0.23692 0.23692 l -1.4607104,0.0111 c -1.6216536,0.0123 -1.6260759,0.013 -1.6260759,0.23205 0,0.0952 0.023275,0.14175 0.094292,0.18826 0.086119,0.0565 0.2380222,0.0598 1.7506731,0.0398 0.9476862,-0.0126 1.6711002,-0.0367 1.6907912,-0.0565 0.0189,-0.0189 0.0513,-0.16122 0.07206,-0.31622 0.04068,-0.3045 -0.0047,-0.87877 -0.07421,-0.94875 -0.08146,-0.0815 -0.893464,-0.10665 -2.8170267,-0.0874 -1.0914056,0.0109 -2.0467906,0.0306 -2.123087,0.0438 -0.087049,0.015 -0.1547433,0.0532 -0.1817333,0.10255 -0.044316,0.081 -0.051579,1.15179 -0.00838,1.19564 0.012103,0.0122 0.2066472,0.0314 0.4324267,0.0428 0.2257795,0.0115 0.4334322,0.0238 0.4614464,0.0276 0.03994,0.005 0.045898,-0.0307 0.027744,-0.16774 z m 8.4377557,0.0772 c 0.219379,-0.11227 0.385144,-0.51842 0.315112,-0.77205 -0.04461,-0.16157 -0.282826,-0.42549 -0.459878,-0.5095 -0.234738,-0.1114 -0.615979,-0.004 -0.825865,0.23179 -0.0551,0.062 -0.179904,0.13725 -0.286182,0.17255 -0.36397,0.12088 -0.376641,0.37529 -0.02518,0.50574 0.09838,0.0365 0.272369,0.13985 0.386648,0.22964 0.299781,0.23552 0.614796,0.28543 0.895352,0.14183 z"
       id="path10727"
       inkscape:connector-curvature="0" />
    <path
       style="fill:#ffffff;stroke-width:0.00416665;stroke-miterlimit:4;stroke-dasharray:none"
       d="m 1.1633424,293.40309 c -0.18004827,-0.14842 -0.27847475,-0.34739 -0.30703817,-0.62071 -0.0263476,-0.25208 -0.0262545,-0.25215 0.26189347,-0.16473 0.299348,0.0908 2.3653826,0.12629 7.3505836,0.12629 4.9699667,0 7.0910207,-0.0365 7.3891077,-0.12683 0.09947,-0.0302 0.193273,-0.0551 0.20843,-0.0553 0.04334,-6.3e-4 0.03218,0.43638 -0.01344,0.52567 -0.02255,0.0441 -0.117009,0.15881 -0.209916,0.25481 l -0.168922,0.17455 H 8.4877181 1.3013926 Z"
       id="path10729"
       inkscape:connector-curvature="0" />
    <path
       style="fill:#ffffff;stroke-width:0.00416665;stroke-miterlimit:4;stroke-dasharray:none"
       d="m 14.721976,291.36103 c -0.05443,-0.0545 -0.02199,-0.26036 0.05151,-0.32687 0.06936,-0.0627 0.08462,-0.0639 0.17455,-0.0137 0.122669,0.0686 0.155112,0.24628 0.05793,0.31734 -0.06896,0.0504 -0.242595,0.0646 -0.283984,0.0233 z"
       id="path10731"
       inkscape:connector-curvature="0" />
    <path
       style="fill:#ffffff;stroke-width:0.00416665;stroke-miterlimit:4;stroke-dasharray:none"
       d="m 2.3939435,289.61776 c -0.9245126,-0.025 -1.0963121,-0.0384 -1.2121764,-0.0953 -0.20269044,-0.0994 -0.29079202,-0.25946 -0.32113367,-0.58325 -0.0142445,-0.152 -0.018341,-0.28395 -0.00931,-0.29323 0.00931,-0.01 0.0677776,0.009 0.12995983,0.0395 0.20147074,0.10049 2.07031714,0.13389 7.50557854,0.13402 5.4849962,1.3e-4 7.2995802,-0.0331 7.5015292,-0.13759 l 0.112986,-0.0585 -0.01308,0.30612 c -0.01038,0.24408 -0.02969,0.3294 -0.09504,0.42101 -0.157675,0.22105 -0.21163,0.2303 -1.576828,0.27013 -1.442391,0.0421 -10.4321808,0.0397 -12.0227759,-0.003 z"
       id="path10733"
       inkscape:connector-curvature="0" />
    <path
       style="fill:#ffffff;stroke-width:0.00416665;stroke-miterlimit:4;stroke-dasharray:none"
       d="m 1.7623642,288.29583 c -0.5258817,-0.0361 -0.6878217,-0.087 -0.79791373,-0.25057 -0.16571997,-0.24628 -0.0969835,-0.73093 0.37577463,-2.64957 0.3143374,-1.27568 0.3950188,-1.51561 0.5754952,-1.7114 l 0.1430406,-0.15519 5.391485,-0.0193 c 3.1390251,-0.0113 5.4669551,-0.0337 5.5721301,-0.054 0.09936,-0.0192 0.200397,-0.0618 0.224536,-0.0948 0.03454,-0.0472 0.109266,-0.06 0.350812,-0.06 0.283073,0 0.312739,0.008 0.381797,0.0919 0.06904,0.0848 0.108648,0.0944 0.507502,0.12255 0.403875,0.0284 0.439773,0.0374 0.540152,0.13357 0.05914,0.0566 0.149419,0.20765 0.200624,0.33557 0.110085,0.27499 0.352431,1.19383 0.604736,2.29285 0.287153,1.25081 0.312943,1.50519 0.176968,1.74551 -0.109152,0.19291 -0.232215,0.23123 -0.885595,0.27585 -0.620391,0.0424 -12.7403267,0.0395 -13.3615438,-0.003 z m 12.8064968,-0.64927 c 0.269788,-0.13315 0.414753,-0.37651 0.369133,-0.6197 -0.04764,-0.25394 -0.313796,-0.25365 -0.463754,5e-4 -0.116372,0.19724 -0.178594,0.19833 -0.340986,0.005 -0.111381,-0.13193 -0.165698,-0.16775 -0.254338,-0.16775 -0.313128,0 -0.325442,0.36562 -0.02183,0.64798 0.25374,0.23598 0.4346,0.26976 0.711772,0.13297 z m -11.391118,-0.003 c 0.060981,-0.0371 0.1643049,-0.12106 0.2296712,-0.18642 0.1002331,-0.10027 0.1188342,-0.14586 0.1188342,-0.29158 0,-0.21906 -0.077833,-0.33606 -0.2234799,-0.33606 -0.089935,0 -0.126543,0.029 -0.2085464,0.1647 -0.1531141,0.2535 -0.2183872,0.25678 -0.3406476,0.0171 -0.1684665,-0.33023 -0.5381803,-0.14909 -0.4629918,0.22684 0.073177,0.3659 0.5755231,0.59545 0.8871603,0.4054 z m 2.8014031,-0.01 c 0.1827947,-0.0885 0.3226326,-0.27655 0.3602826,-0.4845 0.02104,-0.11619 0.011079,-0.15507 -0.059026,-0.22968 -0.1235265,-0.13148 -0.2784282,-0.12091 -0.3580668,0.0244 -0.1667534,0.3044 -0.282236,0.32324 -0.4127638,0.0674 -0.087422,-0.17142 -0.2132016,-0.21825 -0.3483006,-0.12974 -0.2016383,0.13212 -0.092729,0.50178 0.2130619,0.7233 0.1807558,0.13095 0.3747413,0.14017 0.6048407,0.0288 z m 3.0041026,-0.005 c 0.162359,-0.0909 0.3123542,-0.33764 0.3123542,-0.51398 0,-0.12186 -0.1452843,-0.28452 -0.2541195,-0.28452 -0.08044,0 -0.1094031,0.0271 -0.234894,0.22048 -0.045898,0.0708 -0.1070198,0.12862 -0.1357601,0.12862 -0.028768,0 -0.1002979,-0.0715 -0.159026,-0.15898 -0.1192625,-0.17759 -0.1696115,-0.20782 -0.2940412,-0.17659 -0.17395,0.0437 -0.2299038,0.38013 -0.092263,0.55505 0.043572,0.0554 0.1452935,0.14861 0.2259935,0.20706 0.1860161,0.13476 0.4168323,0.14311 0.6317934,0.0228 z m 2.7854463,0.0238 c 0.167014,-0.0845 0.244026,-0.1597 0.323619,-0.31565 0.09022,-0.17669 0.08872,-0.34064 -0.0037,-0.43325 -0.135042,-0.13504 -0.310966,-0.0835 -0.435546,0.12767 -0.103455,0.17534 -0.195418,0.16783 -0.325667,-0.0266 -0.123573,-0.18449 -0.257676,-0.22134 -0.375737,-0.10331 -0.159119,0.15912 -0.03761,0.50291 0.253681,0.71783 0.149586,0.11037 0.384006,0.1242 0.56355,0.0333 z m -5.8171162,-1.40979 c 0.1723953,-0.0479 0.4014427,-0.24216 0.4649656,-0.39419 0.098762,-0.23638 -0.054465,-0.53026 -0.2448932,-0.4698 -0.039102,0.0123 -0.1176798,0.0918 -0.1745738,0.17658 -0.1348663,0.20082 -0.220659,0.20025 -0.3323245,-0.002 -0.07476,-0.13556 -0.1024203,-0.15618 -0.2093936,-0.15618 -0.2148029,0 -0.3114139,0.17107 -0.242063,0.4286 0.047016,0.17463 0.193399,0.32269 0.3902799,0.39476 0.1800575,0.0659 0.1894142,0.0664 0.3480026,0.0224 z m 2.9972132,-0.0755 c 0.3116094,-0.19258 0.4379755,-0.57782 0.2416812,-0.73677 -0.145424,-0.11776 -0.1819289,-0.0996 -0.4628336,0.22988 -0.087515,0.10265 -0.1737545,0.0701 -0.261251,-0.0984 -0.094572,-0.18226 -0.2282653,-0.23955 -0.3590443,-0.15386 -0.1301648,0.0852 -0.1552182,0.2448 -0.068709,0.4373 0.173857,0.38674 0.57543,0.52879 0.9101192,0.32193 z m 5.515047,-0.0389 c 0.210528,-0.14485 0.270386,-0.2398 0.270386,-0.42886 0,-0.11967 -0.02225,-0.1811 -0.09019,-0.24905 -0.147063,-0.14707 -0.251869,-0.10374 -0.396558,0.164 -0.08319,0.15394 -0.161586,0.13759 -0.295329,-0.0615 -0.0886,-0.13193 -0.123795,-0.15592 -0.228813,-0.15592 -0.326296,0 -0.307406,0.55484 0.02558,0.75154 0.264722,0.15638 0.466601,0.15068 0.714928,-0.0202 z m -11.1029567,0.0441 c 0.2326037,-0.10774 0.3566331,-0.26395 0.3768919,-0.47479 0.015175,-0.15797 0.00651,-0.18794 -0.068523,-0.24059 -0.1562887,-0.10947 -0.282087,-0.0684 -0.4120748,0.13476 -0.1068337,0.16692 -0.1624893,0.16284 -0.3344471,-0.0245 -0.120268,-0.13099 -0.1823292,-0.17045 -0.2680753,-0.17045 -0.1592215,0 -0.2067217,0.076 -0.1855039,0.2969 0.042361,0.44102 0.4733353,0.67233 0.8917317,0.47862 z m 8.3487017,-0.002 c 0.340872,-0.15475 0.447305,-0.77364 0.133051,-0.77364 -0.131467,0 -0.213955,0.0553 -0.300009,0.20115 -0.100556,0.17044 -0.204282,0.17044 -0.304841,0 -0.126105,-0.21372 -0.30053,-0.26267 -0.439809,-0.12339 -0.153124,0.15313 -0.0065,0.52547 0.274946,0.69693 0.14953,0.0912 0.434568,0.0906 0.636662,-9.3e-4 z m -8.1044137,-1.46739 c 0.091705,-0.0582 0.202467,-0.16348 0.2460475,-0.23401 0.1480774,-0.23959 0.071968,-0.54215 -0.1363,-0.54215 -0.1178474,0 -0.1830461,0.0465 -0.295717,0.21131 -0.111982,0.16369 -0.1996553,0.1531 -0.3040682,-0.0368 -0.069454,-0.1262 -0.1083231,-0.15836 -0.2026998,-0.16753 -0.1448373,-0.0141 -0.2683825,0.0972 -0.267526,0.24103 8.938e-4,0.14929 0.1436272,0.37517 0.3240105,0.51274 0.2096636,0.15993 0.4010144,0.16454 0.636253,0.0154 z m 5.2770265,0.0278 c 0.2991618,-0.14482 0.4733073,-0.56035 0.3052599,-0.7284 -0.1292895,-0.12929 -0.2894142,-0.0913 -0.416823,0.099 -0.060702,0.0906 -0.1333953,0.15618 -0.1732332,0.15618 -0.039847,0 -0.1125778,-0.0656 -0.1733356,-0.15618 -0.117354,-0.17508 -0.2247182,-0.21113 -0.3616327,-0.12141 -0.1967505,0.12892 -0.057909,0.53016 0.2533188,0.73194 0.182413,0.11829 0.3496412,0.12387 0.5664458,0.0189 z m 2.6136462,0.0252 c 0.13414,-0.0693 0.36437,-0.32634 0.392393,-0.43799 0.04013,-0.16008 0.0028,-0.29413 -0.09636,-0.34976 -0.136906,-0.0765 -0.265497,-0.0305 -0.337576,0.12061 -0.117456,0.24631 -0.258578,0.24079 -0.385932,-0.0151 -0.07476,-0.15013 -0.217558,-0.18727 -0.360366,-0.0937 -0.106201,0.0696 -0.117568,0.21262 -0.03296,0.41508 0.07616,0.18222 0.154492,0.26418 0.329326,0.34445 0.177581,0.0816 0.354092,0.0874 0.491491,0.0163 z m 2.669111,-0.0158 c 0.305755,-0.13889 0.497421,-0.49193 0.38059,-0.70103 -0.04133,-0.074 -0.08578,-0.0964 -0.208632,-0.10536 -0.152916,-0.011 -0.157597,-0.009 -0.228479,0.15224 -0.115488,0.26108 -0.234831,0.26198 -0.379719,0.003 -0.06149,-0.10999 -0.106019,-0.14625 -0.189691,-0.15453 -0.366006,-0.0362 -0.332936,0.46579 0.04969,0.75441 0.185657,0.14004 0.34907,0.15462 0.576232,0.0514 z m -7.9225553,-0.0401 c 0.2221485,-0.11334 0.3338886,-0.27065 0.3338886,-0.47006 0,-0.35632 -0.2858391,-0.41811 -0.4722927,-0.10212 -0.1087607,0.18436 -0.2450421,0.18089 -0.323787,-0.009 -0.068709,-0.16494 -0.1045059,-0.19163 -0.2583277,-0.19236 -0.2238895,-9.3e-4 -0.2916392,0.22001 -0.1543336,0.50364 0.1551343,0.32045 0.5413363,0.43925 0.8748524,0.26911 z"
       id="path10735"
       inkscape:connector-curvature="0" />
  </g>
</svg>
