<?xml version="1.0" encoding="UTF-8" standalone="no"?>
<svg
   xmlns:dc="http://purl.org/dc/elements/1.1/"
   xmlns:cc="http://creativecommons.org/ns#"
   xmlns:rdf="http://www.w3.org/1999/02/22-rdf-syntax-ns#"
   xmlns:svg="http://www.w3.org/2000/svg"
   xmlns="http://www.w3.org/2000/svg"
   xmlns:sodipodi="http://sodipodi.sourceforge.net/DTD/sodipodi-0.dtd"
   xmlns:inkscape="http://www.inkscape.org/namespaces/inkscape"
   width="64"
   height="64"
   viewBox="0 0 16.933333 16.933333"
   version="1.1"
   id="svg8"
   sodipodi:docname="seren_medication2_64x64.svg"
   inkscape:version="1.0.2 (1.0.2+r75+1)">
  <defs
     id="defs2" />
  <sodipodi:namedview
     id="base"
     pagecolor="#ffffff"
     bordercolor="#666666"
     borderopacity="1.0"
     inkscape:pageopacity="0.0"
     inkscape:pageshadow="2"
     inkscape:zoom="5.4453128"
     inkscape:cx="106.57669"
     inkscape:cy="26.662533"
     inkscape:document-units="mm"
     inkscape:current-layer="layer1"
     inkscape:document-rotation="0"
     showgrid="false"
     inkscape:snap-global="false"
     fit-margin-top="0"
     fit-margin-left="0"
     fit-margin-right="0"
     fit-margin-bottom="0"
     inkscape:window-width="1366"
     inkscape:window-height="704"
     inkscape:window-x="0"
     inkscape:window-y="0"
     inkscape:window-maximized="0"
     units="px" />
  <metadata
     id="metadata5">
    <rdf:RDF>
      <cc:Work
         rdf:about="">
        <dc:format>image/svg+xml</dc:format>
        <dc:type
           rdf:resource="http://purl.org/dc/dcmitype/StillImage" />
        <dc:title />
      </cc:Work>
    </rdf:RDF>
  </metadata>
  <g
     inkscape:label="Calque 1"
     inkscape:groupmode="layer"
     id="layer1"
     transform="translate(-44.581036,-28.552681)">
    <path
       style="fill:#000000;stroke-width:0.0310588"
       d="m 50.444956,44.93043 c -0.842324,-0.121933 -1.593033,-0.700286 -1.911535,-1.47266 -0.191383,-0.464109 -0.184938,-0.30526 -0.184938,-4.55853 v -3.881283 l 0.07964,-0.09466 c 0.0438,-0.05203 0.131157,-0.108964 0.194118,-0.126445 0.158218,-0.04393 8.487678,-0.04393 8.645896,0 0.06296,0.01749 0.150314,0.07436 0.194118,0.126445 l 0.07963,0.09466 v 3.881283 c 0,3.356407 -0.0064,3.912271 -0.04733,4.110463 -0.155315,0.751918 -0.641604,1.369799 -1.334782,1.695969 -0.512175,0.241002 -0.327936,0.227246 -3.121414,0.233052 -1.375131,0.003 -2.542167,-7.44e-4 -2.593414,-0.0082 z m 5.703251,-3.108512 c 0.19866,-0.09788 0.362575,-0.26614 0.458492,-0.470652 l 0.08109,-0.172896 v -1.894585 -1.89459 l -0.07322,-0.161932 c -0.09119,-0.20169 -0.314898,-0.414629 -0.517771,-0.492874 -0.14837,-0.05725 -0.27184,-0.05956 -3.151597,-0.05956 -2.87976,0 -3.003229,0.0022 -3.151599,0.05956 -0.202871,0.07825 -0.42657,0.291184 -0.51777,0.492874 l -0.07321,0.161932 v 1.89459 c 0,1.890276 1.51e-4,1.894928 0.0688,2.043594 0.08831,0.191283 0.166234,0.289038 0.321368,0.403118 0.245745,0.180727 0.1248,0.174743 3.399023,0.168222 l 3.012707,-0.0059 z m -5.978354,-0.783831 c -0.256548,-0.07791 -0.376506,-0.385253 -0.238625,-0.611382 0.125555,-0.205918 -0.0251,-0.195638 2.864892,-0.195511 2.571331,1.26e-4 2.620093,0.0015 2.721062,0.06283 0.110042,0.06707 0.192321,0.2226 0.192132,0.363144 -1.19e-4,0.109927 -0.09637,0.26868 -0.206665,0.340961 -0.0805,0.05279 -0.236319,0.05635 -2.66478,0.06149 -1.418597,0.003 -2.619203,-0.0067 -2.668016,-0.02151 z m -0.08016,-1.39176 c -0.121982,-0.06543 -0.219327,-0.22633 -0.219327,-0.362542 0,-0.136219 0.09734,-0.297122 0.219327,-0.36254 0.09921,-0.05322 0.225211,-0.05672 2.016425,-0.05664 1.839003,1.33e-4 1.914323,0.0022 2.009857,0.06067 0.281204,0.171459 0.287491,0.523713 0.01262,0.707336 l -0.105531,0.07049 h -1.913772 c -1.794157,0 -1.92039,-0.0037 -2.019597,-0.05672 z m -0.0237,-1.370388 c -0.260068,-0.159385 -0.254166,-0.532616 0.01114,-0.706471 0.0806,-0.05279 0.226019,-0.05606 2.525015,-0.05606 2.35497,0 2.442918,0.0022 2.538543,0.05992 0.226533,0.137068 0.263701,0.461272 0.07457,0.650425 l -0.09715,0.09717 -2.476355,0.008 c -2.413275,0.0078 -2.478887,0.0067 -2.575787,-0.053 z m -1.382141,-4.258131 c -0.158401,-0.158403 -0.13326,-0.218304 0.494695,-1.17874 l 0.558446,-0.854118 h 3.2082 3.208198 l 0.558446,0.854118 c 0.627954,0.960436 0.653096,1.020337 0.494694,1.17874 l -0.09468,0.09468 h -4.16666 -4.166666 z m 0.959282,-2.931678 c -0.290307,-0.104256 -0.306048,-0.160367 -0.294635,-1.050287 l 0.0094,-0.732604 0.07764,-0.08304 c 0.168365,-0.180052 -0.03236,-0.170311 3.509651,-0.170311 3.542011,0 3.341286,-0.0097 3.509649,0.170313 l 0.07764,0.08304 0.0085,0.750734 c 0.008,0.702343 0.0046,0.757146 -0.05298,0.850169 -0.03381,0.05469 -0.107537,0.124572 -0.163806,0.155295 -0.09641,0.05263 -0.288822,0.05625 -3.332435,0.06255 -2.669889,0.0056 -3.250678,-6.94e-4 -3.348646,-0.03588 z"
       id="path1359" />
    <path
       style="fill:#ffffff;stroke:none;stroke-width:0.183644"
       d="m 21.733079,50.282212 c -2.094987,-0.124447 -2.487492,-0.245286 -3.14638,-0.968672 -0.988845,-1.085639 -0.985614,-1.056797 -0.985614,-8.797659 0,-7.046214 0.0081,-7.206579 0.399686,-7.903295 0.219828,-0.39113 0.72919,-0.939541 1.131918,-1.218691 l 0.732231,-0.507546 11.309976,-0.0561 c 7.729823,-0.03834 11.525351,0.0068 11.990364,0.142625 0.884207,0.25825 1.724531,0.976195 2.174149,1.85752 0.338234,0.662993 0.359236,1.119679 0.359236,7.81161 v 7.10745 l -0.566732,0.883174 c -1.075898,1.676642 -0.394592,1.577593 -11.553784,1.679688 -5.40373,0.04944 -10.734003,0.03589 -11.84505,-0.03011 z m 19.45531,-3.139181 c 0.259626,-0.09871 0.606625,-0.461685 0.771109,-0.806612 0.280715,-0.588667 0.277839,-0.670537 -0.04689,-1.334535 -0.31072,-0.63535 -0.43947,-0.722798 -1.264175,-0.858647 -0.505022,-0.08319 -5.202193,-0.124985 -10.438159,-0.09288 l -9.519937,0.05837 -0.350937,0.433544 c -0.515289,0.636583 -0.467035,1.762606 0.09982,2.329466 l 0.450763,0.450763 h 9.913178 c 6.010708,0 10.099006,-0.07065 10.385226,-0.179472 z m -4.788817,-5.446718 c 0.662421,-0.662421 0.667017,-1.66733 0.01045,-2.284409 l -0.473701,-0.445211 -6.826154,-0.05615 c -3.754385,-0.03088 -7.179115,-0.0049 -7.610512,0.05774 -1.011899,0.146937 -1.511195,0.676353 -1.511195,1.602359 0,0.507159 0.128005,0.836301 0.450763,1.159059 l 0.450763,0.450763 h 7.512717 7.512716 z m 3.960887,-5.191255 c 0.508052,-0.713493 0.48418,-1.528521 -0.06342,-2.16514 L 39.85383,33.824656 h -9.458781 -9.45878 l -0.473906,0.445211 c -0.646178,0.607053 -0.656931,1.684011 -0.02314,2.317799 l 0.450763,0.450763 h 9.54534 9.54534 z"
       id="path8"
       transform="matrix(0.26458333,0,0,0.26458333,44.581036,28.552681)" />
    <path
       style="fill:none;stroke:#000000;stroke-width:0.264583px;stroke-linecap:butt;stroke-linejoin:miter;stroke-opacity:1"
       d="m 56.200191,30.744773 -0.321714,1.561513 1.017584,1.523906 0.01634,1.250177"
       id="path12" />
    <path
       style="fill:none;stroke:#000000;stroke-width:0.264583px;stroke-linecap:butt;stroke-linejoin:miter;stroke-opacity:1"
       d="m 49.768348,30.61086 0.402574,1.73727 -1.042706,1.42788"
       id="path14" />
    <path
       style="fill:none;stroke:#000000;stroke-width:0.264583px;stroke-linecap:butt;stroke-linejoin:miter;stroke-opacity:1"
       d="m 49.027634,35.406608 -0.009,-1.369187"
       id="path16" />
    <path
       style="fill:#ffffff;stroke-width:0.183644"
       d="m 17.417441,22.255073 v -1.193687 h 14.212776 c 12.790782,0 14.223928,0.02906 14.324246,0.290486 0.06131,0.159767 0.11147,0.696926 0.11147,1.193687 V 23.44876 H 31.741687 17.417441 Z"
       id="path18"
       transform="matrix(0.26458333,0,0,0.26458333,44.581036,28.552681)" />
    <path
       style="fill:#ffffff;stroke-width:0.183644"
       d="M 21.042654,11.374155 C 20.866765,10.591372 20.723047,9.9095927 20.723281,9.8590906 20.723514,9.8085884 25.728616,9.7671234 31.845729,9.766946 L 42.967753,9.7666228 42.849671,10.4097 c -0.06494,0.353693 -0.201099,1.035617 -0.302568,1.515388 l -0.184489,0.872309 H 31.862534 21.362453 Z"
       id="path20"
       transform="matrix(0.26458333,0,0,0.26458333,44.581036,28.552681)" />
    <path
       style="fill:#ffffff;stroke-width:0.183644"
       d="M 21.042654,11.374155 C 20.866765,10.591372 20.723047,9.9095927 20.723281,9.8590906 20.723514,9.8085884 25.728616,9.7671234 31.845729,9.766946 L 42.967753,9.7666228 42.849671,10.4097 c -0.06494,0.353693 -0.201099,1.035617 -0.302568,1.515388 l -0.184489,0.872309 H 31.862534 21.362453 Z"
       id="path22"
       transform="matrix(0.26458333,0,0,0.26458333,44.581036,28.552681)" />
  </g>
</svg>
