<?xml version="1.0" encoding="UTF-8" standalone="no"?>
<!-- Created with Inkscape (http://www.inkscape.org/) -->

<svg
   xmlns:dc="http://purl.org/dc/elements/1.1/"
   xmlns:cc="http://creativecommons.org/ns#"
   xmlns:rdf="http://www.w3.org/1999/02/22-rdf-syntax-ns#"
   xmlns:svg="http://www.w3.org/2000/svg"
   xmlns="http://www.w3.org/2000/svg"
   xmlns:sodipodi="http://sodipodi.sourceforge.net/DTD/sodipodi-0.dtd"
   xmlns:inkscape="http://www.inkscape.org/namespaces/inkscape"
   width="64"
   height="64"
   viewBox="0 0 16.933333 16.933334"
   version="1.1"
   id="svg8"
   inkscape:version="0.92.5 (2060ec1f9f, 2020-04-08)"
   sodipodi:docname="medical_bed_64x64.svg">
  <defs
     id="defs2" />
  <sodipodi:namedview
     id="base"
     pagecolor="#ffffff"
     bordercolor="#666666"
     borderopacity="1.0"
     inkscape:pageopacity="0.0"
     inkscape:pageshadow="2"
     inkscape:zoom="3.959798"
     inkscape:cx="107.05658"
     inkscape:cy="-7.0890766"
     inkscape:document-units="mm"
     inkscape:current-layer="layer1"
     showgrid="false"
     units="px"
     inkscape:window-width="1208"
     inkscape:window-height="987"
     inkscape:window-x="1992"
     inkscape:window-y="0"
     inkscape:window-maximized="1" />
  <metadata
     id="metadata5">
    <rdf:RDF>
      <cc:Work
         rdf:about="">
        <dc:format>image/svg+xml</dc:format>
        <dc:type
           rdf:resource="http://purl.org/dc/dcmitype/StillImage" />
        <dc:title />
      </cc:Work>
    </rdf:RDF>
  </metadata>
  <g
     inkscape:label="Layer 1"
     inkscape:groupmode="layer"
     id="layer1"
     transform="translate(0,-280.06665)">
    <path
       style="fill:#000000;stroke-width:0.03007566"
       d="m 1.7487039,296.26964 c -0.3710374,-0.12445 -0.6315733,-0.40917 -0.726579,-0.79416 -0.12058247,-0.48863 0.1147516,-0.99328 0.5690563,-1.2203 0.1001918,-0.0501 0.2003071,-0.091 0.2224773,-0.091 0.032828,0 0.040311,-0.17304 0.040311,-0.93235 v -0.93236 H 1.4314172 c -0.43840857,0 -0.57027303,-0.0295 -0.6114126,-0.13667 -0.0102761,-0.0268 -0.0186847,-0.70217 -0.0186847,-1.50085 0,-1.42357 0.00125,-1.4537 0.0623348,-1.5314 0.0862056,-0.1096 0.2402614,-0.1096 0.3264663,0 0.060911,0.0774 0.062335,0.10946 0.062335,1.39853 v 1.31926 h 3.3083217 3.308323 v -0.42105 -0.42106 H 5.0472305 2.225361 l -0.0647,-0.0688 -0.0647,-0.0688 -0.00821,-2.43493 -0.00821,-2.43492 -0.067936,-0.10931 C 1.8964458,285.7043 1.6058155,285.64076 1.4376333,285.764 1.255347,285.89762 1.252558,285.91868 1.2525069,287.16554 l -4.65e-5,1.13671 -0.073822,0.0738 c -0.094521,0.0945 -0.20945371,0.094 -0.30477256,-9e-4 l -0.0751042,-0.0751 0.008806,-1.21064 0.008806,-1.21061 0.0800225,-0.15039 c 0.16562556,-0.31125 0.43532156,-0.47564 0.77582206,-0.47289 0.2421987,0.001 0.4349043,0.0793 0.5944327,0.23893 0.2346956,0.23469 0.2790733,0.42778 0.2790733,1.21423 v 0.56605 l 0.4736914,0.14982 c 0.2605305,0.0824 0.7240717,0.22667 1.0300915,0.32056 0.5989513,0.18379 0.7592667,0.25798 0.8887287,0.41131 0.1134503,0.13434 0.2234216,0.37854 0.223777,0.49685 l 2.913e-4,0.0975 h 1.3534048 1.3534047 v -0.0888 c 0,-0.0488 0.015087,-0.16046 0.033522,-0.24813 0.1171896,-0.55718 0.5884005,-0.99634 1.1544663,-1.07596 0.2975441,-0.0418 2.2658841,-0.0399 2.3871621,0.001 0.163107,0.0569 0.207584,0.237 0.08656,0.35062 -0.06621,0.0622 -0.09401,0.0638 -1.285734,0.0729 -1.17025,0.009 -1.2235224,0.0117 -1.3570865,0.0736 -0.1906282,0.0882 -0.3762951,0.26311 -0.4723473,0.44511 l -0.080378,0.15228 -0.00869,1.7068 -0.00869,1.70679 h 3.0538558 3.05385 v -2.04513 -2.04514 h -1.05264 c -1.012546,0 -1.054938,-10e-4 -1.112798,-0.0601 -0.07599,-0.076 -0.0772,-0.21287 -0.0027,-0.30493 l 0.05746,-0.071 1.066446,-0.009 1.066446,-0.009 0.05452,-0.12095 c 0.197196,-0.4373 0.73991,-0.62338 1.17267,-0.40207 0.196825,0.10073 0.373749,0.30373 0.430931,0.49457 0.02402,0.0802 0.03397,0.81428 0.03397,2.50378 v 2.39038 l -0.06321,0.0572 c -0.0527,0.0477 -0.120198,0.059 -0.40602,0.0674 l -0.342805,0.0102 v 0.92975 c 0,0.82305 0.0054,0.92977 0.047,0.92977 0.10164,0 0.382701,0.16842 0.512325,0.307 0.564188,0.60316 0.310945,1.56342 -0.475287,1.80223 -0.978319,0.29716 -1.791208,-0.80592 -1.222029,-1.65826 0.131231,-0.19653 0.409681,-0.40568 0.583512,-0.43828 l 0.103344,-0.0194 v -0.35757 -0.35755 H 8.5909009 2.3050879 v 0.34681 c 0,0.30347 0.00658,0.34905 0.052631,0.36464 0.3438744,0.11645 0.5921529,0.32422 0.7242167,0.60597 0.070315,0.15001 0.080283,0.20874 0.08011,0.47208 -2.387e-4,0.36309 -0.053928,0.50421 -0.2846712,0.74817 -0.2894817,0.3061 -0.7370433,0.42094 -1.1286872,0.28964 z m 0.5799222,-0.43788 c 0.1428303,-0.0597 0.2664996,-0.17736 0.3432562,-0.32664 0.088891,-0.17289 0.067972,-0.47791 -0.04374,-0.63788 -0.1242126,-0.17785 -0.2684181,-0.2614 -0.4772624,-0.27649 -0.332386,-0.024 -0.6030632,0.15765 -0.6882789,0.46202 -0.1414898,0.50534 0.3857596,0.9796 0.8660284,0.77899 z m 13.0287719,-0.0157 c 0.181958,-0.0825 0.237245,-0.13668 0.320304,-0.31348 0.114842,-0.2445 0.08583,-0.48232 -0.08394,-0.68811 -0.37825,-0.45856 -1.139902,-0.18508 -1.137443,0.40841 0.002,0.48113 0.469535,0.7889 0.901069,0.59318 z m -0.480669,-3.17069 v -0.34586 H 8.5909161 2.3051036 v 0.34586 0.34588 h 6.2858125 6.2858129 z m 0.81193,-3.01507 c -1.25e-4,-2.1171 -0.0028,-2.2223 -0.05659,-2.31072 -0.06263,-0.10276 -0.225414,-0.19308 -0.347828,-0.19308 -0.101436,0 -0.221396,0.0624 -0.317275,0.16497 l -0.07519,0.0805 -0.0082,2.23822 -0.0082,2.23822 h 0.406585 0.406585 l -1.25e-4,-2.21808 z m -7.8195583,0.24813 v -0.67671 H 5.2074043 2.545709 v 0.67671 0.67669 h 2.6616953 2.6616964 z m -3.1579443,-1.18952 c 0,-0.0932 -0.079301,-0.22741 -0.1724815,-0.29206 -0.066464,-0.0461 -1.8966735,-0.63878 -1.9726057,-0.63878 -0.011193,0 -0.020361,0.22331 -0.020361,0.49625 v 0.49625 h 1.0827237 c 1.0714172,0 1.0827237,-5.5e-4 1.0827237,-0.0617 z m 2.7365291,-1.93547 c -1.1188466,-0.19881 -1.9966807,-0.98075 -2.335051,-2.07999 -0.077264,-0.25099 -0.082752,-0.30473 -0.082752,-0.81018 0,-0.50341 0.00571,-0.55988 0.081445,-0.80568 0.31792,-1.03176 1.0685193,-1.75484 2.1209086,-2.04317 0.1867722,-0.0511 0.3169707,-0.0633 0.6819781,-0.0633 0.3940519,-10e-5 0.4891899,0.0102 0.751891,0.0802 0.8275665,0.22108 1.5025168,0.77359 1.8797348,1.53872 0.234461,0.47557 0.286194,0.71451 0.283262,1.30829 -0.0022,0.44923 -0.01019,0.52189 -0.08411,0.76693 -0.04491,0.14887 -0.121702,0.35694 -0.170638,0.46236 -0.365034,0.78638 -1.1025026,1.38831 -1.9595573,1.59939 -0.3198722,0.0787 -0.8634799,0.10043 -1.1671075,0.0464 z m 1.1420675,-0.49929 c 0.7888464,-0.22409 1.416395,-0.82577 1.689551,-1.61991 0.09657,-0.28076 0.09967,-0.30471 0.09983,-0.77097 1.48e-4,-0.46602 -0.003,-0.49024 -0.09856,-0.76693 -0.2825628,-0.81777 -0.8884743,-1.39514 -1.7111516,-1.63054 -0.3364225,-0.0962 -0.9451234,-0.0959 -1.2830899,5.5e-4 -0.7020676,0.2008 -1.2474967,0.64746 -1.5678582,1.28392 -0.1942474,0.3859 -0.2605327,0.66904 -0.2605327,1.1128 0,0.44376 0.066285,0.72687 0.2605327,1.11279 0.3591686,0.71357 1.0065933,1.19154 1.8147042,1.33973 0.2345418,0.0431 0.8054049,0.0102 1.0565718,-0.0617 z m -1.081545,-0.72422 c -0.041347,-0.0172 -0.1069179,-0.0608 -0.1457169,-0.0971 -0.1286942,-0.12023 -0.155055,-0.21035 -0.155055,-0.53054 v -0.30226 l -0.2782001,-5.2e-4 c -0.5466436,-9e-4 -0.7142968,-0.17409 -0.7142968,-0.73619 0,-0.5621 0.1676532,-0.7349 0.7142968,-0.7362 l 0.2782001,-5.4e-4 v -0.31134 c 0,-0.27338 0.00825,-0.32349 0.067669,-0.41078 0.1363677,-0.20037 0.1981309,-0.22422 0.6090162,-0.2352 0.4266347,-0.0116 0.5341744,0.0207 0.6708965,0.19969 0.074451,0.0975 0.081841,0.13245 0.091189,0.43187 l 0.010174,0.32576 0.2755399,5.4e-4 c 0.5420935,8.9e-4 0.7089951,0.17461 0.7089951,0.7362 0,0.5625 -0.1666336,0.7349 -0.711657,0.73619 l -0.2781987,5.4e-4 v 0.28692 c 0,0.32979 -0.052651,0.47277 -0.2173682,0.59026 -0.088933,0.0635 -0.1346881,0.0709 -0.4743723,0.077 -0.2081692,0.003 -0.4094943,-0.007 -0.4511196,-0.0243 z m 0.6969706,-0.83862 c 0.012809,-0.54933 -0.013944,-0.52269 0.5445908,-0.54233 l 0.4276222,-0.015 v -0.27067 -0.2707 l -0.4276222,-0.015 c -0.5585331,-0.0197 -0.5317853,0.007 -0.5445908,-0.54234 l -0.0098,-0.42007 H 7.9269807 7.6585731 v 0.36187 c 0,0.40632 -0.040349,0.55761 -0.1559153,0.58459 -0.038308,0.009 -0.2388281,0.0197 -0.4455981,0.0237 l -0.3759455,0.007 v 0.27068 0.27068 l 0.3759455,0.007 c 0.20677,0.003 0.4072892,0.0147 0.4455981,0.0237 0.1155637,0.0269 0.1559153,0.17828 0.1559153,0.58459 v 0.36188 h 0.2684076 0.2684077 z"
       id="path10474"
       inkscape:connector-curvature="0" />
    <path
       style="fill:none;stroke:#000000;stroke-width:0.00341015;stroke-linecap:butt;stroke-linejoin:miter;stroke-miterlimit:4;stroke-dasharray:none;stroke-opacity:1"
       d="m 11.345031,287.52876 h 1.868987"
       id="path10476"
       inkscape:connector-curvature="0" />
    <path
       style="fill:none;stroke:#000000;stroke-width:0.00341015;stroke-linecap:butt;stroke-linejoin:miter;stroke-miterlimit:4;stroke-dasharray:none;stroke-opacity:1"
       d="m 0.99041079,287.85101 v 1.97638"
       id="path10478"
       inkscape:connector-curvature="0" />
    <path
       style="fill:#ffffff;stroke-width:0.00243583;stroke-miterlimit:4;stroke-dasharray:none"
       d="m 1.2641544,290.54461 c -0.00686,-0.9608 -0.016119,-1.31197 -0.035915,-1.36275 -0.029648,-0.0761 -0.106014,-0.13565 -0.1736875,-0.13565 -0.042911,0 -0.044138,-0.009 -0.038352,-0.29388 l 0.00598,-0.29387 0.062207,-0.0166 c 0.034211,-0.009 0.089801,-0.0431 0.1235256,-0.0754 l 0.061317,-0.0588 1.206e-4,-1.06474 c 6.02e-5,-0.59407 0.00945,-1.12167 0.021214,-1.19353 0.023347,-0.14264 0.065467,-0.21239 0.1717889,-0.28476 0.1558941,-0.10611 0.4237423,-0.0373 0.543019,0.13973 l 0.059441,0.0882 0.013071,2.44521 0.013071,2.44521 0.065968,0.0699 0.065968,0.0699 h 2.8207467 2.8207494 v 0.40816 0.40817 H 4.5688981 1.2734024 Z"
       id="path10480"
       inkscape:connector-curvature="0" />
    <path
       style="fill:#ffffff;stroke-width:0.00243583;stroke-miterlimit:4;stroke-dasharray:none"
       d="m 2.5581834,289.88401 v -0.66596 H 5.2112862 7.864389 v 0.66596 0.66595 H 5.2112862 2.5581834 Z"
       id="path10482"
       inkscape:connector-curvature="0" />
    <path
       style="fill:#ffffff;stroke-width:0.00243583;stroke-miterlimit:4;stroke-dasharray:none"
       d="m 2.5581834,288.27215 c 0,-0.37492 0.00595,-0.4756 0.028681,-0.48431 0.041902,-0.0162 1.6174205,0.48221 1.8832722,0.59563 0.1086587,0.0464 0.2150303,0.17621 0.2215074,0.2704 0.0038,0.0553 -0.00261,0.06 -0.1033532,0.0735 -0.059077,0.009 -0.5400196,0.0151 -1.0687602,0.0163 l -0.9613468,10e-4 z"
       id="path10484"
       inkscape:connector-curvature="0" />
    <path
       style="fill:#ffffff;stroke-width:0.00243583;stroke-miterlimit:4;stroke-dasharray:none"
       d="m 2.3218744,292.64452 v -0.33296 h 6.2729235 6.2729231 v 0.33296 0.33299 H 8.5947979 2.3218744 Z"
       id="path10486"
       inkscape:connector-curvature="0" />
    <path
       style="fill:#ffffff;stroke-width:0.00243583;stroke-miterlimit:4;stroke-dasharray:none"
       d="m 1.9724483,295.85509 c -0.5891285,-0.14468 -0.7073486,-0.92092 -0.1797964,-1.18063 0.2725131,-0.1342 0.6006813,-0.0758 0.7757499,0.13784 0.1004568,0.12255 0.1401594,0.24446 0.1401594,0.43018 0,0.12227 -0.011353,0.17698 -0.054936,0.26444 -0.1267801,0.25442 -0.430623,0.40975 -0.6811769,0.34824 z"
       id="path10488"
       inkscape:connector-curvature="0" />
    <path
       style="fill:#ffffff;stroke-width:0.00243583;stroke-miterlimit:4;stroke-dasharray:none"
       d="m 8.3370068,290.1503 v -1.68861 l 0.077079,-0.14667 c 0.084618,-0.16104 0.2594369,-0.34262 0.4203757,-0.43664 0.1427153,-0.0834 0.3088735,-0.095 1.5277425,-0.10741 0.956982,-0.0102 1.054677,-0.0146 1.127837,-0.0498 0.05681,-0.0278 0.08612,-0.0595 0.100817,-0.10961 l 0.02071,-0.0703 0.287991,0.006 0.287991,0.006 0.02427,0.075 c 0.01422,0.0438 0.04651,0.0854 0.07798,0.10014 0.0372,0.0175 0.372297,0.03 1.090243,0.0408 l 1.036537,0.0156 v 2.0272 2.02719 H 11.376797 8.3370068 Z"
       id="path10490"
       inkscape:connector-curvature="0" />
    <path
       style="fill:#ffffff;stroke-width:0.00243583;stroke-miterlimit:4;stroke-dasharray:none"
       d="m 14.892571,289.60593 0.0074,-2.23301 0.07426,-0.0766 c 0.170634,-0.17605 0.360705,-0.20212 0.537874,-0.0738 0.170556,0.12358 0.159009,-0.0429 0.167863,2.41979 l 0.0079,2.19659 h -0.401321 -0.40132 z"
       id="path10492"
       inkscape:connector-curvature="0" />
    <path
       style="fill:#ffffff;stroke-width:0.00243583;stroke-miterlimit:4;stroke-dasharray:none"
       d="m 14.835498,295.80483 c -0.227245,-0.10771 -0.361134,-0.32333 -0.36169,-0.58239 -5.43e-4,-0.25848 0.111188,-0.43668 0.346382,-0.55244 0.267921,-0.13187 0.549301,-0.0811 0.743846,0.13435 0.16757,0.18546 0.208453,0.41318 0.117724,0.65568 -0.122309,0.32689 -0.532016,0.49386 -0.846262,0.34486 z"
       id="path10494"
       inkscape:connector-curvature="0" />
    <path
       style="fill:#ffffff;stroke-width:0.00243583;stroke-miterlimit:4;stroke-dasharray:none"
       d="m 7.3595475,286.26537 c -0.7698149,-0.20069 -1.333052,-0.66857 -1.6757846,-1.39209 -0.1736146,-0.3665 -0.238534,-0.76529 -0.2025994,-1.24455 0.06,-0.8002 0.5719799,-1.56684 1.2983532,-1.94418 0.3429312,-0.17815 0.6026031,-0.2509 0.9882005,-0.27687 0.4193403,-0.0284 0.8265413,0.046 1.1869152,0.21628 0.6477763,0.30619 1.0843426,0.80839 1.3322416,1.53255 l 0.0784,0.22901 -4.24e-4,0.48336 -4.22e-4,0.48335 -0.06941,0.20273 c -0.27969,0.81692 -0.8478104,1.40241 -1.6035488,1.65256 -0.3706323,0.1227 -0.9814687,0.14922 -1.3319215,0.0579 z m 0.9189156,-0.7188 c 0.1318294,-0.0217 0.2471791,-0.11295 0.3157028,-0.24993 0.046359,-0.0926 0.054162,-0.14148 0.06164,-0.3856 0.0054,-0.17526 0.017628,-0.28542 0.032856,-0.29531 0.013362,-0.009 0.1264556,-0.0159 0.2513268,-0.0162 0.2952022,-4.2e-4 0.4299134,-0.0394 0.5493651,-0.15881 0.1243916,-0.12445 0.1474834,-0.21781 0.1466942,-0.5934 -5.969e-4,-0.27783 -0.00603,-0.32346 -0.050071,-0.42217 -0.1007056,-0.22553 -0.2366379,-0.28987 -0.6420876,-0.30396 l -0.2846451,-0.0102 -0.00126,-0.22814 c -0.0017,-0.30082 -0.022159,-0.41247 -0.094835,-0.51734 -0.1284322,-0.18535 -0.336685,-0.23781 -0.7940359,-0.20008 -0.3111491,0.0256 -0.3695219,0.0509 -0.4836958,0.20986 l -0.076228,0.10611 -0.00729,0.31489 -0.00729,0.31487 -0.283068,0.0102 c -0.2458484,0.009 -0.2988611,0.0167 -0.4031811,0.0645 -0.2195451,0.10058 -0.2981203,0.28054 -0.2981203,0.68301 0,0.38803 0.072145,0.55885 0.279274,0.66125 0.1044013,0.0515 0.1469108,0.0591 0.3652045,0.0648 0.3747461,0.0102 0.337452,-0.026 0.3476868,0.33207 0.00655,0.22951 0.017583,0.3229 0.043969,0.37237 0.048023,0.0901 0.1957267,0.21999 0.2683935,0.23604 0.03279,0.007 0.069286,0.0163 0.081103,0.0204 0.043436,0.0146 0.583245,0.007 0.6826065,-0.009 z"
       id="path10498"
       inkscape:connector-curvature="0" />
  </g>
</svg>
