<?xml version="1.0" encoding="UTF-8" standalone="no"?>
<svg
   xmlns:dc="http://purl.org/dc/elements/1.1/"
   xmlns:cc="http://creativecommons.org/ns#"
   xmlns:rdf="http://www.w3.org/1999/02/22-rdf-syntax-ns#"
   xmlns:svg="http://www.w3.org/2000/svg"
   xmlns="http://www.w3.org/2000/svg"
   xmlns:sodipodi="http://sodipodi.sourceforge.net/DTD/sodipodi-0.dtd"
   xmlns:inkscape="http://www.inkscape.org/namespaces/inkscape"
   width="64"
   height="64"
   viewBox="0 0 16.933333 16.933333"
   version="1.1"
   id="svg8"
   sodipodi:docname="seren_medicatiojn_64x64.svg"
   inkscape:version="1.0.2-2 (e86c870879, 2021-01-15)">
  <defs
     id="defs2" />
  <sodipodi:namedview
     id="base"
     pagecolor="#ffffff"
     bordercolor="#666666"
     borderopacity="1.0"
     inkscape:pageopacity="0.0"
     inkscape:pageshadow="2"
     inkscape:zoom="2.7226564"
     inkscape:cx="59.01764"
     inkscape:cy="70.559173"
     inkscape:document-units="mm"
     inkscape:current-layer="layer1"
     inkscape:document-rotation="0"
     showgrid="false"
     inkscape:snap-global="false"
     fit-margin-top="0"
     fit-margin-left="0"
     fit-margin-right="0"
     fit-margin-bottom="0"
     inkscape:window-width="1540"
     inkscape:window-height="967"
     inkscape:window-x="1954"
     inkscape:window-y="32"
     inkscape:window-maximized="0"
     units="px" />
  <metadata
     id="metadata5">
    <rdf:RDF>
      <cc:Work
         rdf:about="">
        <dc:format>image/svg+xml</dc:format>
        <dc:type
           rdf:resource="http://purl.org/dc/dcmitype/StillImage" />
        <dc:title></dc:title>
      </cc:Work>
    </rdf:RDF>
  </metadata>
  <g
     inkscape:label="Calque 1"
     inkscape:groupmode="layer"
     id="layer1"
     transform="translate(-44.581036,-28.552681)">
    <path
       style="fill:#000000;stroke-width:0.0308719"
       d="m 55.716773,44.961685 c -1.608442,-0.291835 -2.866516,-1.668991 -2.969758,-3.25086 -0.05251,-0.804487 0.133623,-1.533624 0.558548,-2.188041 0.563241,-0.867436 1.519926,-1.478933 2.547652,-1.628417 l 0.131205,-0.01909 v 3.566067 c 0,1.961336 -0.01042,3.564813 -0.02315,3.563281 -0.01273,-0.0015 -0.122757,-0.02086 -0.244493,-0.04294 z m 1.101187,-3.521107 v -3.565295 l 0.131206,0.01867 c 0.241247,0.03432 0.704473,0.166004 0.926115,0.263283 1.151887,0.505567 1.960831,1.533891 2.154779,2.739142 0.05303,0.32951 0.03907,0.889708 -0.03066,1.231957 -0.150114,0.736627 -0.475237,1.317765 -1.042364,1.863167 -0.572093,0.55018 -1.199702,0.857283 -2.038736,0.997598 l -0.100334,0.01678 z m -8.108183,-1.879162 c -0.745211,-0.142533 -1.321332,-0.503089 -1.774023,-1.110241 -0.335508,-0.449985 -0.513346,-0.823465 -0.603157,-1.266704 -0.06798,-0.335491 -0.0437,-0.960519 0.04986,-1.284019 0.146961,-0.508074 0.4552,-0.991112 0.843115,-1.32124 0.183631,-0.156275 3.278832,-2.278045 3.351105,-2.297193 0.01921,-0.0052 0.757726,1.052863 1.641152,2.351005 1.270455,1.866856 1.598091,2.367874 1.567299,2.396698 -0.06162,0.05769 -3.110257,2.121709 -3.268325,2.212759 -0.504458,0.290584 -1.258994,0.423755 -1.807036,0.318935 z m 4.557917,-4.811551 c -0.670692,-0.988121 -1.395896,-2.056016 -1.611567,-2.373102 l -0.392126,-0.57652 1.580694,-1.075793 c 0.910646,-0.619769 1.705016,-1.137837 1.873977,-1.222159 0.824205,-0.411327 1.77168,-0.384805 2.583602,0.07232 0.164637,0.0927 0.335069,0.228862 0.537041,0.429069 0.473979,0.469841 0.780285,0.994205 0.912063,1.561354 0.08004,0.344482 0.07297,0.927973 -0.0153,1.263424 -0.141352,0.537156 -0.503879,1.112151 -0.904785,1.43506 -0.151248,0.121821 -3.31281,2.286683 -3.335501,2.283963 -0.0048,-5.71e-4 -0.557407,-0.809499 -1.228099,-1.79762 z"
       id="path1311" />
  </g>
</svg>
