<?xml version="1.0" encoding="UTF-8" standalone="no"?>
<!-- Created with Inkscape (http://www.inkscape.org/) -->

<svg
   xmlns:dc="http://purl.org/dc/elements/1.1/"
   xmlns:cc="http://creativecommons.org/ns#"
   xmlns:rdf="http://www.w3.org/1999/02/22-rdf-syntax-ns#"
   xmlns:svg="http://www.w3.org/2000/svg"
   xmlns="http://www.w3.org/2000/svg"
   xmlns:sodipodi="http://sodipodi.sourceforge.net/DTD/sodipodi-0.dtd"
   xmlns:inkscape="http://www.inkscape.org/namespaces/inkscape"
   width="64"
   height="64"
   viewBox="0 0 16.933333 16.933333"
   version="1.1"
   id="svg8"
   inkscape:version="0.92.5 (2060ec1f9f, 2020-04-08)"
   sodipodi:docname="medication3_64x64.svg">
  <defs
     id="defs2" />
  <sodipodi:namedview
     id="base"
     pagecolor="#ffffff"
     bordercolor="#666666"
     borderopacity="1.0"
     inkscape:pageopacity="0.0"
     inkscape:pageshadow="2"
     inkscape:zoom="5.6"
     inkscape:cx="54.353017"
     inkscape:cy="3.9899721"
     inkscape:document-units="mm"
     inkscape:current-layer="layer1"
     showgrid="false"
     units="px"
     inkscape:window-width="1208"
     inkscape:window-height="987"
     inkscape:window-x="1992"
     inkscape:window-y="0"
     inkscape:window-maximized="1"
     showguides="false" />
  <metadata
     id="metadata5">
    <rdf:RDF>
      <cc:Work
         rdf:about="">
        <dc:format>image/svg+xml</dc:format>
        <dc:type
           rdf:resource="http://purl.org/dc/dcmitype/StillImage" />
        <dc:title></dc:title>
      </cc:Work>
    </rdf:RDF>
  </metadata>
  <g
     inkscape:label="Layer 1"
     inkscape:groupmode="layer"
     id="layer1"
     transform="translate(0,-280.06667)">
    <path
       style="fill:#000000;stroke-width:0.0322271"
       d="m 1.1991258,296.02627 c -0.2206864,-0.10981 -0.44513697,-0.33144 -0.54839291,-0.54155 l -0.079186,-0.16114 v -4.38288 -4.38289 l 0.0999267,-0.24624 c 0.19161448,-0.47219 0.56397081,-0.94311 1.01361231,-1.28192 l 0.2561874,-0.19305 -0.1208918,-0.0195 c -0.229202,-0.0369 -0.2577291,-0.0474 -0.4134426,-0.15221 -0.1087639,-0.0733 -0.1838965,-0.15842 -0.2471942,-0.28025 l -0.09094,-0.17504 0.00922,-1.16498 0.00922,-1.16498 0.097534,-0.15768 c 0.060415,-0.0977 0.1575718,-0.19482 0.2552761,-0.25524 l 0.1577439,-0.0975 2.951318,-0.01 c 2.0883972,-0.006 2.9872402,8.5e-4 3.0741756,0.026 0.152641,0.0444 0.3587989,0.22709 0.4515087,0.40029 0.068354,0.12771 0.070174,0.16121 0.070174,1.29129 0,1.12798 -0.00199,1.16376 -0.069688,1.28908 -0.1013601,0.18751 -0.2739415,0.33916 -0.4561541,0.40085 l -0.1595739,0.054 0.203659,0.16758 c 0.4340574,0.35717 0.8150066,0.94741 0.9483739,1.46941 0.063743,0.24949 0.065126,0.34576 0.065126,4.52066 0,4.14026 -0.00187,4.27097 -0.062571,4.44375 -0.086141,0.24509 -0.2505883,0.46268 -0.4365938,0.57769 l -0.1564177,0.0967 -3.3227734,0.009 -3.3227744,0.009 z m 6.768126,-0.34975 c 0.061811,-0.0363 0.1560761,-0.13665 0.2094759,-0.22297 l 0.097097,-0.15694 0.00997,-0.89692 0.00997,-0.89694 H 5.4860241 c -1.8738184,0 -2.8284769,-0.0112 -2.8700779,-0.0334 -0.060888,-0.0325 -0.062334,-0.0978 -0.062334,-2.81343 0,-2.1193 0.00922,-2.78926 0.038677,-2.81874 0.029491,-0.0295 0.7104281,-0.0386 2.8682119,-0.0386 h 2.8295378 v -0.53514 c 0,-0.38186 -0.014496,-0.59108 -0.050593,-0.73038 -0.1585852,-0.612 -0.7048693,-1.26872 -1.30124,-1.5643 l -0.2399911,-0.11891 -1.9005769,-0.009 c -1.699816,-0.007 -1.9178661,-0.004 -2.0642462,0.0447 -0.4064788,0.133 -0.7717528,0.37301 -1.1465945,0.7534 -0.2955099,0.29988 -0.4432922,0.52115 -0.5761286,0.86258 l -0.0845208,0.21725 -0.009847,4.09285 c -0.005484,2.25106 -7.7903e-4,4.16889 0.0103454,4.26182 0.0219123,0.18312 0.1615741,0.42438 0.3075492,0.53131 0.2121408,0.1554 0.1303534,0.152 3.4786623,0.14458 3.1025757,-0.007 3.1435572,-0.007 3.2545273,-0.073 z m -6.3926262,-2.15821 c -0.047427,-0.0474 -0.052388,-0.2807 -0.052388,-2.46529 v -2.4129 l 0.07162,-0.0502 c 0.097172,-0.0681 0.1645369,-0.0631 0.2375955,0.0177 0.059031,0.0652 0.061699,0.15825 0.069314,2.42508 0.00623,1.85301 -8.277e-4,2.3745 -0.032968,2.43784 -0.050356,0.0992 -0.2149028,0.12605 -0.293184,0.0477 z m -0.034439,-5.30797 c -0.071907,-0.10271 -0.064441,-0.30082 0.014284,-0.37955 0.1364796,-0.13648 0.3222708,-0.0292 0.3222708,0.18619 0,0.16218 -0.075023,0.26499 -0.193362,0.26499 -0.059592,0 -0.1110574,-0.0257 -0.1431955,-0.0717 z m 6.7497485,2.42401 v -2.48166 l -2.6829046,0.009 -2.6829057,0.009 -0.00823,2.47343 -0.00823,2.47342 h 2.691162 2.6911623 z m -3.2080602,1.91917 c -0.077591,-0.0775 -0.079099,-0.0892 -0.079099,-0.6102 v -0.53108 l -0.5470504,-0.01 c -0.7316625,-0.0136 -0.6936923,0.0231 -0.6936923,-0.67084 0,-0.69393 -0.037966,-0.65722 0.6936923,-0.67083 l 0.5470504,-0.01 v -0.53108 c 0,-0.52091 0.0015,-0.53261 0.079099,-0.61019 0.077217,-0.0773 0.091052,-0.0792 0.581553,-0.0792 0.490496,0 0.5043314,0.002 0.5815518,0.0792 0.077616,0.0777 0.079099,0.0891 0.079099,0.61231 v 0.53321 H 6.825198 c 0.5202309,0 0.6583197,0.0288 0.7034905,0.14647 0.032681,0.0851 0.022747,1.01286 -0.011467,1.07689 -0.053771,0.10046 -0.2168049,0.13019 -0.7144853,0.13019 H 6.3241383 v 0.53321 c 0,0.52315 -0.0015,0.53469 -0.079099,0.61231 -0.077217,0.0773 -0.091052,0.0792 -0.581553,0.0792 -0.4904959,0 -0.5043314,-0.002 -0.5815518,-0.0792 z m 0.8554833,-0.84084 c 0,-0.52315 0.0015,-0.53469 0.079099,-0.61231 0.077616,-0.0777 0.089157,-0.0791 0.6123151,-0.0791 h 0.5332112 v -0.29004 -0.29005 H 6.6287721 c -0.5231576,0 -0.5347045,-10e-4 -0.6123151,-0.0791 -0.077616,-0.0777 -0.079099,-0.0891 -0.079099,-0.61232 v -0.53321 H 5.6634279 5.3894976 v 0.50113 c 0,0.52022 -0.028755,0.65831 -0.1464661,0.70348 -0.028693,0.0112 -0.2902686,0.0201 -0.58128,0.0201 H 4.132641 v 0.29005 0.29004 h 0.5291105 c 0.2910114,0 0.5525871,0.009 0.58128,0.0201 0.1177133,0.0451 0.1464661,0.18325 0.1464661,0.70349 v 0.50112 h 0.2739303 0.2739303 z m -3.8350243,-8.6399 v -1.37416 l -0.1736235,0.0179 c -0.095489,0.01 -0.218515,0.0411 -0.2733843,0.0696 -0.1925942,0.0996 -0.1975338,0.13214 -0.1975338,1.30099 0,1.05092 6.568e-4,1.06131 0.073627,1.16983 0.082539,0.12278 0.2271815,0.18551 0.4339489,0.18825 l 0.1369658,10e-4 z m 1.1762883,0.005 v -1.35355 H 2.891897 2.505173 l -0.00835,1.3626 -0.00835,1.36259 0.3951324,-0.009 0.3951324,-0.009 z m 1.1041285,0.007 -0.00835,-1.3616 H 4.0199009 3.6654035 l -0.00848,1.32128 c -0.00461,0.72671 -0.0015,1.33942 0.0071,1.3616 0.011093,0.0289 0.1162176,0.0404 0.3713293,0.0404 h 0.3558597 z m 1.1678823,-0.007 v -1.36966 H 5.1639078 4.7771826 v 1.36966 1.36964 H 5.1639078 5.550633 Z m 1.1440618,0 v -1.35355 H 6.3240835 5.9534709 l -0.00848,1.32129 c -0.00461,0.7267 -0.00125,1.33989 0.00748,1.36265 0.011966,0.031 0.1063458,0.0391 0.3790372,0.0323 l 0.3631588,-0.009 z m 0.8403491,1.30857 c 0.2382364,-0.10819 0.2431261,-0.13673 0.2324542,-1.35579 l -0.00935,-1.06346 -0.099515,-0.0995 c -0.1004627,-0.10047 -0.2640638,-0.15733 -0.4563999,-0.15874 l -0.104738,-7.3e-4 v 1.36966 1.36964 l 0.1530785,-7.3e-4 c 0.084197,-3.7e-4 0.2121868,-0.0275 0.2844315,-0.0603 z m 5.6821721,11.48721 c -0.39477,-0.10882 -0.727426,-0.38918 -0.91696,-0.77268 -0.102108,-0.20659 -0.120992,-0.28018 -0.135002,-0.52591 -0.01197,-0.20904 -0.0022,-0.33419 0.03621,-0.46632 0.07051,-0.24255 1.412646,-2.99516 1.554872,-3.1889 0.448774,-0.61135 1.318586,-0.75221 1.967819,-0.31868 0.230641,0.15402 0.368499,0.32039 0.502131,0.60594 0.08304,0.17745 0.103728,0.26733 0.114784,0.49862 0.0076,0.15787 -0.0032,0.34976 -0.02444,0.43562 -0.02087,0.0844 -0.366929,0.82685 -0.769035,1.64989 -0.792484,1.62204 -0.850534,1.71495 -1.203569,1.92635 -0.315658,0.18901 -0.776098,0.25278 -1.126803,0.15607 z m 0.858777,-0.44422 c 0.276557,-0.14198 0.404351,-0.31676 0.7401,-1.01218 0.168444,-0.34889 0.301669,-0.63894 0.296056,-0.64456 -0.02185,-0.0218 -1.865432,-0.91391 -1.888735,-0.91391 -0.01361,0 -0.167364,0.29367 -0.341681,0.6526 -0.30662,0.63134 -0.317385,0.66099 -0.330506,0.91042 -0.01839,0.3496 0.06309,0.56852 0.299649,0.80508 0.238199,0.2382 0.430356,0.31045 0.788756,0.29655 0.217446,-0.009 0.307425,-0.0278 0.436361,-0.094 z m 1.555019,-2.68312 c 0.305447,-0.62893 0.313115,-0.65031 0.323697,-0.90235 0.01418,-0.33779 -0.06758,-0.56722 -0.279167,-0.78339 -0.232628,-0.23764 -0.412589,-0.31124 -0.762939,-0.31202 -0.252686,-6.1e-4 -0.31354,0.0112 -0.472466,0.089 -0.100338,0.0492 -0.235094,0.14788 -0.299468,0.21913 -0.06629,0.0734 -0.25755,0.41186 -0.441048,0.78055 l -0.324003,0.651 0.929628,0.45806 c 0.511295,0.25194 0.948365,0.45498 0.971267,0.45119 0.0229,-0.004 0.182426,-0.29679 0.354499,-0.65112 z m -1.809135,-0.52655 c -0.02933,-0.0324 -0.05334,-0.0907 -0.05334,-0.12949 0,-0.10782 0.308265,-0.69824 0.441634,-0.84587 0.129059,-0.14284 0.381709,-0.28702 0.503,-0.28702 0.09302,0 0.183314,0.0925 0.183314,0.18785 0,0.0797 -0.105548,0.19888 -0.176127,0.19888 -0.108565,0 -0.284549,0.21338 -0.453003,0.54926 -0.09512,0.18965 -0.196684,0.35393 -0.225715,0.36507 -0.09149,0.0351 -0.164643,0.0222 -0.219766,-0.0386 z m -3.203065,1.81397 c -0.7220175,-0.19444 -1.1963908,-0.90196 -1.0791461,-1.60951 0.040821,-0.24634 0.1268198,-0.43778 0.9353011,-2.08205 0.694888,-1.41325 0.735472,-1.47113 1.188638,-1.69509 0.244545,-0.12091 0.254514,-0.12278 0.620818,-0.12278 0.352339,0 0.384002,0.005 0.591029,0.10358 0.593782,0.28126 0.93908,0.91597 0.836168,1.53702 -0.03957,0.23878 -0.120418,0.418 -0.986305,2.18653 -0.455032,0.92938 -0.557119,1.11377 -0.700715,1.26559 -0.373085,0.39449 -0.904008,0.55188 -1.405788,0.41674 z m 0.781039,-0.43003 c 0.29509,-0.13044 0.409045,-0.27855 0.77442,-1.00658 l 0.333496,-0.6645 -0.956797,-0.46808 -0.956797,-0.46806 -0.315225,0.63305 c -0.3576261,0.71821 -0.412291,0.90199 -0.3527388,1.1859 0.087201,0.41574 0.3442588,0.71171 0.7267518,0.83679 0.191168,0.0626 0.548126,0.0393 0.74689,-0.0485 z m 1.560461,-2.60899 c 0.158307,-0.31624 0.312436,-0.65962 0.34251,-0.76308 0.140881,-0.4846 -0.09968,-1.02043 -0.559334,-1.24584 -0.221161,-0.10844 -0.603023,-0.12053 -0.852547,-0.0268 -0.321759,0.12078 -0.447568,0.27844 -0.806204,1.01041 -0.172323,0.3517 -0.313315,0.65029 -0.313315,0.66352 0,0.0222 1.822782,0.92976 1.877058,0.93463 0.0132,0.001 0.153524,-0.25659 0.311832,-0.57284 z m -1.755289,-0.63205 c -0.04351,-0.0435 -0.0791,-0.0945 -0.0791,-0.1133 0,-0.0712 0.357377,-0.74319 0.453253,-0.85239 0.05507,-0.0627 0.192864,-0.15968 0.306215,-0.21548 0.195216,-0.0961 0.21025,-0.0987 0.284843,-0.0499 0.172453,0.11305 0.135058,0.26489 -0.09231,0.37496 -0.19287,0.0934 -0.290802,0.21587 -0.458668,0.57374 -0.104377,0.22252 -0.161326,0.30717 -0.22225,0.33033 -0.108028,0.0411 -0.101247,0.0427 -0.191977,-0.048 z"
       id="path3708"
       inkscape:connector-curvature="0" />
    <path
       style="fill:#ffffff;stroke-width:0.00123039;stroke-miterlimit:4;stroke-dasharray:none"
       d="m 2.918011,291.72164 c 0,-0.75803 0.00972,-1.8639 0.021538,-2.45748 l 0.021538,-1.07923 2.6641967,-0.009 2.6641969,-0.009 -3.7e-6,2.46599 -2.5e-6,2.46598 H 5.6037461 2.9180185 Z m 3.3438778,0.84815 c 0.050219,-0.0502 0.05943,-0.13252 0.06833,-0.61039 l 0.010221,-0.55234 h 0.4872165 c 0.3448401,0 0.5192114,-0.0133 0.596706,-0.0457 l 0.1094868,-0.0457 0.023782,-0.38067 c 0.029503,-0.47215 0.00324,-0.72605 -0.084097,-0.81373 -0.05857,-0.0588 -0.116953,-0.0662 -0.601127,-0.0765 l -0.5362575,-0.0112 v -0.5157 c 0,-0.49822 -0.00262,-0.5188 -0.078563,-0.60705 l -0.078563,-0.0914 H 5.674237 c -0.489434,0 -0.5073427,0.002 -0.588796,0.0789 -0.083611,0.0785 -0.08401,0.0814 -0.08401,0.60656 v 0.52766 l -0.529007,0.0136 c -0.5724329,0.0147 -0.6589429,0.0373 -0.6995331,0.18219 -0.013636,0.0487 -0.024505,0.29724 -0.024143,0.55225 8.9e-4,0.6282 -0.025178,0.60321 0.6594066,0.6321 0.2815398,0.0125 0.5302012,0.0229 0.5525834,0.0244 0.030737,0.002 0.040696,0.13059 0.040696,0.52523 0,0.51504 0.00115,0.5235 0.08214,0.60449 0.081928,0.0819 0.083449,0.0821 0.6011806,0.0718 0.4457976,-0.009 0.5272359,-0.0186 0.5770883,-0.0684 z"
       id="path3710"
       inkscape:connector-curvature="0" />
    <path
       style="fill:#ffffff;stroke-width:0.00123039;stroke-miterlimit:4;stroke-dasharray:none"
       d="m 1.5750993,295.70425 c -0.2655481,-0.034 -0.4168765,-0.14408 -0.5417856,-0.39406 l -0.10111081,-0.20234 v -4.18075 -4.18073 l 0.0966984,-0.24151 c 0.1373896,-0.34311 0.2931417,-0.57076 0.601415,-0.87903 0.2925484,-0.29255 0.6631148,-0.55275 0.9554014,-0.67083 l 0.1857961,-0.075 1.9610202,-0.009 1.9610203,-0.009 0.1712851,0.086 c 0.568534,0.28549 1.0513384,0.80634 1.2860197,1.38735 0.087188,0.21585 0.1336927,0.61407 0.1369484,1.17261 l 0.00162,0.28433 -2.845795,0.009 c -1.5651873,0.005 -2.8579987,0.0209 -2.872916,0.0358 -0.01492,0.015 -0.027122,1.2777 -0.027122,2.80617 0,2.23642 0.00823,2.7873 0.042304,2.82138 0.033903,0.0339 0.604379,0.0445 2.8701514,0.0533 l 2.8278426,0.0112 -0.017512,0.88422 c -0.019245,0.97106 -0.018622,0.96798 -0.2371854,1.17721 -0.09458,0.0905 -0.1250386,0.0992 -0.4173476,0.11879 -0.4344378,0.0292 -5.8051626,0.0248 -6.0367889,-0.005 z m 0.217716,-2.15359 c 0.053647,-0.0244 0.088821,-0.0727 0.1008616,-0.13835 0.010221,-0.0555 0.014072,-1.14967 0.00873,-2.43161 -0.0081,-1.9169 -0.017737,-2.34034 -0.054482,-2.3846 -0.052849,-0.0637 -0.1967535,-0.0706 -0.2752577,-0.0131 -0.051802,0.0379 -0.055055,0.20996 -0.046916,2.47675 0.00848,2.36854 0.01047,2.43733 0.071944,2.48225 0.076431,0.0558 0.090205,0.0565 0.1951693,0.009 z m 0.023932,-5.32269 c 0.077964,-0.0705 0.081479,-0.32367 0.00561,-0.40746 -0.07526,-0.0831 -0.2235283,-0.0765 -0.2860968,0.0128 -0.066996,0.0956 -0.065201,0.31341 0.00324,0.38899 0.067083,0.0742 0.198617,0.0768 0.2772409,0.006 z"
       id="path3712"
       inkscape:connector-curvature="0" />
    <path
       style="fill:#ffffff;stroke-width:0.00123039;stroke-miterlimit:4;stroke-dasharray:none"
       d="m 1.7652941,284.39224 c -0.069987,-0.0249 -0.1578885,-0.076 -0.1953264,-0.11342 -0.066448,-0.0664 -0.068068,-0.0951 -0.068068,-1.20316 0,-1.07131 0.00349,-1.13893 0.062135,-1.20372 0.059019,-0.0652 0.16432,-0.10333 0.4017584,-0.1456 l 0.1057974,-0.0188 v 1.36647 1.36647 l -0.089519,-10e-4 c -0.049234,-7.9e-4 -0.1467902,-0.0218 -0.2167813,-0.0467 z"
       id="path3714"
       inkscape:connector-curvature="0" />
    <path
       style="fill:#ffffff;stroke-width:0.00123039;stroke-miterlimit:4;stroke-dasharray:none"
       d="m 2.5057775,283.48823 c 0.011841,-0.52371 0.021489,-1.13166 0.021526,-1.351 l 6.1e-5,-0.3988 h 0.3743743 0.3743743 v 1.32991 1.3299 l -0.2685731,0.0209 c -0.147715,0.0112 -0.325868,0.0209 -0.3958965,0.0211 l -0.1273234,2e-4 z"
       id="path3716"
       inkscape:connector-curvature="0" />
    <path
       style="fill:#ffffff;stroke-width:0.00123039;stroke-miterlimit:4;stroke-dasharray:none"
       d="m 3.7400064,284.41747 -0.073253,-0.0141 v -1.33247 -1.33246 h 0.3365849 0.3365848 l 0.021451,0.90339 c 0.011841,0.49685 0.021476,1.1048 0.021514,1.351 l 6.48e-5,0.44762 -0.2848504,-0.005 c -0.1566669,-0.002 -0.317811,-0.0112 -0.3580971,-0.0186 z"
       id="path3718"
       inkscape:connector-curvature="0" />
    <path
       style="fill:#ffffff;stroke-width:0.00123039;stroke-miterlimit:4;stroke-dasharray:none"
       d="m 4.8061585,283.08945 v -1.35102 h 0.3580971 0.3580971 v 1.35102 1.35099 H 5.1642556 4.8061585 Z"
       id="path3720"
       inkscape:connector-curvature="0" />
    <path
       style="fill:#ffffff;stroke-width:0.00123039;stroke-miterlimit:4;stroke-dasharray:none"
       d="m 6.0388193,284.42071 c -0.029279,-0.009 -0.062247,-0.0612 -0.073253,-0.11616 -0.025963,-0.12982 -0.02534,-0.85846 0.0015,-1.80917 l 0.021401,-0.7569 h 0.3528982 0.352897 v 1.33474 1.33472 l -0.089519,2.3e-4 c -0.049234,1.3e-4 -0.1847453,0.006 -0.3011275,0.0145 -0.1163796,0.007 -0.2355576,0.007 -0.2648363,-0.002 z"
       id="path3722"
       inkscape:connector-curvature="0" />
    <path
       style="fill:#ffffff;stroke-width:0.00123039;stroke-miterlimit:4;stroke-dasharray:none"
       d="m 7.117513,283.09398 v -1.35555 h 0.1312621 c 0.1614869,0 0.3170597,0.0636 0.4143801,0.16921 0.072916,0.0791 0.073677,0.0897 0.08138,1.13545 0.00598,0.80971 -0.00212,1.07898 -0.034726,1.15617 -0.050443,0.11941 -0.2115078,0.20515 -0.4352841,0.23166 l -0.1570222,0.0186 z"
       id="path3724"
       inkscape:connector-curvature="0" />
    <path
       style="fill:#ffffff;stroke-width:0.00123039;stroke-miterlimit:4;stroke-dasharray:none"
       d="m 11.718696,291.10147 c -0.485127,-0.24009 -0.891367,-0.4516 -0.902753,-0.47002 -0.03343,-0.0541 0.577325,-1.24182 0.724607,-1.40914 0.186845,-0.21227 0.403137,-0.30047 0.736817,-0.30047 0.332761,0 0.541195,0.0855 0.748601,0.3073 0.249879,0.26713 0.346912,0.58713 0.278284,0.91771 -0.03883,0.18705 -0.609704,1.36445 -0.669868,1.38157 -0.0185,0.005 -0.430559,-0.18686 -0.915688,-0.42695 z m -0.290709,-0.70707 c 0.04796,-0.0378 0.151413,-0.19521 0.229898,-0.34996 0.15931,-0.31411 0.24794,-0.42126 0.435871,-0.52688 0.164982,-0.0927 0.223914,-0.19674 0.173793,-0.30673 -0.02034,-0.0446 -0.07658,-0.0907 -0.125746,-0.10308 -0.130826,-0.0328 -0.478499,0.15554 -0.603845,0.32717 -0.112989,0.15472 -0.416268,0.74567 -0.416268,0.81113 0,0.0511 0.144724,0.21694 0.189381,0.21694 0.01634,0 0.06895,-0.0309 0.116916,-0.0685 z"
       id="path3726"
       inkscape:connector-curvature="0" />
    <path
       style="fill:#ffffff;stroke-width:0.00123039;stroke-miterlimit:4;stroke-dasharray:none"
       d="m 10.741664,293.6515 c -0.405379,-0.079 -0.7507399,-0.46991 -0.812335,-0.91928 -0.029067,-0.21205 0.065924,-0.49163 0.391852,-1.15343 l 0.276165,-0.56075 0.84001,0.40931 c 0.462006,0.22512 0.886849,0.43219 0.944096,0.46016 l 0.10409,0.0508 -0.289092,0.57263 c -0.383963,0.76055 -0.497183,0.91593 -0.757862,1.04009 -0.22173,0.10557 -0.479752,0.14279 -0.696919,0.10046 z"
       id="path3728"
       inkscape:connector-curvature="0" />
    <path
       style="fill:#ffffff;stroke-width:0.00123039;stroke-miterlimit:4;stroke-dasharray:none"
       d="m 13.233169,295.45786 c -0.31057,-0.0956 -0.613796,-0.47477 -0.663759,-0.82995 -0.03768,-0.26787 0.03257,-0.50031 0.341252,-1.12923 0.187074,-0.38115 0.309303,-0.59412 0.34098,-0.59412 0.02716,0 0.45241,0.19654 0.945005,0.43674 l 0.895628,0.43675 -0.0518,0.12482 c -0.02849,0.0687 -0.170163,0.3592 -0.314829,0.64568 -0.312421,0.61868 -0.486963,0.82394 -0.772831,0.90882 -0.211477,0.0628 -0.516567,0.063 -0.719648,4.9e-4 z"
       id="path3730"
       inkscape:connector-curvature="0" />
    <path
       style="fill:#ffffff;stroke-width:0.00123039;stroke-miterlimit:4;stroke-dasharray:none"
       d="m 15.125866,293.31924 c -0.04476,-0.0206 -0.452228,-0.21694 -0.905481,-0.43632 l -0.824094,-0.39883 0.333753,-0.65857 c 0.351008,-0.69262 0.460363,-0.84133 0.71897,-0.97779 0.116267,-0.0613 0.191592,-0.0739 0.448972,-0.0747 0.38126,-0.001 0.538693,0.0654 0.779989,0.32942 0.207011,0.2265 0.276283,0.43932 0.254333,0.78135 -0.01425,0.22196 -0.03572,0.27871 -0.321329,0.849 -0.176626,0.35268 -0.326716,0.61382 -0.354896,0.61747 -0.02686,0.004 -0.08545,-0.01 -0.130217,-0.0312 z m -0.997717,-1.1553 c 0.04263,-0.0672 0.131918,-0.2218 0.198431,-0.34369 0.133536,-0.24471 0.295347,-0.44574 0.358785,-0.44574 0.02259,0 0.07967,-0.0304 0.126845,-0.0674 0.151127,-0.11891 0.08167,-0.35573 -0.104314,-0.35573 -0.136454,0 -0.353462,0.12595 -0.502376,0.29158 -0.15321,0.17041 -0.446932,0.72829 -0.446932,0.84888 0,0.10557 0.0912,0.19427 0.19991,0.19427 0.07101,0 0.109936,-0.028 0.169654,-0.12215 z"
       id="path3732"
       inkscape:connector-curvature="0" />
  </g>
</svg>
