<?xml version="1.0" encoding="UTF-8" standalone="no"?>
<!-- Created with Inkscape (http://www.inkscape.org/) -->

<svg
   xmlns:dc="http://purl.org/dc/elements/1.1/"
   xmlns:cc="http://creativecommons.org/ns#"
   xmlns:rdf="http://www.w3.org/1999/02/22-rdf-syntax-ns#"
   xmlns:svg="http://www.w3.org/2000/svg"
   xmlns="http://www.w3.org/2000/svg"
   xmlns:sodipodi="http://sodipodi.sourceforge.net/DTD/sodipodi-0.dtd"
   xmlns:inkscape="http://www.inkscape.org/namespaces/inkscape"
   width="64"
   height="64"
   viewBox="0 0 16.933333 16.933334"
   version="1.1"
   id="svg8"
   inkscape:version="0.92.5 (2060ec1f9f, 2020-04-08)"
   sodipodi:docname="mirror_64x64.svg">
  <defs
     id="defs2" />
  <sodipodi:namedview
     id="base"
     pagecolor="#ffffff"
     bordercolor="#666666"
     borderopacity="1.0"
     inkscape:pageopacity="0.0"
     inkscape:pageshadow="2"
     inkscape:zoom="5.6"
     inkscape:cx="39.97315"
     inkscape:cy="23.582917"
     inkscape:document-units="mm"
     inkscape:current-layer="layer1"
     showgrid="false"
     units="px"
     inkscape:window-width="1208"
     inkscape:window-height="987"
     inkscape:window-x="1992"
     inkscape:window-y="0"
     inkscape:window-maximized="1" />
  <metadata
     id="metadata5">
    <rdf:RDF>
      <cc:Work
         rdf:about="">
        <dc:format>image/svg+xml</dc:format>
        <dc:type
           rdf:resource="http://purl.org/dc/dcmitype/StillImage" />
        <dc:title></dc:title>
      </cc:Work>
    </rdf:RDF>
  </metadata>
  <g
     inkscape:label="Layer 1"
     inkscape:groupmode="layer"
     id="layer1"
     transform="translate(0,-280.06665)">
    <path
       style="fill:#000000;stroke-width:0.03004325"
       d="m 8.1033597,296.3824 c -1.5893145,-0.19662 -2.9567965,-1.27162 -3.9130737,-3.07612 -0.521492,-0.98406 -0.8781959,-2.19906 -1.0187317,-3.47 -0.051834,-0.46871 -0.051834,-1.78453 0,-2.25323 0.3130616,-2.83118 1.6525148,-5.15775 3.518003,-6.11061 0.6206916,-0.31703 1.1171531,-0.43738 1.8043636,-0.43738 0.6872106,0 1.1836734,0.12035 1.8043661,0.43738 1.689764,0.8631 2.957613,2.85685 3.40774,5.35879 0.116571,0.64795 0.150127,1.06778 0.150127,1.87843 0,0.81065 -0.03356,1.23048 -0.150127,1.87843 -0.447421,2.48689 -1.710649,4.48343 -3.383322,5.34734 -0.5764483,0.29772 -1.0820632,0.4304 -1.708611,0.44836 -0.2230714,0.006 -0.4529019,0.006 -0.5107343,-10e-4 z m 1.1266215,-0.57909 c 0.7776058,-0.1913 1.3494818,-0.5255 1.9838728,-1.15934 1.136046,-1.13508 1.858126,-2.80408 2.093016,-4.83773 0.04939,-0.42764 0.04939,-1.76552 0,-2.19316 -0.23489,-2.03365 -0.95697,-3.70265 -2.093016,-4.83772 -0.637968,-0.63743 -1.198783,-0.96405 -1.9988952,-1.16419 -0.3650378,-0.0914 -1.0770366,-0.0914 -1.4420757,0 -0.8001111,0.20014 -1.3609243,0.52676 -1.9988942,1.16419 -1.1360444,1.13507 -1.8581245,2.80407 -2.0930148,4.83772 -0.049387,0.42764 -0.049387,1.76552 0,2.19316 0.198758,1.72083 0.7284579,3.1356 1.6078879,4.29448 0.2173027,0.28636 0.7096949,0.78561 0.9753424,0.98891 0.523225,0.40042 1.1440258,0.67 1.7734794,0.77009 0.2662029,0.0423 0.9159054,0.0119 1.1922974,-0.0564 z m -1.1021679,-0.45437 c -1.108198,-0.17593 -2.0796787,-0.92633 -2.8389057,-2.19288 -1.0677278,-1.78119 -1.420179,-4.27062 -0.9222772,-6.51425 0.4687769,-2.11237 1.6289235,-3.782 3.0392179,-4.37391 0.6743206,-0.28301 1.5018258,-0.28301 2.1761461,0 0.8028596,0.33697 1.5384376,1.0303 2.1169416,1.99537 1.067728,1.78119 1.420179,4.27063 0.922276,6.51424 -0.521691,2.35082 -1.892006,4.13057 -3.4742544,4.51235 -0.288626,0.0697 -0.7749942,0.0978 -1.0191443,0.0591 z m 0.9369302,-0.55807 c 0.4158484,-0.10493 0.9865565,-0.43562 1.3627265,-0.78964 0.326395,-0.30718 0.713883,-0.83804 0.989689,-1.3559 1.448794,-2.72025 1.146774,-6.70935 -0.672152,-8.87778 -0.369161,-0.4401 -0.732338,-0.73029 -1.1843568,-0.94636 -0.414014,-0.19789 -0.6435028,-0.25214 -1.0667293,-0.25214 -0.4232253,0 -0.652714,0.0542 -1.0667287,0.25214 -0.452018,0.21607 -0.8151958,0.50626 -1.1843556,0.94636 -0.8717952,1.03931 -1.4283151,2.5418 -1.5622871,4.21787 -0.1316191,1.64661 0.1944777,3.35375 0.8901349,4.65991 0.6852257,1.28658 1.5539964,2.0089 2.6528482,2.20566 0.1411667,0.0253 0.6456526,-0.0108 0.8412109,-0.0601 z m 0.4642352,-1.50401 c -0.040525,-0.0437 -0.073673,-0.1156 -0.073673,-0.15977 0,-0.0924 1.7953623,-3.22911 1.8964023,-3.31333 0.08442,-0.0703 0.211,-0.0665 0.307726,0.009 0.166594,0.13105 0.160642,0.14438 -0.836284,1.87278 -0.503495,0.87292 -0.9394985,1.60538 -0.9688965,1.62769 -0.0912,0.0692 -0.242831,0.0519 -0.3252739,-0.037 z m -1.0801225,-0.0169 c -0.09093,-0.0522 -0.1331817,-0.1198 -0.1342395,-0.21483 -6.584e-4,-0.059 0.2824089,-0.57691 0.9030574,-1.65237 0.4972063,-0.86159 0.9321849,-1.59693 0.9666199,-1.6341 0.08622,-0.0931 0.258963,-0.0922 0.347333,0.002 0.13347,0.14207 0.122322,0.16646 -0.8376327,1.83293 -0.4966231,0.86214 -0.9367597,1.59794 -0.9780802,1.63512 -0.082199,0.074 -0.173941,0.0847 -0.2670579,0.0313 z"
       id="path10292"
       inkscape:connector-curvature="0" />
    <path
       style="fill:#ffffff;stroke-width:0.00344107;stroke-miterlimit:4;stroke-dasharray:none"
       d="m 7.9934587,295.83775 c -0.6845709,-0.11512 -1.4469017,-0.4948 -1.9849488,-0.98858 -0.9760932,-0.89581 -1.6809657,-2.15031 -2.0614469,-3.66885 -0.2329008,-0.92955 -0.2630571,-1.21295 -0.2630571,-2.47214 0,-1.21219 0.016358,-1.39095 0.2027565,-2.21542 0.3077906,-1.36142 0.8144485,-2.44102 1.568244,-3.34164 0.6238638,-0.74538 1.3492419,-1.24947 2.1135767,-1.46882 1.2890457,-0.36992 2.6733909,0.0723 3.7164119,1.18734 1.00776,1.0773 1.609692,2.39191 1.935173,4.22637 0.08186,0.46137 0.08412,0.50429 0.08418,1.59699 5.9e-5,1.20286 -0.0084,1.30046 -0.186388,2.15116 -0.324162,1.54924 -0.982614,2.84707 -1.920111,3.78459 -0.176716,0.17671 -0.435539,0.40574 -0.575161,0.50897 -0.31328,0.23158 -0.8426334,0.4951 -1.1945177,0.59465 -0.4260903,0.12053 -1.0654286,0.1675 -1.4347096,0.10541 z m 0.849751,-0.48593 c 1.7425003,-0.20931 3.2981063,-2.13978 3.8239273,-4.74541 0.136348,-0.67565 0.176354,-1.10305 0.176261,-1.88306 -1.51e-4,-1.26879 -0.192669,-2.34381 -0.605995,-3.38382 -0.490322,-1.23376 -1.207131,-2.19143 -2.067517,-2.76226 -1.0903396,-0.7234 -2.2793329,-0.71886 -3.3745197,0.013 -1.3687628,0.91457 -2.3538099,2.8363 -2.6148666,5.10134 -0.049135,0.42629 -0.049686,1.56941 -9.642e-4,2.00298 0.1219179,1.08502 0.3802557,2.02538 0.7920566,2.88308 0.734964,1.5308 1.774807,2.49079 2.9763449,2.74778 0.3034025,0.0649 0.5216466,0.0714 0.8952738,0.0265 z"
       id="path10294"
       inkscape:connector-curvature="0" />
    <path
       style="fill:#ffffff;stroke-width:0.00344107;stroke-miterlimit:4;stroke-dasharray:none"
       d="m 7.9782839,294.78172 c -0.8710193,-0.25406 -1.4742408,-0.72347 -2.0686379,-1.60973 -0.6091616,-0.90827 -1.0179258,-2.08262 -1.184021,-3.40163 -0.052673,-0.41824 -0.052673,-1.70611 0,-2.12437 0.1668892,-1.32529 0.5761846,-2.4964 1.1932388,-3.41417 0.5375313,-0.7995 1.1343006,-1.28782 1.898777,-1.5537 0.2150408,-0.0749 0.2764674,-0.0823 0.6765644,-0.0823 0.4000969,0 0.4615224,0.007 0.6765632,0.0823 0.9337906,0.32477 1.6605096,1.01942 2.2520086,2.15265 0.914983,1.75297 1.142689,4.07219 0.606082,6.17306 -0.258427,1.01176 -0.762461,2.01823 -1.360927,2.71753 -0.393591,0.4599 -0.9832957,0.85709 -1.5212394,1.02462 -0.3101126,0.0965 -0.8981607,0.11453 -1.1684087,0.0358 z m 1.8787618,-1.45777 c 0.1075763,-0.10758 1.6134713,-2.69157 1.8002203,-3.08903 0.118215,-0.2516 0.107696,-0.36798 -0.04042,-0.44727 -0.148073,-0.0793 -0.256824,-0.0334 -0.374922,0.15807 -0.354343,0.57459 -1.4265381,2.44648 -1.6823482,2.93711 -0.107397,0.20598 -0.1227899,0.25696 -0.097611,0.32318 0.062831,0.16526 0.2822474,0.23078 0.3950745,0.11789 z m -1.180628,-0.0332 c 0.082223,-0.044 1.4878483,-2.42949 1.7971403,-3.04994 0.158383,-0.31772 0.164113,-0.36494 0.05724,-0.4718 -0.09558,-0.0956 -0.168371,-0.10986 -0.286065,-0.0563 -0.07455,0.034 -0.4219162,0.60502 -1.2782041,2.10132 -0.6555889,1.14558 -0.7093448,1.26679 -0.6155204,1.38792 0.08413,0.10866 0.2193907,0.14551 0.3254024,0.0888 z"
       id="path10296"
       inkscape:connector-curvature="0" />
  </g>
</svg>
