<?xml version="1.0" encoding="UTF-8" standalone="no"?>
<!-- Created with Inkscape (http://www.inkscape.org/) -->

<svg
   xmlns:dc="http://purl.org/dc/elements/1.1/"
   xmlns:cc="http://creativecommons.org/ns#"
   xmlns:rdf="http://www.w3.org/1999/02/22-rdf-syntax-ns#"
   xmlns:svg="http://www.w3.org/2000/svg"
   xmlns="http://www.w3.org/2000/svg"
   xmlns:sodipodi="http://sodipodi.sourceforge.net/DTD/sodipodi-0.dtd"
   xmlns:inkscape="http://www.inkscape.org/namespaces/inkscape"
   width="64"
   height="64"
   viewBox="0 0 16.933333 16.933334"
   version="1.1"
   id="svg8"
   inkscape:version="0.92.5 (2060ec1f9f, 2020-04-08)"
   sodipodi:docname="mop_64x64.svg">
  <defs
     id="defs2" />
  <sodipodi:namedview
     id="base"
     pagecolor="#ffffff"
     bordercolor="#666666"
     borderopacity="1.0"
     inkscape:pageopacity="0.0"
     inkscape:pageshadow="2"
     inkscape:zoom="7.919596"
     inkscape:cx="39.497205"
     inkscape:cy="20.558811"
     inkscape:document-units="mm"
     inkscape:current-layer="layer1"
     showgrid="false"
     units="px"
     inkscape:window-width="1208"
     inkscape:window-height="987"
     inkscape:window-x="1992"
     inkscape:window-y="0"
     inkscape:window-maximized="1" />
  <metadata
     id="metadata5">
    <rdf:RDF>
      <cc:Work
         rdf:about="">
        <dc:format>image/svg+xml</dc:format>
        <dc:type
           rdf:resource="http://purl.org/dc/dcmitype/StillImage" />
        <dc:title></dc:title>
      </cc:Work>
    </rdf:RDF>
  </metadata>
  <g
     inkscape:label="Layer 1"
     inkscape:groupmode="layer"
     id="layer1"
     transform="translate(0,-280.06665)">
    <path
       style="fill:#000000;stroke-width:0.03260613"
       d="m 1.7916922,296.16514 c -0.133456,-0.0936 -0.1226556,-0.1869 0.141514,-1.22577 0.2502869,-0.98421 0.2522536,-0.99522 0.2704753,-1.51574 0.017656,-0.50573 0.021469,-0.52844 0.1061828,-0.63939 0.1707223,-0.22364 0.1587385,-0.22204 1.6696824,-0.22204 h 1.3563767 v -5.66154 c 0,-4.34978 0.0092,-5.69263 0.039652,-5.79573 0.082797,-0.28023 0.441453,-0.54178 0.7428946,-0.54178 0.3014415,0 0.660101,0.26155 0.7428944,0.54178 0.030467,0.10317 0.039652,1.44595 0.039652,5.79573 v 5.66154 h 0.5216994 c 0.5193215,0 0.5216976,-3.7e-4 0.5215642,-0.0734 -6.57e-5,-0.0404 -0.051429,-0.55556 -0.1141279,-1.1449 -0.062699,-0.58936 -0.1139777,-1.08456 -0.1139777,-1.10047 0,-0.015 -0.030016,-0.029 -0.0667,-0.029 -0.036684,0 -0.1027079,-0.0361 -0.1467358,-0.0801 -0.079379,-0.0795 -0.080036,-0.0851 -0.080036,-0.70251 0,-0.83269 -0.046695,-0.78254 0.7287168,-0.78254 h 0.5686504 l 0.015027,-0.7581 c 0.012773,-0.63858 0.025865,-0.79676 0.083455,-1.00333 0.5952457,-2.13566 3.1958802,-2.86441 4.7681432,-1.33616 0.548959,0.5336 0.829639,1.16608 0.869119,1.95847 l 0.01878,0.37707 0.15115,0.0537 c 0.212494,0.0755 0.407134,0.25436 0.514395,0.4728 l 0.09166,0.1867 v 1.17382 c 0,1.1495 -0.0015,1.17662 -0.07224,1.30889 -0.03972,0.0744 -0.129812,0.18446 -0.200191,0.2446 l -0.127953,0.10955 -0.182931,1.73341 c -0.149704,1.41864 -0.182932,1.83781 -0.182932,2.30831 0,0.56693 -0.0011,0.57603 -0.08004,0.65494 l -0.08004,0.0801 H 8.083487 c -5.4801831,0 -6.2303318,-0.006 -6.291885,-0.049 z m 1.1885718,-1.2553 0.1957475,-0.78256 H 2.9231813 2.6703512 l -0.1957473,0.78256 -0.1957494,0.78255 h 0.2528302 0.2528301 z m 1.0433951,0 0.1957493,-0.78256 H 3.9665782 3.7137481 l -0.1957493,0.78256 -0.1957473,0.78255 h 0.2528301 0.2528301 z m 1.0972583,0.66028 c 0.010515,-0.0673 0.048499,-0.36438 0.084581,-0.66028 0.036082,-0.29589 0.074157,-0.59303 0.084581,-0.66027 l 0.018971,-0.12229 H 5.0330995 4.7571469 l -0.1957492,0.78256 -0.1957493,0.78255 H 4.7337992 5.10195 Z m 1.4734089,0 c -0.010515,-0.0673 -0.048499,-0.36438 -0.084581,-0.66028 -0.036082,-0.29589 -0.074157,-0.59303 -0.084581,-0.66027 l -0.018971,-0.12229 H 6.1184697 5.8307457 l -0.018971,0.12229 c -0.010515,0.0673 -0.048499,0.36438 -0.084581,0.66027 -0.036083,0.2959 -0.074157,0.59303 -0.084581,0.66028 l -0.018971,0.12227 H 6.1184658 6.61329 Z m 1.0812211,-0.66028 -0.1957492,-0.78256 H 7.2038456 6.9278931 l 0.018971,0.12229 c 0.010515,0.0673 0.048499,0.36438 0.084581,0.66027 0.036082,0.2959 0.074157,0.59303 0.084581,0.66028 l 0.018971,0.12227 h 0.3681507 0.3681508 z m 1.0433969,0 -0.1957492,-0.78256 H 8.2703649 8.0175348 l 0.1957474,0.78256 0.1957492,0.78255 h 0.2528302 0.2528301 z m 1.0433951,0 -0.1957494,-0.78256 h -0.2528301 -0.25283 l 0.1957492,0.78256 0.1957492,0.78255 h 0.2528302 0.2528301 z m 4.1816046,0.52169 v -0.26084 h -1.789599 -1.789601 l 0.06552,0.26084 0.0655,0.26086 h 1.724094 1.724091 z m 0.0326,-0.8093 c 0,-0.015 0.07336,-0.72164 0.16304,-1.57094 0.08967,-0.8493 0.163039,-1.5473 0.163039,-1.55111 0,-0.003 -0.03946,-0.0168 -0.08768,-0.029 -0.04822,-0.0112 -0.128929,-0.0514 -0.179344,-0.0873 -0.09052,-0.0644 -0.09277,-0.0644 -0.181316,-0.002 -0.04933,0.0344 -0.139542,0.0793 -0.200503,0.10009 -0.214762,0.0729 -0.470726,0.0341 -0.663559,-0.10009 -0.08834,-0.0617 -0.09099,-0.0617 -0.179344,0 -0.25713,0.179 -0.60419,0.18069 -0.858092,0.003 -0.08199,-0.0569 -0.08764,-0.0562 -0.277152,0.0406 -0.166102,0.0847 -0.219215,0.0966 -0.375655,0.083 -0.295634,-0.0253 -0.523611,-0.1743 -0.658936,-0.43036 -0.05507,-0.10427 -0.07156,-0.20414 -0.08205,-0.49724 l -0.01315,-0.36681 H 9.3874241 8.228992 l 0.017845,0.13861 c 0.00977,0.0763 0.066005,0.60445 0.1249847,1.17384 l 0.1072156,1.03525 h 0.5674051 c 0.639552,0 0.7282735,0.0223 0.8807083,0.22203 0.084714,0.11101 0.08847,0.13355 0.1061643,0.63938 0.01503,0.42951 0.03492,0.58772 0.109995,0.87486 l 0.09166,0.35052 h 1.870829 c 1.028954,0 1.870828,-0.0112 1.870828,-0.0269 z m -1.076004,-1.14706 v -0.65212 h 0.26085 0.26085 v 0.65212 0.65211 h -0.26085 -0.26085 z m 0,-1.43468 v -0.26085 h 0.26085 0.26085 v 0.26085 0.26086 h -0.26085 -0.26085 z m -3.3910365,1.30427 v -0.26087 h -3.39103 -3.3910377 v 0.26087 0.26084 H 6.1184735 9.509511 Z m -3.1301888,-6.44121 v -5.65865 l -0.080036,-0.08 c -0.1058823,-0.10592 -0.2557471,-0.10592 -0.361631,0 l -0.080036,0.08 v 5.65865 5.65865 h 0.2608488 0.2608487 z m 5.1369493,4.01352 c 0.07889,-0.079 0.08004,-0.0883 0.08004,-0.65212 v -0.57208 h 0.26085 0.260849 v 0.57208 c 0,0.56391 0.0011,0.57323 0.08003,0.65212 0.05045,0.0505 0.117284,0.08 0.18081,0.08 0.06352,0 0.130356,-0.0297 0.180809,-0.08 0.07889,-0.079 0.08004,-0.0883 0.08004,-0.65212 v -0.57208 h 0.260848 0.260849 v 0.57208 c 0,0.56391 0.0011,0.57323 0.08004,0.65212 0.05045,0.0505 0.117284,0.08 0.18081,0.08 0.06353,0 0.130356,-0.0297 0.180809,-0.08 0.07889,-0.079 0.08004,-0.0883 0.08004,-0.65212 v -0.57208 h 0.260848 0.260849 v 0.57208 c 0,0.56391 0.0011,0.57323 0.08004,0.65212 0.106934,0.10691 0.245139,0.1046 0.355704,-0.006 l 0.08595,-0.086 -1.35e-4,-1.04709 c -1.35e-4,-0.98734 -0.0037,-1.05319 -0.06492,-1.15337 -0.03563,-0.0585 -0.112606,-0.13543 -0.17106,-0.17113 -0.101935,-0.0622 -0.166871,-0.0648 -1.589847,-0.0648 -1.422984,0 -1.487918,0.002 -1.589847,0.0648 -0.05845,0.0357 -0.135427,0.1127 -0.171059,0.17113 -0.06101,0.10008 -0.0648,0.16603 -0.06492,1.12735 -1.35e-4,1.04009 0.0073,1.11104 0.127483,1.20325 0.08571,0.0657 0.227258,0.0484 0.314066,-0.0383 z M 10.552901,289.432 v -0.26084 H 9.2486624 7.9444167 v 0.26084 0.26087 h 1.3042457 1.3042456 z m 0.0726,-0.9382 c 0.07699,-0.21679 0.254483,-0.41094 0.474401,-0.51892 l 0.186651,-0.0917 1.333251,-0.01 1.333251,-0.01 -0.01785,-0.34913 c -0.03331,-0.64922 -0.23257,-1.09797 -0.691192,-1.55658 -0.3239,-0.3239 -0.571433,-0.47492 -0.995521,-0.60735 -0.201634,-0.0629 -0.316066,-0.0764 -0.652123,-0.0764 -0.463967,0 -0.721721,0.0622 -1.124912,0.27097 -0.313906,0.16267 -0.7731341,0.62196 -0.9352441,0.93545 -0.2368099,0.45798 -0.2645116,0.59917 -0.2798914,1.42653 l -0.013711,0.74178 H 9.9064814 10.57035 Z m -8.8171396,3.77348 c -0.03026,-0.017 -0.1074413,-0.14106 -0.17153,-0.27434 -0.156522,-0.32543 -0.3700536,-0.53958 -0.69226392,-0.69431 -0.1946974,-0.0936 -0.26174849,-0.14333 -0.28548318,-0.21187 -0.0581534,-0.16811 0.005447,-0.25675 0.2784826,-0.38785 0.3218498,-0.15459 0.5397259,-0.37233 0.7028109,-0.70237 0.0945,-0.19123 0.1471678,-0.26104 0.2148538,-0.2848 0.1673789,-0.0588 0.2560947,0.006 0.3941864,0.2848 0.1612742,0.32638 0.3696572,0.53477 0.6960375,0.69604 0.2794537,0.13806 0.343552,0.2268 0.2848069,0.39418 -0.023761,0.0676 -0.09356,0.1204 -0.2848069,0.21487 -0.3270151,0.16154 -0.5398667,0.37397 -0.6921981,0.69068 -0.064559,0.13412 -0.1447073,0.25865 -0.1781042,0.27653 -0.076429,0.041 -0.1951651,0.0402 -0.2667768,-0.001 z m 0.3580265,-1.04193 0.2282427,-0.22823 -0.2248692,-0.22488 -0.224871,-0.22488 -0.2249895,0.22499 -0.2249874,0.22499 0.2168374,0.22412 c 0.1192558,0.12322 0.2189861,0.22591 0.2216159,0.22812 0.00263,0.002 0.1074788,-0.0987 0.2330211,-0.22423 z m 1.2070669,-2.08827 c -0.03026,-0.0168 -0.1074413,-0.14106 -0.1715299,-0.27435 -0.1565221,-0.3254 -0.3700536,-0.53956 -0.692264,-0.69428 -0.1946974,-0.0936 -0.2617484,-0.14333 -0.2854832,-0.21187 -0.058153,-0.1681 0.00545,-0.25674 0.2784826,-0.38785 0.3218498,-0.15459 0.5397259,-0.37234 0.7028108,-0.70237 0.1380955,-0.27946 0.2268057,-0.34355 0.3941865,-0.28481 0.067696,0.0239 0.1203452,0.0935 0.2148538,0.28481 0.1612742,0.32638 0.3696572,0.53477 0.6960375,0.69604 0.1912376,0.0945 0.2610497,0.14726 0.284807,0.21484 0.058754,0.16736 -0.00526,0.2561 -0.284807,0.39419 -0.3270152,0.16154 -0.5398666,0.37399 -0.6921981,0.6907 -0.064559,0.1343 -0.1447073,0.25863 -0.1781042,0.27652 -0.076429,0.041 -0.1951651,0.0402 -0.2667767,-10e-4 z m 0.3580265,-1.04193 0.2282427,-0.22824 -0.2248711,-0.22487 -0.2248692,-0.22486 -0.2249893,0.22499 -0.2249875,0.22499 0.2168373,0.2241 c 0.1192558,0.12322 0.2189863,0.22593 0.221616,0.22813 0.00263,0.002 0.1074787,-0.0986 0.2330211,-0.22424 z M 14.850813,286.0069 c -0.03026,-0.017 -0.10744,-0.14105 -0.17153,-0.27436 -0.156522,-0.3254 -0.370053,-0.53958 -0.692263,-0.6943 -0.194698,-0.0935 -0.261749,-0.14331 -0.285484,-0.21185 -0.05816,-0.16812 0.0054,-0.25675 0.278482,-0.38786 0.321851,-0.15459 0.539726,-0.37232 0.702814,-0.70236 0.0945,-0.19124 0.147168,-0.26106 0.214851,-0.2848 0.167379,-0.0588 0.256095,0.006 0.394189,0.2848 0.161275,0.32637 0.369657,0.53475 0.696037,0.69604 0.279454,0.13805 0.34355,0.2268 0.284806,0.39418 -0.02376,0.0676 -0.09358,0.1204 -0.284806,0.21486 -0.327014,0.16154 -0.539867,0.37398 -0.692198,0.69069 -0.06455,0.1343 -0.144707,0.25865 -0.178104,0.27653 -0.07644,0.041 -0.195167,0.0402 -0.266779,-10e-4 z m 0.358027,-1.04193 0.228242,-0.22825 -0.224869,-0.22485 -0.224869,-0.22488 -0.224989,0.22499 -0.224989,0.22499 0.216837,0.22411 c 0.119255,0.12322 0.218988,0.22592 0.221615,0.22813 0.0026,0.002 0.107473,-0.0986 0.233022,-0.22424 z"
       id="path8717"
       inkscape:connector-curvature="0" />
    <path
       style="fill:#ffffff;stroke-width:0.00373461;stroke-miterlimit:4;stroke-dasharray:none"
       d="m 1.7177532,291.21181 -0.2031649,-0.20501 0.2141232,-0.21221 0.2141251,-0.21222 0.2140498,0.21214 0.21405,0.21216 -0.1728824,0.17638 c -0.2589084,0.2641 -0.2477567,0.26341 -0.4803045,0.0287 z"
       id="path8719"
       inkscape:connector-curvature="0" />
    <path
       style="fill:#ffffff;stroke-width:0.00373461;stroke-miterlimit:4;stroke-dasharray:none"
       d="m 3.2935824,288.07757 -0.2125097,-0.21441 0.2125097,-0.21443 0.2125097,-0.21442 0.2144162,0.21442 0.2144181,0.21443 -0.2144181,0.21441 -0.2144162,0.21441 z"
       id="path8721"
       inkscape:connector-curvature="0" />
    <path
       style="fill:#ffffff;stroke-width:0.00373461;stroke-miterlimit:4;stroke-dasharray:none"
       d="m 5.86236,286.8939 v -5.64635 l 0.086779,-0.0682 c 0.1144284,-0.0899 0.2465584,-0.087 0.3356573,0.008 l 0.071621,0.0763 v 5.63837 5.63836 H 6.109388 5.86236 Z"
       id="path8723"
       inkscape:connector-curvature="0" />
    <path
       style="fill:#ffffff;stroke-width:0.00373461;stroke-miterlimit:4;stroke-dasharray:none"
       d="m 2.7333282,293.34719 v -0.24703 H 6.109388 9.4854495 v 0.24703 0.24702 H 6.109388 2.7333282 Z"
       id="path8725"
       inkscape:connector-curvature="0" />
    <path
       style="fill:#ffffff;stroke-width:0.00373461;stroke-miterlimit:4;stroke-dasharray:none"
       d="m 2.3051457,295.65026 c 0,-0.0112 0.084413,-0.35358 0.1876085,-0.75899 l 0.1876085,-0.73712 h 0.2366032 0.236605 l -0.1873643,0.74933 -0.1873644,0.74932 -0.2368416,0.01 c -0.1302629,0.005 -0.2368437,-1.7e-4 -0.2368437,-0.0131 z"
       id="path8727"
       inkscape:connector-curvature="0" />
    <path
       style="fill:#ffffff;stroke-width:0.00373461;stroke-miterlimit:4;stroke-dasharray:none"
       d="m 3.3591346,295.63499 c 0,-0.0291 0.2308742,-0.97213 0.3323195,-1.35732 l 0.032533,-0.1236 h 0.2292908 c 0.136837,0 0.2292907,0.0131 0.2292907,0.0341 0,0.0291 -0.2308743,0.97214 -0.3323196,1.35733 l -0.032533,0.12342 H 3.5884253 c -0.136837,0 -0.2292907,-0.0132 -0.2292907,-0.0341 z"
       id="path8729"
       inkscape:connector-curvature="0" />
    <path
       style="fill:#ffffff;stroke-width:0.00373461;stroke-miterlimit:4;stroke-dasharray:none"
       d="m 4.5755208,294.91995 0.1873832,-0.74933 0.262853,-0.01 0.2628529,-0.01 -0.098162,0.75878 -0.098162,0.75877 H 4.7402193 4.3881547 Z"
       id="path8731"
       inkscape:connector-curvature="0" />
    <path
       style="fill:#ffffff;stroke-width:0.00373461;stroke-miterlimit:4;stroke-dasharray:none"
       d="m 5.6999249,295.24932 c 0.03011,-0.23098 0.073236,-0.57189 0.095833,-0.75756 l 0.041079,-0.33761 H 6.11247 c 0.259194,0 0.2765781,0.003 0.2914639,0.0742 0.015778,0.0738 0.1832508,1.36919 0.1831193,1.41629 -3.38e-5,0.0131 -0.2119725,0.0247 -0.4709673,0.0247 H 5.6451842 Z"
       id="path8733"
       inkscape:connector-curvature="0" />
    <path
       style="fill:#ffffff;stroke-width:0.00373461;stroke-miterlimit:4;stroke-dasharray:none"
       d="m 7.1321927,295.5622 c -0.00977,-0.0588 -0.047485,-0.34417 -0.083868,-0.63402 -0.036402,-0.28986 -0.07487,-0.58259 -0.085502,-0.65051 l -0.019328,-0.1236 H 7.205786 7.4680773 l 0.1852607,0.74058 c 0.101881,0.40731 0.1852605,0.74822 0.1852605,0.75755 0,0.01 -0.154963,0.017 -0.3443484,0.017 H 7.1499016 Z"
       id="path8735"
       inkscape:connector-curvature="0" />
    <path
       style="fill:#ffffff;stroke-width:0.00373461;stroke-miterlimit:4;stroke-dasharray:none"
       d="m 8.4150027,295.62808 c -0.00788,-0.0226 -0.094649,-0.36353 -0.1927552,-0.75756 l -0.1783671,-0.71637 h 0.2357371 0.2357374 l 0.1771274,0.71637 c 0.097411,0.39403 0.1838706,0.73493 0.1921353,0.75756 0.011082,0.0304 -0.045944,0.0412 -0.2200982,0.0412 -0.1584567,0 -0.2398095,-0.0131 -0.2495073,-0.0412 z"
       id="path8737"
       inkscape:connector-curvature="0" />
    <path
       style="fill:#ffffff;stroke-width:0.00373461;stroke-miterlimit:4;stroke-dasharray:none"
       d="m 9.2754587,294.92868 c -0.1018811,-0.40732 -0.1852606,-0.74885 -0.1852606,-0.75899 0,-0.01 0.1065771,-0.0131 0.2368436,-0.01 l 0.2368436,0.01 0.1873643,0.74931 0.1873644,0.74931 H 9.6996629 9.4607137 Z"
       id="path8739"
       inkscape:connector-curvature="0" />
    <path
       style="fill:#ffffff;stroke-width:0.00373461;stroke-miterlimit:4;stroke-dasharray:none"
       d="m 10.472726,295.52928 c -0.01997,-0.077 -0.04899,-0.18816 -0.06448,-0.24704 l -0.02817,-0.10702 h 1.775951 1.775953 v 0.24704 0.24702 h -1.711463 -1.711465 z"
       id="path8741"
       inkscape:connector-curvature="0" />
    <path
       style="fill:#ffffff;stroke-width:0.00373461;stroke-miterlimit:4;stroke-dasharray:none"
       d="m 10.200139,294.44736 c -0.103797,-0.3954 -0.123482,-0.53001 -0.151901,-1.03821 -0.02536,-0.45355 -0.0368,-0.52056 -0.1062206,-0.62257 -0.1339632,-0.19684 -0.2374091,-0.22525 -0.8757232,-0.24035 l -0.5673713,-0.0131 -0.016342,-0.10328 c -0.00902,-0.0569 -0.065272,-0.57391 -0.1251726,-1.14907 l -0.1088871,-1.04574 h 1.1407589 1.1407569 l 0.01691,0.35664 c 0.0198,0.41765 0.06715,0.54274 0.274606,0.72533 0.247339,0.21773 0.561512,0.26148 0.864518,0.1204 l 0.175061,-0.0815 0.161462,0.0819 c 0.222346,0.11271 0.485224,0.11215 0.713352,-0.001 l 0.167398,-0.0833 0.156879,0.0833 c 0.218195,0.11609 0.503941,0.11609 0.721848,2.7e-4 l 0.156409,-0.0832 0.17538,0.0859 c 0.164881,0.0806 0.17448,0.0921 0.160486,0.19019 -0.0083,0.0575 -0.08179,0.74853 -0.163528,1.53578 -0.08174,0.78725 -0.151958,1.43468 -0.156015,1.43873 -0.0042,0.003 -0.838074,0.0188 -1.853366,0.0312 l -1.845987,0.0237 -0.05535,-0.21086 z m 3.237771,-0.96842 v -0.6752 h -0.279967 -0.279967 v 0.6752 0.67521 h 0.279967 0.279967 z m -0.0069,-1.441 -0.0096,-0.27174 h -0.263497 -0.263497 l -0.0096,0.27174 -0.0096,0.27173 h 0.282631 0.28263 z"
       id="path8743"
       inkscape:connector-curvature="0" />
    <path
       style="fill:#ffffff;stroke-width:0.00373461;stroke-miterlimit:4;stroke-dasharray:none"
       d="m 11.243478,290.95943 c -0.128065,-0.0511 -0.144107,-0.18871 -0.144107,-1.23538 0,-0.98187 9.79e-4,-0.99624 0.07535,-1.10671 0.144181,-0.21418 0.115349,-0.21068 1.742028,-0.2107 1.958169,-3e-5 1.781133,-0.13299 1.800302,1.35131 0.01447,1.12021 0.01822,1.09302 -0.165106,1.18785 -0.08171,0.0423 -0.104478,0.0421 -0.187797,-9.6e-4 -0.05215,-0.0271 -0.104027,-0.0731 -0.115273,-0.1024 -0.01127,-0.0293 -0.02046,-0.30407 -0.02046,-0.61055 v -0.55723 h -0.279967 -0.279965 v 0.56246 0.56246 l -0.09629,0.0963 c -0.05295,0.053 -0.120796,0.0963 -0.150756,0.0963 -0.02996,0 -0.09781,-0.0434 -0.150755,-0.0963 l -0.09629,-0.0963 v -0.56246 -0.56246 h -0.27996 -0.279967 v 0.57274 c 0,0.49758 -0.0075,0.58171 -0.05765,0.64088 -0.09352,0.11044 -0.214911,0.12115 -0.32273,0.0285 l -0.0932,-0.0802 -0.01447,-0.58098 -0.01447,-0.58097 h -0.2552 -0.255199 l -0.01427,0.5774 c -0.01277,0.51767 -0.02092,0.58375 -0.07825,0.63883 -0.08237,0.079 -0.177654,0.10372 -0.265692,0.0686 z"
       id="path8745"
       inkscape:connector-curvature="0" />
    <path
       style="fill:#ffffff;stroke-width:0.00373461;stroke-miterlimit:4;stroke-dasharray:none"
       d="m 7.9703396,289.42766 v -0.24702 h 1.2845494 1.28455 v 0.24702 0.24704 H 9.254889 7.9703396 Z"
       id="path8749"
       inkscape:connector-curvature="0" />
    <path
       style="fill:#ffffff;stroke-width:0.00373461;stroke-miterlimit:4;stroke-dasharray:none"
       d="m 9.2563072,288.36545 c 7.795e-4,-0.14032 0.0139,-0.49241 0.029302,-0.78225 0.025019,-0.47286 0.038356,-0.55408 0.1297558,-0.79051 0.1306572,-0.33795 0.2769216,-0.55243 0.5787803,-0.84877 0.2827297,-0.27754 0.5111357,-0.42365 0.8471637,-0.54196 0.324233,-0.1142 0.985014,-0.14424 1.312038,-0.0598 0.640487,0.16549 1.237773,0.65386 1.532432,1.25276 0.146304,0.29734 0.205068,0.5345 0.233011,0.94024 l 0.02258,0.32785 h -1.325815 -1.32582 l -0.196503,0.10482 c -0.225632,0.12021 -0.39636,0.30337 -0.475105,0.50955 l -0.05472,0.14332 H 9.9091372 9.2548684 Z"
       id="path8751"
       inkscape:connector-curvature="0" />
    <path
       style="fill:#ffffff;stroke-width:0.00373461;stroke-miterlimit:4;stroke-dasharray:none"
       d="m 14.761004,284.95387 -0.203297,-0.20511 0.214124,-0.21224 0.214125,-0.21221 0.213522,0.21161 0.213522,0.21164 -0.07354,0.0789 c -0.04044,0.0434 -0.141402,0.13599 -0.224349,0.20572 l -0.150812,0.12679 z"
       id="path8753"
       inkscape:connector-curvature="0" />
  </g>
</svg>
