<?xml version="1.0" encoding="UTF-8" standalone="no"?>
<!-- Created with Inkscape (http://www.inkscape.org/) -->

<svg
   xmlns:dc="http://purl.org/dc/elements/1.1/"
   xmlns:cc="http://creativecommons.org/ns#"
   xmlns:rdf="http://www.w3.org/1999/02/22-rdf-syntax-ns#"
   xmlns:svg="http://www.w3.org/2000/svg"
   xmlns="http://www.w3.org/2000/svg"
   xmlns:sodipodi="http://sodipodi.sourceforge.net/DTD/sodipodi-0.dtd"
   xmlns:inkscape="http://www.inkscape.org/namespaces/inkscape"
   width="64"
   height="64"
   viewBox="0 0 16.933333 16.933333"
   version="1.1"
   id="svg8"
   inkscape:version="0.92.5 (2060ec1f9f, 2020-04-08)"
   sodipodi:docname="mouthwash_64x64.svg">
  <defs
     id="defs2" />
  <sodipodi:namedview
     id="base"
     pagecolor="#ffffff"
     bordercolor="#666666"
     borderopacity="1.0"
     inkscape:pageopacity="0.0"
     inkscape:pageshadow="2"
     inkscape:zoom="5.6"
     inkscape:cx="-0.53138609"
     inkscape:cy="16.404001"
     inkscape:document-units="mm"
     inkscape:current-layer="layer1"
     showgrid="false"
     units="px"
     inkscape:window-width="1208"
     inkscape:window-height="987"
     inkscape:window-x="1992"
     inkscape:window-y="0"
     inkscape:window-maximized="1" />
  <metadata
     id="metadata5">
    <rdf:RDF>
      <cc:Work
         rdf:about="">
        <dc:format>image/svg+xml</dc:format>
        <dc:type
           rdf:resource="http://purl.org/dc/dcmitype/StillImage" />
        <dc:title></dc:title>
      </cc:Work>
    </rdf:RDF>
  </metadata>
  <g
     inkscape:label="Layer 1"
     inkscape:groupmode="layer"
     id="layer1"
     transform="translate(0,-280.06667)">
    <path
       style="fill:#000000;stroke-width:0.03128736"
       d="m 2.449189,296.56783 c -0.1157718,-0.0222 -0.3093742,-0.2292 -0.3449483,-0.36886 -0.017536,-0.0688 -0.1113913,-1.40636 -0.2085711,-2.9723 -0.09718,-1.56593 -0.2178095,-3.31499 -0.2680652,-3.88682 -0.060885,-0.69273 -0.081771,-1.06493 -0.062594,-1.11537 0.069665,-0.18324 -0.030246,-0.17587 2.3844955,-0.17587 h 2.212696 l 0.086484,0.0744 c 0.1078206,0.0927 0.1081904,0.0612 -0.01766,1.50562 -0.052477,0.60227 -0.165845,2.26363 -0.251927,3.6919 -0.086083,1.42827 -0.1647148,2.67005 -0.1747375,2.75954 -0.023307,0.20804 -0.1190515,0.35083 -0.2947621,0.43959 -0.1388323,0.0702 -0.1446207,0.0704 -1.5641154,0.0662 -0.7836219,-0.003 -1.4569516,-0.0104 -1.4962889,-0.0179 z m 2.8333875,-1.3153 -0.00858,-0.52406 H 4.7421128 4.2102276 l -0.015641,0.32852 c -0.0086,0.18068 -0.025898,0.34427 -0.038437,0.36354 -0.012539,0.0192 -0.065333,0.0526 -0.1173273,0.0741 -0.076169,0.0316 -0.1135161,0.0313 -0.1922442,-0.002 -0.1355517,-0.0562 -0.1838752,-0.19114 -0.1838752,-0.51364 v -0.26695 H 3.130818 2.5989328 v 0.53188 0.53189 h 1.3461127 1.3461134 z m 0.1700553,-2.7924 c 0.1166334,-1.33931 0.1407662,-1.72031 0.1124841,-1.7758 -0.019802,-0.0389 -0.1224078,-0.1536 -0.2280084,-0.255 -0.3736448,-0.3588 -0.6900907,-0.34012 -1.0659571,0.0629 -0.396307,0.42494 -0.5381323,0.55156 -0.7143626,0.63779 -0.3376199,0.16518 -0.8310697,0.13861 -1.1245539,-0.0606 -0.069742,-0.0473 -0.1153517,-0.063 -0.1160626,-0.0398 -6.506e-4,0.021 0.058734,0.73877 0.1319463,1.59504 l 0.1331175,1.55688 1.3614526,-0.008 1.3614518,-0.008 z m -2.1150427,-1.81631 c 0.07982,-0.0386 0.2163142,-0.16016 0.3426524,-0.30506 0.4030461,-0.46225 0.5912106,-0.59464 0.943635,-0.66398 0.3173989,-0.0624 0.7050919,0.0363 0.9495094,0.24205 0.050435,0.0425 0.091704,0.0691 0.091704,0.0592 0,-0.0396 0.093634,-1.07813 0.1110153,-1.23133 l 0.018634,-0.16426 H 3.9424936 2.0902467 l 0.019013,0.17991 c 0.010458,0.0989 0.042127,0.44741 0.070368,0.77436 l 0.051347,0.59446 0.203581,0.22812 c 0.1119699,0.12547 0.2545956,0.25508 0.3169455,0.28803 0.1550526,0.0819 0.4150398,0.0812 0.5860813,-0.002 z m 4.6738502,5.91776 c -0.242039,-0.076 -0.411372,-0.22453 -0.520226,-0.45647 -0.07305,-0.15564 -0.07342,-0.16257 -0.07355,-1.361 -9.4e-5,-0.73425 0.01251,-1.25006 0.03223,-1.3211 0.0454,-0.16346 0.212362,-0.3709 0.36766,-0.45679 l 0.131511,-0.0727 v -2.44993 -2.44991 l -0.09308,-0.0385 c -0.130531,-0.054 -0.325245,-0.27516 -0.388732,-0.4414 -0.04712,-0.12339 -0.05239,-0.25426 -0.04398,-1.09322 0.01286,-1.28275 -0.052,-1.17364 1.082638,-1.82135 0.938186,-0.53557 0.908094,-0.5211 1.131887,-0.54448 l 0.188509,-0.0198 v -0.55492 -0.55491 l -0.09267,-0.0383 c -0.135141,-0.056 -0.365998,-0.31686 -0.405143,-0.45785 -0.01855,-0.0668 -0.03349,-0.37489 -0.0332,-0.68464 5.76e-4,-0.63201 0.02344,-0.72617 0.225379,-0.92811 0.237864,-0.23786 0.168675,-0.22952 1.9012987,-0.22952 1.524822,0 1.550662,7.8e-4 1.674284,0.0672 0.178035,0.0954 0.294421,0.22029 0.382122,0.41019 0.07334,0.15881 0.07564,0.18506 0.06574,0.7509 -0.0093,0.53222 -0.01658,0.59815 -0.07881,0.71443 -0.07243,0.13538 -0.248944,0.30763 -0.373314,0.3643 -0.07426,0.0338 -0.07437,0.0348 -0.07437,0.59203 v 0.55816 l 0.117328,7.7e-4 c 0.06452,6e-4 0.187724,0.0259 0.273764,0.0563 0.216367,0.0764 1.635095,0.89455 1.760253,1.01503 0.05611,0.054 0.133549,0.16219 0.17208,0.24037 0.06681,0.13553 0.07053,0.18394 0.08003,1.04189 0.0082,0.73744 0.0013,0.9295 -0.03795,1.06462 -0.05504,0.18931 -0.211893,0.38837 -0.375452,0.47646 l -0.112807,0.0607 v 2.4426 2.44259 l 0.161938,0.10803 c 0.111891,0.0747 0.191665,0.16121 0.258121,0.28011 l 0.09618,0.17208 0.0092,1.19956 c 0.01058,1.376 0.002,1.44245 -0.217085,1.68013 -0.221492,0.24029 -0.335487,0.26469 -1.23656,0.26469 h -0.769395 l -0.271772,-0.26594 -0.271771,-0.26594 h -1.233162 -1.233161 l -0.2594127,0.25812 -0.259414,0.25811 -0.789367,0.006 c -0.434151,0.003 -0.824655,-0.005 -0.867787,-0.0187 z m 1.693262,-0.76935 0.275872,-0.26594 h 1.4413897 1.441391 l 0.275874,0.26594 0.275872,0.26595 h 0.644273 c 0.635874,0 0.645418,-7.7e-4 0.732059,-0.0755 l 0.08778,-0.0755 0.0091,-1.12126 c 0.005,-0.6167 0.0013,-1.15255 -0.0082,-1.1908 -0.0095,-0.0382 -0.04796,-0.0981 -0.08541,-0.13297 -0.06685,-0.0623 -0.102844,-0.0634 -1.962903,-0.0636 -1.242101,-1.1e-4 -1.936084,-0.0116 -2.014634,-0.0334 -0.0918,-0.0254 -0.130056,-0.0577 -0.163563,-0.13794 -0.05339,-0.12779 -0.0141,-0.27067 0.08934,-0.32488 0.04918,-0.0258 0.574704,-0.0383 1.836635,-0.0436 l 1.767736,-0.008 0.008,-2.39989 0.008,-2.39988 -0.863348,-0.009 -0.863348,-0.009 -0.07547,-0.0878 c -0.09576,-0.11138 -0.09576,-0.21363 -6e-6,-0.32501 l 0.07546,-0.0878 1.050069,-0.0156 c 1.040899,-0.0155 1.050691,-0.0162 1.121282,-0.0869 0.07019,-0.0702 0.07134,-0.0837 0.0804,-0.94049 0.0088,-0.83012 0.0063,-0.87287 -0.05356,-0.94903 -0.0345,-0.0439 -0.412312,-0.27885 -0.839572,-0.5222 l -0.776835,-0.44244 H 11.417936 9.6174873 l -0.799034,0.45609 c -0.566442,0.32332 -0.809283,0.47857 -0.834241,0.53335 -0.02331,0.0512 -0.03521,0.36305 -0.03521,0.92296 v 0.8457 l 0.09145,0.0915 0.09145,0.0915 h 1.015027 c 0.9638007,0 1.0189947,0.003 1.0936817,0.0619 0.04326,0.034 0.08522,0.0962 0.09324,0.13815 0.02131,0.11148 -0.05448,0.26509 -0.148438,0.30082 -0.0464,0.0176 -0.4320137,0.031 -0.8930997,0.031 h -0.811318 v 2.40912 2.40913 h 0.455089 c 0.441465,0 0.457388,0.003 0.531885,0.0768 0.09943,0.0994 0.09996,0.23693 0.0013,0.35166 l -0.07546,0.0878 -0.662642,0.0156 c -0.649794,0.0154 -0.6638,0.0171 -0.722367,0.0895 -0.05637,0.0697 -0.05972,0.1389 -0.05972,1.23043 v 1.15657 l 0.09146,0.0915 0.09145,0.0915 h 0.648425 0.648424 z m 2.4212277,-3.47528 c -0.01721,-0.004 -0.06892,-0.016 -0.114916,-0.0261 -0.126379,-0.0278 -0.263298,-0.15857 -0.439859,-0.42023 l -0.159409,-0.23624 -0.04964,0.0762 c -0.340264,0.5223 -0.419809,0.59315 -0.665927,0.59315 -0.179042,0 -0.299352,-0.0545 -0.409848,-0.18589 -0.04363,-0.0519 -0.224814,-0.45713 -0.4026407,-0.90063 l -0.32332,-0.80637 v -0.59446 c 0,-0.59054 5.88e-4,-0.59566 0.08938,-0.77648 0.107527,-0.21898 0.306651,-0.37836 0.5363697,-0.42931 0.104105,-0.0231 0.548923,-0.0313 1.329713,-0.0245 1.053562,0.009 1.184791,0.0159 1.286147,0.0663 0.167356,0.0833 0.30917,0.23516 0.400448,0.42875 0.07807,0.16557 0.0811,0.19337 0.08032,0.73524 l -8.51e-4,0.56318 -0.333458,0.84054 c -0.316813,0.79859 -0.397279,0.95183 -0.540225,1.02882 -0.07309,0.0394 -0.237888,0.0791 -0.282323,0.0681 z m -1.235344,-0.83664 c 0.185686,-0.27253 0.320975,-0.36554 0.531685,-0.36554 0.223021,0 0.347926,0.098 0.593901,0.46587 0.102869,0.15385 0.139745,0.18904 0.160047,0.15277 0.01451,-0.0259 0.14987,-0.36227 0.300802,-0.74745 l 0.274423,-0.70029 1.3e-4,-0.49537 1.29e-4,-0.49535 -0.102177,-0.0913 c -0.0989,-0.0883 -0.112591,-0.0913 -0.424764,-0.0913 -0.295002,0 -0.327951,0.006 -0.385534,0.0704 -0.08079,0.0903 -0.126823,0.21735 -0.151934,0.41928 -0.0297,0.23879 -0.158574,0.3373 -0.369065,0.2821 -0.126609,-0.0332 -0.176474,-0.17394 -0.145977,-0.41197 0.01322,-0.10324 0.03928,-0.22645 0.05789,-0.27376 l 0.03384,-0.086 h -0.470099 c -0.700188,0 -0.717281,0.0168 -0.717281,0.70636 v 0.41543 l 0.237429,0.60455 c 0.130585,0.33251 0.265842,0.67979 0.30057,0.77173 0.03472,0.0919 0.07353,0.15531 0.08624,0.14079 0.0127,-0.0145 0.09809,-0.13643 0.189742,-0.27095 z m 0.415141,-5.07354 c -0.158106,-0.0688 -0.190038,-0.27845 -0.06323,-0.4153 0.05668,-0.0612 0.09657,-0.0704 0.304176,-0.0704 0.196785,0 0.25096,0.0112 0.307041,0.0634 0.14673,0.1367 0.111589,0.34685 -0.07074,0.42302 -0.135972,0.0569 -0.345588,0.0565 -0.477245,-7.8e-4 z m 1.383375,0.0237 c -0.212011,-0.0517 -0.260286,-0.33158 -0.08093,-0.46928 0.03414,-0.0262 0.206644,-0.0384 0.552607,-0.0391 0.482049,-7.7e-4 0.505679,0.002 0.568197,0.0694 0.129813,0.14009 0.0949,0.34769 -0.07007,0.41662 -0.104566,0.0437 -0.815015,0.0601 -0.9698,0.0224 z m -0.203367,-2.91852 v -0.53188 h -1.063771 -1.06377 v 0.53188 0.53189 h 1.06377 1.063771 z m 0.456395,-1.16719 c 0.07278,-0.0846 0.07549,-0.10521 0.07549,-0.5734 v -0.48562 l -0.09146,-0.0915 c -0.08898,-0.089 -0.09999,-0.0915 -0.406736,-0.0915 h -0.31528 v 0.18914 c 0,0.15911 -0.0122,0.20134 -0.0768,0.26595 -0.09748,0.0975 -0.236993,0.0999 -0.346129,0.006 -0.06727,-0.0578 -0.08548,-0.10632 -0.09995,-0.26594 l -0.0177,-0.19519 H 11.401967 11.14037 v 0.18922 c 0,0.16442 -0.01085,0.19926 -0.08279,0.26595 -0.103743,0.0961 -0.232674,0.0984 -0.340137,0.006 -0.06727,-0.0578 -0.08548,-0.10633 -0.09995,-0.26594 l -0.0177,-0.1952 h -0.278794 c -0.289868,0 -0.4376667,0.0442 -0.4752627,0.1422 -0.01069,0.0278 -0.01944,0.27231 -0.01944,0.54324 0,0.47099 0.0031,0.49539 0.0704,0.55662 0.03872,0.0352 0.09151,0.0721 0.1173267,0.0817 0.02582,0.01 0.678209,0.015 1.44977,0.0118 l 1.40284,-0.006 z m -10.711803,3.52782 c -0.1044875,-0.044 -0.1632823,-0.1746 -0.1632823,-0.36291 0,-0.11985 -6.497e-4,-0.12048 -0.1261541,-0.12048 -0.2867081,0 -0.4583499,-0.17288 -0.3739481,-0.37664 0.05168,-0.12476 0.1156736,-0.15524 0.325965,-0.15524 h 0.1741372 v -0.13613 c 0,-0.17298 0.052894,-0.3258 0.126384,-0.36513 0.031475,-0.0168 0.1052478,-0.0306 0.1639404,-0.0306 0.1553358,0 0.2225412,0.0901 0.2415608,0.32394 l 0.015641,0.19231 0.1944262,0.009 c 0.1659927,0.008 0.203742,0.0212 0.2581214,0.0903 0.0876,0.11137 0.082599,0.26288 -0.011595,0.35137 -0.054758,0.0514 -0.1272719,0.0754 -0.2659434,0.088 l -0.1906537,0.0172 v 0.16351 c 0,0.26796 -0.1567242,0.40028 -0.368603,0.31118 z m 3.1489623,-2.70191 c -0.059237,-0.048 -0.076828,-0.0987 -0.089507,-0.25813 l -0.015781,-0.19841 -0.1984231,-0.0158 c -0.2277664,-0.0181 -0.3185297,-0.093 -0.3168233,-0.26145 0.00186,-0.17998 0.1328498,-0.27029 0.3921338,-0.27029 h 0.1387566 l 0.00101,-0.1799 c 0.00116,-0.20286 0.041082,-0.27462 0.1798505,-0.32299 0.1969906,-0.0687 0.3510399,0.0991 0.3510399,0.3824 0,0.11986 6.505e-4,0.12049 0.1261541,0.12049 0.1894216,0 0.3286941,0.0699 0.3688892,0.18523 0.03894,0.1117 0.023384,0.17569 -0.067135,0.27626 -0.051595,0.0573 -0.09641,0.0704 -0.2412915,0.0704 H 5.8302332 l -0.017288,0.19066 c -0.012578,0.13866 -0.036572,0.21118 -0.088018,0.26594 -0.087112,0.0927 -0.2417511,0.0997 -0.3456243,0.0156 z"
       id="path203"
       inkscape:connector-curvature="0" />
    <path
       style="fill:#ffffff;stroke-width:0.00119452;stroke-miterlimit:4;stroke-dasharray:none"
       d="M 2.5809729,293.98506 C 2.5513779,293.71233 2.341646,291.19499 2.341646,291.11249 v -0.0715 l 0.1501237,0.0774 c 0.1947875,0.1005 0.4817703,0.15177 0.7018948,0.12539 0.3125589,-0.0375 0.4803895,-0.14042 0.9017551,-0.55324 0.3823256,-0.37458 0.5737791,-0.50459 0.7430222,-0.50459 0.1414678,0 0.3473005,0.11962 0.5435894,0.31592 l 0.192375,0.19237 -0.020158,0.30615 c -0.056398,0.85649 -0.2496249,3.03328 -0.2747609,3.09529 l -0.028822,0.0711 H 3.92568 2.6006957 Z"
       id="path205"
       inkscape:connector-curvature="0" />
    <path
       style="fill:#ffffff;stroke-width:0.00119452;stroke-miterlimit:4;stroke-dasharray:none"
       d="m 2.6260908,295.24135 v -0.50567 H 3.131771 3.6374511 l 0.00186,0.16592 c 0.0034,0.30174 0.046087,0.47214 0.1380016,0.5512 0.102173,0.0879 0.2381,0.094 0.3356133,0.015 0.061905,-0.0501 0.073339,-0.0941 0.084138,-0.32395 0.021233,-0.4517 -0.036619,-0.40816 0.5424571,-0.40816 h 0.500393 l 0.020298,0.26073 c 0.011162,0.14341 0.020383,0.37097 0.020483,0.50569 l 1.88e-4,0.24493 H 3.9534676 2.6260575 Z"
       id="path207"
       inkscape:connector-curvature="0" />
    <path
       style="fill:#ffffff;stroke-width:0.00119452;stroke-miterlimit:4;stroke-dasharray:none"
       d="m 2.7999186,290.64495 c -0.052152,-0.0235 -0.1974771,-0.14744 -0.3229536,-0.27532 l -0.2281392,-0.23248 -0.064211,-0.70644 c -0.035312,-0.38854 -0.064211,-0.73344 -0.064211,-0.76642 0,-0.0583 0.053962,-0.0599 1.8323005,-0.0599 h 1.8323004 l -0.014899,0.0869 c -0.018402,0.1074 -0.1099455,1.11194 -0.1099455,1.20651 0,0.0684 -4.911e-4,0.0684 -0.1044564,-0.0108 -0.283792,-0.21646 -0.6893954,-0.29074 -1.0518309,-0.19263 -0.2579589,0.0698 -0.4768644,0.23151 -0.8172768,0.60367 -0.151632,0.16577 -0.3018601,0.29756 -0.3792607,0.33273 -0.1505521,0.0684 -0.3737531,0.0747 -0.5074283,0.0143 z"
       id="path209"
       inkscape:connector-curvature="0" />
    <path
       style="fill:#ffffff;stroke-width:0.00119452;stroke-miterlimit:4;stroke-dasharray:none"
       d="m 8.0511213,295.94165 -0.08606,-0.0898 0.009,-1.15747 c 0.0082,-1.04058 0.01448,-1.1629 0.06287,-1.21127 0.0462,-0.0461 0.14715,-0.0558 0.71331,-0.0683 l 0.65949,-0.0147 0.06891,-0.10057 c 0.09298,-0.1357 0.08912,-0.2721 -0.01035,-0.36554 -0.07365,-0.0691 -0.110549,-0.0755 -0.521482,-0.0886 l -0.442224,-0.014 v -2.37872 -2.37872 l 0.84027,-0.0113 0.8402687,-0.0113 0.07628,-0.0887 c 0.08454,-0.0983 0.101188,-0.26024 0.03593,-0.3495 -0.06963,-0.0952 -0.264622,-0.11338 -1.2258367,-0.11416 l -0.934335,-7.5e-4 -0.08493,-0.0886 -0.08493,-0.0886 v -0.79235 c 0,-0.43578 0.0082,-0.83323 0.01825,-0.88321 0.02367,-0.11788 0.102339,-0.1725 0.945196,-0.65621 l 0.694541,-0.39861 h 1.7960757 1.796076 l 0.636915,0.36682 c 0.350305,0.20174 0.717531,0.42155 0.81606,0.48846 0.174026,0.11818 0.179778,0.12673 0.201369,0.29954 0.01222,0.0978 0.01192,0.49761 -6.73e-4,0.8884 -0.01954,0.60631 -0.03098,0.72049 -0.07802,0.77857 -0.05383,0.0665 -0.07947,0.0685 -1.106096,0.0868 l -1.050978,0.0187 -0.0746,0.0867 c -0.09499,0.11044 -0.09514,0.24544 -3.95e-4,0.35559 l 0.0742,0.0863 0.85814,0.0145 0.85814,0.0145 v 1.7132 c 0,0.94226 -0.0094,2.01416 -0.02083,2.38201 l -0.02082,0.66879 h -1.301557 c -1.723833,0 -2.250779,0.0226 -2.328124,0.1 -0.08355,0.0836 -0.07493,0.25613 0.01819,0.36445 l 0.07625,0.0887 1.977227,0.0158 1.977228,0.0158 0.07197,0.0721 0.07197,0.0721 -0.0071,1.16048 -0.0071,1.16047 -0.08155,0.0711 c -0.07882,0.0687 -0.102935,0.0711 -0.719786,0.0709 l -0.63824,-2.8e-4 -0.273699,-0.25255 -0.273699,-0.25256 H 11.406515 9.9411983 l -0.251357,0.25285 -0.251357,0.25284 h -0.650632 -0.650632 l -0.08607,-0.0898 z m 2.9273307,-3.71097 c 0.03874,-0.0254 0.148135,-0.1548 0.243116,-0.28762 0.09498,-0.1328 0.181797,-0.24146 0.192927,-0.24146 0.01113,0 0.0785,0.0831 0.149701,0.18456 0.277239,0.39523 0.507357,0.51203 0.787777,0.39983 0.187794,-0.0751 0.270622,-0.22203 0.641969,-1.13843 l 0.319789,-0.78917 -0.01328,-0.5689 c -0.01249,-0.53502 -0.01812,-0.57837 -0.09456,-0.72818 -0.09338,-0.183 -0.326421,-0.41175 -0.456432,-0.44803 -0.04883,-0.0136 -0.657672,-0.0247 -1.352983,-0.0247 -1.240505,0 -1.266626,0.002 -1.393612,0.0692 -0.1403777,0.0751 -0.2950337,0.23533 -0.3835777,0.39735 -0.04698,0.0859 -0.05754,0.2025 -0.06622,0.73053 l -0.01032,0.62825 0.263162,0.64981 c 0.3253747,0.80343 0.4599847,1.07657 0.5692637,1.1551 0.158977,0.11422 0.43867,0.11974 0.603282,0.0119 z m 0.890563,-5.86889 c 0.107706,-0.10118 0.108998,-0.26032 0.0029,-0.36634 -0.06939,-0.0694 -0.10416,-0.0776 -0.329558,-0.0776 -0.234577,0 -0.256507,0.005 -0.317486,0.0833 -0.07324,0.0931 -0.0861,0.25808 -0.026,0.33342 0.07615,0.0955 0.165931,0.12219 0.37772,0.11254 0.171876,-0.008 0.226977,-0.0239 0.292346,-0.0853 z m 1.763147,0.0602 c 0.06498,-0.018 0.132536,-0.0597 0.150124,-0.0926 0.05152,-0.0963 0.03697,-0.23866 -0.03352,-0.32829 l -0.06551,-0.0832 h -0.520624 c -0.510623,0 -0.522117,0.002 -0.598201,0.0776 -0.129925,0.12992 -0.09878,0.33382 0.06465,0.42321 0.0812,0.0444 0.846021,0.0469 1.003087,0.003 z"
       id="path211"
       inkscape:connector-curvature="0" />
    <path
       style="fill:#ffffff;stroke-width:0.00119452;stroke-miterlimit:4;stroke-dasharray:none"
       d="m 10.675287,291.71086 c -0.0085,-0.0138 -0.146116,-0.3593 -0.305762,-0.76778 l -0.290267,-0.74273 0.01291,-0.42666 c 0.01383,-0.45728 0.04086,-0.55271 0.170513,-0.602 0.04353,-0.0166 0.278994,-0.0301 0.523248,-0.0301 h 0.444098 l -0.02198,0.0711 c -0.01209,0.0391 -0.0297,0.17961 -0.03913,0.31222 -0.01538,0.21641 -0.01028,0.24796 0.0499,0.30815 0.04325,0.0433 0.107037,0.067 0.179743,0.067 0.207851,0 0.259336,-0.0637 0.328212,-0.40662 0.01873,-0.0933 0.06329,-0.2106 0.09898,-0.26074 0.06439,-0.0904 0.06753,-0.0912 0.392187,-0.0912 0.305981,0 0.333603,0.005 0.424516,0.0819 l 0.09724,0.0819 v 0.4859 0.48591 l -0.289506,0.73521 -0.289508,0.73521 -0.06605,-0.0917 c -0.300047,-0.4167 -0.463292,-0.55463 -0.65643,-0.55463 -0.241408,0 -0.364919,0.0902 -0.618838,0.45173 -0.07072,0.1007 -0.135551,0.17181 -0.144075,0.15802 z"
       id="path213"
       inkscape:connector-curvature="0" />
    <path
       style="fill:#ffffff;stroke-width:0.00119452;stroke-miterlimit:4;stroke-dasharray:none"
       d="m 10.369317,283.5159 v -0.50568 h 1.058768 1.058767 v 0.50568 0.50569 h -1.058767 -1.058768 z"
       id="path215"
       inkscape:connector-curvature="0" />
    <path
       style="fill:#ffffff;stroke-width:0.00119452;stroke-miterlimit:4;stroke-dasharray:none"
       d="m 9.9297393,282.3498 c -0.06988,-0.0537 -0.07733,-0.0858 -0.09092,-0.39132 -0.0082,-0.18304 -0.0047,-0.42672 0.0075,-0.54152 0.02766,-0.25831 0.05363,-0.27554 0.4462107,-0.29607 l 0.288887,-0.0151 0.02173,0.19205 c 0.01844,0.163 0.03673,0.20468 0.120913,0.27551 0.07791,0.0656 0.11996,0.0793 0.196039,0.0642 0.15733,-0.0315 0.217515,-0.11736 0.233087,-0.33266 l 0.0138,-0.19085 h 0.249042 0.249042 v 0.1217 c 0,0.27607 0.147504,0.44374 0.351031,0.39904 0.122461,-0.0269 0.176241,-0.11665 0.20315,-0.33902 l 0.02199,-0.18172 h 0.278378 c 0.253376,0 0.287113,0.008 0.375618,0.0818 l 0.09724,0.0819 v 0.48281 c 0,0.44058 -0.0057,0.49009 -0.0655,0.56608 l -0.06551,0.0833 -1.427832,-6.9e-4 c -1.3406,-6.7e-4 -1.432483,-0.004 -1.5039527,-0.0592 z"
       id="path217"
       inkscape:connector-curvature="0" />
  </g>
</svg>
