<?xml version="1.0" encoding="UTF-8" standalone="no"?>
<!-- Created with Inkscape (http://www.inkscape.org/) -->

<svg
   xmlns:dc="http://purl.org/dc/elements/1.1/"
   xmlns:cc="http://creativecommons.org/ns#"
   xmlns:rdf="http://www.w3.org/1999/02/22-rdf-syntax-ns#"
   xmlns:svg="http://www.w3.org/2000/svg"
   xmlns="http://www.w3.org/2000/svg"
   xmlns:sodipodi="http://sodipodi.sourceforge.net/DTD/sodipodi-0.dtd"
   xmlns:inkscape="http://www.inkscape.org/namespaces/inkscape"
   width="64"
   height="64"
   viewBox="0 0 16.933333 16.933334"
   version="1.1"
   id="svg8"
   inkscape:version="0.92.5 (2060ec1f9f, 2020-04-08)"
   sodipodi:docname="mouth_64x64.svg">
  <defs
     id="defs2" />
  <sodipodi:namedview
     id="base"
     pagecolor="#ffffff"
     bordercolor="#666666"
     borderopacity="1.0"
     inkscape:pageopacity="0.0"
     inkscape:pageshadow="2"
     inkscape:zoom="2.8"
     inkscape:cx="59.386995"
     inkscape:cy="-41.526469"
     inkscape:document-units="mm"
     inkscape:current-layer="layer1"
     showgrid="false"
     units="px"
     inkscape:window-width="1208"
     inkscape:window-height="987"
     inkscape:window-x="1992"
     inkscape:window-y="0"
     inkscape:window-maximized="1" />
  <metadata
     id="metadata5">
    <rdf:RDF>
      <cc:Work
         rdf:about="">
        <dc:format>image/svg+xml</dc:format>
        <dc:type
           rdf:resource="http://purl.org/dc/dcmitype/StillImage" />
        <dc:title></dc:title>
      </cc:Work>
    </rdf:RDF>
  </metadata>
  <g
     inkscape:label="Layer 1"
     inkscape:groupmode="layer"
     id="layer1"
     transform="translate(0,-280.06665)">
    <path
       style="fill:#000000;stroke-width:0.03056477"
       d="M 7.7928453,293.35021 C 4.933096,293.1574 2.5886727,291.64619 1.1828434,289.08942 0.97620805,288.71361 0.69719184,288.0969 0.66818599,287.95187 c -0.0414838,-0.2074 0.0169861,-0.28424 0.93534311,-1.22924 2.404883,-2.47466 3.8281359,-3.54451 4.8614779,-3.65432 0.2375474,-0.0253 0.6888438,0.0234 1.0005579,0.10803 0.2319228,0.0629 0.4798111,0.17673 0.7285914,0.3345 0.2127631,0.13494 0.3663812,0.12746 0.6223962,-0.0302 0.450749,-0.27771 0.9005871,-0.40287 1.4671085,-0.4082 0.288544,-0.002 0.392549,0.009 0.580731,0.0678 0.671237,0.20854 1.502001,0.76587 2.631179,1.76517 0.483978,0.42831 2.577458,2.52129 2.702791,2.70214 0.164338,0.23715 0.135162,0.36769 -0.259453,1.16086 -0.845351,1.69915 -2.091454,2.9787 -3.659816,3.75804 -0.965037,0.47955 -1.991991,0.74662 -3.1716538,0.82486 -0.5393036,0.0357 -0.7699025,0.0356 -1.3145939,-9.4e-4 z m 1.7871439,-0.96023 c 1.3742138,-0.1727 2.6094048,-0.69548 3.6047088,-1.52563 0.327946,-0.27353 0.860704,-0.83427 1.122695,-1.18167 0.341715,-0.45311 0.742361,-1.10978 0.701827,-1.15032 -0.0089,-0.009 -0.07522,-0.002 -0.147315,0.0165 -0.310405,0.0774 -0.92467,0.16488 -1.292532,0.18385 -0.9673,0.0499 -1.709402,-0.0704 -2.536874,-0.41144 -0.786355,-0.32402 -0.869664,-0.33568 -1.4212626,-0.19887 -0.5058658,0.12545 -0.7354037,0.15572 -1.1861713,0.15646 -0.441226,6.9e-4 -0.682701,-0.0316 -1.1824643,-0.15849 -0.496739,-0.12605 -0.6479608,-0.11295 -1.1526698,0.0996 -0.7741655,0.32611 -1.3685041,0.47657 -2.0261993,0.51293 -0.4856797,0.0268 -1.1069595,-0.007 -1.5588023,-0.0873 -0.2017274,-0.0354 -0.4139505,-0.0725 -0.4716063,-0.0826 l -0.104828,-0.0183 0.1152914,0.21122 c 0.1724746,0.31595 0.489032,0.78286 0.7533766,1.11121 0.2758781,0.34267 0.8668676,0.92219 1.1911461,1.16803 0.8242109,0.62483 1.7758397,1.05033 2.8150879,1.25871 0.3278428,0.0657 0.5147983,0.0906 1.1726248,0.15515 0.2444713,0.024 1.2320102,-0.0123 1.6039679,-0.0591 z m -5.1341973,-4.61582 c 0.3319133,-0.0541 0.739414,-0.17187 1.0697657,-0.30923 0.1428903,-0.0594 0.397342,-0.15758 0.5654484,-0.21815 0.2870201,-0.10346 0.3280006,-0.11014 0.6724249,-0.11003 0.324502,1.2e-4 0.4090518,0.0121 0.7335539,0.10405 0.359428,0.10183 0.3784141,0.10382 0.9475075,0.10311 0.5543366,-6.9e-4 0.5967059,-0.005 0.9322258,-0.0964 0.7603679,-0.20709 1.0317359,-0.17584 2.0214429,0.2328 0.604709,0.24967 1.092502,0.34507 1.768588,0.34589 0.485941,5.8e-4 1.080167,-0.0688 1.553663,-0.18119 l 0.224097,-0.0532 -0.957651,-0.94859 c -1.410123,-1.39677 -2.249071,-2.08783 -2.999442,-2.47072 -0.327717,-0.16722 -0.543989,-0.21524 -0.843201,-0.1872 -0.3154597,0.0297 -0.5557872,0.10909 -0.8286269,0.27404 -0.5754654,0.34802 -1.0755451,0.34796 -1.6504969,-2.3e-4 -0.3233179,-0.19576 -0.5849688,-0.26952 -0.9627894,-0.2714 -0.2771251,-9.4e-4 -0.3264175,0.007 -0.5282087,0.0947 -0.5437008,0.23509 -1.2563935,0.75611 -2.1797328,1.59352 -0.5050714,0.45807 -1.9748084,1.92025 -1.951795,1.94175 0.0076,0.007 0.2133273,0.0492 0.4570813,0.0934 0.7679814,0.13938 1.3687625,0.15874 1.9561453,0.063 z"
       id="path2173"
       inkscape:connector-curvature="0" />
    <path
       style="fill:#ffffff;stroke-width:0.00082514;stroke-miterlimit:4;stroke-dasharray:none"
       d="m 7.578222,292.40011 c -1.6406104,-0.19509 -2.8995176,-0.73652 -3.9685021,-1.70673 -0.6153268,-0.55847 -1.1379607,-1.20788 -1.5309562,-1.9023 -0.1321691,-0.23353 -0.1330733,-0.23629 -0.07371,-0.2239 0.590628,0.12314 1.0872674,0.17425 1.6975002,0.17468 0.8662281,6.2e-4 1.3697961,-0.10487 2.3360213,-0.48939 0.2041283,-0.0812 0.4265647,-0.16 0.4943023,-0.17502 0.1765423,-0.0391 0.4155928,-0.0175 0.7937835,0.0721 0.4910684,0.11623 0.6320433,0.13293 1.1134309,0.13207 0.47112,-8.2e-4 0.6225643,-0.0198 1.135263,-0.14194 0.3356671,-0.08 0.5785931,-0.10018 0.7501211,-0.0622 0.06774,0.0149 0.319645,0.10358 0.559798,0.19685 0.993175,0.38585 1.397121,0.46828 2.292357,0.46773 0.585814,-3.5e-4 0.943947,-0.0355 1.530123,-0.15012 0.153544,-0.03 0.283139,-0.0506 0.287984,-0.0457 0.03827,0.0382 -0.486944,0.86595 -0.786582,1.2396 -0.248652,0.31009 -0.853842,0.92368 -1.129768,1.14548 -0.752117,0.60454 -1.64354,1.04004 -2.626077,1.28291 -0.6348521,0.15692 -1.0554007,0.20478 -1.9258907,0.21916 -0.4925211,0.008 -0.6486256,0.002 -0.9491997,-0.033 z"
       id="path2175"
       inkscape:connector-curvature="0" />
    <path
       style="fill:#ffffff;stroke-width:0.00082514;stroke-miterlimit:4;stroke-dasharray:none"
       d="m 3.1130917,287.7917 c -0.2114138,-0.0223 -0.9619386,-0.1482 -1.0247842,-0.17202 -0.039437,-0.0149 0.023652,-0.0862 0.5117334,-0.57869 1.6016628,-1.61583 2.625971,-2.47769 3.4113074,-2.87029 0.3210737,-0.16052 0.4326201,-0.18519 0.7585991,-0.16778 0.3421255,0.0183 0.4540457,0.0519 0.8841954,0.26619 0.4233816,0.21085 0.5529854,0.25011 0.8255921,0.25011 0.2758416,0 0.4130792,-0.0414 0.8336373,-0.25167 0.4287807,-0.21435 0.5441477,-0.24947 0.8732788,-0.26583 0.306235,-0.0152 0.437884,0.0163 0.785952,0.18791 0.441469,0.21772 0.962047,0.58878 1.560985,1.11266 0.427732,0.3741 0.637303,0.57226 1.558933,1.47397 l 0.82756,0.80969 -0.161686,0.0376 c -1.030091,0.2393 -2.085305,0.2498 -2.84667,0.0282 -0.107881,-0.0314 -0.392786,-0.13408 -0.633128,-0.22822 -0.658588,-0.25795 -0.806758,-0.29499 -1.179273,-0.29472 -0.2900844,2e-4 -0.3251032,0.006 -0.6877079,0.0978 l -0.3820592,0.0976 -0.6003792,1.5e-4 -0.6003791,1.5e-4 -0.3493115,-0.0911 c -0.3927955,-0.10253 -0.6567449,-0.12838 -0.9833737,-0.0962 -0.2000992,0.0197 -0.2764059,0.0448 -1.1335071,0.37318 -0.3131301,0.11996 -0.7451032,0.23012 -1.0662475,0.27192 -0.2769082,0.0361 -0.883724,0.0409 -1.1832671,0.009 z"
       id="path2177"
       inkscape:connector-curvature="0" />
  </g>
</svg>
