<?xml version="1.0" encoding="UTF-8" standalone="no"?>
<!-- Created with Inkscape (http://www.inkscape.org/) -->

<svg
   xmlns:dc="http://purl.org/dc/elements/1.1/"
   xmlns:cc="http://creativecommons.org/ns#"
   xmlns:rdf="http://www.w3.org/1999/02/22-rdf-syntax-ns#"
   xmlns:svg="http://www.w3.org/2000/svg"
   xmlns="http://www.w3.org/2000/svg"
   xmlns:sodipodi="http://sodipodi.sourceforge.net/DTD/sodipodi-0.dtd"
   xmlns:inkscape="http://www.inkscape.org/namespaces/inkscape"
   width="64"
   height="64"
   viewBox="0 0 16.933333 16.933334"
   version="1.1"
   id="svg8"
   inkscape:version="0.92.5 (2060ec1f9f, 2020-04-08)"
   sodipodi:docname="nails_64x64.svg">
  <defs
     id="defs2" />
  <sodipodi:namedview
     id="base"
     pagecolor="#ffffff"
     bordercolor="#666666"
     borderopacity="1.0"
     inkscape:pageopacity="0.0"
     inkscape:pageshadow="2"
     inkscape:zoom="5.6"
     inkscape:cx="47.390522"
     inkscape:cy="29.667227"
     inkscape:document-units="mm"
     inkscape:current-layer="layer1"
     showgrid="false"
     units="px"
     inkscape:window-width="1208"
     inkscape:window-height="987"
     inkscape:window-x="1992"
     inkscape:window-y="0"
     inkscape:window-maximized="1" />
  <metadata
     id="metadata5">
    <rdf:RDF>
      <cc:Work
         rdf:about="">
        <dc:format>image/svg+xml</dc:format>
        <dc:type
           rdf:resource="http://purl.org/dc/dcmitype/StillImage" />
        <dc:title></dc:title>
      </cc:Work>
    </rdf:RDF>
  </metadata>
  <g
     inkscape:label="Layer 1"
     inkscape:groupmode="layer"
     id="layer1"
     transform="translate(0,-280.06665)">
    <path
       style="fill:#000000;stroke-width:0.03097541"
       d="m 2.2456575,296.34993 -0.081615,-0.0643 4.563e-4,-4.62084 c 3.979e-4,-3.98812 0.00675,-4.64768 0.046695,-4.81697 0.102258,-0.43375 0.3130737,-0.79643 0.647745,-1.11434 l 0.2288215,-0.21735 0.010518,-0.49139 c 0.010383,-0.48545 0.011773,-0.49395 0.1143551,-0.70216 0.490811,-0.99624 1.8633726,-1.01199 2.3504687,-0.0269 l 0.1166492,0.23589 0.015485,0.49737 0.015485,0.49733 0.2400594,0.22981 0.2400595,0.2298 4.564e-4,-0.2298 c 0.00111,-0.57227 0.287172,-1.18111 0.7436562,-1.58293 l 0.1851478,-0.16297 v -0.42774 c 0,-0.3504 0.011573,-0.4621 0.064021,-0.61778 0.1156695,-0.34337 0.3632569,-0.62297 0.6961834,-0.78619 0.1714788,-0.0841 0.2098101,-0.0905 0.5414119,-0.0905 0.3394997,0 0.3667517,0.004 0.5599028,0.1 0.2507356,0.12342 0.524106,0.40073 0.6410141,0.65022 0.078439,0.16739 0.084586,0.21161 0.094243,0.67781 l 0.010331,0.49874 0.1825602,0.16069 c 0.327763,0.28852 0.582511,0.71293 0.691158,1.15147 0.04032,0.1628 0.05037,0.37228 0.05037,1.05066 v 0.84734 l 0.240061,-0.2298 0.240058,-0.22981 0.01549,-0.49639 c 0.01525,-0.48869 0.01715,-0.49975 0.121696,-0.71243 0.487543,-0.99173 1.862113,-1.00447 2.348101,-0.0218 l 0.116651,0.23587 0.01055,0.49234 0.01055,0.49234 0.228821,0.21736 c 0.334673,0.31792 0.545488,0.68059 0.647745,1.11435 0.03973,0.16857 0.0463,0.75868 0.04669,4.19746 l 4.57e-4,4.00132 -0.08161,0.0643 -0.08161,0.0643 H 8.4210527 2.3272515 Z m 3.9451868,-1.26551 v -0.86506 l 0.081615,-0.0643 c 0.044889,-0.0353 0.1057337,-0.0642 0.1352121,-0.0642 0.029478,0 0.090324,0.0289 0.135212,0.0642 l 0.081615,0.0643 v 0.86506 0.86507 h 1.7965736 1.796574 v -2.41609 c 0,-2.37478 10e-4,-2.41713 0.06194,-2.47803 0.07964,-0.0797 0.230107,-0.0797 0.309755,0 0.06089,0.0609 0.06194,0.10321 0.06194,2.47803 v 2.41609 h 1.796574 1.796574 v -3.64817 c 0,-2.33989 -0.01155,-3.74028 -0.0322,-3.90503 -0.01772,-0.14128 -0.05998,-0.33112 -0.09395,-0.42188 -0.07092,-0.18954 -0.29084,-0.54316 -0.337802,-0.54316 -0.02089,0 -0.03165,0.33995 -0.03165,1.00061 v 1.00063 l -0.07985,0.16023 c -0.125258,0.25136 -0.377542,0.42806 -0.657937,0.46082 -0.187991,0.0219 -0.315631,-0.0656 -0.314905,-0.2162 7.37e-4,-0.15452 0.06405,-0.21058 0.282275,-0.24992 0.148755,-0.0268 0.262593,-0.13725 0.305418,-0.29628 0.02434,-0.0904 0.03198,-0.61761 0.02535,-1.74582 -0.0092,-1.56446 -0.01157,-1.62086 -0.0743,-1.75576 -0.09341,-0.20094 -0.215167,-0.33209 -0.396128,-0.42666 -0.130213,-0.068 -0.200149,-0.0831 -0.390901,-0.0836 -0.200864,-7e-4 -0.255126,0.0117 -0.400801,0.0922 -0.174863,0.0964 -0.321045,0.26825 -0.403788,0.4746 -0.03772,0.094 -0.04745,0.39335 -0.05575,1.7156 -0.007,1.11327 5.03e-4,1.64092 0.02457,1.73034 0.0436,0.16188 0.16052,0.27193 0.315239,0.29668 0.173563,0.0277 0.272715,0.11618 0.272715,0.24323 0,0.15646 -0.124558,0.24402 -0.31538,0.22172 -0.280396,-0.0328 -0.53268,-0.20948 -0.657937,-0.46083 l -0.07985,-0.16025 v -1.00061 c 0,-0.66067 -0.01078,-1.00062 -0.03165,-1.00062 -0.04697,0 -0.266887,0.35362 -0.337803,0.54317 -0.09742,0.26038 -0.126154,0.61394 -0.126154,1.55235 v 0.87362 l -0.08161,0.0643 c -0.102547,0.0807 -0.167457,0.081 -0.268703,9.3e-4 l -0.07989,-0.0628 -0.0094,-2.42292 -0.0095,-2.42293 -0.08672,-0.2453 c -0.08227,-0.23267 -0.3165763,-0.63749 -0.3689914,-0.63749 -0.01342,0 -0.024544,0.44951 -0.024721,0.99895 -3.047e-4,0.98612 -0.00115,1.00095 -0.073643,1.15384 -0.1357956,0.28675 -0.4205916,0.47812 -0.7134859,0.47944 -0.1917082,8.1e-4 -0.2657295,-0.0593 -0.2657295,-0.21617 0,-0.14343 0.067072,-0.20706 0.2486117,-0.23583 0.2039126,-0.0324 0.3278984,-0.16709 0.3545277,-0.38531 0.011355,-0.0928 0.015415,-0.86567 0.00906,-1.71748 -0.00917,-1.2333 -0.020438,-1.57402 -0.055328,-1.67268 -0.06292,-0.17789 -0.3512636,-0.45661 -0.5259148,-0.50835 -0.4386534,-0.12998 -0.8693207,0.064 -1.0593796,0.47737 -0.070834,0.15402 -0.071281,0.16347 -0.081202,1.70366 -0.00551,0.85181 -6.561e-4,1.62468 0.010781,1.71748 0.026781,0.21823 0.1508169,0.35298 0.3546504,0.38531 0.1791161,0.0284 0.2486128,0.0928 0.2486128,0.23046 0,0.16151 -0.071488,0.22235 -0.2603493,0.22154 -0.2985544,-9.3e-4 -0.5819373,-0.19029 -0.7188673,-0.47944 -0.072393,-0.15289 -0.073346,-0.16772 -0.073644,-1.15384 -1.526e-4,-0.54944 -0.010895,-0.99895 -0.023776,-0.99895 -0.053676,0 -0.2896886,0.40497 -0.370057,0.635 l -0.086581,0.24779 -0.015485,3.99059 c -0.015151,3.90516 -0.016771,3.99152 -0.075618,4.03454 -0.085761,0.0626 -0.2237883,0.0544 -0.2960897,-0.0178 -0.061114,-0.0611 -0.061948,-0.1032 -0.061948,-3.1061 0,-3.13937 -0.00916,-3.41025 -0.1261527,-3.72289 -0.070916,-0.18955 -0.2908399,-0.54318 -0.3378024,-0.54318 -0.0209,0 -0.031654,0.33996 -0.031654,1.00063 v 1.00062 l -0.079847,0.16022 c -0.1252578,0.25138 -0.3775411,0.42809 -0.6579372,0.46084 -0.1879898,0.0219 -0.3156309,-0.0657 -0.3149052,-0.2162 7.497e-4,-0.15453 0.064058,-0.2106 0.2822757,-0.24993 0.1487557,-0.0268 0.2625931,-0.13725 0.3054185,-0.29628 0.024333,-0.0904 0.031987,-0.61761 0.02535,-1.74582 l -0.0095,-1.61637 -0.086762,-0.17668 c -0.1547552,-0.31516 -0.4083962,-0.472 -0.7650587,-0.47308 -0.2007977,-5.9e-4 -0.2551739,0.0119 -0.4008002,0.0922 -0.1748636,0.0964 -0.3210464,0.26826 -0.4037889,0.4746 -0.037717,0.094 -0.047444,0.39335 -0.055746,1.7156 -0.00703,1.11325 5.035e-4,1.64092 0.024582,1.73033 0.043593,0.1619 0.1605194,0.27194 0.3152385,0.29669 0.1735651,0.0278 0.2727158,0.11618 0.2727158,0.24323 0,0.15645 -0.1245571,0.24402 -0.3153791,0.22172 -0.2803961,-0.0328 -0.5326794,-0.20948 -0.6579372,-0.46084 l -0.079847,-0.16024 v -1.00061 c 0,-0.66068 -0.010758,-1.00062 -0.031654,-1.00062 -0.046962,0 -0.2668857,0.35361 -0.3378025,0.54317 -0.033958,0.0909 -0.076228,0.28058 -0.093944,0.42187 -0.0209,0.16664 -0.032209,1.75583 -0.032209,4.52453 v 4.26768 H 4.394281 6.1908547 Z m 5.4038007,0.32441 c -0.04181,-0.0418 -0.07603,-0.11217 -0.07603,-0.15629 0,-0.0441 0.03422,-0.11447 0.07603,-0.15628 l 0.07603,-0.0761 h 0.777202 0.777201 l 0.07603,0.0761 c 0.04181,0.0419 0.07603,0.11217 0.07603,0.15628 0,0.0441 -0.03422,0.11446 -0.07603,0.15629 l -0.07603,0.0761 h -0.7772 -0.777202 z m -0.184444,-0.89025 c -0.08598,-0.0487 -0.107468,-0.0879 -0.107468,-0.1953 0,-0.22521 0.03498,-0.23232 1.145143,-0.23232 1.114786,0 1.144499,0.007 1.145615,0.23782 3.4e-4,0.0697 -0.02327,0.1171 -0.08114,0.16261 -0.07871,0.0619 -0.116342,0.0641 -1.060906,0.0632 -0.671376,-7e-4 -0.99877,-0.012 -1.041244,-0.0361 z m -7.8691618,-0.34877 c -0.041817,-0.0419 -0.076034,-0.11217 -0.076034,-0.15629 0,-0.0441 0.034217,-0.11445 0.076034,-0.15628 l 0.076034,-0.0761 h 0.7772011 0.777201 l 0.076034,0.0761 c 0.041817,0.0419 0.076034,0.11217 0.076034,0.15628 0,0.0441 -0.034217,0.11447 -0.076034,0.15629 l -0.076034,0.0761 H 4.3942743 3.6170732 Z m -0.2112425,-0.91742 c -0.057865,-0.0455 -0.081476,-0.0929 -0.081143,-0.16263 0.00111,-0.23166 0.030831,-0.23782 1.1456152,-0.23782 1.114787,0 1.1445,0.007 1.1456162,0.23782 3.397e-4,0.0697 -0.023269,0.1171 -0.081143,0.16263 -0.078672,0.0619 -0.1170455,0.0642 -1.064474,0.0642 -0.9474285,0 -0.9858,-0.002 -1.0644739,-0.0642 z m 4.2266135,-0.60546 c -0.035532,-0.0452 -0.064595,-0.10205 -0.064595,-0.12643 0,-0.056 0.060592,-0.17256 0.1053105,-0.2024 0.018741,-0.0125 0.3920148,-0.023 0.829487,-0.0233 0.6818984,-3.5e-4 0.8023437,0.007 0.8440333,0.0482 0.083748,0.0837 0.094013,0.19619 0.026207,0.28705 l -0.061567,0.0824 -0.8071334,0.008 -0.8071334,0.008 z M 7.326248,291.74214 c -0.069274,-0.0765 -0.066234,-0.26094 0.0054,-0.32574 0.050339,-0.0455 0.1722575,-0.0512 1.0948265,-0.0512 0.9664341,0 1.0417238,0.003 1.0894451,0.0567 0.069274,0.0765 0.066234,0.26093 -0.0054,0.32575 -0.050339,0.0455 -0.1722564,0.0512 -1.0948265,0.0512 -0.9664329,0 -1.0417226,-0.003 -1.0894427,-0.0567 z m 7.954471,-4.26301 c -0.0626,-0.0626 -0.07603,-0.10667 -0.07603,-0.24922 0,-0.14257 0.01344,-0.18661 0.07603,-0.24921 0.04181,-0.0419 0.112146,-0.0761 0.156284,-0.0761 0.04414,0 0.114463,0.0343 0.156285,0.0761 0.0626,0.0626 0.07603,0.10666 0.07603,0.24921 0,0.14258 -0.01344,0.18662 -0.07603,0.24922 -0.04181,0.0418 -0.112146,0.0761 -0.156285,0.0761 -0.04413,0 -0.114463,-0.0343 -0.156284,-0.0761 z m -0.68146,-0.68148 c -0.04181,-0.0418 -0.07603,-0.11216 -0.07603,-0.15627 0,-0.0441 0.03422,-0.11447 0.07603,-0.15629 0.0626,-0.0626 0.106641,-0.0761 0.249211,-0.0761 0.14257,0 0.18662,0.0135 0.249211,0.0761 0.04181,0.0418 0.07603,0.11217 0.07603,0.15629 0,0.0441 -0.03422,0.11446 -0.07603,0.15627 -0.0626,0.0625 -0.106641,0.0761 -0.249211,0.0761 -0.14257,0 -0.186619,-0.0135 -0.249211,-0.0761 z m 1.177065,0 c -0.04181,-0.0418 -0.07603,-0.11216 -0.07603,-0.15627 0,-0.0441 0.03422,-0.11447 0.07603,-0.15629 0.0626,-0.0626 0.106641,-0.0761 0.249211,-0.0761 0.142571,0 0.186621,0.0135 0.249211,0.0761 0.04181,0.0418 0.07603,0.11217 0.07603,0.15629 0,0.0441 -0.03422,0.11446 -0.07603,0.15627 -0.0626,0.0625 -0.10664,0.0761 -0.249211,0.0761 -0.14257,0 -0.186618,-0.0135 -0.249211,-0.0761 z m -0.495605,-0.4956 c -0.0626,-0.0625 -0.07603,-0.10666 -0.07603,-0.2492 0,-0.14258 0.01344,-0.18662 0.07603,-0.24921 0.04181,-0.0418 0.112146,-0.0761 0.156284,-0.0761 0.04414,0 0.114463,0.0343 0.156285,0.0761 0.0626,0.0626 0.07603,0.10666 0.07603,0.24921 0,0.14256 -0.01344,0.18661 -0.07603,0.2492 -0.04181,0.0418 -0.112146,0.0761 -0.156285,0.0761 -0.04413,0 -0.114463,-0.0343 -0.156284,-0.0761 z M 1.2488582,286.08522 c -0.110053,-0.1101 -0.110053,-0.38836 0,-0.49842 0.041817,-0.0418 0.1121462,-0.0761 0.156286,-0.0761 0.044139,0 0.1144686,0.0343 0.156285,0.0761 0.062595,0.0626 0.076034,0.10667 0.076034,0.24922 0,0.14257 -0.01344,0.18662 -0.076034,0.2492 -0.041817,0.0419 -0.1121449,0.0761 -0.156285,0.0761 -0.044139,0 -0.1144686,-0.0343 -0.156286,-0.0761 z m -0.68145825,-0.68145 c -0.0418171,-0.0419 -0.0760342,-0.11217 -0.0760342,-0.15628 0,-0.0441 0.0342077,-0.11446 0.0760342,-0.15629 0.0625947,-0.0626 0.10664094,-0.0761 0.24921047,-0.0761 0.14257113,0 0.18662108,0.0135 0.24921238,0.0761 0.096901,0.0969 0.096901,0.21568 0,0.31257 -0.062596,0.0626 -0.10664085,0.0761 -0.24921238,0.0761 -0.14256933,0 -0.18661903,-0.0135 -0.24921047,-0.0761 z m 1.17706545,0 c -0.041817,-0.0419 -0.076034,-0.11217 -0.076034,-0.15628 0,-0.0441 0.034217,-0.11446 0.076034,-0.15629 0.062596,-0.0626 0.1066409,-0.0761 0.2492115,-0.0761 0.1425703,0 0.1866191,0.0135 0.2492114,0.0761 0.041817,0.0418 0.076034,0.11217 0.076034,0.15629 0,0.0441 -0.034217,0.11447 -0.076034,0.15628 -0.062596,0.0626 -0.1066409,0.0761 -0.2492114,0.0761 -0.1425702,0 -0.186619,-0.0135 -0.2492115,-0.0761 z m -0.4956072,-0.49561 c -0.110053,-0.10999 -0.110053,-0.38837 0,-0.49842 0.041817,-0.0418 0.1121462,-0.0761 0.156286,-0.0761 0.044139,0 0.1144686,0.0343 0.156285,0.0761 0.062595,0.0625 0.076034,0.10667 0.076034,0.2492 0,0.14258 -0.01344,0.18662 -0.076034,0.24922 -0.041817,0.0418 -0.1121449,0.0761 -0.156285,0.0761 -0.044139,0 -0.1144686,-0.0343 -0.156286,-0.0761 z m 8.7350658,-2.60193 c -0.0626,-0.0626 -0.07603,-0.10667 -0.07603,-0.24922 0,-0.14256 0.01344,-0.18661 0.07603,-0.24921 0.04181,-0.0419 0.112146,-0.0761 0.156285,-0.0761 0.04413,0 0.114463,0.0343 0.156284,0.0761 0.0626,0.0626 0.07603,0.10666 0.07603,0.24921 0,0.14258 -0.01344,0.18663 -0.07603,0.24922 -0.04181,0.0418 -0.112146,0.0761 -0.156284,0.0761 -0.04413,0 -0.114463,-0.0343 -0.156285,-0.0761 z m -0.6814586,-0.68146 c -0.041817,-0.0419 -0.07603,-0.11218 -0.07603,-0.15629 0,-0.0441 0.034213,-0.11447 0.07603,-0.15628 0.062599,-0.0626 0.1066408,-0.0761 0.2492103,-0.0761 0.1425702,0 0.1866194,0.0135 0.249212,0.0761 0.041814,0.0418 0.076031,0.11217 0.076031,0.15628 0,0.0441 -0.034217,0.11446 -0.076031,0.15629 -0.062601,0.0626 -0.1066418,0.0761 -0.249212,0.0761 -0.1425695,0 -0.1866193,-0.0134 -0.2492103,-0.0761 z m 1.1770656,0 c -0.04181,-0.0419 -0.07603,-0.11218 -0.07603,-0.15629 0,-0.0441 0.03422,-0.11447 0.07603,-0.15628 0.0626,-0.0626 0.106641,-0.0761 0.249212,-0.0761 0.142569,0 0.186617,0.0135 0.24921,0.0761 0.04181,0.0418 0.07603,0.11217 0.07603,0.15628 0,0.0441 -0.03422,0.11446 -0.07603,0.15629 -0.0626,0.0626 -0.106641,0.0761 -0.24921,0.0761 -0.142572,0 -0.186621,-0.0134 -0.249212,-0.0761 z m -0.495607,-0.4956 c -0.0626,-0.0626 -0.07603,-0.10667 -0.07603,-0.24921 0,-0.14257 0.01344,-0.18663 0.07603,-0.24921 0.0969,-0.0969 0.215671,-0.0969 0.312569,0 0.0626,0.0626 0.07603,0.10666 0.07603,0.24921 0,0.14257 -0.01344,0.18661 -0.07603,0.24921 -0.04181,0.0418 -0.112146,0.0761 -0.156284,0.0761 -0.04413,0 -0.114463,-0.0343 -0.156285,-0.0761 z"
       id="path13608"
       inkscape:connector-curvature="0" />
    <path
       style="fill:#ffffff;stroke-width:0.00501738;stroke-miterlimit:4;stroke-dasharray:none"
       d="m 2.634732,291.58331 c 0,-3.05708 0.014837,-4.42644 0.049758,-4.591 0.055422,-0.26122 0.2160618,-0.60757 0.3229242,-0.69626 0.063243,-0.0524 0.069823,0.0344 0.069823,0.92275 0,0.87502 0.00907,0.99838 0.083791,1.14487 0.14368,0.28151 0.4110951,0.4518 0.7094996,0.4518 0.1412291,0 0.1932118,-0.023 0.2506655,-0.11067 0.067213,-0.10258 0.067139,-0.11878 -0.00102,-0.22277 -0.040409,-0.0616 -0.1309286,-0.12363 -0.2011521,-0.13767 -0.1542015,-0.0309 -0.3008025,-0.15954 -0.3344547,-0.29362 -0.013597,-0.0542 -0.018817,-0.84514 -0.011598,-1.75774 0.013079,-1.6543 0.013429,-1.65976 0.1172037,-1.82667 0.1668455,-0.26836 0.3774836,-0.38571 0.6923242,-0.38571 0.3572974,0 0.5372209,0.10018 0.7191725,0.4004 l 0.1438142,0.23731 -0.0025,1.59498 c -0.00175,1.11458 -0.01841,1.64118 -0.05531,1.74836 -0.050545,0.14679 -0.1087891,0.19275 -0.406821,0.32111 -0.094874,0.0408 -0.1368207,0.0926 -0.1470119,0.18119 -0.020705,0.18015 0.061002,0.25146 0.2880911,0.25146 0.221207,0 0.3332413,-0.0467 0.5155677,-0.2156 0.2583087,-0.23907 0.2707342,-0.29714 0.2947413,-1.37743 l 0.022121,-0.99564 0.1261537,0.21064 c 0.2723335,0.45469 0.2632085,0.33323 0.2909437,3.87313 0.022065,2.81578 0.034153,3.24853 0.091787,3.28494 0.095721,0.0604 0.2468281,0.0527 0.3034785,-0.0155 0.034237,-0.0413 0.058976,-1.26681 0.082856,-4.10424 l 0.034041,-4.04543 0.1712116,-0.34295 c 0.094162,-0.18861 0.1877111,-0.34293 0.2078774,-0.34293 0.020163,0 0.042688,0.45453 0.05004,1.01007 l 0.013373,1.01008 0.1217391,0.18382 c 0.1494693,0.22567 0.4039611,0.36256 0.6741029,0.36256 0.1747349,0 0.2076607,-0.0149 0.2440468,-0.11068 0.071121,-0.18704 -0.00998,-0.31274 -0.2390313,-0.3704 -0.3455737,-0.087 -0.341134,-0.0596 -0.3266667,-2.01608 l 0.01257,-1.6992 0.1327517,-0.18786 c 0.3154567,-0.44643 0.9032857,-0.49291 1.2667973,-0.10018 0.2277571,0.24608 0.227022,0.24017 0.247389,1.98197 0.017812,1.52329 0.013453,1.65038 -0.061624,1.79371 -0.055569,0.10609 -0.1360652,0.17517 -0.2578225,0.22125 -0.2565289,0.0971 -0.2876024,0.12518 -0.2876024,0.25989 0,0.16988 0.075835,0.2275 0.2993881,0.2275 0.2178386,0 0.3303781,-0.0474 0.5121356,-0.2156 0.248245,-0.22977 0.2632143,-0.30059 0.291091,-1.37742 l 0.025785,-0.99565 0.1022966,0.16453 c 0.056267,0.0905 0.1508476,0.2884 0.2101906,0.43984 l 0.107891,0.2753 v 2.4179 2.41794 l 0.114109,0.0611 c 0.09804,0.0524 0.130743,0.0518 0.232314,-0.005 l 0.11821,-0.0663 0.02274,-1.12679 c 0.02266,-1.12308 0.02314,-1.12769 0.148806,-1.40101 0.06934,-0.15083 0.16365,-0.30823 0.209579,-0.34981 0.0816,-0.0739 0.0835,-0.0532 0.0835,0.90656 0,0.87645 0.009,0.99981 0.0838,1.14632 0.14368,0.28152 0.411094,0.4518 0.7095,0.4518 0.141229,0 0.193212,-0.023 0.250665,-0.11057 0.06721,-0.10257 0.06714,-0.11877 -10e-4,-0.22276 -0.0404,-0.0616 -0.130929,-0.12362 -0.201153,-0.13766 -0.154202,-0.0309 -0.300803,-0.15955 -0.334456,-0.29363 -0.01359,-0.0542 -0.01882,-0.84515 -0.01159,-1.75775 0.01307,-1.6543 0.01343,-1.65974 0.117202,-1.82666 0.165911,-0.26686 0.377835,-0.38573 0.687745,-0.38573 0.336245,0 0.581466,0.13531 0.733899,0.40499 l 0.108763,0.1924 0.01629,1.59302 c 0.02012,1.96766 0.03463,1.90046 -0.456015,2.11177 -0.09488,0.0408 -0.136821,0.0926 -0.147012,0.1812 -0.02069,0.17995 0.06103,0.25143 0.287379,0.25143 0.226304,0 0.386879,-0.0729 0.551173,-0.25048 0.228696,-0.24709 0.236388,-0.28684 0.259848,-1.34252 l 0.02212,-0.99565 0.126151,0.21064 c 0.279169,0.46612 0.266348,0.26531 0.283916,4.44674 l 0.01603,3.8166 h -1.768512 -1.768486 l -0.01547,-2.40486 c -0.01258,-1.95609 -0.02679,-2.41853 -0.07619,-2.47803 -0.08461,-0.10196 -0.300911,-0.0944 -0.358093,0.0124 -0.02996,0.0559 -0.04581,0.91348 -0.04581,2.47804 v 2.39243 H 8.4324393 6.6633516 l -0.011996,-0.87229 -0.011996,-0.87229 -0.1182103,-0.0663 c -0.1015817,-0.057 -0.1342606,-0.0578 -0.2323153,-0.005 l -0.1141063,0.0611 v 0.87753 0.87752 H 4.4047043 2.6346811 Z m 10.671969,3.84076 c 0.103956,-0.094 0.103455,-0.24666 -0.0011,-0.3413 -0.07164,-0.0648 -0.185147,-0.0727 -0.894422,-0.0622 l -0.81237,0.0122 -0.0654,0.1166 c -0.05866,0.1046 -0.05757,0.12853 0.01044,0.2323 l 0.07582,0.11574 h 0.803069 c 0.685166,0 0.81495,-0.0104 0.883992,-0.0731 z m 0.221252,-0.92927 c 0.124105,-0.11228 0.106032,-0.31765 -0.03258,-0.37035 -0.06242,-0.0238 -0.550292,-0.0431 -1.084139,-0.0431 -0.911632,0 -0.976013,0.005 -1.059134,0.0884 -0.04867,0.0487 -0.0885,0.11836 -0.0885,0.15487 0,0.0365 0.03982,0.10621 0.0885,0.15488 0.0833,0.0833 0.147502,0.0885 1.091718,0.0885 0.871406,0 1.013849,-0.009 1.084139,-0.0731 z m -8.2748588,-0.30974 c 0.1039599,-0.094 0.1034548,-0.24667 -0.00111,-0.34131 -0.071638,-0.0649 -0.1851456,-0.0727 -0.894423,-0.0622 l -0.8123692,0.0122 -0.0654,0.11659 c -0.058652,0.1046 -0.057579,0.12852 0.010425,0.23231 l 0.07583,0.11573 h 0.803072 c 0.6851659,0 0.8149497,-0.0104 0.8839912,-0.0731 z m 0.2212534,-0.92927 c 0.1241045,-0.11228 0.1060387,-0.31765 -0.03258,-0.37036 -0.062429,-0.0238 -0.5502917,-0.0431 -1.08414,-0.0431 -0.9116311,0 -0.9760115,0.005 -1.0591326,0.0884 -0.048674,0.0487 -0.088501,0.11836 -0.088501,0.15487 0,0.0366 0.039827,0.1062 0.088501,0.15488 0.0833,0.0833 0.1475015,0.0884 1.0917175,0.0884 0.8714057,0 1.0138491,-0.009 1.0841393,-0.0732 z m 3.8167942,-0.58687 c 0.1027641,-0.11354 0.073002,-0.27624 -0.063081,-0.34483 -0.1329652,-0.067 -1.4398027,-0.0795 -1.608538,-0.0153 -0.1350238,0.0513 -0.1647911,0.16304 -0.086156,0.32332 l 0.059697,0.1217 h 0.8106419 c 0.7428219,0 0.8170646,-0.007 0.8874306,-0.0848 z m 0.2476746,-0.93291 c 0.053664,-0.0849 0.05363,-0.22486 -8.95e-5,-0.30976 -0.035417,-0.0559 -0.2087204,-0.0664 -1.1091744,-0.0664 -1.0053389,0 -1.0708305,0.004 -1.1299797,0.0859 -0.085652,0.11717 -0.078965,0.18555 0.028627,0.29315 0.088049,0.088 0.1296883,0.0909 1.130061,0.0774 0.864483,-0.0117 1.0456705,-0.0251 1.0805461,-0.0802 z"
       id="path13610"
       inkscape:connector-curvature="0" />
    <path
       style="fill:#ffffff;stroke-width:0.00501738;stroke-miterlimit:4;stroke-dasharray:none"
       d="m 2.634732,291.58331 c 0,-3.05708 0.014837,-4.42644 0.049758,-4.591 0.055422,-0.26122 0.2160618,-0.60757 0.3229242,-0.69626 0.063252,-0.0524 0.069823,0.0356 0.069823,0.93445 v 0.99239 l 0.1304686,0.20572 c 0.2300589,0.36277 0.7531478,0.52096 0.9134895,0.27623 0.067214,-0.10258 0.067139,-0.11877 -0.00102,-0.22276 -0.040409,-0.0616 -0.1309286,-0.12363 -0.2011522,-0.13767 -0.1542015,-0.0309 -0.3008025,-0.15955 -0.3344547,-0.29362 -0.013597,-0.0542 -0.018817,-0.84664 -0.011598,-1.76106 l 0.013115,-1.66258 0.1234604,-0.18646 c 0.176276,-0.26626 0.3511573,-0.35967 0.6737409,-0.35988 0.3564117,-2e-4 0.5364899,0.10018 0.7183812,0.40026 l 0.1438142,0.23731 -0.0025,1.59498 c -0.00175,1.11458 -0.018409,1.64118 -0.05531,1.74836 -0.050545,0.14678 -0.1087891,0.19274 -0.4068209,0.3211 -0.094874,0.0408 -0.1368208,0.0926 -0.147012,0.18121 -0.019798,0.1722 0.062196,0.25144 0.2601764,0.25144 0.2197271,0 0.3880989,-0.0659 0.5434824,-0.213 0.2574295,-0.24357 0.2696606,-0.30087 0.2942147,-1.37835 0.021232,-0.93177 0.027081,-0.98715 0.093529,-0.88501 0.1214074,0.18662 0.2290305,0.41233 0.2735145,0.57358 0.024407,0.0886 0.054598,1.54528 0.070415,3.39787 0.029988,3.51102 0.015457,3.32589 0.2611066,3.32755 0.066196,4.4e-4 0.1146338,-0.0361 0.1414799,-0.10665 0.022833,-0.0601 0.056467,-1.87025 0.076339,-4.10843 l 0.03552,-4.00105 0.1720029,-0.33876 c 0.094599,-0.18632 0.1891873,-0.33877 0.2101909,-0.33877 0.021,0 0.038193,0.43179 0.038193,0.95955 0,0.89059 0.00688,0.97362 0.094873,1.15553 0.122059,0.25213 0.4218808,0.45175 0.6771078,0.45078 0.2026086,-7.7e-4 0.260878,-0.0292 0.3053225,-0.14937 0.047448,-0.12824 -0.0815,-0.28305 -0.2803838,-0.3366 -0.3100752,-0.0835 -0.3101681,-0.0841 -0.3101681,-1.95309 0,-1.58392 0.00356,-1.65505 0.093027,-1.83979 0.2415317,-0.49895 0.850041,-0.62932 1.2594535,-0.26985 0.3010479,0.26433 0.296826,0.23704 0.3171586,2.04922 0.017054,1.51943 0.01257,1.64837 -0.062323,1.79152 -0.055523,0.10609 -0.1358886,0.17513 -0.2577113,0.22126 -0.2565288,0.0971 -0.2876025,0.12517 -0.2876025,0.25989 0,0.1646 0.075031,0.22748 0.2714732,0.22748 0.2164004,0 0.3853513,-0.0667 0.5400507,-0.213 0.2463834,-0.23312 0.260375,-0.3005 0.2849969,-1.3728 0.022352,-0.97332 0.024335,-0.99025 0.1039558,-0.88694 0.044652,0.0579 0.1412762,0.24833 0.2147342,0.42308 l 0.133561,0.31774 v 2.42938 2.42938 l 0.114108,0.0611 c 0.09804,0.0525 0.130744,0.0518 0.232315,-0.005 l 0.118209,-0.0663 0.02275,-1.12679 c 0.02265,-1.12307 0.02315,-1.12768 0.148807,-1.401 0.06934,-0.15084 0.16365,-0.30826 0.20958,-0.34982 0.0816,-0.0739 0.08351,-0.053 0.08351,0.91827 v 0.99384 l 0.130468,0.20572 c 0.23006,0.36277 0.753148,0.52095 0.91349,0.27623 0.06721,-0.10258 0.06714,-0.11879 -10e-4,-0.22276 -0.0404,-0.0616 -0.130927,-0.12363 -0.201151,-0.13767 -0.154203,-0.0309 -0.300804,-0.15955 -0.334456,-0.29363 -0.01361,-0.0542 -0.01882,-0.84664 -0.01159,-1.76106 l 0.01312,-1.66257 0.12346,-0.18647 c 0.176276,-0.26625 0.351157,-0.35967 0.67374,-0.35986 0.344082,-2.2e-4 0.535958,0.10206 0.70732,0.37714 l 0.132752,0.21308 0.01457,1.59652 c 0.01799,1.97193 0.03258,1.90437 -0.457072,2.11526 -0.09488,0.0408 -0.136821,0.0926 -0.147012,0.18121 -0.0198,0.1722 0.06219,0.25142 0.260176,0.25142 0.219728,0 0.388099,-0.066 0.543483,-0.21299 0.257492,-0.24363 0.269659,-0.3007 0.294215,-1.38001 l 0.02266,-0.99564 0.126154,0.21063 c 0.279167,0.46612 0.266346,0.26531 0.283914,4.44674 l 0.01604,3.81661 h -1.76741 -1.767392 l -0.01841,-2.40709 c -0.01958,-2.55993 -0.01867,-2.54983 -0.230305,-2.54829 -0.236207,0.002 -0.225945,-0.10644 -0.239055,2.51997 l -0.01216,2.43541 H 8.4313348 6.6633425 l -0.011996,-0.8723 -0.011997,-0.87229 -0.1182095,-0.0663 c -0.1015817,-0.057 -0.1342607,-0.0578 -0.2323155,-0.005 l -0.1141062,0.0611 v 0.87753 0.87753 H 4.4046923 2.634669 Z m 10.671969,3.84076 c 0.100627,-0.0911 0.103758,-0.22644 0.0077,-0.3326 -0.06585,-0.0727 -0.154603,-0.0809 -0.879592,-0.0809 -0.872844,0 -0.91676,0.0117 -0.91676,0.24337 0,0.23144 0.04457,0.24338 0.909071,0.24338 0.681072,0 0.810585,-0.0104 0.879593,-0.0731 z m 0.203827,-0.92491 c 0.102641,-0.0719 0.126729,-0.21588 0.0551,-0.32936 -0.03463,-0.055 -0.205205,-0.0688 -0.983898,-0.0801 -1.042589,-0.0152 -1.207713,7.7e-4 -1.273352,0.12341 -0.05785,0.10805 0.01101,0.29611 0.118644,0.32401 0.04397,0.0115 0.508624,0.0231 1.032556,0.0258 0.796406,0.004 0.96873,-0.007 1.05095,-0.0638 z m -8.2574338,-0.3141 c 0.1006352,-0.0911 0.1037658,-0.22644 0.00768,-0.3326 -0.065844,-0.0727 -0.1546033,-0.0809 -0.879593,-0.0809 -0.8728429,0 -0.9167594,0.0117 -0.9167594,0.24338 0,0.23147 0.044565,0.24339 0.9090709,0.24339 0.681073,0 0.8105856,-0.0104 0.8795929,-0.0731 z m 0.2038289,-0.92491 c 0.1026701,-0.0719 0.126735,-0.21595 0.055034,-0.32938 -0.035403,-0.0559 -0.2086852,-0.0664 -1.1091541,-0.0664 -1.0065417,0 -1.0707769,0.004 -1.1302121,0.0861 -0.071102,0.0973 -0.044066,0.24057 0.060948,0.32312 0.05147,0.0405 0.3328609,0.0554 1.0477001,0.0554 0.8129458,0 0.9938765,-0.0116 1.0756815,-0.0688 z m 3.7449032,-0.54907 c 0.1452968,-0.0553 0.1984911,-0.2465 0.096858,-0.34824 -0.06104,-0.0612 -0.1926258,-0.0763 -0.7706567,-0.0885 -0.8248958,-0.0174 -0.9976041,0.0131 -1.0173976,0.18109 -0.00757,0.0644 0.00802,0.15776 0.034751,0.20764 0.04598,0.0859 0.087808,0.0907 0.7963581,0.0907 0.4113015,0 0.7983433,-0.0193 0.8600925,-0.0427 z m 0.3369798,-0.97507 c 0.053641,-0.0849 0.053641,-0.2248 -1.03e-5,-0.30976 -0.034305,-0.0544 -0.1961985,-0.0692 -0.8910951,-0.0818 -1.0477234,-0.0189 -1.3144736,0.008 -1.3627832,0.13888 -0.048985,0.1324 -0.00791,0.25303 0.1018123,0.29957 0.051382,0.0218 0.5472005,0.0351 1.1017998,0.0295 0.8405054,-0.008 1.015339,-0.0212 1.0502731,-0.0765 z"
       id="path13612"
       inkscape:connector-curvature="0" />
    <path
       style="fill:#ffffff;stroke-width:0.00501738;stroke-miterlimit:4;stroke-dasharray:none"
       d="m 2.6445863,291.43731 0.012273,-4.50249 0.1266822,-0.27423 c 0.069676,-0.15082 0.1642605,-0.30824 0.21019,-0.3498 0.081606,-0.0739 0.083513,-0.053 0.083513,0.91826 v 0.99384 l 0.1277327,0.20141 c 0.2301949,0.36299 0.7900031,0.52205 0.919337,0.26123 0.067316,-0.13577 0.010227,-0.25471 -0.1537258,-0.32026 -0.2619055,-0.10472 -0.3142046,-0.14161 -0.3609663,-0.2545 -0.03333,-0.0804 -0.044733,-0.64909 -0.036106,-1.8006 l 0.012606,-1.68298 0.1234604,-0.18649 c 0.1762714,-0.26627 0.3511507,-0.35968 0.6737409,-0.35989 0.3564117,-2e-4 0.5364898,0.10018 0.7183813,0.40026 l 0.143814,0.23731 -0.0025,1.59498 c -0.00175,1.1137 -0.018437,1.64171 -0.055312,1.74985 -0.04016,0.11776 -0.1005403,0.17762 -0.2519435,0.24975 -0.2482489,0.11829 -0.3097546,0.17386 -0.3097546,0.27984 0,0.26404 0.4451924,0.29902 0.7429398,0.0583 0.3191907,-0.25798 0.3316116,-0.3071 0.3600112,-1.42395 l 0.025434,-1.00041 0.128251,0.21421 c 0.2734099,0.45668 0.2609668,0.29218 0.2887546,3.81688 0.027646,3.50638 0.019335,3.40065 0.2648903,3.37206 0.097957,-0.0115 0.1189122,-0.0416 0.1472184,-0.21242 0.01815,-0.10954 0.048109,-1.95254 0.066576,-4.09561 l 0.03357,-3.89648 0.1683569,-0.34051 c 0.092591,-0.18728 0.1871824,-0.34052 0.2101908,-0.34052 0.024922,0 0.041932,0.37112 0.042081,0.91819 1.239e-4,0.50502 0.019796,0.98859 0.043709,1.07463 0.049307,0.17748 0.3149337,0.4568 0.5010013,0.52683 0.1662213,0.0626 0.3982943,0.0594 0.4639625,-0.007 0.06955,-0.0696 0.068173,-0.27811 -0.00218,-0.33398 -0.030428,-0.0242 -0.130333,-0.0681 -0.2220225,-0.0976 -0.2970004,-0.0957 -0.298043,-0.10258 -0.296951,-1.95797 0.00112,-1.84545 0.00837,-1.89531 0.3150288,-2.12728 0.3354142,-0.25382 0.7329745,-0.24593 1.0364847,0.0206 0.3025101,0.26561 0.2983124,0.23903 0.3201338,2.02709 0.023305,1.90985 0.028466,1.88079 -0.3647422,2.05467 -0.2177055,0.0963 -0.2458625,0.12361 -0.2458625,0.23852 0,0.18676 0.093314,0.24414 0.3559751,0.2189 0.1587961,-0.0152 0.2699192,-0.059 0.386965,-0.15225 0.2961766,-0.23605 0.3193606,-0.33085 0.3501288,-1.43167 0.026871,-0.96142 0.029177,-0.98012 0.1080172,-0.87781 0.044308,0.0575 0.1406654,0.2475 0.2141224,0.42226 l 0.133561,0.31774 v 2.43148 2.43151 l 0.132491,0.0548 c 0.110977,0.046 0.149856,0.0435 0.239454,-0.0151 l 0.106962,-0.0701 0.01528,-1.11888 0.01528,-1.1189 0.126383,-0.27421 c 0.0695,-0.15083 0.163961,-0.30824 0.209891,-0.3498 0.0816,-0.0739 0.0835,-0.053 0.0835,0.91826 v 0.99383 l 0.127734,0.20141 c 0.230193,0.36299 0.790003,0.52204 0.919336,0.26122 0.06733,-0.13576 0.01023,-0.25469 -0.153726,-0.32027 -0.261906,-0.10471 -0.314206,-0.14159 -0.360965,-0.25449 -0.03333,-0.0804 -0.04474,-0.64907 -0.03611,-1.80059 l 0.01261,-1.68299 0.123461,-0.18649 c 0.176271,-0.26626 0.35115,-0.35966 0.67374,-0.35987 0.344035,-2.1e-4 0.535949,0.10206 0.70732,0.37709 l 0.132751,0.213 0.01398,1.5966 c 0.01632,1.86342 0.01148,1.89629 -0.301611,2.04545 -0.24825,0.11828 -0.309754,0.17384 -0.309754,0.27984 0,0.26404 0.445192,0.29901 0.742938,0.0583 0.32138,-0.25975 0.333479,-0.30815 0.355422,-1.42187 0.02155,-1.09346 0.01647,-1.08134 0.256905,-0.61264 0.170779,0.33292 0.190392,0.80268 0.192015,4.5994 l 0.0015,3.48474 h -1.76367 -1.763672 l -0.02215,-2.38064 c -0.01586,-1.70411 -0.03697,-2.40831 -0.07429,-2.47803 -0.03093,-0.0578 -0.09425,-0.0974 -0.155777,-0.0974 -0.226987,0 -0.224096,-0.0309 -0.238928,2.55117 l -0.01382,2.4049 H 8.4288117 6.6615385 v -0.86186 -0.86187 l -0.1108868,-0.0727 c -0.093477,-0.0613 -0.1316904,-0.064 -0.2433786,-0.0177 l -0.1324901,0.0548 v 0.87964 0.87964 H 4.4035122 2.6322811 Z m 10.6545357,3.97151 c 0.04867,-0.0486 0.0885,-0.11839 0.0885,-0.15488 0,-0.0365 -0.03982,-0.10621 -0.0885,-0.15488 -0.08169,-0.0817 -0.147502,-0.0885 -0.854429,-0.0885 -0.780794,0 -0.898474,0.0227 -0.917777,0.177 -0.01469,0.11752 7.3e-4,0.16923 0.07172,0.24022 0.0579,0.0578 0.198649,0.0695 0.840761,0.0695 0.712223,0 0.777995,-0.007 0.859726,-0.0886 z m 0.177002,-0.89777 c 0.06648,-0.0335 0.115934,-0.10091 0.123926,-0.16907 0.02545,-0.21702 -0.05846,-0.23732 -1.046104,-0.25299 -0.49984,-0.008 -0.975785,-0.002 -1.057656,0.0136 -0.232977,0.0437 -0.290696,0.33818 -0.08275,0.4222 0.155536,0.0628 1.934011,0.051 2.062587,-0.0137 z M 5.2455158,294.1698 c 0.048675,-0.0486 0.088501,-0.11838 0.088501,-0.15489 0,-0.0364 -0.039827,-0.1062 -0.088501,-0.15488 -0.081681,-0.0818 -0.1475016,-0.0884 -0.8544282,-0.0884 -0.7807949,0 -0.8984751,0.0227 -0.9177775,0.17701 -0.014698,0.11753 7.339e-4,0.16922 0.07172,0.24021 0.057894,0.0578 0.1986484,0.0695 0.8407614,0.0695 0.7122236,0 0.7779952,-0.007 0.8597251,-0.0884 z m 0.1770025,-0.89776 c 0.066491,-0.0335 0.115933,-0.10091 0.123926,-0.16908 0.02549,-0.21731 -0.057911,-0.23733 -1.0527018,-0.25275 -0.5034671,-0.007 -0.9813362,0.002 -1.0619305,0.0237 -0.2067906,0.0535 -0.2556515,0.20398 -0.1127105,0.34692 0.1079324,0.10793 0.109732,0.10816 1.0504538,0.10747 0.6679747,-4.5e-4 0.9745452,-0.0169 1.0529627,-0.0564 z m 3.8755613,-0.62628 c 0.078908,-0.10805 0.078908,-0.16271 -4.02e-5,-0.27073 -0.058103,-0.0795 -0.1218629,-0.0859 -0.8559728,-0.0859 -0.6071926,0 -0.8103757,0.0142 -0.8664809,0.0606 -0.084368,0.0698 -0.09422,0.19363 -0.025623,0.32178 0.045579,0.0851 0.083496,0.0884 0.866521,0.0745 0.750113,-0.0134 0.8241263,-0.0218 0.8815986,-0.10049 z m 0.2110292,-0.90428 c 0.093038,-0.0772 0.093921,-0.24274 0.00172,-0.31928 -0.085905,-0.0713 -1.5797857,-0.11228 -1.9642664,-0.0539 l -0.2433793,0.0369 v 0.17441 c 0,0.14768 0.016951,0.17948 0.1106207,0.20757 0.060845,0.0183 0.5407639,0.029 1.0664871,0.024 0.7329745,-0.007 0.9728764,-0.0233 1.0288268,-0.0697 z"
       id="path13614"
       inkscape:connector-curvature="0" />
  </g>
</svg>
