<?xml version="1.0" encoding="UTF-8" standalone="no"?>
<!-- Created with Inkscape (http://www.inkscape.org/) -->

<svg
   xmlns:dc="http://purl.org/dc/elements/1.1/"
   xmlns:cc="http://creativecommons.org/ns#"
   xmlns:rdf="http://www.w3.org/1999/02/22-rdf-syntax-ns#"
   xmlns:svg="http://www.w3.org/2000/svg"
   xmlns="http://www.w3.org/2000/svg"
   xmlns:sodipodi="http://sodipodi.sourceforge.net/DTD/sodipodi-0.dtd"
   xmlns:inkscape="http://www.inkscape.org/namespaces/inkscape"
   width="64"
   height="64"
   viewBox="0 0 16.933333 16.933333"
   version="1.1"
   id="svg8"
   inkscape:version="0.92.5 (2060ec1f9f, 2020-04-08)"
   sodipodi:docname="nap_64x64.svg">
  <defs
     id="defs2" />
  <sodipodi:namedview
     id="base"
     pagecolor="#ffffff"
     bordercolor="#666666"
     borderopacity="1.0"
     inkscape:pageopacity="0.0"
     inkscape:pageshadow="2"
     inkscape:zoom="7.9195959"
     inkscape:cx="38.399086"
     inkscape:cy="28.666794"
     inkscape:document-units="mm"
     inkscape:current-layer="layer1"
     showgrid="false"
     units="px"
     inkscape:window-width="1208"
     inkscape:window-height="987"
     inkscape:window-x="1992"
     inkscape:window-y="0"
     inkscape:window-maximized="1"
     showguides="false" />
  <metadata
     id="metadata5">
    <rdf:RDF>
      <cc:Work
         rdf:about="">
        <dc:format>image/svg+xml</dc:format>
        <dc:type
           rdf:resource="http://purl.org/dc/dcmitype/StillImage" />
        <dc:title></dc:title>
      </cc:Work>
    </rdf:RDF>
  </metadata>
  <g
     inkscape:label="Layer 1"
     inkscape:groupmode="layer"
     id="layer1"
     transform="translate(0,-280.06667)">
    <path
       style="fill:#000000;stroke-width:0.07290428"
       d="m 10.966968,296.1122 c -0.948945,-0.22971 -2.0213179,-1.01134 -2.4938884,-1.81771 -0.3126227,-0.53346 -0.540875,-1.23684 -0.5900189,-1.81822 l -0.044653,-0.52828 -1.1061422,-0.085 c -1.2449637,-0.0957 -2.079305,-0.21807 -3.3644137,-0.49357 l -0.8813576,-0.18895 -0.1877016,0.1877 c -0.338414,0.33842 -0.7864494,0.34311 -1.1178416,0.0117 -0.25103311,-0.25103 -0.24834529,-0.77302 0.00526,-1.02664 l 0.1812696,-0.18128 -0.1789423,-0.61748 c -0.33210499,-1.14603 -0.42801083,-1.82343 -0.42801083,-3.02309 0,-1.19965 0.0959079,-1.87704 0.42801183,-3.02307 l 0.1789413,-0.6175 -0.1812686,-0.18126 c -0.25363257,-0.25363 -0.25632039,-0.77562 -0.00526,-1.02665 0.3290103,-0.32901 0.7794003,-0.32672 1.1117711,0.005 l 0.1816312,0.18163 0.7416205,-0.18202 c 3.156862,-0.77482 6.8473622,-0.7642 9.9526012,0.0286 l 0.586891,0.14984 0.179858,-0.17985 c 0.330607,-0.33061 0.781693,-0.33219 1.109998,-0.004 0.251083,0.25108 0.248346,0.77301 -0.0054,1.02674 l -0.181365,0.18137 0.21114,0.75193 c 0.504652,1.79724 0.539412,3.5378 0.107404,5.37829 l -0.113837,0.48499 0.256499,0.37287 c 0.879999,1.2793 0.914545,3.00559 0.08836,4.41536 -0.481799,0.82213 -1.547715,1.59021 -2.527291,1.82112 -0.57349,0.13518 -1.347093,0.1338 -1.913879,-0.003 z m 1.814948,-0.50652 c 0.673509,-0.17308 1.195,-0.46797 1.67318,-0.94616 1.401519,-1.40151 1.401834,-3.62545 7.3e-4,-5.02903 -1.401052,-1.40348 -3.626163,-1.40346 -5.0296849,6e-5 -1.403523,1.40353 -1.4035461,3.62864 -5.25e-5,5.02969 0.8916694,0.89011 2.1698704,1.25023 3.3558474,0.94544 z m -1.641488,-0.51554 c -2.2444137,-0.60312 -3.0015146,-3.45327 -1.3547519,-5.10003 1.7543399,-1.75434 4.7429089,-0.78518 5.1642699,1.67472 0.369827,2.15902 -1.676105,3.99862 -3.809518,3.42531 z m 0.582184,-0.65463 c 0.02938,-0.1681 0.07523,-0.2127 0.218712,-0.2127 0.138539,0 0.187325,0.0432 0.205944,0.18226 0.03579,0.26734 0.09459,0.29715 0.415222,0.21049 0.375325,-0.10143 0.430456,-0.16089 0.327569,-0.35313 -0.174116,-0.32534 0.245964,-0.51239 0.457356,-0.20366 l 0.112315,0.16404 0.279325,-0.27933 0.279325,-0.27932 -0.164034,-0.11231 c -0.308738,-0.2114 -0.121683,-0.63147 0.203654,-0.45736 0.192248,0.10291 0.25168,0.0477 0.353129,-0.32757 0.08666,-0.32063 0.05685,-0.37943 -0.210488,-0.41522 -0.139302,-0.0186 -0.182261,-0.0674 -0.182261,-0.20666 0,-0.1393 0.04296,-0.18801 0.182261,-0.20666 0.267338,-0.0358 0.29715,-0.0946 0.210488,-0.41522 -0.101448,-0.37532 -0.160881,-0.43046 -0.353129,-0.32757 -0.325337,0.17411 -0.512392,-0.24596 -0.203654,-0.45736 l 0.164034,-0.11232 -0.279325,-0.27932 -0.279325,-0.27933 -0.112315,0.16405 c -0.131149,0.19154 -0.32827,0.21225 -0.463964,0.0488 -0.07774,-0.0937 -0.0783,-0.14309 -0.0029,-0.26376 0.112784,-0.1806 0.05717,-0.24037 -0.31802,-0.34178 -0.320624,-0.0866 -0.379434,-0.0569 -0.415222,0.21048 -0.01865,0.13931 -0.06736,0.18226 -0.20666,0.18226 -0.139302,0 -0.188012,-0.043 -0.20666,-0.18226 -0.03579,-0.26733 -0.09459,-0.29714 -0.415222,-0.21048 -0.375324,0.10144 -0.430457,0.16088 -0.327569,0.35313 0.174115,0.32534 -0.245963,0.51238 -0.457356,0.20366 l -0.112315,-0.16405 -0.279325,0.27933 -0.2793257,0.27932 0.1640347,0.11232 c 0.308738,0.2114 0.121683,0.63148 -0.2036529,0.45736 -0.1922489,-0.10291 -0.2516815,-0.0477 -0.3531302,0.32757 -0.086658,0.32062 -0.056847,0.37943 0.2104877,0.41522 0.1393019,0.0186 0.1822607,0.0674 0.1822607,0.20666 0,0.1393 -0.042961,0.18801 -0.1822607,0.20666 -0.2673376,0.0357 -0.2971496,0.0946 -0.2104877,0.41522 0.1014476,0.37533 0.1608813,0.43046 0.3531302,0.32757 0.3253359,-0.17411 0.5123909,0.24596 0.2036529,0.45736 l -0.1640347,0.11231 0.2793257,0.27932 0.279325,0.27933 0.112315,-0.16403 c 0.131149,-0.19155 0.32827,-0.21227 0.463965,-0.0488 0.07774,0.0937 0.0783,0.1431 0.0029,0.26376 -0.110571,0.17705 -0.05601,0.24192 0.283763,0.33737 0.340944,0.0958 0.394463,0.0743 0.438142,-0.17564 z m -0.344788,-2.31254 c -0.543717,-0.33306 -0.651142,-0.45259 -0.533817,-0.59396 0.11715,-0.14115 0.359885,-0.14175 0.545528,-0.001 0.276795,0.20936 0.32529,0.14039 0.347639,-0.49443 0.02068,-0.5873 0.02546,-0.60145 0.203434,-0.60145 h 0.182261 v 0.94776 0.94775 l -0.182261,0.0144 c -0.100239,0.008 -0.353496,-0.0905 -0.562784,-0.21872 z m -3.3363007,-1.12618 c 0.3773469,-1.30734 1.3552852,-2.29521 2.7326167,-2.76038 0.289826,-0.0979 0.613164,-0.13543 1.166468,-0.13546 0.920797,-5e-5 1.510721,0.17337 2.229638,0.65545 0.257067,0.17238 0.483147,0.28794 0.5024,0.25678 0.130507,-0.21116 0.282918,-1.55144 0.282217,-2.48177 -9.09e-4,-1.19809 -0.129105,-2.04143 -0.467959,-3.07837 -0.242362,-0.74166 -0.24902,-0.95391 -0.03109,-0.99145 0.217585,-0.0375 0.337504,-0.22349 0.249774,-0.38741 -0.120837,-0.22579 -0.35348,-0.16707 -0.473186,0.11942 -0.05863,0.14034 -0.136995,0.25517 -0.174126,0.25517 -0.03713,0 -0.471383,-0.0992 -0.965004,-0.22049 -3.376732,-0.82954 -6.6858441,-0.82838 -9.9809863,0.003 -0.4726767,0.11933 -0.8936961,0.21697 -0.9356017,0.21697 -0.041899,0 -0.1241663,-0.11482 -0.1828043,-0.25516 -0.1197073,-0.2865 -0.3523492,-0.34522 -0.4731876,-0.11943 -0.08773,0.16392 0.032187,0.34992 0.2497759,0.38741 0.2142371,0.0369 0.2158486,0.2774 0.00578,0.85982 -0.364857,1.01146 -0.5037301,1.89643 -0.5037301,3.21 0,1.31357 0.1388731,2.19855 0.5037301,3.21002 0.2100871,0.5824 0.2084757,0.82289 -0.00578,0.8598 -0.2175862,0.0375 -0.3375058,0.22349 -0.2497759,0.38742 0.1208373,0.22578 0.3534803,0.16706 0.4731865,-0.11943 0.058634,-0.14034 0.1360098,-0.25517 0.1719374,-0.25517 0.035929,0 0.6014061,0.11276 1.2566201,0.25056 1.6142829,0.33953 2.8448352,0.50316 4.047618,0.53825 l 0.4504793,0.0131 0.1209971,-0.4192 z m -4.9013386,-0.73972 c -0.2891817,-0.072 -0.575004,-0.17175 -0.6351588,-0.22167 -0.2626747,-0.218 -0.6759082,-1.76315 -0.7134673,-2.66778 l -0.021097,-0.50814 h 0.218713 0.218713 l 0.090515,0.69259 c 0.090221,0.69041 0.4102451,1.95033 0.524643,2.06553 0.033133,0.0333 0.3304335,0.12089 0.6606705,0.1945 0.6517336,0.14528 0.7561696,0.20521 0.7170475,0.41146 -0.03533,0.18627 -0.4006753,0.19781 -1.0605732,0.0335 z m 3.7477439,-1.51221 c -0.1283573,-0.12836 -0.010669,-0.32482 0.4961617,-0.82827 0.3007309,-0.29872 0.5467825,-0.56713 0.5467825,-0.59644 0,-0.0293 -0.2378504,-0.063 -0.5285564,-0.0747 -0.5094779,-0.0206 -0.5285554,-0.028 -0.5285554,-0.20368 v -0.18226 h 0.9842075 c 0.9287292,0 0.98537,0.008 1.0048322,0.1458 0.014117,0.0998 -0.1527295,0.31783 -0.5285564,0.69077 -0.302049,0.29973 -0.5491802,0.56894 -0.5491802,0.59827 0,0.0293 0.2378505,0.063 0.5285564,0.0747 0.5094779,0.0206 0.5285554,0.028 0.5285554,0.20368 v 0.18226 l -0.9518138,0.0203 c -0.5234972,0.0111 -0.9745925,-0.002 -1.0024335,-0.0304 z M 1.847697,286.21552 c -0.1564339,-0.11438 -0.129644,-0.54791 0.040438,-0.65434 0.2119393,-0.13262 0.3562049,-0.007 0.3562049,0.30924 0,0.34081 -0.1838102,0.50073 -0.3966429,0.3451 z m 2.9985938,-0.0226 c -0.1345255,-0.13452 0.012214,-0.34597 0.7516444,-1.08311 0.4410714,-0.4397 0.8019476,-0.82351 0.8019476,-0.85291 0,-0.0294 -0.3526751,-0.0628 -0.7837216,-0.0741 -0.7818484,-0.0206 -0.7837205,-0.0211 -0.7837205,-0.20296 v -0.18226 h 1.2393726 c 1.5897783,0 1.5847296,-0.0116 0.4760772,1.09232 -0.4422802,0.44039 -0.8041467,0.82477 -0.8041467,0.85416 0,0.0294 0.3526751,0.0627 0.7837216,0.0741 0.7818474,0.0206 0.7837206,0.0211 0.7837206,0.20296 v 0.18226 l -1.2072965,0.02 c -0.6640122,0.0109 -1.2299321,-0.003 -1.2575987,-0.0304 z m 9.0609282,-0.65044 c -0.0391,-0.10281 -0.0711,-0.26269 -0.0711,-0.35518 0,-0.26283 -0.349415,-1.57458 -0.467386,-1.75463 -0.05829,-0.0889 -0.213031,-0.18314 -0.343877,-0.20931 -0.673914,-0.13479 -0.792632,-0.19151 -0.792632,-0.3787 0,-0.2559 0.14493,-0.28385 0.729348,-0.14063 0.712113,0.17451 0.837613,0.29446 1.053556,1.00689 0.254132,0.83844 0.413961,1.80963 0.317032,1.92642 -0.128821,0.15523 -0.348505,0.10618 -0.424942,-0.0948 z m -2.783358,-2.70586 c -0.189896,-0.05 -0.247132,-0.32173 -0.0917,-0.43538 0.271562,-0.19858 0.756412,0.0783 0.611442,0.34924 -0.06914,0.12918 -0.245286,0.15839 -0.51974,0.0862 z"
       id="path2328"
       inkscape:connector-curvature="0" />
    <path
       style="fill:#ffffff;stroke-width:0.00196817;stroke-miterlimit:4;stroke-dasharray:none"
       d="m 6.4928749,291.3247 c -0.7615285,-0.0681 -1.838256,-0.24017 -3.1154935,-0.49782 -0.6394855,-0.12899 -1.1949727,-0.22216 -1.2344164,-0.20702 -0.03944,0.0151 -0.1186435,0.1195 -0.1760001,0.23193 -0.1288587,0.25259 -0.2351185,0.29916 -0.3714667,0.16281 -0.085344,-0.0853 -0.093574,-0.12394 -0.045557,-0.21365 0.032229,-0.0602 0.1274302,-0.13547 0.2115599,-0.16723 0.2154638,-0.0814 0.2375225,-0.24235 0.096728,-0.70607 -0.065929,-0.21714 -0.1756606,-0.58164 -0.2438473,-0.81002 -0.4649433,-1.55719 -0.4179301,-4.00969 0.1064648,-5.55374 0.2910917,-0.85711 0.297159,-1.0394 0.03761,-1.12989 -0.2095017,-0.0731 -0.2827098,-0.22083 -0.1811792,-0.36579 0.1208121,-0.17248 0.2185112,-0.13584 0.3950642,0.14817 0.089023,0.14321 0.1735289,0.26037 0.1877973,0.26037 0.014264,0 0.4149932,-0.0921 0.8905007,-0.20468 2.1051972,-0.49842 2.9284435,-0.59705 5.0044816,-0.59954 2.0905848,-0.002 3.0540968,0.11064 5.1177748,0.60098 0.480536,0.11418 0.896816,0.19331 0.925066,0.17585 0.02824,-0.0174 0.0969,-0.121 0.15255,-0.23009 0.106229,-0.20822 0.210754,-0.2796 0.337975,-0.23077 0.212033,0.0814 0.108973,0.39151 -0.151851,0.45697 -0.225026,0.0564 -0.215682,0.17874 0.09653,1.26312 0.26009,0.90334 0.345134,1.43897 0.379043,2.38734 0.03722,1.04096 -0.09577,2.59882 -0.242057,2.83552 -0.03364,0.0545 -0.164857,-0.002 -0.582281,-0.25246 -0.815718,-0.48852 -1.069852,-0.55215 -2.205277,-0.55215 h -0.93734 l -0.453449,0.18982 c -0.6112333,0.25586 -1.0991643,0.59025 -1.5307438,1.04903 -0.4512161,0.47965 -0.6785171,0.86043 -0.8908033,1.49232 l -0.167122,0.49745 -0.4577713,0.006 c -0.2517751,0.004 -0.6803903,-0.0131 -0.9524802,-0.0375 z m -2.3615755,-0.97247 c 0.059401,-0.0379 0.088329,-0.13564 0.076472,-0.25824 -0.00904,-0.0938 -0.2420204,-0.19622 -0.6831381,-0.30039 C 2.883405,289.64216 2.8186766,289.60359 2.7244484,289.31665 2.59993,288.93749 2.3951207,288.02453 2.3290247,287.55402 2.2238592,286.80538 2.2467398,286.85101 1.9764442,286.85101 H 1.738393 l 0.031766,0.4817 c 0.041132,0.62371 0.2051404,1.46584 0.3947047,2.02666 0.20129,0.59549 0.2431725,0.66388 0.4627495,0.75563 0.5068931,0.21178 1.3382123,0.34294 1.5036934,0.23723 z m 4.7570025,-1.69469 c 0,-0.22547 -0.1015947,-0.2819 -0.5674389,-0.31515 -0.2404888,-0.0171 -0.4486576,-0.0426 -0.4625971,-0.0566 -0.013938,-0.014 0.2005774,-0.26295 0.4767048,-0.55335 0.5044123,-0.5305 0.6329577,-0.747 0.4952861,-0.83419 -0.039681,-0.0251 -0.499803,-0.046 -1.0225002,-0.0465 l -0.9503601,-7.9e-4 v 0.17618 c 0,0.20534 0.071122,0.23818 0.5207453,0.24041 0.5760552,0.003 0.576175,0.004 0.047786,0.56259 -0.2595528,0.27425 -0.5070644,0.56662 -0.5500264,0.64969 -0.1495277,0.28916 -0.1203832,0.29788 0.9953161,0.29788 H 8.888304 Z m -6.7214661,-2.45281 c 0.091672,-0.11046 0.1234925,-0.40284 0.06143,-0.56444 -0.067621,-0.17608 -0.2570908,-0.19262 -0.3998207,-0.0349 -0.1156803,0.12782 -0.1314897,0.4631 -0.02773,0.58811 0.086469,0.10417 0.2839481,0.11025 0.3661236,0.0113 z m 5.1592314,-0.1553 c 0,-0.21113 -0.055785,-0.23991 -0.4650725,-0.23991 -0.1651816,0 -0.479092,-0.0151 -0.697579,-0.0335 l -0.3972475,-0.0335 0.7534093,-0.77553 c 0.7339123,-0.75544 0.8847823,-0.97442 0.7585169,-1.1009 -0.042393,-0.0425 -0.4282358,-0.0661 -1.2563899,-0.0771 l -1.1952134,-0.0158 v 0.184 c 0,0.22225 -2.911e-4,0.22216 0.8508362,0.25687 0.3390741,0.0139 0.6298484,0.0385 0.6461634,0.0548 0.016314,0.0163 -0.2879571,0.35435 -0.6761604,0.75121 -0.3882033,0.39686 -0.7451156,0.79753 -0.7931369,0.8904 -0.1629762,0.31516 -0.1610221,0.31566 1.2204518,0.31566 h 1.251422 z m 6.9784418,-0.37065 c 0.197696,-0.2382 -0.208071,-2.16312 -0.550664,-2.61228 -0.14186,-0.18598 -0.501992,-0.34103 -1.003296,-0.43193 -0.393169,-0.0713 -0.52948,-0.018 -0.52948,0.2072 0,0.17435 0.150744,0.27773 0.496508,0.34053 0.381712,0.0694 0.575213,0.17437 0.6639,0.36034 0.113752,0.23855 0.331213,1.05056 0.423708,1.58217 0.07692,0.4421 0.180633,0.63264 0.344335,0.63264 0.04933,0 0.119081,-0.0354 0.154989,-0.0786 z m -2.686016,-2.86726 c 0.120316,-0.12032 0.1,-0.26084 -0.05538,-0.38306 -0.272354,-0.21423 -0.667449,-0.0915 -0.633717,0.19684 0.02779,0.23754 0.508007,0.36731 0.689095,0.18622 z"
       id="path2330"
       inkscape:connector-curvature="0" />
    <path
       style="fill:#ffffff;stroke-width:0.00196817;stroke-miterlimit:4;stroke-dasharray:none"
       d="m 11.273271,294.57942 c -0.296053,-0.0908 -0.315635,-0.11748 -0.23784,-0.32358 0.05207,-0.13798 0.04691,-0.17666 -0.03575,-0.26801 -0.136044,-0.15033 -0.309282,-0.13327 -0.459494,0.0453 l -0.127906,0.152 -0.250543,-0.25437 -0.2505418,-0.25437 0.1394848,-0.10972 c 0.09203,-0.0724 0.139484,-0.15941 0.139484,-0.25578 0,-0.20759 -0.110353,-0.27987 -0.3622964,-0.23731 -0.1958502,0.0331 -0.2134834,0.0256 -0.2674437,-0.11228 -0.031777,-0.0813 -0.069976,-0.23392 -0.084892,-0.33927 -0.026584,-0.18772 -0.022747,-0.19274 0.1906176,-0.25019 0.2035698,-0.0548 0.2166957,-0.0695 0.2016378,-0.22504 -0.013423,-0.13864 -0.046514,-0.17618 -0.1983677,-0.225 -0.2212799,-0.0712 -0.2533004,-0.19909 -0.1303828,-0.52096 0.093942,-0.24598 0.1133488,-0.25685 0.3036067,-0.17017 0.3200405,0.14583 0.4800045,-0.24282 0.2049285,-0.49789 l -0.1425936,-0.13221 0.2444676,-0.24447 0.244468,-0.24447 0.129974,0.14025 c 0.267099,0.28821 0.614884,0.12919 0.491508,-0.22473 -0.06703,-0.19229 -0.03647,-0.22604 0.285274,-0.31507 0.268996,-0.0744 0.370188,-0.0466 0.391626,0.10776 0.02579,0.18564 0.103676,0.25984 0.27277,0.25984 0.128417,0 0.155211,-0.0273 0.20393,-0.2083 0.06229,-0.23132 0.147681,-0.25819 0.473918,-0.14912 0.254095,0.0849 0.278971,0.12205 0.203699,0.30378 -0.05789,0.13974 -0.05445,0.17371 0.02659,0.26326 0.134621,0.14876 0.358819,0.13204 0.491514,-0.0367 l 0.109719,-0.13947 0.254367,0.25054 0.254367,0.25053 -0.152007,0.12792 c -0.0882,0.0742 -0.152009,0.17904 -0.152009,0.24973 0,0.16908 0.144546,0.30221 0.281154,0.25895 0.255914,-0.081 0.313174,-0.0579 0.383956,0.15505 0.10556,0.31761 0.06927,0.44732 -0.144365,0.51596 -0.307158,0.0987 -0.272573,0.40241 0.05324,0.46757 0.131449,0.0263 0.155054,0.0553 0.155054,0.19021 0,0.0876 -0.03414,0.24091 -0.07586,0.34077 -0.07308,0.1749 -0.08357,0.18032 -0.286128,0.14794 -0.368624,-0.059 -0.502413,0.22364 -0.226808,0.47906 l 0.140245,0.12997 -0.242119,0.24212 -0.24212,0.24212 -0.129973,-0.14024 c -0.255423,-0.27561 -0.538013,-0.14182 -0.479068,0.22681 0.03239,0.20255 0.02696,0.21304 -0.147941,0.28613 -0.09986,0.0417 -0.252169,0.0759 -0.338466,0.0759 -0.128159,0 -0.163172,-0.0263 -0.191114,-0.14321 -0.04771,-0.19974 -0.117077,-0.27338 -0.257487,-0.27338 -0.131632,0 -0.17785,0.0508 -0.25707,0.2825 -0.06452,0.1887 -0.09631,0.1969 -0.401016,0.10343 z m 0.869687,-3.19792 v -0.96338 l -0.130187,-0.0135 c -0.230485,-0.0239 -0.265911,0.0446 -0.297533,0.57455 -0.03844,0.64436 -0.05101,0.66306 -0.346611,0.51544 -0.267564,-0.13364 -0.470544,-0.11204 -0.562537,0.0599 -0.05107,0.0955 -0.0309,0.13324 0.162443,0.30482 0.296022,0.26269 0.819844,0.52041 1.018164,0.50093 l 0.156261,-0.0154 z"
       id="path2332"
       inkscape:connector-curvature="0" />
    <path
       style="fill:#ffffff;stroke-width:0.00196817;stroke-miterlimit:4;stroke-dasharray:none"
       d="m 11.438539,295.65157 c -0.758951,-0.11969 -1.391318,-0.45105 -1.9826111,-1.03888 -0.3608994,-0.35879 -0.4897265,-0.53113 -0.6636842,-0.88784 -0.3159928,-0.64798 -0.3893154,-0.99656 -0.3611822,-1.71711 0.038336,-0.98203 0.3278667,-1.63985 1.0313941,-2.34337 0.6883534,-0.68835 1.3604664,-0.99007 2.2974174,-1.03133 1.084468,-0.0477 1.888693,0.26343 2.652439,1.02636 0.715317,0.71456 1.054768,1.52128 1.053285,2.50322 -0.0016,1.05609 -0.439868,1.98134 -1.275395,2.69252 -0.728797,0.62035 -1.836038,0.94081 -2.751663,0.79643 z m 1.245191,-0.52771 c 0.405733,-0.0963 0.970217,-0.40284 1.312966,-0.71302 1.049045,-0.94933 1.306622,-2.35931 0.666858,-3.65041 -0.510868,-1.03098 -1.561583,-1.67021 -2.745337,-1.67021 -0.839847,0 -1.553052,0.29726 -2.1532582,0.89747 -0.5809663,0.58097 -0.8766569,1.31172 -0.8766569,2.16655 0,1.41102 1.0261046,2.7121 2.3433511,2.9713 0.157526,0.031 0.333277,0.067 0.390559,0.08 0.149026,0.0339 0.778882,-0.0146 1.061518,-0.0817 z"
       id="path2334"
       inkscape:connector-curvature="0" />
  </g>
</svg>
