<?xml version="1.0" encoding="UTF-8" standalone="no"?>
<!-- Created with Inkscape (http://www.inkscape.org/) -->

<svg
   xmlns:dc="http://purl.org/dc/elements/1.1/"
   xmlns:cc="http://creativecommons.org/ns#"
   xmlns:rdf="http://www.w3.org/1999/02/22-rdf-syntax-ns#"
   xmlns:svg="http://www.w3.org/2000/svg"
   xmlns="http://www.w3.org/2000/svg"
   xmlns:sodipodi="http://sodipodi.sourceforge.net/DTD/sodipodi-0.dtd"
   xmlns:inkscape="http://www.inkscape.org/namespaces/inkscape"
   width="64"
   height="64"
   viewBox="0 0 16.933333 16.933334"
   version="1.1"
   id="svg8"
   inkscape:version="0.92.5 (2060ec1f9f, 2020-04-08)"
   sodipodi:docname="needs_repair_64x64.svg">
  <defs
     id="defs2" />
  <sodipodi:namedview
     id="base"
     pagecolor="#ffffff"
     bordercolor="#666666"
     borderopacity="1.0"
     inkscape:pageopacity="0.0"
     inkscape:pageshadow="2"
     inkscape:zoom="5.6"
     inkscape:cx="18.988958"
     inkscape:cy="34.06704"
     inkscape:document-units="mm"
     inkscape:current-layer="layer1"
     showgrid="false"
     units="px"
     inkscape:window-width="1208"
     inkscape:window-height="987"
     inkscape:window-x="1992"
     inkscape:window-y="0"
     inkscape:window-maximized="1"
     showguides="false" />
  <metadata
     id="metadata5">
    <rdf:RDF>
      <cc:Work
         rdf:about="">
        <dc:format>image/svg+xml</dc:format>
        <dc:type
           rdf:resource="http://purl.org/dc/dcmitype/StillImage" />
        <dc:title></dc:title>
      </cc:Work>
    </rdf:RDF>
  </metadata>
  <g
     inkscape:label="Layer 1"
     inkscape:groupmode="layer"
     id="layer1"
     transform="translate(0,-280.06665)">
    <path
       style="fill:#000000;stroke-width:0.03012445"
       d="m 7.5618285,295.95194 c -0.057316,-0.0335 -0.097395,-0.14875 -0.2509228,-0.72189 -0.1739124,-0.64923 -0.1379266,-0.58626 -0.3699371,-0.64736 -0.4201067,-0.11065 -1.082178,-0.39048 -1.4985646,-0.63338 l -0.091191,-0.0532 -0.5598372,0.32054 c -0.3079107,0.17629 -0.5918905,0.32053 -0.6310672,0.32053 -0.1020064,0 -1.4433502,-1.34134 -1.4433502,-1.44335 0,-0.0391 0.1442418,-0.32316 0.3205362,-0.63107 l 0.3205352,-0.55984 -0.053575,-0.0912 c -0.2395171,-0.4077 -0.5216103,-1.0757 -0.6332668,-1.4996 l -0.053575,-0.20339 -0.1988526,-0.0582 c -0.1093691,-0.032 -0.3344127,-0.0938 -0.5000977,-0.13745 -0.4675047,-0.12299 -0.5856108,-0.16629 -0.6178377,-0.22651 -0.017895,-0.0335 -0.029841,-0.43642 -0.029841,-1.00665 0,-0.87336 0.00441,-0.95529 0.053898,-1.00479 0.031726,-0.0317 0.2968401,-0.12001 0.6444121,-0.21461 0.3247842,-0.0884 0.6034862,-0.1692 0.6193377,-0.17957 0.015852,-0.0104 0.071067,-0.16285 0.1226951,-0.33885 0.1121047,-0.38214 0.3215437,-0.88206 0.50497,-1.20532 0.0733,-0.12919 0.1332774,-0.24243 0.1332774,-0.25166 0,-0.009 -0.1423378,-0.26538 -0.3163069,-0.56923 -0.1739683,-0.30385 -0.3163068,-0.5845 -0.3163068,-0.62368 0,-0.10204 1.3413441,-1.44334 1.44335,-1.44334 0.039176,0 0.3231565,0.14423 0.6310673,0.32052 l 0.5598372,0.32053 0.091191,-0.0532 c 0.4163868,-0.24291 1.078457,-0.52274 1.4985648,-0.63337 0.2320105,-0.0611 0.1960246,0.002 0.3699371,-0.64737 0.1563091,-0.58351 0.1940063,-0.68976 0.2566267,-0.72328 0.074655,-0.0399 1.9124855,-0.0399 1.9871429,0 0.062613,0.0336 0.1003207,0.13977 0.2566267,0.72328 0.1753817,0.65472 0.1306859,0.58359 0.4150317,0.66043 0.434252,0.11736 0.963869,0.34315 1.438313,0.61319 l 0.106157,0.0605 0.559932,-0.32059 c 0.307961,-0.17632 0.591985,-0.32058 0.631162,-0.32058 0.102004,0 1.44335,1.34134 1.44335,1.44334 0,0.0391 -0.14424,0.32315 -0.320536,0.63106 l -0.320534,0.55985 0.05358,0.0912 c 0.239283,0.40728 0.521627,1.07571 0.632993,1.49856 0.06111,0.232 -0.0018,0.19603 0.647363,0.36994 0.583515,0.1563 0.689761,0.194 0.723273,0.25663 0.03996,0.0746 0.03996,1.91248 0,1.98713 -0.03352,0.0626 -0.139758,0.1003 -0.723273,0.25664 -0.649231,0.17391 -0.58626,0.13791 -0.647363,0.36993 -0.111366,0.42285 -0.39371,1.09129 -0.632993,1.49857 l -0.05358,0.0912 0.320534,0.55984 c 0.176296,0.3079 0.320536,0.5919 0.320536,0.63107 0,0.10205 -1.341344,1.44335 -1.44335,1.44335 -0.03918,0 -0.323157,-0.14424 -0.631067,-0.32054 l -0.559837,-0.32053 -0.09119,0.0536 c -0.407279,0.23927 -1.075706,0.52162 -1.498562,0.63299 -0.2320101,0.0611 -0.196024,-0.002 -0.3699367,0.64736 -0.1563091,0.58352 -0.1940063,0.68976 -0.2566267,0.72327 -0.073896,0.0395 -1.9249096,0.0383 -1.9928468,-0.002 z m 1.8923619,-0.98947 c 0.087529,-0.32113 0.1809591,-0.60799 0.2076203,-0.63744 0.026661,-0.0295 0.1457534,-0.0771 0.2646507,-0.10584 0.5021436,-0.12141 1.0915936,-0.36163 1.5366106,-0.6262 0.129774,-0.0772 0.264582,-0.14029 0.299574,-0.14029 0.035,0 0.305107,0.13712 0.600258,0.30472 0.472408,0.26826 0.542798,0.2998 0.588111,0.26359 0.08357,-0.0667 0.74264,-0.72292 0.865739,-0.8619 l 0.113295,-0.12791 -0.30464,-0.5365 c -0.167553,-0.29508 -0.304641,-0.56513 -0.304641,-0.60012 0,-0.035 0.06313,-0.1698 0.140282,-0.29957 0.264577,-0.44502 0.504792,-1.03447 0.626207,-1.53661 0.02875,-0.1189 0.07664,-0.23823 0.106416,-0.26517 0.02978,-0.027 0.31663,-0.11954 0.637445,-0.20575 l 0.583299,-0.15674 v -0.7377 -0.73771 l -0.583299,-0.15673 c -0.320815,-0.0862 -0.607665,-0.17879 -0.637445,-0.20574 -0.02978,-0.027 -0.07767,-0.14628 -0.106416,-0.26518 -0.121415,-0.50214 -0.36163,-1.09159 -0.626207,-1.5366 -0.07716,-0.12979 -0.140282,-0.26459 -0.140282,-0.29959 0,-0.0349 0.137573,-0.30589 0.305717,-0.60202 l 0.305719,-0.53838 -0.463871,-0.47304 c -0.25513,-0.26015 -0.488755,-0.49054 -0.519167,-0.51196 -0.0485,-0.0342 -0.120987,-0.002 -0.589097,0.26417 -0.293592,0.16671 -0.562432,0.30312 -0.597423,0.30312 -0.035,0 -0.1698,-0.0631 -0.299574,-0.14029 -0.445017,-0.26458 -1.034467,-0.50479 -1.5366106,-0.6262 -0.1188973,-0.0288 -0.2379896,-0.0764 -0.2646507,-0.10584 -0.026661,-0.0295 -0.1200974,-0.31632 -0.2076347,-0.63744 L 9.295015,281.83972 H 8.5611034 7.8271917 l -0.15916,0.58389 c -0.087539,0.32112 -0.1809735,0.60798 -0.2076346,0.63744 -0.026661,0.0295 -0.1457535,0.0771 -0.2646518,0.10584 -0.5073503,0.12267 -1.1088709,0.36837 -1.5320133,0.62575 -0.1272457,0.0774 -0.26112,0.14074 -0.2974965,0.14074 -0.036374,0 -0.3097272,-0.13762 -0.6074455,-0.30582 l -0.5413045,-0.30582 -0.5140785,0.51408 -0.5140785,0.51408 0.3060559,0.53899 c 0.1683299,0.29644 0.3060551,0.56762 0.3060551,0.6026 0,0.035 -0.06313,0.1698 -0.1402824,0.29959 -0.264576,0.44501 -0.5047917,1.03446 -0.626207,1.5366 -0.028744,0.1189 -0.076378,0.23799 -0.1058335,0.26465 -0.029462,0.0267 -0.3163109,0.1201 -0.6374451,0.20764 l -0.583882,0.15915 v 0.73392 0.73391 l 0.583882,0.15916 c 0.3211342,0.0876 0.6079852,0.18097 0.6374451,0.20763 0.029462,0.0267 0.077087,0.14576 0.1058335,0.26466 0.1214153,0.50214 0.361631,1.09159 0.626207,1.53661 0.077159,0.12977 0.1402824,0.26458 0.1402824,0.29957 0,0.035 -0.1377252,0.30617 -0.3060551,0.60261 l -0.3060559,0.53899 0.5143153,0.51432 0.5143159,0.51431 0.5389903,-0.30605 c 0.2964448,-0.16833 0.5696883,-0.30606 0.607208,-0.30606 0.037519,0 0.1723283,0.0634 0.299574,0.14074 0.4231424,0.25738 1.024663,0.50308 1.5320133,0.62575 0.1188983,0.0288 0.2378961,0.0763 0.2644433,0.1056 0.026538,0.0294 0.1159807,0.30264 0.1987442,0.60734 0.082766,0.30468 0.1566038,0.57116 0.1640909,0.59217 0.010595,0.0298 0.1753866,0.0363 0.7428185,0.0302 l 0.7292046,-0.008 z m -1.5356989,-2.00682 c -0.9458509,-0.15437 -1.7338887,-0.55531 -2.3992908,-1.22071 -0.6110979,-0.6111 -0.9953697,-1.31941 -1.1814203,-2.17768 -0.095925,-0.4425 -0.095925,-1.28594 0,-1.72845 0.1860506,-0.85826 0.5703224,-1.56658 1.1814203,-2.17767 0.6079775,-0.60798 1.32742,-0.99948 2.1622991,-1.17667 0.3646706,-0.0774 1.1202685,-0.1139 1.278293,-0.0617 0.1635088,0.054 0.2074253,0.2505 0.079142,0.35419 -0.024526,0.0198 -0.2529987,0.0393 -0.5682039,0.0486 -0.4322023,0.0127 -0.5814493,0.0294 -0.8284217,0.0927 -0.7105932,0.18205 -1.2570678,0.48455 -1.7724114,0.98113 -0.6239076,0.60119 -1.0104047,1.3295 -1.1506595,2.16829 -0.074508,0.44559 -0.048975,1.13741 0.057354,1.5542 0.190084,0.74507 0.494977,1.28005 1.0403232,1.8254 0.4372152,0.43721 0.8982468,0.73548 1.4187091,0.91787 l 0.1958091,0.0687 0.00852,-0.86369 0.00852,-0.8637 -0.098935,-0.0734 c -0.054411,-0.0403 -0.194264,-0.16974 -0.3107764,-0.28756 -0.629386,-0.63639 -0.7703482,-1.63553 -0.345863,-2.45144 0.1943554,-0.37357 0.4879278,-0.66776 0.8853361,-0.88718 0.1814683,-0.10019 0.2421484,-0.10143 0.3364746,-0.007 0.073824,0.0738 0.073937,0.0749 0.073937,0.70793 v 0.63399 h 0.572366 0.5723648 v -0.63399 c 0,-0.63296 1.242e-4,-0.63411 0.073937,-0.70793 0.040664,-0.0407 0.099879,-0.0739 0.1315893,-0.0739 0.1233579,0 0.4742882,0.22995 0.7125759,0.46693 0.413485,0.41121 0.618239,0.90506 0.618239,1.49116 0,0.67252 -0.319866,1.31766 -0.8440974,1.70249 l -0.1500098,0.11011 v 0.8704 0.87039 l 0.2184038,-0.0784 c 1.0532604,-0.37832 1.9313034,-1.25192 2.3150024,-2.30327 0.131708,-0.3609 0.205046,-0.69293 0.227596,-1.03043 0.015,-0.22449 0.03364,-0.31324 0.07753,-0.36902 0.07329,-0.0932 0.210313,-0.0973 0.29862,-0.009 0.05953,0.0595 0.063,0.085 0.04539,0.3332 -0.07153,1.00778 -0.49131,1.95366 -1.190149,2.68176 -0.547834,0.57077 -1.168142,0.95298 -1.9020185,1.17197 -0.5363522,0.16004 -1.3281618,0.21649 -1.8475892,0.13171 z m 1.2982463,-0.41735 c 0.028365,-0.0176 0.037225,-0.26578 0.037225,-1.04317 v -1.02017 l 0.082848,-0.0632 c 0.045561,-0.0347 0.1704322,-0.12729 0.2774875,-0.20563 0.1336066,-0.0977 0.2425457,-0.21328 0.3473987,-0.36836 0.475623,-0.70348 0.385281,-1.59541 -0.2216632,-2.18839 l -0.1697588,-0.16586 -0.01506,0.50686 c -0.022883,0.77009 0.027729,0.73278 -0.9941079,0.73278 -1.0284204,0 -0.9941058,0.0261 -0.9941058,-0.75473 v -0.48661 l -0.1125405,0.0988 c -0.5764599,0.50614 -0.7536996,1.30355 -0.4447762,2.00107 0.099807,0.22537 0.3207244,0.4994 0.5109076,0.63374 0.09295,0.0657 0.2090155,0.15093 0.2579315,0.1895 l 0.088936,0.0701 0.0079,1.02942 0.0079,1.02941 0.1204978,0.0201 c 0.1598724,0.0267 1.165425,0.0137 1.2129367,-0.0157 z m 2.9845112,-5.32889 c -0.06422,-0.0519 -0.386704,-0.6751 -0.386704,-0.74725 0,-0.0863 0.107836,-0.17908 0.208192,-0.17908 0.06061,0 0.11137,0.0281 0.164355,0.0911 0.08334,0.0991 0.35044,0.61434 0.35044,0.67607 0,0.0209 -0.0281,0.0738 -0.06244,0.11744 -0.06824,0.0867 -0.194416,0.10597 -0.273847,0.0418 z m -1.516372,-1.77055 c -0.149115,-0.0973 -0.294843,-0.19796 -0.323837,-0.22365 -0.117372,-0.10404 -0.02147,-0.34797 0.136819,-0.34797 0.06858,0 0.46815,0.23244 0.636375,0.37019 0.112434,0.0921 0.121409,0.24465 0.01925,0.32736 -0.104684,0.0848 -0.174408,0.066 -0.468612,-0.12593 z"
       id="path7657"
       inkscape:connector-curvature="0" />
    <path
       style="fill:#ffffff;stroke-width:0.00115013;stroke-miterlimit:4;stroke-dasharray:none"
       d="m 7.844602,295.51633 c -0.00729,-0.0125 -0.077437,-0.24781 -0.1558348,-0.5228 -0.078402,-0.275 -0.1608416,-0.54379 -0.1832033,-0.59731 -0.044925,-0.10751 -0.033026,-0.10214 -0.7109032,-0.31819 -0.347601,-0.11076 -0.7072114,-0.27369 -1.3229569,-0.59942 -0.046813,-0.0247 -0.1152791,-0.0374 -0.1521517,-0.0279 -0.036871,0.009 -0.2998322,0.14695 -0.5843555,0.3057 l -0.5173149,0.28863 -0.5061655,-0.50428 -0.5061646,-0.50431 0.1426212,-0.24731 c 0.3639861,-0.63118 0.4659645,-0.84342 0.4481215,-0.93264 -0.0096,-0.0479 -0.085915,-0.20783 -0.1695916,-0.35522 -0.2020544,-0.35587 -0.3994647,-0.83389 -0.533947,-1.2929 -0.066341,-0.22645 -0.1330021,-0.39452 -0.1683749,-0.42453 -0.032208,-0.0273 -0.3192057,-0.1223 -0.6377772,-0.21107 l -0.579222,-0.16139 v -0.72225 -0.72224 l 0.098899,-0.0216 c 0.2417763,-0.0527 1.0483388,-0.29527 1.106082,-0.33278 0.045164,-0.0294 0.093243,-0.14233 0.1643051,-0.38614 0.1387446,-0.47602 0.3358613,-0.95793 0.5392966,-1.31844 0.1155891,-0.20484 0.1721701,-0.3393 0.1731114,-0.41139 0.00103,-0.0803 -0.071564,-0.23772 -0.2899685,-0.62878 l -0.2913674,-0.52171 0.505071,-0.5032 0.5050711,-0.50319 0.5173149,0.28862 c 0.2845233,0.15876 0.5480539,0.29647 0.5856233,0.30602 0.039932,0.0103 0.1157864,-0.008 0.1825821,-0.043 0.6166771,-0.32582 0.9457058,-0.47459 1.2940614,-0.58508 0.69998,-0.222 0.6668738,-0.20363 0.741987,-0.41185 0.036044,-0.0999 0.1182012,-0.37674 0.1825822,-0.61522 l 0.1170534,-0.43361 0.7215472,-2e-5 0.7215471,-3e-5 0.033971,0.12934 c 0.084593,0.32199 0.2773582,0.97357 0.3077921,1.04037 0.037184,0.0816 0.087129,0.10541 0.4213364,0.20072 0.443295,0.12642 0.690014,0.22598 1.186781,0.47891 0.582553,0.29661 0.497538,0.29618 1.023812,0.005 0.181685,-0.1004 0.400902,-0.21866 0.487149,-0.26274 l 0.156812,-0.0802 0.120478,0.1038 c 0.06626,0.0571 0.292621,0.28277 0.503019,0.50152 l 0.38254,0.39773 -0.292131,0.52526 c -0.170069,0.30578 -0.292131,0.56004 -0.292131,0.60851 0,0.0458 0.07012,0.20764 0.1558,0.35965 0.249023,0.44175 0.426006,0.88096 0.612654,1.52041 l 0.06378,0.21853 0.170114,0.0636 c 0.148727,0.0556 0.534174,0.16729 0.947721,0.27452 l 0.12933,0.0336 v 0.7271 c 0,0.66634 -0.0044,0.72839 -0.05325,0.74248 -0.02929,0.008 -0.238117,0.0657 -0.464061,0.12709 -0.225945,0.0615 -0.482594,0.13857 -0.57033,0.17137 l -0.15952,0.0596 -0.06378,0.21853 c -0.185085,0.6341 -0.368364,1.09168 -0.605537,1.51181 -0.08031,0.14227 -0.154278,0.28622 -0.164372,0.31991 -0.02174,0.0726 0.07169,0.27478 0.371535,0.80409 l 0.214387,0.37845 -0.116662,0.13886 c -0.179198,0.2133 -0.843427,0.85397 -0.885366,0.85397 -0.02047,0 -0.237298,-0.10864 -0.481835,-0.24142 -0.244535,-0.13278 -0.496131,-0.26548 -0.559102,-0.29491 l -0.114492,-0.0535 -0.478898,0.24575 c -0.490747,0.2518 -0.764097,0.36172 -1.304756,0.52464 -0.3623112,0.10917 -0.3258048,0.0552 -0.526322,0.77796 -0.069645,0.25106 -0.133742,0.48043 -0.1424292,0.50972 -0.014455,0.0488 -0.07597,0.0533 -0.7270591,0.0533 -0.3911952,0 -0.7172466,-0.0103 -0.7245561,-0.0228 z m 1.470354,-2.57994 c 1.906257,-0.31199 3.432119,-2.01883 3.551132,-3.97236 0.01723,-0.28277 0.0154,-0.29433 -0.05411,-0.34302 -0.07486,-0.0525 -0.201478,-0.0656 -0.259246,-0.0271 -0.06944,0.0464 -0.104438,0.1644 -0.13439,0.45325 -0.154689,1.49177 -1.079304,2.71013 -2.4785481,3.26597 -0.1269541,0.0504 -0.2373181,0.0917 -0.2452497,0.0917 -0.0079,0 -0.014424,-0.38168 -0.014424,-0.84819 v -0.84821 l 0.2054048,-0.16436 c 0.771494,-0.61736 1.013018,-1.70516 0.580053,-2.61249 -0.104254,-0.21848 -0.168937,-0.30364 -0.416405,-0.54819 -0.2739556,-0.27073 -0.5893354,-0.48644 -0.7112098,-0.48644 -0.024495,0 -0.080784,0.0336 -0.1250692,0.0746 l -0.080517,0.0746 v 0.6405 0.64048 H 8.5711221 8.0098694 l -0.00934,-0.64172 -0.00934,-0.64173 -0.08796,-0.0756 c -0.06595,-0.0567 -0.1078427,-0.0706 -0.1673668,-0.0557 -0.2772739,0.0695 -0.8530317,0.5807 -1.0278783,0.91267 -0.2948414,0.55978 -0.3467357,1.18106 -0.147006,1.75992 0.1116894,0.32371 0.2492454,0.52824 0.570561,0.84841 l 0.2966955,0.29565 v 0.83789 c 0,0.46084 -0.00554,0.83789 -0.012309,0.83789 -0.00678,0 -0.1419489,-0.0521 -0.3003943,-0.11594 -0.6675298,-0.26862 -1.2451078,-0.72963 -1.7260161,-1.37767 -0.2994525,-0.40351 -0.5468854,-0.98862 -0.6423598,-1.51899 -0.054601,-0.30329 -0.054735,-1.13987 -2.407e-4,-1.41501 0.2543448,-1.28402 1.1714558,-2.40233 2.3592087,-2.87679 0.4381576,-0.17503 0.7689079,-0.24063 1.3702252,-0.27178 0.5080207,-0.0263 0.5534915,-0.0334 0.6027269,-0.0941 0.072489,-0.0894 0.066904,-0.16145 -0.020368,-0.26266 l -0.073608,-0.0854 -0.4513096,0.003 c -0.2662317,0.002 -0.5664115,0.0238 -0.7319847,0.0531 -1.7004016,0.3007 -3.0659579,1.60911 -3.4661996,3.32118 -0.082686,0.35369 -0.082686,1.50255 0,1.85625 0.303811,1.29957 1.1510207,2.3727 2.3318665,2.9537 0.3979575,0.1958 0.8870722,0.3457 1.3278189,0.40694 0.2735453,0.038 0.9552249,0.0149 1.3196173,-0.0448 z m 3.150919,-5.74896 c 0.04108,-0.0411 0.07469,-0.10396 0.07469,-0.13972 0,-0.0762 -0.240907,-0.55182 -0.344736,-0.68075 -0.122774,-0.15246 -0.38559,-0.0897 -0.38559,0.092 0,0.0819 0.280203,0.64408 0.368065,0.73839 0.08006,0.0859 0.195694,0.0819 0.287569,-0.0103 z m -1.29467,-1.62942 c 0.09052,-0.0905 0.07775,-0.2197 -0.03235,-0.32733 -0.117679,-0.11506 -0.570548,-0.37255 -0.655226,-0.37256 -0.08183,0 -0.15875,0.0855 -0.182136,0.20243 -0.02314,0.11567 0.01095,0.15113 0.366731,0.38154 0.294769,0.19089 0.403056,0.21585 0.50298,0.11592 z"
       id="path7659"
       inkscape:connector-curvature="0" />
    <path
       style="fill:#ffffff;stroke-width:0.00115013;stroke-miterlimit:4;stroke-dasharray:none"
       d="m 7.9684157,292.53677 -0.083679,-0.0143 v -1.0286 -1.02858 l -0.2510502,-0.19112 c -0.1380774,-0.10512 -0.3098812,-0.26098 -0.3817873,-0.34636 -0.5352229,-0.63555 -0.4868273,-1.61607 0.1099596,-2.22786 l 0.1729289,-0.17727 0.015214,0.49134 c 0.013531,0.43709 0.022247,0.50075 0.078813,0.57648 0.034977,0.0468 0.096604,0.0943 0.1369358,0.10564 0.040336,0.0113 0.3989965,0.0219 0.7970299,0.0235 0.8429504,0.003 0.9102952,-0.0105 0.9629133,-0.19995 0.017801,-0.0641 0.03393,-0.23294 0.035839,-0.3752 0.00185,-0.14226 0.012258,-0.34003 0.022996,-0.43949 l 0.019516,-0.18082 0.1713829,0.18965 c 0.5063704,0.56036 0.6104944,1.2509 0.2874784,1.90654 -0.1337882,0.27155 -0.270218,0.42956 -0.5638777,0.65311 l -0.2350596,0.17894 -0.020881,1.02761 c -0.011488,0.56518 -0.02854,1.03525 -0.037903,1.04462 -0.021015,0.0209 -1.1211934,0.0317 -1.2367675,0.012 z"
       id="path7661"
       inkscape:connector-curvature="0" />
  </g>
</svg>
