<?xml version="1.0" encoding="UTF-8" standalone="no"?>
<!-- Created with Inkscape (http://www.inkscape.org/) -->

<svg
   xmlns:dc="http://purl.org/dc/elements/1.1/"
   xmlns:cc="http://creativecommons.org/ns#"
   xmlns:rdf="http://www.w3.org/1999/02/22-rdf-syntax-ns#"
   xmlns:svg="http://www.w3.org/2000/svg"
   xmlns="http://www.w3.org/2000/svg"
   xmlns:sodipodi="http://sodipodi.sourceforge.net/DTD/sodipodi-0.dtd"
   xmlns:inkscape="http://www.inkscape.org/namespaces/inkscape"
   width="64"
   height="64"
   viewBox="0 0 16.933333 16.933333"
   version="1.1"
   id="svg8"
   inkscape:version="0.92.5 (2060ec1f9f, 2020-04-08)"
   sodipodi:docname="night_food_64x64.svg">
  <defs
     id="defs2" />
  <sodipodi:namedview
     id="base"
     pagecolor="#ffffff"
     bordercolor="#666666"
     borderopacity="1.0"
     inkscape:pageopacity="0.0"
     inkscape:pageshadow="2"
     inkscape:zoom="7.9195959"
     inkscape:cx="42.785452"
     inkscape:cy="18.173603"
     inkscape:document-units="mm"
     inkscape:current-layer="layer1"
     showgrid="false"
     units="px"
     inkscape:window-width="1208"
     inkscape:window-height="987"
     inkscape:window-x="1992"
     inkscape:window-y="0"
     inkscape:window-maximized="1"
     showguides="false" />
  <metadata
     id="metadata5">
    <rdf:RDF>
      <cc:Work
         rdf:about="">
        <dc:format>image/svg+xml</dc:format>
        <dc:type
           rdf:resource="http://purl.org/dc/dcmitype/StillImage" />
        <dc:title></dc:title>
      </cc:Work>
    </rdf:RDF>
  </metadata>
  <g
     inkscape:label="Layer 1"
     inkscape:groupmode="layer"
     id="layer1"
     transform="translate(0,-280.06667)">
    <path
       style="fill:#000000;stroke-width:0.03166814"
       d="m 9.6812817,296.49372 c -1.5812286,-0.067 -2.6442488,-0.28778 -3.0343964,-0.63032 -0.172002,-0.15103 -0.192207,-0.20382 -0.2107367,-0.55058 l -0.016689,-0.31225 -0.2873405,-0.10243 c -0.3754875,-0.1339 -0.6114932,-0.24319 -0.7892185,-0.36547 -0.4635262,-0.31891 -0.5968176,-0.69414 -0.3787628,-1.06624 0.1127798,-0.19247 0.3048199,-0.34267 0.671865,-0.52548 0.2466793,-0.12287 0.3398028,-0.18706 0.3866972,-0.26654 0.070322,-0.11918 0.235916,-0.23165 0.3413402,-0.23182 0.071219,-1.3e-4 0.071251,-3.7e-4 0.071251,-0.56451 0,-0.43517 0.01164,-0.59855 0.050859,-0.71365 0.069436,-0.20377 0.3175743,-0.46897 0.5204892,-0.55626 0.2738851,-0.11783 0.4062054,-0.11647 0.9328851,0.009 0.2854515,0.0683 0.4793263,0.10097 0.4858068,0.0818 0.071199,-0.21035 0.7560245,-0.9069 2.3448127,-2.38494 0.590619,-0.54945 1.374057,-0.64679 2.02185,-0.2512 0.224449,0.13706 2.287926,2.0801 2.481945,2.33708 0.164066,0.21729 0.29762,0.52104 0.358329,0.81495 0.06691,0.32395 0.0685,1.20325 0.0026,1.44872 -0.02571,0.0957 -0.04692,0.17618 -0.04712,0.17864 -2.28e-4,0.002 0.05797,0.0279 0.129289,0.0563 0.169597,0.0679 0.460282,0.2526 0.594664,0.37792 0.126186,0.11768 0.256639,0.37724 0.257075,0.51149 0.0015,0.45115 -0.439851,0.82842 -1.313919,1.12325 l -0.253345,0.0854 -0.01583,0.31392 c -0.01738,0.34441 -0.03832,0.40011 -0.205802,0.54716 -0.413199,0.36279 -1.40298,0.56386 -3.135187,0.63689 -0.830444,0.0351 -1.106431,0.0348 -1.963426,-10e-4 z m 2.6442903,-0.50506 c 1.131671,-0.0911 1.921564,-0.27133 2.138151,-0.48792 0.0613,-0.0613 0.07861,-0.11124 0.07861,-0.22671 v -0.14809 l -0.102918,0.0177 c -0.05661,0.009 -0.309556,0.0539 -0.56211,0.0981 -0.985668,0.17226 -1.881381,0.24022 -3.166814,0.24026 -1.4673728,7e-5 -2.24459,-0.0709 -3.7130917,-0.33904 -0.086448,-0.0158 -0.087084,-0.0146 -0.087084,0.15971 0,0.1559 0.0098,0.18236 0.087084,0.2357 0.3662378,0.2527 1.3471188,0.42265 2.8580515,0.49519 0.3967512,0.0191 2.0486482,-0.011 2.4701152,-0.0448 z M 12.11973,294.9747 c 1.994811,-0.14667 3.488439,-0.53459 3.888368,-1.00987 0.115779,-0.13759 0.108371,-0.21251 -0.03445,-0.34838 -0.129315,-0.12301 -0.534539,-0.35064 -0.624212,-0.35064 -0.02999,0 -0.103116,0.0427 -0.162508,0.0948 -0.113402,0.0996 -0.307859,0.20828 -0.469503,0.26247 -0.05275,0.0176 -0.379874,0.0407 -0.726946,0.0512 l -0.631039,0.0191 -0.03671,0.16329 c -0.04441,0.19759 -0.201467,0.4512 -0.349184,0.56387 -0.219179,0.16718 -0.422926,0.23807 -0.685097,0.23841 -0.262951,3.6e-4 -2.5794241,-0.14498 -2.8130079,-0.17647 -0.225783,-0.0304 -0.4555367,-0.15721 -0.6291356,-0.34715 l -0.1579043,-0.17277 -0.8177866,4e-5 c -0.5851218,4e-5 -0.8943705,0.0136 -1.0869665,0.0475 -0.3679818,0.0648 -0.4780423,0.0604 -0.6049283,-0.0244 -0.2008289,-0.13416 -0.2413493,-0.28346 -0.168583,-0.62115 l 0.023093,-0.10718 -0.2343077,0.12301 c -0.2599781,0.13649 -0.4720103,0.32684 -0.4720103,0.42376 0,0.17052 0.4200018,0.45876 0.9377092,0.64354 0.6764409,0.24145 1.9499005,0.45806 3.163316,0.53809 0.3954878,0.0261 2.292902,0.0184 2.691794,-0.0109 z m 0.494855,-0.88125 c 0.2278,-0.14447 0.26335,-0.24987 0.275274,-0.81617 0.01197,-0.5684 -0.01665,-0.70634 -0.180543,-0.87024 -0.214687,-0.21469 -0.274517,-0.21592 -1.23686,-0.0256 l -0.84113,0.16634 -0.443353,-0.0529 c -0.2438454,-0.0291 -0.4973633,-0.0528 -0.5633728,-0.0527 -0.2389525,4.7e-4 -0.4934995,0.19919 -0.5594536,0.43667 -0.043057,0.15505 -0.041785,0.5601 0.00229,0.71875 0.044674,0.16093 0.2311399,0.34784 0.3929808,0.39394 0.1406719,0.0401 2.1572276,0.18208 2.6768936,0.1885 0.316944,0.004 0.341633,-5.9e-4 0.477304,-0.0866 z m -5.9152405,-0.55846 c 0.1800805,-0.0344 0.4691138,-0.0475 1.0529662,-0.0475 h 0.8047517 v -0.23829 -0.23827 l -0.7837864,0.003 c -0.5856548,0.002 -0.8518328,-0.009 -1.0529662,-0.0467 -0.1480484,-0.0272 -0.2717469,-0.0496 -0.2748854,-0.0497 -0.00313,-2e-5 0.00751,0.0462 0.02375,0.10264 0.016199,0.0565 0.029456,0.1599 0.029456,0.2298 0,0.0699 -0.013257,0.17331 -0.029456,0.22981 -0.016198,0.0565 -0.02689,0.10274 -0.02375,0.10274 0.00313,-10e-6 0.1174026,-0.0214 0.2539201,-0.0475 z m 7.9035935,-0.38214 c 0.193822,-0.0576 0.416117,-0.24562 0.519877,-0.43981 0.06127,-0.11467 0.06955,-0.18675 0.07902,-0.68749 0.0082,-0.43681 -5.63e-4,-0.60338 -0.04029,-0.76004 -0.101145,-0.39889 -0.179153,-0.50898 -0.773972,-1.09234 l -0.554024,-0.54334 -0.237401,0.21875 c -0.205752,0.18958 -0.253257,0.21874 -0.356342,0.21874 -0.138768,0 -0.217538,-0.0852 -0.217538,-0.2353 0,-0.0762 0.04296,-0.13464 0.22194,-0.30172 0.122067,-0.11394 0.221822,-0.21666 0.221678,-0.22826 -1.56e-4,-0.0116 -0.195521,-0.20247 -0.434169,-0.42417 -0.54349,-0.50489 -0.657491,-0.56431 -1.086165,-0.56617 -0.428285,-0.002 -0.546302,0.0598 -1.090328,0.56888 -0.236359,0.22121 -0.429743,0.412 -0.429743,0.42396 0,0.012 0.1886,0.19781 0.419113,0.41297 0.584424,0.5455 0.857709,0.66221 1.338334,0.57152 0.180184,-0.034 0.215999,-0.0324 0.284712,0.0126 0.177376,0.11622 0.124943,0.35013 -0.09569,0.4269 -0.205098,0.0713 -0.689218,0.058 -0.931877,-0.0258 -0.31775,-0.10965 -0.452844,-0.20432 -0.932135,-0.65319 l -0.445739,-0.41744 -0.4882942,0.46301 c -0.522006,0.49499 -0.6892779,0.71201 -0.7915969,1.02702 -0.1218752,0.37522 -0.1638329,0.84466 -0.1103599,1.23479 l 0.019881,0.14505 0.1561905,-0.1709 c 0.1774416,-0.19414 0.408958,-0.31989 0.6439156,-0.34975 0.092811,-0.0118 0.3008495,8.5e-4 0.4997331,0.0305 0.1873998,0.0279 0.4118998,0.0506 0.4988898,0.0506 0.08699,0 0.524766,-0.0721 0.972837,-0.16019 0.915072,-0.17993 1.02526,-0.18071 1.339965,-0.009 0.355637,0.19356 0.532285,0.50782 0.559111,0.99464 l 0.01736,0.31502 h 0.528005 c 0.387161,0 0.572579,-0.0132 0.695102,-0.0496 z m -6.3888054,-1.28836 c 0.00647,-0.37012 -3.24e-5,-0.68145 -0.01454,-0.69183 -0.014498,-0.0104 -0.1973909,-0.0581 -0.4064244,-0.10608 -0.4259409,-0.0977 -0.5423025,-0.0918 -0.693042,0.035 -0.1764622,0.14849 -0.1898038,0.20664 -0.1898038,0.82733 0,0.31148 0.00949,0.57582 0.021111,0.58744 0.011609,0.0116 0.3023103,0.0211 0.6459974,0.0211 h 0.6248849 z m -6.5765604,4.30314 c -0.4831543,-0.15737 -0.83835873,-0.54479 -0.93293832,-1.01756 -0.0174189,-0.0871 -0.10422156,-1.04135 -0.19288393,-2.12058 -0.17678654,-2.15185 -0.17685434,-2.11813 0.004694,-2.33843 0.0504836,-0.0612 0.15331166,-0.14114 0.228502,-0.17754 0.12711441,-0.0615 0.19046405,-0.0661 0.90258035,-0.0661 0.7236472,0 0.769363,0.003 0.829208,0.0633 0.094302,0.0943 0.084445,0.26381 -0.02011,0.34605 -0.078886,0.0621 -0.1229495,0.0656 -0.8068085,0.0656 H 0.92644888 l -0.0514537,0.0786 c -0.0461341,0.0704 -0.0474901,0.12529 -0.013059,0.53044 0.0211218,0.24855 0.0447886,0.46259 0.052601,0.47566 0.0190982,0.0319 2.97931152,0.0306 2.99906382,-10e-4 0.00855,-0.0139 0.032939,-0.23474 0.054218,-0.49092 0.048679,-0.58611 0.051589,-0.58101 -0.3400374,-0.5971 -0.2383015,-0.009 -0.277031,-0.0198 -0.3304716,-0.0858 -0.082317,-0.1017 -0.076049,-0.21345 0.0172,-0.30669 0.070656,-0.0706 0.1028864,-0.0777 0.3541853,-0.0777 0.3254431,0 0.4941189,0.0649 0.6456208,0.24827 0.178784,0.21643 0.1787767,0.18073 5.028e-4,2.36315 -0.098599,1.20701 -0.1823283,2.06479 -0.2117788,2.16952 -0.1110181,0.3948 -0.3363701,0.66739 -0.7006855,0.84757 l -0.2411438,0.11926 -0.6985013,0.007 c -0.5044524,0.005 -0.7336907,-0.004 -0.8251725,-0.0343 z m 1.5612799,-0.51367 c 0.1998171,-0.0996 0.367939,-0.28843 0.4314024,-0.4846 0.040564,-0.1254 0.2399223,-2.25438 0.2399223,-2.56223 v -0.10138 H 2.4134418 0.95670672 v 0.0855 c 0,0.29173 0.19770488,2.42823 0.23695588,2.56065 0.061342,0.20695 0.2274037,0.39888 0.4343678,0.50201 0.16013,0.0798 0.1809211,0.082 0.7854114,0.082 0.6044902,0 0.6252813,-0.002 0.7854103,-0.082 z m 2.0172211,-7.52084 c -0.3573666,-0.0487 -0.6749347,-0.14714 -1.0133814,-0.31412 -1.7287458,-0.85288 -2.2696173,-2.99221 -1.1728315,-4.63894 0.443921,-0.66651 1.1860959,-1.17944 1.917033,-1.32491 0.6047854,-0.12036 0.8237205,-0.0947 0.9492328,0.11114 0.1317988,0.21617 0.071939,0.34881 -0.2529239,0.5604 -0.392312,0.25553 -0.5948859,0.52014 -0.7448629,0.97298 -0.045508,0.13742 -0.1058101,0.26767 -0.1339912,0.28944 -0.090704,0.0701 -0.2492159,0.0485 -0.3218466,-0.0438 -0.082464,-0.10485 -0.082171,-0.11451 0.012725,-0.41371 0.095992,-0.30264 0.2622676,-0.58859 0.4860863,-0.83592 0.093082,-0.10285 0.1552903,-0.18701 0.1382458,-0.18701 -0.078312,0 -0.4853436,0.14414 -0.671284,0.23771 -0.2829106,0.14238 -0.6349452,0.42469 -0.8433466,0.67632 -0.2111821,0.25498 -0.4631611,0.7531 -0.5548765,1.0969 -0.090067,0.33761 -0.098996,1.01032 -0.017398,1.31039 0.2125642,0.78169 0.67911,1.37714 1.3537683,1.72778 0.3640254,0.1892 0.6673642,0.2705 1.0913264,0.29248 0.7750613,0.0402 1.4839253,-0.2193 2.0543839,-0.75204 0.3752279,-0.35043 0.6861798,-0.8826 0.7661766,-1.31125 l 0.023521,-0.12605 -0.2174467,0.19925 c -0.2631511,0.24113 -0.6860911,0.46001 -1.0273938,0.5317 -0.3458545,0.0726 -0.8256512,0.0455 -1.1558871,-0.0654 -0.5349709,-0.17967 -1.0186603,-0.59066 -1.2749272,-1.08329 -0.073869,-0.142 -0.1343052,-0.28615 -0.1343052,-0.32033 0,-0.11143 0.1206089,-0.22902 0.2349011,-0.22902 0.1232103,0 0.1639497,0.0421 0.3059151,0.31668 0.1412174,0.27306 0.4903576,0.62523 0.7494418,0.75597 0.811109,0.40927 1.788428,0.15551 2.2747094,-0.59064 0.06494,-0.0996 0.1467071,-0.21301 0.1817056,-0.25194 0.1488693,-0.16556 0.4601436,-0.10399 0.5489561,0.10855 0.094563,0.22633 -0.026598,0.94465 -0.2381783,1.4121 -0.4259942,0.94115 -1.3474036,1.67271 -2.3409671,1.85865 -0.2611203,0.0489 -0.728197,0.0633 -0.9722822,0.03 z m 1.9043589,-4.11671 c -0.073379,-0.0577 -0.083444,-0.0882 -0.083444,-0.25334 v -0.18772 H 6.8492777 c -0.1650679,0 -0.1956282,-0.0104 -0.2533454,-0.0834 -0.1589118,-0.20203 -0.015156,-0.39159 0.2969762,-0.39159 h 0.1440796 v -0.17417 c 0,-0.21026 0.070041,-0.30085 0.2326033,-0.30085 0.1475863,0 0.218278,0.0894 0.2355582,0.29772 l 0.014102,0.17006 0.1700631,0.0141 c 0.2083701,0.0173 0.2977167,0.0879 0.2977167,0.23555 0,0.16257 -0.090589,0.2326 -0.3008469,0.2326 H 7.5120087 v 0.14409 c 0,0.31212 -0.1895566,0.45588 -0.3915808,0.29697 z m 1.4049622,-1.61278 c -0.094292,-0.0943 -0.084445,-0.26381 0.02011,-0.34605 0.1693976,-0.13324 0.3725795,-0.0395 0.3725795,0.17188 0,0.20907 -0.2478495,0.31901 -0.3926843,0.17417 z"
       id="path3465"
       inkscape:connector-curvature="0" />
    <path
       style="fill:#ffffff;stroke-width:0.00120906;stroke-miterlimit:4;stroke-dasharray:none"
       d="m 5.2762728,287.62259 c -0.3100643,-0.0465 -0.4936682,-0.0933 -0.6948173,-0.17662 -0.761027,-0.31545 -1.3457097,-0.98351 -1.5631105,-1.78601 -0.07584,-0.27996 -0.076393,-0.98018 -0.00103,-1.29558 0.066213,-0.2771 0.316793,-0.79835 0.5098115,-1.0605 0.153077,-0.20792 0.4375459,-0.46209 0.7184904,-0.64199 0.1554895,-0.0996 0.6953127,-0.32885 0.7742341,-0.32885 0.01865,0 -0.044142,0.0946 -0.1395278,0.21024 -0.2670302,0.32375 -0.4997638,0.81865 -0.4997638,1.06276 0,0.10773 0.1161113,0.23051 0.2179922,0.23051 0.057503,0 0.069957,0.0185 0.070145,0.10399 1.262e-4,0.0572 0.00866,0.19755 0.01889,0.31191 0.018587,0.20705 0.018253,0.20816 -0.080815,0.26277 -0.1436425,0.0792 -0.1666335,0.16928 -0.092143,0.36102 0.098725,0.25414 0.3052934,0.54605 0.5385131,0.76098 0.2613738,0.24087 0.4927097,0.38347 0.8042312,0.49572 0.21348,0.077 0.2778883,0.0847 0.7144767,0.0857 0.4411809,0.001 0.4985633,-0.005 0.7121528,-0.0838 0.2493202,-0.0912 0.6086405,-0.30561 0.8355644,-0.49879 l 0.1401713,-0.11933 -0.02349,0.11159 c -0.1132366,0.53789 -0.6084194,1.20986 -1.154042,1.56605 -0.5131837,0.33501 -1.2551134,0.51092 -1.8059356,0.42819 z"
       id="path3469"
       inkscape:connector-curvature="0" />
    <path
       style="fill:#ffffff;stroke-width:0.00120906;stroke-miterlimit:4;stroke-dasharray:none"
       d="m 13.400781,293.17208 c -0.0529,-0.64325 -0.124516,-0.87989 -0.330341,-1.09167 -0.07445,-0.0766 -0.218451,-0.17992 -0.319997,-0.22961 -0.23757,-0.11623 -0.47543,-0.11618 -1.092232,2.2e-4 -1.093075,0.2063 -1.127961,0.20972 -1.576534,0.15438 -0.6488699,-0.08 -0.8838263,-0.026 -1.2042658,0.27706 l -0.1735928,0.16419 -0.022811,-0.15215 c -0.031323,-0.20889 0.0049,-0.75572 0.065524,-0.98837 0.1103954,-0.42382 0.2101663,-0.56883 0.7765196,-1.12867 l 0.526933,-0.52087 0.153911,0.137 c 0.08465,0.0753 0.298991,0.26788 0.476312,0.42786 0.49518,0.44674 0.753352,0.55686 1.305658,0.55686 0.303783,0 0.466516,-0.0408 0.546149,-0.13679 0.0612,-0.0737 0.05647,-0.23754 -0.009,-0.30982 -0.05115,-0.0565 -0.09547,-0.0619 -0.460724,-0.0559 -0.401235,0.006 -0.405505,0.006 -0.596627,-0.0978 -0.172685,-0.0937 -0.740085,-0.56827 -0.940915,-0.78698 l -0.07776,-0.0847 0.09375,-0.0997 c 0.237795,-0.25305 0.773645,-0.71085 0.921569,-0.78735 0.142671,-0.0737 0.203161,-0.0849 0.467797,-0.0861 0.267832,-10e-4 0.325181,0.009 0.482768,0.0862 0.157649,0.0771 0.729397,0.55838 0.95507,0.80391 l 0.07831,0.0852 -0.214269,0.21593 c -0.184029,0.18545 -0.214269,0.23203 -0.214269,0.33012 0,0.14327 0.0801,0.22008 0.229485,0.22008 0.09284,0 0.153607,-0.0362 0.347989,-0.20724 l 0.235503,-0.20724 0.289286,0.27584 c 0.663711,0.63289 0.871427,0.8829 0.986091,1.18685 0.06253,0.16575 0.06917,0.24495 0.06901,0.82319 -1.9e-4,0.71042 -0.0079,0.74345 -0.223401,0.95896 -0.232588,0.23259 -0.314612,0.25527 -0.966278,0.26712 -0.321097,0.006 -0.584202,0.006 -0.584679,6e-5 z"
       id="path3471"
       inkscape:connector-curvature="0" />
    <path
       style="fill:#ffffff;stroke-width:0.00120906;stroke-miterlimit:4;stroke-dasharray:none"
       d="m 11.418289,294.13422 c -1.007212,-0.065 -1.8176894,-0.13259 -1.9277979,-0.1608 -0.1640156,-0.042 -0.3282866,-0.19417 -0.3932478,-0.36427 -0.041221,-0.10795 -0.050828,-0.21225 -0.040742,-0.4427 0.011453,-0.26174 0.024616,-0.31874 0.099872,-0.43247 0.1735197,-0.26221 0.3996198,-0.30517 1.1262837,-0.21399 l 0.351886,0.0441 0.607803,-0.12208 c 1.140537,-0.22909 1.216667,-0.23138 1.425351,-0.0429 0.180467,0.16305 0.206022,0.26999 0.199922,0.83665 -0.0048,0.44276 -0.01246,0.50454 -0.07951,0.63857 -0.05432,0.10859 -0.112048,0.16801 -0.215223,0.22157 -0.156965,0.0815 -0.372989,0.0887 -1.154594,0.0382 z"
       id="path3473"
       inkscape:connector-curvature="0" />
    <path
       style="fill:#ffffff;stroke-width:0.00120906;stroke-miterlimit:4;stroke-dasharray:none"
       d="m 7.2356401,292.5139 -0.2959049,-0.0105 v -0.5762 c 0,-0.63821 0.015521,-0.70332 0.1986801,-0.83374 0.132677,-0.0945 0.3457419,-0.0914 0.7450151,0.0109 l 0.2879069,0.0737 0.00866,0.67979 0.00866,0.67977 -0.3285295,-0.006 c -0.1806917,-0.004 -0.4616872,-0.0114 -0.6244343,-0.0172 z"
       id="path3475"
       inkscape:connector-curvature="0" />
    <path
       style="fill:#ffffff;stroke-width:0.00120906;stroke-miterlimit:4;stroke-dasharray:none"
       d="m 6.496053,293.4105 c 0.016564,-0.0912 0.016407,-0.2197 -3.609e-4,-0.30947 l -0.028694,-0.15359 0.1164075,0.0212 c 0.064022,0.0117 0.5302741,0.0288 1.0361106,0.038 l 0.919702,0.0168 v 0.22101 0.22101 l -0.6477904,8.3e-4 c -0.6008385,7.7e-4 -1.16182,0.0344 -1.3462823,0.0807 -0.076633,0.0192 -0.077134,0.0178 -0.049096,-0.13645 z"
       id="path3477"
       inkscape:connector-curvature="0" />
    <path
       style="fill:#ffffff;stroke-width:0.00120906;stroke-miterlimit:4;stroke-dasharray:none"
       d="m 9.6588572,294.96725 c -1.6047734,-0.0521 -3.2490144,-0.38095 -3.9204632,-0.7841 -0.4016274,-0.24114 -0.458628,-0.34881 -0.2814003,-0.5315 0.1128654,-0.11635 0.5107983,-0.36923 0.5379239,-0.34184 0.00636,0.006 -9.315e-4,0.0765 -0.016209,0.15563 -0.040053,0.2076 -0.00626,0.34219 0.1169603,0.46538 0.1333623,0.13336 0.2629018,0.15948 0.5450749,0.10991 0.1204577,-0.0212 0.626581,-0.0457 1.1247187,-0.0546 l 0.9057053,-0.0161 0.1712303,0.17537 c 0.3088293,0.31632 0.4150911,0.34458 1.5842069,0.42131 1.594662,0.10466 1.936084,0.11799 2.0973,0.0819 0.404059,-0.0905 0.700877,-0.37958 0.811293,-0.79001 0.04374,-0.16262 0.02822,-0.15892 0.770218,-0.18297 0.290306,-0.009 0.581481,-0.0323 0.647055,-0.051 0.06558,-0.0187 0.228468,-0.10692 0.361985,-0.19623 l 0.242759,-0.16237 0.208037,0.1056 c 0.269181,0.13663 0.491533,0.33111 0.491533,0.42993 0,0.25131 -0.56527,0.55565 -1.455529,0.78366 -1.257369,0.32203 -2.893979,0.44852 -4.942403,0.382 z"
       id="path3479"
       inkscape:connector-curvature="0" />
    <path
       style="fill:#ffffff;stroke-width:0.00120906;stroke-miterlimit:4;stroke-dasharray:none"
       d="m 9.3229646,295.98891 c -1.0445979,-0.0724 -1.9139821,-0.23585 -2.239276,-0.42099 -0.1207852,-0.0687 -0.1285007,-0.0822 -0.1376273,-0.23993 -0.00647,-0.11148 0.00271,-0.1671 0.027641,-0.1671 0.020517,0 0.2479987,0.0355 0.5055089,0.079 1.1654957,0.19645 1.7656907,0.24177 3.2061138,0.2421 1.485085,3.4e-4 2.320276,-0.0632 3.370287,-0.25657 0.477104,-0.0878 0.465676,-0.0893 0.465676,0.0592 0,0.23193 -0.211679,0.355 -0.86372,0.50218 -0.184741,0.0417 -0.515833,0.0984 -0.735762,0.12601 -0.787051,0.0988 -2.691481,0.13911 -3.5988381,0.0763 z"
       id="path3481"
       inkscape:connector-curvature="0" />
    <path
       style="fill:#ffffff;stroke-width:0.00120906;stroke-miterlimit:4;stroke-dasharray:none"
       d="m 2.0293219,295.70523 c -0.2604902,-0.0135 -0.3420713,-0.0303 -0.4393065,-0.0907 -0.1708099,-0.1062 -0.332347,-0.30773 -0.3714938,-0.46345 -0.03659,-0.14554 -0.1415919,-1.14416 -0.1957418,-1.86153 -0.018598,-0.24631 -0.040971,-0.52343 -0.0497431,-0.6158 L 0.9571093,292.50581 H 2.4152212 3.873332 l -0.01721,0.16794 c -0.00949,0.0924 -0.025492,0.29031 -0.035599,0.43986 -0.035777,0.52899 -0.1795788,1.93698 -0.2094569,2.05087 -0.040272,0.1535 -0.2540985,0.39163 -0.4224728,0.47047 -0.1531333,0.0716 -0.6034044,0.099 -1.1592656,0.0703 z"
       id="path3483"
       inkscape:connector-curvature="0" />
    <path
       style="fill:#ffffff;stroke-width:0.00120906;stroke-miterlimit:4;stroke-dasharray:none"
       d="m 1.1933455,292.00216 -0.26016269,-0.0107 -0.0198701,-0.0994 c -0.0109312,-0.0547 -0.0290385,-0.25997 -0.0402513,-0.45629 -0.0305405,-0.53474 -0.0855823,-0.49756 0.73674999,-0.49756 0.3936366,0 0.722601,-0.0142 0.7782123,-0.0336 0.092237,-0.0321 0.1691316,-0.1412 0.1691316,-0.23984 0,-0.0364 0.050932,-0.0465 0.2359233,-0.0465 0.3184828,0 0.4358593,0.026 0.4358593,0.0964 0,0.0311 0.025284,0.0876 0.056199,0.12584 0.046259,0.0572 0.1014157,0.0727 0.3119001,0.0878 0.3966479,0.0286 0.3808269,0.006 0.3557051,0.50127 -0.011734,0.23113 -0.029341,0.45042 -0.039125,0.48732 -0.016751,0.0631 -0.046145,0.0683 -0.5002771,0.0879 -0.469483,0.0203 -1.6956279,0.0188 -2.2199879,-0.003 z"
       id="path3485"
       inkscape:connector-curvature="0" />
  </g>
</svg>
