<?xml version="1.0" encoding="UTF-8" standalone="no"?>
<!-- Created with Inkscape (http://www.inkscape.org/) -->

<svg
   xmlns:dc="http://purl.org/dc/elements/1.1/"
   xmlns:cc="http://creativecommons.org/ns#"
   xmlns:rdf="http://www.w3.org/1999/02/22-rdf-syntax-ns#"
   xmlns:svg="http://www.w3.org/2000/svg"
   xmlns="http://www.w3.org/2000/svg"
   xmlns:sodipodi="http://sodipodi.sourceforge.net/DTD/sodipodi-0.dtd"
   xmlns:inkscape="http://www.inkscape.org/namespaces/inkscape"
   width="64"
   height="64"
   viewBox="0 0 16.933333 16.933334"
   version="1.1"
   id="svg8"
   inkscape:version="0.92.5 (2060ec1f9f, 2020-04-08)"
   sodipodi:docname="night_64x64.svg">
  <defs
     id="defs2" />
  <sodipodi:namedview
     id="base"
     pagecolor="#ffffff"
     bordercolor="#666666"
     borderopacity="1.0"
     inkscape:pageopacity="0.0"
     inkscape:pageshadow="2"
     inkscape:zoom="3.959798"
     inkscape:cx="71.186336"
     inkscape:cy="57.389244"
     inkscape:document-units="mm"
     inkscape:current-layer="layer1"
     showgrid="false"
     units="px"
     inkscape:window-width="1208"
     inkscape:window-height="987"
     inkscape:window-x="1992"
     inkscape:window-y="0"
     inkscape:window-maximized="1" />
  <metadata
     id="metadata5">
    <rdf:RDF>
      <cc:Work
         rdf:about="">
        <dc:format>image/svg+xml</dc:format>
        <dc:type
           rdf:resource="http://purl.org/dc/dcmitype/StillImage" />
        <dc:title></dc:title>
      </cc:Work>
    </rdf:RDF>
  </metadata>
  <g
     inkscape:label="Layer 1"
     inkscape:groupmode="layer"
     id="layer1"
     transform="translate(0,-280.06665)">
    <path
       style="fill:#000000;stroke-width:0.03046271"
       d="m 6.5029799,295.39926 c -0.228194,-0.0612 -0.4451949,-0.16467 -0.6092539,-0.29037 -0.075392,-0.0577 -0.1539497,-0.11534 -0.1745666,-0.12795 -0.021185,-0.013 -0.1337508,0.0227 -0.2589329,0.0822 -0.6920769,0.32845 -1.4982774,0.18767 -2.042638,-0.3567 l -0.2092101,-0.2092 -0.1748446,0.049 c -0.2018339,0.0566 -0.5679998,0.0639 -0.8014497,0.0158 -0.088785,-0.0183 -0.2710944,-0.0857 -0.4051305,-0.15009 -1.11107619,-0.53287 -1.36118409,-2.00737 -0.4885193,-2.88003 0.254819,-0.25482 0.6044982,-0.44395 0.9418877,-0.50945 l 0.2096672,-0.0407 0.066753,-0.18436 c 0.1948299,-0.53807 0.642036,-0.97403 1.1660676,-1.13678 0.6328551,-0.19655 1.288542,-0.0425 1.7772301,0.41771 l 0.2013209,0.18956 0.1037963,-0.0778 c 0.1705873,-0.12785 0.5021601,-0.28377 0.7053257,-0.33167 0.2180482,-0.0514 0.7040675,-0.0589 0.9063745,-0.0138 0.7303311,0.16242 1.3381825,0.75277 1.5242753,1.48038 0.0332,0.12982 0.075826,0.24558 0.094735,0.25725 0.018908,0.0117 0.090392,0.0302 0.1588528,0.0411 0.3571887,0.0572 0.7621086,0.38009 0.9479496,0.75613 0.39349,0.79616 -0.03246,1.76353 -0.8828196,2.00497 -0.083774,0.0237 -0.2706993,0.0433 -0.4153943,0.0433 l -0.2630803,-10e-5 -0.084748,0.15239 c -0.1990739,0.35795 -0.6678078,0.70543 -1.1102312,0.82301 -0.2128596,0.0565 -0.6659153,0.0546 -0.8834194,-0.003 z m 3.7316821,-0.33718 c -0.20851,-0.0177 -0.7594025,-0.10812 -0.8041892,-0.13183 -0.029354,-0.0156 -0.00558,-0.0346 0.076153,-0.0611 0.5886242,-0.19071 1.0829092,-0.71185 1.2651592,-1.33391 0.078,-0.26624 0.08346,-0.7362 0.01172,-1.0109 -0.162103,-0.62083 -0.647812,-1.16213 -1.2229107,-1.36285 -0.071892,-0.0252 -0.1053457,-0.0742 -0.1874112,-0.27511 -0.2521194,-0.61723 -0.7190591,-1.1085 -1.3260262,-1.39514 -0.3663236,-0.17299 -0.5595391,-0.2117 -1.0567844,-0.2117 -0.4870065,0 -0.6874714,0.0387 -1.0305014,0.19855 l -0.192777,0.0898 -0.1727757,-0.11708 c -0.3317607,-0.22472 -0.669571,-0.35217 -1.0428083,-0.39332 l -0.1961624,-0.0216 -0.00907,-0.39601 c -0.019165,-0.8362 0.1630517,-1.74315 0.5166334,-2.57151 0.8056672,-1.88749 2.4802681,-3.28881 4.4791578,-3.74825 0.3573915,-0.0821 0.9195591,-0.15356 1.2086851,-0.15356 h 0.236822 l -0.175002,0.35355 c -0.281791,0.56929 -0.465315,1.13484 -0.592083,1.82453 -0.067753,0.36863 -0.093586,1.34304 -0.046506,1.75401 0.3489155,3.0454 2.7226425,5.38917 5.7960645,5.72293 0.162695,0.0177 0.372167,0.0322 0.465493,0.0322 h 0.169681 l -0.111074,0.17515 c -1.099013,1.73318 -2.821421,2.81196 -4.82576,3.02244 -0.27019,0.0283 -0.957181,0.0343 -1.23374,0.0111 z m 3.877444,-5.91549 c -0.160593,-0.30303 -0.10569,-0.2722 -0.581411,-0.32645 l -0.176717,-0.0201 0.215904,-0.22266 c 0.173618,-0.17905 0.212685,-0.23651 0.19947,-0.29331 -0.0248,-0.10656 -0.10764,-0.51442 -0.10764,-0.52989 0,-0.007 0.124273,0.0489 0.276163,0.12515 l 0.276165,0.13871 0.264037,-0.1516 c 0.145221,-0.0834 0.26697,-0.14866 0.270556,-0.14508 0.0036,0.003 -0.01246,0.13633 -0.03566,0.29499 l -0.04218,0.28846 0.228317,0.21795 0.228317,0.21796 -0.146457,0.0313 c -0.08054,0.0173 -0.216319,0.0407 -0.301705,0.0519 l -0.155247,0.0205 -0.134148,0.28657 -0.134149,0.28659 z M 1.8590131,287.78047 c 0.011018,-0.0635 0.031718,-0.17027 0.045999,-0.23727 0.0254,-0.11922 0.022356,-0.12551 -0.1402828,-0.29029 -0.091434,-0.0926 -0.1662439,-0.17691 -0.1662439,-0.1873 0,-0.01 0.093587,-0.0283 0.207972,-0.0398 0.1143844,-0.0115 0.2222895,-0.03 0.2397898,-0.0412 0.0175,-0.0111 0.079787,-0.11575 0.1384169,-0.23242 l 0.1065996,-0.21215 0.1065417,0.2306 0.1065417,0.2306 0.1888429,0.0214 c 0.3013584,0.034 0.302077,0.0356 0.1114037,0.22824 l -0.169696,0.17149 0.041165,0.23669 c 0.022638,0.13018 0.032765,0.23247 0.022505,0.22732 -0.010255,-0.006 -0.1084031,-0.0552 -0.2180994,-0.11124 l -0.1994479,-0.10188 -0.2210179,0.11136 -0.2210183,0.11135 z m 10.1190709,-0.81531 c -0.0862,-0.17577 -0.0911,-0.17862 -0.36902,-0.2148 l -0.148734,-0.0194 0.145499,-0.14772 0.145499,-0.14771 -0.03696,-0.18787 c -0.02033,-0.10332 -0.03079,-0.19403 -0.02324,-0.20157 0.0075,-0.008 0.08982,0.0236 0.182839,0.0692 l 0.169119,0.0829 0.187603,-0.1 0.187605,-0.1 -0.02183,0.20394 -0.02184,0.20395 0.144276,0.14647 0.144277,0.14649 -0.08713,0.0174 c -0.04793,0.01 -0.138447,0.0262 -0.201164,0.037 -0.103761,0.018 -0.121284,0.0358 -0.194552,0.19905 -0.04429,0.0987 -0.08951,0.17942 -0.100474,0.17942 -0.01092,0 -0.05677,-0.075 -0.101755,-0.16679 z m 2.00338,-1.17881 c -0.05433,-0.11124 -0.114969,-0.14587 -0.257182,-0.14665 l -0.07451,-4.7e-4 0.0959,-0.099 c 0.08703,-0.0898 0.09352,-0.10957 0.07011,-0.21323 -0.02885,-0.12777 -0.01251,-0.13711 0.119982,-0.0686 0.08154,0.0421 0.09678,0.0406 0.200784,-0.0207 l 0.112544,-0.0664 -0.02093,0.13956 c -0.01977,0.13188 -0.01567,0.14329 0.07468,0.20763 0.106125,0.0756 0.08099,0.11953 -0.06879,0.12037 -0.06767,3.6e-4 -0.09306,0.024 -0.140298,0.12993 l -0.05768,0.12947 z m -9.3458062,-1.59406 c -0.045798,-0.0961 -0.063138,-0.10667 -0.1747365,-0.10667 H 4.3370275 l 0.08155,-0.10689 c 0.068782,-0.0902 0.078493,-0.12608 0.061977,-0.22934 l -0.019572,-0.12243 0.1171174,0.0597 c 0.1157282,0.0591 0.1181736,0.0591 0.2061231,8.8e-4 0.1251884,-0.0826 0.1380216,-0.0753 0.1156326,0.0647 -0.018225,0.11396 -0.011678,0.13052 0.08279,0.20938 l 0.1025769,0.0857 -0.1307685,0.0221 c -0.109151,0.0184 -0.1389357,0.0392 -0.1801794,0.12571 -0.027175,0.057 -0.058044,0.10366 -0.068587,0.10366 -0.010556,0 -0.04206,-0.048 -0.070023,-0.10656 z"
       id="path6602"
       inkscape:connector-curvature="0" />
  </g>
</svg>
