<?xml version="1.0" encoding="UTF-8" standalone="no"?>
<svg
   xmlns:dc="http://purl.org/dc/elements/1.1/"
   xmlns:cc="http://creativecommons.org/ns#"
   xmlns:rdf="http://www.w3.org/1999/02/22-rdf-syntax-ns#"
   xmlns:svg="http://www.w3.org/2000/svg"
   xmlns="http://www.w3.org/2000/svg"
   xmlns:sodipodi="http://sodipodi.sourceforge.net/DTD/sodipodi-0.dtd"
   xmlns:inkscape="http://www.inkscape.org/namespaces/inkscape"
   width="64"
   height="64"
   viewBox="0 0 16.933333 16.933333"
   version="1.1"
   id="svg8"
   sodipodi:docname="seren_night-light2_64x64.svg"
   inkscape:version="1.0.2-2 (e86c870879, 2021-01-15)">
  <defs
     id="defs2" />
  <sodipodi:namedview
     id="base"
     pagecolor="#ffffff"
     bordercolor="#666666"
     borderopacity="1.0"
     inkscape:pageopacity="0.0"
     inkscape:pageshadow="2"
     inkscape:zoom="5.6568542"
     inkscape:cx="107.26855"
     inkscape:cy="47.486375"
     inkscape:document-units="mm"
     inkscape:current-layer="layer1"
     inkscape:document-rotation="0"
     showgrid="false"
     inkscape:snap-global="false"
     fit-margin-top="0"
     fit-margin-left="0"
     fit-margin-right="0"
     fit-margin-bottom="0"
     inkscape:window-width="1540"
     inkscape:window-height="967"
     inkscape:window-x="1954"
     inkscape:window-y="32"
     inkscape:window-maximized="0"
     units="px" />
  <metadata
     id="metadata5">
    <rdf:RDF>
      <cc:Work
         rdf:about="">
        <dc:format>image/svg+xml</dc:format>
        <dc:type
           rdf:resource="http://purl.org/dc/dcmitype/StillImage" />
        <dc:title></dc:title>
      </cc:Work>
    </rdf:RDF>
  </metadata>
  <g
     inkscape:label="Calque 1"
     inkscape:groupmode="layer"
     id="layer1"
     transform="translate(-44.581036,-28.552681)">
    <text
       xml:space="preserve"
       style="font-style:normal;font-weight:normal;font-size:10.5833px;line-height:1.25;font-family:sans-serif;fill:#000000;fill-opacity:1;stroke:none;stroke-width:0.264583"
       x="51.724785"
       y="39.66518"
       id="text1411"><tspan
         sodipodi:role="line"
         id="tspan1409"
         x="51.724785"
         y="39.66518"
         style="stroke-width:0.264583"></tspan></text>
    <text
       xml:space="preserve"
       style="font-size:4.75019px;line-height:1.25;font-family:sans-serif;fill:#ffffff;stroke-width:0.178132"
       x="49.30521"
       y="43.237057"
       id="text1415"><tspan
         sodipodi:role="line"
         id="tspan1413"
         x="49.30521"
         y="43.237057"
         style="fill:#ffffff;stroke-width:0.178132">H2</tspan></text>
    <path
       style="fill:#000000;stroke-width:0.0696249"
       d="m 52.647626,44.53874 c -0.141067,-0.09573 -0.313132,-0.174063 -0.382357,-0.174063 -0.06925,0 -0.232321,-0.07234 -0.362436,-0.160753 -0.182351,-0.123908 -0.235415,-0.207692 -0.231498,-0.365531 0.0031,-0.122984 -0.04559,-0.241116 -0.121844,-0.295756 -0.144898,-0.103861 -0.165492,-0.295163 -0.04481,-0.415876 0.06314,-0.06311 0.06071,-0.122256 -0.0105,-0.255239 -0.07614,-0.142257 -0.07646,-0.192547 -0.0023,-0.282279 0.07395,-0.08909 0.07418,-0.139914 0.0016,-0.276177 -0.04912,-0.09185 -0.06972,-0.218256 -0.04567,-0.280913 0.02898,-0.07561 -0.02726,-0.173636 -0.16731,-0.291491 -0.25774,-0.216876 -0.414772,-0.506796 -0.415289,-0.766741 -7.84e-4,-0.362947 -0.138944,-0.696396 -0.560352,-1.351795 -0.678247,-1.054859 -0.953629,-1.676956 -1.052379,-2.377383 -0.179632,-1.274111 0.145572,-2.285877 1.014888,-3.157452 0.781556,-0.783594 1.645193,-1.1411 2.756605,-1.1411 1.03549,0 1.9019,0.332062 2.633376,1.009281 0.999651,0.925504 1.376274,2.131845 1.096552,3.512321 -0.131627,0.649624 -0.343071,1.109271 -0.911265,1.980958 -0.470304,0.721514 -0.588372,0.994662 -0.664569,1.53746 -0.05139,0.366225 -0.09506,0.453263 -0.344239,0.686401 -0.229062,0.214313 -0.269287,0.286366 -0.203877,0.365183 0.06314,0.07608 0.05672,0.136021 -0.02859,0.266214 -0.09635,0.147052 -0.09738,0.178578 -0.0082,0.252561 0.131088,0.108794 0.129497,0.236371 -0.0047,0.347442 -0.09518,0.07899 -0.09518,0.100309 0,0.205476 0.141365,0.156205 0.133978,0.233712 -0.03697,0.388447 -0.09867,0.08929 -0.130602,0.179779 -0.102691,0.290991 0.05186,0.206487 -0.233503,0.485258 -0.559231,0.546363 -0.127131,0.02385 -0.33306,0.118548 -0.457607,0.210439 -0.287625,0.212202 -0.463912,0.210631 -0.784587,-0.007 z m 1.185471,-3.404956 c 0.35165,-0.163739 0.357235,-0.171251 0.403665,-0.54284 0.05836,-0.467097 0.264736,-0.919301 0.769007,-1.685024 0.527803,-0.801464 0.717642,-1.240103 0.803325,-1.856102 0.1207,-0.867789 -0.07794,-1.548905 -0.636925,-2.183939 -0.704983,-0.800906 -1.935184,-1.137404 -2.975029,-0.813766 -1.404036,0.436984 -2.154986,1.583978 -1.9591,2.992322 0.08734,0.628001 0.232509,0.965859 0.774373,1.802315 0.530185,0.818439 0.752188,1.303228 0.806397,1.760952 0.04199,0.354195 0.05013,0.365044 0.397703,0.52688 0.488893,0.227648 1.126633,0.227334 1.616584,-7.83e-4 z m -7.353899,-0.459227 c -0.320189,-0.32019 -0.113046,-0.633711 0.74752,-1.131405 0.760531,-0.43984 1.03755,-0.495142 1.277633,-0.255059 0.173992,0.173992 0.135631,0.436673 -0.09733,0.666469 -0.251466,0.248053 -1.385431,0.859245 -1.594181,0.859245 -0.106912,0 -0.257051,-0.06266 -0.33364,-0.13925 z m 11.937758,-0.215214 c -0.708477,-0.40264 -0.909228,-0.575958 -0.973597,-0.840532 -0.06,-0.246647 0.164294,-0.476002 0.465511,-0.476002 0.302298,0 1.571886,0.737595 1.701798,0.988697 0.131988,0.25513 0.122439,0.378625 -0.04199,0.543051 -0.216794,0.216796 -0.477198,0.168136 -1.151724,-0.215214 z M 45.678512,37.182538 c -0.348531,-0.190634 -0.40227,-0.463599 -0.142414,-0.723453 0.164043,-0.164041 0.207465,-0.170898 1.08235,-0.170898 0.874886,0 0.918307,0.0069 1.08235,0.170898 0.260435,0.260435 0.216951,0.531581 -0.112584,0.701989 -0.238251,0.123204 -1.693785,0.139564 -1.909702,0.02146 z m 12.798128,0.01029 c -0.322258,-0.129841 -0.383963,-0.479331 -0.12956,-0.73374 0.164043,-0.164042 0.207473,-0.170898 1.082358,-0.170898 0.874878,0 0.918308,0.0069 1.082343,0.170898 0.260443,0.260434 0.216951,0.531581 -0.112577,0.701989 -0.222027,0.114816 -1.657554,0.138523 -1.922564,0.03175 z M 47.871696,34.358045 c -0.05742,-0.02161 -0.390222,-0.206574 -0.739522,-0.41105 -0.459095,-0.268751 -0.658608,-0.428568 -0.719976,-0.57672 -0.160432,-0.387314 0.08752,-0.68344 0.511705,-0.611139 0.228349,0.03892 1.207288,0.573072 1.448625,0.79043 0.281586,0.253609 0.294746,0.627578 0.02836,0.805463 -0.08821,0.0589 -0.376207,0.06055 -0.529174,0.003 z m 9.775321,8.62e-4 c -0.266459,-0.191563 -0.253722,-0.555355 0.02836,-0.809387 0.241337,-0.217357 1.220284,-0.751509 1.448625,-0.790429 0.424196,-0.0723 0.672137,0.223825 0.511705,0.611139 -0.06165,0.148886 -0.265981,0.311525 -0.746947,0.594588 -0.632523,0.372261 -1.076217,0.513076 -1.241717,0.394089 z m -7.59222,-2.038836 c -0.190662,-0.07693 -0.42118,-0.386669 -0.782113,-1.050852 -0.319343,-0.587667 -0.354117,-0.832058 -0.147741,-1.038433 0.32019,-0.32019 0.633713,-0.113045 1.131404,0.747521 0.49021,0.847624 0.520972,1.132289 0.143833,1.330803 -0.173005,0.09106 -0.148784,0.09029 -0.345383,0.01096 z m 5.580079,-0.01468 c -0.362194,-0.203909 -0.328674,-0.487896 0.156656,-1.327084 0.49769,-0.860566 0.811214,-1.067711 1.131404,-0.747521 0.215243,0.215241 0.169307,0.459644 -0.217696,1.15822 -0.479164,0.864954 -0.74994,1.096776 -1.070364,0.916385 z M 52.83101,31.576685 c -0.210097,-0.08453 -0.294441,-0.430202 -0.294441,-1.206649 0,-0.830264 0.08705,-1.135577 0.347357,-1.218194 0.214013,-0.06792 0.409116,0.02332 0.523714,0.244922 0.143621,0.277735 0.144921,1.666305 0.0016,1.943041 -0.131495,0.254285 -0.331557,0.336214 -0.578448,0.23688 z"
       id="path1491" />
    <path
       style="fill:#ffffff;stroke-width:1.67033;stroke-linecap:round;stroke-miterlimit:4;stroke-dasharray:none"
       d="m 30.237379,47.924454 c -0.748954,-0.189248 -2.35267,-0.965503 -2.505468,-1.212736 -0.05529,-0.08946 -0.215181,-0.761886 -0.35531,-1.494274 -0.321067,-1.678068 -1.094896,-3.356978 -2.8025,-6.080342 -2.543663,-4.056749 -2.953123,-5.132735 -3.082691,-8.100763 -0.10544,-2.415331 0.106046,-3.459069 1.072585,-5.29347 1.165774,-2.212532 3.842879,-4.207781 6.657639,-4.961947 1.372271,-0.367675 3.766521,-0.410325 5.126524,-0.09132 1.881605,0.441352 3.830649,1.530151 5.201167,2.905539 2.14577,2.153397 3.076618,4.603478 2.868928,7.551303 -0.184831,2.623368 -0.937712,4.539879 -3.120347,7.943037 -1.896845,2.957555 -2.659776,4.677674 -2.931113,6.608544 -0.06672,0.474817 -0.260658,1.002644 -0.430963,1.172949 -0.857138,0.857139 -4.101667,1.456958 -5.698451,1.05348 z"
       id="path1493"
       transform="matrix(0.26458333,0,0,0.26458333,44.581036,28.552681)" />
  </g>
</svg>
