<?xml version="1.0" encoding="UTF-8" standalone="no"?>
<svg
   xmlns:dc="http://purl.org/dc/elements/1.1/"
   xmlns:cc="http://creativecommons.org/ns#"
   xmlns:rdf="http://www.w3.org/1999/02/22-rdf-syntax-ns#"
   xmlns:svg="http://www.w3.org/2000/svg"
   xmlns="http://www.w3.org/2000/svg"
   xmlns:sodipodi="http://sodipodi.sourceforge.net/DTD/sodipodi-0.dtd"
   xmlns:inkscape="http://www.inkscape.org/namespaces/inkscape"
   width="64"
   height="64"
   viewBox="0 0 16.933333 16.933333"
   version="1.1"
   id="svg8"
   sodipodi:docname="seren_night-light_64x64.svg"
   inkscape:version="1.0.2-2 (e86c870879, 2021-01-15)">
  <defs
     id="defs2" />
  <sodipodi:namedview
     id="base"
     pagecolor="#ffffff"
     bordercolor="#666666"
     borderopacity="1.0"
     inkscape:pageopacity="0.0"
     inkscape:pageshadow="2"
     inkscape:zoom="5.6568542"
     inkscape:cx="103.34612"
     inkscape:cy="20.878664"
     inkscape:document-units="mm"
     inkscape:current-layer="layer1"
     inkscape:document-rotation="0"
     showgrid="false"
     inkscape:snap-global="false"
     fit-margin-top="0"
     fit-margin-left="0"
     fit-margin-right="0"
     fit-margin-bottom="0"
     inkscape:window-width="1540"
     inkscape:window-height="967"
     inkscape:window-x="1954"
     inkscape:window-y="32"
     inkscape:window-maximized="0"
     units="px" />
  <metadata
     id="metadata5">
    <rdf:RDF>
      <cc:Work
         rdf:about="">
        <dc:format>image/svg+xml</dc:format>
        <dc:type
           rdf:resource="http://purl.org/dc/dcmitype/StillImage" />
        <dc:title></dc:title>
      </cc:Work>
    </rdf:RDF>
  </metadata>
  <g
     inkscape:label="Calque 1"
     inkscape:groupmode="layer"
     id="layer1"
     transform="translate(-44.581036,-28.552681)">
    <text
       xml:space="preserve"
       style="font-style:normal;font-weight:normal;font-size:10.5833px;line-height:1.25;font-family:sans-serif;fill:#000000;fill-opacity:1;stroke:none;stroke-width:0.264583"
       x="51.724785"
       y="39.66518"
       id="text1411"><tspan
         sodipodi:role="line"
         id="tspan1409"
         x="51.724785"
         y="39.66518"
         style="stroke-width:0.264583"></tspan></text>
    <text
       xml:space="preserve"
       style="font-size:4.75019px;line-height:1.25;font-family:sans-serif;fill:#ffffff;stroke-width:0.178132"
       x="49.30521"
       y="43.237057"
       id="text1415"><tspan
         sodipodi:role="line"
         id="tspan1413"
         x="49.30521"
         y="43.237057"
         style="fill:#ffffff;stroke-width:0.178132">H2</tspan></text>
    <path
       style="fill:#000000;stroke-width:0.0708193"
       d="m 45.471533,44.340317 c 0.04182,-0.999404 0.342766,-1.244188 1.529883,-1.244369 0.399244,-6e-5 0.725898,-0.01134 0.725898,-0.02507 0,-0.01373 -0.158874,-0.361778 -0.353054,-0.773439 -1.076431,-2.282031 -1.688867,-5.246254 -1.494722,-7.234531 0.101753,-1.042052 0.223139,-1.619457 0.503134,-2.393262 0.638399,-1.764303 1.978697,-3.099421 3.501806,-3.488272 0.806285,-0.205845 1.637374,-0.09036 2.509142,0.348653 0.384269,0.193515 0.54079,0.236825 0.739392,0.204596 0.500574,-0.08123 0.709432,0.01783 1.462226,0.693503 l 0.714596,0.641393 0.360058,-0.08638 c 0.493039,-0.118278 1.093419,-0.05009 1.61333,0.183232 0.953957,0.42811 1.02271,0.984404 0.262138,2.120991 -1.044937,1.561537 -2.833408,2.597209 -3.410233,1.974806 -0.29984,-0.323532 -0.477978,-0.911176 -0.512772,-1.69153 l -0.03158,-0.708193 -0.694578,-0.709183 c -0.82736,-0.844758 -0.888377,-1.007143 -0.667868,-1.777388 0.03732,-0.130356 -0.01922,-0.175272 -0.440917,-0.350243 -0.407626,-0.169134 -0.58427,-0.200959 -1.122854,-0.202295 -0.594174,-0.0015 -0.678684,0.0172 -1.201444,0.265456 -0.454023,0.215614 -0.680218,0.386414 -1.174544,0.886894 -0.50423,0.510511 -0.670023,0.737843 -0.939857,1.288717 -1.257432,2.567084 -1.036133,5.961541 0.629202,9.651156 0.586235,1.298825 0.420857,1.180281 1.646551,1.180281 0.87307,0 1.08447,0.02115 1.29082,0.129173 0.363586,0.190327 0.56545,0.629934 0.56545,1.2314 v 0.480729 h -3.017089 -3.017089 z m 9.86886,-9.371238 c 1.131042,-0.567096 2.443266,-2.132195 2.443266,-2.914098 0,-0.251082 -0.01711,-0.2366 -1.660289,1.405466 -0.913159,0.912539 -1.643106,1.686966 -1.622103,1.72095 0.05463,0.08839 0.427571,-0.0059 0.839126,-0.212318 z"
       id="path1469" />
    <path
       style="fill:none;stroke:#000000;stroke-width:0.264583px;stroke-linecap:butt;stroke-linejoin:miter;stroke-opacity:1"
       d="m 58.70623,32.808948 2.338609,1.262849"
       id="path1471" />
    <path
       style="fill:none;stroke:#000000;stroke-width:0.264583px;stroke-linecap:butt;stroke-linejoin:miter;stroke-opacity:1"
       d="m 57.583698,34.726607 3.133736,2.666013"
       id="path1473" />
    <path
       style="fill:none;stroke:#000000;stroke-width:0.264583px;stroke-linecap:butt;stroke-linejoin:miter;stroke-opacity:1"
       d="m 55.478951,36.129772 3.414368,5.285255"
       id="path1475" />
  </g>
</svg>
