<?xml version="1.0" encoding="UTF-8" standalone="no"?>
<!-- Created with Inkscape (http://www.inkscape.org/) -->

<svg
   xmlns:dc="http://purl.org/dc/elements/1.1/"
   xmlns:cc="http://creativecommons.org/ns#"
   xmlns:rdf="http://www.w3.org/1999/02/22-rdf-syntax-ns#"
   xmlns:svg="http://www.w3.org/2000/svg"
   xmlns="http://www.w3.org/2000/svg"
   xmlns:sodipodi="http://sodipodi.sourceforge.net/DTD/sodipodi-0.dtd"
   xmlns:inkscape="http://www.inkscape.org/namespaces/inkscape"
   width="64"
   height="64"
   viewBox="0 0 16.933333 16.933334"
   version="1.1"
   id="svg8"
   inkscape:version="0.92.5 (2060ec1f9f, 2020-04-08)"
   sodipodi:docname="none_left_64x64.svg">
  <defs
     id="defs2" />
  <sodipodi:namedview
     id="base"
     pagecolor="#ffffff"
     bordercolor="#666666"
     borderopacity="1.0"
     inkscape:pageopacity="0.0"
     inkscape:pageshadow="2"
     inkscape:zoom="2.8"
     inkscape:cx="-22.484817"
     inkscape:cy="25.346977"
     inkscape:document-units="mm"
     inkscape:current-layer="layer1"
     showgrid="false"
     units="px"
     inkscape:window-width="1208"
     inkscape:window-height="987"
     inkscape:window-x="1992"
     inkscape:window-y="0"
     inkscape:window-maximized="1" />
  <metadata
     id="metadata5">
    <rdf:RDF>
      <cc:Work
         rdf:about="">
        <dc:format>image/svg+xml</dc:format>
        <dc:type
           rdf:resource="http://purl.org/dc/dcmitype/StillImage" />
        <dc:title></dc:title>
      </cc:Work>
    </rdf:RDF>
  </metadata>
  <g
     inkscape:label="Layer 1"
     inkscape:groupmode="layer"
     id="layer1"
     transform="translate(0,-280.06665)">
    <ellipse
       style="fill:#808000;stroke-width:0.00196605;stroke-miterlimit:4;stroke-dasharray:none"
       id="path13849"
       cx="9.1690788"
       cy="286.43478"
       rx="5.3876295"
       ry="5.4247856" />
    <path
       style="fill:#000000;stroke-width:0.0303788"
       d="m 5.8733462,296.39122 c -1.0041736,-0.22601 -1.6536354,-1.22131 -1.4436422,-2.21237 0.1199911,-0.5663 0.4952031,-1.03674 1.0335285,-1.29582 0.2886366,-0.13891 0.4829198,-0.18335 0.7989386,-0.18275 1.2180046,0.002 2.1008714,1.14107 1.7991945,2.32062 -0.1577328,0.61673 -0.630569,1.12067 -1.2310875,1.31208 -0.3048116,0.0971 -0.682034,0.12012 -0.9569319,0.0582 z m 0.5565632,-1.23289 c 0.388158,-0.10779 0.5688835,-0.61672 0.3362706,-0.94695 -0.1939622,-0.27536 -0.5878428,-0.34999 -0.8582338,-0.16261 -0.1391361,0.0964 -0.2777303,0.33986 -0.2774614,0.48735 4.825e-4,0.26318 0.1744065,0.52349 0.4041353,0.60487 0.1560123,0.0553 0.2446722,0.0592 0.3952893,0.0174 z m 4.8508626,1.23289 c -0.285597,-0.0643 -0.667819,-0.26357 -0.87706,-0.45729 -0.9787532,-0.90614 -0.7255722,-2.50591 0.484902,-3.06394 0.297146,-0.13698 0.540974,-0.18188 0.886564,-0.16325 1.562498,0.0842 2.324121,1.97104 1.256734,3.11344 -0.09785,0.10473 -0.261899,0.24553 -0.364546,0.31288 -0.376495,0.24704 -0.95635,0.355 -1.386594,0.25816 z m 0.556563,-1.23289 c 0.388158,-0.10779 0.568884,-0.61672 0.336272,-0.94695 -0.193963,-0.27536 -0.587844,-0.34999 -0.858235,-0.16261 -0.139136,0.0964 -0.27773,0.33986 -0.277461,0.48735 4.83e-4,0.26243 0.178777,0.52736 0.409944,0.60912 0.147807,0.0523 0.237457,0.0554 0.38948,0.0131 z m -7.7578231,-2.90658 c -8.38e-4,-0.0125 -0.3740075,-1.88197 -0.8293124,-4.1543 l -0.8278271,-4.13152 -0.9934153,-0.008 -0.99341601,-0.008 v -0.62236 -0.62234 H 1.9392912 c 0.8270632,0 1.5044191,0.0103 1.5052362,0.0227 8.38e-4,0.0125 0.3740116,1.88197 0.8293208,4.15431 l 0.8278362,4.13151 h 3.9015764 3.9015772 l 0.911964,-2.37101 c 0.50158,-1.30367 0.934401,-2.42709 0.961825,-2.49648 l 0.04987,-0.12614 0.572903,0.22277 c 0.387818,0.1508 0.569848,0.23597 0.563446,0.26363 -0.0052,0.0224 -0.504175,1.32917 -1.108826,2.90376 l -1.099369,2.86289 -4.837824,3.3e-4 c -2.6608026,1.2e-4 -4.8384912,-0.01 -4.8393083,-0.0224 z m 4.5431152,-2.57767 c -1.2286462,-0.27352 -2.1045494,-1.33059 -2.2967915,-2.77185 -0.048875,-0.36645 -0.017165,-1.16106 0.059594,-1.49331 0.2110552,-0.91351 0.6732254,-1.61797 1.3523642,-2.06131 0.7725339,-0.50432 1.7877205,-0.56321 2.6182222,-0.15189 0.838989,0.41552 1.408577,1.20536 1.640181,2.27439 0.06654,0.30714 0.09177,1.06856 0.04662,1.40671 -0.18619,1.39433 -0.983153,2.42605 -2.1290884,2.75624 -0.3066011,0.0883 -0.9821358,0.1098 -1.2910996,0.041 z m 1.0361827,-1.43701 c 0.3748982,-0.17544 0.6620292,-0.57135 0.8062942,-1.11174 0.09189,-0.34422 0.112886,-1.06021 0.04138,-1.41084 -0.103516,-0.50752 -0.261288,-0.82234 -0.5480219,-1.09352 -0.5440685,-0.51456 -1.3560033,-0.39779 -1.7910097,0.25758 -0.2443685,0.36816 -0.3570964,0.81989 -0.3597794,1.44173 -0.00251,0.57602 0.092799,1.00178 0.3058409,1.36661 0.3455854,0.59181 0.9764107,0.81639 1.5453033,0.55018 z"
       id="path13847"
       inkscape:connector-curvature="0" />
    <path
       style="fill:#ffffff;stroke-width:0.00164025;stroke-miterlimit:4;stroke-dasharray:none"
       d="m 5.0021831,290.41847 c -0.063086,-0.31627 -0.1146867,-0.59242 -0.1146693,-0.61369 1.75e-5,-0.0213 0.082303,0.0569 0.1828582,0.1736 0.2532517,0.29401 0.5277138,0.55171 0.8543546,0.80217 L 6.202438,290.9935 H 5.659661 5.1168839 Z"
       id="path13851"
       inkscape:connector-curvature="0" />
    <path
       style="fill:#ffffff;stroke-width:0.00164025;stroke-miterlimit:4;stroke-dasharray:none"
       d="m 12.178457,290.97701 c 0,-0.009 0.112293,-0.1007 0.24954,-0.20363 0.137247,-0.10294 0.371598,-0.30367 0.520779,-0.44607 0.149182,-0.14242 0.27124,-0.24313 0.27124,-0.22379 0,0.0194 -0.07323,0.22744 -0.162744,0.4625 l -0.162743,0.42736 -0.358036,5e-5 c -0.19692,3e-5 -0.358036,-0.008 -0.358036,-0.0164 z"
       id="path13853"
       inkscape:connector-curvature="0" />
    <path
       style="fill:#ffffff;stroke-width:0.00164025;stroke-miterlimit:4;stroke-dasharray:none"
       d="m 5.9725025,290.77325 c -0.3339291,-0.25585 -0.8700827,-0.77954 -1.0218534,-0.9981 -0.089519,-0.12891 -0.1809378,-0.51719 -0.5415572,-2.3001 -0.238622,-1.17977 -0.4366495,-2.20425 -0.4400615,-2.27664 -0.013973,-0.2965 0.3564169,-1.17968 0.7424234,-1.77026 0.2812113,-0.43027 0.898775,-1.07048 1.3357759,-1.38477 1.433761,-1.0312 3.3018657,-1.28702 4.9756223,-0.68139 0.995963,0.36038 1.992207,1.1519 2.61827,2.08021 0.538696,0.79876 0.87942,1.91429 0.88149,2.88598 l 9.08e-4,0.43398 -0.597513,1.55646 -0.597511,1.55646 -0.356903,0.36092 c -0.196297,0.1985 -0.481951,0.45014 -0.634786,0.55921 l -0.277884,0.19829 -2.9021738,-0.002 -2.9021737,-0.002 z m 4.0899215,-1.18073 c 0.699101,-0.25549 1.272707,-0.77792 1.61296,-1.46905 0.319843,-0.64967 0.389235,-0.97324 0.385014,-1.79529 -0.0042,-0.82371 -0.07833,-1.17287 -0.377632,-1.77933 -0.396899,-0.80421 -1.056051,-1.35535 -1.8677836,-1.56168 -0.3043329,-0.0774 -0.8789462,-0.0856 -1.2038978,-0.0175 -0.7989456,0.16776 -1.5219118,0.76056 -1.9258992,1.57914 -0.2993012,0.60646 -0.3734033,0.95562 -0.3776324,1.77933 -0.00419,0.81834 0.065662,1.14739 0.3777825,1.77934 0.3915658,0.79279 1.0377233,1.33906 1.8476659,1.56205 0.3668727,0.10102 1.150176,0.0615 1.5294226,-0.077 z"
       id="path13855"
       inkscape:connector-curvature="0" />
    <path
       style="fill:#ffffff;stroke-width:0.00164025;stroke-miterlimit:4;stroke-dasharray:none"
       d="m 8.9452854,288.30548 c -0.3912167,-0.0956 -0.6889145,-0.36294 -0.8951619,-0.80367 -0.1610799,-0.34422 -0.2114946,-0.62892 -0.2114946,-1.1943 0,-0.79535 0.1907463,-1.33669 0.5969962,-1.69428 0.6928977,-0.60991 1.6540749,-0.22149 1.9746949,0.79798 0.083,0.26395 0.09683,0.40185 0.0941,0.93867 -0.0027,0.53577 -0.01773,0.67085 -0.100973,0.90902 -0.199494,0.57078 -0.5216812,0.91265 -0.9695942,1.02883 -0.2455464,0.0637 -0.2935428,0.0654 -0.4885727,0.0177 z"
       id="path13857"
       inkscape:connector-curvature="0" />
    <path
       style="fill:#ffffff;stroke-width:0.00164025;stroke-miterlimit:4;stroke-dasharray:none"
       d="m 11.361787,295.07162 c -0.0891,-0.0543 -0.17784,-0.1643 -0.232757,-0.28845 -0.07565,-0.17101 -0.08155,-0.22474 -0.03991,-0.3637 0.02687,-0.0897 0.11764,-0.22345 0.201718,-0.29727 0.393778,-0.34574 1.041809,-0.002 0.958953,0.50843 -0.06994,0.43098 -0.529834,0.65936 -0.888006,0.44099 z"
       id="path13859"
       inkscape:connector-curvature="0" />
    <path
       style="fill:#ffffff;stroke-width:0.00164025;stroke-miterlimit:4;stroke-dasharray:none"
       d="m 5.9751791,295.08043 c -0.3800688,-0.20382 -0.4014002,-0.78804 -0.037296,-1.02147 0.2123388,-0.13613 0.5197914,-0.10478 0.713518,0.0728 0.1307829,0.11985 0.1599641,0.17934 0.1756265,0.35803 0.032199,0.36734 -0.2263729,0.66998 -0.5724351,0.66998 -0.072352,0 -0.1980877,-0.0357 -0.2794126,-0.0793 z"
       id="path13861"
       inkscape:connector-curvature="0" />
  </g>
</svg>
