<?xml version="1.0" encoding="UTF-8" standalone="no"?>
<!-- Created with Inkscape (http://www.inkscape.org/) -->

<svg
   xmlns:dc="http://purl.org/dc/elements/1.1/"
   xmlns:cc="http://creativecommons.org/ns#"
   xmlns:rdf="http://www.w3.org/1999/02/22-rdf-syntax-ns#"
   xmlns:svg="http://www.w3.org/2000/svg"
   xmlns="http://www.w3.org/2000/svg"
   xmlns:sodipodi="http://sodipodi.sourceforge.net/DTD/sodipodi-0.dtd"
   xmlns:inkscape="http://www.inkscape.org/namespaces/inkscape"
   width="64"
   height="64"
   viewBox="0 0 16.933333 16.933334"
   version="1.1"
   id="svg8"
   inkscape:version="0.92.5 (2060ec1f9f, 2020-04-08)"
   sodipodi:docname="now_64x64x.svg">
  <defs
     id="defs2" />
  <sodipodi:namedview
     id="base"
     pagecolor="#ffffff"
     bordercolor="#666666"
     borderopacity="1.0"
     inkscape:pageopacity="0.0"
     inkscape:pageshadow="2"
     inkscape:zoom="7.9195959"
     inkscape:cx="55.28806"
     inkscape:cy="40.395082"
     inkscape:document-units="mm"
     inkscape:current-layer="layer1"
     showgrid="false"
     units="px"
     inkscape:window-width="1208"
     inkscape:window-height="987"
     inkscape:window-x="1992"
     inkscape:window-y="0"
     inkscape:window-maximized="1" />
  <metadata
     id="metadata5">
    <rdf:RDF>
      <cc:Work
         rdf:about="">
        <dc:format>image/svg+xml</dc:format>
        <dc:type
           rdf:resource="http://purl.org/dc/dcmitype/StillImage" />
        <dc:title></dc:title>
      </cc:Work>
    </rdf:RDF>
  </metadata>
  <g
     inkscape:label="Layer 1"
     inkscape:groupmode="layer"
     id="layer1"
     transform="translate(0,-280.06665)">
    <path
       style="fill:#000000;stroke-width:0.06873874"
       d="m 5.5284617,296.06411 c -0.7705255,-0.19093 -1.4979883,-0.77723 -1.8414381,-1.48413 -0.2558625,-0.52663 -0.3211519,-1.10715 -0.3208312,-2.85266 2.861e-4,-1.58568 0.040759,-1.93729 0.2565265,-2.2287 0.2622123,-0.35414 0.5635949,-0.49906 0.9777693,-0.47018 0.2079347,0.0145 0.4334545,0.0515 0.5011559,0.0822 0.1139989,0.0517 0.121615,0.0108 0.1031112,-0.55406 L 5.1847703,287.9467 4.5411611,287.9124 C 3.916518,287.879 3.8920628,287.8715 3.71129,287.65463 L 3.5250289,287.43114 H 2.4783555 c -1.1613999,0 -1.3706703,-0.0553 -1.55422335,-0.41017 -0.086203,-0.16671 -0.1042772,-0.54878 -0.1042772,-2.20535 v -2.00372 l 0.23371145,-0.23371 0.2337115,-0.23371 h 1.0962672 1.0962672 l 0.1067929,-0.27187 c 0.064577,-0.16439 0.1977651,-0.32842 0.336936,-0.41494 0.2095867,-0.13029 0.3172563,-0.14132 1.2053631,-0.12338 0.9702664,0.0195 0.9762706,0.0207 1.1824034,0.21839 0.1139513,0.10928 0.2268813,0.28836 0.2509542,0.39797 l 0.043771,0.19928 0.4235558,-0.0451 c 0.817771,-0.0872 1.2570008,-0.2825 2.015465,-0.89612 0.5948157,-0.48122 0.9922803,-0.5955 2.1898443,-0.62965 0.618746,-0.0176 1.142147,1.6e-4 1.306678,0.0445 0.65772,0.17711 1.228417,0.78613 1.312605,1.40075 l 0.04472,0.3265 h 0.725081 c 0.91201,0 1.263029,0.13852 1.462158,0.577 0.07049,0.15523 0.128852,0.36853 0.129682,0.47401 0.0023,0.28488 -0.246318,0.71864 -0.481489,0.84025 -0.172729,0.0893 -0.195212,0.12835 -0.136804,0.23749 0.128858,0.24077 0.08395,0.79017 -0.08229,1.00678 -0.0837,0.10907 -0.191751,0.22292 -0.240107,0.253 -0.07074,0.0441 -0.06919,0.0843 0.008,0.20621 0.237331,0.37504 0.183488,0.8885 -0.12717,1.21275 -0.168452,0.17583 -0.16917,0.18173 -0.05936,0.48711 0.132046,0.36719 0.08577,0.72221 -0.129872,0.99635 -0.260906,0.33169 -0.484566,0.37671 -1.871522,0.37671 h -1.27065 l -0.02042,2.4574 -0.02042,2.45742 -0.265979,0.49777 c -0.400596,0.74971 -0.983708,1.21248 -1.793441,1.42334 -0.5236323,0.13635 -3.6555797,0.14369 -4.1958066,0.01 z m 4.4153862,-0.61708 c 0.4974511,-0.22923 0.9852361,-0.71175 1.2088681,-1.19581 0.142596,-0.30867 0.1508,-0.4316 0.170588,-2.55642 0.01143,-1.2277 0.0032,-2.30203 -0.01818,-2.38742 -0.047,-0.18725 -0.40489,-0.38738 -0.588528,-0.32909 -0.07274,0.0231 -0.194921,0.12165 -0.271519,0.21903 -0.125565,0.15963 -0.13927,0.27678 -0.13927,1.19045 0,0.84077 -0.01855,1.02878 -0.108871,1.10374 -0.07887,0.0654 -0.140433,0.0705 -0.2234001,0.0183 -0.0975,-0.0613 -0.119644,-0.25139 -0.148901,-1.27786 -0.030221,-1.06014 -0.050195,-1.22328 -0.165316,-1.3503 -0.1709206,-0.1886 -0.5431252,-0.19217 -0.7282881,-0.008 -0.1266496,0.12665 -0.1374768,0.22913 -0.1374768,1.30112 0,0.96621 -0.018323,1.18198 -0.1080184,1.27167 -0.135662,0.13566 -0.1982121,0.13566 -0.333874,0 -0.090554,-0.0906 -0.1080184,-0.3175 -0.1080184,-1.40415 v -1.29614 l -0.1811191,-0.14198 c -0.2257455,-0.17757 -0.4430315,-0.18129 -0.6533178,-0.0112 -0.1582762,0.12802 -0.1631251,0.16471 -0.1966465,1.48776 -0.029573,1.16727 -0.050346,1.36655 -0.1489012,1.42856 -0.082986,0.0523 -0.1445154,0.0472 -0.2234003,-0.0182 -0.096115,-0.0798 -0.1088703,-0.42267 -0.1088703,-2.92697 0,-3.15198 0.010797,-3.07787 -0.4594289,-3.16866 -0.1765252,-0.0341 -0.2529581,-0.009 -0.3952483,0.13414 l -0.1764032,0.17641 v 3.60349 c 0,3.84051 0.00281,3.80794 -0.3232077,3.74548 -0.1134449,-0.0217 -0.1264164,-0.15251 -0.1579641,-1.59243 l -0.034367,-1.56875 -0.2244855,-0.20046 c -0.2994348,-0.26737 -0.5795236,-0.26625 -0.8491955,0.003 l -0.2038729,0.20388 0.020126,2.01295 c 0.020072,2.00754 0.020611,2.01397 0.1994105,2.39102 0.3134374,0.66096 0.9420798,1.15725 1.6513486,1.30367 0.1651485,0.0341 1.0735806,0.0562 2.0187375,0.0489 l 1.7184695,-0.0131 0.4285379,-0.19747 z m 4.5673251,-6.91779 c 0.166688,-0.1667 0.199152,-0.24511 0.163628,-0.39525 -0.09091,-0.38421 -0.228432,-0.42789 -1.347198,-0.42789 -0.834308,0 -1.038095,-0.0195 -1.126573,-0.10801 -0.0594,-0.0594 -0.108018,-0.13453 -0.108018,-0.16695 0,-0.0324 0.04861,-0.10754 0.108018,-0.16693 0.08969,-0.0897 0.305455,-0.10801 1.271666,-0.10801 1.071997,0 1.174477,-0.0108 1.301126,-0.13749 0.185172,-0.18517 0.181585,-0.55736 -0.007,-0.72828 -0.128197,-0.11617 -0.27885,-0.13338 -1.335619,-0.15251 -1.283803,-0.0232 -1.426629,-0.0628 -1.271785,-0.35211 0.07262,-0.13569 0.132788,-0.14187 1.382669,-0.14187 1.295753,0 1.308161,-10e-4 1.475465,-0.16872 0.0928,-0.0927 0.168722,-0.24886 0.168722,-0.34682 0,-0.0979 -0.07592,-0.25403 -0.168722,-0.34681 -0.167304,-0.16731 -0.179712,-0.16873 -1.475465,-0.16873 -1.249881,0 -1.310045,-0.006 -1.382669,-0.14187 -0.162503,-0.30365 -0.03584,-0.33065 1.655776,-0.35293 1.514636,-0.02 1.57941,-0.0265 1.724457,-0.17159 0.197454,-0.19763 0.197439,-0.53178 -3.5e-5,-0.72939 -0.147983,-0.14808 -0.194409,-0.15147 -2.536731,-0.18521 -2.226648,-0.0321 -2.387575,-0.0426 -2.409724,-0.15797 -0.05681,-0.29585 0.06794,-0.32321 1.473917,-0.32321 1.498836,0 1.448171,0.0218 1.202784,-0.51838 -0.287312,-0.63251 -0.825525,-0.82627 -2.144851,-0.77217 -0.93047,0.0381 -1.3171541,0.17805 -1.9704882,0.71291 -0.5581423,0.45694 -1.1270429,0.70633 -1.8298249,0.80216 -0.6821079,0.093 -0.6545831,-0.001 -0.3029211,1.03483 0.1745461,0.51413 0.2027997,0.69181 0.1858246,1.16856 -0.011013,0.30922 -0.014392,1.12381 -0.00756,1.8102 l 0.012503,1.24796 0.3996297,-0.0363 c 0.433948,-0.0393 0.7681405,0.0773 0.9205064,0.32126 0.071357,0.11426 0.102798,0.11938 0.2570027,0.0419 0.4473135,-0.22487 0.8489983,-0.17688 1.1809117,0.14111 0.1871191,0.17927 0.1951481,0.18059 0.4279951,0.0701 0.310242,-0.14721 0.57332,-0.1422 0.869541,0.0165 0.210917,0.11305 0.412894,0.12998 1.637832,0.13737 l 1.397248,0.009 z m -9.3050713,-1.35586 -0.021335,-0.25777 -0.3780628,-0.042 c -0.2079347,-0.0231 -0.494059,-0.0911 -0.6358331,-0.15116 -0.287271,-0.12169 -0.2869503,-0.12216 -0.1815016,0.26185 0.115233,0.41965 0.159412,0.4468 0.7267934,0.4468 h 0.5112727 z m -1.7744051,-0.27496 c -4.157e-4,-0.0938 -0.3280253,-1.21519 -0.4367887,-1.49507 -0.1474975,-0.37953 -0.1351846,-0.95791 0.029994,-1.40915 0.1448274,-0.39562 0.3360711,-1.02862 0.3374693,-1.117 4.416e-4,-0.0284 -0.4311504,-0.0516 -0.9591077,-0.0516 -0.8786983,0 -0.9659455,0.0112 -1.0310815,0.13297 -0.043782,0.0818 -0.071163,0.81629 -0.071163,1.90939 0,1.49655 0.016854,1.80049 0.1070089,1.9292 0.1018803,0.14545 0.1529435,0.15277 1.0654504,0.15277 0.5271443,0 0.958339,-0.0232 0.9582105,-0.0516 z m 1.7874403,-0.93988 c 0,-0.37603 0.026712,-0.47327 0.1800353,-0.65549 0.2783181,-0.33076 0.5414729,-0.43805 0.9668114,-0.39415 l 0.3654055,0.0377 v -0.22336 c 0,-0.58577 -0.4350342,-1.23793 -0.9967115,-1.49419 -0.3414707,-0.15579 -0.9791232,-0.1663 -1.3254277,-0.0219 -0.5086836,0.21217 -0.9129366,0.73986 -1.0090654,1.31721 -0.064393,0.38675 0.1021179,0.94111 0.3853918,1.28305 0.2595011,0.31326 0.8111826,0.59099 1.1757913,0.59194 l 0.2577693,7.8e-4 z M 5.08166,282.59424 c 0.3814606,0.002 0.5933718,0.0407 0.814805,0.14865 l 0.2992653,0.14591 -0.045984,-0.24513 c -0.1129883,-0.60228 -0.058962,-0.57415 -1.1024539,-0.57415 -1.0438835,0 -0.9894008,-0.0285 -1.1028793,0.57642 l -0.046416,0.2474 0.3340597,-0.15093 c 0.2513861,-0.11357 0.4616498,-0.15024 0.8496015,-0.14817 z"
       id="path210"
       inkscape:connector-curvature="0" />
    <path
       style="fill:#ffffff;stroke-width:0.00185571;stroke-miterlimit:4;stroke-dasharray:none"
       d="m 1.7099041,286.90431 c -0.1153053,-0.0207 -0.2351161,-0.0632 -0.2662471,-0.0943 -0.031128,-0.0311 -0.076518,-0.32787 -0.1008654,-0.65942 -0.052257,-0.71157 -0.00399,-3.05859 0.065516,-3.18853 0.044224,-0.0826 0.126153,-0.0901 0.9794115,-0.0901 0.8063855,0 0.9311554,0.01 0.9311554,0.0758 0,0.0417 -0.091872,0.35651 -0.2041601,0.69967 -0.3167564,0.96802 -0.3145301,1.15305 0.027586,2.29274 0.1523832,0.50763 0.2691871,0.93082 0.2595659,0.94046 -0.038502,0.0385 -1.4962036,0.0591 -1.6919658,0.0239 z"
       id="path212"
       inkscape:connector-curvature="0" />
    <path
       style="fill:#ffffff;stroke-width:0.00185571;stroke-miterlimit:4;stroke-dasharray:none"
       d="m 4.521803,286.2734 c -0.2353375,-0.0952 -0.5486723,-0.30332 -0.6968253,-0.46275 -0.0592,-0.0637 -0.1696551,-0.24834 -0.2454564,-0.41029 -0.1154186,-0.24658 -0.1376723,-0.35829 -0.13691,-0.68724 7.709e-4,-0.33269 0.021691,-0.4325 0.1367038,-0.65232 0.2905392,-0.55529 0.7224638,-0.86549 1.2869365,-0.92424 0.3881914,-0.0404 0.8582628,0.0788 1.1283687,0.28616 0.4153577,0.31887 0.7069043,0.84903 0.71049,1.29201 l 0.00162,0.198 -0.3392109,-0.0192 c -0.431578,-0.0244 -0.6300503,0.0426 -0.8830138,0.29811 -0.2323986,0.23472 -0.2991876,0.42632 -0.2995742,0.8594 l -2.742e-4,0.30687 -0.2332213,-0.002 c -0.1282714,-10e-4 -0.3215989,-0.0383 -0.4296173,-0.0821 z"
       id="path214"
       inkscape:connector-curvature="0" />
    <path
       style="fill:#ffffff;stroke-width:0.00185571;stroke-miterlimit:4;stroke-dasharray:none"
       d="m 3.9787883,282.59743 c 0.046643,-0.32009 0.1380102,-0.45066 0.3421272,-0.48896 0.2768475,-0.0519 1.5882521,-0.004 1.652356,0.0594 0.05433,0.0544 0.2054276,0.61015 0.1743399,0.64123 -0.00821,0.009 -0.1232756,-0.0339 -0.25572,-0.0936 -0.1814692,-0.0818 -0.3617982,-0.11342 -0.7318,-0.12827 -0.4802659,-0.0193 -0.6719491,0.0167 -1.1237552,0.21141 -0.086084,0.037 -0.090176,0.0228 -0.057548,-0.20114 z"
       id="path216"
       inkscape:connector-curvature="0" />
    <path
       style="fill:#ffffff;stroke-width:0.00185571;stroke-miterlimit:4;stroke-dasharray:none"
       d="m 4.1917965,287.33678 c -0.075568,-0.044 -0.2346324,-0.46082 -0.2346324,-0.61479 0,-0.0433 0.065073,-0.0353 0.233286,0.0286 0.128307,0.0488 0.3437295,0.10333 0.4787155,0.12119 0.5347497,0.0709 0.515476,0.0597 0.515476,0.30018 v 0.21704 l -0.4541675,-0.001 c -0.2497914,-8.2e-4 -0.4921966,-0.0236 -0.5386776,-0.0507 z"
       id="path218"
       inkscape:connector-curvature="0" />
    <path
       style="fill:#ffffff;stroke-width:0.00185571;stroke-miterlimit:4;stroke-dasharray:none"
       d="m 5.8861279,295.58949 c -0.6286283,-0.0716 -1.3708344,-0.60086 -1.6953506,-1.20895 -0.1958054,-0.3669 -0.2273931,-0.72668 -0.2378823,-2.70944 l -0.00939,-1.78167 0.1110048,-0.11816 c 0.293584,-0.31251 0.5598581,-0.32007 0.9254201,-0.0263 l 0.1891037,0.15196 0.03035,1.46255 c 0.016692,0.8044 0.052808,1.52161 0.080254,1.59379 0.070116,0.18442 0.2780892,0.18223 0.3589575,-0.003 0.04322,-0.0994 0.063227,-1.07728 0.075849,-3.70709 l 0.017146,-3.57205 0.1607941,-0.12265 c 0.2672177,-0.20382 0.6155445,-0.14951 0.7284151,0.11357 0.039441,0.0919 0.064825,0.9748 0.083569,2.90613 0.028731,2.96013 0.03387,3.0185 0.2630058,2.98575 0.1889861,-0.027 0.2211697,-0.20569 0.2683439,-1.48966 0.028018,-0.76243 0.067071,-1.26987 0.102906,-1.33682 0.1324153,-0.24742 0.4579831,-0.28754 0.7188361,-0.0885 l 0.165413,0.12618 0.015245,1.29583 c 0.014036,1.19314 0.022652,1.30402 0.1087785,1.39908 0.1188046,0.13117 0.2342524,0.13114 0.3530235,-4e-5 0.084907,-0.0938 0.095802,-0.21192 0.1180833,-1.28088 l 0.024552,-1.17756 0.1377597,-0.11844 c 0.2282439,-0.19625 0.5821045,-0.13337 0.7221522,0.12831 0.027791,0.0519 0.071055,0.57835 0.096126,1.16981 0.02507,0.59145 0.060182,1.13352 0.078018,1.20461 0.03565,0.14203 0.2375897,0.22659 0.3271847,0.137 0.08858,-0.0885 0.130285,-0.4872 0.133356,-1.27451 0.0031,-0.8089 0.04812,-1.01379 0.25416,-1.1581 0.171648,-0.12024 0.364352,-0.099 0.542043,0.0598 l 0.156539,0.13986 0.01967,0.92805 c 0.01082,0.51042 -1.44e-4,1.57168 -0.0244,2.35836 l -0.04407,1.43033 -0.140051,0.28625 c -0.207151,0.4234 -0.698016,0.8907 -1.1990387,1.14147 l -0.4079704,0.20418 -1.6514094,-0.006 c -0.9082755,-0.003 -1.7886798,-0.0224 -1.9564541,-0.0415 z"
       id="path220"
       inkscape:connector-curvature="0" />
    <path
       style="fill:#ffffff;stroke-width:0.00185571;stroke-miterlimit:4;stroke-dasharray:none"
       d="m 11.714822,288.6672 c -0.17553,-0.0185 -0.389855,-0.0705 -0.476278,-0.11577 -0.20187,-0.1056 -0.565374,-0.10527 -0.861284,7.4e-4 l -0.23283,0.0835 -0.135413,-0.1267 c -0.3124775,-0.29238 -0.7076664,-0.36215 -1.1510674,-0.20324 l -0.2300686,0.0825 -0.1382942,-0.14804 C 8.3000749,288.03726 8.0474364,287.96429 7.61095,287.98632 l -0.3641465,0.0184 -0.011564,-0.68834 c -0.00637,-0.37859 -0.011877,-1.20757 -0.012276,-1.84217 l -7.156e-4,-1.15387 -0.2086711,-0.61804 c -0.1147687,-0.33992 -0.2086711,-0.65524 -0.2086711,-0.70072 0,-0.10635 0.1296491,-0.15447 0.6137393,-0.22779 0.6743093,-0.10214 1.1516751,-0.32146 1.8281665,-0.83995 0.6683924,-0.5123 1.0812065,-0.63445 2.1635535,-0.64019 1.183397,-0.006 1.55457,0.15579 1.853788,0.80937 0.09957,0.21748 0.117416,0.30018 0.07414,0.34355 -0.0388,0.0389 -0.459795,0.0662 -1.318954,0.0854 -0.694076,0.0155 -1.301812,0.046 -1.350523,0.0677 -0.06314,0.028 -0.08428,0.0824 -0.07365,0.18935 0.0118,0.11867 0.04476,0.158 0.157589,0.18794 0.07847,0.0208 0.995393,0.0519 2.037612,0.0691 2.294436,0.0379 2.638443,0.0661 2.76177,0.22641 0.101751,0.13228 0.117638,0.46847 0.02767,0.58565 -0.143711,0.18718 -0.270612,0.20435 -1.776744,0.24042 -1.565677,0.0375 -1.695455,0.0579 -1.695455,0.26658 0,0.23441 0.07282,0.2481 1.459982,0.27433 l 1.297827,0.0245 0.143167,0.16035 c 0.187633,0.21014 0.187627,0.40205 -1.9e-5,0.61219 l -0.143187,0.16034 -1.297835,0.0245 c -1.387155,0.0262 -1.459935,0.0399 -1.459935,0.27433 0,0.0663 0.04333,0.1382 0.102334,0.16979 0.05934,0.0317 0.572437,0.0716 1.221263,0.0949 1.33639,0.0479 1.439344,0.0835 1.439344,0.49739 0,0.15075 -0.03195,0.23198 -0.129675,0.32971 l -0.129674,0.12968 -1.190422,0.0312 c -0.654732,0.0172 -1.195437,0.0341 -1.201565,0.0377 -0.0062,0.003 -0.04614,0.0599 -0.08889,0.1252 -0.06489,0.099 -0.06729,0.13543 -0.01447,0.22 0.03481,0.0557 0.0969,0.11619 0.137992,0.13433 0.04108,0.0181 0.527645,0.0484 1.081236,0.0672 0.553593,0.0188 1.046015,0.0512 1.094272,0.0721 0.103899,0.045 0.231404,0.27437 0.231404,0.4163 0,0.0553 -0.0799,0.18893 -0.17756,0.29703 l -0.17756,0.19654 -1.135841,-0.006 c -0.624712,-0.004 -1.279456,-0.022 -1.454985,-0.0405 z"
       id="path222"
       inkscape:connector-curvature="0" />
  </g>
</svg>
