<?xml version="1.0" encoding="UTF-8" standalone="no"?>
<svg
   xmlns:dc="http://purl.org/dc/elements/1.1/"
   xmlns:cc="http://creativecommons.org/ns#"
   xmlns:rdf="http://www.w3.org/1999/02/22-rdf-syntax-ns#"
   xmlns:svg="http://www.w3.org/2000/svg"
   xmlns="http://www.w3.org/2000/svg"
   xmlns:sodipodi="http://sodipodi.sourceforge.net/DTD/sodipodi-0.dtd"
   xmlns:inkscape="http://www.inkscape.org/namespaces/inkscape"
   width="64"
   height="64"
   viewBox="0 0 16.933333 16.933333"
   version="1.1"
   id="svg8"
   inkscape:version="1.0.2-2 (e86c870879, 2021-01-15)"
   sodipodi:docname="seren_nurse_64x64.svg">
  <defs
     id="defs2" />
  <sodipodi:namedview
     id="base"
     pagecolor="#ffffff"
     bordercolor="#666666"
     borderopacity="1.0"
     inkscape:pageopacity="0.0"
     inkscape:pageshadow="2"
     inkscape:zoom="3.8504176"
     inkscape:cx="130.15665"
     inkscape:cy="59.377715"
     inkscape:document-units="mm"
     inkscape:current-layer="layer1"
     inkscape:document-rotation="0"
     showgrid="false"
     inkscape:snap-global="false"
     fit-margin-top="0"
     fit-margin-left="0"
     fit-margin-right="0"
     fit-margin-bottom="0"
     inkscape:window-width="1540"
     inkscape:window-height="967"
     inkscape:window-x="1954"
     inkscape:window-y="32"
     inkscape:window-maximized="0"
     units="px" />
  <metadata
     id="metadata5">
    <rdf:RDF>
      <cc:Work
         rdf:about="">
        <dc:format>image/svg+xml</dc:format>
        <dc:type
           rdf:resource="http://purl.org/dc/dcmitype/StillImage" />
        <dc:title></dc:title>
      </cc:Work>
    </rdf:RDF>
  </metadata>
  <g
     inkscape:label="Calque 1"
     inkscape:groupmode="layer"
     id="layer1"
     transform="translate(-44.581036,-28.552681)">
    <path
       style="fill:#000000;stroke-width:0.0373654"
       d="m 52.553675,45.351243 c -0.555476,-0.06854 -1.19459,-0.285717 -1.682151,-0.571616 -0.811529,-0.475871 -1.614757,-1.295157 -2.147005,-2.189928 l -0.178044,-0.299312 -0.156505,0.08313 c -1.589882,0.58808 -2.582327,-0.544707 -2.915073,-1.753032 0,0 -1.503878,-3.4304 1.775938,-5.527602 0.25293,-0.128169 0.576816,-0.368244 0.62943,-0.466551 0.03539,-0.06613 -0.06549,-0.305732 -0.694709,-1.650017 -0.721389,-1.541211 -0.735708,-1.576557 -0.715996,-1.76755 0.121927,-1.18136 1.985372,-2.046643 5.033379,-2.337227 0.694943,-0.06625 2.436487,-0.05585 3.15738,0.01886 1.90993,0.197937 3.35274,0.630364 4.175262,1.251374 0.37185,0.280748 0.624438,0.678681 0.67649,1.065756 0.02421,0.179999 0.01013,0.214769 -0.708804,1.749581 -0.82895,1.769701 -0.796833,1.635905 -0.45358,1.88948 0.292401,0.21601 0.266043,0.181068 0.896149,0.628634 1.493866,1.1201 2.398719,3.457928 1.423842,5.892571 -0.801056,1.595026 -2.110793,1.492146 -3.026799,0.89758 l -0.118772,-0.08765 -0.121455,0.21472 c -0.874843,1.546613 -2.237089,2.642199 -3.605105,2.899405 -0.403865,0.07593 -0.912842,0.100232 -1.243872,0.05939 z m 1.041728,-0.899267 c 0.900422,-0.163913 1.790724,-0.763228 2.546249,-1.714028 0.528854,-0.665545 1.014846,-1.71727 1.189449,-2.574064 0.121068,-0.59409 0.16758,-0.519172 -0.531611,-0.856282 -1.175597,-0.566805 -1.991403,-1.157189 -2.838597,-2.054241 -0.335848,-0.355614 -0.848438,-1.055771 -0.90622,-1.237827 -0.03171,-0.09992 -0.08252,-0.09992 -0.114232,0 -0.05778,0.182056 -0.570372,0.882213 -0.906222,1.237827 -0.847194,0.897052 -1.662999,1.487436 -2.838596,2.054241 -0.404512,0.195033 -0.607189,0.312435 -0.607189,0.351721 0,0.03243 0.03318,0.221347 0.07373,0.41981 0.373698,1.828918 1.542085,3.452079 2.962477,4.115574 0.647734,0.30257 1.273307,0.384234 1.970762,0.257269 z M 58.05391,32.53246 c 0.322206,-0.691057 0.585828,-1.280739 0.585828,-1.310406 0,-0.09572 -0.255217,-0.355612 -0.502704,-0.511914 -0.56124,-0.354455 -1.538515,-0.665724 -2.655271,-0.845723 -0.348637,-0.05619 -1.352669,-0.164526 -1.540729,-0.16624 -0.0821,-7.49e-4 -0.08407,0.0088 -0.08407,0.407429 v 0.408195 l 0.526442,0.01217 c 0.524099,0.01211 0.526843,0.01263 0.61653,0.117004 0.08472,0.0986 0.09009,0.132417 0.09009,0.568065 0,0.266645 -0.01804,0.502826 -0.04252,0.556538 -0.0621,0.136305 -0.212605,0.171763 -0.72905,0.171763 h -0.461493 v 0.446692 0.446692 l 0.121437,0.01769 c 0.06679,0.0097 0.289582,0.0368 0.495093,0.06015 0.971123,0.110351 1.934406,0.381545 2.578215,0.725849 0.20551,0.109905 0.383266,0.189181 0.395014,0.176168 0.01175,-0.01301 0.284982,-0.589069 0.607189,-1.280125 z m -9.167594,1.05537 c 0.40052,-0.2063 1.043961,-0.418083 1.647471,-0.542249 0.486793,-0.100154 1.342152,-0.208488 1.651071,-0.209114 l 0.177486,-3.53e-4 v -0.448386 -0.448385 h -0.464636 c -0.25555,0 -0.508579,-0.01671 -0.562289,-0.03713 -0.149213,-0.05673 -0.206134,-0.24065 -0.206134,-0.666039 0,-0.66178 0.06006,-0.71672 0.783473,-0.71672 h 0.449586 v -0.415512 -0.415514 l -0.47641,0.02597 c -0.908262,0.04952 -2.02274,0.234926 -2.793066,0.464655 -0.833128,0.248458 -1.51002,0.618451 -1.682312,0.919563 l -0.08552,0.149461 0.438148,0.934136 c 0.240982,0.513775 0.508057,1.082789 0.5935,1.264476 0.08544,0.181687 0.168339,0.324458 0.184211,0.317269 0.01587,-0.0072 0.171311,-0.08644 0.345422,-0.176126 z"
       id="path28"
       sodipodi:nodetypes="sssccccsssssssssccccsssssssssssssssssssssscssssscccsssssscsccccsssscccssscssscc" />
    <path
       style="fill:#ffffff;stroke-width:0.0373654"
       d="m 48.507121,33.682276 c -0.02103,-0.02569 -0.290427,-0.58477 -0.598654,-1.242401 -0.558998,-1.192675 -0.560257,-1.195964 -0.498792,-1.302633 0.159216,-0.276307 0.787169,-0.638345 1.53068,-0.882492 0.742792,-0.243911 1.942417,-0.459558 2.819592,-0.506855 0.210116,-0.01133 0.428269,-0.02778 0.484784,-0.03656 l 0.102755,-0.01596 v 0.410086 0.410085 h -0.449585 c -0.533276,0 -0.677692,0.04399 -0.741052,0.22575 -0.05234,0.150153 -0.05533,0.753816 -0.0046,0.936319 0.06444,0.231993 0.113767,0.252276 0.682958,0.280841 l 0.512318,0.02571 v 0.424018 0.424019 h -0.253769 c -0.902195,0 -2.423657,0.348871 -3.195985,0.732838 -0.181356,0.09016 -0.334831,0.163932 -0.341055,0.163932 -0.0062,0 -0.02852,-0.02102 -0.04956,-0.04671 z"
       id="path30" />
    <path
       style="fill:#ffffff;stroke-width:0.0373654"
       d="m 48.436414,33.547943 c -0.04815,-0.09762 -0.312022,-0.653532 -0.586377,-1.235365 -0.481944,-1.022077 -0.497001,-1.061408 -0.444919,-1.162124 0.165823,-0.320668 0.935208,-0.736212 1.832582,-0.989777 0.707445,-0.199898 1.811816,-0.376692 2.662287,-0.426195 l 0.457727,-0.02664 v 0.402081 0.402081 h -0.44281 c -0.735547,0 -0.790249,0.04927 -0.790249,0.711782 0,0.436824 0.05293,0.640041 0.179351,0.688552 0.03382,0.01298 0.284735,0.03368 0.557596,0.04602 l 0.496112,0.02242 v 0.42394 0.42394 h -0.240961 c -0.262277,0 -0.952556,0.08231 -1.41265,0.168449 -0.684021,0.12806 -1.341007,0.33744 -1.829887,0.583179 -0.158814,0.07983 -0.30259,0.145143 -0.319502,0.145143 -0.01691,0 -0.07015,-0.07987 -0.1183,-0.177486 z"
       id="path34" />
    <path
       style="fill:#ffffff;stroke-width:0.0373654"
       d="M 57.177857,33.668677 C 56.423393,33.27443 55.447788,33.004742 54.272693,32.865601 l -0.382996,-0.04535 v -0.419858 -0.419857 l 0.492266,-0.02189 c 0.645906,-0.02873 0.672338,-0.04615 0.716805,-0.47257 0.04041,-0.387492 0.003,-0.75864 -0.08764,-0.87078 -0.06427,-0.07946 -0.100451,-0.08535 -0.594931,-0.09678 l -0.526504,-0.01217 v -0.389512 -0.389513 h 0.132394 c 0.223902,0 1.17065,0.110333 1.623782,0.189233 0.75774,0.131941 1.510424,0.348701 2.073783,0.597215 0.428676,0.189102 0.878086,0.555376 0.878086,0.715648 0,0.06483 -0.495384,1.163432 -0.901229,1.99863 l -0.275781,0.567539 z"
       id="path36" />
    <path
       style="fill:#ffffff;stroke-width:0.0373654"
       d="m 48.399741,33.473212 c -0.06896,-0.138719 -0.333035,-0.694725 -0.586846,-1.235569 -0.526105,-1.121078 -0.517179,-1.053856 -0.178374,-1.343458 0.657469,-0.561987 2.471936,-1.055308 4.265466,-1.159703 l 0.457727,-0.02664 v 0.402081 0.402081 h -0.449585 c -0.744674,0 -0.80369,0.06194 -0.777865,0.81644 0.01322,0.386361 0.02103,0.422878 0.109241,0.511089 0.08971,0.08971 0.123496,0.09629 0.606604,0.118123 l 0.511605,0.02312 v 0.42394 0.42394 h -0.240961 c -0.898303,0 -2.467164,0.361739 -3.228049,0.744305 -0.166783,0.08386 -0.316819,0.152466 -0.333416,0.152466 -0.0166,0 -0.08659,-0.113498 -0.155547,-0.252217 z"
       id="path38" />
    <path
       style="fill:#ffffff;stroke-width:0.0373654"
       d="M 52.376397,44.424806 C 51.06898,44.145995 49.764553,42.928382 49.093556,41.360451 48.825466,40.734 48.558825,39.713197 48.641913,39.631389 c 0.01942,-0.01912 0.304336,-0.172917 0.633152,-0.341773 1.136245,-0.583496 1.697636,-0.973404 2.442673,-1.696537 0.451055,-0.437794 1.041969,-1.165599 1.203604,-1.482428 l 0.0788,-0.154469 0.108662,0.198704 c 0.165736,0.303071 0.610354,0.876728 0.965992,1.246345 0.708821,0.736685 1.4454,1.266785 2.561258,1.843284 0.701339,0.362339 0.710096,0.368365 0.722507,0.497157 0.03007,0.312019 -0.238108,1.195947 -0.572363,1.886548 -0.646949,1.336653 -1.694131,2.339326 -2.821773,2.701837 -0.517417,0.166338 -1.091668,0.2006 -1.588031,0.09475 z"
       id="path40" />
    <path
       style="fill:#ffffff;stroke-width:0.0373654"
       d="m 52.376397,44.427191 c -1.507646,-0.33526 -2.866716,-1.75032 -3.49568,-3.639694 -0.16669,-0.500726 -0.291348,-1.104302 -0.238804,-1.156255 0.01942,-0.0192 0.340329,-0.193203 0.713136,-0.386674 0.713458,-0.370255 1.267252,-0.714584 1.709442,-1.06287 0.63844,-0.502859 1.610428,-1.588019 1.859224,-2.0757 l 0.07643,-0.149816 0.110292,0.201755 c 0.279593,0.511457 0.932492,1.26235 1.578387,1.815289 0.551125,0.471809 1.103858,0.832346 1.948338,1.270867 l 0.708838,0.368084 0.01192,0.144575 c 0.03889,0.471978 -0.465235,1.816154 -0.970446,2.587554 -0.386919,0.59078 -0.94931,1.168539 -1.500929,1.54194 -0.254934,0.172571 -0.82265,0.431656 -1.108939,0.506078 -0.346581,0.0901 -1.071699,0.108139 -1.401203,0.03487 z"
       id="path42" />
    <path
       style="fill:#ffffff;stroke-width:0.0373654;image-rendering:auto"
       d="m 52.544541,44.463153 c -0.958535,-0.185313 -1.793026,-0.710257 -2.523556,-1.587469 -0.50023,-0.600668 -0.871294,-1.280204 -1.140268,-2.088187 -0.166589,-0.500422 -0.291381,-1.104453 -0.238804,-1.155878 0.01942,-0.01899 0.345709,-0.196523 0.725091,-0.394509 1.139268,-0.594543 1.833943,-1.09652 2.538116,-1.834062 0.392715,-0.411325 0.888686,-1.04373 1.020447,-1.301159 l 0.07458,-0.145707 0.110292,0.201755 c 0.330054,0.603764 1.232505,1.576909 1.974954,2.129664 0.55164,0.410697 0.86325,0.601336 1.634118,0.999731 l 0.626491,0.323781 0.01192,0.145108 c 0.03881,0.472723 -0.464995,1.81632 -0.970446,2.588085 -0.386919,0.59078 -0.94931,1.168539 -1.500929,1.54194 -0.254934,0.172571 -0.82265,0.431656 -1.108939,0.506078 -0.237304,0.06169 -1.041419,0.107878 -1.233059,0.07083 z"
       id="path44" />
    <path
       style="fill:none;stroke:#000000;stroke-width:0.353059;stroke-linecap:round;stroke-linejoin:miter;stroke-miterlimit:4;stroke-dasharray:none;stroke-opacity:1"
       d="m 50.082772,39.753684 c 0,0 1.083894,-1.80451 2.13042,0"
       id="path50" />
    <path
       style="fill:none;stroke:#000000;stroke-width:0.353059;stroke-linecap:round;stroke-linejoin:miter;stroke-miterlimit:4;stroke-dasharray:none;stroke-opacity:1"
       d="m 53.539061,39.775584 c 0,0 1.083895,-1.804511 2.13042,0"
       id="path50-4" />
    <path
       style="fill:none;stroke:#000000;stroke-width:0.353059;stroke-linecap:round;stroke-linejoin:miter;stroke-miterlimit:4;stroke-dasharray:none;stroke-opacity:1"
       d="m 50.923964,42.056662 c 0,0 0.635211,3.176062 5.642181,-1.382521"
       id="path935" />
  </g>
</svg>
