<?xml version="1.0" encoding="UTF-8" standalone="no"?>
<!-- Created with Inkscape (http://www.inkscape.org/) -->

<svg
   xmlns:dc="http://purl.org/dc/elements/1.1/"
   xmlns:cc="http://creativecommons.org/ns#"
   xmlns:rdf="http://www.w3.org/1999/02/22-rdf-syntax-ns#"
   xmlns:svg="http://www.w3.org/2000/svg"
   xmlns="http://www.w3.org/2000/svg"
   xmlns:sodipodi="http://sodipodi.sourceforge.net/DTD/sodipodi-0.dtd"
   xmlns:inkscape="http://www.inkscape.org/namespaces/inkscape"
   width="64"
   height="64"
   viewBox="0 0 16.933333 16.933334"
   version="1.1"
   id="svg8"
   inkscape:version="0.92.5 (2060ec1f9f, 2020-04-08)"
   sodipodi:docname="office_64x64.svg">
  <defs
     id="defs2" />
  <sodipodi:namedview
     id="base"
     pagecolor="#ffffff"
     bordercolor="#666666"
     borderopacity="1.0"
     inkscape:pageopacity="0.0"
     inkscape:pageshadow="2"
     inkscape:zoom="3.959798"
     inkscape:cx="89.168506"
     inkscape:cy="-5.5593598"
     inkscape:document-units="mm"
     inkscape:current-layer="layer1"
     showgrid="false"
     units="px"
     inkscape:window-width="1208"
     inkscape:window-height="987"
     inkscape:window-x="1992"
     inkscape:window-y="0"
     inkscape:window-maximized="1" />
  <metadata
     id="metadata5">
    <rdf:RDF>
      <cc:Work
         rdf:about="">
        <dc:format>image/svg+xml</dc:format>
        <dc:type
           rdf:resource="http://purl.org/dc/dcmitype/StillImage" />
        <dc:title></dc:title>
      </cc:Work>
    </rdf:RDF>
  </metadata>
  <g
     inkscape:label="Layer 1"
     inkscape:groupmode="layer"
     id="layer1"
     transform="translate(0,-280.06665)">
    <path
       style="fill:#ffffff;stroke-width:0.3239595;stroke-miterlimit:4;stroke-dasharray:none"
       d=""
       id="path11271"
       inkscape:connector-curvature="0"
       transform="matrix(0.26458333,0,0,0.26458333,0,280.06665)" />
    <path
       style="fill:#000000;stroke-width:0.03233456"
       d="m 1.570777,296.42965 -0.079366,-0.0794 v -2.50741 -2.50739 H 1.0534247 c -0.42191015,0 -0.44089945,-0.003 -0.51735315,-0.0794 l -0.079365,-0.0794 v -0.87597 -0.87597 l 0.079365,-0.0794 c 0.065184,-0.0652 0.1114108,-0.0794 0.258677,-0.0794 h 0.1793097 v -0.25868 -0.25867 h -0.1793097 c -0.1472662,0 -0.1934934,-0.0142 -0.258677,-0.0794 -0.078722,-0.0787 -0.079365,-0.0843 -0.079365,-0.69665 0,-0.61229 6.478e-4,-0.61795 0.079365,-0.69667 l 0.079365,-0.0794 H 2.0087623 3.402088 l 0.07937,0.0794 c 0.07645,0.0764 0.07936,0.0954 0.07936,0.51736 v 0.43798 h 0.179309 c 0.147266,0 0.193494,0.0142 0.258678,0.0794 0.07645,0.0764 0.07937,0.0954 0.07937,0.51735 v 0.43799 H 5.371558 6.66494 v -0.25868 -0.25867 H 6.482765 c -0.280669,0 -0.427848,-0.0582 -0.61112,-0.24142 -0.327141,-0.32714 -0.327141,-0.74209 0,-1.06923 0.183272,-0.18327 0.330451,-0.24142 0.61112,-0.24142 h 0.182172 v -0.17931 c 0,-0.14726 0.01418,-0.19349 0.07937,-0.25867 l 0.07936,-0.0794 h 1.134649 1.134649 l 0.07937,0.0794 0.07936,0.0794 v 1.21402 1.21402 h 0.258677 0.258676 v -0.43799 c 0,-0.42191 0.003,-0.4409 0.07936,-0.51735 0.06518,-0.0652 0.111411,-0.0794 0.258676,-0.0794 h 0.17931 v -1.47555 c 0,-1.06401 0.01096,-1.51268 0.03933,-1.60865 0.05247,-0.17761 0.320341,-0.44548 0.497949,-0.49795 0.19004,-0.0562 3.908948,-0.0562 4.098988,0 0.177608,0.0525 0.445473,0.32034 0.497949,0.49795 0.02835,0.096 0.03933,0.54464 0.03933,1.60865 v 1.47555 h 0.17931 c 0.147265,0 0.193493,0.0142 0.258676,0.0794 0.07645,0.0764 0.07936,0.0954 0.07936,0.51735 v 0.43799 h 0.17931 c 0.147266,0 0.193494,0.0142 0.258677,0.0794 l 0.07937,0.0794 v 0.87597 0.87598 l -0.07937,0.0794 c -0.07645,0.0764 -0.09544,0.0794 -0.517353,0.0794 h -0.437986 v 2.5074 2.5074 l -0.07936,0.0794 -0.07937,0.0794 h -0.875969 -0.875974 l -0.07936,-0.0794 c -0.06519,-0.0652 -0.07937,-0.11142 -0.07937,-0.25868 v -0.17931 H 8.475677 3.560823 v 0.17931 c 0,0.14726 -0.01418,0.19349 -0.07936,0.25868 l -0.07937,0.0794 H 2.5261185 1.6501451 Z m 1.472693,-2.76607 v -2.32809 H 2.5261168 2.0087637 v 2.32809 2.32808 H 2.5261168 3.04347 Z m 11.899119,0 v -2.32809 h -0.517353 -0.517353 v 2.32809 2.32808 h 0.517353 0.517353 z M 13.39053,293.4049 v -2.06941 H 8.475676 3.560822 v 2.06941 2.06941 h 4.914854 4.914854 z m 2.586765,-3.10412 v -0.51736 H 8.475676 0.97405745 v 0.51736 0.51735 H 8.475676 15.977295 Z M 3.560822,289.0074 v -0.25868 H 2.5261168 1.4914106 v 0.25868 0.25868 H 2.5261168 3.560822 Z m 5.173531,-0.77603 v -1.03471 H 7.958323 7.182294 v 1.03471 1.03471 h 0.776029 0.77603 z m 6.72559,0.77603 v -0.25868 h -2.586766 -2.586766 v 0.25868 0.25868 h 2.586766 2.586766 z M 3.04347,287.97269 v -0.25867 H 2.0087637 0.97405745 v 0.25867 0.25868 H 2.0087637 3.04347 Z m 3.621471,0 v -0.25867 h -0.17931 c -0.215746,0 -0.338043,0.0936 -0.338043,0.25867 0,0.16509 0.122297,0.25868 0.338043,0.25868 h 0.17931 z m 8.277648,-1.21402 v -1.47268 l -0.07937,-0.0794 -0.07937,-0.0794 h -1.910678 -1.910679 l -0.07937,0.0794 -0.07936,0.0794 v 1.47268 1.4727 h 2.069412 2.069413 z m -2.382595,0.89727 c -0.362798,-0.12965 -0.571705,-0.35004 -0.678262,-0.71553 -0.0643,-0.22053 -0.04249,-0.46143 0.06241,-0.68963 0.110195,-0.23971 0.216585,-0.35282 0.450433,-0.47892 0.186079,-0.10035 0.227593,-0.10988 0.478597,-0.10988 0.250954,0 0.292537,0.01 0.478407,0.10977 0.353457,0.19061 0.538794,0.50279 0.538794,0.90756 0,0.41208 -0.19411,0.73339 -0.548437,0.90782 -0.265746,0.13083 -0.54071,0.15502 -0.781948,0.0688 z m 0.517822,-0.50339 c 0.332226,-0.13881 0.413216,-0.57435 0.154846,-0.83273 -0.209741,-0.20974 -0.50923,-0.20974 -0.71897,0 -0.399866,0.39988 0.04134,1.05117 0.564124,0.83273 z m -5.895607,-1.00685 -0.175717,-0.17792 0.209156,-0.21103 c 0.199677,-0.20147 0.209155,-0.21816 0.209155,-0.36817 0,-0.1448 -0.01306,-0.17096 -0.166186,-0.33287 -0.236455,-0.25001 -0.31029,-0.41025 -0.328344,-0.71257 l -0.01496,-0.25059 h 0.259064 0.259064 l 0.01325,0.20806 c 0.01266,0.19882 0.02056,0.2158 0.178036,0.3823 0.249265,0.26356 0.315936,0.41192 0.315936,0.70301 0,0.19257 -0.01575,0.27235 -0.07645,0.38737 -0.07011,0.13284 -0.43884,0.55034 -0.486051,0.55034 -0.01113,0 -0.0993,-0.0801 -0.195946,-0.17793 z m 1.034706,0 -0.175716,-0.17792 0.209155,-0.21103 c 0.199677,-0.20147 0.209155,-0.21816 0.209155,-0.36817 0,-0.1448 -0.01306,-0.17096 -0.166186,-0.33287 -0.236455,-0.25001 -0.31029,-0.41025 -0.328343,-0.71257 l -0.01496,-0.25059 h 0.259064 0.259065 l 0.01325,0.20806 c 0.01266,0.19882 0.02056,0.2158 0.178036,0.3823 0.249265,0.26356 0.315937,0.41192 0.315937,0.70301 0,0.19257 -0.01575,0.27235 -0.07645,0.38737 -0.07011,0.13284 -0.43884,0.55034 -0.486051,0.55034 -0.01113,0 -0.0993,-0.0801 -0.195946,-0.17793 z m -5.2866167,-0.004 c -1.1740923,-0.18231 -2.07654905,-0.98808 -2.38560155,-2.13004 -0.093556,-0.34568 -0.098511,-1.02166 -0.00994,-1.35532 0.2831909,-1.06674 1.04180465,-1.82573 2.10541045,-2.10648 0.320239,-0.0845 0.9790268,-0.0849 1.3086648,-7.3e-4 0.980144,0.25022 1.730228,0.93191 2.035492,1.84991 0.3526,1.06035 0.10181,2.13769 -0.679682,2.91975 -0.382472,0.38275 -0.803274,0.62195 -1.339642,0.76148 -0.194508,0.0506 -0.852797,0.0897 -1.0347062,0.0615 z M 3.04347,285.36972 v -0.24252 h 0.258676 0.258676 v 0.24668 0.24667 l 0.168462,-0.0223 c 0.09266,-0.0123 0.270899,-0.0623 0.396099,-0.11094 0.232942,-0.0906 0.599484,-0.30636 0.599484,-0.3528 0,-0.0143 -0.0728,-0.0976 -0.161773,-0.1852 l -0.161772,-0.15934 0.168752,-0.17088 c 0.09281,-0.094 0.184407,-0.17087 0.203541,-0.17087 0.01914,0 0.09905,0.0655 0.177594,0.14551 0.07854,0.08 0.154504,0.1455 0.168806,0.1455 0.04655,0 0.262162,-0.36623 0.352935,-0.59948 0.04872,-0.12521 0.09864,-0.30345 0.110934,-0.3961 l 0.02234,-0.16846 H 5.359549 5.112875 v -0.25868 -0.25867 h 0.246674 0.246675 l -0.0219,-0.16511 c -0.03813,-0.28741 -0.317512,-0.90762 -0.4441,-0.98586 -0.01844,-0.0114 -0.105093,0.0497 -0.19255,0.1359 l -0.159014,0.15663 -0.184702,-0.18471 -0.184702,-0.1847 0.156623,-0.15902 c 0.08614,-0.0875 0.147296,-0.1741 0.135897,-0.19255 -0.07824,-0.12659 -0.698441,-0.40596 -0.985857,-0.44409 l -0.165103,-0.0219 v 0.24667 0.24668 H 3.30214 3.043464 v -0.24668 -0.24667 l -0.1651024,0.0219 c -0.2874156,0.0381 -0.9076204,0.3175 -0.9858565,0.44409 -0.011399,0.0184 0.049751,0.10509 0.1358961,0.19255 l 0.1566234,0.15902 -0.1847022,0.1847 -0.1847013,0.18471 -0.1590145,-0.15663 c -0.087458,-0.0862 -0.174105,-0.1473 -0.1925501,-0.1359 -0.1265883,0.0782 -0.4059727,0.69845 -0.4440999,0.98586 l -0.0219021,0.16511 H 1.2447332 1.491408 v 0.25867 0.25868 H 1.2447332 0.99805745 l 0.0223461,0.16846 c 0.012294,0.0926 0.062211,0.27089 0.1109335,0.3961 0.090772,0.23325 0.3063832,0.59948 0.3529348,0.59948 0.014303,0 0.090265,-0.0655 0.1688065,-0.1455 0.078539,-0.08 0.1527499,-0.14551 0.1649087,-0.14551 0.039526,0 0.3524444,0.29593 0.3524444,0.33331 0,0.02 -0.069114,0.10694 -0.153589,0.19326 l -0.1535889,0.15695 0.097004,0.0785 c 0.2180961,0.17646 0.75969,0.3943 0.9942878,0.39991 l 0.088921,0.002 z m 0.540361,-1.40063 -0.540361,-0.54376 v -0.70112 -0.70112 h 0.258676 0.258676 v 0.58971 0.58971 l 0.476179,0.47698 0.476179,0.47697 -0.17598,0.17819 c -0.09679,0.098 -0.18431,0.1782 -0.194493,0.1782 -0.01018,0 -0.261677,-0.24469 -0.558876,-0.54376 z"
       id="path11561"
       inkscape:connector-curvature="0" />
    <path
       style="fill:#ffffff;stroke-width:0.00261878;stroke-miterlimit:4;stroke-dasharray:none"
       d="m 2.8885192,285.58509 c -0.24133,-0.0269 -0.7240729,-0.22885 -0.9184445,-0.38405 l -0.086984,-0.0695 0.1504988,-0.164 c 0.082774,-0.0902 0.150498,-0.17259 0.150498,-0.1831 0,-0.0257 -0.335927,-0.35025 -0.3625451,-0.35025 -0.011564,0 -0.056846,0.0373 -0.1006198,0.0829 -0.043778,0.0456 -0.1172241,0.11295 -0.1632166,0.1497 l -0.083626,0.0669 -0.081878,-0.12332 c -0.1773673,-0.26713 -0.3107984,-0.59135 -0.3617434,-0.87898 -0.013346,-0.0754 -0.024276,-0.14033 -0.024276,-0.14435 0,-0.004 0.1091284,-0.007 0.2425091,-0.007 H 1.491201 v -0.26561 -0.26561 H 1.2508891 1.0105779 l 0.01239,-0.0982 c 0.017815,-0.14116 0.113948,-0.44009 0.2058713,-0.64019 0.088924,-0.19356 0.2110125,-0.39336 0.2403581,-0.39336 0.010651,0 0.091647,0.0623 0.1799827,0.13857 0.088336,0.0763 0.1697359,0.13858 0.1808887,0.13858 0.025606,0 0.3540156,-0.32932 0.3540156,-0.355 0,-0.0104 -0.062359,-0.0871 -0.1385767,-0.17024 -0.076218,-0.0832 -0.1385766,-0.16289 -0.1385766,-0.17713 0,-0.0361 0.202982,-0.16523 0.4004498,-0.25484 0.2158076,-0.0979 0.4333262,-0.16826 0.5984575,-0.19344 l 0.1328027,-0.0203 v 0.25056 0.25056 h 0.265606 0.265605 v -0.25056 -0.25056 l 0.132802,0.0198 c 0.262113,0.039 0.841896,0.28254 0.952068,0.39981 l 0.04874,0.0519 -0.09024,0.11299 c -0.04964,0.0622 -0.11791,0.13845 -0.151725,0.16958 l -0.06148,0.0566 0.189449,0.19044 0.189448,0.19044 0.135588,-0.12553 c 0.195454,-0.18095 0.21007,-0.18616 0.282182,-0.10046 0.127386,0.15139 0.341233,0.67472 0.378849,0.92713 l 0.01979,0.1328 H 5.344761 5.094201 v 0.26561 0.26561 h 0.25056 0.250562 l -0.02059,0.1328 c -0.03306,0.21322 -0.101977,0.41829 -0.215025,0.63984 -0.111788,0.21909 -0.206978,0.35906 -0.244169,0.35906 -0.01237,0 -0.08953,-0.0623 -0.171462,-0.13857 -0.08193,-0.0763 -0.159584,-0.13858 -0.172569,-0.13858 -0.03267,0 -0.37019,0.32329 -0.37019,0.35457 0,0.0139 0.07016,0.0965 0.155899,0.18349 l 0.155899,0.15814 -0.08084,0.0684 c -0.180112,0.15252 -0.652319,0.34647 -0.975811,0.40079 l -0.08661,0.0145 v -0.24355 -0.24356 H 3.305031 3.040208 l -0.0065,0.23674 -0.0065,0.23673 z m 1.4552238,-1.2434 0.183852,-0.18493 -0.47887,-0.47928 -0.47887,-0.47928 v -0.59452 -0.59453 H 3.30425 3.038644 v 0.71003 0.71003 l 0.548353,0.54871 c 0.301594,0.30179 0.553873,0.54871 0.560622,0.54871 0.0068,0 0.09501,-0.0832 0.196124,-0.18494 z"
       id="path11563"
       inkscape:connector-curvature="0" />
    <path
       style="fill:#ffffff;stroke-width:0.00261878;stroke-miterlimit:4;stroke-dasharray:none"
       d="m 0.98308955,287.96795 v -0.25406 H 2.0108669 3.038644 v 0.25406 0.25406 H 2.0108669 0.98308955 Z"
       id="path11565"
       inkscape:connector-curvature="0" />
    <path
       style="fill:#ffffff;stroke-width:0.00261878;stroke-miterlimit:4;stroke-dasharray:none"
       d="m 1.4912045,289.00727 v -0.25405 H 2.5189819 3.546759 v 0.25405 0.25406 H 2.5189819 1.4912045 Z"
       id="path11567"
       inkscape:connector-curvature="0" />
    <path
       style="fill:#ffffff;stroke-width:0.00261878;stroke-miterlimit:4;stroke-dasharray:none"
       d="m 0.98308955,290.30066 v -0.50812 H 8.47778 15.97247 v 0.50812 0.50812 H 8.47778 0.98308955 Z"
       id="path11569"
       inkscape:connector-curvature="0" />
    <path
       style="fill:#ffffff;stroke-width:0.00261878;stroke-miterlimit:4;stroke-dasharray:none"
       d="m 2.0224153,293.66114 v -2.32116 H 2.5305302 3.038644 v 2.32116 2.32117 H 2.5305302 2.0224153 Z"
       id="path11571"
       inkscape:connector-curvature="0" />
    <path
       style="fill:#ffffff;stroke-width:0.00261878;stroke-miterlimit:4;stroke-dasharray:none"
       d="m 3.569855,293.40708 v -2.0671 h 4.907925 4.907925 v 2.0671 2.06711 H 8.47778 3.569855 Z"
       id="path11573"
       inkscape:connector-curvature="0" />
    <path
       style="fill:#ffffff;stroke-width:0.00261878;stroke-miterlimit:4;stroke-dasharray:none"
       d="m 13.916916,293.66114 v -2.32116 h 0.508114 0.508115 v 2.32116 2.32117 H 14.42503 13.916916 Z"
       id="path11575"
       inkscape:connector-curvature="0" />
    <path
       style="fill:#ffffff;stroke-width:0.00261878;stroke-miterlimit:4;stroke-dasharray:none"
       d="m 10.290826,289.00727 v -0.25405 h 2.575216 2.575218 v 0.25405 0.25406 h -2.575218 -2.575216 z"
       id="path11577"
       inkscape:connector-curvature="0" />
    <path
       style="fill:#ffffff;stroke-width:0.00261878;stroke-miterlimit:4;stroke-dasharray:none"
       d="m 10.822037,286.74839 v -1.47363 l 0.07616,-0.0738 0.07617,-0.0738 h 1.893869 1.893869 l 0.08552,0.0876 0.08552,0.0876 v 1.45985 1.45986 H 12.87759 10.822036 Z m 2.297104,0.93013 c 0.381509,-0.0994 0.669615,-0.38016 0.750687,-0.73161 0.01257,-0.0545 0.02312,-0.17858 0.02342,-0.27569 0.0014,-0.42981 -0.208956,-0.75554 -0.611483,-0.94695 -0.127512,-0.0606 -0.159835,-0.0659 -0.404833,-0.0659 -0.256229,-10e-6 -0.272542,0.003 -0.433104,0.0799 -0.293565,0.14069 -0.471187,0.3534 -0.568329,0.68063 -0.08145,0.27436 -0.02289,0.60073 0.15416,0.85911 0.233279,0.34045 0.683943,0.50612 1.089474,0.40049 z"
       id="path11579"
       inkscape:connector-curvature="0" />
    <path
       style="fill:#ffffff;stroke-width:0.00261878;stroke-miterlimit:4;stroke-dasharray:none"
       d="m 12.681274,287.13929 c -0.385729,-0.17695 -0.414596,-0.67878 -0.05119,-0.88976 0.213666,-0.12406 0.423988,-0.0916 0.592808,0.0916 0.115659,0.12547 0.139712,0.18487 0.139712,0.345 0,0.15346 -0.02211,0.21347 -0.11951,0.3244 -0.143824,0.16381 -0.371626,0.21602 -0.561826,0.12877 z"
       id="path11581"
       inkscape:connector-curvature="0" />
    <path
       style="fill:#ffffff;stroke-width:0.00261878;stroke-miterlimit:4;stroke-dasharray:none"
       d="m 7.195945,288.23355 v -1.02778 h 0.762173 0.762171 v 1.02778 1.02778 H 7.958118 7.195945 Z"
       id="path11583"
       inkscape:connector-curvature="0" />
    <path
       style="fill:#ffffff;stroke-width:0.00261878;stroke-miterlimit:4;stroke-dasharray:none"
       d="m 6.323187,288.19594 c -0.08686,-0.025 -0.166348,-0.13649 -0.16648,-0.2334 -5.2e-5,-0.0367 0.02712,-0.0936 0.06483,-0.1358 0.06543,-0.0732 0.180356,-0.10803 0.368139,-0.11147 l 0.07506,-0.002 v 0.25405 0.25406 l -0.132803,-0.002 c -0.07304,-8.7e-4 -0.166976,-0.0119 -0.208745,-0.024 z"
       id="path11585"
       inkscape:connector-curvature="0" />
  </g>
</svg>
