<?xml version="1.0" encoding="UTF-8" standalone="no"?>
<!-- Created with Inkscape (http://www.inkscape.org/) -->

<svg
   xmlns:dc="http://purl.org/dc/elements/1.1/"
   xmlns:cc="http://creativecommons.org/ns#"
   xmlns:rdf="http://www.w3.org/1999/02/22-rdf-syntax-ns#"
   xmlns:svg="http://www.w3.org/2000/svg"
   xmlns="http://www.w3.org/2000/svg"
   xmlns:sodipodi="http://sodipodi.sourceforge.net/DTD/sodipodi-0.dtd"
   xmlns:inkscape="http://www.inkscape.org/namespaces/inkscape"
   width="64"
   height="64"
   viewBox="0 0 16.933333 16.933334"
   version="1.1"
   id="svg8"
   inkscape:version="0.92.5 (2060ec1f9f, 2020-04-08)"
   sodipodi:docname="open_64x64.svg">
  <defs
     id="defs2" />
  <sodipodi:namedview
     id="base"
     pagecolor="#ffffff"
     bordercolor="#666666"
     borderopacity="1.0"
     inkscape:pageopacity="0.0"
     inkscape:pageshadow="2"
     inkscape:zoom="2.8"
     inkscape:cx="130.07079"
     inkscape:cy="28.640378"
     inkscape:document-units="mm"
     inkscape:current-layer="layer1"
     showgrid="false"
     units="px"
     inkscape:window-width="1208"
     inkscape:window-height="987"
     inkscape:window-x="1992"
     inkscape:window-y="0"
     inkscape:window-maximized="1"
     showguides="false" />
  <metadata
     id="metadata5">
    <rdf:RDF>
      <cc:Work
         rdf:about="">
        <dc:format>image/svg+xml</dc:format>
        <dc:type
           rdf:resource="http://purl.org/dc/dcmitype/StillImage" />
        <dc:title></dc:title>
      </cc:Work>
    </rdf:RDF>
  </metadata>
  <g
     inkscape:label="Layer 1"
     inkscape:groupmode="layer"
     id="layer1"
     transform="translate(0,-280.06665)">
    <path
       style="fill:#000000;stroke-width:0.02801207"
       d="m 3.9980067,295.75789 c -0.3259355,-0.0554 -0.6997368,-0.32591 -0.8438884,-0.61059 -0.1635927,-0.32306 -0.1565632,-0.17002 -0.1565632,-3.4083 0,-2.65163 0.00488,-2.98957 0.045109,-3.12526 0.063623,-0.21459 0.1369636,-0.34819 0.2720173,-0.49548 0.2252922,-0.24569 0.5024716,-0.37837 0.8663843,-0.41467 l 0.1890813,-0.0189 7.86e-5,-1.27828 c 4.45e-5,-0.73388 0.012882,-1.38567 0.030123,-1.5304 0.1036616,-0.86988 0.4888835,-1.67066 1.0978064,-2.28204 0.5603994,-0.56266 1.1905016,-0.90614 1.9617621,-1.06938 0.3338872,-0.0706 1.0237031,-0.0862 1.3522879,-0.0306 1.374346,0.23284 2.525413,1.19192 2.995756,2.49608 0.158902,0.44061 0.262629,1.18136 0.22191,1.58476 -0.06562,0.65015 -0.487656,1.08707 -1.136363,1.1765 -0.441545,0.0609 -0.9773755,-0.22206 -1.2085371,-0.63812 -0.1085632,-0.19539 -0.1322888,-0.29839 -0.1604416,-0.69654 -0.040072,-0.56673 -0.1491181,-0.8312 -0.462361,-1.12139 -0.585736,-0.54263 -1.5771062,-0.38415 -1.9885582,0.31789 -0.1774546,0.30279 -0.1823765,0.35099 -0.1823765,1.78654 v 1.2915 l 2.6261309,6.4e-4 c 1.6124235,3.3e-4 2.7018215,0.0121 2.8222165,0.0287 0.544012,0.0783 0.974192,0.50389 1.051795,1.04056 0.03469,0.23989 0.03408,5.75983 -6.7e-4,5.97197 -0.05651,0.34509 -0.264405,0.66323 -0.555335,0.84986 -0.317498,0.20367 0.04954,0.1881 -4.5575492,0.19316 -2.2801821,0.002 -4.2061022,-0.005 -4.2798222,-0.0183 z m 8.4770723,-0.79213 c 0.05672,-0.0433 0.128215,-0.12777 0.158885,-0.18796 0.05464,-0.107 0.05575,-0.16846 0.05515,-3.03068 -6.06e-4,-2.80935 -0.0026,-2.92587 -0.05382,-3.03857 -0.03348,-0.0738 -0.09741,-0.14648 -0.172411,-0.19608 l -0.119201,-0.079 -4.0918116,-0.007 c -3.6830198,-0.007 -4.1035751,-0.003 -4.2095574,0.0369 -0.1309349,0.0495 -0.2762605,0.1974 -0.3090333,0.31451 -0.011774,0.0421 -0.021414,1.38749 -0.021414,2.98977 0,2.72842 0.00313,2.91898 0.049319,3.00349 0.062612,0.11445 0.1517846,0.20007 0.2588125,0.24822 0.069522,0.0313 0.7980655,0.0367 4.218,0.0317 l 4.1339648,-0.005 z m -5.1556117,-0.65328 c -0.055627,-0.0274 -0.1117819,-0.0893 -0.1470629,-0.16223 -0.054339,-0.11219 -0.057076,-0.16864 -0.057076,-1.17601 v -1.05809 l -0.127221,-0.14457 c -0.2502016,-0.28433 -0.3763307,-0.63321 -0.3763307,-1.04096 0,-0.45706 0.1397927,-0.79874 0.4585956,-1.12088 0.8565224,-0.86556 2.2695736,-0.51661 2.6673643,0.65868 0.072572,0.21442 0.072763,0.70901 3.508e-4,0.9244 -0.071101,0.21151 -0.1973439,0.43464 -0.343274,0.60672 l -0.12256,0.14458 v 1.06837 c 0,1.17971 -5.423e-4,1.18357 -0.1764357,1.29084 -0.083466,0.0509 -0.1449853,0.0547 -0.888023,0.0542 -0.671138,-3.3e-4 -0.8126821,-0.007 -0.8883312,-0.0448 z m 1.2584938,-1.70151 0.008,-1.01885 0.1996689,-0.21016 c 0.2433618,-0.25616 0.3018014,-0.39977 0.2858895,-0.70254 -0.012414,-0.23618 -0.085814,-0.40792 -0.2409157,-0.5637 -0.5035018,-0.50571 -1.3509162,-0.25027 -1.4939325,0.45029 -0.063062,0.30892 0.073689,0.67136 0.3258822,0.86372 0.1780769,0.13592 0.1810878,0.15635 0.1810878,1.23277 v 0.96732 h 0.3631594 0.3631591 z m -2.4086863,-6.2993 c 0.00971,-1.37909 0.00973,-1.37968 0.079583,-1.60406 0.2145978,-0.68932 0.7596998,-1.21522 1.4547235,-1.40345 0.2429992,-0.0658 0.7313788,-0.0654 0.9804221,6.3e-4 0.5706631,0.1515 1.0434977,0.53033 1.3143126,1.05308 0.15581,0.30076 0.197809,0.46826 0.225915,0.90099 0.03241,0.49903 0.09474,0.63263 0.34371,0.73665 0.277599,0.116 0.566884,2e-5 0.69609,-0.27905 0.10464,-0.22602 0.05022,-0.9572 -0.10514,-1.41258 -0.318498,-0.93359 -1.044152,-1.6611 -1.9727442,-1.97778 -0.5995629,-0.20448 -1.3523542,-0.20553 -1.9478487,-0.003 -0.4541812,0.15462 -0.8166989,0.37825 -1.1786013,0.7269 -0.4759358,0.4585 -0.7740635,1.00019 -0.9055389,1.64535 -0.051077,0.25064 -0.0557,0.38629 -0.0557,1.63451 v 1.36118 h 0.530553 0.5305527 z m 7.5288892,1.47489 c -0.701477,-0.40491 -0.740511,-0.43166 -0.801212,-0.54904 -0.08187,-0.15825 -0.03263,-0.32758 0.12647,-0.43481 0.173144,-0.11669 0.234194,-0.0971 0.910598,0.29156 0.794962,0.45681 0.792384,0.4551 0.842301,0.55921 0.07634,0.15929 0.0561,0.2827 -0.06643,0.40524 -0.0934,0.0933 -0.126024,0.10873 -0.231099,0.10821 -0.105682,-3.3e-4 -0.212008,-0.0523 -0.780631,-0.38044 z m -0.671881,-1.83742 c -0.117034,-0.0795 -0.167548,-0.17054 -0.167963,-0.30277 -5.1e-4,-0.16258 0.08073,-0.25303 0.380703,-0.42427 0.152385,-0.0869 0.465475,-0.26662 0.695756,-0.39917 0.441808,-0.25431 0.558231,-0.28759 0.71048,-0.20312 0.09616,0.0533 0.172994,0.18694 0.173204,0.30111 3.5e-4,0.19588 -0.07741,0.26205 -0.799161,0.68 -0.747602,0.43292 -0.827248,0.46085 -0.993019,0.34822 z"
       id="path8572"
       inkscape:connector-curvature="0" />
    <path
       style="fill:#ffffff;stroke-width:0.00106948;stroke-miterlimit:4;stroke-dasharray:none"
       d="m 3.9817124,294.97851 c -0.052148,-0.0256 -0.128549,-0.0977 -0.1697792,-0.15998 l -0.074963,-0.11324 v -2.95904 c 0,-2.89853 0.00115,-2.96093 0.055999,-3.05165 0.030799,-0.0509 0.1061064,-0.12726 0.1673465,-0.16986 l 0.1113491,-0.0772 4.0912695,-0.009 c 2.2501987,-0.005 4.1202417,-9.6e-4 4.1556507,0.009 0.105585,0.0263 0.285644,0.20904 0.316903,0.32158 0.03939,0.1418 0.03939,5.80904 0,5.95084 -0.01676,0.0602 -0.0756,0.14578 -0.141406,0.20515 l -0.112707,0.10181 -4.1524239,-6.4e-4 c -3.8018096,-6.4e-4 -4.1604297,-0.005 -4.2472385,-0.0474 z m 5.136633,-0.6761 c 0.150524,-0.11151 0.1528926,-0.12934 0.1710725,-1.28998 l 0.016899,-1.07926 0.1414774,-0.18649 c 0.2566946,-0.33837 0.3587589,-0.62959 0.3587589,-1.0237 0,-0.435 -0.1520148,-0.79946 -0.4665051,-1.11849 -0.4115911,-0.41753 -0.9720269,-0.57764 -1.5259779,-0.43597 -0.2894729,0.0741 -0.4649762,0.17343 -0.7074263,0.40067 -0.3572267,0.3348 -0.4975906,0.66112 -0.4975906,1.15677 0,0.42681 0.099414,0.71861 0.3493972,1.02552 l 0.1234568,0.1515 0.014094,1.07406 c 0.015046,1.14665 0.017603,1.16717 0.1619964,1.29784 0.092484,0.0836 0.2373895,0.0964 1.0397481,0.0912 0.7030958,-0.005 0.7448156,-0.007 0.8205974,-0.0639 z"
       id="path8574"
       inkscape:connector-curvature="0" />
    <path
       style="fill:#ffffff;stroke-width:0.00106948;stroke-miterlimit:4;stroke-dasharray:none"
       d="m 5.10958,286.41732 c 2.492e-4,-1.34838 0.016812,-1.60449 0.1286754,-1.99052 0.2478114,-0.85515 0.9439853,-1.64177 1.7642596,-1.99349 0.7716845,-0.33087 1.639606,-0.33058 2.4124642,9.7e-4 0.8602718,0.36886 1.5521238,1.16836 1.7791208,2.0559 0.121207,0.47393 0.142536,1.05972 0.04542,1.24752 -0.147409,0.28506 -0.514314,0.36826 -0.77887,0.17661 -0.141495,-0.1025 -0.186139,-0.24045 -0.22866,-0.70652 -0.03637,-0.3987 -0.08199,-0.57679 -0.215088,-0.83972 -0.2101295,-0.41513 -0.5523848,-0.74323 -0.9820249,-0.94143 -0.3160721,-0.14578 -0.4413385,-0.17123 -0.841216,-0.17123 -0.3990841,0 -0.5263873,0.0258 -0.8347456,0.16916 -0.4359247,0.20264 -0.7516564,0.50557 -0.9739107,0.93442 -0.2130694,0.41115 -0.2075929,0.36379 -0.2217161,1.9171 l -0.012674,1.39359 H 5.6299815 5.1093463 l 2.318e-4,-1.25212 z"
       id="path8576"
       inkscape:connector-curvature="0" />
    <path
       style="fill:#ffffff;stroke-width:0.00106948;stroke-miterlimit:4;stroke-dasharray:none"
       d="m 7.8541043,292.72421 c 0,-0.48811 -0.012899,-0.95549 -0.028662,-1.03861 -0.02442,-0.12882 -0.050786,-0.17228 -0.1781469,-0.29391 -0.1938068,-0.18509 -0.2835818,-0.37035 -0.2977179,-0.61436 -0.016068,-0.27732 0.050254,-0.45107 0.247316,-0.64793 0.1874353,-0.18723 0.3497707,-0.25285 0.6255862,-0.25285 0.15349,0 0.2205704,0.0156 0.361046,0.0862 0.3204933,0.16016 0.466985,0.40301 0.4682679,0.77632 9.569e-4,0.28095 -0.048833,0.38833 -0.3070132,0.66202 l -0.1832639,0.19426 v 1.00816 1.00816 H 8.2078108 7.8541052 Z"
       id="path8578"
       inkscape:connector-curvature="0" />
  </g>
</svg>
