<?xml version="1.0" encoding="UTF-8" standalone="no"?>
<!-- Created with Inkscape (http://www.inkscape.org/) -->

<svg
   xmlns:dc="http://purl.org/dc/elements/1.1/"
   xmlns:cc="http://creativecommons.org/ns#"
   xmlns:rdf="http://www.w3.org/1999/02/22-rdf-syntax-ns#"
   xmlns:svg="http://www.w3.org/2000/svg"
   xmlns="http://www.w3.org/2000/svg"
   xmlns:sodipodi="http://sodipodi.sourceforge.net/DTD/sodipodi-0.dtd"
   xmlns:inkscape="http://www.inkscape.org/namespaces/inkscape"
   width="64"
   height="64"
   viewBox="0 0 16.933333 16.933333"
   version="1.1"
   id="svg8"
   inkscape:version="0.92.5 (2060ec1f9f, 2020-04-08)"
   sodipodi:docname="oral_hygiene_64x64.svg">
  <defs
     id="defs2" />
  <sodipodi:namedview
     id="base"
     pagecolor="#ffffff"
     bordercolor="#666666"
     borderopacity="1.0"
     inkscape:pageopacity="0.0"
     inkscape:pageshadow="2"
     inkscape:zoom="3.959798"
     inkscape:cx="42.617013"
     inkscape:cy="24.858161"
     inkscape:document-units="mm"
     inkscape:current-layer="layer1"
     showgrid="false"
     units="px"
     inkscape:window-width="1208"
     inkscape:window-height="987"
     inkscape:window-x="1992"
     inkscape:window-y="0"
     inkscape:window-maximized="1" />
  <metadata
     id="metadata5">
    <rdf:RDF>
      <cc:Work
         rdf:about="">
        <dc:format>image/svg+xml</dc:format>
        <dc:type
           rdf:resource="http://purl.org/dc/dcmitype/StillImage" />
        <dc:title></dc:title>
      </cc:Work>
    </rdf:RDF>
  </metadata>
  <g
     inkscape:label="Layer 1"
     inkscape:groupmode="layer"
     id="layer1"
     transform="translate(0,-280.06667)">
    <path
       style="fill:#000000;stroke-width:0.06969861"
       d="m 12.66133,296.25806 c -0.505474,-0.13609 -0.748466,-0.27249 -1.143341,-0.64186 l -0.338703,-0.31682 -0.608697,0.185 c -0.9224403,0.28036 -1.2960984,0.33637 -2.2466133,0.33674 -0.9993634,5.4e-4 -1.6881233,-0.12163 -2.5869594,-0.45827 -1.9723219,-0.7387 -3.5681654,-2.30746 -4.3156935,-4.24243 -0.2946252,-0.76265 -0.374886,-1.16386 -0.65629686,-3.28078 l -0.24862211,-1.87026 0.34329151,-0.39136 0.34329146,-0.39138 -0.26926286,-0.26132 c -0.45683923,-0.44333 -0.52336375,-1.06303 -0.1719574,-1.60182 0.1912058,-0.29317 0.66648476,-0.5493 1.01512276,-0.54707 0.2823644,0.002 0.746877,0.2012 0.9182958,0.39418 0.1191805,0.13418 0.1274833,0.13094 0.4659476,-0.18183 0.4515827,-0.41729 0.9891712,-0.7381 1.6197429,-0.96658 0.4572682,-0.16568 0.6104993,-0.18538 1.4521424,-0.18673 0.8623982,-9e-4 0.9884488,0.0153 1.5102542,0.20024 l 0.5693225,0.20176 0.6155533,-0.20176 c 0.5577681,-0.1828 0.7006112,-0.20114 1.521635,-0.19534 0.72903,0.005 0.987251,0.0349 1.321472,0.15227 l 0.41539,0.14589 0.236811,-0.27666 c 0.89547,-1.04615 2.550799,-0.56725 2.647228,0.76588 0.03717,0.51384 -0.06919,0.84436 -0.37658,1.1703 -0.235455,0.24965 -0.237394,0.25664 -0.110819,0.39958 0.07087,0.08 0.448278,0.51082 0.838713,0.95736 l 0.709882,0.8119 -0.248788,1.87151 c -0.275064,2.06917 -0.371579,2.56265 -0.622878,3.1848 l -0.17026,0.42152 0.279357,0.28214 c 0.562704,0.56834 0.851495,1.49651 0.707139,2.27274 -0.1133,0.60923 -0.376481,1.13065 -0.768638,1.5228 -0.392757,0.39275 -0.74531,0.59088 -1.315918,0.73951 -0.488157,0.12715 -0.847867,0.1261 -1.330564,-0.003 z m 1.632188,-0.6219 c 1.364531,-0.61575 1.742231,-2.41042 0.741536,-3.52345 -0.175262,-0.19492 -0.478853,-0.43877 -0.67465,-0.54189 -0.313924,-0.16532 -0.434239,-0.1875 -1.018129,-0.18763 -0.556711,-1.3e-4 -0.709801,0.0252 -0.961497,0.1595 -0.436969,0.23305 -0.796572,0.58374 -1.029229,1.00371 -0.186365,0.3364 -0.204751,0.42917 -0.204445,1.03178 2.89e-4,0.5816 0.02285,0.70485 0.185434,1.01343 0.180139,0.34186 0.656211,0.84296 0.950536,1.00048 0.576979,0.30878 1.384615,0.32649 2.010444,0.0441 z M 12.720046,295.137 c -0.09604,-0.12209 -0.144455,-0.28564 -0.144455,-0.48791 v -0.30423 h -0.304245 c -0.202259,0 -0.365805,-0.0484 -0.48789,-0.14445 -0.163768,-0.12882 -0.183647,-0.19212 -0.183647,-0.58472 0,-0.58036 0.123055,-0.74 0.606204,-0.78643 l 0.353397,-0.034 0.03396,-0.35339 c 0.04643,-0.48315 0.206059,-0.6062 0.786418,-0.6062 0.392606,0 0.455899,0.0198 0.584717,0.18365 0.09604,0.12207 0.144457,0.28563 0.144457,0.48788 v 0.30425 h 0.304243 c 0.202259,0 0.365804,0.0484 0.48789,0.14445 0.166642,0.13108 0.183647,0.1889 0.183647,0.62458 0,0.60735 -0.131528,0.76433 -0.640429,0.76433 h -0.335352 v 0.33536 c 0,0.5089 -0.156976,0.64042 -0.76434,0.64042 -0.43566,0 -0.493492,-0.0169 -0.624573,-0.18364 z m 0.901023,-0.79214 v -0.48789 h 0.487891 0.487889 v -0.24394 -0.24395 H 14.10896 13.621069 v -0.52695 -0.52695 l -0.26137,0.0217 -0.26137,0.0216 -0.0082,0.48788 c -0.0051,0.3064 -0.03752,0.49113 -0.08712,0.4966 -0.04342,0.004 -0.267151,0.0126 -0.497157,0.0174 l -0.418192,0.009 v 0.24394 0.24394 h 0.520553 c 0.436547,0 0.514006,0.0171 0.479999,0.10569 -0.0223,0.0582 -0.01906,0.27767 0.0071,0.48789 0.04741,0.37954 0.04942,0.3822 0.286683,0.3822 h 0.238931 z m -3.8682714,0.8441 c 0.3450084,-0.0713 0.7462464,-0.17974 0.8916414,-0.24072 l 0.264353,-0.11087 -0.123751,-0.22883 c -0.09542,-0.17644 -0.124025,-0.39317 -0.124956,-0.94657 -0.0012,-0.68455 -0.0077,-0.71584 -0.140602,-0.67707 -1.1341612,0.33075 -2.563423,0.41222 -3.574993,0.20379 -1.832531,-0.37761 -3.4988201,-1.55932 -4.4589146,-3.16223 -0.2296579,-0.38342 -0.9116627,-1.83866 -1.1409906,-2.4346 -0.1298663,-0.33749 -0.1201779,-0.0781 0.041476,1.11031 0.1048179,0.77059 0.2437075,1.45966 0.3787322,1.87897 0.7391545,2.29541 2.7451479,4.10813 5.0955117,4.60457 0.8105285,0.17118 2.074324,0.17261 2.8924925,0.003 z m -1.7226028,-3.09188 -0.019863,-0.71441 H 7.3133465 6.6163605 l -0.020058,0.60427 -0.020057,0.60428 0.4033992,0.083 c 0.2218695,0.0456 0.4347633,0.0928 0.4730973,0.10461 0.038335,0.0119 0.1884123,0.0241 0.3335063,0.0272 l 0.2638087,0.005 -0.019862,-0.71441 z m 1.3787329,0.64082 c 0.7155263,-0.1273 0.6653643,-0.0688 0.6427213,-0.75091 l -0.02005,-0.60432 H 9.3346059 8.6376197 l -0.019866,0.71441 -0.019866,0.71442 h 0.1987338 c 0.1093039,0 0.3848387,-0.0332 0.6123005,-0.0737 z m -3.3153069,-0.99124 c 0,-0.89015 -0.051307,-0.95643 -0.7403693,-0.95643 -0.7026679,0 -0.7929995,0.0555 -0.7929995,0.48723 v 0.34293 l 0.4704653,0.27488 c 0.6383316,0.37298 0.87271,0.49194 0.9757803,0.49524 0.063639,0.002 0.087123,-0.17152 0.087123,-0.64385 z m 4.8319012,0.46398 c 0.432597,-0.52139 0.71437,-0.80652 0.926684,-0.93773 0.45878,-0.28356 0.236603,-0.48268 -0.538545,-0.48268 -0.718198,0 -0.759331,0.0496 -0.759331,0.91688 0,0.57812 0.01729,0.68619 0.109823,0.68619 0.0604,0 0.178017,-0.0822 0.261369,-0.18266 z m -6.8531604,-1.38059 c 0,-0.18767 -0.042932,-0.35159 -0.109526,-0.41818 -0.1084501,-0.1085 -0.6571582,-0.15809 -0.6571582,-0.0594 0,0.0464 0.7027714,0.7863 0.7468787,0.7863 0.010893,0 0.019804,-0.13891 0.019804,-0.30868 z m 10.8265564,-0.31958 c 0.169487,-0.50215 0.589728,-3.03358 0.515865,-3.10745 -0.01154,-0.0115 -0.158098,0.29892 -0.325689,0.68991 -0.460188,1.07361 -0.888229,1.91486 -1.192682,2.34402 l -0.2737,0.38582 0.330246,0.0746 c 0.181635,0.041 0.392977,0.11114 0.469644,0.15573 0.07667,0.0446 0.170763,0.0724 0.209096,0.0618 0.03833,-0.0109 0.158583,-0.28262 0.26722,-0.60449 z m -6.1567503,0.33348 c 0.134169,-0.0388 0.49937,-0.0547 0.8115555,-0.0354 0.5407538,0.0335 0.5717358,0.0274 0.6548028,-0.12781 0.158499,-0.29617 0.492517,-0.39358 1.259242,-0.36723 0.619324,0.0213 0.695635,0.0109 0.731611,-0.10308 0.08005,-0.25268 0.443466,-0.39542 1.007516,-0.3957 l 0.526758,-2.6e-4 0.216261,-0.43561 c 0.185364,-0.37338 0.777797,-1.6867 1.209133,-2.68042 l 0.127289,-0.29324 -0.377283,-0.21588 -0.377283,-0.21586 -0.217246,0.16063 c -0.195152,0.14429 -0.293524,0.16063 -0.967376,0.16063 -0.518694,0 -0.784319,-0.0285 -0.860937,-0.092 -0.08797,-0.0731 -0.143173,-0.0746 -0.26783,-0.007 -0.261531,0.13997 -1.308627,0.16915 -1.605661,0.0448 -0.220646,-0.0924 -0.291525,-0.094 -0.522741,-0.0115 -0.3416195,0.12181 -1.1659628,0.12297 -1.5046332,0.002 -0.2182906,-0.0778 -0.3044491,-0.0778 -0.5227397,0 -0.3362749,0.12001 -1.1622449,0.12001 -1.4985197,0 -0.2182904,-0.0778 -0.3044489,-0.0778 -0.5227395,0 -0.3418158,0.12197 -1.1640357,0.1193 -1.5127885,-0.004 -0.2158508,-0.0769 -0.2975439,-0.08 -0.3766298,-0.0143 -0.064875,0.0539 -0.3692602,0.0837 -0.8511242,0.0837 -0.6738517,0 -0.7722244,-0.0163 -0.9673775,-0.16063 l -0.2172442,-0.16061 -0.3772831,0.21586 -0.3772831,0.21586 0.1272875,0.29324 c 0.4313376,0.99375 1.0237708,2.30705 1.2091348,2.68044 l 0.2162605,0.43561 0.5267572,2.6e-4 c 0.5640487,2.8e-4 0.9274641,0.14301 1.0075168,0.3957 0.035976,0.11356 0.1122864,0.12431 0.7316105,0.10297 0.7660379,-0.0262 1.1007478,0.071 1.2587246,0.36627 0.082704,0.15452 0.114286,0.16046 0.6896511,0.12982 0.427301,-0.0227 0.684205,-0.002 0.8817725,0.0705 0.1533372,0.0565 0.325841,0.0873 0.3833426,0.0686 0.057501,-0.0188 0.2143234,-0.0658 0.3484931,-0.10459 z m -2.2374729,-0.69988 c -0.1302547,-0.087 -0.3145491,-0.30478 -0.4095419,-0.48383 l -0.1727145,-0.32556 -1.306059,-0.0215 c -1.1421928,-0.0188 -1.3216534,-0.037 -1.4303531,-0.14575 -0.1041053,-0.10405 -0.1279535,-0.27414 -0.1468236,-1.047 -0.020916,-0.85673 -0.011825,-0.93636 0.1270312,-1.11289 l 0.149561,-0.19015 h 4.4905003 c 5.2135138,0 4.7692958,-0.0682 4.7692958,0.73185 0,0.78086 0.210161,0.73183 -3.1364379,0.73183 h -2.857642 v 0.2684 c 0,0.14761 -0.033522,0.36455 -0.074492,0.48207 -0.0587,0.16839 -0.051159,0.25881 0.035571,0.42653 0.2014735,0.3896 0.5483615,0.46053 0.9462482,0.19347 0.3014751,-0.20235 0.651459,-0.325 0.9274628,-0.325 0.1160057,0 0.4407097,-0.11353 0.7215622,-0.25231 0.453097,-0.22388 0.5571467,-0.24895 0.9233087,-0.22246 0.299183,0.0217 0.503659,0.0863 0.743555,0.23489 0.391343,0.2425 0.423042,0.30684 0.253997,0.5156 l -0.127477,0.15743 -0.341501,-0.21657 c -0.446952,-0.28345 -0.7688488,-0.28571 -1.2528574,-0.009 -0.2242295,0.12828 -0.5355288,0.23219 -0.8136552,0.27158 -0.3042381,0.0431 -0.5611988,0.13401 -0.7915526,0.2801 -0.4311151,0.27341 -0.8734203,0.29432 -1.2269858,0.058 z m -2.4671822,-1.5842 c 0,-0.23232 -0.011617,-0.24393 -0.2439452,-0.24393 -0.2021943,0 -0.2478705,0.0277 -0.2668815,0.16189 -0.039468,0.27857 0.036515,0.37169 0.283827,0.34786 0.2087955,-0.02 0.2269997,-0.0415 0.2269997,-0.26582 z m 1.0106294,0 c 0,-0.27214 -0.00581,-0.27879 -0.2439449,-0.27879 -0.2381371,0 -0.2439451,0.006 -0.2439451,0.27879 0,0.27217 0.00581,0.27881 0.2439451,0.27881 0.2381369,0 0.2439449,-0.006 0.2439449,-0.27881 z m 1.0106297,0 c 0,-0.23232 -0.011617,-0.24393 -0.2439451,-0.24393 -0.2021943,0 -0.2478707,0.0277 -0.2668816,0.16189 -0.039469,0.27857 0.036515,0.37169 0.2838267,0.34786 0.2087962,-0.02 0.227,-0.0415 0.227,-0.26582 z m 6.0289273,-1.01062 v -0.24394 H 7.8012364 3.5147731 v 0.24394 0.24393 h 4.2864633 4.2864626 z m -2.9970388,2.50916 c 0,-0.23234 0.011614,-0.24396 0.2439457,-0.24396 0.2323278,0 0.2439451,0.0116 0.2439451,0.24396 0,0.23232 -0.011619,0.24393 -0.2439451,0.24393 -0.2323294,0 -0.2439457,-0.0116 -0.2439457,-0.24393 z m -2.0212591,-0.97579 c 0,-0.23234 0.011617,-0.24394 0.2439452,-0.24394 0.2323282,0 0.2439452,0.0116 0.2439452,0.24394 0,0.23232 -0.011617,0.24393 -0.2439452,0.24393 -0.2323286,0 -0.2439452,-0.0116 -0.2439452,-0.24393 z m 4.5304079,0 c 0,-0.23234 0.01161,-0.24394 0.243946,-0.24394 0.232328,0 0.243944,0.0116 0.243944,0.24394 0,0.23232 -0.01161,0.24393 -0.243944,0.24393 -0.232329,0 -0.243946,-0.0116 -0.243946,-0.24393 z m 1.452646,1.61247 c 0.08977,-0.0819 0.192811,-0.20369 0.228974,-0.27077 0.05753,-0.10677 0.03117,-0.12198 -0.210517,-0.12198 -0.331289,0 -0.495321,0.14169 -0.495321,0.42786 0,0.18419 0.01851,0.20321 0.156821,0.16125 0.08625,-0.0261 0.230271,-0.11451 0.320043,-0.19636 z m -8.7022811,-6.51367 0.6611546,-0.3262 0.9070638,0.003 c 0.8343013,0.003 0.9462009,0.0194 1.394954,0.20327 0.6753152,0.27658 1.3346816,0.27864 2.0212596,0.006 0.5899306,-0.234 1.6081021,-0.31691 2.2047141,-0.17951 0.394317,0.0908 1.123412,0.45589 2.76131,1.38273 0.546263,0.30911 0.993205,0.54649 0.993205,0.52749 0,-0.019 -0.303405,-0.37912 -0.674233,-0.80032 -0.608777,-0.69144 -0.692426,-0.76178 -0.861614,-0.72463 -0.728186,0.15994 -1.667755,-0.66741 -1.669899,-1.47046 -9.91e-4,-0.37048 -1.586715,-0.65012 -2.509538,-0.44254 -0.1725048,0.0388 -0.5224958,0.15164 -0.7777591,0.25076 l -0.4641155,0.1802 -0.4768158,-0.18026 C 7.1988343,282.36105 6.840253,282.28998 6.230237,282.288 c -1.0281523,-0.003 -1.9522188,0.36829 -2.7224144,1.09486 -0.4121162,0.38876 -0.4809398,0.48771 -0.4809398,0.69143 0,0.52888 -0.4641012,1.09226 -0.9739545,1.18227 -0.2219561,0.0392 -0.6988116,0.3965 -0.6988116,0.52362 0,0.0283 0.5253532,-0.24671 1.1674513,-0.61097 0.6420984,-0.36427 1.4649711,-0.8091 1.8286059,-0.9885 z m -0.3614505,1.50687 c 0.085767,-0.0858 0.1198219,-0.75274 0.038435,-0.75274 -0.064726,0 -1.1476688,0.59761 -1.3139185,0.72508 -0.128267,0.0983 -0.08625,0.10698 0.5262246,0.1091 0.4275373,8.9e-4 0.6955378,-0.0277 0.7492592,-0.0815 z m 2.032747,-0.0512 c 0.039683,-0.0741 0.07215,-0.40768 0.07215,-0.74119 v -0.60638 l -0.4704654,0.0356 c -0.258756,0.0195 -0.6037639,0.0899 -0.7666844,0.15633 l -0.296219,0.12075 v 0.5384 c 0,0.29612 0.020911,0.55932 0.046466,0.58487 0.025555,0.0255 0.3380963,0.0465 0.6945336,0.0465 0.5693926,0 0.6568266,-0.0163 0.720219,-0.13482 z m 1.9888616,-0.38264 v -0.48263 l -0.3484926,-0.0836 c -0.1916714,-0.0461 -0.4857353,-0.13468 -0.6534753,-0.19694 -0.1677402,-0.0624 -0.332403,-0.11322 -0.3659176,-0.11322 -0.071956,0 -0.08343,1.27855 -0.012115,1.34987 0.026852,0.0269 0.3483361,0.04 0.7144105,0.029 l 0.6655895,-0.0197 z m 2.041208,-0.19694 c 0.01106,-0.37664 -0.0082,-0.67957 -0.04352,-0.67957 -0.034911,0 -0.2007022,0.051 -0.3684412,0.11321 -0.1677401,0.0624 -0.4618046,0.15077 -0.6534759,0.19666 l -0.3484924,0.0834 -0.021191,0.40542 c -0.032138,0.61486 -0.046819,0.60327 0.7343877,0.58037 l 0.6807738,-0.0199 z m 2.021413,0.11318 0.02011,-0.56637 -0.298898,-0.12182 c -0.164393,-0.067 -0.510607,-0.13783 -0.769363,-0.15739 l -0.470466,-0.0356 v 0.6064 c 0,0.88059 0.0045,0.88516 0.822737,0.86106 l 0.675783,-0.0198 z m 1.86176,0.48992 c -0.166251,-0.12746 -1.249192,-0.72508 -1.313919,-0.72508 -0.08139,0 -0.04733,0.66698 0.03843,0.75274 0.05372,0.0537 0.321723,0.0829 0.749259,0.0815 0.612476,-0.002 0.654492,-0.0109 0.526225,-0.10909 z M 2.3473217,284.5206 c 0.6307188,-0.70582 -0.4158342,-1.67674 -1.0855198,-1.00705 -0.2435796,0.24358 -0.29301756,0.52181 -0.1472869,0.82891 0.2383514,0.50228 0.8625577,0.59249 1.2328067,0.17814 z m 11.8020653,-0.90132 c 0.405505,-0.24726 0.55711,-0.83616 0.335494,-1.30317 -0.370079,-0.77988 -1.616236,-0.64945 -1.843061,0.19292 -0.124541,0.46251 0.148281,1.04243 0.561058,1.19264 0.239413,0.0871 0.74,0.0435 0.946509,-0.0824 z M 2.9406358,282.17795 c -0.2092975,-0.11358 -0.4016431,-0.42849 -0.4016431,-0.65759 0,-0.42982 0.4554316,-0.81444 0.8718879,-0.73631 0.2783186,0.0523 0.5676818,0.32851 0.6270308,0.59874 0.062694,0.28544 -0.1339659,0.65997 -0.4170851,0.79433 -0.2840203,0.13477 -0.43299,0.13496 -0.6801905,7.8e-4 z m 0.5339519,-0.53976 c 0.078454,-0.12438 -0.00197,-0.32935 -0.1483751,-0.37816 -0.08047,-0.0269 -0.2993298,0.16352 -0.2993298,0.26033 0,0.0968 0.2188597,0.28716 0.2993298,0.26034 0.04073,-0.0136 0.1074985,-0.0777 0.1483751,-0.14251 z"
       id="path88"
       inkscape:connector-curvature="0" />
    <path
       style="fill:#ffffff;stroke-width:0.0013305;stroke-miterlimit:4;stroke-dasharray:none"
       d="m 1.5106783,284.71134 c -0.2494297,-0.10867 -0.445388,-0.40853 -0.4496043,-0.68803 -0.00549,-0.36482 0.3340314,-0.70602 0.7026029,-0.70602 0.5354586,0 0.9158385,0.56337 0.6843035,1.01351 -0.1813976,0.35265 -0.605804,0.52496 -0.9373021,0.38054 z"
       id="path90"
       inkscape:connector-curvature="0" />
    <path
       style="fill:#ffffff;stroke-width:0.0013305;stroke-miterlimit:4;stroke-dasharray:none"
       d="m 3.1461106,281.66546 c -0.056597,-0.0566 -0.102902,-0.12118 -0.102902,-0.14351 0,-0.0577 0.1959622,-0.24643 0.2558594,-0.24643 0.060407,0 0.1502832,0.0969 0.1796321,0.19374 0.026582,0.0877 -0.096173,0.2991 -0.1736587,0.2991 -0.030817,0 -0.1023359,-0.0464 -0.1589314,-0.10287 z"
       id="path92"
       inkscape:connector-curvature="0" />
    <path
       style="fill:#ffffff;stroke-width:0.0013305;stroke-miterlimit:4;stroke-dasharray:none"
       d="m 13.29165,283.70661 c -0.314246,-0.08 -0.600672,-0.44762 -0.654717,-0.84057 -0.05293,-0.38486 0.160596,-0.76147 0.535836,-0.94505 0.164491,-0.0805 0.244884,-0.0976 0.447933,-0.0951 0.289294,0.003 0.449524,0.0628 0.644201,0.23865 0.211141,0.19075 0.299798,0.42778 0.283124,0.75697 -0.01557,0.30726 -0.08835,0.4852 -0.274705,0.67155 -0.06887,0.0689 -0.191976,0.14523 -0.273561,0.16968 -0.196919,0.059 -0.560227,0.0816 -0.708111,0.0439 z"
       id="path94"
       inkscape:connector-curvature="0" />
    <path
       style="fill:#ffffff;stroke-width:0.0013305;stroke-miterlimit:4;stroke-dasharray:none"
       d="m 1.4780554,285.63926 c 0.1521913,-0.15884 0.3989584,-0.30617 0.6520241,-0.38926 0.5087352,-0.16699 0.8422857,-0.57739 0.9104395,-1.12017 0.035691,-0.28423 0.1086854,-0.39692 0.4713157,-0.72757 0.494956,-0.45132 1.1530699,-0.82556 1.69942,-0.96637 0.4470396,-0.11522 0.9737488,-0.15636 1.4138704,-0.1104 0.4642348,0.0484 0.7136544,0.11096 1.2584432,0.31526 0.4829817,0.18112 0.3647538,0.19056 1.1793718,-0.0942 0.7826724,-0.27354 1.3459089,-0.3093 2.1986589,-0.13962 0.379137,0.0755 0.649887,0.17621 0.739489,0.27522 0.03108,0.0343 0.07242,0.16129 0.09189,0.28208 0.07715,0.47906 0.456454,0.96722 0.934409,1.20256 0.213224,0.10505 0.276224,0.11921 0.551068,0.1243 0.209526,0.003 0.336742,0.023 0.391656,0.0591 0.144055,0.0944 1.235439,1.3202 1.203688,1.35197 -0.01905,0.019 -0.09706,-0.0222 -1.217623,-0.64327 -1.1695,-0.64822 -1.869662,-1.0023 -2.240155,-1.13282 -0.262326,-0.0924 -0.309218,-0.0976 -0.892921,-0.0971 -0.686568,4.9e-4 -0.9378885,0.0398 -1.553443,0.24293 -0.7035927,0.2322 -1.2033754,0.2361 -1.8260546,0.0142 -0.1645744,-0.0586 -0.3705126,-0.13141 -0.4576403,-0.16174 -0.1228641,-0.0428 -0.3656197,-0.0586 -1.0817428,-0.0705 l -0.9233289,-0.0153 -0.7488185,0.3872 c -0.4118502,0.21297 -1.2080025,0.64221 -1.7692274,0.9539 -0.5612249,0.31167 -1.0354703,0.56668 -1.0538785,0.56668 -0.018409,0 0.012684,-0.0481 0.069094,-0.10709 z"
       id="path96"
       inkscape:connector-curvature="0" />
    <path
       style="fill:#ffffff;stroke-width:0.0013305;stroke-miterlimit:4;stroke-dasharray:none"
       d="m 2.6911782,285.71783 c 0,-0.0567 1.1627696,-0.70963 1.2849133,-0.72153 0.065835,-0.006 0.069899,0.0119 0.062598,0.28403 -0.00951,0.35435 -0.038197,0.41464 -0.2108674,0.44317 -0.1957199,0.0324 -1.1366433,0.0276 -1.1366433,-0.005 z"
       id="path98"
       inkscape:connector-curvature="0" />
    <path
       style="fill:#ffffff;stroke-width:0.0013305;stroke-miterlimit:4;stroke-dasharray:none"
       d="m 4.6537512,285.70829 c -0.054429,-0.0317 -0.061605,-0.0987 -0.061605,-0.57511 v -0.53925 l 0.2774881,-0.0917 c 0.2705234,-0.0895 0.5290992,-0.1371 0.9849938,-0.18173 l 0.2239906,-0.022 -0.015948,0.62705 c -0.00878,0.34488 -0.02856,0.65599 -0.043975,0.69136 -0.015415,0.0354 -0.066503,0.0788 -0.1135272,0.0968 -0.1162354,0.0443 -1.1740785,0.0396 -1.251418,-0.005 z"
       id="path100"
       inkscape:connector-curvature="0" />
    <path
       style="fill:#ffffff;stroke-width:0.0013305;stroke-miterlimit:4;stroke-dasharray:none"
       d="m 6.6691289,285.71183 c -0.043645,-0.0276 -0.052805,-0.13999 -0.052805,-0.64781 0,-0.33792 0.012071,-0.62645 0.026823,-0.6412 0.014753,-0.0147 0.2365321,0.0392 0.4928435,0.11998 0.2563115,0.0807 0.5531485,0.1677 0.6596379,0.19326 l 0.1936171,0.0465 0.00979,0.45917 0.00979,0.45918 -0.2173688,0.0227 c -0.3258311,0.0341 -1.0620912,0.0262 -1.1223214,-0.0118 z"
       id="path102"
       inkscape:connector-curvature="0" />
    <path
       style="fill:#ffffff;stroke-width:0.0013305;stroke-miterlimit:4;stroke-dasharray:none"
       d="m 8.7373352,285.72423 c -0.086478,-0.0257 -0.10116,-0.11701 -0.089473,-0.55663 l 0.010243,-0.38512 0.1936173,-0.0465 c 0.1064896,-0.0255 0.4033266,-0.1125 0.6596369,-0.19323 0.2563123,-0.0807 0.4780921,-0.13461 0.4928446,-0.11971 0.03042,0.0306 0.02341,1.25036 -0.0074,1.28112 -0.02578,0.0258 -1.1782852,0.0441 -1.2595002,0.0199 z"
       id="path104"
       inkscape:connector-curvature="0" />
    <path
       style="fill:#ffffff;stroke-width:0.0013305;stroke-miterlimit:4;stroke-dasharray:none"
       d="m 10.769068,285.71527 c -0.161937,-0.0711 -0.174184,-0.12281 -0.186475,-0.78602 l -0.01168,-0.63042 0.222899,0.0219 c 0.463314,0.0453 0.724401,0.0943 0.995341,0.18659 l 0.279596,0.0952 -0.0098,0.54549 c -0.0054,0.30003 -0.01602,0.5518 -0.02368,0.55947 -0.03005,0.0302 -1.198943,0.0373 -1.266233,0.007 z"
       id="path106"
       inkscape:connector-curvature="0" />
    <path
       style="fill:#ffffff;stroke-width:0.0013305;stroke-miterlimit:4;stroke-dasharray:none"
       d="m 12.785656,285.72109 c -0.1342,-0.0204 -0.167965,-0.10438 -0.176995,-0.44076 -0.0073,-0.27199 -0.0033,-0.29044 0.06259,-0.28403 0.122143,0.0119 1.284914,0.66482 1.284914,0.72153 0,0.0284 -0.986478,0.031 -1.170517,0.003 z"
       id="path108"
       inkscape:connector-curvature="0" />
    <path
       style="fill:#ffffff;stroke-width:0.0013305;stroke-miterlimit:4;stroke-dasharray:none"
       d="m 3.5360527,287.55927 v -0.22882 h 4.2595755 4.2595758 v 0.22882 0.22883 H 7.7956282 3.5360527 Z"
       id="path110"
       inkscape:connector-curvature="0" />
    <path
       style="fill:#ffffff;stroke-width:0.0013305;stroke-miterlimit:4;stroke-dasharray:none"
       d="m 5.5926024,288.7216 c -0.044196,-0.0675 -0.050169,-0.11737 -0.026184,-0.21879 0.026263,-0.11106 0.049089,-0.13508 0.1474255,-0.1552 0.063994,-0.013 0.1585783,-0.0126 0.2101895,9e-4 0.082773,0.0221 0.095117,0.0448 0.1046799,0.19252 0.013799,0.21332 -0.032049,0.26773 -0.2255588,0.26773 -0.1243761,0 -0.164093,-0.0165 -0.2105515,-0.0873 z"
       id="path112"
       inkscape:connector-curvature="0" />
    <path
       style="fill:#ffffff;stroke-width:0.0013305;stroke-miterlimit:4;stroke-dasharray:none"
       d="m 4.6156146,288.78551 c -0.012908,-0.0129 -0.023468,-0.12182 -0.023468,-0.24203 0,-0.21466 0.00188,-0.21891 0.1056096,-0.23966 0.058084,-0.0116 0.1531334,-0.0116 0.2112185,0 0.1050547,0.021 0.1056097,0.0224 0.1056097,0.26313 v 0.24204 H 4.8268336 c -0.1032626,0 -0.1983108,-0.0109 -0.2112186,-0.0235 z"
       id="path114"
       inkscape:connector-curvature="0" />
    <path
       style="fill:#ffffff;stroke-width:0.0013305;stroke-miterlimit:4;stroke-dasharray:none"
       d="m 3.5913718,288.75366 c -0.071689,-0.0716 -0.072345,-0.30916 -0.00102,-0.36836 0.071477,-0.0593 0.3688125,-0.0543 0.4076017,0.007 0.049706,0.0784 0.034594,0.30245 -0.024379,0.36142 -0.071886,0.0719 -0.3103196,0.0719 -0.3822051,0 z"
       id="path116"
       inkscape:connector-curvature="0" />
    <path
       style="fill:#ffffff;stroke-width:0.0013305;stroke-miterlimit:4;stroke-dasharray:none"
       d="m 8.0068468,290.85794 c -0.1196845,-0.0424 -0.3090284,-0.0574 -0.7744683,-0.0608 -0.3388299,-0.002 -0.6356315,-0.007 -0.6595587,-0.0109 -0.023927,-0.003 -0.08361,-0.0667 -0.1326297,-0.14071 -0.1857056,-0.28063 -0.5001083,-0.36253 -1.3628206,-0.35504 -0.58717,0.005 -0.5274915,0.0243 -0.7048748,-0.22763 -0.112573,-0.15991 -0.4081816,-0.23939 -0.9659123,-0.2597 l -0.499103,-0.0182 -0.306432,-0.65528 c -0.4027469,-0.86127 -1.1708943,-2.59135 -1.1842636,-2.66731 -0.00758,-0.0431 0.087638,-0.11645 0.3415123,-0.26304 0.3218116,-0.18582 0.3580747,-0.19892 0.4224371,-0.15249 0.038723,0.0279 0.1416925,0.0945 0.2288202,0.14787 l 0.1584139,0.0971 0.7392652,-10e-6 c 0.6467452,0 0.7538675,-0.007 0.8559422,-0.0636 0.1084805,-0.0592 0.1282642,-0.0597 0.2816248,-0.009 0.404814,0.13443 1.1276977,0.15081 1.5613422,0.0354 0.243301,-0.0647 0.3935046,-0.0631 0.6101825,0.006 0.2552324,0.0821 1.0847554,0.0838 1.3845652,0.002 0.2785329,-0.0753 0.3670377,-0.0753 0.6455704,0 0.319517,0.0864 1.1164177,0.0768 1.4538322,-0.0176 0.237603,-0.0663 0.252103,-0.0665 0.463109,-0.006 0.449646,0.12859 1.244154,0.11744 1.634546,-0.023 0.160044,-0.0576 0.172696,-0.0573 0.302568,0.007 0.120162,0.0596 0.217418,0.0673 0.857203,0.0673 h 0.721665 l 0.158413,-0.0965 c 0.08713,-0.0533 0.190097,-0.11993 0.228821,-0.14786 0.06435,-0.0465 0.100626,-0.0334 0.422437,0.15249 0.251836,0.14541 0.349075,0.22012 0.341647,0.26245 -0.01347,0.0768 -0.788751,1.82364 -1.184026,2.66789 l -0.306805,0.65529 -0.499103,0.0182 c -0.557731,0.0204 -0.853339,0.0998 -0.965912,0.25972 -0.177383,0.25198 -0.117704,0.23271 -0.704873,0.22761 -0.862713,-0.007 -1.177117,0.0744 -1.362822,0.35505 -0.04902,0.0741 -0.108703,0.13708 -0.13263,0.14001 -0.02393,0.002 -0.32865,0.007 -0.6771606,0.0109 -0.5036577,0.004 -0.6652581,0.0175 -0.7876951,0.065 -0.1872716,0.0729 -0.391593,0.0717 -0.6028275,-0.003 z m -0.2711838,-0.7579 c 0.3116269,-0.15534 0.4822236,-0.21516 0.8129055,-0.285 0.3025388,-0.064 0.5220265,-0.13712 0.7920699,-0.2643 0.2054569,-0.0968 0.4388856,-0.18613 0.5187301,-0.19861 0.2003005,-0.0312 0.4679305,0.0533 0.7822455,0.24761 0.142209,0.0879 0.272801,0.15973 0.290207,0.15973 0.04852,0 0.243306,-0.28401 0.243306,-0.35476 0,-0.0881 -0.218812,-0.25976 -0.525525,-0.41224 -0.243353,-0.12097 -0.287552,-0.13089 -0.636845,-0.14284 -0.3593664,-0.0123 -0.3864418,-0.007 -0.6361762,0.10083 -0.6231664,0.27157 -0.8301197,0.35023 -0.9227455,0.3508 -0.2228834,8.9e-4 -0.5898326,0.11644 -0.8556375,0.26838 -0.315521,0.18038 -0.520998,0.24674 -0.657678,0.21244 -0.1366154,-0.0342 -0.3196026,-0.20831 -0.3951055,-0.37574 -0.062879,-0.13944 -0.063124,-0.15718 -0.00597,-0.43297 0.032779,-0.15817 0.059527,-0.37803 0.059438,-0.4886 l -1.602e-4,-0.20102 2.7898453,-0.0115 c 2.9879436,-0.0124 2.9820506,-0.0119 3.1226756,-0.19081 0.06429,-0.0817 0.072,-0.14139 0.072,-0.55657 0,-0.54623 -0.0084,-0.56144 -0.361562,-0.64684 -0.187699,-0.0454 -0.846064,-0.055 -4.5701439,-0.0661 l -4.3508577,-0.013 -0.088049,0.11617 c -0.1878113,0.24782 -0.1873296,0.24513 -0.1824291,1.02154 0.00712,1.1288 0.041033,1.25884 0.3474276,1.33228 0.077446,0.0186 0.6805166,0.0439 1.3401554,0.0564 l 1.199343,0.0226 0.1163839,0.22448 c 0.1347634,0.25992 0.3852378,0.55224 0.5431493,0.6339 0.1881991,0.0974 0.2785882,0.11496 0.5253368,0.10243 0.2071205,-0.0109 0.2922413,-0.0386 0.6336558,-0.20874 z m 1.8130797,0.18043 c 0.05481,-0.0548 0.05481,-0.38874 0,-0.44355 -0.050069,-0.0501 -0.3399127,-0.0556 -0.415397,-0.007 -0.036629,0.0231 -0.052807,0.0935 -0.052807,0.22958 0,0.13609 0.016177,0.20641 0.052807,0.22956 0.075486,0.0477 0.3653272,0.0422 0.415397,-0.007 z m -2.0007746,-1.01153 c 0.040304,-0.0753 0.046672,-0.22459 0.014673,-0.34393 -0.025202,-0.094 -0.2582015,-0.14196 -0.4094695,-0.0842 -0.088867,0.0339 -0.096808,0.0524 -0.096808,0.22435 0,0.10308 0.01901,0.20646 0.042244,0.22971 0.023235,0.0232 0.125646,0.0421 0.2275819,0.0421 0.1472092,0 0.1928348,-0.014 0.2217795,-0.0681 z m 4.5248369,-0.17701 c 0,-0.22648 -4.87e-4,-0.22766 -0.114409,-0.26032 -0.07046,-0.0202 -0.158363,-0.0203 -0.22882,-1.6e-4 -0.108682,0.031 -0.114953,0.0421 -0.125211,0.22091 -0.01606,0.28001 -0.0074,0.28972 0.247966,0.27756 l 0.220474,-0.0109 z"
       id="path118"
       inkscape:connector-curvature="0" />
    <path
       style="fill:#ffffff;stroke-width:0.0013305;stroke-miterlimit:4;stroke-dasharray:none"
       d="m 3.6707269,290.74279 c -0.1805603,-0.19492 -0.3343309,-0.37146 -0.3417125,-0.39229 -0.021149,-0.0597 0.4706443,-0.0125 0.5738079,0.055 0.048495,0.0317 0.1037328,0.11614 0.1241308,0.18959 0.045547,0.16403 0.048647,0.50198 0.00461,0.50198 -0.017898,0 -0.1802717,-0.15947 -0.3608319,-0.3544 z"
       id="path120"
       inkscape:connector-curvature="0" />
    <path
       style="fill:#ffffff;stroke-width:0.0013305;stroke-miterlimit:4;stroke-dasharray:none"
       d="m 5.6277327,292.21055 c -0.1564912,-0.084 -0.4535173,-0.25158 -0.6600582,-0.37229 l -0.3755287,-0.2195 v -0.30746 c 0,-0.28496 0.00664,-0.3137 0.090822,-0.3928 0.084374,-0.0793 0.1222844,-0.0863 0.5340147,-0.0979 0.7897142,-0.0225 0.8300762,0.0145 0.8486727,0.77698 0.014647,0.60055 -0.00566,0.7672 -0.093382,0.76634 -0.033006,-3.3e-4 -0.1880485,-0.0693 -0.3445397,-0.15336 z"
       id="path122"
       inkscape:connector-curvature="0" />
    <path
       style="fill:#ffffff;stroke-width:0.0013305;stroke-miterlimit:4;stroke-dasharray:none"
       d="m 7.1443709,292.69623 c -0.2129788,-0.0466 -0.4228773,-0.0931 -0.4664412,-0.10329 -0.072482,-0.0169 -0.079191,-0.0387 -0.079024,-0.25549 9.74e-5,-0.13034 0.010405,-0.39142 0.022912,-0.5802 l 0.022729,-0.34323 h 0.6811497 0.6811511 l 2.509e-4,0.44885 c 1.393e-4,0.24686 0.010351,0.55576 0.022692,0.68646 l 0.022442,0.23762 -0.260313,-0.002 c -0.1431723,-0.002 -0.4345686,-0.0412 -0.6475472,-0.0878 z"
       id="path124"
       inkscape:connector-curvature="0" />
    <path
       style="fill:#ffffff;stroke-width:0.0013305;stroke-miterlimit:4;stroke-dasharray:none"
       d="m 8.6178866,292.57055 c 0.012435,-0.11901 0.022616,-0.42793 0.022616,-0.68646 v -0.47008 h 0.6828545 0.6828539 l 0.02538,0.47383 c 0.02848,0.53181 0.01485,0.62955 -0.097931,0.70296 -0.09849,0.0641 -0.8625671,0.19614 -1.1348672,0.19614 H 8.595266 Z"
       id="path126"
       inkscape:connector-curvature="0" />
    <path
       style="fill:#ffffff;stroke-width:0.0013305;stroke-miterlimit:4;stroke-dasharray:none"
       d="m 10.598041,292.30882 c -0.03525,-0.0919 -0.0237,-1.07862 0.01422,-1.21516 0.06705,-0.24136 0.118364,-0.2605 0.698623,-0.2605 0.579389,0 0.726708,0.0388 0.726708,0.19133 0,0.0639 -0.06732,0.13764 -0.27249,0.29875 -0.149867,0.11768 -0.439834,0.40011 -0.644365,0.62762 -0.3621,0.40276 -0.475666,0.48054 -0.522706,0.35796 z"
       id="path128"
       inkscape:connector-curvature="0" />
    <path
       style="fill:#ffffff;stroke-width:0.0013305;stroke-miterlimit:4;stroke-dasharray:none"
       d="m 12.606718,290.8625 c -0.0861,-0.0862 0.03575,-0.40838 0.183229,-0.48463 0.111582,-0.0577 0.497365,-0.0772 0.497365,-0.0253 0,0.0727 -0.217484,0.31963 -0.371473,0.42163 -0.163915,0.10851 -0.261055,0.13629 -0.309121,0.0882 z"
       id="path130"
       inkscape:connector-curvature="0" />
    <path
       style="fill:#ffffff;stroke-width:0.0013305;stroke-miterlimit:4;stroke-dasharray:none"
       d="m 14.388582,291.0234 c -0.08165,-0.0377 -0.269312,-0.0988 -0.41704,-0.13579 -0.147731,-0.0369 -0.275331,-0.0739 -0.283558,-0.0821 -0.0082,-0.007 0.10026,-0.18757 0.241081,-0.39851 0.30727,-0.46028 0.65646,-1.13353 1.057085,-2.03808 0.162929,-0.36787 0.323338,-0.71638 0.356462,-0.77447 l 0.06023,-0.10558 -0.02085,0.22882 c -0.03388,0.37203 -0.190087,1.34536 -0.321649,2.00423 -0.160037,0.8015 -0.349106,1.34955 -0.470521,1.36393 -0.02905,0.003 -0.119604,-0.0246 -0.201246,-0.0625 z"
       id="path132"
       inkscape:connector-curvature="0" />
    <path
       style="fill:#ffffff;stroke-width:0.0013305;stroke-miterlimit:4;stroke-dasharray:none"
       d="m 12.807654,295.7619 c -0.395667,-0.086 -0.598853,-0.20895 -0.983898,-0.59511 -0.285357,-0.28617 -0.381658,-0.41034 -0.492843,-0.63548 l -0.138185,-0.27979 v -0.67393 -0.67392 l 0.139893,-0.27839 c 0.188653,-0.37542 0.659707,-0.85308 1.039411,-1.05396 l 0.264023,-0.1397 h 0.704063 0.704061 l 0.246422,0.1318 c 0.647349,0.34627 1.062702,0.86416 1.235355,1.54034 0.07699,0.3015 0.05158,0.87961 -0.05147,1.17139 -0.267192,0.75655 -0.826335,1.27837 -1.57497,1.46983 -0.315908,0.0808 -0.766109,0.0878 -1.091858,0.017 z m 1.040406,-0.502 c 0.203848,-0.10394 0.255128,-0.20894 0.275362,-0.56382 l 0.01801,-0.31577 0.315766,-0.018 c 0.520109,-0.0296 0.629704,-0.16766 0.629704,-0.79296 0,-0.21043 -0.01767,-0.42135 -0.03924,-0.46873 -0.08496,-0.18647 -0.374263,-0.31119 -0.725613,-0.31284 l -0.179784,-8.4e-4 -0.01894,-0.27621 c -0.02126,-0.31024 -0.07762,-0.44629 -0.242247,-0.58481 -0.111126,-0.0935 -0.119375,-0.0948 -0.544471,-0.0834 -0.372814,0.0102 -0.445162,0.0216 -0.530884,0.0856 -0.125813,0.0938 -0.213784,0.31878 -0.24093,0.61603 l -0.02122,0.23242 -0.290074,0.0352 c -0.33339,0.0404 -0.461194,0.0932 -0.564746,0.23301 -0.06337,0.0856 -0.07529,0.16014 -0.08602,0.53735 l -0.01243,0.438 0.135644,0.13554 c 0.145911,0.14582 0.361036,0.21548 0.665425,0.21548 h 0.156682 v 0.15667 c 0,0.30145 0.06986,0.51972 0.211831,0.66179 l 0.131917,0.13202 0.417778,-7e-5 c 0.328168,-3e-5 0.443668,-0.0132 0.538487,-0.0616 z"
       id="path134"
       inkscape:connector-curvature="0" />
    <path
       style="fill:#ffffff;stroke-width:0.0013305;stroke-miterlimit:4;stroke-dasharray:none"
       d="m 7.2590417,295.23235 c -1.0707868,-0.14599 -2.1600607,-0.61151 -3.0935575,-1.32214 -1.2485094,-0.9504 -2.1652249,-2.34268 -2.5127689,-3.81632 -0.147861,-0.62695 -0.3886143,-2.25944 -0.3633962,-2.46412 0.00849,-0.0689 0.063478,0.0301 0.2188545,0.39399 0.1141349,0.2673 0.3618691,0.80561 0.5505204,1.19624 0.483935,1.00205 0.7751355,1.4319 1.3995406,2.06583 0.9055174,0.91935 1.9871977,1.54045 3.2284959,1.85382 0.9861771,0.24898 2.3222061,0.22722 3.5115255,-0.0572 0.210611,-0.0504 0.393796,-0.0807 0.407076,-0.0675 0.01329,0.0132 0.03289,0.32775 0.04358,0.69887 0.01834,0.63721 0.02472,0.68629 0.114409,0.88144 0.05224,0.11367 0.09499,0.21787 0.09499,0.23153 0,0.0748 -0.9676555,0.33619 -1.5129578,0.4088 -0.4640495,0.0618 -1.6222548,0.0599 -2.0862993,-0.003 z"
       id="path136"
       inkscape:connector-curvature="0" />
  </g>
</svg>
