<?xml version="1.0" encoding="UTF-8" standalone="no"?>
<svg
   xmlns:dc="http://purl.org/dc/elements/1.1/"
   xmlns:cc="http://creativecommons.org/ns#"
   xmlns:rdf="http://www.w3.org/1999/02/22-rdf-syntax-ns#"
   xmlns:svg="http://www.w3.org/2000/svg"
   xmlns="http://www.w3.org/2000/svg"
   xmlns:sodipodi="http://sodipodi.sourceforge.net/DTD/sodipodi-0.dtd"
   xmlns:inkscape="http://www.inkscape.org/namespaces/inkscape"
   width="64"
   height="64"
   viewBox="0 0 16.933333 16.933333"
   version="1.1"
   id="svg8"
   sodipodi:docname="seren_outdoor_activity_64x64.svg"
   inkscape:version="1.0.2-2 (e86c870879, 2021-01-15)">
  <defs
     id="defs2" />
  <sodipodi:namedview
     id="base"
     pagecolor="#ffffff"
     bordercolor="#666666"
     borderopacity="1.0"
     inkscape:pageopacity="0.0"
     inkscape:pageshadow="2"
     inkscape:zoom="5.6568542"
     inkscape:cx="31.512875"
     inkscape:cy="48.070991"
     inkscape:document-units="mm"
     inkscape:current-layer="layer1"
     inkscape:document-rotation="0"
     showgrid="false"
     inkscape:snap-global="false"
     fit-margin-top="0"
     fit-margin-left="0"
     fit-margin-right="0"
     fit-margin-bottom="0"
     inkscape:window-width="1540"
     inkscape:window-height="967"
     inkscape:window-x="1806"
     inkscape:window-y="64"
     inkscape:window-maximized="0"
     units="px" />
  <metadata
     id="metadata5">
    <rdf:RDF>
      <cc:Work
         rdf:about="">
        <dc:format>image/svg+xml</dc:format>
        <dc:type
           rdf:resource="http://purl.org/dc/dcmitype/StillImage" />
        <dc:title></dc:title>
      </cc:Work>
    </rdf:RDF>
  </metadata>
  <g
     inkscape:label="Calque 1"
     inkscape:groupmode="layer"
     id="layer1"
     transform="translate(-44.581036,-28.552681)">
    <text
       xml:space="preserve"
       style="font-style:normal;font-weight:normal;font-size:10.5833px;line-height:1.25;font-family:sans-serif;fill:#000000;fill-opacity:1;stroke:none;stroke-width:0.264583"
       x="51.724785"
       y="39.66518"
       id="text1411"><tspan
         sodipodi:role="line"
         id="tspan1409"
         x="51.724785"
         y="39.66518"
         style="stroke-width:0.264583"></tspan></text>
    <path
       style="fill:#ffffff;stroke-width:2.12598;stroke-linecap:round;stroke-miterlimit:4;stroke-dasharray:none"
       d=""
       id="path1772"
       transform="matrix(0.26458333,0,0,0.26458333,44.581036,28.552681)" />
    <path
       style="fill:#000000;stroke-width:0.0310148"
       d="m 45.711035,44.465539 -0.07665,-0.07664 0.0083,-2.582871 0.0083,-2.582865 0.790883,-1.672284 c 0.712801,-1.507201 0.80723,-1.690082 0.956534,-1.852583 0.110822,-0.120616 0.233809,-0.213848 0.371525,-0.281648 0.192946,-0.09499 0.226346,-0.101341 0.532172,-0.101341 0.304002,0 0.340052,0.0068 0.527348,0.09876 0.110579,0.05431 0.202616,0.09619 0.204529,0.09304 0.0018,-0.0031 0.307826,-0.515138 0.6798,-1.13776 0.722971,-1.210115 0.828637,-1.349691 1.134925,-1.499069 0.427012,-0.208255 0.994885,-0.139042 1.339142,0.163218 0.06268,0.05504 0.128048,0.09136 0.145253,0.08072 0.01718,-0.01064 0.47618,-0.55956 1.01994,-1.219836 0.543754,-0.660272 1.04599,-1.252298 1.11607,-1.315612 0.460699,-0.416213 1.178337,-0.416966 1.639899,-0.0017 0.07156,0.06437 1.093875,1.371694 2.271833,2.905157 l 2.141733,2.788116 v 4.059807 4.059802 l -0.07614,0.07613 -0.07613,0.07614 H 53.078936 45.78764 Z m 5.390857,-0.675456 c 0.44068,-0.675828 1.098044,-1.315966 1.89955,-1.849777 0.221753,-0.147692 0.483404,-0.310051 0.581453,-0.360801 0.09805,-0.05075 0.178291,-0.09943 0.178335,-0.108198 1.13e-4,-0.03219 -0.95861,-0.528991 -1.376379,-0.713244 -1.454338,-0.641408 -2.581057,-0.913162 -3.787507,-0.913504 -0.79025,-2.22e-4 -1.302098,0.07136 -2.109753,0.295058 l -0.355925,0.09859 v 1.903876 1.903876 h 2.401691 2.401693 z m 8.924392,-1.485645 v -1.741516 l -0.488479,0.02113 c -2.890253,0.125029 -5.169472,0.847285 -6.784484,2.149927 -0.434899,0.350782 -1.037545,0.987045 -1.20593,1.273204 -0.01818,0.03093 0.835867,0.03875 4.228037,0.03875 h 4.250856 z m -5.458011,-1.210363 c 0.127617,-0.05418 0.399507,-0.157266 0.604202,-0.229071 l 0.372176,-0.130553 0.0085,-0.57731 0.0085,-0.577314 H 55.02511 c -0.811081,0 -0.796594,0.03039 -0.486604,-1.020653 0.121878,-0.413229 0.215433,-0.757487 0.207902,-0.765017 -0.03669,-0.03671 -1.839101,0.541836 -2.954421,0.948326 -1.496688,0.545485 -1.957931,0.744299 -1.726742,0.744299 0.109031,0 0.936423,0.223668 1.370074,0.37037 0.803022,0.271665 1.70474,0.68307 2.512195,1.146188 0.179111,0.102727 0.339878,0.18734 0.357256,0.188016 0.01737,6.25e-4 0.136012,-0.04312 0.263629,-0.09728 z m 1.926743,-0.613189 c 0.210797,-0.05025 0.557729,-0.120441 0.770957,-0.155936 0.213223,-0.0355 0.419087,-0.07138 0.457467,-0.07975 0.0693,-0.01513 0.06978,-0.01919 0.06978,-0.588418 v -0.573186 h -0.279133 c -0.153523,0 -0.279133,0.0061 -0.279133,0.01349 0,0.0074 0.01487,0.05263 0.03306,0.100475 0.01818,0.04784 0.02456,0.132457 0.01412,0.188031 -0.03182,0.169476 -0.122629,0.194242 -0.712465,0.194242 H 56.05638 v 0.496227 c 0,0.272933 0.01244,0.496235 0.02768,0.496235 0.01525,0 0.200147,-0.04112 0.410944,-0.0914 z m 2.72602,-0.373694 c 0.263777,-0.01625 0.552865,-0.02987 0.64242,-0.03031 l 0.162828,-6.25e-4 V 38.35247 36.628686 l -0.08529,0.01625 c -0.04687,0.009 -0.322552,0.05368 -0.61254,0.09945 -0.28999,0.04576 -0.532066,0.08742 -0.53796,0.09256 -0.0057,0.0051 0.158102,0.447537 0.364425,0.983086 0.206322,0.535549 0.375131,0.995974 0.375131,1.023166 0,0.203744 -0.11141,0.2406 -0.727306,0.2406 h -0.513285 v 0.547037 0.547034 l 0.225989,-0.0205 c 0.124291,-0.01125 0.441806,-0.03376 0.705589,-0.04999 z M 47.253865,39.458618 c 0.517555,-0.0858 0.958161,-0.12691 1.359911,-0.12691 h 0.335507 l 0.413311,-0.174502 c 1.405878,-0.593571 3.222837,-1.243384 4.885884,-1.747371 l 0.316595,-0.09595 -0.34247,-0.503062 c -0.188359,-0.276684 -0.524691,-0.771346 -0.747406,-1.09925 l -0.404937,-0.59619 -0.111948,0.09112 c -0.471705,0.383927 -0.57806,0.460553 -0.682739,0.491918 -0.252253,0.07558 -0.462968,0.029 -0.759439,-0.16784 l -0.173984,-0.11552 -0.173985,0.115519 c -0.443068,0.29418 -0.702683,0.27614 -1.142149,-0.07937 l -0.260234,-0.210515 -0.239584,0.402921 c -0.131773,0.221608 -0.264653,0.416339 -0.295295,0.432738 -0.100221,0.05364 -0.181678,0.03189 -0.437549,-0.116766 -0.218353,-0.126874 -0.279952,-0.148145 -0.458161,-0.158214 -0.241984,-0.01368 -0.442343,0.06296 -0.582785,0.222918 -0.04719,0.05375 -0.431161,0.830988 -0.853273,1.727202 -0.714065,1.516092 -0.767469,1.641434 -0.767469,1.801238 v 0.171756 l 0.370094,-0.10127 c 0.203551,-0.0557 0.541997,-0.129769 0.752105,-0.164597 z m 9.444686,-0.437703 c -0.09391,-0.35912 -0.876787,-2.976772 -0.890273,-2.976772 -0.01351,0 -0.796363,2.617652 -0.890273,2.976772 -0.01619,0.06184 -0.0044,0.06267 0.890273,0.06267 0.894505,0 0.906441,-9e-4 0.890273,-0.06267 z M 58.909753,38.5708 c 0,-0.01311 -0.684108,-1.801791 -0.81215,-2.123467 -0.02644,-0.06642 -0.07692,0.07145 -0.351994,0.961459 -0.176622,0.571447 -0.329145,1.070397 -0.338943,1.108778 l -0.01782,0.06979 h 0.760455 c 0.41825,0 0.760451,-0.0074 0.760451,-0.01655 z M 57.15808,37.648947 c 0.08185,-0.26878 0.142756,-0.49476 0.135343,-0.502178 -0.01369,-0.01368 -0.558666,0.100577 -0.579603,0.121511 -0.0062,0.0063 0.048,0.215299 0.120629,0.464519 0.0726,0.24922 0.141648,0.442262 0.153416,0.428983 0.01175,-0.01327 0.08837,-0.244054 0.170215,-0.512835 z m -1.861869,-1.666834 c 0.312126,-1.066096 0.335257,-1.116532 0.512067,-1.116532 0.175691,0 0.202497,0.05611 0.479848,1.004146 0.144104,0.492577 0.267053,0.900638 0.273215,0.906802 0.02125,0.02124 0.87528,-0.182451 0.909905,-0.21702 0.01906,-0.01905 0.10644,-0.271902 0.194133,-0.56189 0.168698,-0.557865 0.214785,-0.635804 0.375963,-0.635804 0.143279,0 0.206745,0.08988 0.372331,0.527253 0.08717,0.230284 0.170122,0.430418 0.184311,0.444743 0.02281,0.02305 0.905822,-0.101759 1.12515,-0.159041 0.08286,-0.02164 0.05813,-0.05643 -1.255517,-1.763918 l -1.340053,-1.741842 -0.238628,0.227982 c -0.187554,0.17919 -0.273515,0.238342 -0.401643,0.276393 -0.08966,0.02662 -0.19316,0.04841 -0.230003,0.04841 -0.163041,0 -0.376288,-0.10076 -0.652258,-0.308191 l -0.292989,-0.220226 -0.288065,0.216521 c -0.344814,0.25918 -0.461255,0.311896 -0.688902,0.311896 -0.237421,0 -0.346925,-0.05376 -0.666851,-0.327374 -0.151954,-0.129962 -0.290044,-0.227787 -0.306863,-0.217392 -0.01681,0.0104 -0.191885,0.215003 -0.389026,0.454684 l -0.358438,0.435783 0.08832,0.129544 c 0.04857,0.07124 0.552984,0.813419 1.120908,1.649268 1.246553,1.83461 1.157649,1.707403 1.168823,1.67244 0.0049,-0.01577 0.141955,-0.482248 0.304264,-1.036636 z m -4.31073,-0.930443 c 0.154972,-0.103244 0.31362,-0.185959 0.356669,-0.185959 0.04307,0 0.201696,0.08271 0.35667,0.185959 0.167909,0.111858 0.312388,0.185983 0.362588,0.186022 0.05869,3.1e-5 0.173659,-0.07434 0.387681,-0.250891 0.167328,-0.138026 0.308763,-0.263274 0.3143,-0.278328 0.01407,-0.03824 -0.731207,-1.133216 -0.859717,-1.263108 -0.14151,-0.14304 -0.29162,-0.202107 -0.515004,-0.202648 -0.215741,-5.14e-4 -0.38135,0.07197 -0.530604,0.232235 -0.08428,0.0905 -0.757025,1.182033 -0.804043,1.304561 -0.02568,0.06687 0.461093,0.458266 0.569809,0.458179 0.04906,-3.1e-5 0.195716,-0.07547 0.361651,-0.186022 z m 3.858438,-2.626236 c 0.259101,-0.19471 0.411531,-0.289153 0.466679,-0.289153 0.05494,0 0.212197,0.09689 0.47813,0.29464 0.257927,0.191793 0.423881,0.294641 0.47543,0.294641 0.110199,0 0.564041,-0.439942 0.51688,-0.501052 -0.01769,-0.02294 -0.236935,-0.309213 -0.487181,-0.636165 -0.250246,-0.326949 -0.497691,-0.630387 -0.549884,-0.674303 -0.05218,-0.04391 -0.173122,-0.102592 -0.268726,-0.130383 -0.206667,-0.06008 -0.4237,-0.02605 -0.600642,0.09419 -0.100913,0.06857 -1.159824,1.326904 -1.159824,1.37825 0,0.03749 0.468992,0.436105 0.547085,0.464994 0.113004,0.04179 0.174677,0.01048 0.582053,-0.295659 z m -6.834753,0.157187 c -0.216353,-0.05232 -0.483386,-0.193747 -0.636908,-0.337335 -0.09183,-0.08589 -0.138129,-0.104013 -0.300577,-0.117668 -0.237908,-0.02 -0.489304,-0.131978 -0.644338,-0.287012 -0.377101,-0.377101 -0.377101,-1.016497 0,-1.393597 0.154484,-0.154485 0.406167,-0.266841 0.644338,-0.287644 0.169105,-0.01477 0.208023,-0.03137 0.326021,-0.139111 0.299769,-0.273689 0.7936,-0.411626 1.20833,-0.337511 0.271496,0.04853 0.552403,0.17928 0.7264,0.33813 0.117273,0.107065 0.156441,0.12374 0.325346,0.138492 0.23817,0.0208 0.48986,0.133159 0.644345,0.287644 0.377101,0.3771 0.377101,1.016496 0,1.393597 -0.154485,0.154485 -0.406175,0.266841 -0.644345,0.287643 -0.167567,0.01464 -0.208454,0.03177 -0.321039,0.13452 -0.338313,0.308769 -0.856792,0.433685 -1.327573,0.319852 z m 0.774263,-0.541243 c 0.08529,-0.04014 0.229915,-0.150347 0.321388,-0.244909 l 0.166311,-0.171932 h 0.257789 c 0.279251,0 0.359794,-0.03488 0.493185,-0.213541 0.08967,-0.120096 0.08967,-0.414282 0,-0.534378 -0.133391,-0.178668 -0.213934,-0.213539 -0.493185,-0.213539 h -0.257789 l -0.166311,-0.171933 c -0.240014,-0.248122 -0.411187,-0.322777 -0.740087,-0.322777 -0.328902,0 -0.500075,0.07465 -0.740082,0.322777 l -0.166311,0.171933 h -0.257789 c -0.279258,0 -0.359795,0.03487 -0.493192,0.213539 -0.08967,0.120096 -0.08967,0.414282 0,0.534378 0.134035,0.179521 0.213433,0.213541 0.498399,0.213541 h 0.262995 l 0.130085,0.143706 c 0.155235,0.171482 0.268164,0.250351 0.455748,0.318288 0.195223,0.07071 0.52623,0.0502 0.728846,-0.04516 z m 10.078394,0.515011 c -0.04187,-0.04188 -0.07614,-0.112346 -0.07614,-0.156614 0,-0.195976 -0.175203,-0.377344 -0.467473,-0.483908 -0.203916,-0.07435 -0.276877,-0.149227 -0.276877,-0.284134 0,-0.110302 0.125191,-0.239807 0.231815,-0.239807 0.116129,0 0.43223,0.136127 0.605997,0.260963 l 0.150765,0.108315 0.195792,-0.130812 c 0.272069,-0.181781 0.514896,-0.26155 0.639314,-0.210015 0.124292,0.05149 0.182285,0.187079 0.131961,0.308565 -0.03794,0.09165 -0.06435,0.10947 -0.326982,0.220761 -0.242833,0.102901 -0.388076,0.271345 -0.388076,0.450072 0,0.111752 -0.128978,0.232741 -0.248114,0.232741 -0.06044,0 -0.124005,-0.02813 -0.171991,-0.07614 z m -6.947307,-1.24059 c -0.04188,-0.04188 -0.07614,-0.112347 -0.07614,-0.156615 0,-0.178728 -0.145242,-0.347174 -0.388069,-0.450073 -0.262633,-0.111291 -0.289026,-0.129107 -0.326988,-0.22076 -0.05031,-0.121486 0.0077,-0.25708 0.131966,-0.308565 0.124411,-0.05154 0.367238,0.02823 0.639315,0.210016 l 0.195784,0.130811 0.150767,-0.108316 c 0.173766,-0.124836 0.489873,-0.260962 0.605996,-0.260962 0.106629,0 0.231822,0.129505 0.231822,0.239807 0,0.134908 -0.07297,0.20978 -0.276884,0.284133 -0.292264,0.106566 -0.467473,0.287933 -0.467473,0.483909 0,0.111753 -0.128979,0.232742 -0.248114,0.232742 -0.06044,0 -0.124006,-0.02815 -0.171992,-0.07614 z"
       id="path2017" />
    <path
       style="fill:#ffffff;stroke-width:3.0066;stroke-linecap:round;stroke-miterlimit:4;stroke-dasharray:none"
       d="m 13.33604,13.25644 c -0.558482,-0.149055 -1.107463,-0.473518 -1.59099,-0.940321 -0.676189,-0.652801 -0.833424,-0.71911 -1.8697945,-0.788529 -0.963338,-0.06453 -1.1932467,-0.147552 -1.546796,-0.558578 -0.5619906,-0.653353 -0.5619906,-1.6869988 0,-2.3403517 0.3535493,-0.4110258 0.583458,-0.4940502 1.546796,-0.5585778 1.0183685,-0.068214 1.2022345,-0.1426011 1.8386295,-0.7438639 0.980756,-0.9266135 1.315413,-1.0629164 2.609721,-1.0629164 0.96906,0 1.248801,0.07845 1.960342,0.5497552 0.456488,0.3023653 0.905412,0.6907032 0.997608,0.8629732 0.126707,0.2367557 0.447952,0.3310676 1.315938,0.3863369 1.519327,0.096743 2.043614,0.5422326 2.043614,1.7364686 0,1.1767469 -0.522079,1.6314949 -1.991159,1.7343649 -1.005696,0.07042 -1.173525,0.143277 -1.912601,0.830265 -0.466127,0.433274 -1.066679,0.804925 -1.414214,0.875184 -0.332225,0.06716 -0.72337,0.149848 -0.869211,0.183744 -0.14584,0.0339 -0.648888,-0.04078 -1.117883,-0.165954 z"
       id="path2019"
       transform="matrix(0.26458333,0,0,0.26458333,44.581036,28.552681)" />
    <path
       style="fill:#ffffff;stroke-width:3.0066;stroke-linecap:round;stroke-miterlimit:4;stroke-dasharray:none"
       d="m 21.790156,24.500889 c -0.521015,-0.398321 -0.872843,-0.802873 -0.856992,-0.985417 0.03547,-0.408426 2.110685,-3.830821 2.856052,-4.710124 1.084724,-1.279641 2.818123,-1.31062 3.907546,-0.06983 0.662685,0.754756 3.020617,4.245004 3.020617,4.471164 0,0.170093 -1.165818,1.16541 -1.98859,1.697757 -0.48331,0.31271 -0.492735,0.310435 -1.710284,-0.412898 -0.673363,-0.400037 -1.325086,-0.727341 -1.448273,-0.727341 -0.123187,0 -0.759583,0.318198 -1.414214,0.707107 -0.65463,0.388909 -1.255879,0.706706 -1.336107,0.706216 -0.08023,-4.9e-4 -0.543619,-0.304973 -1.029755,-0.676629 z"
       id="path2021"
       transform="matrix(0.26458333,0,0,0.26458333,44.581036,28.552681)" />
    <path
       style="fill:#ffffff;stroke-width:3.0066;stroke-linecap:round;stroke-miterlimit:4;stroke-dasharray:none"
       d="m 6.021241,41.409745 c 0.093298,-0.695586 2.2568008,-5.494357 4.687756,-10.397705 1.073166,-2.164626 1.484582,-2.823567 1.959108,-3.137787 0.838646,-0.555332 1.74475,-0.512805 3.043592,0.142849 1.520834,0.767714 1.851796,0.681451 2.752324,-0.717373 1.287102,-1.999304 1.068198,-1.891432 2.168559,-1.068624 1.6341,1.221917 2.641537,1.284045 4.264888,0.26301 l 0.632436,-0.397782 0.924415,0.533707 c 0.692822,0.399998 1.146602,0.533707 1.81129,0.533707 0.900231,0 1.505227,-0.320157 3.263591,-1.727055 l 0.546657,-0.437389 1.296763,1.901514 c 0.71322,1.045833 1.951756,2.858041 2.752302,4.027131 l 1.455539,2.125616 -3.033794,0.939484 c -4.127938,1.278311 -10.22999,3.462795 -14.679319,5.255073 l -3.690574,1.486637 h -1.678428 c -1.941442,0 -4.6697923,0.372595 -6.9644777,0.951099 l -1.6038966,0.404352 z"
       id="path2023"
       transform="matrix(0.26458333,0,0,0.26458333,44.581036,28.552681)" />
    <path
       style="fill:#ffffff;stroke-width:3.0066;stroke-linecap:round;stroke-miterlimit:4;stroke-dasharray:none"
       d="m 6.0108308,51.309392 0.0462,-7.103035 1.4641717,-0.398253 C 11.970613,42.597868 16.887121,42.478395 21.348215,43.4721 c 3.152239,0.702159 6.951139,2.131557 10.641212,4.003931 2.28946,1.161691 2.476783,1.292347 2.163986,1.509361 -0.188343,0.130669 -1.177711,0.785982 -2.198597,1.456251 -3.192985,2.096376 -5.599025,4.399735 -7.356657,7.042707 l -0.617193,0.928077 H 14.972799 5.9646312 Z"
       id="path2025"
       transform="matrix(0.26458333,0,0,0.26458333,44.581036,28.552681)" />
    <path
       style="fill:#ffffff;stroke-width:3.0066;stroke-linecap:round;stroke-miterlimit:4;stroke-dasharray:none"
       d="m 26.802024,57.918987 c 0.713371,-1.001837 2.742607,-3.065549 4.060744,-4.129735 6.112962,-4.935243 14.283475,-7.589991 25.266261,-8.209465 l 2.165515,-0.122144 v 6.477392 6.477392 h -15.92194 -15.92194 z"
       id="path2027"
       transform="matrix(0.26458333,0,0,0.26458333,44.581036,28.552681)" />
    <path
       style="fill:#ffffff;stroke-width:3.0066;stroke-linecap:round;stroke-miterlimit:4;stroke-dasharray:none"
       d="m 32.927088,45.706666 c -4.060547,-2.060476 -6.197204,-2.908001 -9.773595,-3.876786 -2.277308,-0.616885 -2.334378,-0.643945 -1.87058,-0.886953 1.476161,-0.77344 14.642014,-5.391307 16.452876,-5.770778 l 0.56606,-0.118619 -0.440522,1.558983 c -1.265319,4.477902 -1.288114,4.712123 -0.488187,5.016255 0.241078,0.09166 1.228639,0.16665 2.194582,0.16665 h 1.756259 v 2.107113 2.107114 l -0.928078,0.303606 c -0.510442,0.166983 -1.506881,0.531349 -2.21431,0.809702 -0.707428,0.278353 -1.343824,0.497408 -1.414213,0.486789 -0.07039,-0.01062 -1.798521,-0.867003 -3.840292,-1.903076 z"
       id="path2029"
       transform="matrix(0.26458333,0,0,0.26458333,44.581036,28.552681)" />
    <path
       style="fill:#ffffff;stroke-width:3.0066;stroke-linecap:round;stroke-miterlimit:4;stroke-dasharray:none"
       d="m 39.203974,39.541515 c 0.0036,-0.359452 3.18087,-10.890439 3.258501,-10.800092 0.0453,0.05271 2.229999,7.351992 2.994417,10.004597 l 0.26745,0.928078 h -3.260841 c -1.793462,0 -3.260249,-0.05966 -3.259527,-0.132583 z"
       id="path2031"
       transform="matrix(0.26458333,0,0,0.26458333,44.581036,28.552681)" />
    <path
       style="fill:#ffffff;stroke-width:3.0066;stroke-linecap:round;stroke-miterlimit:4;stroke-dasharray:none"
       d="m 43.445301,43.582098 v -1.78668 l 1.635185,-9.9e-4 c 0.899351,-5.48e-4 1.933495,-0.08383 2.298097,-0.185086 0.639224,-0.177517 0.662913,-0.212225 0.662913,-0.971282 v -0.787186 h 0.883883 0.883884 v 2.093508 2.093508 l -2.950887,0.576765 c -1.622988,0.317221 -3.054879,0.616671 -3.181981,0.665444 -0.18088,0.06941 -0.231094,-0.299543 -0.231094,-1.698001 z"
       id="path2033"
       transform="matrix(0.26458333,0,0,0.26458333,44.581036,28.552681)" />
    <path
       style="fill:#ffffff;stroke-width:3.0066;stroke-linecap:round;stroke-miterlimit:4;stroke-dasharray:none"
       d="m 51.93032,41.839612 2.63e-4,-1.988738 h 1.844647 c 2.210737,0 2.751547,-0.158898 2.751547,-0.808444 0,-0.255003 -0.599536,-2.05718 -1.332303,-4.004837 -0.732766,-1.947657 -1.300206,-3.573291 -1.260977,-3.61252 0.06502,-0.06502 3.919201,-0.76268 4.228464,-0.765415 0.07292,-6.44e-4 0.132583,2.857736 0.132583,6.351958 v 6.353129 l -0.751301,0.09078 c -0.413216,0.04993 -1.845225,0.15424 -3.182244,0.231802 l -2.430943,0.141023 z"
       id="path2035"
       transform="matrix(0.26458333,0,0,0.26458333,44.581036,28.552681)" />
    <path
       style="fill:#ffffff;stroke-width:3.0066;stroke-linecap:round;stroke-miterlimit:4;stroke-dasharray:none"
       d="m 48.571916,37.78679 c 1.21e-4,-0.194524 2.30773,-7.550506 2.396471,-7.639247 0.09207,-0.09207 0.497004,0.885729 1.84156,4.446796 0.615429,1.62997 1.060685,3.022087 0.989457,3.093593 -0.181175,0.181883 -5.227599,0.277317 -5.227488,0.09886 z"
       id="path2037"
       transform="matrix(0.26458333,0,0,0.26458333,44.581036,28.552681)" />
    <path
       style="fill:#ffffff;stroke-width:3.0066;stroke-linecap:round;stroke-miterlimit:4;stroke-dasharray:none"
       d="M 46.582997,35.166292 C 46.424612,34.680156 46.218456,33.989023 46.124871,33.63044 l -0.170153,-0.651968 0.892409,-0.191387 c 0.490824,-0.105263 0.931445,-0.152351 0.979157,-0.104639 0.04771,0.04771 -0.147716,0.824969 -0.434283,1.727239 l -0.521032,1.64049 z"
       id="path2039"
       transform="matrix(0.26458333,0,0,0.26458333,44.581036,28.552681)" />
    <path
       style="fill:#ffffff;stroke-width:3.0066;stroke-linecap:round;stroke-miterlimit:4;stroke-dasharray:none"
       d="m 34.894872,25.426264 c -3.891284,-5.72216 -4.349608,-6.469268 -4.143767,-6.754706 0.638815,-0.885841 2.353238,-2.862314 2.482815,-2.862314 0.08136,0 0.662185,0.394156 1.29072,0.875902 1.838331,1.409003 2.814874,1.409025 4.814648,1.09e-4 l 1.25958,-0.887421 0.848692,0.650683 c 1.014109,0.777505 2.09813,1.297506 2.704848,1.297506 0.675954,0 1.788505,-0.585065 2.465358,-1.296474 0.335061,-0.352168 0.663628,-0.640305 0.73015,-0.640305 0.118222,0 3.915317,4.877563 7.90706,10.157021 2.270736,3.003264 2.278291,2.757942 -0.09564,3.105056 -2.122243,0.310313 -2.110402,0.316205 -2.798283,-1.392316 -0.32704,-0.812284 -0.686751,-1.587892 -0.799356,-1.723573 -0.268416,-0.323421 -1.120949,-0.316419 -1.393049,0.01144 -0.117829,0.141974 -0.50543,1.156231 -0.861334,2.253903 l -0.647102,1.995766 -1.582726,0.397173 c -0.870499,0.218445 -1.635691,0.33777 -1.700425,0.265165 -0.06473,-0.0726 -0.531529,-1.524124 -1.037323,-3.2256 -0.505794,-1.701475 -1.035117,-3.272578 -1.176273,-3.491339 -0.308892,-0.478718 -0.967761,-0.519099 -1.361995,-0.08348 -0.156427,0.17285 -0.789983,1.994414 -1.407903,4.04792 l -1.123491,3.733648 z"
       id="path2041"
       transform="matrix(0.26458333,0,0,0.26458333,44.581036,28.552681)" />
    <path
       style="fill:#ffffff;stroke-width:3.0066;stroke-linecap:round;stroke-miterlimit:4;stroke-dasharray:none"
       d="m 35.535074,14.790828 -0.927549,-0.83774 1.171376,-1.414213 c 2.545012,-3.0726182 3.255589,-3.7890854 3.970313,-4.0032219 1.499662,-0.4493096 2.198764,0.079766 5.091973,3.8535709 l 1.240537,1.618116 -0.868696,0.812563 c -0.477783,0.44691 -0.957378,0.812564 -1.065767,0.812564 -0.108389,0 -0.881149,-0.477297 -1.717245,-1.06066 -0.836096,-0.583363 -1.685797,-1.06066 -1.888224,-1.06066 -0.202428,0 -1.037097,0.477297 -1.854821,1.06066 -0.817724,0.583363 -1.652726,1.059783 -1.85556,1.05871 -0.202834,-0.0011 -0.786186,-0.378933 -1.296337,-0.839689 z"
       id="path2043"
       transform="matrix(0.26458333,0,0,0.26458333,44.581036,28.552681)" />
  </g>
</svg>
