<?xml version="1.0" encoding="UTF-8" standalone="no"?>
<!-- Created with Inkscape (http://www.inkscape.org/) -->

<svg
   xmlns:dc="http://purl.org/dc/elements/1.1/"
   xmlns:cc="http://creativecommons.org/ns#"
   xmlns:rdf="http://www.w3.org/1999/02/22-rdf-syntax-ns#"
   xmlns:svg="http://www.w3.org/2000/svg"
   xmlns="http://www.w3.org/2000/svg"
   xmlns:sodipodi="http://sodipodi.sourceforge.net/DTD/sodipodi-0.dtd"
   xmlns:inkscape="http://www.inkscape.org/namespaces/inkscape"
   width="64"
   height="64"
   viewBox="0 0 16.933333 16.933334"
   version="1.1"
   id="svg8"
   inkscape:version="0.92.5 (2060ec1f9f, 2020-04-08)"
   sodipodi:docname="outer_shutter_64x64.svg">
  <defs
     id="defs2" />
  <sodipodi:namedview
     id="base"
     pagecolor="#ffffff"
     bordercolor="#666666"
     borderopacity="1.0"
     inkscape:pageopacity="0.0"
     inkscape:pageshadow="2"
     inkscape:zoom="3.959798"
     inkscape:cx="84.850925"
     inkscape:cy="52.858086"
     inkscape:document-units="mm"
     inkscape:current-layer="layer1"
     showgrid="false"
     units="px"
     inkscape:window-width="1208"
     inkscape:window-height="987"
     inkscape:window-x="1992"
     inkscape:window-y="0"
     inkscape:window-maximized="1" />
  <metadata
     id="metadata5">
    <rdf:RDF>
      <cc:Work
         rdf:about="">
        <dc:format>image/svg+xml</dc:format>
        <dc:type
           rdf:resource="http://purl.org/dc/dcmitype/StillImage" />
        <dc:title></dc:title>
      </cc:Work>
    </rdf:RDF>
  </metadata>
  <g
     inkscape:label="Layer 1"
     inkscape:groupmode="layer"
     id="layer1"
     transform="translate(0,-280.06665)">
    <path
       style="fill:#000000;stroke-width:0.07308526"
       d="m 3.3894276,295.48072 c -0.018238,-0.0505 -0.04196,-0.38785 -0.052717,-0.74962 l -0.019559,-0.65777 -1.3520769,-0.0365 -1.35207746,-0.0365 v -6.06607 -6.06608 l 0.38789776,-0.0223 c 1.1643577,-0.0667 2.6102369,0.85507 3.1655755,2.0182 0.1358284,0.28449 0.2634048,0.51812 0.2835038,0.51919 0.020096,0.002 0.1516514,-0.19966 0.2923405,-0.44605 0.4743199,-0.83071 1.3308047,-1.53787 2.3071436,-1.90492 0.3701048,-0.13913 0.5779453,-0.16299 1.420203,-0.16299 0.8422602,0 1.050099,0.0239 1.4202056,0.16299 0.976338,0.36705 1.832823,1.07421 2.307142,1.90492 0.140691,0.24639 0.272244,0.44712 0.292343,0.44605 0.02011,-0.002 0.144923,-0.22917 0.277388,-0.5069 0.55743,-1.16871 2.007792,-2.09721 3.171688,-2.03049 l 0.387899,0.0223 v 6.06608 6.06607 l -1.367809,0.0199 -1.36781,0.0199 -0.0208,0.74752 -0.0208,0.74752 -5.0632541,0.0188 c -4.0126435,0.0149 -5.0701365,-2.7e-4 -5.0964112,-0.0731 z m 9.6846104,-0.89579 v -0.54814 H 8.4696665 3.8652968 v 0.54814 0.54814 h 4.6043697 4.6043715 z m -8.9529433,-1.279 v -0.25579 H 2.5863039 1.0515141 l -0.02405,0.16976 c -0.0544252,0.38411 -0.0598474,0.38287 1.5753902,0.36159 l 1.5182417,-0.0197 z m 8.1855493,-3.6908 c 0,-4.36303 -7.2e-5,-4.36385 -0.465711,-5.26192 -0.639604,-1.23359 -1.9637784,-2.03155 -3.3712665,-2.03155 -1.7067331,0 -3.2006251,1.13697 -3.7126997,2.82565 -0.095184,0.3139 -0.118319,1.01693 -0.1418826,4.31174 -0.015492,2.16519 -0.010554,3.98256 0.010959,4.03862 0.032885,0.0857 0.6469189,0.0989 3.8598557,0.083 l 3.8207491,-0.0189 z m -7.0918236,3.30854 c -0.019638,-0.0511 -0.027093,-1.40851 -0.016575,-3.01632 l 0.019127,-2.92329 H 6.679078 8.1407819 v 2.9965 2.9965 l -1.4451319,0.0198 c -1.1171837,0.0153 -1.4532335,-0.002 -1.4808312,-0.0732 z m 2.4874525,-2.94311 v -2.55799 H 6.6790787 5.6558855 l -0.019268,2.48442 c -0.010598,1.36642 -0.00308,2.52667 0.016777,2.57833 0.027481,0.0716 0.2751206,0.0891 1.0424588,0.0736 l 1.0064206,-0.0203 z m 1.0937239,2.94311 c -0.019647,-0.0511 -0.027102,-1.40851 -0.016575,-3.01632 l 0.01911,-2.92329 h 1.4617052 1.461706 v 2.9965 2.9965 l -1.445133,0.0198 c -1.1171826,0.0153 -1.4532332,-0.002 -1.4808309,-0.0732 z m 2.4874522,-2.94311 v -2.55799 H 10.260258 9.2370636 l -0.019251,2.48442 c -0.010607,1.36642 -0.00299,2.52667 0.016768,2.57833 0.027489,0.0716 0.2751206,0.0891 1.0424584,0.0736 l 1.00642,-0.0203 z m -6.0531437,-3.6657 c -0.099018,-0.099 -0.045886,-0.75217 0.099461,-1.22276 0.1865954,-0.60413 0.6957098,-1.28807 1.2396847,-1.66539 1.1313571,-0.78477 2.7576349,-0.76644 3.857803,0.0435 0.809206,0.5957 1.370675,1.6612 1.317351,2.49993 l -0.02265,0.3562 -3.2210919,0.019 c -1.7715987,0.0105 -3.2433539,-0.004 -3.2705643,-0.0305 z m 5.9954847,-0.69147 c -0.06386,-0.47607 -0.455406,-1.19019 -0.840321,-1.53258 -1.1196529,-0.99596 -2.7609139,-0.99206 -3.8470943,0.009 -0.3739928,0.34474 -0.7631342,1.06347 -0.8248292,1.52343 l -0.040367,0.30093 h 2.7964846 2.7964879 z m 4.662031,7.68254 v -0.25579 H 14.35303 12.81824 l -0.02406,0.16976 c -0.05442,0.38411 -0.05985,0.38287 1.575391,0.36159 l 1.518241,-0.0197 z M 4.1210947,292.02695 v -0.51161 H 2.5863039 1.0515141 l -0.022218,0.43033 c -0.012221,0.23668 -0.00475,0.4758 0.016552,0.53137 0.031613,0.0824 0.3188657,0.0974 1.5570093,0.0812 L 4.1211,292.53856 Z m 11.7667263,0 v -0.51161 H 14.35303 12.81824 l -0.02221,0.43033 c -0.01221,0.23668 -0.0048,0.4758 0.01655,0.53137 0.03162,0.0824 0.318867,0.0974 1.55701,0.0812 l 1.518242,-0.0197 z M 4.1210947,290.49216 v -0.5116 H 2.5863039 1.0515141 l -0.022218,0.43032 c -0.012221,0.23669 -0.00475,0.4758 0.016552,0.53136 0.031613,0.0824 0.3188657,0.0974 1.5570093,0.0812 L 4.1211,291.00377 Z m 11.7667263,0 v -0.5116 H 14.35303 12.81824 l -0.02221,0.43032 c -0.01221,0.23669 -0.0048,0.4758 0.01655,0.53136 0.03162,0.0824 0.318867,0.0974 1.55701,0.0812 l 1.518242,-0.0197 z M 4.1210947,288.95737 v -0.51161 H 2.5863039 1.0515141 l -0.022218,0.43033 c -0.012221,0.23669 -0.00475,0.4758 0.016552,0.53136 0.031613,0.0824 0.3188657,0.0974 1.5570093,0.0813 L 4.1211,289.46898 Z m 11.7667263,0 v -0.51161 H 14.35303 12.81824 l -0.02221,0.43033 c -0.01221,0.23669 -0.0048,0.4758 0.01655,0.53136 0.03162,0.0824 0.318867,0.0974 1.55701,0.0813 l 1.518242,-0.0197 z m -11.7667263,-1.5348 v -0.5116 H 2.5863039 1.0515141 l -0.022218,0.43034 c -0.012221,0.23667 -0.00475,0.47579 0.016552,0.53135 0.031613,0.0824 0.3188657,0.0974 1.5570093,0.0812 L 4.1211,287.93418 Z m 11.7667263,0 v -0.5116 H 14.35303 12.81824 l -0.02221,0.43034 c -0.01221,0.23667 -0.0048,0.47579 0.01655,0.53135 0.03162,0.0824 0.318867,0.0974 1.55701,0.0812 l 1.518242,-0.0197 z M 4.144675,286.11026 c 0.012966,-0.15903 0.00317,-0.39813 -0.021856,-0.53135 l -0.045437,-0.24221 -1.5129312,0.0197 -1.5129323,0.0197 -0.022218,0.43033 c -0.012221,0.23668 -0.00475,0.4758 0.016552,0.53136 0.031613,0.0824 0.318865,0.0974 1.5570095,0.0812 l 1.5182426,-0.0197 z m 11.743146,-0.22248 v -0.51159 l -1.507612,-0.0197 -1.507616,-0.0197 -0.04445,0.16592 c -0.06059,0.2261 -0.05807,0.8242 0.0037,0.886 0.02759,0.0275 0.726468,0.0413 1.553063,0.0304 l 1.502897,-0.0197 z M 3.9791513,284.70015 C 3.9526565,284.58961 3.8586529,284.35116 3.770243,284.17028 L 3.6094981,283.84139 H 2.330506 1.0515141 l -0.022218,0.43033 c -0.012221,0.23669 -0.00503,0.47512 0.015978,0.52987 0.030487,0.0794 0.3354626,0.0995 1.5101188,0.0995 H 4.0273154 Z M 15.887821,284.353 v -0.51161 h -1.278993 -1.27899 l -0.160745,0.32889 c -0.08841,0.18088 -0.182592,0.42002 -0.209294,0.53141 l -0.04855,0.20252 1.488288,-0.0198 1.488285,-0.0198 z M 3.134444,283.29948 c 0,-0.0368 -0.1678933,-0.1901 -0.3730967,-0.34073 -0.4099518,-0.30094 -1.1922414,-0.6156 -1.5304448,-0.6156 h -0.215931 v 0.46287 c 0,0.25458 0.021924,0.4848 0.048724,0.5116 0.07529,0.0753 2.0707495,0.0577 2.0707495,-0.0181 z m 12.774989,-0.46301 0.0216,-0.49332 h -0.219272 c -0.341183,0 -1.122206,0.31348 -1.533783,0.6156 -0.205204,0.15063 -0.373098,0.30153 -0.373098,0.33534 0,0.0338 0.468659,0.0557 1.041468,0.0486 l 1.041464,-0.0129 z"
       id="path8406"
       inkscape:connector-curvature="0" />
    <path
       style="fill:#ffffff;stroke-width:0.00591917;stroke-miterlimit:4;stroke-dasharray:none"
       d="m 1.4088505,283.32115 -0.3393242,-0.0333 -0.015083,-0.45679 -0.015083,-0.45678 h 0.1863916 c 0.4073412,0 1.2689788,0.38269 1.6615664,0.73796 l 0.218155,0.19743 -0.3393242,0.003 c -0.1866289,0.002 -0.4920204,0.0114 -0.6786492,0.0224 -0.1866281,0.0109 -0.4920205,0.005 -0.6786492,-0.0135 z"
       id="path8408"
       inkscape:connector-curvature="0" />
    <path
       style="fill:#ffffff;stroke-width:0.00591917;stroke-miterlimit:4;stroke-dasharray:none"
       d="m 1.2261372,284.83427 -0.1566109,-0.0335 v -0.44322 -0.44322 l 1.2687908,-0.014 1.2687911,-0.014 0.1556864,0.34336 c 0.085628,0.18885 0.1695014,0.41243 0.1863877,0.49687 l 0.030702,0.15351 -1.2985691,-0.006 c -0.7142124,-0.004 -1.3690431,-0.0213 -1.45518,-0.0397 z"
       id="path8410"
       inkscape:connector-curvature="0" />
    <path
       style="fill:#ffffff;stroke-width:0.00591917;stroke-miterlimit:4;stroke-dasharray:none"
       d="m 1.108679,286.35944 c -0.071891,-0.029 -0.093438,-0.78207 -0.025303,-0.88437 0.02545,-0.0382 0.532195,-0.0697 1.5061081,-0.0937 l 1.4677554,-0.0362 0.033105,0.16551 c 0.018212,0.091 0.033105,0.32702 0.033105,0.52442 v 0.35889 l -1.4747559,-0.004 c -0.8111155,-0.002 -1.5041209,-0.0159 -1.5400109,-0.0304 z"
       id="path8412"
       inkscape:connector-curvature="0" />
    <path
       style="fill:#ffffff;stroke-width:0.00591917;stroke-miterlimit:4;stroke-dasharray:none"
       d="m 1.434953,287.9135 -0.3654267,-0.0317 -0.015705,-0.36433 c -0.00864,-0.20039 -0.00231,-0.41768 0.014047,-0.48289 l 0.029752,-0.11855 H 2.5844317 4.071244 v 0.49593 0.49594 H 3.0858978 c -0.5419398,0 -1.0528845,0.009 -1.1354313,0.0186 -0.082548,0.0102 -0.3145273,0.004 -0.5155116,-0.0131 z"
       id="path8414"
       inkscape:connector-curvature="0" />
    <path
       style="fill:#ffffff;stroke-width:0.00591917;stroke-miterlimit:4;stroke-dasharray:none"
       d="m 1.1347808,289.41765 c -0.072974,-0.0425 -0.091357,-0.12536 -0.091357,-0.41177 0,-0.57347 -0.14685133,-0.52371 1.5455965,-0.52371 h 1.4822219 v 0.4633 0.46331 l -0.1631365,0.0326 c -0.2750247,0.055 -2.6733724,0.0345 -2.7733249,-0.0238 z"
       id="path8416"
       inkscape:connector-curvature="0" />
    <path
       style="fill:#ffffff;stroke-width:0.00591917;stroke-miterlimit:4;stroke-dasharray:none"
       d="m 1.0782266,290.95314 c -0.043512,-0.0435 -0.046073,-0.76254 -0.00315,-0.87449 0.027864,-0.0726 0.2104738,-0.0826 1.5139079,-0.0826 h 1.4822229 v 0.49594 0.49594 H 2.5920993 c -0.8135077,0 -1.4947668,-0.0157 -1.5139087,-0.0349 z"
       id="path8418"
       inkscape:connector-curvature="0" />
    <path
       style="fill:#ffffff;stroke-width:0.00591917;stroke-miterlimit:4;stroke-dasharray:none"
       d="m 1.2261372,292.50822 -0.1566109,-0.0335 v -0.44321 -0.44322 l 1.5008579,-0.0138 1.500858,-0.0138 v 0.4625 0.46252 l -0.7439039,0.034 c -0.8863587,0.0406 -1.883494,0.0351 -2.1012011,-0.0114 z"
       id="path8420"
       inkscape:connector-curvature="0" />
    <path
       style="fill:#ffffff;stroke-width:0.00591917;stroke-miterlimit:4;stroke-dasharray:none"
       d="m 1.108679,293.51136 c -0.036615,-0.0148 -0.065255,-0.11607 -0.065255,-0.23079 v -0.20447 h 1.5139095 1.5139092 v 0.23491 0.23493 l -1.4486545,-0.004 c -0.7967598,-0.002 -1.478019,-0.0159 -1.513909,-0.0305 z"
       id="path8422"
       inkscape:connector-curvature="0" />
    <path
       style="fill:#ffffff;stroke-width:0.00591917;stroke-miterlimit:4;stroke-dasharray:none"
       d="m 12.871376,293.47686 c -0.07298,-0.0534 -0.08617,-0.10678 -0.05803,-0.23492 l 0.03642,-0.16584 h 1.509761 1.509761 v 0.23491 0.23493 h -1.451727 c -1.121758,0 -1.473198,-0.0157 -1.546187,-0.069 z"
       id="path8424"
       inkscape:connector-curvature="0" />
    <path
       style="fill:#ffffff;stroke-width:0.00591917;stroke-miterlimit:4;stroke-dasharray:none"
       d="m 12.985033,292.51667 -0.143561,-0.0217 v -0.46636 -0.46637 h 1.513909 1.513909 v 0.46168 0.46168 l -0.791357,0.0342 c -0.825534,0.0357 -1.846415,0.0342 -2.0929,-0.003 z"
       id="path8426"
       inkscape:connector-curvature="0" />
    <path
       style="fill:#ffffff;stroke-width:0.00591917;stroke-miterlimit:4;stroke-dasharray:none"
       d="m 12.876274,290.95314 c -0.01914,-0.0192 -0.0348,-0.24231 -0.0348,-0.49593 v -0.46113 h 1.513908 1.51391 v 0.49593 0.49594 h -1.479107 c -0.813508,0 -1.494767,-0.0157 -1.51391,-0.0349 z"
       id="path8428"
       inkscape:connector-curvature="0" />
    <path
       style="fill:#ffffff;stroke-width:0.00591917;stroke-miterlimit:4;stroke-dasharray:none"
       d="m 12.932829,289.43806 c -0.0784,-0.0205 -0.09136,-0.09 -0.09136,-0.48988 v -0.46601 h 1.513909 1.513909 v 0.463 0.463 l -0.195765,0.0324 c -0.220951,0.0365 -2.59969,0.0343 -2.740696,-0.003 z"
       id="path8430"
       inkscape:connector-curvature="0" />
    <path
       style="fill:#ffffff;stroke-width:0.00591917;stroke-miterlimit:4;stroke-dasharray:none"
       d="m 13.219949,287.92232 -0.378477,-0.0189 v -0.49364 -0.49366 h 1.513909 1.513909 v 0.49593 0.49594 l -1.031025,7e-4 c -0.567063,3.9e-4 -1.078007,0.008 -1.13543,0.0166 -0.05743,0.009 -0.274723,0.007 -0.482886,-0.003 z"
       id="path8432"
       inkscape:connector-curvature="0" />
    <path
       style="fill:#ffffff;stroke-width:0.00591917;stroke-miterlimit:4;stroke-dasharray:none"
       d="m 12.821217,286.17215 c -0.03031,-0.20947 0.02563,-0.74057 0.08418,-0.79913 0.01484,-0.0148 0.687781,-0.0106 1.495432,0.009 l 1.468458,0.0363 v 0.48771 0.48769 H 14.36131 12.853328 Z"
       id="path8434"
       inkscape:connector-curvature="0" />
    <path
       style="fill:#ffffff;stroke-width:0.00591917;stroke-miterlimit:4;stroke-dasharray:none"
       d="m 12.978562,284.73654 c 0.01907,-0.079 0.104884,-0.30211 0.190698,-0.49593 l 0.156024,-0.35237 h 1.272003 1.272003 v 0.46171 0.46171 l -0.743905,0.0341 c -0.409145,0.0187 -1.067361,0.0342 -1.462698,0.0342 l -0.718797,2.1e-4 z"
       id="path8436"
       inkscape:connector-curvature="0" />
    <path
       style="fill:#ffffff;stroke-width:0.00591917;stroke-miterlimit:4;stroke-dasharray:none"
       d="m 13.885548,283.26212 c 0,-0.0754 0.391632,-0.34927 0.783142,-0.54755 0.403173,-0.20418 0.837505,-0.34024 1.086091,-0.34024 0.173493,0 0.178626,0.005 0.147136,0.16314 -0.01795,0.0897 -0.03263,0.30115 -0.03263,0.46983 v 0.3067 h -0.991872 c -0.622271,0 -0.991871,-0.0193 -0.991871,-0.0519 z"
       id="path8438"
       inkscape:connector-curvature="0" />
    <path
       style="fill:#ffffff;stroke-width:0.00591917;stroke-miterlimit:4;stroke-dasharray:none"
       d="m 4.7044121,293.49899 c -0.059987,-0.038 -0.067328,-0.68664 -0.045349,-4.00584 0.02903,-4.38341 0.016319,-4.2172 0.3793163,-4.96082 0.5305541,-1.08687 1.4872798,-1.83862 2.6871272,-2.11142 0.3943841,-0.0897 1.2321939,-0.0628 1.6854879,0.0541 1.1810725,0.30454 2.2464425,1.27777 2.6473235,2.41834 0.180241,0.51282 0.207078,1.15262 0.208009,4.95914 l 8.81e-4,3.69342 -3.7456203,-7e-4 c -2.0600899,-4.4e-4 -3.7778294,-0.0212 -3.8171992,-0.0462 z m 3.4387225,-3.50372 v -3.02864 l -1.4747559,0.0138 -1.4747559,0.0138 -0.013626,2.94951 c -0.012596,2.72653 -0.00695,2.95445 0.075233,3.01477 0.065867,0.0483 0.4509544,0.0652 1.4883809,0.0652 h 1.3995239 z m 3.6020584,6.9e-4 v -3.02782 H 10.257386 8.7695804 v 2.99789 c 0,2.81124 0.00563,2.99938 0.091356,3.02177 0.050252,0.0131 0.7197593,0.0266 1.4878056,0.0299 l 1.396451,0.006 v -3.02781 z m -0.826717,-3.65425 h 0.826717 v -0.43824 c 0,-1.23917 -0.896519,-2.44731 -2.1415323,-2.88592 -0.8137929,-0.28669 -1.8795706,-0.21592 -2.6744501,0.17759 -0.5538862,0.27421 -1.1584487,0.89607 -1.4404993,1.48173 -0.2266166,0.47056 -0.3377618,0.96268 -0.3114739,1.37914 l 0.016381,0.2596 0.4959348,0.0333 c 0.2727651,0.0183 1.3748468,0.0242 2.4490694,0.0131 1.0742233,-0.0111 2.3251544,-0.0202 2.7798494,-0.0202 z"
       id="path8440"
       inkscape:connector-curvature="0" />
    <path
       style="fill:#ffffff;stroke-width:0.00591917;stroke-miterlimit:4;stroke-dasharray:none"
       d="m 3.9146308,294.59001 v -0.52204 h 4.5678289 4.5678283 v 0.52204 0.52203 H 8.4824597 3.9146308 Z"
       id="path8442"
       inkscape:connector-curvature="0" />
  </g>
</svg>
