<?xml version="1.0" encoding="UTF-8" standalone="no"?>
<!-- Created with Inkscape (http://www.inkscape.org/) -->

<svg
   xmlns:dc="http://purl.org/dc/elements/1.1/"
   xmlns:cc="http://creativecommons.org/ns#"
   xmlns:rdf="http://www.w3.org/1999/02/22-rdf-syntax-ns#"
   xmlns:svg="http://www.w3.org/2000/svg"
   xmlns="http://www.w3.org/2000/svg"
   xmlns:sodipodi="http://sodipodi.sourceforge.net/DTD/sodipodi-0.dtd"
   xmlns:inkscape="http://www.inkscape.org/namespaces/inkscape"
   width="64"
   height="64"
   viewBox="0 0 16.933333 16.933334"
   version="1.1"
   id="svg8"
   inkscape:version="0.92.5 (2060ec1f9f, 2020-04-08)"
   sodipodi:docname="outside_trashbin_64x64.svg">
  <defs
     id="defs2" />
  <sodipodi:namedview
     id="base"
     pagecolor="#ffffff"
     bordercolor="#666666"
     borderopacity="1.0"
     inkscape:pageopacity="0.0"
     inkscape:pageshadow="2"
     inkscape:zoom="5.6"
     inkscape:cx="8.8080822"
     inkscape:cy="34.785912"
     inkscape:document-units="mm"
     inkscape:current-layer="layer1"
     showgrid="false"
     units="px"
     inkscape:window-width="1208"
     inkscape:window-height="987"
     inkscape:window-x="1992"
     inkscape:window-y="0"
     inkscape:window-maximized="1" />
  <metadata
     id="metadata5">
    <rdf:RDF>
      <cc:Work
         rdf:about="">
        <dc:format>image/svg+xml</dc:format>
        <dc:type
           rdf:resource="http://purl.org/dc/dcmitype/StillImage" />
        <dc:title></dc:title>
      </cc:Work>
    </rdf:RDF>
  </metadata>
  <g
     inkscape:label="Layer 1"
     inkscape:groupmode="layer"
     id="layer1"
     transform="translate(0,-280.06665)">
    <path
       style="fill:#000000;stroke-width:0.03060169"
       d="m 4.2151262,296.34905 c -0.047237,-0.024 -0.090969,-0.0855 -0.1143175,-0.16062 -0.020797,-0.0668 -0.2588718,-2.75187 -0.5290604,-5.96658 -0.2701887,-3.21471 -0.4990236,-5.90247 -0.5085227,-5.97282 l -0.01727,-0.1279 -0.4551099,-0.0107 c -0.5835397,-0.0125 -0.5895078,-0.0168 -0.6046693,-0.43137 -0.021601,-0.59074 0.082604,-0.9344 0.3768893,-1.24293 0.2492532,-0.26132 0.5147952,-0.37717 0.9156866,-0.39952 l 0.3029994,-0.0169 0.052132,-0.16027 c 0.1022071,-0.31419 0.41354,-0.64621 0.7289513,-0.77738 l 0.1736053,-0.0722 4.0323171,-0.009 4.0323166,-0.009 0.144813,-0.10356 c 0.153885,-0.10997 0.326948,-0.17059 0.487934,-0.17087 0.171631,-3.4e-4 0.423523,0.11496 0.544922,0.24934 0.184389,0.20409 0.207289,0.29027 0.222376,0.83685 l 0.01352,0.48963 0.151179,0.16058 c 0.276534,0.29373 0.374291,0.61556 0.356989,1.1753 -0.01452,0.46989 -0.01046,0.46662 -0.605778,0.47945 l -0.456332,0.0107 -0.01827,0.15849 c -0.02277,0.1975 -0.654383,7.66117 -0.6658,7.86767 l -0.0082,0.15057 0.169646,0.0663 c 0.813325,0.31791 1.363266,1.18747 1.305552,2.06429 -0.0574,0.87208 -0.62081,1.58732 -1.475198,1.87274 l -0.214211,0.0716 -4.1312273,0.009 c -3.2964314,0.005 -4.1466862,-2.5e-4 -4.207731,-0.0314 z m 6.5487608,-0.49933 c 0,-0.0107 -0.07412,-0.10004 -0.164699,-0.20013 -0.312879,-0.34575 -0.473541,-0.74794 -0.499758,-1.25108 -0.03219,-0.61769 0.161655,-1.11989 0.602557,-1.56109 0.39042,-0.39068 0.877988,-0.61116 1.351482,-0.61116 0.160068,0 0.179591,-0.006 0.192511,-0.0689 0.0079,-0.0379 0.160079,-1.80397 0.338157,-3.92466 0.178077,-2.12071 0.331797,-3.91436 0.341598,-3.98588 l 0.01782,-0.13007 H 8.2545478 3.5655411 l 0.017822,0.13007 c 0.00977,0.0715 0.2320821,2.67075 0.4939621,5.77607 0.2618789,3.1053 0.4832657,5.69077 0.4919708,5.74547 l 0.015834,0.0995 h 3.089383 c 1.6991601,0 3.089383,-0.009 3.089383,-0.0182 z m 1.719838,-0.0154 c 0.261912,-0.0541 0.587238,-0.23303 0.787024,-0.43282 0.984088,-0.9841 0.292502,-2.65504 -1.098893,-2.65504 -0.33293,0 -0.585414,0.0732 -0.848843,0.24608 -0.837051,0.54933 -0.957841,1.7018 -0.252307,2.40726 0.37398,0.37396 0.909407,0.53861 1.413019,0.43452 z m -0.633702,-0.83408 c -0.168356,-0.0784 -0.335266,-0.24847 -0.403037,-0.41066 -0.124373,-0.29768 -0.0043,-0.71663 0.261167,-0.91071 0.518603,-0.37925 1.235609,-0.0168 1.232548,0.62314 -4.85e-4,0.10068 -0.02053,0.23005 -0.04456,0.28757 -0.116502,0.27882 -0.421944,0.48201 -0.724578,0.48201 -0.112077,0 -0.2195,-0.0238 -0.32154,-0.0713 z m 0.482024,-0.5088 c 0.225298,-0.17721 0.0095,-0.53757 -0.255968,-0.42758 -0.106917,0.0443 -0.178143,0.17765 -0.156192,0.29247 0.01851,0.0968 0.145604,0.19564 0.251678,0.19564 0.04595,0 0.11817,-0.0272 0.160482,-0.0605 z m 1.667285,-11.12186 c -0.02754,-0.36416 -0.173667,-0.6069 -0.447399,-0.7432 -0.104916,-0.0523 -0.367777,-0.0549 -5.2973852,-0.0549 -4.9296065,0 -5.1924632,0.002 -5.2973827,0.0549 -0.2737334,0.1363 -0.4198596,0.37904 -0.4474009,0.7432 l -0.017166,0.22698 h 5.7619499 5.7619499 z m -1.558766,-1.60147 0.0089,-0.25246 H 8.5607793 c -3.2676227,0 -3.9050417,0.006 -3.9913768,0.0428 -0.1735767,0.0725 -0.4461209,0.35392 -0.4461209,0.4606 0,0.01 1.8693799,0.0135 4.1541785,0.01 l 4.1541779,-0.009 z m 1.031569,-0.058 c 0,-0.34386 -0.03261,-0.41805 -0.19985,-0.45479 -0.09831,-0.0216 -0.256517,0.047 -0.286068,0.124 -0.01046,0.0272 -0.019,0.18666 -0.019,0.35428 v 0.30475 l 0.252464,-0.01 0.252463,-0.01 z"
       id="path11188"
       inkscape:connector-curvature="0"
       sodipodi:nodetypes="ccscccssccscccccccsccsccssccsccsccscscscscccccsccssccsscccscccsccccscscscscccsccscssccsccscccs" />
    <path
       style="fill:#ffffff;stroke-width:0.00495686;stroke-miterlimit:4;stroke-dasharray:none"
       d="m 4.5762209,295.58218 c -0.015007,-0.13826 -0.232744,-2.67109 -0.4838415,-5.62852 -0.2510985,-2.95744 -0.4683948,-5.48043 -0.4828808,-5.60668 l -0.026336,-0.2295 h 4.658973 4.6589744 v 0.0947 c 0,0.0856 -0.64234,7.67582 -0.667162,7.88357 -0.0089,0.0743 -0.05617,0.0924 -0.316463,0.12092 -0.659272,0.0722 -1.358328,0.57409 -1.638275,1.17636 -0.3406207,0.73278 -0.242108,1.58461 0.255698,2.21099 l 0.1824,0.22951 H 7.6604149 4.6035219 Z"
       id="path11190"
       inkscape:connector-curvature="0" />
    <path
       style="fill:#ffffff;stroke-width:0.00495686;stroke-miterlimit:4;stroke-dasharray:none"
       d="m 11.724939,295.76983 c -0.496936,-0.16049 -0.953437,-0.65704 -1.05535,-1.14796 -0.144089,-0.69407 0.210711,-1.39949 0.866842,-1.72347 0.171676,-0.0848 0.275688,-0.10196 0.62149,-0.10249 0.358727,-5.1e-4 0.44895,0.0152 0.662221,0.11509 0.768023,0.36008 1.107453,1.32151 0.728679,2.06397 -0.135492,0.26559 -0.444927,0.56818 -0.723014,0.70702 -0.302099,0.15084 -0.786166,0.18945 -1.100868,0.0878 z m 0.728879,-0.74712 c 0.331528,-0.13852 0.491005,-0.37373 0.491005,-0.72417 0,-0.30941 -0.15168,-0.56692 -0.406634,-0.69034 -0.471631,-0.22831 -0.995088,-2e-5 -1.127506,0.49174 -0.09703,0.3603 0.07039,0.73107 0.404862,0.89662 0.224143,0.111 0.416454,0.11882 0.638273,0.026 z"
       id="path11192"
       inkscape:connector-curvature="0" />
    <path
       style="fill:#ffffff;stroke-width:0.00495686;stroke-miterlimit:4;stroke-dasharray:none"
       d="m 12.003716,294.43329 c -0.121795,-0.13459 -0.04387,-0.322 0.141376,-0.34004 0.108813,-0.0107 0.15435,0.0107 0.211893,0.0983 0.06801,0.10377 0.06813,0.11973 0.0016,0.22114 -0.08746,0.13349 -0.244512,0.14257 -0.354952,0.0206 z"
       id="path11194"
       inkscape:connector-curvature="0" />
    <path
       style="fill:#ffffff;stroke-width:0.00495686;stroke-miterlimit:4;stroke-dasharray:none"
       d="m 2.528189,283.38521 c 0.028163,-0.27961 0.164621,-0.55735 0.3327593,-0.67729 l 0.1383266,-0.0987 4.9181283,-0.0138 c 2.7049708,-0.009 5.0848778,-5.1e-4 5.2886828,0.0156 0.351225,0.028 0.378851,0.0378 0.529626,0.18865 0.151977,0.15208 0.258312,0.44346 0.258312,0.70779 0,0.0841 -0.07745,0.0853 -5.7433752,0.0853 H 2.5072731 Z"
       id="path11196"
       inkscape:connector-curvature="0" />
    <path
       style="fill:#ffffff;stroke-width:0.00495686;stroke-miterlimit:4;stroke-dasharray:none"
       d="m 4.1577676,281.98265 c 0,-0.0819 0.3312334,-0.3599 0.4771816,-0.40044 0.098495,-0.0273 1.5737469,-0.0437 3.9709917,-0.0438 l 3.8142811,-2.4e-4 v 0.24045 0.24043 H 8.2889947 c -2.2721747,0 -4.1312271,-0.0164 -4.1312271,-0.0364 z"
       id="path11198"
       inkscape:connector-curvature="0" />
    <path
       style="fill:#ffffff;stroke-width:0.00495686;stroke-miterlimit:4;stroke-dasharray:none"
       d="m 12.98854,281.69274 c 0,-0.3457 0.04337,-0.41686 0.254074,-0.41686 0.135428,0 0.185747,0.10217 0.213519,0.43342 l 0.02597,0.30977 h -0.246782 -0.246782 z"
       id="path11200"
       inkscape:connector-curvature="0" />
  </g>
</svg>
