<?xml version="1.0" encoding="UTF-8" standalone="no"?>
<!-- Created with Inkscape (http://www.inkscape.org/) -->

<svg
   xmlns:dc="http://purl.org/dc/elements/1.1/"
   xmlns:cc="http://creativecommons.org/ns#"
   xmlns:rdf="http://www.w3.org/1999/02/22-rdf-syntax-ns#"
   xmlns:svg="http://www.w3.org/2000/svg"
   xmlns="http://www.w3.org/2000/svg"
   xmlns:sodipodi="http://sodipodi.sourceforge.net/DTD/sodipodi-0.dtd"
   xmlns:inkscape="http://www.inkscape.org/namespaces/inkscape"
   width="64"
   height="64"
   viewBox="0 0 16.933333 16.933334"
   version="1.1"
   id="svg8"
   inkscape:version="0.92.5 (2060ec1f9f, 2020-04-08)"
   sodipodi:docname="pajama_64x64.svg">
  <defs
     id="defs2" />
  <sodipodi:namedview
     id="base"
     pagecolor="#ffffff"
     bordercolor="#666666"
     borderopacity="1.0"
     inkscape:pageopacity="0.0"
     inkscape:pageshadow="2"
     inkscape:zoom="5.6"
     inkscape:cx="36.138076"
     inkscape:cy="24.181183"
     inkscape:document-units="mm"
     inkscape:current-layer="layer1"
     showgrid="false"
     units="px"
     inkscape:window-width="1208"
     inkscape:window-height="987"
     inkscape:window-x="1992"
     inkscape:window-y="0"
     inkscape:window-maximized="1" />
  <metadata
     id="metadata5">
    <rdf:RDF>
      <cc:Work
         rdf:about="">
        <dc:format>image/svg+xml</dc:format>
        <dc:type
           rdf:resource="http://purl.org/dc/dcmitype/StillImage" />
        <dc:title></dc:title>
      </cc:Work>
    </rdf:RDF>
  </metadata>
  <g
     inkscape:label="Layer 1"
     inkscape:groupmode="layer"
     id="layer1"
     transform="translate(0,-280.06665)">
    <path
       style="fill:#000000;stroke-width:0.07159049"
       d="m 5.098514,296.3644 -0.1735581,-0.18476 v -3.738 c 0,-3.45793 0.00947,-3.7525 0.1269338,-3.93168 0.1215175,-0.18544 0.1215175,-0.20197 0,-0.38738 -0.095738,-0.14607 -0.1269338,-0.33956 -0.1269338,-0.78716 0,-0.32641 -0.022231,-0.58558 -0.049405,-0.57592 -0.027174,0.01 -0.4089399,0.53301 -0.8483682,1.16301 -0.4394272,0.62999 -0.8657766,1.21793 -0.9474407,1.30652 -0.2659104,0.28847 -0.5202343,0.21823 -1.3831074,-0.38207 -0.98674098,-0.68648 -1.12657458,-0.82234 -1.11904258,-1.08728 0.00439,-0.15355 0.63000338,-1.09886 2.35563208,-3.5593 1.2923281,-1.84262 2.4405276,-3.41806 2.5515542,-3.50096 0.2927833,-0.21861 1.6459949,-0.26278 2.0783173,-0.0678 0.3997563,0.18026 1.268248,0.18026 1.6680042,0 0.4310399,-0.19436 1.7849742,-0.15078 2.0783172,0.0668 0.111028,0.0824 1.256932,1.6548 2.546455,3.49424 2.52134,3.59656 2.540662,3.63161 2.183511,3.96054 -0.08859,0.0816 -0.512415,0.39326 -0.941823,0.69259 -0.862855,0.60148 -1.116973,0.67188 -1.383107,0.38316 -0.08166,-0.0886 -0.508013,-0.67653 -0.947441,-1.30652 -0.439429,-0.63 -0.821195,-1.15334 -0.848369,-1.16301 -0.02717,-0.01 -0.04941,0.24951 -0.04941,0.57592 0,0.4476 -0.0312,0.64109 -0.126935,0.78715 -0.121517,0.18541 -0.121517,0.20194 0,0.38731 0.116427,0.17761 0.128712,0.48721 0.148421,3.74061 0.01181,1.95083 0.0023,3.65179 -0.02119,3.77992 -0.02348,0.12813 -0.111699,0.29726 -0.196064,0.37585 -0.139758,0.13021 -0.253079,0.1429 -1.275676,0.1429 -1.0269936,0 -1.1383135,-0.0126 -1.3109258,-0.14838 l -0.1886315,-0.14837 v -2.67944 -2.67946 H 8.3971026 7.8959696 v 2.67946 2.67944 l -0.1886314,0.14837 c -0.1726296,0.13579 -0.2839196,0.14838 -1.3119447,0.14838 -1.115019,0 -1.1245952,-10e-4 -1.2968714,-0.18476 z m 2.3679049,-0.56694 V 295.5469 H 6.4283557 5.3902948 v 0.25056 0.25057 h 1.0380609 1.0380632 z m 3.9374771,0 V 295.5469 H 10.365834 9.3277712 v 0.25056 0.25057 h 1.0380628 1.038062 z m -3.9374771,-2.9301 c 0,-2.53499 -0.00254,-2.52258 0.4960561,-2.45652 0.2385483,0.0316 0.2643827,0.0154 0.3863333,-0.24182 0.1858656,-0.39213 0.4926318,-0.58669 0.9806998,-0.62199 0.4844456,-0.035 0.7623289,0.086 1.0434239,0.45454 0.532627,0.69831 0.10138,1.75928 -0.7621513,1.8751 l -0.2830095,0.038 v 1.60137 1.60137 h 1.0380628 1.038062 v -0.34854 -0.34852 l -0.289043,-0.0389 c -0.624371,-0.0838 -1.039763,-0.64009 -0.983598,-1.31736 0.04903,-0.5913 0.420553,-1.00136 0.97458,-1.07567 l 0.298061,-0.0399 v -1.55188 c 0,-1.22641 -0.02129,-1.58103 -0.101498,-1.69085 -0.0947,-0.12965 -0.225548,-0.14137 -1.9508415,-0.17475 l -1.8493381,-0.0358 v -0.17897 -0.17897 l 1.8213106,-0.0192 c 1.568619,-0.0165 1.839281,-0.0354 1.950842,-0.13638 0.119159,-0.10786 0.129529,-0.27921 0.129529,-2.14058 0,-1.11288 0.01955,-2.07434 0.04346,-2.13663 0.06033,-0.15721 0.294163,-0.14183 0.383569,0.0253 0.04102,0.0766 0.07411,0.58869 0.07411,1.14695 v 1.00845 l 0.803017,1.14567 c 0.530067,0.75624 0.836317,1.13288 0.900985,1.10806 0.05389,-0.0206 0.448816,-0.28338 0.87763,-0.5838 l 0.779666,-0.54622 -0.358181,-0.50838 -0.35818,-0.5084 -0.481281,0.0215 c -0.70604,0.0316 -1.175608,-0.20805 -1.503265,-0.76715 -0.258097,-0.44041 -0.268818,-1.04006 -0.02735,-1.53038 l 0.16769,-0.34051 -0.382462,-0.56984 c -0.210352,-0.3134 -0.401043,-0.57094 -0.423754,-0.57226 -0.02271,-10e-4 -0.02765,0.0906 -0.01097,0.20414 0.03822,0.26041 -0.09115,0.50935 -0.264744,0.50935 -0.185991,0 -0.219913,-0.13428 -0.219913,-0.87045 0,-0.6163 -0.009,-0.65296 -0.209264,-0.85324 -0.197808,-0.1978 -0.241924,-0.20926 -0.805812,-0.20926 H 9.7922947 l -0.165095,0.35988 C 9.3430523,281.9933 8.6049128,282.31005 7.9496478,282.0938 7.6328595,281.98928 7.2085265,281.56773 7.105346,281.25508 L 7.025799,281.01404 H 6.4173151 c -0.5770688,0 -0.6192735,0.0106 -0.8177387,0.20926 l -0.2092643,0.20927 v 3.20354 c 0,3.74435 -0.0607,3.46539 0.7540304,3.46539 0.3703106,0 0.5421469,0.0302 0.6054325,0.10648 0.1829992,0.2205 0.035732,0.30632 -0.5730903,0.33396 -0.7768322,0.0352 -0.7872295,0.0507 -0.783438,1.16613 l 0.00288,0.8633 0.3588323,0.16838 c 0.4626631,0.21711 0.722267,0.595 0.7653113,1.11406 0.054591,0.65836 -0.3591662,1.29696 -0.9331389,1.4402 l -0.1968738,0.0491 v 0.88712 0.88712 H 6.4283268 7.4663889 Z M 7.2797057,286.50221 C 7.0878741,286.3372 7.0861325,286.32798 7.1613121,285.87579 l 0.076302,-0.45895 -0.3151415,-0.32461 c -0.5253689,-0.54118 -0.3971058,-0.86666 0.3817739,-0.9688 0.36965,-0.0485 0.3771556,-0.0544 0.5507091,-0.4335 0.3183461,-0.69535 0.7705589,-0.69571 1.0778576,-8.1e-4 0.1682723,0.38049 0.1725892,0.38389 0.5507425,0.43351 0.7899373,0.10356 0.9259263,0.449 0.386464,0.98151 l -0.316835,0.31276 0.07356,0.41262 c 0.08563,0.48035 0.06139,0.57365 -0.192085,0.73974 -0.1809511,0.11856 -0.2013679,0.11586 -0.6141731,-0.0814 L 8.3934858,286.28377 7.99996,286.47678 c -0.4773922,0.23413 -0.4777191,0.23415 -0.7202481,0.0255 z m 1.1173888,-0.69161 c 0.091523,0 0.3072467,0.0826 0.4793959,0.18342 l 0.3130004,0.18343 -0.047292,-0.46158 -0.047292,-0.46158 0.2959557,-0.32108 0.2959552,-0.32107 -0.3431929,-0.0456 c -0.4340985,-0.0576 -0.6003799,-0.17505 -0.7652141,-0.54057 -0.072306,-0.16037 -0.1539046,-0.29158 -0.18132,-0.29158 -0.027417,0 -0.109008,0.13121 -0.18132,0.29158 -0.1648331,0.36552 -0.3311155,0.48299 -0.765213,0.54057 l -0.3431932,0.0456 0.2959556,0.32107 0.2959557,0.32108 -0.047292,0.46158 -0.047292,0.46158 0.3129991,-0.18343 c 0.1721504,-0.1009 0.3878774,-0.18342 0.479396,-0.18342 z m 3.0068015,7.37381 c 0,-0.86695 -0.01689,-0.89349 -0.431885,-0.6789 -0.226239,0.11699 -0.427201,0.43637 -0.427201,0.6789 0,0.25645 0.213567,0.57898 0.452074,0.68272 0.405298,0.17627 0.407012,0.17339 0.407012,-0.68272 z m -5.4966929,-0.6596 c 0.2664835,-0.40671 0.2157016,-0.84564 -0.1411098,-1.21965 -0.3392365,-0.35559 -0.3757985,-0.28752 -0.3757985,0.69984 v 0.89672 l 0.2041402,-0.10559 c 0.1122762,-0.0581 0.2530222,-0.18017 0.3127681,-0.27134 z m 3.8108516,-1.1599 c 0.2819493,-0.1178 0.4115303,-0.32259 0.4115303,-0.65037 0,-0.30979 -0.11657,-0.51209 -0.3708383,-0.64357 -0.313777,-0.16226 -0.545431,-0.1322 -0.8056967,0.10452 l -0.2337983,0.21267 0.1917601,0.002 c 0.3083623,0.003 0.4167594,0.17284 0.4167594,0.65153 0,0.46035 0.020729,0.47752 0.3902835,0.3231 z M 2.860422,288.77395 c 0.104469,-0.15945 0.1073218,-0.19546 0.019552,-0.24735 -0.056496,-0.0334 -0.4409943,-0.30162 -0.8544288,-0.59602 l -0.7516996,-0.53528 -0.1235882,0.15621 c -0.067975,0.0859 -0.1146437,0.18534 -0.1037186,0.22093 0.021111,0.0688 1.5512782,1.17202 1.6395633,1.18217 0.028629,0.003 0.1070678,-0.0779 0.1743199,-0.18066 z m 12.090348,-0.39137 c 0.451081,-0.31789 0.819429,-0.59979 0.818553,-0.62642 -8.74e-4,-0.0265 -0.05726,-0.11872 -0.125283,-0.20465 l -0.123691,-0.15621 -0.751699,0.53528 c -0.413437,0.2944 -0.797929,0.56261 -0.85443,0.59602 -0.08777,0.0518 -0.08493,0.0879 0.01955,0.24735 0.06725,0.10271 0.139057,0.18663 0.159566,0.18663 0.02051,0 0.406356,-0.26011 0.857435,-0.578 z M 3.6595419,287.6341 4.0342399,287.09513 3.8620411,286.8645 c -0.3607819,-0.48318 -0.4079421,-0.97425 -0.1464789,-1.52525 0.1390427,-0.29301 0.6140339,-0.63378 0.9787873,-0.70222 l 0.2306064,-0.0433 v -1.18134 c 0,-0.64975 -0.01611,-1.17946 -0.035789,-1.17711 -0.019691,0.002 -0.6214285,0.848 -1.3372028,1.87925 -0.7157732,1.03124 -1.4633155,2.10528 -1.6612033,2.38672 l -0.3597966,0.51171 0.832387,0.58004 c 0.4578138,0.31902 0.852439,0.58005 0.8769441,0.58005 0.024507,0 0.2131691,-0.24255 0.4192529,-0.53898 z m 0.9611548,-1.3566 c 0.2316619,-0.33372 0.268464,-0.44131 0.268464,-0.78478 0,-0.35768 -0.015371,-0.39803 -0.151603,-0.39803 -0.083381,0 -0.2766761,0.12507 -0.4295437,0.27793 -0.2349036,0.23491 -0.2779397,0.32464 -0.2779397,0.57958 0,0.26694 0.1807818,0.72208 0.2839,0.71476 0.021041,-0.001 0.1590668,-0.17675 0.3067224,-0.38946 z m 9.5508583,-0.78511 c -0.02183,-0.0569 -0.290243,-0.45898 -0.596477,-0.89355 -0.529232,-0.75102 -0.56118,-0.7822 -0.645542,-0.63036 -0.120086,0.21611 -0.11649,0.73181 0.0067,0.96868 0.210491,0.40455 0.592005,0.64576 1.034627,0.65412 0.181208,0.003 0.230564,-0.0209 0.200638,-0.0989 z m -5.4679009,-3.85996 c 0.2255514,-0.0955 0.5327047,-0.37608 0.4745317,-0.43353 -0.016169,-0.016 -0.1985241,0.002 -0.4052408,0.0395 -0.239269,0.0436 -0.5124321,0.0436 -0.7516999,0 -0.2067178,-0.0377 -0.3890761,-0.0555 -0.4052408,-0.0395 -0.055422,0.0547 0.2441391,0.33581 0.4589328,0.43063 0.2747315,0.12126 0.348255,0.12161 0.628717,0.002 z"
       id="path14883"
       inkscape:connector-curvature="0" />
    <path
       style="fill:none;stroke:#000000;stroke-width:0.03;stroke-linecap:butt;stroke-linejoin:miter;stroke-opacity:1;stroke-miterlimit:4;stroke-dasharray:none"
       d="m 6.5437128,288.31834 1.2284225,-0.0118"
       id="path14885"
       inkscape:connector-curvature="0" />
    <path
       style="fill:#ffffff;stroke-width:0.02024747;stroke-miterlimit:4;stroke-dasharray:none"
       d="M 9.3398599,32.982546 C 7.7753247,31.990347 4.0666275,29.181115 4.0675346,28.98891 4.0680221,28.885537 4.248826,28.584428 4.4693203,28.319778 l 0.4008987,-0.481182 3.0357143,2.148111 c 1.6696428,1.181461 3.0649697,2.177248 3.1007267,2.21286 0.05917,0.05893 -0.666194,1.333536 -0.758902,1.333536 -0.02187,0 -0.4304222,-0.247751 -0.9078981,-0.550557 z"
       id="path14887"
       inkscape:connector-curvature="0"
       transform="matrix(0.26458333,0,0,0.26458333,0,280.06665)" />
    <path
       style="fill:#ffffff;stroke-width:0.02024747;stroke-miterlimit:4;stroke-dasharray:none"
       d="M 10.199668,29.191915 C 6.7082059,26.810167 6.120219,26.371903 6.120219,26.151238 c 0,-0.266116 12.088432,-17.6110494 12.276786,-17.6151907 0.07366,-0.00162 0.133928,1.9066107 0.133928,4.2405107 v 4.243455 l -0.884772,0.210171 c -1.088738,0.258623 -2.670706,1.24784 -3.272248,2.046163 -0.963792,1.279077 -1.280947,3.298075 -0.753094,4.79417 0.147651,0.418488 0.551193,1.154437 0.896761,1.635441 l 0.628304,0.874554 -1.235796,1.742973 c -0.679688,0.958635 -1.356854,1.843443 -1.504813,1.966237 -0.22439,0.186229 -0.590266,0.0041 -2.205607,-1.097807 z"
       id="path14889"
       inkscape:connector-curvature="0"
       transform="matrix(0.26458333,0,0,0.26458333,0,280.06665)" />
    <path
       style="fill:#ffffff;stroke-width:0.02024747;stroke-miterlimit:4;stroke-dasharray:none"
       d="m 15.686621,23.794261 c -0.698305,-1.866387 -0.388583,-2.919461 1.219355,-4.145876 1.128781,-0.86095 1.345686,-0.748325 1.410251,0.732251 0.04147,0.951026 -0.02929,1.38915 -0.322059,1.993923 -0.436046,0.900752 -1.550367,2.408544 -1.780013,2.408544 -0.08666,0 -0.324049,-0.444979 -0.527534,-0.988842 z"
       id="path14891"
       inkscape:connector-curvature="0"
       transform="matrix(0.26458333,0,0,0.26458333,0,280.06665)" />
    <path
       style="fill:#ffffff;stroke-width:0.02024747;stroke-miterlimit:4;stroke-dasharray:none"
       d="M 25.565607,30.722945 C 25.405374,30.468922 25.010685,30.396206 23.384842,30.32116 21.943754,30.254642 21.325606,30.155267 21.129291,29.958547 20.570657,29.398763 20.495219,27.794922 20.495219,16.477901 V 5.1857313 l 0.799582,-0.7370286 0.799581,-0.7370285 h 2.207551 2.20755 l 0.242242,0.7339988 c 0.299914,0.9087472 1.561868,2.3378622 2.603382,2.9482301 2.45649,1.4395987 6.01726,0.1136153 7.232454,-2.6932698 l 0.425515,-0.982864 2.194414,-0.00305 2.194416,-0.00305 0.751766,0.7012406 0.751766,0.7012406 0.107063,2.5576879 c 0.05888,1.4067283 0.165653,2.6920996 0.237268,2.8563806 0.196055,0.449748 0.63923,0.545349 1.107062,0.238814 0.442322,-0.289821 0.567095,-0.634056 0.644363,-1.7777255 l 0.0476,-0.7045047 1.413739,2.0815012 1.413738,2.081502 -0.317645,0.76586 c -0.710246,1.71244 -0.838196,2.237012 -0.838639,3.438291 -0.0014,3.810256 2.90503,6.254216 6.986586,5.874875 l 1.194441,-0.111011 1.287968,1.827121 c 0.70838,1.004918 1.263953,1.896881 1.234603,1.982141 -0.07709,0.223959 -5.726841,4.093729 -5.976719,4.093729 -0.332191,0 -1.628333,-1.6217 -4.057608,-5.076777 L 45.13808,22.040258 45.12253,19.527749 c -0.0086,-1.38188 -0.06979,-3.223518 -0.136084,-4.09253 -0.103947,-1.362594 -0.178248,-1.626757 -0.539948,-1.919643 -0.501392,-0.406002 -0.569617,-0.412096 -1.009842,-0.09019 -0.324248,0.237096 -0.345796,0.638435 -0.435916,8.118811 -0.108373,8.995525 0.0128,8.396559 -1.743183,8.615838 -0.566606,0.07075 -3.329246,0.135427 -6.139198,0.143714 -5.550558,0.01637 -6.765995,0.103634 -6.765995,0.485768 0,0.18335 -0.320375,0.243586 -1.295557,0.243586 -1.035993,0 -1.334752,-0.06214 -1.491198,-0.310158 z m 4.878049,-6.484308 1.287724,-0.589624 1.519427,0.677031 c 1.668141,0.743296 2.058495,0.746523 2.838686,0.02347 0.39454,-0.365647 0.477154,-0.596756 0.477154,-1.334806 0,-0.490926 -0.08896,-1.3074 -0.197689,-1.814386 l -0.197689,-0.921792 0.980954,-1.00664 c 1.124012,-1.153445 1.37871,-1.578904 1.37871,-2.303059 0,-0.896702 -0.90644,-1.450946 -2.857143,-1.747004 -1.012269,-0.153632 -1.164744,-0.281771 -1.784236,-1.499465 -1.355195,-2.663816 -2.792341,-2.756682 -4.13962,-0.267494 -0.366609,0.677333 -0.796212,1.326317 -0.954674,1.442188 -0.158462,0.11587 -0.819428,0.303198 -1.468814,0.416283 -1.778752,0.309757 -2.366941,0.72598 -2.366941,1.674932 0,0.677201 0.289034,1.145804 1.448495,2.348407 l 0.860827,0.892857 -0.254452,1.570234 c -0.289688,1.787673 -0.204907,2.134023 0.677809,2.769014 0.690368,0.496625 1.036555,0.455088 2.751472,-0.330142 z"
       id="path14893"
       inkscape:connector-curvature="0"
       transform="matrix(0.26458333,0,0,0.26458333,0,280.06665)" />
    <path
       style="fill:#ffffff;stroke-width:0.02024747;stroke-miterlimit:4;stroke-dasharray:none"
       d="m 28.897246,22.431912 c 0.005,-0.229167 0.07079,-0.971752 0.146112,-1.650189 L 29.1803,19.5482 28.134224,18.429941 c -1.150414,-1.229797 -1.159585,-1.198961 0.422898,-1.422032 1.238247,-0.174547 1.852915,-0.637675 2.470761,-1.86162 0.299148,-0.59261 0.60696,-1.077472 0.684027,-1.077472 0.07707,0 0.382841,0.462054 0.679497,1.026786 0.631474,1.202109 1.377484,1.768461 2.536537,1.925673 1.620411,0.21979 1.610979,0.188557 0.42177,1.396585 l -1.080289,1.097385 0.177499,1.581231 c 0.09762,0.869677 0.146058,1.612672 0.107629,1.651101 -0.03843,0.03843 -0.534623,-0.181852 -1.102654,-0.489511 -1.298584,-0.703343 -2.043333,-0.713444 -3.316349,-0.04498 -0.538789,0.282919 -1.039885,0.541645 -1.113545,0.574946 -0.07366,0.0333 -0.129803,-0.126953 -0.124759,-0.356121 z"
       id="path14895"
       inkscape:connector-curvature="0"
       transform="matrix(0.26458333,0,0,0.26458333,0,280.06665)" />
    <path
       style="fill:#ffffff;stroke-width:0.02024747;stroke-miterlimit:4;stroke-dasharray:none"
       d="M 30.584505,5.7871342 C 30.093433,5.5555561 29.51517,5.1740707 29.299476,4.9393889 L 28.907304,4.5126946 h 2.837915 2.837915 L 34.205292,4.9148885 C 33.781009,5.366517 32.180035,6.2126035 31.7548,6.2099297 31.602209,6.2089702 31.075576,6.0187123 30.584505,5.7871342 Z"
       id="path14897"
       inkscape:connector-curvature="0"
       transform="matrix(0.26458333,0,0,0.26458333,0,280.06665)" />
    <path
       style="fill:#ffffff;stroke-width:0.02024747;stroke-miterlimit:4;stroke-dasharray:none"
       d="m 51.713175,20.605426 c -1.076239,-0.289792 -1.98478,-0.990096 -2.561727,-1.974582 -0.373135,-0.636705 -0.459616,-1.017143 -0.462837,-2.03604 -0.0037,-1.185541 0.21304,-1.990273 0.536159,-1.990273 0.302074,0 4.341155,5.870343 4.198215,6.101625 -0.125097,0.202412 -0.712513,0.167805 -1.70981,-0.10073 z"
       id="path14899"
       inkscape:connector-curvature="0"
       transform="matrix(0.26458333,0,0,0.26458333,0,280.06665)" />
    <path
       style="fill:#ffffff;stroke-width:0.02024747;stroke-miterlimit:4;stroke-dasharray:none"
       d="m 52.81153,32.899822 c -0.21602,-0.349527 -0.360841,-0.667428 -0.321824,-0.706445 0.03902,-0.03902 1.434343,-1.035667 3.100726,-2.214778 l 3.029787,-2.143838 0.400898,0.483099 c 0.220495,0.265705 0.401298,0.567013 0.401786,0.669574 0.0011,0.222512 -4.69081,3.68039 -6.010647,4.42981 -0.122234,0.06941 -0.369871,-0.14389 -0.600726,-0.517422 z"
       id="path14901"
       inkscape:connector-curvature="0"
       transform="matrix(0.26458333,0,0,0.26458333,0,280.06665)" />
    <path
       style="fill:#ffffff;stroke-width:0.02024747;stroke-miterlimit:4;stroke-dasharray:none"
       d="m 20.495219,53.480852 v -3.266533 l 0.813259,-0.217515 c 1.07216,-0.286759 2.412869,-1.542653 2.951533,-2.764815 0.304802,-0.691558 0.412481,-1.275774 0.418643,-2.271345 0.0144,-2.326521 -1.144599,-4.017725 -3.384678,-4.938907 l -0.797418,-0.32792 -6.7e-4,-3.068732 c -3.68e-4,-1.687803 0.07584,-3.269971 0.169355,-3.515929 0.251889,-0.66252 0.76819,-0.853833 2.717693,-1.007027 1.010899,-0.07944 1.930016,-0.248655 2.159378,-0.39756 0.219633,-0.142588 0.941744,-0.314059 1.604691,-0.381047 1.131868,-0.114369 1.205357,-0.09972 1.205357,0.240322 0,0.320805 0.117138,0.363084 1.026785,0.370607 0.564733,0.0047 3.620045,0.07692 6.789583,0.160568 6.794776,0.179311 6.557769,0.114732 6.731841,1.834281 0.06245,0.616913 0.0892,3.331481 0.05945,6.032374 l -0.05409,4.910714 -0.535714,0.05546 c -1.6754,0.173459 -2.979309,1.019586 -3.676154,2.385515 -0.45493,0.891736 -0.616607,2.528352 -0.3479,3.521723 0.493948,1.826068 1.69199,2.932045 3.56084,3.287205 l 1.088214,0.206807 v 1.209143 1.209143 h -3.839286 -3.839286 v -5.982143 -5.982142 h 0.414018 c 0.987777,0 2.307491,-0.569255 3.056759,-1.318522 2.157666,-2.157666 1.62775,-5.886275 -1.037882,-7.302779 -0.578825,-0.307585 -1.023141,-0.388567 -2.075752,-0.378332 -2.120794,0.02062 -3.094571,0.595942 -4.351718,2.571061 -0.377786,0.593544 -0.448563,0.625 -1.406264,0.625 -0.554651,0 -1.091956,0.08318 -1.194012,0.184846 -0.436841,0.435172 -0.548006,2.431147 -0.548006,9.839527 v 7.743484 h -3.839285 -3.839286 z"
       id="path14903"
       inkscape:connector-curvature="0"
       transform="matrix(0.26458333,0,0,0.26458333,0,280.06665)" />
    <path
       style="fill:#ffffff;stroke-width:0.02024747;stroke-miterlimit:4;stroke-dasharray:none"
       d="m 35.420081,42.605748 c -0.04787,-0.226562 -0.114333,-0.949794 -0.147697,-1.607181 -0.0701,-1.381246 -0.382402,-1.859609 -1.330129,-2.037404 l -0.611075,-0.114638 0.38941,-0.414508 c 0.961845,-1.023837 2.095752,-1.154917 3.357617,-0.388139 1.553892,0.944229 1.443589,3.70641 -0.177977,4.456868 -1.166933,0.540055 -1.384961,0.555522 -1.480149,0.105002 z"
       id="path14905"
       inkscape:connector-curvature="0"
       transform="matrix(0.26458333,0,0,0.26458333,0,280.06665)" />
    <path
       style="fill:#ffffff;stroke-width:0.02024747;stroke-miterlimit:4;stroke-dasharray:none"
       d="m 41.834505,52.164954 c -1.172186,-0.61796 -1.875,-1.619865 -1.875,-2.672927 0,-1.105111 1.531064,-2.744639 2.563066,-2.744639 0.404332,0 0.472648,0.412968 0.472648,2.857143 0,3.027028 -0.05317,3.144307 -1.160714,2.560423 z"
       id="path14907"
       inkscape:connector-curvature="0"
       transform="matrix(0.26458333,0,0,0.26458333,0,280.06665)" />
    <path
       style="fill:#ffffff;stroke-width:0.02024747;stroke-miterlimit:4;stroke-dasharray:none"
       d="m 20.495219,45.439145 c 0,-1.621544 0.04878,-3.075369 0.108391,-3.230723 0.170225,-0.443599 0.522772,-0.334996 1.119771,0.344948 0.918557,1.046179 1.140626,1.63272 1.056819,2.791336 -0.08386,1.159391 -0.684377,2.104909 -1.723557,2.713763 l -0.561424,0.328938 z"
       id="path14909"
       inkscape:connector-curvature="0"
       transform="matrix(0.26458333,0,0,0.26458333,0,280.06665)" />
    <path
       style="fill:#ffffff;stroke-width:0.02024747;stroke-miterlimit:4;stroke-dasharray:none"
       d="m 20.495219,59.42596 v -0.892858 h 3.839286 3.839285 v 0.892858 0.892857 h -3.839285 -3.839286 z"
       id="path14911"
       inkscape:connector-curvature="0"
       transform="matrix(0.26458333,0,0,0.26458333,0,280.06665)" />
    <path
       style="fill:#ffffff;stroke-width:0.02024747;stroke-miterlimit:4;stroke-dasharray:none"
       d="m 35.316647,59.42596 v -0.892858 h 3.839286 3.839286 v 0.892858 0.892857 h -3.839286 -3.839286 z"
       id="path14913"
       inkscape:connector-curvature="0"
       transform="matrix(0.26458333,0,0,0.26458333,0,280.06665)" />
  </g>
</svg>
