<?xml version="1.0" encoding="UTF-8" standalone="no"?>
<svg
   xmlns:dc="http://purl.org/dc/elements/1.1/"
   xmlns:cc="http://creativecommons.org/ns#"
   xmlns:rdf="http://www.w3.org/1999/02/22-rdf-syntax-ns#"
   xmlns:svg="http://www.w3.org/2000/svg"
   xmlns="http://www.w3.org/2000/svg"
   xmlns:sodipodi="http://sodipodi.sourceforge.net/DTD/sodipodi-0.dtd"
   xmlns:inkscape="http://www.inkscape.org/namespaces/inkscape"
   width="64"
   height="64"
   viewBox="0 0 16.933333 16.933333"
   version="1.1"
   id="svg8"
   sodipodi:docname="seren_pajama_change_64x64.svg"
   inkscape:version="1.0.2 (1.0.2+r75+1)">
  <defs
     id="defs2" />
  <sodipodi:namedview
     id="base"
     pagecolor="#ffffff"
     bordercolor="#666666"
     borderopacity="1.0"
     inkscape:pageopacity="0.0"
     inkscape:pageshadow="2"
     inkscape:zoom="5.6568542"
     inkscape:cx="7.0803571"
     inkscape:cy="32.330014"
     inkscape:document-units="mm"
     inkscape:current-layer="layer1"
     inkscape:document-rotation="0"
     showgrid="false"
     inkscape:snap-global="false"
     fit-margin-top="0"
     fit-margin-left="0"
     fit-margin-right="0"
     fit-margin-bottom="0"
     inkscape:window-width="1366"
     inkscape:window-height="704"
     inkscape:window-x="0"
     inkscape:window-y="0"
     inkscape:window-maximized="0"
     units="px" />
  <metadata
     id="metadata5">
    <rdf:RDF>
      <cc:Work
         rdf:about="">
        <dc:format>image/svg+xml</dc:format>
        <dc:type
           rdf:resource="http://purl.org/dc/dcmitype/StillImage" />
        <dc:title />
      </cc:Work>
    </rdf:RDF>
  </metadata>
  <g
     inkscape:label="Calque 1"
     inkscape:groupmode="layer"
     id="layer1"
     transform="translate(-44.581036,-28.552681)">
    <text
       xml:space="preserve"
       style="font-style:normal;font-weight:normal;font-size:10.5833px;line-height:1.25;font-family:sans-serif;fill:#000000;fill-opacity:1;stroke:none;stroke-width:0.264583"
       x="51.724785"
       y="39.66518"
       id="text1411"><tspan
         sodipodi:role="line"
         id="tspan1409"
         x="51.724785"
         y="39.66518"
         style="stroke-width:0.264583" /></text>
    <path
       style="fill:#ffffff;stroke-width:2.12598;stroke-linecap:round;stroke-miterlimit:4;stroke-dasharray:none"
       d=""
       id="path1772"
       transform="matrix(0.26458333,0,0,0.26458333,44.581036,28.552681)" />
    <path
       style="fill:#000000;stroke-width:0.0526018"
       d="m 48.033742,44.988309 c -0.0459,-0.02916 -0.06862,-0.305288 -0.0789,-0.959177 l -0.01444,-0.918223 -0.178892,0.61987 c -0.09839,0.340929 -0.199316,0.632495 -0.224279,0.647923 -0.02496,0.01543 -0.264018,-0.03398 -0.531232,-0.10979 -1.150112,-0.326294 -1.353776,-0.398348 -1.353776,-0.478946 0,-0.04416 0.151349,-0.664755 0.336331,-1.379107 0.184982,-0.714352 0.613063,-2.373822 0.951291,-3.687709 0.338227,-1.313887 0.652074,-2.445531 0.697439,-2.514766 0.10185,-0.155448 0.276391,-0.244716 1.14631,-0.586289 0.593148,-0.232898 0.720306,-0.304568 0.944855,-0.532545 l 0.259468,-0.263429 h 1.289068 1.289067 l 0.264663,0.259508 c 0.223651,0.219293 0.376323,0.304454 0.985212,0.549557 0.895533,0.36049 1.006028,0.417536 1.106885,0.571463 0.04449,0.0679 0.380022,1.282242 0.745622,2.69853 0.3656,1.416288 0.794293,3.077283 0.952652,3.6911 0.158358,0.613816 0.287924,1.151565 0.287924,1.194999 0,0.07904 -0.210228,0.153202 -1.353774,0.477634 -0.267217,0.07581 -0.506272,0.125215 -0.531235,0.10979 -0.02496,-0.01543 -0.125888,-0.306994 -0.224278,-0.647923 l -0.178892,-0.61987 -0.01443,0.918223 c -0.01025,0.653889 -0.03299,0.930013 -0.07891,0.959177 -0.08424,0.05351 -6.409507,0.05351 -6.493745,0 z m 2.891052,-3.606172 0.01391,-3.385727 -0.542156,-0.252187 c -0.402972,-0.187446 -0.561646,-0.289876 -0.618072,-0.39899 -0.09653,-0.186652 -0.09614,-0.315588 0.0013,-0.444434 0.110932,-0.146664 0.104312,-0.157339 -0.142982,-0.230474 -0.411359,-0.121659 -0.523319,-0.337217 -0.382482,-0.736392 0.04463,-0.126494 0.07443,-0.236708 0.06622,-0.24492 -0.04434,-0.04434 -1.34366,0.522989 -1.435071,0.626595 -0.0733,0.08308 -0.228209,0.589672 -0.486579,1.591225 -0.208475,0.808141 -0.59231,2.29641 -0.852967,3.307263 -0.260657,1.010854 -0.455935,1.85427 -0.433953,1.874259 0.04388,0.03989 1.323646,0.417066 1.415134,0.417066 0.03125,0 0.142945,-0.302494 0.248208,-0.672209 l 0.191392,-0.672209 v -1.557739 c 0,-1.274917 0.01316,-1.562791 0.0725,-1.585558 0.182759,-0.07013 0.190516,0.04876 0.190516,2.920182 v 2.829977 h 1.340587 1.340587 z m 3.406726,0.555751 c 0,-2.871417 0.0078,-2.990313 0.190517,-2.920182 0.05933,0.02277 0.07249,0.310641 0.07249,1.585558 v 1.557739 l 0.191389,0.672209 c 0.105266,0.369715 0.216957,0.672209 0.248208,0.672209 0.09149,0 1.371261,-0.377173 1.415134,-0.417066 0.03409,-0.03099 -0.370233,-1.670106 -1.084357,-4.395998 -0.09853,-0.376103 -0.269597,-1.037188 -0.380147,-1.469079 -0.125296,-0.489499 -0.241589,-0.831261 -0.308764,-0.907402 -0.09163,-0.103853 -1.39087,-0.671295 -1.435301,-0.626863 -0.0082,0.0082 0.02158,0.118426 0.06621,0.24492 0.140538,0.398327 0.02875,0.61478 -0.379923,0.735625 -0.220982,0.06535 -0.220994,0.06536 -0.144655,0.212984 0.09574,0.185137 0.09597,0.277938 0.0012,0.461303 -0.05813,0.112405 -0.249222,0.227299 -0.841628,0.506039 l -0.766432,0.360622 v 3.27868 3.278679 h 1.578054 1.578055 z m -2.893099,2.093552 c 0,-0.07922 0.02747,-0.107634 0.09205,-0.0952 0.05063,0.0098 0.09205,0.05259 0.09205,0.0952 0,0.0426 -0.04143,0.08544 -0.09205,0.09518 -0.06458,0.01244 -0.09205,-0.01596 -0.09205,-0.09518 z m 0,-1.371505 c 0,-0.07528 0.02833,-0.103605 0.09145,-0.09145 0.137119,0.02641 0.152412,0.200511 0.01761,0.200511 -0.07528,0 -0.109059,-0.03378 -0.10906,-0.109061 z m 0,-1.30733 c 0,-0.07528 0.03378,-0.10906 0.109059,-0.10906 0.1348,0 0.119508,0.174103 -0.01761,0.20051 -0.06312,0.01215 -0.09145,-0.01617 -0.09145,-0.09145 z m 1.116443,-1.02831 -0.277504,-0.129194 0.0145,-0.830275 0.0145,-0.830275 h 0.815328 0.815328 l 0.01449,0.830275 0.01449,0.830275 -0.277505,0.129194 c -0.188793,0.08789 -0.369988,0.129194 -0.566814,0.129194 -0.196825,0 -0.378021,-0.0413 -0.566813,-0.129194 z m 1.053381,-0.219261 0.144656,-0.07403 v -0.629871 -0.629871 h -0.631222 -0.631222 v 0.629371 c 0,0.598772 0.0058,0.632462 0.118354,0.692957 0.293819,0.157857 0.704178,0.162557 0.999434,0.01143 z m -2.169824,-0.123933 c 0,-0.07922 0.02747,-0.107622 0.09205,-0.0952 0.05063,0.0098 0.09205,0.05258 0.09205,0.0952 0,0.0426 -0.04143,0.08544 -0.09205,0.0952 -0.06458,0.01244 -0.09205,-0.01596 -0.09205,-0.0952 z m 0,-1.371504 c 0,-0.1348 0.174103,-0.119508 0.20051,0.01761 0.01216,0.06312 -0.01617,0.09145 -0.09145,0.09145 -0.07528,0 -0.109059,-0.03378 -0.10906,-0.10906 z m -3.981431,5.158247 c -0.05325,-0.04807 -1.435589,-0.439374 -1.459428,-0.413128 -0.0095,0.0106 -0.03363,0.09479 -0.05342,0.187181 -0.03428,0.160085 -0.02654,0.170519 0.164811,0.222066 0.110425,0.02975 0.43749,0.122511 0.7268,0.206137 l 0.526018,0.152047 0.06891,-0.157922 c 0.0379,-0.08686 0.04974,-0.175228 0.0263,-0.196381 z m 8.499924,0.134094 c 0.358745,-0.101391 0.660713,-0.192804 0.671039,-0.203131 0.01037,-0.01037 0.0035,-0.09475 -0.01499,-0.187603 -0.03936,-0.196803 0.01178,-0.200571 -0.913799,0.06739 -0.565367,0.16369 -0.604018,0.18336 -0.591145,0.300842 0.02153,0.196427 0.05555,0.257438 0.12889,0.231144 0.03726,-0.01336 0.361259,-0.107246 0.720004,-0.208644 z m -3.427005,-6.61483 c 0.09561,-0.07879 0.0809,-0.220026 -0.04517,-0.433684 -0.134162,-0.227388 -0.08507,-0.315769 0.204845,-0.368732 0.246136,-0.04497 0.432091,-0.162706 0.432091,-0.273583 0,-0.196365 -0.232461,-0.701899 -0.395357,-0.859784 l -0.174787,-0.169411 -0.103618,0.203468 c -0.207935,0.408329 -1.114704,2.390846 -1.114704,2.43714 0,0.04735 1.070982,-0.431822 1.196692,-0.535414 z m -1.416444,0.362276 c 0.01464,-0.07549 -0.581819,-1.428096 -0.977066,-2.215716 l -0.130669,-0.260387 -0.191035,0.207785 c -0.227736,0.247702 -0.424952,0.773978 -0.340724,0.909227 0.03,0.04818 0.181136,0.128857 0.335859,0.179301 0.380238,0.12397 0.398624,0.151787 0.261539,0.395696 -0.178564,0.317711 -0.140729,0.376568 0.420219,0.653695 0.274845,0.135783 0.523389,0.240339 0.55232,0.23235 0.02893,-0.008 0.06024,-0.05386 0.06955,-0.101957 z m 0.683267,-1.448302 c 0.265824,-0.574599 0.483317,-1.059851 0.483317,-1.078337 0,-0.01848 -0.449744,-0.03362 -0.999434,-0.03362 -0.549688,0 -0.999434,0.01512 -0.999434,0.03362 0,0.06754 0.967638,2.123062 0.999434,2.123062 0.01803,0 0.250291,-0.470126 0.516117,-1.044725 z"
       id="path1876" />
    <path
       style="fill:#000000;stroke-width:0.0526018"
       d="m 58.938956,40.055673 c -0.362944,-0.03158 -1.054141,-0.08874 -1.535996,-0.127022 -0.481856,-0.03828 -0.905593,-0.09919 -0.941645,-0.135337 -0.04602,-0.04616 -0.0286,-0.530023 0.05853,-1.624797 0.06825,-0.857483 0.135794,-1.605623 0.150112,-1.662536 0.05455,-0.216834 0.242101,-0.139046 0.564995,0.234331 0.169433,0.195926 0.325561,0.367044 0.346947,0.38026 0.06516,0.04027 0.407903,-0.604453 0.620768,-1.167691 0.110578,-0.292593 0.22797,-0.706904 0.260867,-0.920691 0.0561,-0.36457 0.06846,-0.388525 0.198889,-0.385829 0.07649,0.0016 0.161803,0.01684 0.189592,0.03392 0.07441,0.04575 -0.135215,0.953164 -0.34759,1.504629 -0.228123,0.592355 -0.708613,1.432522 -0.835586,1.461075 -0.06403,0.01439 -0.187636,-0.08342 -0.383827,-0.303711 l -0.28939,-0.324947 -0.02352,0.164388 c -0.05957,0.416253 -0.191703,2.293329 -0.162735,2.311661 0.01789,0.01131 0.509905,0.05919 1.093357,0.10635 1.393069,0.112629 1.373046,0.111521 1.344444,0.07435 -0.01359,-0.01768 -0.148664,-0.179562 -0.300138,-0.359747 -0.151477,-0.180185 -0.278316,-0.340528 -0.281866,-0.356316 -0.0035,-0.01579 0.11536,-0.223335 0.264248,-0.461213 0.525643,-0.839821 0.792776,-1.725671 0.81388,-2.698915 0.01833,-0.845101 -0.303428,-2.023032 -0.746261,-2.732073 l -0.11549,-0.184911 0.03111,0.548793 c 0.0171,0.301837 -0.0602,1.366748 0.0166,0.590804 0.0056,-0.05703 -0.27431,1.168197 -0.324987,1.116387 -0.0213,-0.02175 -0.04086,-1.273928 -0.04345,-1.431825 -0.0026,-0.157895 -0.04359,-0.591106 -0.0911,-0.962695 -0.07876,-0.616263 -0.07742,-0.679017 0.01532,-0.714333 0.14204,-0.05409 0.268907,0.05106 0.578129,0.479163 0.946578,1.310465 1.268394,2.935113 0.890576,4.495986 -0.150345,0.621126 -0.295005,0.980583 -0.615781,1.530116 -0.11238,0.192532 -0.198965,0.373949 -0.192398,0.40315 0.0066,0.0292 0.178013,0.244125 0.38099,0.477608 0.582588,0.670146 0.520471,0.737969 -0.587601,0.641548 z m -4.470727,-6.254781 c -0.08993,-0.0569 -0.06999,-0.207314 0.08703,-0.656442 0.190683,-0.545426 0.235962,-0.509944 -0.592026,-0.46393 -1.186425,0.06594 -2.354981,0.538896 -3.435905,1.390653 -0.44927,0.354022 -0.602324,0.450028 -0.665822,0.417649 -0.130249,-0.06641 -0.125416,-0.163729 0.02757,-0.555257 0.688733,-1.762527 2.365258,-3.10698 4.234767,-3.395984 0.460326,-0.07116 1.0707,-0.103865 1.290709,-0.06916 0.06934,0.01095 0.137693,-0.123719 0.292859,-0.576962 0.111321,-0.325176 0.232458,-0.611251 0.269197,-0.635721 0.113323,-0.07548 0.235804,0.03234 0.366066,0.322261 0.06866,0.15279 0.376584,0.814122 0.684294,1.469624 0.307712,0.655502 0.555753,1.234914 0.551204,1.28758 -0.0045,0.05266 -0.07885,0.127671 -0.165101,0.166676 -0.305454,0.138124 -1.868159,0.880621 -2.261083,1.074323 -0.415458,0.204809 -0.612751,0.269644 -0.683772,0.224698 z m 1.575482,-1.068839 c 0.584867,-0.277414 1.073077,-0.519691 1.084912,-0.538395 0.02664,-0.0421 -0.948806,-2.148312 -1.016408,-2.194653 -0.02689,-0.01843 -0.100237,0.119367 -0.162995,0.30623 -0.182601,0.543707 -0.194073,0.556751 -0.461845,0.525009 -0.521847,-0.06186 -1.13719,8.51e-4 -1.84263,0.187785 -0.98422,0.260809 -1.633688,0.63696 -2.323725,1.345827 -0.375297,0.385538 -0.931875,1.17394 -0.860595,1.219048 0.0214,0.01355 0.171787,-0.06638 0.334185,-0.177616 0.698511,-0.478446 1.675942,-0.875741 2.48581,-1.010406 0.512544,-0.08523 1.552375,-0.131762 1.748137,-0.07823 0.136834,0.03741 0.155803,0.165979 0.06065,0.411033 -0.170767,0.4398 -0.197083,0.528595 -0.153772,0.518855 0.02469,-0.0055 0.523405,-0.237067 1.108272,-0.514481 z"
       id="path1892"
       sodipodi:nodetypes="sssssssssssssscssssssssscssssssssssssssssssssssssssssssssssssssssssccs" />
    <path
       style="fill:#ffffff;stroke-width:0.63261;stroke-linecap:round;stroke-miterlimit:4;stroke-dasharray:none"
       d="m 48.251043,41.9995 c -0.01979,-2.776439 -0.0326,-3.022102 -0.157631,-3.022102 -0.118259,0 -0.129742,0.145119 -0.129742,1.639617 v 1.495726 l -0.171038,0.579971 c -0.219343,0.743767 -0.246527,0.797524 -0.387625,0.766535 -0.234686,-0.05154 -1.20576,-0.354568 -1.237285,-0.386093 -0.04671,-0.04671 -0.0011,-0.255015 0.420053,-1.919842 0.861385,-3.404801 1.210765,-4.683879 1.31491,-4.813881 0.07152,-0.08927 1.348109,-0.662302 1.387568,-0.622843 0.0073,0.0073 -0.01205,0.0849 -0.04296,0.172492 -0.03091,0.0876 -0.05618,0.2384 -0.05618,0.335127 0,0.227483 0.09849,0.336811 0.403668,0.448084 0.125758,0.04585 0.228649,0.08898 0.228649,0.09584 0,0.0068 -0.03448,0.07861 -0.07661,0.159457 -0.06567,0.125989 -0.07088,0.168276 -0.03649,0.295991 0.05419,0.201244 0.185168,0.302289 0.731647,0.564442 l 0.460118,0.220725 v 3.366948 3.366946 h -1.315742 -1.315742 z"
       id="path1894" />
    <path
       style="fill:#ffffff;stroke-width:0.63261;stroke-linecap:round;stroke-miterlimit:4;stroke-dasharray:none"
       d="m 50.564029,37.523846 c -0.575389,-0.280701 -0.62497,-0.345679 -0.480239,-0.629372 0.107045,-0.209824 0.09656,-0.289062 -0.04649,-0.351656 -0.06649,-0.02909 -0.217126,-0.09484 -0.334756,-0.146121 -0.206576,-0.09005 -0.21387,-0.09806 -0.213842,-0.234769 5.2e-5,-0.251593 0.432193,-1.008378 0.523089,-0.916057 0.09103,0.09245 1.07627,2.296898 1.07627,2.408117 0,0.09734 -0.117575,0.06815 -0.524028,-0.130142 z"
       id="path1896" />
    <path
       style="fill:#ffffff;stroke-width:0.63261;stroke-linecap:round;stroke-miterlimit:4;stroke-dasharray:none"
       d="m 51.143888,36.931669 c -0.385277,-0.754023 -0.830162,-1.766592 -0.787964,-1.793426 0.06046,-0.03845 1.838907,-0.03671 1.862719,0.0018 0.02055,0.03326 -0.297054,0.755554 -0.689683,1.568445 l -0.242532,0.502134 z"
       id="path1898" />
    <path
       style="fill:#ffffff;stroke-width:0.63261;stroke-linecap:round;stroke-miterlimit:4;stroke-dasharray:none"
       d="m 51.40671,37.704904 c 0.03232,-0.101827 0.893449,-1.976023 1.044581,-2.273467 l 0.11026,-0.217001 0.141497,0.156619 c 0.156168,0.17286 0.348259,0.552057 0.380594,0.751311 0.0176,0.108458 0.0051,0.14055 -0.08097,0.208267 -0.05597,0.04403 -0.170722,0.09742 -0.254994,0.118643 -0.377205,0.09501 -0.40445,0.140709 -0.266761,0.44752 0.05501,0.122567 0.09448,0.25169 0.08772,0.28694 -0.0067,0.03525 -0.09577,0.109707 -0.197809,0.165466 -0.184637,0.100897 -0.931056,0.437954 -0.969859,0.437954 -0.01119,0 -0.0086,-0.03701 0.0058,-0.08225 z"
       id="path1900" />
    <path
       style="fill:#ffffff;stroke-width:0.63261;stroke-linecap:round;stroke-miterlimit:4;stroke-dasharray:none"
       d="m 51.199642,41.486628 v -3.25601 l 0.679146,-0.326583 c 0.373531,-0.17962 0.741243,-0.381105 0.81714,-0.447743 0.163773,-0.143795 0.206993,-0.307643 0.135292,-0.5129 -0.02727,-0.07805 -0.04985,-0.155742 -0.05018,-0.172652 -3.16e-4,-0.01691 0.0897,-0.06256 0.20008,-0.101427 0.371353,-0.130775 0.454769,-0.291776 0.355745,-0.68662 -0.03396,-0.135421 -0.05589,-0.251968 -0.04873,-0.258994 0.01954,-0.01916 0.596998,0.218527 1.005704,0.413973 0.480644,0.229849 0.39508,0.01779 1.085771,2.690942 0.521366,2.017827 0.900011,3.522337 0.990463,3.935523 l 0.06764,0.309001 -0.09893,0.03761 c -0.136324,0.05183 -1.228866,0.367251 -1.27207,0.367251 -0.05161,0 -0.133259,-0.216066 -0.294765,-0.78003 l -0.144105,-0.5032 -0.01293,-1.552067 c -0.01178,-1.41356 -0.01869,-1.557831 -0.07753,-1.616659 -0.06132,-0.06132 -0.06788,-0.0613 -0.129684,4.8e-4 -0.06065,0.06063 -0.06584,0.257837 -0.07613,2.890588 l -0.01107,2.825521 h -1.560457 -1.560456 z m 0.408753,2.605569 c 0.06616,-0.07971 0.01815,-0.167851 -0.09143,-0.167851 -0.07384,0 -0.09416,0.01873 -0.09416,0.08678 0,0.142921 0.09853,0.185958 0.185582,0.08106 z m 0.03759,-1.41138 c 0,-0.05768 -0.02684,-0.099 -0.07405,-0.113983 -0.0932,-0.02958 -0.149114,0.0038 -0.149114,0.08888 0,0.08812 0.03242,0.115585 0.136382,0.115585 0.06714,0 0.08679,-0.02048 0.08679,-0.09048 z m -0.05884,-1.233924 c 0.06972,-0.02675 0.07917,-0.187554 0.01234,-0.210038 -0.09079,-0.03055 -0.176677,0.01834 -0.176677,0.100567 0,0.124884 0.04538,0.155113 0.164335,0.109471 z m 2.15687,-1.124784 0.256877,-0.117877 -0.02429,-0.58552 c -0.01336,-0.322036 -0.02434,-0.698501 -0.02441,-0.836587 l -1.06e-4,-0.251067 h -0.835523 -0.835531 l -0.0106,0.842235 -0.0106,0.842236 0.167378,0.07379 c 0.337862,0.148962 0.461487,0.175382 0.762499,0.162949 0.23849,-0.0099 0.348555,-0.03569 0.554438,-0.130165 z m -2.139142,-0.279935 c 0.06212,-0.07485 0.0095,-0.172093 -0.09305,-0.172093 -0.0741,0 -0.08901,0.01869 -0.08901,0.111591 0,0.08436 0.01703,0.111592 0.06984,0.111592 0.03841,0 0.08892,-0.02298 0.112228,-0.05107 z m 0.04111,-1.398956 c 0,-0.08585 -0.09531,-0.16356 -0.166904,-0.136086 -0.07574,0.02907 -0.07151,0.160481 0.0066,0.204179 0.08318,0.04655 0.160325,0.01379 0.160325,-0.06809 z"
       id="path1902" />
    <path
       style="fill:#ffffff;stroke-width:0.63261;stroke-linecap:round;stroke-miterlimit:4;stroke-dasharray:none"
       d="m 52.823952,40.153573 c -0.298709,-0.08369 -0.302246,-0.0923 -0.315742,-0.768255 l -0.01186,-0.593895 h 0.616279 0.616278 v 0.61581 0.615812 l -0.161019,0.07123 c -0.21843,0.09662 -0.52384,0.120967 -0.743938,0.05931 z"
       id="path1904" />
    <path
       style="fill:#ffffff;stroke-width:0.63261;stroke-linecap:round;stroke-miterlimit:4;stroke-dasharray:none"
       d="m 55.163997,44.049139 c -0.01192,-0.03107 -0.02167,-0.104548 -0.02167,-0.163284 0,-0.102015 0.01542,-0.111709 0.344056,-0.216283 0.569337,-0.181178 0.91912,-0.271384 1.004452,-0.25904 0.05779,0.0084 0.08788,0.04677 0.105844,0.135076 0.02994,0.147247 0.07848,0.123485 -0.737082,0.360779 -0.322894,0.09395 -0.606618,0.177209 -0.630497,0.185026 -0.02387,0.0078 -0.05317,-0.01119 -0.06509,-0.04227 z"
       id="path1906" />
    <path
       style="fill:#ffffff;stroke-width:0.63261;stroke-linecap:round;stroke-miterlimit:4;stroke-dasharray:none"
       d="m 46.792024,43.934827 c -0.306859,-0.08821 -0.622646,-0.178035 -0.701746,-0.199616 -0.143569,-0.03918 -0.143777,-0.0395 -0.11918,-0.19332 0.01355,-0.08475 0.02943,-0.15888 0.0353,-0.164746 0.0137,-0.0137 0.89973,0.227569 1.204068,0.32787 0.244163,0.08047 0.2613,0.106445 0.185976,0.281891 l -0.04649,0.108294 z"
       id="path1908" />
    <path
       style="fill:#ffffff;stroke-width:0.176777"
       d="m 50.30814,41.669714 c -2.184377,-0.187985 -3.996096,-0.366292 -4.026042,-0.396238 -0.06789,-0.06789 0.448602,-7.16036 0.598057,-8.212572 l 0.109613,-0.771711 1.064465,1.081071 c 0.585456,0.594588 1.165876,1.08107 1.289823,1.08107 0.371857,0 1.214774,-1.162229 2.157673,-2.97504 1.546615,-2.97351 2.660866,-6.735379 2.437057,-8.227844 -0.06574,-0.43839 -0.02855,-0.97864 0.08781,-1.275383 0.119052,-0.303633 0.193359,-1.457534 0.181141,-2.812917 -0.02246,-2.491138 -0.02123,-2.492282 0.852273,-0.795495 0.604217,1.173697 1.268885,3.123956 1.71705,5.038136 0.471235,2.012722 0.434733,6.178073 -0.07053,8.048784 -0.579401,2.145186 -1.377824,4.038024 -2.513607,5.959063 -0.584225,0.988143 -1.062226,1.851545 -1.062226,1.918669 0,0.103939 0.438997,0.657038 1.916052,2.414066 0.319548,0.380118 0.581646,0.384192 -4.738599,-0.07366 z"
       id="path20"
       transform="matrix(0.26458333,0,0,0.26458333,44.581036,28.552681)" />
    <path
       style="fill:#ffffff;stroke-width:0.176777"
       d="m 22.371541,18.757117 c 0,-0.379542 2.042703,-3.024742 3.418166,-4.426356 3.554518,-3.622098 7.957602,-5.44259 13.640786,-5.6398967 1.458407,-0.050632 2.740901,-0.1631905 2.849985,-0.2501291 0.109083,-0.086939 0.415466,-0.7534049 0.680848,-1.4810363 0.265381,-0.7276314 0.513328,-1.3229661 0.550992,-1.3229661 0.241882,0 3.859953,7.9364002 3.695906,8.1071332 -0.131151,0.136497 -7.937393,3.881621 -7.994939,3.835653 -0.02224,-0.01776 0.176636,-0.642329 0.441941,-1.387924 0.717271,-2.015767 0.763429,-1.984432 -2.897281,-1.966899 -5.314833,0.02546 -9.100983,1.221196 -13.900268,4.389975 -0.267374,0.176537 -0.486136,0.240638 -0.486136,0.142446 z"
       id="path22"
       transform="matrix(0.26458333,0,0,0.26458333,44.581036,28.552681)" />
  </g>
</svg>
