<?xml version="1.0" encoding="UTF-8" standalone="no"?>
<!-- Created with Inkscape (http://www.inkscape.org/) -->

<svg
   xmlns:dc="http://purl.org/dc/elements/1.1/"
   xmlns:cc="http://creativecommons.org/ns#"
   xmlns:rdf="http://www.w3.org/1999/02/22-rdf-syntax-ns#"
   xmlns:svg="http://www.w3.org/2000/svg"
   xmlns="http://www.w3.org/2000/svg"
   xmlns:sodipodi="http://sodipodi.sourceforge.net/DTD/sodipodi-0.dtd"
   xmlns:inkscape="http://www.inkscape.org/namespaces/inkscape"
   width="64"
   height="64"
   viewBox="0 0 16.933333 16.933334"
   version="1.1"
   id="svg8"
   inkscape:version="0.92.5 (2060ec1f9f, 2020-04-08)"
   sodipodi:docname="pets_64x64.svg">
  <defs
     id="defs2" />
  <sodipodi:namedview
     id="base"
     pagecolor="#ffffff"
     bordercolor="#666666"
     borderopacity="1.0"
     inkscape:pageopacity="0.0"
     inkscape:pageshadow="2"
     inkscape:zoom="5.6"
     inkscape:cx="59.081574"
     inkscape:cy="45.013994"
     inkscape:document-units="mm"
     inkscape:current-layer="layer1"
     showgrid="false"
     units="px"
     inkscape:window-width="1208"
     inkscape:window-height="987"
     inkscape:window-x="1992"
     inkscape:window-y="0"
     inkscape:window-maximized="1" />
  <metadata
     id="metadata5">
    <rdf:RDF>
      <cc:Work
         rdf:about="">
        <dc:format>image/svg+xml</dc:format>
        <dc:type
           rdf:resource="http://purl.org/dc/dcmitype/StillImage" />
        <dc:title></dc:title>
      </cc:Work>
    </rdf:RDF>
  </metadata>
  <g
     inkscape:label="Layer 1"
     inkscape:groupmode="layer"
     id="layer1"
     transform="translate(0,-280.06665)">
    <path
       style="fill:#000000;stroke-width:0.03211363"
       d="m 0.81586452,296.22232 -0.0796826,-0.0797 0.008858,-3.3324 0.008858,-3.33239 0.0849381,-0.23235 c 0.0536532,-0.14679 0.21730898,-0.43292 0.44435778,-0.77691 0.3842115,-0.58212 0.4822883,-0.8071 0.4822883,-1.10635 0,-0.38864 -0.1841582,-0.79541 -0.4652569,-1.02764 -0.52547776,-0.43413 -0.63980405,-0.66567 -0.52332596,-1.05989 0.0562868,-0.19049 0.31864186,-0.44469 0.51568006,-0.49963 0.2207434,-0.0615 0.5016698,-0.0286 0.6896827,0.0809 0.2485325,0.14474 0.7734633,0.69826 0.936048,0.98704 0.4701982,0.83512 0.5087617,1.83184 0.1033618,2.67145 -0.068227,0.14131 -0.2559433,0.45742 -0.4171521,0.70249 -0.1612076,0.24506 -0.2931061,0.45666 -0.2931061,0.47022 0,0.0136 -0.1047672,-0.008 -0.2328239,-0.0491 -0.1280531,-0.0406 -0.2313783,-0.0896 -0.2296127,-0.10901 0.00177,-0.0192 0.00543,-0.0547 0.00803,-0.0785 0.00272,-0.0239 0.1517926,-0.26594 0.3314298,-0.5379 0.3688867,-0.55851 0.4795802,-0.79315 0.558416,-1.18375 0.1722961,-0.85364 -0.1879007,-1.80028 -0.8841604,-2.32367 -0.2406682,-0.1809 -0.4011908,-0.20246 -0.5322024,-0.0715 -0.1216804,0.12168 -0.1067631,0.26019 0.041288,0.3833 0.066066,0.0549 0.2288392,0.20825 0.3617286,0.34072 0.4587566,0.45731 0.6330096,1.04432 0.4984762,1.67922 -0.059641,0.28148 -0.1627121,0.48039 -0.5578266,1.07657 -0.1776886,0.26811 -0.3409015,0.5417 -0.3626958,0.608 -0.037686,0.11456 -0.084489,1.81051 -0.048965,1.77374 0.00815,-0.008 0.091434,-0.13101 0.1849895,-0.27232 0.093559,-0.1413 0.3225971,-0.40919 0.5089849,-0.59531 0.272396,-0.27202 0.4628335,-0.42162 0.9706197,-0.7625 0.6527195,-0.43816 0.7944192,-0.56635 0.8570079,-0.77525 0.025522,-0.0851 0.036658,-0.65548 0.036658,-1.87829 v -1.75596 l 0.07882,-0.0788 c 0.1028776,-0.10286 0.1909584,-0.0994 0.4994967,0.0196 0.3024219,0.11656 0.5960429,0.32373 0.7439677,0.52474 l 0.1067631,0.14509 0.4977607,0.001 0.4977617,10e-4 0.072325,-0.10618 c 0.039776,-0.0585 0.1134712,-0.14566 0.1637692,-0.19385 l 0.091445,-0.0876 0.163781,0.19998 0.1637822,0.2 -0.1089716,0.12061 c -0.059936,0.0664 -0.1316115,0.1644 -0.1592873,0.21792 -0.027671,0.0535 -0.078124,0.1122 -0.1121013,0.13037 -0.082659,0.0443 -1.4623453,0.0443 -1.5450111,0 -0.033978,-0.0182 -0.084832,-0.0776 -0.1130107,-0.13213 -0.09735,-0.18824 -0.4060092,-0.47708 -0.5098316,-0.47708 -0.00968,0 -0.017822,0.69004 -0.018034,1.53342 -4.122e-4,1.59824 -0.00791,1.70108 -0.1431264,1.96697 -0.1267694,0.24922 -0.2826979,0.38658 -0.9459732,0.83334 -0.4240917,0.28567 -0.7583028,0.53745 -0.908436,0.68439 -0.496393,0.48584 -0.8359954,1.09668 -1.010735,1.818 -0.042552,0.17563 -0.053925,0.48359 -0.065109,1.7623 l -0.013546,1.54949 h 1.8045766 1.8045766 l -0.020443,-0.1044 c -0.023986,-0.12246 -0.1011652,-0.23487 -0.2246289,-0.32719 -0.07888,-0.0589 -0.1478846,-0.0679 -0.6312346,-0.0823 -0.4640842,-0.0137 -0.5509591,-0.0243 -0.5998965,-0.0732 -0.049484,-0.0495 -0.0597,-0.14068 -0.075549,-0.67439 -0.020455,-0.68905 -0.058637,-0.88801 -0.2424184,-1.26314 -0.061578,-0.12567 -0.1848136,-0.31891 -0.2738699,-0.42943 l -0.1619185,-0.20095 0.1705423,-0.17268 c 0.093796,-0.095 0.179819,-0.1727 0.1911579,-0.1727 0.055342,0 0.3991972,0.48815 0.5275763,0.74896 0.2054505,0.4174 0.2751312,0.71516 0.2962937,1.26619 l 0.017573,0.45761 0.30868,3.8e-4 c 0.1697746,3.6e-4 0.3411944,0.009 0.3809353,0.0198 l 0.072254,0.0194 v -1.43281 -1.4328 H 4.8483696 5.105279 v 1.5882 1.58819 l 0.080438,0.11854 c 0.080557,0.11872 0.1764721,0.39063 0.1764721,0.50031 0,0.0516 0.029962,0.0583 0.2569083,0.0583 h 0.2569093 v -1.92681 -1.92682 h 0.2569094 0.2569094 l 0.00105,1.72612 c 0.00105,1.70226 0.00189,1.7238 0.058755,1.55911 0.1073418,-0.31068 0.2942221,-0.51157 0.5905028,-0.6348 l 0.1204274,-0.0501 v -5.02537 -5.02535 H 6.859041 c -0.2409233,0 -0.3146217,-0.0118 -0.366703,-0.0562 -0.073518,-0.0634 -0.873379,-1.91317 -0.873288,-2.01959 3.18e-5,-0.0378 0.025344,-0.0972 0.056251,-0.13212 0.055803,-0.063 1.1006876,-0.72544 1.1161552,-0.70766 0.043945,0.0506 0.2406458,0.38281 0.2406458,0.40653 0,0.017 -0.1876256,0.14885 -0.4169443,0.29287 l -0.4169454,0.26186 0.042859,0.10204 c 0.023573,0.0561 0.1622504,0.38024 0.3081793,0.72025 l 0.2653252,0.61818 h 0.1729929 0.1729917 v -0.54631 -0.54631 l 0.2605292,-0.52146 c 0.1432893,-0.28681 0.2663834,-0.52776 0.2735391,-0.53542 0.012873,-0.0138 0.4614541,0.19347 0.4614541,0.21324 0,0.006 -0.1083811,0.22666 -0.2408524,0.49115 l -0.2408524,0.4809 v 1.25283 1.25283 h 1.9268192 1.9268168 v -1.25283 -1.25283 l -0.240852,-0.4809 c -0.132469,-0.26449 -0.240851,-0.48552 -0.240851,-0.49115 0,-0.02 0.448638,-0.227 0.462017,-0.21324 0.0074,0.008 0.130559,0.25029 0.27354,0.53916 l 0.259965,0.5252 v 0.54257 0.54257 h 0.172991 0.172993 l 0.265325,-0.61818 c 0.145929,-0.34001 0.284653,-0.66423 0.308273,-0.72048 l 0.04295,-0.10227 -0.805613,-0.50421 c -0.521536,-0.32642 -0.873431,-0.52533 -0.997944,-0.56407 -0.175303,-0.0546 -0.316676,-0.0599 -1.5966424,-0.0599 -1.5578629,0 -1.5888891,0.004 -1.9339867,0.21189 -0.099453,0.0601 -0.1894231,0.10925 -0.1999305,0.10925 -0.010511,0 -0.076624,-0.0904 -0.1469139,-0.20071 -0.1491341,-0.2342 -0.1560347,-0.21977 0.1951368,-0.40815 0.399822,-0.21447 0.4970638,-0.22498 2.0827276,-0.22498 1.5185391,0 1.6714161,0.0136 1.9930841,0.17655 0.265711,0.13463 1.869968,1.13971 1.932807,1.2109 0.03091,0.0351 0.05623,0.0946 0.05625,0.13236 9.6e-5,0.10641 -0.799772,1.95621 -0.873288,2.0196 -0.05208,0.0449 -0.125779,0.0562 -0.366703,0.0562 h -0.301518 v 1.2348 c 0,1.33407 0.01051,1.44564 0.168405,1.78388 0.0842,0.18042 0.197951,0.31008 0.838247,0.95553 0.639673,0.64484 0.745389,0.7391 0.774288,0.69045 0.0205,-0.0345 0.03292,-0.31771 0.03203,-0.73074 -0.0012,-0.5703 -0.01218,-0.72253 -0.07094,-0.98632 -0.125119,-0.56164 -0.304814,-1.00542 -0.589884,-1.4568 -0.221809,-0.35121 -0.158775,-0.44642 0.405369,-0.61233 0.327948,-0.0965 0.417509,-0.11077 0.601112,-0.0965 0.379765,0.0298 0.681839,0.2131 0.895362,0.54345 0.06689,0.10345 0.138956,0.26562 0.160134,0.36025 0.03043,0.13601 0.07316,0.20872 0.203873,0.34694 0.398171,0.42106 0.548977,0.98554 0.417605,1.56314 -0.04778,0.2101 -0.04718,0.22632 0.01281,0.34392 0.03463,0.0679 0.09694,0.23162 0.138465,0.36388 0.06779,0.21592 0.0754,0.29947 0.07442,0.81851 -9.37e-4,0.49306 -0.01193,0.62167 -0.07486,0.87481 -0.04058,0.16323 -0.0843,0.30327 -0.09717,0.31123 -0.01773,0.0106 -0.440573,-0.0993 -0.475729,-0.12411 -0.0035,-0.002 0.02301,-0.11243 0.05916,-0.24426 0.04674,-0.17042 0.07059,-0.37899 0.08254,-0.72212 0.01935,-0.55525 -0.01642,-0.75451 -0.200552,-1.11771 -0.06115,-0.12063 -0.111192,-0.24397 -0.111192,-0.27409 0,-0.0301 0.03052,-0.14095 0.06781,-0.24632 0.05495,-0.15522 0.06484,-0.24069 0.05209,-0.45051 -0.02079,-0.34242 -0.126286,-0.55991 -0.394765,-0.81383 -0.183075,-0.17316 -0.201883,-0.20357 -0.22326,-0.361 -0.06677,-0.49176 -0.447148,-0.76023 -0.895108,-0.63177 -0.0727,0.0209 -0.137447,0.0418 -0.143885,0.0465 -0.0065,0.005 0.05443,0.14364 0.135258,0.3087 0.184016,0.37578 0.31926,0.78674 0.412216,1.25255 0.09592,0.48071 0.103256,1.44616 0.01464,1.92853 l -0.0578,0.31463 0.207828,0.23222 c 0.635228,0.70975 1.083701,1.4762 1.365581,2.33381 0.268095,0.81568 0.326432,1.31664 0.326432,2.80319 v 1.1176 l -0.07882,0.0789 -0.07882,0.0788 h -1.077278 -1.077267 v -0.2569 -0.25692 h 0.899183 0.899182 l -2.52e-4,-0.95538 c -1.58e-4,-0.52545 -0.01513,-1.08544 -0.0333,-1.2444 -0.121547,-1.06329 -0.509064,-2.04311 -1.149431,-2.90645 -0.09826,-0.13247 -0.708229,-0.77555 -1.355494,-1.42906 -1.17379,-1.18511 -1.17724,-1.189 -1.327705,-1.49329 -0.08296,-0.16778 -0.167973,-0.39539 -0.188892,-0.50577 l -0.03804,-0.20044 H 9.6098979 7.6743711 v 3.89825 c 0,4.44408 0.030364,4.01831 -0.2901335,4.06897 -0.3145414,0.0497 -0.4564513,0.21215 -0.4751975,0.54392 l -0.012649,0.22377 h 0.5133161 0.5133169 l 0.014444,-0.24952 c 0.025344,-0.43791 0.2339895,-0.76473 0.5931612,-0.92916 l 0.1713737,-0.0784 v -2.32587 -2.32589 h 0.2569091 0.2569082 v 2.48525 c 0,2.84114 0.025687,2.60604 -0.2901323,2.65597 -0.3145414,0.0497 -0.4564513,0.21214 -0.4751986,0.54391 l -0.012649,0.22378 h 0.902805 0.9028066 v -2.95446 -2.95445 h 0.256908 0.256909 v 2.37985 c 0,2.254 0.003,2.37861 0.0562,2.35649 0.195746,-0.0814 0.375049,-0.11196 0.655404,-0.11196 h 0.316033 l 1.97e-4,-0.68243 c 2.88e-4,-1.04417 0.09489,-1.51439 0.437747,-2.17568 0.154783,-0.29856 0.588542,-0.89919 0.649367,-0.89919 0.01254,0 0.09968,0.0778 0.193614,0.17295 l 0.170803,0.17295 -0.187956,0.22408 c -0.363671,0.43356 -0.599379,0.94834 -0.700388,1.52964 -0.03633,0.20906 -0.04955,0.5146 -0.04955,1.1445 0,0.7977 -0.0044,0.86474 -0.06129,0.93511 -0.05903,0.073 -0.0815,0.0764 -0.607924,0.0919 -0.487369,0.0143 -0.556235,0.0233 -0.635195,0.0823 -0.168431,0.12592 -0.218138,0.22563 -0.231646,0.46468 l -0.01265,0.22378 h 1.320283 1.320282 v 0.2569 0.25691 H 7.1430344 0.89547272 Z M 11.528083,286.28256 v -0.25691 H 9.6012647 7.6744466 v 0.25691 0.25692 h 1.9268181 1.9268183 z m -6.6796361,0.77073 v -0.25691 h 0.2569094 0.2569082 v 0.25691 0.25691 H 5.1053563 4.8484469 Z m 1.2845458,0 v -0.25691 h 0.2569082 0.2569094 v 0.25691 0.25691 H 6.3899009 6.1329927 Z m 2.0552715,-2.31218 v -0.25692 h 0.3061114 c 0.3340315,0 0.4668902,-0.0383 0.5875302,-0.16917 l 0.074746,-0.0811 -0.1132823,-0.0374 c -0.1439885,-0.0475 -0.2997882,-0.22375 -0.3272573,-0.37017 -0.038914,-0.20743 -0.00201,-0.5523 0.069231,-0.64778 0.1521114,-0.20373 0.2022854,-0.21977 0.6874671,-0.21977 0.4851817,0 0.5353547,0.0161 0.6874667,0.21977 0.07129,0.0954 0.108145,0.44035 0.06923,0.64778 -0.02747,0.14642 -0.18327,0.32265 -0.327257,0.37017 l -0.1132822,0.0374 0.074746,0.0811 c 0.1206387,0.13092 0.2534972,0.16917 0.5875282,0.16917 h 0.30611 v 0.25692 0.2569 h -0.315308 c -0.3739,0 -0.5780563,-0.0531 -0.8055089,-0.20957 l -0.1637267,-0.11267 -0.1637267,0.11267 C 9.08163,284.9449 8.8774739,284.99801 8.5035715,284.99801 H 8.188263 Z m 1.5414552,-1.15609 v -0.12846 H 9.47281 9.2159006 v 0.12846 0.12846 H 9.47281 9.7297194 Z m -1.5414552,-0.89918 v -0.25691 H 8.4451736 8.702083 v 0.25691 0.2569 H 8.4451736 8.1882642 Z m 2.0552728,0 v -0.25691 h 0.256909 0.256908 v 0.25691 0.2569 h -0.256908 -0.256909 z"
       id="path6036"
       inkscape:connector-curvature="0" />
    <path
       style="fill:none;stroke:#000000;stroke-width:0.00179641;stroke-linecap:butt;stroke-linejoin:miter;stroke-miterlimit:4;stroke-dasharray:none;stroke-opacity:1"
       d="m 2.2838291,289.61203 -0.050925,0.57715"
       id="path6038"
       inkscape:connector-curvature="0" />
    <path
       style="fill:none;stroke:#000000;stroke-width:0.00179641;stroke-linecap:butt;stroke-linejoin:miter;stroke-miterlimit:4;stroke-dasharray:none;stroke-opacity:1"
       d="m 6.9004908,285.78068 0.3740028,0.0119"
       id="path6040"
       inkscape:connector-curvature="0" />
    <path
       style="fill:none;stroke:#000000;stroke-width:0.00179641;stroke-linecap:butt;stroke-linejoin:miter;stroke-miterlimit:4;stroke-dasharray:none;stroke-opacity:1"
       d="m 7.478195,281.61679 -0.662027,0.33949"
       id="path6042"
       inkscape:connector-curvature="0" />
    <path
       style="fill:none;stroke:#000000;stroke-width:0.00179641;stroke-linecap:butt;stroke-linejoin:miter;stroke-miterlimit:4;stroke-dasharray:none;stroke-opacity:1"
       d="m 13.390676,295.7882 0.449581,1.7e-4"
       id="path6044"
       inkscape:connector-curvature="0" />
    <path
       style="fill:none;stroke:#000000;stroke-width:0.00179641;stroke-linecap:butt;stroke-linejoin:miter;stroke-miterlimit:4;stroke-dasharray:none;stroke-opacity:1"
       d="m 15.473444,290.66449 -0.288576,0.2037"
       id="path6046"
       inkscape:connector-curvature="0" />
    <path
       style="fill:#ffffff;stroke-width:0.00064158;stroke-miterlimit:4;stroke-dasharray:none"
       d="m 7.6801911,284.2572 v -1.24778 l 0.2376506,-0.47507 c 0.1307081,-0.26129 0.2376507,-0.48546 0.2376507,-0.49815 0,-0.0245 -0.340468,-0.19208 -0.4241176,-0.2088 l -0.049154,-0.009 -0.2641265,0.52804 -0.2641265,0.52804 v 0.5433 0.54331 H 6.9860465 6.8181237 l -0.2990383,-0.70022 c -0.1644719,-0.38512 -0.2988446,-0.70786 -0.2986072,-0.71719 2.374e-4,-0.009 0.1554892,-0.11515 0.3450043,-0.23502 0.1895152,-0.11993 0.3743878,-0.24309 0.4108302,-0.27369 0.062747,-0.0527 0.065121,-0.0581 0.04476,-0.10286 -0.011822,-0.026 -0.015412,-0.0526 -0.00791,-0.0592 0.00744,-0.007 0.099063,-0.0565 0.2035751,-0.11078 l 0.1900313,-0.0989 0.030647,0.0372 0.030647,0.0372 0.1952135,-0.11054 c 0.2454359,-0.13893 0.3600964,-0.17498 0.6271896,-0.19717 0.3089753,-0.0256 2.7317918,-0.0106 2.8406058,0.0176 0.101024,0.0262 0.359301,0.15859 0.648655,0.33241 0.327028,0.19647 1.168176,0.72184 1.19149,0.74419 0.01551,0.0149 -0.05018,0.18357 -0.281829,0.72386 l -0.302041,0.70447 -0.172254,0.005 -0.172253,0.005 -3.33e-4,-0.54803 -3.34e-4,-0.54804 -0.258534,-0.51774 c -0.16165,-0.32371 -0.268838,-0.51963 -0.286032,-0.52279 -0.03231,-0.006 -0.373689,0.14049 -0.425722,0.18261 -0.03569,0.0289 -0.03539,0.0297 0.2045,0.51796 l 0.240232,0.48902 v 1.24528 1.24529 H 9.5983771 7.6801958 Z m 1.2278868,0.71327 c 0.1439448,-0.0303 0.2702099,-0.0873 0.4382319,-0.19729 l 0.1298767,-0.085 0.1162584,0.08 c 0.2664933,0.18332 0.4303911,0.22706 0.8713291,0.23247 l 0.297386,0.004 v -0.26312 -0.2631 l -0.322527,-0.009 c -0.367579,-0.0106 -0.419571,-0.0246 -0.5597996,-0.15376 l -0.078537,-0.0724 0.079399,-0.0301 c 0.2914546,-0.11066 0.4031656,-0.33733 0.3620846,-0.73479 -0.02198,-0.21267 -0.04442,-0.27349 -0.139069,-0.37706 -0.1200258,-0.13132 -0.1678118,-0.14215 -0.6272274,-0.14215 -0.4550412,0 -0.4995829,0.009 -0.617118,0.12667 -0.1279705,0.12797 -0.151195,0.20891 -0.151195,0.52686 0,0.24663 0.00142,0.25711 0.046248,0.33329 0.064837,0.11031 0.2007986,0.22731 0.3039041,0.26156 l 0.086025,0.0286 -0.072124,0.0735 c -0.1273623,0.12977 -0.1962458,0.14915 -0.5677543,0.15967 l -0.3225261,0.009 -0.00472,0.24535 c -0.0026,0.13495 -4.866e-4,0.25645 0.00472,0.26999 0.00803,0.0209 0.055614,0.0229 0.3102815,0.0131 0.1654568,-0.006 0.3530387,-0.0226 0.4168509,-0.036 z m -0.1962185,-2.28801 0.00472,-0.2678 -0.26779,0.005 -0.26779,0.005 -0.00472,0.24537 c -0.0026,0.13494 -8.622e-4,0.25545 0.0039,0.26779 0.00673,0.0176 0.065215,0.0214 0.2678443,0.0177 l 0.2592324,-0.005 z m 2.0539786,3.6e-4 0.0047,-0.26735 h -0.263545 -0.263544 v 0.27204 0.27205 l 0.25887,-0.005 0.25887,-0.005 z"
       id="path6050"
       inkscape:connector-curvature="0" />
    <path
       style="fill:#ffffff;stroke-width:0.00064158;stroke-miterlimit:4;stroke-dasharray:none"
       d="m 9.2249211,283.5868 v -0.11882 h 0.2461386 0.2461374 v 0.11882 0.11884 H 9.4710597 9.2249211 Z"
       id="path6052"
       inkscape:connector-curvature="0" />
    <path
       style="fill:#ffffff;stroke-width:0.00064158;stroke-miterlimit:4;stroke-dasharray:none"
       d="m 15.117027,290.72953 c -0.114191,-0.18132 -0.402731,-0.56008 -0.589456,-0.77379 -0.09224,-0.10558 -0.189243,-0.21724 -0.215574,-0.2482 l -0.04788,-0.0562 0.04347,-0.2575 c 0.102594,-0.60769 0.09476,-1.48215 -0.01825,-2.03851 -0.08356,-0.41136 -0.199511,-0.76275 -0.383593,-1.16246 -0.166205,-0.36089 -0.156882,-0.32893 -0.102157,-0.3502 0.123427,-0.048 0.293165,-0.0697 0.399247,-0.051 0.304353,0.0536 0.498915,0.26571 0.570448,0.62189 0.01683,0.0838 0.04082,0.17149 0.0533,0.19482 0.01248,0.0234 0.103669,0.12646 0.202626,0.22916 0.286388,0.29722 0.361734,0.47641 0.364024,0.86573 0.0012,0.20545 -0.0025,0.23193 -0.05346,0.3837 -0.03012,0.0896 -0.05476,0.18832 -0.05476,0.21925 0,0.0327 0.03997,0.14204 0.09556,0.26136 0.197119,0.42314 0.219731,0.5444 0.204373,1.09589 -0.01181,0.42382 -0.02507,0.53925 -0.0942,0.81929 l -0.04718,0.19115 -0.100492,0.0724 c -0.159029,0.11456 -0.142603,0.11574 -0.22604,-0.0168 z"
       id="path6054"
       inkscape:connector-curvature="0" />
    <path
       style="fill:#ffffff;stroke-width:0.00064158;stroke-miterlimit:4;stroke-dasharray:none"
       d="m 7.6801911,286.27735 v -0.24613 h 1.9181813 1.9181796 v 0.24613 0.24613 H 9.5983724 7.6801911 Z"
       id="path6056"
       inkscape:connector-curvature="0" />
    <path
       style="fill:#ffffff;stroke-width:0.00064158;stroke-miterlimit:4;stroke-dasharray:none"
       d="m 6.9104585,295.66032 c 0.010393,-0.16539 0.038454,-0.30859 0.073872,-0.37729 0.074132,-0.14374 0.2229531,-0.23046 0.4365962,-0.25442 0.1530327,-0.0171 0.1784704,-0.0385 0.2075634,-0.17416 0.043638,-0.20348 0.051067,-0.8144 0.051374,-4.22732 l 3.236e-4,-3.56058 1.929597,0.005 1.9295963,0.005 0.02952,0.13579 c 0.06418,0.29523 0.23188,0.66664 0.391937,0.86806 0.05546,0.0698 0.415498,0.44773 0.800091,0.83989 1.308129,1.33384 1.613099,1.65961 1.786569,1.90841 0.472573,0.67781 0.808435,1.45747 0.964964,2.24004 0.09678,0.48385 0.098,0.50256 0.107235,1.64234 l 0.0086,1.06517 h -2.437012 -2.437034 l 0.0072,-0.0807 c 0.0039,-0.0443 0.01122,-0.12908 0.01607,-0.18831 0.01491,-0.18033 0.09924,-0.32372 0.242768,-0.41273 0.06034,-0.0374 0.204618,-0.0514 0.819091,-0.0795 0.182114,-0.008 0.330216,-0.0228 0.352056,-0.0345 0.08306,-0.0444 0.09528,-0.10239 0.108015,-0.51144 0.0065,-0.21007 0.01258,-0.57291 0.01342,-0.80633 8.24e-4,-0.2334 0.0094,-0.50799 0.01914,-0.6102 0.06126,-0.64599 0.321812,-1.24999 0.769111,-1.7829 l 0.142159,-0.16936 -0.07584,-0.0879 c -0.04171,-0.0483 -0.125764,-0.131 -0.18678,-0.18373 l -0.110932,-0.0959 -0.05048,0.0476 c -0.02777,0.0262 -0.107177,0.12203 -0.17647,0.21307 -0.409642,0.5382 -0.6598,1.05221 -0.77082,1.58385 -0.06059,0.29013 -0.08403,0.60369 -0.09528,1.2745 l -0.01086,0.64737 -0.332578,0.008 c -0.294322,0.007 -0.349174,0.0131 -0.476866,0.0517 -0.09467,0.0286 -0.150125,0.0379 -0.161262,0.0269 -0.0111,-0.0106 -0.01864,-0.8289 -0.02179,-2.36687 l -0.0048,-2.35019 H 10.505976 10.24343 v 2.95366 2.95366 H 9.343636 8.4438603 l 0.010039,-0.14854 c 0.026738,-0.39438 0.1575878,-0.54969 0.5060477,-0.60061 0.1517111,-0.0222 0.185873,-0.0461 0.2136928,-0.14936 0.040745,-0.1513 0.05037,-0.6818 0.050795,-2.79781 l 4.5e-4,-2.211 H 8.9617713 8.6986569 l -0.00112,2.32982 -0.00112,2.32983 -0.1728724,0.0831 c -0.3813911,0.1835 -0.5635994,0.483 -0.5974223,0.98202 l -0.012365,0.18247 H 7.4084801 6.9032106 Z"
       id="path6058"
       inkscape:connector-curvature="0" />
    <path
       style="fill:#ffffff;stroke-width:0.00064158;stroke-miterlimit:4;stroke-dasharray:none"
       d="m 1.2530536,295.68578 c 0.00626,-1.04873 0.036505,-2.82003 0.050665,-2.97131 0.05089,-0.54376 0.3575856,-1.24274 0.768737,-1.752 0.2441474,-0.30241 0.490397,-0.5073 1.1831196,-0.98442 0.7394976,-0.50933 0.8651946,-0.62907 0.9891556,-0.94225 0.078525,-0.19838 0.082635,-0.27792 0.096654,-1.86726 0.00732,-0.82626 0.014219,-1.5042 0.015412,-1.50653 0.020821,-0.041 0.2542085,0.14179 0.377514,0.29557 0.051185,0.0639 0.1137074,0.14835 0.138916,0.18781 0.088564,0.13856 0.044678,0.13196 0.8769362,0.13196 0.5693085,0 0.7478969,-0.005 0.7771765,-0.0217 0.020904,-0.0119 0.077663,-0.0807 0.126134,-0.15277 0.048469,-0.072 0.1230244,-0.17106 0.165686,-0.21997 l 0.077569,-0.0889 0.1315572,-2.1e-4 0.131556,-2.1e-4 v 4.37107 c 0,3.16203 -0.0052,4.37108 -0.018636,4.37108 -0.010275,0 -0.083734,0.0318 -0.1632897,0.0706 -0.2419071,0.11819 -0.428961,0.32185 -0.5184082,0.56445 l -0.038088,0.10334 -0.011101,-0.14428 c -0.00602,-0.0794 -0.01181,-0.83369 -0.012731,-1.67629 l -0.00165,-1.53199 H 6.1328202 5.869707 v 1.92666 1.92667 H 5.6326527 c -0.2169948,0 -0.23854,-0.002 -0.2546253,-0.0328 -0.00968,-0.0181 -0.017573,-0.0511 -0.017573,-0.0735 0,-0.0929 -0.1096093,-0.35867 -0.2060233,-0.49942 l -0.048599,-0.071 v -1.58835 -1.58835 H 4.842719 4.5796058 v 1.43621 c 0,1.36167 -0.00154,1.43551 -0.029702,1.42263 -0.016333,-0.007 -0.1833633,-0.0165 -0.371166,-0.0203 l -0.3414602,-0.007 -0.01181,-0.30832 c -0.025864,-0.67759 -0.098307,-1.0111 -0.3086565,-1.42099 -0.1319894,-0.2572 -0.4343499,-0.69263 -0.5105733,-0.73528 -0.020077,-0.0118 -0.068038,0.0269 -0.2025535,0.16092 -0.096937,0.0966 -0.1762477,0.18054 -0.1762477,0.18652 0,0.006 0.039292,0.0596 0.0873,0.11912 0.1977385,0.24521 0.36057,0.52275 0.4456852,0.75971 0.089461,0.24905 0.1068104,0.38137 0.1375366,1.04955 0.025215,0.54823 0.037946,0.62892 0.1046492,0.66342 0.054858,0.0283 0.1408694,0.0364 0.5911086,0.0549 0.2426263,0.009 0.4738334,0.0263 0.5137916,0.0364 0.1350967,0.034 0.2855926,0.21309 0.324456,0.38606 l 0.015589,0.0694 H 3.0500009 1.2524513 Z m 4.1206006,-8.63182 0.00472,-0.25887 H 5.1063354 4.8342926 v 0.26355 0.26354 l 0.2673565,-0.005 0.2673566,-0.005 z m 1.2769306,0.005 v -0.26311 H 6.3874716 6.1243583 v 0.26311 0.26312 h 0.2631133 0.2631132 z"
       id="path6060"
       inkscape:connector-curvature="0" />
    <path
       style="fill:#ffffff;stroke-width:0.00064158;stroke-miterlimit:4;stroke-dasharray:none"
       d="m 1.2607502,291.14029 c -0.013959,-0.0226 4.866e-4,-0.7209 0.026856,-1.29818 l 0.017054,-0.37345 0.066385,-0.13579 c 0.036505,-0.0746 0.1482708,-0.26184 0.2483612,-0.4159 0.5688254,-0.87548 0.65515,-1.08289 0.6570597,-1.57868 0.00118,-0.31501 -0.044441,-0.51671 -0.1792534,-0.79199 -0.1029012,-0.21011 -0.2580065,-0.4021 -0.5472129,-0.67732 -0.2835979,-0.26988 -0.3154591,-0.31746 -0.2814933,-0.42039 0.023797,-0.0722 0.1145814,-0.16027 0.1861422,-0.1808 0.1507049,-0.0432 0.3829135,0.0912 0.6640997,0.38437 0.3124463,0.32579 0.5302182,0.74763 0.6221148,1.20508 0.041926,0.20869 0.042245,0.67351 6e-4,0.863 -0.07823,0.35588 -0.1955513,0.62007 -0.4522966,1.0185 -0.4134165,0.64154 -0.4435653,0.69346 -0.4386948,0.75538 0.00413,0.0522 0.014148,0.0639 0.083261,0.097 0.043225,0.0207 0.1340668,0.0529 0.2018744,0.0717 0.067813,0.0188 0.1251986,0.0363 0.1275358,0.0389 0.00236,0.002 -0.00295,0.083 -0.011692,0.17874 l -0.015967,0.17407 -0.088304,0.0796 c -0.2516279,0.22673 -0.5872137,0.60622 -0.7430926,0.84031 -0.1271072,0.19088 -0.1275595,0.1914 -0.1432929,0.16595 z"
       id="path6062"
       inkscape:connector-curvature="0" />
  </g>
</svg>
