<?xml version="1.0" encoding="UTF-8" standalone="no"?>
<!-- Created with Inkscape (http://www.inkscape.org/) -->

<svg
   xmlns:dc="http://purl.org/dc/elements/1.1/"
   xmlns:cc="http://creativecommons.org/ns#"
   xmlns:rdf="http://www.w3.org/1999/02/22-rdf-syntax-ns#"
   xmlns:svg="http://www.w3.org/2000/svg"
   xmlns="http://www.w3.org/2000/svg"
   xmlns:sodipodi="http://sodipodi.sourceforge.net/DTD/sodipodi-0.dtd"
   xmlns:inkscape="http://www.inkscape.org/namespaces/inkscape"
   width="64"
   height="64"
   viewBox="0 0 16.933333 16.933333"
   version="1.1"
   id="svg8"
   inkscape:version="0.92.5 (2060ec1f9f, 2020-04-08)"
   sodipodi:docname="pills_64x64.svg">
  <defs
     id="defs2" />
  <sodipodi:namedview
     id="base"
     pagecolor="#ffffff"
     bordercolor="#666666"
     borderopacity="1.0"
     inkscape:pageopacity="0.0"
     inkscape:pageshadow="2"
     inkscape:zoom="3.959798"
     inkscape:cx="56.803976"
     inkscape:cy="61.551313"
     inkscape:document-units="mm"
     inkscape:current-layer="layer1"
     showgrid="false"
     units="px"
     inkscape:window-width="1208"
     inkscape:window-height="987"
     inkscape:window-x="1992"
     inkscape:window-y="0"
     inkscape:window-maximized="1"
     showguides="false" />
  <metadata
     id="metadata5">
    <rdf:RDF>
      <cc:Work
         rdf:about="">
        <dc:format>image/svg+xml</dc:format>
        <dc:type
           rdf:resource="http://purl.org/dc/dcmitype/StillImage" />
        <dc:title></dc:title>
      </cc:Work>
    </rdf:RDF>
  </metadata>
  <g
     inkscape:label="Layer 1"
     inkscape:groupmode="layer"
     id="layer1"
     transform="translate(0,-280.06667)">
    <path
       style="fill:#000000;stroke-width:0.03095136"
       d="m 10.837989,296.39437 c -1.0632279,-0.0657 -2.1192735,-0.30045 -2.6760607,-0.595 -0.2748811,-0.14542 -0.4952566,-0.37452 -0.5555461,-0.57753 -0.06915,-0.23286 -0.073777,-2.91072 -0.00542,-3.13785 0.062569,-0.2079 0.1794246,-0.3448 0.438865,-0.51417 1.2288621,-0.80221 4.8618518,-0.94851 6.7871878,-0.27332 0.505474,0.17726 0.799645,0.37413 0.955672,0.63955 l 0.0849,0.14441 v 1.56305 1.56305 l -0.0849,0.14441 c -0.04669,0.0794 -0.144191,0.19544 -0.216659,0.2578 -0.669691,0.57621 -2.687986,0.91157 -4.728039,0.7856 z m 1.748752,-0.61572 c 1.20139,-0.0865 2.305008,-0.36723 2.598784,-0.66101 0.07162,-0.0717 0.07851,-0.10139 0.07851,-0.3393 v -0.26078 l -0.379154,0.13212 c -0.4519,0.15748 -1.012655,0.30055 -1.181834,0.30152 -0.241036,0.001 -0.382419,-0.29201 -0.232531,-0.48256 0.06662,-0.0847 0.09889,-0.0964 0.606498,-0.22016 0.345582,-0.0843 0.734459,-0.21392 1.00905,-0.33645 l 0.177971,-0.0794 v -0.38731 -0.3873 l -0.193446,0.0865 c -1.270603,0.56802 -3.939365,0.6957 -5.8111184,0.27801 -0.2968231,-0.0662 -0.840057,-0.24288 -0.9977925,-0.32445 l -0.085505,-0.0442 v 0.99271 0.99271 l 0.085116,0.0792 c 0.5149499,0.47897 2.5432629,0.78855 4.3254529,0.66021 z m 0.03947,-0.72715 c -0.25363,-0.14223 -0.175465,-0.5229 0.115338,-0.56169 0.141306,-0.0188 0.276504,0.0631 0.328181,0.19909 0.03555,0.0935 -0.01,0.25399 -0.09342,0.32953 -0.08119,0.0735 -0.249682,0.0894 -0.350099,0.0331 z m 0.161717,-2.04089 c 1.118845,-0.10394 1.907962,-0.30536 2.326779,-0.5939 0.152948,-0.10537 0.165452,-0.15397 0.06391,-0.24841 -0.332001,-0.30881 -1.358683,-0.57011 -2.591878,-0.65966 -1.776714,-0.12903 -3.8205118,0.1842 -4.3243817,0.66275 -0.1040171,0.0988 -0.088477,0.14431 0.089531,0.26222 0.7155672,0.47397 2.7277777,0.7357 4.4360347,0.577 z m -9.6794503,0.53806 c -1.0962115,-0.14259 -2.0288227,-0.85528 -2.45321121,-1.8747 -0.33103456,-0.79519 -0.32046382,-1.70136 0.0288359,-2.47198 0.10479655,-0.2312 3.97650031,-6.94619 4.17488341,-7.24082 0.4546944,-0.67528 1.1692156,-1.14687 2.0017551,-1.32119 0.2392784,-0.0501 0.9059229,-0.0501 1.1452006,0 1.1248637,0.23552 2.0033785,1.00057 2.3680805,2.06223 0.228667,0.66565 0.201568,1.4926 -0.0708,2.16071 -0.07888,0.1935 -2.626938,4.63322 -4.1334335,7.20207 -0.2955156,0.50391 -0.8350807,0.99126 -1.3541472,1.2231 -0.5464635,0.24408 -1.1388729,0.3345 -1.7071576,0.26058 z m 1.0130692,-0.66517 c 0.2736164,-0.0711 0.6157967,-0.23156 0.8501747,-0.39881 0.3951915,-0.282 0.4893928,-0.41851 1.5279743,-2.21432 0.5334245,-0.92234 0.9651961,-1.68089 0.9594925,-1.68565 -0.04402,-0.0368 -4.268855,-2.46223 -4.2879494,-2.46166 -0.02474,7e-4 -1.7599,3.00089 -1.908906,3.30058 -0.27333183,0.54975 -0.30416858,1.29251 -0.079247,1.9088 0.2462274,0.67469 0.8213591,1.23977 1.521279,1.49469 0.3838976,0.13983 1.0011794,0.16438 1.4171823,0.0564 z m 4.585538,-6.42844 c 1.0383454,-1.79483 1.01564,-1.75272 1.1141233,-2.06638 0.062389,-0.1987 0.072768,-0.29578 0.072768,-0.68056 0,-0.52843 -0.040271,-0.71331 -0.2460649,-1.12972 -0.7566482,-1.53101 -2.7849181,-1.84522 -3.9934948,-0.61866 -0.1093307,0.11095 -0.27343,0.3234 -0.3646661,0.4721 -0.2571592,0.41913 -1.7949422,3.09478 -1.7951149,3.1234 -1.87e-4,0.0286 0.3157138,0.22384 0.3638253,0.2249 0.017026,3.5e-4 0.2217992,-0.33002 0.4550584,-0.73421 0.2332592,-0.40419 0.452013,-0.76484 0.4861191,-0.80146 0.1261374,-0.13539 0.3816353,-0.10798 0.4661918,0.05 0.081316,0.15193 0.041397,0.25349 -0.4080946,1.0382 l -0.4399637,0.76807 0.073268,0.0495 c 0.1468267,0.0992 3.2372397,1.88481 3.2673505,1.8879 0.017054,10e-4 0.4439675,-0.71064 0.9486941,-1.58307 z m -3.4427183,-2.5898 c -0.2251162,-0.22512 0.02357,-0.61703 0.3149474,-0.49634 0.1265997,0.0524 0.1826555,0.14356 0.1826555,0.29691 0,0.26281 -0.3099834,0.38705 -0.4976029,0.19943 z"
       id="path3633"
       inkscape:connector-curvature="0" />
    <path
       style="fill:#ffffff;stroke-width:0.00236339;stroke-miterlimit:4;stroke-dasharray:none"
       d="m 6.2277332,287.12298 c -0.812072,-0.47131 -1.5407237,-0.90061 -1.6192255,-0.95399 l -0.1427311,-0.0971 0.39141,-0.6781 c 0.4446798,-0.77037 0.5325751,-1.1059 0.3195718,-1.21989 -0.2373151,-0.12701 -0.3663657,-0.0126 -0.7946852,0.70442 -0.2299242,0.3849 -0.4439113,0.73343 -0.4755274,0.77449 -0.086289,0.11207 -0.3777166,-0.0337 -0.3278874,-0.16396 0.046057,-0.12044 0.6814128,-1.23477 1.378475,-2.41766 0.8305408,-1.40939 1.3649086,-1.79528 2.4969691,-1.80316 0.5065816,-0.004 0.6046214,0.0159 0.9817839,0.19428 0.5140888,0.24316 0.9151103,0.63369 1.1871556,1.1561 0.1953471,0.37512 0.2062248,0.43095 0.2067211,1.06109 4.998e-4,0.65417 -0.00361,0.67321 -0.2514203,1.15682 -0.3370596,0.65782 -1.7931898,3.15004 -1.8383578,3.14642 -0.019669,-10e-4 -0.7001806,-0.38849 -1.5122518,-0.85981 z m -0.5267848,-3.26187 c 0.1367674,-0.15112 0.087996,-0.40669 -0.096448,-0.50541 -0.1906728,-0.10204 -0.4327872,0.0734 -0.4327872,0.31363 0,0.29856 0.3257738,0.4166 0.5292352,0.19178 z"
       id="path3635"
       inkscape:connector-curvature="0" />
    <path
       style="fill:#ffffff;stroke-width:0.00236339;stroke-miterlimit:4;stroke-dasharray:none"
       d="m 2.9445194,292.8699 c -1.5045149,-0.38712 -2.30012253,-2.0951 -1.6197926,-3.4773 0.1723607,-0.35017 1.7640817,-3.10052 1.8363541,-3.17304 0.036117,-0.0363 3.4823561,1.8896 4.1187698,2.30167 0.1377288,0.0892 0.1343988,0.0966 -0.6810913,1.51226 -1.255609,2.17973 -1.3607046,2.31366 -2.0788354,2.64923 -0.3468863,0.1621 -0.5270909,0.20578 -0.9067022,0.21982 -0.2605746,0.01 -0.5614904,-0.005 -0.6687024,-0.0326 z"
       id="path3637"
       inkscape:connector-curvature="0" />
    <path
       style="fill:#ffffff;stroke-width:0.00236339;stroke-miterlimit:4;stroke-dasharray:none"
       d="m 11.049646,293.01096 c -1.1525651,-0.0806 -2.4199511,-0.37352 -2.6954904,-0.62288 -0.1111611,-0.1006 -0.1123111,-0.11594 -0.016614,-0.22168 0.3858935,-0.4264 2.6184674,-0.75693 4.2118824,-0.62356 1.250387,0.10466 2.221161,0.3416 2.575662,0.62866 l 0.141099,0.11425 -0.2167,0.13338 c -0.645698,0.39743 -2.614648,0.68876 -3.999836,0.59183 z"
       id="path3639"
       inkscape:connector-curvature="0" />
    <path
       style="fill:#ffffff;stroke-width:0.00236339;stroke-miterlimit:4;stroke-dasharray:none"
       d="m 10.828263,295.74 c -1.1237286,-0.0805 -2.1838815,-0.33789 -2.4744751,-0.60088 -0.1058757,-0.0958 -0.1180457,-0.20513 -0.1180457,-1.06036 v -0.95354 l 0.3073822,0.1168 c 0.1690597,0.0642 0.5981802,0.17997 0.9536003,0.25717 0.5708833,0.12401 0.8284663,0.14066 2.2094983,0.14271 1.679877,0.002 2.173039,-0.0561 3.095226,-0.36816 l 0.437787,-0.14811 v 0.34122 0.34123 l -0.271556,0.12013 c -0.149355,0.0661 -0.536267,0.19086 -0.859803,0.27732 -0.734617,0.19632 -0.901604,0.37646 -0.614813,0.66325 0.155655,0.15566 0.351385,0.13437 1.194201,-0.12986 l 0.551971,-0.17306 v 0.24383 c 0,0.20772 -0.03009,0.26236 -0.203227,0.369 -0.695932,0.42869 -2.569423,0.67861 -4.207746,0.56131 z m 2.192829,-0.75275 c 0.09088,-0.10042 0.102439,-0.16237 0.0553,-0.29642 -0.0638,-0.18139 -0.196585,-0.23539 -0.432977,-0.17606 -0.195671,0.0491 -0.254306,0.25345 -0.128028,0.44617 0.123119,0.18791 0.34884,0.19965 0.505707,0.0263 z"
       id="path3641"
       inkscape:connector-curvature="0" />
  </g>
</svg>
