<?xml version="1.0" encoding="UTF-8" standalone="no"?>
<!-- Created with Inkscape (http://www.inkscape.org/) -->

<svg
   xmlns:dc="http://purl.org/dc/elements/1.1/"
   xmlns:cc="http://creativecommons.org/ns#"
   xmlns:rdf="http://www.w3.org/1999/02/22-rdf-syntax-ns#"
   xmlns:svg="http://www.w3.org/2000/svg"
   xmlns="http://www.w3.org/2000/svg"
   xmlns:sodipodi="http://sodipodi.sourceforge.net/DTD/sodipodi-0.dtd"
   xmlns:inkscape="http://www.inkscape.org/namespaces/inkscape"
   width="64"
   height="64"
   viewBox="0 0 16.933333 16.933334"
   version="1.1"
   id="svg8"
   inkscape:version="0.92.5 (2060ec1f9f, 2020-04-08)"
   sodipodi:docname="plate_64x64.svg">
  <defs
     id="defs2" />
  <sodipodi:namedview
     id="base"
     pagecolor="#ffffff"
     bordercolor="#666666"
     borderopacity="1.0"
     inkscape:pageopacity="0.0"
     inkscape:pageshadow="2"
     inkscape:zoom="2.8"
     inkscape:cx="-22.47629"
     inkscape:cy="-50.936877"
     inkscape:document-units="mm"
     inkscape:current-layer="layer1"
     showgrid="false"
     units="px"
     inkscape:window-width="1208"
     inkscape:window-height="987"
     inkscape:window-x="1992"
     inkscape:window-y="0"
     inkscape:window-maximized="1" />
  <metadata
     id="metadata5">
    <rdf:RDF>
      <cc:Work
         rdf:about="">
        <dc:format>image/svg+xml</dc:format>
        <dc:type
           rdf:resource="http://purl.org/dc/dcmitype/StillImage" />
        <dc:title></dc:title>
      </cc:Work>
    </rdf:RDF>
  </metadata>
  <g
     inkscape:label="Layer 1"
     inkscape:groupmode="layer"
     id="layer1"
     transform="translate(0,-280.06665)">
    <path
       style="fill:#000000;stroke-width:0.02966061"
       d="m 7.807441,295.99095 c -1.1434988,-0.10904 -2.2874401,-0.4902 -3.2592483,-1.08598 -0.9771009,-0.59903 -1.9183693,-1.5403 -2.517401,-2.5174 -1.36511215,-2.22668 -1.48346658,-5.00983 -0.3125183,-7.349 0.6160726,-1.2307 1.6525857,-2.35916 2.8299193,-3.08094 2.2266783,-1.36512 5.0098344,-1.48348 7.3489943,-0.31252 1.230705,0.61606 2.359163,1.65258 3.080952,2.82991 1.365112,2.22668 1.483467,5.00983 0.312517,7.34899 -0.616072,1.23071 -1.652583,2.35917 -2.829918,3.08096 -1.378277,0.84498 -3.0613114,1.23777 -4.653297,1.08598 z m 1.4533705,-0.79855 c 1.5471975,-0.17967 2.9522895,-0.85813 4.0494635,-1.9553 1.097174,-1.09717 1.77563,-2.50226 1.955304,-4.04946 0.03988,-0.34336 0.03988,-1.16933 0,-1.51269 -0.285608,-2.45942 -1.864144,-4.56506 -4.136536,-5.51781 -0.849734,-0.35628 -1.6689936,-0.51796 -2.6245779,-0.51796 -0.9555829,0 -1.774843,0.16168 -2.624577,0.51796 -2.2723914,0.95275 -3.8509285,3.05839 -4.1365364,5.51781 -0.039876,0.34336 -0.039876,1.16933 0,1.51269 0.3629486,3.12541 2.7852368,5.58519 5.900956,5.99227 0.3545287,0.0464 1.2646551,0.0534 1.6165038,0.0126 z m -1.2309162,-1.67845 c -0.04078,-0.006 -0.1742559,-0.0253 -0.296606,-0.0429 -1.9887417,-0.28556 -3.6806439,-1.81413 -4.1658054,-3.76362 -0.1257823,-0.50542 -0.1494964,-0.70786 -0.1494964,-1.27621 0,-0.56835 0.023712,-0.7708 0.1494964,-1.27622 0.4400439,-1.7682 1.8925643,-3.22072 3.6607668,-3.66076 0.505422,-0.12579 0.7078635,-0.1495 1.2762144,-0.1495 0.568352,0 0.7707929,0.0237 1.2762153,0.1495 1.7674346,0.43985 3.2209136,1.89332 3.6607676,3.66076 0.124054,0.49848 0.148993,0.70903 0.14941,1.26139 4.37e-4,0.58702 -0.03436,0.87329 -0.164066,1.34955 -0.135431,0.49728 -0.295527,0.86243 -0.412895,0.94173 -0.17935,0.12118 -0.458396,0.0678 -0.545074,-0.10432 -0.08735,-0.17342 -0.08341,-0.23155 0.03721,-0.54874 0.387106,-1.01798 0.416071,-2.03137 0.08582,-3.00262 -0.560258,-1.64767 -2.019013,-2.77874 -3.7685329,-2.92197 -0.877609,-0.0719 -1.8565917,0.16799 -2.6027188,0.63766 -0.402329,0.25325 -0.8826385,0.69457 -1.1626254,1.06823 -0.9772136,1.30419 -1.1419305,3.04332 -0.4255944,4.49359 0.2281494,0.46189 0.4981734,0.83267 0.8662262,1.18941 0.3654422,0.35422 0.6622862,0.56445 1.107581,0.78439 1.4977286,0.73978 3.2799743,0.54385 4.5973963,-0.50543 0.247618,-0.19721 0.297689,-0.22263 0.438573,-0.22263 0.234168,0 0.41164,0.21044 0.373924,0.4434 -0.0216,0.13342 -0.05098,0.17225 -0.263776,0.34857 -0.908838,0.75306 -2.0872526,1.17359 -3.2550574,1.16159 -0.2162594,-0.002 -0.4265664,-0.009 -0.4673503,-0.0149 z"
       id="path12768"
       inkscape:connector-curvature="0" />
    <path
       style="fill:#ffffff;stroke-width:0.00480442;stroke-miterlimit:4;stroke-dasharray:none"
       d="m 7.6221033,295.15905 c -0.996375,-0.13889 -2.0871123,-0.55718 -2.9228965,-1.12089 -1.446938,-0.97593 -2.4608833,-2.50647 -2.8498734,-4.30187 -0.082921,-0.38273 -0.096267,-0.56632 -0.095491,-1.31355 7.414e-4,-0.7326 0.015444,-0.93597 0.093771,-1.29862 0.4553506,-2.10829 1.7627967,-3.81431 3.6464338,-4.75803 1.0924301,-0.54732 2.3121632,-0.78221 3.5429155,-0.68226 0.9166533,0.0744 1.5731743,0.25036 2.3938883,0.64149 0.726306,0.34612 1.225045,0.70473 1.84611,1.3274 1.169826,1.17283 1.815172,2.53 1.971649,4.14643 0.293857,3.03556 -1.533271,5.93292 -4.409782,6.99279 -0.74413,0.27417 -1.3188371,0.37743 -2.182174,0.39207 -0.4194863,0.007 -0.8850341,-0.005 -1.0345512,-0.025 z m 1.6491263,-1.67047 c 0.9361274,-0.14112 1.9456654,-0.60275 2.5634124,-1.17217 0.168893,-0.15568 0.190612,-0.19638 0.190612,-0.35721 0,-0.15067 -0.02215,-0.20015 -0.130368,-0.29121 -0.201025,-0.16915 -0.358021,-0.14725 -0.678981,0.0947 -1.158939,0.8737 -2.443185,1.156 -3.7632826,0.82726 -1.4595694,-0.36348 -2.6263469,-1.49991 -3.0821186,-3.00199 -0.1064925,-0.35095 -0.1159068,-0.44043 -0.1181415,-1.12286 -0.00215,-0.64781 0.00996,-0.78703 0.095614,-1.10168 0.1207797,-0.44369 0.4110677,-1.0664 0.6587879,-1.41318 0.2096522,-0.29349 0.798259,-0.87427 1.0863656,-1.07192 0.7384324,-0.50659 1.7060959,-0.77301 2.623895,-0.7224 1.8634482,0.10273 3.3756142,1.31292 3.9284732,3.14395 0.105304,0.34875 0.11531,0.44291 0.117078,1.10167 0.002,0.75588 -0.05064,1.07171 -0.272652,1.63495 -0.170877,0.43352 -0.04305,0.75908 0.298031,0.75908 0.245907,0 0.38108,-0.17498 0.56651,-0.73338 0.210646,-0.63435 0.249609,-0.93962 0.227286,-1.78081 -0.01769,-0.66645 -0.0356,-0.82362 -0.133645,-1.17219 -0.540922,-1.92317 -2.020542,-3.30018 -3.9813096,-3.70519 -0.4310876,-0.0891 -1.4860411,-0.0887 -1.9242017,6.4e-4 -1.0066887,0.20524 -1.8396835,0.63596 -2.5590322,1.32323 -0.769584,0.73525 -1.2744468,1.64472 -1.4983409,2.69911 -0.1006729,0.47411 -0.1016776,1.52917 -0.00193,2.00404 0.212263,1.0103 0.68929,1.89799 1.4040225,2.61273 0.3828144,0.38281 1.0231489,0.83557 1.4625552,1.03413 0.9165905,0.41418 1.9419638,0.55833 2.9213391,0.41069 z"
       id="path12770"
       inkscape:connector-curvature="0" />
  </g>
</svg>
