<?xml version="1.0" encoding="UTF-8" standalone="no"?>
<!-- Created with Inkscape (http://www.inkscape.org/) -->

<svg
   xmlns:dc="http://purl.org/dc/elements/1.1/"
   xmlns:cc="http://creativecommons.org/ns#"
   xmlns:rdf="http://www.w3.org/1999/02/22-rdf-syntax-ns#"
   xmlns:svg="http://www.w3.org/2000/svg"
   xmlns="http://www.w3.org/2000/svg"
   xmlns:sodipodi="http://sodipodi.sourceforge.net/DTD/sodipodi-0.dtd"
   xmlns:inkscape="http://www.inkscape.org/namespaces/inkscape"
   width="64"
   height="64"
   viewBox="0 0 16.933333 16.933333"
   version="1.1"
   id="svg8"
   inkscape:version="0.92.5 (2060ec1f9f, 2020-04-08)"
   sodipodi:docname="poop_64x64.svg">
  <defs
     id="defs2" />
  <sodipodi:namedview
     id="base"
     pagecolor="#ffffff"
     bordercolor="#666666"
     borderopacity="1.0"
     inkscape:pageopacity="0.0"
     inkscape:pageshadow="2"
     inkscape:zoom="7.9195959"
     inkscape:cx="46.481857"
     inkscape:cy="41.118476"
     inkscape:document-units="mm"
     inkscape:current-layer="layer1"
     showgrid="false"
     units="px"
     inkscape:window-width="1208"
     inkscape:window-height="987"
     inkscape:window-x="1992"
     inkscape:window-y="0"
     inkscape:window-maximized="1" />
  <metadata
     id="metadata5">
    <rdf:RDF>
      <cc:Work
         rdf:about="">
        <dc:format>image/svg+xml</dc:format>
        <dc:type
           rdf:resource="http://purl.org/dc/dcmitype/StillImage" />
        <dc:title></dc:title>
      </cc:Work>
    </rdf:RDF>
  </metadata>
  <g
     inkscape:label="Layer 1"
     inkscape:groupmode="layer"
     id="layer1"
     transform="translate(0,-280.06667)">
    <path
       style="fill:#000000;stroke-width:0.03025179"
       d="m 2.7211223,295.22054 c -0.9104733,-0.13565 -1.6675268,-0.8078 -1.90887723,-1.69476 -0.0737798,-0.27115 -0.0737798,-0.87843 0,-1.14957 0.17179071,-0.63133 0.64715593,-1.21191 1.21366813,-1.48228 l 0.1963237,-0.0937 -0.07501,-0.14803 c -0.216801,-0.42784 -0.2754126,-1.0774 -0.1404574,-1.55661 0.1827066,-0.64877 0.6056994,-1.16194 1.2027315,-1.45913 l 0.2759066,-0.13735 -0.063921,-0.20092 c -0.053329,-0.16764 -0.063893,-0.27611 -0.063757,-0.65471 1.486e-4,-0.41868 0.00672,-0.47249 0.084715,-0.69579 0.2532105,-0.72473 0.8417834,-1.28899 1.5633987,-1.49878 0.1829233,-0.0532 0.3338713,-0.069 0.7789833,-0.0814 0.5230438,-0.0147 0.5520952,-0.0185 0.5520952,-0.0747 0,-0.1201 -0.1290195,-0.55963 -0.2257003,-0.76887 -0.1873219,-0.40544 -0.3121775,-0.55692 -0.8157388,-0.98969 -0.1091871,-0.0938 -0.1196849,-0.11643 -0.1302384,-0.2804 -0.014695,-0.22827 0.056846,-0.3536 0.2508483,-0.43941 0.1318995,-0.0584 0.1901344,-0.0599 1.7764853,-0.0486 1.7778284,0.0127 1.774934,0.0125 2.2300273,0.19183 0.5806778,0.22883 1.0731748,0.69091 1.3508648,1.2674 0.14167,0.29411 0.252233,0.67647 0.252894,0.87458 8.28e-4,0.25433 0.0067,0.25973 0.282945,0.26091 1.027046,0.004 1.877531,0.5729 2.216108,1.48129 0.203313,0.54549 0.209399,0.94591 0.02423,1.59408 -0.01668,0.0584 0.0055,0.0775 0.183674,0.15824 0.507033,0.22991 0.940769,0.66532 1.162468,1.16698 0.245203,0.55485 0.240182,1.34203 -0.01189,1.86456 -0.04205,0.0872 -0.07647,0.16754 -0.07647,0.17857 0,0.011 0.08664,0.0641 0.192528,0.11779 0.412644,0.20945 0.779233,0.58661 0.987054,1.01552 0.389487,0.80384 0.299203,1.69543 -0.244453,2.41404 -0.275973,0.36479 -0.716788,0.66143 -1.208223,0.81308 l -0.22606,0.0698 -5.7175899,0.004 c -3.1446733,0.002 -5.7859738,-0.006 -5.8695565,-0.0183 z m 11.6698267,-0.95936 c 0.434274,-0.1659 0.772521,-0.53374 0.883804,-0.96108 0.1273,-0.48888 -0.01361,-0.98085 -0.382451,-1.33527 -0.265553,-0.25517 -0.475606,-0.35062 -0.882801,-0.40118 -0.259482,-0.0322 -0.37896,-0.10008 -0.453798,-0.2578 -0.09908,-0.20879 -0.04101,-0.40545 0.175968,-0.59595 0.479198,-0.42074 0.582938,-1.23037 0.228435,-1.78282 -0.23401,-0.36467 -0.715958,-0.63475 -1.132968,-0.63491 -0.267539,-10e-5 -0.47011,-0.19603 -0.47011,-0.45469 0,-0.12075 0.02198,-0.17538 0.139872,-0.34754 0.164861,-0.24078 0.24987,-0.46513 0.273285,-0.72126 0.05609,-0.61355 -0.335128,-1.2118 -0.935286,-1.43021 -0.07917,-0.0288 -0.302021,-0.0552 -0.582062,-0.0689 -0.381426,-0.0187 -0.474493,-0.0329 -0.58371,-0.0893 -0.336532,-0.17372 -0.500136,-0.44445 -0.533303,-0.88252 -0.03674,-0.48528 -0.1730291,-0.79032 -0.5007022,-1.12065 -0.155766,-0.15703 -0.2897326,-0.25978 -0.4242811,-0.3254 -0.3369816,-0.16436 -0.5123097,-0.18517 -1.5655302,-0.18576 -0.5199528,-3.4e-4 -0.9453686,0.007 -0.9453686,0.0161 0,0.009 0.05485,0.1165 0.1218876,0.23864 0.333716,0.60805 0.4998419,1.38309 0.3749955,1.74949 -0.062796,0.18428 -0.2553113,0.39883 -0.4477738,0.499 -0.1490212,0.0776 -0.1794565,0.0814 -0.7902782,0.0999 -0.4622199,0.0139 -0.6690542,0.0319 -0.7592364,0.0662 -0.6095863,0.23115 -0.9499899,0.70071 -0.9499899,1.31044 0,0.31896 0.070827,0.54904 0.2522521,0.81945 0.1714076,0.25548 0.1961143,0.36017 0.1274337,0.54002 -0.071234,0.18652 -0.1839482,0.25865 -0.4510159,0.28859 -0.2830214,0.0317 -0.3639595,0.0526 -0.5578036,0.14358 -0.3056423,0.14348 -0.5743919,0.43947 -0.6955185,0.76602 -0.1912531,0.51561 -0.071597,1.03911 0.3369362,1.47408 0.1182311,0.12588 0.2080816,0.25192 0.2260895,0.31714 0.079881,0.28931 -0.1412101,0.56436 -0.4545054,0.56544 -0.6137092,0.002 -1.1834093,0.44637 -1.3391485,1.0443 -0.1294415,0.49695 0.019956,0.9967 0.404353,1.35258 0.198418,0.18371 0.3921578,0.288 0.6383386,0.34364 0.1298467,0.0294 1.408661,0.0364 5.8234689,0.0323 l 5.6570852,-0.005 z m -6.26734,-1.19181 c -0.4449407,-0.0576 -0.9558329,-0.28077 -1.3211264,-0.57715 -0.5791721,-0.4699 -0.9487996,-1.22296 -0.9493786,-1.93421 -1.83e-4,-0.2204 0.0103,-0.27596 0.06846,-0.36302 0.1463464,-0.21907 0.018162,-0.20857 2.5485822,-0.20862 2.1506648,-4e-5 2.2748698,0.002 2.3747668,0.0559 0.05798,0.0308 0.137457,0.10227 0.176625,0.15882 0.06696,0.0967 0.07033,0.12272 0.05631,0.43558 -0.05593,1.24819 -1.039288,2.28013 -2.3199841,2.43461 -0.2860022,0.0345 -0.3541488,0.0343 -0.6342481,-0.002 z m 0.6779642,-0.9204 c 0.5894821,-0.12487 1.0636869,-0.52963 1.2843438,-1.09628 l 0.06185,-0.15882 H 8.4705744 6.7933839 l 0.040788,0.11559 c 0.09022,0.25572 0.2175229,0.45451 0.4221374,0.65922 0.4263519,0.42654 0.9827001,0.59945 1.5452691,0.48029 z M 5.640112,288.87243 c -0.1932781,-0.0856 -0.2784483,-0.22825 -0.2751761,-0.46071 0.00775,-0.55023 0.3568989,-1.03663 0.8846637,-1.2324 0.8073789,-0.29948 1.6683678,0.21048 1.8168013,1.07608 0.033777,0.19699 0.031758,0.22934 -0.022538,0.36034 -0.1083923,0.26154 -0.4052255,0.36483 -0.6389244,0.22234 -0.1333426,-0.0813 -0.187749,-0.17537 -0.2215479,-0.38304 -0.048055,-0.29524 -0.2074245,-0.45022 -0.4629799,-0.45022 -0.1168776,0 -0.1824377,0.0185 -0.2584464,0.0727 -0.113543,0.081 -0.2140643,0.2731 -0.2152494,0.4114 -10e-4,0.12042 -0.097797,0.27379 -0.2196,0.34805 -0.097359,0.0593 -0.2927543,0.0773 -0.3870043,0.0355 z m 3.4163801,-0.0439 c -0.2006044,-0.13402 -0.2521337,-0.35681 -0.1622996,-0.7017 0.1379735,-0.52972 0.5604034,-0.91959 1.1010754,-1.01621 0.6655381,-0.11894 1.3512411,0.32094 1.5300551,0.98154 0.07245,0.26763 0.05272,0.53383 -0.0475,0.64111 -0.162555,0.17399 -0.374486,0.21129 -0.571489,0.10056 -0.140593,-0.079 -0.200368,-0.17944 -0.22768,-0.38253 -0.03944,-0.29327 -0.242028,-0.47789 -0.495651,-0.4517 -0.224411,0.0232 -0.4275895,0.23255 -0.4276788,0.44073 -1.101e-4,0.25395 -0.2016341,0.45686 -0.4537298,0.45686 -0.097595,0 -0.1746104,-0.0216 -0.2451039,-0.0687 z"
       id="path1358"
       inkscape:connector-curvature="0" />
    <path
       style="fill:#ffffff;stroke-width:0.00163339;stroke-miterlimit:4;stroke-dasharray:none"
       d="m 2.5837083,294.2324 c -0.3019992,-0.10793 -0.6105241,-0.39206 -0.779969,-0.71829 -0.082694,-0.15921 -0.1010101,-0.26108 -0.1010101,-0.56181 0,-0.42765 0.090541,-0.66039 0.3682187,-0.94652 0.2228115,-0.22959 0.4657516,-0.34817 0.8500175,-0.4149 0.3794191,-0.0659 0.5081487,-0.14229 0.5735349,-0.34041 0.062156,-0.18833 0.002,-0.33089 -0.2990442,-0.70891 -0.3847879,-0.48316 -0.4370916,-0.93056 -0.1717915,-1.46946 0.2168511,-0.44049 0.596614,-0.68657 1.1818639,-0.76587 0.1509053,-0.0204 0.2477698,-0.0642 0.3349306,-0.15138 0.1800856,-0.18009 0.1653828,-0.36607 -0.061049,-0.77222 -0.1781586,-0.31955 -0.1836651,-0.34111 -0.1834528,-0.71839 2.422e-4,-0.45597 0.083215,-0.67949 0.3504611,-0.94426 0.3227473,-0.31977 0.5125651,-0.38246 1.2915606,-0.42658 0.618874,-0.035 0.7108551,-0.0505 0.8761087,-0.14687 0.1015516,-0.0593 0.2376842,-0.18809 0.3025185,-0.28635 0.1076979,-0.16322 0.1175017,-0.21247 0.1135173,-0.57024 -0.00472,-0.42608 -0.115709,-0.8309 -0.3609002,-1.31661 L 6.7423026,282.7219 7.2044771,282.695 c 0.2541964,-0.0148 0.7441659,-0.0103 1.0888196,0.0101 0.7505663,0.0443 0.9307267,0.11136 1.3088011,0.4871 0.3035225,0.30165 0.4493942,0.60299 0.5052912,1.04387 0.09611,0.75804 0.344128,0.99699 1.086648,1.04692 0.585021,0.0393 0.808164,0.11214 1.072678,0.34996 0.543809,0.48894 0.630176,1.21202 0.21867,1.83079 -0.267536,0.40229 -0.119691,0.7821 0.327851,0.84225 0.597965,0.0804 1.075671,0.41197 1.245829,0.86482 0.07051,0.18763 0.09688,0.50822 0.06075,0.73858 -0.04764,0.30379 -0.155806,0.51751 -0.402498,0.79527 -0.222733,0.25078 -0.268974,0.38305 -0.195729,0.55988 0.08226,0.19861 0.180977,0.25885 0.535161,0.32661 0.40724,0.0779 0.601559,0.17529 0.8334,0.4176 0.298707,0.31218 0.381645,0.51729 0.381541,0.94353 -9e-5,0.31347 -0.01686,0.39928 -0.114459,0.58516 -0.1357,0.25844 -0.445145,0.55596 -0.697311,0.67044 -0.175134,0.0795 -0.370909,0.0822 -5.9505407,0.0813 -4.6038614,-7.1e-4 -5.8010107,-0.0122 -5.9256747,-0.0568 z m 6.55045,-1.22015 c 1.0906307,-0.28156 1.8792777,-1.23111 1.9550557,-2.35394 0.0248,-0.36752 0.02384,-0.37216 -0.107002,-0.51861 l -0.132029,-0.14776 H 8.523731 c -1.2795473,0 -2.3776147,0.0144 -2.4401497,0.0319 -0.3841323,0.10792 -0.3091717,1.0836 0.1406162,1.83023 0.3706272,0.61524 1.1617652,1.12819 1.9178421,1.24348 0.2055589,0.0314 0.7073451,-0.0118 0.9921187,-0.0853 z M 6.086514,288.80833 c 0.1018101,-0.0724 0.1371238,-0.14648 0.1956342,-0.41015 0.043858,-0.19764 0.2475302,-0.37261 0.4337356,-0.37261 0.1862045,0 0.3898771,0.17497 0.4337347,0.37261 0.059129,0.26649 0.094487,0.33832 0.2082919,0.42329 0.1659413,0.1239 0.424084,0.11725 0.5643542,-0.0145 0.1600856,-0.15039 0.2103983,-0.33946 0.1555086,-0.5844 -0.1039171,-0.4637 -0.404402,-0.84395 -0.8163896,-1.03312 -0.2798675,-0.12849 -0.811133,-0.12849 -1.0910002,0 -0.4668638,0.21436 -0.7702738,0.64342 -0.8052188,1.13867 -0.017183,0.2435 -0.00694,0.29722 0.077186,0.40336 0.1687473,0.21299 0.4120526,0.24203 0.6441632,0.0769 z m 3.5032901,-4.1e-4 c 0.1053771,-0.0761 0.1431513,-0.15551 0.1950962,-0.40974 0.039058,-0.19113 0.2447787,-0.37261 0.4223957,-0.37261 0.220538,0 0.363583,0.13606 0.445977,0.4242 0.083,0.29024 0.150683,0.37731 0.342598,0.44064 0.110917,0.0366 0.175786,0.033 0.293931,-0.0164 0.233712,-0.0977 0.303688,-0.23835 0.277959,-0.55889 -0.03898,-0.48568 -0.346034,-0.91462 -0.805812,-1.12572 -0.278353,-0.12781 -0.8112348,-0.12848 -1.0879075,-0.002 -0.5052368,0.23211 -0.828897,0.71421 -0.828897,1.23465 0,0.17504 0.021834,0.23716 0.1189816,0.33856 0.1795347,0.1874 0.4074474,0.20439 0.625678,0.0467 z"
       id="path1360"
       inkscape:connector-curvature="0" />
    <path
       style="fill:#ffffff;stroke-width:0.00163339;stroke-miterlimit:4;stroke-dasharray:none"
       d="m 8.1094499,292.12747 c -0.4613145,-0.10872 -0.9431123,-0.49175 -1.1570506,-0.91984 l -0.1323965,-0.26493 1.629269,-0.0113 c 0.8960992,-0.007 1.6372982,-0.003 1.6471082,0.007 0.0098,0.01 -0.03372,0.11958 -0.096746,0.24395 -0.3556254,0.70179 -1.1783587,1.11338 -1.890184,0.94562 z"
       id="path1362"
       inkscape:connector-curvature="0" />
  </g>
</svg>
