<?xml version="1.0" encoding="UTF-8" standalone="no"?>
<!-- Created with Inkscape (http://www.inkscape.org/) -->

<svg
   xmlns:dc="http://purl.org/dc/elements/1.1/"
   xmlns:cc="http://creativecommons.org/ns#"
   xmlns:rdf="http://www.w3.org/1999/02/22-rdf-syntax-ns#"
   xmlns:svg="http://www.w3.org/2000/svg"
   xmlns="http://www.w3.org/2000/svg"
   xmlns:sodipodi="http://sodipodi.sourceforge.net/DTD/sodipodi-0.dtd"
   xmlns:inkscape="http://www.inkscape.org/namespaces/inkscape"
   width="64"
   height="64"
   viewBox="0 0 16.933333 16.933333"
   version="1.1"
   id="svg8"
   inkscape:version="0.92.5 (2060ec1f9f, 2020-04-08)"
   sodipodi:docname="positionning_in_bed_64x64.svg">
  <defs
     id="defs2" />
  <sodipodi:namedview
     id="base"
     pagecolor="#ffffff"
     bordercolor="#666666"
     borderopacity="1.0"
     inkscape:pageopacity="0.0"
     inkscape:pageshadow="2"
     inkscape:zoom="5.6"
     inkscape:cx="34.689503"
     inkscape:cy="25.809266"
     inkscape:document-units="mm"
     inkscape:current-layer="layer1"
     showgrid="false"
     units="px"
     inkscape:window-width="1208"
     inkscape:window-height="987"
     inkscape:window-x="1992"
     inkscape:window-y="0"
     inkscape:window-maximized="1"
     showguides="false" />
  <metadata
     id="metadata5">
    <rdf:RDF>
      <cc:Work
         rdf:about="">
        <dc:format>image/svg+xml</dc:format>
        <dc:type
           rdf:resource="http://purl.org/dc/dcmitype/StillImage" />
        <dc:title></dc:title>
      </cc:Work>
    </rdf:RDF>
  </metadata>
  <g
     inkscape:label="Layer 1"
     inkscape:groupmode="layer"
     id="layer1"
     transform="translate(0,-280.06667)">
    <path
       style="fill:#000000;stroke-width:0.03075987"
       d="m 3.3891569,296.35663 c -0.2081814,-0.12694 -0.1937426,0.22852 -0.1937426,-4.76968 v -4.52541 l -0.1461099,-0.16661 c -0.1142111,-0.13025 -0.1662523,-0.16699 -0.2383893,-0.16835 -0.050756,-9.3e-4 -0.1451023,-0.0205 -0.2096643,-0.0436 -0.360271,-0.12849 -0.2917381,-0.40607 0.1279865,-0.51842 0.09923,-0.0266 0.1457064,-0.0597 0.1804968,-0.12858 0.025775,-0.0511 0.1005924,-0.1633 0.1662675,-0.24945 l 0.119419,-0.15663 1.148e-4,-2.33491 c 1.11e-4,-2.26154 0.00202,-2.33801 0.060164,-2.43339 0.1272174,-0.20864 -0.2691329,-0.19375 5.1535244,-0.19375 5.3577222,0 5.0043832,-0.0114 5.1495622,0.17272 l 0.06423,0.0817 v 3.98083 3.98082 l 0.125811,0.2956 c 0.241723,0.56793 0.427861,1.11622 0.427861,1.26031 0,0.26284 -0.161694,0.4713 -0.418924,0.54011 l -0.134754,0.0361 v 2.57329 c 0,2.563 -2.43e-4,2.57362 -0.06423,2.65496 -0.145184,0.18458 0.208785,0.17273 -5.1557238,0.1726 -4.8209165,-1.1e-4 -4.9173105,-0.001 -5.0138936,-0.0601 z m 9.4956171,-3.49187 v -2.78314 l -0.125598,-0.31592 c -0.127321,-0.32026 -0.357919,-0.80042 -0.50463,-1.05076 l -0.08048,-0.13731 -0.113745,0.0472 c -0.323784,0.13463 -1.226483,0.7322 -1.303802,0.8631 -0.139611,0.23634 -0.170573,1.06375 -0.0597,1.59526 0.131171,0.62878 0.410254,1.28039 0.787522,1.83874 0.243684,0.36065 0.269202,0.41935 0.2659,0.61163 -0.0043,0.25285 -0.16016,0.44923 -0.409779,0.51644 -0.287807,0.0776 -0.48288,-0.0312 -0.738568,-0.41142 -0.6863241,-1.02071 -1.0460199,-2.00263 -1.09264,-2.98272 l -0.017251,-0.36259 -0.095397,-0.0672 C 9.344148,290.18917 8.8193668,289.75932 8.2304403,289.271 l -1.0707768,-0.88785 -0.2365178,0.2125 c -0.7052446,0.63359 -1.38499,1.07497 -2.0355201,1.32169 -0.3740113,0.14185 -0.6656447,0.15798 -0.8232778,0.0455 l -0.099974,-0.0713 v 2.87814 2.87814 h 4.4601812 4.460181 z m -5.905895,0.97317 c -1.0573707,-0.35241 -1.9658938,-0.66331 -2.0189401,-0.69089 -0.1366447,-0.071 -0.3322839,-0.30384 -0.3749166,-0.44614 -0.1558993,-0.52035 0.1812597,-1.01081 0.719039,-1.04599 0.174797,-0.0114 0.3033522,0.0267 2.1070505,0.62552 1.0564931,0.35072 1.9702886,0.66261 2.0306552,0.69306 0.1337922,0.0675 0.3268539,0.27589 0.3853894,0.41598 0.061286,0.14668 0.053908,0.46319 -0.014287,0.61279 -0.1389865,0.30489 -0.4002734,0.47608 -0.7269381,0.47628 -0.1583053,10e-5 -0.4580384,-0.0911 -2.1070523,-0.64061 z m -2.6145903,-4.744 c 0.1268856,-0.0351 0.3455549,-0.11753 0.4859347,-0.1833 l 0.2552352,-0.11954 -0.043897,-0.0859 c -0.024149,-0.0472 -0.052887,-0.12769 -0.063871,-0.17875 -0.015612,-0.0727 -0.051652,-0.10769 -0.1651943,-0.16095 -0.079873,-0.0374 -0.3023118,-0.19983 -0.4943054,-0.36085 -0.1919949,-0.16101 -0.3546368,-0.29276 -0.3614286,-0.29276 -0.00681,0 -0.012358,0.35339 -0.012358,0.78529 v 0.7853 l 0.084589,-0.0624 c 0.046519,-0.0343 0.1884034,-0.0911 0.3152878,-0.12615 z m 1.5124255,-0.85286 c 0.1464226,-0.11502 0.3652899,-0.30249 0.4863698,-0.41672 l 0.2201472,-0.20768 -0.025183,-0.15797 -0.025183,-0.15796 -0.3756996,0.44923 c -0.2066342,0.24707 -0.424644,0.48656 -0.484467,0.53219 -0.097982,0.0748 -0.1454303,0.16794 -0.085485,0.16794 0.012799,0 0.1430846,-0.094 0.2895073,-0.20903 z m 4.8532338,-0.15898 c 0.631024,-0.4243 1.160805,-0.64707 1.53889,-0.64707 0.228703,0 0.327114,0.0338 0.515967,0.1774 l 0.09998,0.0761 v -3.12577 -3.12578 H 8.4245976 3.9644163 v 1.63643 c 0,0.9192 0.011601,1.6236 0.026532,1.6072 0.01459,-0.0161 0.3334364,-0.40001 0.708541,-0.85319 0.3751045,-0.45319 0.7161336,-0.83952 0.7578433,-0.85852 0.059419,-0.0271 0.075838,-0.0577 0.075838,-0.1414 0,-0.22996 0.1397933,-0.49848 0.2595051,-0.49848 0.091386,0 0.2356312,0.16696 0.2909625,0.33676 0.047919,0.14706 0.072408,0.17722 0.19987,0.24608 0.2066404,0.1116 1.7592156,1.40403 1.8360386,1.52833 0.035724,0.0578 0.089393,0.10351 0.1214871,0.10351 0.1423394,0 0.3706443,0.0721 0.4443436,0.14047 0.044414,0.0411 0.085636,0.0748 0.091626,0.0748 0.00593,0 0.075649,-0.11047 0.1548211,-0.24553 0.1640443,-0.27982 0.2775201,-0.38905 0.4348279,-0.41856 0.3194819,-0.0599 0.6274194,0.25525 0.5509484,0.56391 -0.03783,0.1527 -0.7379495,1.26292 -1.1443968,1.81474 -0.090226,0.12245 -0.1640405,0.23571 -0.1640405,0.25161 0,0.0258 1.8045354,1.54045 1.8353184,1.54045 0.0069,0 0.135412,-0.0825 0.285477,-0.18345 z m -4.2585697,-0.95723 c 0.1372159,-0.0513 0.2337512,-0.11815 0.3765471,-0.26082 0.2060226,-0.20586 0.2907696,-0.36482 0.3470807,-0.65105 0.079432,-0.40373 -0.1274706,-0.90559 -0.4706977,-1.14174 -0.4981793,-0.34275 -1.1541406,-0.27406 -1.5532776,0.16266 -0.2449932,0.26805 -0.2966588,0.40444 -0.2980371,0.7867 -0.0011,0.30459 0.00479,0.33551 0.099747,0.5286 0.2739665,0.5568 0.902735,0.79831 1.4986412,0.57565 z m 1.5424392,-1.22014 c 0.4131345,-0.58059 0.6074685,-0.87855 0.5603251,-0.85914 -0.023039,0.01 -0.1110963,0.0393 -0.1956897,0.0661 -0.1269549,0.0402 -0.1632208,0.0687 -0.207774,0.16331 -0.029684,0.0629 -0.2142633,0.30809 -0.4101711,0.54464 -0.1959078,0.23656 -0.3627629,0.44072 -0.3707893,0.45371 -0.00807,0.013 0.066317,0.0236 0.1652157,0.0236 h 0.1798083 z"
       id="path2660"
       inkscape:connector-curvature="0" />
    <path
       style="fill:#ffffff;stroke-width:0.00117438;stroke-miterlimit:4;stroke-dasharray:none"
       d="m 5.6002205,287.11242 c -0.2198003,-0.0868 -0.4986042,-0.34919 -0.6139602,-0.57779 -0.084123,-0.16671 -0.091298,-0.20698 -0.09034,-0.50734 8.246e-4,-0.26164 0.013695,-0.35395 0.064918,-0.46608 0.101235,-0.22157 0.3294567,-0.45063 0.5640388,-0.56612 0.1922483,-0.0947 0.2293288,-0.10191 0.5184339,-0.10191 0.2785504,0 0.3301704,0.009 0.4896661,0.0876 0.4765818,0.23395 0.7463516,0.781 0.6308127,1.27919 -0.061008,0.26309 -0.1039594,0.34325 -0.2971303,0.55462 -0.2336969,0.2557 -0.4324597,0.34298 -0.8061241,0.354 -0.2413779,0.007 -0.3266017,-0.004 -0.460312,-0.0562 z"
       id="path2662"
       inkscape:connector-curvature="0" />
    <path
       style="fill:#ffffff;stroke-width:0.00117438;stroke-miterlimit:4;stroke-dasharray:none"
       d="M 9.659493,287.60044 C 9.2432021,287.2523 8.8396792,286.91127 8.7627756,286.84258 l -0.139825,-0.12484 0.1510632,-0.21315 c 0.2488205,-0.35111 0.7732215,-1.15516 0.9698847,-1.48713 0.1597674,-0.26967 0.1840834,-0.33156 0.1840834,-0.46849 0,-0.20311 -0.1100626,-0.35762 -0.3088467,-0.43353 -0.2730321,-0.10425 -0.4481243,-0.009 -0.6876572,0.37571 -0.079231,0.12712 -0.1501717,0.23113 -0.1576408,0.23113 -0.00744,0 -0.051463,-0.0277 -0.097767,-0.0613 -0.046305,-0.0337 -0.1750769,-0.0821 -0.2861593,-0.10744 -0.1117016,-0.0254 -0.2158573,-0.0687 -0.2330425,-0.0966 -0.066116,-0.10732 -1.2829177,-1.13314 -1.7619874,-1.48546 -0.1884414,-0.13857 -0.2533362,-0.20749 -0.3046209,-0.32346 -0.1231264,-0.27843 -0.2982058,-0.38978 -0.4131634,-0.26276 -0.073644,0.0814 -0.1458262,0.27007 -0.1458262,0.38119 0,0.0756 -0.039848,0.13874 -0.1823896,0.28841 -0.1003147,0.10532 -0.441316,0.50173 -0.7577828,0.88087 -0.5583352,0.66893 -0.5759567,0.68655 -0.5944144,0.59427 -0.010468,-0.0523 -0.019016,-0.76452 -0.019016,-1.58269 v -1.48758 h 4.4433201 4.4433212 v 3.0904 3.09039 l -0.159091,-0.0988 c -0.198752,-0.12359 -0.467608,-0.14818 -0.773075,-0.0709 -0.257537,0.0652 -0.802682,0.33166 -1.17474,0.57417 -0.159052,0.10362 -0.300845,0.1885 -0.315097,0.1885 -0.01424,0 -0.366516,-0.28484 -0.7828075,-0.63297 z"
       id="path2664"
       inkscape:connector-curvature="0" />
    <path
       style="fill:#ffffff;stroke-width:0.00117438;stroke-miterlimit:4;stroke-dasharray:none"
       d="m 7.4266728,286.26398 c 0,-0.006 0.1137067,-0.14984 0.2526779,-0.31847 0.1389725,-0.16864 0.3280545,-0.41377 0.4201824,-0.54476 0.141767,-0.20153 0.1888839,-0.2454 0.306622,-0.28552 0.076519,-0.0261 0.1391151,-0.0407 0.1391151,-0.0327 0,0.023 -0.081601,0.14526 -0.4595151,0.68837 l -0.3513353,0.50493 H 7.5805469 c -0.084627,0 -0.1538741,-0.005 -0.1538741,-0.0114 z"
       id="path2666"
       inkscape:connector-curvature="0" />
    <path
       style="fill:#ffffff;stroke-width:0.00117438;stroke-miterlimit:4;stroke-dasharray:none"
       d="m 5.5934148,288.39549 c 0,-0.0134 0.07807,-0.10074 0.1734843,-0.19421 0.095422,-0.0934 0.3008428,-0.32195 0.4565037,-0.50786 0.2359214,-0.28178 0.2868365,-0.32832 0.3059512,-0.27965 0.072509,0.18459 -0.00366,0.27832 -0.6493145,0.7988 -0.2603928,0.2099 -0.2866247,0.22663 -0.2866247,0.18292 z"
       id="path2668"
       inkscape:connector-curvature="0" />
    <path
       style="fill:#ffffff;stroke-width:0.00117438;stroke-miterlimit:4;stroke-dasharray:none"
       d="m 3.9776622,288.47717 c 0,-0.71182 0.00278,-0.74814 0.054375,-0.70399 0.2513891,0.21525 0.5826856,0.47179 0.732904,0.56752 0.1312904,0.0836 0.1937123,0.14702 0.2260577,0.22943 0.024578,0.0626 0.05749,0.13679 0.073152,0.16486 0.023581,0.0422 -0.00782,0.0672 -0.1826785,0.14545 -0.1161277,0.0519 -0.3425233,0.13851 -0.5030985,0.1924 -0.1605751,0.0539 -0.3052374,0.11085 -0.3214731,0.12645 -0.01623,0.0156 -0.040706,0.0285 -0.054375,0.0285 -0.013669,0 -0.024855,-0.33776 -0.024855,-0.75055 z"
       id="path2670"
       inkscape:connector-curvature="0" />
    <path
       style="fill:#ffffff;stroke-width:0.00117438;stroke-miterlimit:4;stroke-dasharray:none"
       d="m 3.9776622,292.78549 c 0,-1.56371 0.010468,-2.84266 0.023304,-2.84212 0.012824,5.8e-4 0.050441,0.0216 0.083619,0.0467 0.098335,0.0744 0.4488606,0.0587 0.7193315,-0.032 0.6118998,-0.20539 1.3921641,-0.69672 2.0841679,-1.31235 0.139564,-0.12421 0.261881,-0.22575 0.2718153,-0.22575 0.00996,0 0.462119,0.36704 1.0048553,0.81565 0.5427351,0.44859 1.0579698,0.87157 1.1449641,0.93993 l 0.1581729,0.12433 0.035877,0.43502 c 0.062092,0.75272 0.2322203,1.34234 0.5962258,2.06631 0.329564,0.65546 0.663084,1.13496 0.85167,1.22445 0.334946,0.15894 0.748101,-0.0547 0.806004,-0.41682 0.03067,-0.19181 -0.02049,-0.32823 -0.263094,-0.70152 -0.396417,-0.60998 -0.678391,-1.28449 -0.791258,-1.89277 -0.03974,-0.21419 -0.04877,-0.39966 -0.03855,-0.79235 0.01503,-0.57747 0.04012,-0.67118 0.222535,-0.83134 0.230095,-0.20203 1.046513,-0.71478 1.221131,-0.76691 0.05942,-0.0178 0.0853,0.0125 0.214972,0.25025 0.08108,0.14876 0.235905,0.47446 0.344052,0.72379 l 0.196631,0.45332 9.3e-5,2.78874 1.1e-4,2.78871 H 8.4209722 3.977652 Z m 5.417583,1.65071 c 0.1475614,-0.0617 0.3244554,-0.22704 0.398871,-0.3729 0.077792,-0.15248 0.1068207,-0.45507 0.06,-0.62531 -0.045977,-0.16709 -0.2494853,-0.39665 -0.4246505,-0.47899 -0.157251,-0.0739 -3.2207324,-1.10193 -3.6608553,-1.22848 -0.370899,-0.10668 -0.5854939,-0.10468 -0.8002843,0.007 -0.1915686,0.10011 -0.3513506,0.29108 -0.4028962,0.48161 -0.044287,0.16369 -0.020731,0.44602 0.048348,0.5796 0.077049,0.14899 0.2954518,0.35451 0.42035,0.39556 0.059811,0.0197 0.7589378,0.25434 1.5536081,0.52151 2.0765098,0.69811 2.2797037,0.75974 2.5100754,0.76125 0.1073637,6.9e-4 0.2412102,-0.0179 0.2974455,-0.0415 z"
       id="path2672"
       inkscape:connector-curvature="0" />
  </g>
</svg>
