<?xml version="1.0" encoding="UTF-8" standalone="no"?>
<!-- Created with Inkscape (http://www.inkscape.org/) -->

<svg
   xmlns:dc="http://purl.org/dc/elements/1.1/"
   xmlns:cc="http://creativecommons.org/ns#"
   xmlns:rdf="http://www.w3.org/1999/02/22-rdf-syntax-ns#"
   xmlns:svg="http://www.w3.org/2000/svg"
   xmlns="http://www.w3.org/2000/svg"
   xmlns:sodipodi="http://sodipodi.sourceforge.net/DTD/sodipodi-0.dtd"
   xmlns:inkscape="http://www.inkscape.org/namespaces/inkscape"
   width="64"
   height="64"
   viewBox="0 0 16.933333 16.933334"
   version="1.1"
   id="svg8"
   inkscape:version="0.92.5 (2060ec1f9f, 2020-04-08)"
   sodipodi:docname="pullover_64x64.svg">
  <defs
     id="defs2" />
  <sodipodi:namedview
     id="base"
     pagecolor="#ffffff"
     bordercolor="#666666"
     borderopacity="1.0"
     inkscape:pageopacity="0.0"
     inkscape:pageshadow="2"
     inkscape:zoom="3.959798"
     inkscape:cx="11.482032"
     inkscape:cy="12.100678"
     inkscape:document-units="mm"
     inkscape:current-layer="layer1"
     showgrid="false"
     units="px"
     inkscape:window-width="1208"
     inkscape:window-height="987"
     inkscape:window-x="1992"
     inkscape:window-y="0"
     inkscape:window-maximized="1" />
  <metadata
     id="metadata5">
    <rdf:RDF>
      <cc:Work
         rdf:about="">
        <dc:format>image/svg+xml</dc:format>
        <dc:type
           rdf:resource="http://purl.org/dc/dcmitype/StillImage" />
        <dc:title></dc:title>
      </cc:Work>
    </rdf:RDF>
  </metadata>
  <g
     inkscape:label="Layer 1"
     inkscape:groupmode="layer"
     id="layer1"
     transform="translate(0,-280.06665)">
    <path
       style="fill:#000000;stroke-width:0.03263512"
       d="m 1.2629558,296.33494 -0.080105,-0.0801 v -0.80945 c 0,-0.80725 -2.473e-4,-0.81022 -0.094527,-1.08738 -0.20694826,-0.60846 -0.31697567,-1.37049 -0.28728289,-1.98971 0.0219916,-0.45832 0.30473469,-2.72018 0.47936719,-3.83463 0.4966689,-3.16947 0.8209133,-5.14509 0.8648519,-5.26963 0.028262,-0.0801 0.086199,-0.20509 0.1287862,-0.27772 0.093371,-0.15934 0.3875424,-0.44353 0.5424534,-0.52407 0.061823,-0.0321 0.7291325,-0.28291 1.4830032,-0.55731 0.7538794,-0.27441 1.3821255,-0.51798 1.396124,-0.54128 0.013954,-0.0233 0.072686,-0.12259 0.1305351,-0.22067 0.1818835,-0.30859 0.5074438,-0.44851 0.8397341,-0.36088 0.1125533,0.0297 0.1843388,0.081 0.3096895,0.22116 0.3342419,0.37385 0.5632079,0.5816 0.7360038,0.66784 0.4984886,0.24874 1.0538359,0.24939 1.5647682,0.002 0.179976,-0.0872 0.4619162,-0.34564 0.6951303,-0.63718 0.1493382,-0.18668 0.2676762,-0.25258 0.4958572,-0.27614 0.13926,-0.0144 0.205914,-0.002 0.350642,0.064 0.184427,0.0844 0.29184,0.1984 0.411362,0.43649 0.03718,0.0741 0.09394,0.14492 0.12611,0.15745 0.03215,0.0125 0.645936,0.23621 1.363905,0.49709 0.717979,0.26087 1.360073,0.50219 1.426877,0.53624 0.270273,0.1378 0.567129,0.4741 0.676486,0.76641 0.09487,0.25356 0.935277,5.55945 1.162539,7.33969 0.09853,0.77181 0.187907,1.57953 0.198611,1.79493 0.03162,0.63541 -0.07313,1.37098 -0.283847,1.99446 l -0.09665,0.28592 v 0.81124 0.81124 l -0.0801,0.0801 -0.0801,0.0801 h -1.01465 -1.014658 l -0.0801,-0.0801 -0.0801,-0.0801 v -0.77717 -0.77716 l -0.132681,-0.16056 c -0.07295,-0.0883 -0.147015,-0.18736 -0.164538,-0.22011 -0.02534,-0.0473 -0.04495,-0.0525 -0.09577,-0.0254 -0.03515,0.0188 -0.06394,0.0498 -0.06394,0.0688 0,0.0191 -0.07339,0.20498 -0.163177,0.41322 l -0.163169,0.37862 v 0.54984 c 0,0.54027 -0.0018,0.55125 -0.0801,0.62995 l -0.0801,0.0801 H 8.4930767 4.4759895 l -0.080105,-0.0801 c -0.078692,-0.0787 -0.080105,-0.0895 -0.080105,-0.63166 v -0.55181 L 4.1728886,294.8249 c -0.078604,-0.1797 -0.1612876,-0.38376 -0.1837824,-0.45346 -0.061028,-0.18929 -0.065091,-0.19073 -0.1556705,-0.0558 -0.046103,0.0687 -0.1326546,0.18258 -0.1923492,0.25312 L 3.532534,294.697 v 0.77886 0.77885 l -0.080105,0.0801 -0.080105,0.0801 H 2.3576659 1.3430078 Z m 1.7474646,-0.96421 v -0.52216 H 2.3577189 1.7050174 v 0.52216 0.52216 h 0.6527015 0.6527015 z m 9.1378306,0.26108 v -0.26108 H 8.4931202 4.8379901 v 0.26108 0.26108 h 3.6551301 3.6551308 z m 3.132973,-0.26108 v -0.52216 H 14.628522 13.97582 v 0.52216 0.52216 h 0.652702 0.652702 z m -2.942019,-0.75483 c 0.05652,-0.12795 0.102757,-0.24544 0.102757,-0.26108 0,-0.0159 -1.728591,-0.0285 -3.9488429,-0.0285 -2.2202517,0 -3.9488514,0.0124 -3.9488514,0.0285 0,0.0156 0.046279,0.13313 0.1027677,0.26108 l 0.1027677,0.23267 h 3.7433171 3.7433168 z m -9.0179823,-0.47715 c 0.081694,-0.10323 0.2141022,-0.31763 0.2941896,-0.47653 l 0.1456198,-0.28887 8.832e-4,-0.36382 c 7.419e-4,-0.2001 0.020931,-0.47397 0.044866,-0.6086 0.024023,-0.13461 0.040627,-0.24838 0.036917,-0.2528 -0.00353,-0.004 -0.1145758,0.0727 -0.2464356,0.17134 -0.1505303,0.11262 -0.2721363,0.17937 -0.3267703,0.17937 -0.060057,0 -0.2350691,-0.11126 -0.5646832,-0.35899 -0.2627039,-0.19744 -0.4868125,-0.35898 -0.4980114,-0.35898 -0.011217,0 -0.2193041,0.1197 -0.4624631,0.26602 l -0.4420968,0.26601 0.020931,0.46011 c 0.021196,0.46665 0.088575,0.86811 0.2196485,1.30962 l 0.072333,0.24377 h 0.7780081 0.7780169 z m -1.3478049,-0.93089 -0.2358197,-0.2374 0.2447929,-0.24315 0.244784,-0.24316 0.244793,0.24316 0.244784,0.24315 -0.2358109,0.2374 c -0.129696,0.13057 -0.2438921,0.2374 -0.2537661,0.2374 -0.00989,0 -0.1240612,-0.10683 -0.2537572,-0.2374 z m 13.4645892,0.88195 c 0.03762,-0.13014 0.0847,-0.3002 0.104622,-0.37792 0.06147,-0.23972 0.12891,-0.82338 0.129582,-1.12129 l 6.36e-4,-0.28355 -0.437231,-0.26309 c -0.240483,-0.1447 -0.446398,-0.26309 -0.457597,-0.26309 -0.01121,0 -0.235308,0.16154 -0.498011,0.35898 -0.329615,0.24773 -0.504626,0.35899 -0.564675,0.35899 -0.05467,0 -0.176249,-0.0668 -0.32677,-0.17937 -0.131868,-0.0987 -0.242761,-0.17575 -0.246444,-0.17134 -0.0035,0.004 0.01289,0.11819 0.03692,0.2528 0.02402,0.13463 0.04416,0.41132 0.04486,0.61488 l 8.84e-4,0.37013 0.146371,0.28259 c 0.08046,0.1554 0.212892,0.36702 0.294189,0.47022 l 0.147819,0.18765 h 0.778017 0.778008 l 0.06835,-0.23659 z m -0.932707,-0.84931 -0.23582,-0.2374 0.244793,-0.24315 0.244784,-0.24315 0.244793,0.24315 0.244784,0.24315 -0.23581,0.2374 c -0.129696,0.13057 -0.243893,0.23739 -0.253767,0.23739 -0.0099,0 -0.124062,-0.10682 -0.253757,-0.23739 z m -1.838239,0.35711 c 0.05847,-0.33588 0.0446,-0.89961 -0.03144,-1.27259 -0.0371,-0.18201 -0.07419,-0.33767 -0.0824,-0.34591 -0.008,-0.008 -0.312816,0.28155 -0.676821,0.644 -0.599181,0.59659 -0.672299,0.65898 -0.77225,0.65898 -0.09953,0 -0.169236,-0.0586 -0.707998,-0.59444 l -0.5975903,-0.59443 -0.5975994,0.59443 c -0.5383554,0.53551 -0.6085151,0.59444 -0.707803,0.59444 -0.099289,0 -0.169457,-0.0589 -0.7078133,-0.59444 l -0.5975902,-0.59443 -0.5975995,0.59443 c -0.5387618,0.53591 -0.6084629,0.59444 -0.707998,0.59444 -0.099951,0 -0.1730605,-0.0623 -0.7722409,-0.65898 -0.3640142,-0.36245 -0.6685812,-0.65224 -0.6768303,-0.644 -0.00795,0.008 -0.045307,0.1639 -0.082401,0.34591 -0.076042,0.37298 -0.089944,0.93671 -0.031441,1.27259 l 0.036034,0.20663 h 4.1379597 4.1379602 z m -6.3113939,-1.42527 0.4561662,-0.45704 -0.4647596,-0.46475 -0.4647682,-0.46477 -0.4647594,0.46477 -0.4647593,0.46475 0.4561659,0.45704 c 0.2508869,0.25138 0.4639028,0.45704 0.4733528,0.45704 0.00945,0 0.2224748,-0.20566 0.4733616,-0.45704 z m -0.7347143,-0.21227 -0.2434062,-0.24503 0.2523795,-0.25238 0.2523794,-0.25238 0.2523883,0.25238 0.2523795,0.25238 -0.2434063,0.24503 c -0.1338734,0.13479 -0.2514875,0.24506 -0.2613615,0.24506 -0.00989,0 -0.1274791,-0.11027 -0.2613527,-0.24506 z m 3.345521,0.21227 0.456166,-0.45704 -0.4647593,-0.46475 -0.4647603,-0.46477 -0.4647593,0.46477 -0.4647594,0.46475 0.4561578,0.45704 c 0.2508956,0.25138 0.463902,0.45704 0.4733609,0.45704 0.00942,0 0.2224663,-0.20566 0.4733536,-0.45704 z m -0.7347145,-0.21227 -0.243406,-0.24503 0.2523876,-0.25238 0.2523793,-0.25238 0.2523803,0.25238 0.2523793,0.25238 -0.243406,0.24503 c -0.1338734,0.13479 -0.2514796,0.24506 -0.2613536,0.24506 -0.00994,0 -0.1274875,-0.11027 -0.2613609,-0.24506 z m 3.3455197,0.21227 0.456166,-0.45704 -0.464759,-0.46475 -0.464759,-0.46477 -0.46476,0.46477 -0.464759,0.46475 0.456166,0.45704 c 0.250886,0.25138 0.463894,0.45704 0.473353,0.45704 0.0094,0 0.222465,-0.20566 0.473352,-0.45704 z m -0.734705,-0.21227 -0.243406,-0.24503 0.252379,-0.25238 0.25238,-0.25238 0.252379,0.25238 0.252389,0.25238 -0.243407,0.24503 c -0.133874,0.13479 -0.251487,0.24506 -0.261361,0.24506 -0.0099,0 -0.127479,-0.11027 -0.261353,-0.24506 z m -7.1900414,-0.33385 0.379682,-0.28518 -0.020754,-0.87819 c -0.011393,-0.483 -0.026672,-0.88411 -0.033915,-0.89134 -0.024464,-0.0244 -2.2410335,-0.47645 -2.25724,-0.46026 -0.015456,0.0154 -0.3395588,2.51551 -0.3279184,2.52975 0.00353,0.003 0.1762576,-0.0953 0.3846985,-0.22028 0.2084409,-0.12501 0.4147092,-0.22728 0.4583739,-0.22728 0.050606,0 0.2499684,0.12946 0.5495543,0.35682 0.258597,0.19625 0.4741476,0.35779 0.4790051,0.35898 0.00442,8.8e-4 0.1796932,-0.12617 0.3885136,-0.28302 z M 14.1938,291.55242 c 0.30273,-0.22752 0.506711,-0.35898 0.557008,-0.35898 0.04363,0 0.249906,0.10229 0.458348,0.22727 0.20844,0.12502 0.381554,0.22416 0.384698,0.2203 0.01113,-0.0136 -0.312038,-2.51387 -0.326797,-2.52862 -0.01493,-0.0149 -2.237103,0.43785 -2.259651,0.46041 -0.0062,0.006 -0.02119,0.40704 -0.03259,0.89002 l -0.02076,0.87816 0.372192,0.28304 c 0.204714,0.15568 0.376185,0.28403 0.38106,0.28522 0.0053,8.8e-4 0.223808,-0.15937 0.486521,-0.35682 z m -8.3114945,-1.40331 c 0.099296,0 0.1694571,0.0589 0.7078125,0.59443 l 0.5975996,0.59444 0.5975903,-0.59444 c 0.5383553,-0.5355 0.6085254,-0.59443 0.7078123,-0.59443 0.099289,0 0.1694487,0.0589 0.707804,0.59443 l 0.5975994,0.59444 0.5975904,-0.59444 c 0.538364,-0.5355 0.608525,-0.59443 0.707813,-0.59443 0.09927,0 0.169245,0.0587 0.70442,0.59107 l 0.594209,0.59106 0.01864,-0.33814 c 0.01025,-0.18598 0.02624,-0.56945 0.0355,-0.85215 l 0.01678,-0.514 H 8.4931026 4.51273 l 0.016781,0.514 c 0.00928,0.2827 0.025171,0.66617 0.035504,0.85215 l 0.018635,0.33814 0.5942081,-0.59106 c 0.5351759,-0.53235 0.6051508,-0.59107 0.7044121,-0.59107 z m 6.6039855,-1.1667 c 0.01113,-0.0673 0.02041,-0.23013 0.02058,-0.36181 l 3.62e-4,-0.23943 -0.136973,0.10074 c -0.167063,0.12286 -0.294252,0.12937 -0.402989,0.0207 -0.151467,-0.15146 -0.102437,-0.30017 0.164652,-0.49953 l 0.09791,-0.073 -0.09791,-0.0731 c -0.267094,-0.19936 -0.316119,-0.34806 -0.164652,-0.49953 0.113886,-0.11389 0.239113,-0.10333 0.421041,0.0356 l 0.151555,0.11571 v -0.27481 c 0,-0.15115 0.0092,-0.32072 0.02041,-0.3768 l 0.02041,-0.10198 H 8.4931202 4.405573 l 0.020401,0.10198 c 0.011217,0.0561 0.020401,0.22565 0.020401,0.3768 v 0.27481 l 0.151546,-0.11571 c 0.1819365,-0.13892 0.3071547,-0.14951 0.4210505,-0.0356 0.1514577,0.15147 0.1024406,0.30017 -0.1646613,0.49953 l -0.097902,0.0731 0.097902,0.073 c 0.2671022,0.19936 0.316119,0.34807 0.1646613,0.49953 -0.1087467,0.10874 -0.2359344,0.10219 -0.4029981,-0.0207 l -0.1369646,-0.10074 3.709e-4,0.23943 c 2.473e-4,0.13168 0.00945,0.2945 0.020578,0.36181 l 0.020225,0.12238 H 8.4931295 12.466074 Z M 5.7013318,288.50253 C 5.5498741,288.35106 5.5988912,288.20235 5.865993,288.003 l 0.097902,-0.073 -0.097902,-0.073 c -0.2671021,-0.19936 -0.3161189,-0.34807 -0.1646612,-0.49953 0.1241319,-0.12414 0.236747,-0.10463 0.4861413,0.0842 l 0.216999,0.16428 0.2169991,-0.16428 c 0.2493943,-0.18879 0.3620094,-0.2083 0.4861413,-0.0842 0.1514577,0.15146 0.1024405,0.30017 -0.1646613,0.49953 l -0.097902,0.073 0.097902,0.073 c 0.2671021,0.19935 0.316119,0.34806 0.1646613,0.49953 -0.1241319,0.12413 -0.236747,0.10463 -0.4861413,-0.0842 l -0.2169991,-0.16427 -0.216999,0.16427 c -0.2493943,0.1888 -0.3620094,0.2083 -0.4861413,0.0842 z m 2.0886486,0 C 7.6385228,288.35106 7.687544,288.20235 7.9546417,288.003 l 0.097902,-0.073 -0.097902,-0.073 c -0.2671018,-0.19936 -0.3161189,-0.34807 -0.1646613,-0.49953 0.1241319,-0.12414 0.2367467,-0.10463 0.4861411,0.0842 l 0.2169987,0.16428 0.2169904,-0.16428 c 0.2494037,-0.18879 0.3620185,-0.2083 0.4861504,-0.0842 0.1514576,0.15146 0.1024364,0.30017 -0.1646613,0.49953 l -0.097912,0.073 0.097912,0.073 c 0.2671018,0.19935 0.3161189,0.34806 0.1646613,0.49953 -0.1241319,0.12413 -0.2367467,0.10463 -0.4861504,-0.0842 l -0.2169904,-0.16427 -0.2169987,0.16427 c -0.2493944,0.1888 -0.3620092,0.2083 -0.4861411,0.0842 z m 2.0886488,0 C 9.7271712,288.35106 9.7761924,288.20235 10.04329,288.003 l 0.0979,-0.073 -0.0979,-0.073 c -0.2671017,-0.19936 -0.3161188,-0.34807 -0.1646608,-0.49953 0.1241308,-0.12414 0.2367458,-0.10463 0.4861398,0.0842 l 0.217,0.16428 0.21699,-0.16428 c 0.249403,-0.18879 0.362018,-0.2083 0.486142,-0.0842 0.151466,0.15146 0.102436,0.30017 -0.164653,0.49953 l -0.09791,0.073 0.09791,0.073 c 0.267093,0.19935 0.316119,0.34806 0.164653,0.49953 -0.124124,0.12413 -0.236739,0.10463 -0.486142,-0.0842 l -0.21699,-0.16427 -0.217,0.16427 c -0.249394,0.1888 -0.362009,0.2083 -0.4861398,0.0842 z M 3.9445407,288.1339 c -0.011747,-0.48015 -0.02994,-0.99176 -0.040539,-1.13692 l -0.019253,-0.26393 -0.8369343,-0.10371 c -0.460317,-0.057 -0.853503,-0.10353 -0.8737367,-0.10322 -0.020755,2.5e-4 -0.054581,0.11463 -0.077544,0.26258 -0.03727,0.23973 -0.035769,0.26758 0.017399,0.32636 0.082843,0.0915 0.1212527,0.0823 0.3452554,-0.0826 0.2321456,-0.1709 0.3503161,-0.18764 0.4711979,-0.0668 0.1286185,0.12863 0.106159,0.23478 -0.088319,0.41735 l -0.1683971,0.1581 0.078692,0.0544 c 0.2614498,0.18041 0.316755,0.32798 0.1817245,0.48496 -0.1326811,0.15426 -0.2571486,0.12252 -0.614645,-0.15666 l -0.087347,-0.0682 -0.1622237,0.11908 c -0.089229,0.0655 -0.170252,0.13999 -0.1800553,0.16553 -0.023228,0.0605 -0.066416,0.44203 -0.050253,0.44393 0.00706,7.4e-4 0.4529512,0.0949 0.9914302,0.20922 0.5384791,0.11428 1.0141282,0.20908 1.0569892,0.21068 l 0.077897,0.003 -0.021284,-0.87299 z m 10.1521793,0.67223 c 0.542153,-0.11083 1.003884,-0.21272 1.026069,-0.22644 0.03197,-0.0197 0.03205,-0.078 7.95e-4,-0.27929 -0.02173,-0.13989 -0.05255,-0.26734 -0.06836,-0.28322 -0.01669,-0.0167 -0.121438,0.0412 -0.248944,0.13777 -0.2526,0.19121 -0.364694,0.21103 -0.489232,0.0865 -0.151459,-0.15146 -0.102447,-0.30017 0.164661,-0.49952 l 0.0979,-0.0731 -0.0979,-0.073 c -0.267103,-0.19934 -0.31612,-0.34806 -0.164661,-0.49952 0.11673,-0.11672 0.236217,-0.10312 0.441797,0.0502 0.09608,0.0717 0.180787,0.12425 0.188224,0.11681 0.02967,-0.0297 -0.09957,-0.73671 -0.134739,-0.73718 -0.02031,-2.5e-4 -0.41357,0.0462 -0.873931,0.10322 l -0.837014,0.10372 -0.01881,0.23129 c -0.01035,0.1272 -0.02844,0.63881 -0.04027,1.1369 -0.01793,0.75875 -0.01404,0.90569 0.02367,0.90601 0.02482,2.5e-4 0.488641,-0.0903 1.030794,-0.20114 z m -1.523727,-2.6793 c 0.0018,-0.3315 0.07322,-1.08345 0.129705,-1.3608 0.11954,-0.58656 0.41009,-1.3034 0.732753,-1.80781 0.08426,-0.13172 0.10653,-0.19025 0.07666,-0.20148 -0.190212,-0.0713 -2.286173,-0.83167 -2.292771,-0.83167 -0.0045,0 -0.0824,0.0992 -0.172645,0.22029 -0.607853,0.81585 -1.5338918,1.28007 -2.5535573,1.28007 -1.019675,0 -1.9457053,-0.46422 -2.5535675,-1.28007 -0.09027,-0.12116 -0.1679556,-0.22029 -0.1726453,-0.22029 -0.00618,0 -2.1025587,0.76029 -2.2927707,0.83167 -0.02994,0.0112 -0.00883,0.068 0.073481,0.1966 0.3223278,0.50388 0.6171621,1.23014 0.7358712,1.81269 0.056524,0.27735 0.1282034,1.0293 0.1297136,1.3608 l 4.946e-4,0.10607 h 4.0793867 4.0793867 l 4.87e-4,-0.10607 z m -4.3917251,-0.49355 c -0.2722515,-0.12678 -0.4713927,-0.417 -0.4713927,-0.68695 0,-0.55206 0.5764206,-0.94902 1.0698308,-0.73676 0.5517971,0.23737 0.6575238,0.92499 0.202153,1.31478 -0.227642,0.19485 -0.5282349,0.23574 -0.8005911,0.10893 z m 0.4928263,-0.52481 c 0.1618794,-0.16187 0.04716,-0.44206 -0.180974,-0.44206 -0.063591,0 -0.1304817,0.0296 -0.1809731,0.0801 -0.050514,0.0505 -0.080104,0.1174 -0.080104,0.18098 0,0.0636 0.02959,0.13048 0.080104,0.18097 0.050514,0.0505 0.1173836,0.0801 0.1809731,0.0801 0.063591,0 0.1304827,-0.0296 0.180974,-0.0801 z m -3.364712,0.26372 c -0.2722512,-0.12677 -0.4713921,-0.41698 -0.4713921,-0.68695 0,-0.55206 0.5764119,-0.94901 1.0698219,-0.73675 0.5517974,0.23737 0.6575326,0.925 0.2021614,1.31478 -0.2276414,0.19485 -0.528234,0.23574 -0.8005912,0.10892 z m 0.4928271,-0.5248 c 0.1618705,-0.16187 0.047162,-0.44206 -0.1809826,-0.44206 -0.063589,0 -0.1304821,0.0296 -0.1809739,0.0801 -0.050518,0.0505 -0.080105,0.1174 -0.080105,0.18098 0,0.0636 0.029587,0.13048 0.080105,0.18097 0.050518,0.0505 0.1173932,0.0801 0.1809739,0.0801 0.063589,0 0.130482,-0.0296 0.1809826,-0.0801 z m 4.9898727,0.5248 c -0.272251,-0.12677 -0.471401,-0.41698 -0.471401,-0.68695 0,-0.55206 0.576421,-0.94901 1.069831,-0.73675 0.551798,0.23737 0.657523,0.925 0.202162,1.31478 -0.227642,0.19485 -0.528243,0.23574 -0.800592,0.10892 z m 0.492819,-0.5248 c 0.161879,-0.16187 0.04716,-0.44206 -0.180974,-0.44206 -0.134166,0 -0.261079,0.12693 -0.261079,0.26108 0,0.13417 0.126913,0.26109 0.261079,0.26109 0.06359,0 0.130481,-0.0296 0.180974,-0.0801 z m -7.4095051,1.03468 c -0.047251,-0.74725 -0.2092004,-1.45948 -0.468928,-2.06191 -0.1334848,-0.30963 -0.4224459,-0.81813 -0.4649095,-0.81813 -0.04575,0 -0.2039721,0.21505 -0.2761372,0.3753 -0.04045,0.0898 -0.083196,0.23807 -0.095075,0.32961 l -0.021638,0.16641 0.1574016,0.0439 c 0.2018876,0.0562 0.4682214,0.31379 0.525664,0.50819 0.090403,0.30599 0.026672,0.54993 -0.2039721,0.78056 -0.1816891,0.18169 -0.360349,0.25463 -0.5835656,0.23824 l -0.1355163,-0.0104 -0.043982,0.27103 c -0.024199,0.14908 -0.037005,0.27797 -0.028527,0.28644 0.018017,0.018 1.3916993,0.19934 1.5512294,0.2048 l 0.1080314,0.003 z M 13.972244,286.103 c 0.41984,-0.0532 0.770051,-0.10356 0.778246,-0.11176 0.008,-0.008 -0.0053,-0.13686 -0.02905,-0.28593 l -0.04398,-0.27104 -0.135507,0.0104 c -0.419594,0.0308 -0.827229,-0.35249 -0.827229,-0.77783 0,-0.31592 0.263402,-0.66496 0.565346,-0.74917 l 0.157401,-0.0439 -0.02154,-0.16643 c -0.01193,-0.0915 -0.05467,-0.23986 -0.09507,-0.3296 -0.07215,-0.16024 -0.230405,-0.3753 -0.276137,-0.3753 -0.04248,0 -0.331434,0.50851 -0.464919,0.81812 -0.259727,0.60246 -0.421704,1.31468 -0.468928,2.06193 -0.01846,0.29277 -0.01536,0.31817 0.03895,0.31798 0.0325,-9e-5 0.402592,-0.0438 0.822432,-0.097 z M 2.6692365,284.84736 c 0.050518,-0.0505 0.080105,-0.11739 0.080105,-0.18098 0,-0.11547 -0.1245205,-0.26108 -0.2232608,-0.26108 -0.05043,0 -0.067387,0.0311 -0.084698,0.15502 -0.011923,0.0852 -0.02994,0.20274 -0.040008,0.26109 -0.017487,0.10115 -0.013513,0.10606 0.084698,0.10606 0.065886,0 0.1319128,-0.0289 0.1831288,-0.0801 z m 11.9156125,-0.026 c -0.01004,-0.0584 -0.02809,-0.17583 -0.04001,-0.26108 -0.02544,-0.18205 -0.09716,-0.20562 -0.227871,-0.0749 -0.162806,0.16281 -0.04716,0.44206 0.18312,0.44206 0.09823,0 0.102177,-0.005 0.0847,-0.10606 z m -5.9062769,-1.99073 c -0.00963,-0.0404 -0.027561,-0.15788 -0.039923,-0.2611 L 8.6161311,282.3819 H 8.4931119 8.370093 l -0.022519,0.18764 c -0.012362,0.10323 -0.030294,0.22071 -0.039923,0.2611 -0.01669,0.0701 -0.00797,0.0734 0.1854509,0.0734 0.1938071,0 0.2021084,-0.003 0.1854519,-0.0734 z m -0.8917536,-0.0496 c 0.0088,-0.0138 0.02579,-0.12928 0.038328,-0.25657 l 0.022788,-0.23145 -0.098709,-0.0345 c -0.097135,-0.0339 -0.1010904,-0.0308 -0.2475308,0.1894 l -0.1488262,0.22381 0.1703312,0.0654 c 0.188472,0.0725 0.2405185,0.0811 0.2635869,0.0437 z m 1.6667676,-0.0421 0.1796851,-0.0672 -0.1487906,-0.22376 C 9.3380744,282.2278 9.3341091,282.22477 9.236985,282.25862 l -0.098709,0.0345 0.022788,0.23145 c 0.032065,0.32544 0.019868,0.31648 0.2925028,0.21446 z m -2.4013582,-0.56098 0.1340324,-0.20395 -0.081076,-0.0811 -0.081076,-0.0811 -0.1867057,0.1867 -0.1867057,0.18672 0.1134718,0.097 c 0.062441,0.0533 0.1225863,0.0975 0.1337233,0.0983 0.011128,7.5e-4 0.080546,-0.0905 0.1542927,-0.20262 z m 3.1698021,0.10432 0.113462,-0.097 -0.186705,-0.18671 -0.1866978,-0.18671 -0.08108,0.0811 -0.081077,0.0811 0.1340327,0.20396 c 0.07375,0.11217 0.1431471,0.20336 0.1542831,0.20262 0.01113,-7.4e-4 0.07127,-0.0449 0.133733,-0.0983 z m -3.7231541,-0.69638 0.1737671,-0.17595 -0.0688,-0.0688 c -0.1295459,-0.12955 -0.2574755,-0.0802 -0.3717864,0.14331 -0.045307,0.0886 -0.045042,0.10643 0.00265,0.18765 0.029145,0.0494 0.061381,0.0898 0.071538,0.0898 0.010157,0 0.096753,-0.0792 0.1923229,-0.17594 z m 4.2523761,0.0862 c 0.04796,-0.0813 0.04823,-0.0991 0.0027,-0.18765 -0.114319,-0.22355 -0.24224,-0.27287 -0.371786,-0.1433 l -0.0688,0.0688 0.173767,0.17594 c 0.09556,0.0968 0.182105,0.17595 0.192314,0.17595 0.01015,0 0.0424,-0.0404 0.07154,-0.0898 z"
       id="path15421"
       inkscape:connector-curvature="0" />
    <path
       style="fill:#ffffff;stroke-width:0.00249196;stroke-miterlimit:4;stroke-dasharray:none"
       d="m 2.9841986,291.68149 c -0.3956147,-0.30101 -0.6998284,-0.50295 -0.7576418,-0.50295 -0.029499,0 -0.2223334,0.0963 -0.4285399,0.21393 -0.2062064,0.11767 -0.3787723,0.21008 -0.3834709,0.20538 -0.021815,-0.0218 0.3042402,-2.42856 0.3329084,-2.45723 0.014572,-0.0146 1.8757917,0.35286 2.1103573,0.41666 l 0.0989,0.0268 0.020401,0.37686 c 0.011217,0.20726 0.022345,0.60335 0.024729,0.88017 l 0.00442,0.50331 -0.3543876,0.26236 c -0.1949193,0.14429 -0.369225,0.26244 -0.3873568,0.26255 -0.018105,9e-5 -0.1442333,-0.0845 -0.2802175,-0.18794 z"
       id="path15423"
       inkscape:connector-curvature="0" />
    <path
       style="fill:#ffffff;stroke-width:0.00249196;stroke-miterlimit:4;stroke-dasharray:none"
       d="m 1.6168576,294.26914 c -0.1583466,-0.47802 -0.2470714,-0.97238 -0.270679,-1.50821 l -0.019607,-0.44505 0.4332827,-0.25739 c 0.2548877,-0.15141 0.450231,-0.24761 0.4744303,-0.23363 0.02261,0.013 0.2191539,0.15276 0.4367359,0.31045 0.2175731,0.15767 0.4280012,0.3036 0.4676033,0.32428 0.1258806,0.0658 0.2239496,0.0414 0.4402598,-0.10909 0.1159358,-0.0808 0.2162747,-0.14123 0.2229693,-0.13454 0.00706,0.007 -0.00353,0.14318 -0.023581,0.3033 -0.019606,0.16012 -0.036034,0.42463 -0.036387,0.58781 -6.8e-4,0.2945 -0.00177,0.29889 -0.1659685,0.59117 -0.090898,0.16196 -0.2197721,0.36594 -0.2863821,0.45329 L 3.168414,294.31036 H 2.3994406 c -0.585915,0 -0.7722143,-0.009 -0.7826183,-0.0412 z m 0.8675632,-1.04825 c 0.1298286,-0.12778 0.2360494,-0.24313 0.2360494,-0.25631 0,-0.0131 -0.1113875,-0.13463 -0.2475308,-0.26987 l -0.2475308,-0.24587 -0.254658,0.25466 -0.2546669,0.25467 0.2458792,0.24753 c 0.1352336,0.13613 0.2549936,0.24752 0.2661395,0.24752 0.011128,0 0.12649,-0.10454 0.2563184,-0.23233 z"
       id="path15425"
       inkscape:connector-curvature="0" />
    <path
       style="fill:#ffffff;stroke-width:0.00249196;stroke-miterlimit:4;stroke-dasharray:none"
       d="m 1.7314776,295.38177 v -0.511 h 0.6263561 0.6263649 v 0.511 0.51098 H 2.3578337 1.7314776 Z"
       id="path15427"
       inkscape:connector-curvature="0" />
    <path
       style="fill:#ffffff;stroke-width:0.00249196;stroke-miterlimit:4;stroke-dasharray:none"
       d="m 3.7424322,288.96407 c -0.081606,-0.0174 -0.5118068,-0.10582 -0.9560321,-0.19649 -0.4442253,-0.0907 -0.83364,-0.17229 -0.8653641,-0.18135 -0.043894,-0.0125 -0.056877,-0.0496 -0.054404,-0.15437 0.0053,-0.21893 0.037712,-0.28816 0.1998563,-0.42558 l 0.1521643,-0.12896 0.2200283,0.15063 c 0.2596393,0.17776 0.3777302,0.1928 0.4976493,0.0635 0.1254302,-0.13535 0.1071571,-0.25292 -0.064561,-0.41516 l -0.1453813,-0.13737 0.1453813,-0.16171 c 0.1804881,-0.20073 0.1907243,-0.30835 0.041245,-0.43411 -0.1290866,-0.10861 -0.1976661,-0.0959 -0.4843131,0.09 -0.163266,0.10585 -0.2212914,0.1282 -0.2637285,0.10167 -0.070302,-0.044 -0.084521,-0.19846 -0.038595,-0.41967 l 0.036564,-0.17621 0.1386427,0.0156 c 0.076219,0.009 0.4575967,0.0549 0.8474265,0.10291 l 0.7087752,0.0873 0.021726,0.1978 c 0.037977,0.34595 0.071892,2.06062 0.040715,2.05687 -0.016163,-0.002 -0.096214,-0.0177 -0.1778031,-0.0352 z"
       id="path15429"
       inkscape:connector-curvature="0" />
    <path
       style="fill:#ffffff;stroke-width:0.00249196;stroke-miterlimit:4;stroke-dasharray:none"
       d="m 2.934749,286.08155 c -0.326364,-0.0436 -0.6139473,-0.0869 -0.6390651,-0.0961 -0.035239,-0.0131 -0.040627,-0.0596 -0.02367,-0.20446 0.038683,-0.32915 0.035063,-0.32399 0.2280565,-0.32678 0.2897559,-0.004 0.612022,-0.23097 0.7297243,-0.51351 0.1656682,-0.39768 -0.097265,-0.90114 -0.545518,-1.04456 l -0.118559,-0.038 0.025082,-0.15571 c 0.013777,-0.0856 0.041863,-0.2002 0.062353,-0.2546 0.050606,-0.13418 0.2407744,-0.41207 0.2815423,-0.41144 0.074276,8.8e-4 0.4198495,0.66394 0.575467,1.10373 0.1879333,0.53111 0.364076,1.46008 0.364076,1.9201 v 0.10734 l -0.1730692,-0.003 c -0.09519,-0.002 -0.4401009,-0.0391 -0.7664738,-0.0825 z"
       id="path15431"
       inkscape:connector-curvature="0" />
    <path
       style="fill:#ffffff;stroke-width:0.00249196;stroke-miterlimit:4;stroke-dasharray:none"
       d="m 2.4378858,284.71489 c 0.027025,-0.23895 0.045661,-0.29447 0.09905,-0.29447 0.075335,0 0.183535,0.15051 0.183535,0.25522 0,0.11406 -0.1253154,0.23928 -0.2394672,0.23928 -0.06094,0 -0.06412,-0.0146 -0.043099,-0.20003 z"
       id="path15433"
       inkscape:connector-curvature="0" />
    <path
       style="fill:#ffffff;stroke-width:0.00124598;stroke-miterlimit:4;stroke-dasharray:none"
       d="m 4.4157827,286.05481 c -1.678e-4,-0.33606 -0.082843,-1.11671 -0.1475718,-1.39367 -0.1219945,-0.52198 -0.3734997,-1.13956 -0.665702,-1.63461 -0.069418,-0.11759 -0.1260396,-0.22513 -0.1258718,-0.23901 2.914e-4,-0.024 0.3670259,-0.16165 1.9074363,-0.71574 l 0.3830469,-0.13778 0.1260219,0.16441 c 0.2788662,0.36381 0.5030721,0.58178 0.812479,0.78987 0.5319788,0.3578 1.1393812,0.54158 1.7898492,0.54158 0.8614948,0 1.6532716,-0.32637 2.2454226,-0.92558 0.158824,-0.16073 0.216698,-0.22835 0.402963,-0.47085 l 0.07701,-0.10023 0.442221,0.16021 c 1.516308,0.54929 1.839652,0.66993 1.847017,0.68913 0.0045,0.0118 -0.04866,0.11592 -0.118303,0.23138 -0.302227,0.5014 -0.575025,1.17762 -0.683153,1.69341 -0.05741,0.27366 -0.111936,0.78682 -0.143307,1.34751 l -0.0099,0.17719 H 8.4856751 4.4159063 Z m 4.267144,-0.36847 c 0.2750864,-0.062 0.5261228,-0.33877 0.57983,-0.63926 0.072774,-0.40736 -0.2304685,-0.82193 -0.6529321,-0.89256 -0.3476398,-0.0581 -0.7168384,0.16128 -0.8526903,0.50671 -0.045213,0.11505 -0.064388,0.27617 -0.045306,0.38138 0.043722,0.24075 0.228437,0.47983 0.4548852,0.58874 0.1710918,0.0823 0.3231323,0.0985 0.5161794,0.0551 z m -2.930114,-0.24586 c 0.2625803,-0.0498 0.5101993,-0.26056 0.6006112,-0.51118 0.1476954,-0.40943 -0.072421,-0.85771 -0.4938781,-1.00584 -0.1112285,-0.0391 -0.3068015,-0.0464 -0.4218718,-0.0157 -0.3034277,0.0809 -0.5425152,0.34384 -0.5959834,0.65567 -0.083903,0.489 0.4167052,0.97087 0.9111221,0.8771 z m 5.5082233,-0.007 c 0.273612,-0.058 0.503524,-0.27231 0.589016,-0.54908 0.150239,-0.48643 -0.229417,-0.99601 -0.741215,-0.9949 -0.60637,8.9e-4 -0.997127,0.67553 -0.677519,1.169 0.121676,0.18787 0.339939,0.34233 0.536801,0.37987 0.118312,0.0226 0.167249,0.0217 0.292917,-0.005 z"
       id="path15435"
       inkscape:connector-curvature="0" />
    <path
       style="fill:#ffffff;stroke-width:0.00124598;stroke-miterlimit:4;stroke-dasharray:none"
       d="m 5.4864877,284.87156 c -0.1549817,-0.11434 -0.1461939,-0.32588 0.017311,-0.41779 0.1671078,-0.0939 0.3624422,0.0205 0.3624422,0.21233 0,0.19829 -0.2247181,0.31986 -0.3797881,0.20546 z"
       id="path15437"
       inkscape:connector-curvature="0" />
    <path
       style="fill:#ffffff;stroke-width:0.00124598;stroke-miterlimit:4;stroke-dasharray:none"
       d="m 8.3786242,285.14592 c -0.1028816,-0.0627 -0.1564387,-0.17591 -0.1310646,-0.27697 0.016959,-0.0675 0.1431376,-0.18599 0.2004126,-0.18818 0.18115,-0.007 0.2715268,0.067 0.2830346,0.23184 0.00528,0.0754 -4.328e-4,0.10157 -0.032499,0.14909 -0.072867,0.10815 -0.218005,0.14635 -0.3198989,0.0843 z"
       id="path15439"
       inkscape:connector-curvature="0" />
    <path
       style="fill:#ffffff;stroke-width:0.00124598;stroke-miterlimit:4;stroke-dasharray:none"
       d="m 10.974514,284.87624 c -0.07137,-0.0473 -0.136938,-0.17483 -0.122834,-0.23902 0.05626,-0.25613 0.388875,-0.2998 0.47934,-0.063 0.0348,0.0911 0.02287,0.17024 -0.03603,0.24028 -0.08753,0.104 -0.218552,0.12922 -0.32049,0.0616 z"
       id="path15441"
       inkscape:connector-curvature="0" />
    <path
       style="fill:#ffffff;stroke-width:0.00124598;stroke-miterlimit:4;stroke-dasharray:none"
       d="m 14.37571,284.88048 c -0.07383,-0.045 -0.119213,-0.12528 -0.119292,-0.21107 -6.1e-5,-0.0854 0.03065,-0.14945 0.09951,-0.20738 0.06262,-0.0526 0.123196,-0.056 0.148808,-0.008 0.01625,0.0303 0.08125,0.38134 0.08125,0.43881 9e-6,0.0341 -0.148473,0.0255 -0.210305,-0.0123 z"
       id="path15443"
       inkscape:connector-curvature="0" />
    <path
       style="fill:#ffffff;stroke-width:0.00124598;stroke-miterlimit:4;stroke-dasharray:none"
       d="m 13.118811,286.1657 c -0.0121,-0.0226 -0.01219,-0.10598 -2.91e-4,-0.27562 0.04708,-0.67163 0.169969,-1.27287 0.374074,-1.82944 0.13269,-0.3618 0.4978,-1.04286 0.559083,-1.04286 0.03568,0 0.165324,0.17589 0.236862,0.32142 0.07048,0.14346 0.110725,0.28089 0.126578,0.43254 l 0.01015,0.0972 -0.106238,0.0288 c -0.227483,0.0616 -0.414083,0.22098 -0.528164,0.45121 -0.05767,0.11636 -0.06854,0.15526 -0.07516,0.26885 -0.0053,0.0953 4.6e-4,0.16288 0.02119,0.23941 0.09652,0.35655 0.485188,0.63238 0.835424,0.59287 0.109737,-0.0123 0.09895,-0.0305 0.136258,0.22981 0.04698,0.32776 0.04663,0.30026 0.0035,0.31112 -0.05299,0.0134 -0.826097,0.11602 -1.189159,0.15799 -0.163185,0.019 -0.316949,0.0376 -0.341705,0.0417 -0.03277,0.005 -0.04973,-0.002 -0.06235,-0.0249 z"
       id="path15445"
       inkscape:connector-curvature="0" />
    <path
       style="fill:#ffffff;stroke-width:0.00124598;stroke-miterlimit:4;stroke-dasharray:none"
       d="m 13.043864,288.90841 c -0.02049,-0.16393 0.04098,-2.13672 0.06739,-2.16314 0.0035,-0.003 0.234715,-0.0346 0.513899,-0.0694 1.01684,-0.12621 1.183056,-0.14378 1.194148,-0.12631 0.02782,0.0439 0.140233,0.68246 0.123126,0.69956 -0.0045,0.004 -0.07878,-0.041 -0.165766,-0.10043 -0.237207,-0.16196 -0.332935,-0.17564 -0.455283,-0.0651 -0.15817,0.1429 -0.11666,0.30255 0.128372,0.49373 0.05669,0.0442 0.103099,0.085 0.103171,0.0908 9.7e-5,0.005 -0.02764,0.0316 -0.06164,0.0574 -0.292759,0.22216 -0.33691,0.36505 -0.164105,0.5311 0.116475,0.11193 0.21691,0.09 0.507241,-0.11094 0.093,-0.0644 0.181653,-0.117 0.196995,-0.117 0.03065,0 0.07065,0.15358 0.09641,0.37042 0.01776,0.14928 0.01104,0.16999 -0.06147,0.18886 -0.18055,0.047 -1.626062,0.34606 -1.950122,0.40352 l -0.06059,0.0108 z"
       id="path15447"
       inkscape:connector-curvature="0" />
    <path
       style="fill:#ffffff;stroke-width:0.00124598;stroke-miterlimit:4;stroke-dasharray:none"
       d="m 4.5247237,289.07387 c -0.015809,-0.0411 -0.042658,-0.37894 -0.042746,-0.53829 l -1.324e-4,-0.14419 0.09882,0.0728 c 0.1790043,0.13177 0.289332,0.15189 0.4033249,0.0735 0.076308,-0.0525 0.1123591,-0.11077 0.1199898,-0.19416 0.00618,-0.0638 -8.832e-4,-0.0878 -0.043717,-0.15157 -0.027909,-0.0417 -0.1023795,-0.11585 -0.1655445,-0.16483 -0.063148,-0.049 -0.1146819,-0.0928 -0.1144876,-0.0973 1.944e-4,-0.004 0.051755,-0.0481 0.1146112,-0.0969 0.062794,-0.0488 0.1371677,-0.12295 0.1651824,-0.16483 0.043099,-0.0645 0.049812,-0.0879 0.043894,-0.15284 -0.011217,-0.12235 -0.1382453,-0.24496 -0.2534216,-0.24456 -0.064826,2.2e-4 -0.1949459,0.0639 -0.2980844,0.14576 -0.047339,0.0376 -0.089211,0.0683 -0.093061,0.0683 -0.00353,0 -0.010598,-0.14649 -0.014925,-0.32554 -0.00442,-0.17906 -0.013424,-0.34224 -0.020136,-0.36264 l -0.012188,-0.0371 h 4.0832811 c 3.8821454,0 4.0827334,0.002 4.0720384,0.0289 -0.01554,0.04 -0.0409,0.37775 -0.04133,0.55215 l -3.9e-4,0.1442 -0.103016,-0.0764 c -0.122163,-0.0906 -0.217326,-0.13697 -0.281852,-0.13748 -0.125076,-8.8e-4 -0.258199,0.12999 -0.257705,0.25349 3.97e-4,0.10012 0.05873,0.18673 0.200854,0.29834 0.06924,0.0545 0.126367,0.1026 0.126888,0.10714 5.21e-4,0.004 -0.03038,0.0304 -0.0688,0.0575 -0.181212,0.12802 -0.25926,0.23381 -0.25926,0.35147 0,0.11826 0.134245,0.25038 0.254393,0.25038 0.06032,0 0.138661,-0.0353 0.25775,-0.11617 l 0.101784,-0.0692 -0.0088,0.31105 c -0.0045,0.17108 -0.01396,0.32774 -0.02041,0.34813 l -0.01183,0.0371 H 8.4951701 c -3.6061221,0 -3.9614281,-0.003 -3.9705867,-0.0262 z m 1.4832682,-0.53374 c 0.05361,-0.0269 0.1645641,-0.10022 0.2466298,-0.16282 l 0.1492145,-0.11384 0.1639637,0.12379 c 0.3128248,0.23615 0.4247246,0.25517 0.5645507,0.0959 0.1283889,-0.14623 0.068447,-0.29063 -0.2110286,-0.50843 l -0.057672,-0.0449 0.057672,-0.0449 c 0.2794844,-0.2178 0.3394175,-0.36221 0.2110286,-0.50843 -0.1397908,-0.1592 -0.2517612,-0.14021 -0.5642239,0.0957 l -0.1636369,0.12342 -0.1660303,-0.12383 c -0.1804263,-0.13456 -0.3047613,-0.20091 -0.3769972,-0.20116 -0.092249,-3.3e-4 -0.1875712,0.0756 -0.233753,0.1861 -0.049723,0.1189 0.021992,0.24099 0.2469302,0.42046 l 0.065974,0.0526 -0.065974,0.0526 c -0.1359313,0.10846 -0.2366765,0.22366 -0.2549496,0.29155 -0.02782,0.10322 0.027026,0.21497 0.1395701,0.28451 0.069771,0.0431 0.1363816,0.0381 0.2487319,-0.0183 z m 2.0754003,0.009 c 0.045306,-0.0213 0.1564303,-0.0944 0.2468868,-0.16228 l 0.1644667,-0.12342 0.1487108,0.11346 c 0.1693244,0.12917 0.3214975,0.21142 0.3911726,0.21142 0.093936,0 0.1887992,-0.0752 0.2352372,-0.18627 0.049727,-0.11891 -0.021991,-0.24099 -0.2469303,-0.42046 l -0.065972,-0.0526 0.065972,-0.0526 c 0.2249211,-0.17947 0.2966183,-0.30154 0.2469303,-0.42046 -0.046197,-0.11053 -0.1414955,-0.18642 -0.2337535,-0.18609 -0.072246,2.6e-4 -0.1965704,0.0666 -0.3769968,0.20116 l -0.166031,0.12382 -0.1636363,-0.12353 c -0.3124631,-0.23589 -0.4244329,-0.25488 -0.5642243,-0.0957 -0.1283882,0.14622 -0.068446,0.29063 0.2110289,0.50842 l 0.057668,0.0449 -0.057668,0.0449 c -0.2742115,0.21368 -0.3376601,0.35915 -0.2184471,0.50082 0.099465,0.11821 0.1891429,0.1387 0.325586,0.0743 z m 2.0942568,-0.002 c 0.04487,-0.0226 0.151784,-0.0931 0.237656,-0.15658 0.08585,-0.0635 0.161792,-0.11547 0.168724,-0.11547 0.007,0 0.09243,0.0592 0.189992,0.1317 0.165721,0.12305 0.280041,0.18148 0.355095,0.18148 0.05891,0 0.147368,-0.0547 0.195148,-0.12065 0.09856,-0.13607 0.04407,-0.28278 -0.164078,-0.4417 -0.06394,-0.0489 -0.116236,-0.0924 -0.116236,-0.097 0,-0.004 0.05228,-0.0482 0.116236,-0.097 0.20814,-0.1589 0.262642,-0.30563 0.164078,-0.4417 -0.02614,-0.0361 -0.07534,-0.0788 -0.109321,-0.0949 -0.111414,-0.0529 -0.208661,-0.0172 -0.456846,0.16749 -0.08867,0.0659 -0.166949,0.11998 -0.173943,0.11998 -0.007,0 -0.08302,-0.052 -0.168849,-0.11559 -0.208052,-0.15404 -0.310802,-0.2044 -0.394227,-0.19321 -0.1164298,0.0156 -0.2164687,0.12137 -0.2273583,0.24035 -0.00621,0.0649 7.941e-4,0.0884 0.043898,0.15283 0.027996,0.0418 0.1023325,0.11606 0.1651733,0.16484 0.06279,0.0488 0.114417,0.0923 0.114611,0.0969 1.95e-4,0.004 -0.05131,0.0483 -0.114488,0.0973 -0.2324359,0.18022 -0.2741321,0.33405 -0.1296868,0.4785 0.09501,0.095 0.1773618,0.10649 0.3044078,0.0423 z"
       id="path15449"
       inkscape:connector-curvature="0" />
    <path
       style="fill:#ffffff;stroke-width:0.00124598;stroke-miterlimit:4;stroke-dasharray:none"
       d="m 6.6371036,290.78016 c -0.3057683,-0.29872 -0.5908697,-0.56529 -0.6335807,-0.59238 -0.088318,-0.056 -0.1327606,-0.0608 -0.2079993,-0.0223 -0.076749,0.0394 -0.1162716,0.0757 -0.6837633,0.62872 -0.2836001,0.27639 -0.5181215,0.49968 -0.5211597,0.49619 -0.00706,-0.008 -0.039478,-0.74022 -0.051401,-1.15192 -0.00442,-0.16771 -0.012541,-0.3513 -0.017046,-0.40795 l -0.00795,-0.10302 h 3.9754622 3.9754632 l -0.01104,0.36675 c -0.01404,0.4665 -0.04098,1.07767 -0.05334,1.21287 l -0.0095,0.10435 -0.554853,-0.55033 c -0.586242,-0.58147 -0.656181,-0.63784 -0.764583,-0.61616 -0.08558,0.0171 -0.196236,0.11448 -0.746302,0.65655 l -0.5274577,0.51979 -0.5196488,-0.51392 c -0.285799,-0.28265 -0.5633763,-0.54694 -0.616836,-0.5873 -0.1228336,-0.0928 -0.1972155,-0.0986 -0.3072077,-0.0241 -0.040005,0.0271 -0.3176026,0.29182 -0.6168433,0.58828 l -0.5440876,0.539 z"
       id="path15451"
       inkscape:connector-curvature="0" />
    <path
       style="fill:#ffffff;stroke-width:0.00124598;stroke-miterlimit:4;stroke-dasharray:none"
       d="m 4.3585257,293.77721 c -0.057318,-0.17195 -0.081784,-0.82832 -0.043276,-1.15795 0.031265,-0.26728 0.1064859,-0.61812 0.1325576,-0.61812 0.00795,0 0.2764021,0.25725 0.5968841,0.57166 0.6403369,0.62819 0.7410996,0.71403 0.8381884,0.71403 0.096904,0 0.2045549,-0.091 0.7816381,-0.66063 l 0.5223697,-0.51564 0.2174848,0.21349 c 0.716671,0.70348 0.8841671,0.86418 0.9493458,0.91086 0.095769,0.0685 0.1665248,0.0686 0.2745127,3.5e-4 0.044861,-0.0284 0.3263025,-0.2949 0.6254729,-0.59231 l 0.5439461,-0.54072 0.5439441,0.53921 c 0.299172,0.29657 0.580449,0.5631 0.625068,0.5923 0.107351,0.0702 0.178182,0.0705 0.274918,8.8e-4 0.07075,-0.0508 0.161252,-0.13725 0.917269,-0.87544 0.201712,-0.19696 0.3735,-0.35811 0.381758,-0.35811 0.01766,0 0.07428,0.23578 0.112765,0.46978 0.01996,0.12119 0.02737,0.27614 0.02799,0.58516 7.87e-4,0.38787 -0.0053,0.47402 -0.05034,0.69641 l -0.0092,0.0454 H 8.4935529 c -3.2879543,0 -4.129649,-0.004 -4.1351159,-0.0206 z"
       id="path15453"
       inkscape:connector-curvature="0" />
    <path
       style="fill:#ffffff;stroke-width:0.00124598;stroke-miterlimit:4;stroke-dasharray:none"
       d="m 10.63461,292.16185 -0.449957,-0.44917 0.457694,-0.4574 0.457693,-0.45741 0.461422,0.4629 0.461421,0.46291 -0.453208,0.44366 c -0.249253,0.24403 -0.460379,0.44368 -0.469158,0.44368 -0.0088,0 -0.218438,-0.20213 -0.465907,-0.44917 z m 0.749543,-0.21341 0.234884,-0.23616 -0.255551,-0.25516 -0.255559,-0.25515 -0.259541,0.26031 -0.259543,0.26033 0.251585,0.24687 c 0.207664,0.20376 0.256592,0.2441 0.280217,0.23099 0.01572,-0.009 0.134324,-0.12214 0.263508,-0.25203 z"
       id="path15455"
       inkscape:connector-curvature="0" />
    <path
       style="fill:#ffffff;stroke-width:0.00124598;stroke-miterlimit:4;stroke-dasharray:none"
       d="m 8.0277697,292.1632 -0.4495947,-0.44782 0.458541,-0.45876 0.4585328,-0.45875 0.4577035,0.45741 0.4576931,0.4574 -0.449957,0.44917 c -0.247478,0.24704 -0.4574644,0.44917 -0.4666406,0.44917 -0.00921,0 -0.2190041,-0.20152 -0.4662781,-0.44782 z m 0.7520419,-0.2188 c 0.1201138,-0.11812 0.2183943,-0.22238 0.2183943,-0.2317 0,-0.0218 -0.4813102,-0.50276 -0.5031331,-0.50276 -0.00911,0 -0.1296254,0.11333 -0.2678969,0.25182 l -0.2514258,0.25181 0.2555589,0.25365 0.2555588,0.25364 0.037272,-0.0309 c 0.020489,-0.017 0.1355516,-0.12749 0.2556737,-0.24562 z"
       id="path15457"
       inkscape:connector-curvature="0" />
    <path
       style="fill:#ffffff;stroke-width:0.00124598;stroke-miterlimit:4;stroke-dasharray:none"
       d="m 5.4110988,292.16185 -0.4525802,-0.44917 0.4581709,-0.4574 0.4581708,-0.45741 0.461421,0.46231 0.4614209,0.46232 -0.4483675,0.44425 c -0.2465945,0.24435 -0.4567489,0.44427 -0.4670027,0.44427 -0.01025,0 -0.2223069,-0.20213 -0.4712332,-0.44917 z m 0.7348999,-0.19522 0.2528829,-0.24879 -0.2579967,-0.258 -0.2580053,-0.25801 -0.2596128,0.26086 -0.2596039,0.26085 0.2553381,0.24595 c 0.1404356,0.13526 0.2595598,0.24593 0.2647264,0.24593 0.0053,0 0.123187,-0.11196 0.2622713,-0.24879 z"
       id="path15459"
       inkscape:connector-curvature="0" />
    <path
       style="fill:#ffffff;stroke-width:0.00124598;stroke-miterlimit:4;stroke-dasharray:none"
       d="m 4.6511608,294.60141 -0.098873,-0.23493 0.2903035,-0.0125 c 0.3740473,-0.0161 7.5608477,-0.008 7.5774517,0.009 0.007,0.007 -0.03144,0.11446 -0.08523,0.23901 l -0.09777,0.22646 -3.7435119,0.004 -3.7435106,0.004 z"
       id="path15461"
       inkscape:connector-curvature="0" />
    <path
       style="fill:#ffffff;stroke-width:0.00124598;stroke-miterlimit:4;stroke-dasharray:none"
       d="m 4.8444374,295.63569 v -0.25549 h 3.651033 3.6510316 v 0.25549 0.25549 H 8.4954704 4.8444374 Z"
       id="path15463"
       inkscape:connector-curvature="0" />
    <path
       style="fill:#ffffff;stroke-width:0.00124598;stroke-miterlimit:4;stroke-dasharray:none"
       d="m 13.976147,295.37196 v -0.51922 h 0.651085 0.651086 v 0.51922 0.51922 h -0.651086 -0.651085 z"
       id="path15465"
       inkscape:connector-curvature="0" />
    <path
       style="fill:#ffffff;stroke-width:0.00124598;stroke-miterlimit:4;stroke-dasharray:none"
       d="m 13.724722,294.20251 c -0.119442,-0.15268 -0.258624,-0.37473 -0.388982,-0.62053 l -0.10135,-0.19111 v -0.23918 c 0,-0.27376 -0.02314,-0.59445 -0.05917,-0.81875 -0.0136,-0.085 -0.02217,-0.15706 -0.01899,-0.16026 0.0035,-0.003 0.08328,0.0499 0.177954,0.11801 0.09468,0.0681 0.217794,0.14645 0.273576,0.1741 l 0.101421,0.0502 0.07445,-0.0329 c 0.09427,-0.0417 0.212777,-0.12201 0.56335,-0.38177 0.154115,-0.11419 0.314405,-0.23108 0.356198,-0.25976 l 0.07595,-0.0521 0.121818,0.0694 c 0.06704,0.0382 0.264604,0.15442 0.439121,0.25828 l 0.317303,0.18885 v 0.26059 c 0,0.55319 -0.07127,1.00312 -0.257043,1.62365 l -0.04071,0.13599 -0.77006,-7.6e-4 -0.770069,-7.6e-4 z m 1.311727,-0.97789 0.227906,-0.2292 -0.250993,-0.24117 -0.250993,-0.24116 -0.141742,0.13013 c -0.07798,0.0715 -0.191881,0.18102 -0.253157,0.2432 l -0.111415,0.11308 0.245907,0.24395 c 0.20988,0.20821 0.250348,0.24147 0.276242,0.22715 0.01669,-0.009 0.132903,-0.11992 0.258245,-0.24598 z"
       id="path15467"
       inkscape:connector-curvature="0" />
    <path
       style="fill:#ffffff;stroke-width:0.00124598;stroke-miterlimit:4;stroke-dasharray:none"
       d="m 13.603274,291.82217 c -0.05546,-0.042 -0.222395,-0.16842 -0.370885,-0.28075 l -0.269999,-0.20425 0.0035,-0.12543 c 0.0018,-0.069 0.01201,-0.45549 0.02208,-0.8589 0.01015,-0.40341 0.02464,-0.74461 0.03224,-0.7582 0.009,-0.0161 0.11386,-0.0464 0.299338,-0.0865 0.257626,-0.0557 1.760748,-0.35937 1.886611,-0.3811 0.04751,-0.008 0.05255,-0.004 0.06227,0.0439 0.02252,0.11206 0.240041,1.7902 0.31188,2.40575 0.0027,0.025 0.0018,0.0454 -0.0027,0.0454 -0.0045,0 -0.128769,-0.0706 -0.276482,-0.15681 -0.310988,-0.18158 -0.492412,-0.27176 -0.546773,-0.27176 -0.07418,0 -0.179304,0.0676 -0.679586,0.43692 -0.18584,0.13722 -0.345316,0.25371 -0.354387,0.25889 -0.0091,0.005 -0.06191,-0.0249 -0.117375,-0.0671 z"
       id="path15469"
       inkscape:connector-curvature="0" />
    <path
       style="fill:#ffffff;stroke-width:0.00124598;stroke-miterlimit:4;stroke-dasharray:none"
       d="m 10.500013,281.58315 c -0.09281,-0.0914 -0.166084,-0.17421 -0.162852,-0.18391 0.01139,-0.0343 0.142679,-0.11632 0.186079,-0.11632 0.05891,0 0.120211,0.0475 0.185354,0.14353 0.07755,0.11436 0.08285,0.15118 0.03418,0.23838 -0.02261,0.0405 -0.04849,0.076 -0.05759,0.0791 -0.009,0.003 -0.09238,-0.0694 -0.185178,-0.16078 z"
       id="path15471"
       inkscape:connector-curvature="0" />
    <path
       style="fill:#ffffff;stroke-width:0.00124598;stroke-miterlimit:4;stroke-dasharray:none"
       d="m 10.041073,282.31365 c -0.07075,-0.0907 -0.2187035,-0.31403 -0.2187035,-0.33013 0,-0.008 0.031702,-0.0449 0.070476,-0.083 l 0.07048,-0.0693 0.1777415,0.17831 0.177741,0.17828 -0.08753,0.0732 c -0.151811,0.12688 -0.135737,0.12244 -0.190257,0.0525 z"
       id="path15473"
       inkscape:connector-curvature="0" />
    <path
       style="fill:#ffffff;stroke-width:0.00124598;stroke-miterlimit:4;stroke-dasharray:none"
       d="m 9.1978513,282.72521 c -0.0088,-0.034 -0.024289,-0.1427 -0.034529,-0.24156 -0.015106,-0.14582 -0.014578,-0.18232 0.00269,-0.19343 0.029673,-0.0188 0.1190712,-0.035 0.1552459,-0.0281 0.016431,0.003 0.091224,0.0958 0.1662599,0.2057 l 0.1364348,0.19995 -0.1658529,0.0595 c -0.2158692,0.0775 -0.2399532,0.0773 -0.2604343,-0.003 z"
       id="path15475"
       inkscape:connector-curvature="0" />
    <path
       style="fill:#ffffff;stroke-width:0.00124598;stroke-miterlimit:4;stroke-dasharray:none"
       d="m 8.3414338,282.89133 c -0.029238,-0.006 -0.036568,-0.0163 -0.029942,-0.0415 0.00445,-0.0183 0.021815,-0.12903 0.037717,-0.24589 l 0.028969,-0.21249 H 8.49089 c 0.07587,0 0.1147082,0.007 0.118833,0.0206 0.01758,0.0591 0.061292,0.4604 0.051229,0.47042 -0.01378,0.0138 -0.2633477,0.0207 -0.3195987,0.009 z"
       id="path15477"
       inkscape:connector-curvature="0" />
    <path
       style="fill:#ffffff;stroke-width:0.00124598;stroke-miterlimit:4;stroke-dasharray:none"
       d="m 7.5255808,282.72981 c -0.080193,-0.0306 -0.1487818,-0.0587 -0.1524912,-0.0624 -0.010157,-0.0103 0.2204612,-0.34469 0.2662811,-0.38626 0.038597,-0.0351 0.042221,-0.0353 0.118303,-0.0103 0.043184,0.0144 0.079835,0.0271 0.081522,0.0282 0.00445,0.003 -0.042656,0.40841 -0.052637,0.45059 -0.012538,0.0532 -0.083728,0.0476 -0.2610171,-0.0202 z"
       id="path15479"
       inkscape:connector-curvature="0" />
    <path
       style="fill:#ffffff;stroke-width:0.00124598;stroke-miterlimit:4;stroke-dasharray:none"
       d="m 6.8381258,282.32945 c -0.031265,-0.0238 -0.083815,-0.067 -0.116722,-0.096 l -0.059792,-0.0526 0.1793575,-0.17879 0.1793488,-0.1788 0.077456,0.0776 0.077544,0.0774 -0.1279737,0.18974 c -0.07039,0.10436 -0.1334408,0.19312 -0.1401265,0.19725 -0.00706,0.004 -0.0378,-0.012 -0.069065,-0.0357 z"
       id="path15481"
       inkscape:connector-curvature="0" />
  </g>
</svg>
