<?xml version="1.0" encoding="UTF-8" standalone="no"?>
<!-- Created with Inkscape (http://www.inkscape.org/) -->

<svg
   xmlns:dc="http://purl.org/dc/elements/1.1/"
   xmlns:cc="http://creativecommons.org/ns#"
   xmlns:rdf="http://www.w3.org/1999/02/22-rdf-syntax-ns#"
   xmlns:svg="http://www.w3.org/2000/svg"
   xmlns="http://www.w3.org/2000/svg"
   xmlns:sodipodi="http://sodipodi.sourceforge.net/DTD/sodipodi-0.dtd"
   xmlns:inkscape="http://www.inkscape.org/namespaces/inkscape"
   width="64"
   height="64"
   viewBox="0 0 16.933333 16.933334"
   version="1.1"
   id="svg8"
   inkscape:version="0.92.5 (2060ec1f9f, 2020-04-08)"
   sodipodi:docname="purge_fridge_64x64.svg">
  <defs
     id="defs2" />
  <sodipodi:namedview
     id="base"
     pagecolor="#ffffff"
     bordercolor="#666666"
     borderopacity="1.0"
     inkscape:pageopacity="0.0"
     inkscape:pageshadow="2"
     inkscape:zoom="22.4"
     inkscape:cx="56.018098"
     inkscape:cy="18.033964"
     inkscape:document-units="mm"
     inkscape:current-layer="layer1"
     showgrid="false"
     units="px"
     inkscape:window-width="1208"
     inkscape:window-height="987"
     inkscape:window-x="1992"
     inkscape:window-y="0"
     inkscape:window-maximized="1" />
  <metadata
     id="metadata5">
    <rdf:RDF>
      <cc:Work
         rdf:about="">
        <dc:format>image/svg+xml</dc:format>
        <dc:type
           rdf:resource="http://purl.org/dc/dcmitype/StillImage" />
        <dc:title />
      </cc:Work>
    </rdf:RDF>
  </metadata>
  <g
     inkscape:label="Layer 1"
     inkscape:groupmode="layer"
     id="layer1"
     transform="translate(0,-280.06665)">
    <path
       style="fill:#000000;stroke-width:0.0291697"
       d="m 1.359588,296.39885 c -0.1377492,-0.0682 -0.2424887,-0.19067 -0.29361,-0.34336 -0.024445,-0.073 -0.033203,-1.91571 -0.033203,-6.98814 0,-7.72609 -0.018809,-7.08648 0.2153805,-7.32068 0.2346029,-0.2346 0.00746,-0.22063 3.5857863,-0.22063 2.35158,0 3.207989,0.009 3.2927074,0.0343 0.1497714,0.0449 0.3680417,0.23912 0.4354559,0.38753 0.046974,0.10338 0.053592,0.20157 0.054152,0.8041 7.228e-4,0.78526 -0.00684,0.81595 -0.2006812,0.81595 -0.075238,0 -0.1282351,-0.0195 -0.1660704,-0.0613 -0.050606,-0.0559 -0.056391,-0.12091 -0.064825,-0.7283 l -0.00921,-0.66697 -0.08779,-0.0739 -0.087777,-0.0739 H 4.8503718 c -3.43938,0 -3.2751644,-0.009 -3.3470545,0.16635 -0.024631,0.0598 -0.031573,0.70495 -0.025987,2.41517 l 0.00759,2.33357 2.3116996,0.007 c 1.2714345,0.004 2.3116983,-0.004 2.3116983,-0.0164 0,-0.0132 -0.039385,-0.0616 -0.087504,-0.10773 -0.1377555,-0.13199 -0.098961,-0.33346 0.072501,-0.3765 0.1061638,-0.0266 0.2032501,0.035 0.4518295,0.28684 l 0.2180427,0.22091 h 0.5476594 c 0.3012147,0 0.5476618,-0.01 0.5476618,-0.0223 0,-0.0124 -0.1675433,-0.18947 -0.3723186,-0.39379 L 7.1138685,286.10562 H 6.7569457 c -0.31803,0 -0.3632796,-0.006 -0.4152618,-0.0583 -0.035641,-0.0356 -0.058344,-0.0973 -0.058344,-0.15831 0,-0.13219 0.1087763,-0.22089 0.2709007,-0.22089 h 0.1171856 l -0.1648736,-0.17286 c -0.1674326,-0.17553 -0.177947,-0.19833 -0.1461824,-0.31689 0.022467,-0.0839 0.1667608,-0.16146 0.2525863,-0.13583 0.035293,0.01 0.133088,0.0862 0.2173149,0.16823 l 0.1531414,0.14907 v -0.11905 c 0,-0.24128 0.2245464,-0.36446 0.3741212,-0.20525 0.057809,0.0616 0.06342,0.0984 0.06342,0.4161 v 0.34857 l 0.3792067,0.37836 0.3792067,0.37837 v -0.50815 -0.50814 L 7.931425,285.28724 c -0.2747671,-0.28077 -0.3020706,-0.35525 -0.1763447,-0.48098 0.095515,-0.0955 0.1967937,-0.0903 0.3183435,0.0165 l 0.1002796,0.0881 0.010077,-0.28022 c 0.00958,-0.26508 0.014543,-0.28399 0.09197,-0.35056 0.1002797,-0.0862 0.1642094,-0.0886 0.2642601,-0.01 0.073807,0.0581 0.076855,0.0719 0.076855,0.35004 0,0.15927 0.010699,0.28958 0.023711,0.28958 0.01305,0 0.061442,-0.0394 0.1075572,-0.0876 0.1319783,-0.13775 0.3334582,-0.0989 0.376491,0.0724 0.026647,0.10612 -0.034994,0.20326 -0.2868439,0.45184 l -0.2209114,0.21804 v 0.48933 c 0,0.26913 0.010077,0.48932 0.022293,0.48932 0.012316,0 0.1894702,-0.16754 0.3937915,-0.37231 l 0.3714925,-0.37233 v -0.35579 c 0,-0.32843 0.00485,-0.36035 0.063843,-0.41525 0.1506161,-0.14033 0.3445349,-0.0343 0.3445349,0.18846 0,0.0721 0.00883,0.13127 0.019543,0.13127 0.010699,0 0.1079179,-0.0853 0.2159367,-0.18962 0.21679,-0.20928 0.324827,-0.24186 0.435425,-0.13125 0.110592,0.11059 0.07802,0.21864 -0.131263,0.43543 -0.104286,0.10798 -0.189604,0.20517 -0.189604,0.21593 0,0.0112 0.05908,0.0195 0.131263,0.0195 0.227234,0 0.332796,0.20182 0.180432,0.34497 -0.06154,0.0578 -0.09834,0.0634 -0.41609,0.0634 H 9.7098841 l -0.3714926,0.37231 c -0.2043212,0.20477 -0.3714926,0.38198 -0.3714926,0.39379 0,0.0112 0.2201948,0.0215 0.4893228,0.0215 h 0.4893227 l 0.2180426,-0.22091 c 0.248579,-0.25185 0.345671,-0.31349 0.451829,-0.28684 0.171456,0.043 0.210252,0.24451 0.0725,0.37648 -0.04813,0.0462 -0.0875,0.0945 -0.0875,0.10761 0,0.0131 0.130311,0.0236 0.289579,0.0236 0.278095,0 0.291978,0.002 0.350037,0.0769 0.07627,0.0969 0.07627,0.1577 0,0.25466 -0.05806,0.0738 -0.07194,0.0769 -0.350037,0.0769 -0.159268,0 -0.289579,0.009 -0.289579,0.018 0,0.01 0.03938,0.0629 0.0875,0.11768 0.107234,0.12216 0.11119,0.22245 0.01265,0.32099 -0.120458,0.12042 -0.217774,0.0805 -0.509114,-0.20944 L 9.942937,287.30163 H 9.4549217 c -0.2684089,0 -0.4880165,0.01 -0.4880165,0.0223 0,0.0124 0.1675445,0.18948 0.3723198,0.3938 l 0.3723186,0.37148 H 10.06635 c 0.348559,0 0.355872,8.5e-4 0.415263,0.0769 0.136671,0.17374 0.01509,0.36069 -0.234577,0.36069 h -0.09375 l 0.19439,0.20134 c 0.154557,0.16011 0.194389,0.21988 0.194389,0.29171 0,0.11905 -0.09027,0.20703 -0.212324,0.20703 -0.07899,0 -0.128354,-0.033 -0.283561,-0.18961 -0.1033526,-0.10425 -0.1981437,-0.18961 -0.2106386,-0.18961 -0.01249,0 -0.022716,0.0591 -0.022716,0.13126 0,0.15779 -0.074255,0.24796 -0.2041881,0.24796 -0.048616,0 -0.1134413,-0.0259 -0.145849,-0.0583 -0.052,-0.052 -0.058344,-0.0973 -0.058344,-0.41609 v -0.35776 l -0.3723199,-0.37149 c -0.2047753,-0.20432 -0.3819808,-0.37149 -0.3937902,-0.37149 -0.011818,0 -0.021472,0.24646 -0.021472,0.54765 v 0.54768 l 0.2209101,0.21804 c 0.2518499,0.24858 0.3134894,0.34567 0.2868451,0.45182 -0.04303,0.17146 -0.2445139,0.21025 -0.3764922,0.0724 -0.046115,-0.048 -0.094507,-0.0874 -0.1075447,-0.0874 -0.01305,0 -0.023711,1.49026 -0.023711,3.31169 0,3.61925 0.00995,3.41296 -0.1730332,3.5911 -0.1341093,0.13057 -0.2879523,0.16436 -0.6924435,0.15209 -0.5181128,-0.0157 -0.5606754,-0.0506 -0.8132207,-0.66673 l -0.1494554,-0.3646 -1.5143014,-0.0146 c -0.8328661,-0.007 -1.5382785,-0.0261 -1.5675824,-0.0404 -0.053766,-0.0261 -0.107159,-0.13108 -0.107159,-0.21073 0,-0.0238 0.03222,-0.0754 0.071593,-0.11482 l 0.071605,-0.0717 h 2.2182222 2.2182233 v -2.78874 -2.78872 l -0.1031035,0.0906 c -0.1242767,0.1091 -0.2250564,0.11507 -0.3211774,0.0189 -0.1257259,-0.12571 -0.098426,-0.20019 0.1763435,-0.48098 l 0.2479437,-0.25338 v -0.56648 -0.5665 l -0.3792067,0.37836 -0.3792067,0.37837 v 0.35266 c 0,0.33092 -0.00423,0.35659 -0.067512,0.4161 -0.1576584,0.1481 -0.3700334,0.029 -0.3700334,-0.20749 v -0.11718 l -0.1763882,0.16825 c -0.1589659,0.15162 -0.1856175,0.16646 -0.2698196,0.1502 -0.05139,-0.01 -0.1164021,-0.0457 -0.1444794,-0.0796 -0.089133,-0.10735 -0.063656,-0.19197 0.113827,-0.37805 l 0.1648745,-0.17299 H 6.5542069 c -0.237387,0 -0.3642462,-0.23163 -0.2070618,-0.37807 0.056938,-0.0531 0.1019218,-0.0595 0.4160891,-0.0595 h 0.3522502 l 0.3714926,-0.37234 c 0.2043212,-0.20477 0.3714938,-0.38197 0.3714938,-0.39379 0,-0.0112 -0.2458599,-0.0215 -0.5463556,-0.0215 H 6.7657608 l -0.2485209,0.24726 c -0.2913385,0.28988 -0.388655,0.32991 -0.5091125,0.20945 -0.1028174,-0.10288 -0.098289,-0.21915 0.012652,-0.32545 0.048131,-0.0462 0.087504,-0.0945 0.087504,-0.10774 0,-0.0132 -1.0402651,-0.0205 -2.3116996,-0.0164 l -2.3116995,0.007 -0.00746,3.82851 -0.00746,3.82853 h 0.6723354 0.6723378 l 0.071593,0.0717 c 0.039385,0.0393 0.071605,0.0972 0.071605,0.12853 0,0.0955 -0.3678514,0.97071 -0.4527787,1.07715 -0.1330594,0.16676 -0.268078,0.20901 -0.6702553,0.20972 -0.2990415,5.3e-4 -0.368293,-0.009 -0.4753576,-0.0615 z m 0.8226517,-0.4411 c 0.038452,-0.0596 0.2215159,-0.50014 0.2215159,-0.5331 0,-0.007 -0.2100213,-0.0138 -0.4667154,-0.0138 H 1.4703249 v 0.24985 c 0,0.36393 -0.00123,0.36271 0.3649752,0.36271 0.2838682,0 0.3074646,-0.004 0.3469396,-0.0656 z m 5.9621147,0.0306 c 0.022206,-0.0221 0.035006,-0.13418 0.035006,-0.30627 V 295.4108 H 7.7140549 7.2487515 l 0.118293,0.28439 c 0.065062,0.15643 0.1333367,0.29406 0.1517282,0.30584 0.057274,0.0367 0.5869402,0.026 0.6255854,-0.0127 z m -5.5218259,-4.6359 c -0.1216518,-0.068 -0.131263,-0.10848 -0.131263,-0.55245 v -0.42844 l -0.088685,-0.0367 c -0.1171111,-0.0485 -0.2727741,-0.23361 -0.3150133,-0.3746 -0.021845,-0.0729 -0.03385,-0.37636 -0.03385,-0.85549 v -0.7425 l 0.080214,-0.15819 c 0.1052433,-0.20755 0.2598016,-0.31615 0.4826486,-0.33915 0.2187891,-0.0226 0.388283,0.0425 0.5403272,0.20745 0.1690249,0.18337 0.1876005,0.3039 0.1756754,1.13992 -0.00958,0.66965 -0.013037,0.70626 -0.080015,0.84233 -0.043851,0.0891 -0.1174471,0.17568 -0.1968958,0.23169 L 2.9288,290.37572 v 0.42869 c 0,0.36586 -0.00746,0.43755 -0.051054,0.48903 -0.063706,0.0754 -0.1785963,0.10189 -0.2552348,0.059 z m 0.1779445,-1.41867 c 0.086471,-0.0577 0.099173,-0.16247 0.099173,-0.81775 0,-0.63252 -0.00323,-0.67306 -0.060459,-0.74575 -0.073969,-0.094 -0.2056436,-0.1025 -0.2895808,-0.0185 -0.055135,0.0551 -0.058344,0.0973 -0.058344,0.76651 0,0.79477 0.00958,0.83821 0.1839655,0.83738 0.051228,-2e-4 0.1075944,-0.01 0.1252432,-0.0219 z m -0.2362836,-3.88389 c -0.2255913,-0.0566 -0.4252251,-0.23637 -0.4795461,-0.43198 -0.017665,-0.0637 -0.030665,-0.42619 -0.030764,-0.85797 l -1.642e-4,-0.7478 0.081508,-0.15601 c 0.2042938,-0.39107 0.6941254,-0.46068 1.0024036,-0.14248 0.1894404,0.19554 0.2064074,0.29804 0.1945246,1.17518 -0.00896,0.66601 -0.013311,0.71339 -0.074927,0.82869 -0.1317917,0.24658 -0.4418949,0.39531 -0.6930406,0.33237 z m 0.277112,-0.48673 c 0.036002,-0.0352 0.045294,-0.16819 0.05246,-0.75076 0.00846,-0.68404 0.00659,-0.7106 -0.053169,-0.7866 -0.075375,-0.0958 -0.2063353,-0.10499 -0.2909927,-0.0203 -0.055222,0.0552 -0.058344,0.0973 -0.058344,0.78547 v 0.72712 l 0.078957,0.0621 c 0.085625,0.0674 0.1916721,0.0607 0.2710823,-0.017 z"
       id="path5079"
       inkscape:connector-curvature="0" />
    <path
       style="fill:none;stroke:#000000;stroke-width:0.00262186;stroke-linecap:butt;stroke-linejoin:miter;stroke-miterlimit:4;stroke-dasharray:none;stroke-opacity:1"
       d="m 2.8147828,294.97321 0.9281275,2e-5"
       id="path5081"
       inkscape:connector-curvature="0" />
    <path
       style="fill:none;stroke:#000000;stroke-width:0.00262186;stroke-linecap:butt;stroke-linejoin:miter;stroke-miterlimit:4;stroke-dasharray:none;stroke-opacity:1"
       d="m 8.2424023,283.26358 -0.068719,1.64721"
       id="path5083"
       inkscape:connector-curvature="0"
       sodipodi:nodetypes="cc" />
    <path
       style="fill:#ffffff;stroke-width:0.00093638;stroke-miterlimit:4;stroke-dasharray:none"
       d="m 1.5272122,295.96626 c -0.030478,-0.0305 -0.038925,-0.0958 -0.038925,-0.30084 v -0.2619 l 0.4397389,0.0179 c 0.2418568,0.01 0.4434935,0.0218 0.4480814,0.0264 0.012067,0.0124 -0.1599648,0.42791 -0.2060218,0.49819 -0.037146,0.0567 -0.050768,0.0592 -0.3213627,0.0592 -0.223851,0 -0.290663,-0.009 -0.3215045,-0.0389 z"
       id="path5087"
       inkscape:connector-curvature="0" />
    <path
       style="fill:#ffffff;stroke-width:0.00093638;stroke-miterlimit:4;stroke-dasharray:none"
       d="m 7.516271,295.9762 c -0.02391,-0.0299 -0.1127571,-0.22548 -0.2146055,-0.4727 l -0.038278,-0.0929 h 0.4607852 0.4607851 l -0.014505,0.27505 c -0.00796,0.1513 -0.021695,0.28229 -0.030478,0.29113 -0.00883,0.009 -0.1467571,0.0198 -0.3066087,0.0242 -0.2198664,0.006 -0.2970784,1.5e-4 -0.3170896,-0.0247 z"
       id="path5089"
       inkscape:connector-curvature="0" />
    <path
       style="fill:#ffffff;stroke-width:0.00093638;stroke-miterlimit:4;stroke-dasharray:none"
       d="m 1.4882797,291.15306 v -3.81159 l 1.6460881,-0.0179 c 1.4784752,-0.0162 2.9372937,-0.001 2.9372937,0.0294 0,0.006 -0.033451,0.0498 -0.07433,0.0963 -0.097904,0.11147 -0.098513,0.2112 -0.00187,0.30782 0.039895,0.0398 0.099172,0.0724 0.1320144,0.0724 0.086172,0 0.2519568,-0.11905 0.4638715,-0.33317 l 0.1851921,-0.18711 0.4713468,0.002 c 0.2592393,8.4e-4 0.4966188,0.01 0.5275101,0.0187 0.050594,0.0144 0.019867,0.0523 -0.3096889,0.38012 l -0.3658522,0.364 -0.3552496,0.007 c -0.3545442,0.007 -0.3553677,0.007 -0.4149807,0.0771 -0.1249944,0.14547 -0.030515,0.33953 0.1828447,0.37557 l 0.1037504,0.0175 -0.1360039,0.16031 c -0.1749601,0.20623 -0.1862221,0.34041 -0.035131,0.41855 0.1206565,0.0623 0.1828546,0.045 0.349017,-0.0977 l 0.1559678,-0.13389 0.02906,0.11445 c 0.031287,0.12328 0.1276367,0.22764 0.2100437,0.22764 0.080935,0 0.1960423,-0.0723 0.2214276,-0.13907 0.013037,-0.0343 0.023711,-0.2039 0.023711,-0.37693 v -0.31459 l 0.3716257,-0.371 0.3716257,-0.371 v 0.54551 0.54553 l -0.1513948,0.14787 c -0.3355743,0.32777 -0.3992378,0.45511 -0.2942545,0.58858 0.09498,0.12079 0.2292599,0.11109 0.3775173,-0.0271 l 0.068135,-0.0636 v 2.77944 2.77945 H 4.832938 1.488308 Z m 1.3638073,0.17367 c 0.071518,-0.058 0.093711,-0.20612 0.096112,-0.64198 9.989e-4,-0.18054 0.011445,-0.32827 0.023101,-0.32827 0.056739,0 0.2498632,-0.20869 0.3029103,-0.32732 0.057461,-0.12851 0.058593,-0.14568 0.05919,-0.89904 5.535e-4,-0.72793 -0.00211,-0.77385 -0.051204,-0.87951 C 3.1661675,288.001 2.952959,287.8542 2.7064621,287.8542 c -0.2819686,0 -0.4571302,0.1096 -0.59816,0.37416 l -0.08259,0.15497 0.014542,0.76249 c 0.012925,0.67694 0.019854,0.77444 0.061827,0.86889 0.063867,0.14372 0.1658502,0.25974 0.2791559,0.31754 l 0.093923,0.0479 0.00821,0.43216 c 0.00796,0.41782 0.010201,0.4343 0.068309,0.49606 0.073434,0.0781 0.2158196,0.0868 0.3003563,0.0184 z"
       id="path5091"
       inkscape:connector-curvature="0" />
    <path
       style="fill:#ffffff;stroke-width:0.00093638;stroke-miterlimit:4;stroke-dasharray:none"
       d="m 6.591317,286.69926 c -0.2069897,-0.2109 -0.3760046,-0.33155 -0.4644749,-0.33155 -0.032718,0 -0.092617,0.0336 -0.1344663,0.0755 -0.064738,0.0648 -0.073409,0.0882 -0.060956,0.16491 0.00796,0.0491 0.042806,0.11893 0.077377,0.15505 0.034571,0.0361 0.062872,0.0734 0.062872,0.0829 0,0.01 -1.0316366,0.0173 -2.2925232,0.0173 H 1.4866214 l 0.00709,-2.35982 c 0.00386,-1.30442 0.016844,-2.38005 0.028985,-2.40507 0.012067,-0.0249 0.051104,-0.0583 0.086708,-0.0744 0.04818,-0.0217 0.8761888,-0.0309 3.2366709,-0.0361 l 3.1719178,-0.006 0.073621,0.0768 0.073621,0.0768 0.018138,0.64877 c 0.00995,0.35682 0.021136,0.68777 0.024781,0.73547 0.011196,0.14603 -0.035031,1.28028 -0.053368,1.30994 -0.011694,0.0189 -0.044324,0.007 -0.1011007,-0.0341 -0.1133543,-0.0836 -0.2201451,-0.081 -0.3049978,0.007 -0.1165264,0.12166 -0.095179,0.19102 0.1398367,0.45462 0.1135284,0.12735 0.2250116,0.24684 0.2477497,0.26554 0.036051,0.0296 0.041351,0.0963 0.041351,0.51997 v 0.48596 l -0.369379,-0.36876 -0.3693803,-0.36878 -0.00846,-0.35776 c -0.00846,-0.35686 -0.00858,-0.35792 -0.07795,-0.41753 -0.1450429,-0.1247 -0.3448671,-0.0275 -0.378734,0.18436 l -0.01611,0.10077 -0.1594411,-0.13526 c -0.1840165,-0.15612 -0.2597431,-0.17038 -0.3776952,-0.0712 -0.1205695,0.10138 -0.1064624,0.19465 0.058506,0.38631 l 0.1347338,0.15654 -0.1100203,0.0214 c -0.2071937,0.0401 -0.2972177,0.23659 -0.1740395,0.37994 0.059613,0.0694 0.060434,0.0695 0.4149819,0.0771 l 0.3552495,0.007 0.3659033,0.36401 0.3659045,0.36401 -0.093376,0.017 c -0.051353,0.01 -0.2887609,0.0178 -0.5275611,0.0187 l -0.4341832,0.001 z m -3.7146845,-0.65685 c 0.1459274,-0.0437 0.3227734,-0.1921 0.3940092,-0.33058 l 0.063382,-0.12316 v -0.7563 c 0,-0.84042 -0.011445,-0.92376 -0.1488844,-1.08433 -0.044598,-0.0521 -0.1352575,-0.12391 -0.201465,-0.15947 -0.3359673,-0.18068 -0.6773686,-0.0648 -0.8780249,0.29784 l -0.077514,0.1401 0.014182,0.77854 c 0.014045,0.77113 0.014791,0.77976 0.077539,0.908 0.1334064,0.27268 0.4647548,0.41691 0.756775,0.32941 z"
       id="path5093"
       inkscape:connector-curvature="0" />
    <path
       style="fill:#ffffff;stroke-width:0.00093638;stroke-miterlimit:4;stroke-dasharray:none"
       d="m 2.6027699,285.57813 -0.086322,-0.0463 v -0.73152 c 0,-0.6846 0.00299,-0.73486 0.047198,-0.78365 0.064328,-0.071 0.1753421,-0.0672 0.2512304,0.009 l 0.060807,0.0608 -2.774e-4,0.63907 c -3.471e-4,0.76148 -0.00647,0.81433 -0.101026,0.86321 -0.08519,0.044 -0.06847,0.045 -0.1716175,-0.01 z"
       id="path5095"
       inkscape:connector-curvature="0" />
    <path
       style="fill:#ffffff;stroke-width:0.00093638;stroke-miterlimit:4;stroke-dasharray:none"
       d="m 2.5482847,289.87956 c -0.041587,-0.0728 -0.060608,-1.35966 -0.021621,-1.46222 0.031983,-0.0841 0.138472,-0.13076 0.2169343,-0.095 0.127567,0.0582 0.1339923,0.096 0.1338841,0.79127 -1.381e-4,0.78113 -0.00933,0.82171 -0.1854795,0.82171 -0.090079,0 -0.1180814,-0.0112 -0.1437205,-0.0557 z"
       id="path5097"
       inkscape:connector-curvature="0" />
    <path
       style="fill:#000000;stroke-width:0.01308594"
       d="m 14.226318,284.45876 c -0.033,-0.029 -0.07573,-0.085 -0.09497,-0.1243 -0.02944,-0.0602 -0.03414,-0.0845 -0.02972,-0.15394 0.0067,-0.10464 0.04478,-0.18332 0.175623,-0.36251 0.05518,-0.0756 0.114889,-0.16866 0.132684,-0.20687 0.04821,-0.10352 0.03672,-0.1399 -0.07609,-0.2409 -0.117316,-0.10504 -0.163013,-0.19091 -0.149904,-0.28169 0.01152,-0.0798 0.0565,-0.17262 0.131586,-0.27161 0.105559,-0.13916 0.162607,-0.23111 0.170939,-0.27552 0.01322,-0.0705 -0.01762,-0.13637 -0.101236,-0.21618 -0.08057,-0.0769 -0.09273,-0.11107 -0.05249,-0.14749 0.03951,-0.0358 0.07484,-0.0251 0.152504,0.0458 0.09849,0.09 0.14286,0.17656 0.143185,0.27928 3.28e-4,0.10232 -0.0373,0.18281 -0.165157,0.35332 -0.181652,0.24224 -0.183318,0.25948 -0.0385,0.3985 0.122118,0.11723 0.149612,0.16507 0.150786,0.26233 0.0011,0.0932 -0.04736,0.19683 -0.174413,0.37295 -0.121614,0.16859 -0.157788,0.23978 -0.157679,0.31036 1.04e-4,0.0644 0.02754,0.11257 0.09644,0.16936 0.05166,0.0426 0.06144,0.0867 0.02686,0.1213 -0.03366,0.0337 -0.07682,0.0238 -0.140433,-0.0322 z m -1.72339,-0.17747 c -0.08348,-0.0781 -0.117762,-0.14935 -0.117762,-0.24481 0,-0.0949 0.033,-0.18093 0.112382,-0.29294 0.268025,-0.37824 0.274385,-0.40811 0.116418,-0.5468 -0.104287,-0.0916 -0.137985,-0.14566 -0.146478,-0.23516 -0.0088,-0.0931 0.02719,-0.17187 0.159336,-0.3486 0.110293,-0.1475 0.130336,-0.18153 0.143831,-0.24419 0.01428,-0.0663 -0.01326,-0.12407 -0.09799,-0.20546 -0.08413,-0.0808 -0.09638,-0.11751 -0.05247,-0.15724 0.03756,-0.034 0.08009,-0.0176 0.161975,0.0623 0.09603,0.0938 0.13083,0.16443 0.13112,0.26629 2.66e-4,0.0949 -0.04515,0.19809 -0.143145,0.32522 -0.10995,0.14264 -0.162511,0.23115 -0.16246,0.27356 6.4e-5,0.0547 0.03613,0.11009 0.107103,0.16458 0.125703,0.0965 0.168428,0.20324 0.134101,0.33503 -0.02234,0.0858 -0.05912,0.15007 -0.175965,0.30767 -0.103807,0.14 -0.143804,0.21979 -0.143804,0.28685 0,0.068 0.02301,0.1119 0.09028,0.17222 0.0554,0.0497 0.06339,0.0728 0.04012,0.11632 -0.02452,0.0458 -0.08464,0.0324 -0.156582,-0.0348 z m 0.988,-0.39706 c -0.04532,-0.0184 -0.14513,-0.13637 -0.169575,-0.20038 -0.05066,-0.13264 -0.01095,-0.25279 0.163223,-0.49396 0.120913,-0.16743 0.156128,-0.23451 0.156553,-0.29825 2.5e-4,-0.037 -0.01602,-0.0592 -0.115062,-0.15703 -0.09379,-0.0927 -0.118539,-0.12548 -0.132414,-0.1756 -0.03077,-0.11114 0.0057,-0.20723 0.150725,-0.39733 0.189316,-0.24812 0.194884,-0.3133 0.03941,-0.46137 -0.07542,-0.0718 -0.08585,-0.0977 -0.05586,-0.13876 0.05882,-0.0804 0.253556,0.0811 0.298356,0.24743 0.03118,0.11579 -0.01112,0.22886 -0.15939,0.42607 -0.140101,0.18634 -0.162547,0.23973 -0.128095,0.30467 0.0083,0.0157 0.0604,0.0727 0.115692,0.12673 0.07931,0.0774 0.103839,0.11057 0.116223,0.15703 0.0317,0.11893 -0.0151,0.24114 -0.175421,0.45801 -0.04523,0.0612 -0.09751,0.14008 -0.1162,0.17534 -0.06018,0.11356 -0.03882,0.21154 0.06306,0.28925 0.05633,0.043 0.06385,0.0978 0.01783,0.13008 -0.03257,0.0228 -0.03275,0.0228 -0.06906,0.008 z m -2.013204,-0.43785 c -0.101844,-0.0379 -0.149742,-0.1207 -0.107291,-0.18548 0.0201,-0.0307 0.01976,-0.0349 -0.0057,-0.0706 -0.05853,-0.0822 -0.08391,-0.2184 -0.04896,-0.26275 0.0534,-0.0678 0.161586,-0.0865 0.222604,-0.0385 0.04117,0.0324 0.05985,0.0875 0.06342,0.18703 0.0021,0.0597 0.0081,0.0789 0.02775,0.0894 0.01376,0.007 0.02893,0.009 0.03372,0.005 0.01706,-0.0171 0.0062,-0.1836 -0.01529,-0.23362 -0.0119,-0.0278 -0.01839,-0.0557 -0.01441,-0.0622 0.004,-0.006 0.03073,-0.0117 0.05945,-0.0117 0.154803,0 0.2032,0.12534 0.108878,0.28198 -0.04601,0.0764 -0.04641,0.0783 -0.02574,0.12162 0.0195,0.0409 0.01933,0.0474 -0.0023,0.0914 -0.01283,0.026 -0.04223,0.0582 -0.06532,0.0715 -0.05644,0.0325 -0.167446,0.0407 -0.230783,0.0172 z m 3.616239,-1.25264 c -0.08631,-0.0344 -0.127267,-0.10738 -0.09868,-0.17579 0.01815,-0.0435 0.01724,-0.048 -0.02222,-0.11148 -0.03013,-0.0485 -0.04254,-0.0861 -0.04636,-0.14056 -0.0048,-0.0687 -0.0023,-0.0772 0.03375,-0.1114 0.07741,-0.0735 0.199652,-0.0561 0.242704,0.0346 0.01162,0.0245 0.02504,0.0866 0.02982,0.13798 0.0082,0.0886 0.01037,0.0935 0.0414,0.0935 0.03252,0 0.03267,-4.7e-4 0.02438,-0.0897 -0.0046,-0.0493 -0.01732,-0.11518 -0.0283,-0.14629 -0.0226,-0.0641 -0.01388,-0.0775 0.05053,-0.0779 0.05904,-3.1e-4 0.122194,0.0367 0.145154,0.0851 0.02658,0.056 0.01236,0.12738 -0.04316,0.2167 -0.03767,0.0606 -0.0386,0.0655 -0.01979,0.10317 0.03229,0.0647 -0.0091,0.14177 -0.09616,0.17886 -0.0484,0.0206 -0.16502,0.0224 -0.21306,0.003 z m -2.482197,-0.92675 c -0.0821,-0.0373 -0.117856,-0.12037 -0.07693,-0.17879 0.01698,-0.0242 0.01519,-0.0323 -0.01837,-0.083 -0.05015,-0.0757 -0.07278,-0.15986 -0.05743,-0.2134 0.02541,-0.0886 0.1592,-0.13137 0.231967,-0.0741 0.0507,0.0399 0.06319,0.0713 0.07215,0.18135 0.0073,0.0898 0.01078,0.0994 0.03749,0.10316 0.02791,0.004 0.02942,-1.5e-4 0.02902,-0.0785 -2.35e-4,-0.0455 -0.01114,-0.11372 -0.02424,-0.15164 l -0.02381,-0.0689 0.03149,-0.008 c 0.05767,-0.0145 0.126292,0.005 0.164204,0.0474 0.05107,0.0566 0.04818,0.11898 -0.01073,0.23157 -0.03677,0.0703 -0.04373,0.0941 -0.03271,0.11201 0.02048,0.0333 0.01709,0.0914 -0.0074,0.12627 -0.052,0.0742 -0.210778,0.10177 -0.314732,0.0546 z"
       id="path5164"
       inkscape:connector-curvature="0" />
    <path
       style="fill:#000000;stroke-width:0.00858405"
       d="m 16.200579,284.70417 c 0.06436,0.11121 0.173849,0.52347 0.226117,0.85132 0.106285,0.6662 0.05832,1.38501 -0.135992,2.0381 -0.07204,0.24213 -0.210364,0.58981 -0.295645,0.7431 -0.13527,0.24315 -0.444786,0.31839 -0.674573,0.16395 -0.08419,-0.0565 -0.162998,-0.16773 -0.188517,-0.26573 l -0.01133,-0.044 -0.406067,-0.22636 c -1.515185,-0.84466 -2.899156,-1.61871 -2.912415,-1.6289 -0.03553,-0.0273 -0.0367,-0.0962 -0.0021,-0.12641 0.0065,-0.006 0.81237,-0.33894 1.790872,-0.74052 l 1.779082,-0.73019 0.01996,-0.0358 c 0.02731,-0.0489 0.127537,-0.14575 0.180076,-0.17394 0.221258,-0.11876 0.506336,-0.0394 0.630567,0.17541 z m -0.285927,-0.0357 c -0.06129,-0.0256 -0.131173,-0.0315 -0.194885,-0.0162 -0.04479,0.0107 -0.05643,0.0177 -0.114449,0.0685 -0.05557,0.0486 -0.06709,0.0628 -0.08306,0.10061 -0.02791,0.0667 -0.02996,0.15497 -0.0053,0.22768 0.211739,0.62511 0.255036,1.34963 0.119638,2.00176 -0.06367,0.30666 -0.181305,0.65099 -0.313668,0.91818 -0.03864,0.078 -0.04609,0.17261 -0.01917,0.24439 0.0272,0.0725 0.0998,0.14826 0.168209,0.17536 0.06275,0.0249 0.134254,0.0287 0.197385,0.0106 0.04308,-0.0128 0.06022,-0.0227 0.106222,-0.063 0.06488,-0.0571 0.07721,-0.0793 0.183789,-0.33088 0.412496,-0.97372 0.465876,-2.01633 0.155778,-3.04247 -0.04358,-0.14399 -0.06006,-0.17878 -0.109257,-0.2297 -0.03083,-0.0327 -0.05588,-0.0498 -0.09115,-0.0646 z m 0.0018,2.68322 c 0.03062,0.0851 -0.08338,0.15097 -0.143155,0.0827 -0.05849,-0.0668 0.01929,-0.16818 0.09901,-0.12909 0.03245,0.0159 0.03363,0.0172 0.04404,0.0464 z m -0.0728,0.27876 c -0.0084,0.0782 -0.191348,0.50008 -0.232432,0.53603 -0.04523,0.0396 -0.11384,0.0175 -0.130581,-0.042 -0.0073,-0.0261 -0.0037,-0.0431 0.02007,-0.0929 0.016,-0.0335 0.06566,-0.15093 0.110396,-0.26098 0.04667,-0.11481 0.08917,-0.20691 0.09972,-0.21615 0.02898,-0.0253 0.08355,-0.0177 0.11278,0.0156 0.01876,0.0215 0.02288,0.0339 0.02005,0.0604 z m -1.151153,-2.42921 c -0.345572,0.14199 -0.630176,0.25972 -0.632413,0.26167 -0.0024,0.003 8.39e-4,0.0759 0.0068,0.16455 0.0068,0.10005 0.0066,0.16972 -5.34e-4,0.18406 -0.02592,0.0525 -0.09846,0.0617 -0.137226,0.0173 -0.0188,-0.0215 -0.02297,-0.0427 -0.03027,-0.15484 -0.0046,-0.0714 -0.01056,-0.13221 -0.01304,-0.13505 -0.0037,-0.004 -0.436646,0.17007 -0.470946,0.18949 -0.006,0.003 -0.0024,0.0233 0.01049,0.0528 0.01139,0.0258 0.02425,0.066 0.02866,0.0892 0.01,0.0523 6.87e-4,0.15795 -0.01805,0.20475 -0.09097,0.22736 -0.352727,0.31933 -0.56224,0.19761 -0.06808,-0.0396 -0.133482,-0.11389 -0.161265,-0.18345 -0.01118,-0.0279 -0.02177,-0.0537 -0.02351,-0.0575 -0.0035,-0.008 -0.619985,0.24372 -0.620592,0.25313 -3.3e-4,0.004 1.018279,0.57844 1.038583,0.58468 0.0035,0.002 0.01769,-0.0202 0.03136,-0.0474 0.01367,-0.0272 0.03083,-0.0546 0.03823,-0.0611 0.03419,-0.0299 0.0921,-0.0248 0.123603,0.0113 0.02168,0.0247 0.01707,0.0771 -0.01142,0.13004 -0.01442,0.0268 -0.02322,0.0519 -0.01968,0.056 0.0062,0.007 0.922968,0.52144 0.963985,0.54089 l 0.01923,0.009 0.0152,-0.0382 c 0.08549,-0.21459 0.348167,-0.30514 0.549876,-0.18952 0.09555,0.0548 0.153735,0.13152 0.18304,0.24128 0.02925,0.10953 0.0031,0.24946 -0.06085,0.32651 -0.01269,0.0151 -0.02084,0.0301 -0.01826,0.033 0.0036,0.004 0.118878,0.0703 0.194037,0.11125 0.01061,0.006 0.02707,-0.029 0.142358,-0.30044 0.163019,-0.38387 0.249262,-0.74913 0.277615,-1.17576 0.03208,-0.48274 -0.01754,-0.88367 -0.171657,-1.38714 -0.01771,-0.0579 -0.0337,-0.12351 -0.03543,-0.14575 -0.0018,-0.0222 -0.0041,-0.0404 -0.0052,-0.0405 -0.0013,-2.1e-4 -0.284829,0.11603 -0.630401,0.25802 z m 0.486711,0.54573 c 0.08221,0.16764 0.03667,0.37222 -0.107163,0.48126 -0.09559,0.0725 -0.202039,0.098 -0.313764,0.0752 -0.291026,-0.0592 -0.412318,-0.39484 -0.226622,-0.6269 0.09866,-0.12328 0.284894,-0.17418 0.434928,-0.11883 0.08817,0.0325 0.172598,0.10766 0.212651,0.18919 z m -0.263194,-0.024 c -0.08152,-0.0322 -0.159965,-0.0188 -0.225437,0.0386 -0.05145,0.0451 -0.0716,0.0861 -0.0745,0.15198 -0.0102,0.23028 0.291887,0.31433 0.407786,0.11347 0.02648,-0.0459 0.03328,-0.1305 0.01443,-0.17968 -0.01828,-0.0477 -0.07543,-0.10591 -0.122324,-0.12434 z m 0.408569,0.80191 c 0.0075,0.0334 -0.0062,0.0573 -0.08459,0.14714 -0.06044,0.0692 -0.06933,0.077 -0.09496,0.0834 -0.03558,0.009 -0.05731,6.9e-4 -0.08585,-0.0319 -0.03751,-0.0428 -0.02708,-0.0735 0.05851,-0.17132 0.07849,-0.0897 0.09561,-0.10078 0.143118,-0.0919 0.03341,0.006 0.05574,0.0288 0.06347,0.0648 z m -0.487634,0.30095 c 0.08147,0.12487 0.09015,0.15042 0.06508,0.19293 -0.01938,0.0329 -0.05019,0.0441 -0.09459,0.0345 l -0.02888,-0.006 -0.08435,-0.12533 c -0.04641,-0.0689 -0.08754,-0.1359 -0.09142,-0.1488 -0.0081,-0.0269 0.005,-0.0666 0.02882,-0.0873 0.02414,-0.0211 0.08242,-0.0173 0.10923,0.007 0.0121,0.0113 0.0556,0.0712 0.09616,0.13344 z m -0.499624,-0.42997 c 0.08349,0.12564 0.087,0.27995 0.0094,0.41363 -0.02406,0.0415 -0.04067,0.0597 -0.09289,0.10186 -0.05641,0.0453 -0.0715,0.0535 -0.132643,0.0709 -0.08998,0.0251 -0.171954,0.0201 -0.26142,-0.017 -0.06723,-0.0278 -0.06923,-0.0295 -0.133814,-0.10324 -0.06459,-0.0738 -0.06588,-0.076 -0.0846,-0.14626 -0.02439,-0.0918 -0.01922,-0.17094 0.0169,-0.25815 0.02492,-0.0601 0.03417,-0.0735 0.08537,-0.12232 0.04179,-0.0399 0.07036,-0.0609 0.105079,-0.0772 0.174395,-0.0817 0.381663,-0.0232 0.488645,0.13782 z m -0.245154,0.0127 c -0.07415,-0.032 -0.156817,-0.0171 -0.22136,0.04 -0.04556,0.0403 -0.06726,0.0829 -0.07257,0.14261 -0.0057,0.0644 0.0096,0.10976 0.05395,0.16043 0.04436,0.0507 0.08734,0.0718 0.151903,0.0747 0.05968,0.003 0.10716,-0.0138 0.151475,-0.0526 0.07898,-0.0695 0.09801,-0.16697 0.05136,-0.26329 -0.02209,-0.0458 -0.05706,-0.0767 -0.114693,-0.10151 z m 0.648188,1.02675 c -0.05117,-0.0323 -0.124943,-0.0406 -0.185752,-0.021 -0.06148,0.0199 -0.114846,0.0731 -0.135458,0.13489 -0.0079,0.0236 -0.01259,0.0448 -0.01051,0.0472 0.0019,0.002 0.08204,0.0481 0.177636,0.10189 l 0.173836,0.0975 0.02724,-0.03 c 0.05544,-0.0613 0.07124,-0.15929 0.03779,-0.23418 -0.02194,-0.0492 -0.03693,-0.0661 -0.08469,-0.0964 z m -1.691919,-1.55893 c -0.10282,0.042 -0.188997,0.0784 -0.191547,0.0807 -0.0117,0.0108 0.01703,0.0857 0.04594,0.11966 0.04432,0.0519 0.09638,0.0763 0.165115,0.0774 0.06347,8.2e-4 0.09998,-0.0128 0.148896,-0.0562 0.07762,-0.068 0.09381,-0.20692 0.03276,-0.28087 -0.0139,-0.0166 -0.02071,-0.0147 -0.201365,0.0587 z"
       id="path5212"
       inkscape:connector-curvature="0" />
    <path
       style="fill:#ffffff;stroke-width:0.00032773;stroke-miterlimit:4;stroke-dasharray:none"
       d="m 16.07053,284.84175 c 0.03081,0.0765 0.118519,0.40579 0.150482,0.56498 0.117484,0.58508 0.116064,1.18616 -0.0041,1.76054 -0.06099,0.29137 -0.133094,0.52124 -0.256903,0.81894 -0.114407,0.27509 -0.118949,0.28331 -0.191814,0.34697 -0.051,0.0446 -0.06505,0.0529 -0.106589,0.0625 -0.105565,0.0247 -0.20493,-0.003 -0.2787,-0.0777 -0.07171,-0.073 -0.09208,-0.1243 -0.0855,-0.21755 0.0047,-0.067 0.0124,-0.0907 0.06991,-0.21759 0.33001,-0.72771 0.428542,-1.51414 0.288657,-2.30369 -0.02395,-0.13519 -0.07884,-0.35604 -0.125363,-0.50452 -0.0281,-0.0898 -0.03114,-0.17229 -0.0087,-0.23982 0.01356,-0.041 0.02003,-0.0489 0.08644,-0.10709 0.06593,-0.0578 0.0755,-0.0633 0.116299,-0.0712 0.06112,-0.0115 0.129992,-0.006 0.184005,0.0157 0.06371,0.0252 0.133071,0.0978 0.161897,0.16942 z m -0.2051,2.45665 c -0.07848,-0.0308 -0.150322,0.0725 -0.0947,0.13599 0.02557,0.0291 0.04867,0.0372 0.08267,0.0289 0.08931,-0.0222 0.09732,-0.13137 0.01199,-0.16492 z m -0.07941,0.24494 c -0.03899,-0.0122 -0.06823,-0.006 -0.08557,0.0193 -0.01867,0.0269 -0.223796,0.51114 -0.226933,0.53572 -0.006,0.0468 0.05292,0.1002 0.09875,0.0896 0.03543,-0.009 0.05585,-0.0322 0.09921,-0.11743 0.04696,-0.0922 0.148132,-0.33573 0.167714,-0.4037 0.01948,-0.0678 0.003,-0.10588 -0.05318,-0.12358 z"
       id="path5226"
       inkscape:connector-curvature="0" />
    <path
       style="fill:#ffffff;stroke-width:0.00032773;stroke-miterlimit:4;stroke-dasharray:none"
       d="m 15.395501,285.25981 c 0.04269,0.16545 0.08786,0.36556 0.100441,0.44462 0.04477,0.28135 0.05403,0.55478 0.02931,0.86528 -0.03322,0.41709 -0.107834,0.72052 -0.27773,1.12928 -0.116836,0.28111 -0.120517,0.2886 -0.139109,0.28305 -0.02564,-0.008 -0.178074,-0.0997 -0.179551,-0.10842 -8.44e-4,-0.005 0.0053,-0.0145 0.01367,-0.0218 0.02784,-0.0243 0.06665,-0.13765 0.07132,-0.20811 0.0047,-0.0714 -0.01325,-0.15586 -0.04632,-0.21746 -0.103176,-0.19223 -0.36872,-0.25665 -0.554821,-0.13458 -0.0604,0.0396 -0.115068,0.10209 -0.142398,0.16312 l -0.021,0.0468 -0.02717,-0.0134 c -0.06827,-0.0336 -0.935402,-0.52176 -0.94375,-0.5313 -0.0025,-0.003 0.0035,-0.0271 0.01413,-0.053 0.02871,-0.0702 0.02993,-0.10733 0.0045,-0.13636 -0.01547,-0.0177 -0.03104,-0.0253 -0.05784,-0.0279 -0.04396,-0.004 -0.06397,0.0107 -0.101568,0.0762 -0.01454,0.0254 -0.0273,0.0469 -0.02831,0.0478 -0.0066,0.006 -1.023748,-0.5688 -1.023136,-0.57797 9.29e-4,-0.0118 0.567137,-0.2449 0.590995,-0.24336 0.0071,3.9e-4 0.01809,0.0155 0.02784,0.0408 0.05636,0.13695 0.191759,0.2352 0.337196,0.24489 0.174163,0.0116 0.329501,-0.0874 0.395872,-0.25239 0.02543,-0.0631 0.02792,-0.1981 0.0048,-0.25926 -0.03271,-0.0867 -0.03393,-0.0805 0.02121,-0.10492 0.06481,-0.0285 0.356336,-0.14559 0.392184,-0.15717 l 0.02883,-0.009 0.0061,0.0869 c 0.01285,0.18563 0.02572,0.21688 0.09269,0.22514 0.02726,0.003 0.04184,-5.5e-4 0.06085,-0.0158 0.03143,-0.0261 0.03503,-0.0596 0.02497,-0.2405 l -0.0074,-0.13388 0.382032,-0.15775 c 0.685341,-0.28294 0.869624,-0.35768 0.871699,-0.35365 0.0013,0.003 0.03697,0.13937 0.0796,0.30485 z m -0.373238,0.32067 c -0.111027,-0.0635 -0.247528,-0.065 -0.371223,-0.003 -0.244379,0.12071 -0.28274,0.47304 -0.07031,0.64549 0.248647,0.20186 0.618925,0.044 0.639988,-0.27285 0.0053,-0.0799 -0.01465,-0.16813 -0.0517,-0.22896 -0.02953,-0.0485 -0.09346,-0.10934 -0.146783,-0.13985 z m 0.236949,0.87517 c -0.03887,-0.009 -0.07029,0.01 -0.133439,0.0815 -0.09581,0.10855 -0.107995,0.1424 -0.06782,0.1883 0.02944,0.0336 0.05111,0.0417 0.08768,0.0328 0.0251,-0.006 0.03637,-0.0151 0.08241,-0.0667 0.07199,-0.0807 0.105133,-0.13306 0.102051,-0.16135 -0.0035,-0.0324 -0.03548,-0.0659 -0.0707,-0.0743 z m -0.572728,0.21309 c -0.04802,-0.003 -0.08066,0.0247 -0.08619,0.0734 -0.0038,0.0339 -7.72e-4,0.04 0.0853,0.17182 0.08777,0.13437 0.08974,0.13675 0.116098,0.14288 0.07511,0.017 0.130769,-0.0363 0.109437,-0.10456 -0.01399,-0.0448 -0.09019,-0.16471 -0.147976,-0.23263 -0.03839,-0.0451 -0.0436,-0.0486 -0.07691,-0.0508 z m -0.470434,-0.39295 c -0.09444,-0.0579 -0.205085,-0.0729 -0.312743,-0.0423 -0.05854,0.0168 -0.06553,0.021 -0.140276,0.0864 -0.07752,0.0679 -0.07901,0.0698 -0.106139,0.13547 -0.03395,0.0823 -0.04048,0.17203 -0.01896,0.26008 0.01562,0.0639 0.01677,0.0658 0.08605,0.14497 0.0695,0.0794 0.07088,0.0805 0.136472,0.1073 0.206356,0.0844 0.430777,-0.008 0.515587,-0.21157 0.03867,-0.093 0.03635,-0.21409 -0.0059,-0.31087 -0.0225,-0.0515 -0.09918,-0.13586 -0.154015,-0.16953 z"
       id="path5228"
       inkscape:connector-curvature="0" />
    <path
       style="fill:#ffffff;stroke-width:0.00032773;stroke-miterlimit:4;stroke-dasharray:none"
       d="m 14.828109,287.5543 c 0.02027,0.0696 0.0024,0.15111 -0.04674,0.21251 l -0.01986,0.0247 -0.17426,-0.098 -0.174258,-0.098 0.0047,-0.0246 c 0.0056,-0.0291 0.04463,-0.0941 0.0695,-0.11588 0.02688,-0.0236 0.08498,-0.0438 0.131858,-0.0464 0.08963,-0.004 0.184491,0.0617 0.208924,0.14545 z"
       id="path5230"
       inkscape:connector-curvature="0" />
    <path
       style="fill:#ffffff;stroke-width:0.00032773;stroke-miterlimit:4;stroke-dasharray:none"
       d="m 14.213917,286.53866 c 0.0504,0.14173 -0.06295,0.29127 -0.213272,0.28129 -0.0554,-0.003 -0.105031,-0.0274 -0.139808,-0.0669 -0.04118,-0.0467 -0.05641,-0.0837 -0.05703,-0.13849 -0.0017,-0.15137 0.140642,-0.25431 0.280283,-0.20274 0.0647,0.0239 0.108303,0.0666 0.129785,0.12684 z"
       id="path5232"
       inkscape:connector-curvature="0" />
    <path
       style="fill:#ffffff;stroke-width:0.00032773;stroke-miterlimit:4;stroke-dasharray:none"
       d="m 15.029658,285.84226 c 0.0184,0.0484 0.01918,0.1027 0.0024,0.15314 -0.01956,0.0589 -0.08535,0.11962 -0.144868,0.13355 -0.07922,0.0181 -0.161249,-0.008 -0.214127,-0.0671 -0.03789,-0.0429 -0.05317,-0.0873 -0.05054,-0.14693 0.0037,-0.0839 0.04981,-0.15112 0.128396,-0.18696 0.04109,-0.0184 0.11415,-0.0195 0.158906,-0.002 0.04659,0.0186 0.103933,0.0741 0.119769,0.11591 z"
       id="path5234"
       inkscape:connector-curvature="0" />
    <path
       style="fill:#ffffff;stroke-width:0.00032773;stroke-miterlimit:4;stroke-dasharray:none"
       d="m 13.268731,285.85809 c 0.04227,0.10837 -0.02553,0.25018 -0.134861,0.2821 -0.04559,0.0136 -0.119203,0.008 -0.160547,-0.0129 -0.03687,-0.0182 -0.0822,-0.0674 -0.09897,-0.10794 -0.02418,-0.0576 -0.02743,-0.0549 0.156657,-0.13109 0.218028,-0.0902 0.214728,-0.0897 0.237878,-0.0304 z"
       id="path5236"
       inkscape:connector-curvature="0" />
    <path
       style="fill:#000000;stroke-width:0.01330784"
       d="m 11.497194,296.01584 c -0.117008,-0.053 -0.176121,-0.13642 -0.198493,-0.28022 -0.0072,-0.0466 -0.109895,-0.82126 -0.228111,-1.72154 -0.118216,-0.90027 -0.217471,-1.63952 -0.220568,-1.64277 -0.0031,-0.003 -0.139019,0.12701 -0.302048,0.28945 -0.251583,0.25067 -0.302332,0.29535 -0.335524,0.29535 -0.03278,0 -0.07163,-0.0328 -0.2400331,-0.20295 -0.174415,-0.17616 -0.203203,-0.2113 -0.218175,-0.26634 -0.01963,-0.0722 -0.01143,-0.16202 0.02067,-0.22627 0.01182,-0.0237 0.165853,-0.18803 0.3423021,-0.36524 l 0.320817,-0.32222 -0.0939,-0.097 c -0.12393,-0.12799 -0.143651,-0.16676 -0.14409,-0.28329 -2.91e-4,-0.0776 0.0056,-0.10314 0.0353,-0.15304 0.04425,-0.0743 0.825368,-0.85304 0.889246,-0.88649 0.06451,-0.0338 0.21586,-0.0335 0.279465,4.5e-4 0.02562,0.0137 0.09014,0.0671 0.143378,0.11865 l 0.0968,0.0937 0.07288,-0.072 0.07287,-0.072 0.07336,0.0725 0.07336,0.0725 -0.991603,0.99193 c -0.920764,0.92107 -0.9916021,0.99513 -0.9916021,1.03677 0,0.0386 0.01698,0.0621 0.1222221,0.16946 0.06722,0.0686 0.128616,0.12464 0.136431,0.12464 0.01854,0 2.5493,-2.53081 2.5493,-2.54936 0,-0.008 -0.05608,-0.0692 -0.124631,-0.13638 -0.16873,-0.16547 -0.167945,-0.1655 -0.349901,0.0136 l -0.137978,0.13578 -0.07313,-0.0722 -0.07313,-0.0722 0.136519,-0.13771 c 0.07509,-0.0758 0.160474,-0.15034 0.189751,-0.16576 0.07331,-0.0386 0.205916,-0.0387 0.279464,-1.5e-4 0.02928,0.0153 0.135574,0.11122 0.236214,0.21306 0.15049,0.15228 0.182983,0.19202 0.182983,0.22376 0,0.0333 -0.110255,0.14892 -0.801648,0.84066 l -0.801648,0.80205 h 1.673917 1.673916 l 0.03266,0.0327 c 0.01797,0.018 0.03266,0.0433 0.03266,0.0562 0,0.0264 -0.08238,0.66102 -0.08653,0.66659 -0.0036,0.005 -0.196693,-0.0229 -0.20291,-0.0291 -0.0045,-0.004 0.03955,-0.36743 0.05705,-0.47021 l 0.0074,-0.0433 h -1.701064 -1.701064 l -0.08436,0.0851 -0.08436,0.0851 0.234454,1.78201 c 0.128951,0.98011 0.234455,1.78946 0.234455,1.79855 0,0.009 0.0147,0.0312 0.03266,0.0492 l 0.03266,0.0327 h 1.232455 c 0.814596,0 1.241079,-0.005 1.257891,-0.0136 0.01399,-0.007 0.03089,-0.024 0.03756,-0.0366 0.0067,-0.0126 0.09448,-0.65178 0.195138,-1.42031 0.100656,-0.76853 0.186713,-1.40157 0.191238,-1.40675 0.0081,-0.009 0.187067,0.0111 0.198536,0.0225 0.0051,0.005 -0.116009,0.9436 -0.310142,2.40383 -0.06108,0.45946 -0.07168,0.50031 -0.148663,0.57322 -0.0208,0.0197 -0.06476,0.048 -0.0977,0.0629 -0.05889,0.0267 -0.08075,0.0271 -1.317476,0.0271 -1.236732,0 -1.258584,-4.4e-4 -1.317476,-0.0271 z m -0.452392,-5.04963 0.445738,-0.44618 -0.09491,-0.0928 c -0.07256,-0.0709 -0.103836,-0.0928 -0.132838,-0.0928 -0.03201,0 -0.101852,0.0639 -0.447388,0.40946 -0.344105,0.34411 -0.409456,0.41547 -0.409456,0.44711 0,0.0284 0.02185,0.0603 0.08868,0.12951 0.04878,0.0505 0.09223,0.0919 0.09656,0.0919 0.0043,0 0.208454,-0.20078 0.45361,-0.44619 z m 0.791002,4.40695 c -0.07869,-0.0367 -0.154904,-0.11974 -0.176779,-0.19276 -0.02264,-0.0756 -0.02194,-2.45871 7.53e-4,-2.53548 0.0216,-0.0731 0.131842,-0.18334 0.204939,-0.20494 0.158909,-0.0469 0.315471,0.0244 0.386064,0.17604 l 0.03133,0.0673 v 1.23097 1.23098 l -0.03146,0.0665 c -0.0785,0.16605 -0.256283,0.23521 -0.414837,0.16137 z m 0.200962,-0.214 0.03266,-0.0327 v -1.21222 -1.21222 l -0.03266,-0.0327 c -0.02059,-0.0206 -0.04787,-0.0327 -0.0738,-0.0327 -0.02593,0 -0.05321,0.012 -0.0738,0.0327 l -0.03266,0.0327 v 1.21222 1.21222 l 0.03266,0.0327 c 0.02059,0.0206 0.04787,0.0327 0.0738,0.0327 0.02593,0 0.05321,-0.0121 0.0738,-0.0327 z m 0.650739,0.214 c -0.07869,-0.0367 -0.154903,-0.11974 -0.176779,-0.19276 -0.02264,-0.0756 -0.02194,-2.45871 7.54e-4,-2.53548 0.0216,-0.0731 0.131841,-0.18334 0.204939,-0.20494 0.158909,-0.0469 0.315471,0.0244 0.386064,0.17604 l 0.03133,0.0673 v 1.23097 1.23098 l -0.03146,0.0665 c -0.0785,0.16605 -0.256283,0.23521 -0.414836,0.16137 z m 0.200963,-0.214 0.03266,-0.0327 v -1.21222 -1.21222 l -0.03266,-0.0327 c -0.02059,-0.0206 -0.04787,-0.0327 -0.0738,-0.0327 -0.02593,0 -0.05321,0.012 -0.0738,0.0327 l -0.03266,0.0327 v 1.21222 1.21222 l 0.03266,0.0327 c 0.02059,0.0206 0.04787,0.0327 0.0738,0.0327 0.02593,0 0.05321,-0.0121 0.0738,-0.0327 z m 0.650739,0.214 c -0.07869,-0.0367 -0.154904,-0.11974 -0.176779,-0.19276 -0.02264,-0.0756 -0.02194,-2.45871 7.53e-4,-2.53548 0.0216,-0.0731 0.131842,-0.18334 0.20494,-0.20494 0.158908,-0.0469 0.31547,0.0244 0.386064,0.17604 l 0.03133,0.0673 v 1.23097 1.23098 l -0.03146,0.0665 c -0.0785,0.16605 -0.256283,0.23521 -0.414836,0.16137 z m 0.200962,-0.214 0.03266,-0.0327 v -1.21222 -1.21222 l -0.03266,-0.0327 c -0.02059,-0.0206 -0.04787,-0.0327 -0.0738,-0.0327 -0.02593,0 -0.05321,0.012 -0.0738,0.0327 l -0.03266,0.0327 v 1.21222 1.21222 l 0.03266,0.0327 c 0.02059,0.0206 0.04787,0.0327 0.0738,0.0327 0.02593,0 0.05321,-0.0121 0.0738,-0.0327 z m -0.982498,-3.70747 c -0.240277,-0.12156 -0.262389,-0.13932 -0.262389,-0.21084 0,-0.0387 0.357821,-0.50627 0.394506,-0.51548 0.03486,-0.009 0.473031,0.094 0.517215,0.12132 0.0287,0.0177 0.259368,0.57586 0.259368,0.62757 0,0.0156 -0.01144,0.0425 -0.02542,0.0598 -0.02526,0.0312 -0.02731,0.0314 -0.336023,0.0344 l -0.310604,0.003 z m 0.638772,-0.10916 c -0.0036,-0.009 -0.03166,-0.0795 -0.06226,-0.15637 -0.0306,-0.0768 -0.06269,-0.14641 -0.07132,-0.15458 -0.0086,-0.008 -0.06959,-0.0279 -0.13546,-0.0438 -0.06587,-0.0159 -0.129416,-0.0318 -0.141206,-0.0354 -0.01502,-0.004 -0.04984,0.0314 -0.116443,0.12 -0.05226,0.0695 -0.09501,0.13118 -0.09501,0.13701 0,0.006 0.06138,0.0416 0.136406,0.0794 l 0.136405,0.0688 0.177753,8.9e-4 c 0.137101,4.4e-4 0.176238,-0.003 0.171133,-0.0159 z m 0.63003,-0.007 c -0.0219,-0.0177 -0.04285,-0.079 -0.08764,-0.25618 -0.05044,-0.19953 -0.05892,-0.25249 -0.0592,-0.36988 -4.44e-4,-0.19116 -0.01446,-0.18118 0.35626,-0.25414 0.238731,-0.047 0.303018,-0.0555 0.32901,-0.0437 0.02136,0.01 0.05307,0.0561 0.09358,0.13671 0.03503,0.0697 0.128994,0.21195 0.219402,0.33202 0.08697,0.11552 0.161854,0.22486 0.166405,0.24298 0.01089,0.0434 -0.02441,0.11044 -0.0633,0.12019 -0.03322,0.008 -0.873607,0.11526 -0.905865,0.11526 -0.01093,0 -0.03282,-0.0105 -0.04865,-0.0233 z m 0.44337,-0.23684 c 0.146774,-0.0187 0.268559,-0.0356 0.270633,-0.0377 0.0021,-0.002 -0.04567,-0.0698 -0.106106,-0.15041 -0.06043,-0.0806 -0.124487,-0.17783 -0.142343,-0.21596 -0.02653,-0.0566 -0.03745,-0.0681 -0.05977,-0.0627 -0.01502,0.004 -0.09767,0.0202 -0.183669,0.0368 l -0.156368,0.0302 v 0.0582 c 0,0.0509 0.01588,0.12712 0.06781,0.32552 0.0072,0.0274 0.01978,0.0499 0.02801,0.0499 0.0082,0 0.13503,-0.0152 0.281805,-0.0339 z m 1.006395,-0.27218 v -0.10646 h 0.106462 0.106463 v 0.10646 0.10646 H 15.5827 15.476238 Z m -0.377767,-0.4221 c -0.03366,-0.0423 -0.06124,-0.0815 -0.06129,-0.0871 -1.51e-4,-0.0153 0.139933,-0.10176 0.234057,-0.14444 0.189628,-0.086 0.43772,-0.12808 0.628776,-0.1067 0.06061,0.007 0.1136,0.0157 0.117746,0.0198 0.0042,0.004 -8.42e-4,0.0511 -0.01106,0.10425 l -0.0186,0.0967 -0.05964,-0.006 c -0.107752,-0.0115 -0.284227,-0.003 -0.377597,0.0193 -0.09091,0.0212 -0.268794,0.0993 -0.349355,0.15336 l -0.04184,0.0281 z m -0.575134,-0.28654 c 0.01276,-0.10259 0.08936,-0.25003 0.164709,-0.31705 0.0781,-0.0695 0.200506,-0.12799 0.292475,-0.13983 l 0.06987,-0.009 v 0.10818 c 0,0.0912 -0.0034,0.10818 -0.02174,0.10818 -0.100608,0 -0.241626,0.1065 -0.276484,0.2088 -0.01164,0.0342 -0.02116,0.073 -0.02116,0.0863 0,0.0215 -0.0124,0.0242 -0.108177,0.0242 h -0.108177 z m -0.431115,-0.35599 v -0.10646 h 0.106463 0.106463 v 0.10646 0.10647 h -0.106463 -0.106463 z"
       id="path5284"
       inkscape:connector-curvature="0" />
    <path
       style="fill:none;stroke:#000000;stroke-width:0.00050297;stroke-linecap:butt;stroke-linejoin:miter;stroke-miterlimit:4;stroke-dasharray:none;stroke-opacity:1"
       d="m 12.002664,290.00911 -0.212698,0.21315"
       id="path5286"
       inkscape:connector-curvature="0" />
    <path
       style="fill:none;stroke:#000000;stroke-width:0.00050297;stroke-linecap:butt;stroke-linejoin:miter;stroke-miterlimit:4;stroke-dasharray:none;stroke-opacity:1"
       d="m 14.732712,292.51361 -0.07394,0.51083"
       id="path5288"
       inkscape:connector-curvature="0" />
    <path
       style="fill:#ffffff;stroke-width:0.00071853;stroke-miterlimit:4;stroke-dasharray:none"
       d="m 10.488094,291.30031 c -0.0373,-0.0455 -0.06781,-0.097 -0.06781,-0.11447 0,-0.0341 0.743185,-0.78961 0.813944,-0.82748 0.03836,-0.0205 0.0521,-0.0134 0.141825,0.0733 l 0.09935,0.096 -0.430867,0.42769 c -0.236977,0.23523 -0.443864,0.42769 -0.459749,0.42769 -0.01588,0 -0.0594,-0.0372 -0.09669,-0.0828 z"
       id="path5290"
       inkscape:connector-curvature="0" />
    <path
       style="fill:#ffffff;stroke-width:0.00071853;stroke-miterlimit:4;stroke-dasharray:none"
       d="m 12.926365,291.28748 c -0.05938,-0.0307 -0.113585,-0.0648 -0.120465,-0.076 -0.01385,-0.0224 0.130659,-0.22418 0.171873,-0.23999 0.03074,-0.0118 0.235344,0.0446 0.272405,0.0751 0.01416,0.0116 0.03253,0.0386 0.04084,0.06 0.0083,0.0214 0.03295,0.0837 0.05478,0.13861 l 0.03968,0.0998 -0.175576,-8.8e-4 c -0.155959,-8.9e-4 -0.187639,-0.007 -0.283533,-0.0567 z"
       id="path5292"
       inkscape:connector-curvature="0" />
    <path
       style="fill:#ffffff;stroke-width:0.00071853;stroke-miterlimit:4;stroke-dasharray:none"
       d="m 14.175203,291.09315 c -0.02903,-0.0851 -0.06675,-0.26786 -0.06675,-0.32333 v -0.066 l 0.156842,-0.0311 c 0.08626,-0.0171 0.162561,-0.0311 0.169551,-0.0311 0.007,0 0.03199,0.0321 0.05555,0.0713 0.02356,0.0392 0.0848,0.12981 0.136085,0.20133 0.05128,0.0715 0.09035,0.13293 0.08682,0.13646 -0.0091,0.009 -0.42532,0.0662 -0.482532,0.0662 -0.02611,0 -0.05112,-0.0107 -0.05557,-0.0238 z"
       id="path5294"
       inkscape:connector-curvature="0" />
    <path
       style="fill:#ffffff;stroke-width:0.00071853;stroke-miterlimit:4;stroke-dasharray:none"
       d="m 13.60941,295.15884 c -0.03108,-0.0236 -0.03327,-0.10559 -0.03327,-1.24419 v -1.21893 l 0.04753,-0.0312 c 0.04403,-0.0288 0.05103,-0.0288 0.09506,0 l 0.04753,0.0312 v 1.2152 1.2152 l -0.04225,0.0296 c -0.05092,0.0357 -0.071,0.0362 -0.11459,0.003 z"
       id="path5296"
       inkscape:connector-curvature="0" />
    <path
       style="fill:#ffffff;stroke-width:0.00071853;stroke-miterlimit:4;stroke-dasharray:none"
       d="m 12.7521,295.15054 c -0.02858,-0.0316 -0.03146,-0.14553 -0.03146,-1.24479 v -1.21003 l 0.04753,-0.0312 c 0.04403,-0.0288 0.05103,-0.0288 0.09506,0 l 0.04753,0.0312 v 1.21333 c 0,1.15131 -0.0018,1.21494 -0.03477,1.24479 -0.04519,0.0409 -0.08484,0.0399 -0.123882,-0.003 z"
       id="path5298"
       inkscape:connector-curvature="0" />
    <path
       style="fill:#ffffff;stroke-width:0.00071853;stroke-miterlimit:4;stroke-dasharray:none"
       d="m 11.896596,295.15054 c -0.02858,-0.0316 -0.03146,-0.14553 -0.03146,-1.24479 v -1.21003 l 0.04753,-0.0312 c 0.04403,-0.0288 0.05103,-0.0288 0.09506,0 l 0.04753,0.0312 v 1.21333 c 0,1.15131 -0.0018,1.21494 -0.03477,1.24479 -0.04519,0.0409 -0.08484,0.0399 -0.123883,-0.003 z"
       id="path5300"
       inkscape:connector-curvature="0" />
    <path
       style="fill:none;stroke:#000000;stroke-width:0.01;stroke-linecap:butt;stroke-linejoin:miter;stroke-opacity:1;stroke-miterlimit:4;stroke-dasharray:none"
       d="m 14.732712,292.51361 -0.07394,0.51083"
       id="path5439"
       inkscape:connector-curvature="0" />
    <path
       style="fill:#ffffff;stroke-width:0.00168729;stroke-miterlimit:4;stroke-dasharray:none"
       d="m 43.622419,59.399174 c -0.08745,-0.136963 -0.124205,-0.305438 -0.202088,-0.926339 -0.05236,-0.417411 -0.448083,-3.448834 -0.879387,-6.736495 l -0.784191,-5.977568 0.326046,-0.328236 0.326046,-0.328237 h 6.401175 6.401175 l -0.02777,0.148015 c -0.05116,0.272712 -0.205282,1.524424 -0.205333,1.667635 -4.4e-5,0.152301 -0.0025,0.151069 0.435218,0.217135 0.104352,0.01575 0.190239,0.05198 0.190858,0.08051 6.21e-4,0.02853 -0.04387,0.379641 -0.09887,0.780238 l -0.09999,0.728357 -0.323123,-0.03028 c -0.314278,-0.02945 -0.323764,-0.02739 -0.346495,0.07521 -0.03532,0.159429 -0.153712,1.028971 -0.740717,5.440314 -0.652072,4.900322 -0.694554,5.186443 -0.779438,5.249582 -0.107037,0.07962 -1.576119,0.107561 -5.654754,0.107561 h -3.831473 z m 2.115534,-1.529542 c 0.204288,-0.109332 0.458216,-0.384457 0.583016,-0.631685 l 0.130289,-0.258102 v -4.645403 -4.645403 l -0.129886,-0.255423 c -0.245654,-0.48308 -0.613925,-0.721476 -1.11718,-0.723193 -0.200967,-6.86e-4 -0.344661,0.02681 -0.478404,0.09156 -0.258303,0.125043 -0.627482,0.53478 -0.672387,0.746257 -0.01935,0.09112 -0.03518,2.264999 -0.03518,4.830847 0,3.623177 0.01248,4.700078 0.05589,4.821429 0.118919,0.332438 0.57383,0.699294 0.933108,0.752491 0.238993,0.03539 0.581937,-0.0037 0.730729,-0.08337 z m 3.214286,0 c 0.204288,-0.109332 0.458216,-0.384457 0.583016,-0.631685 l 0.130289,-0.258102 v -4.645403 -4.645403 l -0.131638,-0.260774 c -0.153614,-0.304307 -0.458999,-0.591733 -0.707953,-0.666322 -0.238704,-0.07152 -0.648643,-0.06608 -0.833254,0.01106 -0.206727,0.08638 -0.545726,0.406415 -0.663507,0.626398 l -0.09668,0.180578 v 4.6875 c 0,2.578125 0.01583,4.762051 0.03518,4.853169 0.04254,0.200333 0.407146,0.616326 0.634934,0.724418 0.315449,0.149691 0.794857,0.160911 1.049619,0.02457 z m 3.244803,-0.015 c 0.181108,-0.09365 0.494807,-0.445281 0.595897,-0.667944 0.08172,-0.180003 0.08497,-0.363331 0.08591,-4.854641 l 9.81e-4,-4.667574 -0.112177,-0.225108 c -0.132968,-0.266834 -0.36959,-0.514954 -0.595428,-0.624362 -0.201813,-0.09777 -0.704392,-0.132689 -0.91402,-0.0635 -0.210174,0.06936 -0.539532,0.365991 -0.689349,0.620842 l -0.122062,0.207638 v 4.754464 c 0,5.333837 -0.02968,4.860715 0.328579,5.238158 0.372381,0.392322 0.976598,0.512188 1.421669,0.282032 z"
       id="path5984"
       inkscape:connector-curvature="0"
       transform="matrix(0.26458333,0,0,0.26458333,0,280.06665)" />
    <path
       style="fill:none;stroke:#000000;stroke-width:0.01;stroke-linecap:butt;stroke-linejoin:miter;stroke-opacity:1;stroke-miterlimit:4;stroke-dasharray:none"
       d="m 12.002678,290.00911 -0.358448,0.35696"
       id="path5986"
       inkscape:connector-curvature="0" />
    <path
       style="fill:#ffffff;stroke-width:0.00168729;stroke-miterlimit:4;stroke-dasharray:none"
       d="m 38.109231,47.22562 c -0.231935,-0.235354 -0.433912,-0.476572 -0.448838,-0.53604 -0.01693,-0.06744 0.0022,-0.152871 0.05078,-0.227038 0.136198,-0.207866 1.893938,-2.006046 4.704566,-4.812804 l 2.726301,-2.722547 -0.26722,-0.269617 -0.26722,-0.269616 0.376072,-0.374119 0.376072,-0.374118 0.219891,0.184104 c 0.120941,0.101257 0.245341,0.214767 0.276444,0.252244 0.04878,0.05878 0.124386,0.0031 0.550327,-0.405016 0.530591,-0.508433 0.635948,-0.579233 0.800496,-0.537934 0.116502,0.02924 0.971911,0.860698 0.971911,0.944698 0,0.07479 -9.510805,9.575719 -9.58567,9.575719 -0.03422,0 -0.251975,-0.192562 -0.483912,-0.427916 z"
       id="path5988"
       inkscape:connector-curvature="0"
       transform="matrix(0.26458333,0,0,0.26458333,0,280.06665)" />
  </g>
</svg>
