<?xml version="1.0" encoding="UTF-8" standalone="no"?>
<!-- Created with Inkscape (http://www.inkscape.org/) -->

<svg
   xmlns:dc="http://purl.org/dc/elements/1.1/"
   xmlns:cc="http://creativecommons.org/ns#"
   xmlns:rdf="http://www.w3.org/1999/02/22-rdf-syntax-ns#"
   xmlns:svg="http://www.w3.org/2000/svg"
   xmlns="http://www.w3.org/2000/svg"
   xmlns:sodipodi="http://sodipodi.sourceforge.net/DTD/sodipodi-0.dtd"
   xmlns:inkscape="http://www.inkscape.org/namespaces/inkscape"
   width="64"
   height="64"
   viewBox="0 0 16.933333 16.933334"
   version="1.1"
   id="svg8"
   inkscape:version="0.92.5 (2060ec1f9f, 2020-04-08)"
   sodipodi:docname="purge_shower_64x64.svg">
  <defs
     id="defs2" />
  <sodipodi:namedview
     id="base"
     pagecolor="#ffffff"
     bordercolor="#666666"
     borderopacity="1.0"
     inkscape:pageopacity="0.0"
     inkscape:pageshadow="2"
     inkscape:zoom="5.6"
     inkscape:cx="85.835686"
     inkscape:cy="10.093857"
     inkscape:document-units="mm"
     inkscape:current-layer="layer1"
     showgrid="false"
     units="px"
     inkscape:window-width="1208"
     inkscape:window-height="987"
     inkscape:window-x="1992"
     inkscape:window-y="0"
     inkscape:window-maximized="1" />
  <metadata
     id="metadata5">
    <rdf:RDF>
      <cc:Work
         rdf:about="">
        <dc:format>image/svg+xml</dc:format>
        <dc:type
           rdf:resource="http://purl.org/dc/dcmitype/StillImage" />
        <dc:title></dc:title>
      </cc:Work>
    </rdf:RDF>
  </metadata>
  <g
     inkscape:label="Layer 1"
     inkscape:groupmode="layer"
     id="layer1"
     transform="translate(0,-280.06665)">
    <path
       style="fill:#000000;stroke-width:0.03052196"
       d="m 2.3149492,296.27937 -0.080419,-0.0633 v -7.6871 -7.68709 l 0.080419,-0.0633 0.080419,-0.0633 h 6.0045927 6.0045931 l 0.08043,0.0633 0.08043,0.0633 v 7.68709 7.6871 l -0.08043,0.0633 -0.08043,0.0633 H 8.3999619 2.3953691 Z m 11.8231388,-0.62348 v -0.22892 H 8.3999627 2.6618351 v 0.22892 0.22891 h 5.7381276 5.7381253 z m -5.9517791,-7.58471 v -6.89797 H 5.4240726 2.6618351 v 0.22891 0.22892 l 0.9690727,3.5e-4 c 1.0481492,3.3e-4 1.2050973,0.0179 1.4484181,0.1605 0.1615281,0.0947 0.3639163,0.3078 0.4456442,0.46931 0.07916,0.15643 0.1280167,0.39804 0.1280167,0.63302 v 0.19203 l 0.1602401,0.0364 c 0.5371596,0.12176 1.0343693,0.61897 1.1561199,1.15613 0.033524,0.1479 0.043098,0.16024 0.1244158,0.16024 0.1108395,0 0.2379318,0.12228 0.2379318,0.22891 0,0.0436 -0.033713,0.11275 -0.074921,0.154 l -0.07492,0.075 H 5.4240665 3.6662796 l -0.07492,-0.075 c -0.041207,-0.0412 -0.074921,-0.11055 -0.074921,-0.154 0,-0.10661 0.1270912,-0.22891 0.237931,-0.22891 0.081319,0 0.090893,-0.0124 0.1244158,-0.16024 0.1217506,-0.53716 0.6189603,-1.03437 1.15612,-1.15613 l 0.1602401,-0.0364 v -0.20335 c 0,-0.26353 -0.066166,-0.45177 -0.2071598,-0.58938 -0.2000995,-0.1953 -0.2627805,-0.20479 -1.3532973,-0.20479 H 2.6618231 v 6.44014 6.44013 h 2.7622373 2.7622364 z m -3.8318922,6.36521 c -0.069645,-0.0696 -0.074921,-0.0966 -0.074921,-0.38291 0,-0.28632 0.00527,-0.31327 0.074921,-0.38291 0.041207,-0.0412 0.1105034,-0.075 0.1539971,-0.075 0.043495,0 0.1127918,0.0337 0.1539971,0.075 0.069645,0.0696 0.07492,0.0966 0.07492,0.38291 0,0.28631 -0.00527,0.31327 -0.07492,0.38291 -0.041207,0.0412 -0.1105034,0.0749 -0.1539971,0.0749 -0.043495,0 -0.1127929,-0.0336 -0.1539971,-0.0749 z m 0.9156587,0 c -0.069645,-0.0696 -0.07492,-0.0966 -0.07492,-0.38291 0,-0.28632 0.00527,-0.31327 0.07492,-0.38291 0.041207,-0.0412 0.1105035,-0.075 0.1539972,-0.075 0.043495,0 0.1127917,0.0337 0.153997,0.075 0.069645,0.0696 0.07492,0.0966 0.07492,0.38291 0,0.28631 -0.00527,0.31327 -0.07492,0.38291 -0.041206,0.0412 -0.1105033,0.0749 -0.153997,0.0749 -0.043495,0 -0.112793,-0.0336 -0.1539972,-0.0749 z m 0.9156587,0 c -0.069645,-0.0696 -0.07492,-0.0966 -0.07492,-0.38291 0,-0.28632 0.00527,-0.31327 0.07492,-0.38291 0.041207,-0.0412 0.1105035,-0.075 0.1539963,-0.075 0.043495,0 0.1127929,0.0337 0.1539972,0.075 0.069645,0.0696 0.074921,0.0966 0.074921,0.38291 0,0.28631 -0.00527,0.31327 -0.074921,0.38291 -0.041207,0.0412 -0.1105034,0.0749 -0.1539972,0.0749 -0.043495,0 -0.1127918,-0.0336 -0.1539963,-0.0749 z m -1.8313174,-1.37348 c -0.069645,-0.0696 -0.074921,-0.0966 -0.074921,-0.38292 0,-0.28631 0.00527,-0.31326 0.074921,-0.38291 0.041207,-0.0412 0.1105034,-0.075 0.1539971,-0.075 0.043495,0 0.1127918,0.0337 0.1539971,0.075 0.069645,0.0696 0.07492,0.0966 0.07492,0.38291 0,0.28631 -0.00527,0.31327 -0.07492,0.38292 -0.041207,0.0412 -0.1105034,0.075 -0.1539971,0.075 -0.043495,0 -0.1127929,-0.0337 -0.1539971,-0.075 z m 0.9156587,0 c -0.069645,-0.0696 -0.07492,-0.0966 -0.07492,-0.38292 0,-0.28631 0.00527,-0.31326 0.07492,-0.38291 0.041207,-0.0412 0.1105035,-0.075 0.1539972,-0.075 0.043495,0 0.1127917,0.0337 0.153997,0.075 0.069645,0.0696 0.07492,0.0966 0.07492,0.38291 0,0.28631 -0.00527,0.31327 -0.07492,0.38292 -0.041206,0.0412 -0.1105033,0.075 -0.153997,0.075 -0.043495,0 -0.112793,-0.0337 -0.1539972,-0.075 z m 0.9156587,0 c -0.069645,-0.0696 -0.07492,-0.0966 -0.07492,-0.38292 0,-0.28631 0.00527,-0.31326 0.07492,-0.38291 0.041207,-0.0412 0.1105035,-0.075 0.1539963,-0.075 0.043495,0 0.1127929,0.0337 0.1539972,0.075 0.069645,0.0696 0.074921,0.0966 0.074921,0.38291 0,0.28631 -0.00527,0.31327 -0.074921,0.38292 -0.041207,0.0412 -0.1105034,0.075 -0.1539972,0.075 -0.043495,0 -0.1127918,-0.0337 -0.1539963,-0.075 z m -1.8313174,-1.37349 c -0.069645,-0.0696 -0.074921,-0.0966 -0.074921,-0.38292 0,-0.2863 0.00527,-0.31326 0.074921,-0.3829 0.041207,-0.0411 0.1105034,-0.075 0.1539971,-0.075 0.043495,0 0.1127918,0.0337 0.1539971,0.075 0.069645,0.0696 0.07492,0.0966 0.07492,0.3829 0,0.28631 -0.00527,0.31328 -0.07492,0.38292 -0.041207,0.0412 -0.1105034,0.075 -0.1539971,0.075 -0.043495,0 -0.1127929,-0.0337 -0.1539971,-0.075 z m 0.9156587,0 c -0.069645,-0.0696 -0.07492,-0.0966 -0.07492,-0.38292 0,-0.2863 0.00527,-0.31326 0.07492,-0.3829 0.041207,-0.0411 0.1105035,-0.075 0.1539972,-0.075 0.043495,0 0.1127917,0.0337 0.153997,0.075 0.069645,0.0696 0.07492,0.0966 0.07492,0.3829 0,0.28631 -0.00527,0.31328 -0.07492,0.38292 -0.041206,0.0412 -0.1105033,0.075 -0.153997,0.075 -0.043495,0 -0.112793,-0.0337 -0.1539972,-0.075 z m 0.9156587,0 c -0.069645,-0.0696 -0.07492,-0.0966 -0.07492,-0.38292 0,-0.2863 0.00527,-0.31326 0.07492,-0.3829 0.041207,-0.0411 0.1105035,-0.075 0.1539963,-0.075 0.043495,0 0.1127929,0.0337 0.1539972,0.075 0.069645,0.0696 0.074921,0.0966 0.074921,0.3829 0,0.28631 -0.00527,0.31328 -0.074921,0.38292 -0.041207,0.0412 -0.1105034,0.075 -0.1539972,0.075 -0.043495,0 -0.1127918,-0.0337 -0.1539963,-0.075 z m -1.8313174,-1.3735 c -0.069645,-0.0696 -0.074921,-0.0966 -0.074921,-0.38289 0,-0.28632 0.00527,-0.31329 0.074921,-0.38292 0.041207,-0.0413 0.1105034,-0.075 0.1539971,-0.075 0.043495,0 0.1127918,0.0336 0.1539971,0.075 0.069645,0.0696 0.07492,0.0966 0.07492,0.38292 0,0.2863 -0.00527,0.31326 -0.07492,0.38289 -0.041207,0.0412 -0.1105034,0.075 -0.1539971,0.075 -0.043495,0 -0.1127929,-0.0336 -0.1539971,-0.075 z m 0.9156587,0 c -0.069645,-0.0696 -0.07492,-0.0966 -0.07492,-0.38289 0,-0.28632 0.00527,-0.31329 0.07492,-0.38292 0.041207,-0.0413 0.1105035,-0.075 0.1539972,-0.075 0.043495,0 0.1127917,0.0336 0.153997,0.075 0.069645,0.0696 0.07492,0.0966 0.07492,0.38292 0,0.2863 -0.00527,0.31326 -0.07492,0.38289 -0.041206,0.0412 -0.1105033,0.075 -0.153997,0.075 -0.043495,0 -0.112793,-0.0336 -0.1539972,-0.075 z m 0.9156587,0 c -0.069645,-0.0696 -0.07492,-0.0966 -0.07492,-0.38289 0,-0.28632 0.00527,-0.31329 0.07492,-0.38292 0.041207,-0.0413 0.1105035,-0.075 0.1539963,-0.075 0.043495,0 0.1127929,0.0336 0.1539972,0.075 0.069645,0.0696 0.074921,0.0966 0.074921,0.38292 0,0.2863 -0.00527,0.31326 -0.074921,0.38289 -0.041207,0.0412 -0.1105034,0.075 -0.1539972,0.075 -0.043495,0 -0.1127918,-0.0336 -0.1539963,-0.075 z m 1.1459603,-0.71864 c -0.059346,-0.0593 -0.061046,-0.10177 -0.061046,-1.5261 0,-1.42435 0.00172,-1.46675 0.061046,-1.5261 0.078478,-0.0785 0.2267369,-0.0785 0.3052196,0 0.059346,0.0593 0.061046,0.10177 0.061046,1.5261 0,1.42436 -0.00172,1.46675 -0.061046,1.5261 -0.033912,0.034 -0.1017404,0.061 -0.1526098,0.061 -0.050868,0 -0.1186969,-0.0272 -0.1526098,-0.061 z m -2.9772777,-0.65483 c -0.069645,-0.0696 -0.074921,-0.0966 -0.074921,-0.38293 0,-0.28631 0.00527,-0.31325 0.074921,-0.3829 0.041207,-0.0413 0.1105034,-0.075 0.1539971,-0.075 0.043495,0 0.1127918,0.0337 0.1539971,0.075 0.069645,0.0696 0.07492,0.0966 0.07492,0.3829 0,0.28631 -0.00527,0.31328 -0.07492,0.38293 -0.041207,0.0411 -0.1105034,0.075 -0.1539971,0.075 -0.043495,0 -0.1127929,-0.0337 -0.1539971,-0.075 z m 0.9156587,0 c -0.069645,-0.0696 -0.07492,-0.0966 -0.07492,-0.38293 0,-0.28631 0.00527,-0.31325 0.07492,-0.3829 0.041207,-0.0413 0.1105035,-0.075 0.1539972,-0.075 0.043495,0 0.1127917,0.0337 0.153997,0.075 0.069645,0.0696 0.07492,0.0966 0.07492,0.3829 0,0.28631 -0.00527,0.31328 -0.07492,0.38293 -0.041206,0.0411 -0.1105033,0.075 -0.153997,0.075 -0.043495,0 -0.112793,-0.0337 -0.1539972,-0.075 z m 0.9156587,0 c -0.069645,-0.0696 -0.07492,-0.0966 -0.07492,-0.38293 0,-0.28631 0.00527,-0.31325 0.07492,-0.3829 0.041207,-0.0413 0.1105035,-0.075 0.1539963,-0.075 0.043495,0 0.1127929,0.0337 0.1539972,0.075 0.069645,0.0696 0.074921,0.0966 0.074921,0.3829 0,0.28631 -0.00527,0.31328 -0.074921,0.38293 -0.041207,0.0411 -0.1105034,0.075 -0.1539972,0.075 -0.043495,0 -0.1127918,-0.0337 -0.1539963,-0.075 z m -1.8313174,-1.3735 c -0.069645,-0.0696 -0.074921,-0.0966 -0.074921,-0.38291 0,-0.2863 0.00527,-0.31327 0.074921,-0.38291 0.041207,-0.0413 0.1105034,-0.075 0.1539971,-0.075 0.043495,0 0.1127918,0.0337 0.1539971,0.075 0.069645,0.0696 0.07492,0.0966 0.07492,0.38291 0,0.28631 -0.00527,0.31326 -0.07492,0.38291 -0.041207,0.0412 -0.1105034,0.075 -0.1539971,0.075 -0.043495,0 -0.1127929,-0.0336 -0.1539971,-0.075 z m 0.9156587,0 c -0.069645,-0.0696 -0.07492,-0.0966 -0.07492,-0.38291 0,-0.2863 0.00527,-0.31327 0.07492,-0.38291 0.041207,-0.0413 0.1105035,-0.075 0.1539972,-0.075 0.043495,0 0.1127917,0.0337 0.153997,0.075 0.069645,0.0696 0.07492,0.0966 0.07492,0.38291 0,0.28631 -0.00527,0.31326 -0.07492,0.38291 -0.041206,0.0412 -0.1105033,0.075 -0.153997,0.075 -0.043495,0 -0.112793,-0.0336 -0.1539972,-0.075 z m 0.9156587,0 c -0.069645,-0.0696 -0.07492,-0.0966 -0.07492,-0.38291 0,-0.2863 0.00527,-0.31327 0.07492,-0.38291 0.041207,-0.0413 0.1105035,-0.075 0.1539963,-0.075 0.043495,0 0.1127929,0.0337 0.1539972,0.075 0.069645,0.0696 0.074921,0.0966 0.074921,0.38291 0,0.28631 -0.00527,0.31326 -0.074921,0.38291 -0.041207,0.0412 -0.1105034,0.075 -0.1539972,0.075 -0.043495,0 -0.1127918,-0.0336 -0.1539963,-0.075 z m -1.8313174,-1.37349 c -0.069645,-0.0696 -0.074921,-0.0966 -0.074921,-0.3829 0,-0.28632 0.00527,-0.31328 0.074921,-0.38292 0.041207,-0.0412 0.1105034,-0.075 0.1539971,-0.075 0.043495,0 0.1127918,0.0337 0.1539971,0.075 0.069645,0.0696 0.07492,0.0966 0.07492,0.38292 0,0.2863 -0.00527,0.31326 -0.07492,0.3829 -0.041207,0.0412 -0.1105034,0.075 -0.1539971,0.075 -0.043495,0 -0.1127929,-0.0336 -0.1539971,-0.075 z m 0.9156587,0 c -0.069645,-0.0696 -0.07492,-0.0966 -0.07492,-0.3829 0,-0.28632 0.00527,-0.31328 0.07492,-0.38292 0.041207,-0.0412 0.1105035,-0.075 0.1539972,-0.075 0.043495,0 0.1127917,0.0337 0.153997,0.075 0.069645,0.0696 0.07492,0.0966 0.07492,0.38292 0,0.2863 -0.00527,0.31326 -0.07492,0.3829 -0.041206,0.0412 -0.1105033,0.075 -0.153997,0.075 -0.043495,0 -0.112793,-0.0336 -0.1539972,-0.075 z m 0.9156587,0 c -0.069645,-0.0696 -0.07492,-0.0966 -0.07492,-0.3829 0,-0.28632 0.00527,-0.31328 0.07492,-0.38292 0.041207,-0.0412 0.1105035,-0.075 0.1539963,-0.075 0.043495,0 0.1127929,0.0337 0.1539972,0.075 0.069645,0.0696 0.074921,0.0966 0.074921,0.38292 0,0.2863 -0.00527,0.31326 -0.074921,0.3829 -0.041207,0.0412 -0.1105034,0.075 -0.1539972,0.075 -0.043495,0 -0.1127918,-0.0336 -0.1539963,-0.075 z m 7.9523539,1.87572 v -6.89797 H 11.375852 8.6136158 v 6.89797 6.89796 h 2.7622362 2.762236 z m -4.9750774,1.5261 c -0.059349,-0.0593 -0.061049,-0.10177 -0.061049,-1.5261 0,-1.42435 0.00171,-1.46675 0.061049,-1.5261 0.078485,-0.0785 0.226738,-0.0785 0.3052196,0 0.059349,0.0593 0.061049,0.10177 0.061049,1.5261 0,1.42436 -0.00171,1.46675 -0.061049,1.5261 -0.033915,0.034 -0.1017392,0.061 -0.1526098,0.061 -0.050868,0 -0.1186958,-0.0272 -0.1526098,-0.061 z m -2.6248868,-5.19913 c 0,-0.0225 -0.041458,-0.12386 -0.09212,-0.22524 -0.1122905,-0.22472 -0.3379875,-0.44243 -0.5727078,-0.55244 -0.1487775,-0.0697 -0.2150533,-0.0819 -0.4492236,-0.0819 -0.2341711,0 -0.3004461,0.0122 -0.4492245,0.0819 -0.2347202,0.10996 -0.4604168,0.32772 -0.5727069,0.55244 -0.050669,0.10142 -0.09212,0.20275 -0.09212,0.22524 0,0.0334 0.2031366,0.041 1.1140513,0.041 0.9109138,0 1.1140512,-0.008 1.1140515,-0.041 z"
       id="path4832"
       inkscape:connector-curvature="0" />
    <path
       style="fill:#ffffff;stroke-width:0.00233058;stroke-miterlimit:4;stroke-dasharray:none"
       d="m 8.6221723,288.07239 v -6.87549 h 2.7440337 2.744033 v 6.87549 6.8755 H 11.366206 8.6221723 Z m 0.8056827,1.57026 c 0.1129238,-0.0604 0.1192722,-0.14401 0.1192722,-1.57026 0,-1.42444 -0.00644,-1.50988 -0.1188597,-1.57003 -0.3418259,-0.18294 -0.3911263,0.0616 -0.3637535,1.80381 0.0166,1.05677 0.03636,1.29189 0.112631,1.34004 0.1154753,0.0729 0.107653,0.073 0.25071,-0.003 z"
       id="path4834"
       inkscape:connector-curvature="0" />
    <path
       style="fill:#ffffff;stroke-width:0.00233058;stroke-miterlimit:4;stroke-dasharray:none"
       d="m 2.7024623,295.65702 v -0.21582 h 5.7038874 5.7038893 v 0.21582 0.21583 H 8.4063497 2.7024623 Z"
       id="path4836"
       inkscape:connector-curvature="0" />
    <path
       style="fill:#ffffff;stroke-width:0.00233058;stroke-miterlimit:4;stroke-dasharray:none"
       d="m 2.7024623,288.53487 v -6.41303 h 0.9517721 c 0.5234751,0 1.022938,0.0271 1.1099176,0.0601 0.3263403,0.12408 0.5560471,0.82191 0.2969446,0.9021 -0.5322829,0.16474 -0.9393635,0.51829 -1.1320383,0.98313 -0.076639,0.18492 -0.1724631,0.33621 -0.2129425,0.33621 -0.1301801,0 -0.2274568,0.17677 -0.1866788,0.33924 l 0.039119,0.15585 1.8639239,-0.0163 1.8639248,-0.0163 v -0.18496 c 0,-0.13013 -0.039317,-0.20226 -0.1325673,-0.2432 -0.075767,-0.0333 -0.1619382,-0.15625 -0.2011225,-0.28704 -0.1307475,-0.43639 -0.639267,-0.8909 -1.1924856,-1.06585 -0.079471,-0.025 -0.1079113,-0.10021 -0.1079113,-0.2847 0,-0.46924 -0.2268102,-0.84923 -0.6295966,-1.0548 -0.1980078,-0.10107 -0.3701187,-0.11677 -1.2795208,-0.11677 h -1.050739 v -0.21581 -0.21582 h 2.7132002 2.7132005 v 6.87549 6.87549 H 5.4156618 2.7024612 Z m 2.0040688,5.51889 c 0,-0.40375 -0.00919,-0.43293 -0.1421375,-0.45179 -0.229712,-0.0326 -0.3203401,0.094 -0.3203401,0.44701 0,0.35969 0.082111,0.48088 0.3078855,0.4545 0.1485695,-0.0173 0.1545921,-0.0349 0.1545921,-0.44972 z m 0.8899683,0.37499 c 0.1116528,-0.13452 0.058509,-0.7175 -0.072926,-0.79997 -0.1922413,-0.1206 -0.3213234,0.0265 -0.3425461,0.3901 -0.019942,0.34177 0.053466,0.49736 0.2346347,0.49736 0.059528,0 0.1409013,-0.0394 0.1808376,-0.0874 z m 0.9249552,0 c 0.1116517,-0.13452 0.058509,-0.7175 -0.072926,-0.79997 -0.1922414,-0.1206 -0.3213243,0.0265 -0.3425468,0.3901 -0.019943,0.34177 0.053466,0.49736 0.2346356,0.49736 0.059528,0 0.1409013,-0.0394 0.1808375,-0.0874 z m -1.8580888,-1.3431 c 0.040698,-0.0406 0.073997,-0.23396 0.073997,-0.42948 0,-0.28243 -0.023379,-0.36799 -0.1137945,-0.41636 -0.081905,-0.0439 -0.1510239,-0.0348 -0.2466541,0.0321 -0.2390801,0.16746 -0.1549986,0.88769 0.1036302,0.88769 0.059856,0 0.1421228,-0.0334 0.1828206,-0.074 z m 0.9249552,0 c 0.040697,-0.0406 0.073996,-0.23396 0.073996,-0.42948 0,-0.28834 -0.022524,-0.36753 -0.1192737,-0.4193 -0.1542553,-0.0825 -0.1624976,-0.0816 -0.277136,0.033 -0.063377,0.0634 -0.096899,0.20842 -0.096899,0.4193 0,0.33083 0.073184,0.47041 0.2466541,0.47041 0.054261,0 0.1319605,-0.0333 0.1726582,-0.074 z m 0.9249552,0 c 0.040697,-0.0406 0.073997,-0.23396 0.073997,-0.42948 0,-0.29237 -0.021895,-0.3672 -0.123327,-0.42149 -0.087623,-0.0469 -0.1590313,-0.0469 -0.2466551,0 -0.1014319,0.0543 -0.123327,0.12912 -0.123327,0.42149 0,0.36158 0.069516,0.50347 0.2466551,0.50347 0.054261,0 0.1319604,-0.0333 0.1726582,-0.074 z m -1.8499104,-1.3566 c 0.040698,-0.0406 0.073997,-0.22939 0.073997,-0.41932 0,-0.33714 -0.070836,-0.4933 -0.2237505,-0.4933 -0.1628127,0 -0.2695586,0.19535 -0.2695586,0.4933 0,0.4041 0.2172618,0.62137 0.4193121,0.41932 z m 0.8796783,0.0104 c 0.097029,-0.052 0.1192737,-0.13103 0.1192737,-0.4241 0,-0.42894 -0.098332,-0.55797 -0.3409765,-0.44741 -0.1348777,0.0615 -0.1523327,0.10789 -0.1523327,0.40547 0,0.22329 0.032514,0.36857 0.096899,0.43296 0.1146389,0.11459 0.1228807,0.11562 0.2771361,0.033 z m 0.9434331,-0.0149 c 0.085748,-0.0627 0.1039041,-0.15274 0.088865,-0.44068 -0.021109,-0.40406 -0.1419432,-0.55556 -0.3426357,-0.42961 -0.1592472,0.0999 -0.1880507,0.76053 -0.037952,0.87029 0.059268,0.0434 0.1249087,0.0788 0.1458592,0.0788 0.020954,0 0.086587,-0.0355 0.1458594,-0.0788 z m -1.761298,-1.73006 c 0.019831,-0.38253 -0.048321,-0.53435 -0.2398519,-0.53435 -0.1538901,0 -0.2412738,0.1839 -0.2412738,0.50775 0,0.31161 0.090045,0.42989 0.3078855,0.40442 0.1427695,-0.0166 0.1560182,-0.0457 0.1732402,-0.37782 z m 0.9063061,-0.0343 c 0,-0.3083 -0.023491,-0.40891 -0.1079112,-0.46216 -0.1920979,-0.12119 -0.321313,0.0258 -0.342546,0.38971 -0.021782,0.37337 0.061254,0.51178 0.2910203,0.48509 0.1529093,-0.0178 0.1594371,-0.0346 0.1594369,-0.41264 z m 0.8899693,0.33743 c 0.1116517,-0.13454 0.058509,-0.71751 -0.072926,-0.79997 -0.2478947,-0.15552 -0.4416081,0.28561 -0.3266165,0.74377 0.041509,0.16539 0.2809753,0.19907 0.3995425,0.0562 z m 1.1757636,-2.21952 c 0,-1.29434 -0.01345,-1.5122 -0.097664,-1.58209 -0.070845,-0.0588 -0.1258773,-0.0633 -0.2004068,-0.0163 -0.090528,0.057 -0.1047103,0.24357 -0.1192901,1.56884 -0.014755,1.34096 -0.00544,1.51219 0.0856,1.57879 0.071105,0.052 0.1370326,0.056 0.2169544,0.0132 0.1071431,-0.0573 0.1148099,-0.16168 0.1148099,-1.56249 z m -3.0337384,0.89761 c 0.055746,-0.0353 0.074592,-0.17168 0.06166,-0.44612 -0.016912,-0.35919 -0.031564,-0.39704 -0.1607502,-0.41535 -0.229712,-0.0326 -0.3203401,0.0939 -0.3203401,0.44701 0,0.41252 0.1651662,0.57573 0.4194264,0.41446 z m 0.9328565,-0.0344 c 0.042727,-0.0514 0.064794,-0.23487 0.053794,-0.44706 -0.016697,-0.32215 -0.033507,-0.36188 -0.1607856,-0.37992 -0.229712,-0.0326 -0.3203392,0.0939 -0.3203392,0.447 0,0.17561 0.033298,0.35257 0.073997,0.39327 0.099649,0.0997 0.2647514,0.0935 0.3533317,-0.0133 z m 0.9251183,-1.9e-4 c 0.1116517,-0.13453 0.058509,-0.71752 -0.072926,-0.79997 -0.1922414,-0.1206 -0.3213243,0.0265 -0.3425468,0.39009 -0.019943,0.34176 0.053466,0.49736 0.2346356,0.49736 0.059528,0 0.1409013,-0.0394 0.1808366,-0.0874 z m -1.8580888,-1.34316 c 0.040698,-0.0407 0.073997,-0.23397 0.073997,-0.42948 0,-0.29711 -0.0211,-0.36678 -0.1284569,-0.42423 -0.2079999,-0.11136 -0.3648522,0.0777 -0.3648522,0.43954 0,0.39903 0.2185707,0.6149 0.4193121,0.41417 z m 0.9249552,0 c 0.040697,-0.0407 0.073996,-0.23397 0.073996,-0.42948 0,-0.28835 -0.022524,-0.36753 -0.1192737,-0.41933 -0.1542553,-0.0825 -0.1624976,-0.0816 -0.277136,0.033 -0.063377,0.0634 -0.096899,0.20843 -0.096899,0.41932 0,0.33082 0.073184,0.47041 0.2466541,0.47041 0.054261,0 0.1319605,-0.0333 0.1726582,-0.074 z m 0.9249552,0 c 0.040697,-0.0407 0.073997,-0.23397 0.073997,-0.42948 0,-0.29237 -0.021895,-0.3672 -0.123327,-0.42148 -0.087623,-0.0469 -0.1590313,-0.0469 -0.2466551,0 -0.1014319,0.0543 -0.123327,0.12911 -0.123327,0.42148 0,0.36158 0.069516,0.50347 0.2466551,0.50347 0.054261,0 0.1319604,-0.0333 0.1726582,-0.074 z m -1.8951873,-1.34645 c 0.096748,-0.0517 0.1192737,-0.13097 0.1192737,-0.4193 0,-0.46685 -0.165944,-0.63705 -0.3964088,-0.40659 -0.1321426,0.13216 -0.1288481,0.62889 0.00517,0.77695 0.1194567,0.13202 0.1174504,0.13165 0.2719828,0.049 z m 0.9434332,-0.0149 c 0.085748,-0.0627 0.1039052,-0.15275 0.088865,-0.44069 -0.021109,-0.40406 -0.1419424,-0.55557 -0.3426358,-0.4296 -0.1523491,0.0957 -0.1846534,0.70938 -0.044703,0.84933 0.1203641,0.12037 0.1588362,0.12307 0.2984743,0.021 z m 0.9249551,0 c 0.085748,-0.0627 0.1039041,-0.15275 0.088865,-0.44069 -0.021109,-0.40406 -0.1419432,-0.55557 -0.3426357,-0.4296 -0.1592472,0.0999 -0.1880507,0.76052 -0.037952,0.87029 0.059268,0.0433 0.1249087,0.0788 0.1458592,0.0788 0.020954,0 0.086587,-0.0355 0.1458594,-0.0788 z"
       id="path4838"
       inkscape:connector-curvature="0" />
    <path
       style="fill:#ffffff;stroke-width:0.00233058;stroke-miterlimit:4;stroke-dasharray:none"
       d="m 4.3673805,284.36952 c 0,-0.0186 0.040629,-0.11251 0.090281,-0.20847 0.2055844,-0.39757 0.7430437,-0.66685 1.1707908,-0.58661 0.2448084,0.046 0.674032,0.39136 0.8078614,0.65017 l 0.092462,0.17881 h -1.080698 c -0.5943827,0 -1.0806972,-0.0153 -1.0806972,-0.034 z"
       id="path4840"
       inkscape:connector-curvature="0" />
  </g>
</svg>
