<?xml version="1.0" encoding="UTF-8" standalone="no"?>
<!-- Created with Inkscape (http://www.inkscape.org/) -->

<svg
   xmlns:dc="http://purl.org/dc/elements/1.1/"
   xmlns:cc="http://creativecommons.org/ns#"
   xmlns:rdf="http://www.w3.org/1999/02/22-rdf-syntax-ns#"
   xmlns:svg="http://www.w3.org/2000/svg"
   xmlns="http://www.w3.org/2000/svg"
   xmlns:sodipodi="http://sodipodi.sourceforge.net/DTD/sodipodi-0.dtd"
   xmlns:inkscape="http://www.inkscape.org/namespaces/inkscape"
   width="64"
   height="64"
   viewBox="0 0 16.933333 16.933334"
   version="1.1"
   id="svg8"
   inkscape:version="0.92.5 (2060ec1f9f, 2020-04-08)"
   sodipodi:docname="purge_water_64x64.svg">
  <defs
     id="defs2" />
  <sodipodi:namedview
     id="base"
     pagecolor="#ffffff"
     bordercolor="#666666"
     borderopacity="1.0"
     inkscape:pageopacity="0.0"
     inkscape:pageshadow="2"
     inkscape:zoom="5.6"
     inkscape:cx="72.763111"
     inkscape:cy="20.223624"
     inkscape:document-units="mm"
     inkscape:current-layer="layer1"
     showgrid="false"
     units="px"
     inkscape:window-width="1208"
     inkscape:window-height="987"
     inkscape:window-x="1992"
     inkscape:window-y="0"
     inkscape:window-maximized="1" />
  <metadata
     id="metadata5">
    <rdf:RDF>
      <cc:Work
         rdf:about="">
        <dc:format>image/svg+xml</dc:format>
        <dc:type
           rdf:resource="http://purl.org/dc/dcmitype/StillImage" />
        <dc:title></dc:title>
      </cc:Work>
    </rdf:RDF>
  </metadata>
  <g
     inkscape:label="Layer 1"
     inkscape:groupmode="layer"
     id="layer1"
     transform="translate(0,-280.06665)">
    <path
       style="fill:#000000;stroke-width:0.0709298"
       d="m 2.9752725,296.5266 c -0.020116,-0.0524 -0.027273,-0.38006 -0.015909,-0.72808 l 0.020676,-0.63276 1.7200473,-0.019 1.7200473,-0.019 v -2.72954 -2.72953 H 5.1433984 3.8666633 v 2.48254 2.48252 H 3.6538671 3.441077 v -2.69747 c 0,-2.33238 0.014402,-2.70308 0.1063932,-2.73838 0.1395173,-0.0535 0.135931,-0.23666 -0.00673,-0.34094 -0.071315,-0.0521 -0.1761131,-0.39555 -0.283786,-0.92991 -0.093896,-0.46597 -0.2034191,-1.00783 -0.2433872,-1.2041 l -0.072671,-0.35686 -0.4806873,0.0271 c -0.4384078,0.0248 -0.5005931,0.0102 -0.7069873,-0.16324 -0.2405391,-0.2024 -0.3582948,-0.51091 -0.3129479,-0.81987 0.059016,-0.4021 0.2729213,-0.53429 2.1780707,-1.34605 l 1.8441738,-0.78576 1.2443902,-1.24028 1.244389,-1.2403 0.1713169,0.18236 0.1713183,0.18237 -1.2479467,1.24795 -1.2479478,1.24793 -1.8700757,0.79958 c -1.985592,0.84896 -2.1551052,0.95978 -1.9479293,1.27356 0.2070041,0.31349 0.5120066,0.24287 2.9207039,-0.67643 2.4972463,-0.95311 2.5680917,-0.96659 2.9698785,-0.56514 l 0.2163054,0.21611 0.035477,1.48604 c 0.039385,1.65039 0.063074,1.73131 0.5029867,1.7188 0.4222751,-0.0125 0.4507823,-0.0987 0.4900296,-1.48942 0.043506,-1.54202 0.085816,-1.6432 0.993017,-2.37527 1.207132,-0.97412 1.47156,-1.23908 1.698284,-1.7017 0.134213,-0.27384 0.23424,-0.61151 0.26242,-0.88584 l 0.04554,-0.44332 h 0.23815 c 0.228057,0 0.238113,0.0112 0.237307,0.26598 -0.0018,0.58266 -0.36123,1.48123 -0.785843,1.96483 -0.120734,0.13749 -0.423771,0.41255 -0.673423,0.61121 -0.384271,0.30576 -0.443113,0.38136 -0.383526,0.49269 0.03871,0.0723 0.07038,0.24533 0.07038,0.38444 0,0.20832 0.02584,0.25292 0.146523,0.25292 0.37732,0 0.677392,0.41261 0.608556,0.83679 -0.0296,0.18242 -0.0036,0.29385 0.0989,0.42418 0.215956,0.27454 0.185947,0.68909 -0.06829,0.94333 -0.202737,0.20272 -0.223783,0.20732 -0.949501,0.20732 H 9.9117469 l -0.031232,-0.21279 -0.031232,-0.21278 h 0.5952801 c 0.648042,0 0.869676,-0.0723 0.869676,-0.28373 0,-0.21187 -0.2219,-0.28372 -0.876159,-0.28372 -0.8482628,0 -0.8261577,-0.0175 -0.8261577,0.65297 0,0.66263 -0.1279705,0.99967 -0.4553643,1.19932 -0.284742,0.17362 -0.7905607,0.17362 -1.0753027,0 -0.230735,-0.14071 -0.4553656,-0.52849 -0.4553656,-0.7861 0,-0.16632 -0.053527,-0.16212 -0.5435287,0.0427 -0.2237256,0.0935 -0.2366989,0.11838 -0.2366989,0.45483 0,0.25095 -0.031382,0.36798 -0.1063931,0.39676 -0.1501654,0.0576 -0.1501654,0.7739 0,0.83153 0.088642,0.034 0.1063931,0.23654 0.1063931,1.21339 0,0.64492 0.018684,1.17258 0.041539,1.17258 0.022842,0 1.1000904,-0.24527 2.3938806,-0.54504 2.2468403,-0.52057 2.4016603,-0.54682 3.4517603,-0.58517 l 1.099413,-0.0401 0.02095,-0.47743 c 0.03248,-0.74029 0.0052,-0.76445 -0.856864,-0.76055 -0.536325,0.004 -1.222019,0.0907 -2.63964,0.33986 l -1.9151045,0.33654 -0.057248,-0.20575 c -0.031493,-0.11315 -0.039136,-0.22387 -0.017004,-0.24601 0.022132,-0.0221 0.9096857,-0.19295 1.9723455,-0.37963 2.251969,-0.39558 3.245981,-0.45137 3.650253,-0.20488 0.12574,0.0767 0.246537,0.21221 0.268438,0.30118 0.0219,0.089 0.03075,0.73634 0.01963,1.43855 l -0.02019,1.27674 H 13.087522 11.91718 l -0.02127,-0.40786 c -0.01714,-0.32864 -0.04469,-0.40767 -0.14186,-0.40703 -0.157433,6.7e-4 -4.7515128,1.0455 -4.8403405,1.1004 -0.039884,0.0247 -0.068004,0.65455 -0.068004,1.52287 v 1.48085 l 0.230521,0.0222 0.2305221,0.0221 v 0.7093 0.70929 l -2.1474522,0.0188 c -1.7455744,0.0152 -2.1542973,6.5e-4 -2.1840295,-0.0766 z m 3.9281289,-0.6338 -0.02222,-0.23053 -1.7555117,-0.0189 -1.7555117,-0.019 v 0.20222 c 0,0.11116 0.021273,0.22348 0.04729,0.24948 0.026004,0.026 0.8259902,0.0472 1.7777376,0.0472 h 1.730452 z m 6.9288936,-4.73455 v -0.24827 h -0.744763 c -0.72527,0 -0.745373,0.005 -0.768105,0.16474 -0.04962,0.35035 0.0025,0.37371 0.78457,0.35199 l 0.728298,-0.0202 z m -7.695884,-2.30523 c 0,-0.17556 -0.023938,-0.31978 -0.053203,-0.32048 -0.029266,-6.7e-4 -0.4761165,0.068 -0.9930176,0.15259 -0.8953542,0.14661 -0.9398198,0.16178 -0.9398198,0.32048 v 0.16659 h 0.9930178 0.9930163 z m -0.9575508,-0.67631 c 1.2215668,-0.19455 1.2281606,-0.19772 1.2549785,-0.60463 l 0.021759,-0.33011 0.5674388,-0.22682 0.5674387,-0.22685 0.02044,-0.57102 0.02044,-0.57103 -0.907059,0.16234 c -0.4988815,0.0893 -1.4090525,0.24989 -2.0226049,0.35693 -0.6135512,0.10706 -1.1453663,0.21304 -1.1818116,0.23557 -0.0391,0.0242 0.00548,0.40439 0.1086213,0.92725 0.2250027,1.14026 0.2008399,1.08252 0.4331634,1.03508 0.1073143,-0.0219 0.6100546,-0.10594 1.1172026,-0.18671 z M 10.9643,285.90694 c 0.286073,-0.1531 0.09028,-0.49402 -0.283718,-0.49402 -0.163735,0 -0.19738,0.19802 -0.07309,0.43023 0.08318,0.15543 0.159932,0.16916 0.356815,0.0639 z m -0.940053,-0.10245 c 0.01233,-0.0125 5.75e-4,-0.13913 -0.0262,-0.28175 -0.03983,-0.21232 -0.076008,-0.25542 -0.1996317,-0.23777 -0.1235465,0.0177 -0.1550262,0.0779 -0.1732265,0.3318 -0.022082,0.3081 -0.020825,0.30992 0.17718,0.26022 0.1096795,-0.0275 0.2095242,-0.0601 0.2218712,-0.0726 z m -3.6354016,-0.4339 c 0.6218839,-0.10618 1.1578056,-0.21676 1.190941,-0.24561 0.1025342,-0.0893 -0.025742,-0.34798 -0.1934085,-0.39007 -0.1319913,-0.0331 -1.7335783,0.51593 -2.4203076,0.82973 -0.1699278,0.0777 -0.1599172,0.0763 1.4227751,-0.19405 z M 10.3922,284.70777 c 0,-0.0988 -0.130393,-0.16149 -0.220363,-0.10593 -0.05472,0.0337 -0.04934,0.067 0.01772,0.10954 0.126615,0.0803 0.202629,0.0789 0.202629,-0.004 z m 1.702315,9.53589 v -2.09244 h 0.248254 0.248255 v 2.09244 2.09242 h -0.248255 -0.248254 z m 1.489525,0 v -2.09244 h 0.248255 0.248253 v 2.09244 2.09242 H 13.832295 13.58404 Z m -6.2058429,-4.43078 c -0.057996,-0.26404 -0.063597,-0.25599 0.2204355,-0.31677 0.2055926,-0.044 0.2241127,-0.0315 0.2664795,0.18036 0.053838,0.26918 0.058431,0.26251 -0.21935,0.31807 -0.2004541,0.0401 -0.2220863,0.0254 -0.267565,-0.18166 z M 12.35201,284.7568 c -0.07154,-0.26695 -0.05337,-0.30527 0.185816,-0.39199 0.580974,-0.21063 1.137742,-0.99717 1.246065,-1.76033 0.04663,-0.32856 0.06222,-0.34919 0.27942,-0.37019 0.219543,-0.0212 0.230028,-0.0112 0.230028,0.22421 0,0.38472 -0.251079,1.09706 -0.52883,1.50035 -0.248757,0.36118 -0.662681,0.70408 -1.052695,0.87208 -0.272202,0.11726 -0.310637,0.1093 -0.359804,-0.0742 z m -0.244617,-0.78694 c -0.05144,-0.19637 -0.03588,-0.23781 0.126863,-0.33796 0.299059,-0.18402 0.552029,-0.53251 0.719041,-0.99056 0.14865,-0.40769 0.166187,-0.42666 0.375604,-0.40624 0.258008,0.0252 0.261298,0.12925 0.02411,0.76316 -0.15723,0.42024 -0.744824,1.07977 -1.027961,1.15382 -0.132978,0.0347 -0.168645,0.005 -0.217667,-0.18222 z"
       id="path186"
       inkscape:connector-curvature="0" />
    <path
       style="fill:#f9f9f9;stroke:#000000;stroke-width:0.00661258;stroke-linecap:butt;stroke-linejoin:miter;stroke-miterlimit:4;stroke-dasharray:none;stroke-opacity:1"
       d="m 12.114672,281.0152 v 0 0 l -0.0079,-1.63035"
       id="path188"
       inkscape:connector-curvature="0" />
    <path
       style="fill:none;stroke:#000000;stroke-width:0.00661258;stroke-linecap:butt;stroke-linejoin:miter;stroke-miterlimit:4;stroke-dasharray:none;stroke-opacity:1"
       d="m 12.575478,291.44445 0.03125,5.84233"
       id="path4698"
       inkscape:connector-curvature="0" />
    <path
       style="fill:none;stroke:#000000;stroke-width:0.00661258;stroke-linecap:butt;stroke-linejoin:miter;stroke-miterlimit:4;stroke-dasharray:none;stroke-opacity:1"
       d="m 13.536368,291.79831 0.03125,5.84233"
       id="path4698-3"
       inkscape:connector-curvature="0" />
    <path
       style="fill:none;stroke:#000000;stroke-width:0.00661258;stroke-linecap:butt;stroke-linejoin:miter;stroke-miterlimit:4;stroke-dasharray:none;stroke-opacity:1"
       d="m 6.4201286,289.66869 2.9686175,-0.41122"
       id="path4717"
       inkscape:connector-curvature="0" />
    <path
       style="fill:none;stroke:#000000;stroke-width:0.00661258;stroke-linecap:butt;stroke-linejoin:miter;stroke-miterlimit:4;stroke-dasharray:none;stroke-opacity:1"
       d="m 3.441077,294.63375 -0.070929,0.99056"
       id="path4719"
       inkscape:connector-curvature="0" />
    <path
       style="fill:none;stroke:#000000;stroke-width:0.00661258;stroke-linecap:butt;stroke-linejoin:miter;stroke-miterlimit:4;stroke-dasharray:none;stroke-opacity:1"
       d="M 9.9117342,287.39889 9.2950187,287.28921"
       id="path4721"
       inkscape:connector-curvature="0" />
    <path
       style="fill:none;stroke:#000000;stroke-width:0.00661258;stroke-linecap:butt;stroke-linejoin:miter;stroke-miterlimit:4;stroke-dasharray:none;stroke-opacity:1"
       d="m 7.9513059,280.79761 4.1633661,0.21759"
       id="path4733"
       inkscape:connector-curvature="0" />
    <path
       style="fill:none;stroke:#000000;stroke-width:0.00661258;stroke-linecap:butt;stroke-linejoin:miter;stroke-miterlimit:4;stroke-dasharray:none;stroke-opacity:1"
       d="m 12.606721,297.28678 0.960894,0.35386"
       id="path4735"
       inkscape:connector-curvature="0" />
    <path
       style="fill:#ffffff;stroke-width:0.00118082;stroke-miterlimit:4;stroke-dasharray:none"
       d="m 8.3785391,287.86886 c -0.1726589,-0.0733 -0.2126195,-0.39724 -0.2517884,-2.04104 l -0.026664,-1.11921 -0.1842194,-0.18753 c -0.2389893,-0.2433 -0.326164,-0.2875 -0.5591285,-0.28351 -0.3076202,0.005 -0.7290002,0.14572 -2.9055484,0.96832 -1.3173604,0.49789 -1.7590818,0.6383 -2.0634307,0.6559 l -0.2513689,0.0145 -0.1001063,-0.11403 c -0.2656207,-0.30252 -0.089028,-0.42912 1.6494684,-1.1825 0.4553593,-0.19732 1.117072,-0.4809 1.4704721,-0.63013 l 0.6425476,-0.27135 1.2578913,-1.25818 1.2578913,-1.25819 -0.1630079,-0.17836 -0.1630067,-0.17835 0.1996013,0.0175 c 0.1097791,0.0102 1.0290869,0.0606 2.0429041,0.11327 1.013815,0.0526 1.84884,0.10137 1.855608,0.10806 0.03579,0.0357 -0.07203,0.68342 -0.155113,0.93184 -0.217421,0.65004 -0.450948,0.92266 -1.588518,1.85449 -0.6039474,0.49472 -0.8162967,0.69157 -0.9444603,0.87549 -0.2075506,0.29784 -0.2567962,0.60034 -0.3071733,1.88684 -0.034232,0.87409 -0.063522,1.08031 -0.1712659,1.20557 -0.060721,0.0705 -0.099696,0.0838 -0.2704205,0.0917 -0.1097044,0.005 -0.2317322,-0.005 -0.2711576,-0.0212 z"
       id="path4741"
       inkscape:connector-curvature="0" />
    <path
       style="fill:#ffffff;stroke-width:0.00118082;stroke-miterlimit:4;stroke-dasharray:none"
       d="m 5.0357965,285.5572 c 0.1858028,-0.11626 1.9556446,-0.74417 2.24974,-0.79808 0.1021479,-0.0186 0.1277428,-0.0102 0.2108868,0.0733 0.06285,0.0629 0.09463,0.12579 0.09463,0.1874 0,0.0888 -0.00921,0.095 -0.2108868,0.1431 -0.2859195,0.0682 -0.7378744,0.15163 -1.538691,0.28388 -0.369442,0.061 -0.7138909,0.11838 -0.7654405,0.12739 -0.07546,0.0133 -0.083302,0.0102 -0.040244,-0.0171 z"
       id="path4743"
       inkscape:connector-curvature="0" />
    <path
       style="fill:#ffffff;stroke-width:0.00118082;stroke-miterlimit:4;stroke-dasharray:none"
       d="M 3.8549186,288.25765 C 3.7903006,288.103 3.5615377,286.93507 3.5392271,286.64593 l -0.018411,-0.23861 0.1683817,-0.0365 c 0.1990027,-0.0431 1.2646369,-0.23631 2.8201863,-0.51126 l 1.1209221,-0.19814 -0.019406,0.2054 c -0.010705,0.11302 -0.019506,0.36223 -0.01963,0.55391 l -2.278e-4,0.34851 -0.5740524,0.22894 -0.5740524,0.22894 -0.020863,0.27643 c -0.035875,0.47522 0.031107,0.44342 -1.4614997,0.69371 -0.5618161,0.0942 -1.0299994,0.17128 -1.0404059,0.17128 -0.010457,0 -0.039771,-0.05 -0.065253,-0.11091 z"
       id="path4745"
       inkscape:connector-curvature="0" />
    <path
       style="fill:#ffffff;stroke-width:0.00118082;stroke-miterlimit:4;stroke-dasharray:none"
       d="m 4.1543829,289.06186 c 0,-0.19886 0.071339,-0.22304 1.1795547,-0.39996 0.3995973,-0.0639 0.7370155,-0.10557 0.7498196,-0.0928 0.012809,0.0128 0.028195,0.14861 0.034194,0.30185 l 0.010954,0.27862 H 5.1416594 4.1544128 Z"
       id="path4747"
       inkscape:connector-curvature="0" />
    <path
       style="fill:#ffffff;stroke-width:0.00118082;stroke-miterlimit:4;stroke-dasharray:none"
       d="m 3.4362335,294.97356 c 7.344e-4,-0.31639 0.00722,-0.32527 0.2375355,-0.32527 h 0.1994319 v -2.48377 -2.48378 h 1.2653204 1.2653203 v 2.7181 2.71808 l -0.5701762,7e-5 c -0.3135952,3e-5 -0.9814036,0.009 -1.4840169,0.0207 l -0.9138419,0.0206 z"
       id="path4749"
       inkscape:connector-curvature="0" />
    <path
       style="fill:#ffffff;stroke-width:0.00118082;stroke-miterlimit:4;stroke-dasharray:none"
       d="m 3.8834917,296.08713 c -0.243498,-0.0102 -0.450837,-0.0255 -0.4607531,-0.0354 -0.00996,-0.0102 -0.027336,-0.10718 -0.038713,-0.21606 l -0.020689,-0.1979 1.7444329,0.0211 c 0.9594379,0.0112 1.7476072,0.0244 1.7514873,0.0287 0.00386,0.004 0.017103,0.10244 0.029402,0.21842 l 0.022344,0.21088 -1.292391,-0.006 c -0.7108162,-0.004 -1.4916176,-0.0139 -1.7351168,-0.0235 z"
       id="path4751"
       inkscape:connector-curvature="0" />
    <path
       style="fill:#ffffff;stroke-width:0.00118082;stroke-miterlimit:4;stroke-dasharray:none"
       d="m 6.8892405,291.51623 c -0.00685,-0.0215 -0.018025,-0.45601 -0.024746,-0.96559 l -0.012199,-0.92656 0.1741278,-0.0209 c 0.095774,-0.0112 0.2036829,-0.0279 0.2398071,-0.0363 0.058157,-0.0138 0.067729,10e-4 0.083613,0.1351 0.00983,0.0829 0.03341,0.19121 0.05232,0.24081 0.032738,0.0859 0.041439,0.0894 0.1819464,0.0726 0.081161,-0.0102 0.1881341,-0.033 0.237727,-0.0519 0.08619,-0.0329 0.089327,-0.041 0.071091,-0.18195 -0.010457,-0.0812 -0.027622,-0.17737 -0.038079,-0.21382 -0.021423,-0.0746 0.00834,-0.0867 0.3001102,-0.12174 l 0.1733535,-0.0208 0.040979,0.20618 c 0.022543,0.1134 0.050527,0.21207 0.06219,0.21928 0.011701,0.007 0.6954927,-0.10431 1.5196232,-0.24781 2.1499803,-0.37438 3.0587083,-0.47559 3.5431953,-0.39462 0.323099,0.0541 0.329651,0.0671 0.329651,0.65833 0,0.27302 -0.0076,0.50396 -0.01685,0.5132 -0.0092,0.009 -0.381828,0.0316 -0.827926,0.0496 -1.326323,0.0535 -1.343039,0.0564 -4.11716,0.69117 -1.0450902,0.23914 -1.9136812,0.4348 -1.9302021,0.4348 -0.016519,0 -0.035676,-0.0175 -0.04256,-0.0391 z"
       id="path4753"
       inkscape:connector-curvature="0" />
    <path
       style="fill:#ffffff;stroke-width:0.00118082;stroke-miterlimit:4;stroke-dasharray:none"
       d="m 12.514294,291.40156 c -0.06733,-0.014 -0.141766,-0.052 -0.165415,-0.0844 -0.0539,-0.0736 -0.02456,-0.29205 0.04671,-0.34772 0.03651,-0.0286 0.233756,-0.0391 0.731355,-0.0391 h 0.681363 v 0.23432 0.23432 l -0.335857,1.9e-4 c -0.18472,1.1e-4 -0.44833,0.006 -0.585796,0.014 -0.137466,0.007 -0.305028,0.002 -0.372358,-0.0112 z"
       id="path4755"
       inkscape:connector-curvature="0" />
    <path
       style="fill:#ffffff;stroke-width:0.00118082;stroke-miterlimit:4;stroke-dasharray:none"
       d="m 13.089729,297.44482 -0.453017,-0.16549 -0.0074,-0.21422 c -0.0041,-0.11789 -0.01108,-1.34248 -0.01562,-2.72145 l -0.0082,-2.50721 0.456221,10e-6 0.456221,1e-5 0.01671,2.88211 c 0.0092,1.58518 0.01478,2.88428 0.01245,2.88692 -0.0024,0.002 -0.208157,-0.0697 -0.457317,-0.16068 z"
       id="path4757"
       inkscape:connector-curvature="0" />
    <path
       style="fill:#ffffff;stroke-width:0.00118082;stroke-miterlimit:4;stroke-dasharray:none"
       d="m 10.675455,285.90816 c -0.10821,-0.11963 -0.152382,-0.3654 -0.07887,-0.4389 0.05632,-0.0563 0.215464,-0.045 0.327612,0.0234 0.208476,0.12712 0.213057,0.30402 0.01058,0.40733 -0.151024,0.0771 -0.195657,0.0784 -0.25929,0.009 z"
       id="path4759"
       inkscape:connector-curvature="0" />
    <path
       style="fill:#ffffff;stroke-width:0.00118082;stroke-miterlimit:4;stroke-dasharray:none"
       d="m 9.6888962,287.34632 c -0.073082,-0.0139 -0.073443,-0.0162 -0.062439,-0.38902 0.01083,-0.36614 0.013157,-0.37685 0.098688,-0.45042 0.085742,-0.0737 0.099435,-0.0754 0.6404218,-0.0728 0.627355,0.002 0.797183,0.0339 0.89291,0.16294 0.05977,0.0807 0.06112,0.0939 0.01744,0.17183 -0.07615,0.13593 -0.23206,0.1695 -0.865227,0.18632 -0.6370469,0.0169 -0.5869374,-0.007 -0.5420238,0.26526 0.026539,0.16122 0.02217,0.16429 -0.1797679,0.12593 z"
       id="path4761"
       inkscape:connector-curvature="0" />
    <path
       style="fill:#ffffff;stroke-width:0.00118082;stroke-miterlimit:4;stroke-dasharray:none"
       d="m 9.6378357,285.64266 c 0.028008,-0.28366 0.054659,-0.33587 0.171434,-0.33587 0.1109491,0 0.1442303,0.0541 0.1821813,0.29611 l 0.02811,0.17923 -0.1041399,0.0436 c -0.057273,0.0239 -0.1481973,0.0436 -0.2020423,0.0436 h -0.097904 z"
       id="path4763"
       inkscape:connector-curvature="0" />
    <path
       style="fill:#ffffff;stroke-width:0.00118082;stroke-miterlimit:4;stroke-dasharray:none"
       d="m 10.207611,284.71068 c -0.06783,-0.0394 -0.06993,-0.0786 -0.0056,-0.10344 0.06372,-0.0244 0.16957,0.0327 0.16957,0.0913 0,0.0525 -0.08388,0.0587 -0.164023,0.0125 z"
       id="path4765"
       inkscape:connector-curvature="0" />
  </g>
</svg>
