<?xml version="1.0" encoding="UTF-8" standalone="no"?>
<!-- Created with Inkscape (http://www.inkscape.org/) -->

<svg
   xmlns:dc="http://purl.org/dc/elements/1.1/"
   xmlns:cc="http://creativecommons.org/ns#"
   xmlns:rdf="http://www.w3.org/1999/02/22-rdf-syntax-ns#"
   xmlns:svg="http://www.w3.org/2000/svg"
   xmlns="http://www.w3.org/2000/svg"
   xmlns:sodipodi="http://sodipodi.sourceforge.net/DTD/sodipodi-0.dtd"
   xmlns:inkscape="http://www.inkscape.org/namespaces/inkscape"
   width="64"
   height="64"
   viewBox="0 0 16.933333 16.933334"
   version="1.1"
   id="svg8"
   inkscape:version="0.92.5 (2060ec1f9f, 2020-04-08)"
   sodipodi:docname="q_tip_64x64.svg">
  <defs
     id="defs2" />
  <sodipodi:namedview
     id="base"
     pagecolor="#ffffff"
     bordercolor="#666666"
     borderopacity="1.0"
     inkscape:pageopacity="0.0"
     inkscape:pageshadow="2"
     inkscape:zoom="2.8"
     inkscape:cx="-11.72289"
     inkscape:cy="9.3733259"
     inkscape:document-units="mm"
     inkscape:current-layer="layer1"
     showgrid="false"
     units="px"
     inkscape:window-width="1208"
     inkscape:window-height="987"
     inkscape:window-x="1992"
     inkscape:window-y="0"
     inkscape:window-maximized="1" />
  <metadata
     id="metadata5">
    <rdf:RDF>
      <cc:Work
         rdf:about="">
        <dc:format>image/svg+xml</dc:format>
        <dc:type
           rdf:resource="http://purl.org/dc/dcmitype/StillImage" />
        <dc:title></dc:title>
      </cc:Work>
    </rdf:RDF>
  </metadata>
  <g
     inkscape:label="Layer 1"
     inkscape:groupmode="layer"
     id="layer1"
     transform="translate(0,-280.06665)">
    <path
       style="fill:#000000;stroke-width:0.03888099"
       d="m 11.457197,296.35528 c -0.531552,-0.18803 -0.973549,-1.09861 -1.100643,-2.26754 l -0.0444,-0.40825 -1.0075312,-2.17735 c -0.5541393,-1.19753 -1.0396369,-2.23638 -1.0788812,-2.30854 -0.080971,-0.14891 -0.1771265,-0.20532 -0.9753401,-0.57223 -0.960511,-0.4415 -1.7200239,-0.79362 -1.9634896,-0.91028 -1.5430494,-0.73934 -1.6500846,-0.78182 -2.1184002,-0.84088 -1.4601666,-0.18415 -2.28410989,-0.65807 -2.36314738,-1.35927 -0.0382892,-0.33975 0.16523799,-0.70111 0.48222548,-0.8562 0.1879601,-0.0919 0.242966,-0.10071 0.5332098,-0.0855 0.2714909,0.0147 0.3720733,0.04 0.6243234,0.15985 0.4376156,0.20783 0.8082471,0.46848 1.2070069,0.8488 l 0.3517092,0.33546 1.4385973,0.67144 c 0.7912285,0.3693 1.5642758,0.72915 1.7178866,0.79965 l 0.2792893,0.12817 -0.1092998,-0.24084 c -0.06012,-0.13243 -0.4193496,-0.9053 -0.798297,-1.71743 l -0.6889943,-1.4766 -0.3363754,-0.3526 c -0.3808675,-0.39925 -0.6417307,-0.76996 -0.8491342,-1.20669 -0.1746251,-0.36771 -0.2204023,-0.80101 -0.1140513,-1.07949 0.1201907,-0.31472 0.4876219,-0.57069 0.8191739,-0.57069 0.7088471,0 1.2716008,0.91664 1.4242188,2.31987 l 0.045816,0.42123 1.0727563,2.31027 1.0727564,2.31026 0.4872252,0.22912 c 0.2679722,0.12605 0.5572081,0.26222 0.6427481,0.30265 0.08554,0.0405 0.890374,0.41688 1.788526,0.83653 l 1.633001,0.76302 0.447132,0.0567 c 1.206173,0.15284 2.028521,0.53071 2.271391,1.04392 0.264121,0.55812 -0.07687,1.1836 -0.696711,1.27792 -0.240324,0.0366 -0.652211,-0.0691 -1.009108,-0.25897 -0.417307,-0.222 -0.706926,-0.43619 -1.090466,-0.80643 l -0.311047,-0.30027 -1.438597,-0.67064 c -0.791229,-0.36885 -1.564278,-0.72832 -1.7178877,-0.79883 l -0.2792893,-0.12817 0.1091692,0.24083 c 0.060038,0.13242 0.4191098,0.90572 0.7979208,1.71834 l 0.688746,1.47746 0.300755,0.31106 c 0.370354,0.38301 0.584596,0.67254 0.806911,1.09046 0.18947,0.35616 0.295386,0.76795 0.259552,1.00911 -0.08745,0.5885 -0.651803,0.92952 -1.21097,0.73173 z m 0.461144,-0.32346 c 0.07606,-0.0211 0.18979,-0.092 0.252727,-0.15789 0.104957,-0.10956 0.114428,-0.14254 0.114428,-0.39878 0,-0.24295 -0.01914,-0.31943 -0.146871,-0.58693 -0.08078,-0.16919 -0.226923,-0.41979 -0.324772,-0.55692 -0.228897,-0.32076 -0.629443,-0.74905 -0.700543,-0.74905 -0.03034,0 -0.138871,0.0425 -0.241179,0.0942 l -0.18602,0.0942 0.03256,0.30396 c 0.101149,0.94401 0.468584,1.76852 0.865103,1.94125 0.144928,0.0632 0.161403,0.0638 0.33455,0.0163 z m -1.156988,-2.70721 c 0.06844,-0.0348 0.130574,-0.0686 0.138086,-0.0753 0.01142,-0.009 -1.7067996,-3.73036 -2.1718103,-4.70219 -0.081852,-0.17109 -0.5970083,-1.27305 -1.1447793,-2.44883 -0.5477712,-1.17578 -1.0108618,-2.15269 -1.0290937,-2.17092 -0.025602,-0.0256 -0.2354942,0.0496 -0.306175,0.10972 -0.017161,0.0147 0.023904,0.10352 2.2067609,4.78225 2.1611374,4.6321 2.1310384,4.56852 2.1622074,4.56852 0.01127,0 0.07637,-0.0284 0.144796,-0.0632 z m 5.042822,-1.08367 c 0.151442,-0.14516 0.21435,-0.36631 0.155165,-0.54565 -0.135163,-0.40955 -0.97941,-0.79988 -1.956601,-0.90457 l -0.303955,-0.0325 -0.09426,0.18602 c -0.05185,0.10236 -0.09426,0.21019 -0.09426,0.23972 0,0.13111 0.765474,0.75697 1.185454,0.96925 0.378138,0.19112 0.491239,0.22312 0.748201,0.21163 0.206617,-0.009 0.259711,-0.0275 0.360267,-0.12377 z m -2.551765,-1.40545 c 0.03718,-0.0781 0.05286,-0.15659 0.03483,-0.17456 -0.01803,-0.018 -0.749444,-0.3667 -1.625367,-0.77483 -0.875923,-0.40812 -1.7413083,-0.81273 -1.9230768,-0.89914 -0.5377359,-0.2556 -0.5115768,-0.25248 -0.4372891,-0.0521 0.034648,0.0936 0.090768,0.20679 0.1246971,0.25177 0.048625,0.0645 3.6434498,1.78631 3.7366358,1.78977 0.01209,4.4e-4 0.05238,-0.063 0.08958,-0.14091 z m -5.4008471,-2.45342 c -0.1470175,-0.35185 -0.079109,-0.31076 -1.9802143,-1.19784 -0.9830223,-0.45869 -1.8151755,-0.84282 -1.8492276,-0.85363 -0.070749,-0.0225 -0.2191043,0.24279 -0.1656758,0.29622 0.017455,0.0175 0.7313702,0.35805 1.5864854,0.75689 0.8551152,0.39885 1.6859783,0.78773 1.846362,0.86421 0.2640307,0.12589 0.5868392,0.27214 0.612897,0.27766 0.00571,0.001 -0.017144,-0.0633 -0.050633,-0.14353 z m -4.3149412,-2.03036 c 0.053817,-0.10613 0.097854,-0.21792 0.097854,-0.24826 0,-0.0712 -0.4282825,-0.47165 -0.7490532,-0.70056 -0.1371228,-0.0978 -0.3877319,-0.24399 -0.5569115,-0.32477 -0.2675152,-0.12768 -0.3439956,-0.14695 -0.5869305,-0.14695 -0.2563942,0 -0.2891744,0.009 -0.3991501,0.11479 -0.1524875,0.14614 -0.2164476,0.36743 -0.1576471,0.54559 0.058356,0.17684 0.3426534,0.43013 0.6378168,0.56825 0.2923632,0.13682 0.8915398,0.29375 1.3004082,0.34063 0.1636951,0.0188 0.3017062,0.0364 0.3066927,0.0392 0.00506,0.003 0.053099,-0.0818 0.1069159,-0.18802 z m 2.7358119,-2.73938 0.1858668,-0.0942 -0.033276,-0.31554 c -0.043971,-0.41688 -0.1957829,-1.00583 -0.3371657,-1.30795 -0.2948939,-0.63018 -0.771354,-0.83765 -1.1105672,-0.48359 -0.3427596,0.35776 -0.011103,1.22768 0.7897803,2.0719 0.1166637,0.12295 0.2362665,0.22357 0.265799,0.22357 0.029538,0 0.137335,-0.0425 0.2395633,-0.0942 z"
       id="path15821"
       inkscape:connector-curvature="0" />
    <path
       style="fill:#ffffff;stroke-width:0.00296888;stroke-miterlimit:4;stroke-dasharray:none"
       d="m 2.9151932,286.44913 c -0.9161118,-0.16704 -1.5125159,-0.46042 -1.6880993,-0.83043 -0.086293,-0.18186 -0.038142,-0.3784 0.1328448,-0.54222 0.2330728,-0.22328 0.6294324,-0.17182 1.2084097,0.15691 0.3503488,0.19894 1.0341699,0.769 1.0341699,0.86216 0,0.032 -0.037293,0.13747 -0.082881,0.23448 -0.094784,0.20164 -0.1221664,0.20704 -0.604449,0.11903 z"
       id="path15823"
       inkscape:connector-curvature="0" />
    <path
       style="fill:#ffffff;stroke-width:0.00296888;stroke-miterlimit:4;stroke-dasharray:none"
       d="m 6.0376153,287.64009 c -0.9612735,-0.45377 -1.840559,-0.867 -1.9539686,-0.9183 -0.2239783,-0.10143 -0.2630137,-0.19112 -0.1338898,-0.30798 0.068283,-0.0617 0.1353593,-0.0362 1.2077287,0.4607 2.3271049,1.07833 2.4799451,1.15865 2.6095374,1.37119 0.079077,0.12965 0.099911,0.22636 0.047824,0.22193 -0.016165,-10e-4 -0.8159525,-0.37376 -1.777226,-0.82754 z"
       id="path15825"
       inkscape:connector-curvature="0" />
    <path
       style="fill:#ffffff;stroke-width:0.00296888;stroke-miterlimit:4;stroke-dasharray:none"
       d="m 10.420992,292.97703 c -1.3285267,-2.83857 -3.8433222,-8.23077 -3.977408,-8.52834 -0.1036993,-0.23013 -0.1606351,-0.40283 -0.1396862,-0.42377 0.01943,-0.0194 0.085314,-0.0391 0.146397,-0.0436 0.1094141,-0.008 0.1232767,0.0178 0.9320006,1.73951 2.1528474,4.58337 3.5021796,7.50101 3.4781696,7.52076 -0.04058,0.0335 -0.190303,0.0987 -0.226294,0.0987 -0.02373,0 -0.119668,-0.16347 -0.213179,-0.36329 z"
       id="path15827"
       inkscape:connector-curvature="0" />
    <path
       style="fill:#ffffff;stroke-width:0.00296888;stroke-miterlimit:4;stroke-dasharray:none"
       d="m 5.7885231,283.4723 c -0.3133871,-0.33278 -0.5700049,-0.69334 -0.7454104,-1.04731 -0.1435398,-0.28968 -0.163935,-0.36384 -0.1640265,-0.59642 -7.83e-5,-0.23992 0.01094,-0.27717 0.1143779,-0.38519 0.06296,-0.0658 0.1727259,-0.13879 0.2439097,-0.1623 0.2453858,-0.081 0.6023425,0.16263 0.7954656,0.54274 0.1160433,0.22846 0.2651786,0.73903 0.3343882,1.14483 0.090212,0.52891 0.091208,0.52347 -0.1146555,0.62348 -0.097789,0.0475 -0.1985095,0.0863 -0.2238343,0.0863 -0.025325,0 -0.1334164,-0.0928 -0.2402228,-0.20619 z"
       id="path15829"
       inkscape:connector-curvature="0" />
    <path
       style="fill:#ffffff;stroke-width:0.00296888;stroke-miterlimit:4;stroke-dasharray:none"
       d="m 15.088595,292.30563 c -0.230764,-0.0756 -0.591322,-0.27568 -0.861989,-0.4783 -0.362527,-0.27135 -0.687325,-0.56746 -0.687325,-0.62658 0,-0.0294 0.03548,-0.13618 0.07885,-0.2373 l 0.07885,-0.18395 0.284448,0.0279 c 0.405489,0.0399 0.983756,0.19391 1.310348,0.34901 0.65601,0.31152 0.845243,0.72053 0.490586,1.06031 -0.135408,0.1298 -0.447185,0.16965 -0.693771,0.0888 z"
       id="path15831"
       inkscape:connector-curvature="0" />
    <path
       style="fill:#ffffff;stroke-width:0.00296888;stroke-miterlimit:4;stroke-dasharray:none"
       d="m 11.554183,295.97718 c -0.374954,-0.22866 -0.687108,-0.94051 -0.806788,-1.83984 -0.0513,-0.38548 -0.04211,-0.40323 0.254775,-0.49219 l 0.154789,-0.0464 0.251245,0.27335 c 0.301833,0.32839 0.554381,0.69871 0.724668,1.06261 0.10088,0.21556 0.126151,0.32075 0.127849,0.53187 0.0018,0.22775 -0.0111,0.27747 -0.09609,0.3696 -0.10378,0.1125 -0.303915,0.21424 -0.420952,0.21399 -0.0385,-8e-5 -0.123767,-0.033 -0.189495,-0.073 z"
       id="path15833"
       inkscape:connector-curvature="0" />
    <path
       style="fill:#ffffff;stroke-width:0.00296888;stroke-miterlimit:4;stroke-dasharray:none"
       d="m 11.948613,290.39945 c -0.626447,-0.29779 -1.450169,-0.69309 -1.830489,-0.87844 -0.6742843,-0.32859 -0.6931416,-0.3411 -0.7577026,-0.50245 -0.036411,-0.091 -0.058275,-0.17341 -0.048576,-0.18311 0.00964,-0.009 0.6599577,0.28257 1.4450266,0.64948 2.227021,1.0408 2.50748,1.17724 2.50748,1.21975 0,0.077 -0.09164,0.23982 -0.133954,0.23802 -0.02353,-9.8e-4 -0.55534,-0.24544 -1.181788,-0.54325 z"
       id="path15835"
       inkscape:connector-curvature="0" />
  </g>
</svg>
