<?xml version="1.0" encoding="UTF-8" standalone="no"?>
<!-- Created with Inkscape (http://www.inkscape.org/) -->

<svg
   xmlns:dc="http://purl.org/dc/elements/1.1/"
   xmlns:cc="http://creativecommons.org/ns#"
   xmlns:rdf="http://www.w3.org/1999/02/22-rdf-syntax-ns#"
   xmlns:svg="http://www.w3.org/2000/svg"
   xmlns="http://www.w3.org/2000/svg"
   xmlns:sodipodi="http://sodipodi.sourceforge.net/DTD/sodipodi-0.dtd"
   xmlns:inkscape="http://www.inkscape.org/namespaces/inkscape"
   width="64"
   height="64"
   viewBox="0 0 16.933333 16.933333"
   version="1.1"
   id="svg8"
   inkscape:version="0.92.5 (2060ec1f9f, 2020-04-08)"
   sodipodi:docname="quantity_little_64x64.svg">
  <defs
     id="defs2" />
  <sodipodi:namedview
     id="base"
     pagecolor="#ffffff"
     bordercolor="#666666"
     borderopacity="1.0"
     inkscape:pageopacity="0.0"
     inkscape:pageshadow="2"
     inkscape:zoom="5.6"
     inkscape:cx="24.476363"
     inkscape:cy="24.033838"
     inkscape:document-units="mm"
     inkscape:current-layer="layer1"
     showgrid="false"
     units="px"
     inkscape:window-width="1208"
     inkscape:window-height="987"
     inkscape:window-x="1992"
     inkscape:window-y="0"
     inkscape:window-maximized="1" />
  <metadata
     id="metadata5">
    <rdf:RDF>
      <cc:Work
         rdf:about="">
        <dc:format>image/svg+xml</dc:format>
        <dc:type
           rdf:resource="http://purl.org/dc/dcmitype/StillImage" />
        <dc:title />
      </cc:Work>
    </rdf:RDF>
  </metadata>
  <g
     inkscape:label="Layer 1"
     inkscape:groupmode="layer"
     id="layer1"
     transform="translate(0,-280.06667)">
    <path
       style="fill:#000000;stroke-width:0.03267918"
       d="m 0.66784822,294.90204 -0.0802126,-0.0802 v -1.14674 -1.14675 l 0.0802126,-0.0802 c 0.0790687,-0.0791 0.0883915,-0.0802 0.65358368,-0.0802 H 1.894803 v -4.62559 -4.62559 l 0.080213,-0.0802 0.080213,-0.0802 h 6.375411 6.375411 l 0.08022,0.0802 0.08022,0.0802 v 4.62559 4.62559 h 0.573372 c 0.565192,0 0.574515,8.6e-4 0.653583,0.0802 l 0.08022,0.0802 v 1.14675 1.14674 l -0.08022,0.0802 -0.08021,0.0802 h -1.146742 -1.146742 l -0.08022,-0.0802 c -0.07727,-0.0773 -0.08022,-0.0965 -0.08022,-0.52287 v -0.44265 H 11.698557 9.7378058 v 0.44265 c 0,0.42641 -0.0029,0.4456 -0.080216,0.52287 l -0.080216,0.0802 H 8.4306392 7.283897 l -0.080213,-0.0802 c -0.077269,-0.0773 -0.080213,-0.0965 -0.080213,-0.52287 v -0.44265 H 5.1627212 3.2019702 v 0.44265 c 0,0.42641 -0.00295,0.4456 -0.080213,0.52287 l -0.080213,0.0802 H 1.894803 0.74806083 Z m 2.01125518,-0.70409 v -0.26143 H 1.894803 1.1105026 v 0.26143 0.26144 H 1.894803 2.6791034 Z m 6.5358363,0 v -0.26143 H 8.4306392 7.646339 v 0.26143 0.26144 h 0.7843002 0.7843005 z m 6.5358363,0 v -0.26143 h -0.784301 -0.7843 v 0.26143 0.26144 h 0.7843 0.784301 z m 0,-1.04573 v -0.26144 H 8.4306392 1.1105026 v 0.26144 0.26143 h 7.3201366 7.3201368 z m -7.5815703,-2.3529 v -1.5686 H 7.2541886 6.3391717 v 0.40695 c 0,0.44916 -0.027393,0.54977 -0.165226,0.60686 -0.1234217,0.0511 -0.1880764,0.0254 -0.5601636,-0.22227 l -0.3195615,-0.21277 -0.35311,0.23348 c -0.3891855,0.25734 -0.485144,0.28131 -0.6131939,0.15327 -0.077268,-0.0773 -0.080213,-0.0965 -0.080213,-0.52287 v -0.44265 H 3.3326869 2.4176699 v 1.5686 1.5686 h 2.875768 2.8757678 z m 6.2744033,0 v -1.5686 h -0.915017 -0.915017 v 0.40695 c 0,0.44916 -0.02739,0.54977 -0.165226,0.60686 -0.123422,0.0511 -0.188077,0.0254 -0.560164,-0.22227 l -0.319561,-0.21277 -0.353111,0.23348 c -0.389185,0.25734 -0.485143,0.28131 -0.613193,0.15327 -0.07727,-0.0773 -0.08022,-0.0965 -0.08022,-0.52287 v -0.44265 H 9.6070862 8.6920691 v 1.5686 1.5686 h 2.8757679 2.875769 z m -9.1501711,-1.5686 c 0.045317,0 0.1815018,0.0665 0.3026315,0.14774 l 0.2202354,0.14774 v -0.67061 -0.67061 H 5.2934379 4.770571 v 0.67061 0.67061 l 0.2202355,-0.14774 c 0.1211296,-0.0813 0.2573139,-0.14774 0.3026314,-0.14774 z m 6.2744021,0 c 0.04531,0 0.181502,0.0665 0.302632,0.14774 l 0.220236,0.14774 v -0.67061 -0.67061 H 11.56784 11.044974 v 0.67061 0.67061 l 0.220235,-0.14774 c 0.12113,-0.0813 0.257314,-0.14774 0.302631,-0.14774 z m -7.3201359,-0.7843 v -0.26144 H 3.3326869 2.4176699 v 0.26144 0.26143 h 0.915017 0.9150172 z m 3.9215016,0 v -0.26144 H 7.2541886 6.3391717 v 0.26144 0.26143 h 0.9150169 0.9150171 z m 2.3529013,0 v -0.26144 H 9.6070897 8.6920726 v 0.26144 0.26143 h 0.9150171 0.9150173 z m 3.921502,0 v -0.26144 h -0.915017 -0.915017 v 0.26144 0.26143 h 0.915017 0.915017 z m -6.2744033,-2.35291 v -1.56859 H 7.2541886 6.3391717 v 0.40695 c 0,0.44915 -0.027393,0.54976 -0.165226,0.60686 -0.1234217,0.0511 -0.1880764,0.0254 -0.5601636,-0.22227 l -0.3195615,-0.21277 -0.35311,0.23348 c -0.3891855,0.25733 -0.485144,0.28132 -0.6131939,0.15326 -0.077268,-0.0773 -0.080213,-0.0965 -0.080213,-0.52286 v -0.44265 H 3.3326869 2.4176699 v 1.56859 1.5686 h 2.875768 2.8757678 z m 6.2744033,0 v -1.56859 h -0.915017 -0.915017 v 0.40695 c 0,0.44915 -0.02739,0.54976 -0.165226,0.60686 -0.123422,0.0511 -0.188077,0.0254 -0.560164,-0.22227 l -0.319561,-0.21277 -0.353111,0.23348 c -0.389185,0.25733 -0.485143,0.28132 -0.613193,0.15326 -0.07727,-0.0773 -0.08022,-0.0965 -0.08022,-0.52286 v -0.44265 H 9.6070862 8.6920691 v 1.56859 1.5686 h 2.8757679 2.875769 z m -9.1501711,-1.56859 c 0.045317,0 0.1815018,0.0665 0.3026315,0.14774 l 0.2202354,0.14775 v -0.67062 -0.67061 H 5.2934379 4.770571 v 0.67061 0.67062 l 0.2202355,-0.14775 c 0.1211296,-0.0813 0.2573139,-0.14774 0.3026314,-0.14774 z m 6.2744021,0 c 0.04531,0 0.181502,0.0665 0.302632,0.14774 l 0.220236,0.14775 v -0.67062 -0.67061 H 11.56784 11.044974 v 0.67061 0.67062 l 0.220235,-0.14775 c 0.12113,-0.0813 0.257314,-0.14774 0.302631,-0.14774 z m -7.3201359,-0.7843 v -0.26144 H 3.3326869 2.4176699 v 0.26144 0.26142 h 0.915017 0.9150172 z m 3.9215016,0 v -0.26144 H 7.2541886 6.3391717 v 0.26144 0.26142 h 0.9150169 0.9150171 z m 2.3529013,0 v -0.26144 H 9.6070897 8.6920726 v 0.26144 0.26142 h 0.9150171 0.9150173 z m 3.921502,0 v -0.26144 h -0.915017 -0.915017 v 0.26144 0.26142 h 0.915017 0.915017 z"
       id="path1429"
       inkscape:connector-curvature="0" />
    <path
       style="fill:#ffffff;stroke-width:0.00176446;stroke-miterlimit:4;stroke-dasharray:none"
       d="m 1.134781,294.21258 v -0.23342 h 0.7702952 0.7702951 v 0.23342 0.23343 H 1.9050762 1.134781 Z"
       id="path1431"
       inkscape:connector-curvature="0" />
    <path
       style="fill:#ffffff;stroke-width:0.00176446;stroke-miterlimit:4;stroke-dasharray:none"
       d="m 1.134781,293.13884 v -0.23342 h 7.3061318 7.3061322 v 0.23342 0.23342 H 8.4409128 1.134781 Z"
       id="path1433"
       inkscape:connector-curvature="0" />
    <path
       style="fill:#ffffff;stroke-width:0.00176446;stroke-miterlimit:4;stroke-dasharray:none"
       d="m 7.6706175,294.21258 v -0.23342 h 0.7702953 0.7702954 v 0.23342 0.23343 H 8.4409128 7.6706175 Z"
       id="path1435"
       inkscape:connector-curvature="0" />
    <path
       style="fill:#ffffff;stroke-width:0.00176446;stroke-miterlimit:4;stroke-dasharray:none"
       d="m 14.206455,294.21258 v -0.23342 h 0.770294 0.770296 v 0.23342 0.23343 h -0.770296 -0.770294 z"
       id="path1437"
       inkscape:connector-curvature="0" />
    <path
       style="fill:#ffffff;stroke-width:0.00176446;stroke-miterlimit:4;stroke-dasharray:none"
       d="m 8.6976777,290.80461 v -1.54058 h 0.9103483 0.910349 v 0.4652 c 0,0.41215 0.0103,0.47071 0.0903,0.51353 0.167991,0.0899 0.314175,0.0491 0.637806,-0.17822 l 0.32259,-0.22654 0.322143,0.22654 c 0.323128,0.22724 0.469586,0.26817 0.637664,0.17822 0.08,-0.0428 0.0903,-0.10138 0.0903,-0.51353 v -0.4652 h 0.910348 0.910349 v 1.54058 1.54059 h -2.8711 -2.8710993 z"
       id="path1466"
       inkscape:connector-curvature="0" />
    <path
       style="fill:#ffffff;stroke-width:0.00176446;stroke-miterlimit:4;stroke-dasharray:none"
       d="m 11.078589,288.82327 v -0.63299 h 0.490188 0.490187 v 0.63299 c 0,0.49328 -0.01288,0.62555 -0.05835,0.59924 -0.03209,-0.0186 -0.114119,-0.0723 -0.182274,-0.11945 -0.06816,-0.0471 -0.180456,-0.0857 -0.249559,-0.0857 -0.06911,0 -0.181402,0.0386 -0.249558,0.0857 -0.06816,0.0471 -0.150178,0.10089 -0.182274,0.11945 -0.04548,0.0263 -0.05836,-0.10596 -0.05836,-0.59924 z"
       id="path1468"
       inkscape:connector-curvature="0" />
    <path
       style="fill:#ffffff;stroke-width:0.00176446;stroke-miterlimit:4;stroke-dasharray:none"
       d="m 12.61918,288.44704 v -0.25676 h 0.910348 0.910349 v 0.25676 0.25677 H 13.529528 12.61918 Z"
       id="path1470"
       inkscape:connector-curvature="0" />
    <path
       style="fill:#ffffff;stroke-width:0.00176446;stroke-miterlimit:4;stroke-dasharray:none"
       d="m 8.6976777,288.44704 v -0.25676 h 0.9103483 0.910349 v 0.25676 0.25677 H 9.608026 8.6976777 Z"
       id="path1472"
       inkscape:connector-curvature="0" />
  </g>
</svg>
