<?xml version="1.0" encoding="UTF-8" standalone="no"?>
<svg
   xmlns:dc="http://purl.org/dc/elements/1.1/"
   xmlns:cc="http://creativecommons.org/ns#"
   xmlns:rdf="http://www.w3.org/1999/02/22-rdf-syntax-ns#"
   xmlns:svg="http://www.w3.org/2000/svg"
   xmlns="http://www.w3.org/2000/svg"
   xmlns:sodipodi="http://sodipodi.sourceforge.net/DTD/sodipodi-0.dtd"
   xmlns:inkscape="http://www.inkscape.org/namespaces/inkscape"
   width="64"
   height="64"
   viewBox="0 0 16.933333 16.933333"
   version="1.1"
   id="svg8"
   sodipodi:docname="seren_quick_wash_64x64.svg"
   inkscape:version="1.0.2-2 (e86c870879, 2021-01-15)">
  <defs
     id="defs2" />
  <sodipodi:namedview
     id="base"
     pagecolor="#ffffff"
     bordercolor="#666666"
     borderopacity="1.0"
     inkscape:pageopacity="0.0"
     inkscape:pageshadow="2"
     inkscape:zoom="5.6568542"
     inkscape:cx="55.443254"
     inkscape:cy="55.954057"
     inkscape:document-units="mm"
     inkscape:current-layer="layer1"
     inkscape:document-rotation="0"
     showgrid="false"
     inkscape:snap-global="false"
     fit-margin-top="0"
     fit-margin-left="0"
     fit-margin-right="0"
     fit-margin-bottom="0"
     inkscape:window-width="1540"
     inkscape:window-height="967"
     inkscape:window-x="1806"
     inkscape:window-y="64"
     inkscape:window-maximized="0"
     units="px" />
  <metadata
     id="metadata5">
    <rdf:RDF>
      <cc:Work
         rdf:about="">
        <dc:format>image/svg+xml</dc:format>
        <dc:type
           rdf:resource="http://purl.org/dc/dcmitype/StillImage" />
        <dc:title></dc:title>
      </cc:Work>
    </rdf:RDF>
  </metadata>
  <g
     inkscape:label="Calque 1"
     inkscape:groupmode="layer"
     id="layer1"
     transform="translate(-44.581036,-28.552681)">
    <text
       xml:space="preserve"
       style="font-style:normal;font-weight:normal;font-size:10.5833px;line-height:1.25;font-family:sans-serif;fill:#000000;fill-opacity:1;stroke:none;stroke-width:0.264583"
       x="51.724785"
       y="39.66518"
       id="text1411"><tspan
         sodipodi:role="line"
         id="tspan1409"
         x="51.724785"
         y="39.66518"
         style="stroke-width:0.264583"></tspan></text>
    <path
       style="fill:#ffffff;stroke-width:2.12598;stroke-linecap:round;stroke-miterlimit:4;stroke-dasharray:none"
       d=""
       id="path1772"
       transform="matrix(0.26458333,0,0,0.26458333,44.581036,28.552681)" />
    <path
       style="fill:#000000;stroke-width:0.0392295"
       d="m 47.544872,44.565492 c -0.301716,-0.156965 -0.483471,-0.374822 -0.574786,-0.688951 -0.08298,-0.285437 -0.05232,-0.499973 0.12479,-0.874101 0.169972,-0.358979 0.697726,-1.160699 0.800148,-1.215512 0.127676,-0.06833 0.257073,-0.04406 0.362809,0.06805 0.164166,0.174066 0.533029,0.748339 0.7101,1.105526 0.152057,0.306739 0.163884,0.353715 0.163019,0.647288 -8.57e-4,0.357662 -0.05481,0.496081 -0.2878,0.741588 -0.213244,0.224666 -0.409104,0.310946 -0.750847,0.330775 -0.274037,0.0159 -0.311598,0.008 -0.547433,-0.11466 z m 0.742797,-0.494107 c 0.177713,-0.08929 0.314629,-0.296664 0.314587,-0.476495 -3.5e-5,-0.166444 -0.166495,-0.534605 -0.391592,-0.866068 -0.08828,-0.130002 -0.167428,-0.236367 -0.175881,-0.236367 -0.03066,0 -0.372237,0.574561 -0.474428,0.798039 -0.07545,0.165055 -0.09872,0.266727 -0.08307,0.363247 0.06183,0.381226 0.467141,0.590092 0.810373,0.417644 z m 7.782477,-0.167687 C 55.535062,43.807348 55.046786,43.550233 54.643,43.152183 l -0.265945,-0.262167 -0.190345,0.05807 c -0.646455,0.197203 -1.436661,0.256634 -2.086344,0.156911 -0.450142,-0.06909 -1.085678,-0.267952 -1.46487,-0.458356 -0.900274,-0.452063 -1.688501,-1.238357 -2.141263,-2.136005 -0.387652,-0.768565 -0.594927,-1.855904 -0.48622,-2.550694 0.199525,-1.275304 1.153588,-3.20622 2.80983,-5.686791 0.54692,-0.819131 1.518572,-2.178371 1.735781,-2.428191 0.113272,-0.130274 0.261056,-0.16653 0.374011,-0.09176 0.10559,0.0699 1.025047,1.326854 1.69465,2.316717 0.943563,1.394843 1.646033,2.581462 2.15666,3.643034 0.575017,1.195429 0.76448,1.81133 0.796611,2.589577 l 0.02055,0.498005 0.257167,0.149282 c 1.21672,0.706288 1.677917,2.214516 1.065305,3.483797 -0.333838,0.691685 -0.965401,1.214112 -1.708275,1.413075 -0.286035,0.07661 -0.869342,0.105777 -1.140168,0.05701 z m 1.16324,-0.634434 c 0.864341,-0.316125 1.41168,-1.101582 1.41168,-2.025844 0,-0.941837 -0.708337,-1.832477 -1.629267,-2.048585 -0.31057,-0.07288 -0.823629,-0.05564 -1.119641,0.03763 -0.619719,0.195263 -1.155797,0.710342 -1.378051,1.324072 -0.10219,0.28218 -0.137327,0.849566 -0.07211,1.163883 0.156253,0.752668 0.783423,1.397504 1.570648,1.614884 0.312489,0.08629 0.885202,0.0552 1.216702,-0.06604 z m -0.353655,-1.275269 c -0.08743,-0.03196 -0.222921,-0.160938 -0.436679,-0.415664 L 56.252056,41.350724 V 40.63136 c 0,-0.640653 0.0077,-0.729141 0.07236,-0.808708 0.0489,-0.06043 0.114402,-0.08934 0.202266,-0.08934 0.08786,0 0.153332,0.02892 0.202257,0.08934 0.06363,0.07861 0.07236,0.165686 0.07236,0.724589 v 0.635247 l 0.139896,0.135192 c 0.0769,0.07436 0.17589,0.193244 0.21989,0.264199 0.068,0.109627 0.07313,0.145695 0.034,0.240095 -0.03571,0.08622 -0.199406,0.215732 -0.24851,0.196629 -0.0043,-0.0017 -0.03443,-0.01278 -0.0668,-0.02461 z m -3.127063,0.505287 c 0.168045,-0.04136 0.312112,-0.08189 0.320154,-0.09006 0.0077,-0.0081 -0.03057,-0.147244 -0.0858,-0.309066 -0.07416,-0.217347 -0.104956,-0.401848 -0.117811,-0.706133 -0.02218,-0.524376 0.05104,-0.882833 0.271889,-1.331048 0.13224,-0.268402 0.23324,-0.403685 0.500821,-0.670774 0.573895,-0.57285 1.144228,-0.800448 1.94697,-0.776965 l 0.447864,0.0131 -4.3e-5,-0.318614 c -1.46e-4,-1.234623 -1.311048,-3.776891 -3.608145,-6.997703 -0.284682,-0.399161 -0.548101,-0.75723 -0.58537,-0.795709 -0.06457,-0.0667 -0.08605,-0.04481 -0.460846,0.470755 -2.13449,2.936086 -3.536253,5.460715 -3.797934,6.840199 -0.0775,0.408438 -0.07664,0.752401 0.0026,1.215877 0.194935,1.135773 0.814363,2.124124 1.74109,2.778052 0.51574,0.363917 1.133378,0.622656 1.744226,0.730682 0.423945,0.07498 1.269343,0.0485 1.680057,-0.0526 z m -1.462797,-0.361434 c -0.328305,-0.04485 -0.856873,-0.209824 -1.156962,-0.361121 -1.204413,-0.607239 -2.020806,-1.844789 -2.067949,-3.13477 -0.01285,-0.35227 0.05078,-0.464756 0.263076,-0.464756 0.18638,0 0.243586,0.0936 0.275708,0.45114 0.07853,0.873801 0.416178,1.574799 1.032001,2.142403 0.552229,0.50899 1.178731,0.779948 1.947612,0.842335 0.251019,0.02036 0.347806,0.0448 0.39828,0.100581 0.08392,0.09278 0.08621,0.292236 0.0043,0.37423 -0.07673,0.07674 -0.354143,0.09665 -0.695988,0.04996 z m 5.330602,-7.464627 c -0.459262,-0.171829 -0.728188,-0.488265 -0.818166,-0.962722 -0.07656,-0.40356 0.190114,-1.022737 0.798717,-1.854689 0.228325,-0.31211 0.348739,-0.386591 0.496857,-0.307322 0.18715,0.100162 0.827457,1.091948 1.00136,1.551043 0.08384,0.221405 0.09954,0.317217 0.08418,0.514711 -0.03391,0.435302 -0.308053,0.834305 -0.689394,1.003386 -0.228128,0.101148 -0.67564,0.129628 -0.873521,0.0556 z m 0.711153,-0.585704 c 0.220764,-0.15025 0.29382,-0.282651 0.29382,-0.532476 0,-0.256851 -0.09584,-0.47872 -0.426017,-0.986319 l -0.208192,-0.320044 -0.199654,0.306457 c -0.472655,0.725495 -0.554438,1.033614 -0.354519,1.335704 0.127342,0.192429 0.307214,0.282902 0.564715,0.284051 0.144058,6.38e-4 0.236503,-0.02384 0.329847,-0.08737 z M 47.615129,33.629753 c -0.289718,-0.09265 -0.456804,-0.19867 -0.659241,-0.418291 -0.33985,-0.368693 -0.468297,-0.876839 -0.336365,-1.330677 0.09999,-0.343937 0.368932,-0.851974 0.764026,-1.443246 0.364779,-0.545904 0.538399,-0.733928 0.677713,-0.733928 0.115636,0 0.289298,0.20054 0.67463,0.779036 0.381606,0.572904 0.701511,1.214186 0.766107,1.535759 0.103826,0.516836 -0.174965,1.132823 -0.650318,1.436905 -0.379885,0.243008 -0.825564,0.305881 -1.236552,0.174442 z m 0.709064,-0.535381 c 0.434735,-0.129103 0.736074,-0.616985 0.633258,-1.025289 -0.07425,-0.294734 -0.561366,-1.177944 -0.836868,-1.51725 l -0.09167,-0.112903 -0.282002,0.432475 c -0.685917,1.051938 -0.78481,1.521924 -0.407991,1.939011 0.278157,0.307894 0.596101,0.399526 0.985269,0.283956 z"
       id="path1850" />
    <path
       style="fill:#ffffff;stroke-width:0.667213;stroke-linecap:round;stroke-miterlimit:4;stroke-dasharray:none"
       d="m 47.773411,33.078034 c -0.214589,-0.07658 -0.405542,-0.236043 -0.523327,-0.437024 -0.212053,-0.361835 -0.06996,-0.846792 0.510036,-1.740533 0.215762,-0.332495 0.270835,-0.394269 0.317182,-0.355804 0.102396,0.08498 0.4489,0.657473 0.667385,1.102663 0.24451,0.498204 0.261132,0.622037 0.123257,0.918126 -0.116963,0.251163 -0.323142,0.431371 -0.581234,0.508016 -0.244631,0.07264 -0.320608,0.07332 -0.513299,0.0045 z"
       id="path1852" />
    <path
       style="fill:#ffffff;stroke-width:0.667213;stroke-linecap:round;stroke-miterlimit:4;stroke-dasharray:none"
       d="m 52.210597,42.547595 c -0.143347,-0.01673 -0.408145,-0.07558 -0.588444,-0.130758 -1.454944,-0.445301 -2.561954,-1.587318 -2.933807,-3.026578 -0.264361,-1.023234 -0.156218,-1.726875 0.484071,-3.14977 0.556314,-1.236266 1.888831,-3.40224 3.164092,-5.143143 l 0.443017,-0.604778 0.106909,0.128053 c 0.199474,0.238937 0.942801,1.296145 1.485242,2.112393 1.713421,2.578315 2.630412,4.516536 2.630352,5.559682 l -1.7e-5,0.313837 -0.500059,0.0021 c -0.828023,0.0034 -1.285255,0.194342 -1.873289,0.782363 -0.386675,0.386675 -0.581285,0.716652 -0.706598,1.198095 -0.09107,0.349911 -0.06286,1.205104 0.05138,1.557922 l 0.07939,0.245139 -0.203105,0.05905 c -0.393124,0.114284 -1.120018,0.157059 -1.639106,0.09646 z m 0.78827,-0.450532 c 0.07493,-0.07489 0.07279,-0.317724 -0.0034,-0.394024 -0.03734,-0.03733 -0.223649,-0.08301 -0.488413,-0.119743 -0.235424,-0.03266 -0.56045,-0.103364 -0.722269,-0.157114 -0.788364,-0.261852 -1.509298,-0.906975 -1.858088,-1.66269 -0.160372,-0.34747 -0.241667,-0.646 -0.29656,-1.088989 -0.04684,-0.377786 -0.08708,-0.469954 -0.219882,-0.503285 -0.287602,-0.07218 -0.398528,0.117936 -0.354553,0.607672 0.153341,1.70746 1.495227,3.114639 3.219448,3.376079 0.295669,0.04483 0.649255,0.01654 0.723785,-0.05791 z"
       id="path1854" />
    <path
       style="fill:#ffffff;stroke-width:0.667213;stroke-linecap:round;stroke-miterlimit:4;stroke-dasharray:none"
       d="m 56.099965,43.332642 c -0.525947,-0.109503 -1.168677,-0.600681 -1.423558,-1.087898 -0.187665,-0.358714 -0.229079,-0.538217 -0.227494,-0.985979 0.0017,-0.466494 0.09129,-0.784483 0.31886,-1.131257 0.393133,-0.599036 1.047218,-0.952146 1.763716,-0.952146 0.596666,0 1.002893,0.1756 1.451501,0.627445 0.440011,0.443192 0.626297,0.874823 0.627204,1.453288 0.0017,0.912801 -0.593608,1.737519 -1.442903,1.999841 -0.296243,0.0915 -0.816633,0.128899 -1.067326,0.0767 z m 1.032249,-1.403549 c 0.05798,-0.06052 0.105411,-0.146133 0.105411,-0.190262 0,-0.08831 -0.166693,-0.332831 -0.328135,-0.481333 l -0.103389,-0.0951 v -0.631721 c 0,-0.73571 -0.02364,-0.806097 -0.27075,-0.806097 -0.269259,0 -0.287106,0.05186 -0.307068,0.891894 l -0.01747,0.736134 0.225302,0.254992 c 0.250394,0.283393 0.43137,0.431525 0.527215,0.431525 0.03494,0 0.110934,-0.04952 0.16891,-0.110028 z"
       id="path1856" />
    <path
       style="fill:#ffffff;stroke-width:0.667213;stroke-linecap:round;stroke-miterlimit:4;stroke-dasharray:none"
       d="m 57.726046,34.098794 c -0.141678,-0.06171 -0.321635,-0.264518 -0.355916,-0.401112 -0.05506,-0.219438 0.08144,-0.568434 0.437793,-1.119322 l 0.182638,-0.282324 0.176095,0.271873 c 0.331046,0.511105 0.41968,0.71795 0.422146,0.985138 0.0017,0.217303 -0.01002,0.255383 -0.115447,0.366376 -0.221028,0.232639 -0.481484,0.295154 -0.747309,0.179371 z"
       id="path1858" />
    <path
       style="fill:#ffffff;stroke-width:0.667213;stroke-linecap:round;stroke-miterlimit:4;stroke-dasharray:none"
       d="m 47.840191,44.064979 c -0.06577,-0.02969 -0.1673,-0.110633 -0.225568,-0.179877 -0.170631,-0.202787 -0.147809,-0.377547 0.1103,-0.844701 0.311761,-0.56426 0.29257,-0.556207 0.513119,-0.215273 0.205529,0.31771 0.329925,0.609664 0.329702,0.77379 -1.97e-4,0.132756 -0.121048,0.337237 -0.248826,0.420959 -0.135838,0.089 -0.339002,0.108144 -0.478727,0.0451 z"
       id="path1860" />
  </g>
</svg>
