<?xml version="1.0" encoding="UTF-8" standalone="no"?>
<svg
   xmlns:dc="http://purl.org/dc/elements/1.1/"
   xmlns:cc="http://creativecommons.org/ns#"
   xmlns:rdf="http://www.w3.org/1999/02/22-rdf-syntax-ns#"
   xmlns:svg="http://www.w3.org/2000/svg"
   xmlns="http://www.w3.org/2000/svg"
   xmlns:sodipodi="http://sodipodi.sourceforge.net/DTD/sodipodi-0.dtd"
   xmlns:inkscape="http://www.inkscape.org/namespaces/inkscape"
   width="64"
   height="64"
   viewBox="0 0 16.933333 16.933333"
   version="1.1"
   id="svg8"
   sodipodi:docname="seren_quick_cleaning_64x64.svg"
   inkscape:version="1.0.2-2 (e86c870879, 2021-01-15)">
  <defs
     id="defs2" />
  <sodipodi:namedview
     id="base"
     pagecolor="#ffffff"
     bordercolor="#666666"
     borderopacity="1.0"
     inkscape:pageopacity="0.0"
     inkscape:pageshadow="2"
     inkscape:zoom="5.6568542"
     inkscape:cx="53.832003"
     inkscape:cy="33.543913"
     inkscape:document-units="mm"
     inkscape:current-layer="layer1"
     inkscape:document-rotation="0"
     showgrid="false"
     inkscape:snap-global="false"
     fit-margin-top="0"
     fit-margin-left="0"
     fit-margin-right="0"
     fit-margin-bottom="0"
     inkscape:window-width="1540"
     inkscape:window-height="967"
     inkscape:window-x="1806"
     inkscape:window-y="64"
     inkscape:window-maximized="0"
     units="px" />
  <metadata
     id="metadata5">
    <rdf:RDF>
      <cc:Work
         rdf:about="">
        <dc:format>image/svg+xml</dc:format>
        <dc:type
           rdf:resource="http://purl.org/dc/dcmitype/StillImage" />
        <dc:title></dc:title>
      </cc:Work>
    </rdf:RDF>
  </metadata>
  <g
     inkscape:label="Calque 1"
     inkscape:groupmode="layer"
     id="layer1"
     transform="translate(-44.581036,-28.552681)">
    <text
       xml:space="preserve"
       style="font-style:normal;font-weight:normal;font-size:10.5833px;line-height:1.25;font-family:sans-serif;fill:#000000;fill-opacity:1;stroke:none;stroke-width:0.264583"
       x="51.724785"
       y="39.66518"
       id="text1411"><tspan
         sodipodi:role="line"
         id="tspan1409"
         x="51.724785"
         y="39.66518"
         style="stroke-width:0.264583"></tspan></text>
    <path
       style="fill:#ffffff;stroke-width:2.12598;stroke-linecap:round;stroke-miterlimit:4;stroke-dasharray:none"
       d=""
       id="path1772"
       transform="matrix(0.26458333,0,0,0.26458333,44.581036,28.552681)" />
    <path
       style="fill:#000000;stroke-width:0.0381736"
       d="m 45.734769,44.524792 c -0.08569,-0.09469 -0.07957,-0.257354 0.01317,-0.3501 0.07466,-0.07466 0.127246,-0.07634 2.377358,-0.07634 2.557993,0 2.470693,-0.0086 2.470693,0.244377 0,0.264166 0.120423,0.25188 -2.468832,0.25188 -2.208023,0 -2.3325,-0.0036 -2.392389,-0.06981 z m 5.993258,0 c -0.08569,-0.09469 -0.07957,-0.257354 0.01318,-0.3501 0.07107,-0.07107 0.127246,-0.07634 0.812239,-0.07634 0.83414,0 0.905574,0.01928 0.905574,0.244377 0,0.238302 -0.04871,0.25188 -0.903713,0.25188 -0.691761,0 -0.770074,-0.0066 -0.82727,-0.06981 z m 3.130238,0 c -0.09264,-0.102368 -0.08127,-0.29492 0.02167,-0.367023 0.07463,-0.05228 0.377724,-0.05943 2.51946,-0.05943 2.38372,0 2.436215,0.0015 2.510965,0.07634 0.09152,0.09152 0.09798,0.219347 0.01692,0.335069 l -0.05943,0.08484 h -2.473205 c -2.34752,0 -2.476414,-0.0036 -2.53638,-0.06981 z m -7.291162,-1.565119 c -0.09264,-0.102369 -0.08128,-0.29492 0.02167,-0.367023 0.07528,-0.05272 0.475156,-0.05943 3.545917,-0.05943 3.240943,0 3.466064,0.0042 3.539492,0.0668 0.113981,0.0971 0.124487,0.267728 0.02275,0.369465 -0.05366,0.05366 -0.429371,0.05999 -3.563318,0.05999 -3.345489,0 -3.506177,-0.0032 -3.566506,-0.06981 z m 8.589065,0 c -0.086,-0.09502 -0.07948,-0.257453 0.01408,-0.351019 0.0723,-0.0723 0.118043,-0.07659 0.711689,-0.0668 l 0.634423,0.01046 0.0749,0.100389 c 0.08016,0.107445 0.06856,0.216906 -0.03382,0.319295 -0.04662,0.04662 -0.178412,0.05749 -0.697795,0.05749 -0.57184,0 -0.647064,-0.0075 -0.703485,-0.06981 z M 45.337909,41.475641 c -0.180662,-0.03483 -0.200798,-0.126147 -0.200085,-0.907307 10e-4,-1.169166 0.117045,-1.517329 0.696377,-2.090504 l 0.337049,-0.33347 -0.05897,-0.173666 c -0.121916,-0.359096 -0.02581,-0.779849 0.232056,-1.015901 0.235413,-0.2155 3.333544,-2.300333 3.62178,-2.437214 0.654978,-0.311039 1.305273,-0.458879 2.018658,-0.458925 0.33688,-2.1e-5 0.810378,0.05913 2.294961,0.286682 1.028779,0.157689 1.899018,0.293113 1.933865,0.300941 0.04908,0.01103 0.263163,-0.365457 0.949906,-1.670475 0.4876,-0.926589 0.905014,-1.707971 0.927588,-1.736402 0.07746,-0.09756 0.2193,-0.126679 0.314207,-0.06449 0.07168,0.04697 1.976368,2.188964 2.354736,2.648119 0.05756,0.06985 0.104648,0.165134 0.104648,0.21175 0,0.110194 -0.06539,0.170801 -1.469686,1.362208 -2.382982,2.021727 -3.378364,2.911157 -3.378364,3.018763 0,0.05297 0.546347,0.294858 0.802224,0.355165 0.162094,0.0382 0.440267,0.05854 0.805812,0.0589 0.630689,6.35e-4 0.790631,0.03819 1.042817,0.244836 0.229633,0.188168 0.372414,0.473789 0.391222,0.782615 0.01388,0.227906 -0.0058,0.313804 -0.20592,0.900779 -0.184206,0.540181 -0.237245,0.656764 -0.316696,0.696106 -0.07484,0.03706 -1.500188,0.04625 -6.604036,0.04263 -3.579732,-0.0026 -6.547103,-0.01207 -6.594157,-0.02113 z m 9.071047,-0.578798 c -0.255449,-0.199965 -0.906192,-0.595547 -1.312594,-0.797919 -0.701104,-0.349119 -1.353653,-0.568779 -1.95496,-0.658073 -0.373902,-0.05553 -0.469064,-0.112525 -0.469064,-0.280955 0,-0.212746 0.100542,-0.268775 0.432031,-0.240755 1.106129,0.0935 2.754902,0.847336 3.899303,1.782798 l 0.326726,0.267075 1.456318,-0.01 1.456316,-0.01 0.146536,-0.437729 c 0.168692,-0.503916 0.183624,-0.714803 0.06429,-0.907894 -0.136493,-0.22085 -0.321376,-0.27942 -0.795746,-0.252089 -0.43777,0.02522 -0.832629,-0.02083 -1.177888,-0.137394 -0.118104,-0.03987 -0.217357,-0.06948 -0.220561,-0.06578 -0.0032,0.0037 0.01627,0.118377 0.04326,0.254849 0.027,0.13647 0.05915,0.379418 0.07144,0.539885 0.01965,0.256525 0.0129,0.303773 -0.05594,0.391279 -0.09597,0.122003 -0.268717,0.132591 -0.378134,0.02318 -0.05685,-0.05685 -0.07642,-0.12751 -0.07663,-0.276758 -5.78e-4,-0.391424 -0.15057,-1.053868 -0.288698,-1.274926 -0.04942,-0.07908 -0.05707,-0.07991 -0.215145,-0.02329 -0.379384,0.135889 -0.63495,0.114983 -2.891871,-0.236558 -1.293744,-0.201515 -2.17714,-0.356393 -2.271332,-0.398213 -0.187875,-0.08342 -0.41539,-0.328077 -0.476078,-0.511963 l -0.04484,-0.135884 -0.194989,0.09034 c -0.229321,0.106246 -0.625382,0.483598 -0.961242,0.915835 -0.292713,0.376708 -0.427622,0.592259 -0.638244,1.019751 -0.19437,0.394505 -0.309604,0.476959 -0.4847,0.346818 -0.05677,-0.0422 -0.107992,-0.121953 -0.114748,-0.178683 -0.01622,-0.136225 0.234505,-0.649041 0.542687,-1.109968 0.133936,-0.200321 0.237627,-0.36422 0.230422,-0.36422 -0.0072,0 -0.170778,0.06939 -0.363499,0.154197 -0.472578,0.207962 -0.650224,0.242724 -0.902873,0.176679 l -0.200075,-0.0523 -0.258168,0.217313 c -0.279559,0.235319 -0.41537,0.409219 -0.551821,0.706582 -0.07883,0.171814 -0.08885,0.258513 -0.100308,0.86845 l -0.01273,0.677583 h 4.417294 c 4.319337,0 4.415274,-0.0015 4.326254,-0.07127 z m 0.949085,-2.679034 c 0.154539,-0.07608 0.295639,-0.184372 0.400831,-0.307634 0.214147,-0.250934 0.809682,-0.780353 2.586363,-2.299221 0.808327,-0.691032 1.563244,-1.337027 1.677596,-1.435545 l 0.207912,-0.179124 -0.927801,-1.05675 c -0.510291,-0.581212 -0.938988,-1.05675 -0.95266,-1.05675 -0.01367,0 -0.410209,0.731944 -0.881198,1.626542 -0.562601,1.068607 -0.883464,1.638899 -0.935408,1.662566 -0.05638,0.02569 -0.645487,-0.05189 -2.05354,-0.270443 -2.263044,-0.351259 -2.442221,-0.370506 -2.912404,-0.31285 -0.951998,0.116738 -1.324148,0.297957 -3.071292,1.495567 -1.928968,1.322244 -1.843846,1.258405 -1.89881,1.424043 -0.03862,0.116407 -0.03772,0.165956 0.0049,0.268 0.06839,0.16369 0.233651,0.290702 0.378232,0.290702 0.06499,0 0.692969,-0.251399 1.435907,-0.57484 1.196147,-0.520746 1.332779,-0.58949 1.45198,-0.730538 0.154184,-0.182442 0.456261,-0.335187 0.663935,-0.335715 0.08061,-1.87e-4 0.716202,0.08691 1.412424,0.193594 1.174412,0.179954 1.272063,0.200791 1.35175,0.288431 0.104316,0.11473 0.108716,0.206253 0.01545,0.321427 -0.09231,0.113996 -0.109196,0.112856 -1.46094,-0.09855 -1.211543,-0.189476 -1.353763,-0.202557 -1.478196,-0.135963 -0.211877,0.113395 -0.244566,0.443876 -0.06097,0.61636 0.08831,0.08297 0.279568,0.119779 2.203942,0.42421 2.369356,0.374824 2.441811,0.379476 2.841971,0.182478 z m 3.445277,-0.532633 c -0.04242,-0.04241 -0.07635,-0.127245 -0.07635,-0.190868 0,-0.06362 0.03393,-0.148453 0.07635,-0.190869 0.04241,-0.04241 0.127246,-0.07634 0.190869,-0.07634 0.06362,0 0.148453,0.03393 0.190867,0.07634 0.04242,0.04241 0.07635,0.127246 0.07635,0.190869 0,0.06362 -0.03393,0.148453 -0.07635,0.190868 -0.04241,0.04241 -0.127245,0.07635 -0.190867,0.07635 -0.06362,0 -0.148454,-0.03393 -0.190869,-0.07635 z M 46.634921,33.904593 c -0.127006,-0.05102 -0.161683,-0.186351 -0.161683,-0.630956 V 32.8753 h -0.455919 c -0.607067,0 -0.574768,0.05089 -0.574768,-0.905574 0,-0.932587 -0.02913,-0.888587 0.588493,-0.888587 h 0.4358 l 0.01275,-0.456825 c 0.0176,-0.631239 -0.04145,-0.592949 0.914556,-0.592949 0.956747,0 0.911431,-0.03058 0.911431,0.615007 v 0.434767 h 0.452167 c 0.389572,0 0.460913,0.0097 0.515344,0.06981 0.05436,0.06007 0.06318,0.176476 0.06318,0.833903 0,0.948244 0.03799,0.890447 -0.585153,0.890447 h -0.445535 v 0.440732 c 0,0.417039 -0.005,0.445768 -0.0937,0.534431 -0.09285,0.09285 -0.1,0.09368 -0.792102,0.09128 -0.384122,-0.0014 -0.737304,-0.01805 -0.78485,-0.03714 z M 47.7774,32.974626 c 0.01761,-0.597442 0.01571,-0.595583 0.610436,-0.595583 h 0.452166 v -0.400824 -0.400823 h -0.452166 c -0.594726,0 -0.592821,0.0019 -0.610436,-0.595582 l -0.01283,-0.435105 h -0.378452 -0.378451 v 0.438996 c 0,0.591854 1.59e-4,0.591691 -0.591691,0.591691 h -0.438993 v 0.400823 0.400824 h 0.437509 c 0.587959,0 0.593179,0.0053 0.593179,0.598889 v 0.431799 h 0.378451 0.378451 z m 7.156444,-0.674702 c -0.0964,-0.07583 -0.100582,-0.09462 -0.100582,-0.452166 0,-0.418448 0.04129,-0.499403 0.254761,-0.499403 0.197032,0 0.241571,0.09231 0.240911,0.499263 -5.77e-4,0.384192 -0.01076,0.419481 -0.140057,0.487536 -0.113398,0.05969 -0.138833,0.05617 -0.255033,-0.03523 z m -1.072865,-1.064825 c -0.08733,-0.0965 -0.08683,-0.250147 0.0011,-0.347351 0.06171,-0.06819 0.109676,-0.07519 0.449306,-0.06554 0.360308,0.01024 0.384138,0.01606 0.455056,0.111191 0.04884,0.06553 0.06594,0.128421 0.04922,0.181098 -0.05413,0.170547 -0.120111,0.195681 -0.513684,0.195681 -0.322516,0 -0.382302,-0.01018 -0.441041,-0.07508 z m 1.565117,0 c -0.08733,-0.0965 -0.08683,-0.250147 0.0011,-0.347351 0.06171,-0.06819 0.109678,-0.07519 0.449305,-0.06554 0.360308,0.01024 0.384138,0.01606 0.455059,0.111191 0.04884,0.06553 0.06594,0.128421 0.04923,0.181098 -0.05413,0.170547 -0.120108,0.195681 -0.513681,0.195681 -0.322518,0 -0.382303,-0.01018 -0.44104,-0.07508 z m -0.492252,-0.500293 c -0.0964,-0.07583 -0.100582,-0.09462 -0.100582,-0.452166 0,-0.418448 0.04129,-0.499404 0.254761,-0.499404 0.197032,0 0.241571,0.09231 0.240911,0.499263 -5.77e-4,0.384192 -0.01076,0.419481 -0.140057,0.487537 -0.113398,0.05969 -0.138833,0.05617 -0.255033,-0.03523 z"
       id="path2233" />
    <path
       style="fill:#ffffff;stroke-width:0.918182;stroke-linecap:round;stroke-miterlimit:4;stroke-dasharray:none"
       d="m 47.043358,32.968966 c -0.02577,-0.567685 -0.05966,-0.602109 -0.592647,-0.602109 h -0.425276 v -0.3779 -0.3779 h 0.394575 c 0.552472,0 0.597959,-0.04302 0.622755,-0.589038 l 0.01983,-0.436689 h 0.345192 0.34519 v 0.404892 c 0,0.558196 0.06536,0.620835 0.647828,0.620835 h 0.431885 v 0.3779 0.3779 l -0.445381,8.58e-4 c -0.244961,4.55e-4 -0.481822,0.02386 -0.526361,0.05201 -0.05889,0.03722 -0.08617,0.176881 -0.100014,0.512037 l -0.01904,0.460853 h -0.339651 -0.33965 z"
       id="path2235" />
    <path
       style="fill:#ffffff;stroke-width:0.918182;stroke-linecap:round;stroke-miterlimit:4;stroke-dasharray:none"
       d="m 53.664406,38.188791 c -1.998759,-0.30291 -3.231767,-0.532362 -3.32781,-0.61928 -0.122466,-0.11083 -0.130564,-0.359934 -0.01544,-0.475053 0.118073,-0.118075 0.43805,-0.107496 1.426764,0.04716 1.385689,0.216761 1.468182,0.221395 1.587827,0.08919 0.139427,-0.154065 0.0499,-0.351898 -0.19409,-0.428909 -0.225707,-0.07124 -1.856375,-0.322424 -2.381082,-0.366778 -0.441614,-0.03733 -0.632111,0.02663 -0.935227,0.314014 -0.157619,0.149439 -1.769859,0.895115 -2.551727,1.180198 -0.308664,0.112545 -0.336542,0.114422 -0.463528,0.03122 -0.139383,-0.09133 -0.214428,-0.275569 -0.181623,-0.445905 0.02189,-0.113666 0.500005,-0.464523 2.107055,-1.546233 2.256766,-1.519031 2.419291,-1.550546 5.54972,-1.076117 1.648186,0.249788 2.066408,0.303207 2.249186,0.28728 0.06616,-0.0058 0.346059,-0.495969 1.263457,-2.212731 l 0.559263,-1.046568 0.163963,0.187877 c 0.09018,0.103332 0.501561,0.56951 0.914182,1.035952 0.417383,0.471823 0.728745,0.867448 0.701814,0.891743 -0.02662,0.02402 -0.740773,0.635296 -1.586998,1.358395 -1.780131,1.521124 -2.47786,2.137082 -2.780261,2.454431 -0.462582,0.485448 -0.793594,0.538919 -2.105441,0.340111 z"
       id="path2237" />
    <path
       style="fill:#ffffff;stroke-width:0.918182;stroke-linecap:round;stroke-miterlimit:4;stroke-dasharray:none"
       d="m 45.703891,40.343237 c 0.0033,-0.838508 0.14464,-1.183125 0.663128,-1.616527 0.223885,-0.187145 0.248344,-0.194892 0.463042,-0.146652 0.217542,0.04888 0.493484,-0.01647 1.048392,-0.248269 0.0738,-0.03083 0.05072,0.03352 -0.09206,0.256722 -0.293146,0.458263 -0.519291,0.930122 -0.519291,1.083523 0,0.176028 0.185075,0.31474 0.342322,0.25657 0.06765,-0.02503 0.218804,-0.235435 0.372208,-0.518126 0.42008,-0.774121 1.082329,-1.564611 1.485408,-1.773052 0.171124,-0.08849 0.172572,-0.08812 0.251993,0.06547 0.04393,0.08496 0.163583,0.227962 0.265884,0.317786 0.208596,0.183149 0.307888,0.205679 2.302852,0.522545 2.225781,0.353526 2.629771,0.388046 3.117952,0.266413 0.101445,-0.02528 0.135902,0.0036 0.206632,0.172824 0.10017,0.23974 0.238469,0.928815 0.238469,1.188171 0,0.129753 0.03257,0.199733 0.112999,0.242776 0.167992,0.08991 0.365188,0.01973 0.406443,-0.144644 0.03641,-0.145112 -0.0075,-0.860944 -0.06142,-1.001515 -0.02603,-0.06785 0.02386,-0.06549 0.336049,0.01592 0.235759,0.06147 0.575262,0.09671 0.951123,0.09871 0.572233,0.0031 0.587811,0.0064 0.742304,0.160917 0.198513,0.198512 0.202195,0.365911 0.02111,0.959612 l -0.136701,0.448165 H 56.793021 55.36332 l -0.398098,-0.316352 c -1.190166,-0.945782 -2.851491,-1.681642 -3.838141,-1.700051 l -0.431886,-0.0081 -0.01654,0.198915 c -0.01998,0.240273 0.03266,0.27551 0.541597,0.362537 0.790986,0.135256 1.607131,0.467057 2.565666,1.043064 0.366389,0.220172 0.530575,0.347034 0.485871,0.37542 -0.03714,0.02358 -1.980638,0.04325 -4.318893,0.04369 l -4.25137,8.58e-4 z"
       id="path2239" />
  </g>
</svg>
