<?xml version="1.0" encoding="UTF-8" standalone="no"?>
<!-- Created with Inkscape (http://www.inkscape.org/) -->

<svg
   xmlns:dc="http://purl.org/dc/elements/1.1/"
   xmlns:cc="http://creativecommons.org/ns#"
   xmlns:rdf="http://www.w3.org/1999/02/22-rdf-syntax-ns#"
   xmlns:svg="http://www.w3.org/2000/svg"
   xmlns="http://www.w3.org/2000/svg"
   xmlns:sodipodi="http://sodipodi.sourceforge.net/DTD/sodipodi-0.dtd"
   xmlns:inkscape="http://www.inkscape.org/namespaces/inkscape"
   width="64"
   height="64"
   viewBox="0 0 16.933333 16.933334"
   version="1.1"
   id="svg8"
   inkscape:version="0.92.5 (2060ec1f9f, 2020-04-08)"
   sodipodi:docname="ramp_64x64.svg">
  <defs
     id="defs2" />
  <sodipodi:namedview
     id="base"
     pagecolor="#ffffff"
     bordercolor="#666666"
     borderopacity="1.0"
     inkscape:pageopacity="0.0"
     inkscape:pageshadow="2"
     inkscape:zoom="5.6"
     inkscape:cx="18.744685"
     inkscape:cy="10.740196"
     inkscape:document-units="mm"
     inkscape:current-layer="layer1"
     showgrid="false"
     units="px"
     inkscape:window-width="1208"
     inkscape:window-height="987"
     inkscape:window-x="1992"
     inkscape:window-y="0"
     inkscape:window-maximized="1" />
  <metadata
     id="metadata5">
    <rdf:RDF>
      <cc:Work
         rdf:about="">
        <dc:format>image/svg+xml</dc:format>
        <dc:type
           rdf:resource="http://purl.org/dc/dcmitype/StillImage" />
        <dc:title></dc:title>
      </cc:Work>
    </rdf:RDF>
  </metadata>
  <g
     inkscape:label="Layer 1"
     inkscape:groupmode="layer"
     id="layer1"
     transform="translate(0,-280.06665)">
    <path
       style="fill:#000000;stroke-width:0.02955431"
       d="m 0.84596185,293.47969 c -0.1075252,-0.0825 -0.1156561,-0.15159 -0.1156561,-0.98206 v -0.81697 l 0.081275,-0.079 c 0.065383,-0.0636 0.23870025,-0.12459 0.88662925,-0.31223 l 0.8053551,-0.23322 v -1.95461 c 0,-2.13204 -0.0073,-2.04049 0.16876,-2.11071 0.045349,-0.0181 2.7423395,-0.82478 5.9933134,-1.79264 4.0981195,-1.22008 5.9348485,-1.75455 5.9890725,-1.74277 0.04301,0.009 0.102862,0.0442 0.132995,0.0775 0.05198,0.0575 0.0552,0.15875 0.0628,1.97847 0.0044,1.05487 0.01223,1.91794 0.01739,1.91794 0.0052,0 0.167558,-0.0465 0.3609,-0.10344 0.193342,-0.0569 0.376059,-0.10344 0.406036,-0.10344 0.02998,0 0.09338,0.0389 0.140896,0.0864 l 0.08639,0.0864 v 2.95965 c 0,3.05136 5.58e-4,3.0355 -0.115657,3.12475 -0.06849,0.0526 -14.83200337,0.0526 -14.90049465,0 z M 15.35969,290.41239 c 0,-2.46523 -0.0027,-2.60193 -0.05172,-2.58677 -0.02845,0.009 -3.163789,0.92772 -6.9674293,2.04204 -3.8036391,1.11432 -6.9589308,2.04001 -7.0117596,2.05708 l -0.096051,0.0311 v 0.52969 0.52968 h 7.0634797 7.0634812 z m -3.941515,2.03909 c -0.05757,-0.0453 -0.07787,-0.0882 -0.07787,-0.16449 0,-0.21787 0.103655,-0.27668 0.487646,-0.27668 0.383991,0 0.487646,0.0588 0.487646,0.27668 0,0.0763 -0.0203,0.1192 -0.07787,0.16449 -0.06828,0.0537 -0.118748,0.0613 -0.409775,0.0613 -0.291026,0 -0.341493,-0.008 -0.409773,-0.0613 z m 1.50194,-0.0113 c -0.08094,-0.0809 -0.09642,-0.23344 -0.03225,-0.31789 0.07274,-0.0957 0.193661,-0.11199 0.833485,-0.11199 h 0.633494 v -0.42297 c 0,-0.38403 0.0055,-0.42888 0.05992,-0.48728 0.08043,-0.0863 0.184135,-0.10833 0.284292,-0.0603 0.147011,0.0705 0.159936,0.13488 0.151316,0.75398 -0.0077,0.55386 -0.0095,0.56833 -0.07953,0.6428 l -0.07165,0.0762 h -0.853269 -0.853266 z m -9.4341654,-1.67072 c 0.012029,-2.2e-4 0.025332,-0.61426 0.029559,-1.36449 l 0.00773,-1.36405 5.0685644,-1.56077 c 2.787711,-0.85843 5.111788,-1.56938 5.164616,-1.5799 l 0.09605,-0.0191 v 1.42246 1.42246 l 0.07398,-0.0186 c 0.04069,-0.0102 0.15041,-0.0422 0.243822,-0.0711 l 0.16984,-0.0525 0.0076,-1.77865 0.0076,-1.77866 -0.06672,0.0212 c -0.0367,0.0116 -2.540425,0.75782 -5.5638314,1.65814 -3.0234058,0.90032 -5.5469744,1.65189 -5.6079307,1.67014 l -0.1108283,0.0332 v 1.75151 1.75152 l 0.2290456,-0.0711 c 0.1259755,-0.0391 0.238888,-0.0713 0.2509162,-0.0716 z m 5.6821114,-1.66649 4.167158,-1.22108 0.0077,-1.15722 c 0.0061,-0.91554 -6e-5,-1.15735 -0.02955,-1.15789 -0.02051,-3.3e-4 -2.121973,0.64094 -4.6699248,1.42512 l -4.6326382,1.42581 v 1.09781 1.09782 l 0.4950343,-0.14465 c 0.272269,-0.0795 2.3702561,-0.69413 4.6621923,-1.36572 z"
       id="path9899"
       inkscape:connector-curvature="0"
       sodipodi:nodetypes="csccscscscccscsccsccscsccccccscssscscccscscscccccccscsccccccccccscccccccccscscccccc" />
    <path
       style="fill:#ffffff;stroke-width:0.0047872;stroke-miterlimit:4;stroke-dasharray:none"
       d="m 3.0468978,289.14722 0.011019,-1.7328 5.6364296,-1.67902 c 3.1000366,-0.92346 5.6408006,-1.67487 5.6461416,-1.66982 0.0053,0.005 -0.0025,0.79971 -0.01736,1.76591 l -0.02707,1.75673 -0.180774,0.0455 c -0.09943,0.025 -0.191361,0.0455 -0.2043,0.0455 -0.01294,0 -0.02352,-0.63647 -0.02352,-1.41438 0,-0.77792 -0.0081,-1.41439 -0.01794,-1.41439 -0.02926,0 -2.275737,0.68576 -6.3722592,1.94522 -2.1165456,0.65072 -3.8801055,1.19256 -3.9190215,1.20408 -0.063898,0.0189 -0.072081,0.15135 -0.084442,1.36667 -0.00756,0.74016 -0.024703,1.35674 -0.038176,1.37018 -0.013464,0.0134 -0.1134235,0.0512 -0.2221228,0.084 l -0.1976341,0.0595 z"
       id="path9901"
       inkscape:connector-curvature="0" />
    <path
       style="fill:#ffffff;stroke-width:0.0047872;stroke-miterlimit:4;stroke-dasharray:none"
       d="m 1.2635489,292.48061 v -0.51844 l 0.8971839,-0.26106 c 0.8398762,-0.24439 12.9274132,-3.78723 13.0883382,-3.83618 0.06981,-0.0212 0.07389,0.11988 0.07389,2.55581 v 2.5783 H 8.2932528 1.2635489 Z m 10.9679211,-0.0117 c 0.109515,-0.0767 0.129725,-0.31635 0.03342,-0.39627 -0.07811,-0.0649 -0.478902,-0.10597 -0.674609,-0.0693 -0.273789,0.0514 -0.372103,0.39471 -0.139787,0.48818 0.162563,0.0654 0.676527,0.0505 0.780976,-0.0227 z m 2.561338,-0.0281 c 0.05186,-0.074 0.06572,-0.21807 0.06572,-0.68276 0,-0.65135 -0.03178,-0.74334 -0.256851,-0.74334 -0.210251,0 -0.249794,0.0874 -0.249794,0.55188 v 0.41919 l -0.559422,8.5e-4 c -0.589722,8.5e-4 -0.865252,0.0408 -0.923824,0.13316 -0.05498,0.0867 -0.04311,0.21788 0.02903,0.32087 0.06436,0.0919 0.08416,0.0938 0.947566,0.0938 0.863408,0 0.883215,-0.002 0.947566,-0.0938 z"
       id="path9903"
       inkscape:connector-curvature="0" />
  </g>
</svg>
