<?xml version="1.0" encoding="UTF-8" standalone="no"?>
<svg
   xmlns:dc="http://purl.org/dc/elements/1.1/"
   xmlns:cc="http://creativecommons.org/ns#"
   xmlns:rdf="http://www.w3.org/1999/02/22-rdf-syntax-ns#"
   xmlns:svg="http://www.w3.org/2000/svg"
   xmlns="http://www.w3.org/2000/svg"
   xmlns:sodipodi="http://sodipodi.sourceforge.net/DTD/sodipodi-0.dtd"
   xmlns:inkscape="http://www.inkscape.org/namespaces/inkscape"
   width="64"
   height="64"
   viewBox="0 0 16.933333 16.933334"
   version="1.1"
   id="svg8"
   inkscape:version="1.0.2 (1.0.2+r75+1)"
   sodipodi:docname="seren_rated_0star.svg">
  <defs
     id="defs2" />
  <sodipodi:namedview
     id="base"
     pagecolor="#ffffff"
     bordercolor="#666666"
     borderopacity="1.0"
     inkscape:pageopacity="0.0"
     inkscape:pageshadow="2"
     inkscape:zoom="1.42"
     inkscape:cx="340.92958"
     inkscape:cy="80.592403"
     inkscape:document-units="mm"
     inkscape:current-layer="layer1"
     inkscape:document-rotation="0"
     showgrid="false"
     units="px"
     inkscape:window-width="1366"
     inkscape:window-height="704"
     inkscape:window-x="0"
     inkscape:window-y="0"
     inkscape:window-maximized="0" />
  <metadata
     id="metadata5">
    <rdf:RDF>
      <cc:Work
         rdf:about="">
        <dc:format>image/svg+xml</dc:format>
        <dc:type
           rdf:resource="http://purl.org/dc/dcmitype/StillImage" />
        <dc:title></dc:title>
      </cc:Work>
    </rdf:RDF>
  </metadata>
  <g
     inkscape:label="Layer 1"
     inkscape:groupmode="layer"
     id="layer1">
    <path
       style="fill:#000000;stroke-width:0.0292078"
       d="m 6.7078815,16.076174 c -0.07237,-0.0402 -1.109032,-1.446616 -1.334277,-1.81019 -0.1684604,-0.271914 -0.3370402,-0.65403 -0.4213776,-0.955121 -0.139652,-0.498562 -0.6173566,-2.533037 -0.6173566,-2.62923 0,-0.05722 0.019537,-0.179081 0.043434,-0.270802 C 4.4967152,9.9562309 4.898814,9.6515249 5.3747995,9.6557024 5.8273664,9.6596824 6.0929314,9.8523838 6.3868,10.390077 l 0.1676144,0.306683 1.115e-4,-0.563702 c 1.086e-4,-0.5961771 0.019276,-0.6973369 0.1445464,-0.7643876 0.1501904,-0.080382 0.3538569,-0.00485 0.4083417,0.1514583 0.047091,0.13509 0.042065,2.3517173 -0.00558,2.4443573 -0.019834,0.03861 -0.071038,0.09616 -0.1137757,0.127875 -0.094679,0.07028 -0.2576936,0.05042 -0.3436675,-0.04186 C 6.6135756,12.01742 6.4004404,11.640147 6.1707651,11.212119 5.9410898,10.784093 5.7188289,10.398929 5.6768507,10.3562 c -0.041978,-0.04272 -0.1306626,-0.09396 -0.1970769,-0.113863 -0.2386263,-0.07149 -0.5187139,0.118197 -0.5507606,0.373006 -0.00977,0.07762 0.07295,0.467876 0.2772656,1.308146 0.160148,0.658636 0.3199267,1.282952 0.3550626,1.387371 0.1269897,0.377372 0.3470036,0.740289 0.9376562,1.546678 0.3230397,0.441032 0.5996862,0.834334 0.6147692,0.874006 0.040385,0.10621 0.00319,0.225817 -0.096207,0.309459 -0.09523,0.08013 -0.2061017,0.09272 -0.3097228,0.03517 z m 4.8931715,-0.0069 c -0.18802,-0.102014 -0.183384,-0.189754 0.04902,-0.92747 0.503452,-1.598135 0.512544,-1.6643 0.512394,-3.72833 -1.11e-4,-1.4405459 -0.0026,-1.5093303 -0.05702,-1.5986519 -0.07968,-0.1306807 -0.189118,-0.1938732 -0.335747,-0.1938732 -0.158253,0 -0.299944,0.081735 -0.370524,0.2137349 -0.0472,0.088272 -0.05442,0.1703142 -0.05442,0.6184252 0,0.50788 -0.0012,0.518122 -0.0727,0.603051 -0.08793,0.104498 -0.201114,0.130956 -0.329953,0.07712 -0.167098,-0.06981 -0.181506,-0.148553 -0.181506,-0.991973 0,-0.617451 -0.0079,-0.7623754 -0.04523,-0.8346516 C 10.609749,9.1024189 10.29256,9.0355796 10.119602,9.1811145 9.9599172,9.3154796 9.9584298,9.3239795 9.9427718,10.192331 l -0.014613,0.809916 -0.076465,0.0764 c -0.1368951,0.136786 -0.397599,0.08454 -0.4651834,-0.09323 -0.015699,-0.04128 -0.02793,-0.497483 -0.027959,-1.0426543 C 9.3585217,9.0781212 9.3529756,8.9625822 9.3074346,8.8722744 9.175281,8.6103034 8.7680864,8.5880681 8.6067675,8.834011 8.5608934,8.9039481 8.5538113,9.0244865 8.5407768,9.9572903 l -0.014613,1.0449337 -0.077669,0.07762 c -0.1089021,0.108835 -0.2907373,0.108816 -0.3996135,-3e-5 L 7.9712133,11.002159 7.9566002,8.8049159 C 7.9432833,6.8009063 7.9376495,6.6015231 7.8924923,6.5377527 7.7265788,6.3034212 7.3630344,6.297093 7.2093138,6.5258696 7.1648156,6.5920992 7.1514625,6.681289 7.1392608,6.9940424 7.1246767,7.3673952 7.1214833,7.3831031 7.0438601,7.4607038 6.9230986,7.5814356 6.7535477,7.5741921 6.6365974,7.4433028 l -0.087301,-0.097706 0.010152,-0.4127662 c 0.00918,-0.3741631 0.01743,-0.4283307 0.087957,-0.5791525 0.093881,-0.2007381 0.2796741,-0.3918625 0.4770999,-0.4907927 0.1230997,-0.061682 0.1865269,-0.073021 0.4085915,-0.073021 0.2233058,0 0.2876982,0.011644 0.4278347,0.077342 0.2100773,0.098491 0.3893982,0.2778116 0.487891,0.4878881 0.076979,0.1641974 0.077384,0.1687536 0.086726,0.9783462 l 0.00939,0.8133776 0.063637,-0.021036 C 8.6435744,8.114196 8.777359,8.098641 8.9058709,8.09119 9.0979925,8.080038 9.1700543,8.08916 9.3111973,8.142068 9.4812826,8.205901 9.6792834,8.3716549 9.812164,8.5614353 l 0.059126,0.084445 0.1014502,-0.052645 c 0.1476388,-0.076612 0.4810938,-0.091681 0.6753388,-0.030515 0.205979,0.064861 0.416601,0.2210472 0.521816,0.3869541 0.04674,0.073705 0.0895,0.1475444 0.09501,0.1640917 0.0067,0.01995 0.04392,0.017922 0.110642,-0.00601 0.281211,-0.1007876 0.594405,-0.086215 0.841848,0.039176 0.16848,0.085376 0.367176,0.2959629 0.451587,0.4786054 0.06173,0.1335787 0.06332,0.1701172 0.07241,1.6699765 0.01317,2.17465 -0.01021,2.350289 -0.534997,4.016079 -0.106274,0.337351 -0.212876,0.643524 -0.236896,0.680385 -0.07772,0.119286 -0.231611,0.15157 -0.368464,0.0773 z M 6.6974343,8.7106478 C 6.4609319,8.582112 6.5584688,8.1985786 6.829614,8.1908919 7.048827,8.1846643 7.1888896,8.3918414 7.0967518,8.5860079 7.0215154,8.7445606 6.855297,8.7964427 6.6974343,8.7106478 Z M 1.6848629,5.2505634 C 1.5503038,5.1894824 1.4548241,5.0613761 1.4245936,4.901357 1.4131236,4.84058 1.4379686,4.6133358 1.4881216,4.3209662 l 0.0824,-0.4805085 -0.367643,-0.3566093 C 0.91547371,3.205065 0.82746061,3.1012752 0.79959721,3.0082735 0.73264321,2.784812 0.83824421,2.5357899 1.0424106,2.4356852 1.1026296,2.4061621 1.3324673,2.3565392 1.5531619,2.3254165 1.77386,2.2942931 1.9836817,2.2624238 2.0194367,2.2545886 2.0693077,2.2436614 2.1387455,2.1333398 2.3176994,1.7807002 2.5672899,1.2888757 2.6332783,1.213782 2.8506665,1.1742144 c 0.1279463,-0.023288 0.302488,0.026518 0.3992675,0.1139285 0.037829,0.034165 0.1674624,0.2592729 0.2880769,0.5002375 0.1206145,0.2409646 0.2231798,0.4423899 0.2279265,0.4476117 0.00478,0.00521 0.2184765,0.039965 0.4749558,0.077208 0.5268525,0.076502 0.6518356,0.1230844 0.7571266,0.2821882 0.086907,0.1313267 0.099701,0.3459689 0.028632,0.4803724 -0.024823,0.046968 -0.2010733,0.2401977 -0.3916431,0.429409 l -0.3464923,0.3440202 0.08213,0.4737993 C 4.4216904,4.617438 4.4459244,4.839142 4.4346674,4.9086802 4.4131329,5.0416846 4.2726901,5.2126469 4.1391049,5.2684641 3.9579765,5.344143 3.8660936,5.3200951 3.3847358,5.0710412 L 2.9269059,4.8341542 2.6305144,4.9891622 C 2.0746044,5.2799033 2.0127906,5.3071852 1.9106127,5.3069122 1.8543907,5.3067688 1.7527971,5.2814153 1.6848571,5.2505671 Z M 2.4191844,4.4436466 c 0.4957305,-0.2587531 0.5193243,-0.2587574 1.017569,-2.115e-4 0.2081409,0.108008 0.382301,0.1922657 0.3870245,0.1872402 0.00471,-0.005 -0.022593,-0.1929877 -0.060704,-0.417691 C 3.6692391,3.6597116 3.6697091,3.6582518 4.0752107,3.2469933 L 4.3937441,2.9239347 3.9651874,2.8606813 C 3.3911936,2.7759682 3.3823917,2.7697261 3.1382438,2.2741425 3.0343179,2.0631934 2.9423141,1.8906236 2.9337881,1.8906547 2.9252505,1.8906859 2.8328542,2.0577146 2.7284351,2.26183 2.4699435,2.7671315 2.453402,2.779095 1.9004494,2.8607031 l -0.4302605,0.063499 0.3046502,0.3083188 c 0.1675589,0.1695756 0.3192287,0.3370279 0.3370461,0.372116 0.04796,0.094458 0.039567,0.3093948 -0.026026,0.6663988 -0.061486,0.3346527 -0.065397,0.3650976 -0.046946,0.3650976 0.0063,0 0.1774288,-0.086623 0.3802647,-0.1924974 z M 7.0007993,5.2467878 C 6.8695965,5.1818399 6.7706605,5.0516357 6.7414184,4.9054259 6.731534,4.8560108 6.7601953,4.6001131 6.8057363,4.3310034 L 6.8878759,3.8456932 6.5191329,3.4742123 C 6.1070026,3.0590254 6.0550762,2.9659231 6.1138653,2.7475957 6.1884094,2.4707595 6.3055733,2.4091239 6.936913,2.3146232 7.1962815,2.2758022 7.4116573,2.2400899 7.4155271,2.2352665 7.4193671,2.2304145 7.5074271,2.049012 7.6111542,1.8320858 7.7148818,1.6151597 7.841437,1.3901934 7.8923924,1.3321604 c 0.1899274,-0.2163179 0.522751,-0.2162875 0.712711,6.51e-5 0.050986,0.058069 0.1769212,0.2830356 0.2798587,0.4999255 0.1029405,0.2168906 0.1912736,0.3986187 0.1962962,0.4038404 0.005,0.00521 0.2189813,0.039965 0.4754634,0.077208 0.6265783,0.090983 0.7521423,0.1569495 0.8268503,0.4343968 0.05874,0.2181587 0.0067,0.3115405 -0.4036715,0.7250199 L 9.6127467,3.8424991 9.6955525,4.3523618 C 9.777199,4.8550955 9.7776277,4.8641407 9.7261111,4.9990373 9.6607433,5.1701907 9.5044484,5.2821967 9.3067872,5.2995361 9.1606513,5.3123533 9.197659,5.3277919 8.4842681,4.956634 L 8.2517027,4.8356408 7.793652,5.0717827 C 7.2892231,5.3318348 7.2085767,5.3496348 7.0007993,5.2467878 Z M 7.7407067,4.4429217 C 8.2324146,4.1827762 8.2651601,4.1828471 8.7609015,4.4452389 8.9640603,4.5527241 9.1356367,4.6353097 9.142185,4.6287614 9.1487023,4.6222441 9.1290419,4.4733572 9.0983892,4.2979676 8.9834549,3.639913 8.9752635,3.6692362 9.3921579,3.2461692 L 9.7114278,2.9221693 9.4546995,2.8870993 C 8.8922759,2.8102734 8.8306533,2.7940173 8.7193389,2.6931095 8.6512773,2.6314057 8.5519503,2.4720087 8.4395417,2.2440836 8.3436892,2.0497317 8.2578181,1.8907163 8.24872,1.8907163 c -0.0091,0 -0.094973,0.1590154 -0.1908246,0.3533673 C 7.9454869,2.4720087 7.8461606,2.6314093 7.7780975,2.6931095 7.6667839,2.7940173 7.6051605,2.8102734 7.0427377,2.8870986 l -0.2567284,0.03507 0.3192699,0.324 c 0.223728,0.2270409 0.3277633,0.35498 0.3476402,0.4275233 0.029632,0.1081253 0.012173,0.295083 -0.066259,0.71022 -0.049661,0.2628161 -0.048532,0.2523422 -0.027285,0.2523422 0.00886,0 0.1804536,-0.086948 0.3813212,-0.1932215 z m 4.6111713,0.8243005 c -0.128967,-0.056193 -0.268097,-0.228739 -0.289112,-0.3585427 -0.01127,-0.069539 0.01297,-0.2912422 0.06402,-0.5856916 l 0.08213,-0.4737993 -0.34649,-0.3440201 c -0.190573,-0.1892113 -0.366811,-0.3824451 -0.391646,-0.429409 -0.114345,-0.216252 -0.0122,-0.5374706 0.203432,-0.6397998 0.05556,-0.026366 0.314599,-0.080371 0.575649,-0.1200178 0.261047,-0.039646 0.47815,-0.07599 0.482449,-0.080764 0.0043,-0.00478 0.106499,-0.2058331 0.227114,-0.4467977 0.120614,-0.2409646 0.250247,-0.4660713 0.288076,-0.5002375 0.09899,-0.089409 0.268253,-0.136174 0.407635,-0.1126258 0.197162,0.03331 0.300294,0.154092 0.539644,0.6319972 0.167393,0.3342262 0.231521,0.4356981 0.282401,0.4468563 0.03621,0.00794 0.255534,0.041261 0.487395,0.074045 0.255819,0.036171 0.456748,0.080151 0.511039,0.1118589 0.111546,0.065143 0.213729,0.2137516 0.238773,0.3472536 0.03867,0.2061031 -0.02461,0.3110031 -0.418672,0.6940738 l -0.367286,0.3570402 0.08163,0.4814744 c 0.08654,0.5104262 0.08453,0.6145375 -0.01502,0.7777486 -0.06724,0.1102376 -0.256826,0.2084545 -0.404229,0.2094169 -0.08627,5.865e-4 -0.582746,-0.2270909 -0.925513,-0.4243813 l -0.0891,-0.051283 -0.459286,0.2381506 C 12.632439,5.3209865 12.533741,5.3464609 12.351879,5.26722 Z m 0.712353,-0.8256206 c 0.494413,-0.2565632 0.518694,-0.2565002 1.015163,0.00261 0.203464,0.1061998 0.375459,0.1875682 0.382213,0.1808141 0.0067,-0.00673 -0.01487,-0.1609901 -0.04809,-0.3427507 -0.06745,-0.3692542 -0.07625,-0.5825691 -0.02796,-0.6776562 0.01781,-0.035092 0.169487,-0.2025405 0.337046,-0.372116 l 0.304653,-0.3083181 -0.430264,-0.0635 C 14.044041,2.779074 14.0275,2.7671105 13.769008,2.261809 13.664588,2.0576936 13.572181,1.8906649 13.563655,1.8906337 c -0.0085,-3.18e-5 -0.10053,0.1725387 -0.204456,0.3834878 -0.244148,0.4955836 -0.252949,0.5018257 -0.826941,0.5865388 l -0.428559,0.063246 0.318537,0.3230593 c 0.401896,0.4076066 0.410228,0.4310556 0.325055,0.9149357 -0.03319,0.1885269 -0.06685,0.3723484 -0.07482,0.4084908 -0.008,0.036142 -0.0074,0.065723 0.0012,0.065723 0.0086,0 0.184373,-0.087544 0.390565,-0.1945424 z"
       id="path238" />
    <path
       style="fill:#f9f9f9;stroke:#000000;stroke-width:0.0292078px;stroke-linecap:butt;stroke-linejoin:miter;stroke-opacity:1"
       d="m 6.7078815,16.076174 4.8931715,-0.0069"
       id="path240" />
    <path
       style="fill:none;stroke:#000000;stroke-width:0.0292078px;stroke-linecap:butt;stroke-linejoin:miter;stroke-opacity:1"
       d="m 6.5493353,7.3455762 0.00507,3.3511838"
       id="path242" />
    <path
       style="fill:#ffffff;stroke-width:0.0540886"
       d="M 7.1229156,15.860743 C 7.1421921,15.729393 7.0667732,15.591052 6.6879662,15.062938 5.9467916,14.029623 5.7024033,13.626192 5.577297,13.229462 5.4147869,12.714125 4.9710595,10.830539 4.9731458,10.664878 c 0.00326,-0.2586 0.2855649,-0.463118 0.5189369,-0.375931 0.1464032,0.05469 0.2357161,0.186476 0.7269982,1.072705 0.4330188,0.781125 0.5486491,0.893557 0.7698773,0.748603 0.1213154,-0.07949 0.1309711,-0.125632 0.1643675,-0.78545 0.019508,-0.385551 0.019537,-0.961584 5.87e-5,-1.280077 C 7.1128037,9.3814623 7.061096,9.2841628 6.7739698,9.3307589 l -0.1798959,0.02919 V 9.0422192 8.7244868 l 0.1798959,0.02919 c 0.2195975,0.035635 0.3609896,-0.083307 0.3609896,-0.3036792 0,-0.2063856 -0.1204211,-0.2941467 -0.3520349,-0.2565611 L 6.5940739,8.224082 V 7.8535671 7.4830457 l 0.1623812,0.061291 c 0.2543221,0.095994 0.3662317,-0.053897 0.41252,-0.5525296 0.040689,-0.4383174 0.1391943,-0.5999325 0.3656566,-0.5999325 0.071074,0 0.1817708,0.042594 0.245988,0.094655 0.1150545,0.093271 0.117316,0.1274358 0.1547379,2.3373357 l 0.037974,2.2426797 0.1425102,0.07991 c 0.1271215,0.07128 0.1570291,0.0704 0.2769455,-0.0082 0.1333585,-0.08738 0.1347554,-0.09677 0.1739341,-1.1697424 0.034947,-0.9570167 0.051131,-1.0921863 0.1404479,-1.1730174 0.1388366,-0.1256456 0.3623705,-0.1144794 0.5019349,0.025084 0.1097155,0.1097061 0.1175514,0.1771471 0.1356656,1.1677747 0.020624,1.12829 0.033224,1.176822 0.3053071,1.176822 0.2554933,0 0.2782659,-0.06788 0.3161101,-0.942183 0.040776,-0.9420276 0.087027,-1.0726141 0.3799042,-1.0726141 0.311968,0 0.346035,0.0907 0.395477,1.0528841 0.04403,0.856849 0.04546,0.864074 0.186879,0.943277 0.127752,0.07155 0.157162,0.07021 0.283966,-0.01288 0.134864,-0.08837 0.141454,-0.114928 0.141454,-0.570166 0,-0.5809792 0.06343,-0.7864937 0.269048,-0.8716616 0.158684,-0.06573 0.354429,-0.00912 0.446799,0.1292165 0.02185,0.032731 0.04011,0.7926091 0.04057,1.6886101 8.69e-4,1.869224 -0.02866,2.114942 -0.403058,3.344184 -0.134849,0.442744 -0.245177,0.886167 -0.245177,0.985384 v 0.180392 H 9.2808225 7.0996042 Z"
       id="path244" />
  </g>
</svg>
