<?xml version="1.0" encoding="UTF-8" standalone="no"?>
<!-- Created with Inkscape (http://www.inkscape.org/) -->

<svg
   xmlns:dc="http://purl.org/dc/elements/1.1/"
   xmlns:cc="http://creativecommons.org/ns#"
   xmlns:rdf="http://www.w3.org/1999/02/22-rdf-syntax-ns#"
   xmlns:svg="http://www.w3.org/2000/svg"
   xmlns="http://www.w3.org/2000/svg"
   xmlns:sodipodi="http://sodipodi.sourceforge.net/DTD/sodipodi-0.dtd"
   xmlns:inkscape="http://www.inkscape.org/namespaces/inkscape"
   width="64"
   height="64"
   viewBox="0 0 16.933333 16.933334"
   version="1.1"
   id="svg8"
   inkscape:version="0.92.5 (2060ec1f9f, 2020-04-08)"
   sodipodi:docname="razor_64x64.svg">
  <defs
     id="defs2" />
  <sodipodi:namedview
     id="base"
     pagecolor="#ffffff"
     bordercolor="#666666"
     borderopacity="1.0"
     inkscape:pageopacity="0.0"
     inkscape:pageshadow="2"
     inkscape:zoom="2.8"
     inkscape:cx="104.12471"
     inkscape:cy="-37.138989"
     inkscape:document-units="mm"
     inkscape:current-layer="layer1"
     showgrid="false"
     units="px"
     inkscape:window-width="1208"
     inkscape:window-height="987"
     inkscape:window-x="1992"
     inkscape:window-y="0"
     inkscape:window-maximized="1" />
  <metadata
     id="metadata5">
    <rdf:RDF>
      <cc:Work
         rdf:about="">
        <dc:format>image/svg+xml</dc:format>
        <dc:type
           rdf:resource="http://purl.org/dc/dcmitype/StillImage" />
        <dc:title></dc:title>
      </cc:Work>
    </rdf:RDF>
  </metadata>
  <g
     inkscape:label="Layer 1"
     inkscape:groupmode="layer"
     id="layer1"
     transform="translate(0,-280.06665)">
    <path
       style="fill:#000000;stroke-width:0.02848056"
       d="M 3.0737375,296.2391 C 2.854387,296.192 2.567561,296.01704 2.395853,295.82564 c -0.2616859,-0.29172 -0.3938422,-0.61603 -0.4229781,-1.03802 -0.019338,-0.28002 0.053966,-0.64561 0.1813387,-0.90439 0.065674,-0.13347 0.6941226,-0.86497 2.8015985,-3.26112 1.4943108,-1.69898 2.7894237,-3.14843 2.8780297,-3.22101 0.088607,-0.0726 0.4194933,-0.26457 0.7353051,-0.42667 0.3158117,-0.16209 0.5782538,-0.2985 0.5832028,-0.30314 0.00496,-0.004 -0.039297,-0.0778 -0.098332,-0.16246 -0.1485265,-0.21319 -0.2233284,-0.45209 -0.2240074,-0.7154 -7.383e-4,-0.28595 0.045729,-0.421 0.3279259,-0.95295 0.1316783,-0.24823 0.2394231,-0.46319 0.2394231,-0.47765 0,-0.014 -0.1753195,-0.2241 -0.3895998,-0.46581 -0.2142803,-0.24171 -0.414857,-0.49408 -0.445727,-0.56083 -0.076431,-0.16524 -0.076486,-0.4413 -1.116e-4,-0.60672 0.031859,-0.0691 0.394181,-0.50236 0.8401188,-1.00482 0.6539623,-0.73685 0.8052093,-0.89236 0.9112903,-0.93705 0.146068,-0.0616 0.337326,-0.0488 0.47967,0.0321 0.116527,0.0661 4.734599,5.30658 4.797415,5.44395 0.07019,0.15347 0.06581,0.46357 -0.0088,0.6219 -0.07122,0.15112 -1.564334,1.83916 -1.692211,1.9131 -0.132904,0.0769 -0.38385,0.0722 -0.521399,-0.01 -0.05883,-0.035 -0.281266,-0.2626 -0.494315,-0.50571 -0.213047,-0.24312 -0.397771,-0.44202 -0.410496,-0.44202 -0.01267,0 -0.181331,0.10744 -0.374682,0.23906 -0.545587,0.37103 -0.558658,0.37717 -0.83284,0.39133 -0.28871,0.0156 -0.470029,-0.0489 -0.684026,-0.24085 -0.07468,-0.0671 -0.140064,-0.11694 -0.145302,-0.11102 -0.0052,0.007 -0.128786,0.30623 -0.274556,0.66728 -0.145766,0.36105 -0.3082402,0.72254 -0.3610542,0.80332 -0.05281,0.0808 -1.3450994,1.56065 -2.8717472,3.28865 -2.4122163,2.73036 -2.7955972,3.15246 -2.927467,3.22305 -0.2931923,0.15695 -0.6070523,0.20384 -0.9177938,0.13705 z m 0.6835772,-0.51193 c 0.1302597,-0.0614 0.4300372,-0.39087 2.8947196,-3.18096 1.5121742,-1.71184 2.7845395,-3.16942 2.8274796,-3.23907 0.067905,-0.11019 0.6397891,-1.49653 0.6397891,-1.551 0,-0.0349 -0.6259381,-0.7341 -0.6571814,-0.7341 -0.060233,0 -1.2591562,0.64114 -1.3883056,0.7424 -0.073525,0.0577 -1.3499509,1.48754 -2.8364891,3.17749 -2.5657235,2.91679 -2.7066151,3.08255 -2.7780713,3.26846 -0.2443528,0.6357 0.026377,1.33828 0.5986778,1.55363 0.1975629,0.0744 0.4971683,0.0585 0.6993813,-0.0369 z m -0.6000262,-0.40722 c -0.3116217,-0.12589 -0.4787609,-0.57408 -0.3398361,-0.91101 0.068553,-0.16627 2.160391,-2.5331 2.238781,-2.5331 0.1018992,0 0.1966828,0.11377 0.1966828,0.23605 0,0.10468 -0.053043,0.17061 -1.0427974,1.29595 -0.9287179,1.05592 -1.0427974,1.19602 -1.0427974,1.28076 0,0.11267 0.1030838,0.22087 0.2104663,0.22087 0.056556,0 0.5031917,-0.49186 2.3894797,-2.63142 2.2361475,-2.53642 2.3199175,-2.63548 2.3199175,-2.74324 0,-0.12355 -0.094131,-0.23754 -0.1963633,-0.23754 -0.037313,0 -0.4015982,0.39189 -1.1138182,1.19827 -1.134924,1.28498 -1.1169436,1.26887 -1.2664674,1.13542 -0.049737,-0.0444 -0.070453,-0.0913 -0.070453,-0.15942 0,-0.0868 0.1083178,-0.2191 1.0628508,-1.29933 0.5845678,-0.66153 1.098948,-1.22262 1.1430671,-1.24689 0.2922543,-0.16069 0.6387446,-0.0223 0.7907187,0.31557 0.063263,0.14065 0.068153,0.40714 0.010331,0.56547 -0.02887,0.0792 -0.7364235,0.90292 -2.3730323,2.76278 -2.4772511,2.81517 -2.4588189,2.79614 -2.7062281,2.79376 -0.058828,-5.8e-4 -0.1535816,-0.0198 -0.210571,-0.043 z m 11.3404245,-7.79234 c 0.852768,-0.96707 0.84032,-0.94517 0.654455,-1.15109 l -0.100907,-0.11171 -0.84896,0.96355 -0.848961,0.96355 0.08755,0.0939 c 0.105177,0.11281 0.146666,0.13278 0.234613,0.11336 0.04241,-0.01 0.342934,-0.32797 0.822206,-0.87149 z m -3.15945,0.49595 c 0.04016,-3.3e-4 0.780533,-0.46975 0.83215,-0.52765 0.003,-0.003 -0.550561,-0.63723 -1.230345,-1.40833 l -1.2359692,-1.40206 -0.2234238,0.42487 c -0.2622754,0.49874 -0.2942294,0.6199 -0.229977,0.87203 0.042933,0.16849 0.072244,0.20661 0.784149,1.01931 0.406751,0.46433 0.774906,0.87322 0.818124,0.90865 0.09273,0.0759 0.300107,0.14611 0.375975,0.12699 0.02941,-0.008 0.07861,-0.014 0.10931,-0.014 z m 1.86981,-0.33467 0.132174,-0.15221 -1.837599,-2.08487 -1.8375982,-2.08486 -0.1403287,0.15921 -0.1403269,0.15921 1.8313098,2.07789 c 1.007221,1.14285 1.837812,2.0779 1.845758,2.0779 0.008,0 0.07392,-0.0684 0.146616,-0.15221 z m -1.129306,-2.88798 -1.838233,-2.08574 -0.141254,0.15826 -0.1412542,0.15828 1.8382322,2.08574 1.838233,2.08575 0.141254,-0.15828 0.141254,-0.15826 z m 0.841518,-0.95638 -1.837947,-2.08525 -0.281183,0.31794 -0.281182,0.31791 1.838352,2.08591 1.838353,2.08587 0.280778,-0.31856 0.280776,-0.31856 z m -2.232013,-2.53257 c -0.1815,-0.21087 -0.16151,-0.22551 -1.0212262,0.74815 -0.7127522,0.80723 -0.761666,0.86957 -0.761666,0.97065 0,0.082 0.022135,0.13388 0.091445,0.21505 l 0.091445,0.10702 0.849271,-0.96318 0.8492722,-0.96321 z"
       id="path15548"
       inkscape:connector-curvature="0" />
    <path
       style="fill:#ffffff;stroke-width:0.00217472;stroke-miterlimit:4;stroke-dasharray:none"
       d="m 3.0417917,295.74104 c -0.2547108,-0.1073 -0.4446292,-0.3078 -0.5666507,-0.59802 -0.068539,-0.16303 -0.082795,-0.23548 -0.084434,-0.42902 -0.00275,-0.32735 0.056294,-0.49753 0.2739281,-0.78919 0.098662,-0.13223 1.3469441,-1.56481 2.7739502,-3.1835 l 2.5945563,-2.94308 0.270099,-0.15565 c 0.5298593,-0.30518 1.1185372,-0.59774 1.1673711,-0.58015 0.026666,0.01 0.1809191,0.16819 0.3427921,0.3524 l 0.2943152,0.33497 -0.03605,0.10206 c -0.01984,0.0561 -0.1616182,0.4054 -0.3150832,0.77619 l -0.2790292,0.67418 -1.4109567,1.60881 c -2.565616,2.92541 -4.1323403,4.67299 -4.2731686,4.76643 -0.1186758,0.0788 -0.1640291,0.0902 -0.3916439,0.0979 -0.1726777,0.007 -0.2911923,-0.004 -0.3599915,-0.0344 z m 0.5085704,-0.41337 c 0.059889,-0.0309 0.2482867,-0.2011 0.4186531,-0.37832 0.50981,-0.5303 4.4179555,-4.99852 4.4717302,-5.11257 0.076817,-0.16293 0.069131,-0.46738 -0.016171,-0.64042 -0.1043096,-0.21158 -0.2597204,-0.31874 -0.4830253,-0.33305 -0.1368987,-0.01 -0.2072501,10e-4 -0.2756871,0.0412 -0.099131,0.0572 -2.0326603,2.21962 -2.1613235,2.41715 -0.042809,0.0658 -0.07785,0.14565 -0.07785,0.17767 0,0.0712 0.1253974,0.20846 0.1905865,0.20846 0.082712,0 0.2835216,-0.20669 1.2754561,-1.31272 0.5858336,-0.65324 0.9865614,-1.07753 1.0176615,-1.07753 0.060275,0 0.1632604,0.13705 0.1632604,0.21731 0,0.0892 -0.4998239,0.67767 -2.3676577,2.78778 -1.9221525,2.17145 -2.2874207,2.57214 -2.3447407,2.57214 -0.021074,0 -0.071225,-0.0322 -0.1114445,-0.0715 -0.059283,-0.0578 -0.069586,-0.0873 -0.054476,-0.15565 0.012121,-0.0545 0.3633179,-0.48127 0.9942541,-1.20804 0.5365865,-0.61806 0.9979386,-1.16513 1.025226,-1.21569 0.027286,-0.0507 0.049655,-0.12355 0.04971,-0.16229 1.364e-4,-0.0862 -0.1131525,-0.22076 -0.1858689,-0.22076 -0.069076,0 -1.0700036,1.08317 -1.7526552,1.89667 -0.4245731,0.50595 -0.5227506,0.63959 -0.5479871,0.74591 -0.1237308,0.52133 0.3594391,1.03683 0.7723444,0.82404 z"
       id="path15550"
       inkscape:connector-curvature="0" />
    <path
       style="fill:#ffffff;stroke-width:0.00217472;stroke-miterlimit:4;stroke-dasharray:none"
       d="m 11.071574,288.00305 c -0.03723,-0.0141 -0.10785,-0.0482 -0.15693,-0.0769 -0.1288,-0.0756 -1.5548417,-1.70915 -1.6126383,-1.84733 -0.117932,-0.28195 -0.084048,-0.4323 0.2358323,-1.04647 l 0.1649848,-0.31678 1.2237442,1.38816 c 0.832368,0.9442 1.213238,1.39614 1.190897,1.41317 -0.01806,0.014 -0.190854,0.12686 -0.383974,0.25132 -0.358986,0.23136 -0.516849,0.28736 -0.661916,0.2348 z"
       id="path15552"
       inkscape:connector-curvature="0" />
    <path
       style="fill:#ffffff;stroke-width:0.00217472;stroke-miterlimit:4;stroke-dasharray:none"
       d="m 11.232239,285.74574 -1.8211662,-2.06638 0.1282487,-0.1455 0.1282483,-0.14549 1.8290012,2.0751 1.829001,2.07512 -0.09379,0.11061 c -0.05158,0.0607 -0.112822,0.12231 -0.136086,0.13677 -0.03297,0.0205 -0.443632,-0.42919 -1.863465,-2.0402 z"
       id="path15554"
       inkscape:connector-curvature="0" />
    <path
       style="fill:#ffffff;stroke-width:0.00217472;stroke-miterlimit:4;stroke-dasharray:none"
       d="m 11.801155,285.10415 -1.8228752,-2.06832 0.1282492,-0.1455 0.128248,-0.14549 1.829171,2.0753 1.82917,2.07529 -0.119833,0.13846 c -0.06591,0.0763 -0.126458,0.13861 -0.134543,0.13861 -0.0081,0 -0.835002,-0.93075 -1.837583,-2.06833 z"
       id="path15556"
       inkscape:connector-curvature="0" />
    <path
       style="fill:#ffffff;stroke-width:0.00217472;stroke-miterlimit:4;stroke-dasharray:none"
       d="m 12.368438,284.46072 -1.822799,-2.06824 0.269516,-0.30694 0.269517,-0.30694 1.830004,2.07607 1.830004,2.07608 -0.262635,0.2991 c -0.144449,0.1645 -0.268975,0.2991 -0.276722,0.2991 -0.0077,0 -0.834345,-0.93071 -1.836885,-2.06823 z"
       id="path15558"
       inkscape:connector-curvature="0" />
    <path
       style="fill:#ffffff;stroke-width:0.00217472;stroke-miterlimit:4;stroke-dasharray:none"
       d="m 8.9981235,283.21434 c -0.047947,-0.0708 -0.087161,-0.15331 -0.087161,-0.18328 0,-0.13003 1.4383115,-1.76638 1.5929635,-1.81226 0.04528,-0.014 0.08719,0.011 0.166462,0.095 l 0.105948,0.11281 -0.8455272,0.95815 -0.8455268,0.95816 z"
       id="path15560"
       inkscape:connector-curvature="0" />
    <path
       style="fill:#ffffff;stroke-width:0.00217472;stroke-miterlimit:4;stroke-dasharray:none"
       d="m 13.48061,288.29573 -0.108167,-0.10248 0.842445,-0.95545 0.842446,-0.95543 0.08697,0.10179 c 0.04784,0.0559 0.08697,0.13099 0.08697,0.16654 0,0.0994 -0.161293,0.3061 -0.773826,0.99161 -0.633193,0.70861 -0.77623,0.85599 -0.830783,0.85599 -0.02084,0 -0.08656,-0.0461 -0.146047,-0.10248 z"
       id="path15562"
       inkscape:connector-curvature="0" />
  </g>
</svg>
