<?xml version="1.0" encoding="UTF-8" standalone="no"?>
<!-- Created with Inkscape (http://www.inkscape.org/) -->

<svg
   xmlns:dc="http://purl.org/dc/elements/1.1/"
   xmlns:cc="http://creativecommons.org/ns#"
   xmlns:rdf="http://www.w3.org/1999/02/22-rdf-syntax-ns#"
   xmlns:svg="http://www.w3.org/2000/svg"
   xmlns="http://www.w3.org/2000/svg"
   xmlns:sodipodi="http://sodipodi.sourceforge.net/DTD/sodipodi-0.dtd"
   xmlns:inkscape="http://www.inkscape.org/namespaces/inkscape"
   width="64"
   height="64"
   viewBox="0 0 16.933333 16.933334"
   version="1.1"
   id="svg8"
   inkscape:version="0.92.5 (2060ec1f9f, 2020-04-08)"
   sodipodi:docname="reception_64x64.svg">
  <defs
     id="defs2" />
  <sodipodi:namedview
     id="base"
     pagecolor="#ffffff"
     bordercolor="#666666"
     borderopacity="1.0"
     inkscape:pageopacity="0.0"
     inkscape:pageshadow="2"
     inkscape:zoom="5.6"
     inkscape:cx="61.787548"
     inkscape:cy="39.665666"
     inkscape:document-units="mm"
     inkscape:current-layer="layer1"
     showgrid="false"
     units="px"
     inkscape:window-width="1208"
     inkscape:window-height="987"
     inkscape:window-x="1992"
     inkscape:window-y="0"
     inkscape:window-maximized="1" />
  <metadata
     id="metadata5">
    <rdf:RDF>
      <cc:Work
         rdf:about="">
        <dc:format>image/svg+xml</dc:format>
        <dc:type
           rdf:resource="http://purl.org/dc/dcmitype/StillImage" />
        <dc:title></dc:title>
      </cc:Work>
    </rdf:RDF>
  </metadata>
  <g
     inkscape:label="Layer 1"
     inkscape:groupmode="layer"
     id="layer1"
     transform="translate(0,-280.06665)">
    <path
       style="fill:#000000;stroke-width:0.03007533"
       d="m 1.8382808,296.25165 -0.079244,-0.0623 v -2.77978 -2.77978 H 1.4122046 c -0.47230774,0 -0.62425186,-0.0649 -0.73946698,-0.3158 -0.0460577,-0.10029 -0.0552436,-0.19781 -0.0552436,-0.58646 0,-0.60421 0.0522956,-0.73698 0.33716137,-0.856 0.0932812,-0.039 0.29743615,-0.0463 1.29647255,-0.0463 h 1.185757 l 0.010785,-0.23753 c 0.012714,-0.27997 0.064831,-0.36397 0.2258086,-0.36397 0.1716447,0 0.2209031,0.0805 0.2209031,0.3609 v 0.2406 h 0.7368456 0.7368456 v -1.10515 -1.10515 l -0.1630112,0.171 c -0.1742925,0.18284 -0.2874568,0.22845 -0.4780709,0.19269 -0.093203,-0.0175 -0.2137759,-0.11157 -0.9567421,-0.74659 l -0.1662168,-0.14207 -0.3238177,0.10497 c -0.4691027,0.15208 -0.650855,0.29556 -0.8085377,0.63832 -0.059437,0.1292 -0.066449,0.20139 -0.075859,0.7813 l -0.010364,0.63895 -0.076661,0.0603 c -0.096311,0.0758 -0.1919551,0.0767 -0.2832642,0.003 -0.069064,-0.0559 -0.071261,-0.072 -0.08051,-0.59078 -0.011249,-0.63106 0.021387,-0.8631 0.1629549,-1.15849 0.1187864,-0.24787 0.3651007,-0.50841 0.599638,-0.63426 0.082046,-0.044 0.4739888,-0.17769 0.8709831,-0.29702 0.3969942,-0.11934 0.7533936,-0.23662 0.791997,-0.26065 0.082942,-0.0516 0.1838555,-0.25913 0.1847906,-0.38003 4.602e-4,-0.0606 -0.043403,-0.13478 -0.1512612,-0.25563 -0.1777562,-0.1992 -0.3411213,-0.50895 -0.3883229,-0.73632 -0.021888,-0.10543 -0.030415,-0.5328 -0.024768,-1.24098 l 0.00862,-1.08018 0.078441,-0.1654 c 0.097716,-0.20606 0.2916414,-0.39897 0.5078246,-0.50514 l 0.1656168,-0.0813 h 0.8276603 0.8276609 l 0.1991829,0.098 c 0.2318103,0.11409 0.3908444,0.2771 0.5023442,0.5149 l 0.079254,0.16902 0.0094,1.00694 c 0.0061,0.65261 -0.0025,1.07593 -0.024438,1.20301 -0.043934,0.25457 -0.2035018,0.5844 -0.3750043,0.77516 -0.1204038,0.13391 -0.1362731,0.16785 -0.1362731,0.2915 0,0.14956 0.048255,0.27008 0.1421594,0.35507 0.046869,0.0424 0.9858868,0.35286 1.0683725,0.3532 0.012403,7e-5 0.022559,-0.22399 0.022559,-0.49785 0,-0.57868 0.026874,-0.7155 0.1743821,-0.88784 0.2147202,-0.25085 0.061055,-0.23687 2.611671,-0.23762 l 2.259733,-6.1e-4 0.160866,0.0841 c 0.117117,0.0612 0.185528,0.12393 0.251556,0.23073 l 0.09069,0.14669 v 1.59871 1.59871 l -0.09069,0.14669 c -0.06603,0.1068 -0.134439,0.16954 -0.251556,0.23072 l -0.160866,0.0841 h -0.793561 -0.793563 v 0.31579 0.3158 h 2.106239 c 1.827387,0 2.120897,0.006 2.216955,0.0462 0.284868,0.11903 0.337161,0.25179 0.337161,0.856 0,0.60421 -0.05229,0.73697 -0.337161,0.856 -0.09851,0.0412 -0.848636,0.0462 -6.8034424,0.0462 h -6.692733 v 2.7798 2.77978 l -0.079244,0.0623 c -0.043586,0.0343 -0.1026619,0.0623 -0.1312829,0.0623 -0.02862,0 -0.087698,-0.0281 -0.1312828,-0.0623 z M 15.548575,289.7275 v -0.43609 H 8.3154584 1.0823419 l -0.00844,0.40449 c -0.00464,0.22248 -0.00165,0.42213 0.0066,0.44368 0.012305,0.032 1.3273496,0.0377 7.2415499,0.0316 l 7.2265172,-0.007 z m -8.2857536,-1.12377 c 0,-0.27375 0.063679,-0.38001 0.2277477,-0.38001 0.1743828,0 0.2233824,0.0792 0.2233824,0.36092 v 0.2406 h 0.556394 0.5563933 v -0.31579 -0.31579 l -0.2030086,-6.2e-4 c -0.1317851,-5.2e-4 -0.2458034,-0.0201 -0.3249884,-0.0561 -0.1592446,-0.0724 -0.3294165,-0.27387 -0.3711358,-0.43956 -0.019434,-0.0772 -0.033204,-0.41849 -0.033204,-0.82289 v -0.69104 l -0.1507613,-0.05 -0.1507605,-0.05 -0.3981142,0.34301 c -0.6184279,0.53283 -0.6647871,0.56437 -0.8289909,0.56414 -0.1631869,-1.7e-4 -0.2489431,-0.0492 -0.4218066,-0.2404 l -0.1222972,-0.13534 -0.00122,1.10527 -0.00122,1.10526 h 0.7218162 0.7218079 z m 2.7368546,-0.0943 v -0.31579 H 9.6387727 9.2778684 v 0.31579 0.31579 H 9.6387727 9.999676 Z m 0.90226,-0.51265 v -0.82844 l -0.07382,-0.0738 c -0.0406,-0.0406 -0.108886,-0.0738 -0.151743,-0.0738 -0.04286,0 -0.111142,0.0332 -0.151743,0.0738 l -0.07382,0.0738 v 0.82844 0.82844 h 0.225565 0.225564 z m -0.89664,-0.5926 c 0.0098,-0.27331 0.0247,-0.36236 0.07756,-0.46325 0.219724,-0.41935 0.766299,-0.4932 1.085688,-0.14671 0.149673,0.16238 0.184141,0.28486 0.184353,0.65507 l 1.71e-4,0.29323 h 0.757463 c 0.736313,0 0.759407,-0.002 0.827071,-0.0654 l 0.0696,-0.0654 v -1.47403 c 0,-1.47203 -9e-5,-1.47413 -0.0654,-1.54364 l -0.0654,-0.0696 H 10.673301 8.47019 l -0.062334,0.0793 c -0.061103,0.0777 -0.062334,0.10785 -0.062334,1.52979 0,1.42193 0.00122,1.4521 0.062334,1.52979 l 0.062334,0.0793 h 0.7615022 0.7614921 z m -4.9755675,-1.08845 c 0.103384,-0.12085 0.1879712,-0.22758 0.1879712,-0.23718 0,-0.01 -0.1274895,-0.0936 -0.2833099,-0.18655 -0.2775861,-0.16565 -0.284856,-0.16805 -0.3598607,-0.11891 -0.042102,0.0276 -0.1521266,0.0726 -0.2444971,0.10002 -0.09237,0.0274 -0.1682395,0.0611 -0.1685991,0.0749 -6.714e-4,0.0252 0.6372715,0.58904 0.6652877,0.58798 0.00827,-3.5e-4 0.099624,-0.0994 0.2030079,-0.22028 z m 1.6892304,-0.0743 c 0.1833343,-0.15569 0.3333356,-0.29281 0.3333356,-0.3047 0,-0.0119 -0.062722,-0.0374 -0.139381,-0.0567 -0.07666,-0.0192 -0.192845,-0.0623 -0.2581901,-0.0957 l -0.1188095,-0.0606 -0.2969021,0.1763 -0.2969032,0.1763 0.2017079,0.22926 c 0.110939,0.1261 0.2107303,0.22695 0.2217571,0.22411 0.01103,-0.003 0.1700504,-0.13254 0.3533853,-0.28823 z m -0.7603864,-0.69714 0.3047799,-0.17999 -0.029126,-0.11475 -0.029126,-0.11475 -0.1252769,0.0456 c -0.1941548,0.0706 -0.6976538,0.0831 -0.9065719,0.0223 -0.094899,-0.0276 -0.1766484,-0.046 -0.1816662,-0.0409 -0.00501,0.005 -0.01742,0.0566 -0.027564,0.11456 l -0.018439,0.10526 0.3089915,0.18534 c 0.1699448,0.10195 0.329292,0.17904 0.3541044,0.17132 0.024811,-0.007 0.1822637,-0.095 0.3498934,-0.19402 z m 0.1663626,-0.87449 c 0.2283293,-0.1217 0.4523179,-0.36609 0.5398385,-0.58901 0.054743,-0.13944 0.070237,-0.24917 0.08018,-0.56792 l 0.012323,-0.39506 -0.130689,-0.0895 c -0.3048422,-0.20883 -0.5844662,-0.29586 -0.8679544,-0.27016 -0.095562,0.008 -0.4335823,0.0994 -0.7511542,0.20161 l -0.5774056,0.18585 0.011163,0.41127 c 0.010248,0.3776 0.018103,0.42555 0.095919,0.58564 0.1056635,0.21736 0.3271789,0.44209 0.5369595,0.54473 0.3188883,0.15602 0.7384904,0.14906 1.0508192,-0.0174 z m -1.13829,-2.17676 c 0.600031,-0.19512 0.8435388,-0.22647 1.1884505,-0.15304 0.1213029,0.0258 0.3006271,0.087 0.3984983,0.13589 l 0.1779472,0.0889 -6.714e-4,-0.36602 c -7.324e-4,-0.3972 -0.039875,-0.5406 -0.1837536,-0.67286 -0.1573653,-0.14466 -0.2482094,-0.15938 -0.980039,-0.15867 -0.6026775,5.3e-4 -0.6996636,0.007 -0.8054799,0.0564 -0.1400231,0.0648 -0.2683994,0.193 -0.3138774,0.31337 -0.033783,0.0894 -0.045509,0.92286 -0.012988,0.92286 0.01045,0 0.2498067,-0.075 0.5319021,-0.16679 z m 3.0130218,13.80156 c -0.759914,-0.1224 -1.410197,-0.58937 -1.7403227,-1.24972 -0.1994778,-0.39902 -0.2439119,-0.59255 -0.2437544,-1.06169 1.251e-4,-0.32429 0.012061,-0.42945 0.070086,-0.61654 0.31604,-1.01905 1.1909273,-1.68154 2.223531,-1.6837 1.233785,-0.003 2.2427982,0.9486 2.3124872,2.17994 0.03696,0.65314 -0.171863,1.227 -0.621694,1.70844 -0.3043591,0.32574 -0.6768707,0.55137 -1.0991577,0.66575 -0.1810607,0.0491 -0.734503,0.0843 -0.9011757,0.0575 z m 0.7179257,-0.47652 c 0.6726393,-0.14251 1.2559268,-0.71883 1.4157104,-1.39879 0.09742,-0.4146 0.03196,-0.91802 -0.1693831,-1.30269 -0.059273,-0.11322 -0.191985,-0.28132 -0.3390866,-0.42946 -0.3752814,-0.37795 -0.7907048,-0.55358 -1.3093749,-0.55358 -0.5186707,0 -0.9340942,0.17563 -1.3093754,0.55358 -0.1471015,0.14814 -0.2798169,0.31624 -0.3390858,0.42946 -0.2013485,0.38467 -0.2668071,0.88809 -0.1693827,1.30269 0.1579494,0.67217 0.74298,1.25429 1.4051554,1.39817 0.2487172,0.054 0.5615295,0.0542 0.8148227,5.4e-4 z M 8.1707525,295.4106 c -0.064883,-0.0604 -0.065822,-0.0742 -0.065822,-0.96242 0,-0.86098 0.00269,-0.90375 0.060151,-0.96123 0.033417,-0.0334 0.100251,-0.0601 0.1503767,-0.0601 0.050123,0 0.1169595,0.0267 0.1503767,0.0601 0.057472,0.0575 0.060151,0.10025 0.060151,0.96123 0,0.88825 -9.155e-4,0.90197 -0.065822,0.96242 -0.0362,0.0338 -0.1013191,0.0613 -0.1447053,0.0613 -0.043384,0 -0.1085042,-0.0276 -0.1447061,-0.0613 z m 0.084555,-2.45657 c -0.1545595,-0.0558 -0.2034859,-0.25608 -0.090226,-0.36934 0.134555,-0.13456 0.3609038,-0.0338 0.3609038,0.16075 0,0.14112 -0.1459724,0.25361 -0.2706778,0.20859 z m 6.2747615,3.29766 -0.07925,-0.0623 v -2.43391 c 0,-2.39382 0.001,-2.43491 0.06015,-2.49407 0.03342,-0.0334 0.10025,-0.0601 0.150376,-0.0601 0.05013,0 0.11696,0.0267 0.150378,0.0601 0.05915,0.0591 0.06015,0.10025 0.06015,2.49407 v 2.43391 l -0.07925,0.0623 c -0.04358,0.0343 -0.102662,0.0623 -0.131283,0.0623 -0.02862,0 -0.0877,-0.0281 -0.131283,-0.0623 z"
       id="path9425"
       inkscape:connector-curvature="0" />
    <path
       style="fill:none;stroke:#000000;stroke-width:0.00341012;stroke-linecap:butt;stroke-linejoin:miter;stroke-miterlimit:4;stroke-dasharray:none;stroke-opacity:1"
       d="m 2.1405869,288.03748 v 0.95698"
       id="path9427"
       inkscape:connector-curvature="0" />
    <path
       style="fill:none;stroke:#000000;stroke-width:0.00341012;stroke-linecap:butt;stroke-linejoin:miter;stroke-miterlimit:4;stroke-dasharray:none;stroke-opacity:1"
       d="m 14.661226,291.76253 -0.02148,-1.32116"
       id="path9429"
       inkscape:connector-curvature="0" />
    <path
       style="fill:none;stroke:#000000;stroke-width:0.00341012;stroke-linecap:butt;stroke-linejoin:miter;stroke-miterlimit:4;stroke-dasharray:none;stroke-opacity:1"
       d="m 2.1800912,296.18931 12.2707318,1e-5"
       id="path9431"
       inkscape:connector-curvature="0" />
    <path
       style="fill:#ffffff;stroke-width:0.0048716;stroke-miterlimit:4;stroke-dasharray:none"
       d="m 2.2151784,293.40191 v -2.77123 h 6.208407 6.2084076 v 0.26165 c 0,0.2195 -0.01557,0.27424 -0.09667,0.33989 l -0.09667,0.0783 -0.01363,2.43133 -0.01362,2.43133 H 11.805161 9.1989049 l 0.2724395,-0.16111 c 0.5369506,-0.31755 1.0003476,-0.94195 1.1175896,-1.50589 0.11003,-0.52924 0.02472,-1.14935 -0.222268,-1.61556 -0.188646,-0.35609 -0.6290749,-0.7936 -0.9674319,-0.96102 -1.3426213,-0.66433 -2.8832124,-0.005 -3.3232755,1.42251 -0.1241868,0.40282 -0.1003138,1.09406 0.049946,1.44621 0.2361469,0.55341 0.5601977,0.93275 1.0385212,1.21572 l 0.2690127,0.15914 H 4.8243072 2.2151753 Z"
       id="path9433"
       inkscape:connector-curvature="0" />
    <path
       style="fill:#ffffff;stroke-width:0.0048716;stroke-miterlimit:4;stroke-dasharray:none"
       d="M 7.7823283,295.7609 C 7.3585331,295.62599 6.879951,295.2253 6.6838437,294.84122 6.5645892,294.60767 6.468626,294.2438 6.4693243,294.02784 c 8.545e-4,-0.27507 0.1133309,-0.72182 0.2330902,-0.92611 0.1515859,-0.25857 0.5914412,-0.65566 0.8650471,-0.78092 0.4500516,-0.20604 1.0477852,-0.20585 1.4984588,5.3e-4 0.3180035,0.14559 0.7651717,0.57544 0.9040814,0.86906 0.4378012,0.92544 0.059199,1.99613 -0.8678621,2.45431 -0.2913324,0.14399 -0.3619346,0.16092 -0.7157093,0.17167 -0.2673527,0.008 -0.4599608,-0.009 -0.6041021,-0.0554 z m 0.6655647,-0.31967 c 0.078255,-0.0419 0.083105,-0.0991 0.083105,-0.9796 0,-1.00019 -0.00787,-1.03824 -0.214824,-1.03824 -0.2069381,0 -0.214824,0.0381 -0.214824,1.03761 0,0.84467 0.00723,0.93871 0.075188,0.97829 0.097041,0.0565 0.1684013,0.057 0.2713549,0.002 z m -0.012384,-2.51437 c 0.1051984,-0.0737 0.1293901,-0.26871 0.043934,-0.35417 -0.066463,-0.0665 -0.2600693,-0.0665 -0.326532,0 -0.073721,0.0737 -0.063626,0.25058 0.01955,0.34248 0.086892,0.096 0.1393323,0.0983 0.2630522,0.0117 z"
       id="path9435"
       inkscape:connector-curvature="0" />
    <path
       style="fill:#ffffff;stroke-width:0.0048716;stroke-miterlimit:4;stroke-dasharray:none"
       d="m 1.2162475,290.1273 -0.1181528,-0.0179 v -0.4053 -0.40532 h 7.2180791 7.2180792 v 0.42965 0.42965 l -7.0999259,-0.006 c -3.9049597,-0.004 -7.1530946,-0.0145 -7.2180796,-0.0243 z"
       id="path9437"
       inkscape:connector-curvature="0" />
    <path
       style="fill:#ffffff;stroke-width:0.0048716;stroke-miterlimit:4;stroke-dasharray:none"
       d="m 2.1722139,288.6186 c 0,-0.1746 0.016229,-0.21625 0.1021833,-0.26225 0.1251458,-0.067 0.1554373,-0.24596 0.1560085,-0.9218 3.889e-4,-0.45091 0.0075,-0.48975 0.1286455,-0.70096 0.1435749,-0.25035 0.3453012,-0.39053 0.7667812,-0.53287 l 0.2615489,-0.0883 0.4546067,0.37944 c 0.2500337,0.2087 0.5164783,0.41415 0.5921,0.45657 0.1865161,0.10463 0.3560575,0.065 0.5555053,-0.1297 l 0.1620126,-0.15821 v 1.08283 1.08284 H 4.6486029 3.9455994 l -0.027344,-0.23265 c -0.040509,-0.34468 -0.056555,-0.36885 -0.244853,-0.36885 -0.1543496,0 -0.1681924,0.0106 -0.2099875,0.16112 -0.02461,0.0886 -0.044849,0.22396 -0.044984,0.30075 l -2.478e-4,0.13963 H 2.7951944 2.172206 Z"
       id="path9439"
       inkscape:connector-curvature="0" />
    <path
       style="fill:#ffffff;stroke-width:0.0048716;stroke-miterlimit:4;stroke-dasharray:none"
       d="m 4.5137929,286.24722 c -0.1654142,-0.14414 -0.2935726,-0.27539 -0.2847969,-0.29163 0.00878,-0.0162 0.1101229,-0.0646 0.2252147,-0.10762 l 0.2092588,-0.0781 0.2159147,0.11751 c 0.3238769,0.17628 0.328548,0.19288 0.118707,0.42171 l -0.1835449,0.20019 z"
       id="path9441"
       inkscape:connector-curvature="0" />
    <path
       style="fill:#ffffff;stroke-width:0.0048716;stroke-miterlimit:4;stroke-dasharray:none"
       d="m 5.285316,285.55667 c -0.3595652,-0.21012 -0.33409,-0.18574 -0.3014841,-0.28848 0.023969,-0.0755 0.045613,-0.0799 0.2080057,-0.0425 0.18354,0.0425 0.7450347,0.0231 0.9223923,-0.0318 0.081515,-0.0252 0.096671,-0.0139 0.096671,0.0722 0,0.10768 -0.011835,0.11774 -0.3887362,0.33038 l -0.2383594,0.13448 z"
       id="path9443"
       inkscape:connector-curvature="0" />
    <path
       style="fill:#ffffff;stroke-width:0.0048716;stroke-miterlimit:4;stroke-dasharray:none"
       d="m 5.2156922,284.72239 c -0.2211624,-0.0709 -0.5420212,-0.3533 -0.6594574,-0.5804 -0.046863,-0.0906 -0.080968,-0.29001 -0.095876,-0.56055 l -0.023139,-0.41989 0.4894155,-0.15158 c 0.9553414,-0.29589 1.0765948,-0.30016 1.5205691,-0.0534 l 0.257789,0.14325 -0.00134,0.42494 c -0.00153,0.47928 -0.062454,0.65775 -0.3085612,0.90385 -0.3050808,0.30509 -0.7773178,0.42273 -1.1793861,0.29382 z"
       id="path9445"
       inkscape:connector-curvature="0" />
    <path
       style="fill:#ffffff;stroke-width:0.0048716;stroke-miterlimit:4;stroke-dasharray:none"
       d="m 4.4567358,282.19884 c 0.028754,-0.739 0.1228385,-0.80562 1.1376692,-0.80552 0.5622126,7e-5 0.7071626,0.0132 0.8313194,0.0752 0.2178648,0.10883 0.3006058,0.30515 0.300687,0.71345 5.98e-5,0.30531 -0.00712,0.33445 -0.075122,0.3049 -0.041352,-0.018 -0.1815257,-0.0705 -0.3114945,-0.1168 -0.3352429,-0.11936 -0.7820335,-0.0824 -1.3963542,0.1155 -0.2599369,0.0837 -0.4796388,0.15257 -0.4882265,0.15296 -0.00859,3.6e-4 -0.0079,-0.19746 0.00153,-0.43968 z"
       id="path9447"
       inkscape:connector-curvature="0" />
    <path
       style="fill:#ffffff;stroke-width:0.0048716;stroke-miterlimit:4;stroke-dasharray:none"
       d="m 6.1879211,286.31926 c -0.087775,-0.10501 -0.1620144,-0.20584 -0.1649765,-0.22406 -0.00299,-0.0182 0.1094411,-0.1033 0.2497847,-0.18905 l 0.2551694,-0.15589 0.2274498,0.0878 c 0.1250975,0.0484 0.2277807,0.10048 0.2281842,0.11587 4.071e-4,0.0154 -0.1104373,0.12218 -0.2463136,0.23735 -0.4181147,0.35437 -0.3694635,0.34303 -0.549298,0.12789 z"
       id="path9449"
       inkscape:connector-curvature="0" />
    <path
       style="fill:#ffffff;stroke-width:0.0048716;stroke-miterlimit:4;stroke-dasharray:none"
       d="m 5.8242182,287.74332 v -1.08284 l 0.1620127,0.15821 c 0.1974439,0.19279 0.3766943,0.23763 0.5636029,0.14098 0.074806,-0.0387 0.3404292,-0.24582 0.590275,-0.46029 0.431723,-0.37061 0.4609799,-0.38804 0.5895998,-0.35124 l 0.135335,0.0388 0.021484,0.77184 c 0.018787,0.67511 0.03244,0.7905 0.1089321,0.9207 0.1121493,0.19089 0.2989822,0.29866 0.5743575,0.33127 l 0.2189701,0.026 v 0.29477 0.29476 H 8.2517283 7.7146687 v -0.23279 c 0,-0.33062 -0.022778,-0.3687 -0.2204838,-0.3687 -0.141153,0 -0.1750895,0.0179 -0.2102267,0.1102 -0.023047,0.0606 -0.041902,0.19596 -0.041902,0.30076 v 0.19053 H 6.5331386 5.8242201 Z"
       id="path9451"
       inkscape:connector-curvature="0" />
    <path
       style="fill:#ffffff;stroke-width:0.0048716;stroke-miterlimit:4;stroke-dasharray:none"
       d="m 8.411496,287.63389 c -0.01698,-0.0414 -0.030872,-0.72474 -0.030872,-1.51865 0,-1.16029 0.011566,-1.45739 0.058967,-1.5145 0.053431,-0.0644 0.2636027,-0.0711 2.239647,-0.0711 1.975137,0 2.186239,0.006 2.239648,0.071 0.04682,0.0564 0.06172,0.37239 0.07236,1.53462 0.01239,1.35435 0.0077,1.46777 -0.06192,1.51873 -0.05434,0.0398 -0.281229,0.0551 -0.814572,0.0551 h -0.739262 l -0.01515,-0.35447 c -0.01819,-0.4255 -0.115944,-0.59762 -0.414394,-0.72963 -0.235063,-0.10399 -0.479799,-0.0773 -0.678128,0.074 -0.198312,0.15126 -0.2760163,0.34976 -0.2760163,0.7051 v 0.30501 H 9.21709 c -0.6974181,0 -0.7777946,-0.007 -0.8055891,-0.0752 z"
       id="path9453"
       inkscape:connector-curvature="0" />
    <path
       style="fill:#ffffff;stroke-width:0.0048716;stroke-miterlimit:4;stroke-dasharray:none"
       d="m 10.474245,287.98225 c 0.0102,-0.7391 0.0207,-0.84963 0.08457,-0.88988 0.04949,-0.0312 0.111602,-0.0323 0.19334,-0.004 l 0.120421,0.0423 0.01165,0.84755 0.01165,0.84755 h -0.216641 -0.216639 z"
       id="path9455"
       inkscape:connector-curvature="0" />
    <path
       style="fill:#ffffff;stroke-width:0.0048716;stroke-miterlimit:4;stroke-dasharray:none"
       d="m 1.2162475,290.1273 -0.1181528,-0.0179 v -0.4053 -0.40532 h 7.2180791 7.2180792 v 0.42965 0.42965 l -7.0999259,-0.006 c -3.9049597,-0.004 -7.1530946,-0.0145 -7.2180796,-0.0243 z"
       id="path9457"
       inkscape:connector-curvature="0" />
  </g>
</svg>
