<?xml version="1.0" encoding="UTF-8" standalone="no"?>
<!-- Created with Inkscape (http://www.inkscape.org/) -->

<svg
   xmlns:dc="http://purl.org/dc/elements/1.1/"
   xmlns:cc="http://creativecommons.org/ns#"
   xmlns:rdf="http://www.w3.org/1999/02/22-rdf-syntax-ns#"
   xmlns:svg="http://www.w3.org/2000/svg"
   xmlns="http://www.w3.org/2000/svg"
   xmlns:sodipodi="http://sodipodi.sourceforge.net/DTD/sodipodi-0.dtd"
   xmlns:inkscape="http://www.inkscape.org/namespaces/inkscape"
   width="64"
   height="64"
   viewBox="0 0 16.933333 16.933334"
   version="1.1"
   id="svg8"
   inkscape:version="0.92.5 (2060ec1f9f, 2020-04-08)"
   sodipodi:docname="remove_cushions_64x64.svg">
  <defs
     id="defs2" />
  <sodipodi:namedview
     id="base"
     pagecolor="#ffffff"
     bordercolor="#666666"
     borderopacity="1.0"
     inkscape:pageopacity="0.0"
     inkscape:pageshadow="2"
     inkscape:zoom="3.959798"
     inkscape:cx="-4.2778939"
     inkscape:cy="17.140655"
     inkscape:document-units="mm"
     inkscape:current-layer="layer1"
     showgrid="false"
     units="px"
     inkscape:window-width="1208"
     inkscape:window-height="987"
     inkscape:window-x="1992"
     inkscape:window-y="0"
     inkscape:window-maximized="1" />
  <metadata
     id="metadata5">
    <rdf:RDF>
      <cc:Work
         rdf:about="">
        <dc:format>image/svg+xml</dc:format>
        <dc:type
           rdf:resource="http://purl.org/dc/dcmitype/StillImage" />
        <dc:title></dc:title>
      </cc:Work>
    </rdf:RDF>
  </metadata>
  <g
     inkscape:label="Layer 1"
     inkscape:groupmode="layer"
     id="layer1"
     transform="translate(0,-280.06665)">
    <path
       style="fill:#000000;stroke-width:0.02691993"
       d="m 6.4088755,295.77871 c -1.0278752,-0.0451 -2.2390238,-0.18783 -3.1302482,-0.36872 l -0.3020422,-0.0613 -0.4000626,0.19713 c -0.2538944,0.1251 -0.4327521,0.19712 -0.4895355,0.19712 -0.2518312,0 -0.469858,-0.21682 -0.469858,-0.46724 0,-0.06 0.068627,-0.23143 0.1970412,-0.49215 l 0.1970412,-0.40007 -0.034081,-0.16151 c -0.5284193,-2.50446 -0.5441637,-5.52543 -0.042305,-8.11636 l 0.075608,-0.39034 -0.1966557,-0.40006 c -0.2114623,-0.43018 -0.2265655,-0.5006 -0.1456072,-0.67885 0.059489,-0.13099 0.1607649,-0.21643 0.3014162,-0.2543 0.1395284,-0.0376 0.1952402,-0.0204 0.62093,0.19202 l 0.3676968,0.18343 0.3322214,-0.065 c 0.1827219,-0.0358 0.4230761,-0.079 0.5341205,-0.0961 0.2759965,-0.0426 0.2863763,-0.0504 0.3088551,-0.23317 0.010524,-0.0856 0.053823,-0.33546 0.096222,-0.55536 l 0.077091,-0.39982 -0.183287,-0.3674 c -0.2122117,-0.42538 -0.2294437,-0.48112 -0.1918753,-0.62063 0.03663,-0.13605 0.1168523,-0.2343 0.2444259,-0.29938 0.1716568,-0.0876 0.2532884,-0.0705 0.6887232,0.14395 l 0.4000617,0.19704 0.1615191,-0.034 c 0.6387055,-0.13427 1.6649632,-0.27865 2.4966132,-0.35122 0.6452419,-0.0563 2.5650162,-0.0646 3.1969512,-0.0138 0.875987,0.0704 1.989382,0.22347 2.651612,0.36457 l 0.16152,0.0344 0.400062,-0.19704 c 0.260723,-0.12841 0.432137,-0.19705 0.492153,-0.19705 0.250429,0 0.467241,0.21803 0.467241,0.46986 0,0.0567 -0.07203,0.23573 -0.197042,0.48954 l -0.197041,0.40006 0.03442,0.16152 c 0.140832,0.66098 0.293579,1.77124 0.364801,2.65161 0.05086,0.62864 0.04238,2.54843 -0.01412,3.19695 -0.07215,0.82821 -0.220775,1.88622 -0.350709,2.49662 l -0.03438,0.16152 0.197042,0.40006 c 0.211897,0.43022 0.227005,0.50048 0.145992,0.67885 -0.05949,0.13098 -0.160764,0.21643 -0.301416,0.2543 -0.139516,0.0376 -0.195253,0.0204 -0.620636,-0.19188 l -0.367405,-0.18328 -0.399814,0.0771 c -0.219897,0.0424 -0.470419,0.0858 -0.556714,0.0964 -0.124905,0.0154 -0.161461,0.0309 -0.179265,0.0765 -0.0123,0.0315 -0.06504,0.29221 -0.117188,0.57945 l -0.09482,0.52224 0.190977,0.37957 c 0.206118,0.40968 0.233291,0.53923 0.147779,0.70459 -0.07489,0.14482 -0.254923,0.25377 -0.41934,0.25377 -0.04325,0 -0.258659,-0.0885 -0.478693,-0.19662 l -0.400062,-0.19661 -0.376879,0.0737 c -1.4757187,0.28861 -3.3152755,0.42313 -4.8590469,0.3553 z m 1.9786147,-0.46712 c 0.9654226,-0.0515 1.8702068,-0.16142 2.8080788,-0.34131 l 0.519885,-0.0997 0.3889,0.19389 c 0.213895,0.10666 0.39493,0.19391 0.402302,0.19391 0.0074,0 -0.07147,-0.16943 -0.175217,-0.37652 -0.106381,-0.21235 -0.18862,-0.41129 -0.18862,-0.45627 0,-0.0439 0.03649,-0.26347 0.0811,-0.48799 0.281291,-1.41594 0.412616,-3.12168 0.351869,-4.57033 -0.05607,-1.33716 -0.180557,-2.43444 -0.380578,-3.35462 -0.02881,-0.13256 -0.05239,-0.27507 -0.05239,-0.31667 0,-0.0416 0.08553,-0.24638 0.190057,-0.45504 0.104532,-0.20867 0.184564,-0.38488 0.177849,-0.3916 -0.0067,-0.006 -0.182932,0.0733 -0.391597,0.17785 -0.212963,0.10668 -0.414202,0.19006 -0.458748,0.19006 -0.04365,0 -0.163101,-0.0176 -0.265452,-0.0391 -2.1038075,-0.44254 -4.4997071,-0.52865 -6.7358479,-0.24207 -0.383406,0.0491 -1.0645227,0.16241 -1.3844773,0.23025 -0.1322088,0.0281 -0.2807666,0.051 -0.3301278,0.051 -0.057349,0 -0.2256542,-0.0681 -0.466268,-0.18862 -0.2070859,-0.10374 -0.3765201,-0.18232 -0.3765201,-0.17463 0,0.008 0.086584,0.18647 0.19241,0.39726 l 0.1924099,0.38325 -0.028438,0.16151 c -0.015638,0.0889 -0.065405,0.36141 -0.1105868,0.6057 -0.2424269,1.3108 -0.3478718,2.66659 -0.3171894,4.07838 0.028278,1.30104 0.1229937,2.20948 0.3601449,3.45415 l 0.099055,0.51989 -0.1953171,0.39173 c -0.1074239,0.21546 -0.1899148,0.39714 -0.1833126,0.40374 0.00657,0.006 0.18592,-0.0753 0.3984828,-0.18203 l 0.3864782,-0.19403 0.1749801,0.0308 c 0.096239,0.0169 0.3355716,0.061 0.5318514,0.0979 0.8780328,0.16508 1.8575631,0.27739 2.7792992,0.31866 0.453171,0.0203 1.5450971,0.0152 2.0055348,-0.009 z m -4.4559391,-2.11333 c -0.042168,-0.0449 -0.063914,-0.10013 -0.063914,-0.16237 0,-0.0833 0.030514,-0.12495 0.2623601,-0.35767 0.2553804,-0.25634 0.2615602,-0.26545 0.2322948,-0.34239 -0.038505,-0.10122 -0.038674,-0.3256 -3.15e-4,-0.42644 0.028815,-0.0757 0.021625,-0.0865 -0.2269109,-0.33947 -0.2393875,-0.24365 -0.2566644,-0.2686 -0.2566644,-0.37073 0,-0.0862 0.015077,-0.12136 0.070927,-0.1653 0.138233,-0.10873 0.2073528,-0.0807 0.49274,0.19966 l 0.26001,0.25546 0.1534781,-0.0322 c 0.1190766,-0.025 0.1878797,-0.025 0.3069563,0 l 0.153479,0.0322 0.2600092,-0.25546 c 0.2120257,-0.2083 0.27494,-0.25545 0.3409098,-0.25545 0.1607945,0 0.2866696,0.17324 0.2204506,0.3034 -0.016792,0.033 -0.1394779,0.17054 -0.2726333,0.3056 -0.2255844,0.22883 -0.2398444,0.2498 -0.2090328,0.30737 0.042737,0.0798 0.042729,0.37562 -8.8e-6,0.45548 -0.030875,0.0577 -0.015983,0.079 0.2234234,0.32082 0.2401867,0.24255 0.2715577,0.29194 0.2636618,0.41504 -0.00521,0.0815 -0.1264282,0.18048 -0.2210061,0.18048 -0.07221,0 -0.1275791,-0.0411 -0.3505762,-0.26017 l -0.2648216,-0.26019 -0.1046803,0.0313 c -0.057574,0.0172 -0.144267,0.0313 -0.1926528,0.0313 -0.048388,0 -0.1350791,-0.0141 -0.1926528,-0.0313 l -0.1046796,-0.0313 -0.2648216,0.26019 c -0.2320399,0.22797 -0.2763716,0.26017 -0.3581202,0.26017 -0.06498,0 -0.1126972,-0.0207 -0.157214,-0.068 z M 5.158093,292.2897 c 0.1030236,-0.0886 0.104407,-0.24518 0.00297,-0.33247 -0.2253583,-0.19384 -0.511539,0.11745 -0.3012742,0.32771 0.084067,0.0841 0.2039062,0.086 0.2983366,0.005 z m 3.3627113,0.90537 c -0.1229608,-0.13269 -0.096001,-0.20191 0.1932964,-0.49637 l 0.2593119,-0.26394 -0.03049,-0.12109 c -0.038618,-0.15337 -0.036622,-0.27374 0.00657,-0.39337 l 0.033985,-0.0942 -0.264327,-0.27203 c -0.2985267,-0.30722 -0.3194994,-0.3634 -0.1856379,-0.49726 0.1420227,-0.14202 0.2125299,-0.11736 0.5155131,0.18032 0.2613301,0.25675 0.2643735,0.25874 0.3502051,0.22882 0.1116159,-0.039 0.2735686,-0.0385 0.4058031,8e-4 l 0.1046795,0.0313 0.2648215,-0.26019 c 0.222997,-0.21909 0.278365,-0.26018 0.350576,-0.26018 0.119999,0 0.217906,0.10292 0.217906,0.22905 0,0.086 -0.02886,0.12664 -0.255216,0.35992 -0.252414,0.26013 -0.254927,0.26402 -0.228819,0.35505 0.03504,0.1222 0.03343,0.29302 -0.0038,0.39977 -0.02992,0.0858 -0.02793,0.0889 0.228819,0.35021 0.213465,0.21727 0.259002,0.27809 0.259002,0.34594 0,0.11917 -0.02378,0.16449 -0.109605,0.20887 -0.13948,0.0721 -0.181121,0.0521 -0.458877,-0.22079 l -0.2648218,-0.26019 -0.1046796,0.0313 c -0.1298483,0.0389 -0.2558356,0.0397 -0.3900691,0.002 l -0.1031967,-0.0287 -0.2654957,0.25763 c -0.2357165,0.22873 -0.27637,0.25763 -0.3624572,0.25763 -0.07027,0 -0.1151323,-0.0196 -0.1629771,-0.0713 z m 1.2356713,-0.91006 c 0.1464143,-0.1357 0.051674,-0.39163 -0.1449763,-0.39163 -0.1071859,0 -0.2414322,0.12724 -0.2414322,0.22882 0,0.0987 0.1343088,0.22882 0.2362776,0.22882 0.046441,0 0.1082062,-0.0272 0.1501309,-0.0661 z m -5.7619701,-3.17812 c -0.04523,-0.019 -0.094456,-0.0686 -0.1133168,-0.11413 -0.05028,-0.1214 0.00889,-0.22658 0.2748342,-0.48853 0.213495,-0.21029 0.2276179,-0.23095 0.2024427,-0.29612 -0.036293,-0.094 -0.034345,-0.34729 0.00345,-0.44522 0.029697,-0.077 0.023894,-0.0856 -0.2264998,-0.33698 -0.2205972,-0.22143 -0.256977,-0.27051 -0.256977,-0.34672 0,-0.12197 0.037864,-0.18208 0.1363303,-0.21641 0.1250872,-0.0436 0.2206269,0.0108 0.4780993,0.27221 l 0.2240895,0.22753 0.1460592,-0.0406 c 0.1302667,-0.0362 0.1618509,-0.0362 0.2921176,0 l 0.1460593,0.0406 0.2240895,-0.22661 c 0.2588927,-0.26179 0.3419766,-0.31438 0.4568324,-0.28916 0.1011231,0.0222 0.1923498,0.15895 0.1700417,0.25488 -0.00861,0.037 -0.1305689,0.18316 -0.2710238,0.32476 -0.2487077,0.25075 -0.2545781,0.25953 -0.2248975,0.3365 0.037335,0.0968 0.039636,0.35101 0.00401,0.44246 -0.024038,0.0617 -0.00513,0.0889 0.2266272,0.326 0.2331965,0.23859 0.2528532,0.267 0.2528532,0.36545 0,0.13595 -0.085049,0.22383 -0.2166129,0.22383 -0.080284,0 -0.1248572,-0.0327 -0.349947,-0.25698 -0.2451914,-0.24427 -0.2616067,-0.25558 -0.3320033,-0.22882 -0.099713,0.0379 -0.374469,0.0357 -0.4609378,-0.004 -0.066631,-0.0304 -0.082019,-0.0199 -0.3310358,0.22546 -0.143637,0.14152 -0.2866968,0.26328 -0.3179107,0.2706 -0.031211,0.007 -0.092739,-0.002 -0.1367231,-0.0204 z m 1.1673491,-0.96211 c 0.080773,-0.0897 0.093091,-0.14783 0.052131,-0.24588 -0.049775,-0.11911 -0.172326,-0.17123 -0.2890149,-0.1229 -0.092679,0.0384 -0.1689011,0.17925 -0.1404693,0.2596 0.036686,0.10366 0.1241029,0.16975 0.2245408,0.16975 0.067833,0 0.1151899,-0.0188 0.1528153,-0.0606 z m 3.4371451,0.97541 c -0.080145,-0.0314 -0.14421,-0.1313 -0.14421,-0.22481 0,-0.0632 0.052187,-0.13239 0.264327,-0.3507 l 0.264327,-0.27203 -0.033985,-0.0942 c -0.043234,-0.11986 -0.044854,-0.21426 -0.00633,-0.36734 l 0.030715,-0.12199 -0.2296441,-0.23316 c -0.2607266,-0.26473 -0.2998748,-0.32622 -0.2762321,-0.43385 0.023469,-0.10687 0.1071226,-0.1735 0.2178079,-0.1735 0.082633,0 0.1250777,0.0313 0.358634,0.26391 0.2251805,0.22434 0.2724906,0.25985 0.3154654,0.23686 0.097803,-0.0523 0.2891984,-0.0632 0.4179542,-0.0238 l 0.1251193,0.0383 0.2502367,-0.25128 c 0.260324,-0.26141 0.349262,-0.30984 0.460334,-0.25067 0.09168,0.0488 0.127633,0.1075 0.128592,0.20979 7.43e-4,0.0796 -0.03222,0.12493 -0.258146,0.35488 -0.256752,0.26133 -0.258741,0.26438 -0.22882,0.35021 0.03869,0.11099 0.03869,0.31531 0,0.4263 -0.02992,0.0858 -0.02793,0.0889 0.22882,0.3502 0.218015,0.2219 0.259002,0.27719 0.259002,0.34938 0,0.12106 -0.102828,0.21791 -0.231366,0.21791 -0.08914,0 -0.125754,-0.026 -0.360456,-0.25666 -0.2470281,-0.24271 -0.2652267,-0.25515 -0.3344812,-0.22882 -0.094642,0.036 -0.3414091,0.0358 -0.436407,-3.1e-4 -0.07031,-0.0268 -0.08708,-0.0153 -0.3315215,0.22565 -0.2573666,0.25371 -0.3413531,0.30221 -0.4497517,0.25971 z m 1.1626298,-0.98092 c 0.1435929,-0.14359 0.040493,-0.37541 -0.1669671,-0.37541 -0.1079009,0 -0.2245953,0.10498 -0.2245953,0.20205 0,0.0687 0.069332,0.20352 0.1138434,0.22142 0.091082,0.0366 0.2143454,0.0153 0.277719,-0.0481 z m 4.8540125,4.41704 -0.19406,-0.39412 0.03201,-0.16806 c 0.254946,-1.33821 0.349771,-2.07262 0.407517,-3.15617 0.08822,-1.65528 -0.02502,-3.29839 -0.341966,-4.96166 l -0.09906,-0.51989 0.195317,-0.39174 c 0.107424,-0.21545 0.190007,-0.39704 0.183517,-0.40353 -0.0065,-0.006 -0.18823,0.0761 -0.403864,0.18367 l -0.392063,0.19549 -0.519558,-0.0998 c -1.248769,-0.23979 -2.144913,-0.33242 -3.480749,-0.3598 -1.618866,-0.0332 -2.7945246,0.0748 -4.6367641,0.42573 l -0.1680555,0.032 -0.3922757,-0.19316 c -0.2157521,-0.10624 -0.39763,-0.19315 -0.4041728,-0.19315 -0.00657,0 0.072979,0.16943 0.1767224,0.37651 0.103741,0.2071 0.1885707,0.41 0.1885106,0.45091 -5.38e-5,0.041 -0.035355,0.25611 -0.078438,0.47819 -0.1277563,0.6586 -0.1259753,0.63727 -0.051883,0.62144 0.034722,-0.007 0.1963848,-0.0274 0.3592504,-0.0444 0.1628657,-0.017 0.3142903,-0.0465 0.336499,-0.0656 0.094374,-0.0811 1.4584231,-0.74029 1.5318439,-0.74029 0.1123982,0 0.2287031,0.14142 0.2067164,0.25135 -0.023797,0.11898 -0.054127,0.14409 -0.3642222,0.30155 l -0.2840807,0.14425 0.287609,0.002 0.287609,0.002 0.7024534,-0.34996 c 0.38635,-0.19247 0.7307657,-0.34995 0.7653684,-0.34995 0.1100193,0 0.2047744,0.0982 0.2047744,0.21216 0,0.0553 -0.015293,0.1215 -0.033977,0.14705 -0.018684,0.0256 -0.1597854,0.11111 -0.3135545,0.19012 l -0.2795809,0.14367 0.3625896,0.0194 0.3625887,0.0194 0.731451,-0.36591 c 0.438277,-0.21926 0.7629402,-0.36592 0.8100112,-0.36592 0.112392,0 0.228695,0.14141 0.20671,0.25134 -0.0088,0.044 -0.03047,0.0975 -0.04816,0.11876 -0.01768,0.0213 -0.208406,0.1272 -0.423829,0.23531 -0.4413722,0.22152 -0.4430385,0.19482 0.01596,0.25588 l 0.219198,0.0292 0.677737,-0.33755 c 0.372757,-0.18565 0.702067,-0.33755 0.731801,-0.33755 0.02974,0 0.08947,0.0354 0.132751,0.0787 0.08243,0.0824 0.10052,0.18018 0.05061,0.27345 -0.01545,0.0289 -0.200184,0.13891 -0.410529,0.24455 -0.210345,0.10565 -0.370332,0.19593 -0.355526,0.20062 0.0148,0.005 0.139186,0.0327 0.276401,0.0622 l 0.249481,0.0536 0.383137,-0.18796 c 0.287228,-0.14091 0.416831,-0.19014 0.517736,-0.19667 0.106251,-0.007 0.244902,-0.0637 0.658306,-0.27012 0.544364,-0.27173 0.596144,-0.28545 0.705459,-0.18696 0.06424,0.0579 0.08455,0.16712 0.04763,0.25624 -0.02626,0.0634 -0.114816,0.11874 -0.499472,0.31217 l -0.467553,0.2351 -1.12e-4,0.1231 c -8e-5,0.0908 -0.03164,0.18791 -0.120341,0.37015 -0.06613,0.13588 -0.114456,0.24705 -0.107381,0.24705 0.0071,0 0.218532,-0.10296 0.469905,-0.22882 0.251372,-0.12585 0.486784,-0.22882 0.523138,-0.22882 0.10723,0 0.214468,0.11141 0.214468,0.22282 0,0.0523 -0.017,0.11567 -0.03778,0.14071 -0.02078,0.025 -0.30485,0.17895 -0.631273,0.34202 -0.326423,0.16308 -0.598693,0.30136 -0.605044,0.30729 -0.0136,0.0127 0.09497,0.65438 0.113937,0.67334 0.0071,0.007 0.256411,-0.10891 0.553987,-0.25784 0.331565,-0.16593 0.5729,-0.27078 0.623296,-0.27078 0.18416,0 0.286935,0.24684 0.153823,0.36944 -0.03331,0.0307 -0.330105,0.19033 -0.659538,0.35477 -0.438068,0.21867 -0.598948,0.3116 -0.598893,0.34597 1.13e-4,0.0653 0.0574,0.52978 0.06654,0.53943 0.0041,0.004 0.229525,-0.10235 0.500942,-0.23707 0.526765,-0.26145 0.566745,-0.27039 0.690953,-0.15446 0.06969,0.0651 0.08049,0.19555 0.02288,0.27672 -0.02073,0.0292 -0.29375,0.18029 -0.606719,0.33575 l -0.569033,0.28265 0.01807,0.29613 c 0.0099,0.16287 0.02307,0.30173 0.02918,0.30859 0.0061,0.007 0.210534,-0.087 0.454264,-0.20863 0.243729,-0.1216 0.473886,-0.2211 0.511458,-0.2211 0.156008,0 0.258498,0.22927 0.162792,0.36416 -0.02072,0.0292 -0.282387,0.17425 -0.581481,0.3223 l -0.543808,0.2692 0.01872,0.29612 c 0.01029,0.16286 0.02233,0.29988 0.02675,0.30446 0.0044,0.005 0.190884,-0.0832 0.414371,-0.19517 0.240489,-0.12045 0.439939,-0.20351 0.488659,-0.20351 0.184234,0 0.287056,0.24682 0.153903,0.36943 -0.03331,0.0307 -0.293764,0.17216 -0.578779,0.31441 l -0.518208,0.25863 v 0.30945 c 0,0.17018 0.0055,0.30943 0.0123,0.30943 0.0067,0 0.209247,-0.0976 0.449959,-0.21682 0.467531,-0.23162 0.512456,-0.24058 0.634729,-0.12645 0.06521,0.0608 0.07944,0.17696 0.03244,0.26476 -0.01594,0.0298 -0.272918,0.17506 -0.593342,0.33541 -0.31087,0.15557 -0.570117,0.2977 -0.576103,0.31583 -0.006,0.0181 -0.02995,0.23286 -0.05327,0.47716 -0.02331,0.24429 -0.04872,0.47258 -0.05647,0.50731 -0.01654,0.0741 -0.03783,0.0759 0.620845,-0.0519 0.222089,-0.0431 0.44014,-0.0778 0.484558,-0.077 0.04442,7.1e-4 0.244299,0.0842 0.444179,0.18552 0.19988,0.10132 0.366855,0.18104 0.371055,0.17716 0.0042,-0.004 -0.0797,-0.18442 -0.186426,-0.40118 z"
       id="path9598"
       inkscape:connector-curvature="0" />
    <path
       style="fill:#ffffff;stroke-width:0.00218024;stroke-miterlimit:4;stroke-dasharray:none"
       d="m 6.4838224,295.31691 c -1.2919907,-0.0721 -1.9221743,-0.147 -3.1622324,-0.3757 l -0.4221688,-0.0778 -0.3809622,0.18724 c -0.2095298,0.10299 -0.3841931,0.1838 -0.3881406,0.17958 -0.00393,-0.004 0.077147,-0.18164 0.1802099,-0.39426 l 0.1873892,-0.38659 -0.074294,-0.39217 c -0.3099412,-1.6361 -0.3956085,-2.61929 -0.375951,-4.31478 0.015654,-1.34989 0.089798,-2.12272 0.3320713,-3.46113 0.05743,-0.31727 0.1044479,-0.59511 0.1044824,-0.61743 3.52e-5,-0.0223 -0.078662,-0.20245 -0.1748774,-0.4003 -0.096216,-0.19787 -0.1703607,-0.36433 -0.1647644,-0.36993 0.00561,-0.006 0.1557048,0.059 0.333575,0.14361 0.1778703,0.0846 0.3569933,0.16291 0.3980507,0.17409 0.078085,0.0212 0.1209955,0.0155 0.7425612,-0.10009 2.1547712,-0.40059 4.5429137,-0.43868 6.7492103,-0.10766 0.266651,0.04 0.737348,0.12233 0.876087,0.15322 0.04295,0.01 0.152763,0.0304 0.244014,0.0463 0.201943,0.0352 0.227824,0.0281 0.682053,-0.18965 0.166853,-0.0799 0.305773,-0.13818 0.308713,-0.12939 0.003,0.009 -0.0478,0.12774 -0.112769,0.26433 -0.165706,0.34844 -0.229074,0.5049 -0.229074,0.56563 0,0.0289 0.02185,0.15959 0.04856,0.2906 0.267434,1.31201 0.384855,2.57846 0.383101,4.13196 -0.0016,1.38426 -0.09145,2.3617 -0.346105,3.76351 -0.04705,0.25902 -0.08555,0.49131 -0.08555,0.51621 0,0.0608 0.05288,0.19119 0.212574,0.52405 0.07356,0.15333 0.1303,0.28221 0.126096,0.28641 -0.0042,0.004 -0.175094,-0.0761 -0.379757,-0.17861 l -0.372116,-0.18625 -0.480818,0.0888 c -1.014474,0.18746 -1.666837,0.27174 -2.6247982,0.33915 -0.2791889,0.0196 -1.8991552,0.0402 -2.1343659,0.027 z m -2.2946459,-2.07082 c 0.022892,-0.0128 0.1526831,-0.12768 0.2884282,-0.25519 l 0.2468088,-0.23182 0.076915,0.0236 c 0.1048823,0.0322 0.3080808,0.0319 0.4155048,-7.2e-4 l 0.088619,-0.0268 0.1901937,0.19177 c 0.3027843,0.30531 0.3984018,0.36159 0.5135357,0.30229 0.1263103,-0.0651 0.1718331,-0.17195 0.1229984,-0.28883 -0.015333,-0.0367 -0.1293057,-0.17314 -0.2532796,-0.30322 -0.2245552,-0.23561 -0.2253463,-0.23677 -0.209234,-0.30655 0.020503,-0.0888 0.019966,-0.37781 -8.817e-4,-0.45738 -0.015173,-0.058 -0.00561,-0.0716 0.2361526,-0.33447 0.2411877,-0.26229 0.2519674,-0.27753 0.2519674,-0.35628 0,-0.1409 -0.1458852,-0.26109 -0.2769751,-0.22819 -0.027556,0.007 -0.1674552,0.12251 -0.3108838,0.25688 l -0.2607795,0.24429 -0.1533547,-0.0277 c -0.1353716,-0.0245 -0.1706845,-0.0243 -0.3011348,0.002 l -0.1477801,0.0294 -0.2329784,-0.2252 c -0.2498876,-0.24154 -0.340457,-0.30043 -0.4313454,-0.28047 -0.085364,0.0188 -0.1729617,0.12971 -0.1729617,0.21909 0,0.0969 0.056484,0.17919 0.2783978,0.40582 0.2113725,0.21586 0.2268917,0.24119 0.2016773,0.3291 -0.024911,0.0869 -0.023621,0.32372 0.00216,0.39769 0.01163,0.0333 0.013738,0.0719 0.00481,0.0877 -0.00877,0.0155 -0.1213377,0.14139 -0.2501489,0.27976 -0.1288103,0.13836 -0.2372378,0.27106 -0.2409496,0.29491 -0.022355,0.14357 0.082551,0.28424 0.2110623,0.28302 0.039491,-3.8e-4 0.090532,-0.0112 0.1134226,-0.024 z m 4.6160291,-0.0132 c 0.034121,-0.0208 0.162016,-0.13468 0.2842186,-0.25306 l 0.2221867,-0.21525 0.097011,0.0224 c 0.1227636,0.0284 0.3116709,0.0265 0.4113489,-0.004 l 0.076915,-0.0236 0.2357092,0.22094 c 0.336113,0.31504 0.358909,0.32658 0.501566,0.2538 0.0799,-0.0408 0.11846,-0.10581 0.118267,-0.19954 -1.61e-4,-0.0804 -0.02827,-0.11977 -0.268405,-0.376 -0.110679,-0.11809 -0.208865,-0.22836 -0.218192,-0.24502 -0.01014,-0.0181 -0.0085,-0.0641 0.0042,-0.1141 0.02652,-0.10531 0.02694,-0.2661 9.61e-4,-0.35972 -0.02644,-0.0952 -0.01523,-0.11368 0.217578,-0.35847 0.218739,-0.23 0.263895,-0.29488 0.263997,-0.37926 1.07e-4,-0.0835 -0.07346,-0.18379 -0.158521,-0.21615 -0.107895,-0.041 -0.163784,-0.008 -0.441341,0.26265 l -0.2442052,0.23797 -0.13075,-0.0329 c -0.1255465,-0.0315 -0.166519,-0.0315 -0.3999503,5.3e-4 -0.076201,0.0104 -0.079175,0.008 -0.3196918,-0.21746 -0.1335281,-0.12539 -0.2696428,-0.23912 -0.3024758,-0.25272 -0.083619,-0.0346 -0.1526197,-0.0115 -0.2399068,0.0802 -0.1252933,0.13172 -0.094852,0.19599 0.2734067,0.57726 l 0.1810884,0.1875 -0.031757,0.0983 c -0.038698,0.1198 -0.039932,0.2393 -0.00409,0.39185 l 0.027108,0.11527 -0.2178472,0.22253 c -0.3295987,0.3367 -0.3580337,0.40524 -0.2238066,0.53947 0.061028,0.061 0.088221,0.0746 0.1490216,0.0746 0.040902,-3e-5 0.102283,-0.0171 0.1364008,-0.0379 z m -4.5594051,-4.17671 c 0.051722,-0.0443 0.1740718,-0.15793 0.2718854,-0.25249 0.1729473,-0.16722 0.1798276,-0.17161 0.2499701,-0.15983 0.1859151,0.0313 0.2791833,0.0344 0.3986919,0.0136 0.1570089,-0.0273 0.1389336,-0.0374 0.4281153,0.23673 0.1189539,0.11274 0.2387735,0.21353 0.2662659,0.22398 0.06312,0.024 0.1810387,-0.006 0.2275634,-0.0569 0.046144,-0.051 0.068635,-0.16377 0.047458,-0.23798 -0.010732,-0.0376 -0.1076147,-0.15777 -0.2491765,-0.30904 -0.2212321,-0.23639 -0.2309242,-0.25019 -0.2161777,-0.30765 0.020078,-0.0782 0.019108,-0.3455 -0.0016,-0.44811 l -0.016231,-0.0803 0.1713514,-0.17931 c 0.2977307,-0.31154 0.3330436,-0.3583 0.3330436,-0.44092 0,-0.0939 -0.089697,-0.20292 -0.1810306,-0.22005 -0.1059083,-0.0199 -0.1928845,0.0352 -0.4429972,0.28041 l -0.2369052,0.23229 -0.1155146,-0.03 c -0.1458933,-0.0378 -0.2210549,-0.0377 -0.3496921,5.1e-4 l -0.1024946,0.0305 -0.1846159,-0.18214 c -0.256129,-0.25269 -0.3511581,-0.32099 -0.4466289,-0.32099 -0.1431633,0 -0.2283144,0.0797 -0.2283144,0.21369 0,0.0862 0.025264,0.12252 0.2419171,0.34752 0.2570716,0.26699 0.2627448,0.27594 0.2359281,0.37214 -0.013025,0.0467 -0.017153,0.16029 -0.010692,0.29383 l 0.010532,0.21768 -0.2176284,0.22834 c -0.2544819,0.26702 -0.3009553,0.35285 -0.2530872,0.46741 0.034001,0.0814 0.1308085,0.14741 0.2162586,0.14751 0.042481,6e-5 0.087011,-0.0232 0.1538284,-0.0805 z m 4.5571825,0.0305 c 0.041134,-0.0276 0.1526662,-0.12572 0.2478468,-0.21813 0.2451376,-0.23801 0.2445718,-0.23772 0.4109401,-0.21025 0.105142,0.0174 0.1690045,0.0174 0.2741465,0 0.1659107,-0.0274 0.1432563,-0.0398 0.4424146,0.24245 0.152344,0.14375 0.242855,0.21495 0.28359,0.2231 0.182566,0.0365 0.349958,-0.15719 0.265916,-0.3077 -0.01285,-0.023 -0.12586,-0.15154 -0.251145,-0.28564 -0.201454,-0.21562 -0.226377,-0.24969 -0.215558,-0.29467 0.02814,-0.11699 0.03372,-0.3299 0.01111,-0.42414 -0.02921,-0.12175 -0.03498,-0.11215 0.246904,-0.41089 0.117564,-0.12461 0.219127,-0.24797 0.225696,-0.27414 0.02051,-0.0817 -0.009,-0.17639 -0.07134,-0.22885 -0.140204,-0.11797 -0.225457,-0.0827 -0.548959,0.22725 l -0.2337076,0.22391 -0.1115806,-0.0291 c -0.158422,-0.0413 -0.2366664,-0.0377 -0.4245773,0.0197 -0.034891,0.0107 -0.075135,-0.0186 -0.2307423,-0.1675 -0.3203706,-0.30664 -0.3426787,-0.32351 -0.4279861,-0.32351 -0.095104,0 -0.1645369,0.0309 -0.2037011,0.0907 -0.037111,0.0567 -0.040982,0.17576 -0.00769,0.23811 0.013538,0.0254 0.1272225,0.15088 0.2526368,0.27887 l 0.228025,0.23271 -0.028999,0.12302 c -0.037399,0.15866 -0.036878,0.23103 0.00256,0.3561 l 0.032109,0.10186 -0.2048761,0.21205 c -0.3211529,0.33242 -0.3565556,0.39532 -0.2923677,0.51945 0.070999,0.13729 0.2013462,0.17102 0.3293935,0.0852 z"
       id="path9600"
       inkscape:connector-curvature="0" />
    <path
       style="fill:#ffffff;stroke-width:0.00218024;stroke-miterlimit:4;stroke-dasharray:none"
       d="m 4.9050322,288.16569 c -0.1104176,-0.06 -0.1433925,-0.1848 -0.075897,-0.28719 0.1059187,-0.16068 0.324113,-0.12992 0.3848952,0.0543 0.055337,0.16767 -0.1476045,0.32066 -0.3090018,0.23294 z"
       id="path9602"
       inkscape:connector-curvature="0" />
    <path
       style="fill:#ffffff;stroke-width:0.00218024;stroke-miterlimit:4;stroke-dasharray:none"
       d="m 4.9314987,292.31886 c -0.06514,-0.0278 -0.1395909,-0.12867 -0.1397135,-0.18925 -1.347e-4,-0.0665 0.059449,-0.16128 0.1228517,-0.19542 0.1160468,-0.0625 0.2474902,-0.004 0.2993995,0.13279 0.058856,0.15532 -0.1249702,0.3192 -0.2825377,0.25188 z"
       id="path9604"
       inkscape:connector-curvature="0" />
    <path
       style="fill:#ffffff;stroke-width:0.00218024;stroke-miterlimit:4;stroke-dasharray:none"
       d="m 9.5315429,292.31832 c -0.1358951,-0.069 -0.1823989,-0.20518 -0.1040592,-0.30477 0.1469057,-0.18677 0.382873,-0.11342 0.382873,0.11901 0,0.0838 -0.058872,0.1636 -0.1447294,0.19624 -0.06413,0.0244 -0.065621,0.0243 -0.1340844,-0.0105 z"
       id="path9606"
       inkscape:connector-curvature="0" />
    <path
       style="fill:#ffffff;stroke-width:0.00218024;stroke-miterlimit:4;stroke-dasharray:none"
       d="m 9.487765,288.1826 c -0.037143,-0.0165 -0.1004362,-0.1523 -0.1004362,-0.21551 0,-0.0692 0.057005,-0.14428 0.1336275,-0.17601 0.2037933,-0.0844 0.3820578,0.16448 0.2353799,0.32864 -0.044228,0.0495 -0.07124,0.0616 -0.1490209,0.0671 -0.052252,0.004 -0.1060477,0.002 -0.1195503,-0.004 z"
       id="path9608"
       inkscape:connector-curvature="0" />
    <path
       style="fill:#ffffff;stroke-width:0.00218024;stroke-miterlimit:4;stroke-dasharray:none"
       d="m 14.482887,292.79669 c -0.350585,-0.16968 -0.475337,-0.21545 -0.557628,-0.20461 -0.03701,0.005 -0.210071,0.0347 -0.38457,0.0664 -0.56602,0.10255 -0.638777,0.11458 -0.646474,0.10689 -0.0042,-0.004 0.005,-0.11928 0.02042,-0.25581 0.01541,-0.13652 0.03843,-0.35205 0.05117,-0.47897 0.01274,-0.1269 0.02951,-0.24805 0.03727,-0.2692 0.0092,-0.0249 0.148446,-0.10871 0.396037,-0.2382 0.577355,-0.30196 0.754471,-0.40398 0.778153,-0.44824 0.01189,-0.0222 0.0171,-0.0797 0.01164,-0.12815 -0.0076,-0.0678 -0.02413,-0.10061 -0.0722,-0.14356 -0.09999,-0.0893 -0.195433,-0.0707 -0.566941,0.11068 -0.168922,0.0825 -0.352558,0.1705 -0.408081,0.19562 l -0.100949,0.0457 2.15e-4,-0.30261 2.15e-4,-0.30261 0.528248,-0.26605 c 0.356048,-0.17932 0.54402,-0.28479 0.576631,-0.32355 0.09045,-0.1075 0.04483,-0.2887 -0.08637,-0.34304 -0.0898,-0.0372 -0.175115,-0.009 -0.601596,0.19557 -0.199057,0.0957 -0.367172,0.16875 -0.373587,0.16233 -0.0127,-0.0127 -0.04134,-0.33163 -0.04284,-0.47712 l -9.61e-4,-0.0904 0.519295,-0.26249 c 0.285612,-0.14438 0.545198,-0.2867 0.576856,-0.31626 0.04348,-0.0406 0.05756,-0.0709 0.05756,-0.12359 0,-0.14522 -0.08639,-0.26087 -0.19486,-0.26087 -0.05999,0 -0.231852,0.0725 -0.658461,0.27767 -0.16792,0.0808 -0.307767,0.14435 -0.310771,0.1413 -0.0074,-0.007 -0.04925,-0.57746 -0.0428,-0.58294 0.0028,-0.002 0.204127,-0.10468 0.447367,-0.22733 0.756871,-0.38162 0.759527,-0.38351 0.759527,-0.54106 0,-0.0739 -0.07478,-0.17573 -0.150059,-0.20435 -0.07434,-0.0283 -0.203669,0.0188 -0.667186,0.24282 -0.281233,0.13591 -0.424376,0.19575 -0.433386,0.18118 -0.01451,-0.0235 -0.05691,-0.36715 -0.05691,-0.46134 0,-0.0743 0.03031,-0.0933 0.672855,-0.42239 0.278266,-0.14251 0.534906,-0.28609 0.570311,-0.31906 0.0505,-0.0471 0.06437,-0.0752 0.06437,-0.13076 0,-0.13662 -0.08935,-0.24193 -0.205273,-0.24193 -0.07696,0 -0.06265,-0.006 -0.675721,0.28379 -0.27832,0.13157 -0.509545,0.2357 -0.513834,0.23141 -0.01622,-0.0162 -0.109446,-0.61047 -0.09974,-0.63576 0.0056,-0.0146 0.194893,-0.11987 0.420674,-0.23401 0.643195,-0.32516 0.797641,-0.41263 0.821677,-0.46539 0.06795,-0.14914 -0.03584,-0.33375 -0.187655,-0.33375 -0.06984,0 -0.267837,0.084 -0.653121,0.27716 -0.162256,0.0813 -0.30285,0.14527 -0.312433,0.14207 -0.0096,-0.003 0.0095,-0.062 0.04232,-0.1308 0.106076,-0.22193 0.151706,-0.36216 0.151879,-0.46674 l 1.61e-4,-0.10051 0.431488,-0.2173 c 0.237312,-0.11951 0.457884,-0.24196 0.490155,-0.2721 0.05086,-0.0475 0.05867,-0.0681 0.05867,-0.15477 0,-0.0881 -0.0078,-0.10777 -0.06537,-0.16535 -0.106907,-0.10691 -0.121692,-0.10312 -0.722993,0.1852 -0.443529,0.21267 -0.581638,0.26859 -0.663333,0.26859 -0.06918,0 -0.23283,0.0653 -0.577833,0.23038 l -0.308582,0.14769 -0.234449,-0.0511 c -0.128947,-0.0281 -0.238952,-0.0555 -0.244457,-0.0611 -0.0055,-0.006 0.117719,-0.0775 0.273832,-0.15998 0.402043,-0.21243 0.463932,-0.25533 0.478212,-0.33144 0.02158,-0.11506 -0.03668,-0.2274 -0.147731,-0.28482 -0.05177,-0.0268 -0.06427,-0.0253 -0.176166,0.0212 -0.06625,0.0275 -0.386349,0.18051 -0.711343,0.33997 l -0.590898,0.28993 -0.264771,-0.0368 c -0.1456242,-0.0202 -0.2639137,-0.0455 -0.2628661,-0.056 0.00104,-0.0106 0.1566595,-0.0994 0.3458041,-0.19732 0.189144,-0.0979 0.360382,-0.19457 0.380527,-0.21471 0.02231,-0.0223 0.04018,-0.0736 0.04572,-0.13127 0.0082,-0.0852 0.003,-0.10154 -0.05155,-0.16369 -0.09632,-0.1097 -0.139931,-0.10903 -0.400118,0.006 -0.1243828,0.0551 -0.4678134,0.22096 -0.7631788,0.36861 l -0.5370292,0.26846 -0.260955,-0.0123 c -0.1435248,-0.006 -0.294709,-0.0172 -0.3359644,-0.0232 l -0.075007,-0.0109 0.2275818,-0.11783 c 0.2883288,-0.14928 0.35508,-0.20915 0.35508,-0.31848 0,-0.0443 -0.013129,-0.10579 -0.029168,-0.13681 -0.028759,-0.0556 -0.1160035,-0.11474 -0.1692963,-0.11474 -0.04539,0 -0.3842668,0.15662 -0.9350976,0.43218 l -0.5219613,0.26111 -0.2634565,-0.006 -0.2634566,-0.006 0.1998938,-0.10253 c 0.1099416,-0.0564 0.2320062,-0.12378 0.2712546,-0.14976 0.1410433,-0.0933 0.1539743,-0.23456 0.033592,-0.36683 -0.063946,-0.0703 -0.1268073,-0.0712 -0.2847203,-0.004 -0.2473788,0.10487 -1.0145234,0.47575 -1.2278589,0.59362 -0.21744,0.12014 -0.2084541,0.11782 -0.6986894,0.18111 l -0.1874781,0.0242 v -0.0506 c 0,-0.0278 0.03457,-0.2342 0.076826,-0.45858 0.1140182,-0.6055 0.113001,-0.57985 0.030867,-0.77826 -0.038329,-0.0926 -0.1177052,-0.26409 -0.1763955,-0.38111 -0.058688,-0.11702 -0.1032576,-0.21623 -0.099039,-0.22045 0.00425,-0.004 0.1782629,0.0747 0.3867668,0.17536 l 0.3790978,0.18303 0.5302499,-0.0963 c 1.5168938,-0.27548 2.3891796,-0.3567 3.8133567,-0.35505 1.6176495,0.002 2.4244165,0.0749 3.9418465,0.35689 l 0.528785,0.0983 0.374516,-0.18616 c 0.205985,-0.1024 0.377349,-0.17768 0.380811,-0.16729 0.0034,0.0103 -0.07496,0.18678 -0.174274,0.39199 l -0.180569,0.37311 0.09219,0.48903 c 0.351627,1.8652 0.453805,3.64364 0.315047,5.48359 -0.06064,0.80411 -0.178102,1.64422 -0.361986,2.58897 l -0.04637,0.23823 0.180078,0.36944 c 0.09904,0.20319 0.180079,0.37503 0.180079,0.38189 0,0.022 -0.02442,0.0123 -0.288428,-0.11555 z"
       id="path9610"
       inkscape:connector-curvature="0" />
    <rect
       style="fill:#ffffff;stroke-width:0.02190788;stroke-miterlimit:4;stroke-dasharray:none"
       id="rect9664"
       width="3.8791423"
       height="3.7083588"
       x="11.491393"
       y="281.66205" />
    <path
       style="fill:#000000;stroke-width:0.01214802"
       d="m 13.183234,286.77924 c -0.744275,-0.0769 -1.382281,-0.37921 -1.907906,-0.90398 -0.267549,-0.26711 -0.435381,-0.50033 -0.594727,-0.82643 -0.149894,-0.30675 -0.236007,-0.57953 -0.28761,-0.9111 -0.03788,-0.24355 -0.03788,-0.66755 0,-0.9111 0.105339,-0.67678 0.398298,-1.25378 0.882337,-1.73783 0.267742,-0.26775 0.501098,-0.43561 0.826732,-0.59473 0.306756,-0.14989 0.579542,-0.236 0.911102,-0.28761 0.24383,-0.038 0.667707,-0.038 0.911102,9e-5 0.336664,0.0525 0.604871,0.13715 0.911102,0.28737 0.327333,0.16057 0.559354,0.32752 0.826727,0.5949 0.267373,0.26737 0.434334,0.49939 0.594904,0.82673 0.148745,0.30322 0.235744,0.57899 0.287433,0.9111 0.03789,0.24355 0.03789,0.66754 0,0.9111 -0.105067,0.67507 -0.399521,1.25501 -0.882337,1.73783 -0.267373,0.26737 -0.499394,0.43433 -0.826727,0.5949 -0.302545,0.14841 -0.585147,0.23755 -0.907355,0.28618 -0.187209,0.0283 -0.575865,0.04 -0.744777,0.0226 z m 1.768666,-2.87021 c 0.02944,-0.0156 0.06994,-0.0516 0.08998,-0.08 0.03297,-0.0468 0.03644,-0.0608 0.03644,-0.14683 0,-0.0861 -0.0032,-0.10005 -0.03644,-0.14684 -0.02004,-0.0285 -0.06054,-0.0645 -0.08998,-0.0801 l -0.05354,-0.0283 h -1.429646 -1.429647 l -0.05354,0.0283 c -0.02945,0.0156 -0.06994,0.0515 -0.08999,0.0801 -0.03297,0.0468 -0.03644,0.0608 -0.03644,0.14684 0,0.0861 0.0032,0.10005 0.03644,0.14683 0.02004,0.0285 0.06053,0.0645 0.08999,0.08 l 0.05354,0.0283 h 1.429647 1.429646 z"
       id="path9731"
       inkscape:connector-curvature="0" />
  </g>
</svg>
