<?xml version="1.0" encoding="UTF-8" standalone="no"?>
<!-- Created with Inkscape (http://www.inkscape.org/) -->

<svg
   xmlns:dc="http://purl.org/dc/elements/1.1/"
   xmlns:cc="http://creativecommons.org/ns#"
   xmlns:rdf="http://www.w3.org/1999/02/22-rdf-syntax-ns#"
   xmlns:svg="http://www.w3.org/2000/svg"
   xmlns="http://www.w3.org/2000/svg"
   xmlns:sodipodi="http://sodipodi.sourceforge.net/DTD/sodipodi-0.dtd"
   xmlns:inkscape="http://www.inkscape.org/namespaces/inkscape"
   width="64"
   height="64"
   viewBox="0 0 16.933333 16.933334"
   version="1.1"
   id="svg8"
   inkscape:version="0.92.5 (2060ec1f9f, 2020-04-08)"
   sodipodi:docname="renew_64x64.svg">
  <defs
     id="defs2" />
  <sodipodi:namedview
     id="base"
     pagecolor="#ffffff"
     bordercolor="#666666"
     borderopacity="1.0"
     inkscape:pageopacity="0.0"
     inkscape:pageshadow="2"
     inkscape:zoom="5.6"
     inkscape:cx="63.560552"
     inkscape:cy="35.856358"
     inkscape:document-units="mm"
     inkscape:current-layer="layer1"
     showgrid="false"
     units="px"
     inkscape:window-width="1208"
     inkscape:window-height="987"
     inkscape:window-x="1992"
     inkscape:window-y="0"
     inkscape:window-maximized="1" />
  <metadata
     id="metadata5">
    <rdf:RDF>
      <cc:Work
         rdf:about="">
        <dc:format>image/svg+xml</dc:format>
        <dc:type
           rdf:resource="http://purl.org/dc/dcmitype/StillImage" />
        <dc:title></dc:title>
      </cc:Work>
    </rdf:RDF>
  </metadata>
  <g
     inkscape:label="Layer 1"
     inkscape:groupmode="layer"
     id="layer1"
     transform="translate(0,-280.06665)">
    <path
       style="fill:#ffffff;stroke-width:0.22907396;stroke-miterlimit:4;stroke-dasharray:none"
       d=""
       id="path12841"
       inkscape:connector-curvature="0"
       transform="matrix(0.26458333,0,0,0.26458333,0,280.06665)" />
    <path
       style="fill:#000000;stroke-width:0.03017633"
       d="m 7.0334474,296.2605 c -0.074687,-0.0204 -0.1901108,-0.0727 -0.2564986,-0.1159 -0.1603403,-0.10447 -2.9448936,-2.90479 -3.0287819,-3.04593 -0.188299,-0.31682 -0.2479944,-0.79207 -0.1434748,-1.14221 0.1063502,-0.35628 0.1764431,-0.43736 1.659374,-1.9196 1.2187876,-1.2182 1.4477222,-1.43384 1.5996091,-1.50664 0.3144541,-0.15072 0.6106518,-0.13201 0.8199945,0.0518 0.251526,0.22084 0.3145771,0.4409 0.3150623,1.09963 l 3.534e-4,0.48635 0.3394834,0.041 c 0.4766885,0.0576 1.2871041,0.0515 1.6974192,-0.0128 0.867095,-0.13587 1.682198,-0.42764 2.398155,-0.85844 0.594355,-0.35763 1.271823,-0.95782 1.736357,-1.53829 0.10964,-0.13701 0.238612,-0.2694 0.2866,-0.29422 0.189237,-0.0979 0.445344,-0.0292 0.570079,0.15285 0.0959,0.13996 0.0898,0.36431 -0.02482,0.9134 -0.427296,2.04688 -1.711278,3.87094 -3.479586,4.9432 -0.993758,0.60259 -2.1801833,1.00173 -3.2398583,1.08995 l -0.2687412,0.0224 -0.017554,0.513 c -0.019424,0.56769 -0.052339,0.70598 -0.2150183,0.90333 -0.1111208,0.13481 -0.3560678,0.25861 -0.5067498,0.25613 -0.058089,-7.5e-4 -0.1667241,-0.0185 -0.2414105,-0.039 z m 0.1376581,-2.3009 c 0.1355883,-0.18136 0.1947378,-0.203 0.6181028,-0.22611 0.2162886,-0.0118 0.4640227,-0.0304 0.5505214,-0.0414 1.9876863,-0.25189 3.7136513,-1.32099 4.8237943,-2.98797 0.153228,-0.23008 0.628899,-1.13483 0.629294,-1.19695 6e-5,-0.011 -0.141299,0.0854 -0.314153,0.21431 -0.983521,0.7335 -2.161163,1.21195 -3.391192,1.37775 -0.7232731,0.0975 -1.6718344,0.0653 -2.3881384,-0.0813 -0.3513694,-0.0718 -0.4508599,-0.12706 -0.5376377,-0.29826 -0.062949,-0.12419 -0.067896,-0.17361 -0.067896,-0.67815 v -0.5442 l -1.2704891,1.26729 c -1.2727901,1.26956 -1.3828139,1.39614 -1.3843649,1.59262 -0.00156,0.20133 0.082654,0.299 1.3658806,1.58354 l 1.2738848,1.27521 0.015086,-0.5866 c 0.013679,-0.53192 0.020882,-0.59433 0.077305,-0.6698 z m -5.3284562,-4.32231 c -0.057831,-0.0308 -0.1363387,-0.10886 -0.1744633,-0.17352 -0.059918,-0.10158 -0.06692,-0.14416 -0.051635,-0.31371 0.050507,-0.5604 0.2978977,-1.43962 0.5943589,-2.11235 0.6258899,-1.42025 1.6974164,-2.62575 3.0723143,-3.45641 0.8956579,-0.54112 2.1447228,-0.95018 3.1534257,-1.03272 l 0.271587,-0.0222 0.015824,-0.52808 c 0.018465,-0.6162 0.062575,-0.76273 0.2898406,-0.96276 0.2415883,-0.21266 0.5313473,-0.2327 0.8580579,-0.0594 0.2476846,0.13141 3.0036176,2.89664 3.1209516,3.13147 0.124145,0.24846 0.16565,0.41779 0.166007,0.67731 3.89e-4,0.2814 -0.0603,0.50929 -0.197183,0.74046 -0.152167,0.25699 -2.93291,3.01793 -3.1353368,3.11303 -0.3117297,0.14642 -0.6242283,0.10381 -0.8465672,-0.11546 -0.2102082,-0.20729 -0.2376537,-0.30999 -0.2556512,-0.95667 l -0.015937,-0.57286 -0.2564993,-0.0364 c -1.6866371,-0.23955 -3.4220122,0.22756 -4.798916,1.2917 -0.3503453,0.27076 -0.8303651,0.74757 -1.0936916,1.08639 -0.2755015,0.35447 -0.4666843,0.43511 -0.7164777,0.3022 z m 1.3644394,-2.18622 c 0.7335614,-0.55327 1.671953,-1.00435 2.5555742,-1.22847 1.0388333,-0.2635 2.0999464,-0.29914 3.1497192,-0.10579 0.6715536,0.12368 0.6968396,0.15791 0.7115849,0.96314 l 0.010445,0.57032 1.279738,-1.27947 c 0.910127,-0.90992 1.289426,-1.3088 1.313279,-1.38107 0.04203,-0.12734 0.04068,-0.2944 -0.0033,-0.41173 -0.01972,-0.0526 -0.564323,-0.62164 -1.307117,-1.36574 l -1.2732993,-1.27558 -0.015087,0.56644 c -0.013191,0.49536 -0.022657,0.57926 -0.075441,0.66887 -0.1165054,0.1978 -0.1843165,0.22466 -0.6266696,0.24816 -0.7465787,0.0398 -1.2325499,0.12907 -1.8930536,0.3482 -0.4417693,0.14658 -1.0584567,0.43492 -1.4182871,0.66318 -0.8701643,0.55198 -1.6740624,1.36624 -2.1857042,2.2139 -0.2165454,0.35875 -0.5277792,0.99582 -0.4865028,0.99582 0.00659,0 0.1254562,-0.0856 0.264135,-0.19018 z"
       id="path13329"
       inkscape:connector-curvature="0" />
    <path
       style="fill:#ffffff;stroke-width:0.00488795;stroke-miterlimit:4;stroke-dasharray:none"
       d="m 3.0122952,287.50706 c 0,-0.0264 0.099214,-0.2338 0.220475,-0.46101 0.688673,-1.29042 1.811468,-2.3701 3.0742533,-2.9562 0.8201373,-0.38065 1.4575229,-0.54571 2.4740092,-0.64065 0.8356971,-0.0781 0.8669697,-0.11473 0.8690254,-1.01904 l 9.783e-4,-0.45228 0.9522536,0.94803 c 0.523739,0.52142 1.105712,1.11762 1.293271,1.32488 0.36598,0.40442 0.407137,0.51599 0.279199,0.75691 -0.03401,0.0641 -0.613073,0.66627 -1.286825,1.3383 l -1.2250051,1.22187 -0.023477,-0.54357 c -0.033846,-0.78368 -0.065743,-0.81699 -0.9162623,-0.95674 -0.6730267,-0.1106 -1.7248496,-0.10107 -2.4111176,0.0218 -0.9948085,0.17816 -1.9809666,0.58161 -2.8589614,1.16965 -0.2430281,0.16276 -0.4418679,0.27439 -0.4418679,0.24804 z"
       id="path13331"
       inkscape:connector-curvature="0" />
    <path
       style="fill:#ffffff;stroke-width:0.00488795;stroke-miterlimit:4;stroke-dasharray:none"
       d="m 5.9192499,294.01589 c -1.3999007,-1.41039 -1.4412475,-1.4576 -1.4412475,-1.64571 0,-0.20606 0.1474067,-0.37605 1.4568251,-1.6801 l 1.120528,-1.11593 0.015371,0.53591 c 0.017342,0.60457 0.065567,0.73144 0.3181426,0.83698 0.5423522,0.2266 2.1946012,0.28658 3.0741239,0.11158 1.107594,-0.22038 2.069621,-0.63333 2.953239,-1.26766 0.162177,-0.11641 0.301872,-0.20466 0.310434,-0.19611 0.03188,0.0319 -0.539774,1.03642 -0.783568,1.37694 -1.108549,1.54831 -3.0403342,2.60459 -4.9948194,2.73109 -0.8031237,0.052 -0.8369496,0.0863 -0.8773383,0.88938 l -0.027951,0.5558 z"
       id="path13333"
       inkscape:connector-curvature="0" />
  </g>
</svg>
