<?xml version="1.0" encoding="UTF-8" standalone="no"?>
<!-- Created with Inkscape (http://www.inkscape.org/) -->

<svg
   xmlns:dc="http://purl.org/dc/elements/1.1/"
   xmlns:cc="http://creativecommons.org/ns#"
   xmlns:rdf="http://www.w3.org/1999/02/22-rdf-syntax-ns#"
   xmlns:svg="http://www.w3.org/2000/svg"
   xmlns="http://www.w3.org/2000/svg"
   xmlns:sodipodi="http://sodipodi.sourceforge.net/DTD/sodipodi-0.dtd"
   xmlns:inkscape="http://www.inkscape.org/namespaces/inkscape"
   width="64"
   height="64"
   viewBox="0 0 16.933333 16.933334"
   version="1.1"
   id="svg8"
   inkscape:version="0.92.5 (2060ec1f9f, 2020-04-08)"
   sodipodi:docname="residents_room_64x64x.svg">
  <defs
     id="defs2" />
  <sodipodi:namedview
     id="base"
     pagecolor="#ffffff"
     bordercolor="#666666"
     borderopacity="1.0"
     inkscape:pageopacity="0.0"
     inkscape:pageshadow="2"
     inkscape:zoom="5.6"
     inkscape:cx="40.944889"
     inkscape:cy="13.343556"
     inkscape:document-units="mm"
     inkscape:current-layer="layer1"
     showgrid="false"
     units="px"
     inkscape:window-width="1208"
     inkscape:window-height="987"
     inkscape:window-x="1992"
     inkscape:window-y="0"
     inkscape:window-maximized="1" />
  <metadata
     id="metadata5">
    <rdf:RDF>
      <cc:Work
         rdf:about="">
        <dc:format>image/svg+xml</dc:format>
        <dc:type
           rdf:resource="http://purl.org/dc/dcmitype/StillImage" />
        <dc:title></dc:title>
      </cc:Work>
    </rdf:RDF>
  </metadata>
  <g
     inkscape:label="Layer 1"
     inkscape:groupmode="layer"
     id="layer1"
     transform="translate(0,-280.06665)">
    <path
       style="fill:#000000;stroke-width:0.02960118"
       d="m 10.858582,295.93829 c -0.05074,-0.11006 -0.09208,-0.21238 -0.09187,-0.22737 2.13e-4,-0.0149 0.985553,-0.47347 2.189667,-1.01887 1.204113,-0.5454 2.189208,-0.9983 2.1891,-1.00645 -1.8e-4,-0.0133 -2.632623,-1.24431 -2.758473,-1.28999 -0.04815,-0.0175 -0.0518,0.0199 -0.0518,0.53061 0,0.60364 -0.0148,0.67237 -0.159508,0.74102 -0.511911,0.24282 -5.233054,2.23845 -5.295582,2.23845 -0.04681,0 -0.622921,-0.25797 -1.3221137,-0.59202 -0.6815341,-0.32561 -1.2519543,-0.59202 -1.2676004,-0.59202 -0.052046,0 -0.9705972,0.42873 -0.9799776,0.45741 -0.00684,0.0208 0.7396736,0.39878 0.9223235,0.46698 0.032501,0.0122 -0.1642264,0.43691 -0.2024373,0.4371 -0.075759,3.4e-4 -1.4845683,-0.69072 -1.5448953,-0.75786 -0.074139,-0.0825 -0.082874,-0.15072 -0.033259,-0.25962 0.03501,-0.0768 0.1292732,-0.12693 0.8457959,-0.44938 0.214898,-0.0967 0.3814044,-0.18501 0.3700145,-0.19621 -0.011392,-0.0112 -0.6068114,-0.30061 -1.3231598,-0.64313 -0.7163484,-0.34253 -1.3257629,-0.65119 -1.35425361,-0.68594 -0.048236,-0.0588 -0.051805,-0.20541 -0.051805,-2.13033 v -2.06715 l 0.066602,-0.0732 c 0.05527,-0.0607 0.5577037,-0.22225 2.9527173,-0.94917 1.5873628,-0.48178 2.9104505,-0.87584 2.9401935,-0.87569 0.02974,1.2e-4 0.09302,0.0392 0.140605,0.0868 l 0.08653,0.0865 v 1.09752 c 0,0.60364 0.01031,1.09753 0.0229,1.09753 0.01259,0 0.235717,-0.0711 0.49582,-0.158 l 0.472916,-0.15798 0.0075,-3.70497 c 0.0041,-2.03773 2.91e-4,-3.70497 -0.0085,-3.70497 -0.0088,0 -1.609421,0.53297 -3.5568702,1.18438 -1.9474494,0.6514 -3.5435114,1.18088 -3.5468043,1.17663 -0.00331,-0.005 -0.040023,-0.11022 -0.081614,-0.23551 l -0.075627,-0.2278 3.73457401,-1.24486 c 2.0540165,-0.68468 3.7569235,-1.24486 3.7842385,-1.24486 0.08595,0 7.288064,2.99201 7.358029,3.05678 l 0.0666,0.0617 v 4.06634 4.06635 l -0.07625,0.0763 c -0.06293,0.0629 -0.09526,0.0734 -0.185007,0.0601 -0.05982,-0.009 -1.699,-0.67493 -3.642633,-1.48015 l -3.53388,-1.46404 -0.358675,0.1187 c -0.197271,0.0653 -0.367862,0.12698 -0.37909,0.1371 -0.01123,0.0101 0.96117,0.4376 2.160886,0.94995 1.199714,0.51235 2.267884,0.97632 2.373708,1.03106 0.105824,0.0547 0.991639,0.47235 1.968478,0.92806 0.976839,0.4557 1.793168,0.84516 1.814064,0.86547 0.06801,0.0661 0.07708,0.23422 0.01659,0.30766 -0.03366,0.0409 -0.979523,0.48701 -2.467081,1.1637 -1.326873,0.60359 -2.440918,1.10868 -2.475657,1.12245 -0.05666,0.0225 -0.07266,0.005 -0.155406,-0.1751 z m -1.328732,-1.66903 2.300852,-0.98327 6.38e-4,-0.47792 6.38e-4,-0.47791 -2.353294,1.00858 -2.353293,1.00857 v 0.47155 c 0,0.43657 0.0038,0.47014 0.0518,0.45261 0.02849,-0.0104 1.087186,-0.46141 2.352655,-1.00221 z m -2.914326,0.52191 -0.0082,-0.4633 -2.5895091,-1.23877 c -1.4242301,-0.68132 -2.5931067,-1.23877 -2.5975035,-1.23877 -0.00443,0 -0.008,0.21013 -0.008,0.46696 v 0.46696 l 2.5679013,1.232 c 1.4123469,0.67761 2.5848923,1.23341 2.6056563,1.23512 0.02944,0.002 0.03596,-0.0989 0.0296,-0.4602 z m 2.596104,-1.87418 c 1.220692,-0.52354 2.223561,-0.95601 2.228598,-0.96105 0.02318,-0.0231 -1.128379,-0.49273 -1.169597,-0.47692 -0.239459,0.0919 -4.3884856,1.92386 -4.3884856,1.9377 0,0.0101 0.2231186,0.12581 0.4958196,0.25718 0.359142,0.173 0.512139,0.2328 0.555022,0.21691 0.03256,-0.0121 1.057951,-0.45028 2.278643,-0.97382 z m -1.756784,-0.74417 c 1.194517,-0.5227 2.181441,-0.95921 2.193166,-0.97003 0.01172,-0.0108 -0.609372,-0.28986 -1.380214,-0.62008 l -1.401531,-0.60042 -2.4383382,0.74143 c -1.3410858,0.40778 -2.4649795,0.75289 -2.4975409,0.76691 -0.048439,0.0209 0.024092,0.0653 0.3988171,0.24441 0.251911,0.12039 1.004521,0.48117 1.6724665,0.80174 0.6679462,0.32056 1.2294956,0.58364 1.2478867,0.58462 0.018396,7.5e-4 1.0107708,-0.42588 2.2052878,-0.94858 z m 7.870074,-4.03381 c 0,-2.91052 -0.0077,-3.68767 -0.037,-3.71009 -0.04012,-0.0307 -1.41758,-0.6005 -1.451823,-0.6005 -0.01146,0 -0.02074,1.66173 -0.02063,3.69274 l 2.12e-4,3.69275 0.717619,0.30016 c 0.394691,0.16509 0.73427,0.30163 0.754621,0.30341 0.02942,0.002 0.037,-0.7511 0.037,-3.67847 z m -13.6308436,2.90469 0.2177926,-0.0666 0.00926,-0.55199 c 0.00821,-0.48919 0.01554,-0.55893 0.064437,-0.61289 0.068879,-0.076 1.5250967,-0.56679 1.6817515,-0.56679 0.08233,0 0.1237905,0.019 0.170196,0.078 0.056427,0.0718 0.061349,0.11712 0.061349,0.56559 0,0.40111 0.00721,0.48482 0.040624,0.472 0.022341,-0.009 0.1355688,-0.0439 0.2516104,-0.0784 l 0.2109836,-0.0628 v -0.51537 c 0,-0.32003 0.012677,-0.5432 0.033447,-0.58878 0.020101,-0.0441 0.087997,-0.0963 0.1702065,-0.13091 0.2826137,-0.11885 1.431559,-0.48536 1.530244,-0.48816 0.06951,-0.002 0.12409,0.0184 0.168671,0.0629 0.06194,0.0618 0.06647,0.0952 0.0753,0.5535 0.0052,0.26823 0.01983,0.48768 0.03258,0.48768 0.01275,0 0.06514,-0.0146 0.116413,-0.0325 l 0.09322,-0.0325 v -0.97394 c 0,-0.53567 -0.0074,-0.97395 -0.01647,-0.97395 -0.0091,0 -1.1579513,0.34704 -2.5531011,0.7712 -1.3951494,0.42415 -2.5599464,0.77804 -2.5884372,0.78642 -0.04798,0.0141 -0.051805,0.0872 -0.051805,0.99008 0,0.67809 0.00973,0.97485 0.03196,0.97485 0.017576,0 0.1299645,-0.03 0.2497505,-0.0666 z M 13.34164,290.56573 v -0.42617 l -0.488517,-0.19545 c -0.268684,-0.10751 -0.515339,-0.19546 -0.548122,-0.19546 -0.03279,0 -0.335051,0.0689 -0.671708,0.15313 -0.446621,0.11174 -0.596536,0.15982 -0.554522,0.17784 0.504958,0.21667 2.198471,0.90957 2.225867,0.91072 0.02796,0.002 0.037,-0.10258 0.037,-0.42461 z m -10.3723374,0.0886 0.4115415,-0.12623 0.00834,-0.34532 c 0.00458,-0.18992 -0.00165,-0.34532 -0.013819,-0.34532 -0.012189,0 -0.2323994,0.0696 -0.4893587,0.15472 l -0.467199,0.15471 v 0.33427 0.33427 l 0.06948,-0.0174 c 0.038212,-0.01 0.2546711,-0.0742 0.4810191,-0.14367 z m 2.9128408,-1.2353 v -0.34669 l -0.4884194,0.16313 -0.4884193,0.16312 v 0.33356 0.33356 l 0.4884193,-0.15 0.4884194,-0.14999 z m 4.2256826,-3.45192 -0.0075,-3.69275 -0.725229,-0.30246 c -0.398876,-0.16635 -0.735219,-0.30289 -0.74743,-0.30341 -0.01221,-5.6e-4 -0.0222,1.66169 -0.0222,3.6938 v 3.69475 l 0.717828,0.29916 c 0.394806,0.16454 0.734531,0.30017 0.754946,0.30141 0.02961,0.001 0.0356,-0.74498 0.0296,-3.6905 z m 0.769516,3.61371 0.214608,-0.0502 v -0.98822 c 0,-0.92734 -0.0032,-0.98727 -0.0518,-0.97272 -0.02849,0.009 -0.141716,0.0377 -0.25161,0.0648 l -0.199808,0.0493 v 0.97324 c 0,0.75866 0.0082,0.97332 0.037,0.97363 0.02035,2.1e-4 0.133575,-0.0222 0.25161,-0.0498 z m 2.464298,-0.93858 c 0,-0.73179 -0.0087,-0.96516 -0.037,-0.98692 -0.04993,-0.0385 -0.648962,-0.27505 -0.696032,-0.27488 -0.02953,9e-5 -0.03576,0.20327 -0.0296,0.96536 l 0.0078,0.96522 0.355213,0.14334 c 0.195369,0.0788 0.365206,0.14401 0.377416,0.14482 0.01221,7.5e-4 0.0222,-0.42981 0.0222,-0.95694 z m -1.598464,0.72334 c 0.05698,-0.0152 0.160217,-0.0422 0.229409,-0.0602 l 0.125805,-0.0326 v -0.97569 c 0,-0.76119 -0.0081,-0.97555 -0.037,-0.97502 -0.02035,3.3e-4 -0.130246,0.0245 -0.24421,0.0537 l -0.207208,0.053 -0.0078,0.98236 c -0.0043,0.54029 0.0024,0.98229 0.0148,0.98219 0.01243,-9e-5 0.06922,-0.0125 0.126204,-0.0277 z m -0.325613,-2.39905 0.666026,-0.16672 0.0086,-0.24332 0.0086,-0.2433 -0.08261,0.0209 c -0.04544,0.0115 -0.382327,0.0959 -0.748642,0.18764 l -0.666026,0.16673 -0.0086,0.24331 -0.0086,0.24331 0.08261,-0.0209 c 0.04544,-0.0115 0.382326,-0.0959 0.748642,-0.18765 z m 1.917921,-0.0773 -0.0086,-0.22492 -0.323584,-0.13001 c -0.484669,-0.19471 -0.435231,-0.20228 -0.425134,0.0651 l 0.0087,0.23007 0.340414,0.13977 c 0.187227,0.0769 0.357625,0.14092 0.37866,0.14234 0.02883,0.002 0.03612,-0.0528 0.0296,-0.22235 z m -1.961899,-0.90361 0.724805,-0.18129 v -0.39593 -0.39593 h 0.236809 0.23681 v 0.40923 0.40923 l 0.348288,0.1384 c 0.191558,0.0761 0.364869,0.13839 0.385136,0.13839 0.02894,0 0.03519,-0.26835 0.02913,-1.24995 l -0.0077,-1.24995 -1.344208,-0.55572 c -0.739313,-0.30565 -1.355388,-0.55573 -1.369054,-0.55573 -0.01367,0 -0.02484,0.82587 -0.02484,1.83528 0,1.22106 0.01005,1.83527 0.03003,1.83527 0.01652,0 0.356188,-0.0816 0.75483,-0.1813 z m -9.8746565,1.9106 -0.071764,-0.0764 -0.00791,-1.5295 c -0.00729,-1.41289 -0.00391,-1.53739 0.044404,-1.6331 l 0.052309,-0.10361 2.2792899,-0.76038 c 1.2536106,-0.41822 2.3085196,-0.76122 2.3442436,-0.76224 0.03572,-7.5e-4 0.102326,0.0303 0.148005,0.0696 l 0.08305,0.0714 0.0082,1.54861 c 0.0056,1.07 -0.0018,1.57276 -0.02415,1.62669 -0.01779,0.0429 -0.06142,0.0934 -0.09699,0.11207 -0.142313,0.0748 -4.5106484,1.51317 -4.5956494,1.51317 -0.059824,0 -0.115989,-0.0263 -0.1630287,-0.0764 z m 2.4221352,-1.16935 1.9610797,-0.65369 v -1.22914 c 0,-0.97087 -0.00778,-1.22629 -0.037002,-1.21551 -0.02035,0.008 -0.9128259,0.30524 -1.9832786,0.66163 l -1.9462771,0.64797 v 1.22122 c 0,0.67167 0.00999,1.22121 0.022198,1.22121 0.012211,0 0.9046854,-0.29415 1.98328,-0.65369 z m -1.2605251,-0.72682 c -0.070554,-0.10738 -0.117177,-0.20528 -0.1036042,-0.21756 0.054428,-0.0492 0.7386576,-0.49435 0.787945,-0.5126 0.029908,-0.011 0.2006593,0.0277 0.3933976,0.0894 l 0.3405589,0.10893 0.442872,-0.44214 0.4428732,-0.44213 0.1779616,0.17797 0.1779616,0.17796 -0.5276785,0.52472 c -0.4433428,0.44088 -0.5415658,0.52474 -0.6145616,0.52474 -0.047785,0 -0.2308244,-0.0479 -0.4067548,-0.10659 l -0.3198743,-0.10658 -0.3178904,0.21019 c -0.1748401,0.1156 -0.3239735,0.20991 -0.3314077,0.20957 -0.00744,-3.3e-4 -0.071246,-0.0885 -0.1417984,-0.19585 z"
       id="path368"
       inkscape:connector-curvature="0" />
    <path
       style="fill:#ffffff;stroke-width:0.00079913;stroke-miterlimit:4;stroke-dasharray:none"
       d="m 7.14222,288.25593 v -1.08621 l -0.09468,-0.0873 c -0.05545,-0.0511 -0.115447,-0.0873 -0.144814,-0.0873 -0.05755,0 -0.272389,0.0618 -1.5894407,0.45727 -2.6078191,0.78301 -4.0805986,1.24052 -4.2287401,1.3136 -0.03489,0.0172 -0.083461,0.0496 -0.10794081,0.0719 l -0.044509,0.0407 -0.013556,-1.27471 c -0.00744,-0.70109 -0.018681,-1.87414 -0.024941,-2.60677 l -0.011377,-1.33205 0.058877,0.16228 c 0.03238,0.0893 0.063987,0.16732 0.070239,0.17347 0.00624,0.006 1.6070942,-0.52027 3.557427,-1.16981 L 8.114826,281.65 v 3.69314 3.69314 l -0.460393,0.15293 c -0.253215,0.0841 -0.472052,0.15293 -0.486305,0.15293 -0.02012,0 -0.02591,-0.2429 -0.02591,-1.08621 z m -5.08286,-0.39251 c 1.4868934,-0.46714 4.137438,-1.35627 4.215245,-1.414 0.108735,-0.0807 0.10585,-0.0337 0.105359,-1.71661 l -4.58e-4,-1.57521 -0.07749,-0.0588 c -0.04262,-0.0323 -0.09771,-0.0639 -0.122423,-0.0701 -0.05556,-0.014 -0.544525,0.1421 -2.8665333,0.9148 l -1.8099396,0.6023 -0.040135,0.0776 c -0.038189,0.0739 -0.040421,0.15344 -0.046079,1.64022 l -0.00594,1.56257 0.048229,0.0523 c 0.041511,0.045 0.1476636,0.10693 0.1878628,0.10954 0.00699,4.5e-4 0.1925609,-0.0557 0.412302,-0.12469 z"
       id="path372"
       inkscape:connector-curvature="0" />
    <path
       style="fill:#ffffff;stroke-width:0.00079913;stroke-miterlimit:4;stroke-dasharray:none"
       d="m 1.9334842,287.02011 c -0.00757,-0.19186 -0.013759,-0.73662 -0.013759,-1.21057 v -0.86175 l 1.9645654,-0.65489 1.9645657,-0.6549 0.013534,0.19325 c 0.00744,0.10629 0.010626,0.65399 0.00706,1.21713 l -0.00646,1.0239 -1.1629037,0.38624 c -0.6395967,0.21244 -1.520648,0.50419 -1.9578924,0.64834 l -0.7949884,0.26208 z m 1.2341647,-1.04238 0.2858852,-0.18576 0.2603333,0.0825 c 0.1431842,0.0454 0.3115872,0.0939 0.3742294,0.10795 0.108388,0.0243 0.1178932,0.0228 0.1965685,-0.0292 0.045471,-0.0301 0.3002687,-0.26878 0.5662211,-0.53043 l 0.4835477,-0.47572 -0.1849885,-0.18622 -0.1849885,-0.18623 -0.4407758,0.4404 -0.4407748,0.4404 -0.2834158,-0.0877 c -0.4640842,-0.14356 -0.4081525,-0.153 -0.8595806,0.14485 -0.2346238,0.15479 -0.3858726,0.2679 -0.3858726,0.28855 0,0.0438 0.026932,0.0945 0.142801,0.2685 0.1107452,0.16633 0.057486,0.17671 0.4708104,-0.0919 z"
       id="path374"
       inkscape:connector-curvature="0" />
    <path
       style="fill:#ffffff;stroke-width:0.00079913;stroke-miterlimit:4;stroke-dasharray:none"
       d="m 1.4452241,291.07115 c -0.032591,-0.10442 -0.025805,-1.8413 0.00744,-1.89503 0.00699,-0.0113 0.9689267,-0.31088 2.1375757,-0.66561 3.0004462,-0.91074 2.9843772,-0.90597 2.9993362,-0.89103 0.0074,0.008 0.01626,0.43986 0.01962,0.96096 l 0.0061,0.94746 -0.0944,0.0322 c -0.07418,0.0252 -0.09658,0.0264 -0.104597,0.005 -0.0056,-0.0147 -0.01668,-0.21124 -0.02461,-0.43692 -0.0079,-0.22569 -0.02316,-0.44498 -0.03384,-0.48732 -0.02392,-0.0947 -0.0959,-0.14502 -0.20763,-0.14502 -0.09232,0 -0.5628226,0.13796 -1.1490854,0.33693 -0.4225245,0.1434 -0.46968,0.16454 -0.5437391,0.24381 -0.052376,0.0561 -0.052497,0.0572 -0.06343,0.59677 l -0.010956,0.54062 -0.222009,0.0679 c -0.1956524,0.0598 -0.2237148,0.0639 -0.2363807,0.0343 -0.00791,-0.0185 -0.015097,-0.2144 -0.015976,-0.43535 -9.018e-4,-0.22095 -0.011392,-0.43698 -0.023355,-0.48006 -0.026812,-0.0965 -0.1095467,-0.16483 -0.1996787,-0.16483 -0.127762,0 -1.1385644,0.32142 -1.5438305,0.49091 -0.2026748,0.0848 -0.2189859,0.11503 -0.220815,0.40962 -6.575e-4,0.10573 -0.00744,0.33651 -0.015074,0.51287 l -0.013879,0.32064 -0.1605564,0.0499 c -0.2425193,0.0754 -0.2766256,0.0814 -0.2861887,0.0508 z"
       id="path376"
       inkscape:connector-curvature="0" />
    <path
       style="fill:#ffffff;stroke-width:0.00079913;stroke-miterlimit:4;stroke-dasharray:none"
       d="m 4.926867,289.71923 0.00586,-0.32064 0.4334458,-0.14471 c 0.2383953,-0.0796 0.4500966,-0.15002 0.4704475,-0.15652 0.034184,-0.0109 0.037002,0.0138 0.037002,0.32421 v 0.33602 l -0.4608289,0.14114 c -0.2534567,0.0776 -0.4677843,0.14114 -0.4762841,0.14114 -0.0085,0 -0.012827,-0.14429 -0.00962,-0.32064 z"
       id="path378"
       inkscape:connector-curvature="0" />
    <path
       style="fill:#ffffff;stroke-width:0.00079913;stroke-miterlimit:4;stroke-dasharray:none"
       d="m 2.427175,290.4792 v -0.32469 l 0.4281601,-0.13978 c 0.2354879,-0.0769 0.4495675,-0.14613 0.4757332,-0.15389 l 0.047575,-0.0141 v 0.33632 0.33632 l -0.4387315,0.13137 c -0.2413027,0.0723 -0.4553831,0.13627 -0.4757333,0.14225 -0.034109,0.0101 -0.037002,-0.0145 -0.037002,-0.31379 z"
       id="path380"
       inkscape:connector-curvature="0" />
    <path
       style="fill:#ffffff;stroke-width:0.00079913;stroke-miterlimit:4;stroke-dasharray:none"
       d="m 5.1602643,293.07232 c -0.3898131,-0.17052 -3.1623389,-1.50741 -3.1960342,-1.54111 -0.026587,-0.0266 -0.026684,-0.0324 -6.839e-4,-0.0415 0.055097,-0.0195 1.7210647,-0.52904 3.3231305,-1.01627 l 1.5803073,-0.4806 0.777215,0.33269 c 1.258378,0.53866 1.975248,0.86123 1.956227,0.88025 -0.04604,0.0461 -4.3047799,1.90295 -4.3536389,1.89828 -0.00994,-7.5e-4 -0.048875,-0.0152 -0.086522,-0.0316 z"
       id="path382"
       inkscape:connector-curvature="0" />
    <path
       style="fill:#ffffff;stroke-width:0.00079913;stroke-miterlimit:4;stroke-dasharray:none"
       d="m 6.846208,293.86746 c -0.152797,-0.0477 -0.8949749,-0.40451 -0.9176298,-0.44116 -0.015427,-0.0249 4.1935968,-1.89412 4.3249378,-1.92064 0.03572,-0.008 0.131525,0.0168 0.264296,0.0661 0.242078,0.09 0.855869,0.34823 0.880573,0.37053 0.0093,0.008 -0.02879,0.0347 -0.08457,0.0586 -0.05579,0.0239 -1.055438,0.45292 -2.22145,0.9534 -1.166013,0.50047 -2.136508,0.91438 -2.156657,0.9198 -0.02015,0.005 -0.06043,0.002 -0.08949,-0.007 z"
       id="path384"
       inkscape:connector-curvature="0" />
    <path
       style="fill:#ffffff;stroke-width:0.00079913;stroke-miterlimit:4;stroke-dasharray:none"
       d="m 6.074323,295.00136 c -0.5369091,-0.25199 -3.1468676,-1.49941 -4.0911652,-1.95537 l -0.5603083,-0.27054 0.00534,-0.44105 c 0.00293,-0.24258 0.00912,-0.44482 0.013714,-0.44942 0.00458,-0.005 0.4065707,0.18137 0.8932617,0.41326 2.3965172,1.14188 4.2271228,2.01866 4.2407198,2.03114 0.02296,0.0211 0.04487,0.80994 0.02399,0.86339 -0.01775,0.0454 -0.03205,0.0402 -0.525553,-0.19141 z"
       id="path386"
       inkscape:connector-curvature="0" />
    <path
       style="fill:#ffffff;stroke-width:0.00079913;stroke-miterlimit:4;stroke-dasharray:none"
       d="m 7.147086,294.80733 0.0057,-0.46018 2.331094,-0.99909 2.331092,-0.9991 -4.62e-4,0.46824 -4.62e-4,0.46823 -0.681421,0.28927 c -0.374783,0.1591 -1.409293,0.6002 -2.298915,0.98023 -0.889621,0.38003 -1.634332,0.69583 -1.654913,0.70178 -0.03511,0.0101 -0.03707,-0.0177 -0.03172,-0.44938 z"
       id="path388"
       inkscape:connector-curvature="0" />
    <path
       style="fill:#ffffff;stroke-width:0.00079913;stroke-miterlimit:4;stroke-dasharray:none"
       d="m 0.98937969,295.5776 c -1.43e-5,-0.27222 -0.00631,-0.9463 -0.014075,-1.49793 l -0.014052,-1.00297 0.06165,0.0439 c 0.067932,0.0483 0.9710803,0.49881 1.9824966,0.98881 l 0.6522243,0.31599 -0.22935,0.11132 c -0.1261434,0.0612 -0.3882111,0.18727 -0.5823741,0.28008 -0.3823023,0.18276 -0.4283321,0.22181 -0.4283321,0.36346 0,0.0552 0.015698,0.0965 0.050896,0.13393 0.049934,0.0531 0.76851,0.42731 1.2061955,0.62806 l 0.222009,0.10182 -1.0062027,3.3e-4 c -0.5534114,1.8e-4 -1.2075443,0.007 -1.4536293,0.0143 l -0.44742661,0.014 z"
       id="path390"
       inkscape:connector-curvature="0" />
    <path
       style="fill:#ffffff;stroke-width:0.00079913;stroke-miterlimit:4;stroke-dasharray:none"
       d="m 4.100686,296.01069 c 0.00481,-0.0104 0.03483,-0.0754 0.06679,-0.14442 0.1039957,-0.22471 0.1372011,-0.18565 -0.3754017,-0.44159 -0.2506455,-0.12515 -0.455719,-0.23476 -0.455719,-0.24357 0,-0.0191 0.083641,-0.0607 0.5667318,-0.28193 0.2663998,-0.12199 0.3784909,-0.16354 0.412302,-0.15282 0.025542,0.008 0.4793534,0.21875 1.008474,0.46813 0.5291213,0.24938 1.0945829,0.51086 1.2565829,0.58107 l 0.294543,0.12765 0.223478,-0.0903 c 0.943011,-0.38095 4.741323,-1.99516 5.012523,-2.13023 0.11351,-0.0565 0.167479,-0.097 0.189896,-0.14241 0.02413,-0.0489 0.03384,-0.18564 0.04229,-0.59561 0.006,-0.2927 0.01738,-0.53856 0.02521,-0.54637 0.0078,-0.008 0.09347,0.0214 0.190293,0.0648 0.178101,0.08 1.994144,0.92838 2.36442,1.10456 l 0.200865,0.0956 -0.243152,0.11543 c -0.133735,0.0635 -0.83782,0.38639 -1.564634,0.71757 -1.741601,0.79357 -2.499319,1.14606 -2.533513,1.1786 -0.02312,0.022 -0.01885,0.0482 0.02456,0.15119 l 0.05255,0.12454 -1.176892,0.0129 c -2.863587,0.0315 -5.5903153,0.0447 -5.5821958,0.0271 z"
       id="path392"
       inkscape:connector-curvature="0" />
    <path
       style="fill:#ffffff;stroke-width:0.00079913;stroke-miterlimit:4;stroke-dasharray:none"
       d="m 12.97788,295.23494 c 1.613283,-0.73601 2.475559,-1.13565 2.775111,-1.28618 0.117844,-0.0592 0.163863,-0.0739 0.163863,-0.0521 0,0.0498 -0.230539,2.02618 -0.237098,2.03259 -0.0033,0.003 -0.971793,0.0122 -2.15214,0.02 l -2.146085,0.014 z"
       id="path394"
       inkscape:connector-curvature="0" />
    <path
       style="fill:#ffffff;stroke-width:0.00079913;stroke-miterlimit:4;stroke-dasharray:none"
       d="m 15.696114,293.38676 c -0.103964,-0.0524 -0.746203,-0.35692 -1.427199,-0.67674 -0.680997,-0.31982 -1.476042,-0.69382 -1.766768,-0.83111 -0.599224,-0.28297 -0.740727,-0.34529 -2.494956,-1.09898 -1.29645,-0.55701 -2.259038,-0.97871 -2.314623,-1.01401 -0.0171,-0.0109 -0.02662,-0.0235 -0.02115,-0.0282 0.02327,-0.0197 0.640295,-0.22646 0.675757,-0.22646 0.02141,0 0.684357,0.26738 1.47321,0.59419 4.277598,1.77209 5.6864,2.34478 5.768049,2.34478 0.02767,0 0.07998,-0.0249 0.116247,-0.0555 0.03627,-0.0305 0.06877,-0.0519 0.07221,-0.0476 0.01154,0.0146 0.12376,1.09257 0.115949,1.11384 -0.0042,0.0116 -0.09277,-0.0219 -0.196734,-0.0743 z"
       id="path396"
       inkscape:connector-curvature="0" />
    <path
       style="fill:#ffffff;stroke-width:0.00079913;stroke-miterlimit:4;stroke-dasharray:none"
       d="m 14.732807,291.58533 c -0.273282,-0.11374 -0.587266,-0.24463 -0.697742,-0.29087 l -0.200865,-0.0841 v -3.67048 c 0,-2.01876 0.0056,-3.67612 0.01256,-3.68302 0.01278,-0.0128 0.390881,0.13574 1.05486,0.41439 l 0.36967,0.15513 0.01634,0.0845 c 0.0207,0.10711 0.02693,7.07294 0.0064,7.19406 -0.0084,0.0495 -0.02627,0.0893 -0.03978,0.0885 -0.01351,-7.5e-4 -0.248165,-0.0944 -0.521448,-0.20813 z"
       id="path398"
       inkscape:connector-curvature="0" />
    <path
       style="fill:#ffffff;stroke-width:0.00079913;stroke-miterlimit:4;stroke-dasharray:none"
       d="m 12.57615,290.68782 c -0.377943,-0.15466 -0.867494,-0.35608 -1.087889,-0.44758 l -0.400718,-0.16638 0.07299,-0.0298 c 0.08521,-0.0349 0.939461,-0.25045 1.069892,-0.27001 0.106877,-0.016 0.131052,-0.009 0.678737,0.20648 l 0.42816,0.1682 v 0.31266 c 0,0.35129 -0.01567,0.50914 -0.05044,0.50827 -0.01295,-3.2e-4 -0.332782,-0.12713 -0.710726,-0.28178 z"
       id="path400"
       inkscape:connector-curvature="0" />
    <path
       style="fill:#ffffff;stroke-width:0.00079913;stroke-miterlimit:4;stroke-dasharray:none"
       d="m 12.935593,289.44046 -0.327727,-0.13228 -0.01057,-0.7072 c -0.0058,-0.38895 -0.0076,-0.81987 -0.004,-0.95759 l 0.0066,-0.25041 0.05683,0.0141 c 0.08841,0.0218 0.584032,0.21965 0.624655,0.24935 0.03218,0.0235 0.03776,0.0915 0.04913,0.59715 0.01498,0.66633 -0.0064,1.32171 -0.04306,1.32022 -0.01329,-5.4e-4 -0.171634,-0.0605 -0.351884,-0.13327 z"
       id="path402"
       inkscape:connector-curvature="0" />
    <path
       style="fill:#ffffff;stroke-width:0.00079913;stroke-miterlimit:4;stroke-dasharray:none"
       d="m 11.617343,289.20961 c -0.01586,-0.20375 -0.01374,-0.81048 0.0048,-1.37878 l 0.0131,-0.40127 0.208369,-0.0494 c 0.114604,-0.0271 0.214508,-0.0432 0.222009,-0.0357 0.0075,0.008 0.01364,0.4427 0.01364,0.96713 v 0.95351 l -0.16915,0.0458 c -0.09303,0.0252 -0.193917,0.0519 -0.224189,0.0593 l -0.05504,0.0135 z"
       id="path404"
       inkscape:connector-curvature="0" />
    <path
       style="fill:#ffffff;stroke-width:0.00079913;stroke-miterlimit:4;stroke-dasharray:none"
       d="m 10.622547,289.5994 c -0.006,-0.01 -0.01756,-0.44183 -0.02573,-0.96033 l -0.01485,-0.94272 0.08262,-0.0216 c 0.283483,-0.074 0.355271,-0.0889 0.381256,-0.0789 0.02411,0.009 0.0291,0.17562 0.0291,0.97037 v 0.95921 l -0.206151,0.0459 c -0.234094,0.0521 -0.231556,0.0519 -0.246249,0.028 z"
       id="path406"
       inkscape:connector-curvature="0" />
    <path
       style="fill:#ffffff;stroke-width:0.00079913;stroke-miterlimit:4;stroke-dasharray:none"
       d="m 9.552602,289.43898 c -0.261654,-0.10783 -0.577977,-0.23796 -0.702941,-0.28917 l -0.227206,-0.0931 0.0052,-3.67195 c 0.0029,-2.01958 0.01102,-3.67779 0.01815,-3.68491 0.0071,-0.007 0.330621,0.11854 0.718886,0.27924 l 0.705935,0.29219 0.01328,0.36917 c 0.0179,0.49755 0.02185,6.38816 0.0045,6.72813 -0.0089,0.17453 -0.02192,0.26903 -0.03692,0.26803 -0.01274,-7.5e-4 -0.237246,-0.0898 -0.498899,-0.19761 z"
       id="path408"
       inkscape:connector-curvature="0" />
    <path
       style="fill:#ffffff;stroke-width:0.00079913;stroke-miterlimit:4;stroke-dasharray:none"
       d="m 10.605233,286.93798 c 0.0053,-0.12553 0.01259,-0.23148 0.0161,-0.23543 0.0035,-0.004 0.335344,-0.0898 0.737438,-0.19086 l 0.731082,-0.18368 v 0.10847 c 0,0.0597 -0.0059,0.16502 -0.01314,0.23412 l -0.01313,0.12563 -0.71104,0.17673 c -0.391072,0.0972 -0.72139,0.18045 -0.734042,0.185 -0.01604,0.006 -0.02006,-0.0608 -0.01326,-0.21998 z"
       id="path410"
       inkscape:connector-curvature="0" />
    <path
       style="fill:#ffffff;stroke-width:0.00079913;stroke-miterlimit:4;stroke-dasharray:none"
       d="m 12.94988,286.96537 c -0.18402,-0.0745 -0.33734,-0.13868 -0.340711,-0.14267 -0.0034,-0.004 -0.01253,-0.0954 -0.02036,-0.20318 -0.01168,-0.16088 -0.0088,-0.19804 0.01638,-0.20769 0.01684,-0.007 0.182784,0.0481 0.36877,0.12123 l 0.338158,0.13298 0.0082,0.16986 c 0.0084,0.17534 8.27e-4,0.26504 -0.02244,0.26495 -0.0074,-3e-5 -0.163955,-0.061 -0.347977,-0.13548 z"
       id="path412"
       inkscape:connector-curvature="0" />
    <path
       style="fill:#ffffff;stroke-width:0.00079913;stroke-miterlimit:4;stroke-dasharray:none"
       d="m 10.62011,286.12789 c -0.01619,-0.0262 -0.01935,-3.59206 -0.0032,-3.60821 0.0096,-0.01 0.844377,0.32733 2.202382,0.88873 l 0.486305,0.20105 0.0055,1.23827 c 0.0048,1.08804 0.0016,1.23827 -0.0262,1.23827 -0.01741,0 -0.183995,-0.0594 -0.370183,-0.132 l -0.338525,-0.132 v -0.40716 -0.40716 H 12.33353 12.090844 l -0.0058,0.39514 -0.0058,0.39514 -0.653755,0.16348 c -0.772476,0.19318 -0.787029,0.19619 -0.805408,0.16645 z"
       id="path414"
       inkscape:connector-curvature="0" />
  </g>
</svg>
