<?xml version="1.0" encoding="UTF-8" standalone="no"?>
<svg
   xmlns:dc="http://purl.org/dc/elements/1.1/"
   xmlns:cc="http://creativecommons.org/ns#"
   xmlns:rdf="http://www.w3.org/1999/02/22-rdf-syntax-ns#"
   xmlns:svg="http://www.w3.org/2000/svg"
   xmlns="http://www.w3.org/2000/svg"
   xmlns:sodipodi="http://sodipodi.sourceforge.net/DTD/sodipodi-0.dtd"
   xmlns:inkscape="http://www.inkscape.org/namespaces/inkscape"
   width="64"
   height="64"
   viewBox="0 0 16.933333 16.933333"
   version="1.1"
   id="svg8"
   sodipodi:docname="seren_restaurant_64x64.svg"
   inkscape:version="1.0.2 (1.0.2+r75+1)">
  <defs
     id="defs2" />
  <sodipodi:namedview
     id="base"
     pagecolor="#ffffff"
     bordercolor="#666666"
     borderopacity="1.0"
     inkscape:pageopacity="0.0"
     inkscape:pageshadow="2"
     inkscape:zoom="5.6568542"
     inkscape:cx="59.258104"
     inkscape:cy="31.284907"
     inkscape:document-units="mm"
     inkscape:current-layer="layer1"
     inkscape:document-rotation="0"
     showgrid="false"
     inkscape:snap-global="false"
     fit-margin-top="0"
     fit-margin-left="0"
     fit-margin-right="0"
     fit-margin-bottom="0"
     inkscape:window-width="1366"
     inkscape:window-height="704"
     inkscape:window-x="0"
     inkscape:window-y="0"
     inkscape:window-maximized="0"
     units="px" />
  <metadata
     id="metadata5">
    <rdf:RDF>
      <cc:Work
         rdf:about="">
        <dc:format>image/svg+xml</dc:format>
        <dc:type
           rdf:resource="http://purl.org/dc/dcmitype/StillImage" />
        <dc:title />
      </cc:Work>
    </rdf:RDF>
  </metadata>
  <g
     inkscape:label="Calque 1"
     inkscape:groupmode="layer"
     id="layer1"
     transform="translate(-44.581036,-28.552681)">
    <text
       xml:space="preserve"
       style="font-style:normal;font-weight:normal;font-size:10.5833px;line-height:1.25;font-family:sans-serif;fill:#000000;fill-opacity:1;stroke:none;stroke-width:0.264583"
       x="51.724785"
       y="39.66518"
       id="text1411"><tspan
         sodipodi:role="line"
         id="tspan1409"
         x="51.724785"
         y="39.66518"
         style="stroke-width:0.264583" /></text>
    <path
       style="fill:#ffffff;stroke-width:2.12598;stroke-linecap:round;stroke-miterlimit:4;stroke-dasharray:none"
       d=""
       id="path1772"
       transform="matrix(0.26458333,0,0,0.26458333,44.581036,28.552681)" />
    <path
       style="fill:#000000;stroke-width:0.0296995"
       d="m 45.71764,44.410564 c -0.03305,-0.03306 -0.05939,-0.099 -0.05939,-0.148668 0,-0.06632 0.492939,-2.439788 0.609077,-2.93267 0.01518,-0.0644 0.0083,-0.06682 -0.190783,-0.06682 -0.238531,0 -0.339893,-0.03155 -0.459165,-0.142963 -0.152167,-0.142131 -0.195348,-0.281454 -0.196075,-0.632647 -5.53e-4,-0.274569 0.0073,-0.325368 0.0609,-0.393521 0.05781,-0.07348 0.07682,-0.07825 0.311846,-0.07825 0.137661,0 0.250291,-0.0085 0.250291,-0.01877 0,-0.01033 -0.02555,-0.06044 -0.05676,-0.111374 -0.150923,-0.246177 -0.153927,-0.292872 -0.144788,-2.249743 l 0.0085,-1.822612 0.08006,-0.219208 c 0.09047,-0.24778 0.238566,-0.485502 0.407938,-0.654875 l 0.114937,-0.114938 -0.102254,-0.09911 c -0.05625,-0.05451 -0.138439,-0.172785 -0.182664,-0.26283 -0.07691,-0.156599 -0.0804,-0.183742 -0.0804,-0.624064 0,-0.433792 0.0044,-0.469843 0.07725,-0.625047 0.10641,-0.226879 0.229611,-0.357677 0.44887,-0.476568 0.175119,-0.09495 0.204126,-0.101218 0.468816,-0.101218 0.265101,0 0.29351,0.0061 0.470258,0.101991 0.207384,0.112436 0.354498,0.27148 0.457288,0.494369 0.06091,0.132089 0.06736,0.190371 0.06715,0.606476 -2.7e-4,0.518117 -0.03058,0.62851 -0.234616,0.854345 l -0.105364,0.116625 0.125561,0.08965 c 0.06905,0.0493 0.392857,0.253109 0.719552,0.4529 0.68914,0.421441 0.520991,0.402407 1.336485,0.151275 0.435303,-0.134054 0.529575,-0.153611 0.683963,-0.141893 0.405236,0.03076 0.712145,0.33105 0.748261,0.732125 0.01252,0.138904 0.0055,0.17401 -0.04386,0.218462 -0.06929,0.06246 -2.152667,0.763776 -2.268934,0.763776 -0.04377,0 -0.188428,-0.04155 -0.321437,-0.09235 -0.133009,-0.05079 -0.248635,-0.08556 -0.256947,-0.07723 -0.0084,0.0084 -0.0057,0.17564 0.0058,0.371838 l 0.02087,0.356725 0.291944,0.01009 c 0.321888,0.01113 0.368461,0.03369 0.400549,0.194132 0.01524,0.07623 0.0043,0.108669 -0.05739,0.170376 -0.06993,0.06993 -0.09714,0.07621 -0.330014,0.07621 h -0.253797 l 9.36e-4,0.09652 c 10e-4,0.106085 0.03559,0.162351 0.146737,0.238959 0.06834,0.04711 0.364812,0.05058 4.276747,0.05018 3.276863,-3.38e-4 4.219048,-0.0086 4.274701,-0.03714 0.09061,-0.04657 0.174823,-0.16359 0.186704,-0.259435 l 0.0093,-0.07425 -3.811604,-0.01484 -3.811605,-0.01484 -0.05676,-0.07012 c -0.07222,-0.08919 -0.07223,-0.186348 -2.9e-5,-0.275566 0.05635,-0.06966 0.06135,-0.07017 0.76655,-0.07901 l 0.709821,-0.009 0.03592,-0.173901 c 0.125042,-0.605391 0.713678,-1.192841 1.313497,-1.310848 0.173783,-0.03419 0.176532,-0.03629 0.176532,-0.134818 0,-0.131575 0.08799,-0.218882 0.220592,-0.218882 0.121976,0 0.224903,0.110572 0.224903,0.241601 0,0.05762 0.0151,0.08509 0.04673,0.08509 0.115345,0 0.518535,0.164332 0.701309,0.285841 0.356305,0.23687 0.618339,0.609722 0.723931,1.030093 l 0.05063,0.201577 0.148818,-0.0088 c 0.148054,-0.0088 0.149015,-0.0095 0.187301,-0.139646 0.09112,-0.309711 0.426709,-0.641587 0.738749,-0.730572 0.08235,-0.02349 0.43708,-0.09054 0.788276,-0.149038 0.351199,-0.05848 0.641937,-0.115683 0.646087,-0.127103 0.06544,-0.180141 0.221323,-0.292 0.342647,-0.245873 0.180117,0.06847 0.192034,0.210734 0.03932,0.469224 -0.129742,0.219594 -0.0699,0.198579 -0.998341,0.350605 -0.769359,0.125978 -0.904365,0.177488 -1.044755,0.398605 -0.0461,0.07262 -0.08384,0.142787 -0.08384,0.155923 0,0.01314 0.491157,0.02323 1.091461,0.02242 l 1.09146,-0.0014 0.250241,-0.273257 c 0.669209,-0.730761 0.765455,-0.8227 0.861246,-0.8227 0.12167,0 0.210147,0.09211 0.210147,0.21879 0,0.08862 -0.06242,0.16712 -0.549139,0.690516 l -0.549138,0.590526 -3.37e-4,0.215322 -3.37e-4,0.215322 h 0.935538 0.935539 l -3.37e-4,-1.239959 c -3.37e-4,-1.289445 -0.0092,-1.398578 -0.132322,-1.640904 -0.101687,-0.200103 -0.262634,-0.381671 -0.40884,-0.461246 -0.125809,-0.06847 -0.173659,-0.07822 -0.333805,-0.06804 -0.270716,0.01725 -0.378517,0.09914 -0.577721,0.438846 -0.19656,0.335214 -0.218191,0.357725 -0.343753,0.357725 -0.104423,0 -0.222781,-0.10769 -0.222781,-0.202709 0,-0.08542 0.31064,-0.612308 0.434833,-0.737547 l 0.122986,-0.12402 -0.08672,-0.08309 c -0.04769,-0.0457 -0.12309,-0.157062 -0.167536,-0.247477 -0.0774,-0.157454 -0.0808,-0.183809 -0.0808,-0.624734 0,-0.415811 0.0065,-0.474481 0.06739,-0.606475 0.102791,-0.222891 0.249904,-0.381934 0.457288,-0.494371 0.176747,-0.09582 0.205157,-0.101991 0.470259,-0.101991 0.264689,0 0.293695,0.0062 0.468814,0.101218 0.219261,0.11889 0.342457,0.24969 0.448871,0.476569 0.0728,0.155203 0.07724,0.191255 0.07724,0.625048 0,0.440321 -0.0035,0.467464 -0.0804,0.624062 -0.04422,0.09005 -0.126422,0.208319 -0.182663,0.26283 l -0.102255,0.09911 0.114938,0.114938 c 0.169372,0.169373 0.317455,0.407093 0.407937,0.654875 l 0.08006,0.219208 0.0085,1.822612 c 0.0092,1.95687 0.0061,2.003567 -0.144788,2.249743 -0.03122,0.05094 -0.05676,0.101054 -0.05676,0.111374 0,0.01033 0.112632,0.01876 0.250292,0.01876 0.235018,0 0.254046,0.0048 0.311845,0.07825 0.0536,0.06815 0.06147,0.118951 0.0609,0.393519 -6.82e-4,0.351193 -0.04391,0.490518 -0.196076,0.632648 -0.11927,0.111403 -0.220633,0.142964 -0.459163,0.142964 -0.199044,0 -0.205959,0.0024 -0.190785,0.06682 0.116138,0.492881 0.609078,2.866357 0.609078,2.93267 0,0.244973 -0.336617,0.287703 -0.412561,0.05237 -0.0267,-0.08273 -0.656625,-2.996566 -0.656625,-3.03733 0,-0.0081 -0.325054,-0.01454 -0.722342,-0.01454 h -0.722342 l -0.332012,1.551802 c -0.358571,1.675954 -0.351947,1.655757 -0.543165,1.655757 -0.107056,0 -0.204607,-0.09392 -0.204607,-0.196983 0,-0.06022 0.533562,-2.619929 0.613613,-2.943752 0.01611,-0.06516 0.01058,-0.06682 -0.224299,-0.06682 -0.132448,0 -0.240817,0.01224 -0.240817,0.0272 0,0.01496 -0.08698,0.670699 -0.193275,1.457198 -0.118559,0.877197 -0.210966,1.464205 -0.239038,1.518494 -0.08571,0.165767 -0.194977,0.204448 -0.577473,0.204448 -0.375972,0 -0.478148,-0.0345 -0.584955,-0.197542 -0.05048,-0.07709 -0.05358,-0.21561 -0.05358,-2.399662 0,-2.216889 0.0025,-2.325553 0.05785,-2.494376 0.03183,-0.09708 0.101075,-0.240754 0.153916,-0.31927 l 0.09607,-0.142759 -0.480612,4.24e-4 -0.480609,4.27e-4 -0.0777,0.140644 c -0.137689,0.249248 -0.318347,0.44772 -0.56459,0.620269 -0.38789,0.271801 -0.352411,0.0357 -0.352541,2.346021 l -1.13e-4,1.994056 0.225972,0.0114 c 0.193295,0.0098 0.234093,0.02144 0.282147,0.08078 0.07298,0.09013 0.07119,0.184208 -0.0054,0.281538 l -0.06155,0.07825 H 52.97716 c -1.07198,0 -1.113694,-0.0021 -1.17098,-0.0594 -0.0747,-0.0747 -0.07632,-0.210122 -0.0036,-0.299961 0.04681,-0.05781 0.09012,-0.07088 0.268093,-0.08093 l 0.212266,-0.012 -0.0083,-2.010082 c -0.0074,-1.834962 -0.01258,-2.016807 -0.05878,-2.087274 -0.02782,-0.04246 -0.154369,-0.155458 -0.281207,-0.251116 -0.243027,-0.18329 -0.467033,-0.436049 -0.561861,-0.633981 l -0.05672,-0.118406 -0.436062,-3.37e-4 -0.43606,-3.38e-4 0.09607,0.14276 c 0.05284,0.07852 0.1221,0.222189 0.153915,0.31927 0.05532,0.168824 0.05785,0.277487 0.05785,2.49438 0,2.184063 -0.0032,2.322591 -0.05358,2.399666 -0.106812,0.163031 -0.208987,0.197536 -0.584956,0.197536 -0.382497,0 -0.49175,-0.03868 -0.577473,-0.20445 -0.02808,-0.05429 -0.120477,-0.641301 -0.239037,-1.518502 -0.1063,-0.786498 -0.193276,-1.442237 -0.193276,-1.457196 0,-0.01496 -0.108369,-0.0272 -0.240818,-0.0272 -0.23483,0 -0.240405,0.0017 -0.224297,0.06681 0.08006,0.323824 0.613613,2.883543 0.613613,2.943755 0,0.103065 -0.09757,0.196985 -0.204607,0.196985 -0.191219,0 -0.184594,0.02022 -0.543166,-1.655757 l -0.332004,-1.5518 h -0.722285 c -0.397287,0 -0.722341,0.0065 -0.722341,0.01454 0,0.04076 -0.629929,2.954601 -0.656625,3.03733 -0.05149,0.159537 -0.238833,0.210625 -0.353162,0.09629 z m 4.596922,-2.606142 -0.0084,-2.220048 -0.07086,-0.156797 c -0.04213,-0.09324 -0.129488,-0.209512 -0.215494,-0.28684 -0.255436,-0.229673 -0.208496,-0.224605 -2.080042,-0.224605 h -1.657888 l 2.92e-4,0.274722 c 2.36e-4,0.227788 0.01256,0.301056 0.07206,0.428875 0.08695,0.186731 0.255598,0.318497 0.465206,0.363451 0.09122,0.01956 0.594051,0.03184 1.304123,0.03184 1.15061,0 1.15593,2.93e-4 1.216222,0.065 0.0333,0.03575 0.06063,0.07918 0.06073,0.09652 8.9e-5,0.01734 0.113697,0.873508 0.252445,1.902601 0.138748,1.029094 0.252269,1.887783 0.25227,1.908201 10e-7,0.02617 0.06156,0.0371 0.208802,0.0371 h 0.208802 l -0.0084,-2.220045 z m 2.894026,0.163347 c 0.0083,-2.055227 0.0083,-2.056786 0.07362,-2.178957 0.10184,-0.190386 0.209217,-0.302168 0.429829,-0.447507 0.176491,-0.116273 0.410605,-0.347738 0.410605,-0.405957 0,-0.01058 -0.52296,-0.01922 -1.162132,-0.01922 h -1.162131 l 0.103507,0.126225 c 0.05692,0.06942 0.162235,0.169604 0.234019,0.222629 0.284959,0.210488 0.411172,0.340109 0.492573,0.505873 l 0.08344,0.16991 0.0084,2.04185 0.0084,2.041846 h 0.235839 0.235838 z m 2.933622,2.01719 c 0,-0.02173 0.113541,-0.880421 0.252315,-1.908202 0.138773,-1.02778 0.252374,-1.882878 0.252446,-1.900215 5.9e-5,-0.01734 0.02738,-0.06078 0.06069,-0.09652 0.06026,-0.06468 0.06612,-0.065 1.198783,-0.065 0.638451,0 1.208467,-0.01314 1.298201,-0.02991 0.216707,-0.04052 0.376479,-0.158405 0.47796,-0.352659 0.07364,-0.140971 0.08295,-0.190118 0.08295,-0.437562 v -0.278748 h -1.662056 c -1.586685,0 -1.669231,0.0026 -1.820065,0.05912 -0.19118,0.07152 -0.379004,0.254081 -0.473924,0.460627 l -0.06825,0.148498 -0.0084,2.220049 -0.0084,2.220045 h 0.208801 c 0.153964,0 0.208801,-0.01033 0.208801,-0.03953 z m -7.118012,-3.22745 c -0.0027,-0.0245 -0.01357,-0.108035 -0.02409,-0.185623 l -0.01914,-0.141072 h -1.557414 -1.557411 v 0.157407 c 0,0.08658 0.01615,0.173564 0.03589,0.193308 0.02735,0.02735 0.404078,0.03407 1.581505,0.02822 1.353245,-0.0066 1.544987,-0.01323 1.540653,-0.05223 z m 11.121522,0.02375 c 0.0196,-0.0196 0.03564,-0.106476 0.03564,-0.193048 v -0.157403 h -1.559229 c -1.226639,0 -1.559609,0.008 -1.561002,0.03713 -10e-4,0.02042 -0.01221,0.100515 -0.02495,0.177988 -0.01276,0.07747 -0.0164,0.147639 -0.0082,0.155923 0.0083,0.0083 0.705131,0.01506 1.548552,0.01506 1.153116,0 1.542329,-0.0088 1.569131,-0.03564 z M 48.11024,38.420014 c -0.01068,-0.02783 -0.02542,-0.151466 -0.03275,-0.274722 -0.05456,-0.917236 -0.07694,-1.248018 -0.09079,-1.341813 l -0.01594,-0.107923 -0.386559,-0.142208 c -0.459207,-0.168934 -0.530073,-0.216493 -0.530073,-0.355732 0,-0.112871 0.09273,-0.221748 0.188868,-0.221748 0.03238,0 0.452479,0.147583 0.933558,0.327962 l 0.874687,0.327962 0.909644,-0.302327 c 0.500305,-0.16628 0.916283,-0.308249 0.924394,-0.315486 0.0082,-0.0072 -0.03513,-0.05887 -0.09609,-0.114735 -0.08358,-0.07659 -0.137331,-0.101575 -0.21857,-0.101575 -0.05925,0 -0.390567,0.08688 -0.736253,0.193048 -0.345685,0.106176 -0.653218,0.193047 -0.683411,0.193047 -0.03018,0 -0.469033,-0.253932 -0.975206,-0.564292 -0.867303,-0.531788 -0.928747,-0.564292 -1.066701,-0.564292 -0.255209,0 -0.498177,0.176218 -0.664622,0.482033 -0.155141,0.285047 -0.161757,0.354152 -0.162139,1.693464 l -3.47e-4,1.239959 h 0.923866 c 0.858264,0 0.922486,-0.0036 0.904441,-0.05062 z m 6.144065,-0.862643 c -0.0099,-0.04493 -0.05939,-0.168544 -0.110016,-0.274721 -0.240306,-0.503919 -0.840824,-0.815241 -1.380671,-0.715771 -0.270655,0.04987 -0.483027,0.157439 -0.691028,0.350011 -0.178925,0.165652 -0.335427,0.427473 -0.37397,0.625632 l -0.01878,0.09652 h 1.296212 1.296213 z m -7.015481,-2.978695 c 0.258331,-0.07175 0.407563,-0.300736 0.40864,-0.627038 l 6.38e-4,-0.197702 -0.196494,0.0829 c -0.148698,0.06274 -0.207222,0.105056 -0.240592,0.17395 -0.08247,0.170274 -0.324333,0.174312 -0.393812,0.0065 -0.04548,-0.109805 0.0026,-0.294 0.103297,-0.394554 0.04077,-0.04077 0.194439,-0.124586 0.341471,-0.186244 0.149096,-0.06252 0.267331,-0.129819 0.267331,-0.152161 0,-0.02203 -0.05581,-0.07701 -0.124054,-0.122153 -0.104244,-0.06897 -0.155584,-0.0821 -0.32144,-0.0821 -0.246648,0 -0.405556,0.09179 -0.501296,0.289563 -0.08809,0.181977 -0.09208,0.740117 -0.0064,0.90703 0.07417,0.144628 0.178776,0.239497 0.319345,0.289617 0.139464,0.04973 0.200815,0.05193 0.343439,0.0123 z m 11.879853,0 c 0.142409,-0.03955 0.277936,-0.154643 0.351195,-0.298241 0.08717,-0.170854 0.08417,-0.72672 -0.0049,-0.910719 -0.09574,-0.197774 -0.254648,-0.289563 -0.501297,-0.289563 -0.166578,0 -0.217046,0.01301 -0.323352,0.08336 -0.06928,0.04585 -0.121071,0.09805 -0.115089,0.115996 0.006,0.01795 0.130469,0.0851 0.276634,0.149239 0.146166,0.06414 0.290512,0.138869 0.320771,0.166081 0.148681,0.133714 0.189208,0.411348 0.07203,0.493426 -0.128436,0.08996 -0.288075,0.04671 -0.346279,-0.0938 -0.03213,-0.07759 -0.0829,-0.106878 -0.411876,-0.237658 -0.02762,-0.01102 -0.03713,0.03963 -0.03713,0.1975 0,0.318266 0.125628,0.522848 0.375854,0.612066 0.139465,0.04973 0.200814,0.05193 0.34344,0.0123 z m -2.991317,0.909256 c -0.04901,-0.02127 -0.309618,-0.220673 -0.579142,-0.443119 l -0.490044,-0.404446 -1.086789,-5.11e-4 c -1.079816,-5.09e-4 -1.087631,-9.35e-4 -1.217687,-0.06958 -0.170151,-0.0898 -0.310133,-0.275581 -0.350907,-0.465693 -0.01785,-0.08318 -0.03244,-0.344368 -0.03244,-0.580418 v -0.429183 h -0.690786 -0.690786 l -0.311577,0.256767 c -0.715635,0.589748 -0.736797,0.604522 -0.865934,0.604522 -0.09667,0 -0.139335,-0.01951 -0.220802,-0.100983 l -0.100984,-0.100973 v -0.329668 c 0,-0.243844 -0.0097,-0.329709 -0.03713,-0.329831 -0.196758,-8.93e-4 -0.466523,-0.193646 -0.560859,-0.400779 -0.04939,-0.108436 -0.05416,-0.221221 -0.05475,-1.293248 l -6.38e-4,-1.174449 0.09652,-0.160745 c 0.07445,-0.123993 0.132946,-0.179711 0.255838,-0.243708 l 0.159314,-0.08296 h 1.89834 c 2.052507,0 1.988874,-0.0047 2.187304,0.162584 0.195533,0.16487 0.226989,0.271528 0.238483,0.808592 l 0.01023,0.48113 1.519576,0.009 c 1.415783,0.0084 1.526674,0.0127 1.623524,0.06428 0.145488,0.0775 0.261831,0.191722 0.336842,0.330731 0.06266,0.116128 0.06411,0.145845 0.06411,1.322426 v 1.203628 l -0.07439,0.144538 c -0.0932,0.181119 -0.252847,0.312256 -0.436851,0.35885 l -0.142158,0.036 -0.01484,0.341385 c -0.01492,0.343003 -0.03601,0.410357 -0.146055,0.46649 -0.09788,0.04993 -0.198523,0.0568 -0.28459,0.01945 z m 0.01484,-0.777143 c 0,-0.331071 0.09296,-0.454162 0.378587,-0.501282 0.06937,-0.01144 0.156248,-0.04519 0.193047,-0.07499 l 0.0669,-0.05417 v -1.145234 -1.145235 l -0.06766,-0.06766 -0.06766,-0.06766 h -1.839729 -1.839726 l -0.06766,0.06762 -0.06766,0.06762 -0.0075,1.105517 c -0.0058,0.852104 0.0011,1.122536 0.03048,1.179766 0.06843,0.133633 0.168732,0.145024 1.292759,0.146821 0.850055,0.0013 1.063557,0.0097 1.128586,0.04418 0.04411,0.02339 0.247259,0.182881 0.451444,0.354437 0.204185,0.171556 0.38127,0.312801 0.393521,0.313878 0.01225,0.001 0.02227,-0.09956 0.02227,-0.223633 z m -2.762064,-1.170292 c -0.03301,-0.03301 -0.05941,-0.099 -0.05941,-0.148498 0,-0.0495 0.0264,-0.1155 0.05941,-0.148498 0.05678,-0.05678 0.099,-0.0594 0.960634,-0.0594 0.865443,0 0.903385,0.0023 0.955338,0.05979 0.02977,0.03288 0.05411,0.09954 0.05411,0.148114 0,0.04859 -0.02434,0.115234 -0.05411,0.148115 -0.05196,0.05741 -0.08989,0.05979 -0.955338,0.05979 -0.861636,0 -0.903846,-0.0025 -0.960634,-0.0594 z m 0.01886,-0.952545 c -0.108223,-0.08512 -0.108223,-0.237257 0,-0.322384 0.07643,-0.06012 0.108235,-0.06155 1.362177,-0.06155 1.25394,0 1.285751,0.0014 1.362179,0.06155 0.05675,0.04465 0.07824,0.08892 0.07824,0.161193 0,0.07226 -0.02149,0.116548 -0.07824,0.161191 -0.07643,0.06012 -0.108236,0.06155 -1.362179,0.06155 -1.25394,0 -1.285749,-0.0014 -1.362177,-0.06155 z m -3.035881,0.448643 c 0.216907,-0.179138 0.430702,-0.339516 0.475099,-0.356395 0.04753,-0.01807 0.377906,-0.03069 0.80332,-0.03069 h 0.722595 l 0.0116,-0.467769 c 0.0095,-0.379646 0.02182,-0.487352 0.0659,-0.571718 0.127919,-0.244848 0.316219,-0.369863 0.606584,-0.402714 l 0.183433,-0.02076 v -0.428158 c 0,-0.414989 -0.0022,-0.430403 -0.07289,-0.501059 l -0.07289,-0.07289 h -1.833402 -1.833388 l -0.06874,0.06458 -0.06873,0.06458 v 1.103956 c 0,1.255676 -0.01469,1.184992 0.256754,1.235702 0.277214,0.05179 0.369692,0.167444 0.390268,0.48807 0.0077,0.121538 0.02003,0.220979 0.02715,0.220979 0.0071,0 0.190442,-0.146567 0.407349,-0.325704 z m -0.586876,-1.035393 c -0.06643,-0.0734 -0.06351,-0.250187 0.0052,-0.312329 0.04805,-0.04348 0.158971,-0.04916 0.960636,-0.04916 0.840311,0 0.909901,0.004 0.955474,0.05431 0.06643,0.0734 0.06351,0.250187 -0.0052,0.312329 -0.04805,0.04348 -0.158971,0.04916 -0.960634,0.04916 -0.840313,0 -0.909903,-0.004 -0.955476,-0.05432 z m 0.01585,-0.956631 c -0.06493,-0.06048 -0.088,-0.215489 -0.04227,-0.283969 0.06294,-0.09425 0.158305,-0.100973 1.431949,-0.100973 h 1.280387 l 0.07289,0.07289 c 0.04009,0.04009 0.07289,0.107522 0.07289,0.149849 0,0.04232 -0.0328,0.109748 -0.07289,0.149847 l -0.07289,0.07289 h -1.302534 c -1.269776,0 -1.304168,-0.0016 -1.367533,-0.06056 z"
       id="path2075" />
    <path
       style="fill:#ffffff;stroke-width:3.0066;stroke-linecap:round;stroke-miterlimit:4;stroke-dasharray:none"
       d="m 20.278843,17.327866 c 0,-0.885179 -0.322177,-1.458339 -0.95101,-1.691868 -0.303376,-0.112665 -0.719263,-0.270279 -0.924193,-0.350254 -0.529751,-0.206738 -0.599671,-0.782222 -0.599671,-4.935617 0,-2.606965 0.06082,-3.7156788 0.212132,-3.86699 0.15779,-0.1577903 1.990778,-0.212132 7.155381,-0.212132 h 6.943249 l 0.277021,0.4227875 c 0.205885,0.3142214 0.263674,0.7795089 0.225046,1.8119612 l -0.05198,1.3891735 -0.707107,0.098071 c -0.89006,0.1234468 -1.346581,0.3725838 -1.91028,1.0425028 -0.394546,0.468891 -0.460347,0.753979 -0.572141,2.478859 l -0.126322,1.949033 h -2.85178 -2.85178 l -1.537632,1.237437 c -0.845697,0.68059 -1.580674,1.237437 -1.633283,1.237437 -0.05261,0 -0.09565,-0.27468 -0.09565,-0.610401 z m 6.440841,-4.158195 c 0.572807,-0.21778 0.644602,-1.127071 0.111518,-1.412369 -0.453501,-0.242706 -6.64081,-0.242706 -7.094311,0 -0.439973,0.235467 -0.461209,1.144177 -0.03257,1.393834 0.398888,0.232331 6.41126,0.248216 7.015366,0.01853 z M 30.031835,9.5139756 C 30.394402,9.1858579 30.444958,8.7137327 30.172118,8.2039271 29.997709,7.8780414 29.763353,7.8628222 25.178176,7.8796163 c -2.64602,0.00969 -5.009819,0.07248 -5.252887,0.1395297 -0.329253,0.090824 -0.455512,0.259202 -0.495163,0.6603483 -0.100235,1.0140798 0.0654,1.042784 6.314875,1.0943441 3.469774,0.028627 4.00383,-0.00375 4.286834,-0.2598628 z"
       id="path2077"
       transform="matrix(0.26458333,0,0,0.26458333,44.581036,28.552681)" />
    <path
       style="fill:#ffffff;stroke-width:3.0066;stroke-linecap:round;stroke-miterlimit:4;stroke-dasharray:none"
       d="m 41.943878,22.651207 -1.581099,-1.265795 -4.270222,-0.08839 c -3.256249,-0.0674 -4.339479,-0.145998 -4.561891,-0.331005 -0.256025,-0.212967 -0.291668,-0.75509 -0.291668,-4.436213 0,-3.838184 0.0274,-4.218392 0.323278,-4.48616 0.289036,-0.261574 1.044493,-0.292563 7.132058,-0.292563 6.399103,0 6.826579,0.01967 7.104605,0.326883 0.262157,0.28968 0.290425,0.807003 0.248369,4.545338 l -0.04746,4.218454 -0.441942,0.216177 c -0.243068,0.118898 -0.694762,0.308165 -1.003764,0.420595 -0.644925,0.234655 -0.78056,0.471398 -0.925045,1.614618 l -0.104123,0.823853 z m -1.436731,-3.753295 c 0.152786,-0.152786 0.277792,-0.425527 0.277792,-0.606092 0,-0.801946 -0.354579,-0.883883 -3.824947,-0.883883 -1.915597,0 -3.41095,0.07577 -3.611295,0.182996 -0.439974,0.235467 -0.46121,1.144177 -0.03257,1.393834 0.179161,0.104352 1.699029,0.182448 3.611295,0.185561 2.770995,0.0045 3.346605,-0.03929 3.579728,-0.272416 z m 3.184789,-3.603147 c 0.307708,-0.255375 0.355946,-0.843623 0.102141,-1.245585 -0.140809,-0.223006 -0.936309,-0.273437 -5.003326,-0.31719 -5.353887,-0.0576 -5.783986,0.0035 -5.783986,0.821499 0,1.007138 0.350648,1.063134 6.309948,1.007661 3.042866,-0.02832 4.171152,-0.09702 4.375223,-0.266385 z"
       id="path2079"
       transform="matrix(0.26458333,0,0,0.26458333,44.581036,28.552681)" />
    <path
       style="fill:#ffffff;stroke-width:3.0066;stroke-linecap:round;stroke-miterlimit:4;stroke-dasharray:none"
       d="m 26.998016,33.980752 c 9.12e-4,-0.121534 0.238315,-0.633607 0.527562,-1.137941 1.094659,-1.908658 3.21457,-2.854744 5.284178,-2.358252 1.487561,0.35686 2.828924,1.543145 3.46428,3.063767 l 0.273007,0.653397 H 31.7717 c -3.703308,0 -4.774971,-0.04961 -4.773684,-0.220971 z"
       id="path2081"
       transform="matrix(0.26458333,0,0,0.26458333,44.581036,28.552681)" />
    <path
       style="fill:#ffffff;stroke-width:3.0066;stroke-linecap:round;stroke-miterlimit:4;stroke-dasharray:none"
       d="m 6.4912843,33.185257 c 5.631e-4,-2.309146 0.079114,-4.675744 0.1745568,-5.259107 0.272915,-1.668098 1.3827194,-3.002975 2.6569916,-3.195839 0.5456609,-0.08259 1.0110143,0.145482 4.1501073,2.033957 1.944543,1.169836 3.654858,2.127687 3.800699,2.128559 0.145841,8.72e-4 1.365602,-0.315711 2.71058,-0.703517 1.344978,-0.387806 2.549295,-0.705102 2.676261,-0.705102 0.126964,0 0.41298,0.147485 0.63559,0.327743 0.404485,0.327532 0.402534,0.328477 -3.029814,1.467699 l -3.434559,1.139956 -3.18198,-1.196711 c -1.75009,-0.65819 -3.351227,-1.199331 -3.558083,-1.202533 -0.5084034,-0.0079 -0.8105243,0.39866 -0.7415259,0.997792 0.058494,0.507915 0.052972,0.504712 2.9936719,1.736423 0.457408,0.191586 0.425968,-0.01253 0.755607,4.905554 l 0.115524,1.723572 H 9.8525856 6.4902604 Z"
       id="path2083"
       transform="matrix(0.26458333,0,0,0.26458333,44.581036,28.552681)" />
    <path
       style="fill:#ffffff;stroke-width:3.0066;stroke-linecap:round;stroke-miterlimit:4;stroke-dasharray:none"
       d="M 8.154109,22.13475 C 7.6015667,21.628383 7.5134839,21.429491 7.4299405,20.499566 7.2438562,18.428253 7.950561,17.23116 9.3594464,17.23116 c 0.3851022,0 0.9302576,0.135907 1.2114556,0.302015 l 0.51127,0.302014 -1.1911015,0.626063 c -0.8031371,0.422143 -1.2708166,0.794002 -1.4358375,1.141658 -0.5717918,1.204615 0.5675038,2.022802 1.546595,1.110689 0.440045,-0.409942 1.117912,-0.830788 1.33817,-0.830788 0.05501,0 0.10001,0.282373 0.10001,0.627497 0,1.956045 -1.8994187,2.895057 -3.285899,1.624442 z"
       id="path2085"
       transform="matrix(0.26458333,0,0,0.26458333,44.581036,28.552681)" />
    <path
       style="fill:#ffffff;stroke-width:3.0066;stroke-linecap:round;stroke-miterlimit:4;stroke-dasharray:none"
       d="m 20.195422,58.022383 c -0.04959,-0.218762 -0.493875,-3.500179 -0.987308,-7.292039 -0.79218,-6.087628 -0.939445,-6.930488 -1.258621,-7.20365 -0.323187,-0.276597 -0.832115,-0.309771 -4.805496,-0.313242 -4.0190529,-0.0035 -4.5164445,-0.03675 -5.201299,-0.347583 -0.90982,-0.412938 -1.4425782,-1.4052 -1.4485553,-2.697933 l -0.00388,-0.839689 h 6.2812503 c 4.875638,0 6.409164,0.05345 6.852859,0.238833 0.666608,0.278527 1.672882,1.361016 1.794042,1.929924 0.04621,0.216978 0.108766,4.113445 0.139013,8.658816 l 0.055,8.26431 h -0.663421 c -0.543427,0 -0.679727,-0.07194 -0.753577,-0.397747 z"
       id="path2087"
       transform="matrix(0.26458333,0,0,0.26458333,44.581036,28.552681)" />
    <path
       style="fill:#ffffff;stroke-width:3.0066;stroke-linecap:round;stroke-miterlimit:4;stroke-dasharray:none"
       d="m 5.0065716,45.942915 c -0.059016,-0.153793 -0.1073015,-0.432216 -0.1073015,-0.618718 0,-0.327402 0.2004761,-0.339096 5.8135669,-0.339096 h 5.813567 l 0.07798,0.531336 c 0.04289,0.292235 0.03866,0.570659 -0.0094,0.618719 -0.04806,0.04806 -2.650972,0.08738 -5.784248,0.08738 -5.0317227,0 -5.7093951,-0.03265 -5.8041684,-0.279623 z"
       id="path2089"
       transform="matrix(0.26458333,0,0,0.26458333,44.581036,28.552681)" />
    <path
       style="fill:#ffffff;stroke-width:3.0066;stroke-linecap:round;stroke-miterlimit:4;stroke-dasharray:none"
       d="m 30.885444,50.701681 v -7.718449 l -0.43919,-0.749422 c -0.241555,-0.412182 -0.9575,-1.161854 -1.59099,-1.665937 -0.63349,-0.504083 -1.1518,-0.989215 -1.1518,-1.07807 0,-0.09291 1.740725,-0.161556 4.096678,-0.161556 h 4.096679 l -0.428562,0.45801 c -0.235709,0.251905 -0.802211,0.732886 -1.258893,1.068846 -0.456682,0.33596 -1.013529,0.905463 -1.237437,1.265563 -0.406274,0.653388 -0.407233,0.670723 -0.469372,8.477095 l -0.06227,7.822369 h -0.777424 -0.777424 z"
       id="path2091"
       transform="matrix(0.26458333,0,0,0.26458333,44.581036,28.552681)" />
    <path
       style="fill:#ffffff;stroke-width:3.0066;stroke-linecap:round;stroke-miterlimit:4;stroke-dasharray:none"
       d="m 42.199153,50.043215 v -8.376914 l 0.574524,-0.844793 c 1.030385,-1.515099 0.911506,-1.493261 8.12897,-1.493261 h 6.322525 l -6.54e-4,1.016466 c -7.43e-4,1.144587 -0.382404,1.944806 -1.175795,2.465269 -0.429204,0.281553 -1.051238,0.329331 -5.303369,0.407352 -3.132193,0.05747 -4.884492,0.155907 -5.009703,0.281418 -0.140473,0.140809 -2.105509,13.847212 -2.120214,14.788796 -0.0011,0.07292 -0.320269,0.132582 -0.709177,0.132582 h -0.707107 z"
       id="path2093"
       transform="matrix(0.26458333,0,0,0.26458333,44.581036,28.552681)" />
    <path
       style="fill:#ffffff;stroke-width:3.0066;stroke-linecap:round;stroke-miterlimit:4;stroke-dasharray:none"
       d="m 47.181894,45.648014 0.05539,-0.574524 5.789436,-0.04661 5.789437,-0.04661 v 0.621134 0.621134 H 52.971331 47.1265 Z"
       id="path2095"
       transform="matrix(0.26458333,0,0,0.26458333,44.581036,28.552681)" />
    <path
       style="fill:#ffffff;stroke-width:3.0066;stroke-linecap:round;stroke-miterlimit:4;stroke-dasharray:none"
       d="m 53.378756,22.476968 c -0.594153,-0.329972 -0.91703,-0.88433 -1.040737,-1.786872 -0.07841,-0.572047 -0.04875,-0.807285 0.101776,-0.807285 0.324137,0 0.933283,0.348873 1.450586,0.830788 0.979091,0.912113 2.118387,0.09393 1.546595,-1.110689 -0.165944,-0.3496 -0.635672,-0.721045 -1.459023,-1.153744 l -1.214286,-0.638148 0.413931,-0.289929 c 0.473635,-0.331747 1.534978,-0.380081 2.153885,-0.09809 0.738885,0.336659 1.009806,1.044232 1.009806,2.637346 0,1.411964 -0.01529,1.464096 -0.601041,2.049851 -0.479432,0.479432 -0.738745,0.599773 -1.281631,0.594777 -0.374325,-0.0034 -0.860262,-0.106048 -1.079861,-0.228006 z"
       id="path2097"
       transform="matrix(0.26458333,0,0,0.26458333,44.581036,28.552681)" />
    <path
       style="fill:none;stroke:#000000;stroke-width:0.01;stroke-linecap:butt;stroke-linejoin:miter;stroke-opacity:1;opacity:1;stroke-miterlimit:4;stroke-dasharray:none"
       d="M 58.137776,35.673888 57.66927,36.386241"
       id="path22" />
    <path
       style="opacity:1;fill:#ffffff;stroke-width:0.00668132;stroke-miterlimit:4;stroke-dasharray:none"
       d="m 50.330881,36.753972 c 0,-0.669287 0.138465,-0.869439 2.036233,-2.943387 1.119928,-1.223897 2.084962,-2.419421 2.144521,-2.65672 0.143525,-0.57185 -0.445399,-1.193641 -0.972188,-1.026445 -0.202687,0.06433 -1.232868,1.027253 -2.289291,2.139828 l -1.920771,2.022863 h -3.819848 c -2.506834,0 -3.85977,-0.06459 -3.935987,-0.187916 -0.143201,-0.231704 0.37604,-0.826026 1.006517,-1.152058 0.258575,-0.133715 1.770204,-0.482606 3.359174,-0.775313 2.100339,-0.386908 2.954513,-0.617219 3.128877,-0.843639 0.325295,-0.42241 0.732433,-1.385358 0.732433,-1.732322 0,-0.293664 1.018903,-1.892765 1.272571,-1.997214 0.07926,-0.03263 0.496298,-0.603774 0.92676,-1.269199 0.898907,-1.389568 1.185501,-1.588281 2.290702,-1.588281 1.006423,0 1.913552,0.731645 2.518931,2.031645 0.400431,0.85989 0.412252,1.025273 0.41393,5.790724 l 0.0017,4.905553 h -3.447146 -3.447145 z"
       id="path847"
       transform="matrix(0.26458333,0,0,0.26458333,44.581036,28.552681)" />
  </g>
</svg>
