<?xml version="1.0" encoding="UTF-8" standalone="no"?>
<!-- Created with Inkscape (http://www.inkscape.org/) -->

<svg
   xmlns:dc="http://purl.org/dc/elements/1.1/"
   xmlns:cc="http://creativecommons.org/ns#"
   xmlns:rdf="http://www.w3.org/1999/02/22-rdf-syntax-ns#"
   xmlns:svg="http://www.w3.org/2000/svg"
   xmlns="http://www.w3.org/2000/svg"
   xmlns:sodipodi="http://sodipodi.sourceforge.net/DTD/sodipodi-0.dtd"
   xmlns:inkscape="http://www.inkscape.org/namespaces/inkscape"
   width="64"
   height="64"
   viewBox="0 0 16.933333 16.933334"
   version="1.1"
   id="svg8"
   inkscape:version="0.92.5 (2060ec1f9f, 2020-04-08)"
   sodipodi:docname="saucer_64x64.svg">
  <defs
     id="defs2" />
  <sodipodi:namedview
     id="base"
     pagecolor="#ffffff"
     bordercolor="#666666"
     borderopacity="1.0"
     inkscape:pageopacity="0.0"
     inkscape:pageshadow="2"
     inkscape:zoom="5.6"
     inkscape:cx="50.696247"
     inkscape:cy="-1.0158776"
     inkscape:document-units="mm"
     inkscape:current-layer="layer1"
     showgrid="false"
     units="px"
     inkscape:window-width="1208"
     inkscape:window-height="987"
     inkscape:window-x="1992"
     inkscape:window-y="0"
     inkscape:window-maximized="1" />
  <metadata
     id="metadata5">
    <rdf:RDF>
      <cc:Work
         rdf:about="">
        <dc:format>image/svg+xml</dc:format>
        <dc:type
           rdf:resource="http://purl.org/dc/dcmitype/StillImage" />
        <dc:title></dc:title>
      </cc:Work>
    </rdf:RDF>
  </metadata>
  <g
     inkscape:label="Layer 1"
     inkscape:groupmode="layer"
     id="layer1"
     transform="translate(0,-280.06665)">
    <path
       style="fill:#ffffff;stroke-width:0.22907396;stroke-miterlimit:4;stroke-dasharray:none"
       d=""
       id="path12841"
       inkscape:connector-curvature="0"
       transform="matrix(0.26458333,0,0,0.26458333,0,280.06665)" />
    <path
       style="fill:#000000;stroke-width:0.07029332"
       d="m 6.9065238,295.96821 c -2.2784831,-0.45273 -4.2540975,-1.91694 -5.2883363,-3.91942 -0.61855314,-1.19763 -0.87114944,-2.23076 -0.87114944,-3.56303 0,-1.25276 0.2464887,-2.3316 0.76908754,-3.36618 l 0.2268051,-0.449 -0.1464797,-0.40174 c -0.080564,-0.22095 -0.1464797,-0.48121 -0.1464797,-0.57834 0,-0.29327 0.2456649,-0.52376 0.7300576,-0.68495 l 0.4472751,-0.14885 0.036272,-0.3218 c 0.024639,-0.2186 0.094122,-0.37965 0.2166645,-0.50219 0.1685682,-0.16857 0.2343349,-0.18246 1.0033098,-0.21189 0.7196012,-0.0276 0.8722188,-0.0558 1.2156023,-0.22535 0.4962844,-0.245 1.4157796,-0.53555 1.9893484,-0.62863 0.6493818,-0.10538 1.9964795,-0.0883 2.6384845,0.0335 3.1159305,0.59108 5.5060465,2.9812 6.0971285,6.09713 0.136266,0.71834 0.136266,2.0582 0,2.77653 -0.590642,3.11361 -2.983518,5.50649 -6.0971285,6.09713 -0.689567,0.13081 -2.1550091,0.12928 -2.8204614,-0.003 z m 3.2039932,-0.40943 c 2.600165,-0.66542 4.60727,-2.66981 5.308406,-5.30122 0.158355,-0.59432 0.181785,-0.82269 0.181785,-1.7718 0,-0.94912 -0.02343,-1.17749 -0.181785,-1.77181 -0.577106,-2.16591 -2.027048,-3.90863 -4.034773,-4.84948 -0.993079,-0.46538 -1.7834095,-0.63701 -2.9751391,-0.6461 -0.7680952,-0.006 -1.1578232,0.0245 -1.5815999,0.12313 -0.491702,0.11446 -1.4211034,0.42305 -1.4941557,0.4961 -0.014121,0.0141 0.055326,0.10667 0.1543219,0.20567 l 0.1799939,0.17999 v 1.40906 c 0,0.77499 0.018842,1.40906 0.041869,1.40906 0.023029,0 0.1258322,-0.0592 0.2284533,-0.13157 0.6603792,-0.46567 1.4862723,-0.70987 2.4008246,-0.70987 0.7776105,0 1.3879445,0.14901 2.03094,0.49584 l 0.520216,0.2806 0.621335,-0.60801 c 0.555079,-0.54318 0.642056,-0.60311 0.815648,-0.562 0.230002,0.0545 0.44034,0.28127 0.44034,0.47479 0,0.0759 -0.180996,0.33337 -0.402212,0.57214 -0.221217,0.23876 -0.477631,0.51843 -0.569809,0.62148 l -0.167597,0.18737 0.208886,0.30468 c 0.555854,0.81078 0.788067,1.55301 0.788067,2.51893 0,1.22394 -0.389952,2.16556 -1.2551,3.03071 -0.868682,0.86868 -1.8052375,1.25718 -3.030714,1.25718 -1.2254764,0 -2.1620324,-0.3885 -3.0307153,-1.25718 -0.862736,-0.86274 -1.2581367,-1.80886 -1.2561388,-3.00571 0.00133,-0.79865 0.1473559,-1.40796 0.4893869,-2.04206 l 0.273115,-0.50634 -0.1884639,0.073 c -0.88821,0.34406 -1.5429298,0.55248 -1.7355149,0.55248 -0.3462159,0 -0.5065915,-0.1832 -0.7692102,-0.87867 l -0.2388933,-0.63264 -0.2244579,0.49125 c -0.123452,0.27018 -0.3047022,0.79211 -0.4027782,1.15984 -0.1544721,0.57917 -0.1783204,0.8143 -0.1783204,1.75814 0,0.95615 0.022848,1.1754 0.1866124,1.79082 0.2242668,0.84279 0.7486456,1.94232 1.2244091,2.56736 0.4335791,0.56963 1.2583369,1.35551 1.7957534,1.7111 0.8503428,0.56265 1.9990673,1.00387 3.0419202,1.16838 0.6988556,0.11025 2.0149524,0.0324 2.7850949,-0.16464 z m -1.8928348,-2.16106 c -0.1429351,-0.14293 -0.016886,-0.2726 0.2649938,-0.2726 0.2998019,0 0.403841,0.0941 0.2752463,0.2491 -0.1006018,0.12122 -0.4282698,0.13547 -0.5402401,0.0235 z m -0.9216785,-0.0661 c -0.2165681,-0.0868 -0.1592993,-0.23694 0.099167,-0.25997 0.2571458,-0.0229 0.4149978,0.0749 0.3585024,0.2221 -0.047804,0.12457 -0.2082264,0.13784 -0.4576695,0.0379 z m 1.8862338,-0.13304 c 0,-0.10192 0.06488,-0.14957 0.251278,-0.18454 0.32018,-0.0601 0.484897,0.0701 0.28006,0.22124 -0.209094,0.15432 -0.531338,0.13207 -0.531338,-0.0367 z m -2.8738346,-0.19649 c -0.1000492,-0.0832 -0.1280408,-0.15412 -0.086433,-0.21908 0.094123,-0.14696 0.5702938,0.0258 0.5702938,0.20696 0,0.1752 -0.2792888,0.18219 -0.4838613,0.0121 z m 3.8317821,-0.0546 c -0.04324,-0.11269 0.348336,-0.40533 0.483065,-0.36102 0.159828,0.0526 0.105032,0.2541 -0.09758,0.35888 -0.264832,0.13695 -0.33361,0.13733 -0.385488,0.002 z m -4.6556915,-0.40832 c -0.1872123,-0.16104 -0.1861881,-0.32784 0.00202,-0.32784 0.159081,0 0.4583696,0.27976 0.4163721,0.3892 -0.056756,0.14791 -0.1994209,0.12698 -0.4183851,-0.0614 z m 5.5465395,-0.0929 c -0.04435,-0.11556 0.256945,-0.44583 0.406716,-0.44583 0.169909,0 0.149727,0.24015 -0.03342,0.39769 -0.226495,0.19483 -0.312741,0.20595 -0.373296,0.0481 z m -6.3095773,-0.56812 c -0.2077721,-0.22408 -0.2201194,-0.28794 -0.067028,-0.34669 0.1493883,-0.0573 0.4850465,0.27834 0.4277209,0.42773 -0.061396,0.15999 -0.1571394,0.13848 -0.3606934,-0.081 z m 7.0892333,-0.11806 c -0.05471,-0.14257 0.174932,-0.46258 0.331952,-0.46258 0.185226,0 0.16882,0.22255 -0.03019,0.40951 -0.190377,0.17885 -0.24951,0.18925 -0.301764,0.0531 z m -7.6818787,-0.6445 c -0.1663384,-0.21147 -0.187767,-0.34773 -0.066473,-0.42269 0.1033888,-0.0639 0.4250578,0.30035 0.3962679,0.44872 -0.035553,0.18323 -0.1737736,0.17232 -0.3297953,-0.026 z m 9.1563287,-0.13121 c -0.145097,-0.10163 -0.517942,-1.02654 -0.517942,-1.28485 0,-0.1733 0.26055,-0.41626 0.513819,-0.47913 0.134074,-0.0333 0.184865,-0.082 0.15816,-0.15155 -0.02164,-0.0564 -0.03934,-0.14738 -0.03934,-0.20221 0,-0.0548 -0.06097,-0.0997 -0.135485,-0.0997 -0.07452,0 -0.203897,-0.087 -0.287512,-0.19327 -0.13492,-0.17153 -0.149338,-0.2632 -0.128116,-0.81463 0.03145,-0.8173 0.10793,-0.89002 0.936034,-0.89002 0.719925,0 0.950652,0.13429 0.950652,0.55333 0,0.23929 0.0228,0.27 0.2636,0.35501 0.561911,0.19837 0.619256,0.39934 0.336609,1.17969 -0.155732,0.42995 -0.32833,0.66822 -0.533614,0.73665 -0.04673,0.0156 -0.03773,0.12267 0.02556,0.30429 0.178301,0.5116 0.05342,0.66306 -0.788522,0.95627 -0.457095,0.15919 -0.563547,0.16344 -0.753907,0.0301 z m 0.855326,-0.41351 c 0.473834,-0.18571 0.506098,-0.28141 0.266617,-0.7909 -0.171734,-0.36536 -0.497732,-0.45984 -0.967551,-0.28041 -0.372892,0.1424 -0.382178,0.18642 -0.167993,0.79627 0.179799,0.51194 0.226624,0.52676 0.868927,0.27504 z m 0.714691,-1.32944 c 0.03667,-0.0483 0.137301,-0.27744 0.223631,-0.50914 0.152999,-0.41063 0.153634,-0.42395 0.0251,-0.5272 -0.219185,-0.17608 -0.923796,-0.3871 -1.008778,-0.30212 -0.0407,0.0407 -0.149047,0.28074 -0.240762,0.53341 -0.193105,0.532 -0.188732,0.54023 0.39775,0.74847 0.459422,0.16313 0.518038,0.16863 0.603055,0.0566 z m -1.224354,-1.14812 c 0.157249,-0.43276 0.362313,-0.61709 0.627501,-0.56405 0.129334,0.0259 0.195568,0.01 0.194858,-0.0469 -0.0028,-0.22591 -0.117632,-0.26813 -0.672815,-0.24743 l -0.556243,0.0207 -0.02074,0.55624 c -0.01482,0.39755 0.0052,0.5727 0.07029,0.61393 0.152502,0.0966 0.226116,0.0281 0.357142,-0.3325 z m -1.249321,2.85419 c -0.06037,-0.0977 0.09029,-0.35292 0.208307,-0.35292 0.147431,0 0.193573,0.11962 0.107893,0.27972 -0.08044,0.15031 -0.244998,0.1884 -0.3162,0.0732 z m -8.7230929,-0.81293 c -0.1107604,-0.26508 -0.085437,-0.38351 0.082005,-0.38351 0.1094562,0 0.2401383,0.27026 0.2401383,0.49663 0,0.22694 -0.211016,0.15285 -0.3221433,-0.11312 z m -0.2132079,-0.83632 c -0.054962,-0.14322 -0.0069,-0.33891 0.091258,-0.37159 0.1050954,-0.035 0.2567258,0.23997 0.2056847,0.37298 -0.049847,0.1299 -0.2469174,0.12898 -0.296943,-0.001 z m -0.062142,-0.74218 c -0.058838,-0.0952 0.020555,-0.21088 0.1447351,-0.21088 0.05571,0 0.1012915,0.0633 0.1012915,0.14059 0,0.14552 -0.1695833,0.19398 -0.2460266,0.0703 z m 0.035147,-0.77323 c 0,-0.0937 0.046862,-0.14058 0.1405864,-0.14058 0.093724,0 0.1405867,0.0469 0.1405867,0.14058 0,0.0937 -0.046862,0.14059 -0.1405867,0.14059 -0.093724,0 -0.1405864,-0.0469 -0.1405864,-0.14059 z m 9.2038178,-1.10167 c -0.07669,-0.2017 -0.0439,-0.37449 0.07107,-0.37449 0.111755,0 0.304788,0.3391 0.259788,0.45637 -0.06495,0.16926 -0.253082,0.12271 -0.330863,-0.0819 z m -0.409459,-0.76729 c -0.166339,-0.21146 -0.187768,-0.34772 -0.06647,-0.42269 0.103389,-0.0639 0.425058,0.30036 0.396268,0.44873 -0.03555,0.18322 -0.173773,0.17231 -0.329795,-0.026 z m -1.997829,-1.68819 c -0.2186495,-0.11853 -0.2196465,-0.26242 -0.0021,-0.29474 0.176623,-0.0262 0.486013,0.21517 0.417615,0.32584 -0.06641,0.10746 -0.174968,0.0993 -0.415572,-0.0311 z m -3.9604794,-0.0658 c -0.082602,-0.21526 0.4473581,-0.44674 0.5696727,-0.24883 0.042427,0.0686 -0.1415012,0.28684 -0.2417958,0.28684 -0.032738,0 -0.1092921,0.0191 -0.1701198,0.0424 -0.068287,0.0262 -0.128638,-0.005 -0.1577571,-0.0805 z m 3.0158689,-0.22248 c -0.09888,-0.0191 -0.15816,-0.0813 -0.15816,-0.16615 0,-0.10729 0.04971,-0.1357 0.23742,-0.1357 0.245945,0 0.441158,0.14997 0.361976,0.27809 -0.04572,0.074 -0.151078,0.0797 -0.441236,0.0238 z m -2.1263736,-0.12786 c 0,-0.10572 0.2630151,-0.24429 0.4636887,-0.24429 0.1433054,0 0.2106135,0.21166 0.091328,0.28719 -0.1691434,0.10711 -0.5550165,0.0773 -0.5550167,-0.0429 z m 1.010818,-0.0652 c -0.059697,-0.15557 0.031491,-0.24951 0.2410374,-0.24831 0.2529744,0.001 0.3950261,0.10018 0.3421936,0.23785 -0.056323,0.14678 -0.5276774,0.15523 -0.583231,0.0105 z m 0.9925416,8.64241 c 1.8146225,-0.38099 3.1959045,-2.067 3.1959045,-3.90097 0,-1.83398 -1.381282,-3.51999 -3.1959045,-3.90097 -0.9123102,-0.19155 -1.7399276,-0.0782 -2.6308106,0.3602 -1.2672796,0.62367 -2.1818412,2.10785 -2.1818412,3.54077 0,1.43264 0.9140547,2.91619 2.1818412,3.54121 0.8893514,0.43846 1.7169427,0.55163 2.6308106,0.35976 z m -1.70289,-0.3539 c -1.6088043,-0.43331 -2.7607361,-1.91334 -2.7607361,-3.54706 0,-1.98392 1.6713328,-3.65526 3.6552532,-3.65526 1.9839194,0 3.6552524,1.67134 3.6552524,3.65526 0,1.64921 -1.160797,3.126 -2.7908685,3.55058 -0.4964623,0.12931 -1.2714982,0.12776 -1.758901,-0.004 z m 2.315478,-0.54284 c 0.7013805,-0.34664 1.2370055,-0.88258 1.5839525,-1.58489 0.262579,-0.53152 0.263726,-0.53769 0.263726,-1.41968 0,-0.88205 -0.0011,-0.88812 -0.263726,-1.41934 -0.34723,-0.70242 -0.882807,-1.238 -1.5852275,-1.58523 -0.531217,-0.2626 -0.537287,-0.26372 -1.4193373,-0.26372 -0.8854465,0 -0.8860812,1.2e-4 -1.4316685,0.26964 -0.7050576,0.34831 -1.221346,0.86662 -1.5736857,1.57984 -0.2624723,0.53131 -0.2636344,0.53757 -0.2636344,1.4195 0,0.88452 4.251e-4,0.88665 0.2679211,1.42783 0.4260014,0.86177 1.0963017,1.44545 2.0023919,1.74364 0.3101651,0.10207 0.5689259,0.12778 1.1439494,0.11368 0.6990195,-0.0171 0.7746985,-0.0338 1.2753385,-0.28127 z m -1.9955449,-1.47154 c -1.1342062,-0.7113 -0.966719,-2.67486 0.2627712,-3.08062 1.0861357,-0.35846 2.0220722,1.23121 1.4272017,2.42408 -0.245343,0.49197 -0.6015638,0.75739 -1.0619772,0.79129 -0.295478,0.0218 -0.4215998,-0.005 -0.6279957,-0.13475 z m 0.4595938,-0.49821 c 0.1574199,-0.41219 0.1452262,-0.57004 -0.069051,-0.89383 -0.2112413,-0.31921 -0.2318198,-0.64934 -0.069015,-1.10718 0.1201151,-0.33778 0.098261,-0.35385 -0.2185885,-0.16065 -0.6916779,0.42174 -0.7200005,1.78696 -0.048037,2.31553 0.1029461,0.081 0.2102426,0.14723 0.238438,0.14723 0.028195,0 0.103009,-0.13549 0.1662535,-0.3011 z m 0.5452704,0.17945 c 0.1132692,-0.0669 0.2842187,-0.27873 0.3798857,-0.47071 0.302258,-0.60656 0.200817,-1.29522 -0.2584321,-1.75447 -0.1583007,-0.1583 -0.3011494,-0.24906 -0.3344051,-0.21247 -0.076109,0.0838 -0.287984,0.72543 -0.2863427,0.86721 6.908e-4,0.0608 0.0956,0.24968 0.21088,0.41981 0.2343017,0.34578 0.2594056,0.57356 0.1041605,0.94512 -0.1595334,0.38182 -0.1438426,0.39932 0.1842537,0.20551 z m -4.8939069,-3.72956 c 0.8544586,-0.31273 0.9152938,-0.34727 0.9366074,-0.53187 0.027924,-0.24185 -0.7225361,-2.34502 -0.9043405,-2.53441 -0.1264908,-0.13177 -0.1437321,-0.1288 -0.959203,0.16523 -0.989117,0.35664 -1.1467168,0.44739 -1.1467168,0.66031 0,0.21642 0.7621236,2.29908 0.8981067,2.45427 0.059284,0.0677 0.1424265,0.12254 0.1847611,0.12196 0.042335,-5.3e-4 0.4881882,-0.15155 0.9907851,-0.33549 z M 3.0903248,285.5639 c -0.058587,-0.15268 0.090147,-0.29625 0.1966068,-0.1898 0.089978,0.09 0.034237,0.29996 -0.079627,0.29996 -0.041088,0 -0.093729,-0.0496 -0.1169798,-0.11016 z m 0.896949,-0.23714 c -0.1062325,-0.0657 -0.057305,-0.28534 0.063551,-0.28534 0.1029204,0 0.1733377,0.20625 0.096613,0.28297 -0.035252,0.0353 -0.1052814,0.0363 -0.1601633,0.002 z m -1.1781225,-0.53613 c -0.058586,-0.15267 0.090147,-0.29625 0.1966071,-0.18979 0.089978,0.09 0.034236,0.29996 -0.079627,0.29996 -0.041088,0 -0.093729,-0.0496 -0.1169801,-0.11017 z m 0.84352,-0.28117 c -0.058587,-0.15267 0.090146,-0.29625 0.1966069,-0.18979 0.089978,0.09 0.034236,0.29995 -0.079627,0.29995 -0.041088,0 -0.093729,-0.0496 -0.1169799,-0.11016 z m -1.0999735,-0.42729 c -0.099501,-0.0995 -0.043198,-0.23577 0.097414,-0.23577 0.098268,0 0.1383378,0.0382 0.1230134,0.11719 -0.02509,0.12937 -0.1450854,0.19393 -0.2204274,0.11858 z m 0.8188002,-0.34594 c -0.058587,-0.15267 0.090147,-0.29625 0.1966069,-0.18979 0.089978,0.09 0.034236,0.29996 -0.079627,0.29996 -0.041088,0 -0.093729,-0.0496 -0.1169799,-0.11017 z m 8.546196,1.13544 c 0.354372,-0.35675 0.504205,-0.55634 0.474927,-0.63264 -0.0762,-0.19858 -0.217174,-0.12078 -0.746191,0.41179 -0.44524,0.44823 -0.506739,0.53893 -0.428967,0.63264 0.04993,0.0602 0.11143,0.10939 0.13666,0.10939 0.02523,0 0.278837,-0.23453 0.563571,-0.52118 z m -6.5312964,-1.19133 c 0,-1.07741 -0.017163,-1.28285 -0.1163348,-1.39243 -0.1019759,-0.11269 -0.2358299,-0.12855 -1.0845254,-0.12855 -1.0519843,0 -1.1891128,0.0453 -1.1891128,0.39257 0,0.17 0.00247,0.17063 0.254611,0.0653 0.3253611,-0.13595 0.6564858,-0.13561 0.8513219,8e-4 0.084209,0.059 0.2220142,0.29622 0.3062328,0.5272 0.087391,0.23967 0.1952923,0.41996 0.2513522,0.41996 0.1282576,0 0.2080017,0.2106 0.1040667,0.27483 -0.057173,0.0353 -0.018159,0.22066 0.1345225,0.63902 0.269582,0.73867 0.2782582,0.7518 0.3931555,0.59466 0.071104,-0.0972 0.09471,-0.44454 0.09471,-1.3934 z m -0.8669677,-0.70747 c -0.05101,-0.13293 0.1069352,-0.25961 0.2293551,-0.18395 0.1163919,0.0719 0.048615,0.28425 -0.09074,0.28425 -0.055069,0 -0.1174456,-0.0451 -0.1386151,-0.1003 z"
       id="path12987"
       inkscape:connector-curvature="0" />
    <path
       style="fill:#ffffff;stroke-width:0.00284652;stroke-miterlimit:4;stroke-dasharray:none"
       d="m 7.5763024,295.74226 c -1.2571272,-0.1272 -2.8252478,-0.77856 -3.765714,-1.56418 -0.2927295,-0.24453 -0.9146675,-0.8622 -1.1475891,-1.13971 -0.6303085,-0.75096 -1.2476106,-2.06129 -1.4812588,-3.14421 l -0.069754,-0.3233 -8.01e-5,-1.0795 c -6.89e-5,-0.93386 0.00591,-1.1089 0.044328,-1.29739 0.064792,-0.31789 0.2243434,-0.86763 0.352076,-1.21309 0.1202511,-0.32522 0.3477062,-0.84085 0.3709654,-0.84095 0.00787,-2e-5 0.074443,0.16093 0.1479429,0.35768 0.1725859,0.46201 0.3316098,0.79676 0.433791,0.91314 0.102028,0.1162 0.2484308,0.18393 0.3991254,0.18465 0.2071497,9.8e-4 0.807496,-0.18084 1.6031768,-0.48553 0.1587876,-0.0608 0.2918383,-0.1078 0.2956683,-0.10444 0.00383,0.003 -0.093089,0.20256 -0.2153762,0.44267 -0.3775162,0.74123 -0.4858595,1.18357 -0.4912367,2.0056 -0.00188,0.28713 0.010197,0.58077 0.029204,0.71019 0.1324352,0.90175 0.5182421,1.65076 1.2058627,2.34108 0.894883,0.8984 1.7888569,1.27031 3.054564,1.27076 0.9590025,3.5e-4 1.716474,-0.22665 2.422608,-0.72596 0.312464,-0.22095 0.915487,-0.82411 1.135532,-1.1358 0.547089,-0.77494 0.78552,-1.68807 0.720514,-2.75938 -0.0485,-0.79929 -0.270251,-1.43243 -0.760614,-2.17169 l -0.21514,-0.32433 0.209177,-0.22797 c 0.115048,-0.12538 0.302328,-0.32964 0.416177,-0.45391 0.410093,-0.44762 0.520978,-0.62292 0.49194,-0.77771 -0.03373,-0.1798 -0.320865,-0.41477 -0.506864,-0.41477 -0.124578,0 -0.276482,0.11969 -0.836051,0.65871 l -0.535022,0.51538 -0.204176,-0.112 c -0.329571,-0.1808 -0.7416375,-0.37335 -0.9542145,-0.44591 -0.8303937,-0.28341 -1.9380329,-0.27955 -2.8033645,0.01 -0.3441343,0.11506 -0.6248414,0.2513 -0.9475988,0.4599 -0.1282554,0.0829 -0.2412268,0.1427 -0.2510475,0.1329 -0.02317,-0.0231 -0.049531,-1.02292 -0.052877,-2.0055 l -0.00264,-0.7742 -0.163181,-0.17879 c -0.089749,-0.0983 -0.1631808,-0.18622 -0.1631808,-0.19529 0,-0.0429 0.8489267,-0.32987 1.3682093,-0.46244 0.4117103,-0.10511 0.6551539,-0.13465 1.2677906,-0.15385 1.0680457,-0.0335 2.0162527,0.0962 2.7740752,0.37942 2.458843,0.91887 4.200585,2.93452 4.747897,5.49455 0.06094,0.28505 0.06603,0.36106 0.07783,1.16242 0.01709,1.16108 -0.01458,1.45895 -0.234327,2.20425 -0.607649,2.06088 -2.098896,3.77946 -4.035726,4.65096 -0.59913,0.26958 -1.3294125,0.47972 -1.9364305,0.5572 -0.5147908,0.0657 -1.4367194,0.0968 -1.794991,0.0606 z m 1.1825367,-2.36277 c 0.086577,-0.0969 0.090167,-0.13229 0.019874,-0.19593 -0.041058,-0.0372 -0.098386,-0.0494 -0.2573242,-0.055 -0.2788635,-0.01 -0.3954337,0.0564 -0.3585023,0.20351 0.026185,0.10432 0.1259263,0.1444 0.338629,0.13605 0.1724196,-0.007 0.1894271,-0.0126 0.2573234,-0.0886 z m -1.0303874,-0.0319 c 0.068608,-0.0686 0.054677,-0.16802 -0.032641,-0.23293 -0.1387479,-0.10313 -0.5462891,-0.043 -0.5462891,0.0806 0,0.15518 0.456082,0.27521 0.5789303,0.15236 z m 1.9668078,-0.0916 c 0.115714,-0.0812 0.146521,-0.17344 0.0753,-0.22552 -0.06921,-0.0506 -0.354344,-0.0407 -0.480853,0.0167 -0.09591,0.0435 -0.106695,0.0573 -0.106695,0.13611 0,0.12917 0.07292,0.17307 0.261205,0.15724 0.109148,-0.009 0.175342,-0.0315 0.251048,-0.0846 z m -2.9285856,-0.16442 c 0.05461,-0.043 0.035859,-0.15552 -0.037657,-0.22594 -0.1825502,-0.17485 -0.5334761,-0.19697 -0.5334761,-0.0336 0,0.19915 0.4107997,0.38585 0.5711333,0.25957 z m 3.7343321,-0.12598 c 0.232809,-0.12501 0.298826,-0.32008 0.128867,-0.38077 -0.132653,-0.0474 -0.492886,0.19779 -0.492886,0.33545 0,0.15047 0.136551,0.16747 0.364019,0.0453 z m -4.6076057,-0.31772 c 0.044417,-0.083 0.029712,-0.12535 -0.086757,-0.24986 -0.2079415,-0.22231 -0.4421433,-0.26688 -0.4597176,-0.0875 -0.00877,0.0895 0.071873,0.19968 0.2301384,0.31433 0.1210739,0.0877 0.2756949,0.099 0.316336,0.023 z m 5.4144927,-0.16072 c 0.19565,-0.13433 0.293677,-0.31206 0.238685,-0.43275 -0.05911,-0.12972 -0.293254,-0.03 -0.455518,0.194 -0.0845,0.11665 -0.09377,0.18469 -0.03632,0.26671 0.05354,0.0764 0.110226,0.0702 0.253158,-0.028 z m -6.232646,-0.49643 c 0.033009,-0.0944 0.00216,-0.18512 -0.102314,-0.30076 -0.1547515,-0.1713 -0.2801131,-0.21252 -0.3858609,-0.12689 -0.052465,0.0425 -0.054718,0.0534 -0.025566,0.12377 0.017584,0.0425 0.104179,0.14652 0.1924343,0.23127 0.1292601,0.12412 0.1738765,0.15253 0.2294367,0.14611 0.047937,-0.006 0.075956,-0.028 0.09187,-0.0735 z m 6.998074,-0.24123 c 0.143643,-0.13436 0.197571,-0.22366 0.197571,-0.32716 0,-0.22578 -0.293458,-0.14208 -0.42826,0.12215 -0.05969,0.117 -0.06227,0.21669 -0.0072,0.27756 0.06214,0.0687 0.09889,0.0575 0.237871,-0.0725 z m -7.6559189,-0.5005 c 0.1185469,-0.10728 -0.033827,-0.43183 -0.2578804,-0.54927 -0.096488,-0.0506 -0.1732,0.009 -0.1732,0.13441 0,0.11396 0.1406683,0.33534 0.2588743,0.40742 0.097608,0.0595 0.1138893,0.0602 0.1722061,0.007 z m 9.5737759,-0.26977 c 0.418012,-0.14041 0.629614,-0.23685 0.7483,-0.34106 0.185549,-0.16291 0.206399,-0.28803 0.104652,-0.62797 -0.07642,-0.25531 -0.0776,-0.29316 -0.0098,-0.31469 0.09264,-0.0294 0.247053,-0.18962 0.33595,-0.34858 0.165339,-0.29565 0.339102,-0.83494 0.339102,-1.05243 0,-0.24434 -0.104557,-0.36107 -0.456243,-0.50938 -0.114968,-0.0485 -0.227148,-0.10454 -0.249288,-0.12457 -0.0274,-0.0248 -0.04518,-0.1003 -0.05568,-0.23638 -0.02251,-0.29185 -0.100895,-0.41224 -0.319013,-0.48993 -0.273881,-0.0976 -1.119318,-0.0951 -1.321233,0.004 -0.206686,0.10129 -0.263406,0.31194 -0.268818,0.99835 -0.0034,0.42525 -0.0027,0.43048 0.06516,0.54597 0.102187,0.17383 0.229827,0.27214 0.400495,0.3085 0.07346,0.0156 0.08411,0.0383 0.108504,0.23095 l 0.01632,0.12886 -0.176356,0.0674 c -0.314532,0.12019 -0.495493,0.31014 -0.489235,0.51353 0.0051,0.16528 0.169831,0.64239 0.333872,0.96691 0.125484,0.24824 0.150669,0.28182 0.250173,0.33357 0.15702,0.0817 0.270114,0.0724 0.64311,-0.0529 z m -1.333846,-0.0374 c 0.08779,-0.0916 0.115214,-0.2507 0.0538,-0.31211 -0.100585,-0.10059 -0.246549,-0.0258 -0.327403,0.16768 -0.03662,0.0876 -0.03667,0.10154 -6.32e-4,0.15656 0.05762,0.0879 0.183694,0.0824 0.274219,-0.0121 z m -8.6862486,-0.59481 c 0.069367,-0.18077 -0.096053,-0.61302 -0.2345994,-0.61302 -0.022136,0 -0.066738,0.0186 -0.099116,0.0412 -0.051975,0.0364 -0.057205,0.0553 -0.044658,0.16122 0.016953,0.14314 0.1194343,0.3559 0.197897,0.41086 0.072331,0.0507 0.1609757,0.0505 0.1804764,-2.8e-4 z m -0.260914,-0.98959 c 0.064135,-0.0641 0.064104,-0.1756 -7.73e-5,-0.30142 -0.094267,-0.18478 -0.2233699,-0.18563 -0.2784335,-0.002 -0.074758,0.2495 0.1201014,0.46168 0.2785087,0.30327 z m -0.1013023,-0.7766 c 0.068404,-0.12781 -0.00325,-0.26915 -0.1219733,-0.24058 -0.1840274,0.0443 -0.1642551,0.28914 0.023347,0.28914 0.046121,0 0.082125,-0.0177 0.098626,-0.0486 z m 0.076862,-0.70582 c 0.04461,-0.0834 0.019653,-0.18114 -0.05715,-0.22391 -0.061999,-0.0345 -0.076077,-0.0345 -0.1380762,0 -0.076803,0.0428 -0.1017605,0.14055 -0.05715,0.22391 0.020586,0.0385 0.052436,0.0514 0.1261882,0.0514 0.073752,0 0.1056027,-0.013 0.126188,-0.0514 z m 9.2607519,-1.08171 c 0.04832,-0.0865 0.0087,-0.22741 -0.106342,-0.37825 -0.0936,-0.12272 -0.150432,-0.14369 -0.219649,-0.0811 -0.08846,0.0801 -0.04563,0.35819 0.0735,0.47733 0.08373,0.0837 0.200298,0.0754 0.252486,-0.018 z m -0.429562,-0.75472 c 0.05495,-0.055 0.03503,-0.20662 -0.04088,-0.3113 -0.08201,-0.11308 -0.24393,-0.26109 -0.285634,-0.26109 -0.05579,0 -0.12035,0.0842 -0.12035,0.15701 0,0.10328 0.06399,0.22695 0.178492,0.34493 0.10134,0.10443 0.206732,0.13209 0.268373,0.0704 z m -1.907962,-1.73223 c 0.146344,-0.14634 -0.227211,-0.44818 -0.459709,-0.37145 -0.1809835,0.0597 -0.124758,0.21174 0.12139,0.32819 0.163636,0.0774 0.288238,0.0933 0.338319,0.0433 z m -4.0960683,-0.0827 c 0.1509301,-0.0393 0.2728009,-0.131 0.3135108,-0.23586 0.075781,-0.1952 -0.3264237,-0.20907 -0.5176474,-0.0178 -0.072551,0.0725 -0.083691,0.19164 -0.023552,0.25177 0.048293,0.0483 0.049632,0.0483 0.2276884,0.002 z m 3.1829728,-0.27808 c 0.08669,-0.0867 0.01724,-0.22407 -0.144194,-0.28524 -0.09605,-0.0364 -0.376378,-0.0341 -0.413849,0.003 -0.04611,0.0461 -0.0363,0.18245 0.01657,0.23029 0.09269,0.0839 0.472953,0.12012 0.541475,0.0516 z m -2.0173417,-0.0745 c 0.1618539,-0.0837 0.098435,-0.29454 -0.092175,-0.30644 -0.2102712,-0.0131 -0.517935,0.18453 -0.4377025,0.28121 0.075805,0.0913 0.3745339,0.10556 0.5298774,0.0252 z m 1.0164135,-0.073 c 0.087257,-0.0572 0.076696,-0.17643 -0.022131,-0.24991 -0.098623,-0.0733 -0.4120953,-0.0764 -0.4912786,-0.005 -0.093501,0.0845 -0.064563,0.22629 0.057536,0.28192 0.1007613,0.0459 0.3687363,0.0299 0.4558741,-0.0271 z"
       id="path12989"
       inkscape:connector-curvature="0" />
    <path
       style="fill:#ffffff;stroke-width:0.00284652;stroke-miterlimit:4;stroke-dasharray:none"
       d="m 7.9245262,292.44347 c -0.4152802,-0.044 -0.8997217,-0.18889 -1.3398618,-0.40065 -0.7674445,-0.36924 -1.3907782,-1.00078 -1.8071097,-1.83092 -0.5727424,-1.14202 -0.5721587,-2.295 0.00175,-3.45277 0.2166591,-0.43708 0.4377669,-0.74245 0.8005128,-1.10561 0.4446278,-0.44513 0.8714066,-0.70982 1.4937856,-0.92646 0.4746358,-0.16521 0.7070268,-0.20241 1.255844,-0.20102 0.4106677,10e-4 0.5320137,0.0104 0.7531424,0.058 0.825551,0.17773 1.4477785,0.51773 2.0472635,1.11867 0.597398,0.59884 0.960473,1.26308 1.133198,2.07316 0.06514,0.30552 0.06428,1.12798 -0.0015,1.43097 -0.118261,0.54469 -0.360877,1.09346 -0.688137,1.5565 -0.213988,0.30277 -0.652933,0.74156 -0.96008,0.95975 -0.26453,0.18792 -0.7407785,0.4335 -1.0286405,0.53043 -0.530776,0.17873 -1.1249298,0.24671 -1.6601566,0.18995 z m 0.8515179,-0.32572 c 1.5102719,-0.16323 2.8166709,-1.36814 3.1560839,-2.91091 0.06484,-0.29473 0.07859,-0.9658 0.02631,-1.28434 -0.12488,-0.76089 -0.480022,-1.44414 -1.042065,-2.00481 -0.556785,-0.55542 -1.2220975,-0.91 -1.9593065,-1.04423 -0.3181057,-0.0579 -0.9099678,-0.0588 -1.2231937,-0.002 -0.4970006,0.0904 -0.9880653,0.28911 -1.4155197,0.57286 -0.3082695,0.20464 -0.8144925,0.70827 -1.0106151,1.00544 -0.586703,0.88897 -0.7688827,1.8756 -0.5307068,2.87412 0.3401671,1.42611 1.5981137,2.5884 3.0126636,2.78358 0.2882303,0.0398 0.6754566,0.0438 0.9863513,0.0102 z"
       id="path12995"
       inkscape:connector-curvature="0" />
  </g>
</svg>
