<?xml version="1.0" encoding="UTF-8" standalone="no"?>
<!-- Created with Inkscape (http://www.inkscape.org/) -->

<svg
   xmlns:dc="http://purl.org/dc/elements/1.1/"
   xmlns:cc="http://creativecommons.org/ns#"
   xmlns:rdf="http://www.w3.org/1999/02/22-rdf-syntax-ns#"
   xmlns:svg="http://www.w3.org/2000/svg"
   xmlns="http://www.w3.org/2000/svg"
   xmlns:sodipodi="http://sodipodi.sourceforge.net/DTD/sodipodi-0.dtd"
   xmlns:inkscape="http://www.inkscape.org/namespaces/inkscape"
   width="64"
   height="64"
   viewBox="0 0 16.933333 16.933334"
   version="1.1"
   id="svg8"
   inkscape:version="0.92.5 (2060ec1f9f, 2020-04-08)"
   sodipodi:docname="scarf_64x64.svg">
  <defs
     id="defs2" />
  <sodipodi:namedview
     id="base"
     pagecolor="#ffffff"
     bordercolor="#666666"
     borderopacity="1.0"
     inkscape:pageopacity="0.0"
     inkscape:pageshadow="2"
     inkscape:zoom="2.8"
     inkscape:cx="23.540499"
     inkscape:cy="19.510213"
     inkscape:document-units="mm"
     inkscape:current-layer="layer1"
     showgrid="false"
     units="px"
     inkscape:window-width="1208"
     inkscape:window-height="987"
     inkscape:window-x="1992"
     inkscape:window-y="0"
     inkscape:window-maximized="1"
     showguides="false" />
  <metadata
     id="metadata5">
    <rdf:RDF>
      <cc:Work
         rdf:about="">
        <dc:format>image/svg+xml</dc:format>
        <dc:type
           rdf:resource="http://purl.org/dc/dcmitype/StillImage" />
        <dc:title></dc:title>
      </cc:Work>
    </rdf:RDF>
  </metadata>
  <g
     inkscape:label="Layer 1"
     inkscape:groupmode="layer"
     id="layer1"
     transform="translate(0,-280.06665)">
    <path
       style="fill:#000000;stroke-width:0.0304273"
       d="M 7.8183708,295.59374 C 7.6175503,295.55194 7.2410125,295.48281 6.9816204,295.44 5.6194591,295.21519 4.8148438,295.00088 4.1266502,294.67956 3.4333846,294.35588 3.130706,293.98073 3.0709965,293.37114 c -0.073291,-0.74825 0.4675778,-2.00005 1.4713427,-3.40532 0.3115267,-0.43613 1.4855201,-2.0113 1.8028872,-2.41897 0.2419488,-0.31079 0.2381038,-0.31171 -0.1516943,-0.0366 -0.2310658,0.1631 -0.547895,0.43504 -1.0928724,0.93801 -0.3969458,0.36635 -0.8462393,0.70189 -1.0586904,0.79067 -0.06897,0.0288 -0.1524227,0.0394 -0.2210423,0.0282 -0.1051359,-0.0173 -0.1161312,-0.0107 -0.2374492,0.1476 -0.225066,0.29319 -0.5443806,0.41827 -0.7703965,0.30173 -0.1418293,-0.0731 -0.2188713,-0.23035 -0.1853097,-0.37817 l 0.02504,-0.11027 -0.1911333,0.0154 c -0.1753162,0.0141 -0.1976409,0.009 -0.2697774,-0.0632 -0.085935,-0.0859 -0.1053774,-0.25055 -0.047555,-0.40264 0.028942,-0.0761 0.026324,-0.0804 -0.038038,-0.0617 -0.264391,0.077 -0.399173,0.0423 -0.4670231,-0.12009 -0.050735,-0.12143 -0.025133,-0.26773 0.084423,-0.4825 0.057331,-0.11237 0.057565,-0.11738 0.00444,-0.0953 -0.030847,0.0128 -0.120098,0.0301 -0.1983408,0.0384 -0.1232901,0.0132 -0.1527055,0.005 -0.2205984,-0.0632 -0.097865,-0.0979 -0.1033388,-0.24752 -0.015365,-0.41997 0.034641,-0.0678 0.05796,-0.12847 0.051826,-0.1346 -0.00613,-0.005 -0.077722,0.009 -0.1590956,0.0334 -0.19979409,0.0601 -0.26734719,0.0562 -0.36578169,-0.0213 -0.073383,-0.0577 -0.0818,-0.0815 -0.069012,-0.195 0.00798,-0.0711 0.04471,-0.17157 0.081548,-0.22332 l 0.066981,-0.094 h -0.1389869 c -0.16581213,0 -0.24765331,-0.0669 -0.27765784,-0.22679 -0.0401532,-0.21404 0.23245634,-0.59918 0.52337683,-0.73939 0.076036,-0.0367 0.099584,-0.0706 0.1148062,-0.16588 0.022816,-0.14269 0.1947811,-0.32635 0.5197945,-0.55514 0.1171449,-0.0824 0.4492475,-0.32516 0.7380054,-0.5393 1.8367947,-1.36222 3.6750495,-2.32102 5.1801024,-2.70187 0.5302168,-0.13417 0.7655542,-0.16181 1.23609,-0.14519 0.4744386,0.0167 0.6703676,0.0607 0.9962329,0.2233 0.6879742,0.34336 1.6647042,1.35914 2.0560672,2.13829 0.169952,0.33834 0.245277,0.64276 0.245277,0.99129 0,0.74554 -0.32865,1.28485 -1.667613,2.7366 -0.5553252,0.6021 -0.7610622,0.84464 -1.0047794,1.18449 -0.4599298,0.64136 -0.9499447,1.62674 -1.2016133,2.41637 -0.1770554,0.55552 -0.1886088,0.53015 0.1379005,0.30283 0.1554343,-0.10821 0.4537611,-0.2959 0.6629488,-0.41709 0.5542725,-0.32111 1.2415034,-0.77901 1.9169194,-1.27724 0.326332,-0.24073 0.802429,-0.59195 1.057993,-0.7805 0.708283,-0.52255 1.09457,-0.71044 1.460718,-0.71044 0.14913,0 0.178,-0.0117 0.304213,-0.12273 0.203425,-0.17907 0.538049,-0.33554 0.755573,-0.3533 0.362525,-0.0296 0.482976,0.17539 0.285769,0.48635 -0.05021,0.0791 -0.09128,0.14689 -0.09128,0.15049 0,0.003 0.08333,0.006 0.185197,0.006 0.165195,0 0.193131,0.01 0.258633,0.0854 0.04038,0.047 0.07344,0.11716 0.07344,0.15602 0,0.0775 -0.06587,0.24003 -0.137489,0.33926 -0.04503,0.0624 -0.04318,0.0632 0.115732,0.05 0.141572,-0.0118 0.173513,-0.003 0.258973,0.0686 0.07481,0.0629 0.09748,0.10627 0.09748,0.18641 0,0.098 -0.109962,0.31696 -0.18133,0.36107 -0.06683,0.0413 -0.02595,0.0697 0.120784,0.0837 0.08629,0.009 0.178722,0.0384 0.212991,0.0693 0.08862,0.0802 0.08127,0.28017 -0.01552,0.42281 -0.04184,0.0617 -0.07607,0.11526 -0.07607,0.11914 0,0.004 0.05442,0.002 0.120929,-0.004 0.103034,-0.01 0.13509,0.002 0.216666,0.0842 0.08679,0.0867 0.09382,0.10769 0.07528,0.22373 -0.04588,0.28692 -0.40365,0.69892 -0.758777,0.87375 -0.153642,0.0756 -0.217871,0.12805 -0.274653,0.22416 -0.09398,0.15907 -0.45095,0.51061 -0.756104,0.74461 -0.28318,0.21714 -1.888516,1.28721 -2.331215,1.55393 -0.698801,0.42099 -1.785389,0.94026 -2.2710852,1.0853 -0.2484674,0.0742 -0.3288316,0.0828 -0.867178,0.0921 -0.5387265,0.01 -0.6269355,0.003 -0.9584599,-0.0655 z m 0.1433783,-0.36052 c -0.1947458,-0.21128 -0.3195564,-0.50249 -0.3557622,-0.83011 -0.040916,-0.37025 -0.020433,-0.34482 -0.2777359,-0.34482 -0.3598128,0 -1.075131,-0.0851 -1.5566932,-0.18529 C 5.0130487,293.71528 4.083987,293.40407 3.6851933,293.17415 3.5707614,293.10825 3.46267,293.0542 3.44499,293.0542 c -0.046128,0 -0.00864,0.40698 0.054041,0.5868 0.028908,0.0829 0.1159104,0.21689 0.202085,0.31117 0.2302972,0.252 0.8353675,0.54216 1.5613597,0.74878 0.3894172,0.11083 2.5808051,0.62846 2.8107926,0.66394 0.00629,8.4e-4 -0.04387,-0.0583 -0.1115217,-0.13167 z m 1.3753926,0.0878 c 0.2130637,-0.0452 0.5673271,-0.16944 0.5633091,-0.19764 -0.0012,-0.009 -0.161764,-0.11806 -0.3567984,-0.24357 -0.4239815,-0.27285 -0.7594826,-0.59478 -0.9489829,-0.91059 -0.074575,-0.12429 -0.240972,-0.47118 -0.3697651,-0.77086 -0.1287943,-0.29968 -0.240218,-0.55092 -0.2476092,-0.55831 -0.020215,-0.0202 -0.051783,0.28395 -0.08305,0.80021 -0.06172,1.01899 0.1155849,1.53956 0.6096323,1.78992 0.2765719,0.14015 0.4904479,0.16346 0.8332646,0.0908 z m 1.2277263,-0.51419 c 0.213133,-0.10703 0.446643,-0.22851 0.518909,-0.26986 l 0.131398,-0.0751 -0.253106,-0.17662 c -0.374815,-0.26156 -0.9768392,-0.87681 -1.2219362,-1.24879 -0.182532,-0.27701 -0.6286016,-1.14838 -0.6286016,-1.22793 0,-0.0177 -0.00613,-0.0322 -0.013586,-0.0322 -0.051524,0 -0.5394793,0.31608 -1.0174343,0.65905 -0.018076,0.013 0.046748,0.1665 0.2934266,0.69497 0.4614822,0.98862 0.5878837,1.13561 1.4043463,1.63294 0.210642,0.12832 0.3866052,0.23442 0.3910272,0.23582 0.0044,0.002 0.182423,-0.0851 0.395555,-0.19218 z m 1.377665,-0.78156 c 0.241963,-0.15203 0.54718,-0.34619 0.678261,-0.43148 l 0.238328,-0.15503 -0.157614,-0.0934 c -0.848017,-0.50252 -1.636144,-1.43573 -2.086232,-2.47028 -0.02651,-0.0609 -0.04761,-0.0506 -0.393149,0.19324 -0.20082,0.14169 -0.4952042,0.33398 -0.6541871,0.42729 -0.1589823,0.0933 -0.307278,0.18596 -0.3295465,0.20587 -0.033062,0.0295 -3.91e-4,0.11088 0.1781694,0.44342 0.343446,0.63964 0.580466,0.97389 0.9872302,1.3922 0.201313,0.20702 0.4496,0.43614 0.551746,0.50915 0.193762,0.13848 0.419823,0.25364 0.500158,0.25479 0.0258,3.4e-4 0.244875,-0.12373 0.486836,-0.27576 z m -4.4204264,-0.20532 c 0.02525,-0.016 0.049157,-0.16989 0.069674,-0.44834 0.017177,-0.23316 0.05123,-0.55984 0.075666,-0.72596 0.060838,-0.41358 0.071411,-0.38257 -0.1305285,-0.38263 -0.4082048,-8e-5 -1.467325,-0.24837 -2.1679447,-0.50818 -0.3292863,-0.12212 -0.8855107,-0.39174 -1.0827329,-0.52485 l -0.1330325,-0.0897 -0.105503,0.18869 c -0.2651897,0.4743 -0.5266193,1.12458 -0.5789024,1.43998 l -0.020802,0.12548 0.2862969,0.13745 c 0.4741123,0.22762 1.5215028,0.55048 2.1987859,0.67779 0.5674194,0.10671 1.4935139,0.17099 1.5890205,0.11036 z m 5.7654604,-0.67806 c 0.121388,-0.0857 0.368127,-0.26624 0.548305,-0.40135 l 0.3276,-0.24567 -0.102594,-0.1083 c -0.08848,-0.0934 -0.692072,-0.82777 -1.026816,-1.24931 -0.273643,-0.3446 -0.701943,-1.0768 -0.787325,-1.34599 -0.01983,-0.0625 -0.04789,-0.121 -0.06236,-0.12993 -0.03422,-0.0211 -1.392156,0.96445 -1.443698,1.04784 -0.02817,0.0455 0.19411,0.46457 0.44672,0.84204 0.375171,0.56061 0.654548,0.86818 1.117184,1.22996 0.179427,0.1403 0.710827,0.50901 0.739564,0.51315 0.01248,0.002 0.12203,-0.0668 0.243419,-0.15244 z m 1.208509,-0.94729 c 0.330774,-0.32877 0.352762,-0.6305 0.09922,-1.36161 -0.105804,-0.3051 -0.470407,-1.20393 -0.560562,-1.38191 -0.227206,-0.44855 -0.523697,-0.55052 -0.998084,-0.34331 -0.181862,0.0794 -0.509435,0.27326 -0.711738,0.42114 -0.06064,0.0443 0.491914,0.98506 0.826393,1.40697 0.528768,0.66697 1.149709,1.38804 1.195313,1.38804 0.01063,0 0.0779,-0.0582 0.149456,-0.12932 z m -6.6916409,-0.27385 c 0.081708,-0.31029 0.1818406,-0.65666 0.2254184,-0.77971 0.061652,-0.17411 0.060083,-0.18635 -0.023891,-0.18635 -0.1759951,0 -0.8952934,-0.29637 -1.3118367,-0.54052 -0.3612679,-0.21174 -0.6986915,-0.47086 -1.0135118,-0.7783 -0.1713026,-0.16728 -0.292316,-0.26385 -0.3087977,-0.24642 -0.085089,0.09 -0.6301734,0.84718 -0.8620213,1.19746 l -0.2711879,0.40972 0.07074,0.0542 c 0.4546868,0.34847 2.0971098,0.88153 2.9765476,0.96608 0.4978432,0.0479 0.4797353,0.0512 0.5185426,-0.0962 z m 7.7223109,-0.43744 c 0.244024,-0.22265 0.340791,-0.37785 0.280725,-0.45021 -0.08122,-0.0979 -0.203197,-0.0582 -0.601814,0.19618 -0.06086,0.0389 -0.06731,0.0674 -0.06646,0.29551 l 9.23e-4,0.25252 0.09115,-0.0538 c 0.05013,-0.0295 0.183094,-0.13768 0.295463,-0.24021 z m -0.262969,-0.62992 c 0.284635,-0.28012 0.337267,-0.51047 0.106072,-0.46423 -0.140766,0.0281 -0.446707,0.17463 -0.446707,0.21386 0,0.0665 0.127165,0.41253 0.151582,0.41253 0.01335,0 0.09843,-0.073 0.189053,-0.16216 z m -7.0353843,-0.22578 c 0.039221,-0.0962 0.145269,-0.3236 0.2356669,-0.50527 0.090398,-0.18165 0.1600992,-0.33409 0.1548907,-0.33874 -0.00521,-0.005 -0.1076778,-0.0575 -0.227711,-0.11768 -0.4755249,-0.23807 -1.0224566,-0.66514 -1.629618,-1.2725 l -0.3569211,-0.35705 -0.1929569,0.24969 c -0.1061257,0.13732 -0.3130496,0.40525 -0.4598308,0.59541 l -0.2668739,0.34574 0.1169242,0.12098 c 0.306449,0.31706 0.8645204,0.72426 1.2883752,0.94005 0.2034486,0.10359 1.1763859,0.5069 1.2343131,0.51166 0.01784,0.002 0.064522,-0.076 0.1037416,-0.17229 z m 6.8641273,-0.53347 c 0.128359,-0.14762 0.207467,-0.31254 0.18189,-0.3792 -0.01312,-0.0341 -0.04566,-0.0414 -0.126725,-0.0282 -0.151227,0.0245 -0.498368,0.19134 -0.498475,0.23951 -6e-5,0.0218 0.03607,0.1248 0.08024,0.2289 l 0.08034,0.18927 0.08557,-0.0609 c 0.04707,-0.0335 0.135783,-0.11869 0.197154,-0.18927 z m -0.196206,-0.76426 c 0.04836,-0.0655 0.08768,-0.15756 0.08768,-0.20538 0,-0.0777 -0.01041,-0.0867 -0.09975,-0.0867 -0.05487,0 -0.199579,0.0479 -0.321594,0.10628 -0.248831,0.11924 -0.243373,0.0983 -0.10472,0.4012 l 0.07673,0.1676 0.13698,-0.13218 c 0.07534,-0.0727 0.176438,-0.18558 0.224665,-0.25084 z m -5.9781818,-0.0252 c 0.097443,-0.15444 0.2568981,-0.38831 0.3543441,-0.51974 0.097446,-0.13143 0.1729825,-0.24837 0.1678579,-0.25988 -0.034808,-0.0783 -0.6814571,-0.60059 -1.3785453,-1.11362 -0.2008205,-0.14781 -0.4490855,-0.34185 -0.5517022,-0.43122 l -0.1865743,-0.16247 -0.42028,0.55287 -0.4202802,0.55288 0.3177952,0.30207 c 0.3274015,0.3112 0.8135454,0.70536 1.1462403,0.92936 0.2218373,0.14938 0.7076296,0.42311 0.7586615,0.42749 0.019417,0.002 0.1150395,-0.12332 0.212483,-0.27774 z m -5.6589939,0.12391 c 0.069615,-0.0471 0.1574794,-0.13569 0.1952569,-0.19682 l 0.068684,-0.11118 -0.1736581,-0.16688 -0.1736581,-0.16687 -0.1310395,0.16876 c -0.2355536,0.30333 -0.2575837,0.47457 -0.071143,0.55296 0.053638,0.0226 0.1113556,0.0331 0.128256,0.0233 0.0169,-0.01 0.087685,-0.0562 0.1572989,-0.10338 z m 11.1686957,-0.5782 c 0.242916,-0.26282 0.297453,-0.48204 0.119921,-0.48204 -0.07075,0 -0.409367,0.15657 -0.608099,0.28118 l -0.116309,0.0729 0.122757,0.0813 c 0.06751,0.0446 0.153407,0.12268 0.190865,0.17335 0.03746,0.0507 0.0761,0.0885 0.08588,0.0841 0.0098,-0.004 0.102014,-0.0993 0.204989,-0.21067 z m -11.7169793,0.0783 c 0.118929,-0.089 0.2847905,-0.25351 0.2847905,-0.28239 0,-0.0119 -0.069364,-0.0895 -0.1541386,-0.17262 l -0.1541397,-0.15099 -0.061359,0.0749 c -0.092619,0.11311 -0.2078911,0.31897 -0.2386468,0.42621 -0.022405,0.0781 -0.016339,0.10649 0.033373,0.15626 0.070597,0.0705 0.1447327,0.0574 0.2901208,-0.0513 z m 1.5372812,-0.22998 c 0.2107249,-0.15525 0.4943659,-0.38553 0.6896245,-0.55986 0.032592,-0.0291 -0.020954,-0.0975 -0.2768162,-0.35331 -0.3500929,-0.35009 -0.7363539,-0.8496 -1.0961542,-1.41753 -0.2477615,-0.39109 -0.7504458,-1.34287 -0.8116876,-1.53685 -0.019812,-0.0628 -0.041723,-0.11411 -0.048687,-0.11411 -0.033918,0 -0.6675381,0.49185 -0.8969265,0.69625 -0.342935,0.30558 -0.428763,0.41516 -0.4053156,0.51751 0.087595,0.38234 0.9399445,1.53424 1.7412267,2.35314 0.422769,0.43206 0.6479264,0.60164 0.7988302,0.60164 0.028732,0 0.166392,-0.084 0.3059057,-0.18688 z m -1.9852691,-0.33816 c 0.2807517,-0.18575 0.2838231,-0.19685 0.1106089,-0.3996 -0.080248,-0.0939 -0.1545114,-0.1702 -0.1650292,-0.16949 -0.032005,0.002 -0.2348328,0.27964 -0.3040003,0.41588 -0.074399,0.14653 -0.07998,0.1947 -0.028523,0.24614 0.066972,0.067 0.1898553,0.0375 0.3869458,-0.093 z m 7.7904022,-0.5153 c 0.235793,-0.27093 0.425016,-0.50248 0.420495,-0.51455 -0.06636,-0.17715 -1.8616982,-2.08896 -1.9357621,-2.06133 -0.031317,0.0117 -1.0987333,1.38532 -1.1174472,1.43802 -0.00646,0.0182 0.2171268,0.18365 0.4968404,0.36773 0.5860197,0.38568 1.1104882,0.7722 1.4375542,1.05945 0.125512,0.11023 0.2375197,0.20107 0.2489044,0.20186 0.011388,8e-4 0.2136221,-0.22024 0.4494153,-0.49118 z m -4.5824581,-0.157 c 0.1724859,-0.13979 0.4199889,-0.32594 0.5500063,-0.41367 l 0.2363961,-0.15952 -0.3019058,-0.30898 c -0.630306,-0.64507 -1.2914313,-1.57794 -1.6960931,-2.39324 -0.087214,-0.17572 -0.1763837,-0.36471 -0.1981554,-0.41997 -0.025669,-0.0652 -0.054553,-0.0948 -0.082177,-0.0842 -0.1110972,0.0426 -1.1658035,0.70898 -1.1658035,0.73654 0,0.0527 0.1732881,0.41247 0.3931639,0.81623 0.5151398,0.94594 1.0883963,1.71878 1.6540032,2.22987 0.1527953,0.13805 0.2821163,0.25102 0.2873802,0.25102 0.00528,0 0.1506966,-0.11436 0.3231824,-0.25415 z m -3.6618303,0.0544 c 0.2761356,-0.13974 0.2742081,-0.13485 0.1323931,-0.33601 -0.068517,-0.0971 -0.1366023,-0.17994 -0.1513041,-0.18386 -0.032667,-0.009 -0.2843164,0.33834 -0.3269493,0.45089 -0.022674,0.0598 -0.02034,0.0938 0.0089,0.12903 0.047202,0.0569 0.1378374,0.0407 0.3369679,-0.0601 z m -0.4062479,-0.57779 c 0.1397617,-0.0762 0.2541114,-0.14443 0.2541114,-0.15168 0,-0.046 -0.1952217,-0.31834 -0.2282614,-0.31834 -0.039709,0 -0.3428452,0.3143 -0.43263319,0.44856 -0.025091,0.0375 -0.037703,0.0889 -0.028019,0.1141 0.030805,0.0803 0.17328879,0.0499 0.43480239,-0.0926 z m 9.8411533,-0.74136 0.17994,-0.2561 -0.08027,-0.13944 c -0.212958,-0.36998 -0.467244,-0.67245 -1.4693482,-1.74781 l -0.4391965,-0.4713 -0.16165,0.32478 c -0.088907,0.17864 -0.2729242,0.47979 -0.4089272,0.66921 l -0.2472781,0.34441 0.072226,0.0505 c 0.3512115,0.24543 1.40776,1.29142 1.778734,1.76096 l 0.172325,0.21813 0.211747,-0.24859 c 0.116463,-0.13672 0.292723,-0.36384 0.391691,-0.50471 z m -4.6313736,0.47262 c 0.094232,-0.0567 0.2284476,-0.1317 0.298258,-0.16676 0.087632,-0.044 0.193608,-0.14991 0.3423065,-0.34205 0.118459,-0.15306 0.2153797,-0.29454 0.2153797,-0.31441 0,-0.13981 -0.5093992,-0.96043 -1.1916886,-1.91974 -0.2257574,-0.31741 -0.4833487,-0.68666 -0.572425,-0.82054 -0.089076,-0.13388 -0.1653405,-0.24772 -0.1694767,-0.25298 -0.020081,-0.0256 -1.4134113,0.72033 -1.4134113,0.7566 0,0.0397 0.3233736,0.59174 0.6228686,1.06338 0.5534954,0.87165 0.8381165,1.24606 1.3357433,1.75718 0.183299,0.18828 0.3395365,0.34231 0.3471929,0.34231 0.00763,0 0.09102,-0.0464 0.1852526,-0.10295 z m -5.4675412,-0.26523 c 0.095006,-0.0478 0.1773738,-0.0974 0.1830381,-0.11033 0.00563,-0.0129 -0.03944,-0.12343 -0.1002236,-0.24556 l -0.1105215,-0.22207 -0.17291709,0.15804 c -0.1872842,0.17117 -0.2611762,0.28569 -0.2611762,0.40477 0,0.16089 0.1613168,0.16618 0.46180029,0.0151 z m 10.4904828,-0.89735 c 0.08225,-0.21985 0.09108,-0.64631 0.01912,-0.92516 -0.125543,-0.48658 -0.480079,-1.02881 -1.07855,-1.64955 -0.393393,-0.40803 -0.5941462,-0.57337 -0.9010242,-0.74205 l -0.2081493,-0.11441 0.023244,0.10434 c 0.01278,0.0574 0.034925,0.15915 0.049215,0.2261 0.041773,0.19571 0.032458,0.61011 -0.018772,0.83536 l -0.047403,0.2084 0.6899115,0.67999 c 0.714947,0.70467 1.037938,1.06405 1.244936,1.3852 0.0665,0.10316 0.13065,0.18156 0.14256,0.1742 0.01191,-0.008 0.05011,-0.0894 0.0849,-0.18244 z m -3.158083,-0.9556 0.1680157,-0.2282 -0.065974,-0.21299 c -0.084776,-0.27367 -0.1562373,-0.41128 -0.4278005,-0.82374 -0.2045022,-0.3106 -0.5208849,-0.64327 -0.9749835,-1.02514 -0.061317,-0.0515 -0.076245,-0.0493 -0.4107683,0.064 -0.2922967,0.0989 -0.8844769,0.34002 -1.067463,0.43467 -0.042813,0.0221 0.037166,0.14393 0.50205,0.76455 0.6343263,0.84681 1.0812585,1.5034 1.2840954,1.88641 l 0.1409524,0.26617 0.3419315,-0.44873 C 8.15549,285.20813 8.3849656,284.90352 8.4773742,284.778 Z m 0.5273309,-0.87858 c 0.1762301,-0.41783 0.2361284,-0.70095 0.2228925,-1.05352 -0.01273,-0.33903 -0.069523,-0.49862 -0.2153855,-0.60523 -0.12727,-0.0931 -0.6707788,-0.0827 -1.1814271,0.0226 -0.5911849,0.12184 -0.5719869,0.0929 -0.2377991,0.35963 0.1574332,0.12569 0.3456698,0.28832 0.4183038,0.36139 0.2340595,0.2355 0.634529,0.88808 0.7348523,1.1975 l 0.038526,0.11882 0.056274,-0.0732 c 0.030948,-0.0403 0.1046442,-0.18786 0.1637638,-0.32803 z"
       id="path8141"
       inkscape:connector-curvature="0" />
    <path
       style="fill:#ffffff;stroke-width:0.00082144;stroke-miterlimit:4;stroke-dasharray:none"
       d="m 0.74067931,286.7038 c -0.1069039,-0.0748 -0.042923,-0.23039 0.1879396,-0.45681 0.090496,-0.0888 0.17006489,-0.16137 0.17681999,-0.16137 0.012252,0 0.1312132,0.23049 0.1876434,0.36355 l 0.029748,0.0702 -0.1141896,0.0659 c -0.095583,0.0552 -0.35398399,0.15239 -0.40504859,0.15239 -0.00805,0 -0.036343,-0.0151 -0.062911,-0.0338 z"
       id="path8143"
       inkscape:connector-curvature="0" />
    <path
       style="fill:#ffffff;stroke-width:0.00082144;stroke-miterlimit:4;stroke-dasharray:none"
       d="m 0.98352681,287.25034 c -0.019745,-0.0514 0.044567,-0.14686 0.23525479,-0.34902 0.125429,-0.13298 0.1928898,-0.18926 0.2161442,-0.18034 0.018595,0.006 0.074475,0.0738 0.1241846,0.14831 0.1061761,0.15901 0.1227353,0.1343 -0.2038859,0.30414 -0.2125006,0.1105 -0.3480463,0.13855 -0.37169769,0.077 z"
       id="path8145"
       inkscape:connector-curvature="0" />
    <path
       style="fill:#ffffff;stroke-width:0.00082144;stroke-miterlimit:4;stroke-dasharray:none"
       d="m 1.4750572,287.78135 c -0.017077,-0.0319 -0.014466,-0.0633 0.010123,-0.12224 0.037711,-0.0903 0.2013516,-0.3256 0.2681544,-0.38564 0.044097,-0.0396 0.045926,-0.0383 0.1543863,0.10866 0.060368,0.0818 0.1099081,0.16576 0.1100886,0.18651 4.07e-4,0.047 -0.1209664,0.1287 -0.2981675,0.2007 -0.1629648,0.0662 -0.2142258,0.0687 -0.2445837,0.012 z"
       id="path8147"
       inkscape:connector-curvature="0" />
    <path
       style="fill:#ffffff;stroke-width:0.00082144;stroke-miterlimit:4;stroke-dasharray:none"
       d="m 1.8798743,288.43057 c -0.027382,-0.0391 -0.027826,-0.0577 -0.0031,-0.12793 0.03328,-0.0944 0.1108706,-0.22197 0.2351944,-0.38695 l 0.086743,-0.1151 0.075397,0.0717 c 0.1046572,0.0994 0.200406,0.23353 0.200406,0.28067 0,0.077 -0.3866211,0.32345 -0.5072342,0.32345 -0.031669,0 -0.069104,-0.0197 -0.087436,-0.0458 z"
       id="path8149"
       inkscape:connector-curvature="0" />
    <path
       style="fill:#ffffff;stroke-width:0.00082144;stroke-miterlimit:4;stroke-dasharray:none"
       d="m 2.4348659,288.96938 c -0.060469,-0.0643 -0.059244,-0.10777 0.00705,-0.25017 0.057558,-0.12364 0.2245339,-0.37327 0.2496747,-0.37327 0.0228,0 0.2828354,0.27559 0.2828354,0.29976 0,0.0364 -0.3066949,0.31201 -0.3824849,0.34368 -0.09522,0.0397 -0.1016814,0.039 -0.1570715,-0.02 z"
       id="path8151"
       inkscape:connector-curvature="0" />
    <path
       style="fill:#ffffff;stroke-width:0.00082144;stroke-miterlimit:4;stroke-dasharray:none"
       d="m 2.9635555,289.49447 c -0.158222,-0.0865 -0.1322379,-0.22969 0.098102,-0.54039 l 0.1149136,-0.15501 0.1597309,0.15866 c 0.087852,0.0873 0.1597308,0.17008 0.1597308,0.18403 0,0.0392 -0.1903849,0.24172 -0.2947076,0.31349 -0.098268,0.0676 -0.1655579,0.0787 -0.2377698,0.0392 z"
       id="path8153"
       inkscape:connector-curvature="0" />
    <path
       style="fill:#ffffff;stroke-width:0.00082144;stroke-miterlimit:4;stroke-dasharray:none"
       d="m 3.7113068,288.77836 c -0.3029129,-0.19406 -1.1561852,-1.11839 -1.6712847,-1.81046 -0.3592405,-0.48267 -0.6304318,-0.9421 -0.6304318,-1.06804 0,-0.1094 0.2472371,-0.36037 0.7464398,-0.75769 0.307909,-0.24507 0.5207351,-0.40404 0.5409292,-0.40404 0.00587,0 0.028212,0.0465 0.04956,0.10327 0.095449,0.25392 0.566853,1.14373 0.820377,1.54853 0.3107126,0.4961 0.6982324,0.99596 1.100021,1.41889 0.14495,0.15258 0.2635458,0.28725 0.2635458,0.29928 0,0.0397 -0.5496966,0.49154 -0.8070722,0.66327 -0.1813867,0.12103 -0.2327719,0.1219 -0.4120833,0.006 z"
       id="path8155"
       inkscape:connector-curvature="0" />
    <path
       style="fill:#ffffff;stroke-width:0.00082144;stroke-miterlimit:4;stroke-dasharray:none"
       d="m 4.7282313,287.53636 c -0.4011484,-0.4002 -0.654215,-0.71014 -0.9804997,-1.2008 -0.4485484,-0.67453 -0.9555878,-1.63273 -0.8996436,-1.70014 0.061425,-0.074 1.1229071,-0.72771 1.1522353,-0.70958 0.010649,0.006 0.085611,0.15048 0.1665748,0.31976 0.4469499,0.9345 1.0722898,1.83068 1.803911,2.5852 l 0.2694602,0.27788 -0.2365287,0.16622 c -0.1300896,0.0915 -0.3700873,0.27201 -0.5333267,0.40129 -0.1632392,0.12928 -0.3124554,0.23507 -0.3315914,0.23507 -0.019133,0 -0.2039027,-0.16871 -0.4105912,-0.3749 z"
       id="path8157"
       inkscape:connector-curvature="0" />
    <path
       style="fill:#ffffff;stroke-width:0.00082144;stroke-miterlimit:4;stroke-dasharray:none"
       d="m 6.0884911,286.64259 c -0.4919818,-0.50558 -0.8052858,-0.91541 -1.3205338,-1.72736 -0.2621898,-0.41318 -0.6199114,-1.02415 -0.6199114,-1.0588 0,-0.0142 0.012226,-0.0355 0.027171,-0.0472 0.048821,-0.0385 0.6155865,-0.3492 0.984009,-0.53932 l 0.3604094,-0.186 0.2450552,0.35512 c 0.1347813,0.19532 0.3635689,0.52296 0.5084183,0.7281 0.6605622,0.93548 1.1801754,1.76968 1.1776748,1.89066 -0.00101,0.0486 -0.1669709,0.28487 -0.3285596,0.46774 -0.099082,0.11213 -0.1761445,0.16931 -0.3977784,0.29516 -0.1511891,0.0859 -0.2829737,0.15608 -0.2928556,0.15608 -0.00989,0 -0.1642739,-0.15036 -0.3430952,-0.33413 z"
       id="path8159"
       inkscape:connector-curvature="0" />
    <path
       style="fill:#ffffff;stroke-width:0.00082144;stroke-miterlimit:4;stroke-dasharray:none"
       d="M 7.5624276,285.76505 C 7.39569,285.42045 6.97723,284.78901 6.367155,283.96143 c -0.5353514,-0.72622 -0.6830019,-0.94197 -0.6602115,-0.96476 0.034967,-0.035 0.7503073,-0.32472 1.0657025,-0.43166 0.1903118,-0.0645 0.3285982,-0.10027 0.3525885,-0.0913 0.067753,0.0256 0.5177915,0.44024 0.700301,0.6452 0.1941852,0.21807 0.477793,0.62944 0.5972046,0.86623 0.076606,0.15191 0.2024651,0.49407 0.2024651,0.55043 0,0.0309 -0.9753486,1.33266 -0.9985761,1.33266 -0.0078,0 -0.03673,-0.0465 -0.064204,-0.10327 z"
       id="path8161"
       inkscape:connector-curvature="0" />
    <path
       style="fill:#ffffff;stroke-width:0.00082144;stroke-miterlimit:4;stroke-dasharray:none"
       d="m 8.7574967,284.19157 c -0.045607,-0.15377 -0.2592091,-0.55411 -0.4405656,-0.82572 -0.1958959,-0.2934 -0.326359,-0.432 -0.6705401,-0.71239 -0.1370294,-0.11163 -0.2569921,-0.21642 -0.2665836,-0.23288 -0.023035,-0.0395 0.028263,-0.0579 0.3473028,-0.12462 0.3777756,-0.079 0.6417314,-0.10628 0.944071,-0.0976 0.2427762,0.006 0.2763623,0.0129 0.3425877,0.0601 0.1275687,0.091 0.1817693,0.24775 0.1938203,0.56058 0.012092,0.31383 -0.016297,0.52198 -0.1090648,0.79976 -0.067132,0.20102 -0.2264707,0.55554 -0.2818217,0.62706 -0.028958,0.0375 -0.03312,0.0336 -0.059202,-0.0544 z"
       id="path8163"
       inkscape:connector-curvature="0" />
    <path
       style="fill:#ffffff;stroke-width:0.00082144;stroke-miterlimit:4;stroke-dasharray:none"
       d="m 11.38718,285.69185 c -0.223953,-0.32318 -0.494501,-0.62081 -1.216397,-1.33817 l -0.6821341,-0.67785 0.039986,-0.20237 c 0.05269,-0.26662 0.053924,-0.72915 0.00252,-0.93722 -0.054469,-0.22043 -0.055778,-0.21914 0.1209839,-0.11976 0.270892,0.15231 0.4302712,0.27736 0.7413702,0.58167 0.651994,0.63775 1.048278,1.19502 1.22191,1.71825 0.05653,0.17035 0.06134,0.21096 0.06181,0.52161 4.58e-4,0.30495 -0.0046,0.35113 -0.05361,0.4873 -0.02977,0.0828 -0.06414,0.15378 -0.0764,0.15787 -0.01226,0.004 -0.08427,-0.082 -0.160021,-0.19133 z"
       id="path8165"
       inkscape:connector-curvature="0" />
    <path
       style="fill:#ffffff;stroke-width:0.00082144;stroke-miterlimit:4;stroke-dasharray:none"
       d="m 10.47587,286.95464 c -0.393529,-0.49147 -1.4610337,-1.55087 -1.7678335,-1.75441 l -0.080172,-0.0532 0.1173296,-0.15864 c 0.1968344,-0.26617 0.4025111,-0.59492 0.5528376,-0.88368 l 0.1430594,-0.2748 0.4362487,0.4704 c 0.9444612,1.01839 1.2608352,1.39359 1.4417382,1.70976 l 0.09276,0.16213 -0.186767,0.25554 c -0.196156,0.26838 -0.559067,0.71997 -0.580037,0.72176 -0.0068,5.8e-4 -0.08287,-0.0872 -0.169165,-0.19488 z"
       id="path8167"
       inkscape:connector-curvature="0" />
    <path
       style="fill:#ffffff;stroke-width:0.00082144;stroke-miterlimit:4;stroke-dasharray:none"
       d="M 9.3744074,288.13481 C 9.0591919,287.86672 8.5485936,287.48782 8.0274544,287.13528 7.776468,286.9655 7.5393008,286.79923 7.5004146,286.76581 l -0.070698,-0.0608 0.1231524,-0.16301 c 0.238723,-0.31598 0.8516004,-1.09862 0.9275574,-1.18449 l 0.076891,-0.087 0.4631857,0.46786 c 0.6812067,0.68809 1.4307219,1.52289 1.4301189,1.59285 -3.6e-4,0.0418 -0.7786912,0.95057 -0.8371433,0.97752 -0.012294,0.005 -0.119873,-0.0727 -0.2390713,-0.17403 z"
       id="path8169"
       inkscape:connector-curvature="0" />
    <path
       style="fill:#ffffff;stroke-width:0.00082144;stroke-miterlimit:4;stroke-dasharray:none"
       d="m 8.4622017,289.45022 c -0.5983449,-0.33696 -1.0154739,-0.64886 -1.6568131,-1.23885 l -0.309318,-0.28455 0.059378,-0.08 c 0.3060764,-0.41226 0.7578689,-0.99884 0.7698964,-0.9996 0.00831,-5.1e-4 0.071839,0.0491 0.1412696,0.11009 0.069431,0.0611 0.3413986,0.27305 0.6043771,0.47107 0.5860616,0.44129 1.1671834,0.90533 1.2779946,1.02053 l 0.082639,0.0859 -0.1112692,0.16093 c -0.061199,0.0884 -0.2080329,0.30273 -0.3262998,0.47606 -0.2607221,0.3821 -0.2681343,0.39154 -0.3060444,0.38988 -0.016616,-7.2e-4 -0.1182266,-0.0509 -0.2258086,-0.11148 z"
       id="path8171"
       inkscape:connector-curvature="0" />
    <path
       style="fill:#ffffff;stroke-width:0.00082144;stroke-miterlimit:4;stroke-dasharray:none"
       d="m 7.6471848,290.60464 c -0.2330949,-0.096 -0.541171,-0.23104 -0.6846139,-0.30025 -0.4317546,-0.2083 -1.0522165,-0.65151 -1.3620556,-0.97294 l -0.1014967,-0.10531 0.4426551,-0.57299 c 0.24346,-0.31515 0.4481532,-0.57849 0.4548731,-0.58521 0.00671,-0.006 0.1710542,0.144 0.3651884,0.33493 0.6665462,0.65558 1.0543496,0.96139 1.5836159,1.24883 0.1359897,0.0739 0.2504326,0.13701 0.2543195,0.14034 0.00386,0.003 -0.077696,0.18544 -0.1812894,0.40469 -0.1035954,0.21925 -0.2078944,0.44019 -0.2317757,0.49099 -0.025779,0.0548 -0.058086,0.0922 -0.079518,0.0919 -0.019854,-2.8e-4 -0.2268088,-0.079 -0.4599033,-0.17496 z"
       id="path8173"
       inkscape:connector-curvature="0" />
    <path
       style="fill:#ffffff;stroke-width:0.00082144;stroke-miterlimit:4;stroke-dasharray:none"
       d="m 7.4624475,292.02559 c -0.7234429,-0.0647 -1.7754421,-0.34438 -2.586382,-0.68744 -0.245031,-0.1037 -0.546972,-0.2688 -0.5931142,-0.32441 -0.020995,-0.0252 0.02238,-0.10241 0.2304004,-0.40949 0.430985,-0.63629 0.8384379,-1.19335 0.8728295,-1.19335 0.026307,0 0.1308206,0.0874 0.3484307,0.29119 0.4081502,0.38235 0.804236,0.65614 1.2931599,0.89389 0.3911793,0.19021 0.6899996,0.30877 0.8769523,0.34792 0.0759,0.016 0.1426239,0.0336 0.1482706,0.0392 0.00563,0.005 -0.019258,0.10649 -0.05535,0.22422 -0.036083,0.11768 -0.1009632,0.34111 -0.1441689,0.49651 -0.043501,0.15644 -0.094364,0.29466 -0.1139779,0.3097 -0.034145,0.0262 -0.091482,0.0287 -0.2770536,0.0121 z"
       id="path8175"
       inkscape:connector-curvature="0" />
    <path
       style="fill:#ffffff;stroke-width:0.00082144;stroke-miterlimit:4;stroke-dasharray:none"
       d="m 6.5822292,293.78862 c -0.448441,-0.0485 -0.7064115,-0.0947 -1.1518896,-0.20617 -0.6877304,-0.1721 -1.3247428,-0.3881 -1.7846945,-0.60515 l -0.1872614,-0.0883 0.020727,-0.11442 c 0.053957,-0.29787 0.2353917,-0.76393 0.4987353,-1.28109 l 0.1735339,-0.34079 0.1450373,0.0936 c 0.1712204,0.11046 0.487557,0.27083 0.8150182,0.41317 0.626205,0.27219 1.7829223,0.57082 2.3712491,0.61217 l 0.20797,0.0146 v 0.073 c 0,0.0401 -0.014148,0.1683 -0.031443,0.28476 -0.017295,0.11648 -0.047261,0.3927 -0.066594,0.61384 -0.019334,0.22114 -0.044677,0.43874 -0.056332,0.48357 l -0.02118,0.0815 -0.330602,-0.002 c -0.1818315,-0.002 -0.452855,-0.0156 -0.6022751,-0.0318 z"
       id="path8177"
       inkscape:connector-curvature="0" />
    <path
       style="fill:#ffffff;stroke-width:0.00082144;stroke-miterlimit:4;stroke-dasharray:none"
       d="m 7.9405909,295.3292 c -2.5218986,-0.57886 -2.9772324,-0.70068 -3.5134817,-0.93996 -0.6742294,-0.30086 -0.9196078,-0.56383 -0.9775719,-1.04768 -0.013813,-0.11529 -0.019334,-0.22467 -0.012268,-0.24308 0.010445,-0.0272 0.066771,-0.005 0.3020426,0.11239 0.8959615,0.45189 2.3156405,0.80316 3.4137289,0.84463 0.1939168,0.008 0.3566116,0.0233 0.3748773,0.0368 0.021197,0.0157 0.043334,0.10816 0.064497,0.26943 0.050004,0.38092 0.1424754,0.60921 0.3499226,0.8639 0.09308,0.11428 0.092896,0.12526 -0.00176,0.10349 z"
       id="path8179"
       inkscape:connector-curvature="0" />
    <path
       style="fill:#ffffff;stroke-width:0.00082144;stroke-miterlimit:4;stroke-dasharray:none"
       d="m 8.690407,295.29621 c -0.2967284,-0.10456 -0.4958907,-0.27413 -0.6202728,-0.52794 -0.1794725,-0.36624 -0.2134539,-0.77926 -0.1394712,-1.69524 0.037937,-0.46967 0.019057,-0.47304 0.2474808,0.0442 0.265324,0.60083 0.3859875,0.83793 0.5163851,1.01471 0.1686945,0.2287 0.4832303,0.5101 0.8425077,0.75376 0.1798472,0.12197 0.3269942,0.22982 0.3269942,0.23967 0,0.01 -0.05624,0.0387 -0.12497,0.0644 -0.2737486,0.10166 -0.431191,0.13608 -0.668313,0.14615 -0.2097179,0.009 -0.2564173,0.004 -0.3803408,-0.0397 z"
       id="path8181"
       inkscape:connector-curvature="0" />
    <path
       style="fill:#ffffff;stroke-width:0.00082144;stroke-miterlimit:4;stroke-dasharray:none"
       d="m 9.8314308,294.78301 c -0.8209774,-0.51076 -0.9617947,-0.66004 -1.3241375,-1.40364 -0.1934041,-0.3969 -0.4321519,-0.92727 -0.421201,-0.93568 0.1068417,-0.0821 0.5753842,-0.39831 0.7590709,-0.51236 l 0.2468989,-0.15328 0.017286,0.0668 c 0.022002,0.0849 0.385343,0.80283 0.5238667,1.03511 0.180673,0.30295 0.313608,0.463 0.7295352,0.87838 0.271405,0.27105 0.472814,0.45142 0.616073,0.55171 l 0.212842,0.14901 -0.06746,0.041 c -0.170855,0.10392 -0.913811,0.47459 -0.949021,0.47351 -0.02172,-6.7e-4 -0.1764042,-0.0864 -0.3437542,-0.19051 z"
       id="path8183"
       inkscape:connector-curvature="0" />
    <path
       style="fill:#ffffff;stroke-width:0.00082144;stroke-miterlimit:4;stroke-dasharray:none"
       d="m 11.211525,294.1901 c -0.237822,-0.12918 -0.365077,-0.23286 -0.71757,-0.58459 -0.347037,-0.34629 -0.6037432,-0.67267 -0.8461332,-1.07582 -0.1974758,-0.32844 -0.4241881,-0.78106 -0.405982,-0.81052 0.00763,-0.0124 0.1384878,-0.098 0.2908451,-0.19048 0.1523559,-0.0924 0.4403089,-0.27916 0.6398951,-0.41488 0.199586,-0.13571 0.376653,-0.24675 0.393481,-0.24675 0.01728,0 0.07808,0.0977 0.139749,0.22449 0.457587,0.94116 1.189196,1.77366 1.989664,2.26402 l 0.141911,0.087 -0.448889,0.28615 c -0.649686,0.41418 -0.886389,0.55064 -0.954454,0.55029 -0.03273,-1.9e-4 -0.132865,-0.0401 -0.222517,-0.0889 z"
       id="path8185"
       inkscape:connector-curvature="0" />
    <path
       style="fill:#ffffff;stroke-width:0.00082144;stroke-miterlimit:4;stroke-dasharray:none"
       d="m 14.188128,292.15478 c -0.166578,-0.18078 -0.82864,-0.97148 -1.023637,-1.22253 -0.277049,-0.35668 -0.750769,-1.12754 -0.805808,-1.31124 -0.03003,-0.10026 -0.03899,-0.0915 0.304553,-0.29783 0.496628,-0.29837 0.776018,-0.36707 1.015754,-0.24978 0.225708,0.11043 0.304199,0.24398 0.652576,1.11043 0.427486,1.0632 0.499415,1.4135 0.354597,1.72686 -0.05775,0.12499 -0.285296,0.39079 -0.334522,0.39079 -0.01559,0 -0.08916,-0.066 -0.163513,-0.1467 z"
       id="path8187"
       inkscape:connector-curvature="0" />
    <path
       style="fill:#ffffff;stroke-width:0.00082144;stroke-miterlimit:4;stroke-dasharray:none"
       d="m 12.711156,293.05947 c -0.731657,-0.50781 -1.076045,-0.85606 -1.534044,-1.55128 -0.216598,-0.32877 -0.421996,-0.70359 -0.421996,-0.77006 0,-0.0277 0.09959,-0.11697 0.300612,-0.26961 0.358539,-0.27222 0.990013,-0.72357 1.070825,-0.76536 l 0.05752,-0.0297 0.07988,0.19271 c 0.126769,0.30584 0.484885,0.9119 0.726286,1.22914 0.155816,0.20476 0.937447,1.15862 1.053379,1.28547 l 0.104494,0.11434 -0.343488,0.25465 c -0.415247,0.30785 -0.734187,0.53002 -0.759595,0.52913 -0.01031,-3.6e-4 -0.160539,-0.0991 -0.333866,-0.21938 z"
       id="path8189"
       inkscape:connector-curvature="0" />
    <path
       style="fill:#ffffff;stroke-width:0.00082144;stroke-miterlimit:4;stroke-dasharray:none"
       d="m 14.124182,288.94978 c -0.04165,-0.0483 -0.122905,-0.11971 -0.180552,-0.15854 l -0.104816,-0.0705 0.169687,-0.0976 c 0.231128,-0.13286 0.467496,-0.2337 0.547821,-0.2337 0.15902,0 0.08128,0.21365 -0.179218,0.4926 -0.08189,0.0877 -0.155246,0.15859 -0.163031,0.15758 -0.0078,-8.4e-4 -0.04823,-0.0414 -0.08989,-0.0898 z"
       id="path8191"
       inkscape:connector-curvature="0" />
    <path
       style="fill:#ffffff;stroke-width:0.00082144;stroke-miterlimit:4;stroke-dasharray:none"
       d="m 14.471047,289.54977 c -0.08477,-0.18413 -0.107596,-0.25693 -0.08948,-0.2853 0.04998,-0.0783 0.527299,-0.25087 0.571497,-0.20668 0.06681,0.0668 -0.06848,0.30479 -0.304384,0.53545 l -0.1087,0.10628 z"
       id="path8193"
       inkscape:connector-curvature="0" />
    <path
       style="fill:#ffffff;stroke-width:0.00082144;stroke-miterlimit:4;stroke-dasharray:none"
       d="m 14.735712,290.13836 c -0.04002,-0.10187 -0.06699,-0.20023 -0.05994,-0.21859 0.01788,-0.0466 0.358003,-0.20206 0.478106,-0.21853 0.131936,-0.018 0.1455,0.0194 0.06582,0.18238 -0.05547,0.11336 -0.348045,0.44022 -0.393877,0.44002 -0.0096,-4e-5 -0.05009,-0.0834 -0.09011,-0.18528 z"
       id="path8195"
       inkscape:connector-curvature="0" />
    <path
       style="fill:#ffffff;stroke-width:0.00082144;stroke-miterlimit:4;stroke-dasharray:none"
       d="m 15.025404,290.89558 c -0.0214,-0.056 -0.05152,-0.14377 -0.06693,-0.19499 -0.02689,-0.0893 -0.0258,-0.0949 0.02689,-0.13632 0.06439,-0.0506 0.378058,-0.17536 0.441043,-0.17536 0.14511,0 0.06133,0.21519 -0.176306,0.45281 -0.08565,0.0857 -0.162495,0.15574 -0.170764,0.15574 -0.0083,0 -0.03254,-0.0458 -0.05394,-0.10188 z"
       id="path8197"
       inkscape:connector-curvature="0" />
    <path
       style="fill:#ffffff;stroke-width:0.00082144;stroke-miterlimit:4;stroke-dasharray:none"
       d="m 15.146867,291.54746 c 8.39e-4,-0.11722 0.0083,-0.22992 0.01633,-0.25043 0.02787,-0.0702 0.436814,-0.29957 0.534183,-0.29957 0.07236,0 0.126693,0.0576 0.109705,0.11639 -0.02638,0.0912 -0.136874,0.22291 -0.330883,0.39434 -0.108218,0.0956 -0.226933,0.19155 -0.263812,0.21315 l -0.06705,0.0393 z"
       id="path8199"
       inkscape:connector-curvature="0" />
  </g>
</svg>
