<?xml version="1.0" encoding="UTF-8" standalone="no"?>
<!-- Created with Inkscape (http://www.inkscape.org/) -->

<svg
   xmlns:dc="http://purl.org/dc/elements/1.1/"
   xmlns:cc="http://creativecommons.org/ns#"
   xmlns:rdf="http://www.w3.org/1999/02/22-rdf-syntax-ns#"
   xmlns:svg="http://www.w3.org/2000/svg"
   xmlns="http://www.w3.org/2000/svg"
   xmlns:sodipodi="http://sodipodi.sourceforge.net/DTD/sodipodi-0.dtd"
   xmlns:inkscape="http://www.inkscape.org/namespaces/inkscape"
   width="64"
   height="64"
   viewBox="0 0 16.933333 16.933334"
   version="1.1"
   id="svg8"
   inkscape:version="0.92.5 (2060ec1f9f, 2020-04-08)"
   sodipodi:docname="service_64x64.svg">
  <defs
     id="defs2" />
  <sodipodi:namedview
     id="base"
     pagecolor="#ffffff"
     bordercolor="#666666"
     borderopacity="1.0"
     inkscape:pageopacity="0.0"
     inkscape:pageshadow="2"
     inkscape:zoom="3.959798"
     inkscape:cx="56.302592"
     inkscape:cy="-4.5166769"
     inkscape:document-units="mm"
     inkscape:current-layer="layer1"
     showgrid="false"
     units="px"
     inkscape:window-width="1208"
     inkscape:window-height="987"
     inkscape:window-x="1992"
     inkscape:window-y="0"
     inkscape:window-maximized="1" />
  <metadata
     id="metadata5">
    <rdf:RDF>
      <cc:Work
         rdf:about="">
        <dc:format>image/svg+xml</dc:format>
        <dc:type
           rdf:resource="http://purl.org/dc/dcmitype/StillImage" />
        <dc:title></dc:title>
      </cc:Work>
    </rdf:RDF>
  </metadata>
  <g
     inkscape:label="Layer 1"
     inkscape:groupmode="layer"
     id="layer1"
     transform="translate(0,-280.06665)">
    <path
       style="fill:#ffffff;stroke-width:0.22907396;stroke-miterlimit:4;stroke-dasharray:none"
       d=""
       id="path12841"
       inkscape:connector-curvature="0"
       transform="matrix(0.26458333,0,0,0.26458333,0,280.06665)" />
    <path
       style="fill:#000000;stroke-width:0.03825947"
       d="m 3.3740176,296.58353 c -1.4659838,-0.0106 -2.67312951,-0.0277 -2.68254552,-0.0383 -0.0800863,-0.0895 -0.10503179,-0.21842 -0.0834288,-0.43126 0.0793371,-0.78172 0.45906912,-1.50785 1.03985972,-1.98843 0.375838,-0.311 0.9256632,-0.55832 1.3802232,-0.62084 l 0.1992448,-0.0274 5.783e-4,-0.21639 c 3.039e-4,-0.11902 0.013236,-0.23536 0.028696,-0.25851 0.049295,-0.0738 0.1923825,-0.13062 0.264459,-0.10504 0.1609234,0.0573 0.2036336,0.13349 0.2036336,0.36344 0,0.2115 0.00516,0.22394 0.095649,0.22937 0.052607,0.003 0.1160443,0.007 0.1409732,0.01 0.024925,0.002 0.065278,-0.0736 0.089663,-0.16835 0.1105429,-0.42923 0.42509,-0.83739 0.7967365,-1.03386 l 0.1793066,-0.0948 -0.01227,-2.19992 c -0.00981,-1.75763 -0.023049,-2.23245 -0.065851,-2.36178 -0.044776,-0.13527 -0.045421,-0.19499 -0.00395,-0.36346 0.027295,-0.11089 0.063063,-0.51151 0.079489,-0.89028 0.042053,-0.96948 0.1842194,-1.60319 0.5064004,-2.25731 0.3708344,-0.75288 1.0155848,-1.37093 1.8341872,-1.75821 1.5700335,-0.74277 3.3783732,-0.41274 4.5764642,0.83522 0.357247,0.37212 0.572479,0.67921 0.775457,1.10642 0.300204,0.63185 0.419222,1.22824 0.420154,2.10535 4.04e-4,0.37469 0.01763,0.58975 0.05571,0.69547 0.0708,0.19654 0.07138,0.5466 0.0012,0.66954 -0.0449,0.0785 -0.05462,0.36909 -0.05435,1.62603 l 3.48e-4,1.53037 0.14655,-0.43998 c 0.08061,-0.242 0.19576,-0.5519 0.255903,-0.68867 0.09845,-0.22388 0.111325,-0.30241 0.129143,-0.78727 0.01808,-0.49194 0.02794,-0.55046 0.113877,-0.67575 0.34483,-0.50271 1.063247,-0.46912 1.336821,0.0626 0.08472,0.16462 0.09809,0.24556 0.110601,0.66953 0.01382,0.46832 0.01954,0.49614 0.197383,0.96054 0.207431,0.54165 0.358283,1.08785 0.470224,1.70254 0.06901,0.37889 0.07839,0.63273 0.09413,2.54584 0.0166,2.01679 0.01394,2.12934 -0.05249,2.2103 l -0.06999,0.0853 -4.916341,0.008 c -2.7039887,0.005 -6.1157838,1.5e-4 -7.581767,-0.0106 z m 2.4162258,-0.60258 c -8.057e-4,-0.17266 -0.2048228,-0.70617 -0.3585465,-0.93776 -0.1766714,-0.26617 -0.5257656,-0.59407 -0.7960605,-0.74774 -0.3659161,-0.20802 -0.7228143,-0.29483 -1.1978392,-0.29133 -0.350446,0.002 -0.4678011,0.0198 -0.701472,0.10251 -0.3990519,0.14135 -0.664525,0.3138 -0.9568703,0.62156 -0.3468803,0.36519 -0.5098524,0.68691 -0.6346152,1.25276 l -0.023202,0.10525 h 2.3345567 2.3345568 l -5.059e-4,-0.10525 z m -1.2258512,-0.64299 c -0.1745197,-0.18008 -0.4300091,-0.33752 -0.6775575,-0.41751 -0.1107563,-0.0358 -0.2278995,-0.0916 -0.2603182,-0.12402 -0.088129,-0.0881 -0.054128,-0.27675 0.065971,-0.36602 0.1013554,-0.0753 0.1024101,-0.0753 0.3650534,0.005 0.4783554,0.14529 1.0062865,0.56697 1.0062865,0.80376 0,0.25877 -0.2891768,0.31628 -0.4994327,0.0993 z m 3.5805466,0.27953 c -0.4353994,-1.626 -0.4137566,-1.55908 -0.5042221,-1.55908 -0.04646,0 -0.1201553,-0.0453 -0.163768,-0.10081 -0.070918,-0.0901 -0.079296,-0.15298 -0.079296,-0.59441 0,-0.37243 -0.019496,-0.57134 -0.079433,-0.81031 -0.043688,-0.1742 -0.092904,-0.33851 -0.1093658,-0.36515 -0.022993,-0.0372 -0.2419179,0.0106 -0.9440063,0.20536 -0.5027413,0.13956 -0.9728342,0.27438 -1.0446506,0.29956 -0.3047605,0.1069 -0.6905922,0.59408 -0.6916289,0.87331 -2.748e-4,0.0769 0.027995,0.11233 0.1204277,0.1506 0.438351,0.18157 1.0345787,0.72308 1.3053424,1.18553 0.1534094,0.26201 0.3086291,0.70207 0.3535508,1.00234 l 0.027189,0.18173 h 0.9676816 0.9676808 z m 0.9551301,0.43062 c 0.052808,-0.0854 0.6261014,-2.27779 0.6010944,-2.29865 -0.014887,-0.0124 -0.1860247,-0.12906 -0.3802996,-0.2592 l -0.3532284,-0.23662 -0.3832667,0.25519 c -0.2107972,0.14035 -0.3832666,0.2718 -0.3832666,0.29214 0,0.032 0.5508927,2.10717 0.5939381,2.23736 0.018731,0.0566 0.2710634,0.0648 0.3050288,0.01 z m 2.4678661,-0.66254 c 0,-0.65216 0.0054,-0.70637 0.07801,-0.78431 0.04445,-0.0477 0.124195,-0.0837 0.185367,-0.0837 0.166117,0 0.243953,0.11813 0.26925,0.40862 0.01937,0.22237 0.02871,0.24623 0.07465,0.19061 0.04132,-0.05 0.120809,-0.0636 0.373029,-0.0636 h 0.320521 v -0.26782 -0.26782 h -0.266016 c -0.406429,0 -0.548461,-0.10451 -0.485109,-0.3569 0.03144,-0.12529 0.176506,-0.17873 0.485109,-0.17873 h 0.266016 v -0.60601 -0.60601 l -0.0998,-0.0454 c -0.09294,-0.0424 -1.989138,-0.57897 -2.045836,-0.57897 -0.01414,0 -0.07087,0.18025 -0.126082,0.40056 -0.08258,0.32957 -0.10037,0.48854 -0.10037,0.89693 0,0.46956 -0.0046,0.49959 -0.08503,0.55593 -0.04677,0.0328 -0.114299,0.0595 -0.15007,0.0595 -0.03981,0 -0.08029,0.0483 -0.104348,0.12435 -0.05506,0.17417 -0.5022582,1.8458 -0.5022582,1.87746 0,0.0143 0.4304192,0.0259 0.9564862,0.0259 h 0.956488 z m 1.300822,0.43277 v -0.26781 h -0.306076 c -0.255063,0 -0.318827,-0.0127 -0.382595,-0.0765 l -0.07652,-0.0765 v 0.34433 0.34434 h 0.382595 0.382594 z m 2.601644,-0.38259 v -0.65041 H 14.437395 13.40439 v 0.65041 0.65041 h 1.033005 1.033006 z m 0,-1.83645 v -0.65042 H 14.437395 13.40439 v 0.65042 0.6504 h 1.033005 1.033006 z m -7.2375506,-0.47825 c 0.129469,-0.0841 0.2350034,-0.16164 0.2345208,-0.17217 -0.00113,-0.024 -0.4744457,-0.34433 -0.5088124,-0.34433 -0.013897,0 -0.025272,0.15638 -0.025272,0.34752 0,0.19115 0.014436,0.34179 0.03208,0.33478 0.017643,-0.007 0.1380134,-0.0816 0.2674825,-0.1658 z m 1.7664464,-0.1916 v -0.36377 l -0.2678159,0.17809 c -0.1472996,0.098 -0.2678168,0.19055 -0.2678168,0.20578 0,0.0305 0.4610283,0.34276 0.5069385,0.34332 0.015781,1.5e-4 0.028696,-0.16335 0.028696,-0.36342 z m -0.4935202,-0.65847 c 0.4575135,-0.30477 0.4926486,-0.33626 0.4070097,-0.36481 -0.1360736,-0.0453 -0.1813054,-0.18179 -0.1813054,-0.54685 0,-0.17787 -0.00435,-0.32341 -0.00957,-0.32341 -0.00524,0 -0.1300902,0.0256 -0.277381,0.0568 -0.3999669,0.0847 -0.70279,0.0648 -1.1955948,-0.0788 -0.085072,-0.0248 -0.086083,-0.0207 -0.086083,0.34536 0,0.39465 -0.032515,0.50464 -0.1635158,0.55309 -0.070894,0.0263 -0.01492,0.0751 0.4135633,0.36131 0.2725562,0.18204 0.5172897,0.33098 0.5438524,0.33098 0.026561,0 0.2736277,-0.1501 0.5490341,-0.33357 z m 5.9460404,0.0371 c -0.0092,-0.0578 -0.04464,-0.2841 -0.07882,-0.50274 -0.0769,-0.49187 -0.275751,-1.21855 -0.45133,-1.64935 l -0.132544,-0.3252 -0.343884,-0.011 -0.343884,-0.011 -0.115423,0.27877 c -0.247147,0.59688 -0.476647,1.49049 -0.529869,2.06313 l -0.02439,0.26251 h 1.018413 1.018413 z m -2.850875,-2.08867 v -1.88783 l -0.136915,0.0226 c -0.124374,0.0206 -0.143372,0.041 -0.207421,0.22309 -0.316205,0.89885 -0.938031,1.64764 -1.741313,2.09686 l -0.248179,0.13879 3.75e-4,0.33148 3.76e-4,0.33147 1.118707,0.31224 c 0.615288,0.17175 1.140228,0.31378 1.166531,0.31565 0.03766,0.002 0.04782,-0.39787 0.04782,-1.88442 z m -6.1294201,1.57794 c 0.456765,-0.12835 0.9079575,-0.25317 1.0026499,-0.27739 l 0.1721673,-0.044 0.010876,-0.36707 0.010876,-0.36708 -0.1639162,-0.1069 c -0.7143852,-0.46593 -1.225674,-1.09599 -1.5437118,-1.90231 -0.1391646,-0.35283 -0.1503908,-0.36862 -0.2722106,-0.38284 l -0.1270595,-0.0148 v 1.84791 c 0,1.25768 0.012753,1.84789 0.039918,1.84789 0.021953,0 0.4136374,-0.10504 0.8704033,-0.23335 z m 3.1905918,-1.3107 c 0.7648023,-0.26367 1.4101443,-0.7789 1.8042453,-1.44048 0.141331,-0.23725 0.345874,-0.72999 0.408572,-0.98423 0.04928,-0.19984 0.141649,-0.25576 0.366676,-0.22203 0.373378,0.056 0.635454,-0.31821 0.424685,-0.60637 -0.05022,-0.0687 -0.06179,-0.0691 -0.240784,-0.0106 -1.274344,0.41718 -3.6739274,-0.24024 -5.0081302,-1.37207 -0.2346384,-0.19906 -0.2564101,-0.20966 -0.2760719,-0.13448 -0.050746,0.19406 -0.2821574,0.60921 -0.436474,0.78304 -0.2187494,0.2464 -0.5608259,0.46446 -0.8813482,0.56182 -0.2863684,0.087 -0.3770642,0.18021 -0.3770642,0.38756 0,0.25406 0.2230071,0.42612 0.5043178,0.38908 0.1087254,-0.0144 0.1878035,-0.004 0.2312581,0.0291 0.036317,0.0279 0.1096059,0.20213 0.1628601,0.38706 0.3070985,1.06643 1.0895779,1.90303 2.1240625,2.27098 0.3768241,0.13404 0.7256259,0.12281 1.1931957,-0.0384 z m -1.0016252,-1.00376 c -0.3082675,-0.13368 -0.3987264,-0.3582 -0.2055406,-0.51016 0.1190436,-0.0936 0.2016108,-0.1 0.3031686,-0.0231 0.1056299,0.0799 0.2961542,0.0715 0.4099122,-0.0179 0.1211415,-0.0953 0.2234751,-0.0971 0.3360328,-0.005 0.1048374,0.0849 0.1168814,0.27818 0.023749,0.3811 -0.1901938,0.21015 -0.5978696,0.29291 -0.8673209,0.17607 z m -1.174251,-1.2405 c -0.1687241,-0.0673 -0.2162238,-0.29258 -0.088585,-0.42022 0.1562871,-0.1563 0.4591141,-0.0455 0.4591141,0.16792 0,0.18186 -0.2020804,0.31946 -0.3705291,0.2523 z m 2.6781635,0 c -0.1693304,-0.0675 -0.2135641,-0.27726 -0.08709,-0.41302 0.09841,-0.10556 0.279264,-0.10904 0.381104,-0.007 0.193903,0.1939 -0.03632,0.52295 -0.29401,0.42023 z m 4.540811,0.72756 c 0,-0.34792 -0.06419,-0.45911 -0.26504,-0.45911 -0.18781,0 -0.270593,0.14788 -0.270593,0.4834 v 0.28178 h 0.267816 0.267817 z m -2.372087,-2.2646 0.248687,-0.0966 -0.0022,-0.55065 c -0.0016,-0.40573 -0.02066,-0.62114 -0.07242,-0.81847 -0.28271,-1.07799 -1.037411,-1.99969 -1.991634,-2.43235 -0.512564,-0.23241 -0.7815957,-0.28438 -1.4536483,-0.28085 -0.5488191,0.003 -0.6469716,0.0137 -0.9487047,0.10557 -1.161482,0.35319 -1.983434,1.1535 -2.3374198,2.27589 -0.1395917,0.44262 -0.2146166,0.90898 -0.2146166,1.33409 0,0.35681 0.00105,0.36072 0.086083,0.33433 0.6769435,-0.20995 1.0617005,-0.78586 1.0617005,-1.58916 0,-0.32358 0.053291,-0.43305 0.231213,-0.47498 0.1304382,-0.0306 0.2909089,0.0977 0.3237109,0.25927 0.1207758,0.59448 1.3658424,1.42453 2.7353906,1.82361 0.6422574,0.18715 0.9526424,0.23085 1.5495094,0.21819 0.464899,-0.01 0.568473,-0.0241 0.784318,-0.1079 z m -9.5266085,4.40712 c -0.1237218,-0.12371 -0.096018,-0.25024 0.100884,-0.46075 l 0.1774031,-0.18965 -0.1774031,-0.18966 c -0.1969011,-0.21051 -0.2246053,-0.33703 -0.100884,-0.46076 0.127368,-0.12736 0.2629074,-0.0976 0.4658587,0.1023 l 0.1815407,0.17881 0.1936851,-0.18117 c 0.2297485,-0.2149 0.3791451,-0.22983 0.511964,-0.0512 0.077258,0.10388 0.077452,0.1089 0.0092,0.23564 -0.038347,0.0712 -0.1277507,0.18571 -0.1986743,0.25445 l -0.1289528,0.12498 0.1904902,0.20143 c 0.2039116,0.2156 0.214387,0.24214 0.1465021,0.37109 -0.1069498,0.2032 -0.2851914,0.19392 -0.5219793,-0.0273 l -0.180097,-0.16817 -0.1854342,0.16817 c -0.2088387,0.18939 -0.3581049,0.21765 -0.4841066,0.0916 z M 1.6171571,287.314 c -0.2386423,-0.18322 -0.1368719,-0.52485 0.1563532,-0.52485 0.2932258,0 0.3949962,0.34163 0.1563531,0.52485 -0.077911,0.0598 -0.2347972,0.0598 -0.3127063,0 z m 13.0236019,-1.09937 c -0.106676,-0.0426 -0.177542,-0.17418 -0.150885,-0.28032 0.0114,-0.0453 0.09848,-0.15882 0.193522,-0.25208 l 0.172796,-0.16955 -0.190269,-0.20119 c -0.213299,-0.22554 -0.23313,-0.31941 -0.09635,-0.45618 0.138797,-0.13879 0.247623,-0.11952 0.441723,0.0782 0.09293,0.0947 0.18512,0.17216 0.20486,0.17216 0.01974,0 0.118719,-0.0775 0.219952,-0.17216 0.215128,-0.20123 0.335313,-0.22018 0.452379,-0.0713 0.117988,0.14999 0.09874,0.22881 -0.10905,0.44665 l -0.188346,0.19743 0.188346,0.19916 c 0.203878,0.21557 0.2269,0.30067 0.117789,0.43542 -0.120118,0.14834 -0.286817,0.11773 -0.495549,-0.091 l -0.178141,-0.17813 -0.173074,0.16769 c -0.191189,0.18525 -0.28445,0.22514 -0.409694,0.17521 z M 3.6656153,284.39967 c -0.1877236,-0.18772 -0.069275,-0.47998 0.1945271,-0.47998 0.2727246,0 0.3954636,0.32876 0.1846471,0.4946 -0.1337268,0.10514 -0.2644075,0.10018 -0.3791742,-0.0146 z m 8.6101197,-1.92955 c -0.505675,-0.13111 -0.805846,-0.64485 -0.667219,-1.14197 0.06996,-0.25088 0.36906,-0.54998 0.619943,-0.61993 0.418007,-0.11657 0.876092,0.087 1.072211,0.47642 0.206112,0.4093 0.04015,0.94509 -0.366255,1.18237 -0.176046,0.10282 -0.47778,0.15002 -0.65868,0.10314 z m 0.481187,-0.6135 c 0.246449,-0.24645 0.07782,-0.65335 -0.270759,-0.65335 -0.223722,0 -0.382595,0.15887 -0.382595,0.38258 0,0.3486 0.406905,0.51721 0.653354,0.27077 z m -11.0150691,0.33339 c -0.070016,-0.0237 -0.2105079,-0.11783 -0.3121979,-0.20925 -0.373447,-0.33577 -0.4097905,-0.8598 -0.085875,-1.23822 0.3800458,-0.44399 1.0605212,-0.42881 1.4116181,0.0315 0.441642,0.57903 0.059381,1.40014 -0.6730419,1.44572 -0.1172584,0.007 -0.270485,-0.006 -0.3405032,-0.0297 z m 0.5702331,-0.6012 c 0.1204575,-0.12047 0.1464747,-0.28458 0.069097,-0.43588 -0.1871404,-0.36594 -0.7224517,-0.24359 -0.7224517,0.16512 0,0.34858 0.4069041,0.5172 0.6533547,0.27076 z m 13.084573,0.43188 c -0.105188,-0.13374 -0.100148,-0.26442 0.01462,-0.37918 0.114766,-0.11477 0.245447,-0.1198 0.379174,-0.0146 0.126315,0.0993 0.138213,0.30416 0.02429,0.41808 -0.113923,0.11392 -0.318718,0.10208 -0.418077,-0.0242 z"
       id="path13076"
       inkscape:connector-curvature="0" />
    <path
       style="fill:#ffffff;stroke-width:0.00438212;stroke-miterlimit:4;stroke-dasharray:none"
       d="m 1.1823128,295.90467 c 0.1831816,-0.81528 0.7439214,-1.46537 1.5228127,-1.76547 0.2326606,-0.0896 0.3300518,-0.10451 0.6956619,-0.1066 0.7348396,-0.004 1.1588871,0.15632 1.6477267,0.62336 0.1674327,0.15997 0.3552209,0.37975 0.4173086,0.48841 0.1141318,0.19975 0.3118112,0.73973 0.3118112,0.85174 0,0.0546 -0.2347923,0.0609 -2.314766,0.0609 H 1.1481017 Z m 3.828982,-0.49142 c 0.2665117,-0.24119 -0.3537949,-0.84167 -1.0587149,-1.02486 -0.1725291,-0.0449 -0.1879637,-0.0423 -0.2820261,0.0461 -0.076799,0.0722 -0.096887,0.12435 -0.088018,0.22873 0.012415,0.14611 0.00507,0.14051 0.4559426,0.34664 0.1381656,0.0632 0.3439366,0.19417 0.4572685,0.29112 0.2249952,0.19248 0.3877812,0.22794 0.515548,0.11232 z"
       id="path13078"
       inkscape:connector-curvature="0" />
    <path
       style="fill:#ffffff;stroke-width:0.00438212;stroke-miterlimit:4;stroke-dasharray:none"
       d="M 6.3366149,295.95065 C 6.12822,294.9534 5.621943,294.23787 4.7917076,293.76718 c -0.2139955,-0.12131 -0.2310067,-0.14093 -0.2251822,-0.25963 0.00749,-0.15261 0.2407805,-0.50583 0.4388828,-0.66448 0.1032332,-0.0826 0.3453336,-0.16842 1.0048453,-0.35588 0.4778648,-0.13583 0.9400322,-0.25885 1.0270383,-0.27338 l 0.1581931,-0.0264 0.066665,0.22461 c 0.040006,0.1348 0.080698,0.47013 0.1017696,0.83869 0.037502,0.65597 0.07315,0.77508 0.2448779,0.81817 0.1012391,0.0254 0.1498002,0.16539 0.4483568,1.29242 0.08728,0.32947 0.1660777,0.62077 0.1751069,0.64735 0.012833,0.0378 -0.1895782,0.0483 -0.9285079,0.0483 h -0.944925 z"
       id="path13080"
       inkscape:connector-curvature="0" />
    <path
       style="fill:#ffffff;stroke-width:0.00438212;stroke-miterlimit:4;stroke-dasharray:none"
       d="m 8.8175908,296.02794 c -0.00977,-0.016 -0.1494522,-0.52308 -0.3103749,-1.12699 -0.272362,-1.0221 -0.2879861,-1.10154 -0.226041,-1.14919 0.2306693,-0.17744 0.646054,-0.45172 0.6841135,-0.45172 0.024877,0 0.1964244,0.10292 0.3812164,0.22867 0.3187685,0.21695 0.3348332,0.2346 0.3135184,0.34461 -0.044526,0.22979 -0.5303367,2.0499 -0.5647775,2.11597 -0.035318,0.0677 -0.2421298,0.0966 -0.2776549,0.0387 z"
       id="path13082"
       inkscape:connector-curvature="0" />
    <path
       style="fill:#ffffff;stroke-width:0.00438212;stroke-miterlimit:4;stroke-dasharray:none"
       d="m 8.4480977,292.26722 -0.4706335,-0.3114 0.088508,-0.0717 c 0.079731,-0.0646 0.089825,-0.11027 0.1017918,-0.46156 0.00733,-0.21448 0.027963,-0.38995 0.045911,-0.38995 0.017949,0 0.1511006,0.0279 0.2958997,0.0619 0.2568564,0.0605 0.7465009,0.0567 1.0845396,-0.008 l 0.1256053,-0.0241 v 0.28848 c 0,0.31767 0.050793,0.51346 0.142321,0.54858 0.046911,0.018 0.049875,0.0347 0.013905,0.078 -0.058439,0.0704 -0.870723,0.60101 -0.9200821,0.60101 -0.020423,0 -0.2489146,-0.14013 -0.5077634,-0.3114 z"
       id="path13084"
       inkscape:connector-curvature="0" />
    <path
       style="fill:#ffffff;stroke-width:0.00438212;stroke-miterlimit:4;stroke-dasharray:none"
       d="m 9.6903891,293.09946 c -0.1114065,-0.075 -0.2025566,-0.14213 -0.2025566,-0.14912 0,-0.0193 0.4532485,-0.33307 0.4812056,-0.33307 0.040966,0 0.00467,0.5919 -0.037098,0.60571 -0.021446,0.007 -0.1301434,-0.0485 -0.241549,-0.12352 z"
       id="path13086"
       inkscape:connector-curvature="0" />
    <path
       style="fill:#ffffff;stroke-width:0.00438212;stroke-miterlimit:4;stroke-dasharray:none"
       d="m 7.9676816,293.20987 c -0.040224,-0.0402 -0.030227,-0.50799 0.011408,-0.53372 0.029074,-0.018 0.4652457,0.23481 0.4652457,0.26963 0,0.0113 -0.4203522,0.28985 -0.4374151,0.28985 -0.00741,0 -0.02507,-0.0116 -0.039241,-0.0258 z"
       id="path13088"
       inkscape:connector-curvature="0" />
    <path
       style="fill:#ffffff;stroke-width:0.00438212;stroke-miterlimit:4;stroke-dasharray:none"
       d="m 9.6810721,296.03237 c 0,-0.0135 0.1130451,-0.44119 0.2512116,-0.9504 0.1381653,-0.50922 0.2512113,-0.93282 0.2512113,-0.94135 0,-0.008 0.06492,-0.0461 0.144276,-0.0834 0.172772,-0.0814 0.197801,-0.17616 0.201598,-0.76361 0.0023,-0.3536 0.102933,-0.93904 0.185945,-1.08155 0.02901,-0.0498 0.763015,0.13547 1.738745,0.43888 l 0.396141,0.12318 v 0.59792 0.59791 h -0.248695 c -0.136783,0 -0.29352,0.017 -0.348306,0.0378 -0.119806,0.0455 -0.194431,0.19245 -0.162464,0.3198 0.0307,0.12231 0.176852,0.18442 0.497207,0.21127 l 0.262258,0.022 v 0.2456 0.2456 h -0.306022 c -0.168313,0 -0.331226,0.01 -0.36203,0.0216 -0.043,0.0165 -0.06032,-0.0233 -0.07457,-0.17172 -0.03424,-0.35628 -0.237076,-0.49815 -0.45729,-0.31984 -0.08395,0.0679 -0.08847,0.10092 -0.106106,0.77296 l -0.01842,0.70195 h -0.922346 c -0.507289,0 -0.9223437,-0.011 -0.9223439,-0.0246 z"
       id="path13090"
       inkscape:connector-curvature="0" />
    <path
       style="fill:#ffffff;stroke-width:0.00438212;stroke-miterlimit:4;stroke-dasharray:none"
       d="m 12.115889,295.74176 c 0,-0.3029 0.0027,-0.31269 0.07068,-0.25122 0.05284,0.0479 0.145516,0.0639 0.367156,0.0639 h 0.296478 v 0.25121 0.25121 h -0.367155 -0.367155 z"
       id="path13092"
       inkscape:connector-curvature="0" />
    <path
       style="fill:#ffffff;stroke-width:0.00438212;stroke-miterlimit:4;stroke-dasharray:none"
       d="m 13.429919,295.43856 v -0.61837 h 1.004845 1.004845 v 0.61837 0.61836 h -1.004845 -1.004845 z"
       id="path13094"
       inkscape:connector-curvature="0" />
    <path
       style="fill:#ffffff;stroke-width:0.00438212;stroke-miterlimit:4;stroke-dasharray:none"
       d="m 13.429919,293.60278 v -0.63769 h 1.004845 1.004845 v 0.63769 0.6377 h -1.004845 -1.004845 z"
       id="path13096"
       inkscape:connector-curvature="0" />
    <path
       style="fill:#ffffff;stroke-width:0.00438212;stroke-miterlimit:4;stroke-dasharray:none"
       d="m 13.483448,292.10518 c 0.04948,-0.53368 0.277396,-1.38899 0.571555,-2.14497 l 0.04888,-0.12559 h 0.336549 0.336548 l 0.120846,0.31336 c 0.185125,0.48004 0.370959,1.16238 0.460685,1.6915 0.04461,0.26306 0.0811,0.4935 0.0811,0.51209 0,0.0186 -0.445982,0.0338 -0.991071,0.0338 h -0.991072 z"
       id="path13098"
       inkscape:connector-curvature="0" />
    <path
       style="fill:#ffffff;stroke-width:0.00438212;stroke-miterlimit:4;stroke-dasharray:none"
       d="m 14.202876,288.98652 c 0,-0.22529 0.01446,-0.28518 0.08999,-0.37301 0.0716,-0.0833 0.110864,-0.0994 0.192122,-0.079 0.136157,0.0341 0.175562,0.11954 0.205917,0.44615 l 0.02549,0.27423 h -0.256762 -0.256761 z"
       id="path13100"
       inkscape:connector-curvature="0" />
    <path
       style="fill:#ffffff;stroke-width:0.00438212;stroke-miterlimit:4;stroke-dasharray:none"
       d="m 11.516847,291.80387 c -0.531407,-0.14768 -1.018372,-0.28267 -1.082141,-0.29997 l -0.115944,-0.0315 -0.01107,-0.3289 -0.01107,-0.32891 0.190903,-0.10388 c 0.733135,-0.39902 1.375761,-1.1248 1.707068,-1.92793 0.144842,-0.35112 0.193652,-0.41512 0.317429,-0.4162 0.06345,-5.6e-4 0.06763,0.11038 0.06763,1.79337 0,1.68091 -0.0089,1.91915 -0.07177,1.91433 -0.01367,-8.1e-4 -0.459641,-0.12274 -0.99105,-0.27042 z"
       id="path13102"
       inkscape:connector-curvature="0" />
    <path
       style="fill:#ffffff;stroke-width:0.00438212;stroke-miterlimit:4;stroke-dasharray:none"
       d="m 5.6101593,291.97314 c -0.014171,-0.0142 -0.025763,-0.83158 -0.025763,-1.81646 0,-1.67988 0.00418,-1.79065 0.067632,-1.79009 0.1173245,8e-4 0.1502201,0.0471 0.3442009,0.4825 0.10418,0.23382 0.257555,0.52948 0.3408326,0.65702 0.1898295,0.29071 0.8238678,0.92954 1.0927706,1.10103 l 0.2029014,0.1294 v 0.3579 0.3579 l -0.2029014,0.0584 c -0.4097253,0.11807 -1.7545284,0.48809 -1.7739145,0.48809 -0.010997,0 -0.031588,-0.0116 -0.045759,-0.0258 z"
       id="path13104"
       inkscape:connector-curvature="0" />
    <path
       style="fill:#ffffff;stroke-width:0.00438212;stroke-miterlimit:4;stroke-dasharray:none"
       d="m 8.6762269,290.56586 c -0.2754138,-0.0526 -0.9196849,-0.39279 -1.216805,-0.64242 -0.4993077,-0.41951 -0.8266777,-0.90268 -1.0552259,-1.55745 -0.1802709,-0.51645 -0.2001139,-0.54106 -0.4361332,-0.54106 -0.2326284,0 -0.3906653,-0.0737 -0.4534402,-0.21149 -0.1172021,-0.25723 -0.025941,-0.4022 0.3416003,-0.54265 0.3368295,-0.1287 0.6875358,-0.35934 0.870309,-0.57233 0.076219,-0.0888 0.2098699,-0.30513 0.2970113,-0.48071 0.1419762,-0.28607 0.1654485,-0.31418 0.2259064,-0.27055 0.037107,0.0268 0.1950491,0.14556 0.3509818,0.26393 0.7494736,0.56893 1.7632499,1.01514 2.8149516,1.23897 0.557622,0.11867 1.559942,0.1282 1.925223,0.0183 0.225914,-0.0679 0.248734,-0.0687 0.30725,-0.0106 0.03537,0.0354 0.0632,0.1252 0.0632,0.20393 0,0.10967 -0.02742,0.16523 -0.124283,0.25176 -0.105997,0.0947 -0.156887,0.11114 -0.345898,0.11165 -0.121889,3e-4 -0.244105,0.0148 -0.271589,0.0323 -0.02749,0.0174 -0.09452,0.16065 -0.148953,0.31825 -0.237223,0.68678 -0.518636,1.15887 -0.912388,1.53059 -0.441557,0.41685 -1.0929531,0.76002 -1.6301239,0.85876 -0.2593224,0.0477 -0.3541622,0.0478 -0.6016058,4.5e-4 z m 0.6955105,-1.12981 c 0.2747208,-0.14066 0.3119973,-0.42928 0.072779,-0.56354 -0.090988,-0.051 -0.1151872,-0.0485 -0.2615523,0.0278 -0.1913707,0.0998 -0.2777267,0.10451 -0.4332943,0.0241 -0.1391308,-0.072 -0.2377417,-0.0469 -0.3429723,0.0868 -0.1032607,0.13128 -0.09895,0.18089 0.027979,0.32202 0.2167716,0.24102 0.5876519,0.28173 0.9370609,0.10282 z m -1.5747505,-1.26923 c 0.095536,-0.1129 0.086759,-0.28546 -0.018264,-0.35902 -0.1121331,-0.0785 -0.2955161,-0.0767 -0.3844984,0.004 -0.070982,0.0642 -0.094958,0.26557 -0.041102,0.34514 0.0985,0.14553 0.3249,0.15068 0.4438591,0.0106 z m 2.6325071,0.0419 c 0.200915,-0.15805 0.09881,-0.46097 -0.15537,-0.46097 -0.265844,0 -0.3848745,0.30142 -0.182037,0.46097 0.05601,0.0441 0.131924,0.0801 0.168703,0.0801 0.03679,0 0.112697,-0.0361 0.168704,-0.0801 z"
       id="path13106"
       inkscape:connector-curvature="0" />
    <path
       style="fill:#ffffff;stroke-width:0.00438212;stroke-miterlimit:4;stroke-dasharray:none"
       d="m 10.724566,286.75441 c -0.271126,-0.0463 -0.9137154,-0.23246 -1.2563478,-0.36402 -1.1259746,-0.43235 -1.9204602,-1.01347 -2.1817442,-1.59582 -0.086386,-0.19254 -0.1364868,-0.25801 -0.211942,-0.27694 -0.2388381,-0.0599 -0.3690887,0.0745 -0.3696405,0.38153 -8.862e-4,0.49824 -0.18151,1.01273 -0.4485308,1.27769 -0.1679467,0.16666 -0.5008787,0.37177 -0.604333,0.37233 -0.1487183,8e-4 -0.057899,-1.00015 0.1490044,-1.64218 0.2972804,-0.92247 0.8911154,-1.60358 1.7683969,-2.02832 0.5825629,-0.28204 0.7815965,-0.32474 1.5126007,-0.3244 0.7389007,3.3e-4 0.9503183,0.0456 1.5072683,0.3224 0.69264,0.34431 1.261387,0.92044 1.617185,1.63817 0.262603,0.52972 0.329791,0.82577 0.34285,1.51063 l 0.01101,0.57742 -0.251212,0.0882 c -0.223996,0.0787 -0.318205,0.0878 -0.869577,0.084 -0.340102,-0.002 -0.661846,-0.0117 -0.714986,-0.0207 z"
       id="path13108"
       inkscape:connector-curvature="0" />
    <path
       style="fill:#ffffff;stroke-width:0.00438212;stroke-miterlimit:4;stroke-dasharray:none"
       d="m 12.250973,281.85715 c -0.188013,-0.18801 -0.154945,-0.47285 0.0683,-0.58829 0.370607,-0.19165 0.712753,0.27381 0.417962,0.56861 -0.146896,0.1469 -0.350789,0.15515 -0.486256,0.0197 z"
       id="path13110"
       inkscape:connector-curvature="0" />
    <path
       style="fill:#ffffff;stroke-width:0.00438212;stroke-miterlimit:4;stroke-dasharray:none"
       d="m 1.7939269,281.56694 c -0.2158049,-0.2158 -0.1036475,-0.55913 0.1983505,-0.60717 0.2550293,-0.0405 0.4966984,0.27269 0.3823901,0.49565 -0.126179,0.2461 -0.3946024,0.29765 -0.5807406,0.11152 z"
       id="path13112"
       inkscape:connector-curvature="0" />
  </g>
</svg>
