<?xml version="1.0" encoding="UTF-8" standalone="no"?>
<!-- Created with Inkscape (http://www.inkscape.org/) -->

<svg
   xmlns:dc="http://purl.org/dc/elements/1.1/"
   xmlns:cc="http://creativecommons.org/ns#"
   xmlns:rdf="http://www.w3.org/1999/02/22-rdf-syntax-ns#"
   xmlns:svg="http://www.w3.org/2000/svg"
   xmlns="http://www.w3.org/2000/svg"
   xmlns:sodipodi="http://sodipodi.sourceforge.net/DTD/sodipodi-0.dtd"
   xmlns:inkscape="http://www.inkscape.org/namespaces/inkscape"
   width="64"
   height="64"
   viewBox="0 0 16.933333 16.933334"
   version="1.1"
   id="svg8"
   inkscape:version="0.92.5 (2060ec1f9f, 2020-04-08)"
   sodipodi:docname="set_time_64x64x.svg">
  <defs
     id="defs2" />
  <sodipodi:namedview
     id="base"
     pagecolor="#ffffff"
     bordercolor="#666666"
     borderopacity="1.0"
     inkscape:pageopacity="0.0"
     inkscape:pageshadow="2"
     inkscape:zoom="5.6"
     inkscape:cx="48.705744"
     inkscape:cy="52.03494"
     inkscape:document-units="mm"
     inkscape:current-layer="layer1"
     showgrid="false"
     units="px"
     inkscape:window-width="1208"
     inkscape:window-height="987"
     inkscape:window-x="1992"
     inkscape:window-y="0"
     inkscape:window-maximized="1" />
  <metadata
     id="metadata5">
    <rdf:RDF>
      <cc:Work
         rdf:about="">
        <dc:format>image/svg+xml</dc:format>
        <dc:type
           rdf:resource="http://purl.org/dc/dcmitype/StillImage" />
        <dc:title></dc:title>
      </cc:Work>
    </rdf:RDF>
  </metadata>
  <g
     inkscape:label="Layer 1"
     inkscape:groupmode="layer"
     id="layer1"
     transform="translate(0,-280.06665)">
    <path
       style="fill:#000000;stroke-width:0.2434973"
       d="M 6.0142513,295.97026 C 5.893977,295.73589 5.7206841,295.0548 5.629156,294.45671 5.5102058,293.67944 5.2574912,293.1933 4.7431134,292.75223 c -0.609286,-0.52244 -0.7562935,-0.88441 -0.9587527,-2.36073 -0.1501356,-1.09477 -0.1561421,-2.40871 -0.016141,-3.53071 0.1939135,-1.55406 0.3189064,-1.86748 0.9587528,-2.40409 0.5346043,-0.44836 0.7812676,-0.91437 0.9021832,-1.70448 0.2879339,-1.88148 0.3633319,-1.93967 2.5133732,-1.93967 1.3076957,0 1.9957361,0.10379 2.1828831,0.32929 0.150309,0.18111 0.343696,1.00291 0.42975,1.82624 l 0.156461,1.49693 H 8.3042048 c -1.4340795,0 -2.8145669,0.11087 -3.0677496,0.24636 -0.6258888,0.33497 -0.9659196,1.70545 -0.9659196,3.89309 0,2.42149 0.3418288,3.61036 1.1235203,3.90755 0.3354713,0.12755 1.714162,0.23191 3.0637569,0.23191 h 2.4538102 l -0.156461,1.49694 c -0.08606,0.82331 -0.279441,1.64512 -0.42975,1.82623 -0.187147,0.2255 -0.8751874,0.32929 -2.1828836,0.32929 -1.5730246,0 -1.9481392,-0.0751 -2.1282771,-0.42612 z m 3.7909483,-0.36525 c 0.132039,-0.1674 0.3111114,-0.77006 0.3979394,-1.33924 l 0.157868,-1.03486 H 8.2052568 6.0495066 l 0.1584042,1.04377 c 0.087123,0.57407 0.2405783,1.17673 0.3410133,1.33924 0.2465739,0.39896 2.9403835,0.3916 3.2562755,-0.009 z m 0.4061764,-12.41836 c -0.3358474,-2.01803 -0.202506,-1.8871 -1.9219231,-1.8871 -1.7735348,0 -2.073655,0.26199 -2.073655,1.81022 v 0.86825 h 2.0636396 2.0636405 z m -0.5145414,8.3456 c -0.09747,-0.37272 -0.221971,-0.42973 -0.5523475,-0.25291 -0.5284593,0.28282 -1.5592045,-0.69213 -1.3388464,-1.26637 0.082241,-0.21431 -0.017936,-0.43329 -0.2366137,-0.5172 -0.5016852,-0.19252 -0.5069674,-1.58807 -0.00674,-1.78003 0.2305405,-0.0884 0.3185913,-0.3128 0.2310419,-0.58864 -0.1882049,-0.59298 0.6715124,-1.44763 1.2927836,-1.28517 0.2910401,0.0761 0.5280081,-0.024 0.6191721,-0.26156 0.197805,-0.51547 1.5234014,-0.51113 1.7217044,0.006 0.09318,0.24283 0.301515,0.33231 0.550899,0.23661 0.602881,-0.23134 1.589204,0.77922 1.295732,1.32759 -0.176812,0.33037 -0.119803,0.45488 0.252913,0.55234 0.679338,0.17765 0.674969,1.53808 -0.0056,1.7541 -0.380965,0.12091 -0.435956,0.24953 -0.252913,0.59155 0.332075,0.62049 -0.778237,1.69266 -1.302387,1.25765 -0.284557,-0.23616 -0.382267,-0.19639 -0.510542,0.20776 -0.219764,0.69242 -1.5782614,0.70682 -1.7582244,0.0187 z m 1.1454114,-0.37106 c 0,-0.37399 0.156906,-0.43427 1.217487,-0.46777 0.518753,-0.0164 0.597033,-0.11926 0.529527,-0.69584 -0.0554,-0.47323 0.08659,-0.81087 0.472398,-1.12327 l 0.551613,-0.44667 -0.548506,-0.29355 c -0.399287,-0.2137 -0.527802,-0.47118 -0.472398,-0.94645 0.06734,-0.57769 0.0011,-0.64516 -0.575251,-0.58568 -0.450598,0.0465 -0.772392,-0.10359 -1.044044,-0.48698 l -0.392685,-0.55423 -0.435002,0.57042 c -0.2936144,0.38503 -0.6267364,0.54331 -1.0248939,0.487 -0.4988007,-0.0706 -0.5917545,0.0196 -0.6019627,0.58395 -0.00664,0.36731 -0.2259655,0.8272 -0.4877838,1.02282 -0.4679703,0.34964 -0.4666927,0.36186 0.078511,0.75098 0.3829121,0.27328 0.5334424,0.59689 0.4869945,1.04691 -0.059483,0.57632 0.00799,0.64259 0.5856684,0.57525 0.4604731,-0.0537 0.7321141,0.0719 0.9216825,0.42612 0.31343,0.58565 0.738645,0.66451 0.738645,0.13699 z m -1.1633064,-1.4748 c -1.05452,-0.73861 -0.431468,-2.54291 0.8781084,-2.54291 0.662658,0 1.502685,0.81672 1.502685,1.46098 0,0.60359 -0.825601,1.46099 -1.406803,1.46099 -0.238049,0 -0.6763444,-0.17057 -0.9739904,-0.37906 z m 1.6503014,-1.04179 c 0,-0.43446 -0.435439,-1.01412 -0.761799,-1.01412 -0.246107,0 -0.9426814,0.7197 -0.9426814,0.97398 0,0.11479 0.171969,0.38069 0.3821554,0.59088 0.468458,0.46845 1.322325,0.11283 1.322325,-0.55074 z m -5.9184809,2.96962 c -0.1945376,-0.19454 0.025369,-0.57479 0.3324137,-0.57479 0.1260199,0 0.2291269,0.16437 0.2291269,0.36525 0,0.37655 -0.2873179,0.48376 -0.5615406,0.20954 z m 1.3529067,-0.14867 c 0.055802,-0.1674 0.2475557,-0.30436 0.4261203,-0.30436 0.1785645,0 0.3703187,0.13696 0.4261202,0.30436 0.060354,0.18107 -0.1122792,0.30438 -0.4261202,0.30438 -0.313841,0 -0.4864742,-0.12331 -0.4261203,-0.30438 z M 5.2418087,285.6825 c 0,-0.13393 0.1643608,-0.2435 0.365246,-0.2435 0.2008853,0 0.365246,0.10957 0.365246,0.2435 0,0.13392 -0.1643607,0.24349 -0.365246,0.24349 -0.2008852,0 -0.365246,-0.10957 -0.365246,-0.24349 z m 1.4609838,0 c 0,-0.13393 0.2191476,-0.2435 0.4869946,-0.2435 0.267847,0 0.4869945,0.10957 0.4869945,0.2435 0,0.13392 -0.2191475,0.24349 -0.4869945,0.24349 -0.267847,0 -0.4869946,-0.10957 -0.4869946,-0.24349 z"
       id="path289"
       inkscape:connector-curvature="0" />
    <path
       style="fill:#ffffff;stroke-width:0.0016434;stroke-miterlimit:4;stroke-dasharray:none"
       d="m 6.5602443,292.65866 c -0.7378357,-0.0551 -1.1640738,-0.14481 -1.3696722,-0.28832 -0.6568821,-0.45849 -0.9319878,-1.76062 -0.8787274,-4.15918 0.032635,-1.46971 0.1627302,-2.28181 0.4680013,-2.92145 0.3355137,-0.70301 0.5730738,-0.75109 3.8840728,-0.78615 1.5575892,-0.0165 2.2039202,-0.01 2.1837972,0.0228 -0.01577,0.0255 0.07911,0.12755 0.211724,0.22767 0.201069,0.15181 0.240402,0.20366 0.240899,0.31753 3.41e-4,0.0748 0.01266,0.18113 0.0274,0.23618 l 0.02681,0.10008 -0.182735,-0.0952 c -0.226909,-0.11827 -0.691866,-0.15772 -0.996764,-0.0846 -0.2174154,0.0522 -0.2577604,0.0828 -0.5876234,0.44639 l -0.147302,0.16236 -0.3855097,-0.009 c -0.4438912,-0.0107 -0.608463,0.0525 -0.9180968,0.35302 -0.3143713,0.30508 -0.4398221,0.64407 -0.3582471,0.96803 0.064285,0.2553 0.007,0.39565 -0.2199859,0.53894 -0.2243447,0.14162 -0.3511399,0.41089 -0.3793873,0.80568 -0.026022,0.36369 0.078652,0.74925 0.2429762,0.89498 0.4410976,0.3912 0.4035593,0.32456 0.3722976,0.66092 -0.024228,0.26069 -0.014588,0.33111 0.068958,0.50369 0.115154,0.23788 0.4264186,0.5612 0.6501463,0.67534 0.2670464,0.13624 0.4376929,0.14848 0.6890033,0.0494 0.1242334,-0.049 0.2512304,-0.0793 0.2822174,-0.0674 0.03099,0.0119 0.117872,0.15369 0.19308,0.31512 0.110508,0.23719 0.171672,0.31313 0.318812,0.39583 0.3732934,0.2098 0.9882374,0.15651 1.2763044,-0.1106 l 0.124139,-0.11511 -0.03168,0.3217 c -0.01742,0.17693 -0.03437,0.32406 -0.03767,0.32696 -0.0033,0.003 -0.149608,0.0861 -0.325132,0.18479 l -0.319135,0.17954 -1.8114661,-0.006 c -0.9963066,-0.003 -2.0364839,-0.0229 -2.3115053,-0.0435 z m -0.666707,-0.97553 c 0.096642,-0.0966 0.1089597,-0.13907 0.089779,-0.30924 -0.030411,-0.26981 -0.1517088,-0.3895 -0.3400113,-0.33549 -0.1439254,0.0413 -0.2719918,0.18272 -0.3219762,0.35561 -0.0221,0.0764 0.00573,0.13323 0.1225132,0.25002 0.1800365,0.18004 0.2984617,0.19033 0.4496953,0.0391 z m 1.6661111,0.004 c 0.1258397,-0.11388 0.1085781,-0.22751 -0.060201,-0.39629 -0.1148543,-0.11485 -0.1837312,-0.14784 -0.3087198,-0.14784 -0.1249883,0 -0.1938654,0.033 -0.3087197,0.14784 -0.081311,0.0813 -0.1478377,0.1859 -0.1478377,0.23241 0,0.0856 0.097959,0.19527 0.2174083,0.24347 0.1294083,0.0522 0.5187254,10e-4 0.6080694,-0.0796 z m -1.6516291,-5.84898 c 0.1482514,-0.14825 0.084178,-0.31333 -0.151852,-0.39122 -0.2498528,-0.0825 -0.5438546,0.057 -0.5438546,0.25792 0,0.12063 0.1770162,0.22027 0.391335,0.22027 0.1594328,0 0.2405984,-0.0232 0.3043716,-0.087 z m 1.6295588,0.036 c 0.1477183,-0.0673 0.1942645,-0.24631 0.084852,-0.32631 -0.3535101,-0.2585 -1.0996712,-0.0685 -0.8984633,0.22878 0.098581,0.14565 0.581067,0.20348 0.8136118,0.0975 z"
       id="path293"
       inkscape:connector-curvature="0" />
    <path
       style="fill:#ffffff;stroke-width:0.0016434;stroke-miterlimit:4;stroke-dasharray:none"
       d="m 6.2558727,283.19491 c 0,-1.42371 0.1950131,-1.71664 1.223605,-1.83794 0.5562133,-0.0656 1.9730189,-0.0358 2.1364209,0.0449 0.132445,0.0654 0.255529,0.24418 0.330149,0.47948 0.05086,0.16037 0.3532044,1.88055 0.3534664,2.01103 1.43e-4,0.0714 -0.125057,0.0761 -2.0217444,0.0761 H 6.2558727 Z"
       id="path295"
       inkscape:connector-curvature="0" />
    <path
       style="fill:#ffffff;stroke-width:0.0016434;stroke-miterlimit:4;stroke-dasharray:none"
       d="m 10.438774,291.41186 c -0.05502,-0.0423 -0.191991,-0.21131 -0.304372,-0.37549 -0.2789534,-0.40753 -0.3868374,-0.45872 -0.966754,-0.45872 -0.2993434,0 -0.4775897,-0.0182 -0.5115881,-0.0522 -0.033518,-0.0335 -0.052519,-0.20846 -0.053133,-0.48917 -0.00136,-0.62457 -0.090008,-0.78124 -0.7095829,-1.25413 -0.087502,-0.0668 -0.1590953,-0.15679 -0.1590953,-0.20002 0,-0.0432 0.1160398,-0.17951 0.257866,-0.30287 0.3413109,-0.29686 0.476262,-0.57429 0.5465932,-1.12365 0.066722,-0.52118 0.097397,-0.5523 0.5120305,-0.51951 0.5486672,0.0434 0.8177672,-0.10114 1.2531536,-0.67308 0.146521,-0.19248 0.282015,-0.33356 0.301097,-0.31352 0.01908,0.02 0.151673,0.19502 0.294644,0.38885 0.354422,0.48049 0.552681,0.58217 1.136967,0.58311 0.228475,3.6e-4 0.444759,0.0193 0.480632,0.0422 0.05164,0.0329 0.06289,0.12434 0.05404,0.43921 -0.01903,0.67651 0.06242,0.81704 0.665626,1.14836 l 0.330959,0.18179 -0.23181,0.1888 c -0.697778,0.56829 -0.752633,0.66697 -0.754862,1.35785 -0.0021,0.6597 0.01276,0.64409 -0.659371,0.69102 -0.615121,0.043 -0.943931,0.10587 -1.017699,0.19476 -0.02998,0.0361 -0.06933,0.17496 -0.08746,0.30853 -0.04359,0.32125 -0.167852,0.39946 -0.377877,0.23786 z m 0.643563,-1.45403 c 0.261228,-0.12338 0.698669,-0.56528 0.85109,-0.85978 0.250421,-0.48383 0.130727,-0.9793 -0.353572,-1.4636 -0.487283,-0.48728 -1.072047,-0.62131 -1.6063004,-0.36816 -0.308542,0.1462 -0.552661,0.40077 -0.710313,0.74073 -0.1530853,0.3301 -0.1633482,0.88012 -0.022132,1.18602 0.121399,0.26297 0.378214,0.50891 0.695741,0.66629 0.5158544,0.25567 0.7670084,0.27726 1.1454864,0.0985 z"
       id="path297"
       inkscape:connector-curvature="0" />
    <path
       style="fill:#ffffff;stroke-width:0.0016434;stroke-miterlimit:4;stroke-dasharray:none"
       d="m 10.341778,289.36409 c -0.06054,-0.0191 -0.154977,-0.0621 -0.209856,-0.0955 -0.1393024,-0.0847 -0.4844804,-0.55134 -0.4844804,-0.655 0,-0.1991 0.6128574,-0.8724 0.8477454,-0.93136 0.248182,-0.0623 0.528543,0.17509 0.721198,0.61062 0.225186,0.50906 -0.05149,0.99841 -0.612346,1.08304 -0.0837,0.0126 -0.20172,0.007 -0.262261,-0.0118 z"
       id="path299"
       inkscape:connector-curvature="0" />
    <path
       style="fill:#ffffff;stroke-width:0.0016434;stroke-miterlimit:4;stroke-dasharray:none"
       d="m 7.2342099,295.83457 c -0.3471621,-0.0496 -0.6206154,-0.15684 -0.6792975,-0.26649 -0.1220043,-0.22797 -0.3113755,-1.11739 -0.4538283,-2.13151 l -0.029012,-0.20654 h 2.1389931 2.1389938 l -0.02487,0.11958 c -0.01368,0.0658 -0.05433,0.32502 -0.09034,0.57613 -0.09262,0.6459 -0.231034,1.20929 -0.3642994,1.48277 -0.09971,0.20461 -0.140611,0.24431 -0.318549,0.30919 -0.4156398,0.15156 -1.6417574,0.21338 -2.3177853,0.11687 z"
       id="path301"
       inkscape:connector-curvature="0" />
  </g>
</svg>
