<?xml version="1.0" encoding="UTF-8" standalone="no"?>
<!-- Created with Inkscape (http://www.inkscape.org/) -->

<svg
   xmlns:dc="http://purl.org/dc/elements/1.1/"
   xmlns:cc="http://creativecommons.org/ns#"
   xmlns:rdf="http://www.w3.org/1999/02/22-rdf-syntax-ns#"
   xmlns:svg="http://www.w3.org/2000/svg"
   xmlns="http://www.w3.org/2000/svg"
   xmlns:sodipodi="http://sodipodi.sourceforge.net/DTD/sodipodi-0.dtd"
   xmlns:inkscape="http://www.inkscape.org/namespaces/inkscape"
   width="64"
   height="64"
   viewBox="0 0 16.933333 16.933334"
   version="1.1"
   id="svg8"
   inkscape:version="0.92.5 (2060ec1f9f, 2020-04-08)"
   sodipodi:docname="shampoo_64x64.svg">
  <defs
     id="defs2" />
  <sodipodi:namedview
     id="base"
     pagecolor="#ffffff"
     bordercolor="#666666"
     borderopacity="1.0"
     inkscape:pageopacity="0.0"
     inkscape:pageshadow="2"
     inkscape:zoom="3.959798"
     inkscape:cx="43.746932"
     inkscape:cy="11.882258"
     inkscape:document-units="mm"
     inkscape:current-layer="layer1"
     showgrid="false"
     units="px"
     inkscape:window-width="1208"
     inkscape:window-height="987"
     inkscape:window-x="1992"
     inkscape:window-y="0"
     inkscape:window-maximized="1" />
  <metadata
     id="metadata5">
    <rdf:RDF>
      <cc:Work
         rdf:about="">
        <dc:format>image/svg+xml</dc:format>
        <dc:type
           rdf:resource="http://purl.org/dc/dcmitype/StillImage" />
        <dc:title></dc:title>
      </cc:Work>
    </rdf:RDF>
  </metadata>
  <g
     inkscape:label="Layer 1"
     inkscape:groupmode="layer"
     id="layer1"
     transform="translate(0,-280.06665)">
    <path
       style="fill:#000000;stroke-width:0.03247204"
       d="M 7.0860045,296.32644 C 6.7901649,296.2209 6.6254792,295.97558 6.2559559,295.09012 4.6956215,291.35126 4.538879,287.15075 5.8148987,283.2703 c 0.334904,-1.01846 0.9315559,-2.36981 1.0818369,-2.45024 0.042228,-0.0226 0.8264032,-0.0339 2.3561846,-0.0339 H 11.54581 l 0.0797,0.0797 0.0797,0.0797 -3.31e-4,7.39699 -3.19e-4,7.39699 -0.07676,0.16235 c -0.09225,0.19514 -0.213457,0.31444 -0.40969,0.40328 -0.141814,0.0643 -0.203097,0.0662 -2.07821,0.0654 -1.5303926,-6.1e-4 -1.957417,-0.01 -2.0539229,-0.0442 z m 4.0199575,-0.55293 0.0797,-0.0797 v -6.1874 c 0,-3.40306 -0.01096,-6.18685 -0.02435,-6.18615 -0.01339,6.9e-4 -1.1854354,0.28322 -2.6045353,0.62786 l -2.5801799,0.62665 -0.072983,0.28946 c -0.1016707,0.40323 -0.226338,1.10676 -0.3015911,1.70198 -0.3407481,2.69514 0.01239,5.47342 1.0215323,8.03683 0.2787478,0.70808 0.4827048,1.13479 0.5724329,1.19764 0.067008,0.0469 0.2753282,0.0526 1.9526406,0.0526 H 11.02626 Z m -3.4164709,-0.74766 c -0.1120381,-0.0785 -0.5217925,-1.11624 -0.7695495,-1.94899 -0.6748313,-2.26822 -0.8382584,-4.64768 -0.4750479,-6.91655 0.09869,-0.61648 0.1509994,-0.83126 0.2190333,-0.89928 0.046346,-0.0464 0.503289,-0.16988 1.7264912,-0.46674 0.9149075,-0.22203 1.7124838,-0.4037 1.7723918,-0.4037 0.079,0 0.127416,0.0234 0.176226,0.0855 l 0.06731,0.0855 v 5.17638 5.17638 l -0.0797,0.0797 -0.0797,0.0797 H 9.0025093 c -1.0459239,0 -1.2553652,-0.007 -1.3130137,-0.0481 z m 2.1972926,-5.26114 c 0,-2.63429 -0.010959,-4.78977 -0.024352,-4.78997 -0.1051952,-0.002 -2.7600612,0.66793 -2.7884386,0.7031 -0.020037,0.0249 -0.0682,0.24439 -0.1070259,0.48789 -0.3115219,1.95386 -0.2478232,3.8743 0.1920744,5.79084 0.178988,0.77982 0.5193552,1.84301 0.7926609,2.476 l 0.052577,0.12177 h 0.9412538 0.9412531 z m -2.0782107,1.15276 v -0.25978 h 0.519553 0.5195524 v 0.25978 0.25977 H 8.328126 7.808573 Z m 0.2597766,-1.03911 v -0.25977 H 8.328126 8.5879019 v 0.25977 0.25978 H 8.328126 8.0683496 Z m -0.055208,-1.09758 C 7.7047845,288.67059 7.54496,288.52849 7.3838635,288.2213 c -0.062251,-0.11872 -0.076221,-0.19539 -0.076747,-0.42115 -5.893e-4,-0.25269 0.00868,-0.2933 0.1096954,-0.48063 0.1943448,-0.3604 0.4994691,-0.5418 0.9113135,-0.5418 0.4215218,0 0.7344006,0.19156 0.9162869,0.56102 0.091903,0.18669 0.1065818,0.25024 0.1065818,0.46141 0,0.21122 -0.01467,0.27472 -0.1066667,0.46158 -0.066159,0.13437 -0.1545894,0.25463 -0.2328411,0.3166 -0.2973612,0.23551 -0.6855183,0.31424 -0.9983447,0.20245 z m 0.5204931,-0.50537 c 0.3336384,-0.1394 0.414972,-0.57681 0.1555035,-0.83627 -0.2106312,-0.21064 -0.5113937,-0.21064 -0.7220256,0 -0.401567,0.40156 0.041519,1.05563 0.5665221,0.83627 z m 0.1758064,-4.89408 2.4757619,-0.59811 2.33e-4,-0.21941 2.33e-4,-0.2194 -2.2436249,0.009 -2.2436245,0.009 -0.111373,0.27601 c -0.061254,0.15181 -0.1848069,0.5025 -0.2745602,0.77933 -0.089753,0.27682 -0.1699903,0.52334 -0.1783045,0.54782 -0.010032,0.0296 0.00414,0.0396 0.042192,0.0298 0.031522,-0.007 1.1714015,-0.28381 2.5330708,-0.61277 z m 2.4762249,-1.81581 v -0.25977 H 9.1776117 7.1695578 l -0.041877,0.0892 c -0.023032,0.0491 -0.076339,0.16602 -0.1184547,0.25978 l -0.076574,0.17047 H 9.0591608 11.18567 Z"
       id="path15744"
       inkscape:connector-curvature="0" />
    <path
       style="fill:#ffffff;stroke-width:0.004959;stroke-miterlimit:4;stroke-dasharray:none"
       d="m 7.8133058,293.99084 c -0.451235,-1.18167 -0.7941194,-2.65034 -0.9367153,-4.0122 -0.1314772,-1.25567 0.03202,-4.07161 0.247788,-4.26767 0.029143,-0.0265 0.6139002,-0.18721 1.2994564,-0.35714 0.6855556,-0.16994 1.2833666,-0.32029 1.3284687,-0.33407 0.065078,-0.0199 0.082004,0.95609 0.082004,4.72908 v 4.75419 H 8.9216027 8.0088973 Z m 1.0369509,-3.06319 v -0.29521 H 8.3254299 7.8006024 v 0.29521 0.29521 H 8.3254299 8.8502567 Z M 8.5878429,289.878 v -0.29521 H 8.3254299 8.0630162 v 0.29521 0.29521 h 0.2624137 0.262413 z m 0.3165031,-1.19414 c 0.4758526,-0.35243 0.6060524,-0.92779 0.3220518,-1.42317 -0.3827268,-0.66757 -1.3998841,-0.67266 -1.7888523,-0.009 -0.3383556,0.57737 -0.1112332,1.28462 0.4942971,1.53926 0.2416801,0.10159 0.7690754,0.0435 0.9725034,-0.10716 z"
       id="path15746"
       inkscape:connector-curvature="0" />
    <path
       style="fill:#ffffff;stroke-width:0.004959;stroke-miterlimit:4;stroke-dasharray:none"
       d="m 6.9492057,295.27486 c -0.5630058,-1.20481 -1.07291,-2.97422 -1.2811215,-4.44562 -0.1516735,-1.07184 -0.1958195,-2.63318 -0.1020207,-3.60818 0.067604,-0.70271 0.3667351,-2.5495 0.421886,-2.60464 0.010107,-0.0106 1.1232277,-0.2851 2.4735975,-0.6111 1.3503698,-0.32598 2.50703,-0.60873 2.570358,-0.62831 0.109306,-0.0338 0.114292,0.27957 0.09841,6.18485 l -0.01673,6.22045 -1.9554976,0.0173 -1.9554974,0.0173 z m 3.3968103,-0.26012 c 0.05992,-0.0599 0.07871,-1.32905 0.07871,-5.31157 0,-4.99645 -0.0053,-5.23574 -0.119602,-5.29684 -0.163702,-0.0877 -3.4486974,0.67978 -3.6626968,0.85562 -0.172502,0.14175 -0.4163212,2.07413 -0.4163212,3.29953 0,1.99536 0.5074467,4.4862 1.2456141,6.1142 l 0.1894323,0.41779 h 1.3030668 c 0.9260213,0 1.3258408,-0.0228 1.3817878,-0.0787 z"
       id="path15748"
       inkscape:connector-curvature="0" />
    <path
       style="fill:#ffffff;stroke-width:0.004959;stroke-miterlimit:4;stroke-dasharray:none"
       d="m 7.9974125,288.13951 c -0.2871287,-0.28713 -0.075516,-0.80911 0.3280174,-0.80911 0.1469282,0 0.2564195,0.0483 0.33824,0.14941 0.2613404,0.32274 0.061122,0.7909 -0.33824,0.7909 -0.1093398,0 -0.255125,-0.0583 -0.3280174,-0.1312 z"
       id="path15750"
       inkscape:connector-curvature="0" />
    <path
       style="fill:#ffffff;stroke-width:0.004959;stroke-miterlimit:4;stroke-dasharray:none"
       d="m 6.3989082,283.26846 c 0.1286844,-0.36985 0.2615754,-0.7241 0.2953135,-0.78725 0.056547,-0.10585 0.2329889,-0.11481 2.2567489,-0.11481 h 2.1954074 v 0.1924 c 0,0.1264 -0.03938,0.20417 -0.114806,0.22674 -0.211908,0.0634 -4.7624622,1.15535 -4.8148651,1.15535 -0.028476,0 0.053516,-0.30261 0.1822013,-0.67243 z"
       id="path15752"
       inkscape:connector-curvature="0" />
    <path
       style="fill:#ffffff;stroke-width:0.004959;stroke-miterlimit:4;stroke-dasharray:none"
       d="m 7.0133612,281.73992 c 0,-0.0199 0.045042,-0.12317 0.1000898,-0.22962 l 0.1000898,-0.19355 h 1.9664181 1.9664191 v 0.22961 0.22961 H 9.079869 c -1.1365794,0 -2.0665078,-0.0162 -2.0665078,-0.0361 z"
       id="path15754"
       inkscape:connector-curvature="0" />
  </g>
</svg>
