<?xml version="1.0" encoding="UTF-8" standalone="no"?>
<!-- Created with Inkscape (http://www.inkscape.org/) -->

<svg
   xmlns:dc="http://purl.org/dc/elements/1.1/"
   xmlns:cc="http://creativecommons.org/ns#"
   xmlns:rdf="http://www.w3.org/1999/02/22-rdf-syntax-ns#"
   xmlns:svg="http://www.w3.org/2000/svg"
   xmlns="http://www.w3.org/2000/svg"
   xmlns:sodipodi="http://sodipodi.sourceforge.net/DTD/sodipodi-0.dtd"
   xmlns:inkscape="http://www.inkscape.org/namespaces/inkscape"
   width="64"
   height="64"
   viewBox="0 0 16.933333 16.933334"
   version="1.1"
   id="svg8"
   inkscape:version="0.92.5 (2060ec1f9f, 2020-04-08)"
   sodipodi:docname="shaving_foam_64x64.svg">
  <defs
     id="defs2" />
  <sodipodi:namedview
     id="base"
     pagecolor="#ffffff"
     bordercolor="#666666"
     borderopacity="1.0"
     inkscape:pageopacity="0.0"
     inkscape:pageshadow="2"
     inkscape:zoom="7.919596"
     inkscape:cx="40.927282"
     inkscape:cy="19.482402"
     inkscape:document-units="mm"
     inkscape:current-layer="layer1"
     showgrid="false"
     units="px"
     inkscape:window-width="1208"
     inkscape:window-height="987"
     inkscape:window-x="1992"
     inkscape:window-y="0"
     inkscape:window-maximized="1" />
  <metadata
     id="metadata5">
    <rdf:RDF>
      <cc:Work
         rdf:about="">
        <dc:format>image/svg+xml</dc:format>
        <dc:type
           rdf:resource="http://purl.org/dc/dcmitype/StillImage" />
        <dc:title></dc:title>
      </cc:Work>
    </rdf:RDF>
  </metadata>
  <g
     inkscape:label="Layer 1"
     inkscape:groupmode="layer"
     id="layer1"
     transform="translate(0,-280.06665)">
    <path
       style="fill:#000000;stroke-width:0.03104066"
       d="m 3.1309848,296.51067 c -0.3176006,-0.0622 -0.6747487,-0.32283 -0.8482172,-0.61883 -0.1874896,-0.31992 -0.1809566,-0.14979 -0.1694238,-4.41212 0.011247,-4.15607 0.00631,-4.01656 0.1626698,-4.62098 0.062246,-0.24066 0.2078551,-0.66677 0.2792424,-0.81722 0.092991,-0.19597 0.3103133,-0.20375 0.4163008,-0.0149 0.042463,0.0756 0.03763,0.10366 -0.066981,0.38756 -0.2602166,0.7063 -0.3325227,1.18179 -0.3333021,2.19175 -3.165e-4,0.40547 0.00558,0.73721 0.013162,0.73721 0.018844,0 6.4824705,-3.72774 6.5167685,-3.75838 0.03292,-0.0294 -0.2486326,-0.45761 -0.4933313,-0.75028 l -0.1751853,-0.2095 H 6.2205169 4.0083457 l -0.1644724,0.19401 c -0.090461,0.10676 -0.2397807,0.30124 -0.331824,0.43232 -0.1868291,0.26606 -0.2901422,0.32123 -0.4299423,0.22964 -0.1694408,-0.11104 -0.1371839,-0.24938 0.1488171,-0.6383 l 0.1709125,-0.23242 -0.085631,-0.0361 c -0.047093,-0.0199 -0.1223551,-0.0841 -0.1672407,-0.143 l -0.08161,-0.107 1.158e-4,-0.60237 c 1.052e-4,-0.54267 0.00615,-0.61221 0.060708,-0.70174 0.068251,-0.11188 0.2074535,-0.19551 0.3256416,-0.19551 h 0.079147 v -0.3006 c 0,-0.55124 0.1499018,-0.707 0.7247596,-0.75301 0.5049721,-0.0403 0.7859635,-0.20368 0.999317,-0.58062 0.1610574,-0.28456 0.2326124,-0.37261 0.3638348,-0.44777 l 0.1314961,-0.0753 1.3136524,-0.01 1.3136518,-0.01 0.1662776,0.0762 c 0.1992983,0.0913 0.3258845,0.26122 0.3493114,0.46907 l 0.015805,0.14025 0.7176593,5e-5 c 0.8035317,5e-5 0.8707707,0.0144 1.0041647,0.21407 0.06141,0.0919 0.07046,0.14496 0.07046,0.41283 0,0.32351 -0.02859,0.42243 -0.155215,0.53715 -0.06354,0.0576 -0.124412,0.0632 -0.8490347,0.0776 l -0.7805883,0.0156 -0.00964,0.1164 c -0.00893,0.10723 -0.00321,0.11639 0.071385,0.11639 0.1160512,0 0.2482272,0.0767 0.3298682,0.19132 0.06357,0.0893 0.07191,0.1431 0.08389,0.54153 0.01897,0.63047 -0.0038,0.77399 -0.144897,0.91424 -0.06233,0.0619 -0.134084,0.1194 -0.15945,0.12764 -0.0408,0.0133 -0.0408,0.0222 0,0.0782 0.5326821,0.72999 0.8352891,1.32915 1.0382718,2.05586 0.17464,0.62521 0.182338,0.70683 0.195438,2.07191 0.0121,1.26066 0.01142,1.27892 -0.05221,1.34251 -0.086,0.086 -0.253008,0.0856 -0.3312697,-8.1e-4 -0.05542,-0.0612 -0.06036,-0.14543 -0.07867,-1.34251 -0.02044,-1.33637 -0.0266,-1.40224 -0.183953,-1.96865 -0.08665,-0.31192 -0.3091221,-0.85012 -0.3462791,-0.83773 -0.01592,0.006 -1.5429323,0.88233 -3.3933506,1.94894 l -3.3643978,1.93929 0.00105,2.76263 c 7.981e-4,2.03542 0.010676,2.78863 0.037517,2.86145 0.068283,0.18521 0.2224402,0.36457 0.3952911,0.4599 l 0.1688394,0.0931 1.7495496,0.008 1.7495496,0.008 -0.1322391,-0.14843 C 6.3567265,295.72032 6.1805276,295.33266 6.1361932,295.03459 6.009256,294.18111 6.5602573,293.3434 7.4025924,293.1092 l 0.1911336,-0.0532 0.011902,-0.45352 c 0.010664,-0.40687 0.020058,-0.4711 0.091212,-0.62426 0.08645,-0.18608 0.3140626,-0.45728 0.4406348,-0.52502 l 0.079705,-0.0426 -0.1646044,-0.1819 c -0.243645,-0.26923 -0.2671024,-0.36802 -0.2669624,-1.12419 9.32e-5,-0.57212 0.00543,-0.63369 0.062764,-0.72775 0.1085318,-0.17802 0.3612551,-0.24156 0.5480916,-0.13782 0.053807,0.0299 0.5258789,0.43845 1.0490526,0.90794 0.5846738,0.52468 1.0252428,0.89549 1.1433128,0.96226 l 0.192089,0.10866 0.791538,0.0194 c 0.840343,0.0207 0.916918,0.0332 1.195833,0.19668 0.176883,0.10366 0.378568,0.33171 0.470017,0.53146 0.09151,0.19987 0.13303,0.45623 0.133883,0.82656 l 6.23e-4,0.27041 0.131923,0.034 c 0.200857,0.0518 0.392358,0.13291 0.459516,0.19463 0.127379,0.11712 0.03823,0.39456 -0.126765,0.39456 -0.03466,0 -0.149897,-0.0383 -0.256085,-0.0853 l -0.193069,-0.0853 -1.195065,-0.0156 c -0.657286,-0.008 -1.213387,-0.0274 -1.235781,-0.0419 -0.128479,-0.0829 -0.10121,-0.32245 0.04427,-0.38872 0.05165,-0.0236 0.378821,-0.035 0.99503,-0.035 h 0.918065 l -0.01367,-0.36474 c -0.01551,-0.41391 -0.06904,-0.57555 -0.246157,-0.7434 -0.20209,-0.19152 -0.272722,-0.20549 -1.144656,-0.22659 -1.116518,-0.027 -0.982434,0.0411 -2.3746118,-1.20545 l -0.8691377,-0.77818 -0.00893,0.47187 c -0.00488,0.25953 -0.00105,0.50365 0.00857,0.54249 0.024898,0.10093 0.2140453,0.3003 0.3734081,0.39369 0.1667014,0.0977 0.2322225,0.1864 0.2322225,0.31443 0,0.13658 -0.099472,0.24793 -0.2729826,0.30556 -0.2034685,0.0676 -0.3729813,0.2162 -0.4601745,0.40345 -0.066795,0.14344 -0.073319,0.199 -0.073594,0.62614 -4.338e-4,0.66354 -0.015411,0.69161 -0.4027517,0.75489 -1.0268344,0.16771 -1.4385175,1.42484 -0.706374,2.15698 0.091719,0.0918 0.2246474,0.19629 0.2953978,0.23239 0.3138189,0.1601 0.282718,0.15858 3.2178369,0.15666 3.06629,-10e-4 2.967315,0.005 3.315697,-0.22736 0.347326,-0.23141 0.544364,-0.57148 0.573359,-0.98958 0.01448,-0.20885 0.005,-0.2761 -0.07102,-0.50494 l -0.08773,-0.264 0.06307,-0.0849 c 0.04426,-0.0595 0.09602,-0.0876 0.173586,-0.0943 0.144581,-0.0124 0.216846,0.0653 0.309211,0.33252 0.0584,0.16895 0.07037,0.2669 0.06862,0.5616 -0.0019,0.30937 -0.01308,0.38505 -0.08432,0.56744 -0.222371,0.56932 -0.661467,0.95868 -1.251286,1.10953 -0.234159,0.0599 -0.356125,0.0613 -5.224577,0.058 -2.7416514,-10e-4 -5.0469814,-0.0156 -5.1229557,-0.0305 z m 5.7961714,-12.79367 0.00869,-0.42681 H 7.3533034 c -1.0936625,0 -1.6058538,-0.0107 -1.6581288,-0.0345 -0.073796,-0.0336 -0.144566,-0.14456 -0.144566,-0.22665 0,-0.0225 0.028954,-0.0777 0.064335,-0.1227 l 0.064333,-0.0818 h 1.3790572 1.3790563 v -0.80484 c 0,-0.6903 -0.0069,-0.81179 -0.048772,-0.85362 -0.042702,-0.0427 -0.2023471,-0.0488 -1.282776,-0.0488 H 5.8718379 l -0.063079,0.0699 c -0.034693,0.0383 -0.1034772,0.14612 -0.1528538,0.23933 -0.2504831,0.47288 -0.8175235,0.8083 -1.3664267,0.8083 -0.2951672,0 -0.2909039,-0.005 -0.2909039,0.31372 v 0.27605 H 4.477452 4.9563294 l 0.064333,0.0818 c 0.1044555,0.13278 0.073545,0.26535 -0.081068,0.34771 -0.045515,0.0242 -0.2878255,0.0361 -0.7372152,0.0361 H 3.5329643 v 0.43474 0.43474 l 2.6927775,-0.008 2.6927775,-0.008 z m 1.3105918,-1.74603 v -0.17073 H 9.5703743 8.9029998 v 0.15003 c 0,0.0825 0.00928,0.15934 0.020697,0.17072 0.011425,0.0119 0.3117004,0.0207 0.6673735,0.0207 h 0.6466817 z"
       id="path15629"
       inkscape:connector-curvature="0" />
    <path
       style="fill:none;stroke:#000000;stroke-width:0.03104066px;stroke-linecap:butt;stroke-linejoin:miter;stroke-opacity:1"
       d="m 10.106978,289.97596 v 0.94067"
       id="path15631"
       inkscape:connector-curvature="0" />
    <path
       style="fill:none;stroke:#000000;stroke-width:0.03104066px;stroke-linecap:butt;stroke-linejoin:miter;stroke-opacity:1"
       d="m 13.822641,293.47213 0.721184,0.76822"
       id="path15633"
       inkscape:connector-curvature="0" />
    <path
       style="fill:none;stroke:#000000;stroke-width:0.03104066px;stroke-linecap:butt;stroke-linejoin:miter;stroke-opacity:1"
       d="m 3.318446,285.19419 -0.6114387,0.98772"
       id="path15635"
       inkscape:connector-curvature="0" />
    <path
       style="fill:#ffffff;stroke-width:0.00167599;stroke-miterlimit:4;stroke-dasharray:none"
       d="m 2.5902843,288.64791 c 1.246e-4,-1.04012 0.051269,-1.41631 0.2890592,-2.12563 0.072671,-0.2168 0.1321314,-0.40732 0.1321314,-0.4234 0,-0.0161 -0.024097,-0.0646 -0.053545,-0.10806 l -0.053543,-0.0788 0.1164213,-0.18686 c 0.096995,-0.1557 0.1270871,-0.18812 0.180335,-0.19437 0.099722,-0.0119 0.1718488,-0.0763 0.344656,-0.30897 0.088104,-0.11866 0.228914,-0.29798 0.3129116,-0.39858 l 0.1527227,-0.18291 h 2.2124221 2.2124217 l 0.1553985,0.194 c 0.2562288,0.31988 0.4951214,0.67071 0.4947624,0.72656 -6.7e-5,0.012 -0.02752,0.0376 -0.06097,0.057 -3.3032756,1.91352 -6.4067689,3.70072 -6.426349,3.70072 -0.00494,0 -0.00887,-0.30181 -0.00883,-0.67069 z"
       id="path15637"
       inkscape:connector-curvature="0" />
    <path
       style="fill:#ffffff;stroke-width:0.00167599;stroke-miterlimit:4;stroke-dasharray:none"
       d="m 3.5436003,283.73758 v -0.42042 l 0.6680571,-0.015 c 0.7311784,-0.0164 0.7881684,-0.0264 0.8516953,-0.14923 0.045717,-0.0884 0.040609,-0.1316 -0.028104,-0.23757 l -0.060383,-0.0932 H 4.4920377 4.0092094 v -0.23895 c 0,-0.32029 0.011988,-0.33752 0.2349977,-0.33752 0.2595585,0 0.4794838,-0.0538 0.7387306,-0.18064 0.1944288,-0.0951 0.2595552,-0.14154 0.4116628,-0.29322 0.1118832,-0.11152 0.2203291,-0.24775 0.284774,-0.35758 0.057244,-0.0976 0.1232275,-0.20007 0.1466284,-0.2278 l 0.042544,-0.0505 1.2420805,0.006 c 0.9825561,0.005 1.2480997,0.012 1.270891,0.0349 0.022339,0.0224 0.030289,0.21062 0.035395,0.83698 l 0.00655,0.8082 H 7.0416416 5.6598193 l -0.060384,0.0931 c -0.033211,0.0513 -0.060383,0.10663 -0.060383,0.12304 0,0.0459 0.056482,0.1448 0.1108894,0.19407 0.045645,0.0414 0.091372,0.0452 0.6840556,0.0586 0.3493281,0.008 1.0763089,0.0154 1.6155119,0.0167 l 0.9803695,0.002 -0.013425,0.40464 c -0.00738,0.22255 -0.014532,0.40601 -0.015889,0.4077 -0.00143,0.001 -1.2072389,0.0107 -2.6797308,0.0193 l -2.6772574,0.0163 z"
       id="path15639"
       inkscape:connector-curvature="0" />
    <path
       style="fill:#ffffff;stroke-width:0.00167599;stroke-miterlimit:4;stroke-dasharray:none"
       d="m 9.0202552,282.11849 c -0.098187,-0.0119 -0.1103025,-0.0325 -0.1107191,-0.18866 l -3.392e-4,-0.12749 h 0.6540704 0.6540707 v 0.1663 0.16629 l -0.5598397,-0.004 c -0.3079121,-10e-4 -0.5946741,-0.008 -0.6372481,-0.0128 z"
       id="path15641"
       inkscape:connector-curvature="0" />
    <path
       style="fill:#ffffff;stroke-width:0.00167599;stroke-miterlimit:4;stroke-dasharray:none"
       d="m 4.8628288,296.05915 -1.7072364,-0.0119 -0.1108596,-0.0657 c -0.1517198,-0.0897 -0.3237419,-0.26664 -0.3891054,-0.4 l -0.054329,-0.1108 -0.00558,-2.79367 -0.00558,-2.79366 2.2550372,-1.29706 c 3.1577376,-1.81627 4.4376346,-2.54985 4.4714016,-2.5628 0.05598,-0.0214 0.2914431,0.57135 0.4007631,1.00904 0.09218,0.36907 0.103292,0.51675 0.133587,1.77549 0.01808,0.75137 0.03889,1.25433 0.05344,1.29162 0.0136,0.0349 0.05732,0.0771 0.1019237,0.0983 l 0.07811,0.0373 v 0.23284 0.23285 l -0.06097,-0.0559 c -0.1174077,-0.10759 -1.0391306,-0.92088 -1.3136865,-1.15909 -0.1524314,-0.13226 -0.3092545,-0.25408 -0.3484948,-0.27073 -0.1472206,-0.0625 -0.3788568,-0.0151 -0.4795166,0.0982 -0.088581,0.0996 -0.1012397,0.19255 -0.1017967,0.74735 -8.039e-4,0.80218 0.020738,0.89566 0.2736191,1.18717 l 0.1412902,0.16287 -0.094423,0.0599 c -0.1244055,0.0789 -0.3044821,0.3027 -0.4032552,0.50118 l -0.07939,0.15952 -0.018398,0.41695 c -0.010116,0.22932 -0.018852,0.43828 -0.019402,0.46436 -7.82e-4,0.037 -0.019321,0.0508 -0.084149,0.0628 -0.2951016,0.0551 -0.664332,0.26954 -0.9035049,0.52486 -0.3247254,0.34663 -0.4754584,0.72511 -0.4763108,1.19597 -4.849e-4,0.2672 0.054985,0.49469 0.1860237,0.76293 0.097193,0.19896 0.1355263,0.25884 0.2755213,0.43044 0.059235,0.0726 0.06584,0.0895 0.03326,0.0853 -0.022365,-0.004 -0.8089209,-0.0107 -1.7479008,-0.0165 z"
       id="path15643"
       inkscape:connector-curvature="0" />
    <path
       style="fill:#ffffff;stroke-width:0.00167599;stroke-miterlimit:4;stroke-dasharray:none"
       d="m 7.7673482,296.04466 c -0.3519158,-0.0313 -0.5450738,-0.12023 -0.7873233,-0.36249 -0.265511,-0.26551 -0.3769517,-0.52907 -0.3764386,-0.89028 8.905e-4,-0.62591 0.4217937,-1.12029 1.0639886,-1.24972 0.3836796,-0.0772 0.382739,-0.0757 0.4024901,-0.71874 0.01678,-0.54645 0.030524,-0.61655 0.1548046,-0.78961 0.080563,-0.11223 0.2469964,-0.2315 0.4021628,-0.2883 0.1252248,-0.0458 0.2299505,-0.15628 0.2501044,-0.2637 0.020756,-0.11069 -0.044071,-0.22862 -0.1774745,-0.32294 -0.1601365,-0.11318 -0.3811942,-0.32647 -0.409672,-0.39522 -0.01621,-0.039 -0.022613,-0.22434 -0.018685,-0.53986 l 0.00595,-0.4803 0.7538439,0.6762 c 0.8752111,0.78506 1.1548308,1.01598 1.3624758,1.12509 0.238448,0.1253 0.366774,0.14468 1.116355,0.16862 0.369591,0.0119 0.725563,0.0317 0.791051,0.044 0.230038,0.0436 0.45136,0.23232 0.522022,0.44506 0.03956,0.1191 0.07555,0.43395 0.07649,0.66917 l 6.01e-4,0.14965 -0.703958,10e-4 c -0.387177,8.1e-4 -0.815947,0.008 -0.952823,0.0179 -0.216728,0.014 -0.255897,0.0229 -0.303323,0.0674 -0.10941,0.10283 -0.08695,0.3316 0.0358,0.36484 0.02792,0.007 0.584288,0.0244 1.236359,0.0375 l 1.185585,0.0237 0.144731,0.0631 c 0.212305,0.0925 0.296888,0.11164 0.35783,0.0813 0.04718,-0.0236 0.06385,-0.0124 0.210444,0.14052 0.157935,0.16473 0.158897,0.16647 0.119733,0.21626 -0.0383,0.0487 -0.03719,0.0574 0.03713,0.28868 0.06462,0.20116 0.07648,0.26973 0.07572,0.43804 -0.0017,0.36854 -0.115087,0.65583 -0.354201,0.89703 -0.0807,0.0814 -0.208584,0.18518 -0.284183,0.23059 -0.270182,0.16234 -0.12421,0.15495 -3.143991,0.15925 -1.4877338,0.002 -2.7448805,3.2e-4 -2.7936586,-0.004 z"
       id="path15645"
       inkscape:connector-curvature="0" />
  </g>
</svg>
