<?xml version="1.0" encoding="UTF-8" standalone="no"?>
<!-- Created with Inkscape (http://www.inkscape.org/) -->

<svg
   xmlns:dc="http://purl.org/dc/elements/1.1/"
   xmlns:cc="http://creativecommons.org/ns#"
   xmlns:rdf="http://www.w3.org/1999/02/22-rdf-syntax-ns#"
   xmlns:svg="http://www.w3.org/2000/svg"
   xmlns="http://www.w3.org/2000/svg"
   xmlns:sodipodi="http://sodipodi.sourceforge.net/DTD/sodipodi-0.dtd"
   xmlns:inkscape="http://www.inkscape.org/namespaces/inkscape"
   width="64"
   height="64"
   viewBox="0 0 16.933333 16.933333"
   version="1.1"
   id="svg8"
   inkscape:version="0.92.5 (2060ec1f9f, 2020-04-08)"
   sodipodi:docname="shaving_64x64.svg">
  <defs
     id="defs2" />
  <sodipodi:namedview
     id="base"
     pagecolor="#ffffff"
     bordercolor="#666666"
     borderopacity="1.0"
     inkscape:pageopacity="0.0"
     inkscape:pageshadow="2"
     inkscape:zoom="5.6"
     inkscape:cx="-5.0897986"
     inkscape:cy="46.157966"
     inkscape:document-units="mm"
     inkscape:current-layer="layer1"
     showgrid="false"
     units="px"
     inkscape:window-width="1208"
     inkscape:window-height="987"
     inkscape:window-x="1992"
     inkscape:window-y="0"
     inkscape:window-maximized="1" />
  <metadata
     id="metadata5">
    <rdf:RDF>
      <cc:Work
         rdf:about="">
        <dc:format>image/svg+xml</dc:format>
        <dc:type
           rdf:resource="http://purl.org/dc/dcmitype/StillImage" />
        <dc:title></dc:title>
      </cc:Work>
    </rdf:RDF>
  </metadata>
  <g
     inkscape:label="Layer 1"
     inkscape:groupmode="layer"
     id="layer1"
     transform="translate(0,-280.06667)">
    <path
       style="fill:#000000;stroke-width:0.12172116"
       d="m 0.74421557,295.82415 c -0.0460257,-0.046 -0.0836832,-1.09797 -0.0836832,-2.33767 0,-2.04813 0.0235824,-2.3027 0.25818827,-2.78734 0.34376186,-0.71012 1.02038386,-1.15163 1.87329966,-1.22234 l 0.6561817,-0.0543 -0.073375,-0.38102 c -0.040353,-0.20955 -0.1472214,-0.48905 -0.237483,-0.6211 -0.2118243,-0.3099 -0.2112424,-0.96906 0.00101,-1.14521 0.110897,-0.092 0.1863629,-0.55322 0.2298048,-1.4044 0.1015475,-1.98975 0.70741,-3.0565 2.1873617,-3.85132 0.6833404,-0.367 0.8690379,-0.41131 1.7388124,-0.41485 1.1621566,-0.004 2.0578491,0.3498 2.8269801,1.11892 0.809563,0.80958 1.061545,1.47917 1.110364,2.95063 0.034,1.02468 0.08757,1.33152 0.273873,1.56836 0.287856,0.36596 0.294489,0.72638 0.02056,1.117 -0.116079,0.16553 -0.222518,0.47898 -0.236531,0.69656 -0.02441,0.37908 -0.0066,0.3957 0.424064,0.39826 0.98285,0.006 1.959976,0.7562 2.214201,1.70031 0.07308,0.27141 0.11355,1.37683 0.09449,2.58105 -0.02811,1.77633 -0.06194,2.10634 -0.215916,2.10634 -0.153752,0 -0.192192,-0.36518 -0.243442,-2.31271 -0.05333,-2.02674 -0.09096,-2.36368 -0.304303,-2.72496 -0.35612,-0.60307 -0.933307,-0.86581 -1.902014,-0.86581 -0.768938,0 -0.814335,0.016 -0.888918,0.31315 -0.05523,0.22006 -0.240101,0.38459 -0.6218025,0.55344 -0.4918665,0.21759 -0.5432042,0.28001 -0.5432042,0.66062 v 0.42032 h 0.6634762 c 2.1922385,0 3.1098805,0.89675 3.1098805,3.03908 0,0.6922 -0.08782,0.97772 -0.300739,0.97772 -0.107931,0 -0.170936,-0.34339 -0.213972,-1.16614 -0.04702,-0.8989 -0.115312,-1.23892 -0.297978,-1.48357 -0.473235,-0.63385 -0.799982,-0.77972 -1.900364,-0.84837 -0.8944329,-0.0559 -1.0955904,-0.031 -1.4452708,0.17816 -0.564939,0.3379 -2.6627192,0.32597 -3.1797782,-0.0181 -0.2857665,-0.19015 -0.4992917,-0.21567 -1.3568925,-0.16217 -1.7226586,0.10748 -2.1539031,0.55523 -2.2573882,2.34382 -0.050018,0.86446 -0.1018856,1.0955 -0.2459641,1.0955 -0.1426538,0 -0.190978,-0.19965 -0.2209708,-0.91292 -0.044819,-1.06581 0.1047505,-1.669 0.5430143,-2.18987 0.4776006,-0.56758 0.9298165,-0.74159 2.129193,-0.8193 l 1.0911759,-0.0707 -0.036676,-0.42791 c -0.031624,-0.36886 -0.09548,-0.44706 -0.4627045,-0.56665 -0.2864377,-0.0933 -0.485847,-0.26523 -0.6086052,-0.52479 -0.1772684,-0.37485 -0.2056079,-0.38615 -0.9737693,-0.38852 -0.9038533,-0.002 -1.4881881,0.23566 -1.8780263,0.7664 -0.2289365,0.3117 -0.2576854,0.56238 -0.3129545,2.72885 -0.057101,2.23814 -0.1287007,2.66214 -0.40320148,2.38765 z m 7.85862303,-3.62744 c 0.1278085,-0.0561 0.2130119,-0.22585 0.2130119,-0.42457 0,-0.30775 -0.032368,-0.32878 -0.4564541,-0.29674 -0.2510505,0.019 -0.6626136,0.0704 -0.9145855,0.11431 -0.2708119,0.0472 -0.5231853,0.0258 -0.6172352,-0.0522 -0.087506,-0.0726 -0.3331287,-0.11979 -0.5458271,-0.10477 -0.3322118,0.0235 -0.3867559,0.0735 -0.3869645,0.35591 -1.331e-4,0.1808 0.083582,0.37561 0.1860427,0.43295 0.2252226,0.12603 2.2226541,0.10635 2.5220118,-0.0248 z m -0.8611387,-1.24297 c 0.1842562,-0.16675 0.2777433,-0.177 0.5370437,-0.0588 0.2826697,0.1288 0.3489936,0.10557 0.6656034,-0.23339 0.1934072,-0.20705 0.4068082,-0.34235 0.4742239,-0.30069 0.2184354,0.13501 0.5972841,-0.16994 0.6368321,-0.51259 0.02556,-0.22141 0.120454,-0.34779 0.281962,-0.37548 0.355056,-0.0609 0.545326,-0.36804 0.467871,-0.7553 -0.05237,-0.26188 -0.0095,-0.37014 0.188626,-0.47617 0.495029,-0.26494 0.201257,-0.91973 -0.375924,-0.8379 -0.231932,0.0329 -0.280573,0.11364 -0.280573,0.46579 0,0.28372 -0.09463,0.52066 -0.283284,0.70932 -0.1606685,0.16066 -0.2527783,0.36278 -0.2128055,0.46695 0.04788,0.12475 -0.043872,0.22683 -0.2859786,0.31821 -0.1960531,0.0739 -0.4138435,0.26049 -0.4839794,0.41442 -0.1645986,0.36125 -0.6727886,0.34089 -1.1472842,-0.0461 -0.4451876,-0.36297 -0.8212462,-0.35538 -1.177443,0.0238 -0.3922088,0.41748 -1.0040598,0.41921 -1.1935333,0.003 -0.075416,-0.16552 -0.2759197,-0.33578 -0.4455619,-0.37836 -0.2199388,-0.0553 -0.3084434,-0.15896 -0.3084434,-0.36161 0,-0.15632 -0.1098482,-0.36115 -0.2441008,-0.45518 -0.1864747,-0.13062 -0.2271005,-0.25599 -0.1720896,-0.53104 0.085262,-0.42632 -0.1578735,-0.68967 -0.5813089,-0.62965 -0.3855548,0.0546 -0.4536043,0.61688 -0.1042768,0.86156 0.1934038,0.13545 0.2345146,0.25851 0.1790378,0.5359 -0.077344,0.38675 0.074751,0.59169 0.4967191,0.6693 0.150553,0.0276 0.2595034,0.16041 0.2855354,0.34782 0.061894,0.4456 0.2627491,0.63363 0.5893039,0.55168 0.2214243,-0.0556 0.3145561,-0.004 0.4211134,0.2289 0.1755304,0.38525 0.3937223,0.46448 0.7864285,0.28554 0.2651694,-0.12081 0.3327621,-0.11075 0.4306296,0.0641 0.1476974,0.26392 0.5671573,0.26664 0.8556611,0.006 z m -1.2887911,-1.6339 c 0.4259775,-0.40019 1.1216403,-0.43474 1.6393534,-0.0814 l 0.4327636,0.29535 0.4497155,-0.38875 c 0.2473434,-0.21382 0.4497156,-0.44471 0.4497156,-0.5131 0,-0.0683 0.082161,-0.19254 0.1825815,-0.27588 0.1004197,-0.0833 0.1825813,-0.31931 0.1825813,-0.52438 0,-0.42282 0.4121433,-0.93628 0.7515443,-0.93628 0.379249,0 0.290325,-0.70933 -0.145262,-1.15873 l -0.367487,-0.37917 -0.8801553,0.29748 c -1.2192067,0.41205 -2.5118864,0.4043 -3.6785746,-0.022 l -0.8508814,-0.31094 -0.3967605,0.38454 c -0.5518575,0.53489 -0.5445099,1.00214 0.019466,1.23778 0.4273614,0.17856 0.6792645,0.50379 0.6792645,0.87697 0,0.35348 0.4124303,1.13444 0.6391654,1.21029 0.1172274,0.0391 0.2697844,0.17713 0.3390158,0.30649 0.1586336,0.2964 0.2212348,0.29435 0.5539541,-0.0182 z m 2.7586524,-4.21869 0.9434558,-0.31724 0.304186,0.28577 c 0.289701,0.27216 0.304186,0.2742 0.304186,0.0428 0,-0.46773 -0.381924,-1.3576 -0.7845505,-1.82797 -1.2585232,-1.47031 -3.4426346,-1.64172 -4.8732133,-0.38248 -0.6271373,0.55204 -1.1554676,1.50946 -1.1574323,2.09747 l -0.00124,0.35595 0.2817178,-0.26465 c 0.3451331,-0.32423 0.4020433,-0.32542 1.0868712,-0.0225 1.223701,0.54129 2.3554294,0.55084 3.895968,0.0328 z M 7.1660604,295.527 c -0.1254367,-0.20298 0.1566803,-0.43572 0.3245957,-0.2678 0.1404569,0.14045 0.052556,0.40011 -0.1354595,0.40011 -0.059041,0 -0.144156,-0.0596 -0.1891362,-0.13231 z m 0.029379,-0.92007 c -0.1672253,-0.16723 -0.080492,-0.42551 0.1293287,-0.3851 0.1171564,0.0226 0.213012,0.11787 0.213012,0.21179 0,0.19218 -0.2147521,0.3009 -0.3423407,0.17331 z m -0.083683,-1.19945 c 0,-0.10144 0.1082017,-0.18258 0.2434424,-0.18258 0.1352452,0 0.2434423,0.0811 0.2434423,0.18258 0,0.10143 -0.1082016,0.18257 -0.2434423,0.18257 -0.1352453,0 -0.2434424,-0.0812 -0.2434424,-0.18257 z m 5.6540016,-4.85072 c -0.360122,-0.34974 -0.41999,-0.48856 -0.41999,-0.97377 v -0.56588 h 0.608604 0.608607 v -1.94064 c 0,-1.86741 0.01027,-1.94779 0.270527,-2.13012 0.371143,-0.25996 0.543207,-0.23885 0.891356,0.10929 0.29064,0.29064 0.298771,0.34843 0.298771,2.12345 v 1.82467 l 0.578176,0.0371 c 0.575885,0.037 0.578328,0.039 0.616774,0.50732 0.0289,0.35204 -0.02464,0.52915 -0.213012,0.70464 -0.138386,0.12893 -0.251611,0.27827 -0.251611,0.33186 0,0.21876 -0.676317,0.37996 -1.594135,0.37996 -0.940278,0 -0.988649,-0.0142 -1.394067,-0.40789 z m 2.562178,-0.20072 c 0.04806,-0.0777 -0.32572,-0.12171 -1.03463,-0.12171 -0.70891,0 -1.08268,0.044 -1.034631,0.12171 0.04138,0.067 0.506959,0.12172 1.034631,0.12172 0.527671,0 0.993255,-0.0548 1.03463,-0.12172 z m 0.426024,-0.73032 c 0,-0.0745 -0.568032,-0.12173 -1.460654,-0.12173 -0.892621,0 -1.460653,0.0474 -1.460653,0.12173 0,0.0744 0.568032,0.12172 1.460653,0.12172 0.892622,0 1.460654,-0.0474 1.460654,-0.12172 z m -1.217212,-0.85205 c 0,-0.1623 -0.08115,-0.24345 -0.243442,-0.24345 -0.162294,0 -0.243443,0.0812 -0.243443,0.24345 0,0.1623 0.08115,0.24344 0.243443,0.24344 0.162295,0 0.243442,-0.0812 0.243442,-0.24344 z m -0.02645,-2.09969 c -0.02817,-1.12077 -0.06757,-1.36937 -0.216999,-1.36937 -0.149436,0 -0.188829,0.2486 -0.216999,1.36937 -0.03302,1.3138 -0.02422,1.36936 0.216999,1.36936 0.241213,0 0.250019,-0.0556 0.216999,-1.36936 z"
       id="path480"
       inkscape:connector-curvature="0" />
    <path
       style="fill:#ffffff;stroke-width:0.00164303;stroke-miterlimit:4;stroke-dasharray:none"
       d="m 6.500545,285.41306 c -0.3443392,-0.0615 -0.7800191,-0.19738 -1.1762757,-0.36699 -0.6849395,-0.29316 -0.7678456,-0.28954 -1.1301619,0.0494 l -0.2161596,0.2022 4.872e-4,-0.25592 c 8.516e-4,-0.46394 0.247587,-1.04656 0.6869731,-1.62212 0.4465497,-0.58494 1.0954931,-1.02355 1.8146458,-1.22653 0.4690856,-0.13237 1.2384323,-0.13366 1.7209186,-0.003 0.6247475,0.16936 1.2293354,0.53932 1.673515,1.02406 0.2746765,0.29975 0.6059485,0.88295 0.7455935,1.31258 0.109103,0.33568 0.163555,0.71545 0.102573,0.71545 -0.02479,0 -0.161973,-0.10827 -0.30485,-0.24051 l -0.259777,-0.24052 -0.6486779,0.21949 c -0.9653864,0.32665 -1.487763,0.43596 -2.1840562,0.45703 -0.3227789,0.0102 -0.693909,-10e-4 -0.8247344,-0.0247 z"
       id="path484"
       inkscape:connector-curvature="0" />
    <path
       style="fill:#ffffff;stroke-width:0.00164303;stroke-miterlimit:4;stroke-dasharray:none"
       d="m 5.93324,289.34898 c -0.074536,-0.10838 -0.2108601,-0.24454 -0.3029261,-0.30265 -0.092063,-0.0581 -0.21641,-0.17 -0.2763156,-0.24861 -0.1651772,-0.21674 -0.3699877,-0.67796 -0.3999749,-0.90071 -0.064645,-0.48023 -0.252705,-0.7478 -0.6756171,-0.9613 -0.5937509,-0.29972 -0.581777,-0.66267 0.042146,-1.27746 0.2994762,-0.2951 0.3087152,-0.30034 0.4489069,-0.25409 0.078721,0.026 0.3681042,0.12623 0.6430619,0.22277 0.7581093,0.26621 1.1287838,0.3302 1.9127616,0.3302 0.7923911,0 1.1103363,-0.0565 2.052015,-0.36498 l 0.6391793,-0.20936 0.256882,0.26752 c 0.292288,0.30438 0.432791,0.55064 0.470292,0.82424 0.03354,0.24463 -0.03225,0.36495 -0.218588,0.3999 -0.439677,0.0824 -0.6779845,0.43305 -0.7876268,1.15861 -0.014075,0.0932 -0.087642,0.23658 -0.1748988,0.34102 -0.082837,0.0991 -0.150606,0.20909 -0.150606,0.24433 0,0.0654 -0.5675791,0.64411 -0.7805582,0.79577 l -0.1179764,0.084 -0.2817876,-0.18903 c -0.6712616,-0.45033 -1.2478834,-0.44248 -1.830204,0.0248 -0.1452613,0.11658 -0.2795275,0.21197 -0.2983698,0.21197 -0.018845,0 -0.095243,-0.0887 -0.1697921,-0.19699 z"
       id="path486"
       inkscape:connector-curvature="0" />
    <path
       style="fill:#ffffff;stroke-width:0.00164303;stroke-miterlimit:4;stroke-dasharray:none"
       d="m 6.9662145,291.00087 c -0.065515,-0.0655 -0.1191244,-0.13458 -0.1191244,-0.15349 0,-0.0711 -0.1594649,-0.0666 -0.3695117,0.0102 -0.4170262,0.1525 -0.6012723,0.0938 -0.772958,-0.2466 -0.1210247,-0.23991 -0.2176269,-0.29489 -0.4596493,-0.26161 -0.344982,0.0475 -0.458739,-0.0583 -0.5694602,-0.5295 -0.062526,-0.26609 -0.078642,-0.28216 -0.4060402,-0.40465 -0.3304028,-0.12362 -0.394946,-0.22456 -0.3682599,-0.57594 0.025172,-0.33143 -0.013093,-0.44389 -0.2096815,-0.61623 -0.1751649,-0.15355 -0.2339969,-0.3829 -0.1501423,-0.58535 0.1060925,-0.25613 0.5356068,-0.29248 0.7355554,-0.0623 0.094115,0.10838 0.1011072,0.14603 0.0781,0.42052 -0.02647,0.31573 0.030439,0.51377 0.162167,0.56431 0.1024612,0.0393 0.2047609,0.22678 0.2587636,0.47418 0.048326,0.22138 0.058589,0.2333 0.3094099,0.35939 0.1792938,0.0901 0.309279,0.19661 0.4208132,0.3447 0.1994591,0.26484 0.3053183,0.32561 0.5706682,0.32757 0.2657774,0.002 0.4568297,-0.0791 0.6915282,-0.29327 0.2484532,-0.22677 0.3404178,-0.27031 0.5709411,-0.27031 0.161602,0 0.2525764,0.039 0.5496661,0.23557 0.5599235,0.3705 0.9700328,0.4134 1.1554879,0.12086 0.1386445,-0.21869 0.3014544,-0.36425 0.5467294,-0.48883 0.2369371,-0.12033 0.3268555,-0.22192 0.2732175,-0.30872 -0.048382,-0.0782 0.02399,-0.24291 0.2002545,-0.45557 0.191983,-0.23162 0.303624,-0.53619 0.303624,-0.82835 0,-0.32828 0.234164,-0.44658 0.589831,-0.29797 0.175724,0.0734 0.297749,0.30539 0.253466,0.48183 -0.01519,0.0606 -0.09867,0.16193 -0.185493,0.22538 -0.258072,0.18856 -0.27387,0.22201 -0.242799,0.51389 0.02035,0.19114 0.0097,0.30689 -0.03872,0.42291 -0.06605,0.15807 -0.289284,0.33504 -0.42304,0.33536 -0.10607,2.3e-4 -0.247404,0.17901 -0.279631,0.35368 -0.06187,0.33533 -0.3393537,0.59812 -0.570353,0.54014 -0.1393707,-0.0349 -0.2458976,0.0265 -0.5720181,0.33002 -0.2940785,0.27371 -0.373635,0.29749 -0.6329139,0.18915 -0.2288678,-0.0956 -0.3374099,-0.0812 -0.5469504,0.0729 -0.1375166,0.10112 -0.2476897,0.14312 -0.411103,0.15667 -0.1981349,0.0165 -0.2366337,0.006 -0.342362,-0.10061 z"
       id="path488"
       inkscape:connector-curvature="0" />
    <path
       style="fill:#ffffff;stroke-width:0.00164303;stroke-miterlimit:4;stroke-dasharray:none"
       d="m 6.2858674,292.24586 c -0.2603053,-0.0463 -0.3516868,-0.16691 -0.3516868,-0.46438 0,-0.18562 0.01703,-0.24186 0.084089,-0.27775 0.1405233,-0.0752 0.5712073,-0.0516 0.7792308,0.0429 0.2271287,0.10309 0.3780448,0.10647 0.9445524,0.0209 0.5869897,-0.0885 1.0001756,-0.0872 1.0348862,0.003 0.043341,0.11296 0.030202,0.27266 -0.035345,0.42955 -0.047051,0.11266 -0.1013329,0.15943 -0.2282271,0.19686 -0.1991974,0.0587 -1.9547396,0.0969 -2.2274924,0.0485 z"
       id="path490"
       inkscape:connector-curvature="0" />
    <path
       style="fill:#ffffff;stroke-width:0.00164303;stroke-miterlimit:4;stroke-dasharray:none"
       d="m 1.0814754,295.30589 c 0.015462,-0.13155 0.057506,-1.05588 0.093439,-2.05404 0.037589,-1.04419 0.089063,-1.92729 0.1212278,-2.07962 0.099968,-0.47352 0.4572414,-0.84567 1.0252953,-1.06803 0.2034469,-0.0796 0.3549044,-0.0984 0.9174861,-0.11317 0.4101308,-0.0112 0.7199772,10e-6 0.7917788,0.0278 0.074762,0.0289 0.1566646,0.1219 0.2236212,0.25402 0.1472338,0.29056 0.3083508,0.43949 0.6365296,0.58844 0.3736801,0.16959 0.4263069,0.22284 0.4559241,0.46124 0.013771,0.11075 0.033969,0.27199 0.044887,0.35818 l 0.019861,0.15669 -0.5537692,0.0299 c -1.1023198,0.0593 -1.6561013,0.15103 -2.0535465,0.33994 -0.2856324,0.13575 -0.7340859,0.60919 -0.8970831,0.94704 -0.2194787,0.45492 -0.2549222,0.67404 -0.2549053,1.57585 l 1.47e-5,0.81509 H 1.3527993 1.0533637 Z"
       id="path492"
       inkscape:connector-curvature="0" />
    <path
       style="fill:#ffffff;stroke-width:0.00164303;stroke-miterlimit:4;stroke-dasharray:none"
       d="m 13.074255,295.38206 c 0.05003,-0.30504 0.01001,-1.08328 -0.07854,-1.52939 -0.189248,-0.9528 -0.804183,-1.6056 -1.739034,-1.84611 -0.301474,-0.0776 -1.098732,-0.15566 -1.5947852,-0.15621 l -0.3369069,-3.6e-4 v -0.31637 c 0,-0.21769 0.021372,-0.34689 0.068536,-0.41422 0.037703,-0.0538 0.2403758,-0.18415 0.4503966,-0.28963 0.4045845,-0.2032 0.5719705,-0.35898 0.6545505,-0.60921 0.02788,-0.0845 0.08873,-0.17394 0.135224,-0.19883 0.133115,-0.0713 1.235173,-0.055 1.529155,0.0227 0.661684,0.1746 1.091183,0.58935 1.232902,1.19057 0.05875,0.24926 0.118791,1.2883 0.169927,2.94076 0.01554,0.5021 0.04236,1.03518 0.0596,1.18462 l 0.03135,0.2717 h -0.311687 -0.311687 z"
       id="path494"
       inkscape:connector-curvature="0" />
    <path
       style="fill:#ffffff;stroke-width:0.00164303;stroke-miterlimit:4;stroke-dasharray:none"
       d="m 3.3566255,295.55598 -1.295135,-0.0122 0.023053,-0.14064 c 0.012677,-0.0773 0.044379,-0.41244 0.070442,-0.74466 0.1394136,-1.77698 0.5667389,-2.16426 2.4605533,-2.2299 l 0.7462718,-0.0258 0.324686,0.1562 c 0.4491686,0.2161 0.7854777,0.26953 1.6822551,0.26721 0.8622328,-0.002 1.1443261,-0.0464 1.5823068,-0.24782 l 0.307602,-0.14147 0.739579,0.002 c 1.1688105,0.003 1.6015835,0.12271 2.0111905,0.55581 0.392399,0.4149 0.457521,0.6282 0.533174,1.74623 0.02588,0.38255 0.0572,0.72979 0.06958,0.77163 0.02127,0.0718 -0.119164,0.0761 -2.524343,0.0761 H 7.5409867 l 0.02771,-0.11041 c 0.033732,-0.1344 -0.081834,-0.2808 -0.2216836,-0.2808 -0.1398455,0 -0.2554184,0.1464 -0.2216835,0.2808 l 0.027722,0.11041 -1.2506431,-0.0102 c -0.6878549,-0.006 -1.8334554,-0.0157 -2.5457803,-0.0225 z m 4.116226,-0.93681 c 0.1160511,-0.0848 0.07651,-0.29439 -0.07112,-0.37687 -0.1535304,-0.0858 -0.266939,-0.022 -0.2852884,0.16058 -0.022454,0.22335 0.1792973,0.34579 0.35641,0.21629 z m 0.090585,-1.10081 c 0.094826,-0.0948 0.068265,-0.19534 -0.072495,-0.27435 -0.2293392,-0.12873 -0.4945672,0.0928 -0.3375723,0.28202 0.070127,0.0845 0.3226243,0.0798 0.410062,-0.008 z"
       id="path496"
       inkscape:connector-curvature="0" />
    <path
       style="fill:#ffffff;stroke-width:0.00164303;stroke-miterlimit:4;stroke-dasharray:none"
       d="m 14.160834,285.97041 c -0.02401,-0.0299 -0.05296,-0.13259 -0.06434,-0.22823 -0.0335,-0.28142 0.04254,-2.16271 0.0927,-2.29314 0.05197,-0.13513 0.154419,-0.15753 0.198908,-0.0434 0.09538,0.24453 0.150067,2.37623 0.06504,2.53509 -0.05064,0.0946 -0.225852,0.11244 -0.2923,0.0298 z"
       id="path498"
       inkscape:connector-curvature="0" />
    <path
       style="fill:#ffffff;stroke-width:0.00164303;stroke-miterlimit:4;stroke-dasharray:none"
       d="m 14.117569,286.93095 c -0.132193,-0.1322 -0.01228,-0.38455 0.182725,-0.38455 0.137623,0 0.206401,0.0974 0.189939,0.26888 -0.01249,0.13018 -0.02857,0.14536 -0.166172,0.15698 -0.08378,0.007 -0.176707,-0.0115 -0.206492,-0.0413 z"
       id="path500"
       inkscape:connector-curvature="0" />
    <path
       style="fill:#ffffff;stroke-width:0.00164303;stroke-miterlimit:4;stroke-dasharray:none"
       d="m 14.205298,287.73243 c 0.06608,-0.0102 0.163891,-0.0102 0.217359,6.1e-4 0.05346,0.0102 -5.98e-4,0.0185 -0.120146,0.0182 -0.119547,-3.7e-4 -0.163294,-0.009 -0.09721,-0.0187 z"
       id="path502"
       inkscape:connector-curvature="0" />
    <path
       style="fill:#ffffff;stroke-width:0.00164303;stroke-miterlimit:4;stroke-dasharray:none"
       d="m 13.693905,288.43328 c -0.426569,-0.0615 -0.437767,-0.0653 -0.346502,-0.11845 0.101076,-0.0588 1.731705,-0.0708 1.868017,-0.0138 0.08281,0.0346 0.08179,0.0385 -0.02174,0.0796 -0.113004,0.0448 -1.271529,0.0856 -1.49978,0.0527 z"
       id="path504"
       inkscape:connector-curvature="0" />
  </g>
</svg>
