<?xml version="1.0" encoding="UTF-8" standalone="no"?>
<!-- Created with Inkscape (http://www.inkscape.org/) -->

<svg
   xmlns:dc="http://purl.org/dc/elements/1.1/"
   xmlns:cc="http://creativecommons.org/ns#"
   xmlns:rdf="http://www.w3.org/1999/02/22-rdf-syntax-ns#"
   xmlns:svg="http://www.w3.org/2000/svg"
   xmlns="http://www.w3.org/2000/svg"
   xmlns:sodipodi="http://sodipodi.sourceforge.net/DTD/sodipodi-0.dtd"
   xmlns:inkscape="http://www.inkscape.org/namespaces/inkscape"
   width="64"
   height="64"
   viewBox="0 0 16.933333 16.933334"
   version="1.1"
   id="svg8"
   inkscape:version="0.92.5 (2060ec1f9f, 2020-04-08)"
   sodipodi:docname="shirt_64x64.svg">
  <defs
     id="defs2" />
  <sodipodi:namedview
     id="base"
     pagecolor="#ffffff"
     bordercolor="#666666"
     borderopacity="1.0"
     inkscape:pageopacity="0.0"
     inkscape:pageshadow="2"
     inkscape:zoom="2.8"
     inkscape:cx="53.89837"
     inkscape:cy="-18.290099"
     inkscape:document-units="mm"
     inkscape:current-layer="layer1"
     showgrid="false"
     units="px"
     inkscape:window-width="1208"
     inkscape:window-height="987"
     inkscape:window-x="1992"
     inkscape:window-y="0"
     inkscape:window-maximized="1"
     showguides="false" />
  <metadata
     id="metadata5">
    <rdf:RDF>
      <cc:Work
         rdf:about="">
        <dc:format>image/svg+xml</dc:format>
        <dc:type
           rdf:resource="http://purl.org/dc/dcmitype/StillImage" />
        <dc:title></dc:title>
      </cc:Work>
    </rdf:RDF>
  </metadata>
  <g
     inkscape:label="Layer 1"
     inkscape:groupmode="layer"
     id="layer1"
     transform="translate(0,-280.06665)">
    <path
       style="fill:#000000;stroke-width:0.03265394"
       d="m 6.115069,295.88134 c -1.8813598,-0.44586 -2.2625512,-0.54552 -2.3102659,-0.604 -0.050463,-0.0618 -0.05715,-0.15176 -0.05715,-0.76849 v -0.69844 H 3.04411 c -0.6863565,0 -0.7053144,-0.002 -0.7760223,-0.0734 -0.064377,-0.0652 -0.1320341,-0.41663 -0.6055712,-3.14515 l -0.5330927,-3.0717 0.8049421,-2.28355 c 0.5429871,-1.54042 0.8256906,-2.29964 0.8686979,-2.33299 0.035063,-0.0272 0.7582754,-0.22282 1.6071313,-0.43473 l 1.5433747,-0.38528 0.4562671,-0.57371 c 0.2509469,-0.31553 0.4952254,-0.61584 0.5428401,-0.66734 l 0.086571,-0.0937 h 1.4105707 1.4105717 l 0.08657,0.0937 c 0.04762,0.0515 0.2916636,0.35153 0.5423306,0.6667 l 0.455758,0.57307 1.56546,0.39238 c 0.861004,0.21582 1.584362,0.41172 1.607463,0.43536 0.0231,0.0236 0.404307,1.07058 0.847123,2.32654 l 0.805119,2.28355 -0.533093,3.0717 c -0.473537,2.72852 -0.54119,3.07989 -0.605571,3.14515 -0.07071,0.0716 -0.08966,0.0734 -0.776023,0.0734 h -0.703544 v 0.69844 c 0,0.61783 -0.0067,0.70662 -0.05743,0.76936 -0.04845,0.0598 -0.414351,0.1549 -2.338718,0.60771 -1.2547116,0.29524 -2.3052254,0.53513 -2.334476,0.53309 -0.029251,-0.002 -1.067087,-0.24399 -2.3063033,-0.53767 z m 2.073524,-6.35531 v -6.30891 l -0.467848,0.46386 c -0.4742751,0.47023 -0.5290214,0.50531 -0.691355,0.44302 -0.029872,-0.0114 -0.2755576,-0.35311 -0.5459716,-0.7592 -0.270413,-0.4061 -0.4935755,-0.74109 -0.4959157,-0.74441 -0.00234,-0.004 -0.6346236,0.15158 -1.4050733,0.34423 -0.8896815,0.22246 -1.4109784,0.36765 -1.4286648,0.39789 -0.015319,0.0262 -0.3567015,0.98134 -0.7586341,2.12255 l -0.7307865,2.07495 0.3826404,2.20272 0.3826413,2.20273 0.6590162,0.009 0.6590162,0.009 v -3.00484 -3.00483 h 0.2612315 0.2612315 v 4.47031 4.47031 l 0.2367415,0.0534 c 0.1302076,0.0294 1.0008428,0.23511 1.9347453,0.4571 0.9339025,0.22199 1.7090251,0.40513 1.7224951,0.40696 0.013472,0.002 0.024493,-2.83567 0.024493,-6.30558 z m 2.520909,5.83702 c 1.036286,-0.24333 1.892228,-0.44241 1.902092,-0.44241 0.0099,0 0.01793,-2.01312 0.01793,-4.47359 v -4.47359 h 0.261231 0.261232 v 3.00484 3.00484 l 0.659016,-0.009 0.659016,-0.009 0.382642,-2.20273 0.382641,-2.20273 -0.730786,-2.07494 c -0.401934,-1.14121 -0.743319,-2.09637 -0.758635,-2.12255 -0.01769,-0.0303 -0.538983,-0.17543 -1.428665,-0.39789 -0.77045,-0.19266 -1.402733,-0.34756 -1.405074,-0.34424 -0.0023,0.004 -0.225502,0.33831 -0.495915,0.74441 -0.270413,0.4061 -0.5161006,0.74774 -0.5459716,0.75921 -0.162334,0.0623 -0.21708,0.0272 -0.691354,-0.44302 l -0.4678472,-0.46389 v 6.31112 c 0,5.99527 0.00288,6.31026 0.057141,6.29417 0.031432,-0.009 0.9050152,-0.21603 1.9413018,-0.45936 z m -1.3958326,-7.11865 -0.08015,-0.0801 v -1.14586 -1.14586 l 0.08015,-0.0801 0.08015,-0.0802 h 1.1458546 1.145857 l 0.08015,0.0802 0.08016,0.0801 v 1.14586 1.14586 l -0.08016,0.0801 -0.08015,0.0801 H 10.539674 9.3938194 Z m 2.0097006,-1.22601 v -0.7837 H 10.539676 9.7559814 v 0.7837 0.78369 h 0.7836946 0.783694 z m -7.5757119,5.87771 v -0.39185 H 3.1435602 c -0.5330314,0 -0.6040979,0.006 -0.6040979,0.0525 0,0.0561 0.095165,0.6222 0.1160616,0.69041 0.00934,0.0304 0.148906,0.0408 0.5523192,0.0408 h 0.539815 z m 10.5513689,0.0653 c 0.03102,-0.17062 0.05747,-0.34328 0.05878,-0.38368 l 0.0023,-0.0734 h -0.604098 -0.604098 v 0.39263 0.39264 l 0.545318,-0.009 0.545318,-0.009 z m -6.6549112,-9.95375 0.4505923,-0.45145 -0.4602154,-0.55266 c -0.2531186,-0.30396 -0.4707761,-0.55546 -0.4836838,-0.5589 -0.030593,-0.008 -0.7037582,0.8397 -0.7037582,0.88636 0,0.0315 0.7177545,1.12811 0.7383488,1.12811 0.00451,0 0.21089,-0.20316 0.4587163,-0.45146 z m 2.4433702,-0.0948 c 0.200812,-0.30042 0.365113,-0.56227 0.365113,-0.58189 0,-0.0467 -0.6731666,-0.8945 -0.7037586,-0.88636 -0.0129,0.004 -0.230565,0.25494 -0.483684,0.5589 l -0.460215,0.55266 0.450592,0.45145 c 0.247826,0.2483 0.454249,0.45146 0.458716,0.45146 0.0045,0 0.172425,-0.2458 0.3732366,-0.54622 z m -1.2529996,-1.20077 0.367544,-0.44082 H 8.4498245 7.6976194 l 0.3675434,0.44082 c 0.2021491,0.24246 0.3752467,0.44083 0.3846617,0.44083 0.00942,0 0.1825126,-0.19837 0.3846619,-0.44083 z"
       id="path7906"
       inkscape:connector-curvature="0" />
    <path
       style="fill:#ffffff;stroke-width:0.00124669;stroke-miterlimit:4;stroke-dasharray:none"
       d="m 6.7795181,295.49196 c -0.752893,-0.17952 -1.6249457,-0.38723 -1.9378956,-0.46158 l -0.568999,-0.13516 v -4.46663 -4.46661 H 4.00874 3.7448565 v 3.00236 3.00238 l -0.6512079,-0.009 -0.651208,-0.009 -0.3690009,-2.11107 c -0.2029511,-1.16109 -0.3723919,-2.1556 -0.3765362,-2.21003 -0.0046,-0.0601 0.248658,-0.82373 0.6454038,-1.94614 0.9089809,-2.57154 0.7922398,-2.29707 1.0078905,-2.36962 0.1647955,-0.0554 1.9482577,-0.51608 2.4286957,-0.6273 l 0.203343,-0.047 0.3535088,0.53243 c 0.194429,0.29284 0.4271741,0.63262 0.517212,0.75508 0.1476777,0.20085 0.1749396,0.22265 0.2784791,0.22265 0.1221271,0 0.1899703,-0.0545 0.7778335,-0.62463 l 0.2556369,-0.24794 v 6.27472 c 0,3.45109 -0.00369,6.27329 -0.00829,6.27157 -0.00451,-0.002 -0.6242495,-0.15001 -1.3771425,-0.32953 z"
       id="path7908"
       inkscape:connector-curvature="0" />
    <path
       style="fill:#ffffff;stroke-width:0.00124669;stroke-miterlimit:4;stroke-dasharray:none"
       d="M 2.7850115,293.26101 2.666296,293.24841 2.628431,293.02746 C 2.607606,292.90593 2.581203,292.74341 2.569759,292.66631 L 2.548952,292.52612 H 3.146906 3.74486 v 0.37933 0.37934 l -0.4205643,-0.005 c -0.2313105,-0.003 -0.4739868,-0.0113 -0.5392807,-0.0182 z"
       id="path7910"
       inkscape:connector-curvature="0" />
    <path
       style="fill:#ffffff;stroke-width:0.00124669;stroke-miterlimit:4;stroke-dasharray:none"
       d="m 9.7811944,287.0175 v -0.75866 h 0.7586656 0.758665 v 0.75866 0.75867 H 10.53986 9.7811944 Z"
       id="path7912"
       inkscape:connector-curvature="0" />
    <path
       style="fill:#ffffff;stroke-width:0.00124669;stroke-miterlimit:4;stroke-dasharray:none"
       d="m 8.7472398,295.51951 c -0.011651,-0.14967 -0.021276,-2.97253 -0.021384,-6.27301 l -1.992e-4,-6.00089 0.4583008,0.45108 c 0.41757,0.41099 0.468851,0.45108 0.57701,0.45108 0.109168,0 0.13287,-0.0192 0.2949216,-0.23914 0.09692,-0.13153 0.329195,-0.46922 0.516171,-0.75042 0.186976,-0.2812 0.342143,-0.51432 0.344814,-0.51804 0.0078,-0.0108 2.423885,0.60216 2.630497,0.66737 l 0.187258,0.0591 0.08943,0.25037 c 0.04918,0.13771 0.38337,1.08117 0.742634,2.09658 l 0.653206,1.8462 -0.377385,2.17086 c -0.207561,1.19398 -0.377385,2.18523 -0.377385,2.20276 0,0.0195 -0.251017,0.0319 -0.643215,0.0319 h -0.643217 v -3.00167 -3.00168 H 12.89832 12.617944 l -0.0024,4.32935 c -0.0014,2.38113 -0.01248,4.39547 -0.02474,4.4763 -0.02222,0.14652 -0.02285,0.1471 -0.203715,0.18964 -1.987673,0.46744 -3.5661236,0.83438 -3.5892396,0.83438 -0.01616,0 -0.03892,-0.12246 -0.050562,-0.27214 z m 3.0356952,-7.25431 0.07634,-0.0717 v -1.17135 c 0,-1.15726 -8.63e-4,-1.17227 -0.07172,-1.2477 l -0.07172,-0.0763 h -1.171354 c -1.1572586,0 -1.1722736,8.6e-4 -1.2476976,0.0717 l -0.07634,0.0717 v 1.17136 c 0,1.15725 8.64e-4,1.17226 0.07172,1.24769 l 0.07172,0.0763 h 1.1713536 c 1.157259,0 1.172273,-8.6e-4 1.247698,-0.0717 z"
       id="path7914"
       inkscape:connector-curvature="0" />
    <path
       style="fill:#ffffff;stroke-width:0.00124669;stroke-miterlimit:4;stroke-dasharray:none"
       d="m 13.178697,292.90485 v -0.37877 h 0.577245 c 0.576648,0 0.577245,6e-5 0.5772,0.0742 -3.2e-5,0.0788 -0.09129,0.62313 -0.10646,0.63519 -0.005,0.004 -0.242728,0.0163 -0.528465,0.0277 l -0.51952,0.0205 z"
       id="path7916"
       inkscape:connector-curvature="0" />
    <path
       style="fill:#ffffff;stroke-width:0.00124669;stroke-miterlimit:4;stroke-dasharray:none"
       d="m 9.2613354,282.98371 -0.433833,-0.43573 0.446738,-0.52777 c 0.245707,-0.29027 0.458448,-0.5321 0.472758,-0.5374 0.01999,-0.007 0.4386876,0.4976 0.6705946,0.8088 0.02065,0.0278 -0.07605,0.20175 -0.306087,0.55094 -0.1849486,0.28075 -0.3542866,0.52539 -0.3763046,0.54366 -0.02916,0.0242 -0.15786,-0.0852 -0.473866,-0.4025 z"
       id="path7918"
       inkscape:connector-curvature="0" />
    <path
       style="fill:#ffffff;stroke-width:0.00124669;stroke-miterlimit:4;stroke-dasharray:none"
       d="m 8.0910315,281.71446 -0.3542518,-0.41993 0.3441772,-0.009 c 0.1892981,-0.005 0.5106978,-0.005 0.7142225,0 l 0.370043,0.009 -0.354581,0.42057 c -0.1950194,0.23131 -0.3570052,0.42027 -0.359969,0.41992 -0.00297,-3.4e-4 -0.1648018,-0.1896 -0.3596409,-0.42056 z"
       id="path7920"
       inkscape:connector-curvature="0" />
    <path
       style="fill:#ffffff;stroke-width:0.00124669;stroke-miterlimit:4;stroke-dasharray:none"
       d="m 6.8317205,282.90458 c -0.1919889,-0.29021 -0.3488391,-0.54854 -0.3485562,-0.57407 6.858e-4,-0.0618 0.6229901,-0.85456 0.6708336,-0.85456 0.011498,0 0.7475394,0.86708 0.8695337,1.02433 0.033558,0.0433 -0.029097,0.11998 -0.4014862,0.49161 l -0.4412533,0.44034 z"
       id="path7922"
       inkscape:connector-curvature="0" />
  </g>
</svg>
