<?xml version="1.0" encoding="UTF-8" standalone="no"?>
<svg
   xmlns:dc="http://purl.org/dc/elements/1.1/"
   xmlns:cc="http://creativecommons.org/ns#"
   xmlns:rdf="http://www.w3.org/1999/02/22-rdf-syntax-ns#"
   xmlns:svg="http://www.w3.org/2000/svg"
   xmlns="http://www.w3.org/2000/svg"
   xmlns:sodipodi="http://sodipodi.sourceforge.net/DTD/sodipodi-0.dtd"
   xmlns:inkscape="http://www.inkscape.org/namespaces/inkscape"
   width="64"
   height="64"
   viewBox="0 0 16.933333 16.933333"
   version="1.1"
   id="svg8"
   sodipodi:docname="seren_shower_64x64.svg"
   inkscape:version="1.0.2-2 (e86c870879, 2021-01-15)">
  <defs
     id="defs2" />
  <sodipodi:namedview
     id="base"
     pagecolor="#ffffff"
     bordercolor="#666666"
     borderopacity="1.0"
     inkscape:pageopacity="0.0"
     inkscape:pageshadow="2"
     inkscape:zoom="2.8284271"
     inkscape:cx="87.378714"
     inkscape:cy="64.420614"
     inkscape:document-units="mm"
     inkscape:current-layer="layer1"
     inkscape:document-rotation="0"
     showgrid="false"
     inkscape:snap-global="false"
     fit-margin-top="0"
     fit-margin-left="0"
     fit-margin-right="0"
     fit-margin-bottom="0"
     inkscape:window-width="1540"
     inkscape:window-height="967"
     inkscape:window-x="1806"
     inkscape:window-y="64"
     inkscape:window-maximized="0"
     units="px" />
  <metadata
     id="metadata5">
    <rdf:RDF>
      <cc:Work
         rdf:about="">
        <dc:format>image/svg+xml</dc:format>
        <dc:type
           rdf:resource="http://purl.org/dc/dcmitype/StillImage" />
        <dc:title></dc:title>
      </cc:Work>
    </rdf:RDF>
  </metadata>
  <g
     inkscape:label="Calque 1"
     inkscape:groupmode="layer"
     id="layer1"
     transform="translate(-44.581036,-28.552681)">
    <text
       xml:space="preserve"
       style="font-style:normal;font-weight:normal;font-size:10.5833px;line-height:1.25;font-family:sans-serif;fill:#000000;fill-opacity:1;stroke:none;stroke-width:0.264583"
       x="51.724785"
       y="39.66518"
       id="text1411"><tspan
         sodipodi:role="line"
         id="tspan1409"
         x="51.724785"
         y="39.66518"
         style="stroke-width:0.264583"></tspan></text>
    <path
       style="fill:#ffffff;stroke-width:2.12598;stroke-linecap:round;stroke-miterlimit:4;stroke-dasharray:none"
       d=""
       id="path1772"
       transform="matrix(0.26458333,0,0,0.26458333,44.581036,28.552681)" />
    <path
       style="fill:#000000;stroke-width:0.0310116"
       d="m 52.642607,44.965488 c -0.127882,-0.07334 -0.137546,-0.116577 -0.138567,-0.619812 -9.82e-4,-0.468049 0.002,-0.48998 0.07253,-0.572165 0.09503,-0.110475 0.26727,-0.118155 0.369092,-0.01646 0.06472,0.06465 0.06971,0.10031 0.07898,0.564661 l 0.0099,0.495657 -0.09279,0.09279 c -0.09717,0.09718 -0.194708,0.115217 -0.299133,0.05533 z m -1.900114,-0.01431 c -0.155396,-0.06252 -0.158283,-0.515089 -0.0044,-0.669098 0.175803,-0.1758 0.432025,-0.05683 0.430601,0.19994 -9.83e-4,0.202584 -0.05078,0.375343 -0.125216,0.435644 -0.0634,0.05137 -0.214841,0.06822 -0.301108,0.03351 z m 3.686563,-0.05328 c -0.05471,-0.05824 -0.07332,-0.123809 -0.0872,-0.307265 -0.01669,-0.220975 -0.0134,-0.237449 0.06274,-0.313606 0.100816,-0.100819 0.23734,-0.104997 0.346509,-0.01061 0.153824,0.133002 0.163802,0.595293 0.01458,0.675158 -0.104489,0.05592 -0.262295,0.03544 -0.336629,-0.04368 z m -5.534677,-0.02125 c -0.06259,-0.04924 -0.08171,-0.09177 -0.08171,-0.181805 0,-0.142493 0.140703,-0.847604 0.186046,-0.932325 0.0674,-0.125943 0.242894,-0.161518 0.367217,-0.07444 0.131633,0.0922 0.135444,0.166528 0.03369,0.65703 -0.07856,0.378675 -0.107804,0.468126 -0.171968,0.526037 -0.09653,0.08713 -0.226759,0.08928 -0.333266,0.0055 z m 7.387067,-0.02197 c -0.05523,-0.06564 -0.09381,-0.195228 -0.161519,-0.542489 -0.08432,-0.432459 -0.08625,-0.46038 -0.03707,-0.535407 0.101808,-0.155377 0.299983,-0.176628 0.413271,-0.04432 0.05436,0.06349 0.220454,0.773874 0.223056,0.954016 0.0034,0.232148 -0.289283,0.344598 -0.437715,0.168198 z m -9.585805,-0.937974 c -0.294827,-0.07425 -0.571367,-0.298757 -0.706659,-0.573692 -0.06519,-0.132472 -0.07591,-0.198033 -0.07591,-0.464366 0,-0.285701 0.0072,-0.323175 0.09187,-0.475978 0.120556,-0.217653 0.348926,-0.419357 0.568628,-0.502228 0.143085,-0.05397 0.224141,-0.06419 0.424909,-0.05354 0.359832,0.01908 0.611388,0.156724 0.805934,0.440964 0.374229,0.546779 0.169434,1.279964 -0.434789,1.556587 -0.184524,0.08448 -0.493807,0.117632 -0.673991,0.07225 z m 0.457903,-0.553679 c 0.526236,-0.241649 0.356227,-0.996071 -0.224471,-0.996071 -0.179677,0 -0.322958,0.08168 -0.436507,0.248831 -0.06153,0.09059 -0.07139,0.137729 -0.0617,0.295192 0.014,0.227532 0.09234,0.351819 0.280459,0.444935 0.161421,0.0799 0.279571,0.0818 0.442219,0.0071 z m 11.749221,0.55175 c -0.05347,-0.0155 -0.164607,-0.07355 -0.246955,-0.129003 -0.508769,-0.342605 -0.399527,-1.14914 0.185938,-1.372731 0.169307,-0.06466 0.478203,-0.05167 0.629287,0.02646 0.219978,0.113756 0.389791,0.357599 0.428421,0.615198 0.07998,0.53333 -0.474167,1.01152 -0.996691,0.860081 z m 0.398732,-0.579569 c 0.02951,-0.02949 0.06218,-0.09639 0.07264,-0.148659 0.02769,-0.138524 -0.106094,-0.292395 -0.254257,-0.292395 -0.273403,0 -0.360106,0.356325 -0.119878,0.492665 0.07844,0.04452 0.23159,0.0183 0.3015,-0.05161 z m -8.489988,0.506211 c -0.0917,-0.0917 -0.09131,-0.07035 -0.0138,-0.748401 0.0646,-0.565049 0.08477,-0.641005 0.184431,-0.69434 0.136338,-0.07297 0.294012,-0.03134 0.359262,0.09484 0.04051,0.07833 0.03869,0.147956 -0.01665,0.631887 -0.03418,0.299121 -0.06218,0.565464 -0.06218,0.591875 0,0.02641 -0.03427,0.08228 -0.07612,0.124141 -0.103561,0.103563 -0.271394,0.103563 -0.37496,0 z m 3.492473,-0.0056 c -0.03536,-0.04494 -0.06434,-0.09727 -0.06442,-0.116294 -9.3e-5,-0.01902 -0.02769,-0.264844 -0.06141,-0.546275 -0.03369,-0.28143 -0.06153,-0.543725 -0.06187,-0.582877 -9.82e-4,-0.110531 0.131929,-0.223426 0.262983,-0.223426 0.119009,0 0.263602,0.109848 0.263602,0.20026 0,0.02641 0.02799,0.292756 0.06218,0.591875 0.05532,0.483932 0.05716,0.553555 0.01665,0.631888 -0.05206,0.100661 -0.103149,0.126561 -0.249681,0.126561 -0.07515,0 -0.121469,-0.02253 -0.168025,-0.08171 z M 49.30439,43.095211 c -0.122712,-0.06666 -0.152272,-0.187201 -0.103374,-0.421516 0.06751,-0.323505 0.266184,-0.432278 0.451352,-0.247111 0.09728,0.09727 0.106482,0.156394 0.05833,0.374525 -0.04203,0.190396 -0.08501,0.266088 -0.174119,0.306691 -0.09653,0.04398 -0.131546,0.04208 -0.232185,-0.01259 z m 3.274785,-0.02909 c -0.06745,-0.06745 -0.07612,-0.102938 -0.07612,-0.311526 0,-0.208589 0.0087,-0.244078 0.07612,-0.311527 0.125486,-0.125485 0.32782,-0.100477 0.405709,0.05015 0.05426,0.104939 0.05987,0.408795 0.0093,0.50376 -0.08725,0.16382 -0.287044,0.197109 -0.415005,0.06915 z m 3.395379,0.03048 c -0.103909,-0.05652 -0.152483,-0.169255 -0.174497,-0.40499 -0.01571,-0.168253 -0.0098,-0.200623 0.04739,-0.257754 0.135891,-0.135889 0.336831,-0.110559 0.421477,0.05313 0.06907,0.133561 0.09721,0.424855 0.04962,0.513757 -0.03815,0.07133 -0.153853,0.142695 -0.227328,0.140249 -0.02053,-6.88e-4 -0.07301,-0.02066 -0.116642,-0.04439 z m -6.504417,-1.071637 c -0.03712,-0.03458 -0.07492,-0.09389 -0.08399,-0.1318 -0.0091,-0.0379 0.03879,-0.333963 0.10632,-0.657908 0.135013,-0.647515 0.161333,-0.697993 0.363937,-0.697993 0.134565,0 0.259359,0.115881 0.257316,0.23893 -9.82e-4,0.04768 -0.0547,0.336903 -0.11979,0.642717 -0.09674,0.454543 -0.131069,0.566328 -0.188059,0.61248 -0.09281,0.07515 -0.251429,0.07211 -0.335731,-0.0064 z m 3.109038,-0.01324 c -0.07589,-0.07589 -0.07612,-0.07802 -0.07514,-0.705516 9.82e-4,-0.658735 0.0071,-0.690815 0.144283,-0.763883 0.109208,-0.05817 0.194527,-0.04218 0.291282,0.05457 l 0.09065,0.09065 v 0.609499 0.609498 l -0.09065,0.09065 c -0.115665,0.115661 -0.253732,0.121227 -0.36043,0.01453 z m 3.137552,0.0063 c -0.06504,-0.05892 -0.09426,-0.153171 -0.187799,-0.605935 -0.128958,-0.624161 -0.132459,-0.683883 -0.0465,-0.79316 0.115356,-0.146656 0.390139,-0.08739 0.443068,0.09556 0.04636,0.160302 0.21354,1.060884 0.211738,1.140728 -0.0025,0.116244 -0.129631,0.232587 -0.253909,0.232587 -0.04939,0 -0.124121,-0.0313 -0.166596,-0.06978 z m -4.547174,-0.200218 c -0.126601,-0.04628 -0.186071,-0.142694 -0.185895,-0.301374 3.49e-4,-0.343364 0.126257,-0.514677 0.34318,-0.467034 0.130426,0.02865 0.183842,0.123781 0.183842,0.327406 0,0.24911 -0.04906,0.367617 -0.17376,0.419721 -0.05684,0.02375 -0.107288,0.04208 -0.112101,0.04073 -0.0049,-0.0013 -0.02966,-0.0101 -0.05527,-0.01945 z m 2.977119,-0.01748 c -0.108221,-0.05579 -0.153653,-0.168346 -0.162747,-0.403244 -0.0062,-0.159351 0.0039,-0.215045 0.04876,-0.264474 0.114526,-0.1268 0.331469,-0.112002 0.419277,0.0286 0.02195,0.03518 0.04778,0.157518 0.05738,0.271858 0.01581,0.188286 0.01046,0.215688 -0.05631,0.290591 -0.0904,0.101376 -0.203488,0.129682 -0.306332,0.07667 z m -2.910151,-1.343768 c -0.118032,-0.08267 -0.126458,-0.158904 -0.07083,-0.641056 0.04562,-0.395659 0.06187,-0.463954 0.126552,-0.532808 0.155012,-0.165003 0.435854,-0.05179 0.435255,0.175458 -4.71e-4,0.191781 -0.08958,0.860098 -0.122937,0.922434 -0.0682,0.127436 -0.243037,0.163526 -0.368037,0.07597 z m 2.709393,-0.02013 c -0.07153,-0.06226 -0.08508,-0.109725 -0.125771,-0.440737 -0.06525,-0.530659 -0.06126,-0.624085 0.03049,-0.715856 0.09682,-0.09682 0.2349,-0.09904 0.343602,-0.0055 0.07375,0.06343 0.08635,0.106603 0.124435,0.42641 0.06626,0.556308 0.06091,0.664489 -0.03663,0.741225 -0.106453,0.08374 -0.236034,0.08162 -0.336128,-0.0055 z m -7.296548,-0.255662 c -0.169675,-0.07374 -0.303686,-0.194262 -0.387993,-0.348931 -0.06877,-0.126154 -0.103905,-0.155757 -0.243415,-0.205054 -0.229602,-0.08113 -0.490198,-0.346342 -0.583526,-0.593859 -0.05772,-0.153076 -0.06768,-0.229581 -0.05655,-0.433934 0.01635,-0.299597 0.100821,-0.497424 0.295775,-0.692485 0.653504,-0.653875 1.77044,-0.19997 1.787351,0.726349 0.0034,0.18581 0.01616,0.239111 0.07124,0.297802 0.2601,0.277054 0.252548,0.772819 -0.01615,1.060028 -0.195357,0.208823 -0.61291,0.300396 -0.866735,0.190084 z m 0.474578,-0.556984 c 0.113357,-0.11336 0.104081,-0.266978 -0.02259,-0.37354 -0.07716,-0.06493 -0.119422,-0.07906 -0.19382,-0.06481 -0.109586,0.02099 -0.234699,0.148201 -0.234699,0.238638 0,0.0791 0.07987,0.234448 0.131148,0.255079 0.104926,0.04221 0.246926,0.01764 0.319934,-0.05536 z m -0.842252,-0.606375 c 0.11238,-0.169816 0.300813,-0.299089 0.501389,-0.343976 0.158588,-0.03549 0.166621,-0.04188 0.148418,-0.118005 -0.05074,-0.212222 -0.178352,-0.348553 -0.383887,-0.410133 -0.223228,-0.06688 -0.481674,0.04286 -0.59262,0.251635 -0.06928,0.130367 -0.07516,0.372415 -0.01203,0.494516 0.03717,0.07187 0.21356,0.250248 0.247466,0.250248 0.005,0 0.04601,-0.05593 0.09125,-0.124285 z m 11.685455,1.129365 c -0.294738,-0.146874 -0.464438,-0.451187 -0.431199,-0.773244 0.02013,-0.195117 0.08535,-0.333229 0.227465,-0.481715 0.09856,-0.102983 0.103247,-0.117059 0.07034,-0.211461 -0.05618,-0.161174 -0.02057,-0.582519 0.06322,-0.748115 0.09512,-0.187977 0.294317,-0.390561 0.482794,-0.49102 0.138223,-0.07368 0.188722,-0.08265 0.465174,-0.08265 0.279286,0 0.326406,0.0086 0.473989,0.08632 0.651959,0.34341 0.778722,1.186471 0.255094,1.696503 -0.09583,0.09334 -0.216738,0.174603 -0.308009,0.20702 -0.146389,0.05199 -0.150706,0.05716 -0.167715,0.20076 -0.06297,0.5317 -0.645653,0.839535 -1.131152,0.597599 z m 0.538075,-0.52299 c 0.130745,-0.130745 0.100281,-0.205205 -0.128707,-0.314604 l -0.20118,-0.09611 -0.0606,0.07704 c -0.199943,0.254185 0.161288,0.562872 0.390482,0.333681 z m 0.556798,-0.757497 c 0.149179,-0.0685 0.213643,-0.136852 0.280906,-0.297831 0.09538,-0.228286 -0.02298,-0.541958 -0.244063,-0.646876 -0.356256,-0.169056 -0.765619,0.07287 -0.765619,0.452474 0,0.186486 0.06992,0.343805 0.191178,0.430147 0.179221,0.127616 0.351552,0.147519 0.537598,0.06209 z m -9.180861,1.067613 c -0.08476,-0.08477 -0.09225,-0.155702 -0.04144,-0.392594 0.06246,-0.291226 0.278456,-0.399424 0.451642,-0.226236 0.07463,0.07462 0.07903,0.09442 0.06186,0.27823 -0.01998,0.214139 -0.08221,0.366872 -0.161916,0.397456 -0.107882,0.0414 -0.235229,0.01805 -0.310138,-0.05686 z m 5.400686,0.0047 c -0.04714,-0.04712 -0.08456,-0.140878 -0.10992,-0.275258 -0.0331,-0.175279 -0.03172,-0.216824 0.0097,-0.296918 0.07916,-0.153075 0.280886,-0.18314 0.403838,-0.06019 0.09122,0.09122 0.162074,0.43201 0.115361,0.554868 -0.06103,0.16052 -0.29305,0.203435 -0.418987,0.0775 z m -2.688141,-0.0502 c -0.08298,-0.08298 -0.09065,-0.109078 -0.09065,-0.308387 0,-0.18437 0.01125,-0.230834 0.07351,-0.303198 0.05598,-0.06508 0.101307,-0.08546 0.190088,-0.08546 0.08877,0 0.134108,0.02038 0.190087,0.08546 0.06224,0.07236 0.07351,0.118828 0.07351,0.303198 0,0.199309 -0.0077,0.22541 -0.09065,0.308387 -0.05465,0.05465 -0.123335,0.09065 -0.17295,0.09065 -0.04962,0 -0.118302,-0.036 -0.172951,-0.09065 z M 50.12921,38.604423 c -0.37968,-0.14629 -0.540727,-0.412106 -0.541076,-0.89308 -2.35e-4,-0.384918 0.121789,-0.632884 0.388523,-0.789199 l 0.138499,-0.08117 4.91e-4,-0.36144 c 4.91e-4,-0.450852 0.05697,-0.725801 0.213687,-1.043697 0.190584,-0.386569 0.55617,-0.723538 0.9547,-0.879974 l 0.149066,-0.05851 0.01552,-0.760284 c 0.01763,-0.864994 0.0218,-0.879434 0.257915,-0.896834 l 0.127185,-0.0094 0.891558,-1.255973 c 0.510866,-0.719679 0.958068,-1.317789 1.047325,-1.400746 0.196933,-0.183032 0.434588,-0.295982 0.705044,-0.335084 0.123291,-0.01782 1.138149,-0.03086 2.430343,-0.03122 l 2.218655,-5.89e-4 0.03589,-0.1318 c 0.04577,-0.168109 0.189872,-0.341071 0.374662,-0.4497 0.139982,-0.08229 0.160488,-0.08525 0.58964,-0.08525 0.429834,0 0.446583,0.0025 0.503937,0.07321 0.05629,0.06946 0.05933,0.138823 0.05933,1.354223 0,0.704557 -0.0087,1.303602 -0.01925,1.331213 -0.03904,0.101766 -0.18255,0.140942 -0.516268,0.140942 -0.431356,0 -0.60658,-0.05375 -0.79746,-0.244632 -0.08082,-0.08081 -0.163915,-0.198383 -0.184666,-0.261267 l -0.03771,-0.114334 h -2.041472 -2.041461 l -0.505337,0.721021 c -0.27793,0.396561 -0.501139,0.741954 -0.496017,0.767538 0.0051,0.02558 0.01841,0.391573 0.02951,0.813307 l 0.02018,0.766789 0.26096,0.126156 c 0.203881,0.09856 0.31301,0.178435 0.49886,0.365136 0.395152,0.396963 0.520992,0.723906 0.549094,1.426617 l 0.01773,0.443355 0.08542,0.04418 c 0.255308,0.132023 0.403421,0.390994 0.425434,0.743853 0.02877,0.460918 -0.130047,0.774767 -0.472987,0.934805 l -0.155056,0.07236 -2.542959,-0.0021 c -1.86777,-0.0015 -2.568041,-0.01173 -2.63744,-0.03847 z m 5.198292,-0.576724 c 0.08046,-0.08046 0.09065,-0.111999 0.09065,-0.280645 0,-0.248257 -0.05838,-0.360445 -0.209376,-0.40238 -0.159162,-0.0442 -4.724274,-0.04442 -4.883372,-2.46e-4 -0.16175,0.04492 -0.210245,0.128926 -0.210245,0.364194 0,0.200462 0.03349,0.302486 0.121361,0.369968 0.03771,0.02895 0.627656,0.03801 2.524771,0.03876 l 2.475563,9.82e-4 0.09065,-0.09065 z m -0.4427,-1.490945 c 0.01144,-0.322662 -0.0354,-0.613765 -0.133529,-0.829644 -0.08646,-0.190203 -0.340371,-0.470398 -0.523157,-0.577306 -0.27628,-0.161591 -0.385729,-0.174644 -1.464329,-0.174644 -0.903092,0 -1.018182,0.0058 -1.193357,0.06034 -0.452393,0.140799 -0.793535,0.518086 -0.893207,0.987829 -0.03776,0.178008 -0.04802,0.758043 -0.01399,0.792071 0.01149,0.01149 0.963937,0.0173 2.116547,0.01292 l 2.095658,-0.008 z M 53.55745,33.885257 v -0.542704 h -0.790795 -0.7908 v 0.542704 0.542704 h 0.7908 0.790795 z m 0.425508,-1.860699 c 0.671496,-0.958156 0.700365,-0.995634 0.825988,-1.072234 0.09357,-0.05706 0.182398,-0.05946 2.198551,-0.05958 l 2.10104,-1.16e-4 V 30.61242 30.332194 l -2.31812,0.0089 c -2.289468,0.0088 -2.319849,0.0097 -2.457674,0.07474 -0.07676,0.03623 -0.183503,0.112982 -0.237223,0.170564 -0.104077,0.111562 -1.554465,2.14369 -1.582901,2.217787 -0.01414,0.0369 0.05682,0.04254 0.444207,0.03532 l 0.46106,-0.0086 z m 6.179977,-1.442042 v -0.93035 h -0.17295 c -0.149807,0 -0.185079,0.01213 -0.263597,0.09065 l -0.09065,0.09065 4.71e-4,0.723407 c 4.67e-4,0.774295 0.01228,0.843836 0.155209,0.916161 0.04233,0.0214 0.143208,0.03913 0.224225,0.03938 l 0.147308,4.57e-4 z m -12.13478,6.438596 c -0.334032,-0.124511 -0.514515,-0.352243 -0.541036,-0.682682 -0.01817,-0.226612 0.0194,-0.364766 0.147396,-0.541434 0.262699,-0.362647 0.842743,-0.417636 1.159578,-0.109931 0.181696,0.176462 0.249303,0.335325 0.249421,0.58609 1.18e-4,0.240988 -0.04847,0.364724 -0.21106,0.537668 -0.200464,0.213215 -0.550749,0.3048 -0.804299,0.210289 z m 0.414759,-0.575008 c 0.112425,-0.112425 0.115572,-0.216098 0.01036,-0.341134 -0.156181,-0.185609 -0.446912,-0.08097 -0.446912,0.160848 0,0.245418 0.26286,0.353974 0.436546,0.180286 z"
       id="path1810" />
    <path
       style="fill:#ffffff;stroke-width:6.01319;stroke-linecap:round;stroke-miterlimit:4;stroke-dasharray:none"
       d="m 23.012876,29.840568 c 0.0043,-0.631977 0.317764,-1.832085 0.696651,-2.666906 0.546325,-1.203745 1.030096,-1.66879 2.337685,-2.247199 1.413051,-0.62506 2.195339,-0.710636 5.471244,-0.598509 3.169846,0.108497 3.988002,0.254441 4.792161,0.854832 1.490839,1.113072 2.188795,2.289914 2.44789,4.127452 l 0.236795,1.679378 h -7.995095 -7.995095 z"
       id="path1812"
       transform="matrix(0.26458333,0,0,0.26458333,44.581036,28.552681)" />
    <path
       style="fill:#ffffff;stroke-width:6.01319;stroke-linecap:round;stroke-miterlimit:4;stroke-dasharray:none"
       d="m 21.4787,35.709314 c -0.132745,-0.132745 -0.241355,-0.675199 -0.241355,-1.205453 v -0.964097 l 5.745242,-0.231021 c 3.159884,-0.127062 7.495332,-0.104224 9.63433,0.05075 l 3.889088,0.281773 v 1.06066 1.06066 l -9.392975,0.09404 c -5.166136,0.05172 -9.501585,-0.01457 -9.63433,-0.147314 z"
       id="path1814"
       transform="matrix(0.26458333,0,0,0.26458333,44.581036,28.552681)" />
    <path
       style="fill:#ffffff;stroke-width:6.01319;stroke-linecap:round;stroke-miterlimit:4;stroke-dasharray:none"
       d="m 27.954859,20.206238 v -1.944544 h 2.828427 2.828427 v 1.944544 1.944543 h -2.828427 -2.828427 z"
       id="path1816"
       transform="matrix(0.26458333,0,0,0.26458333,44.581036,28.552681)" />
    <path
       style="fill:#ffffff;stroke-width:6.01319;stroke-linecap:round;stroke-miterlimit:4;stroke-dasharray:none"
       d="m 30.429733,15.934185 c 0,-0.489484 6.047492,-8.5712241 6.56131,-8.7683945 0.312174,-0.1197927 4.452504,-0.2178048 9.200732,-0.2178048 h 8.633142 v 0.8838834 0.8838835 h -8.108058 -8.108058 l -1.202345,1.5026024 c -0.661289,0.826431 -1.888235,2.49697 -2.726547,3.71231 -1.424295,2.064868 -1.613543,2.209709 -2.887189,2.209709 -0.749643,0 -1.362987,-0.09279 -1.362987,-0.206189 z"
       id="path1818"
       transform="matrix(0.26458333,0,0,0.26458333,44.581036,28.552681)" />
    <path
       style="fill:#ffffff;stroke-width:6.01319;stroke-linecap:round;stroke-miterlimit:4;stroke-dasharray:none"
       d="m 57.930084,10.949142 c -0.740755,-0.19455 -1.066265,-1.7393385 -0.917602,-4.3547097 0.09706,-1.7074899 0.207508,-1.9583165 0.906027,-2.057522 0.77741,-0.1104098 0.795495,-0.03606 0.795495,3.2703689 0,1.8608409 -0.03978,3.3648918 -0.08839,3.3423348 -0.04861,-0.02256 -0.361603,-0.11277 -0.695532,-0.200472 z"
       id="path1820"
       transform="matrix(0.26458333,0,0,0.26458333,44.581036,28.552681)" />
    <path
       style="fill:#ffffff;stroke-width:6.01319;stroke-linecap:round;stroke-miterlimit:4;stroke-dasharray:none"
       d="M 53.194488,38.755514 C 52.050335,38.3229 51.894526,37.069846 52.864303,36.10007 c 0.968984,-0.968984 2.057477,-0.828525 2.587085,0.333838 0.636535,1.397041 -0.798371,2.873086 -2.2569,2.321606 z"
       id="path1822"
       transform="matrix(0.26458333,0,0,0.26458333,44.581036,28.552681)" />
    <path
       style="fill:#ffffff;stroke-width:2.12598;stroke-linecap:round;stroke-miterlimit:4;stroke-dasharray:none"
       d="m 51.747018,42.040494 c -0.335991,-0.104051 -0.75,-0.563722 -0.75,-0.832721 0,-0.144594 0.08439,-0.383382 0.187535,-0.530641 0.180038,-0.25704 0.207272,-0.259991 0.681199,-0.07383 0.271515,0.106654 0.618804,0.327123 0.771754,0.489931 l 0.278091,0.296014 -0.282518,0.300727 c -0.307824,0.327663 -0.594131,0.440924 -0.886061,0.350518 z"
       id="path1824"
       transform="matrix(0.26458333,0,0,0.26458333,44.581036,28.552681)" />
    <path
       style="fill:#ffffff;stroke-width:2.12598;stroke-linecap:round;stroke-miterlimit:4;stroke-dasharray:none"
       d="m 54.349641,55.761103 c -0.303119,-0.303119 -0.362156,-0.445724 -0.297554,-0.71875 0.101517,-0.42904 0.506144,-0.778104 0.901961,-0.778104 0.336413,0 0.91797,0.507414 0.91797,0.800937 0,0.390777 -0.298392,0.816476 -0.660882,0.942841 -0.488085,0.170147 -0.42688,0.18769 -0.861495,-0.246924 z"
       id="path1826"
       transform="matrix(0.26458333,0,0,0.26458333,44.581036,28.552681)" />
    <path
       style="fill:#ffffff;stroke-width:2.12598;stroke-linecap:round;stroke-miterlimit:4;stroke-dasharray:none"
       d="M 8.1845181,55.910202 C 7.5127959,55.593626 7.2867703,55.311906 7.1248626,54.589441 c -0.1747657,-0.779839 -0.01025,-1.30804 0.5646149,-1.812778 0.8061144,-0.707778 1.956547,-0.632677 2.6647815,0.173958 0.503378,0.573315 0.607802,1.16679 0.332253,1.888302 -0.391619,1.025441 -1.5483543,1.52072 -2.5019939,1.071279 z"
       id="path1828"
       transform="matrix(0.26458333,0,0,0.26458333,44.581036,28.552681)" />
    <path
       style="fill:#ffffff;stroke-width:2.12598;stroke-linecap:round;stroke-miterlimit:4;stroke-dasharray:none"
       d="M 5.5172117,39.436726 C 5.0693988,38.893452 4.9400893,38.314881 5.1184448,37.652519 c 0.1451126,-0.538907 0.808777,-1.209616 1.3251516,-1.339218 0.4489035,-0.112668 1.1814218,0.02937 1.542767,0.299158 0.6045026,0.451327 1.0645333,1.355856 0.7380236,1.451129 -1.0512916,0.306759 -1.4720793,0.542509 -2.0603633,1.154335 -0.355022,0.369229 -0.6743643,0.671326 -0.7096495,0.671326 -0.035285,0 -0.2320085,-0.203635 -0.4371625,-0.452523 z"
       id="path1830"
       transform="matrix(0.26458333,0,0,0.26458333,44.581036,28.552681)" />
    <path
       style="fill:#ffffff;stroke-width:2.12598;stroke-linecap:round;stroke-miterlimit:4;stroke-dasharray:none"
       d="M 8.1587216,41.575443 C 7.9642149,41.167558 7.9613484,41.089136 8.1299654,40.788723 8.5284051,40.078854 9.4404052,40.14902 9.7572375,40.913921 9.9829447,41.458826 9.5979456,41.937775 8.8921448,41.990119 8.406272,42.026153 8.3616074,42.000899 8.1587216,41.575443 Z"
       id="path1832"
       transform="matrix(0.26458333,0,0,0.26458333,44.581036,28.552681)" />
    <path
       style="fill:#ffffff;stroke-width:2.12598;stroke-linecap:round;stroke-miterlimit:4;stroke-dasharray:none"
       d="m 13.53644,30.012211 c -0.560709,-0.223522 -0.693169,-0.893789 -0.280349,-1.418605 0.364103,-0.462882 0.874713,-0.441059 1.292315,0.05523 0.396354,0.471039 0.403219,0.638902 0.04236,1.035837 -0.334943,0.36843 -0.681598,0.476121 -1.054328,0.327534 z"
       id="path1834"
       transform="matrix(0.26458333,0,0,0.26458333,44.581036,28.552681)" />
  </g>
</svg>
