<?xml version="1.0" encoding="UTF-8" standalone="no"?>
<!-- Created with Inkscape (http://www.inkscape.org/) -->

<svg
   xmlns:dc="http://purl.org/dc/elements/1.1/"
   xmlns:cc="http://creativecommons.org/ns#"
   xmlns:rdf="http://www.w3.org/1999/02/22-rdf-syntax-ns#"
   xmlns:svg="http://www.w3.org/2000/svg"
   xmlns="http://www.w3.org/2000/svg"
   xmlns:sodipodi="http://sodipodi.sourceforge.net/DTD/sodipodi-0.dtd"
   xmlns:inkscape="http://www.inkscape.org/namespaces/inkscape"
   width="64"
   height="64"
   viewBox="0 0 16.933333 16.933334"
   version="1.1"
   id="svg8"
   inkscape:version="0.92.5 (2060ec1f9f, 2020-04-08)"
   sodipodi:docname="buy_pet_food_64x64.svg">
  <defs
     id="defs2" />
  <sodipodi:namedview
     id="base"
     pagecolor="#ffffff"
     bordercolor="#666666"
     borderopacity="1.0"
     inkscape:pageopacity="0.0"
     inkscape:pageshadow="2"
     inkscape:zoom="7.919596"
     inkscape:cx="28.807391"
     inkscape:cy="28.302468"
     inkscape:document-units="mm"
     inkscape:current-layer="layer1"
     showgrid="false"
     units="px"
     inkscape:window-width="1208"
     inkscape:window-height="987"
     inkscape:window-x="1992"
     inkscape:window-y="0"
     inkscape:window-maximized="1" />
  <metadata
     id="metadata5">
    <rdf:RDF>
      <cc:Work
         rdf:about="">
        <dc:format>image/svg+xml</dc:format>
        <dc:type
           rdf:resource="http://purl.org/dc/dcmitype/StillImage" />
        <dc:title></dc:title>
      </cc:Work>
    </rdf:RDF>
  </metadata>
  <g
     inkscape:label="Layer 1"
     inkscape:groupmode="layer"
     id="layer1"
     transform="translate(0,-280.06665)">
    <path
       style="fill:#000000;stroke-width:0.02249343"
       d="m 1.0243274,294.50766 c -0.0722974,-0.0182 -0.18828362,-0.1158 -0.22732819,-0.19132 -0.0282934,-0.0547 -0.0343203,-0.12127 -0.0278954,-0.30811 0.007009,-0.20311 0.0171424,-0.25663 0.0687705,-0.36206 0.075635,-0.15444 0.20427879,-0.28974 0.38454569,-0.40447 0.1654164,-0.10527 0.2318624,-0.19598 0.2627203,-0.3587 0.013456,-0.0709 0.022801,-0.5709 0.022801,-1.21946 0,-1.15934 0.01134,-1.3327 0.1132818,-1.73198 0.1412498,-0.55322 0.4185281,-1.10738 0.7680201,-1.53497 0.071966,-0.088 0.1308591,-0.16897 0.130876,-0.17984 1.52e-5,-0.0109 -0.029595,-0.0716 -0.065799,-0.13496 -0.088574,-0.15502 -0.1748991,-0.42036 -0.1948144,-0.59881 -0.012343,-0.1107 -0.045078,-0.20358 -0.1347132,-0.38239 -0.065115,-0.1299 -0.1557457,-0.34467 -0.2013977,-0.47724 l -0.083005,-0.24107 -0.070628,0.0534 c -0.1964023,0.14854 -0.5019866,0.10376 -0.6345641,-0.093 -0.025706,-0.0382 -0.20287747,-0.49815 -0.3937107,-1.02225 -0.31705982,-0.87074 -0.34688942,-0.96547 -0.34600485,-1.09907 0.001734,-0.24619 0.12194319,-0.4364 0.34768149,-0.54972 0.0556685,-0.028 0.44030886,-0.18616 0.85474986,-0.35161 l 0.7535299,-0.3008 0.1911945,-1.7e-4 c 0.2719784,-1.8e-4 0.392379,0.0599 0.6740465,0.33665 l 0.2171207,0.2133 h 1.0319611 1.0319632 l 0.2038381,-0.19889 c 0.2268175,-0.22131 0.3483427,-0.30002 0.5267577,-0.34125 0.2143703,-0.0495 0.3154851,-0.0216 1.2066353,0.33283 0.7733466,0.3076 0.8395534,0.33824 0.9353397,0.43305 0.064949,0.0642 0.1169552,0.14272 0.1405836,0.21206 0.07707,0.2262 0.067558,0.26602 -0.3157181,1.3207 -0.3263983,0.89816 -0.3601304,0.97909 -0.444245,1.0658 -0.1575078,0.16238 -0.3818095,0.18066 -0.5785536,0.0471 l -0.07757,-0.0526 -0.076783,0.227 c -0.042228,0.12485 -0.1352367,0.34805 -0.2066829,0.496 -0.083525,0.17297 -0.1299007,0.2976 -0.1299007,0.34911 0,0.15485 -0.1099723,0.48364 -0.2270576,0.67884 l -0.049366,0.0823 0.1357246,0.16513 c 0.3610469,0.43925 0.659747,1.04367 0.7930426,1.6047 0.08044,0.33857 0.09458,0.52849 0.1060517,1.42412 0.010582,0.82694 0.014857,0.90551 0.04836,0.89257 0.2696154,-0.10409 1.0938192,-0.19087 1.8137277,-0.19087 1.0499714,0 1.8919914,0.13739 2.1192444,0.34578 0.07206,0.0661 0.0882,0.11188 0.27763,0.78833 l 0.201117,0.71816 v 0.27717 0.27718 H 8.8111404 c -3.4107392,0 -3.2351369,0.008 -3.4044712,-0.1414 -0.1209715,-0.10625 -0.1868264,-0.26427 -0.1870947,-0.44907 l -1.89e-4,-0.15181 H 4.4803328 3.7412783 l -0.014762,0.15886 c -0.024334,0.26182 -0.1174538,0.4152 -0.3178499,0.52352 -0.088547,0.0478 -0.1078138,0.0487 -1.2146461,0.0521 -0.6185685,0.002 -1.1449139,-0.002 -1.1696572,-0.008 z m 2.2814492,-0.4259 c 0.045836,-0.0582 0.04662,-0.0794 0.04662,-1.2549 0,-0.99661 0.00571,-1.21796 0.034225,-1.32971 0.1333617,-0.52237 0.5607737,-0.86382 1.0824524,-0.86477 0.5011812,-7.2e-4 0.912175,0.3081 1.0641212,0.80005 0.043971,0.14235 0.046051,0.20339 0.046051,1.35124 0,1.2686 0.00277,1.30523 0.1022282,1.34338 0.020027,0.008 0.2582685,0.0139 0.5294265,0.0139 h 0.4930155 v -0.1069 c 0,-0.0587 0.040694,-0.24858 0.090431,-0.42175 0.049738,-0.17318 0.1313147,-0.46537 0.1812842,-0.6493 l 0.090853,-0.33443 -0.00911,-1.10515 c -0.010193,-1.23663 -0.013837,-1.27316 -0.1755398,-1.75747 -0.098079,-0.29376 -0.2611097,-0.63425 -0.4077596,-0.85163 -0.1101159,-0.16322 -0.2842834,-0.38243 -0.3121698,-0.3929 -0.010831,-0.004 -0.062848,0.0274 -0.1156032,0.07 -0.2004244,0.16149 -0.5108817,0.2965 -0.7846028,0.34124 l -0.081362,0.0133 -0.037929,0.19636 c -0.056522,0.29263 -0.096049,0.39581 -0.1944438,0.5076 -0.221453,0.25158 -0.5995704,0.2946 -0.8578598,0.0976 -0.1473248,-0.11236 -0.2137978,-0.24064 -0.2753637,-0.53133 -0.054156,-0.2557 -0.074255,-0.29263 -0.1595827,-0.29328 -0.1704325,-0.002 -0.5354186,-0.15828 -0.7500838,-0.32266 l -0.1211643,-0.0927 -0.089118,0.10074 c -0.2874214,0.3248 -0.5881649,0.91897 -0.7051649,1.39317 -0.097618,0.39567 -0.1043511,0.49469 -0.1201136,1.76665 -0.01707,1.37711 -0.01204,1.33289 -0.1765681,1.55205 -0.046439,0.0619 -0.1490483,0.15502 -0.2280213,0.20704 -0.078972,0.052 -0.1720036,0.1218 -0.2067338,0.15507 -0.075582,0.0723 -0.1326476,0.22801 -0.1326476,0.36169 v 0.0972 h 1.0668091 1.0668052 z m 8.2342304,0.002 c 0,-0.0577 -0.280983,-1.06373 -0.30334,-1.08609 -0.0066,-0.006 -0.06513,0.004 -0.129931,0.024 -0.78342,0.24012 -2.6083402,0.25861 -3.4693408,0.0352 -0.3091359,-0.0802 -0.2660203,-0.12467 -0.4295839,0.44284 -0.078443,0.27217 -0.1429338,0.52775 -0.1433118,0.56796 l -7.588e-4,0.0731 h 2.2380981 2.2380962 z m -3.1715744,-0.30289 v -0.17994 h 0.1911948 0.1911937 v 0.17994 0.17995 H 8.5596274 8.3684326 Z m 0.7422829,0 v -0.17994 h 0.1911946 0.1911938 v 0.17994 0.17995 H 9.3019101 9.1107155 Z m 0.7422837,0 v -0.17994 h 0.1911948 0.191194 v 0.17994 0.17995 H 10.044194 9.8529992 Z m -4.6336473,-1.21042 c 0,-0.85647 -0.013138,-1.02318 -0.092955,-1.17963 -0.064377,-0.1262 -0.2090041,-0.26044 -0.3535862,-0.32823 -0.1704287,-0.0799 -0.4302776,-0.0828 -0.599404,-0.006 -0.1408186,0.0633 -0.2893417,0.20566 -0.3674112,0.3521 l -0.059963,0.11246 -0.00655,0.93911 -0.00655,0.93909 h 0.743204 0.7432111 z m 4.4920877,0.26541 c 0.2499841,-0.0121 0.5688284,-0.0376 0.7085424,-0.0565 0.286459,-0.0389 0.588034,-0.1002 0.571937,-0.1163 -0.04856,-0.0485 -0.698377,-0.13782 -1.2181261,-0.16733 -0.6985737,-0.0397 -1.6667003,0.0255 -2.0891254,0.14083 -0.088672,0.0242 -0.090095,0.0259 -0.0366,0.0461 0.1561045,0.0587 0.8713189,0.14461 1.3389354,0.16081 0.098972,0.003 0.2001904,0.009 0.2249329,0.0108 0.024743,0.002 0.24952,-0.005 0.4995041,-0.0179 z m -5.1064698,-3.37251 c 0.090641,-0.0553 0.1115828,-0.0953 0.1532637,-0.29352 0.051674,-0.24566 0.078582,-0.22496 -0.2924114,-0.22496 -0.1793846,0 -0.3261555,0.003 -0.3261555,0.009 0,0.0691 0.082847,0.37997 0.1156259,0.43382 0.07175,0.11786 0.2258951,0.15128 0.3496773,0.0758 z m -0.5020961,-0.90976 c 0.040825,-0.0171 0.09617,-0.0589 0.1229902,-0.093 0.044491,-0.0566 0.048764,-0.0883 0.048764,-0.36232 v -0.30033 l -0.075023,-0.0314 c -0.1081123,-0.0451 -0.3747432,-0.30238 -0.4228263,-0.40789 -0.1126659,-0.24719 0.011058,-0.52854 0.2706475,-0.61546 0.096958,-0.0324 0.7261842,-0.0335 0.8417402,-0.002 0.1342521,0.0373 0.2568849,0.16263 0.2982219,0.30482 0.031732,0.10916 0.031784,0.13254 5.671e-4,0.24006 -0.028937,0.0996 -0.06341,0.14691 -0.2096601,0.28816 -0.096267,0.093 -0.2079267,0.18228 -0.2481333,0.1985 l -0.073104,0.0296 9.08e-5,0.28407 c 6.79e-5,0.23822 0.0069,0.29522 0.042331,0.35333 0.054901,0.0901 0.1861837,0.15295 0.2817412,0.13502 0.1110934,-0.0207 0.2183778,-0.14541 0.2324032,-0.26985 l 0.011625,-0.10312 h 0.1791048 0.1791029 l -0.00771,0.12375 c -0.00423,0.068 -0.00476,0.12373 -0.00113,0.12372 0.050765,-1.9e-4 0.2319117,-0.13243 0.3665568,-0.26749 0.2378581,-0.23859 0.3803629,-0.55088 0.3805047,-0.83382 4.52e-5,-0.0807 0.030101,-0.16176 0.1427032,-0.38524 0.1481185,-0.29395 0.2788511,-0.66884 0.3394606,-0.97345 l 0.035196,-0.17688 -0.1021029,-0.24188 C 6.5246228,285.0685 6.1940821,284.5912 5.7747261,284.18208 l -0.259382,-0.25305 H 4.4701989 3.4250573 l -0.2179524,0.20627 c -0.4098783,0.38792 -0.7478419,0.86639 -0.9831427,1.39189 l -0.1153236,0.25755 0.02593,0.18168 c 0.03684,0.25812 0.1611308,0.62473 0.330089,0.97363 0.082931,0.17127 0.1457162,0.33092 0.1459373,0.37115 0.00151,0.25647 0.1480203,0.61776 0.3360281,0.82811 0.1021299,0.11426 0.3594249,0.3109 0.406803,0.3109 0.010074,0 0.012551,-0.0557 0.00553,-0.12371 l -0.012759,-0.12372 h 0.1943399 0.1943419 v 0.0921 c 0,0.11095 0.066958,0.21485 0.1663684,0.25811 0.08911,0.0388 0.111303,0.0389 0.2017194,0.002 z m -1.3128121,-2.94937 v -0.19119 h 0.1911945 0.1911928 v 0.19119 0.19119 H 2.9812561 2.7900616 Z m 2.9691337,0 v -0.19119 h 0.1911928 0.1911944 v 0.19119 0.19119 H 5.9503881 5.7591953 Z M 4.5850299,287.428 c 0.098332,-0.0517 0.2572253,-0.22764 0.2481732,-0.27477 -0.00739,-0.0385 -0.03712,-0.0425 -0.3594214,-0.0482 -0.3047696,-0.005 -0.3531949,-0.002 -0.3651542,0.0298 -0.017692,0.0461 0.00896,0.0938 0.1022963,0.18312 0.1430718,0.13695 0.2584009,0.17086 0.3741062,0.11002 z m -2.8501125,-1.70279 c 0.1962829,-0.48025 0.3690628,-0.81808 0.5638318,-1.10246 0.1708994,-0.24952 0.5203554,-0.65754 0.6716629,-0.78421 l 0.1152308,-0.0965 -0.141138,-0.1424 c -0.2944945,-0.29713 -0.3000422,-0.29673 -1.2791158,0.0949 -0.85264613,0.34104 -0.89973716,0.36839 -0.89973716,0.52264 0,0.0906 0.62112856,1.84012 0.67732986,1.90783 0.01501,0.018 0.048268,0.0299 0.07393,0.0261 0.037731,-0.005 0.079416,-0.0868 0.2180055,-0.42596 z m 5.7899084,0.35548 c 0.068398,-0.16371 0.6361959,-1.74061 0.6509827,-1.80793 0.0107,-0.0487 0.00368,-0.0974 -0.021811,-0.15112 -0.046071,-0.0971 -0.055503,-0.10161 -0.9567351,-0.45956 -0.7510762,-0.2983 -0.8212029,-0.31437 -0.998083,-0.22874 -0.050365,0.0244 -0.146408,0.0999 -0.2134311,0.1677 l -0.1218578,0.12341 0.2407747,0.24921 c 0.5069369,0.52472 0.802161,0.99826 1.1182568,1.79367 0.062762,0.15792 0.1287874,0.30992 0.1467235,0.33776 0.048719,0.0756 0.1179415,0.0648 0.1551824,-0.0244 z"
       id="path6916"
       inkscape:connector-curvature="0"
       sodipodi:nodetypes="ccccccsscsccsccccscccccccccscscsscccccscccsscscscccscccccccccccsccsscscssccsscccccccsscscccscccsccccccccscccccccccccccccccccccccccccccccccccccccccccccccccccccsssccccsscccccccccccccccccccccsccssccccccssccsccccsscccccccccccccccccccccccccccsscccscccsscscccsccs" />
    <path
       style="fill:#000000;stroke-width:0.02289227"
       d="m 8.4796396,290.25629 c -0.092555,-0.10268 -0.018871,-0.23259 0.3507374,-0.61831 0.5202042,-0.54288 0.5681533,-0.76221 0.2741369,-1.2539 -0.3379895,-0.56525 -0.4670209,-0.99477 -0.4641911,-1.54523 0.00238,-0.46579 0.1273835,-0.96904 0.3630322,-1.46173 0.088963,-0.18598 0.135038,-0.24995 0.2918078,-0.40512 0.1590303,-0.1574 0.2245205,-0.20318 0.449349,-0.3141 0.1596455,-0.0787 0.3892712,-0.16672 0.5836782,-0.22357 0.17627,-0.0515 0.500768,-0.15426 0.721106,-0.22826 0.527588,-0.1772 0.613943,-0.19203 1.025007,-0.17608 1.52308,0.0591 2.051703,0.14785 2.649203,0.44499 1.007782,0.50118 1.635645,1.37911 1.755198,2.45426 0.110039,0.98961 -0.40897,1.92532 -1.303326,2.34973 -0.648726,0.30785 -1.229667,0.4301 -2.042886,0.42989 -0.667078,-9e-5 -1.207552,-0.0645 -1.831381,-0.21786 -0.542235,-0.13331 -0.62365,-0.12082 -1.093877,0.16785 -0.08456,0.0518 -0.3185756,0.17546 -0.5200277,0.27456 -0.6045848,0.29742 -1.1089721,0.43227 -1.2075667,0.32288 z m 0.9266138,-0.38108 c 0.180696,-0.068 0.4741653,-0.2162 0.8407156,-0.42439 0.493596,-0.28034 0.572455,-0.28927 1.157765,-0.13104 0.459004,0.1241 0.706975,0.16619 1.168803,0.19837 0.922361,0.0642 1.891701,-0.0943 2.527691,-0.41329 0.609214,-0.30559 0.946362,-0.71562 1.103638,-1.34216 0.04327,-0.17237 0.05071,-0.26278 0.04971,-0.60337 -0.0011,-0.36265 -0.007,-0.4223 -0.06353,-0.62953 -0.233336,-0.85676 -0.887366,-1.56454 -1.808661,-1.9573 -0.545453,-0.23254 -1.08921,-0.32043 -1.982588,-0.32046 -0.934576,-4e-5 -1.658257,0.14743 -2.274785,0.46356 -0.7552381,0.38726 -1.2100414,0.97471 -1.3307388,1.71889 -0.096971,0.59789 -0.00449,1.00595 0.3666444,1.61803 0.444359,0.73282 0.4613324,1.0219 0.091369,1.55623 -0.081855,0.11823 -0.1488347,0.23871 -0.1488347,0.26776 0,0.045 0.011735,0.0529 0.079599,0.0529 0.043783,0 0.1442204,-0.0244 0.2231993,-0.0541 z m 0.8909576,-1.75518 c -0.218769,-0.045 -0.4122045,-0.21636 -0.4724662,-0.41832 -0.045879,-0.15374 -0.014442,-0.29423 0.1232692,-0.55087 0.061678,-0.11494 0.11913,-0.2422 0.127666,-0.2828 0.01431,-0.068 0.0053,-0.0833 -0.1138812,-0.19458 -0.1615631,-0.15079 -0.2173617,-0.25524 -0.2173617,-0.40693 0,-0.28258 0.241086,-0.48892 0.6443879,-0.5515 0.331872,-0.0515 0.59932,0.0313 0.741844,0.22971 0.04618,0.0644 0.10275,0.12694 0.125701,0.13922 0.02296,0.0123 0.22011,0.0224 0.438128,0.0224 0.218018,2e-5 0.638482,0.0129 0.934365,0.0285 0.704393,0.0372 0.884676,0.0342 0.985157,-0.0168 0.04364,-0.0221 0.163104,-0.12145 0.265491,-0.22072 0.103981,-0.10084 0.231883,-0.2007 0.289744,-0.22629 0.224182,-0.0991 0.491042,-0.082 0.816947,0.0526 0.225402,0.0931 0.353987,0.21187 0.405217,0.3744 0.03821,0.1212 0.03789,0.12793 -0.01417,0.30072 -0.08103,0.26894 -0.0816,0.25717 0.01992,0.4092 0.136721,0.20474 0.168373,0.30704 0.168896,0.54589 3.4e-4,0.1767 -0.008,0.22245 -0.05846,0.3214 -0.166614,0.32637 -0.589696,0.51496 -0.999967,0.44576 -0.193523,-0.0327 -0.482859,-0.16828 -0.585482,-0.27448 -0.0377,-0.039 -0.09947,-0.13429 -0.137242,-0.21169 -0.03777,-0.0774 -0.09534,-0.16019 -0.127934,-0.18395 -0.06205,-0.0452 -0.0266,-0.0441 -2.083764,-0.0695 -0.276377,-0.003 -0.317897,0.0256 -0.317897,0.22154 0,0.11286 -0.01155,0.16208 -0.05224,0.22266 -0.126225,0.18798 -0.629287,0.35151 -0.90588,0.2945 z m 4.460317,-0.22738 c 0.01547,-0.0374 0.04248,-0.0798 0.06001,-0.0944 0.01754,-0.0145 0.03187,-0.0472 0.03187,-0.0727 0,-0.043 0.009,-0.0449 0.13163,-0.0282 0.24401,0.0334 0.26126,0.0302 0.321408,-0.0575 0.049,-0.0714 0.05387,-0.0988 0.04486,-0.25182 -0.01797,-0.3052 -0.15775,-0.51422 -0.38861,-0.58108 -0.234341,-0.0679 -0.21784,-0.16352 0.05103,-0.29578 0.124324,-0.0612 0.153912,-0.0871 0.180297,-0.15859 0.03856,-0.10431 0.01112,-0.18733 -0.0973,-0.29426 -0.300913,-0.29679 -0.843171,-0.34025 -1.026849,-0.0823 -0.02821,0.0396 -0.07722,0.14928 -0.108899,0.24367 -0.07484,0.22298 -0.114623,0.24118 -0.336993,0.15404 l -0.155556,-0.0609 -1.160912,-0.009 c -0.945158,-0.006 -1.169856,-0.0145 -1.209048,-0.0404 -0.02648,-0.0176 -0.08095,-0.0934 -0.121055,-0.16849 -0.09993,-0.18708 -0.177566,-0.22987 -0.416303,-0.22942 -0.287837,3.8e-4 -0.511471,0.12528 -0.5621774,0.31359 -0.043562,0.16179 0.080795,0.30472 0.3940294,0.45285 0.159164,0.0753 0.24827,0.15023 0.24827,0.20883 0,0.0632 -0.09086,0.11177 -0.209366,0.11177 -0.140982,0 -0.220923,0.0671 -0.305906,0.25636 -0.11765,0.26216 -0.08102,0.52197 0.07358,0.52197 0.03016,0 0.136204,-0.0425 0.235641,-0.0944 0.232662,-0.12142 0.300988,-0.11066 0.380852,0.06 0.02938,0.0628 0.05984,0.0939 0.09691,0.0992 0.0887,0.0125 0.10601,-0.029 0.10601,-0.25492 0,-0.18644 0.0064,-0.21954 0.05573,-0.28869 0.03064,-0.0431 0.06169,-0.11508 0.069,-0.16026 0.01858,-0.11502 0.09656,-0.1263 0.140439,-0.0203 0.04802,0.11595 0.09235,0.15569 0.173736,0.15569 0.05762,0 0.08741,-0.0177 0.135401,-0.0807 0.07344,-0.0963 0.121679,-0.0915 0.230974,0.0231 0.08634,0.0905 0.176697,0.11509 0.30012,0.0818 0.130181,-0.0351 0.210935,-0.1056 0.210935,-0.1842 0,-0.12765 0.105783,-0.10064 0.170833,0.0436 0.04891,0.10848 0.06559,0.11558 0.279052,0.11882 0.214774,0.003 0.251409,-0.0187 0.271166,-0.16231 0.01785,-0.12973 0.0364,-0.15054 0.102599,-0.11511 0.03425,0.0184 0.04626,0.048 0.04626,0.11388 0,0.17148 0.113408,0.20944 0.241894,0.081 0.04408,-0.0442 0.09764,-0.0801 0.119061,-0.0801 0.05121,0 0.315765,0.28447 0.349111,0.3754 0.01432,0.039 0.04571,0.11478 0.06974,0.16829 0.03944,0.0878 0.0516,0.0973 0.124339,0.0973 0.05836,0 0.100483,-0.019 0.152494,-0.0687 0.128475,-0.12279 0.276004,-0.0759 0.303563,0.0964 0.01405,0.0879 0.10655,0.22406 0.152184,0.22406 0.0087,0 0.0285,-0.0306 0.04397,-0.0679 z m -4.049955,-1.70932 c -0.09314,-0.11842 -0.02474,-0.2629 0.07169,-0.15143 0.04676,0.054 0.06256,0.12845 0.03698,0.17415 -0.02926,0.0523 -0.05368,0.0472 -0.108669,-0.0228 z m 4.094624,-0.0326 c -0.02597,-0.026 -0.0432,-0.0595 -0.03829,-0.0744 0.01944,-0.0592 0.314435,-0.0424 0.314435,0.018 0,0.10182 -0.191564,0.14099 -0.276137,0.0564 z m -4.439669,-0.0874 c 0,-0.011 0.01323,-0.0311 0.02938,-0.0445 0.03553,-0.0296 0.09765,0.002 0.07521,0.0391 -0.01858,0.03 -0.104598,0.0344 -0.104598,0.005 z m 4.084551,-0.0588 c -0.02365,-0.0942 0.04145,-0.13639 0.127027,-0.0823 0.02845,0.018 0.02513,0.0305 -0.02116,0.0798 -0.06841,0.0728 -0.0881,0.0733 -0.10587,0.002 z m -3.83334,1.85016 c 0.04005,-0.0456 0.06418,-0.0916 0.05363,-0.10214 -0.02681,-0.0268 -0.31629,0.0816 -0.31629,0.11852 0,0.0288 0.07238,0.0594 0.152151,0.0643 0.02073,0.002 0.07045,-0.0351 0.110507,-0.0807 z m 3.836635,-0.0817 c -0.0086,-0.0654 -0.02184,-0.12869 -0.02926,-0.1407 -0.01534,-0.0247 -0.09581,0.1151 -0.09727,0.16914 -0.0013,0.0481 0.04454,0.0905 0.09814,0.0905 0.03997,0 0.04266,-0.0112 0.02839,-0.11887 z"
       id="path7034"
       inkscape:connector-curvature="0" />
    <path
       style="fill:#ffffff;stroke-width:0.00954475;stroke-miterlimit:4;stroke-dasharray:none"
       d="m 14.755585,32.009594 c -0.332882,-0.13412 -0.544898,-0.499026 -0.544898,-0.937835 0,-0.314788 -0.02343,-0.323974 -0.826471,-0.323974 h -0.826471 l 0.08617,0.459306 0.08617,0.459305 -0.406767,-0.238334 C 11.214822,30.778569 10.170574,29.129921 9.932958,27.654193 9.8658643,27.237505 9.6149013,26.46895 9.3752625,25.946294 8.7565924,24.596963 8.3153866,23.32734 8.1519583,22.426087 L 8.0110184,21.64885 8.5864448,20.434113 c 0.8059089,-1.70129 1.8055312,-3.149702 3.1297042,-4.534811 l 1.135438,-1.187689 h 4.006608 4.006607 l 1.193973,1.231124 c 1.395478,1.4389 2.301457,2.731748 3.138658,4.478922 l 0.602389,1.25714 -0.178723,0.777988 c -0.271144,1.180304 -0.661502,2.305721 -1.211491,3.492773 -0.280624,0.605677 -0.548076,1.421348 -0.613871,1.872177 -0.165412,1.133396 -0.65361,2.03948 -1.57621,2.925405 -0.434305,0.417042 -0.851384,0.758257 -0.926844,0.758257 -0.07546,0 -0.137198,-0.170463 -0.137198,-0.378807 v -0.378807 h -0.757614 c -0.729974,0 -0.757615,0.01187 -0.757615,0.325385 0,0.193783 -0.154495,0.479881 -0.381985,0.707371 -0.307926,0.307927 -0.448691,0.365703 -0.726047,0.297999 -0.671233,-0.163851 -0.829367,-0.46278 -0.885541,-1.673991 l -0.05143,-1.108858 0.466262,-0.247303 c 0.609387,-0.323215 1.537971,-1.363077 1.642598,-1.839442 0.126899,-0.577767 -0.04545,-1.106286 -0.513324,-1.574162 -0.512828,-0.512828 -1.060229,-0.621562 -2.755806,-0.547403 -1.308363,0.05722 -1.688604,0.220016 -2.103588,0.900607 -0.385417,0.632103 -0.326092,1.342121 0.163393,1.955533 0.421722,0.52849 1.307342,1.289035 1.501024,1.289035 0.0599,0 0.108907,0.487351 0.108907,1.083 0,1.028642 -0.01853,1.101526 -0.369095,1.452094 -0.388105,0.388106 -0.530208,0.423187 -0.980043,0.241944 z M 12.064112,20.898798 v -0.757615 h -0.757614 -0.757614 v 0.757615 0.757614 h 0.757614 0.757614 z m 11.237947,0 V 20.141183 H 22.48131 21.660561 v 0.757615 0.757614 h 0.820749 0.820749 z"
       id="path7036"
       inkscape:connector-curvature="0"
       transform="matrix(0.26458333,0,0,0.26458333,0,280.06665)" />
    <path
       style="fill:#ffffff;stroke-width:0.00954475;stroke-miterlimit:4;stroke-dasharray:none"
       d="M 5.377757,22.571863 C 4.9151891,21.57359 2.9727395,15.944496 2.9727395,15.602277 c 0,-0.388059 0.4327052,-0.635604 2.7947653,-1.59885 2.7633715,-1.126901 3.9077454,-1.492229 4.2921572,-1.370221 0.154328,0.04898 0.550138,0.341183 0.879578,0.649335 l 0.598983,0.560278 -0.824999,0.844772 c -1.7639338,1.806211 -3.0006921,3.764492 -4.1961528,6.644181 -0.707877,1.705172 -0.8514158,1.861407 -1.1393142,1.240091 z"
       id="path7038"
       inkscape:connector-curvature="0"
       transform="matrix(0.26458333,0,0,0.26458333,0,280.06665)" />
    <path
       style="fill:#ffffff;stroke-width:0.00954475;stroke-miterlimit:4;stroke-dasharray:none"
       d="m 27.866511,22.698132 c -0.06401,-0.121534 -0.326927,-0.732361 -0.58425,-1.357392 -1.148664,-2.790074 -2.3431,-4.692341 -4.122615,-6.565708 l -0.907383,-0.955239 0.359426,-0.375159 c 0.197684,-0.206338 0.593368,-0.48841 0.879296,-0.626825 0.48388,-0.234243 0.567454,-0.239121 1.207192,-0.07047 0.817311,0.215459 5.33948,2.007164 5.75784,2.281284 0.160549,0.105196 0.324691,0.321886 0.36476,0.481533 0.04789,0.190823 -0.346558,1.455605 -1.151367,3.691773 -0.673322,1.870828 -1.280371,3.472532 -1.349,3.559342 -0.17208,0.217668 -0.316582,0.197569 -0.453899,-0.06313 z"
       id="path7040"
       inkscape:connector-curvature="0"
       transform="matrix(0.26458333,0,0,0.26458333,0,280.06665)" />
    <path
       style="fill:#ffffff;stroke-width:0.00954475;stroke-miterlimit:4;stroke-dasharray:none"
       d="m 16.070358,27.455596 c -0.782796,-0.645246 -0.6643,-0.748421 0.859556,-0.748421 1.265863,0 1.324077,0.01157 1.202403,0.238918 -0.22094,0.412829 -0.896456,0.897503 -1.250898,0.897503 -0.193655,0 -0.543233,-0.167232 -0.811061,-0.388 z"
       id="path7042"
       inkscape:connector-curvature="0"
       transform="matrix(0.26458333,0,0,0.26458333,0,280.06665)" />
    <path
       style="fill:#ffffff;stroke-width:0.00954475;stroke-miterlimit:4;stroke-dasharray:none"
       d="m 16.335401,35.393793 c -0.177475,-0.137314 -0.609486,-1.29868 -0.609486,-1.638468 0,-0.05684 0.517842,-0.103351 1.150759,-0.103351 h 1.150759 l -0.08457,0.599778 c -0.114389,0.811264 -0.427159,1.221576 -0.966801,1.26831 -0.236169,0.02045 -0.524466,-0.03637 -0.640661,-0.126269 z"
       id="path7044"
       inkscape:connector-curvature="0"
       transform="matrix(0.26458333,0,0,0.26458333,0,280.06665)" />
    <path
       style="fill:#ffffff;stroke-width:0.00954475;stroke-miterlimit:4;stroke-dasharray:none"
       d="m 4.3616993,52.706119 c 0,-0.631656 0.3363992,-1.152903 1.0920689,-1.692149 0.8106656,-0.57849 1.2614502,-1.115863 1.4455608,-1.72323 0.07058,-0.232839 0.1772178,-2.667776 0.2369725,-5.410972 0.1032178,-4.73849 0.1246165,-5.049297 0.4283911,-6.222205 0.4735298,-1.828352 1.5461081,-3.975339 2.6560164,-5.316565 l 0.301187,-0.363958 0.423869,0.323031 c 0.580882,0.442692 1.964897,1.086598 2.536491,1.180089 0.593078,0.09701 0.644473,0.167597 0.906517,1.245101 0.118225,0.486136 0.353869,1.09584 0.523652,1.354898 0.770689,1.175933 2.576025,1.324045 3.698108,0.303397 0.404577,-0.368002 0.592884,-0.76682 0.78299,-1.658295 0.204419,-0.95859 0.326044,-1.199556 0.605465,-1.199556 0.453844,0 1.803218,-0.54032 2.54223,-1.017966 l 0.761259,-0.492026 0.570439,0.723429 c 0.760942,0.965025 1.706446,2.835035 2.217235,4.385231 l 0.416055,1.262691 0.07099,4.538181 0.07099,4.538181 -0.662564,2.406617 c -0.36441,1.32364 -0.662721,2.591287 -0.662913,2.816992 l -3.49e-4,0.410375 h -1.949718 c -1.421114,0 -1.977415,-0.04279 -2.051872,-0.157836 -0.05618,-0.08681 -0.130858,-2.345448 -0.16594,-5.019196 l -0.06379,-4.861359 -0.350655,-0.715257 c -0.395868,-0.807487 -1.18264,-1.655112 -1.854377,-1.997807 -2.079938,-1.061105 -4.704719,-0.222993 -5.745806,1.834679 -0.473925,0.936697 -0.550655,1.859044 -0.562047,6.75621 -0.0066,2.821548 -0.04967,3.898213 -0.160497,4.009043 -0.111397,0.111397 -1.198153,0.151523 -4.1037449,0.151523 H 4.3616993 Z"
       id="path7046"
       inkscape:connector-curvature="0"
       transform="matrix(0.26458333,0,0,0.26458333,0,280.06665)" />
    <path
       style="fill:#ffffff;stroke-width:0.00954475;stroke-miterlimit:4;stroke-dasharray:none"
       d="m 14.210687,46.826618 c 0,-3.479076 0.0012,-3.494959 0.309415,-4.020852 0.899682,-1.535189 2.850775,-1.879513 4.125333,-0.728028 0.931014,0.841116 0.92692,0.821164 0.972163,4.737786 l 0.04048,3.503966 H 16.934384 14.21069 Z"
       id="path7048"
       inkscape:connector-curvature="0"
       transform="matrix(0.26458333,0,0,0.26458333,0,280.06665)" />
    <path
       style="fill:#ffffff;stroke-width:0.00954475;stroke-miterlimit:4;stroke-dasharray:none"
       d="m 26.786052,52.75017 c 0.279425,-1.219873 0.974883,-3.528397 1.100732,-3.653803 0.116031,-0.115623 0.370132,-0.09706 1.112819,0.08131 3.029087,0.727481 9.712238,0.690433 12.657006,-0.07016 0.40701,-0.105125 0.758948,-0.172204 0.782088,-0.149064 0.08123,0.08123 1.06576,3.699486 1.066085,3.917989 3.09e-4,0.208237 -0.483693,0.220971 -8.398971,0.220971 h -8.399298 z m 6.364995,-0.921476 v -0.76364 l -0.789182,0.03759 -0.789182,0.03759 -0.03953,0.55109 c -0.06052,0.843667 -0.006,0.901005 0.856319,0.901005 h 0.761578 z m 2.777919,0.006 V 51.07708 h -0.757614 -0.757615 v 0.757614 0.757615 h 0.757615 0.757614 z m 2.77792,0 V 51.07708 h -0.757615 -0.757614 v 0.757614 0.757615 h 0.757614 0.757615 z"
       id="path7050"
       inkscape:connector-curvature="0"
       transform="matrix(0.26458333,0,0,0.26458333,0,280.06665)" />
    <path
       style="fill:#ffffff;stroke-width:0.00954475;stroke-miterlimit:4;stroke-dasharray:none"
       d="m 33.403585,48.212847 c -1.037692,-0.0592 -3.903949,-0.423031 -4.20237,-0.533425 -0.202193,-0.0748 -0.09294,-0.129142 0.487202,-0.242341 2.228711,-0.434879 6.563515,-0.531905 9.334141,-0.208927 2.498292,0.291232 2.633258,0.355855 1.262691,0.604587 -1.139681,0.206831 -4.729383,0.48686 -5.679953,0.443087 -0.278977,-0.01285 -0.819747,-0.04119 -1.201711,-0.06298 z"
       id="path7052"
       inkscape:connector-curvature="0"
       transform="matrix(0.26458333,0,0,0.26458333,0,280.06665)" />
    <path
       style="fill:#ffffff;stroke-width:0.00954475;stroke-miterlimit:4;stroke-dasharray:none"
       d="m 34.608175,36.795465 c 0.120936,-0.235789 0.376193,-0.657271 0.567238,-0.936628 0.570053,-0.833562 0.78539,-1.456587 0.784581,-2.269998 -9.47e-4,-0.958991 -0.206717,-1.508524 -1.312779,-3.506044 -1.199936,-2.167054 -1.413909,-2.845993 -1.422002,-4.512042 -0.0077,-1.579506 0.166182,-2.373025 0.816111,-3.724937 0.630168,-1.310808 1.396815,-2.263144 2.472752,-3.071674 2.247792,-1.68914 4.751984,-2.523971 8.4547,-2.818572 2.253515,-0.179297 5.422039,-0.0042 7.066901,0.390527 4.623887,1.109622 8.096149,4.272826 9.155698,8.340773 0.233238,0.895473 0.192797,3.717566 -0.06603,4.607903 -0.479134,1.648163 -1.413452,3.032335 -2.635415,3.90431 -2.280297,1.627185 -5.497503,2.473196 -9.405068,2.473196 -2.208835,0 -3.416845,-0.149873 -5.749938,-0.713368 -2.35736,-0.569356 -2.738504,-0.546017 -4.228932,0.258939 -2.08945,1.128479 -3.698259,1.869587 -4.206524,1.937758 l -0.511176,0.06856 z m 6.325352,-6.557025 c 1.131352,-0.382064 1.570067,-0.800183 1.653201,-1.575587 0.03714,-0.346419 0.130929,-0.709378 0.208418,-0.806575 0.117749,-0.147697 0.825342,-0.164913 4.308201,-0.104815 2.292021,0.03955 4.259515,0.108172 4.37221,0.152497 0.112694,0.04432 0.356532,0.35919 0.541862,0.699702 0.664291,1.220522 1.915462,1.892524 3.519556,1.890351 1.446481,-0.002 2.633968,-0.689328 3.180469,-1.840993 0.354102,-0.746215 0.216209,-1.964497 -0.336759,-2.975278 l -0.438461,-0.801469 0.185779,-0.770301 c 0.110865,-0.459691 0.150966,-0.955863 0.09945,-1.230486 -0.182683,-0.973776 -1.584874,-1.816749 -3.232215,-1.943151 -1.057157,-0.08112 -1.437591,0.08118 -2.689863,1.147516 l -0.985591,0.839252 -1.666059,-0.01335 c -0.916334,-0.0073 -2.872649,-0.04996 -4.34737,-0.0947 l -2.681309,-0.08135 -0.562831,-0.58758 c -0.70503,-0.736033 -1.218345,-0.911025 -2.461292,-0.839072 -1.687606,0.09769 -2.78807,0.931614 -2.78807,2.11277 0,0.650027 0.13826,0.932239 0.787024,1.606445 l 0.504991,0.524796 -0.519738,1.128286 c -0.740121,1.606708 -0.693789,2.369959 0.195035,3.212885 0.197182,0.186999 0.500565,0.396477 0.674185,0.465504 0.528838,0.210257 1.67269,0.157063 2.47918,-0.115293 z"
       id="path7054"
       inkscape:connector-curvature="0"
       transform="matrix(0.26458333,0,0,0.26458333,0,280.06665)" />
    <path
       style="fill:#ffffff;stroke-width:0.00954475;stroke-miterlimit:4;stroke-dasharray:none"
       d="m 55.345777,29.457551 c -0.09129,-0.158471 -0.251946,-0.458593 -0.357007,-0.666937 -0.239141,-0.474238 -0.626327,-0.53946 -1.178093,-0.198451 -0.232789,0.143873 -0.486615,0.261586 -0.564059,0.261586 -0.07744,0 -0.28961,-0.298311 -0.471484,-0.662913 -0.376637,-0.755039 -1.266321,-1.736199 -1.574331,-1.736199 -0.113672,0 -0.309522,0.113642 -0.435221,0.252538 -0.33086,0.365596 -0.6742,0.323134 -0.765756,-0.0947 -0.134048,-0.611764 -0.176538,-0.682367 -0.38557,-0.640677 -0.112788,0.02249 -0.269218,0.239773 -0.347621,0.482841 -0.13957,0.432699 -0.158271,0.442749 -0.894249,0.480575 -0.731364,0.03759 -0.762369,0.02592 -1.146216,-0.431282 -0.402859,-0.47985 -0.690602,-0.500267 -0.690602,-0.049 0,0.640089 -1.237261,0.848644 -1.871009,0.31538 -0.453278,-0.381408 -0.7264,-0.400421 -0.906911,-0.06313 -0.209974,0.39234 -0.727329,0.326403 -0.984458,-0.125471 -0.118304,-0.207905 -0.304079,-0.378368 -0.412833,-0.378807 -0.279153,-0.0011 -0.749283,1.201623 -0.749283,1.916918 0,1.0459 -0.32847,1.318461 -0.73192,0.60734 -0.118304,-0.208523 -0.308641,-0.409355 -0.422971,-0.446294 -0.114331,-0.03694 -0.586782,0.08845 -1.049892,0.27863 -0.998423,0.410022 -1.246268,0.333659 -1.308093,-0.403033 -0.08451,-1.007015 0.616841,-2.080628 1.359197,-2.080628 0.446111,0 0.803473,-0.273726 0.746126,-0.571505 -0.02698,-0.140104 -0.448926,-0.476549 -1.018858,-0.812403 -1.405632,-0.828323 -1.642595,-1.255344 -1.087922,-1.960496 0.371444,-0.472214 0.963653,-0.696207 1.840684,-0.696207 0.855718,0 1.163321,0.173548 1.560656,0.880511 0.153555,0.273214 0.369644,0.532088 0.480197,0.575275 0.110554,0.04319 2.161334,0.107815 4.55729,0.143618 3.422919,0.05115 4.467766,0.105553 4.876603,0.25392 0.863645,0.313415 1.058773,0.216071 1.437052,-0.716902 0.428772,-1.057508 0.878722,-1.389474 1.88094,-1.387726 0.512742,8.94e-4 0.898458,0.09551 1.401854,0.34386 l 0.69448,0.342626 -0.536644,0.04221 c -0.544627,0.04284 -0.676291,0.216339 -0.38512,0.507509 0.227148,0.227149 0.951635,0.188538 1.089645,-0.05807 0.104557,-0.186835 0.133523,-0.179272 0.266741,0.06965 0.265386,0.495878 0.110763,0.802139 -0.663212,1.313623 -0.862677,0.570103 -0.88836,0.797434 -0.131314,1.162301 1.055703,0.508807 1.433191,1.100026 1.433191,2.244654 0,0.984625 -0.17413,1.160302 -1.048257,1.057565 l -0.707296,-0.08313 -0.210864,0.444365 c -0.275711,0.581016 -0.386727,0.635141 -0.58759,0.286477 z M 40.958308,23.056636 c 0.0499,-0.340456 -0.30889,-0.779562 -0.558654,-0.683719 -0.235096,0.09022 -0.224996,0.422241 0.02364,0.777224 0.239716,0.342244 0.477232,0.300732 0.53501,-0.09351 z m -1.367539,-0.462464 c 0,-0.117587 -0.08591,-0.182001 -0.210507,-0.157837 -0.31678,0.06144 -0.360277,0.356499 -0.05255,0.356499 0.155101,0 0.26306,-0.08153 0.26306,-0.198662 z m 15.448666,-0.158825 c 0.229682,-0.253795 0.162499,-0.400128 -0.183702,-0.400128 -0.271593,0 -0.412684,0.199245 -0.317232,0.447989 0.09429,0.24571 0.248598,0.230967 0.500934,-0.04786 z"
       id="path7056"
       inkscape:connector-curvature="0"
       transform="matrix(0.26458333,0,0,0.26458333,0,280.06665)" />
    <path
       style="fill:#ffffff;stroke-width:0.00954475;stroke-miterlimit:4;stroke-dasharray:none"
       d="m 39.401365,29.60554 c -0.222337,-0.08328 -0.196397,-0.118783 0.216916,-0.296919 0.566456,-0.244142 0.613358,-0.24781 0.534298,-0.04178 -0.102586,0.267333 -0.483371,0.439018 -0.751214,0.3387 z"
       id="path7058"
       inkscape:connector-curvature="0"
       transform="matrix(0.26458333,0,0,0.26458333,0,280.06665)" />
    <path
       style="fill:#ffffff;stroke-width:0.00954475;stroke-miterlimit:4;stroke-dasharray:none"
       d="m 54.239914,29.264123 c 0.002,-0.232942 0.244104,-0.690699 0.250396,-0.473509 0.002,0.06945 0.03792,0.254117 0.07979,0.410375 0.05597,0.208866 0.02208,0.284105 -0.127994,0.284105 -0.112271,0 -0.20326,-0.09944 -0.202197,-0.220971 z"
       id="path7060"
       inkscape:connector-curvature="0"
       transform="matrix(0.26458333,0,0,0.26458333,0,280.06665)" />
  </g>
</svg>
