<?xml version="1.0" encoding="UTF-8" standalone="no"?>
<!-- Created with Inkscape (http://www.inkscape.org/) -->

<svg
   xmlns:dc="http://purl.org/dc/elements/1.1/"
   xmlns:cc="http://creativecommons.org/ns#"
   xmlns:rdf="http://www.w3.org/1999/02/22-rdf-syntax-ns#"
   xmlns:svg="http://www.w3.org/2000/svg"
   xmlns="http://www.w3.org/2000/svg"
   xmlns:sodipodi="http://sodipodi.sourceforge.net/DTD/sodipodi-0.dtd"
   xmlns:inkscape="http://www.inkscape.org/namespaces/inkscape"
   width="64"
   height="64"
   viewBox="0 0 16.933333 16.933333"
   version="1.1"
   id="svg8"
   inkscape:version="0.92.5 (2060ec1f9f, 2020-04-08)"
   sodipodi:docname="sink_wash_64x64.svg">
  <defs
     id="defs2" />
  <sodipodi:namedview
     id="base"
     pagecolor="#ffffff"
     bordercolor="#666666"
     borderopacity="1.0"
     inkscape:pageopacity="0.0"
     inkscape:pageshadow="2"
     inkscape:zoom="3.959798"
     inkscape:cx="9.8551315"
     inkscape:cy="-11.847677"
     inkscape:document-units="mm"
     inkscape:current-layer="layer1"
     showgrid="false"
     units="px"
     inkscape:window-width="1208"
     inkscape:window-height="987"
     inkscape:window-x="1992"
     inkscape:window-y="0"
     inkscape:window-maximized="1"
     showguides="false" />
  <metadata
     id="metadata5">
    <rdf:RDF>
      <cc:Work
         rdf:about="">
        <dc:format>image/svg+xml</dc:format>
        <dc:type
           rdf:resource="http://purl.org/dc/dcmitype/StillImage" />
        <dc:title></dc:title>
      </cc:Work>
    </rdf:RDF>
  </metadata>
  <g
     inkscape:label="Layer 1"
     inkscape:groupmode="layer"
     id="layer1"
     transform="translate(0,-280.06667)">
    <path
       style="fill:#000000;stroke-width:0.03049105"
       d="m 8.0664996,295.17225 c -0.05869,-0.008 -0.241402,-0.0272 -0.4060155,-0.0451 -0.7784018,-0.0842 -1.7826743,-0.42605 -2.5058789,-0.85304 -1.7696232,-1.04479 -2.9429793,-2.7982 -3.2331547,-4.83148 -0.02393,-0.16769 -0.043763,-0.32206 -0.044078,-0.34302 -4.26e-4,-0.0291 -0.1400985,-0.0381 -0.5951333,-0.0381 H 0.68766364 v -0.51835 -0.51834 H 4.3313439 7.9750242 v -0.672 -0.67199 l -0.2667976,0.009 -0.2667965,0.009 -0.00865,0.31254 -0.00865,0.31253 H 6.9221027 6.4200669 v -0.82325 -0.82327 H 7.1945957 7.969124 l 0.013659,-1.04432 c 0.015326,-1.17184 0.022532,-1.2216 0.2416214,-1.66901 0.1856794,-0.37917 0.5185041,-0.70547 0.911419,-0.89353 0.3685667,-0.1764 0.5516886,-0.21918 0.9279196,-0.21675 0.581461,0.003 1.007374,0.18084 1.420905,0.59077 0.380101,0.37679 0.574601,0.77077 0.625427,1.26687 l 0.02024,0.19749 h -0.504051 c -0.547857,0 -0.541036,0.002 -0.54109,-0.17781 -3e-5,-0.14071 -0.164733,-0.43863 -0.324837,-0.58761 -0.214486,-0.1996 -0.442397,-0.27962 -0.75757,-0.26597 -0.1813028,0.009 -0.2830696,0.0297 -0.3963841,0.0852 -0.1922291,0.0941 -0.4043765,0.30663 -0.5031018,0.50408 l -0.076231,0.15247 -0.00839,2.20297 -0.00839,2.20299 h 3.6444539 3.644453 v 0.51833 0.51835 h -0.594575 c -0.455036,0 -0.594708,0.009 -0.595135,0.0381 -3.12e-4,0.021 -0.02013,0.17532 -0.04407,0.34302 -0.390767,2.73812 -2.37476,4.91672 -5.062618,5.55919 -0.2180108,0.0522 -0.5130113,0.10939 -0.6555567,0.12727 -0.2830442,0.0355 -1.1100044,0.0635 -1.2806246,0.0431 z m 1.2263044,-1.06542 c 1.000583,-0.15029 1.995132,-0.58645 2.737533,-1.20053 1.118388,-0.92508 1.813856,-2.15647 2.025181,-3.58576 l 0.0383,-0.25899 H 8.4933777 2.8929423 l 0.038295,0.25899 c 0.2350423,1.5897 1.0835695,2.95524 2.4063205,3.87249 0.2866558,0.19877 0.9428188,0.53048 1.280623,0.64739 0.3525031,0.12199 0.7080692,0.21206 1.0440679,0.26453 0.3754348,0.0586 1.2461913,0.0596 1.6305614,0.002 z m 2.533374,-7.11733 c -0.05359,-0.0327 -0.119909,-0.0937 -0.147373,-0.13562 -0.06387,-0.0974 -0.06455,-0.33421 -0.0013,-0.43085 0.223456,-0.34104 0.748919,-0.19055 0.748919,0.21448 0,0.31798 -0.334473,0.51409 -0.600314,0.35199 z m -0.862114,-0.8636 c -0.04142,-0.021 -0.107819,-0.0859 -0.147549,-0.14439 -0.101957,-0.14999 -0.08191,-0.36441 0.04601,-0.49235 0.315469,-0.31545 0.827614,0.0158 0.662487,0.42846 -0.08488,0.21211 -0.355089,0.31244 -0.560955,0.20828 z m 1.318423,-0.43308 c -0.29225,-0.12705 -0.291992,-0.58837 4.03e-4,-0.72713 0.130474,-0.0618 0.206181,-0.0639 0.337877,-0.009 0.212632,0.0888 0.309423,0.33165 0.211654,0.53096 -0.106151,0.21639 -0.331,0.30023 -0.549938,0.20505 z"
       id="path2259"
       inkscape:connector-curvature="0" />
    <path
       style="fill:#ffffff;stroke-width:0.00232824;stroke-miterlimit:4;stroke-dasharray:none"
       d="m 7.3761827,294.02293 c -1.6274826,-0.37591 -2.9741648,-1.37149 -3.7628611,-2.7818 -0.2709511,-0.4845 -0.4977731,-1.11692 -0.6079054,-1.69491 l -0.081013,-0.42514 h 5.5705458 5.570544 l -0.03863,0.23099 c -0.227728,1.36182 -0.957263,2.64678 -1.989071,3.5034 -0.453901,0.37685 -1.549657,0.94304 -2.1359637,1.10368 -0.5106024,0.13991 -2.0299607,0.17828 -2.5256502,0.0638 z"
       id="path2261"
       inkscape:connector-curvature="0" />
  </g>
</svg>
