<?xml version="1.0" encoding="UTF-8" standalone="no"?>
<!-- Created with Inkscape (http://www.inkscape.org/) -->

<svg
   xmlns:dc="http://purl.org/dc/elements/1.1/"
   xmlns:cc="http://creativecommons.org/ns#"
   xmlns:rdf="http://www.w3.org/1999/02/22-rdf-syntax-ns#"
   xmlns:svg="http://www.w3.org/2000/svg"
   xmlns="http://www.w3.org/2000/svg"
   xmlns:sodipodi="http://sodipodi.sourceforge.net/DTD/sodipodi-0.dtd"
   xmlns:inkscape="http://www.inkscape.org/namespaces/inkscape"
   width="64"
   height="64"
   viewBox="0 0 16.933333 16.933334"
   version="1.1"
   id="svg8"
   inkscape:version="0.92.5 (2060ec1f9f, 2020-04-08)"
   sodipodi:docname="sink_64x64.svg">
  <defs
     id="defs2" />
  <sodipodi:namedview
     id="base"
     pagecolor="#ffffff"
     bordercolor="#666666"
     borderopacity="1.0"
     inkscape:pageopacity="0.0"
     inkscape:pageshadow="2"
     inkscape:zoom="7.919596"
     inkscape:cx="51.236521"
     inkscape:cy="40.515255"
     inkscape:document-units="mm"
     inkscape:current-layer="layer1"
     showgrid="false"
     units="px"
     inkscape:window-width="1208"
     inkscape:window-height="987"
     inkscape:window-x="1992"
     inkscape:window-y="0"
     inkscape:window-maximized="1" />
  <metadata
     id="metadata5">
    <rdf:RDF>
      <cc:Work
         rdf:about="">
        <dc:format>image/svg+xml</dc:format>
        <dc:type
           rdf:resource="http://purl.org/dc/dcmitype/StillImage" />
        <dc:title></dc:title>
      </cc:Work>
    </rdf:RDF>
  </metadata>
  <g
     inkscape:label="Layer 1"
     inkscape:groupmode="layer"
     id="layer1"
     transform="translate(0,-280.06665)">
    <path
       style="fill:#000000;stroke-width:0.02997149"
       d="m 7.0491812,295.76271 c -0.032971,-0.0138 -0.086919,-0.055 -0.1198857,-0.0916 -0.054015,-0.06 -0.06087,-0.11637 -0.069371,-0.56998 l -0.00942,-0.50342 -0.2753005,-0.0196 c -1.0149371,-0.0724 -1.8288994,-0.3273 -2.6497081,-0.82969 -0.6608585,-0.4045 -1.3539237,-1.09208 -1.7867466,-1.77262 -0.4154063,-0.65317 -0.7472628,-1.59795 -0.8129341,-2.31442 -0.032802,-0.35792 -0.016957,-0.33626 -0.2559714,-0.34976 -0.18093289,-0.0102 -0.22189625,-0.0233 -0.29250357,-0.0941 l -0.0821064,-0.0822 2.152e-5,-0.47127 c 1.825e-5,-0.4189 0.007149,-0.48679 0.0644118,-0.61063 0.0822992,-0.1781 0.27746835,-0.37327 0.45559555,-0.45562 0.1360516,-0.0629 0.1759254,-0.0645 1.6884055,-0.073 l 1.5490636,-0.009 0.00942,-0.50789 0.00942,-0.50788 0.083105,-0.083 0.083105,-0.083 h 1.017668 1.0176692 l 0.083105,0.083 0.083105,0.083 0.00942,0.50891 0.00942,0.50891 h 0.2962504 0.2962515 l 0.00965,-1.83575 c 0.00965,-1.82943 0.00987,-1.83647 0.079416,-2.04555 0.1357394,-0.40812 0.2943321,-0.66753 0.5870958,-0.96029 0.2994726,-0.29947 0.5673785,-0.46086 0.9752733,-0.58752 0.1847716,-0.0573 0.2914788,-0.0699 0.5994299,-0.0699 0.4342251,0 0.6626641,0.0565 1.0639881,0.263 0.335174,0.17248 0.732565,0.56987 0.90505,0.90504 0.226972,0.44106 0.263428,0.61189 0.263646,1.23554 l 1.81e-4,0.54617 -0.0831,0.0832 -0.0831,0.0832 h -0.717955 -0.717954 l -0.0831,-0.0831 c -0.0813,-0.0813 -0.08343,-0.0923 -0.09808,-0.50951 -0.01225,-0.34879 -0.0254,-0.44371 -0.07222,-0.52106 -0.07052,-0.11652 -0.2481212,-0.22013 -0.3773435,-0.22013 -0.1379233,0 -0.3120881,0.10817 -0.386096,0.2399 -0.062561,0.11134 -0.063481,0.13727 -0.063481,1.79475 v 1.68182 H 9.5497 9.8474403 l 0.00938,-0.50891 0.00938,-0.50891 0.083104,-0.083 0.083104,-0.083 h 1.017669 1.017669 l 0.0831,0.083 0.0831,0.083 0.0094,0.50789 0.0094,0.50788 1.549065,0.009 c 1.512479,0.008 1.552354,0.0102 1.688405,0.073 0.178126,0.0823 0.373293,0.27752 0.455596,0.45562 0.05724,0.12384 0.06439,0.19173 0.06441,0.61062 l 2.1e-5,0.47128 -0.0821,0.0822 c -0.07061,0.0707 -0.111571,0.0838 -0.292504,0.0941 -0.23901,0.0135 -0.223164,-0.008 -0.25597,0.34976 -0.06536,0.713 -0.399543,1.66442 -0.812934,2.31441 -0.432894,0.68065 -1.12588,1.36812 -1.786997,1.77278 -0.546367,0.33441 -1.218254,0.60268 -1.806166,0.72116 -0.260657,0.0525 -0.852398,0.12092 -1.0530552,0.1217 -0.06436,2.3e-4 -0.065624,0.009 -0.074935,0.50918 l -0.00938,0.50891 -0.083082,0.083 -0.083082,0.0829 -1.2806253,0.006 c -0.7043427,0.003 -1.3075987,-0.006 -1.3405671,-0.019 z m 2.2029043,-0.87129 V 294.5917 H 8.3529413 7.4537959 v 0.29972 0.29971 h 0.8991454 0.8991442 z m 1.1016115,-0.9294 c 1.496138,-0.15763 2.841248,-0.9776 3.662392,-2.2326 0.39812,-0.60846 0.70248,-1.43868 0.765826,-2.08899 0.0101,-0.10385 0.02461,-0.21918 0.03221,-0.25627 l 0.0138,-0.0674 H 8.3529334 1.8779498 l 0.013813,0.0674 c 0.00761,0.0371 0.022087,0.15242 0.0322,0.25627 0.063344,0.65031 0.3677066,1.48053 0.7658269,2.08899 0.8123302,1.24152 2.1752476,2.07831 3.6356334,2.23215 0.3205826,0.0339 3.7083839,0.0342 4.0282679,4.5e-4 z m -5.8431174,-1.281 c -0.1056119,-0.11282 -0.1242906,-0.19429 -0.072776,-0.31758 0.051802,-0.12399 0.1253043,-0.16945 0.2739373,-0.16945 0.2489809,0 0.3808693,0.31495 0.2053776,0.49044 -0.1126377,0.11258 -0.2993501,0.11111 -0.4065386,-0.003 z M 3.759022,292.09635 c -0.3378005,-0.34052 -0.6631443,-0.80544 -0.8599606,-1.22891 -0.2404229,-0.51728 -0.2565411,-0.64415 -0.1002436,-0.789 0.089517,-0.083 0.2118549,-0.0932 0.3374169,-0.0283 0.063583,0.0329 0.1098795,0.1034 0.1820191,0.27725 0.2154359,0.51913 0.471623,0.9287 0.7976523,1.2752 0.1741139,0.18505 0.1908836,0.21431 0.1908836,0.3331 0,0.18228 -0.1064632,0.28825 -0.289605,0.28825 -0.1150267,0 -0.1474935,-0.016 -0.258163,-0.12761 z m 7.546111,-1.6091 c -0.183073,-0.075 -0.240071,-0.32232 -0.106917,-0.46405 0.09415,-0.10025 0.237823,-0.12614 0.357147,-0.0644 0.11056,0.0572 0.154386,0.13018 0.154386,0.2571 0,0.12542 -0.04365,0.19984 -0.149257,0.25445 -0.09621,0.0497 -0.164169,0.0542 -0.255358,0.0169 z m 0.869173,-0.006 c -0.174714,-0.0983 -0.219374,-0.31797 -0.09247,-0.45491 0.0398,-0.0429 0.104034,-0.0861 0.142727,-0.0958 0.03869,-0.0102 0.423946,-0.0137 0.856112,-0.009 l 0.785759,0.009 0.08237,0.0824 c 0.114949,0.11502 0.114948,0.28959 -3e-6,0.40462 l -0.08238,0.0824 -0.816089,0.007 c -0.561672,0.004 -0.834777,-0.003 -0.876032,-0.0263 z m 3.251907,-1.96207 c 0,-0.18499 -0.0066,-0.20441 -0.101899,-0.29971 l -0.101899,-0.10188 H 8.3529471 1.483481 l -0.1019008,0.10188 c -0.095306,0.0953 -0.1019008,0.11472 -0.1019008,0.29971 v 0.19781 H 8.3529509 15.426222 Z M 6.2549374,287.2183 v -0.29972 H 5.6555075 5.0560776 v 0.29972 0.29972 h 0.5994299 0.5994299 z m 2.3977183,-1.36222 c 0,-1.71834 0.00874,-1.86378 0.1256448,-2.09484 0.074728,-0.14769 0.2853872,-0.3584 0.4342041,-0.43433 0.1978321,-0.10085 0.4605851,-0.1382 0.6757384,-0.0959 0.240244,0.0473 0.387045,0.12354 0.548505,0.28501 0.216742,0.21674 0.313913,0.48185 0.313913,0.85645 v 0.17835 h 0.299714 0.299716 v -0.21928 c 0,-0.51619 -0.151334,-0.89714 -0.491531,-1.23733 -0.505821,-0.50583 -1.2301168,-0.63079 -1.8716007,-0.32291 -0.4469469,0.21451 -0.8157954,0.69041 -0.9014926,1.16311 -0.020544,0.11328 -0.032245,0.79578 -0.032245,1.88071 V 287.518 H 8.352937 8.6526514 Z m 2.9971493,1.36222 v -0.29972 h -0.59943 -0.599431 v 0.29972 0.29972 h 0.599431 0.59943 z"
       id="path10140"
       inkscape:connector-curvature="0" />
    <path
       style="fill:#ffffff;stroke-width:0.00485477;stroke-miterlimit:4;stroke-dasharray:none"
       d="m 6.9142862,293.94306 c -0.9802514,-0.029 -1.2715543,-0.0814 -1.9063758,-0.34315 -1.6424562,-0.67722 -2.7950963,-2.14949 -3.0544511,-3.90145 l -0.056217,-0.37977 h 6.4572672 6.4572675 l -0.0188,0.11774 c -0.01033,0.0649 -0.03995,0.25262 -0.06579,0.41747 -0.150991,0.96288 -0.784278,2.13255 -1.507618,2.78455 -0.590999,0.53272 -1.388179,0.97007 -2.11625,1.16102 -0.604109,0.15845 -2.0309795,0.20736 -4.1890398,0.14359 z m -1.990963,-1.24187 c 0.1884432,-0.18845 0.048238,-0.5138 -0.2214139,-0.5138 -0.1757949,0 -0.2923823,0.10828 -0.2923823,0.27148 0,0.27483 0.3270361,0.42907 0.5137962,0.24232 z m -0.6660817,-0.56614 c 0.1189482,-0.16983 0.082787,-0.30959 -0.1485003,-0.5739 -0.2919317,-0.3336 -0.4885845,-0.6377 -0.6891223,-1.06563 -0.1996935,-0.42614 -0.2575366,-0.49177 -0.4334256,-0.49177 -0.1837944,0 -0.2894369,0.10817 -0.2888002,0.29565 0.00113,0.33777 0.4661977,1.17629 0.9305498,1.67785 0.2074397,0.22407 0.2529545,0.25296 0.3984198,0.25296 0.1211695,0 0.1817014,-0.025 0.2308788,-0.0951 z m 7.3882595,-1.70312 c 0.191557,-0.19157 0.04802,-0.51381 -0.228855,-0.51381 -0.175852,0 -0.299214,0.12357 -0.299214,0.29972 0,0.27029 0.335741,0.40641 0.528069,0.21409 z m 2.331066,-0.009 c 0.03666,-0.0523 0.06664,-0.14439 0.06664,-0.20454 0,-0.0602 -0.03,-0.15222 -0.06664,-0.20457 -0.06512,-0.093 -0.08643,-0.0951 -0.928497,-0.0951 -0.825948,0 -0.865972,0.003 -0.960942,0.0931 -0.122714,0.1153 -0.126163,0.24631 -0.01033,0.39354 l 0.08874,0.11282 h 0.872202 c 0.85277,0 0.873686,-0.002 0.938854,-0.0952 z"
       id="path10142"
       inkscape:connector-curvature="0" />
    <path
       style="fill:#ffffff;stroke-width:0.00485477;stroke-miterlimit:4;stroke-dasharray:none"
       d="m 7.4923089,294.90624 v -0.27831 h 0.8777358 0.877737 v 0.27831 0.2783 H 8.3700447 7.4923089 Z"
       id="path10144"
       inkscape:connector-curvature="0" />
    <path
       style="fill:#ffffff;stroke-width:0.00485477;stroke-miterlimit:4;stroke-dasharray:none"
       d="m 5.0945894,287.19928 v -0.2783 h 0.5780214 0.5780215 v 0.2783 0.2783 H 5.6726108 5.0945894 Z"
       id="path10146"
       inkscape:connector-curvature="0" />
    <path
       style="fill:#ffffff;stroke-width:0.00485477;stroke-miterlimit:4;stroke-dasharray:none"
       d="m 8.1007098,285.64718 0.01244,-1.8304 0.1180516,-0.24038 c 0.2603263,-0.53009 0.7818235,-0.89204 1.3365412,-0.92765 0.4037217,-0.0259 0.6876224,0.0442 1.0020224,0.24739 0.448965,0.29017 0.698188,0.72491 0.756844,1.32017 l 0.03025,0.30694 H 11.0761 10.795342 l -0.027,-0.24619 c -0.03996,-0.36426 -0.129478,-0.57178 -0.332615,-0.77094 -0.422135,-0.41386 -1.0552854,-0.41318 -1.4783416,10e-4 -0.3010445,0.29516 -0.3090237,0.35419 -0.3090237,2.28639 v 1.68347 H 8.3683183 8.0882781 Z"
       id="path10148"
       inkscape:connector-curvature="0" />
    <path
       style="fill:#ffffff;stroke-width:0.00485477;stroke-miterlimit:4;stroke-dasharray:none"
       d="m 10.489456,287.19928 v -0.2783 h 0.578024 0.578021 v 0.2783 0.2783 H 11.06748 10.489456 Z"
       id="path10150"
       inkscape:connector-curvature="0" />
    <path
       style="fill:#ffffff;stroke-width:0.00485477;stroke-miterlimit:4;stroke-dasharray:none"
       d="m 1.2839283,288.52987 c 0,-0.0953 0.03884,-0.19273 0.1108442,-0.27831 l 0.1108444,-0.13173 h 6.8337725 6.8337736 l 0.120089,0.11506 c 0.09046,0.0867 0.120088,0.15532 0.120088,0.2783 v 0.16326 H 8.3486306 1.2839226 Z"
       id="path10152"
       inkscape:connector-curvature="0" />
  </g>
</svg>
