<?xml version="1.0" encoding="UTF-8" standalone="no"?>
<!-- Created with Inkscape (http://www.inkscape.org/) -->

<svg
   xmlns:dc="http://purl.org/dc/elements/1.1/"
   xmlns:cc="http://creativecommons.org/ns#"
   xmlns:rdf="http://www.w3.org/1999/02/22-rdf-syntax-ns#"
   xmlns:svg="http://www.w3.org/2000/svg"
   xmlns="http://www.w3.org/2000/svg"
   xmlns:sodipodi="http://sodipodi.sourceforge.net/DTD/sodipodi-0.dtd"
   xmlns:inkscape="http://www.inkscape.org/namespaces/inkscape"
   width="64"
   height="64"
   viewBox="0 0 16.933333 16.933333"
   version="1.1"
   id="svg8"
   inkscape:version="0.92.5 (2060ec1f9f, 2020-04-08)"
   sodipodi:docname="skin_hydratation_64x64.svg">
  <defs
     id="defs2" />
  <sodipodi:namedview
     id="base"
     pagecolor="#ffffff"
     bordercolor="#666666"
     borderopacity="1.0"
     inkscape:pageopacity="0.0"
     inkscape:pageshadow="2"
     inkscape:zoom="11.2"
     inkscape:cx="40.522789"
     inkscape:cy="33.177092"
     inkscape:document-units="mm"
     inkscape:current-layer="layer1"
     showgrid="false"
     units="px"
     inkscape:window-width="1208"
     inkscape:window-height="987"
     inkscape:window-x="1992"
     inkscape:window-y="0"
     inkscape:window-maximized="1" />
  <metadata
     id="metadata5">
    <rdf:RDF>
      <cc:Work
         rdf:about="">
        <dc:format>image/svg+xml</dc:format>
        <dc:type
           rdf:resource="http://purl.org/dc/dcmitype/StillImage" />
        <dc:title></dc:title>
      </cc:Work>
    </rdf:RDF>
  </metadata>
  <g
     inkscape:label="Layer 1"
     inkscape:groupmode="layer"
     id="layer1"
     transform="translate(0,-280.06667)">
    <path
       style="fill:#000000;stroke-width:0.07131354"
       d="m 0.57725922,292.20355 c -0.11083695,-0.0823 -0.12266493,-0.1285 -0.0593438,-0.23176 0.0755251,-0.12318 0.43326118,-0.12898 7.94368748,-0.12898 7.5104271,0 7.8681641,0.005 7.9436871,0.12898 0.06332,0.10326 0.0515,0.14945 -0.05934,0.23176 -0.208266,0.15466 -15.56042097,0.15466 -15.76868862,0 z m 3.11509488,-0.96988 c -0.3030482,-0.068 -0.5674216,-0.26204 -0.7821926,-0.5741 -0.1481302,-0.21522 -0.1637018,-0.30424 -0.1360847,-0.77789 0.034392,-0.58987 0.2726896,-1.24684 0.7501324,-2.06809 0.4344789,-0.74734 0.5292042,-0.70245 1.154741,0.54734 0.3127961,0.62495 0.339585,0.74759 0.1903585,0.87143 -0.1711755,0.14206 -0.287232,0.0201 -0.5711661,-0.60006 -0.1522806,-0.33262 -0.2987619,-0.60476 -0.3255137,-0.60476 -0.083788,0 -0.5630737,1.03152 -0.6879148,1.48055 -0.2046047,0.73592 0.01137,1.20409 0.5879853,1.2746 0.4086657,0.05 0.7054307,-0.16238 0.8315929,-0.59505 0.083136,-0.28513 0.1278482,-0.34161 0.27042,-0.34161 0.1563088,0 0.170468,0.0282 0.1667678,0.33176 -0.00852,0.69961 -0.7215432,1.21913 -1.449126,1.05588 z m 4.492753,0.004 c -0.53069,-0.12683 -0.8739915,-0.53943 -0.9210579,-1.10698 -0.043008,-0.5186 0.2302022,-1.379 0.6958352,-2.19134 0.4543803,-0.79269 0.5488302,-0.79309 1.0010207,-0.005 0.5860198,1.02237 0.8377271,2.03652 0.6369649,2.56638 -0.2059416,0.54355 -0.8388307,0.87332 -1.4127629,0.73615 z m 0.7747099,-0.60582 c 0.2441257,-0.22093 0.3126356,-0.50233 0.2266008,-0.93073 -0.079856,-0.39765 -0.6324071,-1.6731 -0.724814,-1.6731 -0.098328,0 -0.6538107,1.30155 -0.7297454,1.70988 -0.068277,0.36715 -0.061183,0.44091 0.062868,0.6533 0.076911,0.13169 0.2183062,0.28088 0.3142148,0.33153 0.2177156,0.11498 0.6776851,0.0659 0.8508774,-0.0909 z m 3.744943,0.60753 c -0.329675,-0.0752 -0.511232,-0.19473 -0.728065,-0.47928 -0.178202,-0.23385 -0.198698,-0.31764 -0.196013,-0.80132 0.0034,-0.60464 0.205777,-1.19057 0.728627,-2.10905 0.363501,-0.63856 0.500669,-0.67308 0.797286,-0.20068 0.118558,0.18881 0.216171,0.41652 0.216915,0.506 0.0021,0.25141 -0.208123,0.28473 -0.398687,0.0631 -0.08999,-0.10462 -0.176555,-0.19022 -0.192359,-0.19022 -0.07554,0 -0.61499,1.29567 -0.687603,1.65148 -0.06774,0.33196 -0.06372,0.44808 0.02271,0.65492 0.196241,0.46966 0.79169,0.61737 1.178091,0.29224 0.289148,-0.2433 0.345166,-0.5702 0.192071,-1.12084 -0.108982,-0.39199 -0.109725,-0.4418 -0.0082,-0.54341 0.259088,-0.25909 0.521383,0.24102 0.531593,1.01359 0.0058,0.43572 -0.05673,0.61786 -0.306514,0.8935 -0.282672,0.31194 -0.747943,0.46159 -1.149934,0.36989 z M 1.2065115,289.27311 c -0.23707873,-0.23707 -0.24964602,-0.27283 -0.21088412,-0.60012 0.0437241,-0.36917 0.38564292,-1.12238 0.58437842,-1.28731 0.1687456,-0.14005 0.3061232,-0.0309 0.5439196,0.43203 0.2789819,0.54315 0.3610521,0.96614 0.2425031,1.24986 -0.2164054,0.51793 -0.7525243,0.61293 -1.159917,0.20554 z m 0.76369,-0.51702 c -9.966e-4,-0.10649 -0.061518,-0.32197 -0.134425,-0.47886 l -0.1325549,-0.28525 -0.1151722,0.26513 c -0.1515939,0.34898 -0.1482825,0.67198 0.00779,0.75932 0.183953,0.10294 0.3765819,-0.031 0.3743667,-0.26034 z m 3.7647843,0.56094 c -0.2042975,-0.18262 -0.2322453,-0.25049 -0.2276101,-0.55268 0.0058,-0.38048 0.3122506,-1.14621 0.5417887,-1.35394 0.198856,-0.17996 0.3335809,-0.0696 0.624677,0.51193 0.1737722,0.34713 0.2461009,0.58986 0.2495981,0.83763 0.00435,0.30691 -0.023094,0.37392 -0.2279707,0.55706 -0.1624986,0.14526 -0.3076589,0.20819 -0.4802415,0.20819 -0.1725835,0 -0.3177429,-0.063 -0.4802415,-0.20819 z m 0.7298387,-0.54167 c 0,-0.0959 -0.053237,-0.30739 -0.1183143,-0.47003 l -0.1183142,-0.2957 -0.1282931,0.24078 c -0.1669526,0.3133 -0.172309,0.67593 -0.011316,0.76602 0.1755633,0.0983 0.3762368,-0.0303 0.3762376,-0.24107 z m 3.7629145,0.54167 c -0.20488,-0.18314 -0.232302,-0.25015 -0.2279713,-0.55706 0.00353,-0.24777 0.075824,-0.4905 0.2495983,-0.83763 0.291096,-0.58149 0.425822,-0.69189 0.624678,-0.51193 0.229537,0.20773 0.535952,0.97346 0.541788,1.35394 0.0046,0.30219 -0.02331,0.37006 -0.227611,0.55268 -0.162498,0.14526 -0.307658,0.20819 -0.48024,0.20819 -0.172584,0 -0.317743,-0.063 -0.480242,-0.20819 z m 0.717822,-0.53391 c 0.013,-0.11398 -0.03419,-0.33549 -0.104878,-0.49224 l -0.128516,-0.28501 -0.125022,0.27831 c -0.129916,0.2892 -0.165737,0.60978 -0.07794,0.69757 0.02795,0.0279 0.132244,0.0413 0.231769,0.0297 0.140614,-0.0164 0.186222,-0.0673 0.204591,-0.22834 z m 3.934262,0.65134 c -0.09806,-0.0487 -0.236468,-0.20745 -0.307581,-0.35264 -0.122095,-0.24928 -0.12279,-0.28716 -0.01248,-0.68031 0.133406,-0.47546 0.487875,-1.08701 0.63005,-1.08701 0.05269,0 0.147398,0.0571 0.210479,0.12673 0.188333,0.2081 0.495253,0.9413 0.53255,1.27219 0.03152,0.27968 0.01112,0.33243 -0.216723,0.56027 -0.271586,0.27159 -0.518126,0.31898 -0.836295,0.16077 z m 0.570508,-0.6985 c 0,-0.11754 -0.05182,-0.33303 -0.115172,-0.47885 l -0.115172,-0.26513 -0.132555,0.28525 c -0.167639,0.36075 -0.172857,0.64993 -0.01334,0.7392 0.190975,0.10687 0.376238,-0.0313 0.376239,-0.28047 z M 2.0077285,286.93379 c -0.1568895,-0.052 -0.3944585,-0.15141 -0.5279312,-0.22095 -0.1334719,-0.0696 -0.386723,-0.14713 -0.56278003,-0.17244 -0.63045464,-0.0906 -0.55492044,-0.53459 0.0781707,-0.45946 0.16467393,0.0196 0.50357933,0.12859 0.75312313,0.24232 0.6390282,0.29124 1.1778117,0.28678 1.8228794,-0.015 0.3946043,-0.18466 0.5613332,-0.22186 0.9942174,-0.22186 0.426159,0 0.6114121,0.0401 1.0256027,0.22186 0.6880815,0.30201 1.1508823,0.3014 1.8735562,-0.003 0.7371421,-0.30992 1.2658915,-0.30994 1.9717241,-8e-5 0.7001301,0.30734 1.1998761,0.30801 1.8959101,0.003 0.41419,-0.18179 0.599444,-0.22186 1.025602,-0.22186 0.432884,0 0.599613,0.0372 0.994219,0.22186 0.645067,0.30186 1.18385,0.30632 1.822879,0.015 0.249543,-0.11373 0.588449,-0.22278 0.753123,-0.24232 0.627533,-0.0745 0.709092,0.36684 0.08509,0.46041 -0.172251,0.0258 -0.50573,0.13813 -0.741065,0.24954 -0.360442,0.17065 -0.517798,0.20236 -0.998389,0.20119 -0.491861,-9.1e-4 -0.643398,-0.0342 -1.099253,-0.23944 -0.652811,-0.2939 -1.085995,-0.28629 -1.788945,0.0314 -0.668895,0.30233 -1.332966,0.29427 -2.0443892,-0.0248 -0.362431,-0.16254 -0.6183105,-0.22924 -0.8794666,-0.22924 -0.261157,0 -0.5170355,0.0667 -0.8794665,0.22924 -0.711424,0.31907 -1.3754935,0.32712 -2.0443884,0.0248 -0.6978882,-0.31544 -1.1349057,-0.32452 -1.7889457,-0.0372 -0.6090066,0.26754 -1.2802499,0.3396 -1.7410747,0.18691 z m -1.44735371,-1.4874 c -0.12525432,-0.12526 -0.10525683,-0.25591 0.0520504,-0.34011 0.0926506,-0.0496 2.67538831,-0.0738 7.86651601,-0.0738 6.6187108,0 7.7484568,0.0148 7.8670058,0.1028 0.110836,0.0823 0.122665,0.1285 0.05934,0.23177 -0.07541,0.12298 -0.443299,0.12982 -7.9190582,0.14711 -6.0386972,0.014 -7.85970735,-0.002 -7.92586162,-0.0678 z"
       id="path1123"
       inkscape:connector-curvature="0" />
    <path
       style="fill:#ffffff;stroke-width:0.00096261;stroke-miterlimit:4;stroke-dasharray:none"
       d="m 2.2662363,286.48403 c -0.1727982,-0.0388 -0.3342123,-0.095 -0.653788,-0.22762 -0.4053298,-0.16825 -0.74834031,-0.22873 -0.95730196,-0.1688 l -0.0826101,0.0237 v -0.31782 -0.31782 l 0.32473183,0.0203 c 0.49016223,0.0307 13.90061993,0.0179 14.67578293,-0.014 0.356767,-0.0147 0.650318,-0.0245 0.652337,-0.0216 0.002,0.003 0.01109,0.14258 0.02015,0.31067 l 0.01648,0.30562 -0.223108,7.5e-4 c -0.248674,8.2e-4 -0.37196,0.0343 -0.887726,0.24163 -0.700574,0.28151 -1.111976,0.27236 -1.833903,-0.0408 -0.390572,-0.16941 -0.525037,-0.19715 -0.952545,-0.19654 -0.433156,6.2e-4 -0.588042,0.0316 -0.997822,0.1994 -0.723361,0.29627 -1.139812,0.31403 -1.758836,0.075 -0.6680927,-0.258 -0.8960199,-0.30884 -1.2749521,-0.28446 -0.2647194,0.017 -0.4803928,0.0724 -0.8775449,0.22506 -0.773436,0.29741 -1.1171334,0.29692 -1.8656323,-0.003 -0.4649788,-0.18608 -0.5931496,-0.21295 -1.018764,-0.21363 -0.4261753,-6.8e-4 -0.5648159,0.0282 -0.9727958,0.20219 -0.5385959,0.22977 -0.9370825,0.29002 -1.3321598,0.20138 z"
       id="path1129"
       inkscape:connector-curvature="0" />
    <path
       style="fill:#ffffff;stroke-width:0.00096261;stroke-miterlimit:4;stroke-dasharray:none"
       d="m 0.62277544,291.6508 c -3.5606e-4,-0.1381 -0.0113886,-1.36233 -0.0244442,-2.7205 -0.0130556,-1.35818 -0.019896,-2.47326 -0.0151848,-2.47797 0.004711,-0.005 0.0472304,0.009 0.0944871,0.0306 0.0472576,0.0216 0.19335107,0.062 0.32464666,0.0898 0.1408784,0.0299 0.3600254,0.1044 0.5346982,0.18189 0.4051838,0.17975 0.53471,0.22124 0.7944817,0.25456 0.4024577,0.0516 0.8736862,-0.0327 1.4355838,-0.25687 0.671931,-0.26807 0.9987458,-0.26731 1.6701014,0.004 0.4943463,0.19969 0.6077391,0.22772 0.9826341,0.24291 0.3933142,0.016 0.6351414,-0.0237 0.9912222,-0.16264 0.5921177,-0.23097 0.7298151,-0.27063 0.9805611,-0.28243 0.3035412,-0.0143 0.4769718,0.0245 0.9247228,0.20713 0.5068788,0.20667 0.6240152,0.23165 1.0873385,0.23196 0.444095,2.9e-4 0.597199,-0.0316 1.02827,-0.21428 0.699426,-0.29639 1.04063,-0.29935 1.73513,-0.015 0.542942,0.22228 0.57378,0.22873 1.095171,0.22925 0.52177,5.2e-4 0.616796,-0.0167 0.981171,-0.17742 0.133411,-0.0589 0.333981,-0.13625 0.44571,-0.17199 0.206553,-0.0661 0.550391,-0.15209 0.561529,-0.14045 0.0034,0.004 0.01458,1.21986 0.02492,2.70297 l 0.01879,2.69658 -0.09917,-0.0164 c -0.252968,-0.0418 -7.8534111,-0.0707 -11.5630718,-0.0439 -2.0996615,0.0151 -3.86054513,0.0347 -3.91307478,0.0435 l -0.09551,0.016 z m 3.74262766,-0.44619 c 0.2011074,-0.0686 0.3297521,-0.15152 0.4773495,-0.30758 0.215032,-0.22736 0.3142285,-0.48136 0.3142285,-0.80458 0,-0.19327 -0.045663,-0.25911 -0.1797274,-0.25911 -0.1234812,0 -0.1800263,0.0517 -0.2398893,0.21945 -0.1510358,0.42316 -0.2152955,0.52196 -0.4163722,0.64017 -0.1071984,0.063 -0.1420128,0.0698 -0.3483253,0.0679 -0.2672544,-0.003 -0.3696029,-0.0392 -0.535231,-0.19191 -0.1608479,-0.14826 -0.2040592,-0.27942 -0.2003826,-0.60819 0.00335,-0.3013 0.047004,-0.47083 0.2466364,-0.95822 0.1419077,-0.34645 0.4069007,-0.87952 0.4585207,-0.92235 0.049024,-0.0407 0.075815,0.003 0.3601769,0.58714 0.2216331,0.4553 0.3447628,0.63124 0.441774,0.63124 0.070524,0 0.1997548,-0.11225 0.2194153,-0.19058 0.024,-0.0956 -0.062778,-0.32237 -0.3203368,-0.83703 -0.4339344,-0.8671 -0.5946908,-1.0516 -0.7994023,-0.91747 -0.090851,0.0595 -0.3078855,0.39722 -0.5298638,0.82443 -0.2340917,0.45052 -0.3699998,0.78934 -0.4648574,1.15884 -0.064454,0.25109 -0.072001,0.32388 -0.072707,0.70119 l -7.882e-4,0.42104 0.088943,0.14695 c 0.3324356,0.54928 0.9379487,0.79084 1.5008402,0.59874 z m 4.3383378,0.0431 c 0.3793625,-0.0804 0.7089457,-0.33487 0.8666742,-0.66919 0.073976,-0.1568 0.082039,-0.19855 0.090501,-0.46846 0.01109,-0.3537 -0.031855,-0.60658 -0.1789283,-1.05354 -0.1764209,-0.53617 -0.6353848,-1.41524 -0.8519886,-1.63185 -0.1796513,-0.17964 -0.3324058,-0.0829 -0.6078098,0.38509 -0.4600683,0.78172 -0.7780938,1.68819 -0.776299,2.2127 6.85e-4,0.19984 0.065097,0.45827 0.1573625,0.63138 0.1137144,0.21335 0.2876261,0.3802 0.5117571,0.49097 0.276349,0.13658 0.495111,0.16512 0.7887309,0.1029 z m 4.4887481,-9.1e-4 c 0.266321,-0.056 0.472165,-0.17142 0.658983,-0.36945 0.27318,-0.28959 0.337342,-0.49567 0.313116,-1.00569 -0.02152,-0.45305 -0.136042,-0.84193 -0.277024,-0.94068 -0.11749,-0.0823 -0.265857,-0.0317 -0.324862,0.11073 -0.02744,0.0662 -0.0206,0.12057 0.05227,0.41488 0.09716,0.39243 0.112722,0.70651 0.04289,0.8656 -0.06173,0.14064 -0.245259,0.32634 -0.388963,0.39355 -0.168374,0.0787 -0.433035,0.0819 -0.598524,0.007 -0.148237,-0.0669 -0.292623,-0.20733 -0.37787,-0.36735 -0.06056,-0.11367 -0.06756,-0.15333 -0.06526,-0.3693 0.0021,-0.1993 0.01719,-0.28686 0.08544,-0.49665 0.159229,-0.48943 0.539975,-1.38152 0.60742,-1.4232 0.01203,-0.007 0.07823,0.0442 0.147131,0.11468 0.134535,0.13769 0.232758,0.20061 0.313167,0.20061 0.06749,0 0.155928,-0.11697 0.155928,-0.20624 0,-0.24193 -0.399581,-0.8637 -0.55484,-0.86337 -0.159546,3.6e-4 -0.368688,0.28523 -0.719815,0.98047 -0.378977,0.75039 -0.482574,1.12594 -0.481262,1.74464 8.48e-4,0.40015 0.01978,0.4892 0.142449,0.66988 0.197092,0.29033 0.454094,0.46901 0.774485,0.53848 0.213266,0.0462 0.28038,0.0464 0.49515,9.1e-4 z M 2.0115455,289.48034 c 0.1251148,-0.057 0.2803654,-0.2251 0.3530692,-0.38234 0.087249,-0.18869 0.074991,-0.50766 -0.031439,-0.81808 -0.1658591,-0.48378 -0.4691565,-0.96788 -0.6063937,-0.96788 -0.1430991,0 -0.3244492,0.23478 -0.5246922,0.67926 -0.1991848,0.44215 -0.27809664,0.89786 -0.185803,1.073 0.080254,0.1523 0.3612594,0.38046 0.5495486,0.4462 0.090752,0.0317 0.3481658,0.0142 0.4457097,-0.0302 z m 4.4844703,-0.0155 c 0.1979037,-0.0986 0.3827166,-0.29786 0.4198431,-0.45262 0.065052,-0.27115 -0.018057,-0.66258 -0.2326801,-1.09588 -0.2170524,-0.4382 -0.3805386,-0.6243 -0.5181246,-0.58977 -0.2058957,0.0516 -0.536764,0.68616 -0.6410831,1.22937 -0.069636,0.36261 -0.038777,0.51058 0.1475902,0.70764 0.249108,0.2634 0.5515936,0.33724 0.8244545,0.20126 z m 4.4202412,0.0336 c 0.129568,-0.0388 0.375731,-0.23923 0.449773,-0.36616 0.05386,-0.0924 0.05799,-0.12405 0.04802,-0.36847 -0.0086,-0.21196 -0.02747,-0.31697 -0.09077,-0.50636 -0.156926,-0.46949 -0.359151,-0.82806 -0.51143,-0.9068 -0.175177,-0.0906 -0.304362,0.0382 -0.561805,0.55995 -0.205031,0.41555 -0.2539289,0.58717 -0.2539289,0.89125 0,0.26788 0.034438,0.35248 0.2064039,0.50709 0.231067,0.20775 0.454661,0.26711 0.713739,0.1895 z m 4.547184,-0.0236 c 0.147595,-0.0715 0.351661,-0.25886 0.433,-0.39765 0.06071,-0.1036 0.06522,-0.12991 0.05098,-0.29824 -0.03239,-0.3832 -0.369054,-1.18661 -0.575322,-1.37297 -0.165298,-0.14934 -0.249252,-0.12622 -0.411998,0.11343 -0.242498,0.3571 -0.481448,0.9793 -0.481406,1.25354 5.1e-5,0.26684 0.245688,0.62623 0.486071,0.71113 0.164254,0.058 0.367522,0.0543 0.49867,-0.009 z"
       id="path1131"
       inkscape:connector-curvature="0" />
    <path
       style="fill:#ffffff;stroke-width:0.00096261;stroke-miterlimit:4;stroke-dasharray:none"
       d="m 1.6220094,289.01809 c -0.032145,-0.0134 -0.075117,-0.0643 -0.09551,-0.11314 -0.068775,-0.16462 -0.040499,-0.36951 0.095816,-0.69426 l 0.080834,-0.19258 0.08415,0.18505 c 0.1732611,0.38099 0.207734,0.6314 0.1032672,0.75011 -0.064463,0.0732 -0.1810375,0.10138 -0.2685573,0.0648 z"
       id="path1133"
       inkscape:connector-curvature="0" />
    <path
       style="fill:#ffffff;stroke-width:0.00096261;stroke-miterlimit:4;stroke-dasharray:none"
       d="m 6.0894258,288.98885 c -0.09765,-0.0843 -0.1234985,-0.22347 -0.080191,-0.43194 0.035642,-0.17157 0.1742016,-0.48093 0.2154061,-0.48093 0.02612,0 0.1684846,0.38121 0.2078826,0.55666 0.048499,0.21598 -0.025205,0.36612 -0.196543,0.40039 -0.059126,0.0119 -0.093721,0.002 -0.1465565,-0.0442 z"
       id="path1135"
       inkscape:connector-curvature="0" />
    <path
       style="fill:#ffffff;stroke-width:0.00096261;stroke-miterlimit:4;stroke-dasharray:none"
       d="m 8.201419,290.74541 c -0.2143171,-0.0601 -0.4975255,-0.44306 -0.4975255,-0.67287 0,-0.16644 0.063783,-0.45609 0.1624986,-0.73791 0.1816092,-0.51847 0.5237817,-1.25657 0.5922599,-1.27755 0.035371,-0.0109 0.239574,0.38295 0.413444,0.79726 0.4061152,0.96772 0.4361396,1.38335 0.1231134,1.70425 -0.086723,0.0889 -0.1676493,0.14583 -0.2343481,0.16485 -0.1501977,0.0428 -0.4438479,0.0544 -0.5594423,0.0219 z"
       id="path1137"
       inkscape:connector-curvature="0" />
    <path
       style="fill:#ffffff;stroke-width:0.00096261;stroke-miterlimit:4;stroke-dasharray:none"
       d="m 10.510591,288.9623 c -0.08162,-0.0816 -8.43e-4,-0.51871 0.150814,-0.81598 l 0.05309,-0.10407 0.08457,0.19177 c 0.152865,0.34662 0.175532,0.63641 0.05631,0.71991 -0.06651,0.0466 -0.300888,0.0523 -0.34479,0.008 z"
       id="path1139"
       inkscape:connector-curvature="0" />
    <path
       style="fill:#ffffff;stroke-width:0.00096261;stroke-miterlimit:4;stroke-dasharray:none"
       d="m 15.085635,289.00485 c -0.102175,-0.0555 -0.135733,-0.18471 -0.09803,-0.37746 0.0319,-0.16309 0.19838,-0.57688 0.232097,-0.57688 0.02816,0 0.165587,0.37046 0.200126,0.53949 0.03676,0.17986 0.0031,0.3267 -0.09198,0.4015 -0.07752,0.061 -0.147416,0.0649 -0.242211,0.0133 z"
       id="path1141"
       inkscape:connector-curvature="0" />
  </g>
</svg>
