<?xml version="1.0" encoding="UTF-8" standalone="no"?>
<!-- Created with Inkscape (http://www.inkscape.org/) -->

<svg
   xmlns:dc="http://purl.org/dc/elements/1.1/"
   xmlns:cc="http://creativecommons.org/ns#"
   xmlns:rdf="http://www.w3.org/1999/02/22-rdf-syntax-ns#"
   xmlns:svg="http://www.w3.org/2000/svg"
   xmlns="http://www.w3.org/2000/svg"
   xmlns:sodipodi="http://sodipodi.sourceforge.net/DTD/sodipodi-0.dtd"
   xmlns:inkscape="http://www.inkscape.org/namespaces/inkscape"
   width="64"
   height="64"
   viewBox="0 0 16.933333 16.933334"
   version="1.1"
   id="svg8"
   inkscape:version="0.92.5 (2060ec1f9f, 2020-04-08)"
   sodipodi:docname="skirt_64x64.svg">
  <defs
     id="defs2" />
  <sodipodi:namedview
     id="base"
     pagecolor="#ffffff"
     bordercolor="#666666"
     borderopacity="1.0"
     inkscape:pageopacity="0.0"
     inkscape:pageshadow="2"
     inkscape:zoom="3.959798"
     inkscape:cx="65.106971"
     inkscape:cy="27.326571"
     inkscape:document-units="mm"
     inkscape:current-layer="layer1"
     showgrid="false"
     units="px"
     inkscape:window-width="1208"
     inkscape:window-height="987"
     inkscape:window-x="1992"
     inkscape:window-y="0"
     inkscape:window-maximized="1" />
  <metadata
     id="metadata5">
    <rdf:RDF>
      <cc:Work
         rdf:about="">
        <dc:format>image/svg+xml</dc:format>
        <dc:type
           rdf:resource="http://purl.org/dc/dcmitype/StillImage" />
        <dc:title></dc:title>
      </cc:Work>
    </rdf:RDF>
  </metadata>
  <g
     inkscape:label="Layer 1"
     inkscape:groupmode="layer"
     id="layer1"
     transform="translate(0,-280.06665)">
    <path
       style="fill:#000000;stroke-width:0.03031976"
       d="m 7.2963913,296.1765 c -1.6257081,-0.0978 -3.1904375,-0.43901 -4.506614,-0.98286 -0.713248,-0.29471 -1.569709,-0.78092 -1.6422703,-0.93232 -0.082704,-0.17256 0.088616,-2.13151 0.3148242,-3.59983 0.4024543,-2.61234 1.256479,-5.50704 2.2994557,-7.79393 l 0.199431,-0.43729 v -0.65777 c 0,-0.69815 0.011788,-0.77212 0.1459477,-0.9156 0.1685804,-0.18031 -0.073009,-0.17061 4.2504177,-0.17061 4.3234257,0 4.0818367,-0.01 4.2504167,0.17061 0.134229,0.14355 0.145948,0.21731 0.145948,0.91842 v 0.6606 l 0.162866,0.34556 c 1.141286,2.42146 2.047606,5.65182 2.457542,8.75929 0.150264,1.13905 0.256509,2.56337 0.201916,2.70686 -0.04284,0.11261 -0.468623,0.38825 -1.033458,0.66902 -1.404108,0.69799 -3.126927,1.13006 -5.0330802,1.26227 -0.5037217,0.0349 -1.6122977,0.0337 -2.2133425,-0.002 z m 1.3265598,-6.94762 -0.00765,-6.46569 -1.2961695,-0.008 c -1.1670638,-0.007 -1.2961695,-0.003 -1.2961695,0.0402 0,0.0264 -0.041477,0.0896 -0.092174,0.1403 -0.076852,0.0769 -0.1080216,0.089 -0.1875087,0.0731 -0.1165602,-0.0234 -0.19393,-0.0897 -0.2184442,-0.18733 l -0.018462,-0.0736 H 4.9465481 4.3867211 l -0.07278,0.14402 c -0.3156582,0.62461 -1.1410291,2.75084 -1.1410291,2.9394 0,0.0393 0.068927,0.0443 0.4926961,0.0351 0.4852073,-0.0105 0.4952303,-0.0121 0.6594544,-0.1042 0.1991312,-0.11166 0.3440092,-0.30742 0.3915392,-0.52905 0.018293,-0.0853 0.032938,-0.46351 0.032938,-0.85082 v -0.69724 l 0.074421,-0.0744 c 0.096357,-0.0964 0.2296032,-0.0969 0.3407846,-0.001 l 0.08507,0.0731 0.00984,0.64473 c 0.011581,0.75939 -0.021151,1.05838 -0.1447918,1.3226 -0.1696508,0.36253 -0.5450227,0.63894 -0.9599776,0.7069 -0.098172,0.0161 -0.4040868,0.0293 -0.6798113,0.0294 l -0.5013171,2.3e-4 -0.2037254,0.72009 c -0.5160897,1.82419 -0.8386236,3.50865 -1.0208752,5.33162 -0.06223,0.62244 -0.1313165,1.5601 -0.1160393,1.57488 0.00479,0.004 0.1152974,0.0713 0.2456422,0.14829 1.5967141,0.94272 3.8808504,1.49882 6.2742483,1.52756 l 0.4776066,0.006 z m -0.9398085,5.10199 c -0.2216475,-0.17435 -0.00973,-0.53274 0.2511226,-0.42468 0.108625,0.045 0.1504402,0.1121 0.1504402,0.24146 0,0.20245 -0.2386699,0.31135 -0.4015628,0.18322 z m -0.00914,-2.07621 c -0.1126187,-0.11262 -0.1106325,-0.269 0.00472,-0.3728 0.1010434,-0.0909 0.2369718,-0.0884 0.3315395,0.006 0.1568718,0.15687 0.048542,0.44101 -0.1681368,0.44101 -0.059077,0 -0.1212251,-0.0275 -0.1681369,-0.0744 z m 0.039665,-2.03479 c -0.1380199,-0.0749 -0.1608013,-0.27526 -0.045448,-0.39975 0.1361693,-0.14696 0.4164799,-0.04 0.4164799,0.1589 0,0.14318 -0.025321,0.19321 -0.1234477,0.24395 -0.1056273,0.0546 -0.1420402,0.0541 -0.2475843,-0.003 z m -0.045448,-2.11282 c -0.1255127,-0.13545 -0.091958,-0.33694 0.067188,-0.40343 0.1753508,-0.0732 0.3492929,0.0408 0.3492929,0.22909 0,0.21759 -0.2712092,0.33112 -0.4164799,0.17434 z m 0.00707,-2.06174 c -0.1472752,-0.12669 -0.084352,-0.3902 0.1030024,-0.43135 0.1016535,-0.0223 0.257622,0.0438 0.2876041,0.12193 0.1021514,0.2662 -0.1805306,0.49013 -0.3906065,0.30942 z m 0.051939,-2.0241 c -0.083155,-0.0348 -0.1540568,-0.18827 -0.134413,-0.29103 0.018698,-0.0978 0.14492,-0.19383 0.2548261,-0.19383 0.1941473,0 0.3112188,0.26784 0.1840315,0.42102 -0.062194,0.0749 -0.2058611,0.10504 -0.3044446,0.0639 z m 2.4950464,11.56578 c 1.736997,-0.19983 3.394907,-0.71086 4.602689,-1.41871 l 0.266962,-0.15645 -0.01868,-0.27288 c -0.17081,-2.49533 -0.496392,-4.40359 -1.141954,-6.69309 l -0.185945,-0.65946 -0.503265,-2.3e-4 c -0.276796,-8e-5 -0.583588,-0.0133 -0.68176,-0.0294 -0.414955,-0.0679 -0.790327,-0.34437 -0.959978,-0.7069 -0.123642,-0.26422 -0.156375,-0.56321 -0.144791,-1.3226 l 0.0098,-0.64473 0.08507,-0.0731 c 0.111181,-0.0956 0.244428,-0.0951 0.340784,10e-4 l 0.07442,0.0744 v 0.69723 c 0,0.38732 0.01464,0.76552 0.03294,0.85083 0.04753,0.22163 0.192407,0.41738 0.391539,0.52904 0.164925,0.0925 0.172342,0.0936 0.674615,0.10415 0.27932,0.006 0.507855,0.004 0.507855,-0.005 0,-0.0334 -0.37297,-1.07034 -0.52789,-1.46765 -0.177733,-0.45581 -0.527838,-1.27285 -0.643458,-1.50163 l -0.07278,-0.14402 h -0.559827 -0.559827 l -0.01846,0.0736 c -0.02451,0.0977 -0.101884,0.16402 -0.218444,0.18734 -0.07949,0.0159 -0.110657,0.004 -0.187509,-0.0731 -0.05069,-0.0507 -0.09217,-0.11369 -0.09217,-0.13998 0,-0.0423 -0.08936,-0.0478 -0.773154,-0.0478 H 9.1459349 v 6.46267 6.46267 l 0.3410978,-0.0206 c 0.187603,-0.0113 0.5184673,-0.041 0.7352533,-0.0659 z M 5.5075597,281.71716 v -0.51543 H 4.9921235 4.476688 v 0.51543 0.51544 h 0.5154355 0.5154362 z m 3.1229353,0 v -0.51543 H 7.3267455 6.0229959 v 0.51543 0.51544 H 7.3267455 8.630495 Z m 2.061743,0 v -0.51543 H 9.9190845 9.1459305 v 0.51543 0.51544 h 0.773154 0.7731535 z m 1.546308,0 v -0.51543 H 11.72311 11.207675 v 0.51543 0.51544 h 0.515435 0.515436 z"
       id="path15093"
       inkscape:connector-curvature="0" />
    <path
       style="fill:#ffffff;stroke-width:0.00491119;stroke-miterlimit:4;stroke-dasharray:none"
       d="m 7.0243187,295.61629 c -1.8324142,-0.14787 -3.7788388,-0.69414 -5.0244174,-1.41011 l -0.3031974,-0.17429 -0.013784,-0.23288 c -0.018285,-0.30904 0.1005771,-1.60722 0.233496,-2.55018 0.1960377,-1.39074 0.4349361,-2.52814 0.8474031,-4.03452 l 0.2211398,-0.80763 0.6552891,-0.0172 c 0.6098581,-0.0161 0.6703033,-0.0253 0.8718583,-0.13291 0.6265823,-0.33463 0.7579939,-0.65224 0.7579939,-1.83203 0,-0.66401 -0.00835,-0.74973 -0.07921,-0.81386 -0.093285,-0.0844 -0.3244457,-0.0949 -0.3873627,-0.0175 -0.024223,0.0298 -0.057243,0.40498 -0.073377,0.8338 -0.016134,0.4288 -0.047798,0.83953 -0.070364,0.91271 -0.048748,0.15811 -0.2722119,0.38468 -0.4428661,0.44902 -0.1051889,0.0396 -1.0258863,0.0691 -1.0258863,0.0328 0,-0.12553 0.749137,-2.07068 1.0397218,-2.69965 l 0.1674716,-0.36249 h 0.5442227 c 0.333939,0 0.5442226,0.0167 0.5442226,0.0433 0,0.0822 0.1735694,0.21657 0.2797875,0.21657 0.060588,0 0.1541238,-0.0514 0.216886,-0.11912 l 0.1103534,-0.11911 0.8551349,-0.0144 c 0.4703234,-0.008 1.0354282,-0.001 1.2557879,0.0149 l 0.4006545,0.0292 v 6.42808 6.42808 l -0.5522536,-0.006 c -0.3037381,-0.004 -0.7666561,-0.0234 -1.0287057,-0.0445 z m 0.9649261,-1.27297 c 0.1081896,-0.0758 0.1344881,-0.32453 0.042125,-0.39842 -0.1320592,-0.10566 -0.2466258,-0.1036 -0.3566188,0.007 -0.1314448,0.13144 -0.1389372,0.25626 -0.022381,0.37282 0.1040669,0.10407 0.2073094,0.10995 0.3368741,0.0192 z m 0.028201,-2.07971 c 0.037433,-0.0374 0.068065,-0.12376 0.068065,-0.19182 0,-0.15806 -0.1020815,-0.25988 -0.2605209,-0.25988 -0.1288538,0 -0.2592457,0.13071 -0.2592457,0.25988 0,0.21693 0.2994394,0.34408 0.4517016,0.19182 z m -0.028201,-2.03512 c 0.1906619,-0.13354 0.082045,-0.49565 -0.1486743,-0.49565 -0.1251606,0 -0.2748272,0.1426 -0.2748272,0.26185 0,0.099 0.1812703,0.30123 0.2699339,0.30123 0.031517,0 0.1006214,-0.0304 0.1535676,-0.0674 z m 0.042125,-2.10888 c 0.092365,-0.0739 0.066069,-0.32263 -0.042125,-0.39841 -0.1295646,-0.0908 -0.2328072,-0.0849 -0.3368741,0.0192 -0.1165587,0.11655 -0.1090663,0.24138 0.022381,0.37283 0.1099931,0.10999 0.2245597,0.11204 0.3566188,0.007 z m -0.039753,-2.05092 c 0.1468178,-0.10283 0.1179003,-0.36331 -0.049183,-0.44301 -0.2552424,-0.12175 -0.4824903,0.19899 -0.2878089,0.40622 0.1159141,0.12338 0.2002289,0.13258 0.3369906,0.0368 z m 0.025829,-2.07804 c 0.078066,-0.0781 0.088647,-0.24569 0.023229,-0.36792 -0.06072,-0.11346 -0.3053081,-0.11279 -0.408379,7.3e-4 -0.079654,0.088 -0.06615,0.26602 0.028865,0.38051 0.063078,0.076 0.2747278,0.0678 0.3562888,-0.0137 z"
       id="path15095"
       inkscape:connector-curvature="0" />
    <path
       style="fill:#ffffff;stroke-width:0.00491119;stroke-miterlimit:4;stroke-dasharray:none"
       d="M 9.1683591,289.21504 V 282.7593 H 9.8827047 10.59705 l 0.11578,0.12994 c 0.07418,0.0833 0.157486,0.12994 0.231847,0.12994 0.116838,0 0.259437,-0.11496 0.259437,-0.20915 0,-0.0362 0.160226,-0.0508 0.556912,-0.0508 h 0.556912 l 0.179441,0.3917 c 0.2231,0.48702 0.684519,1.6495 0.88896,2.23962 l 0.15381,0.44396 h -0.488171 c -0.462897,0 -0.498302,-0.007 -0.683857,-0.1241 -0.320433,-0.20321 -0.358286,-0.32788 -0.376586,-1.24029 -0.01706,-0.85075 -0.04006,-0.93124 -0.266088,-0.93124 -0.242073,0 -0.272366,0.0673 -0.29452,0.6538 -0.03799,1.00565 0.09239,1.54339 0.450399,1.85773 0.306447,0.26906 0.486164,0.32064 1.205546,0.34599 l 0.648309,0.0228 0.09824,0.34652 c 0.237905,0.83917 0.588998,2.30368 0.725466,3.02614 0.243962,1.29151 0.447307,2.95442 0.468665,3.83266 l 0.0099,0.40503 -0.476453,0.25544 c -1.281895,0.68729 -3.138843,1.20263 -4.7428767,1.31623 -0.2024928,0.0144 -0.4315155,0.0358 -0.5089391,0.0477 l -0.1407701,0.0217 z"
       id="path15097"
       inkscape:connector-curvature="0" />
    <path
       style="fill:#ffffff;stroke-width:0.00491119;stroke-miterlimit:4;stroke-dasharray:none"
       d="m 9.1683591,281.71976 v -0.47645 h 0.7579938 0.7579941 v 0.47645 0.47645 H 9.9263529 9.1683591 Z"
       id="path15099"
       inkscape:connector-curvature="0" />
    <path
       style="fill:#ffffff;stroke-width:0.00491119;stroke-miterlimit:4;stroke-dasharray:none"
       d="m 11.247428,281.71976 v -0.47645 h 0.476453 0.476454 v 0.47645 0.47645 h -0.476454 -0.476453 z"
       id="path15101"
       inkscape:connector-curvature="0" />
    <path
       style="fill:#ffffff;stroke-width:0.00491119;stroke-miterlimit:4;stroke-dasharray:none"
       d="m 6.0497549,281.71976 v -0.47645 H 7.3275161 8.605278 v 0.47645 0.47645 H 7.3275161 6.0497549 Z"
       id="path15103"
       inkscape:connector-curvature="0" />
    <path
       style="fill:#ffffff;stroke-width:0.00491119;stroke-miterlimit:4;stroke-dasharray:none"
       d="m 4.4904528,281.71976 v -0.47645 h 0.4981109 0.4981101 v 0.47645 0.47645 H 4.9885637 4.4904528 Z"
       id="path15105"
       inkscape:connector-curvature="0" />
  </g>
</svg>
