<?xml version="1.0" encoding="UTF-8" standalone="no"?>
<svg
   xmlns:dc="http://purl.org/dc/elements/1.1/"
   xmlns:cc="http://creativecommons.org/ns#"
   xmlns:rdf="http://www.w3.org/1999/02/22-rdf-syntax-ns#"
   xmlns:svg="http://www.w3.org/2000/svg"
   xmlns="http://www.w3.org/2000/svg"
   xmlns:sodipodi="http://sodipodi.sourceforge.net/DTD/sodipodi-0.dtd"
   xmlns:inkscape="http://www.inkscape.org/namespaces/inkscape"
   width="64"
   height="64"
   viewBox="0 0 16.933333 16.933333"
   version="1.1"
   id="svg8"
   sodipodi:docname="seren_sleep_64x64.svg"
   inkscape:version="1.0.2-2 (e86c870879, 2021-01-15)">
  <defs
     id="defs2" />
  <sodipodi:namedview
     id="base"
     pagecolor="#ffffff"
     bordercolor="#666666"
     borderopacity="1.0"
     inkscape:pageopacity="0.0"
     inkscape:pageshadow="2"
     inkscape:zoom="8"
     inkscape:cx="73.203475"
     inkscape:cy="28.046105"
     inkscape:document-units="mm"
     inkscape:current-layer="layer1"
     inkscape:document-rotation="0"
     showgrid="false"
     inkscape:snap-global="false"
     fit-margin-top="0"
     fit-margin-left="0"
     fit-margin-right="0"
     fit-margin-bottom="0"
     inkscape:window-width="1540"
     inkscape:window-height="967"
     inkscape:window-x="1954"
     inkscape:window-y="32"
     inkscape:window-maximized="0"
     units="px" />
  <metadata
     id="metadata5">
    <rdf:RDF>
      <cc:Work
         rdf:about="">
        <dc:format>image/svg+xml</dc:format>
        <dc:type
           rdf:resource="http://purl.org/dc/dcmitype/StillImage" />
        <dc:title></dc:title>
      </cc:Work>
    </rdf:RDF>
  </metadata>
  <g
     inkscape:label="Calque 1"
     inkscape:groupmode="layer"
     id="layer1"
     transform="translate(-44.581036,-28.552681)">
    <text
       xml:space="preserve"
       style="font-style:normal;font-weight:normal;font-size:10.5833px;line-height:1.25;font-family:sans-serif;fill:#000000;fill-opacity:1;stroke:none;stroke-width:0.264583"
       x="51.724785"
       y="39.66518"
       id="text1411"><tspan
         sodipodi:role="line"
         id="tspan1409"
         x="51.724785"
         y="39.66518"
         style="stroke-width:0.264583"></tspan></text>
    <path
       style="fill:#000000;stroke-width:0.0304467"
       d="m 52.175697,44.325306 c -1.815543,-0.141817 -3.550576,-0.945804 -4.80453,-2.22635 -0.657203,-0.671144 -1.013833,-1.173079 -1.413614,-1.98958 -1.04869,-2.141806 -1.048989,-4.538986 -8.06e-4,-6.667832 0.624794,-1.268973 1.568014,-2.319841 2.760774,-3.07585 0.408048,-0.258642 1.126451,-0.601282 1.26068,-0.601282 0.138203,0 0.256414,0.07451 0.30527,0.192481 0.04494,0.108555 0.02389,0.195735 -0.148116,0.611505 -0.304392,0.735833 -0.459515,1.496422 -0.483492,2.370778 -0.03268,1.19037 0.181786,2.1742 0.708217,3.249504 1.037711,2.119636 3.035671,3.5266 5.418406,3.815631 0.349968,0.04246 1.248375,0.04183 1.575146,-0.001 0.568356,-0.07464 1.10204,-0.20882 1.73891,-0.437284 0.243169,-0.08727 0.359239,-0.07155 0.468798,0.06337 0.104471,0.128646 0.08628,0.241943 -0.09705,0.606914 -1.091903,2.173061 -3.254999,3.699722 -5.725731,4.041099 -0.437543,0.0604 -1.130386,0.0817 -1.56283,0.04791 z m 3.222829,-8.045424 c -0.117345,-0.04122 -0.174322,-0.149058 -0.142027,-0.268916 0.01114,-0.03998 0.288275,-0.381062 0.616643,-0.75784 L 56.470178,34.56808 55.97208,34.54939 c -0.273953,-0.0099 -0.514907,-0.02055 -0.535442,-0.0229 -0.02055,-0.0024 -0.05991,-0.0385 -0.08739,-0.08045 -0.04209,-0.06424 -0.04407,-0.09061 -0.01238,-0.167316 0.05892,-0.142336 0.166634,-0.158576 0.975696,-0.147115 0.609625,0.0087 0.728641,0.01783 0.795174,0.06152 0.204933,0.134426 0.144725,0.246758 -0.543612,1.014316 l -0.6007,0.669819 0.625977,0.01522 c 0.467746,0.01114 0.638688,0.02574 0.67623,0.05707 0.07179,0.05966 0.06412,0.225505 -0.01374,0.296024 -0.05929,0.05372 -0.12617,0.05855 -0.905785,0.06474 -0.601182,0.005 -0.872029,-0.0037 -0.947672,-0.03045 z m -3.412809,-1.582958 c -0.11029,-0.07439 -0.169643,-0.215651 -0.139539,-0.332316 0.0099,-0.03886 0.146755,-0.214414 0.303871,-0.390246 1.016755,-1.137838 1.18568,-1.329922 1.211588,-1.377715 0.02711,-0.04988 -0.0099,-0.05322 -0.594351,-0.05322 -0.762358,0 -0.840043,-0.02116 -0.838904,-0.228352 5.69e-4,-0.10311 0.04382,-0.1715 0.141185,-0.223377 0.08665,-0.04617 1.892399,-0.04914 2.057102,-0.0037 0.07798,0.02166 0.128931,0.06028 0.160891,0.122174 0.0942,0.18228 0.04419,0.258542 -0.761331,1.159623 l -0.74441,0.832717 0.742615,0.01522 c 0.692831,0.01423 0.748334,0.01944 0.827778,0.07885 0.100386,0.07502 0.132755,0.17759 0.09321,0.295034 -0.05657,0.16812 -0.100759,0.174148 -1.279407,0.174148 -1.069919,0 -1.078621,-5.08e-4 -1.180332,-0.06907 z m 6.297751,-0.191526 c -0.106205,-0.05768 -0.145395,-0.132596 -0.145395,-0.278076 0,-0.131159 -0.01894,-0.107195 0.850369,-1.075019 0.576945,-0.64234 0.671973,-0.75461 0.671973,-0.793948 0,-0.01634 -0.273459,-0.0281 -0.651228,-0.0281 -0.779899,0 -0.804729,-0.0099 -0.78459,-0.297312 0.0025,-0.04196 0.04345,-0.09246 0.103729,-0.129277 0.09284,-0.05657 0.15547,-0.06028 1.008821,-0.0604 0.981006,-1.37e-4 1.105035,0.01522 1.210992,0.149937 0.07625,0.09704 0.06016,0.236794 -0.04555,0.39464 -0.04048,0.0604 -0.383574,0.455863 -0.762445,0.878689 l -0.688844,0.768783 0.692719,1.86e-4 c 0.781409,1.73e-4 0.897949,0.01906 0.96916,0.156756 0.064,0.123658 0.03416,0.226757 -0.08701,0.300605 -0.09284,0.05657 -0.157018,0.05978 -1.178996,0.05867 -0.89462,-9.04e-4 -1.095159,-0.0087 -1.163821,-0.04617 z"
       id="path1591" />
  </g>
</svg>
