<?xml version="1.0" encoding="UTF-8" standalone="no"?>
<svg
   xmlns:dc="http://purl.org/dc/elements/1.1/"
   xmlns:cc="http://creativecommons.org/ns#"
   xmlns:rdf="http://www.w3.org/1999/02/22-rdf-syntax-ns#"
   xmlns:svg="http://www.w3.org/2000/svg"
   xmlns="http://www.w3.org/2000/svg"
   xmlns:sodipodi="http://sodipodi.sourceforge.net/DTD/sodipodi-0.dtd"
   xmlns:inkscape="http://www.inkscape.org/namespaces/inkscape"
   width="64"
   height="64"
   viewBox="0 0 16.933333 16.933333"
   version="1.1"
   id="svg8"
   sodipodi:docname="seren_sleeps_bad_64x64.svg"
   inkscape:version="1.0.2-2 (e86c870879, 2021-01-15)">
  <defs
     id="defs2" />
  <sodipodi:namedview
     id="base"
     pagecolor="#ffffff"
     bordercolor="#666666"
     borderopacity="1.0"
     inkscape:pageopacity="0.0"
     inkscape:pageshadow="2"
     inkscape:zoom="8"
     inkscape:cx="62.809981"
     inkscape:cy="32.0023"
     inkscape:document-units="mm"
     inkscape:current-layer="layer1"
     inkscape:document-rotation="0"
     showgrid="false"
     inkscape:snap-global="false"
     fit-margin-top="0"
     fit-margin-left="0"
     fit-margin-right="0"
     fit-margin-bottom="0"
     inkscape:window-width="1540"
     inkscape:window-height="967"
     inkscape:window-x="1806"
     inkscape:window-y="64"
     inkscape:window-maximized="0"
     units="px" />
  <metadata
     id="metadata5">
    <rdf:RDF>
      <cc:Work
         rdf:about="">
        <dc:format>image/svg+xml</dc:format>
        <dc:type
           rdf:resource="http://purl.org/dc/dcmitype/StillImage" />
        <dc:title></dc:title>
      </cc:Work>
    </rdf:RDF>
  </metadata>
  <g
     inkscape:label="Calque 1"
     inkscape:groupmode="layer"
     id="layer1"
     transform="translate(-44.581036,-28.552681)">
    <text
       xml:space="preserve"
       style="font-style:normal;font-weight:normal;font-size:10.5833px;line-height:1.25;font-family:sans-serif;fill:#000000;fill-opacity:1;stroke:none;stroke-width:0.264583"
       x="51.724785"
       y="39.66518"
       id="text1411"><tspan
         sodipodi:role="line"
         id="tspan1409"
         x="51.724785"
         y="39.66518"
         style="stroke-width:0.264583"></tspan></text>
    <path
       style="fill:#000000;stroke-width:0.0635875"
       d="m 49.449422,44.008459 c -0.322978,-0.300899 -0.06007,-1.205753 0.535264,-1.842212 0.164241,-0.175585 0.287139,-0.32853 0.273104,-0.339877 -0.01403,-0.01135 -0.411809,-0.08194 -0.883946,-0.156898 -0.472137,-0.07494 -0.915659,-0.151509 -0.985606,-0.170137 -0.100404,-0.02674 -0.151132,0.01869 -0.240992,0.215814 -0.133691,0.29329 -0.353035,0.453973 -0.679476,0.497759 -0.485003,0.06505 -0.813343,-0.283901 -1.074646,-1.142112 -0.487978,-1.602687 -0.602952,-6.09182 -0.22723,-8.872018 0.246411,-1.823321 0.792911,-2.602808 1.550259,-2.211169 0.211585,0.109413 0.513116,0.449926 0.513116,0.57945 0,0.04977 0.02147,0.08989 0.0477,0.08915 0.23501,-0.0067 2.07192,-0.409971 2.495809,-0.547947 0.502508,-0.163565 0.611998,-0.17559 1.557895,-0.171107 0.665944,0.0032 1.193126,0.0403 1.526098,0.10751 0.279787,0.05648 0.904887,0.146809 1.389115,0.200732 0.484229,0.05392 1.263095,0.168718 1.730813,0.255102 1.00295,0.185239 0.91788,0.179069 0.91788,0.06656 0,-0.129524 0.30153,-0.470035 0.513118,-0.57945 0.751514,-0.388623 1.298684,0.3814 1.547455,2.177717 0.347713,2.510737 0.26788,6.98424 -0.154217,8.64148 -0.31604,1.240839 -0.772837,1.647703 -1.457668,1.298327 -0.167389,-0.08541 -0.283125,-0.207319 -0.363094,-0.382509 -0.09244,-0.202511 -0.144413,-0.250337 -0.244563,-0.22506 -0.06995,0.01765 -0.51347,0.09463 -0.985607,0.171052 -0.472136,0.07643 -0.869913,0.147825 -0.883946,0.158668 -0.01403,0.0108 0.108869,0.163378 0.273103,0.338963 0.595333,0.636458 0.858242,1.541311 0.535267,1.842212 -0.13653,0.127196 -0.204939,0.129651 -3.612498,0.129651 -3.40756,0 -3.475967,-0.0024 -3.612498,-0.129651 z m 6.869223,-0.567865 c -0.04339,-0.5308 -0.659856,-1.227254 -1.434223,-1.620302 l -0.475583,-0.241395 -0.397474,0.198619 c -0.353516,0.176654 -0.458515,0.198619 -0.949445,0.198619 -0.490339,0 -0.596135,-0.02206 -0.947454,-0.197621 l -0.395478,-0.197624 -0.407747,0.200735 c -0.555042,0.273245 -0.983635,0.624859 -1.230398,1.009404 -0.220066,0.342943 -0.357049,0.735847 -0.292797,0.839811 0.02536,0.04103 1.184196,0.05751 3.293878,0.04683 l 3.254752,-0.01648 z m -8.690568,-1.8113 c 0.202819,-0.202819 0.196796,-0.262397 -0.03467,-0.343092 -0.145569,-0.05074 -0.190763,-0.105417 -0.190763,-0.230772 0,-0.09035 0.04185,-0.180332 0.093,-0.199958 0.05114,-0.01962 0.410831,0.03884 0.7993,0.129935 0.388466,0.09109 1.140668,0.22637 1.671557,0.300616 l 0.965256,0.134994 0.49654,-0.209732 c 0.56816,-0.239985 0.679828,-0.383488 0.679828,-0.873655 v -0.309482 l -0.340301,-0.107275 c -0.783495,-0.246975 -1.548722,-0.93715 -1.933759,-1.744096 -0.191466,-0.401265 -0.241846,-0.461008 -0.38877,-0.461008 -0.266217,0 -0.599158,-0.213522 -0.753953,-0.483526 -0.156509,-0.272995 -0.177898,-0.481582 -0.0786,-0.766446 0.05424,-0.155603 0.0373,-0.251778 -0.09841,-0.558655 -0.262978,-0.59464 -0.411277,-1.327303 -0.411776,-2.034355 -7.21e-4,-1.010871 0.278843,-1.879325 0.828991,-2.575317 0.139979,-0.177086 0.221629,-0.321977 0.181443,-0.321977 -0.04019,0 -0.395214,0.07587 -0.788954,0.168598 -0.39374,0.09273 -0.762127,0.150858 -0.818639,0.129173 -0.05792,-0.02223 -0.102749,-0.111107 -0.102749,-0.203701 0,-0.125356 0.0452,-0.180027 0.190763,-0.230772 0.219175,-0.07641 0.226937,-0.101291 0.09177,-0.294261 -0.154255,-0.220231 -0.433682,-0.189238 -0.589074,0.06533 -0.357413,0.585532 -0.552438,1.791414 -0.646142,3.99522 -0.0694,1.632085 0.0012,3.908721 0.158403,5.107869 0.154192,1.176241 0.49766,2.072412 0.794274,2.072412 0.03816,0 0.139605,-0.07023 0.225448,-0.156078 z m 11.3132,0.0053 c 0.209319,-0.209319 0.459517,-1.046825 0.574289,-1.922353 0.236997,-1.807921 0.237678,-5.486908 0.0014,-7.289491 -0.212681,-1.622192 -0.685768,-2.438628 -1.083793,-1.87037 -0.129151,0.184392 -0.120284,0.210477 0.09733,0.286336 0.145571,0.05074 0.190763,0.105416 0.190763,0.230772 0,0.241468 -0.141995,0.260544 -0.78809,0.105872 -0.466242,-0.111612 -1.574272,-0.326648 -1.685123,-0.327032 -0.0138,-4.8e-5 0.161745,0.171117 0.390108,0.380367 0.694403,0.636296 1.009831,1.240367 1.124276,2.153089 0.08677,0.69197 -0.0064,1.70793 -0.213067,2.323595 -0.152274,0.453618 -0.155182,0.488452 -0.05982,0.71668 0.249555,0.597269 -0.194963,1.293631 -0.825776,1.293631 -0.128493,0 -0.190327,0.07624 -0.373922,0.461009 -0.385038,0.806946 -1.150266,1.497121 -1.933761,1.744095 L 54.01579,40.02807 v 0.309483 c 0,0.483286 0.109792,0.626125 0.670735,0.872641 l 0.491124,0.215834 0.833894,-0.111185 c 0.458639,-0.06115 1.215153,-0.197173 1.681138,-0.302268 0.465984,-0.105093 0.888045,-0.175427 0.937914,-0.15629 0.04988,0.01914 0.09067,0.108712 0.09067,0.199066 0,0.125356 -0.0452,0.180027 -0.190762,0.230772 -0.23148,0.0807 -0.237502,0.140275 -0.03468,0.343094 0.194053,0.194052 0.256092,0.194801 0.445515,0.0053 z m -5.336822,-0.195787 c 0.255118,-0.106596 0.256725,-0.111538 0.109235,-0.336166 -0.06441,-0.09808 -0.12467,-0.344915 -0.143073,-0.585947 l -0.03179,-0.416468 -0.43942,-0.01903 c -0.512627,-0.02221 -0.543815,0.0048 -0.545214,0.471172 -7.2e-4,0.240282 -0.04221,0.385742 -0.159267,0.558221 l -0.158293,0.233259 0.142396,0.05263 c 0.07831,0.02895 0.185319,0.06878 0.237778,0.08852 0.189227,0.07122 0.771834,0.04399 0.98765,-0.04619 z m 0.389886,-1.904418 c 1.127424,-0.300182 1.957194,-1.224516 2.117832,-2.359189 0.08064,-0.56956 0.08436,-2.357719 0.0052,-2.505591 -0.03318,-0.06199 -0.240627,-0.218471 -0.461009,-0.347746 -0.422531,-0.247856 -0.90426,-0.668428 -1.241271,-1.083687 l -0.202038,-0.24895 -0.358771,0.29536 c -0.764878,0.629691 -1.920668,1.103007 -3.139789,1.285802 -0.422091,0.06329 -0.633845,0.124695 -0.688898,0.199776 -0.09795,0.133574 -0.107299,1.74569 -0.01397,2.405036 0.158479,1.119439 0.984924,2.051347 2.089253,2.355862 0.3967,0.109392 1.487872,0.111308 1.893422,0.0034 z m -1.820113,-0.957214 c -0.290273,-0.349755 0.62225,-0.735863 1.303743,-0.55164 0.454521,0.122866 0.66468,0.435022 0.403567,0.599433 -0.07495,0.04719 -0.178341,0.02771 -0.385703,-0.07267 -0.351605,-0.170209 -0.528846,-0.172296 -0.847234,-0.01009 -0.297217,0.151527 -0.372921,0.157089 -0.474373,0.03485 z M 50.989125,37.62708 c -0.01999,-0.0521 -0.02638,-0.146468 -0.01419,-0.209715 0.01866,-0.09684 0.08726,-0.114992 0.434593,-0.114992 h 0.412447 v 0.190762 c 0,0.189636 -0.0024,0.190877 -0.398245,0.209715 -0.306683,0.01459 -0.406599,-0.0029 -0.434594,-0.07577 z m 3.306549,0 c -0.01999,-0.0521 -0.02638,-0.146468 -0.0142,-0.209715 0.01866,-0.09684 0.08726,-0.114992 0.434596,-0.114992 h 0.412445 v 0.190762 c 0,0.189636 -0.0024,0.190877 -0.398244,0.209715 -0.306684,0.01459 -0.406601,-0.0029 -0.434592,-0.07577 z m -1.633787,-0.20544 c -0.08315,-0.08316 -0.04614,-0.327809 0.0555,-0.366814 0.147426,-0.05657 0.617109,-0.04525 0.715721,0.01726 0.04677,0.02965 0.07539,0.122208 0.06358,0.205685 -0.01956,0.138372 -0.05539,0.153421 -0.405594,0.170364 -0.211274,0.01028 -0.404421,-0.0016 -0.429214,-0.0265 z m -1.881926,-0.463207 c -0.05563,-0.03522 -0.07594,-0.119951 -0.055,-0.229449 0.02531,-0.132391 0.0052,-0.180908 -0.08456,-0.204392 -0.128282,-0.03354 -0.218125,-0.230857 -0.153057,-0.336139 0.05961,-0.09645 1.025626,-0.571149 1.162293,-0.571149 0.06415,0 0.185748,0.093 0.270224,0.20666 0.121815,0.163901 0.15561,0.292174 0.163348,0.619978 0.0053,0.227325 -0.01896,0.449087 -0.05404,0.492802 -0.07441,0.09271 -1.108676,0.110672 -1.249191,0.02168 z m 0.807871,-0.658596 0.02022,-0.175898 -0.221371,0.105571 c -0.258653,0.123342 -0.249423,0.296139 0.01417,0.265568 0.128968,-0.01496 0.171322,-0.05919 0.186962,-0.195235 z m 2.506851,0.636907 c -0.03508,-0.04372 -0.0594,-0.265477 -0.05404,-0.492802 0.0076,-0.327804 0.04153,-0.456077 0.163348,-0.619978 0.08448,-0.113663 0.206077,-0.20666 0.270221,-0.20666 0.136672,0 1.102686,0.474697 1.162295,0.571148 0.06506,0.105282 -0.02478,0.302593 -0.153054,0.336139 -0.0898,0.02349 -0.109882,0.07201 -0.08457,0.204393 0.02093,0.109492 7.22e-4,0.19422 -0.055,0.229448 -0.140516,0.08899 -1.17478,0.07104 -1.249196,-0.02168 z m 0.830756,-0.515446 c 0.02039,-0.05311 -0.04866,-0.125211 -0.179684,-0.187694 -0.232344,-0.110794 -0.317349,-0.04512 -0.210492,0.162647 0.06755,0.131358 0.342607,0.149015 0.390176,0.02504 z m -5.42442,0.372376 c 0,-0.521478 -0.06962,-0.598054 -0.317937,-0.349732 -0.189343,0.189342 -0.169568,0.529711 0.04037,0.694847 0.09215,0.07249 0.192298,0.131791 0.222557,0.131791 0.03024,0 0.055,-0.214609 0.055,-0.476906 z m 7.399371,0.345115 c 0.209935,-0.165136 0.229709,-0.505505 0.04037,-0.694847 -0.24832,-0.248322 -0.317937,-0.171746 -0.317937,0.349732 0,0.262297 0.02476,0.476906 0.05502,0.476906 0.03025,0 0.130406,-0.0593 0.222556,-0.131791 z m -7.447062,-1.310158 c 0.02623,-0.01544 0.04769,-0.271024 0.04769,-0.567969 0,-0.578937 0.09132,-0.85741 0.321557,-0.980632 0.07121,-0.03811 0.421442,-0.112268 0.778287,-0.164789 0.793156,-0.116739 1.785591,-0.43899 2.324301,-0.754721 0.221025,-0.129539 0.596069,-0.41873 0.833432,-0.642645 0.237362,-0.223917 0.474098,-0.407121 0.526076,-0.407121 0.05197,0 0.198683,0.168775 0.326005,0.375057 0.286093,0.463507 0.804227,0.944129 1.380891,1.280919 0.24109,0.140804 0.474598,0.31941 0.518903,0.396901 0.0443,0.0775 0.09485,0.441342 0.112348,0.808561 l 0.03179,0.667668 0.171119,0.01976 c 0.159893,0.01846 0.180219,-0.0087 0.309882,-0.41332 0.17398,-0.542987 0.237478,-1.688151 0.125446,-2.262373 -0.04252,-0.217945 -0.178827,-0.59012 -0.302894,-0.827054 -0.647405,-1.236353 -2.336746,-1.954642 -4.627503,-1.967561 -1.285686,-0.0072 -2.070496,0.272213 -2.802627,0.997998 -1.021819,1.012961 -1.247394,2.57727 -0.617269,4.280598 0.09571,0.258699 0.111474,0.270925 0.29796,0.230975 0.108301,-0.0232 0.21837,-0.05482 0.2446,-0.07025 z"
       id="path1623" />
    <path
       style="fill:#ffffff;stroke-width:1.1811;stroke-linecap:round;stroke-miterlimit:4;stroke-dasharray:none"
       d="m 29.037773,41.559201 c -2.198945,-0.389846 -4.850997,-2.060693 -6.26783,-3.948862 -1.115066,-1.486013 -1.720919,-2.816495 -2.098332,-4.608039 -0.216344,-1.02696 -0.38335,-6.727186 -0.241458,-8.241383 0.142976,-1.525768 -0.125912,-1.386328 4.367528,-2.264912 3.973727,-0.776967 7.59392,-2.403755 10.49166,-4.714586 l 1.111222,-0.886156 0.450967,0.553518 c 1.424642,1.74862 3.190168,3.303573 5.213324,4.591537 1.71591,1.092369 1.599468,0.793804 1.660537,4.257757 0.0859,4.872544 -0.192889,7.21725 -1.094609,9.205951 -1.235016,2.723772 -3.664054,4.833322 -6.695801,5.815117 -0.779095,0.2523 -1.169566,0.287273 -3.5625,0.31908 -1.478125,0.01965 -2.978743,-0.01591 -3.334708,-0.07902 z m 1.376958,-3.694798 c 1.284927,-0.567243 1.825285,-0.578075 3.117254,-0.0625 1.097807,0.438096 1.53127,0.480238 1.861903,0.181018 0.577405,-0.522545 -0.008,-1.541461 -1.173658,-2.042931 -2.261876,-0.973032 -6.288647,0.19888 -5.730216,1.667665 0.112841,0.296795 0.574913,0.70714 0.79628,0.70714 0.0595,0 0.567299,-0.202679 1.128437,-0.450397 z m -3.234217,-3.377685 c 0.139786,-0.05364 0.191967,-0.256908 0.191967,-0.747792 V 33.0648 h -1.475 c -0.980556,0 -1.525283,0.05028 -1.625,0.15 -0.0825,0.0825 -0.15,0.393688 -0.15,0.691528 0,0.442206 0.05158,0.563841 0.28125,0.663183 0.280005,0.121117 2.410979,0.05758 2.776783,-0.08279 z m 12.500001,0 c 0.139785,-0.05364 0.191966,-0.256908 0.191966,-0.747792 V 33.0648 h -1.475 c -0.980555,0 -1.525283,0.05028 -1.625,0.15 -0.0825,0.0825 -0.15,0.393688 -0.15,0.691528 0,0.442206 0.05159,0.563841 0.28125,0.663183 0.280005,0.121117 2.410979,0.05758 2.776784,-0.08279 z M 33.542437,33.45436 c 0.251989,-0.209131 0.267395,-0.881464 0.02771,-1.209419 -0.156131,-0.213633 -0.33489,-0.242641 -1.495258,-0.242641 -1.500416,0 -1.697203,0.09643 -1.72536,0.845419 -0.02972,0.790502 0.139103,0.874319 1.656447,0.822384 0.88025,-0.03013 1.400896,-0.103237 1.536457,-0.215743 z m -5.587763,-1.58361 c 0.354268,-0.103857 0.414195,-0.373407 0.415403,-1.86845 0.0013,-1.59994 -0.135233,-2.065841 -0.812486,-2.772662 -0.519211,-0.541878 -0.579268,-0.570185 -1.070056,-0.504357 -0.685113,0.09189 -3.838213,1.686179 -4.138537,2.092547 -0.314319,0.425307 -0.114942,1.015606 0.457007,1.353063 0.385309,0.227338 0.409884,0.281172 0.359603,0.787712 -0.06754,0.680385 0.05553,0.864837 0.662603,0.993135 0.521628,0.110237 3.686019,0.04813 4.126463,-0.08099 z m 12.276777,0.07761 c 0.672432,-0.129887 0.795026,-0.29808 0.711466,-0.976102 -0.05852,-0.474862 -0.0298,-0.552763 0.27587,-0.748281 0.187657,-0.12003 0.409718,-0.303385 0.493469,-0.407456 0.225995,-0.280825 0.192785,-0.934776 -0.05852,-1.152408 -0.666094,-0.57683 -3.693076,-1.974313 -4.276411,-1.974313 -0.449682,0 -1.307714,0.907407 -1.494658,1.580663 -0.158677,0.57146 -0.177675,3.158757 -0.02496,3.399707 0.206104,0.325191 3.158294,0.512961 4.373748,0.278188 z"
       id="path1625"
       transform="matrix(0.26458333,0,0,0.26458333,44.581036,28.552681)" />
    <path
       style="fill:#ffffff;stroke-width:1.1811;stroke-linecap:round;stroke-miterlimit:4;stroke-dasharray:none"
       d="M 16.904991,27.713139 C 16.686113,27.57328 16.202807,26.333811 15.823583,24.9398 14.11509,18.659441 15.548915,13.281227 19.861528,9.7936484 c 1.760108,-1.4233861 3.758913,-2.2555266 6.260953,-2.606553 1.366341,-0.1916925 5.310159,-0.156132 7.179311,0.064734 3.896775,0.4604578 7.34447,1.6006188 9.758189,3.2270566 1.051376,0.70845 2.486036,2.125591 3.124061,3.085914 0.63493,0.955664 1.356378,2.641377 1.642384,3.837542 0.251043,1.049936 0.277705,4.415561 0.04882,6.162458 -0.162381,1.239324 -0.624046,3.013504 -0.94632,3.636713 -0.150705,0.29143 -0.270739,0.363287 -0.606849,0.363287 -0.230441,0 -0.474447,-0.07031 -0.542236,-0.15625 -0.06779,-0.08594 -0.158209,-0.962436 -0.200935,-1.947775 -0.09492,-2.18888 -0.276184,-3.292034 -0.610856,-3.7175 -0.139707,-0.177609 -1.066782,-0.85752 -2.060168,-1.510915 -2.031071,-1.335926 -3.877298,-3.04054 -4.784555,-4.41756 -0.638208,-0.968659 -1.233889,-1.625 -1.47482,-1.625 -0.244281,0 -0.738384,0.369668 -2.132805,1.595684 -1.632766,1.435576 -2.742024,2.20977 -4.08072,2.848095 -2.19091,1.044682 -4.753922,1.807387 -7.954056,2.366981 -2.056242,0.359566 -2.521075,0.478241 -2.934673,0.749241 -0.689521,0.451792 -1.037193,1.838264 -1.044912,4.166967 -0.0021,0.640457 -0.05859,1.266723 -0.125472,1.391703 -0.06689,0.124979 -0.324006,0.265205 -0.571377,0.311612 -0.24737,0.04641 -0.516081,0.108612 -0.597137,0.138233 -0.08105,0.02962 -0.217119,0.0093 -0.302363,-0.04518 z"
       id="path1627"
       transform="matrix(0.26458333,0,0,0.26458333,44.581036,28.552681)" />
    <path
       style="fill:#ffffff;stroke-width:1.1811;stroke-linecap:round;stroke-miterlimit:4;stroke-dasharray:none"
       d="m 17.586391,32.323771 c -0.505803,-0.471808 -0.52641,-0.52047 -0.52641,-1.243058 0,-0.687911 0.03673,-0.78992 0.430771,-1.19647 0.49463,-0.510329 0.819598,-0.56748 0.927943,-0.163193 0.09855,0.36774 0.100836,2.640841 0.0029,2.896027 -0.113708,0.296317 -0.257089,0.245966 -0.835217,-0.293306 z"
       id="path1629"
       transform="matrix(0.26458333,0,0,0.26458333,44.581036,28.552681)" />
    <path
       style="fill:#ffffff;stroke-width:1.1811;stroke-linecap:round;stroke-miterlimit:4;stroke-dasharray:none"
       d="m 25.191953,29.82608 c -0.12921,-0.209064 0.06283,-0.469346 0.547087,-0.741516 0.263989,-0.14837 0.541227,-0.269764 0.616085,-0.269764 0.157259,0 0.05235,0.723154 -0.140539,0.96875 -0.141268,0.179871 -0.917793,0.212166 -1.022633,0.04253 z"
       id="path1631"
       transform="matrix(0.26458333,0,0,0.26458333,44.581036,28.552681)" />
    <path
       style="fill:#ffffff;stroke-width:1.1811;stroke-linecap:round;stroke-miterlimit:4;stroke-dasharray:none"
       d="m 37.827098,29.75156 c -0.216676,-0.216676 -0.384568,-0.673476 -0.284359,-0.773685 0.121101,-0.121101 0.88368,0.08578 1.193003,0.323649 0.417557,0.321103 0.274489,0.638276 -0.287909,0.638276 -0.237872,0 -0.517203,-0.08471 -0.620735,-0.18824 z"
       id="path1633"
       transform="matrix(0.26458333,0,0,0.26458333,44.581036,28.552681)" />
    <path
       style="fill:#ffffff;stroke-width:1.1811;stroke-linecap:round;stroke-miterlimit:4;stroke-dasharray:none"
       d="m 45.705814,32.731467 c -0.104168,-0.104168 -0.110728,-2.824831 -0.0075,-3.093943 0.114976,-0.299625 0.465286,-0.237466 0.822966,0.146026 0.868737,0.931429 0.796102,1.958812 -0.191757,2.712289 -0.451712,0.344537 -0.497532,0.361846 -0.62375,0.235628 z"
       id="path1635"
       transform="matrix(0.26458333,0,0,0.26458333,44.581036,28.552681)" />
    <path
       style="fill:#ffffff;stroke-width:1.1811;stroke-linecap:round;stroke-miterlimit:4;stroke-dasharray:none"
       d="m 52.681691,49.38059 c -0.307565,-0.307566 -0.55921,-0.636524 -0.55921,-0.731016 0,-0.09449 0.233241,-0.276983 0.518314,-0.405533 0.686426,-0.309535 0.856686,-0.497622 0.856686,-0.946387 0,-0.593635 -0.204159,-0.858124 -0.660647,-0.855873 -0.221019,0.0011 -1.920603,0.308884 -3.776853,0.683985 -1.85625,0.375103 -4.640625,0.85816 -6.1875,1.073462 l -2.8125,0.391456 -1.466366,-0.651335 c -1.715279,-0.761898 -2.525087,-1.396485 -2.723799,-2.134445 -0.07304,-0.271243 -0.11638,-0.923474 -0.09631,-1.449405 l 0.03648,-0.956236 1,-0.336175 c 3.264841,-1.097557 5.816468,-3.356673 7.492928,-6.633962 0.71391,-1.395612 0.999199,-1.739326 1.443674,-1.739326 0.181787,0 0.610377,-0.08311 0.95242,-0.184684 1.814496,-0.538847 2.840851,-2.723753 2.186736,-4.655122 -0.337755,-0.997271 -0.334004,-1.088409 0.10376,-2.521339 1.170403,-3.831079 1.334956,-8.22368 0.42664,-11.388855 -0.653253,-2.276363 -1.893902,-4.163932 -3.984111,-6.0615674 -0.600034,-0.5447519 -1.030115,-1.010743 -0.955736,-1.0355359 0.173458,-0.057819 1.674263,0.2211807 4.93301,0.9170485 2.919829,0.6234958 3.757288,0.6897668 3.958782,0.3132728 0.199586,-0.3729303 0.15351,-0.9476497 -0.09393,-1.1715771 -0.122829,-0.1111583 -0.432204,-0.2893813 -0.6875,-0.396051 -0.255296,-0.1066696 -0.464175,-0.2751963 -0.464175,-0.3745038 0,-0.2822364 0.931718,-1.1910859 1.221055,-1.1910859 0.708931,0 1.620718,1.4632085 2.21736,3.5583528 1.019114,3.578682 1.435898,8.767065 1.436236,17.879147 2.5e-4,7.650358 -0.278502,12.252913 -0.953105,15.735046 -0.354547,1.830085 -1.030042,4.001533 -1.487771,4.782587 -0.30322,0.517406 -0.89643,1.044867 -1.175111,1.044867 -0.07713,0 -0.391888,-0.251645 -0.699454,-0.55921 z"
       id="path1637"
       transform="matrix(0.26458333,0,0,0.26458333,44.581036,28.552681)" />
    <path
       style="fill:#ffffff;stroke-width:1.1811;stroke-linecap:round;stroke-miterlimit:4;stroke-dasharray:none"
       d="m 29.997481,48.676466 c -0.378125,-0.146953 -0.734522,-0.310154 -0.791993,-0.36267 -0.05747,-0.05252 0.10049,-0.404209 0.351025,-0.781542 0.470055,-0.707953 0.682924,-1.590511 0.688455,-2.85433 0.0041,-0.942172 0.228951,-1.057954 1.97192,-1.015502 0.793097,0.01932 1.490054,0.06482 1.548794,0.101127 0.05874,0.0363 0.107224,0.357998 0.107743,0.714878 0.0016,1.098294 0.236517,2.240542 0.614351,2.987168 0.402512,0.795391 0.391155,0.825932 -0.437382,1.17616 -0.329303,0.139198 -0.962658,0.222839 -1.927913,0.254599 -1.242402,0.04088 -1.530808,0.01104 -2.125,-0.219888 z"
       id="path1639"
       transform="matrix(0.26458333,0,0,0.26458333,44.581036,28.552681)" />
    <path
       style="fill:#ffffff;stroke-width:1.1811;stroke-linecap:round;stroke-miterlimit:4;stroke-dasharray:none"
       d="m 20.013677,56.974611 c -0.272334,-0.0516 -0.291096,-0.102353 -0.231922,-0.627343 0.03556,-0.315481 0.303257,-1.04231 0.597957,-1.623517 0.974235,-1.921393 2.716083,-3.463988 5.455145,-4.831125 l 1.149877,-0.573933 1.287623,0.62295 c 1.474009,0.713121 2.16822,0.873157 3.787624,0.873157 1.619404,0 2.313615,-0.160036 3.787624,-0.873157 l 1.287623,-0.62295 1.14797,0.576546 c 1.577622,0.792328 2.862309,1.683325 3.833848,2.658968 1.332443,1.338073 2.010168,2.530954 2.189811,3.854343 l 0.08908,0.65625 -12.04298,-0.01702 C 25.729318,57.03838 20.17664,57.00549 20.013673,56.97461 Z"
       id="path1641"
       transform="matrix(0.26458333,0,0,0.26458333,44.581036,28.552681)" />
    <path
       style="fill:#ffffff;stroke-width:1.1811;stroke-linecap:round;stroke-miterlimit:4;stroke-dasharray:none"
       d="M 9.9454655,49.41817 C 8.9077381,48.205819 7.992088,44.810394 7.5634312,40.585083 6.7540344,32.606779 6.8947701,20.65561 7.8788402,13.8008 8.6447073,8.4659418 10.116236,5.9629 11.576471,7.5112004 c 0.231556,0.2455202 0.42101,0.524138 0.42101,0.6191507 0,0.095013 -0.265219,0.2900696 -0.589377,0.4334597 -0.324157,0.1433901 -0.63267,0.3288348 -0.685585,0.4120994 -0.137974,0.2171075 -0.121992,0.8143044 0.02936,1.0971078 0.195856,0.36596 0.941646,0.312299 3.588753,-0.2582178 2.431286,-0.5240021 2.65843,-0.558767 2.654327,-0.40625 -0.0014,0.051562 -0.338798,0.54375 -0.749802,1.0937498 -3.36027,4.496674 -3.930719,11.080444 -1.490718,17.204965 0.416769,1.046111 0.49954,1.384726 0.438136,1.792403 -0.04164,0.276447 -0.108759,0.911283 -0.149157,1.410747 -0.06581,0.813659 -0.03886,0.978811 0.259102,1.587826 0.581923,1.189408 1.993021,2.191559 3.085867,2.191559 0.427105,0 0.733454,0.387989 1.529816,1.9375 1.60303,3.119075 4.195435,5.37848 7.391778,6.442289 l 1,0.332821 0.03803,0.924945 c 0.08002,1.946343 -0.39589,2.544233 -2.863646,3.597663 l -1.523529,0.65036 -3.075425,-0.44872 C 19.193927,47.879861 16.41926,47.399358 14.719483,47.058869 13.019706,46.718381 11.460748,46.4398 11.255131,46.4398 c -0.427465,0 -0.632645,0.279518 -0.632645,0.861854 0,0.423681 0.0996,0.538921 0.802782,0.928805 0.269655,0.149512 0.512787,0.340297 0.540292,0.423966 0.06814,0.20728 -1.059801,1.285375 -1.344806,1.285375 -0.125833,0 -0.429711,-0.234734 -0.6752835,-0.52163 z"
       id="path1643"
       transform="matrix(0.26458333,0,0,0.26458333,44.581036,28.552681)" />
  </g>
</svg>
