<?xml version="1.0" encoding="UTF-8" standalone="no"?>
<!-- Created with Inkscape (http://www.inkscape.org/) -->

<svg
   xmlns:dc="http://purl.org/dc/elements/1.1/"
   xmlns:cc="http://creativecommons.org/ns#"
   xmlns:rdf="http://www.w3.org/1999/02/22-rdf-syntax-ns#"
   xmlns:svg="http://www.w3.org/2000/svg"
   xmlns="http://www.w3.org/2000/svg"
   xmlns:sodipodi="http://sodipodi.sourceforge.net/DTD/sodipodi-0.dtd"
   xmlns:inkscape="http://www.inkscape.org/namespaces/inkscape"
   width="64"
   height="64"
   viewBox="0 0 16.933333 16.933334"
   version="1.1"
   id="svg8"
   inkscape:version="0.92.5 (2060ec1f9f, 2020-04-08)"
   sodipodi:docname="small_room_64x64.svg">
  <defs
     id="defs2" />
  <sodipodi:namedview
     id="base"
     pagecolor="#ffffff"
     bordercolor="#666666"
     borderopacity="1.0"
     inkscape:pageopacity="0.0"
     inkscape:pageshadow="2"
     inkscape:zoom="1.979899"
     inkscape:cx="106.20714"
     inkscape:cy="-50.374679"
     inkscape:document-units="mm"
     inkscape:current-layer="layer1"
     showgrid="false"
     units="px"
     inkscape:window-width="1208"
     inkscape:window-height="987"
     inkscape:window-x="1992"
     inkscape:window-y="0"
     inkscape:window-maximized="1" />
  <metadata
     id="metadata5">
    <rdf:RDF>
      <cc:Work
         rdf:about="">
        <dc:format>image/svg+xml</dc:format>
        <dc:type
           rdf:resource="http://purl.org/dc/dcmitype/StillImage" />
        <dc:title></dc:title>
      </cc:Work>
    </rdf:RDF>
  </metadata>
  <g
     inkscape:label="Layer 1"
     inkscape:groupmode="layer"
     id="layer1"
     transform="translate(0,-280.06665)">
    <path
       style="fill:#000000;stroke-width:0.06782352"
       d="m 2.8994677,295.88859 c -0.023855,-0.0386 0.052867,-0.51429 0.1705001,-1.05713 0.2054581,-0.94813 0.2090074,-0.99063 0.090235,-1.08066 -0.068002,-0.0516 -0.1430151,-0.0947 -0.1667029,-0.0959 -0.023689,-0.002 -0.092781,-0.078 -0.153543,-0.17076 -0.130324,-0.19891 -1.615803,-6.10173 -1.586707,-6.30507 0.025648,-0.17925 0.5432992,-0.44432 0.8677003,-0.44432 0.3040568,0 0.7978843,0.24757 0.9727363,0.48766 0.073953,0.10155 0.3772831,1.07914 0.6839577,2.20428 l 0.5510738,2.02179 1.73332,0.0339 1.7333209,0.0339 0.3282793,0.20346 c 0.7516486,0.46588 0.8870609,1.59372 0.2374231,1.97747 -0.1120998,0.0662 -0.2038182,0.14456 -0.2038182,0.1741 0,0.0295 0.092792,0.4708 0.2062045,0.9806 0.1134116,0.5098 0.1906717,0.96738 0.1716871,1.01685 -0.046627,0.1215 -1.0123264,0.12602 -1.1034256,0.005 -0.035154,-0.0466 -0.2566763,-0.5197 -0.4922801,-1.05127 L 6.5110586,293.85597 H 5.715597 4.9201355 l -0.4283709,0.96648 c -0.235603,0.53157 -0.4571295,1.00464 -0.4922793,1.05127 -0.078722,0.10443 -1.0366431,0.11715 -1.1000176,0.0146 z m 0.7636082,-0.42154 c 0.081458,-0.10367 0.6960512,-1.47644 0.6960512,-1.55471 0,-0.0308 -0.1325144,-0.0561 -0.2944769,-0.0561 h -0.294476 l -0.1535043,0.6952 c -0.084427,0.38235 -0.1688651,0.76386 -0.1876406,0.84779 -0.037997,0.16988 0.1182735,0.21516 0.2340466,0.0679 z m 4.3585215,0.026 c 0,-0.0323 -0.0763,-0.39672 -0.1695595,-0.80985 -0.093257,-0.41312 -0.1695586,-0.76821 -0.1695586,-0.78908 0,-0.0209 -0.1373424,-0.0379 -0.3052058,-0.0379 -0.1678633,0 -0.3052057,0.0253 -0.3052057,0.0561 0,0.0783 0.6145931,1.45104 0.6960504,1.55471 0.07578,0.0964 0.2534792,0.11472 0.2534792,0.026 z m 0.1418199,-2.23865 c 0.3155477,-0.25552 0.111646,-0.94682 -0.3475979,-1.17849 -0.2068054,-0.10432 -0.4593712,-0.11859 -2.1002224,-0.11859 -1.6408511,0 -1.8934161,0.0142 -2.1002215,0.11859 -0.4592439,0.23167 -0.6631456,0.92297 -0.3475978,1.17849 0.1463726,0.11852 0.3098493,0.127 2.4478193,0.127 2.1379709,0 2.3014476,-0.009 2.4478203,-0.127 z m -5.1390826,-1.32378 c 0.019904,-0.0518 0.2062937,-0.17753 0.4141968,-0.27925 0.2079039,-0.10171 0.3780073,-0.21063 0.3780073,-0.24203 0,-0.0314 -0.2304014,-0.90528 -0.5120029,-1.94196 -0.4554946,-1.67686 -0.5342094,-1.90547 -0.7132165,-2.0714 -0.2197569,-0.2037 -0.5642329,-0.24982 -0.7599879,-0.10174 -0.102343,0.0774 -0.061513,0.28649 0.4702654,2.40774 0.3202873,1.27763 0.605786,2.32295 0.6344431,2.32295 0.028657,0 0.06839,-0.0424 0.088295,-0.0943 z m 7.7554193,3.98286 c -0.02487,-0.0249 -0.04542,-0.30718 -0.04566,-0.62736 -3.33e-4,-0.46687 -0.02714,-0.62245 -0.1352,-0.78563 -0.167267,-0.25256 -0.169808,-0.52953 -0.0081,-0.88171 0.25218,-0.54916 0.611147,-0.71214 1.568554,-0.71214 0.926829,0 1.277403,0.17572 1.522919,0.76332 0.136744,0.32728 0.131985,0.5917 -0.01437,0.79849 -0.08512,0.12026 -0.128281,0.34991 -0.152603,0.81202 l -0.03391,0.64432 -0.37914,0.02 c -0.44511,0.0235 -0.448802,0.0201 -0.706897,-0.64738 -0.104571,-0.27044 -0.226265,-0.49172 -0.270433,-0.49172 -0.04417,0 -0.165863,0.22128 -0.270433,0.49172 -0.10457,0.27044 -0.21995,0.52987 -0.256402,0.5765 -0.06893,0.0882 -0.737407,0.12049 -0.818332,0.0396 z m 0.620219,-0.76866 0.14093,-0.33912 H 11.34119 c -0.194438,0 -0.199711,0.009 -0.199711,0.33912 0,0.18651 0.02645,0.33911 0.05878,0.33911 0.03233,0 0.1222,-0.1526 0.199713,-0.33911 z m 1.69962,0 c 0.01528,-0.33488 0.01294,-0.33912 -0.187591,-0.33912 h -0.203064 l 0.140931,0.33912 c 0.07752,0.18651 0.161927,0.33911 0.187591,0.33911 0.02566,0 0.05362,-0.1526 0.06213,-0.33911 z m 0.130851,-0.89527 c 0.147545,-0.14755 0.0885,-0.39983 -0.149212,-0.63754 l -0.230601,-0.23061 h -0.72571 -0.725712 l -0.230601,0.23061 c -0.23771,0.23771 -0.296756,0.48999 -0.149211,0.63754 0.05612,0.0561 0.399405,0.0814 1.105524,0.0814 0.706118,0 1.049407,-0.0253 1.105523,-0.0814 z m -7.5200642,-5.13581 -0.198253,-0.19825 v -0.9593 -0.95931 l -0.2373825,-0.22387 c -0.1991738,-0.18785 -0.2373826,-0.27043 -0.2373826,-0.51308 0,-0.24235 0.038245,-0.32525 0.2361419,-0.51189 l 0.2361411,-0.22271 0.018201,-1.61653 0.018201,-1.61654 h 2.204264 2.2042648 l 0.00752,0.44085 0.00752,0.44085 h 0.4936825 0.493681 l 0.0075,-0.44085 0.0075,-0.44085 h 2.204264 2.204264 l 0.0182,1.61654 0.0182,1.61653 0.236141,0.22271 c 0.197896,0.18664 0.236141,0.26954 0.236141,0.51189 0,0.24265 -0.0382,0.32523 -0.237382,0.51308 l -0.237382,0.22387 v 0.95931 0.9593 l -0.198254,0.19825 c -0.418302,0.41831 -1.072244,0.18103 -1.152188,-0.41805 l -0.03994,-0.29931 h -3.56073 -3.5607347 l -0.03994,0.29931 c -0.079946,0.59908 -0.7338849,0.83636 -1.1521881,0.41805 z m 0.6832229,-0.41173 c 0.042981,-0.0803 0.064604,-0.45899 0.053256,-0.93257 l -0.01911,-0.79735 H 6.1903664 5.9529838 l -0.01911,0.79735 c -0.020201,0.8428 0.033848,1.06779 0.2564945,1.06779 0.071978,0 0.1634388,-0.0608 0.2032404,-0.13522 z m 8.5457633,0 c 0.04298,-0.0803 0.06461,-0.45899 0.05326,-0.93257 l -0.01911,-0.79735 H 14.736133 14.49875 l -0.01911,0.79735 c -0.0202,0.8428 0.03385,1.06779 0.256495,1.06779 0.07199,0 0.163439,-0.0608 0.203241,-0.13522 z m -0.895296,-1.2398 c 0.01963,-0.44885 0.01456,-0.46462 -0.220426,-0.68625 -0.208209,-0.19637 -0.240518,-0.26903 -0.240518,-0.54099 0,-0.2625 -0.02101,-0.31415 -0.127793,-0.31415 -0.07028,0 -0.372635,-0.12255 -0.671887,-0.27233 -0.67249,-0.33659 -1.203487,-0.88088 -1.523014,-1.56115 l -0.220688,-0.46983 -0.577493,-0.002 -0.5774932,-0.002 -0.228206,0.48982 c -0.3073862,0.65976 -0.9020094,1.25548 -1.5752002,1.5781 -0.27323,0.13095 -0.5510524,0.23808 -0.6173852,0.23808 -0.098232,0 -0.1206044,0.0583 -0.1206044,0.31415 0,0.27117 -0.032476,0.34479 -0.2373826,0.53803 -0.2232491,0.21056 -0.2373826,0.24973 -0.2373826,0.65799 0,0.23875 0.020615,0.45472 0.045817,0.47991 0.025202,0.0252 1.6351594,0.0379 3.5776912,0.0283 l 3.531876,-0.0176 z m -7.3066609,-1.00119 c 0.1687816,-0.0903 0.1687816,-0.31184 0,-0.40217 -0.072151,-0.0386 -0.318325,-0.0702 -0.5470469,-0.0702 -0.2287226,0 -0.4748941,0.0316 -0.5470476,0.0702 -0.1634859,0.0875 -0.1703645,0.30717 -0.012498,0.39912 0.1557178,0.0907 0.938785,0.0929 1.1065905,0.003 z m 8.5457639,0 c 0.07215,-0.0386 0.131188,-0.1291 0.131188,-0.20109 0,-0.18928 -0.205013,-0.27128 -0.678235,-0.27128 -0.228723,0 -0.474894,0.0316 -0.547047,0.0702 -0.163487,0.0875 -0.170365,0.30717 -0.0125,0.39912 0.155719,0.0907 0.938786,0.0928 1.106592,0.003 z M 7.0381563,285.5118 c 0.2677076,-0.0379 0.6548873,-0.15515 0.8877726,-0.26884 0.8052266,-0.39311 1.5039749,-1.3819 1.538103,-2.17656 l 0.015771,-0.3672 -0.4489258,-0.0198 -0.4489267,-0.0198 -0.031294,0.52853 c -0.0366,0.61821 -0.198624,1.03192 -0.5613976,1.43347 -0.28351,0.31381 -0.8105671,0.59516 -1.2393537,0.66159 l -0.2882504,0.0446 v -0.24605 c 0,-0.20951 0.022665,-0.24627 0.1526033,-0.24755 0.2197577,-0.002 0.7308199,-0.24768 0.9581077,-0.46031 0.3145244,-0.29425 0.5156265,-0.79521 0.5163911,-1.28637 l 6.662e-4,-0.42562 -1.0682204,0.0187 -1.0682205,0.0187 -0.018441,1.35457 c -0.010142,0.745 -0.00347,1.39356 0.014829,1.44125 0.040022,0.10429 0.4284055,0.11028 1.0887896,0.0168 z m 7.9353517,-1.3883 v -1.4243 l -1.06822,-0.0187 -1.06822,-0.0187 6.66e-4,0.42561 c 7.68e-4,0.49117 0.201866,0.99212 0.516391,1.28637 0.227288,0.21264 0.738349,0.45818 0.958107,0.46032 0.129938,0.002 0.152604,0.038 0.152604,0.24755 v 0.24604 l -0.288251,-0.0446 c -0.688848,-0.10672 -1.344863,-0.61042 -1.627669,-1.24974 -0.07547,-0.17062 -0.155966,-0.54061 -0.178873,-0.82219 l -0.04167,-0.51196 -0.467538,-0.0202 -0.467537,-0.0203 0.04575,0.39331 c 0.100826,0.86675 0.768596,1.8038 1.56149,2.19114 0.468456,0.22885 0.972826,0.33034 1.566009,0.31514 l 0.40694,-0.0104 z m -12.6196092,1.73693 c -0.7116767,-0.32325 -1.1155969,-0.95218 -1.1131643,-1.7333 0.00339,-1.10012 0.7699835,-1.86878 1.8636573,-1.86878 1.0936738,0 1.860232,0.76866 1.8636573,1.86878 0.00339,1.08738 -0.7698934,1.85853 -1.8636573,1.85853 -0.3168421,0 -0.566481,-0.0417 -0.750493,-0.12523 z m 1.2969042,-0.41719 c 0.2426652,-0.0899 0.5735581,-0.41126 0.7209871,-0.70024 0.3970249,-0.77824 -0.091267,-1.81765 -0.9388032,-1.99841 -1.04028,-0.22188 -1.9267293,0.67963 -1.7024222,1.73135 0.09128,0.42798 0.5861394,0.93067 1.0087523,1.02473 0.2932114,0.0652 0.6391165,0.0435 0.911486,-0.0575 z M 3.1181558,284.4428 C 2.875527,284.19433 2.8670092,284.16902 2.8670092,283.69674 v -0.48886 h 0.2373826 0.2373818 v 0.42018 c 0,0.36295 0.024673,0.44594 0.1811289,0.60925 0.176382,0.1841 0.1778838,0.19264 0.057314,0.32587 -0.068101,0.0752 -0.1434127,0.13681 -0.1673641,0.13681 -0.023946,0 -0.1565634,-0.11573 -0.2946943,-0.25719 z"
       id="path12302"
       inkscape:connector-curvature="0" />
    <path
       style="fill:#ffffff;stroke-width:0.00388415;stroke-miterlimit:4;stroke-dasharray:none"
       d="m 2.7177833,285.47664 c -0.3411424,-0.0917 -0.7309324,-0.44896 -0.9001191,-0.82489 -0.2831289,-0.6291 0.044403,-1.47586 0.688794,-1.78071 0.703659,-0.33288 1.5084426,-0.0494 1.8338199,0.64588 0.194349,0.41532 0.1980545,0.83052 0.010828,1.21319 -0.1075661,0.21986 -0.4211475,0.5516 -0.6133739,0.6489 -0.2807905,0.14213 -0.7039209,0.18263 -1.0199489,0.0976 z m 0.8623334,-0.8946 c 0.058471,-0.0666 0.1063171,-0.13592 0.1063171,-0.15405 0,-0.0181 -0.051727,-0.0908 -0.1149523,-0.16152 -0.1762588,-0.19712 -0.194292,-0.25337 -0.2169829,-0.67676 l -0.021102,-0.39385 H 3.0988439 2.8642915 v 0.46472 c 0,0.27359 0.01568,0.49547 0.03813,0.53953 0.061968,0.12162 0.4516941,0.50302 0.5139966,0.50302 0.031566,0 0.105231,-0.0545 0.1637057,-0.12109 z"
       id="path12304"
       inkscape:connector-curvature="0" />
    <path
       style="fill:#ffffff;stroke-width:0.00388415;stroke-miterlimit:4;stroke-dasharray:none"
       d="m 2.8619482,291.75202 c -0.1224906,-0.4113 -0.4304348,-1.59378 -0.6982557,-2.68124 -0.2746228,-1.11508 -0.3613421,-1.50888 -0.3613421,-1.6409 0,-0.26705 0.5580345,-0.25275 0.8132593,0.0208 0.1124098,0.1205 0.225485,0.42339 0.4350454,1.16536 0.2674431,0.9469 0.7385466,2.7171 0.7385466,2.77513 0,0.0271 -0.1413272,0.125 -0.3140615,0.21755 -0.1727343,0.0925 -0.3648037,0.21825 -0.426821,0.27935 l -0.1127595,0.1111 z"
       id="path12306"
       inkscape:connector-curvature="0" />
    <path
       style="fill:#ffffff;stroke-width:0.00388415;stroke-miterlimit:4;stroke-dasharray:none"
       d="m 3.668208,293.33754 c -0.3217808,-0.0301 -0.4062427,-0.0677 -0.4823117,-0.21481 -0.067646,-0.13082 -0.049759,-0.43935 0.034972,-0.6032 0.08742,-0.16905 0.2581113,-0.34621 0.4065313,-0.42192 0.2138635,-0.10911 0.8777356,-0.14196 2.4740885,-0.12245 1.6009329,0.0196 1.6656316,0.0287 1.9065536,0.26965 0.2574566,0.25745 0.3629364,0.68501 0.2220431,0.90004 -0.1349246,0.20593 -0.1213383,0.20467 -2.2998763,0.21186 -1.0927678,0.003 -2.1106668,-0.005 -2.2619972,-0.0192 z"
       id="path12308"
       inkscape:connector-curvature="0" />
    <path
       style="fill:#ffffff;stroke-width:0.00388415;stroke-miterlimit:4;stroke-dasharray:none"
       d="m 3.4476221,295.45097 c 5.422e-4,-0.0424 0.074887,-0.4085 0.1652142,-0.81358 l 0.1642339,-0.73651 0.2511028,-0.0102 c 0.1381061,-0.006 0.2646725,0.003 0.2812576,0.02 0.044775,0.0448 -0.5559374,1.41796 -0.6805242,1.55563 -0.080417,0.0889 -0.182501,0.0802 -0.1812843,-0.0154 z"
       id="path12310"
       inkscape:connector-curvature="0" />
    <path
       style="fill:#ffffff;stroke-width:0.00388415;stroke-miterlimit:4;stroke-dasharray:none"
       d="m 7.8218145,295.48523 c -0.087893,-0.066 -0.7097755,-1.4227 -0.7097755,-1.54834 0,-0.0436 0.049222,-0.0531 0.2733952,-0.0531 0.2553977,0 0.2745707,0.005 0.2912376,0.0771 0.080458,0.34756 0.3260245,1.4996 0.3260245,1.52947 0,0.0509 -0.1104872,0.0479 -0.1808818,-0.005 z"
       id="path12312"
       inkscape:connector-curvature="0" />
    <path
       style="fill:#ffffff;stroke-width:0.00388415;stroke-miterlimit:4;stroke-dasharray:none"
       d="m 11.468059,294.29747 c -0.354602,-0.018 -0.394146,-0.0268 -0.453893,-0.10064 -0.122745,-0.15167 -0.06071,-0.32474 0.219643,-0.61281 l 0.175024,-0.17985 h 0.721836 0.721834 l 0.156409,0.16272 c 0.08603,0.0895 0.181791,0.20082 0.212812,0.24741 0.07211,0.10829 0.07421,0.3546 0.0035,0.41327 -0.09358,0.0777 -0.941728,0.1114 -1.757179,0.0699 z"
       id="path12314"
       inkscape:connector-curvature="0" />
    <path
       style="fill:#ffffff;stroke-width:0.00388415;stroke-miterlimit:4;stroke-dasharray:none"
       d="m 11.175844,295.38246 c -0.01136,-0.0424 -0.02086,-0.17288 -0.02112,-0.28997 -5.43e-4,-0.24229 0.04885,-0.29609 0.254468,-0.27723 l 0.11501,0.0105 -0.148397,0.31688 c -0.08161,0.17427 -0.155351,0.31686 -0.163849,0.31686 -0.0085,0 -0.02475,-0.0347 -0.03611,-0.077 z"
       id="path12316"
       inkscape:connector-curvature="0" />
    <path
       style="fill:#ffffff;stroke-width:0.00388415;stroke-miterlimit:4;stroke-dasharray:none"
       d="m 12.908861,295.22967 c -0.05864,-0.12793 -0.122483,-0.27498 -0.141876,-0.3268 -0.03413,-0.0912 -0.03153,-0.0942 0.08099,-0.0942 0.21342,0 0.224671,0.0152 0.224093,0.30341 -7.45e-4,0.37131 -0.03544,0.39632 -0.163205,0.11759 z"
       id="path12318"
       inkscape:connector-curvature="0" />
    <path
       style="fill:#ffffff;stroke-width:0.00388415;stroke-miterlimit:4;stroke-dasharray:none"
       d="m 14.597837,288.74629 c -0.08645,-0.0955 -0.117945,-0.4845 -0.09507,-1.17421 l 0.01903,-0.57379 h 0.212176 0.212175 l 0.02335,0.51748 c 0.03046,0.67503 -8.07e-4,1.10231 -0.08887,1.21425 -0.07963,0.10124 -0.199646,0.10814 -0.282788,0.0163 z"
       id="path12320"
       inkscape:connector-curvature="0" />
    <path
       style="fill:#ffffff;stroke-width:0.00388415;stroke-miterlimit:4;stroke-dasharray:none"
       d="m 13.723457,285.47204 c -0.889326,-0.19087 -1.61209,-0.77357 -2.018747,-1.62751 -0.15755,-0.33084 -0.227651,-0.57785 -0.261511,-0.92148 l -0.02375,-0.24102 h 0.187667 c 0.103216,0 0.303559,0.01 0.445207,0.0217 l 0.257542,0.0217 0.03986,0.39786 c 0.02192,0.21883 0.06426,0.49807 0.09408,0.62053 0.135976,0.55834 0.561923,1.06834 1.131672,1.355 0.199739,0.1005 0.332045,0.13908 0.824537,0.24048 0.07414,0.0153 0.07708,0.007 0.07708,-0.22531 0,-0.26736 -0.0116,-0.28075 -0.281229,-0.32447 -0.06989,-0.0113 -0.254875,-0.0844 -0.411073,-0.16249 -0.620982,-0.31024 -0.917733,-0.83077 -0.917733,-1.60978 v -0.33536 h 0.371307 c 0.204219,0 0.674385,0.0102 1.04481,0.0226 l 0.673502,0.0226 v 1.39907 1.39908 l -0.505277,-0.002 c -0.292122,-0.002 -0.599209,-0.0229 -0.727941,-0.0505 z"
       id="path12322"
       inkscape:connector-curvature="0" />
    <path
       style="fill:#ffffff;stroke-width:0.00388415;stroke-miterlimit:4;stroke-dasharray:none"
       d="m 14.343149,286.48804 c -0.148091,-0.0263 -0.277132,-0.13161 -0.277132,-0.22626 0,-0.024 0.02753,-0.0778 0.06119,-0.11936 0.150737,-0.18615 1.056512,-0.18495 1.225361,0.002 0.07412,0.0819 0.04235,0.21826 -0.06763,0.29033 -0.09507,0.0623 -0.699037,0.0967 -0.941788,0.0536 z"
       id="path12324"
       inkscape:connector-curvature="0" />
    <path
       style="fill:#ffffff;stroke-width:0.00388415;stroke-miterlimit:4;stroke-dasharray:none"
       d="m 6.9869728,287.89947 c -0.065365,-0.0127 -0.076383,-0.0449 -0.097579,-0.28436 -0.040237,-0.45459 0.018193,-0.64254 0.2769933,-0.89087 0.1541423,-0.14791 0.1854444,-0.22673 0.1854444,-0.46694 0,-0.2079 0.043337,-0.32094 0.1230395,-0.32094 0.0988,0 0.6483277,-0.24549 0.9031393,-0.40344 0.5888289,-0.36502 1.0072545,-0.83928 1.3289882,-1.50635 l 0.1858759,-0.38538 h 0.5721916 0.572194 l 0.133947,0.29742 c 0.431227,0.95747 1.211091,1.66185 2.175433,1.96486 l 0.188409,0.0592 0.02174,0.23857 c 0.03035,0.33317 0.04618,0.36866 0.273362,0.61286 l 0.201616,0.21672 v 0.33915 c 0,0.18652 -0.0096,0.38731 -0.02141,0.44618 l -0.02141,0.10705 -3.464144,-0.005 c -1.9052793,-0.002 -3.4973002,-0.0112 -3.5378251,-0.0191 z"
       id="path12326"
       inkscape:connector-curvature="0" />
    <path
       style="fill:#ffffff;stroke-width:0.00388415;stroke-miterlimit:4;stroke-dasharray:none"
       d="m 6.0021703,285.51491 c -0.057099,-0.0417 -0.060273,-0.1319 -0.049371,-1.40167 0.00645,-0.74638 0.019524,-1.3649 0.029128,-1.37449 0.00961,-0.01 0.4836276,-0.0286 1.0533736,-0.0422 l 1.0359033,-0.0248 v 0.30797 c 0,0.55614 -0.1753471,1.03697 -0.4945648,1.35619 -0.1653092,0.1653 -0.6354258,0.42141 -0.8322851,0.4534 -0.2708354,0.0441 -0.2831852,0.0579 -0.2831852,0.31899 v 0.23534 l 0.1969726,-0.0301 c 0.5007252,-0.0764 0.9211419,-0.28768 1.2799414,-0.64318 0.4204697,-0.41661 0.5883041,-0.83905 0.6334652,-1.59444 l 0.023549,-0.39392 h 0.1782128 c 0.098017,0 0.2939454,0.01 0.4353975,0.0217 l 0.2571855,0.0217 -0.015011,0.24375 c -0.032517,0.52801 -0.2261346,1.00224 -0.6045998,1.48086 -0.3891139,0.49209 -0.8870229,0.81833 -1.4796177,0.96947 -0.518641,0.13227 -1.2446074,0.18299 -1.3644992,0.0953 z"
       id="path12328"
       inkscape:connector-curvature="0" />
    <path
       style="fill:#ffffff;stroke-width:0.00388415;stroke-miterlimit:4;stroke-dasharray:none"
       d="m 5.8616928,286.49738 c -0.1824035,-0.0279 -0.2914318,-0.0877 -0.3124341,-0.17134 -0.027508,-0.10961 -2.711e-4,-0.16847 0.1120792,-0.2421 0.077954,-0.0511 0.1667657,-0.062 0.5071178,-0.062 0.2733623,0 0.4503344,0.016 0.5243824,0.0472 0.182558,0.077 0.1937407,0.29805 0.019102,0.37761 -0.094778,0.0432 -0.6734545,0.0776 -0.8502514,0.0506 z"
       id="path12330"
       inkscape:connector-curvature="0" />
    <path
       style="fill:#ffffff;stroke-width:0.00388415;stroke-miterlimit:4;stroke-dasharray:none"
       d="m 6.0560897,288.76969 c -0.075292,-0.0907 -0.1070949,-0.36636 -0.1075429,-0.93213 -2.712e-4,-0.32029 0.00909,-0.64016 0.020772,-0.71081 l 0.021234,-0.12846 h 0.2208579 0.2208578 l -0.011241,0.84234 c -0.011175,0.83769 -0.011688,0.84271 -0.092112,0.90779 -0.093237,0.0755 -0.2196849,0.0853 -0.2728282,0.0212 z"
       id="path12332"
       inkscape:connector-curvature="0" />
  </g>
</svg>
