<?xml version="1.0" encoding="UTF-8" standalone="no"?>
<!-- Created with Inkscape (http://www.inkscape.org/) -->

<svg
   xmlns:dc="http://purl.org/dc/elements/1.1/"
   xmlns:cc="http://creativecommons.org/ns#"
   xmlns:rdf="http://www.w3.org/1999/02/22-rdf-syntax-ns#"
   xmlns:svg="http://www.w3.org/2000/svg"
   xmlns="http://www.w3.org/2000/svg"
   xmlns:sodipodi="http://sodipodi.sourceforge.net/DTD/sodipodi-0.dtd"
   xmlns:inkscape="http://www.inkscape.org/namespaces/inkscape"
   width="64"
   height="64"
   viewBox="0 0 16.933333 16.933334"
   version="1.1"
   id="svg8"
   inkscape:version="0.92.5 (2060ec1f9f, 2020-04-08)"
   sodipodi:docname="socks_64x64.svg">
  <defs
     id="defs2" />
  <sodipodi:namedview
     id="base"
     pagecolor="#ffffff"
     bordercolor="#666666"
     borderopacity="1.0"
     inkscape:pageopacity="0.0"
     inkscape:pageshadow="2"
     inkscape:zoom="3.959798"
     inkscape:cx="59.771341"
     inkscape:cy="15.127219"
     inkscape:document-units="mm"
     inkscape:current-layer="layer1"
     showgrid="false"
     units="px"
     inkscape:window-width="1208"
     inkscape:window-height="987"
     inkscape:window-x="1992"
     inkscape:window-y="0"
     inkscape:window-maximized="1" />
  <metadata
     id="metadata5">
    <rdf:RDF>
      <cc:Work
         rdf:about="">
        <dc:format>image/svg+xml</dc:format>
        <dc:type
           rdf:resource="http://purl.org/dc/dcmitype/StillImage" />
        <dc:title></dc:title>
      </cc:Work>
    </rdf:RDF>
  </metadata>
  <g
     inkscape:label="Layer 1"
     inkscape:groupmode="layer"
     id="layer1"
     transform="translate(0,-280.06665)">
    <path
       style="fill:#000000;stroke-width:0.02942044"
       d="m 4.1553435,296.12825 c -0.4398701,-0.0942 -0.8040079,-0.29531 -1.1356466,-0.62695 -0.2558154,-0.25581 -0.4094069,-0.49393 -0.5271686,-0.81728 -0.1602774,-0.44009 -0.1879976,-0.94703 -0.075219,-1.37571 0.055563,-0.21119 0.2126055,-0.55212 0.3388668,-0.73562 0.050272,-0.0731 0.7206601,-0.79078 1.489743,-1.59487 1.2381697,-1.29455 1.3966023,-1.47068 1.3832031,-1.53767 -0.00832,-0.0416 -0.3999934,-1.51687 -0.8703814,-3.27836 -0.4703879,-1.76147 -0.8552505,-3.23645 -0.8552505,-3.27769 0,-0.11947 0.1135302,-0.32166 0.215385,-0.38372 0.051441,-0.0314 0.6164783,-0.20971 1.2556366,-0.3964 0.6391597,-0.18669 1.5273148,-0.44618 1.9736798,-0.57667 0.4463664,-0.13048 0.8440457,-0.23725 0.883735,-0.23725 0.1014402,0 0.3208306,0.11804 0.3860649,0.20774 0.030148,0.0415 0.092665,0.2047 0.1389407,0.36278 0.046266,0.15808 0.088584,0.29161 0.094017,0.29672 0.00547,0.005 0.6850827,-0.18775 1.5103257,-0.4286 0.825244,-0.24084 1.529964,-0.43807 1.566044,-0.43828 0.114544,-6.6e-4 0.300756,0.0915 0.374036,0.1852 0.05328,0.0681 0.298669,0.8908 0.990615,3.32119 0.589181,2.06943 0.929072,3.21746 0.945587,3.19385 0.01651,-0.0237 0.01937,-0.0139 0.0079,0.0268 -0.02548,0.091 0.01316,0.23378 0.0492,0.18182 0.01919,-0.0277 0.02209,-0.0204 0.0096,0.0242 -0.02564,0.0917 0.01315,0.23359 0.04966,0.18181 0.01896,-0.0269 0.02206,-0.013 0.0096,0.0438 -0.01066,0.0488 -0.0069,0.0763 0.0092,0.0665 0.03601,-0.0222 0.06869,0.1105 0.04342,0.17635 -0.01183,0.0309 -0.008,0.044 0.0098,0.0332 0.03564,-0.022 0.25803,0.75172 0.306894,1.06768 0.06807,0.44013 -0.0056,1.05908 -0.178536,1.50045 -0.231257,0.59016 -0.576356,1.00468 -1.217168,1.46202 -0.813519,0.5806 -1.424565,1.07346 -2.717917,2.19227 -0.8496449,0.73497 -0.9874606,0.83781 -1.2933977,0.96518 -0.3018885,0.12572 -0.5574747,0.17504 -0.9063638,0.17504 -0.6439813,0 -1.173431,-0.21702 -1.6282031,-0.66738 -0.1026361,-0.10166 -0.1922473,-0.1848 -0.1991478,-0.1848 -0.00689,0 -0.1238133,0.0989 -0.2598117,0.22001 -0.3301763,0.29375 -0.5374842,0.43544 -0.7910468,0.54068 -0.4228814,0.17553 -0.9495145,0.22576 -1.3859669,0.13222 z m 1.1071192,-0.60856 c 0.2524496,-0.0857 0.5239289,-0.23996 0.5239289,-0.29771 0,-0.0577 -0.3736136,-0.66179 -0.5879013,-0.95056 -0.3797289,-0.51171 -1.0118697,-1.11092 -1.5823548,-1.49994 l -0.2432183,-0.16584 -0.086477,0.10127 c -0.047555,0.0556 -0.1328536,0.19393 -0.189542,0.3072 -0.292897,0.58525 -0.2506479,1.25905 0.1132702,1.80647 0.4416693,0.66436 1.2966988,0.95563 2.0522877,0.69912 z m 3.5337161,0.0513 c 0.2153253,-0.0476 0.6084838,-0.22009 0.6696522,-0.29379 0.076523,-0.0922 -0.3778602,-0.78779 -0.9679242,-1.48177 l -0.086114,-0.10127 -0.1579484,0.12987 c -0.5329843,0.43831 -1.2612141,1.0662 -1.2612141,1.08742 0,0.0393 0.2570271,0.28629 0.4010204,0.38537 0.4103101,0.2823 0.917371,0.38142 1.4025278,0.27416 z m -1.744888,-1.38007 c 0.4568141,-0.38836 1.0177403,-0.8558 1.2465023,-1.03875 0.228763,-0.18297 0.4262967,-0.34293 0.4389639,-0.35548 0.012608,-0.013 -0.030494,-0.11441 -0.095915,-0.22634 -0.5003631,-0.85608 -0.5579305,-1.77594 -0.1621684,-2.59127 0.2808505,-0.57859 0.7490262,-1.06672 1.405177,-1.46509 0.1250354,-0.0759 0.2271134,-0.15358 0.2268334,-0.17258 -7.74e-4,-0.0528 -1.0192219,-3.55015 -1.0397885,-3.57071 -0.018561,-0.0186 -3.8115948,1.04278 -3.8507369,1.07749 -0.01209,0.0104 0.1906626,0.81319 0.4505236,1.78333 0.2598625,0.97012 0.4727423,1.81865 0.473066,1.88561 3.224e-4,0.0669 -0.021867,0.16519 -0.04931,0.21825 -0.027443,0.0531 -0.5206672,0.58743 -1.0960534,1.18746 -0.5753848,0.60003 -1.097118,1.1447 -1.1594069,1.21038 l -0.1132572,0.11947 0.2126445,0.14529 c 0.8056641,0.55049 1.6071916,1.40763 2.0768684,2.22099 0.092574,0.16031 0.1766849,0.28847 0.1869017,0.28478 0.01027,-0.004 0.3923325,-0.32445 0.849147,-0.71279 z m 3.6833512,0.0104 c 0.458075,-0.39038 1.034763,-0.86834 1.281526,-1.06214 0.246764,-0.19379 0.448662,-0.35888 0.448662,-0.36686 0,-0.008 -0.02483,-0.0497 -0.05517,-0.0926 -0.10378,-0.14689 -0.290826,-0.54865 -0.365099,-0.78419 -0.401572,-1.27352 0.189164,-2.57129 1.534391,-3.37088 0.119237,-0.0708 0.22241,-0.14348 0.229271,-0.16137 0.01235,-0.0324 -1.002653,-3.56548 -1.033099,-3.59592 -0.01862,-0.0186 -2.8728933,0.78249 -2.9086652,0.81636 -0.013246,0.013 0.2221342,0.87287 0.5230722,1.91182 0.300936,1.03893 0.566416,1.97072 0.589953,2.07065 0.173495,0.73643 0.0088,1.61813 -0.42452,2.27322 -0.22407,0.33872 -0.44691,0.56805 -0.8115204,0.83513 -0.1618129,0.11857 -0.4421246,0.32718 -0.6229133,0.46364 l -0.3287099,0.24813 0.2223286,0.25948 c 0.2846985,0.33229 0.5586197,0.71495 0.7320085,1.02262 0.075229,0.13349 0.1410274,0.24272 0.1462065,0.24272 0.0052,0 0.384206,-0.31941 0.842282,-0.7098 z m -1.2979717,-1.91363 c 0.3137508,-0.22974 0.5275136,-0.44839 0.7066617,-0.72282 0.347617,-0.53249 0.490085,-1.25369 0.364641,-1.84591 -0.07217,-0.34076 -0.227611,-0.83903 -0.261768,-0.83915 -0.07867,-3.4e-4 -0.5561929,0.35938 -0.7988402,0.60171 -0.3060109,0.30562 -0.4777734,0.55497 -0.5988878,0.86943 -0.1576193,0.40925 -0.18029,0.7975 -0.07387,1.26509 0.043823,0.19254 0.3460767,0.85318 0.390347,0.85318 0.013082,0 0.135356,-0.0817 0.2717163,-0.18153 z m 3.7069737,0 c 0.598819,-0.43847 0.933098,-0.94977 1.073292,-1.64165 0.07964,-0.39305 0.04984,-0.77038 -0.104287,-1.3204 -0.07055,-0.25177 -0.139988,-0.44571 -0.159567,-0.44571 -0.07376,0 -0.498649,0.30803 -0.739929,0.53641 -0.385806,0.36521 -0.586571,0.67406 -0.722746,1.11187 -0.08785,0.28244 -0.09428,0.79351 -0.0137,1.08774 0.08332,0.30424 0.341345,0.85327 0.401001,0.85327 0.0099,0 0.129585,-0.0817 0.265938,-0.18153 z m -6.1123279,-7.46993 c 1.0382647,-0.29246 1.8918845,-0.53586 1.8969323,-0.5409 0.00511,-0.005 -0.023046,-0.11986 -0.062429,-0.25527 -0.058518,-0.2011 -0.081656,-0.24506 -0.1265569,-0.24033 -0.093042,0.0104 -3.7603731,1.04395 -3.7860834,1.06765 -0.038324,0.0354 0.099854,0.50056 0.1486592,0.50056 0.022945,0 0.8912141,-0.23926 1.9294793,-0.53171 z m 4.1826309,-0.13119 c 0.776416,-0.22005 1.416049,-0.40449 1.421407,-0.40984 0.02566,-0.0256 -0.149397,-0.51919 -0.180332,-0.50841 -0.01888,0.006 -0.669804,0.18859 -1.446504,0.40446 -0.776699,0.21587 -1.4231488,0.40185 -1.4365545,0.41326 -0.019564,0.0167 0.037933,0.26531 0.1141021,0.49333 0.00711,0.0214 0.035955,0.0318 0.064581,0.023 0.028389,-0.009 0.6868804,-0.19579 1.4632964,-0.41584 z m -4.4764821,-0.87002 c 1.0222177,-0.29294 1.8693831,-0.54271 1.8825892,-0.55504 0.02136,-0.0199 -0.365749,-1.42627 -0.4027845,-1.46331 -0.012608,-0.013 -3.782258,1.0682 -3.8050096,1.09095 -0.00429,0.004 0.065404,0.28494 0.1549526,0.62361 0.089545,0.33867 0.1759374,0.66542 0.1919822,0.7261 0.017719,0.0671 0.04693,0.11037 0.074425,0.11037 0.024895,0 0.8816201,-0.23968 1.9038391,-0.53263 z m 4.2122121,-0.14729 c 0.744338,-0.21206 1.36401,-0.39547 1.377049,-0.40757 0.01924,-0.0178 -0.37134,-1.43235 -0.404734,-1.46574 -0.01433,-0.0143 -2.8802487,0.81932 -2.9088788,0.84614 -0.018898,0.0177 0.1440403,0.62597 0.3798175,1.41784 0.011961,0.0404 0.031379,0.0443 0.1090059,0.022 0.051927,-0.0149 0.7033994,-0.20061 1.4477354,-0.41267 z"
       id="path15334"
       inkscape:connector-curvature="0" />
    <path
       style="fill:#ffffff;stroke-width:0.00224649;stroke-miterlimit:4;stroke-dasharray:none"
       d="m 6.0069169,294.57741 c -0.4866993,-0.79226 -1.1270016,-1.49468 -1.866235,-2.04723 -0.1596716,-0.11934 -0.3126637,-0.22953 -0.3399847,-0.24481 -0.057538,-0.0323 -0.058618,-0.0309 1.0017841,-1.13785 0.6335943,-0.66135 1.187707,-1.25688 1.2741956,-1.36941 0.021632,-0.0281 0.050336,-0.1 0.063778,-0.1596 0.028652,-0.12702 -0.011571,-0.30011 -0.5203565,-2.24106 -0.4181716,-1.59518 -0.4010075,-1.50605 -0.2976356,-1.54535 0.1735804,-0.066 3.4191291,-0.97417 3.6555498,-1.0229 l 0.089159,-0.0183 0.112607,0.37946 c 0.2560775,0.86293 0.9127074,3.13742 0.9127074,3.16151 0,0.0143 -0.1237094,0.1079 -0.2749025,0.20795 -0.5260121,0.34817 -0.8217324,0.62069 -1.1063863,1.0196 -0.6086324,0.85293 -0.6604911,1.94358 -0.1385997,2.91494 0.061481,0.1144 0.1205118,0.23124 0.1311926,0.25962 0.015133,0.0402 -0.083707,0.13595 -0.4475598,0.43367 -0.2568369,0.21015 -0.8189099,0.67841 -1.2490482,1.0406 -0.4301382,0.36218 -0.7912261,0.65842 -0.8024166,0.65835 -0.01118,-9e-5 -0.1002181,-0.13018 -0.1978492,-0.28911 z"
       id="path15336"
       inkscape:connector-curvature="0" />
    <path
       style="fill:#ffffff;stroke-width:0.00224649;stroke-miterlimit:4;stroke-dasharray:none"
       d="m 4.4607115,295.57828 c -0.7035011,-0.0963 -1.3054479,-0.63262 -1.4853594,-1.32335 -0.057851,-0.22209 -0.057916,-0.63328 -1.468e-4,-0.86054 0.051663,-0.20325 0.2182046,-0.55209 0.3252114,-0.6812 l 0.072944,-0.088 0.246848,0.1694 c 0.5547809,0.38074 1.1932684,0.99021 1.5743219,1.5028 0.2094661,0.28176 0.5589709,0.85223 0.5589709,0.91237 0,0.1183 -0.5816561,0.35442 -0.936153,0.38006 -0.098073,0.006 -0.2585558,9.1e-4 -0.3566289,-0.0117 z"
       id="path15338"
       inkscape:connector-curvature="0" />
    <path
       style="fill:#ffffff;stroke-width:0.00224649;stroke-miterlimit:4;stroke-dasharray:none"
       d="m 9.0528817,292.2525 c -0.4029549,-0.79824 -0.4300106,-1.43706 -0.089441,-2.11174 0.1724654,-0.34164 0.5558119,-0.74991 1.0024308,-1.06761 0.2283435,-0.16242 0.2624845,-0.17819 0.2936025,-0.13563 0.04086,0.0559 0.203604,0.63089 0.252398,0.89175 0.04879,0.26087 0.01483,0.72181 -0.07617,1.03388 -0.177456,0.60862 -0.493251,1.04259 -1.0453999,1.43661 -0.100153,0.0715 -0.1969147,0.13 -0.2150354,0.13 -0.018123,0 -0.073205,-0.0797 -0.1223962,-0.1772 z"
       id="path15340"
       inkscape:connector-curvature="0" />
    <path
       style="fill:#ffffff;stroke-width:0.00224649;stroke-miterlimit:4;stroke-dasharray:none"
       d="m 5.0749824,285.27673 c -0.038389,-0.0717 -0.132305,-0.39719 -0.1186002,-0.41089 0.033137,-0.0332 3.6870938,-1.05468 3.7724919,-1.05468 0.040103,0 0.068838,0.0494 0.1142196,0.1963 0.033348,0.10803 0.060633,0.21162 0.060633,0.23033 -6.3e-6,0.0355 -0.2824696,0.11947 -2.356582,0.70024 -1.5308781,0.42867 -1.4357522,0.40679 -1.4721513,0.3387 z"
       id="path15342"
       inkscape:connector-curvature="0" />
    <path
       style="fill:#ffffff;stroke-width:0.00224649;stroke-miterlimit:4;stroke-dasharray:none"
       d="m 4.8064061,284.30504 c -0.014612,-0.0183 -0.1067831,-0.34082 -0.2048341,-0.71678 l -0.1782631,-0.68353 0.1672974,-0.054 c 0.2527111,-0.0815 3.5669963,-1.03075 3.5991107,-1.03075 0.01537,0 0.054735,0.0902 0.087481,0.2006 0.1242942,0.41887 0.2959756,1.06595 0.3050382,1.14973 0.011177,0.10387 0.1550813,0.0531 -1.5210969,0.53696 -1.9149543,0.55282 -2.224953,0.635 -2.2547285,0.59777 z"
       id="path15344"
       inkscape:connector-curvature="0" />
    <path
       style="fill:#ffffff;stroke-width:0.00224649;stroke-miterlimit:4;stroke-dasharray:none"
       d="m 9.4089455,284.06901 c 0,-0.005 -0.034086,-0.12233 -0.075767,-0.26005 -0.1804395,-0.59638 -0.3092318,-1.13931 -0.2752494,-1.16032 0.063049,-0.039 2.7637929,-0.82791 2.8358769,-0.82843 0.04755,-3.3e-4 0.443926,1.41356 0.402911,1.43723 -0.0483,0.0278 -2.8080634,0.82119 -2.8566831,0.82119 -0.017093,0 -0.031096,-0.004 -0.031096,-0.009 z"
       id="path15346"
       inkscape:connector-curvature="0" />
    <path
       style="fill:#ffffff;stroke-width:0.00224649;stroke-miterlimit:4;stroke-dasharray:none"
       d="m 9.6919074,285.05193 c -0.046047,-0.13837 -0.1046511,-0.36824 -0.1046511,-0.41051 0,-0.0411 0.2022059,-0.10751 1.0773197,-0.35425 0.592523,-0.16704 1.237066,-0.34907 1.432315,-0.40452 0.248603,-0.0706 0.361156,-0.0909 0.37554,-0.0675 0.03704,0.0599 0.159081,0.43894 0.145035,0.45041 -0.017,0.014 -2.858428,0.82359 -2.8902061,0.82359 -0.012608,0 -0.028562,-0.0168 -0.035363,-0.0372 z"
       id="path15348"
       inkscape:connector-curvature="0" />
    <path
       style="fill:#ffffff;stroke-width:0.00224649;stroke-miterlimit:4;stroke-dasharray:none"
       d="m 12.744546,292.23003 c -0.219915,-0.42588 -0.279906,-0.6354 -0.295985,-1.03367 -0.02157,-0.53433 0.08908,-0.91308 0.389891,-1.33463 0.172363,-0.24155 0.580808,-0.62617 0.871214,-0.82041 l 0.23122,-0.15464 0.0507,0.11622 c 0.14797,0.33933 0.278385,1.06396 0.247672,1.37614 -0.08289,0.84263 -0.522995,1.53189 -1.297373,2.03189 l -0.07794,0.0503 z"
       id="path15350"
       inkscape:connector-curvature="0" />
    <path
       style="fill:#ffffff;stroke-width:0.00224649;stroke-miterlimit:4;stroke-dasharray:none"
       d="m 8.1383742,295.5767 c -0.375963,-0.0626 -0.7074498,-0.23341 -0.9719308,-0.50068 L 7.002851,294.9107 7.2592139,294.68808 c 0.1410009,-0.12246 0.4569469,-0.39161 0.7021048,-0.59817 l 0.445742,-0.37556 0.1537749,0.18237 c 0.3536288,0.41944 0.7191526,0.93866 0.8353587,1.18661 l 0.072558,0.15484 -0.072931,0.0641 c -0.099217,0.0872 -0.5003895,0.23835 -0.7327443,0.27606 -0.2170957,0.0352 -0.3051276,0.035 -0.5246993,-9.1e-4 z"
       id="path15352"
       inkscape:connector-curvature="0" />
    <path
       style="fill:#ffffff;stroke-width:0.00224649;stroke-miterlimit:4;stroke-dasharray:none"
       d="M 9.7420723,294.63575 C 9.5631725,294.3357 9.2661495,293.92371 9.000909,293.60772 l -0.1851445,-0.22058 0.5863519,-0.43995 c 0.6872646,-0.51566 0.8146656,-0.63 1.0499736,-0.94227 0.436295,-0.579 0.664364,-1.37935 0.592248,-2.07834 -0.03076,-0.29813 -0.05602,-0.39536 -0.550263,-2.1182 -0.507947,-1.77061 -0.6189303,-2.18715 -0.5900367,-2.21452 0.0551,-0.0521 2.7926207,-0.81259 2.8483837,-0.79119 0.01978,0.008 0.04989,0.0651 0.0669,0.12779 0.017,0.0626 0.239596,0.83996 0.494631,1.72723 0.255037,0.88727 0.463703,1.63739 0.463703,1.66694 0,0.0356 -0.111983,0.12688 -0.333488,0.2716 -1.349465,0.88161 -1.85156,2.21263 -1.328201,3.52102 0.06547,0.16366 0.165222,0.37542 0.221679,0.47058 0.05646,0.0952 0.102649,0.17711 0.102649,0.18208 0,0.005 -0.197083,0.16785 -0.437961,0.36193 -0.38509,0.31027 -1.881578,1.56048 -2.0448632,1.70834 -0.060141,0.0544 -0.062201,0.0525 -0.2153992,-0.20445 z"
       id="path15354"
       inkscape:connector-curvature="0" />
  </g>
</svg>
