<?xml version="1.0" encoding="UTF-8" standalone="no"?>
<!-- Created with Inkscape (http://www.inkscape.org/) -->

<svg
   xmlns:dc="http://purl.org/dc/elements/1.1/"
   xmlns:cc="http://creativecommons.org/ns#"
   xmlns:rdf="http://www.w3.org/1999/02/22-rdf-syntax-ns#"
   xmlns:svg="http://www.w3.org/2000/svg"
   xmlns="http://www.w3.org/2000/svg"
   xmlns:sodipodi="http://sodipodi.sourceforge.net/DTD/sodipodi-0.dtd"
   xmlns:inkscape="http://www.inkscape.org/namespaces/inkscape"
   width="64"
   height="64"
   viewBox="0 0 16.933333 16.933334"
   version="1.1"
   id="svg8"
   inkscape:version="0.92.5 (2060ec1f9f, 2020-04-08)"
   sodipodi:docname="sponge_64x64.svg">
  <defs
     id="defs2" />
  <sodipodi:namedview
     id="base"
     pagecolor="#ffffff"
     bordercolor="#666666"
     borderopacity="1.0"
     inkscape:pageopacity="0.0"
     inkscape:pageshadow="2"
     inkscape:zoom="5.6"
     inkscape:cx="20.522497"
     inkscape:cy="-1.4346101"
     inkscape:document-units="mm"
     inkscape:current-layer="layer1"
     showgrid="false"
     units="px"
     inkscape:window-width="1208"
     inkscape:window-height="987"
     inkscape:window-x="1992"
     inkscape:window-y="0"
     inkscape:window-maximized="1"
     showguides="false" />
  <metadata
     id="metadata5">
    <rdf:RDF>
      <cc:Work
         rdf:about="">
        <dc:format>image/svg+xml</dc:format>
        <dc:type
           rdf:resource="http://purl.org/dc/dcmitype/StillImage" />
        <dc:title></dc:title>
      </cc:Work>
    </rdf:RDF>
  </metadata>
  <g
     inkscape:label="Layer 1"
     inkscape:groupmode="layer"
     id="layer1"
     transform="translate(0,-280.06665)">
    <path
       style="fill:#000000;stroke-width:0.03120014"
       d="m 5.578095,296.50118 c -0.3538993,-0.0725 -0.6219356,-0.22809 -0.8750624,-0.5078 l -0.171506,-0.18952 -0.2879193,0.008 c -0.5557474,0.0147 -0.9995969,-0.16227 -1.3972003,-0.55706 -0.399026,-0.39621 -0.573503,-0.81534 -0.5714774,-1.37282 0.00171,-0.47353 0.1381155,-0.84827 0.4593242,-1.26201 0.016144,-0.0208 -0.016324,-0.10741 -0.082727,-0.22072 -0.1281136,-0.21871 -0.3138482,-0.65674 -0.3656398,-0.86242 l -0.036357,-0.14438 -0.1135837,0.0313 c -0.062471,0.0172 -0.2349508,0.0255 -0.3832883,0.0185 -0.2260614,-0.0108 -0.303292,-0.0295 -0.4772724,-0.11509 -0.2651782,-0.13055 -0.48511855,-0.35109 -0.61671115,-0.61838 -0.098579,-0.20024 -0.1038104,-0.2282 -0.1038104,-0.55473 0,-0.32232 0.00625,-0.3571 0.1001087,-0.5552 0.2951385,-0.62308 1.03325465,-0.92076 1.64711885,-0.66426 0.065315,0.0273 0.1215428,0.0459 0.1249413,0.0414 0.00343,-0.004 0.044066,-0.0922 0.090368,-0.19478 0.2278644,-0.50498 0.7664387,-1.15007 1.2354779,-1.47983 0.3401033,-0.2391 0.5921484,-0.35728 1.2037833,-0.56441 0.7442286,-0.25204 0.9312615,-0.35464 1.2776187,-0.701 0.3418052,-0.34181 0.4487999,-0.53389 0.6852701,-1.23019 0.212471,-0.62564 0.3134113,-0.84823 0.5370439,-1.18434 0.689942,-1.03691 1.9284732,-1.68928 3.2071147,-1.68928 0.801694,0 1.596454,0.25239 2.262011,0.71834 0.328898,0.23027 2.180491,2.0899 2.394792,2.40519 0.476545,0.70112 0.702999,1.41995 0.706589,2.24289 0.0025,0.58421 -0.07734,1.00435 -0.21804,1.1466 -0.11115,0.11238 -0.213099,0.12857 -0.353284,0.0561 -0.151698,-0.0785 -0.175271,-0.19226 -0.108589,-0.52422 0.06831,-0.34002 0.07689,-0.97117 0.01708,-1.25566 -0.05847,-0.27814 -0.187384,-0.66185 -0.293505,-0.87361 -0.119565,-0.23859 -0.368387,-0.60022 -0.494841,-0.71918 l -0.09783,-0.092 0.0188,0.1092 c 0.05191,0.30153 0.05595,0.93024 0.008,1.24272 -0.05477,0.35701 -0.212646,0.86213 -0.364108,1.16505 -0.360159,0.72028 -1.006697,1.373 -1.707576,1.72388 -0.09071,0.0454 -0.410401,0.16569 -0.710427,0.26729 -0.746056,0.25265 -0.93225,0.35486 -1.277458,0.70129 -0.346344,0.34757 -0.444371,0.52634 -0.7019874,1.2802 -0.2293578,0.67117 -0.3946597,0.99713 -0.6956524,1.37177 -0.4039112,0.50274 -0.9444614,0.90582 -1.5530215,1.15807 l -0.2758568,0.11434 0.061203,0.11996 c 0.095765,0.18772 0.1545041,0.45724 0.1545041,0.70894 v 0.23076 l 0.288601,-0.0224 c 0.3452841,-0.0268 0.7676781,-0.12878 1.0914004,-0.26354 l 0.2365926,-0.0985 0.036057,-0.2089 c 0.1072283,-0.62118 0.5737439,-1.12117 1.197186,-1.28312 l 0.192173,-0.0499 0.187201,-0.54642 c 0.10296,-0.30052 0.235489,-0.64037 0.294508,-0.75519 0.221823,-0.43157 0.590602,-0.83683 1.006252,-1.1058 0.259677,-0.16804 0.396303,-0.22805 0.94565,-0.41529 0.240241,-0.0819 0.54646,-0.19342 0.680489,-0.24783 0.216209,-0.0878 0.255848,-0.0949 0.351544,-0.0633 0.178561,0.0589 0.259769,0.30612 0.1514,0.46083 -0.07195,0.10272 -0.277377,0.19635 -0.892037,0.4066 -0.302351,0.10343 -0.617965,0.22266 -0.701364,0.26498 -0.387711,0.1967 -0.769797,0.57047 -0.97309,0.95189 -0.08238,0.15456 -0.425158,1.09929 -0.403413,1.11185 0.0045,0.003 0.104395,0.0511 0.222136,0.10792 0.61196,0.29522 0.98016,1.0013 0.867824,1.66419 -0.07555,0.44582 -0.325373,0.83406 -0.695938,1.08152 -0.261014,0.1743 -0.528794,0.25185 -0.869562,0.25185 -0.601824,0 -1.1119932,-0.30279 -1.3921862,-0.82627 -0.046081,-0.0861 -0.086284,-0.16002 -0.089348,-0.16429 -0.00306,-0.004 -0.09331,0.0279 -0.2005488,0.0716 -0.4516708,0.18353 -1.2272797,0.32324 -1.5971351,0.28771 l -0.1599102,-0.0153 -0.222645,0.22464 c -0.3903345,0.39384 -0.8976982,0.55671 -1.4082496,0.45207 z m 0.6175077,-0.65423 c 0.3585097,-0.13413 0.5836531,-0.43972 0.607427,-0.82447 0.033505,-0.54219 -0.338959,-0.95258 -0.9132165,-1.00621 -0.2794703,-0.0261 -0.3684543,-0.0996 -0.4170385,-0.34451 -0.04899,-0.24695 -0.154421,-0.46058 -0.3266661,-0.66191 -0.1859384,-0.21734 -0.1919028,-0.31952 -0.032186,-0.55142 0.1303046,-0.18919 0.1724558,-0.3667 0.1311739,-0.55239 -0.1381019,-0.62123 -0.9825515,-0.69033 -1.2285739,-0.10054 -0.040948,0.0982 -0.047149,0.17607 -0.030208,0.37945 0.013961,0.16759 0.00937,0.27825 -0.013292,0.32059 -0.019031,0.0355 -0.1505489,0.12 -0.292253,0.18763 -0.4320909,0.20624 -0.6993119,0.5497 -0.7761143,0.99759 -0.095924,0.55938 0.1917221,1.10874 0.7163599,1.36814 0.2257669,0.11162 0.2525334,0.11742 0.5357567,0.11605 0.1639646,-8.3e-4 0.3793116,-0.0134 0.4785476,-0.0279 0.1662875,-0.0243 0.1866784,-0.0206 0.2601259,0.0482 0.043835,0.041 0.097773,0.11781 0.1198675,0.17055 0.022097,0.0528 0.08503,0.14696 0.1398585,0.20939 0.267274,0.30441 0.6711117,0.40987 1.0404309,0.27169 z m 4.8439413,-0.0765 c 0.22029,-0.0979 0.371539,-0.24112 0.473126,-0.448 0.07344,-0.14955 0.08698,-0.21629 0.08658,-0.42686 -7.54e-4,-0.40622 -0.167114,-0.67957 -0.521268,-0.85655 -0.162466,-0.0812 -0.225215,-0.0951 -0.42987,-0.0951 -0.401235,0 -0.6995256,0.19017 -0.8793944,0.56065 -0.096961,0.19971 -0.096961,0.58221 0,0.78191 0.1019948,0.21009 0.2296508,0.34952 0.4096924,0.44752 0.278422,0.15154 0.573972,0.16402 0.861128,0.0364 z m -3.7740777,-2.29058 c 0.4629008,-0.17993 0.9685404,-0.5591 1.3063141,-0.97956 0.245123,-0.30513 0.4014788,-0.62472 0.6093369,-1.24547 l 0.1639067,-0.48949 -0.1102304,-0.13452 c -0.2437968,-0.29752 -0.3534166,-0.6371 -0.3250409,-1.00691 0.0219,-0.28537 0.112662,-0.51993 0.2867704,-0.74109 0.5323515,-0.67621 1.5494889,-0.70059 2.1179269,-0.0508 l 0.133988,0.15316 0.278443,-0.0982 c 0.538375,-0.18989 0.88404,-0.40129 1.242783,-0.76003 0.584417,-0.58441 0.908163,-1.32814 0.944726,-2.17026 0.04068,-0.93701 -0.280596,-1.77579 -0.930506,-2.42934 -0.222761,-0.22401 -0.58016,-0.50349 -0.643867,-0.50349 -0.01748,0 -0.07685,0.0702 -0.131941,0.15609 -0.228754,0.35648 -0.711606,0.65617 -1.162155,0.72134 -0.533658,0.0772 -1.0754616,-0.10775 -1.4558247,-0.49688 -0.1130715,-0.11568 -0.2381593,-0.27671 -0.2779728,-0.35784 -0.039818,-0.0811 -0.089999,-0.1475 -0.1115215,-0.1475 -0.084106,0 -0.6288199,0.39253 -0.8457608,0.60948 -0.4132597,0.41326 -0.5610525,0.67714 -0.8590816,1.5339 -0.2761008,0.79373 -0.3933613,0.99681 -0.8255413,1.42977 -0.2597559,0.26023 -0.4047875,0.37791 -0.5958578,0.48353 l -0.2525376,0.13961 0.041565,0.15607 c 0.1947001,0.73104 -0.268277,1.52347 -1.0016525,1.71445 -0.4743731,0.12352 -0.9958027,-0.009 -1.3269883,-0.33668 l -0.1296426,-0.12836 -0.05955,0.0773 c -0.03276,0.0425 -0.1382003,0.2311 -0.234323,0.41906 -0.1928278,0.37706 -0.1937973,0.38741 -0.064432,0.68786 0.064185,0.14907 0.080757,0.23848 0.081348,0.43893 9.447e-4,0.30719 -0.058103,0.51757 -0.2065656,0.73648 l -0.1127117,0.1662 0.037942,0.1872 c 0.074351,0.36684 0.3659173,1.00155 0.4476547,0.9745 0.021258,-0.007 0.045796,-0.1049 0.057221,-0.22821 0.056767,-0.61289 0.4755929,-1.06458 1.0869699,-1.17228 0.5210158,-0.0918 1.0845726,0.21321 1.3189659,0.7138 0.08289,0.17703 0.1009035,0.25704 0.1108103,0.4922 0.010184,0.24169 7.545e-4,0.3111 -0.067755,0.49848 l -0.079583,0.21771 0.097104,0.15132 c 0.05341,0.0833 0.1279261,0.23644 0.165598,0.34048 l 0.068493,0.18916 0.2322675,0.067 c 0.1277461,0.0368 0.2807943,0.0956 0.3401058,0.13063 0.1252573,0.0739 0.2058128,0.0602 0.6408045,-0.10885 z m 0.1499468,-1.59334 c -0.3068927,-0.12949 -0.2231554,-0.59588 0.1066307,-0.5939 0.1950367,8.6e-4 0.3397419,0.17036 0.3048398,0.3564 -0.03437,0.18321 -0.24797,0.3065 -0.4114705,0.2375 z m -0.8754573,-2.23129 c -0.1217218,-0.0529 -0.1662574,-0.1314 -0.1662574,-0.29289 0,-0.15844 0.13412,-0.28563 0.3011954,-0.28563 0.153365,0 0.2916073,0.14035 0.2916073,0.29606 0,0.15376 -0.047235,0.2312 -0.1731101,0.28379 -0.1268821,0.053 -0.1285368,0.053 -0.2534352,-0.002 z m 1.6901514,-1.68297 c -0.2083077,-0.0659 -0.3129266,-0.13366 -0.4617463,-0.29918 -0.5605266,-0.62345 -0.152488,-1.60475 0.6855886,-1.64879 0.4309047,-0.0226 0.7656928,0.1695 0.950936,0.54578 0.20287,0.41208 0.1205418,0.85612 -0.2173319,1.17215 -0.25747,0.24084 -0.6358575,0.33176 -0.9574464,0.23004 z M 8.6815724,287.352 c 0.099596,-0.0505 0.2193381,-0.22869 0.2193381,-0.32658 0,-0.32679 -0.3913108,-0.50253 -0.6375508,-0.28633 -0.1331959,0.11695 -0.1664425,0.25422 -0.1000565,0.4131 0.083112,0.19892 0.3310941,0.29453 0.5182692,0.19981 z m 2.5281476,-0.29525 c -0.09087,-0.032 -0.207413,-0.11642 -0.33037,-0.23933 -0.241684,-0.24161 -0.307489,-0.41664 -0.28736,-0.76435 0.02241,-0.38718 0.219169,-0.67415 0.584173,-0.85204 0.214454,-0.10452 0.580907,-0.0998 0.816259,0.0106 0.212545,0.0997 0.374948,0.25703 0.48827,0.4731 0.0735,0.14015 0.08538,0.19959 0.0855,0.42796 9.3e-5,0.20471 -0.01501,0.2981 -0.06625,0.40942 -0.09832,0.21361 -0.282207,0.39958 -0.494612,0.50023 -0.156454,0.0742 -0.225636,0.0883 -0.421203,0.0863 -0.1287,-0.002 -0.297181,-0.0247 -0.374401,-0.0519 z m 0.584354,-0.62045 c 0.184188,-0.11488 0.211019,-0.41061 0.05229,-0.57629 -0.155114,-0.16189 -0.392217,-0.15836 -0.547791,0.009 -0.07221,0.0773 -0.08885,0.12327 -0.08885,0.24542 0,0.31422 0.317152,0.48936 0.584353,0.32269 z m -2.4786973,-1.15706 c -0.1075582,-0.0202 -0.2272654,-0.18358 -0.2272654,-0.31013 0,-0.2505 0.3385498,-0.39269 0.5149521,-0.21629 0.2254057,0.22541 0.028429,0.58585 -0.2876867,0.52642 z m -7.1130109,5.44638 c 0.4316688,-0.29583 0.4163182,-0.90826 -0.029309,-1.16941 -0.2980325,-0.17467 -0.7139558,-0.0818 -0.899746,0.20084 -0.2369857,0.36055 -0.1157016,0.80101 0.2799679,1.01672 0.1492616,0.0814 0.4978122,0.0555 0.6490892,-0.0481 z m 8.1203972,-1.20922 c 0.106355,-0.0805 0.258177,-0.18077 0.33738,-0.22279 0.07921,-0.0421 0.139868,-0.0905 0.134809,-0.10764 -0.0051,-0.0172 -0.08579,-0.0709 -0.179415,-0.11924 -0.347178,-0.17947 -0.7736005,-0.0612 -0.9793299,0.27152 -0.1263448,0.20436 -0.1467628,0.47609 -0.05188,0.69058 l 0.06613,0.14949 0.2394714,-0.25777 c 0.1317075,-0.14178 0.3264885,-0.32364 0.4328455,-0.40415 z m -5.5090717,-1.191 c 0.1885463,-0.0853 0.305005,-0.19999 0.393643,-0.38749 0.07853,-0.16611 0.09847,-0.41611 0.044511,-0.55804 l -0.029848,-0.0786 -0.2587522,0.0876 c -0.3228299,0.10925 -0.6086603,0.25165 -0.853195,0.42504 -0.2819874,0.19996 -0.2909914,0.21632 -0.1825176,0.33182 0.2165846,0.23061 0.6012587,0.30856 0.8861607,0.1796 z m 6.4447127,-5.12676 c 0.171644,-0.0786 0.481719,-0.36086 0.481719,-0.43854 0,-0.0259 -0.107377,-0.0687 -0.288601,-0.11492 -0.242317,-0.0618 -0.366162,-0.0736 -0.772203,-0.0736 -0.296321,0 -0.55863,0.0166 -0.67734,0.043 l -0.1937355,0.0429 0.048075,0.093 c 0.1145848,0.22158 0.4227535,0.45486 0.6899155,0.52225 0.190755,0.0481 0.520101,0.0139 0.71217,-0.0741 z m 3.298656,11.01386 c -0.32456,-0.10592 -0.606698,-0.35667 -0.752401,-0.66869 -0.07121,-0.15252 -0.08268,-0.21817 -0.08268,-0.47347 0,-0.2588 0.01104,-0.32014 0.08702,-0.48359 0.109745,-0.23609 0.326327,-0.46033 0.567537,-0.58762 0.175777,-0.0928 0.207191,-0.0988 0.514802,-0.0988 0.290375,0 0.347936,0.01 0.506559,0.0839 0.228645,0.10717 0.472416,0.35094 0.579575,0.57958 0.07434,0.15863 0.08388,0.21619 0.08388,0.50656 0,0.29586 -0.0085,0.34488 -0.0876,0.50598 -0.198625,0.4045 -0.582008,0.65275 -1.034189,0.66968 -0.153798,0.006 -0.301937,-0.007 -0.382494,-0.0335 z m 0.542847,-0.61374 c 0.208964,-0.079 0.360233,-0.30216 0.360233,-0.53155 0,-0.32003 -0.238866,-0.55695 -0.562552,-0.55796 -0.610605,-0.002 -0.787378,0.78823 -0.240182,1.07355 0.108181,0.0564 0.315654,0.0639 0.442501,0.0159 z m -0.308838,-3.82164 c -0.122259,-0.0664 -0.17327,-0.25156 -0.105425,-0.38275 0.04751,-0.0919 0.188645,-0.1928 0.26963,-0.1928 0.08138,0 0.24182,0.10188 0.274942,0.17458 0.13405,0.2942 -0.152984,0.55629 -0.439147,0.40097 z M 2.8324824,285.4468 c -0.3640921,-0.12067 -0.6189602,-0.34092 -0.7745622,-0.66939 -0.090715,-0.19148 -0.099042,-0.23528 -0.099042,-0.52106 0,-0.28577 0.00831,-0.32957 0.099042,-0.52107 0.1260058,-0.26597 0.330718,-0.47068 0.5966988,-0.59669 0.1919584,-0.0909 0.2345911,-0.099 0.5210647,-0.0984 0.2873086,5.9e-4 0.3284021,0.009 0.5192249,0.10139 0.2647226,0.12868 0.5233077,0.40009 0.6226268,0.65349 0.099606,0.25414 0.099606,0.66843 0,0.92256 -0.098183,0.2505 -0.356843,0.52331 -0.6181415,0.65195 -0.1735392,0.0855 -0.2437527,0.10168 -0.4729523,0.10946 -0.1644478,0.006 -0.31771,-0.007 -0.3939592,-0.0322 z m 0.6930426,-0.69447 c 0.2289212,-0.18212 0.3139912,-0.47452 0.2102724,-0.72275 -0.1914249,-0.45815 -0.7956898,-0.51754 -1.0777294,-0.10593 -0.062197,0.0908 -0.07519,0.14825 -0.07519,0.33269 0,0.18936 0.012556,0.24194 0.083249,0.34877 0.1204327,0.18199 0.3026745,0.26593 0.5473917,0.25216 0.1591745,-0.009 0.2149728,-0.0277 0.3120016,-0.10494 z m 2.2933405,-2.10837 c -0.3250405,-0.0501 -0.6301038,-0.27894 -0.7768277,-0.58276 -0.071498,-0.14805 -0.085253,-0.21826 -0.086486,-0.44126 -0.0012,-0.22364 0.011503,-0.29284 0.081262,-0.44165 0.103008,-0.21972 0.3017026,-0.41696 0.5256803,-0.52185 0.1425845,-0.0668 0.2164432,-0.0802 0.4368015,-0.0799 0.2295995,3.6e-4 0.289454,0.0126 0.4458647,0.0908 0.20062,0.10032 0.3859836,0.28337 0.495451,0.48928 0.061461,0.1156 0.072184,0.18191 0.072415,0.4477 2.476e-4,0.26833 -0.01044,0.33384 -0.076251,0.468 -0.2038214,0.41551 -0.6501067,0.64371 -1.1179134,0.57162 z m 0.402404,-0.67305 c 0.1179207,-0.0686 0.1936757,-0.21539 0.1913255,-0.37082 -0.00479,-0.31996 -0.3549057,-0.5189 -0.6241838,-0.35472 -0.1994612,0.12161 -0.2710897,0.33225 -0.1834221,0.53937 0.1045059,0.24691 0.3725422,0.32788 0.6162804,0.18617 z"
       id="path8645"
       inkscape:connector-curvature="0" />
    <path
       style="fill:#ffffff;stroke-width:0.0005956;stroke-miterlimit:4;stroke-dasharray:none"
       d="m 6.6232716,293.57769 c -0.071789,-0.0374 -0.3572815,-0.13713 -0.5065208,-0.17708 -0.060133,-0.0161 -0.06576,-0.0227 -0.092203,-0.10792 -0.038721,-0.12482 -0.1387031,-0.33623 -0.2228942,-0.47132 l -0.070205,-0.11263 0.065665,-0.17891 c 0.063516,-0.17303 0.065897,-0.18639 0.072663,-0.40799 0.00875,-0.2869 -0.016059,-0.43285 -0.1048192,-0.61647 -0.1303131,-0.26959 -0.3303165,-0.47334 -0.5927129,-0.60382 -0.2044561,-0.10166 -0.3086784,-0.12577 -0.5436669,-0.12577 -0.3522677,0 -0.6264638,0.10786 -0.8796437,0.34601 -0.2398361,0.22558 -0.3508709,0.4545 -0.4039842,0.83286 -0.027304,0.19449 -0.045812,0.243 -0.081451,0.21343 -0.1060192,-0.088 -0.3419173,-0.64674 -0.4145196,-0.98184 l -0.033206,-0.15327 0.086551,-0.13008 c 0.1678462,-0.25225 0.2130098,-0.39421 0.2249636,-0.70705 0.00976,-0.25551 -0.00454,-0.34456 -0.088511,-0.55092 -0.079001,-0.19416 -0.086299,-0.23917 -0.055782,-0.34395 0.028555,-0.0981 0.2445244,-0.52121 0.3482295,-0.68227 l 0.0694,-0.1078 0.1136684,0.1078 c 0.1936611,0.18365 0.3759012,0.2867 0.628342,0.35531 0.1104634,0.0301 0.1689931,0.0355 0.3677494,0.0346 0.2093449,-8.6e-4 0.2522284,-0.006 0.3749967,-0.0432 0.2650866,-0.0806 0.4555155,-0.19982 0.644806,-0.40357 0.2077579,-0.22364 0.3408896,-0.51665 0.3754114,-0.82624 0.018362,-0.16463 0.00351,-0.33319 -0.04613,-0.5242 l -0.029283,-0.11264 0.159541,-0.0871 c 0.2414342,-0.1318 0.3683994,-0.2283 0.6113299,-0.4646 0.5106543,-0.49673 0.5939136,-0.6407 0.9586979,-1.6577 0.2376735,-0.66262 0.3868683,-0.93317 0.7014684,-1.272 0.2529162,-0.27239 0.8905986,-0.7443 0.9533651,-0.70549 0.00822,0.005 0.043614,0.0582 0.078595,0.11818 0.4651754,0.79649 1.4174081,1.11191 2.2154861,0.73386 0.293194,-0.13889 0.532672,-0.33283 0.692999,-0.56121 0.04583,-0.0653 0.0979,-0.13189 0.115713,-0.14801 0.03173,-0.0287 0.03376,-0.0284 0.09958,0.0146 0.352441,0.23062 0.754657,0.63512 0.986736,0.99237 0.740753,1.14026 0.659155,2.72657 -0.194746,3.78594 -0.04033,0.05 -0.134253,0.15384 -0.208713,0.23069 -0.390391,0.40288 -0.733572,0.61288 -1.355917,0.82969 l -0.193739,0.0675 -0.08181,-0.093 c -0.251149,-0.28541 -0.5024,-0.43793 -0.829749,-0.50367 -0.269173,-0.0541 -0.6352647,-0.006 -0.8725956,0.11366 -0.3601165,0.18213 -0.6178945,0.49635 -0.722008,0.8801 -0.046943,0.17304 -0.051089,0.53085 -0.00805,0.69337 0.055465,0.20936 0.1664749,0.4167 0.3271611,0.61112 l 0.075288,0.0911 -0.1029675,0.30286 c -0.327557,0.96351 -0.4925289,1.2692 -0.90806,1.68263 -0.3455118,0.34377 -0.7449566,0.60158 -1.1850925,0.76491 -0.306765,0.11383 -0.3949766,0.12387 -0.5194604,0.0591 z m 1.0624491,-1.72006 c 0.1915543,-0.11824 0.200346,-0.38568 0.016941,-0.51523 -0.059645,-0.0422 -0.079489,-0.0473 -0.1822958,-0.0473 -0.105149,0 -0.120634,0.004 -0.1748162,0.0481 -0.1859743,0.15051 -0.162751,0.42961 0.044477,0.53449 0.1018251,0.0515 0.1892717,0.0456 0.2956995,-0.0201 z m -0.8950644,-2.19149 c 0.1039748,-0.0445 0.1653932,-0.12372 0.1787088,-0.23029 0.019767,-0.15819 -0.059422,-0.29196 -0.2059712,-0.34793 -0.1523937,-0.0582 -0.3430813,0.0409 -0.3866551,0.20111 -0.026482,0.0973 0.00163,0.2391 0.059645,0.30074 0.093411,0.0992 0.231471,0.129 0.3542694,0.0764 z m 1.973259,-1.68223 c 0.2712428,-0.0696 0.5209419,-0.27517 0.6532646,-0.53769 0.06962,-0.13811 0.09656,-0.25592 0.096275,-0.42101 -3.875e-4,-0.22415 -0.055301,-0.40254 -0.1831237,-0.5948 -0.1781692,-0.26801 -0.4584027,-0.4096 -0.8096976,-0.40909 -0.2530771,3.6e-4 -0.4556156,0.0669 -0.6423521,0.21088 -0.261874,0.20199 -0.4110389,0.57101 -0.3648999,0.90274 0.032554,0.23404 0.1292485,0.42365 0.30525,0.59858 0.2504624,0.24893 0.5952823,0.34026 0.9452837,0.25039 z m 3.1160737,-0.90367 c 0.270664,-0.0836 0.541695,-0.33397 0.646518,-0.59722 0.03181,-0.0799 0.0354,-0.11648 0.03591,-0.36455 l 5.54e-4,-0.27577 -0.05683,-0.11819 c -0.11068,-0.2302 -0.268316,-0.3942 -0.482902,-0.50236 -0.154475,-0.0779 -0.279352,-0.1006 -0.508211,-0.0925 -0.231421,0.009 -0.315091,0.0345 -0.496631,0.15584 -0.305413,0.20427 -0.444526,0.49824 -0.42976,0.90817 0.01044,0.28979 0.06768,0.4107 0.303847,0.64186 0.226891,0.22206 0.353609,0.27146 0.703616,0.27428 0.141183,8.5e-4 0.206654,-0.006 0.283893,-0.0296 z m -2.3495705,-1.82166 c 0.06194,-0.0311 0.1381738,-0.11638 0.1580757,-0.17668 0.030003,-0.0909 0.010978,-0.21556 -0.043063,-0.28234 -0.071072,-0.0878 -0.1216483,-0.11876 -0.2075069,-0.12702 -0.096815,-0.009 -0.1782768,0.0165 -0.2494233,0.079 -0.073485,0.0645 -0.1003408,0.12146 -0.099927,0.21189 6.33e-4,0.13842 0.1085066,0.29324 0.2227722,0.31974 0.063182,0.0146 0.1635682,0.003 0.2190761,-0.0245 z"
       id="path8649"
       inkscape:connector-curvature="0" />
    <path
       style="fill:#ffffff;stroke-width:0.0005956;stroke-miterlimit:4;stroke-dasharray:none"
       d="m 7.4374176,294.96243 c -0.021001,-0.30587 -0.057803,-0.47376 -0.1443378,-0.65843 l -0.061109,-0.1304 0.1599024,-0.0662 c 0.7466868,-0.30903 1.2874803,-0.71309 1.7267706,-1.29016 0.2593033,-0.34064 0.392059,-0.61399 0.6474173,-1.33311 0.2022035,-0.56943 0.2760559,-0.73368 0.4144529,-0.9218 0.174081,-0.2366 0.460494,-0.51139 0.667532,-0.64044 0.168605,-0.10508 0.400514,-0.20362 0.848203,-0.36041 0.683293,-0.2393 0.829023,-0.30517 1.134608,-0.51287 0.302044,-0.2053 0.630389,-0.50917 0.87296,-0.80788 0.39516,-0.48662 0.669688,-1.1027 0.799497,-1.79418 0.04866,-0.25923 0.04595,-1.07296 -0.0045,-1.33969 l -0.0098,-0.0521 0.05116,0.0473 c 0.07362,0.068 0.232057,0.27412 0.353438,0.45975 0.187026,0.28603 0.3249,0.61847 0.437925,1.0559 l 0.05219,0.20202 -5.87e-4,0.457 c -5.12e-4,0.39876 -0.0051,0.48263 -0.03546,0.65825 -0.04488,0.25902 -0.04589,0.41081 -0.0032,0.48083 0.01736,0.0284 0.04229,0.0558 0.05541,0.0609 0.01888,0.007 -0.01482,0.0844 -0.161614,0.37038 l -0.185469,0.36123 -0.05709,-0.01 c -0.0352,-0.006 -0.07834,-6.3e-4 -0.112508,0.0136 -0.07502,0.0313 -0.185038,0.13307 -0.211009,0.19511 -0.04218,0.10076 -0.01574,0.24948 0.0584,0.32838 l 0.03084,0.0328 -0.342492,0.23658 -0.342492,0.23658 -0.07038,-0.0446 c -0.101459,-0.0643 -0.182839,-0.0603 -0.392221,0.0196 -0.09261,0.0352 -0.402402,0.14761 -0.688418,0.2495 -0.286015,0.1019 -0.582005,0.21433 -0.657755,0.24983 -0.52709,0.24714 -1.050404,0.75756 -1.312145,1.2798 -0.07908,0.15781 -0.196866,0.46408 -0.355712,0.92504 l -0.131293,0.38099 -0.05586,0.0105 c -0.03072,0.006 -0.12323,0.0318 -0.205567,0.0578 -0.5973979,0.18924 -1.0114329,0.65717 -1.1268245,1.2735 -0.013789,0.0737 -0.028024,0.14836 -0.03163,0.16597 -0.00488,0.0238 -0.048091,0.049 -0.168635,0.0983 -0.4108094,0.16807 -0.8261528,0.26924 -1.2100219,0.29476 -0.082341,0.005 -0.1642747,0.013 -0.1820816,0.0165 -0.031081,0.006 -0.033103,-0.004 -0.050463,-0.25693 z"
       id="path8651"
       inkscape:connector-curvature="0" />
    <path
       style="fill:#ffffff;stroke-width:0.0005956;stroke-miterlimit:4;stroke-dasharray:none"
       d="m 9.5954235,290.02914 c -0.058039,-0.14689 -0.075778,-0.29063 -0.051776,-0.41959 0.084132,-0.45188 0.5561505,-0.72952 0.9742945,-0.57307 0.09216,0.0345 0.175763,0.0786 0.237026,0.12493 l 0.03575,0.027 -0.04363,0.0338 c -0.024,0.0185 -0.142907,0.0983 -0.264247,0.17723 -0.19866,0.12925 -0.250878,0.17387 -0.5246551,0.44837 -0.1672184,0.16766 -0.3062696,0.30483 -0.3090014,0.30483 -0.00271,0 -0.026924,-0.0556 -0.05377,-0.12349 z"
       id="path8653"
       inkscape:connector-curvature="0" />
    <path
       style="fill:#ffffff;stroke-width:0.0005956;stroke-miterlimit:4;stroke-dasharray:none"
       d="m 8.384756,287.35353 c -0.035886,-0.0128 -0.094305,-0.0525 -0.1298188,-0.0884 -0.1728583,-0.17458 -0.1429426,-0.42481 0.066248,-0.55415 0.297516,-0.18394 0.6879626,0.13229 0.5330715,0.43175 -0.1034481,0.19999 -0.2783662,0.27852 -0.4695025,0.21076 z"
       id="path8655"
       inkscape:connector-curvature="0" />
    <path
       style="fill:#ffffff;stroke-width:0.0005956;stroke-miterlimit:4;stroke-dasharray:none"
       d="m 11.465753,286.47279 c -0.182043,-0.058 -0.29032,-0.27997 -0.234518,-0.48082 0.01866,-0.0672 0.127907,-0.17804 0.208431,-0.21156 0.07873,-0.0328 0.210449,-0.0303 0.288977,0.005 0.212167,0.0964 0.281523,0.40548 0.129761,0.57833 -0.09598,0.10932 -0.253664,0.15297 -0.392651,0.10871 z"
       id="path8657"
       inkscape:connector-curvature="0" />
    <path
       style="fill:#ffffff;stroke-width:0.0005956;stroke-miterlimit:4;stroke-dasharray:none"
       d="m 4.2432056,288.33259 c -0.1755107,-0.0619 -0.3710305,-0.21523 -0.3710305,-0.29092 0,-0.0884 0.5201945,-0.41991 0.894477,-0.5701 0.1261875,-0.0507 0.4271354,-0.15546 0.4463384,-0.15546 0.00599,0 0.02339,0.0461 0.038635,0.10242 0.048074,0.17762 0.010363,0.41738 -0.093535,0.59468 -0.088211,0.15051 -0.2599795,0.28259 -0.433881,0.33361 -0.1339453,0.0393 -0.3471879,0.033 -0.4810057,-0.0143 z"
       id="path8659"
       inkscape:connector-curvature="0" />
    <path
       style="fill:#ffffff;stroke-width:0.0005956;stroke-miterlimit:4;stroke-dasharray:none"
       d="m 10.506485,283.25224 c -0.168302,-0.0544 -0.313397,-0.14356 -0.463312,-0.28462 -0.089279,-0.0841 -0.2143024,-0.25412 -0.2143024,-0.29159 0,-0.0316 0.2530074,-0.0719 0.5524504,-0.088 0.33341,-0.018 0.687457,-0.008 0.881568,0.026 0.167473,0.029 0.43107,0.1088 0.455276,0.13796 0.04253,0.0513 -0.265508,0.34053 -0.463154,0.43497 -0.195032,0.0932 -0.562978,0.12529 -0.748526,0.0652 z"
       id="path8661"
       inkscape:connector-curvature="0" />
    <path
       style="fill:#ffffff;stroke-width:0.0005956;stroke-miterlimit:4;stroke-dasharray:none"
       d="m 5.7380095,295.88957 c -0.3101046,-0.0486 -0.5676713,-0.24316 -0.733259,-0.55383 -0.027468,-0.0515 -0.078264,-0.11929 -0.1128873,-0.15057 l -0.062951,-0.0569 -0.1828996,0.0138 c -0.1005952,0.008 -0.3224574,0.0138 -0.4930289,0.0138 H 3.8428556 l -0.1941416,-0.0984 c -0.3583916,-0.18166 -0.5771328,-0.42645 -0.6935813,-0.77618 -0.046189,-0.13874 -0.049907,-0.16587 -0.050651,-0.37032 -6.715e-4,-0.18366 0.00514,-0.24142 0.034824,-0.34475 0.1121747,-0.39074 0.3411379,-0.65446 0.7610249,-0.87648 0.1064877,-0.0563 0.217436,-0.12486 0.2465517,-0.15232 l 0.052939,-0.05 -0.00471,-0.30469 c -0.00471,-0.30257 -0.00445,-0.3053 0.037753,-0.39533 0.059233,-0.12641 0.1839924,-0.25319 0.3103409,-0.31539 0.097692,-0.048 0.1132684,-0.051 0.2771825,-0.051 0.1602725,0 0.1809717,0.004 0.2682256,0.0464 0.1889086,0.0926 0.3196962,0.26969 0.352887,0.47776 0.028152,0.17651 -0.00445,0.29321 -0.1485396,0.53169 -0.1430231,0.23672 -0.1349731,0.30952 0.061563,0.55685 0.1687593,0.21237 0.2410489,0.35996 0.309469,0.63181 0.040802,0.16212 0.061255,0.20324 0.1319515,0.2653 0.057521,0.0506 0.099988,0.0627 0.3700464,0.10649 0.5136827,0.0833 0.8300257,0.43884 0.8267566,0.92939 -0.00223,0.33036 -0.1506945,0.606 -0.4216068,0.78259 -0.1695986,0.11055 -0.4400467,0.17041 -0.6331161,0.14014 z"
       id="path8663"
       inkscape:connector-curvature="0" />
    <path
       style="fill:#ffffff;stroke-width:0.0005956;stroke-miterlimit:4;stroke-dasharray:none"
       d="m 10.569518,295.84715 c -0.136682,-0.0199 -0.228624,-0.0475 -0.346686,-0.10375 -0.3886299,-0.18516 -0.5919267,-0.62379 -0.4969175,-1.07214 0.051496,-0.24303 0.2632405,-0.51557 0.4828475,-0.62148 0.226607,-0.10929 0.564313,-0.13054 0.766989,-0.0483 0.301145,0.12224 0.496962,0.32387 0.577896,0.59501 0.03606,0.12081 0.04933,0.38349 0.0256,0.50693 -0.06039,0.31416 -0.322782,0.59562 -0.650777,0.69809 -0.113171,0.0353 -0.282206,0.0569 -0.358947,0.0457 z"
       id="path8665"
       inkscape:connector-curvature="0" />
    <path
       style="fill:#ffffff;stroke-width:0.0005956;stroke-miterlimit:4;stroke-dasharray:none"
       d="m 14.71866,293.59668 c -0.198951,-0.0622 -0.356968,-0.26555 -0.377544,-0.48591 -0.03153,-0.3377 0.247116,-0.6155 0.592588,-0.59078 0.276644,0.0198 0.48639,0.22178 0.515048,0.49596 0.02454,0.2348 -0.132353,0.48974 -0.35196,0.57189 -0.09871,0.0369 -0.275053,0.041 -0.378132,0.009 z"
       id="path8667"
       inkscape:connector-curvature="0" />
    <path
       style="fill:#ffffff;stroke-width:0.0005956;stroke-miterlimit:4;stroke-dasharray:none"
       d="m 1.6344033,290.79321 c -0.149128,-0.0402 -0.3319915,-0.20967 -0.4128888,-0.38254 -0.1132821,-0.24208 -0.057461,-0.54307 0.1371314,-0.73946 0.2479307,-0.2502 0.6578921,-0.25948 0.9294665,-0.0211 0.2385779,0.20947 0.2866277,0.60555 0.1054145,0.86893 -0.05645,0.0821 -0.1700037,0.18877 -0.2385796,0.22424 -0.1222554,0.0632 -0.3796663,0.0879 -0.520544,0.0499 z"
       id="path8669"
       inkscape:connector-curvature="0" />
    <path
       style="fill:#ffffff;stroke-width:0.0005956;stroke-miterlimit:4;stroke-dasharray:none"
       d="m 3.0405426,284.84054 c -0.1648879,-0.028 -0.3200806,-0.14355 -0.4001436,-0.29791 -0.03181,-0.0613 -0.037488,-0.0983 -0.041993,-0.27301 -0.00497,-0.191 -0.003,-0.20668 0.035646,-0.28562 0.051166,-0.10458 0.1716917,-0.21867 0.2891783,-0.27374 0.078907,-0.037 0.1096994,-0.0423 0.2476925,-0.0423 0.1377079,0 0.1688646,0.005 0.247016,0.0419 0.1755553,0.0823 0.3099837,0.25576 0.3449997,0.44518 0.020212,0.10936 -0.003,0.25085 -0.059285,0.36201 -0.055696,0.10991 -0.1956713,0.25208 -0.2854621,0.28995 -0.08872,0.0374 -0.2633077,0.0528 -0.3776493,0.0335 z"
       id="path8671"
       inkscape:connector-curvature="0" />
    <path
       style="fill:#ffffff;stroke-width:0.0005956;stroke-miterlimit:4;stroke-dasharray:none"
       d="m 5.8577408,282.01369 c -0.2021539,-0.0652 -0.3234278,-0.30453 -0.2618003,-0.51652 0.030114,-0.10359 0.1311001,-0.21743 0.234508,-0.26438 0.092406,-0.042 0.2480685,-0.0413 0.3362012,0.002 0.2561664,0.12401 0.316421,0.47455 0.1160177,0.67496 -0.1030568,0.10306 -0.2883922,0.14868 -0.4249266,0.1046 z"
       id="path8673"
       inkscape:connector-curvature="0" />
  </g>
</svg>
