<?xml version="1.0" encoding="UTF-8" standalone="no"?>
<!-- Created with Inkscape (http://www.inkscape.org/) -->

<svg
   xmlns:dc="http://purl.org/dc/elements/1.1/"
   xmlns:cc="http://creativecommons.org/ns#"
   xmlns:rdf="http://www.w3.org/1999/02/22-rdf-syntax-ns#"
   xmlns:svg="http://www.w3.org/2000/svg"
   xmlns="http://www.w3.org/2000/svg"
   xmlns:sodipodi="http://sodipodi.sourceforge.net/DTD/sodipodi-0.dtd"
   xmlns:inkscape="http://www.inkscape.org/namespaces/inkscape"
   width="64"
   height="64"
   viewBox="0 0 16.933333 16.933334"
   version="1.1"
   id="svg8"
   inkscape:version="0.92.5 (2060ec1f9f, 2020-04-08)"
   sodipodi:docname="spoon_64x64.svg">
  <defs
     id="defs2" />
  <sodipodi:namedview
     id="base"
     pagecolor="#ffffff"
     bordercolor="#666666"
     borderopacity="1.0"
     inkscape:pageopacity="0.0"
     inkscape:pageshadow="2"
     inkscape:zoom="7.919596"
     inkscape:cx="39.142716"
     inkscape:cy="38.378642"
     inkscape:document-units="mm"
     inkscape:current-layer="layer1"
     showgrid="false"
     units="px"
     inkscape:window-width="1208"
     inkscape:window-height="987"
     inkscape:window-x="1992"
     inkscape:window-y="0"
     inkscape:window-maximized="1" />
  <metadata
     id="metadata5">
    <rdf:RDF>
      <cc:Work
         rdf:about="">
        <dc:format>image/svg+xml</dc:format>
        <dc:type
           rdf:resource="http://purl.org/dc/dcmitype/StillImage" />
        <dc:title></dc:title>
      </cc:Work>
    </rdf:RDF>
  </metadata>
  <g
     inkscape:label="Layer 1"
     inkscape:groupmode="layer"
     id="layer1"
     transform="translate(0,-280.06665)">
    <path
       style="fill:#000000;stroke-width:0.03119393"
       d="m 7.9754682,296.42079 c -0.1973497,-0.0972 -0.397911,-0.45899 -0.5152177,-0.92932 -0.1480324,-0.59354 -0.2207227,-1.56343 -0.1734942,-2.31488 0.023168,-0.36863 0.1750351,-1.84631 0.2324324,-2.26159 0.015577,-0.11268 0.012743,-0.11661 -0.1076313,-0.14902 -0.067997,-0.0183 -0.1324481,-0.0476 -0.1432274,-0.065 -0.031601,-0.0511 0.042005,-0.11447 0.158449,-0.13631 0.1427814,-0.0267 0.1368151,-0.0697 -0.015389,-0.11067 -0.067898,-0.0182 -0.1322786,-0.0476 -0.1430579,-0.0649 -0.035168,-0.0569 0.050369,-0.11907 0.1933295,-0.14051 0.1048657,-0.0158 0.1466649,-0.0383 0.166316,-0.0901 0.098587,-0.25929 0.2380906,-2.65187 0.212273,-3.64053 -0.013903,-0.53251 -0.01746,-0.55728 -0.1053076,-0.73305 -0.088916,-0.17793 -0.096001,-0.18377 -0.3225323,-0.26628 -0.7284431,-0.26531 -1.0941253,-0.88317 -1.0941253,-1.84861 0,-1.29437 0.6572005,-2.70818 1.4253976,-3.06639 0.4057383,-0.1892 0.8436114,-0.0763 1.2343213,0.3183 0.4471492,0.45158 0.80763,1.25004 0.9440338,2.09103 0.059891,0.36925 0.059029,0.97959 -0.00178,1.2687 -0.1309329,0.62243 -0.5450148,1.09746 -1.0976876,1.25925 -0.2279128,0.0667 -0.3115172,0.21246 -0.3583394,0.62465 -0.070564,0.62123 0.097903,3.85846 0.2102644,4.04025 0.00753,0.0123 0.073596,0.0313 0.1467224,0.0424 0.07313,0.0111 0.15255,0.0323 0.1764957,0.0473 0.071624,0.0447 0.014903,0.12102 -0.1198732,0.1614 -0.069533,0.0208 -0.1264253,0.0481 -0.1264253,0.0605 0,0.0124 0.064113,0.0386 0.1424713,0.0585 0.1732266,0.0436 0.17919,0.12462 0.01312,0.17819 -0.1419055,0.0458 -0.1454669,0.0919 -0.062498,0.80835 0.1767623,1.52648 0.2033478,1.97899 0.1575482,2.68147 -0.078154,1.19874 -0.3099733,1.95247 -0.6675735,2.17053 -0.1194907,0.0728 -0.2206821,0.0747 -0.3590093,0.007 z"
       id="path12585"
       inkscape:connector-curvature="0"
       sodipodi:nodetypes="ccsccccccccscsssssccscsccsccssccc" />
  </g>
</svg>
