<?xml version="1.0" encoding="UTF-8" standalone="no"?>
<svg
   xmlns:dc="http://purl.org/dc/elements/1.1/"
   xmlns:cc="http://creativecommons.org/ns#"
   xmlns:rdf="http://www.w3.org/1999/02/22-rdf-syntax-ns#"
   xmlns:svg="http://www.w3.org/2000/svg"
   xmlns="http://www.w3.org/2000/svg"
   xmlns:sodipodi="http://sodipodi.sourceforge.net/DTD/sodipodi-0.dtd"
   xmlns:inkscape="http://www.inkscape.org/namespaces/inkscape"
   width="64"
   height="64"
   viewBox="0 0 16.933333 16.933333"
   version="1.1"
   id="svg8"
   sodipodi:docname="seren_syringe_64x64.svg"
   inkscape:version="1.0.2 (1.0.2+r75+1)">
  <defs
     id="defs2" />
  <sodipodi:namedview
     id="base"
     pagecolor="#ffffff"
     bordercolor="#666666"
     borderopacity="1.0"
     inkscape:pageopacity="0.0"
     inkscape:pageshadow="2"
     inkscape:zoom="3.8504176"
     inkscape:cx="62.667648"
     inkscape:cy="67.890954"
     inkscape:document-units="mm"
     inkscape:current-layer="layer1"
     inkscape:document-rotation="0"
     showgrid="false"
     inkscape:snap-global="false"
     fit-margin-top="0"
     fit-margin-left="0"
     fit-margin-right="0"
     fit-margin-bottom="0"
     inkscape:window-width="1366"
     inkscape:window-height="704"
     inkscape:window-x="0"
     inkscape:window-y="0"
     inkscape:window-maximized="0"
     units="px" />
  <metadata
     id="metadata5">
    <rdf:RDF>
      <cc:Work
         rdf:about="">
        <dc:format>image/svg+xml</dc:format>
        <dc:type
           rdf:resource="http://purl.org/dc/dcmitype/StillImage" />
        <dc:title />
      </cc:Work>
    </rdf:RDF>
  </metadata>
  <g
     inkscape:label="Calque 1"
     inkscape:groupmode="layer"
     id="layer1"
     transform="translate(-44.581036,-28.552681)">
    <path
       style="fill:#000000;stroke-width:0.031425"
       d="m 48.134312,45.049307 c -0.08528,-0.02405 -0.429742,-0.350018 -1.532891,-1.450573 -0.934456,-0.932261 -1.444159,-1.463416 -1.484833,-1.547324 -0.113042,-0.233213 -0.05306,-0.524692 0.146231,-0.710855 0.218399,-0.203997 0.574242,-0.203919 0.806811,1.95e-4 0.05291,0.04644 0.09693,0.0092 0.690684,-0.584577 l 0.63417,-0.634182 -0.507568,-0.511231 c -0.351586,-0.354124 -0.514039,-0.540203 -0.52862,-0.605507 -0.01158,-0.05185 -0.02754,-0.118326 -0.03545,-0.147723 -0.02294,-0.08512 0.05033,-0.31425 0.137351,-0.429204 0.151595,-0.200335 0.490707,-0.28354 0.709371,-0.174056 0.05529,0.02769 0.222936,0.170982 0.372495,0.318417 l 0.271921,0.268065 3.92332,-3.930021 3.923319,-3.930019 0.267111,-0.127999 c 0.677015,-0.324423 1.326126,-0.215165 1.917695,0.322785 l 0.264558,0.240574 1.195045,-1.189925 c 0.974785,-0.970613 1.21443,-1.193563 1.300243,-1.209671 0.306678,-0.05757 0.543137,0.200272 0.448005,0.488519 -0.02401,0.0727 -0.389845,0.459547 -1.210806,1.280288 l -1.176415,1.176106 0.206477,0.222304 c 0.416542,0.448481 0.55142,0.750047 0.556194,1.243619 0.0029,0.330285 -0.03775,0.514776 -0.177867,0.801339 -0.08135,0.166376 -0.553808,0.650539 -4.017402,4.116969 -2.158865,2.160631 -3.925203,3.942761 -3.925203,3.96029 0,0.01753 0.114674,0.144668 0.254844,0.282534 0.270613,0.266179 0.372273,0.433314 0.372273,0.61205 0,0.218803 -0.183742,0.487376 -0.385625,0.563651 -0.113718,0.04297 -0.33827,0.04286 -0.451564,-2.27e-4 -0.04868,-0.0185 -0.311459,-0.255052 -0.584005,-0.525679 l -0.495539,-0.492048 -0.634149,0.63415 c -0.602591,0.602588 -0.631552,0.63702 -0.58197,0.691811 0.148597,0.164198 0.186669,0.441823 0.08946,0.652436 -0.134979,0.292479 -0.427463,0.417826 -0.757652,0.324717 z M 56.46881,36.04344 c 2.24552,-2.247848 2.196484,-2.190339 2.195844,-2.575384 -6.48e-4,-0.3797 -0.06098,-0.468075 -0.858371,-1.257237 -0.689469,-0.682335 -0.809564,-0.762674 -1.140077,-0.762674 -0.383374,0 -0.321496,-0.05286 -2.584746,2.208283 l -2.050518,2.048617 0.714289,0.714799 0.714296,0.714799 0.14915,-0.146908 0.149151,-0.14691 -0.324602,-0.332863 c -0.330814,-0.339239 -0.363515,-0.397553 -0.339565,-0.605569 0.01338,-0.115886 0.168003,-0.264332 0.294778,-0.282939 0.184843,-0.02713 0.281304,0.02905 0.606733,0.353372 l 0.31568,0.314607 0.186998,-0.188973 0.187007,-0.188972 -0.304003,-0.306197 c -0.375853,-0.378567 -0.426895,-0.491183 -0.322417,-0.711352 0.08433,-0.177719 0.323164,-0.260821 0.496503,-0.172759 0.03775,0.01919 0.206426,0.170844 0.374832,0.337032 l 0.306195,0.30216 0.18787,-0.185911 0.187875,-0.185909 -0.324508,-0.332765 c -0.352773,-0.361759 -0.388184,-0.435239 -0.313868,-0.651402 0.04472,-0.130168 0.139401,-0.215675 0.266981,-0.241191 0.16842,-0.03368 0.2851,0.03482 0.608926,0.357555 l 0.315687,0.314608 0.186309,-0.188272 0.186301,-0.188273 -0.303449,-0.308862 c -0.376759,-0.383479 -0.425493,-0.491096 -0.321575,-0.710087 0.08824,-0.185955 0.325494,-0.261365 0.511708,-0.16264 0.04667,0.02474 0.294973,0.256245 0.55178,0.514444 0.438544,0.440927 0.467878,0.477979 0.482727,0.609727 0.01054,0.09293 -6.48e-4,0.171199 -0.03278,0.2319 -0.02675,0.0504 -0.805912,0.84797 -1.731509,1.772389 l -1.682912,1.680763 0.19513,0.196882 c 0.107324,0.108289 0.202868,0.196883 0.212315,0.196883 0.0095,0 0.931876,-0.915647 2.049842,-2.034771 z"
       id="path1343" />
    <path
       style="fill:#ffffff;stroke-width:0.259712"
       d="M 36.359309,35.093193 35.80178,34.49973 42.287415,28.017986 c 5.476427,-5.47314 6.485636,-6.598279 6.485636,-7.230653 0,-0.580564 -0.430351,-1.189127 -1.914484,-2.707282 -1.611502,-1.648446 -2.048884,-1.958373 -2.763738,-1.958373 -0.9388,0 -1.554868,0.608804 -1.554868,1.536537 0,0.314481 0.543646,1.176217 1.208701,1.915919 l 1.208701,1.344366 -0.547963,0.547964 -0.547964,0.547963 -1.298891,-1.214961 c -1.88899,-1.766929 -3.398841,-1.64409 -3.398841,0.276525 0,0.669648 0.265071,1.151558 1.159174,2.107427 l 1.159174,1.23925 -0.558917,0.558917 -0.558917,0.558917 -1.390633,-1.315204 c -1.181863,-1.117756 -1.496168,-1.289771 -2.093602,-1.145798 -1.703605,0.410543 -1.756895,1.712429 -0.143547,3.50686 l 1.208701,1.344367 -0.547964,0.547963 -0.547963,0.547963 -1.298892,-1.21496 c -0.71439,-0.668229 -1.545322,-1.214961 -1.846515,-1.214961 -1.93805,0 -2.11843,1.651586 -0.390305,3.573677 1.099606,1.223027 1.137309,1.314809 0.70195,1.708804 -0.430136,0.389267 -0.628255,0.247458 -3.044933,-2.179497 l -2.584863,-2.595855 7.921219,-7.895413 c 5.146293,-5.129527 8.171417,-7.957653 8.635427,-8.073082 0.392814,-0.09772 1.032165,-0.09787 1.420779,-3.31e-4 0.913567,0.22929 5.993292,5.193112 6.48164,6.333749 0.742432,1.734104 0.585731,1.94248 -7.792008,10.36158 -4.299732,4.32096 -7.889284,7.856291 -7.976783,7.856291 -0.0875,0 -0.409976,-0.267058 -0.716617,-0.593462 z"
       id="path8"
       transform="matrix(0.26458333,0,0,0.26458333,44.581036,28.552681)" />
  </g>
</svg>
