<?xml version="1.0" encoding="UTF-8" standalone="no"?>
<!-- Created with Inkscape (http://www.inkscape.org/) -->

<svg
   xmlns:dc="http://purl.org/dc/elements/1.1/"
   xmlns:cc="http://creativecommons.org/ns#"
   xmlns:rdf="http://www.w3.org/1999/02/22-rdf-syntax-ns#"
   xmlns:svg="http://www.w3.org/2000/svg"
   xmlns="http://www.w3.org/2000/svg"
   xmlns:sodipodi="http://sodipodi.sourceforge.net/DTD/sodipodi-0.dtd"
   xmlns:inkscape="http://www.inkscape.org/namespaces/inkscape"
   width="64"
   height="64"
   viewBox="0 0 16.933333 16.933334"
   version="1.1"
   id="svg8"
   inkscape:version="0.92.5 (2060ec1f9f, 2020-04-08)"
   sodipodi:docname="table_napkin_64x64.svg">
  <defs
     id="defs2" />
  <sodipodi:namedview
     id="base"
     pagecolor="#ffffff"
     bordercolor="#666666"
     borderopacity="1.0"
     inkscape:pageopacity="0.0"
     inkscape:pageshadow="2"
     inkscape:zoom="3.959798"
     inkscape:cx="68.856834"
     inkscape:cy="55.292061"
     inkscape:document-units="mm"
     inkscape:current-layer="layer1"
     showgrid="false"
     units="px"
     inkscape:window-width="1208"
     inkscape:window-height="987"
     inkscape:window-x="1992"
     inkscape:window-y="0"
     inkscape:window-maximized="1" />
  <metadata
     id="metadata5">
    <rdf:RDF>
      <cc:Work
         rdf:about="">
        <dc:format>image/svg+xml</dc:format>
        <dc:type
           rdf:resource="http://purl.org/dc/dcmitype/StillImage" />
        <dc:title></dc:title>
      </cc:Work>
    </rdf:RDF>
  </metadata>
  <g
     inkscape:label="Layer 1"
     inkscape:groupmode="layer"
     id="layer1"
     transform="translate(0,-280.06665)">
    <path
       style="fill:#ffffff;stroke-width:0.22907396;stroke-miterlimit:4;stroke-dasharray:none"
       d=""
       id="path12841"
       inkscape:connector-curvature="0"
       transform="matrix(0.26458333,0,0,0.26458333,0,280.06665)" />
    <path
       style="fill:#000000;stroke-width:0.0301959"
       d="m 8.6278087,296.66494 c -0.044845,-0.029 -0.4796666,-0.37327 -0.9662688,-0.7651 -0.4866028,-0.39184 -1.6320806,-1.31355 -2.5455033,-2.04827 -0.9134289,-0.73471 -1.6772801,-1.3653 -1.6974527,-1.40129 -0.020154,-0.0359 -0.037165,-0.0988 -0.03772,-0.13951 -5.916e-4,-0.0407 0.1628472,-0.42019 0.3631921,-0.8433 l 0.3642585,-0.76931 -0.2057317,-0.20246 c -0.1131521,-0.11142 -0.6065817,-0.59321 -1.0965103,-1.0708 -0.4899285,-0.47758 -0.907284,-0.897 -0.9274566,-0.93206 -0.078823,-0.13693 -0.048258,-0.22515 0.1499106,-0.43241 0.1038025,-0.1085 1.5495452,-1.52795 3.2127667,-3.15418 l 3.0240414,-2.95677 0.1454211,-0.30321 c 0.1478648,-0.30829 0.2252318,-0.38866 0.3741056,-0.38866 0.1488034,0 0.22625,0.0804 0.3738189,0.38807 l 0.1451345,0.3026 3.0092313,2.94254 c 1.655075,1.61839 3.100949,3.03788 3.213051,3.15443 0.261915,0.27234 0.268224,0.36395 0.04166,0.60537 -0.195672,0.20851 -0.388714,0.24385 -0.534677,0.0979 -0.0672,-0.0673 -0.08827,-0.11615 -0.08827,-0.20534 0,-0.0643 0.01347,-0.13048 0.02982,-0.14689 0.01963,-0.0196 -0.04494,-0.1041 -0.188893,-0.24705 l -0.218709,-0.21726 -0.825775,0.80721 -0.825775,0.80719 0.141903,0.30593 c 0.114765,0.24741 0.152346,0.30319 0.196517,0.29163 0.08133,-0.0212 0.258462,0.0741 0.297717,0.16022 0.05164,0.11327 0.04156,0.23651 -0.02644,0.32296 l -0.06083,0.0773 0.362777,0.76617 c 0.199525,0.42141 0.362704,0.79947 0.362616,0.84018 -9e-5,0.0407 -0.02386,0.11052 -0.05285,0.15519 -0.04932,0.076 -5.0935868,4.14806 -5.2265202,4.2192 -0.088376,0.0473 -0.1892036,0.04 -0.2825717,-0.0203 z m 2.5266803,-2.53843 c 1.287501,-1.03502 2.340908,-1.90158 2.340908,-1.92568 0,-0.0241 -0.05474,-0.15271 -0.121674,-0.28579 -0.110768,-0.2203 -0.126622,-0.23851 -0.176878,-0.20317 -0.03037,0.0214 -1.001988,0.79979 -2.159165,1.72983 -1.1571778,0.93004 -2.1374588,1.69997 -2.1784036,1.71099 -0.040943,0.0115 -0.1075756,0.0115 -0.1480707,0 -0.040493,-0.0115 -1.0277086,-0.78777 -2.1938082,-1.7261 -1.1661003,-0.93833 -2.1383089,-1.71682 -2.1604597,-1.72998 -0.057503,-0.0341 -0.309405,0.47375 -0.2670445,0.53843 0.041171,0.0627 4.6746695,3.78773 4.701761,3.77976 0.012058,-0.005 1.0753299,-0.85329 2.3628297,-1.88829 z m -0.26878,-1.33402 c 1.124811,-0.90515 2.058275,-1.65429 2.074365,-1.66482 0.02676,-0.0175 -4.1401316,-8.84213 -4.1752367,-8.8423 -0.0083,-4e-5 -0.2393027,0.47592 -0.5133307,1.05769 -0.2740274,0.58177 -0.5291378,1.08958 -0.5669116,1.12848 -0.1829883,0.18839 -0.4969924,0.0609 -0.4953714,-0.20117 3.267e-4,-0.0543 0.062842,-0.22949 0.1388994,-0.38918 0.076059,-0.15969 0.1382914,-0.30056 0.1382914,-0.31304 0,-0.0214 -1.9391355,1.86795 -3.3884588,3.30137 l -0.6557219,0.64852 0.7275861,0.71223 c 0.4001784,0.39173 0.7364862,0.71579 0.7473583,0.72012 0.010849,0.005 0.2755497,-0.53238 0.5881842,-1.19273 0.3126344,-0.66035 0.5921287,-1.22544 0.6210963,-1.25575 0.028967,-0.0304 0.10628,-0.0624 0.1718086,-0.0711 0.098318,-0.013 0.135649,-0.001 0.2135839,0.0635 0.202009,0.16998 0.2770103,-0.0204 -1.2676966,3.21821 -0.699617,1.4668 -0.6674321,1.39069 -0.6066618,1.43467 0.030695,0.0222 0.9662054,0.77461 2.078925,1.672 1.1156956,0.89979 2.04579,1.6288 2.0736545,1.62532 0.02779,-0.005 0.970828,-0.74689 2.0956378,-1.65201 z M 6.7425986,285.7335 c -0.2303172,-0.18655 -0.1165417,-0.53392 0.1748843,-0.53392 0.100603,0 0.1382183,0.0179 0.2130721,0.10162 0.078854,0.0883 0.088697,0.11815 0.074268,0.22575 -0.030262,0.2256 -0.2934541,0.34316 -0.4622244,0.20645 z m -2.2173471,4.09222 0.1283392,-0.27931 -0.8256323,-0.80741 -0.8256386,-0.80744 -0.2113711,0.21356 -0.211371,0.21355 0.8907787,0.87281 c 0.4899284,0.48004 0.8988339,0.87297 0.9086706,0.87318 0.00987,2.4e-4 0.075643,-0.12531 0.1462245,-0.27894 z m 8.8747245,-1.59557 0.727715,-0.71234 -0.565262,-0.56003 c -1.198765,-1.18764 -3.464567,-3.39735 -3.474543,-3.38852 -0.0176,0.0154 2.543728,5.3895 2.564742,5.38109 0.01081,-0.005 0.347104,-0.32841 0.747348,-0.7202 z m 0.710835,1.51527 c -0.177026,-0.10793 -0.194472,-0.33758 -0.03579,-0.4711 0.191278,-0.16095 0.477235,-0.0342 0.477235,0.21137 0,0.14153 -0.04068,0.21507 -0.150376,0.27178 -0.115896,0.0599 -0.177177,0.0573 -0.291069,-0.0115 z"
       id="path13179"
       inkscape:connector-curvature="0" />
    <path
       style="fill:none;stroke:#000000;stroke-width:0.00342378;stroke-linecap:butt;stroke-linejoin:miter;stroke-miterlimit:4;stroke-dasharray:none;stroke-opacity:1"
       d="m 15.388622,288.40062 -2.363941,2.21143"
       id="path13181"
       inkscape:connector-curvature="0" />
    <path
       style="fill:#ffffff;stroke-width:0.00172927;stroke-miterlimit:4;stroke-dasharray:none"
       d="m 8.4561122,294.18815 c -0.4067035,-0.31319 -0.8971786,-0.70234 -1.7612053,-1.39733 -0.3858547,-0.31037 -1.0121098,-0.8141 -1.3916778,-1.1194 -0.3795621,-0.30531 -0.6901134,-0.56222 -0.6901134,-0.57089 0,-0.0359 0.153738,-0.3673 0.8124552,-1.75083 0.9494904,-1.99426 1.0960973,-2.31439 1.1687445,-2.55204 0.056578,-0.18514 0.044622,-0.22514 -0.096296,-0.32221 -0.079631,-0.0549 -0.089029,-0.0575 -0.1735221,-0.0499 -0.1786994,0.0162 -0.1869521,0.0252 -0.3830134,0.41804 -0.095631,0.19162 -0.2932632,0.59818 -0.4391736,0.90349 -0.2774173,0.58046 -0.5635865,1.16006 -0.5825449,1.17988 -0.00888,0.009 -1.3063897,-1.24128 -1.4300138,-1.37825 l -0.032912,-0.0364 1.016603,-1.00077 c 1.9143829,-1.88457 2.9658164,-2.90474 2.9726498,-2.88424 0.00241,0.007 -0.036827,0.10376 -0.087183,0.21453 -0.1065301,0.23432 -0.1531074,0.36826 -0.1531074,0.44024 0,0.0587 0.034639,0.15008 0.073029,0.1925 0.1092554,0.12087 0.3517289,0.11153 0.443205,-0.0169 0.04276,-0.06 0.3594135,-0.69659 0.6275346,-1.26147 0.1234255,-0.26004 0.2728138,-0.56887 0.3319756,-0.68631 l 0.1075654,-0.21352 0.091173,0.19064 c 0.050145,0.10478 0.151013,0.31418 0.2241506,0.46517 0.832262,1.71814 3.7884138,7.9958 3.8385148,8.15144 0.0048,0.0149 -0.06061,0.0768 -0.19217,0.18212 -0.109686,0.0878 -0.751895,0.60309 -1.427144,1.14515 -1.8466338,1.48236 -2.5011954,1.99785 -2.5368898,1.99785 -0.010083,0 -0.1588687,-0.10827 -0.3306546,-0.24055 z m -1.4255447,-8.42008 c 0.091044,-0.0414 0.1542309,-0.12188 0.1753217,-0.22355 0.021819,-0.105 0.014238,-0.13865 -0.049862,-0.22269 -0.071298,-0.0935 -0.1369364,-0.12747 -0.2411892,-0.12518 -0.2533248,0.006 -0.3811521,0.2496 -0.2441537,0.46563 0.077048,0.12143 0.2277284,0.16578 0.3598639,0.10579 z"
       id="path13183"
       inkscape:connector-curvature="0" />
    <path
       style="fill:#ffffff;stroke-width:0.00172927;stroke-miterlimit:4;stroke-dasharray:none"
       d="m 3.8045373,289.54318 c -0.3144157,-0.30551 -0.7157834,-0.69645 -0.8919372,-0.86874 l -0.3202771,-0.31329 0.2066994,-0.20785 0.206693,-0.20783 0.4719872,0.46099 c 0.2595868,0.25356 0.6280178,0.61519 0.8187232,0.80363 l 0.3467361,0.34261 -0.1157531,0.24871 c -0.06366,0.13678 -0.123728,0.25964 -0.1334853,0.27297 -0.0151,0.0206 -0.1018603,-0.0575 -0.5893862,-0.5312 z"
       id="path13185"
       inkscape:connector-curvature="0" />
    <path
       style="fill:#ffffff;stroke-width:0.00172927;stroke-miterlimit:4;stroke-dasharray:none"
       d="m 8.6294654,295.8824 c -0.8083356,-0.6308 -4.2379951,-3.39102 -4.4737421,-3.60052 l -0.068481,-0.0608 0.019476,-0.0743 c 0.025208,-0.0963 0.142798,-0.33461 0.1973127,-0.39992 l 0.042527,-0.0509 1.7394556,1.39309 c 1.5358521,1.23004 2.1470298,1.71481 2.5124451,1.99278 0.095622,0.0727 0.1104304,0.079 0.1867407,0.079 0.08111,0 0.086973,-0.003 0.2741537,-0.14494 0.3376431,-0.25585 0.8716981,-0.67877 2.0889639,-1.65429 1.901057,-1.5235 2.05761,-1.64733 2.082768,-1.64744 0.02708,-1.2e-4 0.107017,0.13679 0.198444,0.33979 0.05053,0.11222 0.05781,0.13979 0.04192,0.15898 -0.04021,0.0484 -0.859916,0.72598 -1.758842,1.45379 -0.814981,0.65983 -2.9097895,2.33293 -2.920966,2.33293 -0.00658,0 -0.079542,-0.0527 -0.1621316,-0.11714 z"
       id="path13187"
       inkscape:connector-curvature="0" />
    <path
       style="fill:#ffffff;stroke-width:0.00172927;stroke-miterlimit:4;stroke-dasharray:none"
       d="m 12.473531,288.57783 c -0.865903,-1.78202 -2.364088,-4.94272 -2.349702,-4.9571 0.01003,-0.0101 1.00258,0.95431 2.882531,2.80062 l 1.110781,1.09092 -0.523609,0.51578 c -0.287985,0.28367 -0.618,0.60534 -0.733367,0.7148 l -0.209758,0.19899 z"
       id="path13189"
       inkscape:connector-curvature="0" />
    <path
       style="fill:#ffffff;stroke-width:0.00172927;stroke-miterlimit:4;stroke-dasharray:none"
       d="m 13.393349,290.16473 c -0.02343,-0.013 -0.07055,-0.0243 -0.104696,-0.0258 -0.08233,-0.003 -0.104967,-0.0346 -0.247796,-0.34155 l -0.113952,-0.24498 0.323153,-0.32001 c 0.177736,-0.17599 0.545784,-0.53713 0.817886,-0.80247 l 0.49473,-0.48247 0.106915,0.10263 c 0.05882,0.0565 0.150644,0.15007 0.204076,0.20798 0.08557,0.0927 0.09566,0.10995 0.08469,0.14489 -0.0069,0.0217 -0.01247,0.0853 -0.01247,0.14123 -3.2e-5,0.081 0.0068,0.11097 0.0336,0.14715 l 0.03362,0.0454 -0.224266,0.21029 c -0.123353,0.11572 -0.248568,0.23303 -0.278269,0.26083 l -0.054,0.0505 -0.06037,-0.0316 c -0.08781,-0.0457 -0.213798,-0.0353 -0.300666,0.0251 -0.115811,0.0804 -0.168072,0.25219 -0.110408,0.36276 0.01247,0.0241 0.02278,0.0486 0.02278,0.0548 0,0.0157 -0.533187,0.51093 -0.554423,0.51506 -0.0096,0.001 -0.03666,-0.007 -0.06011,-0.0199 z"
       id="path13191"
       inkscape:connector-curvature="0" />
  </g>
</svg>
