<?xml version="1.0" encoding="UTF-8" standalone="no"?>
<!-- Created with Inkscape (http://www.inkscape.org/) -->

<svg
   xmlns:dc="http://purl.org/dc/elements/1.1/"
   xmlns:cc="http://creativecommons.org/ns#"
   xmlns:rdf="http://www.w3.org/1999/02/22-rdf-syntax-ns#"
   xmlns:svg="http://www.w3.org/2000/svg"
   xmlns="http://www.w3.org/2000/svg"
   xmlns:sodipodi="http://sodipodi.sourceforge.net/DTD/sodipodi-0.dtd"
   xmlns:inkscape="http://www.inkscape.org/namespaces/inkscape"
   width="64"
   height="64"
   viewBox="0 0 16.933333 16.933334"
   version="1.1"
   id="svg8"
   inkscape:version="0.92.5 (2060ec1f9f, 2020-04-08)"
   sodipodi:docname="tea_spoon_64x64.svg">
  <defs
     id="defs2" />
  <sodipodi:namedview
     id="base"
     pagecolor="#ffffff"
     bordercolor="#666666"
     borderopacity="1.0"
     inkscape:pageopacity="0.0"
     inkscape:pageshadow="2"
     inkscape:zoom="3.959798"
     inkscape:cx="124.83732"
     inkscape:cy="-23.676322"
     inkscape:document-units="mm"
     inkscape:current-layer="layer1"
     showgrid="false"
     units="px"
     inkscape:window-width="1208"
     inkscape:window-height="987"
     inkscape:window-x="1992"
     inkscape:window-y="0"
     inkscape:window-maximized="1" />
  <metadata
     id="metadata5">
    <rdf:RDF>
      <cc:Work
         rdf:about="">
        <dc:format>image/svg+xml</dc:format>
        <dc:type
           rdf:resource="http://purl.org/dc/dcmitype/StillImage" />
        <dc:title></dc:title>
      </cc:Work>
    </rdf:RDF>
  </metadata>
  <g
     inkscape:label="Layer 1"
     inkscape:groupmode="layer"
     id="layer1"
     transform="translate(0,-280.06665)">
    <path
       style="fill:#ffffff;stroke-width:0.22907396;stroke-miterlimit:4;stroke-dasharray:none"
       d=""
       id="path12841"
       inkscape:connector-curvature="0"
       transform="matrix(0.26458333,0,0,0.26458333,0,280.06665)" />
    <path
       style="fill:#000000;stroke-width:0.0217799"
       d="m 3.8073064,294.24554 c -0.4864275,-0.10987 -0.8676517,-0.49873 -0.971638,-0.99114 -0.067304,-0.3187 0.00468,-0.67517 0.1923274,-0.95214 0.071416,-0.10542 0.7524715,-0.74764 2.9093075,-2.74338 1.8956918,-1.75411 2.8121301,-2.61599 2.8040281,-2.6371 -0.075939,-0.19789 -0.066291,-0.78564 0.0185,-1.12699 0.1744847,-0.70244 0.596057,-1.36689 1.1785151,-1.85748 0.3688155,-0.31066 0.7986675,-0.54928 1.2196745,-0.67709 0.325556,-0.0988 0.469248,-0.11996 0.816746,-0.12008 0.389653,-1.6e-4 0.607952,0.0479 0.925645,0.20327 0.38559,0.18869 0.649413,0.45263 0.839297,0.83967 0.235453,0.47993 0.27441,1.00129 0.120231,1.60908 -0.233362,0.91994 -0.935838,1.78311 -1.830241,2.24891 -0.422983,0.22028 -0.800364,0.32824 -1.221444,0.34943 -0.2318,0.0116 -0.554862,-0.0131 -0.650889,-0.05 -0.01553,-0.006 -1.143618,1.19596 -2.6338948,2.80629 -1.9823659,2.14206 -2.6394355,2.8389 -2.7433026,2.90933 -0.2756007,0.1869 -0.6560596,0.26097 -0.9728622,0.18942 z m 0.4553289,-0.65495 c 0.090761,-0.027 0.1483872,-0.0669 0.2755847,-0.19058 0.088455,-0.0861 1.2394471,-1.32281 2.5577596,-2.74831 l 2.3969328,-2.5918 -0.060425,-0.0516 c -0.135285,-0.11561 -0.2177598,-0.19629 -0.3108899,-0.30413 l -0.09801,-0.11349 -2.5918075,2.39672 c -1.4254935,1.3182 -2.6622295,2.46917 -2.7483016,2.55771 -0.1648197,0.16957 -0.2248029,0.29467 -0.2245319,0.46824 4.938e-4,0.31774 0.2849739,0.60697 0.6003178,0.61037 0.048734,5e-4 0.1402517,-0.0144 0.2033679,-0.0331 z m 6.7599377,-5.87895 c 1.142335,-0.1992 2.193227,-1.34311 2.273555,-2.47477 0.06335,-0.89247 -0.557035,-1.51286 -1.449507,-1.44951 -1.282529,0.091 -2.507222,1.37959 -2.507222,2.63797 0,0.38614 0.1224561,0.70094 0.3696762,0.95033 0.3114868,0.31422 0.7682738,0.43106 1.3134978,0.33598 z m 0.48961,6.52149 c -0.04976,-0.0263 -0.09847,-0.0764 -0.125234,-0.12884 -0.04127,-0.0809 -0.04381,-0.12752 -0.04381,-0.80633 0,-0.67909 0.0025,-0.7254 0.04385,-0.80643 0.02823,-0.0553 0.07448,-0.10158 0.129811,-0.12981 0.08097,-0.0413 0.127352,-0.0439 0.798686,-0.0439 0.675146,0 0.717616,0.002 0.805415,0.0449 0.0673,0.0325 0.104979,0.0702 0.137555,0.13756 0.04247,0.0877 0.04487,0.13034 0.04487,0.79766 0,0.66734 -0.0024,0.70994 -0.04487,0.79768 -0.03258,0.0673 -0.07026,0.10497 -0.137555,0.13755 -0.08797,0.0426 -0.129149,0.0449 -0.809991,0.044 -0.67109,-7e-4 -0.722553,-0.004 -0.79874,-0.044 z m 1.13776,-0.93517 v -0.3267 h -0.326699 -0.326699 v 0.3267 0.3267 h 0.326699 0.326699 z m -3.7550109,-0.37843 c -0.162012,-0.0981 -0.1634277,-0.10603 -0.1644571,-0.9254 -9.06e-4,-0.70067 6.983e-4,-0.72959 0.045214,-0.80873 0.025373,-0.0451 0.08306,-0.10283 0.1281996,-0.1282 0.078959,-0.0443 0.1091735,-0.0461 0.7964117,-0.0461 0.6767727,0 0.7192137,0.002 0.8070277,0.0449 0.0673,0.0325 0.104979,0.0702 0.137555,0.13755 0.04247,0.0877 0.04487,0.13035 0.04487,0.79767 0,0.66732 -0.0024,0.70993 -0.04487,0.79767 -0.03257,0.0672 -0.07026,0.10497 -0.137555,0.13755 -0.08785,0.0426 -0.130101,0.0448 -0.809993,0.0448 -0.7156124,-9e-5 -0.717505,-2.6e-4 -0.8024032,-0.0516 z m 1.1414229,-0.92836 v -0.3267 H 9.709657 9.3829588 v 0.3267 0.3267 h 0.3266982 0.326698 z m 2.129225,-0.37162 c -0.04976,-0.0263 -0.09847,-0.0764 -0.125234,-0.12885 -0.04127,-0.0809 -0.04381,-0.12752 -0.04381,-0.80633 0,-0.67909 0.0025,-0.7254 0.04385,-0.80642 0.02823,-0.0553 0.07448,-0.10159 0.129811,-0.12981 0.08097,-0.0414 0.127353,-0.0439 0.798687,-0.0439 0.675146,0 0.717615,0.002 0.805415,0.0449 0.06729,0.0325 0.10498,0.0702 0.137555,0.13755 0.04247,0.0878 0.04487,0.13034 0.04487,0.79767 0,0.66732 -0.0024,0.70993 -0.04487,0.79767 -0.03257,0.0673 -0.07026,0.10498 -0.137555,0.13755 -0.08798,0.0426 -0.129149,0.0449 -0.809992,0.044 -0.671088,-7e-4 -0.722552,-0.004 -0.79874,-0.044 z m 1.137759,-0.93518 v -0.3267 h -0.326698 -0.326698 v 0.3267 0.32671 h 0.326698 0.326698 z"
       id="path12910"
       inkscape:connector-curvature="0" />
    <path
       style="fill:#ffffff;stroke-width:0.00176394;stroke-miterlimit:4;stroke-dasharray:none"
       d="M 3.8748804,293.57685 C 3.7428187,293.52105 3.6653115,293.46216 3.590746,293.36104 3.505828,293.24589 3.4703983,293.1382 3.471302,292.998 c 8.381e-4,-0.12587 0.032579,-0.21267 0.1228193,-0.33561 0.077347,-0.10537 0.677137,-0.66595 4.0549448,-3.78994 l 1.3654071,-1.26279 0.2252372,0.22523 c 0.1238808,0.12389 0.2243041,0.23047 0.223163,0.23684 -0.00286,0.0162 -3.5299288,3.82897 -4.4791572,4.84208 -0.5104938,0.54484 -0.5647858,0.59679 -0.6777704,0.64851 -0.1305539,0.0598 -0.309754,0.0658 -0.4310654,0.0146 z"
       id="path12912"
       inkscape:connector-curvature="0" />
    <path
       style="fill:#ffffff;stroke-width:0.00176394;stroke-miterlimit:4;stroke-dasharray:none"
       d="m 10.408767,287.71805 c -0.7035085,-0.12789 -1.1192036,-0.70081 -1.0527743,-1.45097 0.054454,-0.61491 0.3659658,-1.21853 0.8812503,-1.70761 0.385481,-0.36587 0.848406,-0.62106 1.312483,-0.72352 0.180507,-0.0399 0.55738,-0.0482 0.717412,-0.0159 0.951546,0.19203 1.297662,1.19016 0.783937,2.26069 -0.144966,0.30209 -0.311102,0.53801 -0.559679,0.79478 -0.409018,0.42247 -0.87456,0.69453 -1.391435,0.81313 -0.151079,0.0346 -0.565355,0.0523 -0.691194,0.0294 z"
       id="path12914"
       inkscape:connector-curvature="0" />
    <path
       style="fill:#ffffff;stroke-width:0.00176394;stroke-miterlimit:4;stroke-dasharray:none"
       d="m 12.654279,290.68136 v -0.31892 h 0.318919 0.31892 v 0.31892 0.31892 h -0.31892 -0.318919 z"
       id="path12916"
       inkscape:connector-curvature="0" />
    <path
       style="fill:#ffffff;stroke-width:0.00176394;stroke-miterlimit:4;stroke-dasharray:none"
       d="m 9.3872944,291.98816 v -0.31892 h 0.3189196 0.31892 v 0.31892 0.31892 H 9.706214 9.3872944 Z"
       id="path12918"
       inkscape:connector-curvature="0" />
    <path
       style="fill:#ffffff;stroke-width:0.00176394;stroke-miterlimit:4;stroke-dasharray:none"
       d="m 12.000881,293.29495 v -0.31892 h 0.318921 0.318919 v 0.31892 0.31892 h -0.318919 -0.318921 z"
       id="path12920"
       inkscape:connector-curvature="0" />
  </g>
</svg>
