<?xml version="1.0" encoding="UTF-8" standalone="no"?>
<!-- Created with Inkscape (http://www.inkscape.org/) -->

<svg
   xmlns:dc="http://purl.org/dc/elements/1.1/"
   xmlns:cc="http://creativecommons.org/ns#"
   xmlns:rdf="http://www.w3.org/1999/02/22-rdf-syntax-ns#"
   xmlns:svg="http://www.w3.org/2000/svg"
   xmlns="http://www.w3.org/2000/svg"
   xmlns:sodipodi="http://sodipodi.sourceforge.net/DTD/sodipodi-0.dtd"
   xmlns:inkscape="http://www.inkscape.org/namespaces/inkscape"
   width="64"
   height="64"
   viewBox="0 0 16.933333 16.933334"
   version="1.1"
   id="svg8"
   inkscape:version="0.92.5 (2060ec1f9f, 2020-04-08)"
   sodipodi:docname="tea_cup_64x64.svg">
  <defs
     id="defs2" />
  <sodipodi:namedview
     id="base"
     pagecolor="#ffffff"
     bordercolor="#666666"
     borderopacity="1.0"
     inkscape:pageopacity="0.0"
     inkscape:pageshadow="2"
     inkscape:zoom="5.6"
     inkscape:cx="37.84676"
     inkscape:cy="4.8040694"
     inkscape:document-units="mm"
     inkscape:current-layer="layer1"
     showgrid="false"
     units="px"
     inkscape:window-width="1208"
     inkscape:window-height="987"
     inkscape:window-x="1992"
     inkscape:window-y="0"
     inkscape:window-maximized="1" />
  <metadata
     id="metadata5">
    <rdf:RDF>
      <cc:Work
         rdf:about="">
        <dc:format>image/svg+xml</dc:format>
        <dc:type
           rdf:resource="http://purl.org/dc/dcmitype/StillImage" />
        <dc:title></dc:title>
      </cc:Work>
    </rdf:RDF>
  </metadata>
  <g
     inkscape:label="Layer 1"
     inkscape:groupmode="layer"
     id="layer1"
     transform="translate(0,-280.06665)">
    <path
       style="fill:#000000;stroke-width:0.02907272"
       d="M 3.5832926,294.20496 C 2.2851225,292.87601 1.443334,290.69165 1.132447,287.84531 1.035626,286.95883 1.0158109,286.56479 1.01693,285.54856 c 7.512e-4,-0.96996 0.017727,-1.31653 0.103003,-2.14419 l 0.032224,-0.3126 5.643594,0.007 5.643601,0.007 0.03402,0.33432 c 0.0187,0.18388 0.05026,0.5731 0.07015,0.86491 l 0.03605,0.53059 h 0.141798 c 1.252396,0 2.314952,0.64609 2.845951,1.7305 0.843095,1.7218 -0.103318,3.78005 -1.967168,4.27819 -0.264579,0.0707 -0.350456,0.0786 -1.029707,0.0941 l -0.741061,0.017 -0.05483,0.15988 c -0.139688,0.40761 -0.391702,1.00905 -0.572935,1.36731 -0.345409,0.68284 -0.626183,1.09366 -1.125897,1.64742 L 9.8053949,294.43 H 6.8043738 3.8033449 Z m 5.9534818,-0.77043 c 1.4601966,-1.58459 2.2975316,-4.94872 2.1581886,-8.67093 -0.01494,-0.39976 -0.03305,-0.74317 -0.04027,-0.76316 -0.01037,-0.0288 -1.010027,-0.0364 -4.866297,-0.0364 H 1.9351465 l -0.024637,0.31253 c -0.01352,0.1719 -0.023209,0.78351 -0.021557,1.35914 0.00301,1.04008 0.037331,1.62575 0.1440225,2.45665 0.2978172,2.31996 0.9849397,4.15572 1.9885301,5.31267 l 0.1320794,0.15227 2.6346483,3.3e-4 2.6346489,3.4e-4 0.1138567,-0.12357 z m 3.9201166,-3.45055 c 0.598556,-0.19326 1.077006,-0.6045 1.337154,-1.14935 0.131989,-0.27644 0.188287,-0.50037 0.208792,-0.8305 0.02404,-0.38722 -0.03883,-0.6831 -0.228067,-1.07346 -0.129871,-0.26787 -0.179055,-0.33541 -0.412859,-0.56691 -0.434825,-0.43056 -0.902346,-0.63107 -1.486473,-0.63754 l -0.290726,-0.003 -0.008,0.42459 -0.008,0.4246 0.255139,0.0194 c 0.434613,0.0329 0.67771,0.1378 0.945264,0.40771 0.573941,0.579 0.44084,1.57804 -0.267577,2.00838 -0.238936,0.14515 -0.443815,0.18958 -0.874215,0.18958 h -0.366811 l -0.07961,0.38521 c -0.0438,0.21186 -0.08664,0.40947 -0.09521,0.43912 -0.01494,0.0515 0.01044,0.0533 0.576052,0.041 0.512485,-0.0112 0.618869,-0.0217 0.795152,-0.0786 z m -0.389516,-1.72497 c 0.194859,-0.13017 0.257129,-0.39464 0.135129,-0.5739 -0.122878,-0.18055 -0.202694,-0.21775 -0.467213,-0.21775 H 12.49749 l -0.03447,0.30527 c -0.019,0.16789 -0.04161,0.36085 -0.05033,0.42882 l -0.01585,0.12355 h 0.285868 c 0.248813,0 0.298679,-0.008 0.384655,-0.0659 z"
       id="path12837"
       inkscape:connector-curvature="0" />
    <path
       style="fill:#ffffff;stroke-width:0.0066598;stroke-miterlimit:4;stroke-dasharray:none"
       d="m 3.9321119,293.24599 c -1.0360168,-1.26432 -1.7561066,-3.49331 -1.9604453,-6.06841 -0.068353,-0.86152 -0.083098,-2.60289 -0.025012,-2.95441 l 0.03643,-0.22027 h 4.8380103 4.8380181 v 1.38196 c 0,2.00342 -0.170816,3.43993 -0.583715,4.90902 -0.33433,1.18952 -0.874117,2.30787 -1.4249692,2.95231 L 9.4180134,293.5181 H 6.7865495 4.1550861 Z"
       id="path12839"
       inkscape:connector-curvature="0" />
    <path
       style="fill:#ffffff;stroke-width:0.22907396;stroke-miterlimit:4;stroke-dasharray:none"
       d=""
       id="path12841"
       inkscape:connector-curvature="0"
       transform="matrix(0.26458333,0,0,0.26458333,0,280.06665)" />
    <path
       style="fill:#ffffff;stroke-width:0.0066598;stroke-miterlimit:4;stroke-dasharray:none"
       d="m 12.150714,289.87117 c 0.02208,-0.11016 0.05542,-0.29583 0.07422,-0.41263 l 0.03402,-0.21238 0.491257,-0.0307 c 0.389913,-0.0244 0.54621,-0.0629 0.757653,-0.18678 0.723591,-0.42405 0.841752,-1.51721 0.227053,-2.10063 -0.202122,-0.19183 -0.541785,-0.34084 -0.776935,-0.34084 -0.327705,0 -0.359102,-0.0391 -0.359102,-0.4468 v -0.3755 h 0.320838 c 1.099226,0 2.046466,0.996 2.039721,2.1447 -0.0045,0.82018 -0.46143,1.54136 -1.208867,1.90932 -0.316213,0.15568 -0.453213,0.18522 -1.003126,0.21637 l -0.636886,0.0361 z"
       id="path12843"
       inkscape:connector-curvature="0" />
  </g>
</svg>
