<?xml version="1.0" encoding="UTF-8" standalone="no"?>
<!-- Created with Inkscape (http://www.inkscape.org/) -->

<svg
   xmlns:dc="http://purl.org/dc/elements/1.1/"
   xmlns:cc="http://creativecommons.org/ns#"
   xmlns:rdf="http://www.w3.org/1999/02/22-rdf-syntax-ns#"
   xmlns:svg="http://www.w3.org/2000/svg"
   xmlns="http://www.w3.org/2000/svg"
   xmlns:sodipodi="http://sodipodi.sourceforge.net/DTD/sodipodi-0.dtd"
   xmlns:inkscape="http://www.inkscape.org/namespaces/inkscape"
   width="64"
   height="64"
   viewBox="0 0 16.933333 16.933333"
   version="1.1"
   id="svg8"
   inkscape:version="0.92.5 (2060ec1f9f, 2020-04-08)"
   sodipodi:docname="teeth_brushing.svg">
  <defs
     id="defs2" />
  <sodipodi:namedview
     id="base"
     pagecolor="#ffffff"
     bordercolor="#666666"
     borderopacity="1.0"
     inkscape:pageopacity="0.0"
     inkscape:pageshadow="2"
     inkscape:zoom="5.6"
     inkscape:cx="21.176818"
     inkscape:cy="57.438479"
     inkscape:document-units="mm"
     inkscape:current-layer="layer1"
     showgrid="false"
     units="px"
     inkscape:window-width="1208"
     inkscape:window-height="987"
     inkscape:window-x="1992"
     inkscape:window-y="0"
     inkscape:window-maximized="1" />
  <metadata
     id="metadata5">
    <rdf:RDF>
      <cc:Work
         rdf:about="">
        <dc:format>image/svg+xml</dc:format>
        <dc:type
           rdf:resource="http://purl.org/dc/dcmitype/StillImage" />
        <dc:title></dc:title>
      </cc:Work>
    </rdf:RDF>
  </metadata>
  <g
     inkscape:label="Layer 1"
     inkscape:groupmode="layer"
     id="layer1"
     transform="translate(0,-280.06667)">
    <path
       style="fill:#000000;stroke-width:0.03236035"
       d="m 8.1021642,296.2306 c -0.5307968,-0.2539 -0.6210788,-0.91429 -0.1769704,-1.29444 0.1298856,-0.11117 0.3304433,-0.18482 0.5032973,-0.18482 0.3728731,0 0.7579802,0.38511 0.7579802,0.75799 0,0.5563 -0.5978345,0.95398 -1.0843071,0.72127 z m 0.4871097,-0.52316 c 0.050065,-0.05 0.079468,-0.1164 0.079468,-0.17945 0,-0.063 -0.029321,-0.12939 -0.079468,-0.17946 -0.1605132,-0.16051 -0.4383342,-0.0468 -0.4383342,0.17946 0,0.13304 0.1258508,0.25888 0.258889,0.25888 0.063052,0 0.1293792,-0.0294 0.1794452,-0.0794 z m 1.6974551,0.52986 c -0.150916,-0.0682 -0.3055332,-0.19646 -0.3613892,-0.29951 -0.07522,-0.13883 -1.2339499,-3.46194 -1.3054224,-3.7439 -0.1461954,-0.57675 -0.1876937,-0.91772 -0.1908953,-1.5685 -0.00245,-0.56299 0.00326,-0.6331 0.071791,-0.83135 0.082172,-0.23783 0.263512,-0.53481 0.4253807,-0.69666 0.1004999,-0.10048 0.1027371,-0.10845 0.063539,-0.22652 -0.022381,-0.0673 -0.049084,-0.2088 -0.059459,-0.31443 l -0.018866,-0.19206 -0.4692234,-0.27143 C 8.1841155,287.94367 7.9135063,287.78699 7.8408413,287.74479 L 7.7087179,287.66799 7.5710243,287.91 c -0.075711,0.13311 -0.1691787,0.26216 -0.2076633,0.28678 -0.038468,0.0246 -0.6834367,0.20833 -1.4332331,0.40823 l -1.3632635,0.36347 -1.3510613,2.34235 c -0.7435322,1.28909 -1.38008,2.35791 -1.4155917,2.37691 -0.1041339,0.0557 -0.2117306,0.015 -0.6944626,-0.26349 -0.50502074,-0.29125 -0.57027794,-0.34629 -0.57027794,-0.48101 0,-0.0626 0.47905674,-0.92191 1.49252004,-2.6774 0.8208853,-1.42191 1.5124812,-2.61255 1.5368689,-2.64585 0.03267,-0.0446 0.4139056,-0.1601 1.4495679,-0.43906 l 1.4052355,-0.3785 1.6882345,-2.92641 c 0.9285312,-1.60953 1.7177931,-2.97242 1.7539241,-3.02866 0.04117,-0.0641 0.103538,-0.11056 0.1670802,-0.12452 0.08792,-0.0193 0.166582,0.015 0.592199,0.25805 0.269948,0.15417 0.5163,0.31011 0.547442,0.34652 0.07628,0.0892 0.07139,0.20949 -0.01511,0.37284 -0.03952,0.0747 -0.06509,0.14252 -0.05676,0.15073 0.0083,0.008 0.371982,0.22093 0.808037,0.47273 0.436055,0.25182 0.834214,0.49708 0.884787,0.54504 0.19007,0.18023 0.27787,0.46197 0.221311,0.71019 -0.01748,0.0768 -0.320471,0.63855 -0.686255,1.27234 -0.360581,0.62478 -0.642077,1.14633 -0.626363,1.1605 0.01568,0.0142 0.07775,0.0422 0.137915,0.0623 0.106983,0.0358 0.113901,0.0324 0.316999,-0.15768 0.364967,-0.3414 0.808961,-0.50701 1.272548,-0.47464 0.965906,0.0674 1.696811,0.83109 1.698436,1.77453 l 4.73e-4,0.28001 0.161241,0.0214 c 0.212008,0.0282 0.51336,0.19153 0.633746,0.34353 0.31299,0.39519 0.330215,0.87467 0.04622,1.28748 l -0.113919,0.16561 0.09393,0.1701 c 0.191189,0.34623 0.214466,0.4695 0.212335,1.12472 -0.0032,1.02517 -0.07914,1.34542 -0.808569,3.41402 -0.307509,0.87211 -0.590133,1.66827 -0.628062,1.76922 -0.124422,0.33122 -0.452203,0.54064 -0.784598,0.50127 -0.184093,-0.0218 -0.420056,-0.14996 -0.516128,-0.28033 -0.03275,-0.0445 -0.247814,-0.57357 -0.477832,-1.17573 -0.230017,-0.60216 -0.443479,-1.12275 -0.47436,-1.15688 -0.0753,-0.0832 -0.275649,-0.0834 -0.350796,-3.7e-4 -0.03071,0.0339 -0.229642,0.51811 -0.442099,1.07598 -0.469232,1.2321 -0.482455,1.26104 -0.626544,1.37094 -0.23918,0.18244 -0.514633,0.22217 -0.762472,0.10997 z m 0.442868,-0.52079 c 0.04117,-0.0387 0.07489,-0.0862 0.07489,-0.10556 0,-0.0881 0.814,-2.13827 0.886935,-2.2339 0.120052,-0.1574 0.378704,-0.27609 0.60164,-0.27609 0.222936,0 0.481597,0.11869 0.601641,0.27609 0.07065,0.0926 0.886934,2.14445 0.886934,2.22936 0,0.062 0.14306,0.18046 0.218109,0.18046 0.131152,0 0.195266,-0.0576 0.261667,-0.23508 0.19555,-0.52265 1.116895,-3.1675 1.182797,-3.39539 0.145796,-0.50412 0.193558,-0.87342 0.195935,-1.51483 l 0.0024,-0.59866 -0.102403,-0.21616 c -0.14248,-0.30074 -0.325992,-0.48822 -0.620376,-0.63379 l -0.244408,-0.12086 -0.715878,-0.0107 -0.715878,-0.0107 -0.143215,0.10923 c -0.173882,0.13262 -0.34824,0.35762 -0.499278,0.6443 -0.08037,0.15252 -0.140577,0.2258 -0.20875,0.25404 -0.164401,0.0682 -0.260678,0.01 -0.398919,-0.24198 -0.167839,-0.30554 -0.358326,-0.55023 -0.519264,-0.667 l -0.135553,-0.0983 -0.711933,0.0125 c -0.7938102,0.014 -0.8851142,0.0335 -1.1734461,0.25146 -0.3591841,0.27147 -0.494485,0.56104 -0.5174517,1.1075 -0.030953,0.73648 0.078244,1.38641 0.3814979,2.271 0.5463967,1.59377 1.0670499,3.0137 1.1189769,3.05166 0.08558,0.0626 0.209314,0.0506 0.293512,-0.0286 z m 1.155362,-4.6377 c -0.488636,-0.10629 -0.805914,-0.41505 -0.87327,-0.84983 l -0.02131,-0.13753 h 0.25942 0.25942 l 0.02099,0.112 c 0.02581,0.13761 0.172029,0.28929 0.334037,0.34653 0.06812,0.0241 0.256194,0.0429 0.428803,0.0429 0.172609,0 0.360654,-0.0188 0.428802,-0.0429 0.162009,-0.0573 0.30822,-0.20892 0.334038,-0.34653 l 0.02099,-0.112 h 0.259412 0.25942 l -0.02131,0.13753 c -0.03046,0.19672 -0.165275,0.45669 -0.296582,0.57199 -0.31976,0.28075 -0.872601,0.39102 -1.392902,0.27784 z m 2.738052,-0.64904 c 0,-0.25116 -0.08716,-0.33832 -0.338309,-0.33832 h -0.179453 v -0.25888 -0.25888 h 0.18232 c 0.280892,0 0.428182,0.0582 0.611605,0.24159 0.183422,0.18343 0.241607,0.33073 0.241607,0.61162 v 0.18231 h -0.258882 -0.258888 z m -11.7299576,0.40597 c 0.6909181,-1.20138 1.2832069,-2.21475 1.3161868,-2.25194 0.045819,-0.0516 0.3836128,-0.1541 1.4344746,-0.43492 0.7559792,-0.20203 1.3867772,-0.37547 1.4017643,-0.38543 0.014946,-0.01 0.8244381,-1.39978 1.7987876,-3.08847 1.4605863,-2.53141 1.7639633,-3.07753 1.7283533,-3.11131 -0.02377,-0.0225 -0.123287,-0.0852 -0.221172,-0.13932 l -0.177984,-0.0984 -1.6989171,2.94556 c -0.9344033,1.62006 -1.7207651,2.95707 -1.7474642,2.97115 -0.026708,0.0141 -0.6601515,0.18869 -1.4076693,0.38804 -0.747526,0.19935 -1.375686,0.37949 -1.3959084,0.40032 -0.020255,0.0208 -0.5864575,0.99169 -1.2582883,2.15747 -0.671839,1.16578 -1.2918806,2.23933 -1.3778748,2.38568 l -0.156356,0.26606 0.217309,0.12806 c 0.1647357,0.0971 0.2259256,0.11884 0.2529187,0.0899 0.019601,-0.021 0.6009137,-1.02111 1.2918398,-2.22249 z m 9.4921896,-1.66535 c 0.12702,-0.18653 0.400136,-0.44022 0.571209,-0.53059 l 0.161804,-0.0855 h 0.79283 c 0.741221,0 0.806716,0.004 1.006162,0.0737 0.117341,0.0406 0.292081,0.12407 0.388326,0.18554 l 0.174985,0.11181 0.07138,-0.0805 c 0.142545,-0.1608 0.135806,-0.45517 -0.01454,-0.63382 -0.119513,-0.14204 -0.257279,-0.19072 -0.539699,-0.19072 -0.421828,0 -0.511864,-0.0973 -0.420357,-0.45427 0.0789,-0.30762 0.04688,-0.59793 -0.09821,-0.89151 -0.138453,-0.28014 -0.331595,-0.46691 -0.626975,-0.60629 -0.192195,-0.0907 -0.248435,-0.10204 -0.507398,-0.10241 -0.250191,-3.7e-4 -0.317857,0.0121 -0.480094,0.0881 -0.256243,0.12004 -0.414559,0.25154 -0.551845,0.45837 -0.171832,0.25888 -0.222241,0.2671 -0.56692,0.0924 -0.218346,-0.11066 -0.263079,-0.12149 -0.501582,-0.12149 -0.309927,0 -0.504179,0.0788 -0.715764,0.29039 -0.211371,0.21138 -0.282803,0.39503 -0.304291,0.78243 -0.02165,0.39062 -0.04549,0.42796 -0.2984442,0.46796 -0.268118,0.0424 -0.4385462,0.20261 -0.4707253,0.44255 -0.030299,0.2257 -0.00948,0.24179 0.2071893,0.16067 0.173663,-0.065 0.247512,-0.0703 0.9965652,-0.0716 l 0.80901,-0.002 0.161804,0.0855 c 0.171073,0.0904 0.44419,0.34407 0.571209,0.5306 0.04182,0.0614 0.08328,0.1116 0.09218,0.1116 0.0089,0 0.05039,-0.0502 0.09218,-0.1116 z m 0.943355,-2.18554 v -0.25888 h 0.258881 0.258889 v 0.25888 0.25888 h -0.258889 -0.258881 z m -4.0615717,0.79522 c 0.066561,-0.061 0.1630613,-0.12828 0.2144097,-0.14955 0.051371,-0.0213 0.093361,-0.0481 0.093361,-0.0599 0,-0.0214 -1.2996885,-0.77997 -1.336311,-0.77997 -0.030301,0 -0.2533761,0.39241 -0.2421704,0.42603 0.00931,0.0279 1.0859403,0.66896 1.1294562,0.67255 0.01111,8.2e-4 0.074649,-0.0482 0.1412549,-0.1092 z m 0.6081665,-0.96566 0.109973,-0.21899 -0.455975,-0.26246 c -0.2507874,-0.14434 -0.5253661,-0.30428 -0.6101759,-0.3554 -0.084808,-0.0511 -0.1605461,-0.0929 -0.1683051,-0.0929 -0.036916,0 -0.2486634,0.42864 -0.2236386,0.45276 0.050801,0.0489 1.1926876,0.70848 1.2157446,0.70217 0.01233,-0.004 0.07187,-0.10469 0.132377,-0.22513 z m 0.6744282,-0.68444 c 0.07791,-0.043 0.204967,-0.0949 0.282411,-0.11538 0.07743,-0.0204 0.135684,-0.0421 0.129436,-0.0481 -0.04443,-0.0427 -1.6943027,-0.98153 -1.7084738,-0.97215 -0.048349,0.032 -0.2402673,0.44748 -0.2121384,0.45921 0.017808,0.007 0.3163218,0.17958 0.663385,0.38258 0.3470642,0.20299 0.6473952,0.36975 0.6673972,0.37057 0.02,8.1e-4 0.100099,-0.0337 0.177983,-0.0768 z m 0.897102,-0.78674 c 0.114123,-0.19479 0.121972,-0.22151 0.07441,-0.25311 -0.195813,-0.12999 -1.6715082,-0.96207 -1.7118542,-0.96523 -0.05366,-0.004 -0.27012,0.32476 -0.257885,0.39194 0.0065,0.0339 1.6799282,1.0325 1.7450712,1.04115 0.0125,0.002 0.08012,-0.095 0.150296,-0.21475 z m 0.512951,-0.88489 c 0.05791,-0.0966 0.101954,-0.19496 0.09795,-0.21864 -0.0057,-0.0337 -1.5702,-0.96706 -1.727528,-1.03055 -0.04092,-0.0165 -0.279471,0.36531 -0.261657,0.41874 0.01445,0.0434 1.713831,1.02631 1.754528,1.01488 0.01731,-0.004 0.07882,-0.0879 0.136705,-0.18443 z m 0.481655,-0.84417 c 0.146228,-0.28857 0.131829,-0.3061 -0.60249,-0.73369 -0.346411,-0.2017 -0.719357,-0.41692 -0.828767,-0.47823 l -0.198925,-0.11149 -0.129509,0.22463 -0.129518,0.22465 0.619682,0.35559 c 0.340825,0.19556 0.743459,0.42932 0.894742,0.51945 0.151285,0.0901 0.278459,0.16439 0.282608,0.16499 0.0041,6.1e-4 0.04566,-0.0741 0.09218,-0.1659 z m -7.3969842,11.91382 v -0.25888 h 0.2588891 0.2588808 v 0.25888 0.25888 H 5.3032339 5.0443448 Z m -0.04876,-2.1451 c -0.5307886,-0.2539 -0.6210788,-0.91429 -0.1769704,-1.29444 0.1298856,-0.11116 0.3304433,-0.18482 0.5032974,-0.18482 0.3728727,0 0.7579803,0.38511 0.7579803,0.75799 0,0.5563 -0.5978346,0.95397 -1.0843073,0.72127 z m 0.4871178,-0.52316 c 0.1605137,-0.16052 0.0468,-0.43834 -0.1794527,-0.43834 -0.1330382,0 -0.2588891,0.12585 -0.2588891,0.25888 0,0.13305 0.1258509,0.25889 0.2588891,0.25889 0.063052,0 0.1293792,-0.0294 0.1794532,-0.0794 z m 1.3738402,-0.69722 v -0.25888 h 0.2588813 0.258889 v 0.25888 0.25888 H 7.1154244 6.8565435 Z m -2.3299437,-1.81218 v -0.25888 H 4.78548 5.0443608 v 0.25888 0.25888 H 4.7854803 4.5265994 Z m 2.0222878,0.18485 c -0.5307969,-0.25391 -0.6210789,-0.9143 -0.1769704,-1.29444 0.1298774,-0.11117 0.3304433,-0.18482 0.5032891,-0.18482 0.372881,0 0.7579884,0.38511 0.7579884,0.75797 0,0.55632 -0.5978346,0.954 -1.0843071,0.72129 z m 0.4871096,-0.52316 c 0.1605132,-0.16051 0.046799,-0.43833 -0.1794533,-0.43833 -0.1330381,0 -0.2588809,0.12584 -0.2588809,0.25888 0,0.13303 0.1258428,0.25888 0.2588809,0.25888 0.063052,0 0.1293874,-0.0294 0.1794533,-0.0794 z m 7.8459195,-4.88166 c -0.158838,-0.05 -0.429709,-0.33055 -0.478412,-0.49539 -0.142814,-0.48336 0.177845,-0.95354 0.686076,-1.006 0.443103,-0.0457 0.870314,0.38766 0.817953,0.82979 -0.06003,0.5066 -0.543865,0.82346 -1.025617,0.6716 z m 0.438334,-0.55488 c 0.160513,-0.16052 0.0468,-0.43834 -0.179453,-0.43834 -0.133038,0 -0.258881,0.12585 -0.258881,0.25889 0,0.13303 0.125843,0.25888 0.258881,0.25888 0.06306,0 0.129379,-0.0293 0.179453,-0.0794 z m -1.991636,-1.99164 v -0.25888 h 0.258881 0.25889 v 0.25888 0.25889 h -0.25889 -0.258881 z"
       id="path284"
       inkscape:connector-curvature="0" />
    <path
       style="fill:#ffffff;stroke-width:0.00087362;stroke-miterlimit:4;stroke-dasharray:none"
       d="m 5.1438314,292.8557 c -0.064849,-0.0579 -0.075466,-0.0827 -0.075466,-0.17525 0,-0.0926 0.010699,-0.11735 0.075466,-0.17526 0.165626,-0.14799 0.3983549,-0.0369 0.3983549,0.19021 0,0.0494 -0.023522,0.0941 -0.07857,0.14916 -0.1038236,0.10382 -0.2118287,0.10758 -0.3197686,0.0111 z"
       id="path286"
       inkscape:connector-curvature="0" />
    <path
       style="fill:#ffffff;stroke-width:0.00087362;stroke-miterlimit:4;stroke-dasharray:none"
       d="m 6.7307499,290.03648 c -0.039121,-0.0239 -0.084541,-0.0757 -0.1008588,-0.11504 -0.096432,-0.23281 0.2147607,-0.43787 0.3934055,-0.25923 0.099903,0.0999 0.095583,0.23265 -0.011026,0.33926 -0.090952,0.0909 -0.1730582,0.10115 -0.2815289,0.0351 z"
       id="path288"
       inkscape:connector-curvature="0" />
    <path
       style="fill:#ffffff;stroke-width:0.00087362;stroke-miterlimit:4;stroke-dasharray:none"
       d="m 8.2629387,295.71964 c -0.08833,-0.0695 -0.1193089,-0.18401 -0.0771,-0.28504 0.08276,-0.19807 0.3475294,-0.19962 0.4410298,-0.003 0.048923,0.10311 0.033079,0.17863 -0.05611,0.26785 -0.082327,0.0823 -0.2173172,0.091 -0.3078524,0.0197 z"
       id="path290"
       inkscape:connector-curvature="0" />
    <path
       style="fill:#ffffff;stroke-width:0.00087362;stroke-miterlimit:4;stroke-dasharray:none"
       d="m 10.445969,295.73578 c -0.08301,-0.10001 -1.0678996,-2.83731 -1.2655494,-3.51729 -0.1790375,-0.61596 -0.256325,-1.19339 -0.232068,-1.73393 0.01658,-0.37022 0.054312,-0.55477 0.1534246,-0.75112 0.1191365,-0.236 0.4483876,-0.51929 0.6905416,-0.59415 0.113649,-0.0351 0.7585772,-0.0739 1.2548342,-0.0754 l 0.292637,-8.1e-4 0.111868,0.0887 c 0.192496,0.1526 0.355288,0.35816 0.533835,0.6741 0.105881,0.18734 0.196131,0.26549 0.30336,0.26267 0.12033,-0.004 0.1866,-0.0531 0.278197,-0.20977 0.234722,-0.40144 0.41482,-0.62754 0.604671,-0.7591 l 0.09198,-0.0638 0.70878,0.0164 0.708788,0.0164 0.220952,0.11456 c 0.315367,0.16351 0.476794,0.32758 0.638778,0.64923 l 0.07914,0.15714 v 0.55624 c 0,0.94604 -0.04386,1.17882 -0.439928,2.33423 -0.376809,1.09928 -0.914311,2.61957 -0.960767,2.71746 -0.04835,0.10194 -0.114335,0.14875 -0.209623,0.14875 -0.13005,0 -0.176832,-0.0707 -0.344573,-0.52009 -0.342694,-0.91826 -0.730048,-1.84826 -0.801635,-1.92465 -0.136623,-0.14578 -0.445579,-0.25189 -0.65664,-0.22552 -0.159745,0.0199 -0.431024,0.1555 -0.501663,0.25064 -0.08431,0.11354 -0.664342,1.53251 -0.847356,2.0729 -0.0891,0.26312 -0.160824,0.34672 -0.297439,0.34672 -0.04908,0 -0.100638,-0.0137 -0.114539,-0.0305 z m 2.299716,-4.66338 c 0.193543,-0.0487 0.412664,-0.15423 0.525317,-0.25314 0.153195,-0.13451 0.284829,-0.39547 0.323313,-0.64096 l 0.01544,-0.0983 H 13.332101 13.05446 v 0.0587 c 0,0.0741 -0.0713,0.21466 -0.142504,0.2811 -0.02998,0.028 -0.106429,0.0742 -0.169832,0.10276 -0.102093,0.0459 -0.15371,0.0519 -0.451035,0.0526 -0.322578,7e-4 -0.341004,-0.002 -0.469754,-0.0648 -0.154126,-0.0754 -0.262417,-0.20567 -0.2842,-0.34186 L 11.523005,290.08 H 11.249163 10.97532 l 0.01282,0.0751 c 0.03226,0.1894 0.107197,0.38744 0.190472,0.50361 0.285065,0.39767 0.941321,0.57088 1.567145,0.41362 z m 2.4047,-0.68036 c -0.01952,-0.29693 -0.07065,-0.40974 -0.271932,-0.5996 -0.188437,-0.17776 -0.303964,-0.2209 -0.591603,-0.2209 h -0.192276 v 0.26581 0.26582 h 0.146792 c 0.289983,0 0.361724,0.0685 0.361724,0.34556 v 0.16297 h 0.28086 0.280859 z"
       id="path292"
       inkscape:connector-curvature="0" />
    <path
       style="fill:#ffffff;stroke-width:0.00087362;stroke-miterlimit:4;stroke-dasharray:none"
       d="m 12.188663,289.13378 c -0.125165,-0.1705 -0.40488,-0.42148 -0.564675,-0.50665 l -0.141173,-0.0752 -0.849553,0.009 c -0.7908372,0.008 -0.8591402,0.0119 -0.9882422,0.0571 -0.116712,0.0408 -0.1438192,0.0435 -0.1710657,0.0173 -0.044018,-0.0425 6.043e-4,-0.26716 0.075546,-0.38041 0.06183,-0.0935 0.236527,-0.19567 0.372897,-0.21822 0.1469309,-0.0242 0.2192769,-0.0613 0.2551159,-0.13063 0.01829,-0.0354 0.04402,-0.18743 0.05701,-0.33768 0.01298,-0.15026 0.03871,-0.32542 0.05709,-0.38923 0.06755,-0.2343 0.299874,-0.49481 0.543767,-0.60968 0.114637,-0.054 0.15438,-0.0599 0.404505,-0.06 l 0.277372,-1.7e-4 0.236036,0.10979 c 0.133292,0.062 0.269663,0.10979 0.313292,0.10979 0.08587,0 0.151995,-0.0592 0.305158,-0.27324 0.108478,-0.15159 0.269482,-0.27536 0.501566,-0.38556 0.174977,-0.0831 0.180923,-0.0841 0.471159,-0.0841 h 0.293942 l 0.218715,0.10573 c 0.268763,0.12994 0.462509,0.31332 0.590002,0.55846 0.159426,0.30652 0.190283,0.55432 0.116776,0.93776 -0.06713,0.35019 -0.01143,0.41087 0.402537,0.43857 0.320716,0.0215 0.436905,0.06 0.546625,0.18149 0.160554,0.17771 0.172773,0.45708 0.02769,0.63361 l -0.05505,0.0671 -0.181536,-0.10643 c -0.09985,-0.0586 -0.254233,-0.13542 -0.343086,-0.17087 l -0.161558,-0.0645 -0.849554,-0.007 -0.84956,-0.007 -0.133978,0.0714 c -0.163608,0.0872 -0.407837,0.30418 -0.549271,0.48798 -0.05783,0.0751 -0.114058,0.13666 -0.124944,0.13666 -0.01086,0 -0.05749,-0.0514 -0.103596,-0.11416 z m 1.669719,-2.14529 -0.0065,-0.2716 h -0.265803 -0.265814 l -0.0065,0.24114 c -0.0032,0.13263 -0.0016,0.25485 0.0049,0.2716 0.0087,0.0228 0.07914,0.0305 0.278964,0.0305 h 0.267277 z"
       id="path294"
       inkscape:connector-curvature="0" />
    <path
       style="fill:#ffffff;stroke-width:0.00087362;stroke-miterlimit:4;stroke-dasharray:none"
       d="m 15.026405,284.60405 c -0.09038,-0.0563 -0.122829,-0.11367 -0.122829,-0.2171 0,-0.25122 0.357159,-0.32462 0.453828,-0.0933 0.0912,0.21828 -0.136354,0.43163 -0.330999,0.31035 z"
       id="path296"
       inkscape:connector-curvature="0" />
    <path
       style="fill:#ffffff;stroke-width:0.00087362;stroke-miterlimit:4;stroke-dasharray:none"
       d="m 1.3468983,292.95447 c -0.1017,-0.059 -0.1880453,-0.10971 -0.1918759,-0.11281 -0.00408,-0.004 0.223843,-0.40469 0.5059355,-0.89243 1.7379493,-3.00493 2.1389259,-3.69587 2.2052694,-3.80004 0.073343,-0.11513 0.076691,-0.11715 0.3145087,-0.18934 0.1322215,-0.0401 0.7602181,-0.21461 1.3955572,-0.38772 0.6353391,-0.17312 1.1567516,-0.31675 1.1587119,-0.31918 0.070157,-0.0873 0.9871073,-1.65439 2.3086923,-3.94545 0.6196824,-1.07426 1.1293836,-1.9562 1.1326746,-1.95988 0.01462,-0.0164 0.381678,0.2159 0.381678,0.24156 0,0.0705 -0.6496492,1.22266 -2.2070344,3.91419 -0.9846163,1.70166 -1.2981858,2.23432 -1.3250891,2.25096 -0.010618,0.006 -0.5334431,0.1524 -1.1618073,0.32407 -1.5215713,0.4157 -1.6014073,0.44034 -1.6653986,0.51389 -0.051536,0.0592 -0.2853594,0.45613 -1.1420667,1.9385 -1.2917581,2.23515 -1.4597608,2.51937 -1.4926181,2.52517 -0.017723,0.004 -0.1154293,-0.0426 -0.2171375,-0.10149 z"
       id="path298"
       inkscape:connector-curvature="0" />
    <path
       style="fill:#ffffff;stroke-width:0.00087362;stroke-miterlimit:4;stroke-dasharray:none"
       d="m 12.21074,283.68815 c -0.05089,-0.0314 -0.43831,-0.25731 -0.861021,-0.50201 -0.422701,-0.24473 -0.768556,-0.45243 -0.768556,-0.46158 0,-0.0209 0.229674,-0.41099 0.241966,-0.41099 0.0049,0 0.209992,0.11557 0.455616,0.25682 1.102031,0.63375 1.220923,0.71538 1.220923,0.8382 0,0.078 -0.129575,0.33833 -0.167913,0.33736 -0.01568,-3.9e-4 -0.07016,-0.0264 -0.121015,-0.0578 z"
       id="path300"
       inkscape:connector-curvature="0" />
    <path
       style="fill:#ffffff;stroke-width:0.00087362;stroke-miterlimit:4;stroke-dasharray:none"
       d="m 11.702215,284.57456 c -0.373967,-0.19581 -1.629576,-0.93784 -1.629576,-0.96302 0,-0.0281 0.160088,-0.28717 0.211297,-0.34195 l 0.04622,-0.0495 0.108152,0.0591 c 0.466748,0.25517 1.577395,0.92975 1.591566,0.9667 0.01911,0.0498 -0.172772,0.38099 -0.219065,0.37806 -0.0089,-5.6e-4 -0.05775,-0.0228 -0.108618,-0.0494 z"
       id="path302"
       inkscape:connector-curvature="0" />
    <path
       style="fill:#ffffff;stroke-width:0.00087362;stroke-miterlimit:4;stroke-dasharray:none"
       d="m 10.770736,285.24922 c -0.44945,-0.26259 -1.1741162,-0.70258 -1.2060582,-0.73229 -0.01993,-0.0185 0.115887,-0.25393 0.184198,-0.31937 l 0.06689,-0.0641 0.5387112,0.30089 c 0.812693,0.45393 1.153615,0.65534 1.166617,0.68924 0.01306,0.0341 -0.10281,0.26364 -0.183161,0.36282 l -0.05178,0.0639 z"
       id="path304"
       inkscape:connector-curvature="0" />
    <path
       style="fill:#ffffff;stroke-width:0.00087362;stroke-miterlimit:4;stroke-dasharray:none"
       d="m 9.8636028,285.91248 c -0.7914825,-0.4539 -0.8080056,-0.46391 -0.8080056,-0.49037 0,-0.0341 0.1798454,-0.40414 0.1964169,-0.40414 0.035769,0 1.0995159,0.59327 1.5467029,0.86264 0.142267,0.0857 0.142292,0.0869 0.0016,0.13143 -0.05089,0.0161 -0.149667,0.0577 -0.219588,0.0925 -0.215913,0.10725 -0.177967,0.11742 -0.7175602,-0.19204 z"
       id="path306"
       inkscape:connector-curvature="0" />
    <path
       style="fill:#ffffff;stroke-width:0.00087362;stroke-miterlimit:4;stroke-dasharray:none"
       d="m 9.4369884,286.86011 c -0.5360398,-0.30097 -0.8692682,-0.50416 -0.882238,-0.53797 -0.011026,-0.0288 0.1110106,-0.31109 0.1724296,-0.39895 0.016822,-0.0241 0.1554001,0.0468 0.6257501,0.32022 0.3322727,0.19314 0.6041397,0.36147 0.6041397,0.37409 0,0.0199 -0.205303,0.41153 -0.215684,0.41139 -0.0024,-4e-5 -0.139122,-0.0759 -0.3043974,-0.16878 z"
       id="path308"
       inkscape:connector-curvature="0" />
    <path
       style="fill:#ffffff;stroke-width:0.00087362;stroke-miterlimit:4;stroke-dasharray:none"
       d="m 9.0209271,287.82256 c -0.1762676,-0.0932 -0.9586442,-0.56856 -0.9819865,-0.59669 -0.028014,-0.0337 0.012251,-0.13238 0.1339285,-0.32787 l 0.059948,-0.0963 0.1051466,0.0535 c 0.1108066,0.0564 0.9288578,0.53301 1.116732,0.65062 l 0.1101291,0.0689 -0.075465,0.0361 c -0.041489,0.0198 -0.1345656,0.0842 -0.2068058,0.14312 -0.1444722,0.11778 -0.160538,0.122 -0.261601,0.0686 z"
       id="path310"
       inkscape:connector-curvature="0" />
  </g>
</svg>
