<?xml version="1.0" encoding="UTF-8" standalone="no"?>
<!-- Created with Inkscape (http://www.inkscape.org/) -->

<svg
   xmlns:dc="http://purl.org/dc/elements/1.1/"
   xmlns:cc="http://creativecommons.org/ns#"
   xmlns:rdf="http://www.w3.org/1999/02/22-rdf-syntax-ns#"
   xmlns:svg="http://www.w3.org/2000/svg"
   xmlns="http://www.w3.org/2000/svg"
   xmlns:sodipodi="http://sodipodi.sourceforge.net/DTD/sodipodi-0.dtd"
   xmlns:inkscape="http://www.inkscape.org/namespaces/inkscape"
   width="64"
   height="64"
   viewBox="0 0 16.933333 16.933334"
   version="1.1"
   id="svg8"
   inkscape:version="0.92.5 (2060ec1f9f, 2020-04-08)"
   sodipodi:docname="toe_nail_64x64.svg">
  <defs
     id="defs2" />
  <sodipodi:namedview
     id="base"
     pagecolor="#ffffff"
     bordercolor="#666666"
     borderopacity="1.0"
     inkscape:pageopacity="0.0"
     inkscape:pageshadow="2"
     inkscape:zoom="5.6"
     inkscape:cx="56.02823"
     inkscape:cy="15.152371"
     inkscape:document-units="mm"
     inkscape:current-layer="layer1"
     showgrid="false"
     units="px"
     inkscape:window-width="1208"
     inkscape:window-height="987"
     inkscape:window-x="1992"
     inkscape:window-y="0"
     inkscape:window-maximized="1" />
  <metadata
     id="metadata5">
    <rdf:RDF>
      <cc:Work
         rdf:about="">
        <dc:format>image/svg+xml</dc:format>
        <dc:type
           rdf:resource="http://purl.org/dc/dcmitype/StillImage" />
        <dc:title />
      </cc:Work>
    </rdf:RDF>
  </metadata>
  <g
     inkscape:label="Layer 1"
     inkscape:groupmode="layer"
     id="layer1"
     transform="translate(0,-280.06665)">
    <rect
       style="fill:#ffffff;stroke-width:0.00140373;stroke-miterlimit:4;stroke-dasharray:none"
       id="rect14098"
       width="10.767436"
       height="5.5900631"
       x="2.9062243"
       y="290.45532" />
    <path
       style="fill:#000000;stroke-width:0.03714015"
       d="m 2.9254545,296.07374 c -0.1192467,-0.0677 -0.1288229,-0.10361 -0.1294218,-0.48633 -0.00121,-0.77486 -0.1125512,-1.38081 -0.3745456,-2.03843 -0.1894173,-0.47545 -0.3156808,-0.96365 -0.3660468,-1.41533 -0.025341,-0.22725 -0.039923,-1.5088 -0.039923,-3.50858 0,-3.49054 -0.00493,-3.41264 0.240126,-3.7835 0.1498813,-0.22681 0.3860796,-0.42832 0.6191658,-0.52824 0.1310449,-0.0562 0.1976169,-0.11807 0.2918378,-0.2714 0.2635391,-0.42884 0.7992873,-0.8418 1.3001192,-1.00211 0.3318918,-0.10623 0.8674776,-0.13035 1.2221311,-0.0551 0.9100505,0.19326 1.6423038,0.92085 1.8450948,1.8333 0.049914,0.22459 0.094693,0.32475 0.2034633,0.45509 0.1871671,0.22432 0.3829291,0.59318 0.4829061,0.90994 0.045128,0.14299 0.086004,0.26484 0.090832,0.27078 0.00485,0.005 0.065208,-0.0219 0.134167,-0.0618 0.068964,-0.0399 0.2005953,-0.0927 0.2925179,-0.11717 0.091921,-0.0244 0.2721723,-0.0956 0.4005567,-0.15795 0.4229226,-0.20544 0.964452,-0.1776 1.345029,0.0691 0.158599,0.10282 0.648568,0.60428 0.812502,0.83154 0.12549,0.17397 0.264562,0.45899 0.264562,0.54219 0,0.0983 0.06705,0.0818 0.429058,-0.10599 0.359497,-0.18649 0.377964,-0.19166 0.685146,-0.19221 0.254254,-4.2e-4 0.345446,0.0153 0.468578,0.0807 0.221852,0.11803 0.372719,0.25525 0.517496,0.47066 0.0702,0.10443 0.177332,0.25429 0.238063,0.33298 0.06073,0.0787 0.148362,0.23748 0.194738,0.35283 0.08233,0.20481 0.08456,0.24652 0.09474,1.76965 0.0118,1.76695 0.01572,1.73816 -0.238957,1.75683 -0.276416,0.0202 -0.271881,0.0468 -0.271881,-1.58869 v -1.43092 h -1.021353 -1.021354 v 1.32067 c 0,0.99936 -0.01129,1.33545 -0.04642,1.38143 -0.07914,0.10362 -0.223769,0.11529 -0.335868,0.0271 l -0.100529,-0.0791 v -1.87288 c 0,-1.03008 -0.0089,-1.87288 -0.01971,-1.87288 -0.01084,0 -0.06926,0.0564 -0.12982,0.12542 -0.181661,0.2069 -0.224085,0.21345 -1.3016158,0.20132 -0.945188,-0.0107 -0.9858154,-0.0142 -1.097033,-0.0934 -0.063523,-0.0452 -0.1425282,-0.13723 -0.1755701,-0.20428 -0.056285,-0.11419 -0.060133,-0.0186 -0.060921,1.51657 -8.08e-4,1.60067 -0.00256,1.64069 -0.077823,1.7363 -0.051046,0.0649 -0.1126953,0.0978 -0.1830043,0.0978 -0.070311,0 -0.1319619,-0.033 -0.1830053,-0.0978 -0.075872,-0.0965 -0.07699,-0.12911 -0.07753,-2.27484 -5.754e-4,-2.2905 -0.00778,-2.40524 -0.1735594,-2.77122 l -0.067302,-0.14855 -0.018567,0.63137 c -0.022488,0.76454 -0.061102,0.86514 -0.3974124,1.03545 -0.1049263,0.0531 -0.339175,0.0602 -1.9981269,0.0602 -2.0043863,0 -1.9773972,0.003 -2.185785,-0.18079 -0.1820413,-0.15991 -0.1900776,-0.21488 -0.2097532,-1.43479 l -0.018567,-1.15135 -0.1114204,0.1857 -0.1114203,0.18569 -0.00987,3.34138 c -0.010953,3.70716 -0.012359,3.68056 0.2305716,4.36521 0.068862,0.19404 0.1757881,0.49488 0.2376249,0.66852 0.1861953,0.52281 0.2338728,0.81501 0.255046,1.56306 l 0.019537,0.69028 -0.1021971,0.0803 c -0.1153141,0.0906 -0.1534994,0.096 -0.25931,0.0361 z m 10.3806685,-7.69148 c 0,-0.15513 -0.138396,-0.4283 -0.262856,-0.51883 -0.388549,-0.28266 -0.94502,-0.0286 -0.99125,0.45249 l -0.0181,0.18846 h 0.636106 0.636108 z m -2.680898,-0.89923 c 0.01493,-0.3299 -0.03725,-0.50486 -0.206397,-0.69208 -0.235695,-0.26089 -0.5285871,-0.36057 -0.8542772,-0.29072 -0.4001674,0.0858 -0.6648093,0.41983 -0.7041166,0.88869 -0.032961,0.39316 -0.076458,0.37581 0.913206,0.36406 l 0.8398228,-0.0103 z m -3.5923934,-0.31908 c 0.075918,-0.076 0.077317,-0.10122 0.061797,-1.12349 -0.013119,-0.86419 -0.027216,-1.08129 -0.081144,-1.25009 -0.259685,-0.81277 -0.9704114,-1.34147 -1.8068737,-1.34413 -0.8401111,-0.003 -1.5039384,0.45818 -1.8089114,1.25576 -0.095795,0.25054 -0.097963,0.2762 -0.1115077,1.32032 -0.013467,1.03827 -0.011882,1.06676 0.063421,1.14207 0.076055,0.076 0.1042586,0.0773 1.8413916,0.0773 1.7403161,0 1.7652061,-8e-4 1.8418292,-0.0776 z m 5.2131094,2.77202 c -0.109319,-0.10932 -0.115526,-0.20478 -0.02092,-0.32163 0.06008,-0.0742 0.111112,-0.0888 0.352722,-0.10101 0.444152,-0.0224 0.579812,0.0415 0.579812,0.27294 0,0.19199 -0.09999,0.24086 -0.492774,0.24086 -0.298393,0 -0.335834,-0.008 -0.418848,-0.0912 z m -8.373413,-0.50308 c -0.040852,-0.0408 -0.074276,-0.11606 -0.074276,-0.16713 0,-0.0511 0.033424,-0.12628 0.074276,-0.16714 0.071327,-0.0713 0.1238006,-0.0743 1.3184745,-0.0743 1.1946749,0 1.2471513,0.004 1.3184747,0.0743 0.040852,0.0408 0.074276,0.11608 0.074276,0.16714 0,0.0511 -0.033424,0.12628 -0.074276,0.16713 -0.071327,0.0713 -0.1237998,0.0744 -1.3184747,0.0744 -1.1946739,0 -1.2471503,-0.004 -1.3184745,-0.0744 z m 5.3137356,-0.0237 c -0.042343,-0.0538 -0.07698,-0.11841 -0.07698,-0.14353 0,-0.0251 0.034638,-0.0898 0.07698,-0.14356 0.076247,-0.0969 0.081625,-0.0978 0.5699148,-0.0978 0.5491596,0 0.6158726,0.0269 0.6158726,0.24787 0,0.20524 -0.07869,0.23495 -0.6223248,0.23495 -0.481323,0 -0.4873042,-8.1e-4 -0.5634626,-0.0978 z m -5.0301759,-0.72186 c -0.064892,-0.0511 -0.097859,-0.1127 -0.097859,-0.18301 0,-0.0703 0.032971,-0.13196 0.097859,-0.183 0.093128,-0.0732 0.1431583,-0.0769 1.0349148,-0.0769 0.8917574,0 0.941787,0.004 1.034915,0.0769 0.064892,0.0511 0.097859,0.11269 0.097859,0.183 0,0.0704 -0.032972,0.13196 -0.097859,0.18301 -0.093128,0.0732 -0.1431576,0.0769 -1.034915,0.0769 -0.8917565,0 -0.9417869,-0.004 -1.0349148,-0.0769 z m 8.6165113,-2.78551 c -0.131492,-0.10342 -0.131492,-0.26258 0,-0.36601 0.116939,-0.092 0.191684,-0.0967 0.302419,-0.0192 0.0563,0.0395 0.08237,0.0956 0.08198,0.17642 -6.72e-4,0.1394 -0.02633,0.18517 -0.136265,0.24303 -0.110327,0.058 -0.135073,0.0545 -0.248129,-0.0343 z m 1.184581,-2.09711 c -0.621467,-0.23644 -0.676484,-1.11271 -0.08826,-1.40581 0.698376,-0.34802 1.390645,0.35599 1.035085,1.05264 -0.03697,0.0725 -0.09825,0.15894 -0.136176,0.19223 -0.211503,0.18565 -0.562534,0.25534 -0.810643,0.16094 z m 0.463147,-0.53714 c 0.148554,-0.14856 0.05878,-0.41542 -0.156911,-0.46646 -0.08157,-0.0194 -0.12373,-0.002 -0.217347,0.0922 -0.09362,0.0936 -0.111503,0.13577 -0.0922,0.21734 0.05104,0.2157 0.317903,0.30547 0.46646,0.15692 z m -4.20965,0.0807 c -0.07748,-0.0856 -0.08923,-0.73577 -0.01504,-0.83287 0.07915,-0.10363 0.223768,-0.11529 0.33587,-0.0271 0.09702,0.0763 0.100528,0.0917 0.100528,0.44203 0,0.30446 -0.01094,0.37286 -0.06792,0.42442 -0.09014,0.0816 -0.276847,0.0781 -0.353436,-0.006 z m -1.0244134,-1.03273 c -0.088926,-0.11305 -0.092347,-0.1378 -0.034271,-0.24812 0.066316,-0.12599 0.1004282,-0.13566 0.48079,-0.13628 0.3933784,-5.5e-4 0.4885784,0.0464 0.4885784,0.24086 0,0.19522 -0.09472,0.2414 -0.4951671,0.2414 -0.3478634,0 -0.3661488,-0.004 -0.4399253,-0.0978 z m 1.5206454,-0.003 c -0.05497,-0.0699 -0.07215,-0.12933 -0.05638,-0.19499 0.03807,-0.15837 0.11571,-0.1873 0.5028,-0.1873 0.403852,0 0.48148,0.0406 0.48148,0.25151 0,0.18322 -0.105393,0.23131 -0.506961,0.23131 -0.327388,0 -0.345221,-0.004 -0.420947,-0.1005 z m -0.496232,-0.48735 c -0.07748,-0.0856 -0.08923,-0.73577 -0.01504,-0.83288 0.07915,-0.10362 0.223768,-0.11529 0.33587,-0.0271 0.09702,0.0763 0.100528,0.0917 0.100528,0.44203 0,0.30445 -0.01094,0.37285 -0.06792,0.42441 -0.09014,0.0816 -0.276847,0.0781 -0.353436,-0.006 z"
       id="path14096"
       inkscape:connector-curvature="0" />
    <path
       style="fill:#ffffff;stroke-width:0.00141797;stroke-miterlimit:4;stroke-dasharray:none"
       d="m 8.9261408,287.68231 c -0.059583,-0.0436 -0.065969,-0.0833 -0.045292,-0.28115 0.030497,-0.2918 0.095341,-0.44625 0.2672033,-0.63649 0.3056293,-0.33829 0.8034523,-0.35499 1.1624529,-0.039 0.22778,0.20051 0.283901,0.33957 0.283901,0.70351 v 0.30384 H 9.7949562 c -0.6125256,0 -0.8156686,-0.0119 -0.8688199,-0.0507 z"
       id="path14100"
       inkscape:connector-curvature="0" />
    <path
       style="fill:#ffffff;stroke-width:0.00141797;stroke-miterlimit:4;stroke-dasharray:none"
       d="m 12.057582,288.37878 c 0,-0.29986 0.309353,-0.60632 0.613363,-0.60761 0.303036,-0.002 0.557726,0.23897 0.612751,0.57805 l 0.02177,0.13416 h -0.623942 -0.623941 z"
       id="path14102"
       inkscape:connector-curvature="0" />
    <path
       style="fill:#ffffff;stroke-width:0.00141797;stroke-miterlimit:4;stroke-dasharray:none"
       d="m 3.377883,287.1602 c -0.059137,-0.0433 -0.0649,-0.14239 -0.06309,-1.08521 0.00227,-1.17854 0.027839,-1.32942 0.2949142,-1.73997 0.48589,-0.74691 1.368882,-1.05277 2.206926,-0.76444 0.6087772,0.20945 1.1140128,0.79419 1.2139067,1.40494 0.020248,0.12381 0.036917,0.65018 0.037038,1.16974 1.891e-4,0.80891 -0.00826,0.9531 -0.058741,1.00358 -0.051911,0.0519 -0.2683842,0.0589 -1.8124139,0.0589 -1.3571789,0 -1.7681671,-0.0108 -1.8185411,-0.0476 z"
       id="path14104"
       inkscape:connector-curvature="0" />
    <path
       style="fill:#ffffff;stroke-width:0.00141797;stroke-miterlimit:4;stroke-dasharray:none"
       d="m 14.045993,283.23097 c -0.04127,-0.0413 -0.07503,-0.10957 -0.07503,-0.15177 0,-0.0991 0.161868,-0.26093 0.260915,-0.26093 0.184771,0 0.30064,0.29599 0.167852,0.42878 -0.08194,0.0819 -0.263994,0.0736 -0.353733,-0.0161 z"
       id="path14106"
       inkscape:connector-curvature="0" />
    <path
       style="fill:#ffffff;stroke-width:0.00674916;stroke-miterlimit:4;stroke-dasharray:none"
       d="M 12.449947,57.606558 C 12.290869,54.436279 12.08772,53.349572 11.156391,50.686915 9.6797235,46.46514 9.7962413,47.880236 9.7183348,33.221865 9.6507338,20.502495 9.660164,20.023774 9.9885369,19.505145 l 0.3402481,-0.537385 0.116926,2.556006 c 0.06431,1.405803 0.117669,3.158684 0.118576,3.895292 0.0022,1.799258 0.238908,2.570147 0.943426,3.072661 l 0.574088,0.409481 h 7.531386 c 7.359493,0 7.542896,-0.0085 8.035714,-0.373202 0.795567,-0.588719 0.977674,-1.179369 1.087452,-3.527089 0.100281,-2.144547 0.104904,-2.163483 0.377516,-1.546137 0.229925,0.520676 0.296238,2.025917 0.397277,9.017857 0.0667,4.616071 0.12998,8.613839 0.140613,8.883929 0.02113,0.536707 0.576673,1.205357 1.001471,1.205357 0.147321,0 0.428571,-0.160715 0.625,-0.357143 0.339411,-0.339411 0.357143,-0.595238 0.357143,-5.152377 0,-2.637378 0.05194,-5.292126 0.115412,-5.89944 l 0.115413,-1.104206 0.434562,0.408369 c 0.426568,0.400854 0.509658,0.408368 4.515559,0.408368 h 4.080995 l 0.547602,-0.52448 0.5476,-0.524481 v 6.970018 c 0,6.525657 0.02082,6.988861 0.32656,7.265552 0.404172,0.365771 1.163834,0.383516 1.453938,0.03396 0.153373,-0.184806 0.246382,-1.730843 0.316911,-5.267858 l 0.09983,-5.006285 h 3.713409 3.713409 l 0.06448,5.669643 0.06448,5.669642 -2.689005,7.365793 -2.689005,7.365795 -16.901663,3.57e-4 -16.901661,1.98e-4 z M 49.599384,37.300213 c 0.316991,-0.433513 0.317582,-0.82799 0.0019,-1.259731 -0.316982,-0.43349 -2.454867,-0.584859 -3.144475,-0.222639 -0.597583,0.313886 -0.679126,1.064945 -0.170808,1.573263 0.342319,0.342319 0.539637,0.378809 1.724826,0.318959 1.062654,-0.05366 1.389836,-0.138075 1.588565,-0.409852 z m -24.956992,-1.79187 c 0.387943,-0.414512 0.403582,-0.964399 0.03783,-1.330151 -0.350843,-0.350843 -0.565141,-0.366277 -5.085664,-0.366277 -4.11912,0 -4.756313,0.03692 -5.009695,0.290307 -0.412554,0.412553 -0.273731,1.171975 0.264797,1.448548 0.552107,0.283548 9.524032,0.244677 9.792733,-0.04243 z m 14.135838,0.03787 c 0.538798,-0.271216 0.678073,-1.030717 0.264796,-1.443994 -0.232232,-0.232233 -0.676589,-0.290307 -2.2213,-0.290307 -1.868428,0 -1.940576,0.01463 -2.226808,0.451472 -0.298958,0.456267 -0.266417,0.633575 0.220292,1.200313 0.219386,0.255459 0.564827,0.31202 1.892483,0.309868 0.944214,-0.0015 1.810996,-0.09671 2.070537,-0.227352 z M 23.559925,32.641075 c 0.458159,-0.320907 0.520093,-1.001862 0.126886,-1.395069 -0.408057,-0.408057 -1.552268,-0.513313 -4.82386,-0.443748 -2.872936,0.06109 -2.985087,0.07749 -3.314845,0.484797 -0.434075,0.536155 -0.430442,0.828579 0.01584,1.27486 0.333659,0.333659 0.595238,0.357143 3.978124,0.357143 2.988259,0 3.69033,-0.04857 4.017857,-0.277983 z"
       id="path15"
       inkscape:connector-curvature="0"
       transform="matrix(0.26458333,0,0,0.26458333,0,280.06665)" />
  </g>
</svg>
