<?xml version="1.0" encoding="UTF-8" standalone="no"?>
<!-- Created with Inkscape (http://www.inkscape.org/) -->

<svg
   xmlns:dc="http://purl.org/dc/elements/1.1/"
   xmlns:cc="http://creativecommons.org/ns#"
   xmlns:rdf="http://www.w3.org/1999/02/22-rdf-syntax-ns#"
   xmlns:svg="http://www.w3.org/2000/svg"
   xmlns="http://www.w3.org/2000/svg"
   xmlns:sodipodi="http://sodipodi.sourceforge.net/DTD/sodipodi-0.dtd"
   xmlns:inkscape="http://www.inkscape.org/namespaces/inkscape"
   width="64"
   height="64"
   viewBox="0 0 16.933333 16.933333"
   version="1.1"
   id="svg8"
   inkscape:version="0.92.5 (2060ec1f9f, 2020-04-08)"
   sodipodi:docname="toilets_light_64x64.svg">
  <defs
     id="defs2" />
  <sodipodi:namedview
     id="base"
     pagecolor="#ffffff"
     bordercolor="#666666"
     borderopacity="1.0"
     inkscape:pageopacity="0.0"
     inkscape:pageshadow="2"
     inkscape:zoom="5.6"
     inkscape:cx="52.753625"
     inkscape:cy="39.650999"
     inkscape:document-units="mm"
     inkscape:current-layer="layer1"
     showgrid="false"
     units="px"
     inkscape:window-width="1208"
     inkscape:window-height="987"
     inkscape:window-x="1992"
     inkscape:window-y="0"
     inkscape:window-maximized="1"
     showguides="false" />
  <metadata
     id="metadata5">
    <rdf:RDF>
      <cc:Work
         rdf:about="">
        <dc:format>image/svg+xml</dc:format>
        <dc:type
           rdf:resource="http://purl.org/dc/dcmitype/StillImage" />
        <dc:title></dc:title>
      </cc:Work>
    </rdf:RDF>
  </metadata>
  <g
     inkscape:label="Layer 1"
     inkscape:groupmode="layer"
     id="layer1"
     transform="translate(0,-280.06667)">
    <path
       style="fill:#000000;stroke-width:0.03067852"
       d="m 6.9171824,296.47065 c -0.2288538,-0.0993 -0.3376833,-0.26394 -0.3376833,-0.51102 0,-0.21084 0.1130594,-0.39683 0.294665,-0.48474 l 0.1264634,-0.0613 0.061676,-0.30926 0.061676,-0.30925 -0.1111761,-0.046 c -0.3577303,-0.14789 -0.7706397,-0.39391 -1.0018862,-0.59694 -0.1264623,-0.11105 -0.1452673,-0.26285 -0.044984,-0.36313 0.1011875,-0.10114 0.2099279,-0.0768 0.4449882,0.10001 1.0509839,0.79033 2.4807439,0.84712 3.5559451,0.14126 0.4360445,-0.28626 0.7886985,-0.66949 1.0407205,-1.13095 0.121841,-0.22311 0.296407,-0.71811 0.296407,-0.84052 v -0.0798 H 8.2787467 5.2534994 l 0.020852,0.11116 c 0.038006,0.20259 0.1944223,0.62329 0.305749,0.82236 0.1233535,0.22058 0.1355257,0.31632 0.05315,0.41804 -0.070785,0.0874 -0.2240491,0.0928 -0.3143554,0.0111 -0.1118688,-0.10124 -0.3596178,-0.65469 -0.452035,-1.00981 l -0.087805,-0.33741 -0.1044951,-0.0176 c -0.2094525,-0.0353 -0.3955022,-0.18084 -0.503013,-0.39368 -0.084588,-0.16745 -0.054329,-0.48554 0.062168,-0.6536 0.1262297,-0.1821 0.3635924,-0.30044 0.6026142,-0.30044 h 0.1785695 v -0.21475 -0.21475 H 4.6374414 c -0.344559,0 -0.391346,-0.007 -0.5368018,-0.0794 -0.087641,-0.0437 -0.2080046,-0.13626 -0.2674813,-0.20575 -0.1987742,-0.23222 -0.1988111,-0.23263 -0.1986205,-2.22838 1.27e-4,-1.12828 0.011825,-1.83878 0.031499,-1.90962 0.054001,-0.19441 0.2144591,-0.39535 0.3978241,-0.49817 l 0.1687315,-0.0946 0.6749271,-0.0107 0.6749271,-0.0107 0.1189463,-0.16448 c 0.1212047,-0.16761 0.4305391,-0.47607 0.6449767,-0.64315 l 0.1189063,-0.0926 -0.094363,-0.16812 c -0.0519,-0.0924 -0.132677,-0.27857 -0.1795061,-0.41355 -0.076943,-0.22178 -0.08509,-0.28535 -0.084526,-0.65959 5.451e-4,-0.36165 0.010585,-0.44399 0.079157,-0.64937 0.1233933,-0.36954 0.2831896,-0.62659 0.5594955,-0.9 0.2846959,-0.2817 0.5424079,-0.4427 0.8923741,-0.55748 0.5751947,-0.18867 1.5678023,-0.0504 1.7312065,0.24104 0.06104,0.10889 0.015883,0.24041 -0.1019252,0.29688 -0.078399,0.0376 -0.1080283,0.0338 -0.2907314,-0.0372 -0.2733394,-0.10613 -0.4409724,-0.14104 -0.6789572,-0.1414 -0.4701831,-7e-4 -0.8814909,0.1735 -1.2273594,0.51981 -0.4468409,0.44743 -0.6158327,1.02238 -0.4754664,1.61768 0.059186,0.25099 0.144756,0.42174 0.3932273,0.78465 0.3097628,0.45244 0.5055142,0.87703 0.6217645,1.34864 0.031243,0.12677 0.066932,0.20709 0.092006,0.20709 0.033015,0 0.042709,-0.1725 0.049953,-0.88887 0.00881,-0.8683 0.010554,-0.89043 0.076318,-0.95616 0.080673,-0.0806 0.2360738,-0.0889 0.3085014,-0.0165 0.027923,0.028 0.058335,0.1165 0.067568,0.19685 0.013792,0.12003 0.027728,0.14608 0.078142,0.14608 0.045742,0 0.063623,-0.0235 0.070263,-0.092 0.014909,-0.15402 0.068797,-0.25374 0.1568135,-0.2902 0.1018023,-0.0422 0.2294737,-0.002 0.2772506,0.0873 0.02077,0.0388 0.032544,0.37878 0.032544,0.93942 0,0.80061 0.00451,0.87772 0.050701,0.86869 0.035536,-0.007 0.072455,-0.0919 0.1234364,-0.28404 0.1056889,-0.3983 0.2956877,-0.80732 0.5552236,-1.19527 0.3760034,-0.56204 0.4709164,-0.80258 0.4781334,-1.21173 0.0054,-0.30897 -0.056009,-0.57114 -0.1997956,-0.85231 -0.064914,-0.12693 -0.1180241,-0.26869 -0.1180241,-0.31502 0,-0.16955 0.2343082,-0.26088 0.3652647,-0.14237 0.09911,0.0897 0.27708,0.46098 0.342408,0.71433 0.07765,0.30116 0.08342,0.7656 0.01332,1.07364 -0.02763,0.12143 -0.109865,0.33765 -0.182748,0.48048 l -0.132515,0.25969 0.137608,0.0988 c 0.178265,0.12803 0.525068,0.47534 0.654255,0.65524 l 0.101301,0.14106 h 0.602801 c 0.693673,0 0.834496,0.0277 1.041282,0.20469 0.07357,0.0629 0.165555,0.18347 0.20544,0.26912 0.07118,0.15284 0.07223,0.16964 0.07252,1.15506 2.79e-4,0.96335 -0.0019,1.00202 -0.06145,1.05586 -0.07887,0.0714 -0.226729,0.0717 -0.305175,6.9e-4 -0.05444,-0.0493 -0.06184,-0.10134 -0.06942,-0.4883 l -0.0085,-0.43315 h -0.460178 -0.460177 l -0.008,1.40355 -0.008,1.40354 h 0.350758 c 0.331728,0 0.355831,-0.004 0.444251,-0.0787 0.126728,-0.10664 0.156271,-0.23714 0.156472,-0.69121 1.52e-4,-0.34814 0.0063,-0.39193 0.06192,-0.44228 0.07987,-0.0724 0.227027,-0.0714 0.307894,0.002 0.06046,0.0547 0.06317,0.0839 0.05408,0.58034 -0.01067,0.58237 -0.03044,0.65608 -0.229433,0.85507 -0.185024,0.18503 -0.286393,0.2176 -0.731171,0.23497 l -0.398822,0.0156 -0.0091,0.20708 -0.0091,0.20707 0.162464,2.3e-4 c 0.255615,2.4e-4 0.392322,0.0526 0.55015,0.21038 0.226904,0.2269 0.269821,0.48988 0.126179,0.77314 -0.09954,0.19629 -0.275528,0.33199 -0.463204,0.35717 -0.107268,0.0143 -0.13106,0.0303 -0.145445,0.0974 -0.255314,1.19158 -0.955009,2.09839 -1.9952414,2.58585 -0.1378199,0.0646 -0.2658049,0.11743 -0.2844101,0.11743 -0.044061,0 -0.042196,0.025 0.026252,0.35274 0.037995,0.18189 0.075468,0.28651 0.1098655,0.30678 0.189839,0.11183 0.2522904,0.16963 0.3152449,0.29177 0.1383661,0.26843 0.026427,0.59974 -0.2474262,0.73232 -0.1304873,0.0631 -0.1716478,0.0651 -1.4055663,0.0638 -1.0658724,-10e-4 -1.2884459,-0.009 -1.3782973,-0.0476 z m 2.6227937,-0.50335 v -0.0768 l -1.2356389,-0.008 c -1.0791289,-0.007 -1.2378933,-0.002 -1.2534316,0.0383 -0.00984,0.0255 -0.00984,0.0672 0,0.0927 0.015534,0.0405 0.1743027,0.0454 1.2534316,0.0383 l 1.2356389,-0.008 z m -0.4477835,-0.63658 c -0.00164,-0.0464 -0.019192,-0.15339 -0.039041,-0.23776 l -0.036089,-0.15339 -0.1833804,0.0154 c -0.2777261,0.0233 -0.8653215,0.0183 -1.0782927,-0.009 l -0.1893061,-0.0243 -0.035679,0.17765 c -0.019623,0.0976 -0.042924,0.2087 -0.051777,0.24667 l -0.016098,0.0691 h 0.8163057 0.8163068 z m 2.8587604,-3.86889 c 0.07974,-0.0985 0.07366,-0.20678 -0.01666,-0.29711 l -0.0753,-0.0753 H 8.2869452 c -3.4257201,0 -3.5749048,0.002 -3.6419119,0.0566 -0.1238729,0.10032 -0.080561,0.3101 0.077343,0.37461 0.034337,0.014 1.66161,0.0229 3.6161739,0.0196 l 3.5537518,-0.006 z m -6.1077381,-2.70128 c 0,-2.03891 0.00523,-2.11363 0.1771483,-2.5565 0.04939,-0.12719 0.1527485,-0.32595 0.229692,-0.44167 0.1319618,-0.1985 0.4670373,-0.54895 0.6362289,-0.66542 l 0.076697,-0.0528 -0.1057821,-0.19862 c -0.058181,-0.10924 -0.112126,-0.19861 -0.1198798,-0.19861 -0.038784,0 -0.3623331,0.27464 -0.5047077,0.42843 -0.2989063,0.32286 -0.5162395,0.70587 -0.6569275,1.15775 l -0.084024,0.26987 -0.00973,2.06313 -0.00973,2.06312 h 0.1854779 0.1854779 z m 4.4404321,-0.0564 c -0.01281,-2.10643 -0.0063,-2.02774 -0.202838,-2.44777 -0.1127991,-0.24105 -0.3263606,-0.52501 -0.4957417,-0.65916 -0.068541,-0.0543 -0.1288468,-0.0935 -0.1340153,-0.0873 -0.00512,0.006 -0.026027,0.0793 -0.046357,0.16229 -0.03572,0.14589 -0.034235,0.15344 0.044891,0.22681 0.1537538,0.14257 0.1670808,0.22135 0.1670808,0.9877 0,0.79199 -0.017317,0.87144 -0.2217251,1.01724 -0.099363,0.0709 -0.110342,0.0717 -1.0650414,0.0805 -0.6826574,0.006 -0.9898502,-0.001 -1.0508794,-0.0267 -0.1189247,-0.0493 -0.2602736,-0.21816 -0.2988622,-0.35711 -0.041817,-0.15059 -0.041817,-1.30834 0,-1.45891 0.017696,-0.0637 0.074095,-0.16362 0.1253178,-0.22196 0.080509,-0.0917 0.090479,-0.12183 0.073511,-0.22221 -0.038549,-0.22818 -0.056532,-0.22679 -0.300182,0.0232 -0.2606456,0.26742 -0.4252672,0.55782 -0.5149259,0.90839 -0.056983,0.22279 -0.060497,0.34587 -0.060497,2.11835 v 1.88183 h 1.9959775 1.9959789 z m 0.836272,0.13363 c 0,-1.927 -0.01854,-2.27256 -0.143123,-2.66759 -0.168766,-0.53513 -0.421037,-0.91806 -0.868225,-1.31792 -0.251644,-0.225 -0.2589192,-0.22651 -0.3491539,-0.0725 -0.1391438,0.23743 -0.1356178,0.2648 0.053017,0.41157 0.3010349,0.23422 0.5928889,0.62722 0.7380439,0.9938 0.168824,0.42636 0.169679,0.43903 0.170169,2.51904 l 4.52e-4,1.92507 h 0.199411 0.199409 z m -6.1050242,-0.50944 v -1.41122 H 4.5547177 4.0945396 v 1.27469 c 0,1.07089 0.00738,1.28886 0.045844,1.36333 0.083522,0.16151 0.1491601,0.18441 0.5285368,0.18441 h 0.3459761 z m 4.1415997,-0.859 c 0,-0.06 -0.020453,-0.0614 -0.8743376,-0.0614 -0.7081617,0 -0.8743377,0.008 -0.8743377,0.0409 0,0.0226 0.00922,0.0501 0.020453,0.0614 0.011251,0.0113 0.4047007,0.0205 0.8743376,0.0205 0.8334323,0 0.853885,-10e-4 0.8538847,-0.0614 z m 0,-0.58289 c 0,-0.06 -0.020453,-0.0614 -0.8743376,-0.0614 -0.853885,0 -0.8743377,0.001 -0.8743377,0.0614 0,0.0599 0.020453,0.0614 0.8743377,0.0614 0.8538849,0 0.8743376,-0.001 0.8743376,-0.0614 z m -4.0408518,-0.66726 c 0.029798,-0.13077 0.086801,-0.31714 0.1266805,-0.41415 l 0.072507,-0.17641 H 4.839802 c -0.3846692,0 -0.491187,0.009 -0.5599699,0.0502 -0.1469386,0.0868 -0.1852935,0.1901 -0.1852935,0.4991 v 0.27904 h 0.4834661 0.483465 z m 7.3782713,-0.047 c -0.01675,-0.32039 -0.04683,-0.39809 -0.18716,-0.48366 -0.08548,-0.0522 -0.156463,-0.0596 -0.565595,-0.0597 -0.257316,-6e-5 -0.467848,0.004 -0.467848,0.009 0,0.005 0.03226,0.0918 0.07168,0.19244 0.03942,0.10062 0.09614,0.28268 0.126019,0.40463 l 0.05434,0.22174 h 0.491732 0.491732 z m -3.3374195,0.14677 c 0,-0.0399 -0.1176008,-0.046 -0.8743376,-0.046 -0.480886,0 -0.8743377,0.0115 -0.8743377,0.0255 0,0.014 0.00922,0.0347 0.020453,0.046 0.011251,0.0113 0.4047007,0.0205 0.8743376,0.0205 0.7385569,0 0.853885,-0.006 0.8538847,-0.046 z m -0.7976411,-0.79337 c 0,-0.22435 -5.103e-4,-0.22573 -0.076698,-0.21117 -0.072957,0.0139 -0.076697,0.025 -0.076697,0.22584 0,0.20479 0.00236,0.21116 0.076697,0.21116 0.074863,0 0.076698,-0.005 0.076698,-0.22583 z m -0.00553,-0.75061 c 0.00789,-0.0537 -0.00553,-0.0666 -0.069023,-0.0666 -0.057239,0 -0.078829,0.0161 -0.078829,0.0588 0,0.10969 0.1318419,0.11666 0.1478567,0.008 z m -3.3317618,-2.07763 c -0.1470831,-0.0619 -0.1721704,-0.20603 -0.058786,-0.33785 0.060764,-0.0706 0.1006137,-0.0842 0.2862678,-0.0974 0.2071387,-0.0149 0.2183119,-0.0121 0.2822132,0.0692 0.084649,0.10762 0.084024,0.17589 -0.00246,0.27344 -0.087692,0.0989 -0.3699004,0.1505 -0.5072049,0.0927 z m 6.1775654,-0.0133 c -0.14153,-0.0273 -0.201917,-0.0973 -0.201917,-0.23418 0,-0.0711 0.0233,-0.11761 0.08201,-0.16379 0.07095,-0.0558 0.107135,-0.0618 0.268437,-0.0445 0.225881,0.0243 0.324483,0.099 0.324483,0.24567 0,0.18854 -0.16325,0.25644 -0.47301,0.19675 z M 5.2681875,282.0444 c -0.171325,-0.0696 -0.2328337,-0.13527 -0.2328337,-0.24862 0,-0.20649 0.1849789,-0.27102 0.450544,-0.15719 0.1633755,0.07 0.2493526,0.18202 0.2181848,0.28421 -0.055568,0.18219 -0.1925923,0.22042 -0.4358951,0.1216 z m 5.6369875,-0.005 c -0.06137,-0.0614 -0.07828,-0.16562 -0.04215,-0.25977 0.01055,-0.0276 0.102567,-0.0921 0.204459,-0.14355 0.215211,-0.10864 0.341612,-0.096 0.418943,0.0417 0.07081,0.12615 0.01551,0.23753 -0.16772,0.33787 -0.183195,0.10032 -0.328593,0.10866 -0.413525,0.0238 z m -0.245428,-0.4209 c -0.182653,-0.0659 -0.199671,-0.23215 -0.04699,-0.45887 0.123374,-0.18319 0.244516,-0.23242 0.369872,-0.15029 0.150219,0.0985 0.130409,0.27157 -0.05527,0.48313 -0.10129,0.11539 -0.186254,0.15541 -0.267612,0.12603 z m -4.9614672,-0.0287 c -0.070283,-0.0285 -0.2845576,-0.32513 -0.2845576,-0.39397 0,-0.0377 0.029193,-0.10566 0.064873,-0.15103 0.052484,-0.0667 0.085879,-0.0807 0.1748264,-0.0732 0.090613,0.007 0.1331555,0.0378 0.2419103,0.17152 0.077292,0.095 0.1319587,0.19409 0.1319587,0.23915 0,0.14734 -0.1867352,0.26511 -0.3290125,0.20749 z"
       id="path3362"
       inkscape:connector-curvature="0" />
    <path
       style="fill:#ffffff;stroke-width:0.00082822;stroke-miterlimit:4;stroke-dasharray:none"
       d="m 11.561097,288.98256 c 0.008,-0.40677 0.01449,-1.03295 0.0145,-1.39149 l 3.4e-5,-0.65193 h 0.445951 0.445952 l 0.01553,0.40741 c 0.0085,0.22406 0.02487,0.43196 0.03629,0.462 0.01296,0.0341 0.05363,0.0675 0.108261,0.0889 l 0.0875,0.0343 v 0.27058 c 0,0.26587 -8.63e-4,0.27061 -0.04931,0.27108 -0.02712,2.7e-4 -0.07386,0.0194 -0.103872,0.0424 -0.0536,0.0412 -0.05482,0.049 -0.06872,0.44325 -0.01503,0.42636 -0.03551,0.54676 -0.108812,0.63996 -0.08571,0.10896 -0.143076,0.12294 -0.504453,0.12294 h -0.333333 z"
       id="path3366"
       inkscape:connector-curvature="0" />
    <path
       style="fill:#ffffff;stroke-width:0.00082822;stroke-miterlimit:4;stroke-dasharray:none"
       d="m 11.487924,286.26531 c -0.04446,-0.16875 -0.141101,-0.47011 -0.186207,-0.5807 -0.01458,-0.0358 0.01334,-0.0383 0.411271,-0.0383 0.234802,0 0.458495,0.006 0.497097,0.014 0.09698,0.0194 0.211117,0.13346 0.238652,0.2385 0.01256,0.048 0.02967,0.19313 0.03804,0.32269 l 0.0152,0.23556 h -0.481762 -0.481763 z"
       id="path3368"
       inkscape:connector-curvature="0" />
    <path
       style="fill:#ffffff;stroke-width:0.00082822;stroke-miterlimit:4;stroke-dasharray:none"
       d="m 10.720639,288.77438 c -2.16e-4,-1.05179 -0.0096,-1.93409 -0.0219,-2.05045 -0.05406,-0.51327 -0.296594,-0.96774 -0.7599038,-1.42399 -0.3048146,-0.30017 -0.300638,-0.2897 -0.190543,-0.47757 0.08094,-0.13811 0.1060117,-0.1531 0.1782591,-0.10665 0.1129887,0.0727 0.4931647,0.45883 0.6243937,0.6342 0.235885,0.31525 0.416656,0.73791 0.487622,1.1401 0.05109,0.28958 0.0755,1.1683 0.07624,2.74454 l 6.47e-4,1.386 h -0.19722 -0.197219 z"
       id="path3370"
       inkscape:connector-curvature="0" />
    <path
       style="fill:#ffffff;stroke-width:0.00082822;stroke-miterlimit:4;stroke-dasharray:none"
       d="m 6.32141,288.69768 0.00738,-1.92289 0.05979,-0.19276 c 0.1087138,-0.3505 0.2706947,-0.62046 0.5310421,-0.88507 0.086719,-0.0881 0.16796,-0.16026 0.1805246,-0.16026 0.029654,0 0.070959,0.11934 0.070959,0.20502 0,0.0422 -0.031345,0.112 -0.084598,0.18847 -0.046531,0.0668 -0.095162,0.15599 -0.1080723,0.19816 -0.034481,0.11266 -0.052956,0.81843 -0.030689,1.17236 0.015083,0.23972 0.029162,0.32596 0.064401,0.39444 0.0652,0.12672 0.1966172,0.24865 0.2971694,0.27573 0.057065,0.0154 0.4096212,0.0209 1.0315579,0.0163 1.0438715,-0.008 1.0034672,-0.002 1.1449565,-0.15315 0.1224537,-0.13043 0.1286008,-0.17687 0.1286008,-0.97153 0,-0.80481 4.447e-4,-0.80197 -0.1520097,-0.97073 l -0.079577,-0.088 0.036192,-0.14409 0.036192,-0.14409 0.068643,0.0485 c 0.2677057,0.18903 0.5933477,0.69178 0.6849447,1.05745 0.03768,0.1504 0.07024,1.53916 0.0726,3.09525 l 0.0013,0.90392 H 8.2983971 6.3140477 Z"
       id="path3372"
       inkscape:connector-curvature="0" />
    <path
       style="fill:#ffffff;stroke-width:0.00082822;stroke-miterlimit:4;stroke-dasharray:none"
       d="m 5.8050311,291.52114 -1.1140449,-0.0131 -0.042155,-0.0521 c -0.088,-0.10871 -0.080243,-0.23934 0.018034,-0.30374 0.055589,-0.0365 0.2618937,-0.0389 3.6233651,-0.0449 l 3.5644237,-0.006 0.06866,0.0782 c 0.08053,0.0917 0.0867,0.16284 0.02306,0.26583 l -0.04562,0.0738 -1.658139,3e-5 c -0.9119776,2e-5 -2.0328561,0.003 -2.4908424,0.007 -0.4579863,0.004 -1.3340229,0.002 -1.9467466,-0.005 z"
       id="path3374"
       inkscape:connector-curvature="0" />
    <path
       style="fill:#ffffff;stroke-width:0.00082822;stroke-miterlimit:4;stroke-dasharray:none"
       d="M 7.9944043,294.4964 C 7.4613097,294.4452 6.9689658,294.25793 6.466955,293.91556 6.1835911,293.7223 6.1105056,293.69705 6.002337,293.75502 l -0.074269,0.0399 -0.1680829,-0.19556 -0.1680829,-0.19556 0.049615,-0.0671 c 0.075816,-0.10255 0.061153,-0.19477 -0.076472,-0.48088 -0.1194135,-0.24825 -0.258999,-0.63364 -0.2877126,-0.79436 l -0.014684,-0.0822 h 3.0140619 3.0140605 v 0.0754 c 0,0.0947 -0.125247,0.48008 -0.229033,0.70471 -0.115962,0.25099 -0.340252,0.57462 -0.553643,0.79885 -0.5246977,0.55137 -1.1820894,0.86912 -1.9455204,0.94039 -0.2664136,0.0249 -0.2874821,0.0248 -0.5681623,-0.002 z"
       id="path3376"
       inkscape:connector-curvature="0" />
    <path
       style="fill:#ffffff;stroke-width:0.00082822;stroke-miterlimit:4;stroke-dasharray:none"
       d="m 7.4860784,295.3593 c 0.00615,-0.0211 0.027902,-0.12475 0.048355,-0.23034 l 0.037186,-0.19201 0.1777344,0.0167 c 0.097755,0.009 0.4219595,0.0157 0.7204559,0.0144 0.5349215,-0.002 0.542872,-0.002 0.5531322,0.0438 0.043098,0.19117 0.053581,0.25219 0.054052,0.31461 l 5.349e-4,0.0712 h -0.80131 c -0.7527969,0 -0.8006332,-0.002 -0.7901394,-0.0383 z"
       id="path3378"
       inkscape:connector-curvature="0" />
    <path
       style="fill:#ffffff;stroke-width:0.00082822;stroke-miterlimit:4;stroke-dasharray:none"
       d="m 7.3573392,296.03486 -0.2848712,-0.0127 v -0.0548 -0.0548 l 0.2739153,-0.011 c 0.150653,-0.006 0.7053315,-0.007 1.2326182,-0.003 l 0.9587039,0.007 v 0.0638 0.0638 H 8.652959 c -0.4866108,0 -0.9130963,0.003 -0.947747,0.007 -0.034655,0.004 -0.1911926,10e-4 -0.3478728,-0.005 z"
       id="path3380"
       inkscape:connector-curvature="0" />
    <path
       style="fill:#ffffff;stroke-width:0.00082822;stroke-miterlimit:4;stroke-dasharray:none"
       d="m 5.4917527,288.55191 0.015155,-2.06866 0.076605,-0.2377 c 0.195441,-0.60643 0.5083044,-1.07092 0.9839737,-1.46083 0.1760447,-0.14431 0.1635046,-0.14828 0.2934303,0.0927 l 0.0876,0.16249 -0.091412,0.0651 c -0.1289758,0.0917 -0.4587189,0.43407 -0.5747459,0.59666 -0.1322056,0.18528 -0.3067061,0.55677 -0.3608842,0.76828 -0.071964,0.28095 -0.086432,0.69265 -0.08677,2.46882 l -3.258e-4,1.68184 H 5.655495 5.4766119 Z"
       id="path3382"
       inkscape:connector-curvature="0" />
    <path
       style="fill:#ffffff;stroke-width:0.00082822;stroke-miterlimit:4;stroke-dasharray:none"
       d="m 4.2785317,289.68375 c -0.047504,-0.0238 -0.093379,-0.0717 -0.1205232,-0.12598 -0.042053,-0.0841 -0.044113,-0.13923 -0.050999,-1.3641 l -0.00717,-1.27643 h 0.450916 0.450916 v 1.40244 1.40244 l -0.32322,-3e-5 c -0.263819,-2e-5 -0.3373155,-0.007 -0.3999164,-0.0383 z"
       id="path3384"
       inkscape:connector-curvature="0" />
    <path
       style="fill:#ffffff;stroke-width:0.00082822;stroke-miterlimit:4;stroke-dasharray:none"
       d="m 4.1067559,286.17741 c 0.00953,-0.30698 0.034686,-0.38289 0.1568841,-0.47408 0.0577,-0.043 0.093718,-0.0465 0.5423516,-0.0528 0.2643016,-0.004 0.4805488,-0.002 0.4805488,0.003 0,0.005 -0.02574,0.0773 -0.057198,0.16006 -0.031458,0.0828 -0.084762,0.25899 -0.1184523,0.39157 l -0.061256,0.24104 -0.4758096,0.006 -0.4758097,0.006 z"
       id="path3386"
       inkscape:connector-curvature="0" />
    <path
       style="fill:#ffffff;stroke-width:0.00082822;stroke-miterlimit:4;stroke-dasharray:none"
       d="m 7.6312657,285.57504 c -0.1631367,-0.56747 -0.3056005,-0.87733 -0.6398071,-1.39157 -0.3193231,-0.49134 -0.4010395,-0.69584 -0.4274159,-1.06959 -0.034942,-0.49506 0.166839,-0.98148 0.5595324,-1.34887 0.3724837,-0.34849 0.7538554,-0.49395 1.2420893,-0.47378 0.2102876,0.008 0.2757044,0.0216 0.5080913,0.10073 0.2887291,0.0983 0.3485122,0.107 0.4124063,0.0602 0.038087,-0.0279 0.058233,-0.0154 0.2322783,0.14368 0.1835351,0.16775 0.1905214,0.17763 0.1891637,0.26742 -0.00101,0.0666 0.03029,0.16477 0.1096575,0.34389 0.1649238,0.37219 0.1900675,0.48281 0.1889755,0.83135 -0.0013,0.43374 -0.05936,0.58736 -0.4538909,1.20212 -0.2399368,0.37388 -0.4122158,0.72339 -0.5077685,1.03014 -0.1038824,0.33349 -0.1500495,0.45211 -0.1759597,0.45211 -0.012932,0 -0.026396,-0.28162 -0.034573,-0.72313 -0.00738,-0.39773 -0.014766,-0.79539 -0.016436,-0.8837 -0.00277,-0.14626 -0.00871,-0.16625 -0.067096,-0.22461 -0.05024,-0.0502 -0.083686,-0.064 -0.1550786,-0.064 -0.1270535,0 -0.2056437,0.0815 -0.240486,0.2493 -0.023301,0.11224 -0.067783,0.17287 -0.1018433,0.13881 -0.00646,-0.006 -0.026539,-0.0767 -0.044615,-0.15588 -0.04898,-0.21472 -0.1542005,-0.27905 -0.3243604,-0.19831 -0.039317,0.0186 -0.084086,0.0606 -0.099476,0.0931 -0.020176,0.0427 -0.03281,0.29756 -0.045301,0.91381 -0.00953,0.47004 -0.018024,0.85709 -0.018885,0.8601 -8.577e-4,0.003 -0.011005,0.005 -0.022543,0.005 -0.011538,0 -0.041541,-0.0715 -0.066656,-0.15887 z"
       id="path3388"
       inkscape:connector-curvature="0" />
    <path
       style="fill:#ffffff;stroke-width:0.00058564;stroke-miterlimit:4;stroke-dasharray:none"
       d="m 8.2399522,284.8223 c -0.054154,-0.0541 -0.02988,-0.10882 0.048314,-0.10882 0.050886,0 0.065959,0.0199 0.053325,0.0702 -0.014632,0.0583 -0.063428,0.0769 -0.1016383,0.0386 z"
       id="path3390"
       inkscape:connector-curvature="0" />
    <path
       style="fill:#ffffff;stroke-width:0.00058564;stroke-miterlimit:4;stroke-dasharray:none"
       d="m 8.2517248,285.74003 c -0.035505,-0.008 -0.047607,-0.0804 -0.040854,-0.24471 0.00461,-0.11167 0.010544,-0.13724 0.036366,-0.15613 0.016979,-0.0124 0.044871,-0.0206 0.061983,-0.0181 0.029296,0.004 0.031099,0.016 0.031099,0.20411 0,0.18582 -0.00215,0.2004 -0.030986,0.21023 -0.017041,0.006 -0.042965,0.008 -0.057597,0.005 z"
       id="path3392"
       inkscape:connector-curvature="0" />
    <path
       style="fill:#ffffff;stroke-width:0.00058564;stroke-miterlimit:4;stroke-dasharray:none"
       d="m 7.5125357,286.34227 c -0.046213,-0.005 -0.086627,-0.0175 -0.089813,-0.0272 -0.0085,-0.0259 0.5200555,-0.0415 1.1516354,-0.034 0.5097062,0.006 0.6193278,0.0165 0.5620623,0.0534 -0.02409,0.0156 -1.4938417,0.0226 -1.6238863,0.008 z"
       id="path3394"
       inkscape:connector-curvature="0" />
    <path
       style="fill:#ffffff;stroke-width:0.00058564;stroke-miterlimit:4;stroke-dasharray:none"
       d="m 7.5397021,286.9315 c -0.056839,-0.005 -0.1082496,-0.0149 -0.1142532,-0.0209 -0.02492,-0.025 0.010698,-0.0572 0.073357,-0.0663 0.036714,-0.005 0.416794,-0.007 0.8446167,-0.005 0.8198562,0.005 0.8525662,0.008 0.7897931,0.0707 -0.024849,0.0248 -0.085407,0.0272 -0.7585905,0.0292 -0.4023726,10e-4 -0.7780902,-0.002 -0.8349253,-0.008 z"
       id="path3396"
       inkscape:connector-curvature="0" />
    <path
       style="fill:#ffffff;stroke-width:0.00058564;stroke-miterlimit:4;stroke-dasharray:none"
       d="m 7.4649289,287.50424 c -0.063868,-0.0177 -0.057843,-0.06 0.010575,-0.074 0.032493,-0.007 0.4077092,-0.0123 0.8338217,-0.0125 0.6032106,-2.6e-4 0.7824687,0.004 0.8096125,0.0196 0.04566,0.026 0.044092,0.047 -0.00492,0.0657 -0.045312,0.0172 -1.5875018,0.0184 -1.6491263,10e-4 z"
       id="path3398"
       inkscape:connector-curvature="0" />
  </g>
</svg>
