<?xml version="1.0" encoding="UTF-8" standalone="no"?>
<!-- Created with Inkscape (http://www.inkscape.org/) -->

<svg
   xmlns:dc="http://purl.org/dc/elements/1.1/"
   xmlns:cc="http://creativecommons.org/ns#"
   xmlns:rdf="http://www.w3.org/1999/02/22-rdf-syntax-ns#"
   xmlns:svg="http://www.w3.org/2000/svg"
   xmlns="http://www.w3.org/2000/svg"
   xmlns:sodipodi="http://sodipodi.sourceforge.net/DTD/sodipodi-0.dtd"
   xmlns:inkscape="http://www.inkscape.org/namespaces/inkscape"
   width="64"
   height="64"
   viewBox="0 0 16.933333 16.933334"
   version="1.1"
   id="svg8"
   inkscape:version="0.92.5 (2060ec1f9f, 2020-04-08)"
   sodipodi:docname="toilet_tablet_64x64.svg">
  <defs
     id="defs2" />
  <sodipodi:namedview
     id="base"
     pagecolor="#ffffff"
     bordercolor="#666666"
     borderopacity="1.0"
     inkscape:pageopacity="0.0"
     inkscape:pageshadow="2"
     inkscape:zoom="1.979899"
     inkscape:cx="-137.78204"
     inkscape:cy="96.622267"
     inkscape:document-units="mm"
     inkscape:current-layer="layer1"
     showgrid="false"
     units="px"
     inkscape:window-width="1208"
     inkscape:window-height="987"
     inkscape:window-x="1992"
     inkscape:window-y="0"
     inkscape:window-maximized="1" />
  <metadata
     id="metadata5">
    <rdf:RDF>
      <cc:Work
         rdf:about="">
        <dc:format>image/svg+xml</dc:format>
        <dc:type
           rdf:resource="http://purl.org/dc/dcmitype/StillImage" />
        <dc:title></dc:title>
      </cc:Work>
    </rdf:RDF>
  </metadata>
  <g
     inkscape:label="Layer 1"
     inkscape:groupmode="layer"
     id="layer1"
     transform="translate(0,-280.06665)">
    <path
       style="fill:#000000;stroke-width:0.06217495"
       d="m 1.8832904,295.64787 c -0.1848467,-0.18485 -0.1963034,-0.42545 -0.028263,-0.59349 0.1194759,-0.11947 0.20725,-0.12435 2.2390707,-0.12435 h 2.1147205 l 0.2108591,-0.32963 c 0.2529882,-0.39548 0.4884851,-0.94106 0.6140996,-1.4227 l 0.092167,-0.35339 -0.4031912,-0.2358 c -0.7502015,-0.43873 -1.3231081,-1.1977 -1.5393974,-2.03933 -0.1110059,-0.43196 -0.131303,-1.83959 -0.029276,-2.03023 0.036279,-0.0678 0.134201,-0.14919 0.2176119,-0.18091 0.126088,-0.048 0.1516574,-0.0998 0.1516574,-0.3079 v -0.25023 H 5.1858985 c -0.2904968,0 -0.3553789,-0.0228 -0.4663113,-0.16382 -0.1620839,-0.20606 -0.1625707,-0.33613 -0.00206,-0.54023 0.114052,-0.14501 0.1751708,-0.16308 0.6062054,-0.17937 l 0.479365,-0.0181 v -2.05178 -2.05176 l -0.2631851,-0.0191 c -0.4315,-0.0313 -0.6097176,-0.46376 -0.3079254,-0.74728 l 0.1439003,-0.13519 h 3.3270585 3.3270571 l 0.135188,0.1439 c 0.284481,0.30282 0.110946,0.7076 -0.316638,0.73857 l -0.263186,0.0191 v 2.05176 2.05178 l 0.479365,0.0181 c 0.431036,0.0163 0.492153,0.0343 0.606206,0.17937 0.160548,0.2041 0.160061,0.33417 -0.0021,0.54023 -0.110933,0.14103 -0.175815,0.16382 -0.466312,0.16382 h -0.337451 v 0.25065 c 0,0.18257 0.02955,0.26113 0.108805,0.28924 0.305185,0.10823 0.32646,0.17817 0.325681,1.07075 -0.0011,1.24385 -0.205544,1.8605 -0.84636,2.55266 -0.712166,0.76923 -1.286823,1.00572 -2.5648986,1.0556 l -0.8939126,0.0349 -0.1061809,0.40414 c -0.0584,0.22227 -0.1966433,0.61397 -0.3072081,0.87045 -0.1105647,0.25647 -0.2160956,0.50128 -0.2345141,0.54403 -0.02621,0.0609 0.2650027,0.0777 1.3410137,0.0777 0.7559761,0 1.3745016,-0.007 1.3745016,-0.0162 0,-0.009 -0.097392,-0.23973 -0.2164283,-0.51294 -0.1305076,-0.29955 -0.2016368,-0.54613 -0.1791708,-0.62112 0.064973,-0.21685 0.2210767,-0.34196 0.4266861,-0.34196 0.243424,0 0.324565,0.0893 0.618119,0.68036 0.126408,0.25451 0.28576,0.54129 0.35412,0.6373 l 0.12429,0.17454 h 1.447241 c 1.323101,0 1.456066,0.01 1.55014,0.1137 0.141575,0.15644 0.130587,0.48036 -0.02145,0.6324 -0.122633,0.12263 -0.20725,0.12435 -6.1270574,0.12435 H 2.0358193 Z m 7.7771754,-3.61051 c 0.6950492,-0.1778 1.3471222,-0.7633 1.6057542,-1.44181 0.06238,-0.16366 0.128627,-0.54237 0.14721,-0.84158 l 0.03379,-0.54403 H 8.6942718 5.9413259 l 0.031635,0.55483 c 0.036512,0.6404 0.2496185,1.18271 0.6303589,1.60414 0.2460623,0.27237 0.8211783,0.60592 1.196735,0.69409 0.3966249,0.0931 1.4531118,0.0786 1.8604088,-0.0256 z m 1.3224902,-3.99321 -0.0193,-0.23315 H 8.6942745 6.4248892 l -0.019296,0.23315 -0.019296,0.23316 h 2.3079791 2.3079787 z m -0.299084,-3.21755 v -2.08286 H 8.6942736 6.7046753 v 2.08286 2.08286 h 1.9895983 1.9895984 z m -3.2192628,-0.5631 c -0.1024911,-0.0718 -0.1381849,-0.15921 -0.1381849,-0.33844 0,-0.36831 0.1407315,-0.43522 0.9153717,-0.43522 0.720971,0 0.8877023,0.0818 0.8877023,0.43522 0,0.35348 -0.1667313,0.43523 -0.8877023,0.43523 -0.4777197,0 -0.6738805,-0.0244 -0.7771868,-0.0968 z m 7.4471588,11.41263 c -0.158767,-0.15876 -0.164481,-0.50398 -0.01064,-0.6432 0.156439,-0.14157 0.480359,-0.13059 0.632398,0.0214 0.168042,0.16805 0.156585,0.40865 -0.02826,0.5935 -0.184846,0.18484 -0.425445,0.1963 -0.593487,0.0282 z"
       id="path9970"
       inkscape:connector-curvature="0" />
    <path
       style="fill:none;stroke:#000000;stroke-width:0.00704976;stroke-linecap:butt;stroke-linejoin:miter;stroke-miterlimit:4;stroke-dasharray:none;stroke-opacity:1"
       d="m 10.042724,293.67126 -0.3611362,-0.9264"
       id="path9972"
       inkscape:connector-curvature="0" />
    <path
       style="fill:#ffffff;stroke-width:0.00356067;stroke-miterlimit:4;stroke-dasharray:none"
       d="m 7.6909798,294.90146 c -0.1467122,-0.006 -0.2783173,-0.0222 -0.292456,-0.0364 -0.01414,-0.0142 0.051989,-0.21024 0.1469426,-0.43579 0.1580031,-0.37529 0.3478514,-0.93077 0.4269521,-1.24922 l 0.031706,-0.12765 0.7618798,-0.0414 c 0.4190344,-0.0228 0.8102533,-0.043 0.8693761,-0.0451 0.1049444,-0.004 0.1097049,0.002 0.2005976,0.22567 l 0.093103,0.22933 -0.1080272,0.1004 c -0.059413,0.0552 -0.1262502,0.14532 -0.1485235,0.20022 -0.050402,0.12422 -0.00655,0.29073 0.2127475,0.80825 l 0.1506152,0.3554 -0.23519,0.0199 c -0.2317327,0.0196 -1.5895096,0.0173 -2.1097234,-0.004 z"
       id="path9978"
       inkscape:connector-curvature="0" />
    <path
       style="fill:#ffffff;stroke-width:0.00356067;stroke-miterlimit:4;stroke-dasharray:none"
       d="m 7.9577301,292.07674 c -0.4051862,-0.0539 -1.0700777,-0.42167 -1.3697457,-0.75769 -0.3835317,-0.43007 -0.5619107,-0.93859 -0.6105201,-1.74048 l -0.022372,-0.36898 h 2.7363369 2.7363378 l -2.6e-5,0.10206 c -1.5e-5,0.0561 -0.01415,0.2575 -0.03142,0.44749 -0.07329,0.80657 -0.218909,1.14798 -0.689784,1.61733 -0.431012,0.42962 -0.7842653,0.61648 -1.3013954,0.68841 -0.2268082,0.0316 -1.2370807,0.0398 -1.4474188,0.0118 z"
       id="path9980"
       inkscape:connector-curvature="0" />
    <path
       style="fill:#ffffff;stroke-width:0.00356067;stroke-miterlimit:4;stroke-dasharray:none"
       d="m 6.4035502,288.21254 c 1.497e-4,-0.0302 0.00918,-0.12915 0.020076,-0.21982 l 0.019798,-0.16487 H 8.7000723 10.95672 v 0.0742 c 0,0.0408 0.009,0.13969 0.01997,0.21982 l 0.01997,0.1457 H 8.6999647 c -2.166496,0 -2.2966781,-0.003 -2.2964208,-0.055 z"
       id="path9982"
       inkscape:connector-curvature="0" />
    <path
       style="fill:#ffffff;stroke-width:0.00356067;stroke-miterlimit:4;stroke-dasharray:none"
       d="m 6.7173084,284.82885 v -2.05689 h 1.9783945 1.9783951 v 2.05689 2.05691 H 8.6957029 6.7173084 Z m 2.201963,-0.52501 c 0.1589401,-0.069 0.216075,-0.16409 0.216075,-0.35978 0,-0.2047 -0.048824,-0.31538 -0.1657889,-0.37586 -0.217689,-0.11258 -1.1768415,-0.12526 -1.4448266,-0.0191 -0.1436016,0.0569 -0.210764,0.17334 -0.210764,0.36547 0,0.26596 0.099277,0.38588 0.3573588,0.43166 0.2381959,0.0422 1.1220398,0.0122 1.2479457,-0.0424 z"
       id="path9984"
       inkscape:connector-curvature="0" />
  </g>
</svg>
