<?xml version="1.0" encoding="UTF-8" standalone="no"?>
<!-- Created with Inkscape (http://www.inkscape.org/) -->

<svg
   xmlns:dc="http://purl.org/dc/elements/1.1/"
   xmlns:cc="http://creativecommons.org/ns#"
   xmlns:rdf="http://www.w3.org/1999/02/22-rdf-syntax-ns#"
   xmlns:svg="http://www.w3.org/2000/svg"
   xmlns="http://www.w3.org/2000/svg"
   xmlns:sodipodi="http://sodipodi.sourceforge.net/DTD/sodipodi-0.dtd"
   xmlns:inkscape="http://www.inkscape.org/namespaces/inkscape"
   width="64"
   height="64"
   viewBox="0 0 16.933333 16.933334"
   version="1.1"
   id="svg8"
   inkscape:version="0.92.5 (2060ec1f9f, 2020-04-08)"
   sodipodi:docname="toothpaste_64x64.svg">
  <defs
     id="defs2" />
  <sodipodi:namedview
     id="base"
     pagecolor="#ffffff"
     bordercolor="#666666"
     borderopacity="1.0"
     inkscape:pageopacity="0.0"
     inkscape:pageshadow="2"
     inkscape:zoom="2.8"
     inkscape:cx="108.18539"
     inkscape:cy="-4.9819245"
     inkscape:document-units="mm"
     inkscape:current-layer="layer1"
     showgrid="false"
     units="px"
     inkscape:window-width="1208"
     inkscape:window-height="987"
     inkscape:window-x="1992"
     inkscape:window-y="0"
     inkscape:window-maximized="1" />
  <metadata
     id="metadata5">
    <rdf:RDF>
      <cc:Work
         rdf:about="">
        <dc:format>image/svg+xml</dc:format>
        <dc:type
           rdf:resource="http://purl.org/dc/dcmitype/StillImage" />
        <dc:title></dc:title>
      </cc:Work>
    </rdf:RDF>
  </metadata>
  <g
     inkscape:label="Layer 1"
     inkscape:groupmode="layer"
     id="layer1"
     transform="translate(0,-280.06665)">
    <path
       style="fill:#000000;stroke-width:0.0343455"
       d="m 1.1599983,294.65146 c -0.00966,-0.0805 0.091452,-0.25162 0.7006211,-1.18567 l 0.7119483,-1.09162 0.2511849,-1.17177 0.2511907,-1.17178 3.6314611,-4.15471 c 1.9973037,-2.2851 3.7384316,-4.27921 3.8691786,-4.43139 0.22223,-0.25865 0.244509,-0.27683 0.341863,-0.27895 l 0.104135,-0.002 2.456526,2.35093 2.456525,2.35094 0.0023,0.10334 c 0.0022,0.0985 -0.01307,0.11787 -0.325607,0.41336 -0.459331,0.43433 -6.0718156,5.78858 -7.229696,6.89706 l -0.9560762,0.91529 -1.0710818,0.27804 c -0.589095,0.15291 -1.1202114,0.29711 -1.1802564,0.32041 -0.060058,0.0234 -0.5718675,0.37437 -1.1373787,0.78008 -0.7634345,0.54772 -1.0524039,0.73941 -1.1221903,0.74443 -0.090933,0.006 -0.1208689,-0.0189 -0.9186243,-0.78247 -0.7486977,-0.71651 -0.8257787,-0.79777 -0.8359934,-0.88322 z m 0.7645411,0.0899 c 0.016077,-0.0173 0.2958309,-0.3539 0.6216594,-0.74805 0.3258266,-0.39414 0.6109183,-0.73634 0.6335317,-0.76045 0.035503,-0.0379 0.015574,-0.0683 -0.1449946,-0.22193 -0.1023489,-0.098 -0.1955754,-0.1682 -0.207139,-0.15612 -0.021569,0.0225 -1.0156417,1.53861 -1.0891144,1.66102 -0.033902,0.0564 -0.024142,0.0839 0.058008,0.16247 0.062716,0.06 0.1094843,0.0831 0.128056,0.0631 z m 0.530604,0.46021 c 0.079294,-0.0555 1.2489274,-1.12509 1.3717604,-1.25431 l 0.088729,-0.0934 -0.173694,-0.16623 C 3.5357097,293.49 3.6357493,293.42008 2.95243,294.23912 c -0.7431589,0.89076 -0.7197968,0.85617 -0.6339544,0.93833 0.05503,0.0527 0.087507,0.0583 0.1366843,0.0238 z m 1.2991569,-0.005 c 0.4377153,-0.31322 0.8149925,-0.58861 0.8383893,-0.61196 0.036547,-0.0365 0.018057,-0.0659 -0.1319436,-0.20944 -0.1174687,-0.11235 -0.1875779,-0.16011 -0.2145803,-0.14598 -0.022061,0.0115 -0.3085038,0.26693 -0.6365085,0.56746 -0.3280044,0.30054 -0.6596357,0.59952 -0.7369564,0.6644 l -0.1405835,0.11795 0.1131644,0.0936 0.1131735,0.0935 z m 2.1977469,-1.10565 0.8396212,-0.21856 -0.8358761,-0.81248 C 5.4958272,292.61325 4.7380052,291.888 4.2717427,291.44822 l -0.8481723,-0.79918 -0.1436563,0.67069 c -0.079009,0.36887 -0.1616213,0.75534 -0.1835781,0.85882 l -0.039925,0.18812 1.028015,0.9714 1.0280164,0.97139 z m 1.5183518,-0.60299 c 0.2289435,-0.20349 6.78088,-6.45877 6.93793,-6.6238 l 0.112465,-0.11817 -2.158765,-2.06597 -2.158767,-2.06596 -0.101163,0.10521 c -0.1520418,0.15814 -6.1428133,7.01046 -6.3247767,7.23436 l -0.1575568,0.19387 1.8319508,1.75322 1.8319567,1.7532 z m -0.4402942,-4.46612 c -0.065827,-0.13309 -0.078421,-0.34583 -0.02794,-0.47213 0.021186,-0.053 0.169689,-0.30962 0.3300648,-0.5704 0.2395973,-0.38959 0.2962298,-0.50685 0.3175599,-0.65753 0.049306,-0.3481 0.147344,-0.56746 0.3470003,-0.77614 0.2447663,-0.25586 0.4824454,-0.36575 0.8374141,-0.38725 0.5065319,-0.0307 0.9863763,0.23417 1.1962391,0.66019 l 0.09686,0.19654 0.200616,0.0881 c 0.409064,0.17964 0.698491,0.62732 0.715671,1.10694 0.02394,0.66823 -0.400701,1.15792 -1.1226774,1.29469 -0.1379483,0.0262 -0.2713699,0.0997 -0.6832519,0.37649 -0.2815156,0.18922 -0.5579026,0.35468 -0.6141884,0.3677 -0.2208106,0.0511 -0.4894036,-0.0682 -0.612478,-0.27105 -0.1011529,-0.16712 -0.1135795,-0.34056 -0.040022,-0.55859 0.033943,-0.10061 0.054373,-0.18997 0.04539,-0.19857 -0.00892,-0.009 -0.097378,0.0156 -0.1963734,0.0541 -0.2102976,0.0814 -0.3860172,0.0785 -0.5493006,-0.009 -0.1424408,-0.0763 -0.1731162,-0.10761 -0.2405841,-0.24396 z m 0.5741798,-0.17834 c 0.058828,-0.013 0.2653482,-0.0774 0.4589597,-0.14312 l 0.3520183,-0.11946 0.1116544,0.10691 0.1116659,0.10681 -0.1226281,0.42619 c -0.1910556,0.66401 -0.1482733,0.69138 0.4397486,0.28139 0.5040058,-0.35141 0.6040829,-0.40325 0.9012824,-0.46684 0.5373322,-0.11499 0.7971412,-0.47551 0.6994822,-0.97065 -0.03221,-0.16327 -0.05196,-0.19411 -0.23913,-0.37325 -0.186371,-0.17836 -0.216717,-0.19603 -0.3504221,-0.20461 -0.1874888,-0.012 -0.2686816,-0.0929 -0.3165812,-0.31573 -0.086803,-0.40363 -0.5766715,-0.65746 -0.9903001,-0.51319 -0.1928042,0.0672 -0.3657163,0.21081 -0.4389467,0.36443 -0.033158,0.0696 -0.081737,0.24653 -0.1079377,0.39322 -0.042329,0.23703 -0.078876,0.31845 -0.3283943,0.73158 -0.15442,0.25568 -0.2970951,0.48242 -0.3170539,0.50385 -0.044125,0.0473 -0.045208,0.14449 -0.00204,0.18582 0.017419,0.0166 0.079781,0.0199 0.1386267,0.007 z m 7.4426674,-2.5796 c 0.09686,-0.0838 0.205579,-0.18299 0.24159,-0.22042 l 0.06548,-0.068 -2.211982,-2.11689 -2.21198,-2.1169 -0.14447,0.18263 c -0.07946,0.10044 -0.173783,0.21342 -0.209604,0.25103 l -0.06512,0.0684 2.179991,2.08627 2.17999,2.08629 z"
       id="path164"
       inkscape:connector-curvature="0" />
    <path
       style="fill:#ffffff;stroke-width:0.00185443;stroke-miterlimit:4;stroke-dasharray:none"
       d="m 3.964479,289.77969 c 0.5187018,-0.6168 5.8996745,-6.77416 6.133731,-7.01873 l 0.117626,-0.1229 2.144586,2.05239 c 1.179523,1.12883 2.133083,2.06433 2.119056,2.07888 -0.128858,0.13365 -5.8769294,5.61801 -6.7339947,6.42507 L 7.2894322,293.62384 5.4726946,291.8852 3.65596,290.14656 Z m 3.5457982,-0.43587 c 0.093535,0.001 0.2384538,-0.0212 0.3220883,-0.0497 l 0.1520446,-0.0516 -0.052555,0.25061 c -0.078713,0.37537 0.050082,0.61839 0.3990189,0.75279 0.2151441,0.0829 0.2651914,0.0644 0.8913878,-0.32822 0.319829,-0.20055 0.6550726,-0.36901 0.8670252,-0.43568 0.739459,-0.23261 1.087325,-0.79646 0.933683,-1.51336 -0.08282,-0.38644 -0.279279,-0.65046 -0.634606,-0.85283 -0.228483,-0.13014 -0.294219,-0.18705 -0.325026,-0.28126 -0.0212,-0.065 -0.1348908,-0.21162 -0.2525421,-0.32592 -0.2603845,-0.25241 -0.5728488,-0.37654 -0.9307689,-0.36868 -0.4081371,0.009 -0.5614659,0.0794 -0.8683611,0.39897 -0.2516953,0.26209 -0.2785727,0.30971 -0.3619371,0.64111 -0.059229,0.23546 -0.1853541,0.52152 -0.3685186,0.8358 -0.3079203,0.52835 -0.3638563,0.69287 -0.3107133,0.91384 0.049582,0.20611 0.3172074,0.41145 0.5398061,0.41416 z"
       id="path166"
       inkscape:connector-curvature="0" />
    <path
       style="fill:#ffffff;stroke-width:0.00185443;stroke-miterlimit:4;stroke-dasharray:none"
       d="m 7.5925345,288.50175 c 0.3287841,-0.51781 0.4556095,-0.77981 0.5660441,-1.1694 0.094505,-0.3334 0.1388636,-0.42082 0.2562037,-0.50494 0.4625403,-0.33154 1.0268711,-0.17959 1.2024585,0.32381 0.093413,0.26781 0.1295102,0.30224 0.3989082,0.38069 0.519256,0.15103 0.708169,0.81798 0.340733,1.20311 -0.103882,0.10891 -0.255759,0.18881 -0.5343403,0.28117 -0.2140493,0.0709 -0.4965609,0.20447 -0.6277787,0.29665 -0.426999,0.3 -0.7031928,0.44649 -0.7339907,0.38932 -0.016157,-0.0301 0.024105,-0.25334 0.089465,-0.49623 0.1104982,-0.41051 0.1108827,-0.44927 0.00544,-0.55019 -0.1059102,-0.10137 -0.1422899,-0.099 -0.5481179,0.0354 -0.5447893,0.1804 -0.6262687,0.14326 -0.4151165,-0.18929 z"
       id="path168"
       inkscape:connector-curvature="0" />
    <path
       style="fill:#ffffff;stroke-width:0.00185443;stroke-miterlimit:4;stroke-dasharray:none"
       d="m 10.734367,282.01358 0.208692,-0.24186 2.188821,2.09489 2.188827,2.09488 -0.166847,0.17434 c -0.302131,0.3157 -0.04993,0.50107 -2.472687,-1.81755 l -2.155494,-2.06283 z"
       id="path170"
       inkscape:connector-curvature="0" />
    <path
       style="fill:#ffffff;stroke-width:0.00185443;stroke-miterlimit:4;stroke-dasharray:none"
       d="m 3.2555991,291.55364 0.1795736,-0.83735 0.8446809,0.79016 c 0.4643871,0.43477 1.2048052,1.14336 1.6453731,1.57465 l 0.8006906,0.78449 -0.755422,0.19388 c -0.4154769,0.10664 -0.7694205,0.19981 -0.7865307,0.20706 -0.017121,0.007 -0.4983821,-0.41181 -1.0695302,-0.93117 L 3.0760296,292.391 Z"
       id="path172"
       inkscape:connector-curvature="0" />
    <path
       style="fill:#ffffff;stroke-width:0.00185443;stroke-miterlimit:4;stroke-dasharray:none"
       d="m 1.8114653,294.44265 c 0.04031,-0.0642 0.281448,-0.43337 0.5358322,-0.82055 0.5009362,-0.76244 0.5117992,-0.77133 0.7114524,-0.58242 0.052745,0.0499 0.089907,0.11895 0.082574,0.1534 -0.010129,0.0475 -0.9368107,1.20337 -1.1904734,1.4848 -0.022609,0.025 -0.079694,0.009 -0.1268871,-0.0364 -0.065119,-0.0624 -0.06813,-0.1102 -0.012486,-0.19869 z"
       id="path174"
       inkscape:connector-curvature="0" />
    <path
       style="fill:#ffffff;stroke-width:0.00185443;stroke-miterlimit:4;stroke-dasharray:none"
       d="m 2.3797082,294.98647 c 0.1362382,-0.21162 1.096333,-1.34643 1.1675754,-1.38004 0.092846,-0.0438 0.3762188,0.21924 0.3101679,0.28825 -0.1244029,0.12998 -1.2137468,1.11873 -1.3259245,1.20347 -0.1577473,0.11916 -0.2547062,0.0481 -0.1520032,-0.11146 z"
       id="path176"
       inkscape:connector-curvature="0" />
    <path
       style="fill:#ffffff;stroke-width:0.00185443;stroke-miterlimit:4;stroke-dasharray:none"
       d="m 2.8733342,295.49283 c 0.060809,-0.0618 1.3397139,-1.20499 1.3743302,-1.22842 0.03523,-0.0239 0.3077517,0.20353 0.3089517,0.25774 0.00101,0.0451 -0.2628301,0.25832 -0.7720374,0.624 -0.4254528,0.30552 -0.7820625,0.5644 -0.7924706,0.57527 -0.010376,0.0108 -0.058783,-0.0184 -0.1075105,-0.0651 -0.068574,-0.0657 -0.071136,-0.10264 -0.011249,-0.16354 z"
       id="path178"
       inkscape:connector-curvature="0" />
  </g>
</svg>
