<?xml version="1.0" encoding="UTF-8" standalone="no"?>
<!-- Created with Inkscape (http://www.inkscape.org/) -->

<svg
   xmlns:dc="http://purl.org/dc/elements/1.1/"
   xmlns:cc="http://creativecommons.org/ns#"
   xmlns:rdf="http://www.w3.org/1999/02/22-rdf-syntax-ns#"
   xmlns:svg="http://www.w3.org/2000/svg"
   xmlns="http://www.w3.org/2000/svg"
   xmlns:sodipodi="http://sodipodi.sourceforge.net/DTD/sodipodi-0.dtd"
   xmlns:inkscape="http://www.inkscape.org/namespaces/inkscape"
   width="64"
   height="64"
   viewBox="0 0 16.933333 16.933334"
   version="1.1"
   id="svg8"
   inkscape:version="0.92.5 (2060ec1f9f, 2020-04-08)"
   sodipodi:docname="torso_64x64.svg">
  <defs
     id="defs2" />
  <sodipodi:namedview
     id="base"
     pagecolor="#ffffff"
     bordercolor="#666666"
     borderopacity="1.0"
     inkscape:pageopacity="0.0"
     inkscape:pageshadow="2"
     inkscape:zoom="7.9195959"
     inkscape:cx="16.147878"
     inkscape:cy="57.429139"
     inkscape:document-units="mm"
     inkscape:current-layer="layer1"
     showgrid="false"
     units="px"
     inkscape:window-width="1208"
     inkscape:window-height="987"
     inkscape:window-x="1992"
     inkscape:window-y="0"
     inkscape:window-maximized="1" />
  <metadata
     id="metadata5">
    <rdf:RDF>
      <cc:Work
         rdf:about="">
        <dc:format>image/svg+xml</dc:format>
        <dc:type
           rdf:resource="http://purl.org/dc/dcmitype/StillImage" />
        <dc:title></dc:title>
      </cc:Work>
    </rdf:RDF>
  </metadata>
  <g
     inkscape:label="Layer 1"
     inkscape:groupmode="layer"
     id="layer1"
     transform="translate(0,-280.06665)">
    <path
       style="fill:#000000;stroke-width:0.02950881"
       d="m 4.2885673,295.95108 c -0.122133,-0.0532 -0.273046,-0.2323 -0.2951777,-0.35027 -0.010038,-0.0537 0.022344,-0.53529 0.072031,-1.07031 0.049687,-0.53504 0.1034837,-1.21179 0.1195528,-1.50393 0.03639,-0.66129 0.039145,-1.48214 0.00478,-1.44446 -0.014014,0.0159 -0.1157153,0.25377 -0.2259417,0.52968 -0.4011445,1.00402 -0.5033194,1.16455 -0.807089,1.26805 -0.1779787,0.0607 -0.2265707,0.0585 -0.9150688,-0.0414 -0.6458384,-0.0938 -0.7994686,-0.14412 -0.9369838,-0.3067 -0.1297612,-0.15352 -0.1809362,-0.30795 -0.2511725,-0.75801 -0.0570614,-0.36566 -0.0666954,-0.54256 -0.0666954,-1.22416 0,-0.68026 0.009715,-0.85883 0.066314,-1.22147 0.089263,-0.57171 0.2634175,-1.24014 0.4575033,-1.75591 l 0.1601453,-0.42557 -0.1293628,-0.52359 c -0.1592648,-0.64467 -0.2013431,-0.96957 -0.1755517,-1.35554 0.061408,-0.91892 0.3875234,-1.67205 0.9985359,-2.30598 0.5050107,-0.52395 0.9375397,-0.77025 1.9541702,-1.11282 0.7733509,-0.26057 1.0071406,-0.35235 1.4087008,-0.55303 0.3884297,-0.19414 0.6515573,-0.36895 0.9039209,-0.60054 0.335541,-0.30794 0.2631022,-0.29659 1.8923841,-0.29659 1.6110828,0 1.5625388,-0.006 1.8630818,0.26929 0.51487,0.47333 1.158096,0.79423 2.415695,1.2052 0.893038,0.29183 1.389558,0.57923 1.880401,1.08849 0.609361,0.63223 0.93678,1.38843 0.998427,2.30598 0.02593,0.38592 -0.01606,0.71047 -0.175445,1.35554 l -0.129362,0.52359 0.160145,0.42557 c 0.194087,0.51577 0.368247,1.1842 0.457504,1.75591 0.05661,0.36264 0.06631,0.54121 0.06631,1.22147 0,1.24212 -0.109633,1.81958 -0.389189,2.05003 -0.152152,0.12549 -0.294558,0.1629 -0.972419,0.25594 -0.678356,0.0932 -0.766051,0.0855 -1.009605,-0.0882 -0.161219,-0.11503 -0.27414,-0.32926 -0.593235,-1.12597 -0.117,-0.29213 -0.224277,-0.54377 -0.238381,-0.55918 -0.03442,-0.0376 -0.03175,0.78157 0.0047,1.44446 0.01606,0.29214 0.06988,0.96889 0.119571,1.50393 0.04969,0.535 0.08209,1.01664 0.07203,1.07031 -0.02275,0.12125 -0.174956,0.29858 -0.301694,0.35152 -0.139445,0.0583 -8.3298064,0.057 -8.4636095,-10e-4 z m 8.2656727,-0.6302 c -0.167246,-1.58616 -0.239348,-2.79784 -0.213786,-3.5927 0.02107,-0.65515 0.06095,-0.99818 0.221259,-1.90332 0.228037,-1.28748 0.283861,-1.77397 0.284438,-2.47872 4.57e-4,-0.55762 -0.0078,-0.67155 -0.06807,-0.94077 -0.14067,-0.6283 -0.401409,-1.21144 -0.740438,-1.65603 -0.223808,-0.29348 -0.246861,-0.40251 -0.110018,-0.52021 0.154653,-0.13299 0.291302,-0.0755 0.511172,0.21501 0.303337,0.40084 0.508202,0.79386 0.677453,1.29968 0.16898,0.50498 0.219391,0.8111 0.237138,1.44001 0.01385,0.49285 0.0063,0.63561 -0.0627,1.18036 -0.04319,0.34081 -0.131274,0.93054 -0.195738,1.31049 l -0.117211,0.69082 0.09377,0.28296 c 0.302976,0.91433 0.826234,2.16791 0.934524,2.23887 0.06746,0.0441 0.114118,0.0417 0.666449,-0.0347 0.326647,-0.0452 0.622597,-0.1005 0.657667,-0.12274 0.08275,-0.0525 0.114565,-0.15798 0.177691,-0.58848 0.073,-0.49796 0.07271,-1.65955 -5.23e-4,-2.15415 -0.102465,-0.69182 -0.265342,-1.30323 -0.508101,-1.90727 -0.07215,-0.17954 -0.131194,-0.35893 -0.131194,-0.39865 0,-0.0396 0.05405,-0.28718 0.12013,-0.54995 0.170651,-0.67878 0.178549,-0.73045 0.176889,-1.15733 -0.0034,-0.8703 -0.284566,-1.58634 -0.85555,-2.17866 -0.443322,-0.45986 -0.819695,-0.66972 -1.752714,-0.97733 -1.220322,-0.40229 -1.930191,-0.75538 -2.428958,-1.20813 -0.09962,-0.0904 -0.2166638,-0.17793 -0.2601232,-0.19444 -0.107049,-0.0407 -2.5810607,-0.0407 -2.6881136,0 -0.043461,0.0165 -0.1605149,0.10398 -0.2601225,0.19444 -0.4895328,0.44437 -1.3616298,0.87638 -2.4680356,1.22258 -0.7899214,0.24718 -1.1923702,0.46439 -1.6273438,0.87832 -0.560785,0.53367 -0.8716319,1.20212 -0.9374951,2.01602 -0.033984,0.41992 -4.682e-4,0.70406 0.1589526,1.34787 0.073544,0.29697 0.1337106,0.57121 0.1337106,0.6094 0,0.0383 -0.060039,0.2188 -0.133408,0.40138 -0.2447688,0.60904 -0.4012481,1.19742 -0.5057736,1.90175 -0.073369,0.49438 -0.073703,1.65574 -6.355e-4,2.15415 0.063129,0.43058 0.094948,0.53596 0.1776937,0.58848 0.035068,0.0224 0.3310182,0.0775 0.6576663,0.12274 0.5523192,0.0767 0.5989841,0.079 0.6664477,0.0347 0.1082143,-0.0708 0.6315597,-1.32455 0.9340902,-2.23756 l 0.093339,-0.28168 -0.1167663,-0.69211 c -0.064227,-0.38066 -0.1521045,-0.97098 -0.1953041,-1.31179 -0.068496,-0.54043 -0.076665,-0.69143 -0.063957,-1.18036 0.015607,-0.60153 0.067365,-0.93064 0.2179312,-1.38692 0.1756839,-0.53236 0.3783598,-0.92643 0.6874008,-1.33656 0.2332419,-0.30955 0.3635047,-0.36728 0.5216736,-0.23122 0.136848,0.11765 0.1138034,0.22673 -0.1100132,0.52021 -0.3390302,0.44459 -0.5997643,1.02773 -0.7404392,1.65603 -0.060278,0.26922 -0.068528,0.38315 -0.068066,0.94077 5.797e-4,0.70483 0.05644,1.19162 0.2844663,2.47872 0.164184,0.92677 0.1984526,1.22552 0.2200204,1.91809 0.022424,0.72017 -0.015925,1.49868 -0.1364496,2.77382 -0.04835,0.51124 -0.087972,0.93948 -0.088068,0.95166 -8.76e-5,0.0127 1.8203577,0.0221 4.0454401,0.0221 h 4.0456018 z m -5.6483927,-0.86521 c -0.4165779,-0.082 -0.8904671,-0.47309 -0.8904671,-0.73492 0,-0.12757 0.114027,-0.23679 0.2472023,-0.23679 0.08751,0 0.1223392,0.0233 0.2403843,0.16157 0.088848,0.10398 0.1974606,0.19077 0.3047475,0.24345 0.1562452,0.0768 0.1907479,0.0819 0.5503172,0.0819 0.428312,0 0.5274434,-0.0313 0.7140936,-0.22611 0.1503527,-0.15686 0.1937084,-0.29507 0.2091036,-0.66653 0.00764,-0.18258 0.00701,-0.33198 -0.00139,-0.33198 -0.00829,0 -0.100394,0.0399 -0.2045727,0.0887 -0.3262675,0.15273 -0.9341061,0.18617 -1.3167293,0.0724 -0.3462302,-0.10287 -0.7431497,-0.47523 -0.7431497,-0.69726 0,-0.2302 0.2859139,-0.31952 0.4379165,-0.13679 0.2780579,0.33423 0.4026702,0.38996 0.8752247,0.39145 0.4089895,10e-4 0.5284325,-0.0306 0.7020428,-0.18689 0.1820542,-0.16397 0.2356674,-0.31436 0.2512044,-0.70466 0.014173,-0.35492 0.00175,-0.38281 -0.126576,-0.28579 -0.1397783,0.1056 -0.4221424,0.16038 -0.8271457,0.16038 -0.5479555,0 -0.8095638,-0.0891 -1.092315,-0.37179 -0.2415884,-0.24158 -0.2843595,-0.42485 -0.129554,-0.5551 0.1471676,-0.12386 0.2323963,-0.0959 0.4510153,0.14826 0.085122,0.095 0.1912701,0.17506 0.2867229,0.21613 0.1365453,0.0588 0.1916827,0.0642 0.5564565,0.0555 0.3852126,-0.01 0.4108894,-0.0128 0.5282349,-0.0913 0.1639851,-0.10857 0.2885735,-0.28645 0.3273251,-0.46714 0.017391,-0.081 0.031628,-0.35037 0.031628,-0.59829 0,-0.43304 0.00271,-0.45332 0.068304,-0.51495 0.093594,-0.0879 0.2550457,-0.086 0.3396836,0.005 0.06004,0.0639 0.064165,0.097 0.064165,0.51496 0,0.24565 0.014175,0.51302 0.031629,0.59414 0.038747,0.1807 0.1633401,0.35851 0.327325,0.46715 0.1173601,0.0778 0.1430273,0.0821 0.5282348,0.0913 0.3651882,0.007 0.4198122,0.004 0.5570132,-0.0559 0.0964,-0.0414 0.202944,-0.12187 0.290861,-0.21945 0.215965,-0.23973 0.315633,-0.26599 0.470716,-0.12411 0.221346,0.20258 -0.170646,0.69303 -0.681332,0.85244 -0.250847,0.0784 -0.8858462,0.0759 -1.1455255,-0.005 -0.1033718,-0.0321 -0.2143279,-0.078 -0.2465556,-0.10237 -0.1283595,-0.097 -0.1407179,-0.0691 -0.1265768,0.28579 0.015603,0.39029 0.069147,0.54069 0.2512068,0.70466 0.1736078,0.15639 0.2930512,0.18816 0.7020413,0.18689 0.4725538,-0.001 0.5971668,-0.0571 0.8752248,-0.39145 0.06379,-0.0768 0.100104,-0.0943 0.194039,-0.0943 0.141738,0 0.243878,0.0944 0.243878,0.22554 0,0.19519 -0.307678,0.51823 -0.628972,0.66034 -0.355355,0.15719 -1.0610775,0.14302 -1.4279176,-0.0287 -0.1058191,-0.0496 -0.199378,-0.0899 -0.2078977,-0.0899 -0.00857,0 -0.00907,0.15607 -0.00114,0.34672 0.015603,0.37786 0.057668,0.50589 0.2190896,0.66729 0.1794739,0.17949 0.2835103,0.21058 0.704188,0.21058 0.3595687,0 0.3940627,-0.005 0.5503167,-0.0819 0.107285,-0.0527 0.215904,-0.1395 0.304746,-0.24346 0.118044,-0.13823 0.152869,-0.16157 0.240387,-0.16157 0.133169,0 0.2472,0.1092 0.2472,0.23679 0,0.18937 -0.282213,0.48978 -0.594396,0.63269 -0.207954,0.0953 -0.414944,0.13377 -0.7173539,0.13377 -0.4711797,0 -0.7767222,-0.10012 -1.0472493,-0.34343 l -0.1492541,-0.13425 -0.1492539,0.13425 c -0.1797943,0.16166 -0.3947043,0.26768 -0.6307776,0.31117 -0.2014291,0.0371 -0.6507834,0.0374 -0.8377553,6.7e-4 z m -1.037176,-5.56215 c -0.5329059,-0.11541 -1.1221689,-0.4882 -1.1221689,-0.70969 0,-0.0967 0.1493334,-0.24753 0.2451238,-0.24753 0.039941,0 0.157153,0.0578 0.2604713,0.12868 0.7250058,0.49625 1.3147466,0.49845 2.0010391,0.007 0.2193516,-0.15686 0.3223307,-0.17214 0.4308329,-0.0637 0.1176421,0.11765 0.100394,0.26291 -0.047219,0.39788 -0.4564873,0.41726 -1.1756882,0.61532 -1.7680806,0.48689 z m 4.6320487,0.0253 c -0.399439,-0.0691 -0.8466176,-0.28325 -1.1152514,-0.53419 -0.1216709,-0.11367 -0.1307484,-0.26733 -0.022187,-0.37589 0.1085025,-0.10845 0.2114818,-0.0933 0.4308323,0.0637 0.6862931,0.49098 1.2760331,0.48878 2.0010411,-0.007 0.221206,-0.15145 0.302091,-0.15959 0.419338,-0.0424 0.111434,0.11144 0.110018,0.20923 -0.005,0.34017 -0.106999,0.12187 -0.449696,0.34115 -0.664572,0.42525 -0.310323,0.1215 -0.767362,0.17869 -1.044254,0.1309 z m -4.8542001,-1.51688 c -0.1529805,-0.0871 -0.1816082,-0.27525 -0.060357,-0.39648 0.068496,-0.0684 0.09084,-0.0724 0.411477,-0.0724 0.3141642,0 0.3450151,0.005 0.4203667,0.0699 0.1051247,0.0904 0.1124344,0.25431 0.015607,0.3512 -0.058972,0.0591 -0.099439,0.0666 -0.3968923,0.0735 -0.2078662,0.005 -0.3532136,-0.005 -0.3902515,-0.0258 z m 5.0312521,-0.005 c -0.160268,-0.0811 -0.179592,-0.29272 -0.03696,-0.4049 0.06435,-0.0507 0.120019,-0.0586 0.411148,-0.0586 0.318154,0 0.340706,0.005 0.409144,0.0724 0.11941,0.1195 0.09561,0.31194 -0.04772,0.38605 -0.106876,0.0553 -0.629207,0.0588 -0.735611,0.005 z m -4.5382826,-3.54879 c -0.1950207,-0.0526 -0.4590179,-0.18035 -0.553805,-0.26819 -0.098436,-0.0912 -0.098212,-0.25249 4.794e-4,-0.35117 0.098818,-0.0988 0.183618,-0.0912 0.4316132,0.0383 0.2001168,0.10448 0.226894,0.11069 0.483677,0.11069 0.255684,0 0.284815,-0.006 0.4904324,-0.11082 0.2711733,-0.13743 0.35057,-0.1403 0.4546639,-0.0165 0.091237,0.10845 0.084978,0.22783 -0.017693,0.33711 -0.078433,0.0835 -0.3866173,0.23528 -0.5577242,0.27469 -0.1859637,0.0429 -0.5463039,0.036 -0.7316467,-0.0143 z m 4.0277366,0.0143 c -0.3065365,-0.0722 -0.6402966,-0.30586 -0.6402966,-0.44839 0,-0.10771 0.1343001,-0.25696 0.2313163,-0.25712 0.043195,-9e-5 0.1768973,0.0497 0.2971283,0.11069 0.205618,0.1041 0.234746,0.11081 0.490433,0.11081 0.256783,0 0.283559,-0.006 0.483676,-0.11069 0.247995,-0.12947 0.33279,-0.13711 0.431615,-0.0383 0.101434,0.10149 0.09899,0.25989 -0.0056,0.35674 -0.258453,0.23951 -0.878993,0.37258 -1.288363,0.27622 z"
       id="path648"
       inkscape:connector-curvature="0" />
    <path
       style="fill:#ffffff;stroke-width:0.00112662;stroke-miterlimit:4;stroke-dasharray:none"
       d="m 4.6269319,295.45473 -0.1303503,-0.0112 0.01919,-0.19933 c 0.1392527,-1.44683 0.1732409,-1.95138 0.1882029,-2.79365 0.020322,-1.14424 -0.00175,-1.41157 -0.2303259,-2.78608 -0.2245625,-1.35049 -0.2486116,-1.57641 -0.2506787,-2.35485 -0.00139,-0.52441 0.00844,-0.68422 0.053844,-0.87936 0.1301593,-0.55879 0.4191405,-1.22478 0.6926611,-1.59634 0.1650759,-0.22423 0.2498459,-0.38194 0.2498459,-0.46479 0,-0.079 -0.1589526,-0.21928 -0.2482072,-0.21901 -0.1410044,4.4e-4 -0.3024031,0.16301 -0.5697032,0.57386 -0.2121852,0.32617 -0.3657008,0.65667 -0.5042209,1.08554 -0.1432181,0.44345 -0.1908879,0.73672 -0.2150899,1.32341 -0.026309,0.63764 0.032536,1.19478 0.2867818,2.71539 l 0.088052,0.52665 -0.1602536,0.45704 c -0.3504266,0.99939 -0.7948933,2.02295 -0.8951396,2.06142 -0.054226,0.0209 -0.5847753,-0.0411 -1.0067997,-0.11739 -0.1675317,-0.0303 -0.2761612,-0.0661 -0.3083705,-0.10175 -0.1357332,-0.15002 -0.2301317,-1.43797 -0.1665984,-2.273 0.056679,-0.74497 0.2335477,-1.51296 0.5229651,-2.2708 0.074866,-0.19604 0.1361313,-0.40034 0.1361313,-0.45396 0,-0.0537 -0.053462,-0.32531 -0.1188198,-0.60372 -0.1599384,-0.68138 -0.1949824,-0.996 -0.1539202,-1.38198 0.1065733,-1.00189 0.5750289,-1.79266 1.3756538,-2.32211 0.3171312,-0.20975 0.4745404,-0.27947 1.1626819,-0.5151 1.2111813,-0.41474 1.9352316,-0.76523 2.3990415,-1.16131 0.082176,-0.0702 0.2015962,-0.16298 0.2653635,-0.20624 l 0.1159377,-0.0786 h 1.2756606 c 0.8183343,0 1.3051557,0.0112 1.3579361,0.0312 0.045245,0.0171 0.1702018,0.10671 0.2776678,0.19873 0.527285,0.45191 1.051437,0.71402 2.312488,1.15647 1.047335,0.36746 1.391995,0.55321 1.80848,0.97463 0.265198,0.26836 0.444279,0.52461 0.602856,0.86262 0.196906,0.41971 0.257891,0.69812 0.276517,1.26242 0.0145,0.44049 0.0097,0.50258 -0.06209,0.81228 -0.04281,0.18443 -0.111571,0.48182 -0.152791,0.66082 l -0.07495,0.32547 0.107733,0.29306 c 0.463784,1.26144 0.581419,1.88429 0.581419,3.07841 0,0.81126 -0.05096,1.34923 -0.146993,1.55175 -0.04681,0.0988 -0.06243,0.10684 -0.289475,0.15226 -0.451768,0.0903 -0.996617,0.14811 -1.062596,0.1128 -0.10572,-0.0565 -0.575265,-1.14831 -0.918678,-2.13601 l -0.127117,-0.3656 0.122789,-0.75223 c 0.210565,-1.28998 0.246194,-1.61675 0.245317,-2.24976 -5.09e-4,-0.36688 -0.0179,-0.68868 -0.04829,-0.89326 -0.05619,-0.37845 -0.252593,-0.99546 -0.429756,-1.35014 -0.257757,-0.51602 -0.627016,-0.98369 -0.7767,-0.98369 -0.08497,0 -0.226514,0.077 -0.248945,0.13553 -0.05009,0.13059 -0.01275,0.22129 0.231,0.56098 0.298387,0.41589 0.572914,1.06259 0.688998,1.6231 0.06158,0.29734 0.0608,1.3451 -0.0014,1.88344 -0.02558,0.22132 -0.118342,0.83165 -0.206149,1.35628 -0.216355,1.2927 -0.236453,1.50268 -0.233972,2.44428 0.0021,0.79907 0.04739,1.56138 0.160292,2.69767 0.03175,0.31969 0.05784,0.59131 0.05794,0.60361 1.79e-4,0.0221 -7.6754937,0.0226 -7.9250577,3.4e-4 z m 3.3347529,-1.04635 c 0.1608891,-0.062 0.2439184,-0.11342 0.4582487,-0.28363 l 0.1071633,-0.0852 0.1420714,0.11839 c 0.2877689,0.23984 0.5787094,0.33507 1.0236095,0.33507 0.5208803,0 0.8050073,-0.0948 1.0887683,-0.36314 0.193484,-0.18297 0.250414,-0.27918 0.250414,-0.42315 0,-0.0764 -0.02059,-0.11976 -0.07854,-0.16541 -0.139507,-0.1097 -0.2342,-0.0832 -0.458062,0.12788 -0.253961,0.23958 -0.383793,0.28726 -0.7819812,0.28726 -0.4076087,0 -0.5418057,-0.039 -0.7083883,-0.20641 -0.1630183,-0.16373 -0.1987146,-0.27131 -0.2265049,-0.68263 l -0.020796,-0.30778 0.1161924,0.0514 c 0.2908734,0.12884 0.5168243,0.16597 0.9359279,0.15369 0.4652351,-0.0143 0.6185951,-0.0591 0.8804581,-0.26116 0.398152,-0.30717 0.461047,-0.67956 0.124006,-0.73427 -0.09906,-0.0161 -0.120031,-0.004 -0.327302,0.19244 -0.266942,0.25267 -0.330933,0.27424 -0.8113032,0.27358 -0.2831053,-3.7e-4 -0.382913,-0.0112 -0.4785987,-0.0554 -0.1485207,-0.0673 -0.3206203,-0.26289 -0.363702,-0.41302 -0.042474,-0.14811 -0.077669,-0.58241 -0.053394,-0.65892 0.018995,-0.0599 0.02015,-0.0599 0.115124,-0.004 0.1960238,0.11566 0.4485661,0.15543 0.9126895,0.14349 0.4116034,-0.0112 0.4444094,-0.0159 0.6294024,-0.10299 0.339239,-0.15983 0.594758,-0.43441 0.594758,-0.63911 0,-0.0886 -0.01924,-0.12836 -0.09172,-0.18929 -0.05044,-0.0425 -0.11146,-0.0773 -0.135622,-0.0773 -0.07868,0 -0.202251,0.0819 -0.339029,0.22465 -0.210989,0.22024 -0.304509,0.25086 -0.7685241,0.25163 -0.4510159,7.5e-4 -0.5300759,-0.0216 -0.6980834,-0.19708 -0.1809472,-0.18901 -0.2060765,-0.28607 -0.2248936,-0.86843 -0.018734,-0.57965 -0.032946,-0.6221 -0.2184759,-0.65178 -0.084581,-0.0128 -0.1232002,-0.004 -0.1871791,0.053 -0.080296,0.07 -0.080695,0.0723 -0.1043595,0.62158 -0.026644,0.61839 -0.053589,0.71105 -0.2592259,0.89161 -0.1584907,0.1392 -0.2127585,0.15161 -0.6573574,0.15161 -0.4716372,0 -0.5363234,-0.0227 -0.8029835,-0.28315 -0.092526,-0.0903 -0.2024275,-0.17281 -0.2442415,-0.18331 -0.094614,-0.0237 -0.2171539,0.045 -0.2708038,0.15162 -0.068066,0.13553 -0.016786,0.25046 0.2147763,0.48144 0.2932172,0.29248 0.4349989,0.34539 0.972243,0.36287 0.45503,0.0143 0.6938951,-0.0185 0.901704,-0.12582 l 0.1415937,-0.073 v 0.27635 c 0,0.45887 -0.1203963,0.71699 -0.3968829,0.85083 -0.1102678,0.0533 -0.1840591,0.0622 -0.5158304,0.0622 -0.3561725,0 -0.3994693,-0.006 -0.5411124,-0.0768 -0.088705,-0.0441 -0.2057226,-0.13855 -0.2760799,-0.22258 -0.1840383,-0.21981 -0.3979324,-0.22999 -0.5080764,-0.0242 -0.1190434,0.22244 0.3425801,0.7041 0.7869241,0.82109 0.1889993,0.0497 0.7548519,0.0533 0.9760127,0.006 0.089135,-0.019 0.2324806,-0.0656 0.3185516,-0.10348 l 0.1565001,-0.0689 v 0.25027 c 0,0.40525 -0.041295,0.54045 -0.2197833,0.71941 -0.1884005,0.18889 -0.2875718,0.21909 -0.7191803,0.21893 -0.4003864,-1.6e-4 -0.5421855,-0.0558 -0.7889053,-0.30914 -0.1398737,-0.14364 -0.1785106,-0.16735 -0.2730778,-0.16735 -0.1476615,0 -0.2788223,0.14446 -0.2521663,0.27773 0.054227,0.27117 0.4206662,0.57655 0.829783,0.69155 0.2391263,0.0672 0.9080042,0.0431 1.1252457,-0.0405 z m -1.1378268,-5.5483 c 0.4964316,-0.14063 0.958977,-0.47714 0.958977,-0.69753 0,-0.0242 -0.034734,-0.0852 -0.077176,-0.13568 -0.1157302,-0.1376 -0.2223648,-0.1247 -0.5039422,0.061 -0.3269285,0.21556 -0.5481768,0.30018 -0.8305775,0.31769 -0.3769569,0.0233 -0.6304593,-0.0578 -1.1351737,-0.36325 -0.0974,-0.0589 -0.2135819,-0.10721 -0.2581749,-0.10721 -0.09818,0 -0.2354173,0.1489 -0.2354173,0.25556 0,0.22552 0.6603259,0.63515 1.1721353,0.72717 0.2260164,0.0406 0.6590327,0.0127 0.9093436,-0.0578 z m 4.557129,-0.01 c 0.263426,-0.0768 0.665286,-0.3007 0.812672,-0.45277 0.04901,-0.0504 0.09762,-0.13456 0.108055,-0.18678 0.01593,-0.0795 0.0043,-0.10957 -0.07164,-0.18547 -0.12397,-0.12386 -0.22299,-0.11765 -0.449345,0.0287 -0.444217,0.28712 -0.70084,0.37089 -1.073736,0.35054 -0.31393,-0.0171 -0.508176,-0.0877 -0.8431575,-0.30676 -0.2735284,-0.17878 -0.3995536,-0.20502 -0.5003899,-0.1041 -0.2078492,0.20785 -0.018808,0.47244 0.5241104,0.73358 0.490807,0.23606 0.970603,0.27565 1.493438,0.12323 z m 0.06829,-1.47823 c 0.110205,-0.0806 0.119472,-0.27452 0.01796,-0.37603 -0.07077,-0.0707 -0.09248,-0.0748 -0.396658,-0.0744 -0.356346,4.8e-4 -0.448477,0.0292 -0.510778,0.1591 -0.07739,0.1614 0.02179,0.31548 0.22673,0.3522 0.195117,0.035 0.57993,-3.7e-4 0.66275,-0.0609 z m -5.0171856,-0.01 c 0.044623,-0.0419 0.068989,-0.099 0.068989,-0.16153 0,-0.23117 -0.091046,-0.28041 -0.5185043,-0.28041 -0.2861258,0 -0.319813,0.006 -0.3949512,0.0707 -0.1079434,0.0928 -0.112976,0.25258 -0.011305,0.36074 0.068082,0.0724 0.084406,0.0753 0.4288104,0.0753 0.3265782,0 0.364097,-0.006 0.4270251,-0.0649 z m 0.3723273,-3.48064 c 0.194183,-0.0318 0.5080987,-0.17795 0.6281755,-0.29244 0.1148867,-0.10957 0.111781,-0.25046 -0.00829,-0.37043 -0.1054589,-0.10547 -0.140049,-0.10212 -0.460534,0.0445 -0.1859447,0.085 -0.2363361,0.0949 -0.4769341,0.0938 -0.2360893,-0.001 -0.2890559,-0.0112 -0.4326929,-0.0861 -0.3206666,-0.16625 -0.4460991,-0.1583 -0.5261551,0.0333 -0.041518,0.0994 -0.041518,0.11976 -8.76e-5,0.20666 0.035721,0.0748 0.101127,0.12348 0.2934228,0.21792 0.3337367,0.16387 0.6324069,0.21035 0.9830103,0.15288 z m 4.2479333,-0.075 c 0.315768,-0.0998 0.48635,-0.24119 0.48635,-0.40326 0,-0.0909 -0.01868,-0.12995 -0.09172,-0.19144 -0.05044,-0.0425 -0.105757,-0.0773 -0.122926,-0.0773 -0.01717,0 -0.140225,0.0498 -0.273442,0.11069 -0.217673,0.0995 -0.267894,0.11081 -0.49559,0.1118 -0.229348,0.001 -0.278127,-0.01 -0.514446,-0.11255 -0.1597036,-0.0696 -0.2836156,-0.10659 -0.3191317,-0.0953 -0.077942,0.0247 -0.2097165,0.18494 -0.2097165,0.25494 0,0.14302 0.3114522,0.37094 0.6290942,0.46035 0.221849,0.0625 0.608075,0.0379 0.911528,-0.058 z"
       id="path650"
       inkscape:connector-curvature="0" />
  </g>
</svg>
