<?xml version="1.0" encoding="UTF-8" standalone="no"?>
<!-- Created with Inkscape (http://www.inkscape.org/) -->

<svg
   xmlns:dc="http://purl.org/dc/elements/1.1/"
   xmlns:cc="http://creativecommons.org/ns#"
   xmlns:rdf="http://www.w3.org/1999/02/22-rdf-syntax-ns#"
   xmlns:svg="http://www.w3.org/2000/svg"
   xmlns="http://www.w3.org/2000/svg"
   xmlns:sodipodi="http://sodipodi.sourceforge.net/DTD/sodipodi-0.dtd"
   xmlns:inkscape="http://www.inkscape.org/namespaces/inkscape"
   width="64"
   height="64"
   viewBox="0 0 16.933333 16.933334"
   version="1.1"
   id="svg8"
   inkscape:version="0.92.5 (2060ec1f9f, 2020-04-08)"
   sodipodi:docname="trousers_64x64.svg">
  <defs
     id="defs2" />
  <sodipodi:namedview
     id="base"
     pagecolor="#ffffff"
     bordercolor="#666666"
     borderopacity="1.0"
     inkscape:pageopacity="0.0"
     inkscape:pageshadow="2"
     inkscape:zoom="7.919596"
     inkscape:cx="39.898163"
     inkscape:cy="20.427754"
     inkscape:document-units="mm"
     inkscape:current-layer="layer1"
     showgrid="false"
     units="px"
     inkscape:window-width="1208"
     inkscape:window-height="987"
     inkscape:window-x="1992"
     inkscape:window-y="0"
     inkscape:window-maximized="1" />
  <metadata
     id="metadata5">
    <rdf:RDF>
      <cc:Work
         rdf:about="">
        <dc:format>image/svg+xml</dc:format>
        <dc:type
           rdf:resource="http://purl.org/dc/dcmitype/StillImage" />
        <dc:title></dc:title>
      </cc:Work>
    </rdf:RDF>
  </metadata>
  <g
     inkscape:label="Layer 1"
     inkscape:groupmode="layer"
     id="layer1"
     transform="translate(0,-280.06665)">
    <path
       style="fill:#000000;stroke-width:0.03013192"
       d="m 2.7713928,296.22818 c -0.209199,-0.0581 -0.3875796,-0.17334 -0.5596177,-0.36158 -0.1742932,-0.1907 -0.2558162,-0.38071 -0.3042847,-0.70924 -0.073227,-0.49631 -1.17831781,-9.17299 -1.17831781,-9.2516 0,-0.0464 0.29152661,-0.84455 0.64783641,-1.77374 l 0.6478364,-1.68942 v -0.79887 -0.79887 h 3.344503 3.3445041 l 0.00772,3.10469 0.00772,3.1047 0.3615835,-0.44428 c 0.5010992,-0.61569 0.4631232,-0.54911 0.3600792,-0.63127 l -0.08699,-0.0694 0.29358,-0.43053 c 1.1100148,-1.62782 1.1318398,-1.65493 1.3680488,-1.69925 0.05775,-0.0108 0.156439,-0.004 0.219309,0.0146 0.122956,0.0368 4.522119,3.03653 4.706214,3.20906 0.07694,0.0721 0.118829,0.14361 0.137385,0.23449 0.05442,0.26656 0.0681,0.24216 -1.023611,1.82624 l -0.358601,0.52033 -0.08874,-0.0632 c -0.0488,-0.0348 -0.101942,-0.0587 -0.118078,-0.0533 -0.01613,0.005 -1.067648,1.46076 -2.336694,3.23403 -1.269045,1.77325 -2.3433698,3.26186 -2.3873898,3.308 -0.04401,0.0461 -0.155025,0.1207 -0.24668,0.16571 l -0.166644,0.0818 -3.224116,0.005 c -2.5800804,0.004 -3.2525501,-0.003 -3.3664605,-0.0344 z m 4.6169359,-0.73921 v -0.33145 h 0.2259896 0.2259895 v 0.33145 0.33146 h 0.2561207 c 0.1408676,0 0.2561217,-0.005 0.2561217,-0.0113 0,-0.006 -0.020342,-0.0689 -0.045198,-0.13938 -0.039637,-0.11233 -0.045198,-0.91616 -0.045198,-6.52735 v -6.39926 H 8.0512302 7.8403067 v 0.34652 0.34652 H 7.6143172 7.3883277 v -0.34652 -0.34652 H 4.8921862 2.3960447 l -0.6090345,1.58946 -0.6090335,1.58946 0.602102,4.69008 c 0.4876482,3.79855 0.613436,4.71213 0.6617289,4.80605 0.077963,0.15161 0.1989107,0.26366 0.366467,0.33951 0.1324359,0.0599 0.1873463,0.0614 2.357823,0.0621 l 2.2222301,6.8e-4 z m 0,-1.26554 v -0.45197 h 0.2259896 0.2259895 v 0.45197 0.45198 H 7.6143183 7.3883287 Z m 0,-1.41619 v -0.45199 h 0.2259896 0.2259895 v 0.45199 0.45197 H 7.6143183 7.3883287 Z m 0.00677,-1.39361 0.00835,-0.45951 0.2184565,-0.008 0.2184565,-0.008 v 0.46837 0.46836 H 7.6135856 7.3868115 Z m -0.00677,-1.40867 v -0.45197 h 0.2259896 0.2259895 v 0.45197 0.45199 H 7.6143183 7.3883287 Z m 0.00677,-1.3936 0.00835,-0.45951 0.2184565,-0.008 0.2184565,-0.008 v 0.46836 0.46837 H 7.6135856 7.3868115 Z m -3.2127513,0.14217 c -0.3238547,-0.0818 -0.5560325,-0.21799 -0.8179005,-0.47986 -0.1719524,-0.17195 -0.2708072,-0.3011 -0.340326,-0.44462 -0.172758,-0.35667 -0.1845878,-0.4761 -0.1851672,-1.8693 l -5.244e-4,-1.25801 h 1.7490802 1.7490792 l -0.00899,1.36347 c -0.00878,1.32733 -0.010752,1.36822 -0.076409,1.54222 -0.2000621,0.53021 -0.6224735,0.94695 -1.120593,1.10554 -0.2593474,0.0826 -0.706241,0.10171 -0.9482821,0.0406 z m 0.6482096,-0.43637 c 0.3447676,-0.0649 0.7182316,-0.33042 0.8782263,-0.62439 0.1427855,-0.26234 0.1729717,-0.44888 0.1729717,-1.06892 v -0.56617 H 4.5860788 3.290406 l 5.234e-4,0.53485 c 7.855e-4,0.8052 0.073279,1.05097 0.4066411,1.37853 0.3106664,0.30526 0.7068945,0.4263 1.1329831,0.3461 z m 1.051198,-2.93745 v -0.22598 H 4.5860788 3.290406 v 0.22598 0.22599 h 1.2956728 1.2956728 z m 1.5065961,1.82299 v -0.45199 h 0.2259896 0.2259895 v 0.45199 0.45197 H 7.6143373 7.3883477 Z m 0.020088,-0.95418 c -0.011049,-0.011 -0.020088,-0.22122 -0.020088,-0.46705 v -0.44696 h 0.2259896 0.2259895 v 0.46705 0.46705 H 7.6344254 c -0.1132464,0 -0.214941,-0.01 -0.2259895,-0.0201 z m -0.020088,-1.8481 v -0.45197 h 0.2259896 0.2259895 v 0.45197 0.45199 H 7.6143373 7.3883477 Z m 1.9544961,11.35221 c 0.115173,-0.0605 0.38109,-0.41988 2.4464268,-3.30698 1.274465,-1.78155 2.314109,-3.24894 2.31032,-3.26085 -0.0038,-0.012 -0.800113,-0.56595 -1.769607,-1.23118 -0.969496,-0.66522 -1.907,-1.3091 -2.083345,-1.43083 l -0.3206268,-0.22134 -0.6057764,0.7444 -0.6057761,0.74442 -1.48e-4,3.85996 -1.49e-4,3.85996 0.068395,0.10235 c 0.07569,0.11329 0.2368276,0.20773 0.3545981,0.20779 0.042058,3e-5 0.1346265,-0.0305 0.2056964,-0.0678 z m 5.8032488,-7.6101 c 0.276172,-0.40288 0.497821,-0.75487 0.492553,-0.78222 -0.0094,-0.0488 -4.466529,-3.13543 -4.532671,-3.1389 -0.038,-0.002 -1.072401,1.49119 -1.077691,1.55568 -0.0019,0.0227 1.020339,0.74476 2.271567,1.60447 1.717266,1.17992 2.283437,1.55457 2.309537,1.52828 0.01902,-0.0191 0.260533,-0.36444 0.536705,-0.76731 z m -6.898985,-6.34851 v -0.48212 l -2.8851316,-0.007 -2.8851325,-0.007 v 0.49748 0.49748 l 2.8851325,-0.007 2.8851316,-0.007 z m -5.3484173,0 v -0.22599 h 0.2259896 0.2259895 v 0.22599 0.22598 H 3.1246799 2.8986903 Z m 0.9101707,0.007 0.00888,-0.21847 0.2184564,-0.008 0.2184565,-0.008 v 0.22731 0.22731 h -0.22731 -0.2273091 z m 0.9278768,-0.007 v -0.22599 h 0.2259895 0.2259895 v 0.22599 0.22598 H 4.9627273 4.7367378 Z m 0.9039581,0 v -0.22599 h 0.2259895 0.2259896 v 0.22599 0.22598 H 5.8666854 5.6406959 Z m 0.9101707,0.007 0.00888,-0.21847 h 0.2259872 0.2259895 l 0.00888,0.21847 0.00888,0.21845 H 6.7857932 6.5420976 Z m 0.9278768,-0.007 v -0.22599 h 0.2259895 0.2259895 v 0.22599 0.22598 H 7.7047329 7.4787434 Z"
       id="path15172"
       inkscape:connector-curvature="0" />
    <path
       style="fill:#ffffff;stroke-width:0.00345122;stroke-miterlimit:4;stroke-dasharray:none"
       d="M 4.295657,288.29674 C 3.9604789,288.21254 3.5801744,287.89878 3.439772,287.59061 3.347493,287.38807 3.3028427,287.031 3.3028427,286.49556 v -0.41931 h 1.2783896 1.2783895 v 0.52707 c 0,0.28989 -0.014918,0.60779 -0.033156,0.70646 -0.071133,0.38481 -0.3147929,0.68827 -0.7091073,0.88316 -0.187101,0.0925 -0.2626208,0.11234 -0.4635245,0.12197 -0.1320024,0.006 -0.2931812,-0.002 -0.3581727,-0.0182 z"
       id="path15174"
       inkscape:connector-curvature="0" />
    <path
       style="fill:#ffffff;stroke-width:0.00345122;stroke-miterlimit:4;stroke-dasharray:none"
       d="m 3.3028427,285.37618 v -0.21306 h 1.2783896 1.2783895 v 0.21306 0.21306 H 4.5812323 3.3028427 Z"
       id="path15176"
       inkscape:connector-curvature="0" />
    <path
       style="fill:#ffffff;stroke-width:0.00345122;stroke-miterlimit:4;stroke-dasharray:none"
       d="m 3.2571866,295.78767 c -0.418305,-0.0187 -0.4971193,-0.042 -0.6635665,-0.19651 -0.04689,-0.0436 -0.1049236,-0.12622 -0.128967,-0.18377 -0.06886,-0.1648 -0.214812,-1.23695 -0.9604745,-7.05558 l -0.3110322,-2.42709 0.6058902,-1.58294 0.6058902,-1.58295 2.4882934,-1.5e-4 2.4882944,-1.6e-4 v 0.35132 0.35131 l 0.235893,-0.008 0.235893,-0.008 0.00856,-0.34243 0.00856,-0.34243 h 0.1816307 0.1816306 l 0.00381,4.13194 c 0.0037,3.99239 0.035989,8.72467 0.060402,8.8498 0.010869,0.0557 -0.00666,0.0616 -0.2087994,0.0698 l -0.2206746,0.008 v -0.33615 -0.33615 H 7.6249206 7.3814184 v 0.33482 0.33482 l -1.8643185,-0.005 c -1.0253751,-0.003 -2.0423788,-0.0134 -2.2600096,-0.0231 z m 4.6045161,-1.56169 -0.00835,-0.46417 -0.235893,-0.008 -0.235893,-0.008 v 0.47307 0.47307 h 0.2442951 0.2442951 z m 0.00677,-1.42297 v -0.45656 H 7.624966 7.3814639 v 0.45656 0.45657 H 7.624966 7.8684693 Z m -0.00677,-1.38255 c 0.00465,-0.24981 -0.00391,-0.46654 -0.018967,-0.48162 -0.015235,-0.0152 -0.123798,-0.0179 -0.2443459,-0.006 l -0.2169287,0.0213 v 0.46913 0.46914 l 0.235893,-0.008 0.235893,-0.008 z m 0.00677,-1.41773 v -0.45657 H 7.624966 7.3814639 v 0.45657 0.45657 H 7.624966 7.8684693 Z m -0.00677,-1.39317 c 0.00973,-0.5361 0.023535,-0.51263 -0.2829362,-0.47982 l -0.1972561,0.0212 v 0.47064 0.47065 l 0.235893,-0.008 0.235893,-0.008 z m -2.8248649,0.14114 c 0.4372216,-0.0951 0.9263109,-0.50412 1.1450666,-0.95752 0.1047015,-0.217 0.1183181,-0.27365 0.1383037,-0.57551 0.01219,-0.18415 0.023122,-0.83145 0.024296,-1.43844 l 0.00211,-1.10362 -1.7577848,0.007 -1.7577858,0.007 0.00317,1.2936 c 0.00349,1.40515 0.015996,1.53422 0.1800405,1.85795 0.095017,0.1875 0.4532975,0.57018 0.6550301,0.69963 0.1844884,0.11839 0.4226799,0.21167 0.6227346,0.24388 0.1693082,0.0273 0.5362774,0.01 0.7447691,-0.0357 z m 2.831678,-1.54825 v -0.45657 H 7.6250125 7.3815104 v 0.45657 0.45657 h 0.2435021 0.2435033 z m -0.015225,-1.40014 v -0.47179 l -0.235893,-0.008 -0.235893,-0.008 v 0.47083 c 0,0.53708 -0.019771,0.50321 0.2891593,0.49524 l 0.1826267,-0.004 z m 0.015225,-1.40014 V 283.9456 H 7.6250125 7.3815104 v 0.45657 0.45657 h 0.2435021 0.2435033 z"
       id="path15178"
       inkscape:connector-curvature="0" />
    <path
       style="fill:#ffffff;stroke-width:0.00345122;stroke-miterlimit:4;stroke-dasharray:none"
       d="m 2.4810207,281.77971 v -0.49181 l 0.5527614,0.02 c 0.3040182,0.011 1.5983873,0.02 2.8763762,0.02 h 2.323616 v 0.47179 0.47179 H 5.3573981 2.4810207 Z m 0.8826986,0.003 v -0.24478 l -0.2358941,0.008 -0.235893,0.008 -0.00888,0.2359 -0.00888,0.23589 h 0.2447836 0.2447836 z m 0.9131352,-0.003 v -0.24748 l -0.1141419,0.0189 c -0.062781,0.0106 -0.1723552,0.019 -0.2435032,0.0192 l -0.1293613,3.4e-4 v 0.22829 0.22827 h 0.2435032 0.2435032 v -0.24748 z m 0.9131353,0.004 v -0.2435 H 4.961706 4.7334222 v 0.2435 0.2435 H 4.961706 5.1899898 Z m 0.9131352,-10e-4 v -0.24478 l -0.235894,0.008 -0.235893,0.008 -0.00888,0.2359 -0.00888,0.23589 h 0.2447825 0.2447836 v -0.24478 z m 0.9432379,0.13064 c -1.829e-4,-0.0628 -0.00888,-0.16604 -0.019401,-0.22948 l -0.019063,-0.11535 -0.2317147,0.008 -0.2317157,0.008 -0.00899,0.22067 -0.00899,0.22068 h 0.2600559 0.2600548 l -3.352e-4,-0.11415 z m 0.898251,-0.12936 v -0.22828 l -0.235893,-0.008 -0.235893,-0.008 v 0.24606 0.24607 l 0.235893,-0.008 0.235893,-0.008 z"
       id="path15180"
       inkscape:connector-curvature="0" />
    <path
       style="fill:#ffffff;stroke-width:0.00345122;stroke-miterlimit:4;stroke-dasharray:none"
       d="m 9.0093734,295.77394 c -0.050537,-0.022 -0.1361405,-0.0904 -0.1902368,-0.15206 l -0.098358,-0.11201 v -3.85129 -3.85128 l 0.5231693,-0.64485 c 0.2877423,-0.35467 0.5602753,-0.68824 0.6056263,-0.74127 l 0.08246,-0.0964 1.6391628,1.12665 c 0.90154,0.61966 1.834726,1.26323 2.073746,1.43016 l 0.434582,0.30351 -0.234883,0.34035 c -0.346918,0.50267 -3.355059,4.71242 -3.8506568,5.3888 -0.478244,0.65271 -0.60539,0.79905 -0.7471754,0.86002 -0.1173772,0.0504 -0.1209243,0.0504 -0.2374366,-3.1e-4 z"
       id="path15182"
       inkscape:connector-curvature="0" />
    <path
       style="fill:#ffffff;stroke-width:0.00345122;stroke-miterlimit:4;stroke-dasharray:none"
       d="m 14.129883,288.60459 c -0.742703,-0.48742 -3.05706,-2.08365 -3.864384,-2.6653 -0.113001,-0.0814 -0.205455,-0.1597 -0.205455,-0.17395 0,-0.0532 0.969652,-1.45983 1.033573,-1.49933 0.01652,-0.0106 0.06809,0.005 0.114596,0.035 0.451679,0.28596 4.271259,2.93529 4.399395,3.0515 0.04144,0.0376 -0.959899,1.52404 -1.026672,1.52404 -0.02017,0 -0.22315,-0.12237 -0.451053,-0.27194 z"
       id="path15184"
       inkscape:connector-curvature="0" />
  </g>
</svg>
