<?xml version="1.0" encoding="UTF-8" standalone="no"?>
<!-- Created with Inkscape (http://www.inkscape.org/) -->

<svg
   xmlns:dc="http://purl.org/dc/elements/1.1/"
   xmlns:cc="http://creativecommons.org/ns#"
   xmlns:rdf="http://www.w3.org/1999/02/22-rdf-syntax-ns#"
   xmlns:svg="http://www.w3.org/2000/svg"
   xmlns="http://www.w3.org/2000/svg"
   xmlns:sodipodi="http://sodipodi.sourceforge.net/DTD/sodipodi-0.dtd"
   xmlns:inkscape="http://www.inkscape.org/namespaces/inkscape"
   width="64"
   height="64"
   viewBox="0 0 16.933333 16.933333"
   version="1.1"
   id="svg8"
   inkscape:version="0.92.5 (2060ec1f9f, 2020-04-08)"
   sodipodi:docname="tv_64x64.svg">
  <defs
     id="defs2" />
  <sodipodi:namedview
     id="base"
     pagecolor="#ffffff"
     bordercolor="#666666"
     borderopacity="1.0"
     inkscape:pageopacity="0.0"
     inkscape:pageshadow="2"
     inkscape:zoom="3.959798"
     inkscape:cx="87.346981"
     inkscape:cy="7.7356554"
     inkscape:document-units="mm"
     inkscape:current-layer="layer1"
     showgrid="false"
     units="px"
     inkscape:window-width="1208"
     inkscape:window-height="987"
     inkscape:window-x="1992"
     inkscape:window-y="0"
     inkscape:window-maximized="1"
     showguides="false" />
  <metadata
     id="metadata5">
    <rdf:RDF>
      <cc:Work
         rdf:about="">
        <dc:format>image/svg+xml</dc:format>
        <dc:type
           rdf:resource="http://purl.org/dc/dcmitype/StillImage" />
        <dc:title></dc:title>
      </cc:Work>
    </rdf:RDF>
  </metadata>
  <g
     inkscape:label="Layer 1"
     inkscape:groupmode="layer"
     id="layer1"
     transform="translate(0,-280.06667)">
    <path
       style="fill:#000000;stroke-width:0.03146913"
       d="m 5.5149183,294.90405 c -0.034618,-0.0143 -0.091258,-0.0575 -0.1258765,-0.0961 -0.057269,-0.0638 -0.062932,-0.11438 -0.062911,-0.56228 2.56e-5,-0.56714 0.033988,-0.68359 0.2674653,-0.91707 0.2418103,-0.24181 0.3328046,-0.26526 1.077818,-0.27776 l 0.6529844,-0.011 v -0.43707 -0.43707 l -3.076108,-0.009 c -3.0720011,-0.009 -3.0763022,-0.009 -3.2224128,-0.0762 -0.18701186,-0.0865 -0.39193294,-0.29137 -0.4783831,-0.47838 l -0.0676355,-0.14631 v -4.26406 -4.26407 l 0.0676355,-0.14631 c 0.086448,-0.18701 0.29137124,-0.39194 0.4783831,-0.47838 l 0.1463058,-0.0676 5.0350603,-0.009 c 2.7692837,-0.005 5.0681302,-7.2e-4 5.1085492,0.01 0.04042,0.01 0.107684,0.0548 0.149478,0.0999 0.135333,0.14603 0.08448,0.3824 -0.102893,0.47822 -0.04879,0.025 -0.742931,0.0352 -2.3922003,0.0352 H 6.6467145 l -1.9190706,1.91774 c -1.2946995,1.2938 -1.9472275,1.92459 -2.0056113,1.93876 -0.2417751,0.0588 -0.4460766,-0.14571 -0.3867958,-0.38703 0.014227,-0.0579 0.5798822,-0.64609 1.7099401,-1.77801 l 1.6886822,-1.69146 H 3.5206765 1.3074949 l -0.1069946,0.10698 -0.1069957,0.107 v 3.48758 3.48757 l 0.8431413,-0.84102 c 0.8057136,-0.80369 0.8484278,-0.84101 0.9622297,-0.84101 0.1733845,0 0.3030608,0.13614 0.3030608,0.31818 v 0.1342 l -1.0542159,1.0572 -1.0542159,1.05721 v 0.1988 c 0,0.18412 0.00789,0.20669 0.1069957,0.30578 l 0.1069946,0.107 h 7.2127253 7.2127248 l 0.106995,-0.107 0.106995,-0.10698 v -4.12876 -4.12875 l -0.106995,-0.107 -0.106995,-0.10698 -0.860681,-4.8e-4 c -0.955642,-4.7e-4 -0.982106,-0.005 -1.075689,-0.19647 -0.05591,-0.11417 -0.05591,-0.12135 0,-0.23552 0.09639,-0.19684 0.110821,-0.19924 1.143348,-0.18973 0.873556,0.009 0.936973,0.0126 1.074645,0.0761 0.187012,0.0865 0.391933,0.29137 0.478383,0.47839 l 0.06764,0.14631 v 4.26406 4.26407 l -0.06764,0.14631 c -0.08645,0.187 -0.291371,0.39192 -0.478383,0.47837 -0.14611,0.0675 -0.150412,0.0676 -3.222414,0.0763 l -3.0761067,0.009 v 0.43707 0.43707 l 0.6529837,0.011 c 0.745014,0.0125 0.836007,0.0359 1.077819,0.27777 0.233728,0.23372 0.267439,0.34964 0.267465,0.91966 l 2.2e-5,0.49483 -0.08725,0.0873 -0.08725,0.0873 -2.9809922,0.006 c -1.6395456,0.003 -3.0093139,-0.005 -3.0439294,-0.0199 z m 5.5857707,-0.80757 c 0,-0.19425 -0.0069,-0.21463 -0.106995,-0.3147 L 10.886698,293.6748 H 8.5202202 6.1537411 l -0.1069947,0.10698 c -0.1000668,0.10004 -0.1069957,0.12045 -0.1069957,0.3147 v 0.20769 h 2.5804695 2.5804688 z m -2.0140241,-1.49164 v -0.44057 H 8.5202202 7.9537755 v 0.44057 0.44057 h 0.5664447 0.5664447 z m -2.5332654,-3.86779 c -0.034618,-0.0148 -0.091258,-0.0584 -0.1258765,-0.0968 -0.06017,-0.0669 -0.063338,-0.12096 -0.071912,-1.23101 l -0.00896,-1.16109 H 6.0944443 c -0.3648308,0 -0.5008355,-0.0854 -0.5008355,-0.31469 0,-0.13169 0.045837,-0.20983 0.1567156,-0.26716 0.07509,-0.0388 0.242272,-0.0476 0.9137405,-0.0476 0.8529657,0 0.9084466,0.007 1.0136741,0.13742 0.1112968,0.13741 0.04893,0.36883 -0.1231079,0.4568 -0.037806,0.0193 -0.182458,0.0352 -0.3214521,0.0352 H 6.9804651 l -0.00896,1.16367 -0.00896,1.16368 -0.078673,0.0786 c -0.087408,0.0874 -0.2342373,0.12422 -0.3304254,0.0831 z m 3.4555715,-0.002 c -0.037934,-0.0161 -0.089914,-0.0619 -0.1155101,-0.10174 -0.025595,-0.0399 -0.3122058,-0.63894 -0.6369106,-1.33128 -0.4223988,-0.90062 -0.5907847,-1.29183 -0.5918288,-1.37499 -0.00267,-0.21068 0.2227023,-0.35966 0.4202466,-0.27783 0.1088866,0.0451 0.1449365,0.11085 0.6301396,1.14932 0.2102577,0.45001 0.3928763,0.82892 0.4058213,0.84202 0.01295,0.0131 0.163094,-0.29844 0.333665,-0.69232 0.524066,-1.21015 0.532879,-1.22743 0.656203,-1.28624 0.06905,-0.033 0.140223,-0.0443 0.193803,-0.0308 0.125564,0.0315 0.236657,0.16677 0.236657,0.28813 0,0.1201 -1.097561,2.66733 -1.188481,2.75826 -0.06899,0.069 -0.246617,0.0986 -0.343805,0.0575 z m -6.3731926,-0.71102 c -0.054091,-0.0293 -0.098723,-0.0908 -0.1217343,-0.16763 -0.048087,-0.16051 0.00885,-0.28271 0.1677973,-0.3604 0.1144098,-0.0559 0.1216074,-0.0559 0.2360183,0 0.1590874,0.0777 0.215894,0.19987 0.16773,0.36063 -0.057696,0.19257 -0.2628058,0.2689 -0.4498113,0.1674 z m 9.0226316,-5.20356 c -0.200543,-0.0858 -0.253572,-0.34582 -0.101559,-0.49784 0.191093,-0.19109 0.509227,-0.0589 0.509227,0.21171 0,0.20722 -0.224297,0.36466 -0.407668,0.28613 z"
       id="path3287"
       inkscape:connector-curvature="0" />
    <path
       style="fill:#ffffff;stroke-width:0.00169912;stroke-miterlimit:4;stroke-dasharray:none"
       d="m 1.2068884,291.39759 c -0.039929,-0.061 -0.072605,-0.19767 -0.072605,-0.30383 0,-0.19183 0.00629,-0.19931 1.033985,-1.22626 0.9661916,-0.96551 1.0339861,-1.04387 1.0339861,-1.19524 0,-0.16987 -0.082779,-0.27748 -0.2533772,-0.32935 -0.1261175,-0.0383 -0.2337777,0.0506 -1.1065391,0.91341 l -0.7080548,0.70004 V 286.491 c 0,-3.30744 0.00373,-3.46875 0.082694,-3.54017 0.075133,-0.0681 0.2816259,-0.0738 2.2571916,-0.0631 l 2.1744965,0.0116 -1.6727641,1.69339 c -1.8032573,1.8255 -1.791829,1.81058 -1.5624186,2.03998 0.233543,0.23355 0.1955404,0.26377 2.2916866,-1.82275 l 1.9420167,-1.93311 2.1774591,-0.004 c 1.1976018,-0.002 2.2786098,-0.0174 2.4022378,-0.0337 0.196916,-0.0261 0.233139,-0.0478 0.292214,-0.17491 l 0.06743,-0.14514 0.435193,-9.7e-4 c 0.411225,-9.2e-4 0.435984,0.004 0.449559,0.0957 0.0079,0.0531 0.06983,0.1379 0.137625,0.18833 0.11779,0.0877 0.130207,0.0884 0.279795,0.0171 0.09689,-0.0462 0.167406,-0.11796 0.185065,-0.18832 0.02699,-0.10757 0.04459,-0.11358 0.327111,-0.11195 0.286393,0.002 0.302278,0.007 0.389212,0.1458 0.117546,0.18683 0.192752,0.20036 1.149058,0.20679 0.764427,0.005 0.793309,0.009 0.887878,0.10937 l 0.09775,0.10409 v 4.11397 4.11397 l -0.104045,0.0977 -0.104045,0.0978 H 8.4980952 1.2795022 Z m 5.6768533,-2.71018 c 0.091652,-0.0759 0.095364,-0.11963 0.106135,-1.24753 l 0.011155,-1.16886 0.3071177,-0.0225 c 0.2350915,-0.0172 0.3220706,-0.043 0.3708861,-0.10975 0.09097,-0.12448 0.07878,-0.3248 -0.026139,-0.42972 -0.083856,-0.0838 -0.1498529,-0.0899 -0.9790267,-0.0899 -1.0276128,0 -1.0889455,0.0177 -1.0889455,0.3147 0,0.23317 0.117685,0.31469 0.4543182,0.31469 0.2259135,0 0.2575343,0.0113 0.2815971,0.1011 0.014909,0.0557 0.027387,0.58162 0.027717,1.16886 5.791e-4,1.00732 0.00565,1.07279 0.090522,1.15761 0.1108947,0.1109 0.3180351,0.11613 0.4446613,0.0112 z m 3.5012903,-0.045 c 0.160194,-0.23063 1.179022,-2.61113 1.179022,-2.75478 0,-0.0333 -0.04399,-0.10723 -0.09775,-0.16444 -0.13012,-0.13852 -0.327135,-0.13612 -0.455108,0.005 -0.05445,0.0603 -0.268231,0.49521 -0.475066,0.96655 -0.206833,0.47134 -0.389091,0.85697 -0.405017,0.85697 -0.01592,0 -0.2411855,-0.42989 -0.5005786,-0.95531 -0.4650843,-0.94206 -0.4737163,-0.95551 -0.6226488,-0.96976 -0.1735444,-0.0166 -0.3659676,0.12895 -0.3659676,0.27685 0,0.16857 1.2045519,2.75481 1.3160609,2.82566 0.030298,0.0192 0.1194641,0.0353 0.1981401,0.0357 0.105719,5.1e-4 0.165454,-0.0316 0.228911,-0.12295 z m -6.3735704,-0.64062 c 0.055798,-0.0558 0.089914,-0.14985 0.089914,-0.24793 0,-0.12883 -0.02599,-0.1738 -0.1407377,-0.24359 -0.1538766,-0.0935 -0.2337072,-0.0819 -0.3874943,0.0565 -0.131902,0.11873 -0.1283912,0.27701 0.00917,0.41459 0.1336532,0.13365 0.30762,0.14194 0.429124,0.0205 z"
       id="path3291"
       inkscape:connector-curvature="0" />
    <path
       style="fill:#ffffff;stroke-width:0.00169912;stroke-miterlimit:4;stroke-dasharray:none"
       d="m 7.9675809,292.60981 v -0.42708 H 8.5070525 9.046523 v 0.42708 0.42708 H 8.5070525 7.9675809 Z"
       id="path3293"
       inkscape:connector-curvature="0" />
    <path
       style="fill:#ffffff;stroke-width:0.00169912;stroke-miterlimit:4;stroke-dasharray:none"
       d="m 5.95588,294.09153 c 0.012659,-0.11227 0.05888,-0.24376 0.1027224,-0.29221 0.077266,-0.0854 0.1533316,-0.0881 2.4727208,-0.0881 h 2.3930018 l 0.07261,0.1108 c 0.03993,0.061 0.07261,0.19245 0.07261,0.29222 v 0.1814 H 8.5012018 5.9328688 Z"
       id="path3295"
       inkscape:connector-curvature="0" />
  </g>
</svg>
