<?xml version="1.0" encoding="UTF-8" standalone="no"?>
<svg
   xmlns:dc="http://purl.org/dc/elements/1.1/"
   xmlns:cc="http://creativecommons.org/ns#"
   xmlns:rdf="http://www.w3.org/1999/02/22-rdf-syntax-ns#"
   xmlns:svg="http://www.w3.org/2000/svg"
   xmlns="http://www.w3.org/2000/svg"
   xmlns:sodipodi="http://sodipodi.sourceforge.net/DTD/sodipodi-0.dtd"
   xmlns:inkscape="http://www.inkscape.org/namespaces/inkscape"
   width="64"
   height="64"
   viewBox="0 0 16.933333 16.933333"
   version="1.1"
   id="svg8"
   sodipodi:docname="seren_up_at_night_64x64.svg"
   inkscape:version="1.0.2-2 (e86c870879, 2021-01-15)">
  <defs
     id="defs2" />
  <sodipodi:namedview
     id="base"
     pagecolor="#ffffff"
     bordercolor="#666666"
     borderopacity="1.0"
     inkscape:pageopacity="0.0"
     inkscape:pageshadow="2"
     inkscape:zoom="8"
     inkscape:cx="65.088111"
     inkscape:cy="30.436206"
     inkscape:document-units="mm"
     inkscape:current-layer="layer1"
     inkscape:document-rotation="0"
     showgrid="false"
     inkscape:snap-global="false"
     fit-margin-top="0"
     fit-margin-left="0"
     fit-margin-right="0"
     fit-margin-bottom="0"
     inkscape:window-width="1540"
     inkscape:window-height="967"
     inkscape:window-x="1954"
     inkscape:window-y="32"
     inkscape:window-maximized="0"
     units="px" />
  <metadata
     id="metadata5">
    <rdf:RDF>
      <cc:Work
         rdf:about="">
        <dc:format>image/svg+xml</dc:format>
        <dc:type
           rdf:resource="http://purl.org/dc/dcmitype/StillImage" />
        <dc:title></dc:title>
      </cc:Work>
    </rdf:RDF>
  </metadata>
  <g
     inkscape:label="Calque 1"
     inkscape:groupmode="layer"
     id="layer1"
     transform="translate(-44.581036,-28.552681)">
    <text
       xml:space="preserve"
       style="font-style:normal;font-weight:normal;font-size:10.5833px;line-height:1.25;font-family:sans-serif;fill:#000000;fill-opacity:1;stroke:none;stroke-width:0.264583"
       x="51.724785"
       y="39.66518"
       id="text1411"><tspan
         sodipodi:role="line"
         id="tspan1409"
         x="51.724785"
         y="39.66518"
         style="stroke-width:0.264583"></tspan></text>
    <path
       style="fill:#000000;stroke-width:0.0304828"
       d="m 50.715501,44.108483 c -0.09067,-0.02786 -0.192877,-0.09168 -0.269397,-0.168203 -0.239798,-0.239798 -0.223643,-0.0334 -0.233084,-2.978115 l -0.0084,-2.631537 -0.117569,-0.157645 c -0.158287,-0.212248 -0.207987,-0.316967 -0.26299,-0.554139 -0.04235,-0.182583 -0.04089,-0.34352 0.01603,-1.776833 0.03443,-0.866836 0.07585,-1.65151 0.09206,-1.743722 0.09107,-0.518074 0.521253,-0.975018 1.051419,-1.11685 0.40204,-0.107555 0.911944,0.0031 1.23388,0.267648 l 0.106016,0.08713 1.753441,6.81e-4 c 1.641682,6.17e-4 1.76121,0.0042 1.875371,0.05712 0.226902,0.105048 0.381035,0.338011 0.381035,0.575903 0,0.191691 -0.141527,0.432191 -0.317624,0.539746 l -0.14997,0.09159 -1.557069,0.01524 -1.55707,0.01524 -0.05089,1.356487 c -0.02796,0.746068 -0.06557,1.448545 -0.08352,1.56106 -0.01795,0.112515 -0.07602,0.292527 -0.129025,0.400026 l -0.09638,0.195454 0.242953,0.30108 c 0.666957,0.826535 2.652892,3.565595 2.81329,3.880171 0.05602,0.109867 0.06647,0.172003 0.05704,0.33895 -0.02213,0.391464 -0.284308,0.661383 -0.671382,0.691177 -0.358091,0.02756 -0.509567,-0.08305 -0.92692,-0.67693 C 53.293793,41.80702 52.800244,41.122373 52.28119,40.42426 l -0.566028,-0.761301 -0.01524,1.965363 -0.01524,1.965364 -0.07132,0.14483 c -0.0891,0.180919 -0.249694,0.316046 -0.444798,0.374254 -0.183089,0.05462 -0.263791,0.05385 -0.453012,-0.0042 z m -5.417026,-5.788318 v -2.575802 h 0.304828 0.30483 v -0.167654 -0.167656 h 0.381035 0.381036 v 0.799499 0.799499 l 0.09419,-0.114271 c 0.185461,-0.224996 0.142894,-0.218623 1.529021,-0.228888 l 1.242177,-0.0092 3.39e-4,0.43596 c 2.31e-4,0.287297 0.01571,0.493129 0.04536,0.603614 0.02476,0.09221 0.04517,0.171775 0.04537,0.176808 2.3e-4,0.005 -0.579194,0.005 -1.287539,0 -1.431385,-0.0102 -1.380656,-0.003 -1.572963,-0.222036 l -0.09597,-0.109339 v 0.275408 0.275406 h 1.521464 1.521466 l 0.124609,0.182552 c 0.114375,0.167559 0.124609,0.198855 0.124609,0.381036 v 0.198483 h -1.646074 -1.646074 v 1.021176 1.021175 h -0.685848 -0.685864 z m 14.144046,1.554772 v -1.021032 l -3.084302,-0.0077 -3.084307,-0.0077 -0.288021,-0.365793 -0.288022,-0.365796 3.372326,-0.0077 3.372326,-0.0077 V 37.81599 37.540717 l -0.09598,0.109309 c -0.20174,0.229767 0.0736,0.21193 -3.414602,0.221193 l -3.129536,0.0083 0.04412,-0.160725 c 0.02426,-0.08839 0.05264,-0.363371 0.06305,-0.611049 l 0.0189,-0.450325 3.066495,0.0083 c 3.416991,0.0092 3.150045,-0.0083 3.351039,0.220618 l 0.09546,0.108721 0.0081,-0.785407 0.0081,-0.785407 0.373413,-0.0085 0.373417,-0.0085 v 0.168594 0.168595 h 0.304827 0.304829 v 2.575801 2.575801 H 60.128361 59.442495 Z M 47.16574,36.303887 c -0.265592,-0.130931 -0.291948,-0.488473 -0.05004,-0.678763 0.07694,-0.06052 0.11681,-0.06366 0.80992,-0.06366 0.807523,0 0.860363,0.01042 0.971061,0.191997 0.114012,0.186989 0.04211,0.438858 -0.155529,0.544856 -0.0919,0.04929 -0.182867,0.05562 -0.7902,0.05501 -0.566436,-5.87e-4 -0.703613,-0.0092 -0.785218,-0.04944 z m 3.985444,-3.485057 c -0.743598,-0.136591 -1.254611,-0.745741 -1.254611,-1.495554 0,-1.006821 1.012408,-1.730927 1.962881,-1.403916 0.479714,0.165045 0.843669,0.556824 0.972249,1.046574 0.135646,0.516667 -0.0018,1.020695 -0.384997,1.412643 -0.336593,0.344207 -0.856524,0.520893 -1.295522,0.440253 z m 4.557236,-0.950076 c -0.02084,-0.138994 0.03026,-0.467928 0.136489,-0.878554 0.03236,-0.125103 0.05426,-0.232044 0.04865,-0.237648 -0.0056,-0.0056 -0.127196,-0.03167 -0.270209,-0.05793 l -0.260023,-0.04775 -0.03462,-0.137454 c -0.01903,-0.0756 -0.03001,-0.142045 -0.02442,-0.147657 0.0056,-0.0056 0.187983,0.0097 0.405271,0.03388 0.217284,0.02425 0.40349,0.04423 0.413785,0.04439 0.01031,1.71e-4 0.02722,0.06231 0.03761,0.13811 0.01459,0.106324 -0.0088,0.243857 -0.102401,0.602037 -0.06671,0.255326 -0.121354,0.488235 -0.121435,0.517575 -1.17e-4,0.04639 0.03176,0.05334 0.244691,0.05334 0.225913,0 0.246851,0.0053 0.270769,0.06858 0.01425,0.03772 0.02098,0.07707 0.01493,0.08745 -0.006,0.01042 -0.110742,0.0281 -0.232665,0.03939 -0.12192,0.0113 -0.28575,0.02844 -0.364063,0.0381 l -0.142383,0.01757 z m 0.827852,-0.0092 c -0.011,-0.02867 0.03257,-0.171205 0.101135,-0.330853 l 0.120455,-0.280485 -0.08275,-0.01925 c -0.0455,-0.01064 -0.12706,-0.02088 -0.181232,-0.02286 -0.10156,-0.0037 -0.09961,-6.81e-4 -0.144953,-0.22689 -0.01042,-0.05202 0.0089,-0.05425 0.299043,-0.0343 0.170609,0.01173 0.320484,0.02728 0.333056,0.03456 0.06104,0.03532 0.01607,0.274272 -0.0971,0.515727 l -0.119955,0.255975 h 0.177661 c 0.124656,0 0.182572,0.01281 0.19413,0.04293 0.01991,0.05183 -0.036,0.06708 -0.348409,0.09506 -0.199525,0.01786 -0.234455,0.01375 -0.251093,-0.02962 z m 0.693463,-0.0589 c -0.01002,-0.02602 0.0088,-0.08553 0.04174,-0.13222 0.06846,-0.09703 0.220115,-0.391037 0.220178,-0.426828 2.5e-5,-0.01313 -0.07352,-0.01929 -0.163426,-0.01368 -0.149567,0.0093 -0.16509,0.0041 -0.182523,-0.06097 -0.04748,-0.177366 -0.04668,-0.177852 0.300185,-0.177852 h 0.320068 v 0.0998 c 0,0.0623 -0.05154,0.190246 -0.137172,0.340514 -0.07544,0.132389 -0.137173,0.247114 -0.137173,0.254943 0,0.0079 0.07545,0.0053 0.167654,-0.0054 0.151129,-0.01776 0.167657,-0.01401 0.167657,0.03802 0,0.04766 -0.03053,0.06114 -0.175275,0.07737 -0.0964,0.0108 -0.226686,0.0273 -0.289522,0.03666 -0.08622,0.01285 -0.118696,0.0054 -0.132397,-0.0303 z m 0.688644,-0.08754 c 0,-0.03044 0.07544,-0.163002 0.167656,-0.294596 0.09221,-0.131594 0.167653,-0.249332 0.167653,-0.261637 0,-0.01231 -0.07544,-0.01295 -0.167653,-0.0014 l -0.167656,0.02095 V 31.067523 30.95864 h 0.271852 c 0.149519,0 0.293549,-0.0083 0.320068,-0.0185 0.106472,-0.04085 0.04136,0.125936 -0.151991,0.389368 l -0.200205,0.272771 0.187643,-0.02123 c 0.185263,-0.02096 0.18751,-0.02032 0.177342,0.0516 -0.0097,0.06852 -0.02787,0.07468 -0.307502,0.104325 -0.278372,0.0295 -0.297207,0.02799 -0.297207,-0.02385 z M 58.589,31.650921 c 0,-0.05335 0.229974,-0.36994 0.346233,-0.476625 0.04429,-0.04064 0.08053,-0.08535 0.08053,-0.09934 0,-0.01399 -0.07544,-0.01657 -0.167657,-0.0057 -0.165825,0.01949 -0.167654,0.01882 -0.167654,-0.0607 v -0.0804 h 0.320068 c 0.21744,0 0.32007,0.01103 0.32007,0.03441 0,0.01893 -0.07251,0.104666 -0.161122,0.190517 -0.08861,0.08585 -0.190566,0.198063 -0.226549,0.249348 l -0.06542,0.09324 0.185625,-0.01343 c 0.165704,-0.01199 0.183475,-0.0079 0.165582,0.03881 -0.01103,0.02873 -0.02003,0.06374 -0.02003,0.07779 0,0.03146 -0.101443,0.05173 -0.388657,0.07763 -0.184472,0.01665 -0.221002,0.01242 -0.221002,-0.02553 z m 0.701775,-0.09247 c 6.17e-4,-0.06846 0.246438,-0.349568 0.410851,-0.469969 l 0.09145,-0.06696 -0.175275,-9.57e-4 c -0.09947,-5.57e-4 -0.175278,-0.01457 -0.175278,-0.03241 0,-0.05357 0.06574,-0.05987 0.381035,-0.03647 l 0.304829,0.02262 -0.167657,0.110291 c -0.09221,0.06066 -0.214926,0.160016 -0.272703,0.220791 l -0.105049,0.1105 h 0.172655 c 0.166044,0 0.171684,0.0027 0.147376,0.06832 -0.02664,0.07206 -0.08961,0.08984 -0.437622,0.123633 -0.165072,0.01603 -0.175237,0.01315 -0.174609,-0.04936 z m 0.694322,-0.06982 c 0.05184,-0.09622 0.169443,-0.19084 0.3746,-0.301388 l 0.19545,-0.105313 -0.121932,-0.0029 c -0.155169,-0.0036 -0.255021,-0.0396 -0.201542,-0.07266 0.05585,-0.03452 0.647743,0.04626 0.634309,0.08657 -0.006,0.01808 -0.107077,0.06835 -0.224554,0.111713 -0.117479,0.04337 -0.246304,0.101751 -0.286276,0.129748 l -0.07268,0.05091 0.121092,4.64e-4 c 0.0666,2.54e-4 0.138887,0.01176 0.160638,0.02555 0.07899,0.05011 -0.03647,0.09012 -0.324827,0.112569 -0.273606,0.0213 -0.284015,0.01986 -0.254284,-0.03533 z"
       id="path1607" />
  </g>
</svg>
