<?xml version="1.0" encoding="UTF-8" standalone="no"?>
<!-- Created with Inkscape (http://www.inkscape.org/) -->

<svg
   xmlns:dc="http://purl.org/dc/elements/1.1/"
   xmlns:cc="http://creativecommons.org/ns#"
   xmlns:rdf="http://www.w3.org/1999/02/22-rdf-syntax-ns#"
   xmlns:svg="http://www.w3.org/2000/svg"
   xmlns="http://www.w3.org/2000/svg"
   xmlns:sodipodi="http://sodipodi.sourceforge.net/DTD/sodipodi-0.dtd"
   xmlns:inkscape="http://www.inkscape.org/namespaces/inkscape"
   width="64"
   height="64"
   viewBox="0 0 16.933333 16.933334"
   version="1.1"
   id="svg8"
   inkscape:version="0.92.5 (2060ec1f9f, 2020-04-08)"
   sodipodi:docname="ventilate_64x64.svg">
  <defs
     id="defs2" />
  <sodipodi:namedview
     id="base"
     pagecolor="#ffffff"
     bordercolor="#666666"
     borderopacity="1.0"
     inkscape:pageopacity="0.0"
     inkscape:pageshadow="2"
     inkscape:zoom="5.6"
     inkscape:cx="68.253328"
     inkscape:cy="34.509339"
     inkscape:document-units="mm"
     inkscape:current-layer="layer1"
     showgrid="false"
     units="px"
     inkscape:window-width="1208"
     inkscape:window-height="987"
     inkscape:window-x="1992"
     inkscape:window-y="0"
     inkscape:window-maximized="1" />
  <metadata
     id="metadata5">
    <rdf:RDF>
      <cc:Work
         rdf:about="">
        <dc:format>image/svg+xml</dc:format>
        <dc:type
           rdf:resource="http://purl.org/dc/dcmitype/StillImage" />
        <dc:title></dc:title>
      </cc:Work>
    </rdf:RDF>
  </metadata>
  <g
     inkscape:label="Layer 1"
     inkscape:groupmode="layer"
     id="layer1"
     transform="translate(0,-280.06665)">
    <path
       style="fill:#000000;stroke-width:0.03076807"
       d="m 0.79755469,296.15719 c -0.0752876,-0.0429 -0.14770085,-0.11979 -0.19230213,-0.20432 l -0.0715348,-0.13561 v -7.28235 -7.28236 l 0.0715348,-0.13561 c 0.0881396,-0.16706 0.26009033,-0.27283 0.44470954,-0.27355 0.1587781,-5.8e-4 0.1196185,-0.0199 1.8746879,0.92599 l 1.363663,0.73499 h 4.1246535 4.1246465 l 1.390086,-0.7497 c 0.764547,-0.41233 1.462307,-0.78617 1.550591,-0.83075 0.30115,-0.15204 0.595811,-0.0748 0.737144,0.19302 l 0.07154,0.13561 v 7.27749 7.27748 l -0.06451,0.13321 c -0.08095,0.16722 -0.269928,0.28619 -0.454599,0.28619 -0.140599,0 -0.216334,-0.0339 -0.868265,-0.38812 l -0.41816,-0.22724 H 8.4153251 2.3492187 l -0.5770049,0.30768 c -0.6460499,0.34449 -0.7450151,0.36864 -0.97468427,0.23795 z m 1.73091181,-1.23555 1.4205082,-0.76683 v -0.24144 -0.24145 l -0.1153802,0.0585 c -0.063463,0.0322 -0.5282252,0.25485 -1.0328158,0.4949 -0.9775838,0.46508 -1.019839,0.47741 -1.148524,0.33521 -0.055087,-0.0608 -0.057331,-0.26869 -0.064952,-6.00896 -0.00797,-5.92472 -0.00765,-5.94623 0.054196,-6.02496 0.034164,-0.0434 0.1023648,-0.0879 0.1515208,-0.0986 0.091903,-0.0201 0.1647061,0.0118 1.6713453,0.73378 l 0.4845946,0.23223 v -0.23947 -0.23946 l -1.4205071,-0.76684 c -0.7812836,-0.42175 -1.4320268,-0.77145 -1.446102,-0.77709 -0.014058,-0.006 -0.025568,3.21808 -0.025568,7.16383 0,3.94575 0.01151,7.16948 0.025568,7.16384 0.014047,-0.006 0.6648184,-0.35534 1.446102,-0.7771 z m 13.2278835,-9.97125 -0.0079,-3.58453 -1.438402,0.77534 -1.43841,0.77533 v 0.24114 c 0,0.2199 0.0045,0.23864 0.05382,0.21288 0.0296,-0.0155 0.494732,-0.23838 1.033585,-0.49519 1.043101,-0.49713 1.080415,-0.50843 1.209294,-0.36602 0.05509,0.0609 0.05704,0.26307 0.05704,6.02557 0,5.76249 -0.0022,5.96465 -0.05704,6.02557 -0.128879,0.14241 -0.166193,0.13111 -1.209294,-0.36603 -0.538853,-0.25681 -1.00397,-0.47964 -1.033585,-0.49519 -0.04911,-0.0258 -0.05382,-0.006 -0.05382,0.21289 v 0.24114 l 1.43841,0.77533 1.438402,0.77533 0.0079,-3.58452 c 0.0045,-1.97148 0.0045,-5.19756 0,-7.16904 z m -2.736534,9.87611 -0.482643,-0.26105 H 8.4130042 4.2888361 l -0.4853053,0.26127 -0.485298,0.26128 5.0921098,-2.3e-4 5.0921184,-2.3e-4 -0.482645,-0.26107 z m -5.3964963,-1.02256 c 0.048515,-0.55396 0.4614978,-0.8903 0.956962,-0.77942 0.3590566,0.0803 0.5803311,0.35983 0.6170923,0.77942 l 0.02085,0.23845 h 1.565204 1.565197 v -5.50748 -5.50749 H 10.783428 9.2182243 l -0.02085,0.23846 c -0.048515,0.55395 -0.4614978,0.8903 -0.9569621,0.77942 -0.3590638,-0.0804 -0.580331,-0.35983 -0.6170922,-0.77942 L 7.602396,283.02742 H 6.0371987 4.4720024 v 5.50749 5.50748 H 6.0371987 7.602396 Z m -2.5382966,-2.46677 c -0.049479,-0.0495 -0.089932,-0.11805 -0.089932,-0.15239 0,-0.14499 0.067572,-0.21034 0.3797989,-0.36731 0.5405215,-0.27173 0.8767422,-0.59957 1.1400476,-1.11159 0.3976721,-0.77334 0.5375696,-1.62232 0.5605165,-3.40166 0.00786,-0.60921 0.021301,-1.1527 0.029897,-1.20777 0.033042,-0.21232 0.2957686,-0.3033 0.4381473,-0.15172 0.065402,0.0696 0.066901,0.0906 0.066901,0.93125 0,2.90288 -0.4044429,4.28858 -1.4922505,5.11273 -0.2096815,0.15886 -0.7637762,0.43729 -0.8715626,0.43795 -0.039395,2.3e-4 -0.1120687,-0.04 -0.1615361,-0.0895 z m 6.1098349,-0.0599 c -0.92352,-0.4467 -1.4705514,-1.21818 -1.7499731,-2.46799 -0.1636746,-0.73207 -0.2345647,-1.61998 -0.2345647,-2.93774 0,-0.86372 5.98e-5,-0.86441 0.071231,-0.93126 0.1519317,-0.14272 0.401275,-0.053 0.4338347,0.15605 0.0086,0.055 0.022045,0.59856 0.029897,1.20777 0.022874,1.77627 0.163771,2.63462 0.5574291,3.39681 0.267566,0.51806 0.601381,0.84409 1.143128,1.11644 0.312227,0.15698 0.379799,0.22232 0.379799,0.36731 0,0.0851 -0.163488,0.24242 -0.251466,0.24188 -0.03939,-2.3e-4 -0.210055,-0.0674 -0.379275,-0.14927 z m -2.8952905,-1.4633 c -0.052477,-0.0229 -0.1043879,-0.065 -0.1153802,-0.0937 -0.010986,-0.0286 -0.019959,-1.10081 -0.019959,-2.38259 v -2.33049 l 0.071231,-0.0669 c 0.097585,-0.0917 0.2659292,-0.0896 0.3541831,0.004 l 0.066901,0.0712 v 2.34409 c 0,2.30305 -7.474e-4,2.34516 -0.061513,2.40562 -0.03386,0.0339 -0.074229,0.0615 -0.089785,0.0615 -0.015546,0 -0.046722,0.006 -0.069218,0.0143 -0.022496,0.007 -0.083905,-0.004 -0.13637,-0.0274 z m 0.3876401,4.09753 c -5.98e-5,-0.17172 -0.085194,-0.33769 -0.1922508,-0.37481 -0.1937078,-0.0672 -0.3613805,0.10667 -0.361478,0.37481 l -4.51e-5,0.13076 H 8.4103426 8.68726 l -5.98e-5,-0.13076 z m -5.315134,-0.54044 0.5769011,-0.27816 v -0.8509 c 0,-0.66773 -0.00828,-0.84787 -0.038493,-0.83683 -0.021154,0.007 -0.4365257,0.12949 -0.9230418,0.27053 l -0.8845834,0.25647 v 1.02214 1.02215 l 0.3461407,-0.16361 c 0.1903743,-0.09 0.6057456,-0.2888 0.9230407,-0.44179 z m 11.3457284,-0.41507 v -1.0248 l -0.884584,-0.25625 c -0.486516,-0.14094 -0.902112,-0.26288 -0.923534,-0.27095 -0.03095,-0.0116 -0.0373,0.16093 -0.0308,0.84165 l 0.0082,0.85637 0.907658,0.43706 c 0.499216,0.24038 0.911119,0.43809 0.915349,0.43937 0.0045,0.001 0.0077,-0.45882 0.0077,-1.02245 z m -11.6457195,-1.84557 0.8615086,-0.25273 v -1.03066 -1.03068 H 3.025933 2.1182748 l -0.00807,1.28457 c -0.00755,1.20935 -0.00451,1.2845 0.046114,1.28339 0.029824,-7e-4 0.4418625,-0.1149 0.9156943,-0.25389 z m 11.6383645,-1.0295 -0.0081,-1.28457 h -0.907658 -0.907658 v 1.0306 1.03061 l 0.861508,0.25203 c 0.473825,0.13862 0.885885,0.25291 0.915687,0.25397 0.05105,10e-4 0.05375,-0.0731 0.04612,-1.28264 z M 3.9335911,287.24269 v -1.03068 l -0.8615086,-0.25272 c -0.4738245,-0.13899 -0.8857354,-0.25325 -0.9153504,-0.2539 -0.050454,-7.4e-4 -0.053819,0.0795 -0.053819,1.27057 0,0.69947 0.00943,1.28119 0.021008,1.29271 0.01151,0.0115 0.4234368,0.0173 0.9153495,0.0129 l 0.8943827,-0.008 z m 10.7768559,-0.25391 c 0.0075,-1.20959 0.0052,-1.28445 -0.04611,-1.28264 -0.02982,7.5e-4 -0.441863,0.11536 -0.915693,0.25396 l -0.861503,0.25203 -0.0082,0.99959 c -0.0045,0.54978 -0.0015,1.01722 0.0067,1.03876 0.01181,0.0307 0.2088,0.0374 0.91579,0.031 l 0.900753,-0.008 z M 3.9489747,284.82501 v -0.84843 L 3.3745853,283.69935 C 3.0586729,283.54686 2.643309,283.3481 2.4515436,283.25765 L 2.1028923,283.0932 v 1.02188 1.02189 l 0.8999669,0.26451 c 0.4949768,0.14548 0.9103491,0.26619 0.9230407,0.26824 0.012705,0.002 0.023094,-0.37807 0.023094,-0.84471 z m 9.8842433,0.56975 0.884584,-0.25625 v -1.0226 -1.02259 l -0.392297,0.18625 c -0.215758,0.10242 -0.63113,0.30118 -0.923042,0.44166 l -0.530744,0.25542 v 0.85168 c 0,0.66859 0.0083,0.84858 0.03842,0.83719 0.02115,-0.008 0.436524,-0.1298 0.92304,-0.27076 z m -5.3156948,-1.87488 c 0.096756,-0.0368 0.1697368,-0.1952 0.1697368,-0.36843 v -0.12406 H 8.4103426 8.1334337 v 0.12406 c 0,0.29678 0.1625162,0.45267 0.3840895,0.36843 z"
       id="path91"
       inkscape:connector-curvature="0" />
    <path
       style="fill:#ffffff;stroke-width:0.17857143"
       d="M 16.896185,31.954947 V 11.240661 h 5.872281 5.872282 l 0.121585,0.973132 c 0.20874,1.670699 1.234851,2.766934 2.723861,2.910009 1.75119,0.168267 2.942519,-0.838427 3.30615,-2.793755 l 0.202593,-1.089386 h 5.772053 5.772052 v 20.714286 20.714286 h -5.77892 -5.778919 l -0.204306,-1.017316 c -0.372257,-1.853606 -1.405183,-2.794834 -3.071927,-2.799218 -1.557501,-0.0041 -2.708405,1.166625 -2.961395,3.012391 l -0.11022,0.804143 H 22.76477 16.896185 Z m 4.666822,10.327156 c 1.730637,-0.862224 3.611811,-2.622022 4.594832,-4.298368 1.780595,-3.036447 2.700107,-8.536943 2.701905,-16.162716 6.7e-4,-2.842803 -0.02682,-3.1079 -0.356416,-3.4375 -0.464814,-0.464814 -0.815136,-0.451099 -1.317826,0.05159 -0.397317,0.397316 -0.412076,0.53488 -0.528338,4.924394 -0.06578,2.483612 -0.204166,5.292985 -0.30752,6.243051 -0.570376,5.243066 -2.376618,8.840098 -5.257031,10.469086 -1.922157,1.087055 -2.232142,1.33655 -2.232142,1.796553 0,0.480665 0.56244,1.158181 0.961465,1.158181 0.135948,0 0.91943,-0.334923 1.741071,-0.744273 z m 22.82389,0.30773 c 0.681722,-0.725659 0.409152,-1.190272 -1.264676,-2.155736 -2.459145,-1.418434 -3.590074,-2.707359 -4.64069,-5.289023 -1.054243,-2.59058 -1.580021,-6.862335 -1.58358,-12.866002 -8.93e-4,-1.638696 -0.08051,-3.186558 -0.176752,-3.439695 -0.265134,-0.697355 -0.943859,-0.940013 -1.538841,-0.550165 l -0.478457,0.313497 0.101682,5.113619 c 0.141116,7.096748 0.678475,10.277016 2.294616,13.580285 1.023056,2.091048 2.875059,3.956973 4.950593,4.987807 0.821639,0.408075 1.591114,0.741956 1.709943,0.741956 0.118828,0 0.400602,-0.196445 0.626162,-0.436543 z M 32.60586,36.60642 c 0.124317,-0.232289 0.171079,-3.312026 0.140211,-9.234255 l -0.04631,-8.885728 -0.470494,-0.264051 c -0.422075,-0.236876 -0.518555,-0.23256 -0.9375,0.04194 l -0.467006,0.305994 v 8.978026 c 0,6.744814 0.0533,9.031329 0.214286,9.192312 0.350588,0.350588 1.353324,0.264675 1.566818,-0.134241 z"
       id="path93"
       inkscape:connector-curvature="0"
       transform="matrix(0.26458333,0,0,0.26458333,0,280.06665)" />
    <path
       style="fill:#ffffff;stroke-width:0.17857143"
       d="m 31.102739,12.6295 c -0.15289,-0.218282 -0.277983,-0.620068 -0.277983,-0.892858 0,-0.483538 0.02522,-0.495981 1.005508,-0.495981 h 1.005507 l -0.104009,0.640934 c -0.05721,0.352514 -0.198094,0.7543 -0.313087,0.892857 -0.314385,0.378811 -1.00214,0.303053 -1.315936,-0.144952 z"
       id="path95"
       inkscape:connector-curvature="0"
       transform="matrix(0.26458333,0,0,0.26458333,0,280.06665)" />
    <path
       style="fill:#ffffff;stroke-width:0.17857143"
       d="m 30.824756,52.246886 c 0,-0.480872 0.626207,-1.363367 0.967428,-1.363367 0.352724,0 0.802315,0.589783 0.927773,1.217074 l 0.113728,0.56864 h -1.004464 c -0.937108,0 -1.004465,-0.02832 -1.004465,-0.422347 z"
       id="path97"
       inkscape:connector-curvature="0"
       transform="matrix(0.26458333,0,0,0.26458333,0,280.06665)" />
    <path
       style="fill:#ffffff;stroke-width:0.17857143"
       d="m 12.967613,56.703007 c 0,-0.04035 0.765372,-0.482318 1.700826,-0.982143 L 16.369264,54.81209 H 31.80199 47.234717 l 1.649739,0.896387 c 0.907357,0.493012 1.688331,0.934976 1.735497,0.982142 0.04717,0.04717 -8.405316,0.08576 -18.783291,0.08576 -10.377977,0 -18.869049,-0.03302 -18.869049,-0.07337 z"
       id="path99"
       inkscape:connector-curvature="0"
       transform="matrix(0.26458333,0,0,0.26458333,0,280.06665)" />
    <path
       style="fill:#ffffff;stroke-width:0.17857143"
       d="m 8.0087238,48.692876 0.048175,-3.784744 2.8571432,-0.842656 c 1.571429,-0.463461 3.078125,-0.893241 3.348214,-0.955067 l 0.491072,-0.11241 v 3.120083 c 0,2.32824 -0.05665,3.143295 -0.223215,3.211544 -0.122767,0.0503 -1.651143,0.779181 -3.396389,1.619727 L 7.9605486,52.47762 Z"
       id="path101"
       inkscape:connector-curvature="0"
       transform="matrix(0.26458333,0,0,0.26458333,0,280.06665)" />
    <path
       style="fill:#ffffff;stroke-width:0.17857143"
       d="m 8.0774407,41.665952 c -0.062262,-0.52975 -0.059522,-2.69037 0.00609,-4.801379 l 0.1192905,-3.838197 h 3.2787378 3.278737 l -0.04813,3.866404 -0.04813,3.866404 -1.964286,0.575194 c -1.080356,0.316357 -2.536871,0.737095 -3.2366984,0.934974 l -1.2724134,0.35978 z"
       id="path103"
       inkscape:connector-curvature="0"
       transform="matrix(0.26458333,0,0,0.26458333,0,280.06665)" />
    <path
       style="fill:#ffffff;stroke-width:0.17857143"
       d="m 8.0545003,29.579934 c -0.139514,-1.488822 -0.052407,-7.898078 0.1095376,-8.059712 0.058926,-0.05881 1.5656228,0.30947 3.3482141,0.818408 l 3.241076,0.925342 v 3.809773 3.809774 H 11.464992 8.1766562 Z"
       id="path105"
       inkscape:connector-curvature="0"
       transform="matrix(0.26458333,0,0,0.26458333,0,280.06665)" />
    <path
       style="fill:#ffffff;stroke-width:0.17857143"
       d="M 12.431899,20.411767 C 11.302435,20.071175 9.835917,19.632798 9.1729705,19.437595 L 7.9676134,19.082681 v -3.742438 c 0,-2.058341 0.03115,-3.742439 0.069222,-3.742439 0.038072,0 1.564858,0.718875 3.3928576,1.5975 l 3.323635,1.597499 v 3.134644 c 0,1.724053 -0.06027,3.127653 -0.133929,3.119111 -0.07366,-0.0085 -1.058036,-0.294199 -2.1875,-0.634791 z"
       id="path107"
       inkscape:connector-curvature="0"
       transform="matrix(0.26458333,0,0,0.26458333,0,280.06665)" />
    <path
       style="fill:#ffffff;stroke-width:0.17857143"
       d="M 4.1321998,55.650953 C 3.9848074,51.769453 4.0808834,5.4248581 4.2366452,5.2691861 c 0.059575,-0.05954 2.4501996,1.1526679 5.3125,2.6937958 l 5.2041828,2.8020511 v 0.773528 c 0,0.425441 -0.03084,0.773529 -0.06854,0.773529 -0.0377,0 -1.686,-0.763393 -3.662894,-1.696429 C 7.5295875,8.9673964 6.5932146,8.6796321 6.2281137,9.1424471 5.9041423,9.5531248 5.8243462,17.077569 5.9438753,35.944985 6.0739807,56.481829 6.0033171,55.32102 7.1099082,55.099703 7.3917311,55.043338 9.2309845,54.237497 11.197138,53.308945 l 3.574824,-1.688276 -0.05396,0.835816 -0.05396,0.835816 -3.660714,1.968687 C 8.9899348,56.343769 6.6480344,57.60562 5.7991048,58.065104 l -1.5435086,0.835427 z"
       id="path109"
       inkscape:connector-curvature="0"
       transform="matrix(0.26458333,0,0,0.26458333,0,280.06665)" />
    <path
       style="fill:#ffffff;stroke-width:0.17857143"
       d="m 48.79029,30.601057 c -0.141382,-0.368435 -0.137227,-3.450641 0.0076,-5.637482 l 0.114142,-1.723515 2.965292,-0.847482 c 1.63091,-0.466116 3.105916,-0.885174 3.277791,-0.931241 0.29189,-0.07823 0.3125,0.229713 0.3125,4.669212 v 4.75297 h -3.284466 c -2.830273,0 -3.299455,-0.03906 -3.392857,-0.282462 z"
       id="path111"
       inkscape:connector-curvature="0"
       transform="matrix(0.26458333,0,0,0.26458333,0,280.06665)" />
    <path
       style="fill:#ffffff;stroke-width:0.17857143"
       d="m 48.792332,20.78495 c -0.06074,-0.158281 -0.110433,-1.552043 -0.110433,-3.097248 v -2.809465 l 0.580357,-0.283516 c 0.319197,-0.155933 1.847572,-0.891259 3.396391,-1.634056 l 2.816033,-1.35054 -0.04818,3.772304 -0.04818,3.772305 -2.857143,0.834822 c -1.571429,0.459152 -3.02843,0.890702 -3.237781,0.959 -0.266829,0.08705 -0.413658,0.03813 -0.491072,-0.163606 z"
       id="path113"
       inkscape:connector-curvature="0"
       transform="matrix(0.26458333,0,0,0.26458333,0,280.06665)" />
    <path
       style="fill:#ffffff;stroke-width:0.17857143"
       d="m 52.164042,41.713156 -3.214286,-0.930657 -0.04812,-3.878062 -0.04813,-3.878061 h 3.307055 3.307053 v 4.821428 c 0,2.651786 -0.02009,4.815709 -0.04464,4.808719 -0.02455,-0.007 -1.491072,-0.431506 -3.258929,-0.943367 z"
       id="path115"
       inkscape:connector-curvature="0"
       transform="matrix(0.26458333,0,0,0.26458333,0,280.06665)" />
    <path
       style="fill:#ffffff;stroke-width:0.17857143"
       d="m 52.074756,50.789789 -3.125,-1.514843 L 48.8367,48.15959 c -0.169589,-1.673075 -0.169714,-4.654642 -2.08e-4,-4.921959 0.11828,-0.186532 0.819475,-0.04107 3.390123,0.703264 l 3.240998,0.938439 v 3.716378 c 0,2.044008 -0.06027,3.7147 -0.133928,3.712648 -0.07366,-0.0021 -1.540179,-0.685408 -3.258929,-1.518571 z"
       id="path117"
       inkscape:connector-curvature="0"
       transform="matrix(0.26458333,0,0,0.26458333,0,280.06665)" />
    <path
       style="fill:#ffffff;stroke-width:0.17857143"
       d="m 53.994399,56.020437 -5.3125,-2.857822 v -0.801511 c 0,-0.572864 0.06368,-0.774389 0.223214,-0.706441 0.122768,0.05229 1.774836,0.833036 3.671262,1.734995 3.748603,1.782871 4.428628,1.959157 4.798185,1.243861 0.185084,-0.358241 0.22765,-4.820533 0.215478,-22.589286 C 57.581696,19.865661 57.517599,9.7004828 57.4476,9.4549471 57.209367,8.619291 56.292583,8.8497934 52.284565,10.753062 l -3.621504,1.719728 0.05406,-0.836865 0.05406,-0.836864 5.243741,-2.8241494 c 2.884058,-1.5532818 5.274944,-2.7929456 5.313082,-2.7548084 0.03814,0.038137 0.04899,12.1268238 0.02412,26.8637478 l -0.04523,26.794407 z"
       id="path119"
       inkscape:connector-curvature="0"
       transform="matrix(0.26458333,0,0,0.26458333,0,280.06665)" />
  </g>
</svg>
