<?xml version="1.0" encoding="UTF-8" standalone="no"?>
<!-- Created with Inkscape (http://www.inkscape.org/) -->

<svg
   xmlns:dc="http://purl.org/dc/elements/1.1/"
   xmlns:cc="http://creativecommons.org/ns#"
   xmlns:rdf="http://www.w3.org/1999/02/22-rdf-syntax-ns#"
   xmlns:svg="http://www.w3.org/2000/svg"
   xmlns="http://www.w3.org/2000/svg"
   xmlns:sodipodi="http://sodipodi.sourceforge.net/DTD/sodipodi-0.dtd"
   xmlns:inkscape="http://www.inkscape.org/namespaces/inkscape"
   width="64"
   height="64"
   viewBox="0 0 16.933333 16.933334"
   version="1.1"
   id="svg8"
   inkscape:version="0.92.5 (2060ec1f9f, 2020-04-08)"
   sodipodi:docname="video_call_64x64.svg">
  <defs
     id="defs2" />
  <sodipodi:namedview
     id="base"
     pagecolor="#ffffff"
     bordercolor="#666666"
     borderopacity="1.0"
     inkscape:pageopacity="0.0"
     inkscape:pageshadow="2"
     inkscape:zoom="11.2"
     inkscape:cx="30.634928"
     inkscape:cy="34.143019"
     inkscape:document-units="mm"
     inkscape:current-layer="layer1"
     showgrid="false"
     units="px"
     inkscape:window-width="1208"
     inkscape:window-height="987"
     inkscape:window-x="1992"
     inkscape:window-y="0"
     inkscape:window-maximized="1" />
  <metadata
     id="metadata5">
    <rdf:RDF>
      <cc:Work
         rdf:about="">
        <dc:format>image/svg+xml</dc:format>
        <dc:type
           rdf:resource="http://purl.org/dc/dcmitype/StillImage" />
        <dc:title />
      </cc:Work>
    </rdf:RDF>
  </metadata>
  <g
     inkscape:label="Layer 1"
     inkscape:groupmode="layer"
     id="layer1"
     transform="translate(0,-280.06665)">
    <path
       style="fill:#000000;stroke-width:0.03006367"
       d="m 4.71345,296.30558 c -0.4084578,-0.10662 -0.7321637,-0.38145 -0.9265767,-0.78666 l -0.1081791,-0.22548 -0.015034,-3.30701 -0.015034,-3.30701 -1.1875147,-0.015 c -1.3291987,-0.0168 -1.2833257,-0.009 -1.48157998,-0.24098 -0.0575803,-0.0673 -0.12039409,-0.17923 -0.13959279,-0.24882 -0.0253471,-0.0918 -0.0324945,-0.69128 -0.0261007,-2.18825 l 0.008805,-2.06175 0.0909858,-0.14714 c 0.0563502,-0.0912 0.14698587,-0.18177 0.23810117,-0.23813 l 0.1471144,-0.091 1.182408,-0.008 1.182408,-0.008 v -0.64632 c 0,-0.57473 0.0069,-0.66684 0.062436,-0.83164 0.1143997,-0.33959 0.3234069,-0.59658 0.6393532,-0.78613 0.3438613,-0.2063 0.1950341,-0.19913 4.1327819,-0.19913 2.2855415,0 3.6024775,0.0109 3.7067985,0.0307 0.432466,0.082 0.811833,0.38259 1.012014,0.80182 l 0.112092,0.23476 0.0095,0.69897 0.0095,0.69898 1.147936,3.4e-4 c 1.146005,3.5e-4 1.148196,4.6e-4 1.301774,0.072 0.166345,0.0775 0.295256,0.22135 0.359447,0.40123 0.05453,0.15279 0.0619,4.10095 0.008,4.28086 -0.01919,0.064 -0.08143,0.17084 -0.138303,0.23728 -0.196801,0.22992 -0.152066,0.22268 -1.480308,0.23949 l -1.187516,0.015 -0.01503,3.30701 -0.01504,3.307 -0.108179,0.22548 c -0.194413,0.40521 -0.518119,0.68004 -0.926577,0.78667 -0.181696,0.0475 -0.491258,0.0516 -3.7904636,0.0516 -3.2992046,0 -3.608767,-0.004 -3.7904636,-0.0516 z m 7.64344,-0.49445 c 0.204089,-0.10022 0.364745,-0.27004 0.472129,-0.49906 l 0.07922,-0.16895 v -3.23185 -3.23185 h -0.225477 -0.225478 l -0.01503,3.17393 -0.01503,3.17392 -0.082,0.12391 c -0.0451,0.0682 -0.146566,0.16185 -0.225477,0.20824 l -0.143476,0.0843 H 8.5039089 5.0315541 l -0.1434753,-0.0843 c -0.078913,-0.0464 -0.1803765,-0.14009 -0.2254775,-0.20824 l -0.082003,-0.12391 -0.015034,-3.17392 -0.015034,-3.17393 H 4.3250541 4.0995765 v 3.23185 3.23185 l 0.068544,0.14866 c 0.094858,0.20572 0.1950842,0.32938 0.3576456,0.44122 0.264673,0.1821 0.063102,0.17372 4.0232327,0.16746 l 3.6377042,-0.006 z m -6.4985797,-1.40607 c 0,-0.47385 0.00954,-0.62119 0.044569,-0.68896 0.076811,-0.14854 0.296642,-0.14988 0.3756296,-0.003 0.018104,0.0338 0.03075,0.31182 0.03075,0.67575 v 0.61827 h 2.1972646 2.1972645 l -0.0127,-0.77413 c -0.01397,-0.85152 -0.03118,-0.95934 -0.21477,-1.34535 -0.210107,-0.44178 -0.5541306,-0.79707 -0.9793321,-1.01141 l -0.2140962,-0.10791 -0.1782479,0.072 c -0.3942939,0.15926 -0.770667,0.16389 -1.1561007,0.0142 l -0.2193332,-0.0852 -0.2111913,0.10323 c -0.3875193,0.18943 -0.7577186,0.55476 -0.9539022,0.94141 -0.065522,0.12913 -0.1696483,0.2089 -0.2726652,0.2089 -0.076081,0 -0.1926319,-0.1409 -0.1926319,-0.23288 0,-0.11583 0.2508588,-0.51606 0.4803513,-0.76637 0.1633508,-0.17818 0.6788874,-0.56406 0.7535735,-0.56406 0.015089,0 -0.026585,-0.0835 -0.092605,-0.18572 -0.2263257,-0.35018 -0.2394102,-0.43625 -0.2394102,-1.57504 0,-0.9531 0.00317,-1.01143 0.064752,-1.1759 0.08737,-0.23351 0.3125802,-0.45873 0.5460982,-0.5461 0.1594698,-0.0596 0.2295529,-0.0648 0.8923348,-0.0648 0.6627823,0 0.7328651,0.005 0.8923355,0.0648 0.2335178,0.0874 0.4587283,0.31259 0.5460981,0.5461 0.061537,0.16447 0.064747,0.2228 0.064747,1.1759 0,1.13609 -0.013424,1.22539 -0.2359833,1.56974 l -0.1166184,0.18042 0.1346654,0.0715 c 0.5335393,0.28304 1.0072433,0.85351 1.2040773,1.45005 0.126837,0.38439 0.156279,0.64672 0.156279,1.39242 v 0.64419 h 0.355095 c 0.399457,0 0.467816,-0.0296 0.501361,-0.21783 0.0096,-0.0538 0.0136,-1.4507 0.0089,-3.1042 l -0.0086,-3.00637 -0.300636,-0.015 c -0.344796,-0.0172 -0.470032,-0.0734 -0.617505,-0.277 -0.131891,-0.18207 -0.153149,-0.35661 -0.143116,-1.17501 0.0083,-0.67471 0.01383,-0.74174 0.0663,-0.79967 0.07475,-0.0825 0.237523,-0.0841 0.318524,-0.003 0.05698,0.057 0.06013,0.10022 0.06013,0.82481 0,0.43375 0.01293,0.79866 0.02987,0.84323 0.03572,0.094 0.19049,0.16585 0.357038,0.16585 h 0.118269 l 0.02074,-0.1879 c 0.02654,-0.24041 0.133951,-0.55429 0.253377,-0.7404 0.09234,-0.14389 0.37261,-0.42825 0.507763,-0.51517 l 0.06948,-0.0447 -0.07978,-0.17415 c -0.07661,-0.16722 -0.07935,-0.19114 -0.0688,-0.60128 0.0096,-0.37497 0.01942,-0.44308 0.08009,-0.55788 0.176977,-0.3349 0.513937,-0.55324 0.861224,-0.55801 0.261725,-0.004 0.38048,0.0297 0.577087,0.162 0.339656,0.2285 0.478025,0.56321 0.45421,1.0987 -0.01075,0.2416 -0.02891,0.33558 -0.09113,0.47148 l -0.0777,0.16973 0.12051,0.0798 c 0.396104,0.26213 0.713733,0.83424 0.715468,1.28869 l 4.44e-4,0.11635 0.184916,-0.0133 c 0.155186,-0.0112 0.196274,-0.0266 0.255543,-0.0955 l 0.07062,-0.0821 v -2.01395 -2.01396 l -0.07379,-0.0738 -0.07379,-0.0738 h -2.028014 -2.027992 l -0.07783,0.0925 -0.07783,0.0925 v 0.76098 c 0,0.69477 -0.0049,0.76695 -0.05544,0.82946 -0.07322,0.0904 -0.2254,0.0916 -0.314508,0.003 -0.06468,-0.0648 -0.06597,-0.0819 -0.06597,-0.88437 v -0.81836 l 0.08678,-0.15658 c 0.149469,-0.26972 0.351303,-0.36954 0.747294,-0.36954 h 0.233192 v -0.43143 c 0,-0.44906 -0.02846,-0.60172 -0.121441,-0.65149 -0.03024,-0.0162 -0.258807,-0.0294 -0.50792,-0.0294 -0.45279,0 -0.452932,2e-5 -0.452932,0.0693 0,0.12698 -0.146162,0.37064 -0.276513,0.46098 l -0.124205,0.086 H 8.503889 6.46945 l -0.1242045,-0.086 c -0.1303519,-0.0904 -0.2765143,-0.334 -0.2765143,-0.46098 0,-0.0693 -1.364e-4,-0.0693 -0.4529314,-0.0693 -0.2491126,0 -0.4776762,0.0133 -0.5079205,0.0294 -0.092834,0.0497 -0.1214404,0.20232 -0.1214404,0.648 v 0.42794 l 0.2931211,0.0127 c 0.3909442,0.0169 0.5535421,0.10854 0.7095189,0.39975 0.063998,0.11948 0.064704,0.13994 0.073161,2.11769 0.00579,1.35676 -0.00199,2.04762 -0.024221,2.15486 -0.039286,0.18924 -0.1619489,0.36813 -0.319663,0.46617 -0.095474,0.0593 -0.1679854,0.0745 -0.4162508,0.0869 l -0.3006364,0.0151 -0.00855,3.00637 c -0.00468,1.6535 -5.57e-4,3.05109 0.00919,3.10576 0.0342,0.19166 0.090584,0.21628 0.4953993,0.21628 H 5.8582767 Z M 9.65302,286.87561 c -0.1315644,-0.10748 -0.2477694,-0.19542 -0.2582338,-0.19542 -0.010462,0 -0.019028,0.0198 -0.019028,0.044 0,0.0785 -0.18169,0.25412 -0.2955947,0.28575 -0.064408,0.0178 -0.5171228,0.0307 -1.0884804,0.0308 -0.9550288,1.1e-4 -0.9813786,-0.002 -1.111668,-0.0675 -0.2398329,-0.12156 -0.2550832,-0.17715 -0.2550832,-0.92976 0,-0.72573 0.00309,-0.73793 0.2251721,-0.88908 0.09841,-0.067 0.1097761,-0.0676 1.1551555,-0.0676 1.2029526,0 1.2095562,7.9e-4 1.3304851,0.23665 l 0.065208,0.12698 0.2053644,-0.17675 c 0.11295,-0.0972 0.234914,-0.19255 0.271031,-0.21187 0.163844,-0.0877 0.401583,0.009 0.479165,0.19452 0.03699,0.0885 0.04346,0.24216 0.03577,0.84864 -0.0082,0.64812 -0.01601,0.7503 -0.06243,0.8186 -0.06708,0.0987 -0.173312,0.14743 -0.321484,0.14743 -0.098374,0 -0.152753,-0.0299 -0.3553564,-0.19542 z m -0.6981512,-0.81172 v -0.52612 H 8.007863 7.0608571 v 0.52612 0.52611 H 8.007863 8.9548688 Z m 0.992102,-0.0151 c 0,-0.24803 -0.00727,-0.45096 -0.016258,-0.45096 -0.0258,0 -0.5245133,0.43369 -0.5247139,0.45628 -2.411e-4,0.0258 0.4880007,0.44531 0.5184185,0.44549 0.012403,8e-5 0.022543,-0.20279 0.022543,-0.45081 z m -1.0152565,5.37395 c 0.2246793,-0.10287 0.4132756,-0.28193 0.521139,-0.49481 0.081936,-0.16169 0.089002,-0.20247 0.09864,-0.56911 l 0.010388,-0.39492 -0.1428421,-0.0983 c -0.2187529,-0.1505 -0.4139805,-0.21323 -0.6667341,-0.21422 -0.1884961,-8e-4 -0.3004641,0.0247 -0.7608202,0.1733 l -0.539796,0.17417 v 0.33873 c 0,0.40433 0.056771,0.59112 0.2444859,0.80436 0.3159241,0.35891 0.8164372,0.47265 1.235544,0.28078 z m -0.2588301,-2.21077 c 0.3224739,-0.0138 0.5336047,0.0268 0.7721067,0.14846 l 0.1161351,0.0593 -0.010001,-0.37261 c -0.00941,-0.3507 -0.014768,-0.37886 -0.090989,-0.47867 -0.1461683,-0.19143 -0.2082094,-0.2047 -0.9562192,-0.2047 -0.7480114,0 -0.8100518,0.0132 -0.9562189,0.2047 -0.077834,0.10193 -0.081354,0.12268 -0.090673,0.53458 l -0.00969,0.42855 0.4606504,-0.15326 c 0.4026205,-0.13397 0.4989805,-0.15492 0.7649087,-0.16629 z m -6.9027895,-1.08126 c 0.00175,-0.43978 0.2993902,-0.99712 0.668167,-1.25111 l 0.1671644,-0.11512 -0.076152,-0.16635 c -0.09452,-0.20646 -0.1248416,-0.60458 -0.069592,-0.91373 0.1020713,-0.57116 0.6530079,-0.93657 1.2005778,-0.79628 0.3022771,0.0775 0.5187186,0.25059 0.6721352,0.53769 0.062015,0.11606 0.06783,0.16685 0.06783,0.59293 0,0.43217 -0.00515,0.47564 -0.071019,0.59918 l -0.071019,0.1332 0.086053,0.0617 c 0.4263008,0.30574 0.6931943,0.74936 0.7476504,1.24273 l 0.020737,0.18789 h 0.1182687 c 0.1665487,0 0.321314,-0.0719 0.3570378,-0.16585 0.018683,-0.0491 0.029869,-0.81469 0.029869,-2.04348 V 284.0692 L 5.539969,283.9767 5.462135,283.8842 H 3.4341441 1.4061518 l -0.073796,0.0738 -0.073796,0.0738 v 2.00894 c 0,1.79651 0.00508,2.01624 0.048314,2.07792 0.062563,0.0893 0.143837,0.12053 0.3199676,0.12288 l 0.1428026,0.002 z m 2.8740924,0.0695 c 0.026125,-0.0681 -0.048274,-0.3782 -0.1291065,-0.53818 -0.09696,-0.19189 -0.2897947,-0.39775 -0.4678539,-0.49944 l -0.1437784,-0.0821 -0.157473,0.0544 c -0.197303,0.0682 -0.3745974,0.0703 -0.5997657,0.007 -0.165722,-0.0465 -0.1824819,-0.0463 -0.2961216,0.005 -0.2985881,0.13464 -0.5819926,0.55081 -0.6187461,0.90858 l -0.019302,0.18791 h 1.2077733 c 1.0230755,0 1.210312,-0.006 1.2243739,-0.0433 z m 10.1322969,-0.14463 c -0.03621,-0.35246 -0.326401,-0.77676 -0.622602,-0.91033 -0.10937,-0.0493 -0.127494,-0.0495 -0.292265,-0.003 -0.225168,0.0631 -0.402463,0.0611 -0.599766,-0.007 l -0.157473,-0.0544 -0.143778,0.0821 c -0.178059,0.1017 -0.370893,0.30755 -0.467854,0.49944 -0.08083,0.15997 -0.15523,0.47011 -0.129106,0.53818 0.01406,0.0366 0.201298,0.0433 1.224374,0.0433 h 1.207773 z M 3.6241255,286.70832 c 0.1036785,-0.0392 0.2408168,-0.16568 0.2977622,-0.27468 0.057025,-0.10916 0.058008,-0.68012 0.00143,-0.81558 -0.052868,-0.12654 -0.1999948,-0.24942 -0.3537788,-0.2955 -0.2612672,-0.0783 -0.5810914,0.10784 -0.6581273,0.38299 -0.022038,0.0787 -0.031654,0.23912 -0.023967,0.39982 0.010821,0.2263 0.025157,0.28699 0.091444,0.38717 0.1346924,0.20353 0.4227418,0.29985 0.645265,0.21578 z m 10.1935505,-0.0318 c 0.07861,-0.0381 0.163766,-0.11218 0.211183,-0.18384 0.06843,-0.10339 0.08117,-0.15938 0.09185,-0.40339 0.01939,-0.44334 -0.11273,-0.68386 -0.420686,-0.76583 -0.232961,-0.062 -0.499699,0.0584 -0.612473,0.27649 -0.06023,0.11647 -0.06139,0.71924 -0.0016,0.83368 0.144738,0.27704 0.451098,0.37874 0.731736,0.24289 z m -9.2464098,-3.80925 c 0.00922,-0.55888 0.010369,-0.56757 0.09134,-0.68981 0.045101,-0.0681 0.1465662,-0.16174 0.2254776,-0.20812 l 0.1434754,-0.0844 h 0.5915086 c 0.5505163,0 0.5972659,0.004 0.6745756,0.0619 0.1281378,0.0956 0.1948088,0.20188 0.2133364,0.34 0.011472,0.0856 0.041126,0.14526 0.092043,0.1853 0.072805,0.0572 0.131366,0.0591 1.9008907,0.0591 1.7695245,0 1.8280895,-0.002 1.9008905,-0.0591 0.05092,-0.04 0.08056,-0.0998 0.09204,-0.1853 0.01852,-0.13812 0.0852,-0.24438 0.213336,-0.34 0.07731,-0.0577 0.124059,-0.0619 0.674575,-0.0619 h 0.591509 l 0.143475,0.0844 c 0.07892,0.0464 0.180377,0.14004 0.225478,0.20812 0.08097,0.12224 0.08212,0.13093 0.09134,0.68981 l 0.0093,0.56601 h 0.242422 0.242423 l -0.01283,-0.62382 c -0.0122,-0.59308 -0.01666,-0.63214 -0.09047,-0.79279 -0.104678,-0.22779 -0.265512,-0.39837 -0.470547,-0.49905 l -0.170176,-0.0836 H 8.5039168 4.8211166 l -0.1375587,0.0677 c -0.2224882,0.10964 -0.3774241,0.263 -0.4835889,0.47865 l -0.097558,0.19816 -0.012662,0.62732 -0.012662,0.62733 h 0.2424233 0.2424224 z m 3.8014156,-0.72891 c -0.1588438,-0.12495 -0.069806,-0.38865 0.1312318,-0.38865 0.2010336,0 0.2900752,0.2637 0.1312315,0.38865 -0.043567,0.0343 -0.1026215,0.0623 -0.1312315,0.0623 -0.028608,0 -0.087665,-0.028 -0.1312318,-0.0623 z"
       id="path253"
       inkscape:connector-curvature="0" />
    <path
       style="fill:#ffffff;stroke-width:0.00081162;stroke-miterlimit:4;stroke-dasharray:none"
       d="m 1.4282247,288.19837 c -0.037493,-0.0164 -0.08581,-0.0566 -0.1073707,-0.0894 -0.037128,-0.0567 -0.039532,-0.16594 -0.045506,-2.06662 l -0.00627,-2.00679 0.069568,-0.0718 0.069568,-0.0718 h 2.0236513 2.0236481 l 0.078714,0.096 0.078714,0.0961 -0.00786,1.98155 c -0.00674,1.69962 -0.012376,1.98843 -0.0395,2.02987 -0.046292,0.0708 -0.1645233,0.11989 -0.3123906,0.12989 l -0.1300481,0.009 -0.025459,-0.1912 c -0.045744,-0.34356 -0.178889,-0.65165 -0.3926086,-0.90846 -0.098029,-0.1178 -0.3141597,-0.31392 -0.3970932,-0.36033 -0.030963,-0.0173 -0.028068,-0.0322 0.026331,-0.13557 l 0.061118,-0.11609 v -0.50464 -0.50464 l -0.074169,-0.12884 c -0.2074419,-0.36038 -0.5496063,-0.54441 -0.9710463,-0.5223 -0.2323439,0.0122 -0.417194,0.0943 -0.5958172,0.26469 -0.2312412,0.22057 -0.3229808,0.47089 -0.3235282,0.88279 -3.784e-4,0.28436 0.022436,0.42277 0.1002346,0.60819 l 0.057993,0.1382 -0.061587,0.0444 c -0.2957932,0.21289 -0.4427942,0.38391 -0.5918498,0.68855 -0.1166853,0.23849 -0.1700037,0.43157 -0.1704813,0.61738 l -3.181e-4,0.12348 -0.1342132,-7.9e-4 c -0.073819,-4.6e-4 -0.164889,-0.0142 -0.2023828,-0.0305 z"
       id="path255"
       inkscape:connector-curvature="0" />
    <path
       style="fill:#ffffff;stroke-width:0.00081162;stroke-miterlimit:4;stroke-dasharray:none"
       d="m 3.2564681,286.69234 c -0.1175611,-0.0417 -0.2376236,-0.1447 -0.2943898,-0.25243 -0.039524,-0.075 -0.048307,-0.13303 -0.055272,-0.36506 -0.010741,-0.35778 0.011345,-0.43955 0.1585527,-0.58704 0.1909048,-0.19127 0.3991377,-0.22178 0.6266803,-0.0918 0.2209152,0.12617 0.2747976,0.27668 0.2581868,0.72122 -0.00823,0.22004 -0.017041,0.27222 -0.056898,0.33671 -0.059175,0.0958 -0.1818275,0.20451 -0.2741177,0.24308 -0.089281,0.0373 -0.2504002,0.0352 -0.3627403,-0.005 z"
       id="path257"
       inkscape:connector-curvature="0" />
    <path
       style="fill:#ffffff;stroke-width:0.00081162;stroke-miterlimit:4;stroke-dasharray:none"
       d="m 2.2406341,288.08697 c 0.021968,-0.18249 0.04714,-0.26065 0.1441712,-0.44768 0.1007558,-0.19422 0.3024112,-0.40113 0.4622665,-0.47432 l 0.1209161,-0.0554 0.1983241,0.0469 c 0.2307199,0.0546 0.4047482,0.0487 0.6037744,-0.0206 l 0.1262861,-0.044 0.1099284,0.0589 c 0.1725011,0.0924 0.4008934,0.33367 0.4936627,0.52155 0.080508,0.16306 0.1656856,0.49822 0.1345385,0.5294 -0.00945,0.009 -0.5558467,0.02 -1.2142168,0.0234 l -1.1970355,0.006 z"
       id="path259"
       inkscape:connector-curvature="0" />
    <path
       style="fill:#ffffff;stroke-width:0.00081162;stroke-miterlimit:4;stroke-dasharray:none"
       d="m 1.4282247,288.19837 c -0.037493,-0.0164 -0.08581,-0.0566 -0.1073707,-0.0894 -0.037128,-0.0567 -0.039532,-0.16594 -0.045506,-2.06662 l -0.00627,-2.00679 0.069568,-0.0718 0.069568,-0.0718 H 3.4316265 5.455039 l 0.078587,0.0913 0.07858,0.0913 -0.00851,1.98635 c -0.00468,1.09249 -0.016089,2.00306 -0.025355,2.02349 -0.032661,0.072 -0.1605575,0.12949 -0.3124707,0.14035 l -0.1454873,0.0104 -0.015454,-0.14427 c -0.048283,-0.45089 -0.2706866,-0.87502 -0.6136006,-1.17015 -0.080112,-0.0689 -0.1619664,-0.1345 -0.1819006,-0.14565 -0.032979,-0.0185 -0.030781,-0.0307 0.024458,-0.13638 0.059714,-0.11422 0.060825,-0.12308 0.0686,-0.54558 0.00508,-0.27478 -0.00103,-0.46948 -0.016843,-0.5405 -0.03397,-0.15241 -0.2029833,-0.38825 -0.3575479,-0.49894 -0.2043662,-0.14633 -0.3244413,-0.18249 -0.6097466,-0.18361 -0.2383297,-7.9e-4 -0.2521996,0.002 -0.3972695,0.0723 -0.194781,0.095 -0.3958089,0.29305 -0.4815255,0.47429 -0.085638,0.18109 -0.1159475,0.38334 -0.1042624,0.69573 0.00793,0.21176 0.020444,0.28962 0.06768,0.42088 0.031876,0.0886 0.063126,0.17627 0.069449,0.19489 0.008,0.0236 -0.037921,0.071 -0.1512999,0.15636 -0.3551283,0.26728 -0.6229009,0.74801 -0.6506288,1.16804 l -0.011694,0.17716 -0.1311859,-7.9e-4 c -0.072154,-4.6e-4 -0.1618624,-0.0142 -0.1993554,-0.0305 z"
       id="path261"
       inkscape:connector-curvature="0" />
    <path
       style="fill:#ffffff;stroke-width:0.00081162;stroke-miterlimit:4;stroke-dasharray:none"
       d="m 4.0983373,282.80213 0.012622,-0.61738 0.087463,-0.17179 c 0.1071351,-0.21043 0.2918337,-0.40051 0.4851383,-0.49927 l 0.1366043,-0.0698 h 3.6803195 3.6803186 l 0.15471,0.0779 c 0.195356,0.0984 0.367269,0.27174 0.463446,0.46733 0.08934,0.18169 0.109495,0.36161 0.110309,0.98479 l 5.83e-4,0.44559 H 12.687735 12.46562 l -0.01402,-0.33822 c -0.0077,-0.18601 -0.01412,-0.42035 -0.01422,-0.52075 -1.21e-4,-0.10038 -0.01067,-0.22025 -0.02347,-0.26637 -0.02955,-0.10645 -0.198881,-0.28739 -0.341662,-0.36511 l -0.107957,-0.0588 -0.584813,0.007 c -0.57459,0.007 -0.586266,0.008 -0.667945,0.0585 -0.09634,0.0599 -0.20013,0.21197 -0.220113,0.32253 -0.01923,0.10639 -0.06424,0.18858 -0.121089,0.22106 -0.03803,0.0217 -0.4313115,0.0274 -1.8805207,0.0274 H 6.6573767 l -0.058199,-0.0652 c -0.035074,-0.0393 -0.069139,-0.11401 -0.085725,-0.18812 -0.021523,-0.0962 -0.049425,-0.14679 -0.1279339,-0.23209 -0.1298355,-0.14105 -0.1575484,-0.14601 -0.8224539,-0.14719 l -0.5287781,-8e-4 -0.099145,0.0554 c -0.1329074,0.0743 -0.2877338,0.22785 -0.3287999,0.32614 -0.026037,0.0624 -0.035961,0.20005 -0.044855,0.62232 l -0.011416,0.54226 H 4.3178886 4.0857074 Z m 4.491855,-0.62639 c 0.1257953,-0.0642 0.1662699,-0.1957 0.099787,-0.32426 -0.040337,-0.0779 -0.092632,-0.10694 -0.1932839,-0.10694 -0.1706725,0 -0.2670745,0.20715 -0.168179,0.3614 0.024855,0.0388 0.1280791,0.1039 0.174643,0.11018 0.00341,4.6e-4 0.042586,-0.0177 0.087032,-0.0404 z"
       id="path263"
       inkscape:connector-curvature="0" />
    <path
       style="fill:#ffffff;stroke-width:0.00081162;stroke-miterlimit:4;stroke-dasharray:none"
       d="m 5.1400982,294.96961 c -0.1405805,-0.0405 -0.1326963,0.15111 -0.1326963,-3.2249 v -3.05742 l 0.2630571,-0.0138 c 0.1446819,-0.008 0.2981342,-0.0237 0.3410068,-0.0359 0.1648963,-0.0466 0.3566222,-0.25839 0.4170861,-0.46076 0.044316,-0.14832 0.061563,-1.56222 0.037597,-3.08283 l -0.018111,-1.14928 -0.059707,-0.12204 c -0.081835,-0.16727 -0.2345842,-0.30114 -0.3945617,-0.34583 -0.068568,-0.0191 -0.2346121,-0.0414 -0.3689807,-0.0495 l -0.2443058,-0.0147 0.015447,-0.41414 c 0.00849,-0.22777 0.02353,-0.44997 0.033407,-0.49375 0.033613,-0.14903 0.053352,-0.1564 0.4618802,-0.17246 0.2009913,-0.008 0.4088831,-0.008 0.4619817,1.1e-4 0.094953,0.0142 0.096961,0.0163 0.1219657,0.1215 0.033495,0.141 0.1612071,0.33018 0.2834981,0.41994 l 0.09824,0.0721 2.052481,5.4e-4 2.0524796,5.3e-4 0.127711,-0.11557 c 0.136045,-0.12311 0.231728,-0.2743 0.255807,-0.40419 0.01393,-0.0752 0.02023,-0.0804 0.114105,-0.0944 0.131154,-0.0197 0.789654,0.007 0.84008,0.0339 0.0764,0.0408 0.09428,0.14541 0.103321,0.60394 l 0.0087,0.44233 -0.254152,0.012 c -0.415851,0.0196 -0.579131,0.10976 -0.749105,0.4137 l -0.08086,0.1446 0.01287,0.78809 c 0.0085,0.51869 0.02126,0.8065 0.03741,0.84194 0.05618,0.12331 0.233245,0.16231 0.33592,0.074 0.05341,-0.0459 0.06133,-0.0704 0.07465,-0.23084 0.0082,-0.0987 0.01567,-0.4514 0.01661,-0.78377 l 0.0017,-0.60432 0.06979,-0.0871 0.06979,-0.0871 2.019571,-7.9e-4 2.019572,-8e-4 0.07952,0.0814 0.07951,0.0814 v 1.99224 1.99225 l -0.05593,0.0733 c -0.06334,0.0831 -0.156209,0.11676 -0.322075,0.11695 l -0.109588,1.2e-4 -0.01325,-0.15672 c -0.02294,-0.27132 -0.134587,-0.56535 -0.315588,-0.8311 -0.09129,-0.13405 -0.315028,-0.35414 -0.433079,-0.42604 l -0.07918,-0.0482 0.06315,-0.1484 c 0.03473,-0.0816 0.07387,-0.22374 0.08696,-0.31582 0.02768,-0.19463 0.0119,-0.54807 -0.03157,-0.7071 -0.07838,-0.28678 -0.276073,-0.52341 -0.550275,-0.65867 -0.133126,-0.0657 -0.150269,-0.0686 -0.397269,-0.0686 -0.253734,0 -0.261004,0.002 -0.425821,0.08 -0.217652,0.10394 -0.39773,0.28017 -0.491904,0.48141 -0.06723,0.14367 -0.06791,0.14858 -0.07723,0.55493 -0.0093,0.40752 -0.009,0.41081 0.04892,0.5487 0.09118,0.21687 0.09111,0.21895 -0.0093,0.28854 -0.156294,0.10831 -0.43692,0.42262 -0.519534,0.5819 -0.114355,0.22045 -0.195269,0.5007 -0.216545,0.74999 -0.0052,0.0611 -0.01096,0.0648 -0.111618,0.0711 -0.06283,0.004 -0.144225,-0.008 -0.199527,-0.029 -0.168539,-0.0643 -0.165305,-0.0476 -0.178252,-0.92371 -0.01026,-0.69401 -0.01548,-0.78223 -0.04944,-0.83405 -0.04745,-0.0724 -0.131741,-0.10598 -0.227707,-0.0906 -0.119245,0.019 -0.154526,0.0723 -0.174562,0.26335 -0.025,0.23844 -0.02335,1.25571 0.0023,1.43553 0.04161,0.2913 0.205672,0.51127 0.431968,0.57913 0.06313,0.019 0.222578,0.0403 0.354332,0.0475 l 0.239554,0.0132 0.01415,0.28136 c 0.0077,0.15474 0.01112,1.53801 0.0074,3.07393 -0.0063,2.61096 -0.0092,2.79628 -0.04413,2.84961 -0.05325,0.0813 -0.154831,0.10187 -0.502779,0.102 l -0.303938,1.2e-4 -0.0104,-0.75696 c -0.01113,-0.81 -0.02111,-0.90158 -0.136186,-1.25032 -0.200456,-0.60749 -0.677934,-1.18945 -1.2074588,-1.47167 l -0.1282826,-0.0684 0.1075489,-0.16939 c 0.2242175,-0.35316 0.2379395,-0.45616 0.2286635,-1.71621 l -0.0069,-0.93412 -0.069045,-0.14576 c -0.128724,-0.27176 -0.397785,-0.49338 -0.6675027,-0.54981 -0.1424584,-0.0298 -1.3506907,-0.032 -1.5049181,-0.003 -0.2726342,0.0517 -0.5395635,0.26021 -0.6676903,0.52157 -0.062983,0.12846 -0.073185,0.17441 -0.088213,0.39726 -0.022991,0.34102 -0.02269,1.13504 6.109e-4,1.59495 0.021508,0.42457 0.052654,0.55135 0.1910381,0.7776 0.1471462,0.24057 0.1444757,0.22033 0.036969,0.2804 -0.1430073,0.08 -0.4117985,0.28708 -0.583277,0.44952 -0.2748563,0.26036 -0.583016,0.74751 -0.5526107,0.8736 0.020421,0.0847 0.084905,0.16491 0.1563155,0.1945 0.055343,0.0229 0.075882,0.0209 0.1455071,-0.0147 0.078889,-0.0404 0.1208605,-0.0941 0.2850665,-0.36531 0.1129447,-0.18652 0.4935803,-0.55512 0.6984914,-0.67641 0.094164,-0.0557 0.2152817,-0.11755 0.269149,-0.13734 0.097318,-0.0358 0.099023,-0.0355 0.2684256,0.0296 0.2448246,0.0942 0.4024222,0.11958 0.6696071,0.10798 0.1901955,-0.008 0.2651301,-0.0223 0.4242618,-0.0797 0.2786151,-0.10037 0.2662691,-0.10006 0.4423713,-0.0114 0.2371339,0.11932 0.3982478,0.23504 0.5792776,0.41607 0.183879,0.18389 0.297039,0.34251 0.422461,0.59218 0.181677,0.36165 0.210126,0.55011 0.229358,1.51929 l 0.01182,0.59591 H 8.509563 6.3215685 l -0.00907,-0.62812 c -0.005,-0.34547 -0.016795,-0.64539 -0.026228,-0.66648 -0.039969,-0.0894 -0.2016904,-0.12634 -0.3094656,-0.0706 -0.1088836,0.0563 -0.1166051,0.10233 -0.1272731,0.75857 l -0.00986,0.60664 -0.314155,-0.002 c -0.1727851,-7.9e-4 -0.3462429,-0.0111 -0.3854614,-0.0224 z m 5.0765468,-7.93401 c 0.03999,-0.019 0.09459,-0.0697 0.121353,-0.11274 0.04754,-0.0765 0.04882,-0.0944 0.05603,-0.78437 0.004,-0.38838 9.2e-4,-0.74875 -0.0068,-0.80082 -0.01559,-0.10395 -0.105422,-0.22413 -0.206683,-0.27649 -0.08451,-0.0437 -0.2524672,-0.0395 -0.330726,0.008 -0.035433,0.0216 -0.1461481,0.1086 -0.2460362,0.19319 -0.099889,0.0846 -0.1868583,0.15378 -0.1932669,0.15377 -0.00644,-10e-6 -0.037642,-0.0464 -0.069413,-0.10288 -0.072247,-0.12864 -0.1131227,-0.16521 -0.2213964,-0.19805 -0.1017004,-0.0308 -1.6779762,-0.0564 -1.998293,-0.0324 -0.1822471,0.0136 -0.2148976,0.0228 -0.3054306,0.0851 -0.1840941,0.12683 -0.1862368,0.13544 -0.1944987,0.78159 -0.010416,0.81475 0.013051,0.91145 0.249334,1.02748 l 0.1229573,0.0604 h 1.030755 c 0.9649992,0 1.0359275,-0.003 1.1118465,-0.0403 0.087199,-0.0433 0.2517554,-0.21547 0.2517554,-0.26337 0,-0.0475 0.024475,-0.0351 0.1825291,0.0921 0.2570647,0.20691 0.3262678,0.24381 0.4572835,0.24381 0.06382,0 0.148739,-0.0156 0.188723,-0.0345 z"
       id="path265"
       inkscape:connector-curvature="0" />
    <path
       style="fill:#ffffff;stroke-width:0.00081162;stroke-miterlimit:4;stroke-dasharray:none"
       d="m 7.068911,286.06081 v -0.51537 h 0.9341214 0.9341225 v 0.51537 0.51539 H 8.0030324 7.068911 Z"
       id="path267"
       inkscape:connector-curvature="0" />
    <path
       style="fill:#ffffff;stroke-width:0.00081162;stroke-miterlimit:4;stroke-dasharray:none"
       d="m 13.398344,286.69718 c -0.111632,-0.0417 -0.217473,-0.12665 -0.277083,-0.22253 -0.04785,-0.0769 -0.05035,-0.0998 -0.05035,-0.45944 0,-0.37344 7.43e-4,-0.3795 0.056,-0.45715 0.244075,-0.34295 0.724067,-0.30998 0.910328,0.0625 0.06167,0.12334 0.06442,0.14078 0.06442,0.40801 0,0.31903 -0.02053,0.39948 -0.130929,0.51317 -0.150888,0.15536 -0.394926,0.22161 -0.57239,0.1554 z"
       id="path269"
       inkscape:connector-curvature="0" />
    <path
       style="fill:#ffffff;stroke-width:0.00081162;stroke-miterlimit:4;stroke-dasharray:none"
       d="m 12.432056,288.21432 c -0.05027,-0.008 -0.05905,-0.0192 -0.05905,-0.0777 0,-0.10124 0.08047,-0.3741 0.146493,-0.4967 0.08078,-0.15002 0.309972,-0.38658 0.459405,-0.47415 l 0.126176,-0.074 0.133234,0.0466 c 0.173843,0.0608 0.439321,0.0648 0.654262,0.01 l 0.155969,-0.0399 0.115762,0.0567 c 0.151254,0.074 0.365063,0.30136 0.468356,0.49804 0.0815,0.1552 0.144546,0.37108 0.145119,0.49694 l 3.2e-4,0.0698 -1.143494,-0.003 c -0.628922,-0.002 -1.170068,-0.007 -1.202548,-0.0121 z"
       id="path271"
       inkscape:connector-curvature="0" />
    <path
       style="fill:#ffffff;stroke-width:0.00081162;stroke-miterlimit:4;stroke-dasharray:none"
       d="m 5.1469835,295.87348 c -0.3955463,-0.0193 -0.471608,-0.0405 -0.6553276,-0.18182 -0.1413088,-0.10874 -0.22647,-0.22056 -0.3223731,-0.42328 l -0.063761,-0.13478 -1.66e-5,-3.22647 -1.75e-5,-3.22648 h 0.2147406 0.2147406 l 0.00143,0.059 c 7.664e-4,0.0325 0.00886,1.46138 0.017984,3.17535 0.01658,3.11394 0.016628,3.11635 0.061674,3.1889 0.057993,0.0934 0.1843907,0.21352 0.299682,0.28484 l 0.090838,0.0561 h 3.4973658 3.4973683 l 0.130124,-0.0841 c 0.07259,-0.0469 0.168697,-0.13519 0.217359,-0.19965 l 0.08723,-0.11553 0.01496,-3.18253 0.01496,-3.18251 h 0.211227 0.211226 v 3.24311 3.24312 l -0.0744,0.14773 c -0.103217,0.20497 -0.275744,0.38477 -0.467529,0.48724 l -0.155978,0.0834 -3.3499525,0.003 c -1.8424735,0.002 -3.5045657,-0.005 -3.6935372,-0.0143 z"
       id="path273"
       inkscape:connector-curvature="0" />
    <path
       style="fill:#ffffff;stroke-width:0.00081162;stroke-miterlimit:4;stroke-dasharray:none"
       d="m 8.3718472,291.49025 c -0.2813767,-0.0283 -0.6015546,-0.23269 -0.7637288,-0.48757 -0.1062307,-0.16696 -0.1373239,-0.31773 -0.1397641,-0.67771 l -0.00214,-0.32056 0.2898995,-0.0934 c 0.6451547,-0.20784 0.7861954,-0.24256 0.9841557,-0.2423 0.2749236,3.8e-4 0.4524879,0.0589 0.7122951,0.2346 l 0.096633,0.0653 -0.00773,0.33783 c -0.00451,0.19704 -0.020537,0.38677 -0.038378,0.4553 -0.095727,0.36752 -0.4697317,0.68227 -0.8664804,0.72921 -0.06496,0.008 -0.18406,0.007 -0.2646692,-7.6e-4 z"
       id="path275"
       inkscape:connector-curvature="0" />
    <path
       style="fill:#ffffff;stroke-width:0.00081162;stroke-miterlimit:4;stroke-dasharray:none"
       d="m 7.4645034,289.15112 c 0.019611,-0.49405 0.021024,-0.50035 0.1388748,-0.6217 0.1407923,-0.14498 0.2039274,-0.15441 0.9749125,-0.14573 0.7141482,0.008 0.73275,0.012 0.8635047,0.18323 0.082341,0.10784 0.092686,0.16671 0.1016765,0.5784 l 0.0057,0.26066 -0.1181069,-0.0596 c -0.2609297,-0.13169 -0.5641485,-0.1745 -0.9233839,-0.13033 -0.1683441,0.0207 -0.7112713,0.17787 -1.0282767,0.29768 -0.024966,0.009 -0.027354,-0.0487 -0.014891,-0.36259 z"
       id="path277"
       inkscape:connector-curvature="0" />
    <path
       style="fill:#ffffff;stroke-width:0.00337458;stroke-miterlimit:4;stroke-dasharray:none"
       d="m 36.488904,23.441603 c -0.739534,-0.629989 -0.887511,-0.795824 -0.802033,-0.89882 0.153591,-0.185065 1.74225,-1.542945 1.805178,-1.542945 0.02948,0 0.05359,0.723215 0.05359,1.607143 0,0.883929 -0.03373,1.607143 -0.07494,1.607143 -0.04122,0 -0.483026,-0.347634 -0.981795,-0.772521 z"
       id="path20"
       inkscape:connector-curvature="0"
       transform="matrix(0.26458333,0,0,0.26458333,0,280.06665)" />
  </g>
</svg>
