<?xml version="1.0" encoding="UTF-8" standalone="no"?>
<svg
   xmlns:dc="http://purl.org/dc/elements/1.1/"
   xmlns:cc="http://creativecommons.org/ns#"
   xmlns:rdf="http://www.w3.org/1999/02/22-rdf-syntax-ns#"
   xmlns:svg="http://www.w3.org/2000/svg"
   xmlns="http://www.w3.org/2000/svg"
   xmlns:sodipodi="http://sodipodi.sourceforge.net/DTD/sodipodi-0.dtd"
   xmlns:inkscape="http://www.inkscape.org/namespaces/inkscape"
   width="64"
   height="64"
   viewBox="0 0 16.933333 16.933333"
   version="1.1"
   id="svg8"
   sodipodi:docname="seren_family_visit_64x64.svg"
   inkscape:version="1.0.2 (1.0.2+r75+1)">
  <defs
     id="defs2" />
  <sodipodi:namedview
     id="base"
     pagecolor="#ffffff"
     bordercolor="#666666"
     borderopacity="1.0"
     inkscape:pageopacity="0.0"
     inkscape:pageshadow="2"
     inkscape:zoom="5.6568542"
     inkscape:cx="61.337793"
     inkscape:cy="33.08282"
     inkscape:document-units="mm"
     inkscape:current-layer="layer1"
     inkscape:document-rotation="0"
     showgrid="false"
     inkscape:snap-global="false"
     fit-margin-top="0"
     fit-margin-left="0"
     fit-margin-right="0"
     fit-margin-bottom="0"
     inkscape:window-width="1366"
     inkscape:window-height="704"
     inkscape:window-x="0"
     inkscape:window-y="0"
     inkscape:window-maximized="0"
     units="px" />
  <metadata
     id="metadata5">
    <rdf:RDF>
      <cc:Work
         rdf:about="">
        <dc:format>image/svg+xml</dc:format>
        <dc:type
           rdf:resource="http://purl.org/dc/dcmitype/StillImage" />
        <dc:title />
      </cc:Work>
    </rdf:RDF>
  </metadata>
  <g
     inkscape:label="Calque 1"
     inkscape:groupmode="layer"
     id="layer1"
     transform="translate(-44.581036,-28.552681)">
    <text
       xml:space="preserve"
       style="font-style:normal;font-weight:normal;font-size:10.5833px;line-height:1.25;font-family:sans-serif;fill:#000000;fill-opacity:1;stroke:none;stroke-width:0.264583"
       x="51.724785"
       y="39.66518"
       id="text1411"><tspan
         sodipodi:role="line"
         id="tspan1409"
         x="51.724785"
         y="39.66518"
         style="stroke-width:0.264583" /></text>
    <path
       style="fill:#ffffff;stroke-width:2.12598;stroke-linecap:round;stroke-miterlimit:4;stroke-dasharray:none"
       d=""
       id="path1772"
       transform="matrix(0.26458333,0,0,0.26458333,44.581036,28.552681)" />
    <path
       style="fill:#000000;stroke-width:0.0309052"
       d="m 45.517858,44.209133 c -0.03408,-0.04099 -0.04544,-0.326306 -0.05793,-1.444818 l -0.0154,-1.393741 -0.06892,-0.0098 c -0.03793,-0.0054 -0.09701,-0.04551 -0.131339,-0.08915 -0.06047,-0.07694 -0.06244,-0.121618 -0.06244,-1.460319 0,-1.170192 0.0075,-1.406122 0.04901,-1.545835 0.08901,-0.299716 0.253814,-0.497472 0.522793,-0.627334 0.08497,-0.04103 0.58912,-0.204806 1.120307,-0.363942 l 0.965795,-0.289336 v -0.311894 -0.31189 L 47.625045,36.16886 c -0.253382,-0.226855 -0.545459,-0.647448 -0.660752,-0.951454 -0.09023,-0.238077 -0.174183,-0.572367 -0.174887,-0.696714 -3.47e-4,-0.05897 -0.02,-0.08654 -0.0708,-0.0993 -0.115715,-0.02904 -0.321193,-0.226605 -0.395642,-0.380384 -0.125874,-0.260017 -0.06723,-0.658835 0.121565,-0.826476 0.06441,-0.05716 0.06629,-0.08096 0.06685,-0.818988 5.91e-4,-0.8766 0.02685,-1.053937 0.212651,-1.436062 0.251646,-0.517625 0.684169,-0.892851 1.247243,-1.082009 0.252293,-0.08476 0.653625,-0.111313 1.676451,-0.110933 1.056816,3.97e-4 1.301889,0.01989 1.508785,0.120049 0.185544,0.08982 0.387623,0.294956 0.471903,0.479061 0.03962,0.08654 0.136616,0.219897 0.215543,0.296344 0.183319,0.177551 0.273617,0.319251 0.3523,0.552807 0.05746,0.170601 0.06291,0.263324 0.06291,1.063874 0,0.857867 9.39e-4,0.878266 0.06629,0.935857 0.111227,0.09877 0.191694,0.318241 0.191572,0.522453 -2.35e-4,0.2822 -0.131255,0.492938 -0.410365,0.659803 -0.09802,0.05859 -0.110165,0.08332 -0.158681,0.322944 -0.02882,0.142721 -0.06094,0.286135 -0.07136,0.3187 -0.01624,0.05131 0.08103,0.109066 0.730421,0.433366 l 0.74921,0.374159 0.252265,-0.125132 0.252265,-0.125132 0.01906,-0.342155 c 0.01052,-0.188185 0.03127,-0.662025 0.04629,-1.052975 0.02319,-0.605177 0.03897,-0.756163 0.106438,-1.015911 0.28357,-1.092481 1.140466,-1.94362 2.259656,-2.244462 0.349155,-0.09386 0.929139,-0.115806 1.308725,-0.04954 1.213046,0.211784 2.194794,1.122678 2.512297,2.330971 0.05061,0.192548 0.07033,0.432147 0.105002,1.272536 0.04479,1.085868 0.09956,1.837965 0.19591,2.687917 0.03915,0.345491 0.04845,0.535801 0.02873,0.592187 -0.07005,0.200866 -0.940218,0.625545 -1.642903,0.801784 -0.149029,0.03738 -0.259664,0.07789 -0.245871,0.09004 0.0138,0.01214 0.452532,0.192376 0.974969,0.400521 0.522427,0.208145 1.003296,0.417149 1.068599,0.464452 0.06535,0.0473 0.16317,0.153094 0.217478,0.23509 0.171807,0.259385 0.190107,0.375248 0.190107,1.2041 0,0.703062 -0.0038,0.752109 -0.06244,0.826763 -0.03437,0.04365 -0.09343,0.08377 -0.131349,0.08915 l -0.06892,0.0098 -0.0154,1.13106 c -0.01221,0.895678 -0.02422,1.141686 -0.05793,1.182124 -0.06244,0.07514 -0.258172,0.0669 -0.331381,-0.01394 -0.0553,-0.06101 -0.05944,-0.134295 -0.06807,-1.190991 l -0.0094,-1.125978 -0.284433,0.0088 -0.284434,0.0088 -0.0154,1.138285 c -0.01465,1.081483 -0.0184,1.140473 -0.07549,1.182125 -0.09964,0.07281 -0.251054,0.05525 -0.324076,-0.03759 -0.06282,-0.07983 -0.06404,-0.110797 -0.06404,-1.574711 0,-1.050294 0.01042,-1.516176 0.03521,-1.57046 0.04845,-0.106229 0.174596,-0.146061 0.298151,-0.09411 0.105152,0.04422 0.124776,0.09247 0.13763,0.338358 l 0.0085,0.154526 0.424946,0.0086 0.424946,0.0086 -2.26e-4,-0.580345 c -8.4e-5,-0.319189 -0.01427,-0.62902 -0.03155,-0.688513 -0.03437,-0.118716 -0.127405,-0.236091 -0.246669,-0.311269 -0.0754,-0.04754 -0.838644,-0.357564 -0.923637,-0.375178 -0.02629,-0.0054 -0.06835,0.05133 -0.108166,0.145881 -0.237946,0.565577 -0.700816,1.034382 -1.247214,1.263192 -0.255777,0.107108 -0.391623,0.141525 -0.684479,0.173409 -0.625288,0.06808 -1.30787,-0.146167 -1.773867,-0.55678 -0.0815,-0.07179 -0.153094,-0.125344 -0.15916,-0.119 -0.0056,0.0064 -0.04554,0.09678 -0.0877,0.200976 -0.142409,0.351823 -0.502343,0.786181 -0.794504,0.958763 -0.08873,0.05243 -0.09305,0.06456 -0.09305,0.262083 v 0.207111 l 0.440392,0.145981 c 0.242228,0.08029 0.497235,0.1723 0.566688,0.204468 0.166963,0.07733 0.370798,0.282304 0.471039,0.473665 0.07709,0.147098 0.0815,0.181492 0.09239,0.715647 0.01098,0.536261 0.0084,0.563989 -0.05324,0.625831 -0.0861,0.08612 -0.25219,0.08599 -0.330348,-2.33e-4 -0.05145,-0.05675 -0.06084,-0.130122 -0.07436,-0.579473 -0.01418,-0.473083 -0.02113,-0.522477 -0.0861,-0.613605 -0.09916,-0.139034 -0.202652,-0.213701 -0.375915,-0.271252 l -0.149498,-0.04966 -0.243477,0.243472 c -0.289457,0.289456 -0.577815,0.446699 -0.947917,0.516908 -0.305137,0.05788 -0.398675,0.05755 -0.693944,-0.0025 -0.375435,-0.07632 -0.660686,-0.232621 -0.942734,-0.516567 l -0.240951,-0.242561 -0.154053,0.05117 c -0.195008,0.06477 -0.330713,0.17852 -0.403106,0.337886 -0.04666,0.102655 -0.0569,0.205344 -0.05746,0.576583 -5.82e-4,0.409574 -0.0066,0.459276 -0.06479,0.533115 -0.08347,0.106146 -0.245007,0.111819 -0.338676,0.01189 -0.06206,-0.06619 -0.06469,-0.09557 -0.05521,-0.610378 0.01136,-0.618531 0.03934,-0.716939 0.276246,-0.973983 0.165179,-0.17919 0.298396,-0.246345 0.853892,-0.430447 L 52.320936,42.02979 V 41.819261 41.60871 l -0.15086,-0.09682 C 51.720155,41.223178 51.37346,40.64736 51.298739,40.064693 l -0.03615,-0.281682 -0.127574,-0.02118 c -0.162672,-0.02701 -0.287842,-0.08966 -0.40936,-0.204876 l -0.09636,-0.09137 -0.181788,0.07539 c -0.296414,0.122924 -0.474916,0.171661 -0.76734,0.209514 -1.199611,0.155304 -2.404592,-0.621911 -2.782975,-1.795023 -0.03014,-0.09349 -0.05756,-0.173447 -0.06094,-0.177685 -0.01155,-0.01464 -0.813114,0.234348 -0.901477,0.280048 -0.04873,0.02521 -0.11426,0.07415 -0.145593,0.108764 -0.132165,0.146039 -0.141,0.239929 -0.142428,1.511839 l -9.39e-4,1.21303 h 0.556295 0.556295 v -0.496018 c 0,-0.564647 0.01662,-0.51089 -0.312743,-1.010635 -0.232463,-0.352713 -0.2485,-0.428015 -0.115189,-0.540818 0.09467,-0.08011 0.218003,-0.06785 0.310789,0.0309 0.140006,0.149013 0.493705,0.717409 0.537995,0.864551 0.03455,0.114866 0.04272,0.546786 0.04272,2.262637 0,2.376822 0.01117,2.258046 -0.2133,2.258046 -0.07972,0 -0.135855,-0.02073 -0.175948,-0.06502 -0.05577,-0.06159 -0.05934,-0.138384 -0.06779,-1.452545 l -0.0085,-1.387521 H 46.341624 45.9268 l -0.0085,1.387521 c -0.0085,1.314161 -0.01202,1.390959 -0.06779,1.452545 -0.07324,0.08087 -0.268969,0.08911 -0.33139,0.01394 z m 8.107308,-1.219577 c 0.234407,-0.0493 0.463518,-0.164817 0.634011,-0.319662 0.08131,-0.07387 0.140916,-0.139142 0.132419,-0.145063 -0.0085,-0.0059 -0.08404,-0.04553 -0.167789,-0.08803 -0.206811,-0.104887 -0.273288,-0.204177 -0.289833,-0.432947 l -0.01352,-0.18654 -0.112129,0.02387 c -0.146662,0.03122 -0.759631,0.03075 -0.907937,-6.99e-4 l -0.115903,-0.02458 v 0.157461 c 0,0.08661 -0.02038,0.196836 -0.04526,0.244961 -0.06084,0.117615 -0.210501,0.239557 -0.324874,0.264678 -0.05145,0.01129 -0.09342,0.03215 -0.09342,0.04635 0,0.04692 0.266828,0.261706 0.420626,0.33859 0.288847,0.144402 0.582867,0.184871 0.883601,0.121618 z m 0.226275,-1.634274 c 0.223262,-0.07297 0.460194,-0.225915 0.6554,-0.423058 0.32155,-0.324733 0.47195,-0.703082 0.47195,-1.187244 0,-0.36958 0.03136,-0.406405 0.367417,-0.431096 0.203375,-0.01494 0.264678,-0.03178 0.326226,-0.08959 0.151056,-0.141913 0.131292,-0.311843 -0.05465,-0.470055 l -0.09652,-0.08212 -0.0216,-0.42782 c -0.01192,-0.235301 -0.04319,-0.50431 -0.06948,-0.597799 -0.05493,-0.194793 -0.256726,-0.618104 -0.294696,-0.618104 -0.01399,0 -0.04282,0.02086 -0.06394,0.04635 -0.02113,0.0255 -0.07164,0.04636 -0.112185,0.04636 -0.04056,0 -0.417819,-0.172159 -0.83839,-0.382574 l -0.764674,-0.382573 -0.757172,0.380912 c -0.416439,0.209503 -0.793705,0.38166 -0.838371,0.382574 -0.0446,9.1e-4 -0.09852,-0.0192 -0.119677,-0.04469 -0.02122,-0.02549 -0.04901,-0.04636 -0.06197,-0.04636 -0.03934,0 -0.241252,0.436377 -0.293232,0.633557 -0.02685,0.101987 -0.05756,0.274526 -0.06817,0.383419 l -0.01925,0.197987 0.368046,-0.02164 c 1.044816,-0.06143 2.078009,-0.293723 2.80289,-0.63017 0.253627,-0.117717 0.317775,-0.136261 0.38706,-0.111892 0.108203,0.03805 0.178192,0.180742 0.141226,0.28789 -0.07474,0.216527 -1.186409,0.618839 -2.175668,0.787347 -0.385867,0.06573 -1.108646,0.141638 -1.352554,0.142054 -0.224351,3.85e-4 -0.33431,0.05609 -0.394356,0.199814 -0.0508,0.121706 -0.02667,0.241482 0.06648,0.32897 0.05981,0.05616 0.123058,0.07334 0.324686,0.08816 0.332508,0.02443 0.367239,0.06356 0.367878,0.414411 6.38e-4,0.500652 0.165094,0.903575 0.503779,1.236321 0.414007,0.40674 1.074797,0.566739 1.613458,0.390666 z m -0.814757,-0.592176 c -0.205027,-0.07876 -0.437593,-0.292907 -0.437593,-0.402939 0,-0.1262 0.110739,-0.241254 0.232209,-0.241254 0.05728,0 0.113265,0.01482 0.124467,0.03295 0.01117,0.01812 0.07671,0.07375 0.145526,0.123621 0.200173,0.145005 0.42796,0.116397 0.60804,-0.07636 0.148296,-0.158726 0.404111,-0.0655 0.404111,0.147263 0,0.127935 -0.219065,0.333188 -0.446373,0.418237 -0.21667,0.08107 -0.416683,0.08059 -0.630387,-0.0015 z m -0.623025,-1.324108 c -0.07887,-0.07892 -0.08178,-0.250514 -0.0047,-0.319715 0.07643,-0.06912 0.26034,-0.06608 0.325005,0.0054 0.123687,0.136666 0.0185,0.376156 -0.165188,0.376156 -0.05145,0 -0.120185,-0.02747 -0.154522,-0.06181 z m 1.576164,0 c -0.07887,-0.07892 -0.08178,-0.250514 -0.0047,-0.319715 0.07634,-0.06912 0.26035,-0.06608 0.325014,0.0054 0.123678,0.136666 0.0185,0.376156 -0.165188,0.376156 -0.05145,0 -0.120193,-0.02747 -0.15453,-0.06181 z m 3.569554,1.123493 c 0.499198,-0.126732 0.960668,-0.507286 1.190193,-0.981497 0.07164,-0.147945 0.12517,-0.273904 0.11901,-0.279909 -0.0066,-0.006 -0.142653,-0.06346 -0.303343,-0.127692 -0.489874,-0.195802 -0.644433,-0.393667 -0.673681,-0.86242 l -0.01577,-0.252289 -0.235495,0.05635 c -0.434899,0.104087 -1.085651,0.06057 -1.492551,-0.09981 -0.08328,-0.03283 -0.157836,-0.05968 -0.165714,-0.05968 -0.0075,0 -0.01427,0.104185 -0.01427,0.231521 0,0.215805 0.0075,0.240887 0.105312,0.369489 0.341549,0.447451 0.09414,1.084198 -0.468447,1.205628 -0.0553,0.01193 -0.100448,0.03515 -0.100448,0.05162 0,0.01647 0.10164,0.131582 0.225862,0.255803 0.489715,0.489712 1.145659,0.666443 1.82934,0.492877 z m -7.633593,-1.323899 c 0.101988,-0.02707 0.272349,-0.08968 0.3786,-0.139119 0.169113,-0.07871 0.193234,-0.100678 0.193826,-0.176514 6.38e-4,-0.101513 0.10241,-0.338073 0.183225,-0.426571 0.0431,-0.04719 0.05972,-0.127278 0.07014,-0.338614 0.01023,-0.207711 0.0047,-0.262644 -0.01972,-0.220077 -0.369661,0.627352 -1.161433,0.922939 -1.840062,0.686937 -0.226989,-0.07894 -0.492128,-0.241576 -0.630274,-0.386608 -0.114382,-0.120089 -0.288443,-0.422183 -0.347559,-0.603235 -0.02845,-0.08705 -0.05408,-0.161434 -0.05709,-0.165296 -0.0094,-0.01178 -0.525601,0.150344 -0.548304,0.172109 -0.03305,0.03166 0.08347,0.344112 0.213064,0.57127 0.316489,0.55492 0.885535,0.959123 1.50856,1.071556 0.209074,0.03774 0.669587,0.01416 0.895637,-0.04584 z m -0.200877,-1.042613 c 0.156972,-0.04747 0.413782,-0.225283 0.512737,-0.355024 0.175253,-0.229766 0.22744,-0.419973 0.228247,-0.831802 l 6.39e-4,-0.374649 -0.260885,0.08767 c -0.508474,0.170868 -1.134006,0.170569 -1.643927,-7.83e-4 l -0.263223,-0.08845 0.01005,0.406339 c 0.0085,0.361008 0.01906,0.425301 0.09023,0.576316 0.234257,0.49662 0.793537,0.741414 1.326011,0.580391 z m 8.968392,-0.06696 c 0.340178,-0.09359 0.653813,-0.212076 0.966142,-0.364987 0.344057,-0.168442 0.336977,-0.159871 0.31309,-0.379346 -0.122588,-1.126409 -0.148888,-1.497886 -0.231993,-3.276835 -0.03211,-0.687118 -0.07765,-0.907691 -0.266491,-1.289746 -0.346375,-0.700876 -0.948452,-1.203048 -1.704563,-1.421721 -0.34923,-0.101 -1.059858,-0.10103 -1.408966,-5.9e-5 -0.775059,0.224163 -1.381878,0.740985 -1.719746,1.464701 -0.202135,0.432948 -0.219412,0.534927 -0.260979,1.540424 -0.02075,0.501437 -0.03296,0.918021 -0.02723,0.925742 0.0056,0.0077 0.128353,-0.04443 0.272443,-0.115894 0.298612,-0.148098 0.344817,-0.154747 0.4578,-0.06588 l 0.08141,0.06405 v 0.564117 0.564116 l 0.08056,0.07493 c 0.126043,0.117151 0.335061,0.423498 0.462307,0.677576 0.132193,0.263967 0.137066,0.268638 0.432053,0.413889 0.294969,0.145243 0.583515,0.207817 0.956613,0.207451 0.584566,-5.72e-4 1.056872,-0.202286 1.483902,-0.63376 0.399097,-0.403253 0.591167,-0.833688 0.623589,-1.397468 0.02413,-0.419741 -0.04845,-0.677494 -0.24405,-0.866012 -0.229683,-0.221438 -0.421246,-0.293336 -1.26881,-0.476224 -0.771227,-0.166418 -1.092073,-0.269494 -1.5124,-0.48589 -0.01183,-0.0061 -0.05183,0.04831 -0.08882,0.120894 -0.151715,0.297378 -0.527066,0.582221 -0.949627,0.720641 -0.252603,0.08275 -0.408007,0.01361 -0.408007,-0.181524 0,-0.128623 0.06563,-0.187704 0.296451,-0.266791 0.396703,-0.135932 0.687794,-0.431199 0.739849,-0.750466 0.02544,-0.156156 0.120841,-0.267939 0.228472,-0.267761 0.04375,6.2e-5 0.142184,0.04257 0.21868,0.09444 0.391961,0.265786 0.739961,0.389636 1.607073,0.57195 0.832625,0.175064 1.21145,0.326973 1.476588,0.592115 0.500118,0.500112 0.501179,1.603268 0.0028,2.440313 -0.139911,0.234774 -0.567017,0.680194 -0.779772,0.813215 l -0.173009,0.108168 -3.57e-4,0.177705 c -2.25e-4,0.122299 0.01174,0.177705 0.0384,0.177705 0.02141,0 0.159507,-0.0332 0.306987,-0.07377 z m -1.776055,-1.290208 c -0.270415,-0.04006 -0.609523,-0.305642 -0.609523,-0.477359 0,-0.04268 0.03568,-0.113283 0.07934,-0.156905 0.100335,-0.10034 0.231609,-0.08177 0.369971,0.05234 0.174737,0.169358 0.448476,0.181796 0.588791,0.02675 0.06929,-0.07656 0.205441,-0.151492 0.27527,-0.151492 0.07596,0 0.201018,0.142643 0.201018,0.229309 0,0.0429 -0.04338,0.126967 -0.09696,0.188017 -0.200342,0.228174 -0.498916,0.33511 -0.807875,0.289343 z m -1.001549,-1.324988 c -0.10012,-0.04034 -0.133368,-0.127523 -0.133368,-0.349739 0,-0.242763 0.06112,-0.340262 0.213234,-0.340262 0.142456,0 0.224848,0.09581 0.242763,0.282266 0.01906,0.198123 -0.03399,0.357893 -0.133837,0.403397 -0.08957,0.0408 -0.09783,0.04099 -0.188792,0.0043 z m 2.123321,-0.0088 c -0.115865,-0.0583 -0.159206,-0.167861 -0.146634,-0.370777 0.01324,-0.213729 0.08854,-0.310427 0.241843,-0.310427 0.154259,0 0.213234,0.09686 0.213234,0.350259 0,0.155082 -0.01399,0.225733 -0.05408,0.272037 -0.07324,0.08466 -0.162202,0.105269 -0.25436,0.05891 z m -6.970099,1.471452 c 0.114814,-0.20887 0.339324,-0.519316 0.429979,-0.594555 0.03887,-0.03225 0.04939,-0.10298 0.04939,-0.331265 v -0.290252 l -0.309052,0.31144 -0.309053,0.311438 v 0.399818 c 0,0.219899 0.0056,0.399818 0.01258,0.399818 0.0066,0 0.06366,-0.0929 0.12609,-0.206442 z m 1.359878,-0.666059 c 0.212642,-0.105921 0.386637,-0.200053 0.386637,-0.209182 0,-0.0159 -0.757199,-0.401768 -0.78841,-0.401768 -0.0085,0 -0.01512,0.180796 -0.01512,0.401768 0,0.220973 0.0066,0.401768 0.01512,0.401768 0.0085,0 0.189131,-0.08667 0.401773,-0.192586 z m 2.302754,-0.209182 c 0,-0.244488 -0.01202,-0.401768 -0.03061,-0.401768 -0.04169,0 -0.803846,0.380951 -0.803846,0.401777 0,0.02235 0.746834,0.397702 0.795809,0.399969 0.02901,0.0013 0.03859,-0.09821 0.03859,-0.399978 z m -4.814976,0.229039 c 0.548642,-0.138638 1.028807,-0.500978 1.320884,-0.996744 0.157348,-0.267085 0.244848,-0.535267 0.282649,-0.866237 0.04225,-0.36947 0.05474,-0.391142 0.25927,-0.450619 0.205187,-0.05965 0.308508,-0.185972 0.279326,-0.341499 -0.03296,-0.175491 -0.137085,-0.24033 -0.419341,-0.26107 -0.214529,-0.01577 -0.26096,-0.02932 -0.310705,-0.09077 -0.0677,-0.08359 -0.07192,-0.125723 -0.02329,-0.232371 0.0416,-0.09134 0.169309,-0.142066 0.357661,-0.142066 h 0.136363 l -0.0096,-0.795809 -0.0096,-0.79581 -0.08422,-0.143291 c -0.04638,-0.07881 -0.153169,-0.200997 -0.237402,-0.271526 -0.113189,-0.09476 -0.166296,-0.167779 -0.203487,-0.279723 -0.05549,-0.167081 -0.234895,-0.35408 -0.378084,-0.394084 -0.04723,-0.01318 -0.6351,-0.02396 -1.306518,-0.02396 -1.17424,0 -1.229055,0.0026 -1.438383,0.06847 -0.551712,0.173583 -1.009634,0.665996 -1.123302,1.207892 -0.01887,0.09007 -0.03437,0.44819 -0.03437,0.795809 v 0.632036 h 0.198323 0.198332 l 0.112101,-0.33641 c 0.06169,-0.185026 0.137348,-0.359268 0.16822,-0.387205 0.04441,-0.04021 0.168221,-0.057 0.593552,-0.08054 1.117378,-0.06185 1.988941,-0.209817 2.458186,-0.417338 0.230125,-0.101775 0.35845,-0.100348 0.441237,0.0049 0.163516,0.207872 0.03155,0.332965 -0.554041,0.525067 -0.508681,0.166878 -1.743568,0.349847 -2.369419,0.35107 l -0.252415,4.9e-4 -0.1118,0.335526 c -0.0615,0.184539 -0.131029,0.361857 -0.154512,0.394041 -0.03681,0.05042 -0.09639,0.06066 -0.430928,0.07397 -0.36767,0.01464 -0.392505,0.01974 -0.469095,0.09636 -0.05436,0.05443 -0.08187,0.116417 -0.08394,0.189396 -0.0047,0.166262 0.07399,0.258101 0.270021,0.315088 0.09361,0.0272 0.182962,0.0735 0.198633,0.102896 0.01568,0.02939 0.04422,0.182626 0.06338,0.340526 0.01915,0.157899 0.05699,0.352602 0.08404,0.432673 0.282593,0.835552 0.958818,1.388521 1.834419,1.500054 0.1653,0.02105 0.551243,-0.0095 0.74796,-0.0592 z m -0.712525,-0.818259 c -0.401923,-0.08001 -0.696272,-0.453055 -0.498615,-0.631929 0.09857,-0.08921 0.223834,-0.0705 0.370881,0.05536 0.220389,0.188648 0.396872,0.188648 0.617261,0 0.139648,-0.119532 0.267091,-0.144102 0.357642,-0.06895 0.132898,0.110291 0.10472,0.279223 -0.07249,0.434844 -0.209525,0.183969 -0.505057,0.264342 -0.774645,0.210675 z m -0.984142,-1.333022 c -0.08169,-0.03946 -0.133142,-0.173903 -0.132522,-0.346209 6.38e-4,-0.242006 0.137771,-0.382539 0.313109,-0.321416 0.12148,0.04235 0.150014,0.108653 0.150014,0.34858 0,0.175725 -0.01061,0.214936 -0.07587,0.280179 -0.08122,0.08123 -0.146466,0.09118 -0.254744,0.03886 z m 2.075342,-0.03886 c -0.06526,-0.06524 -0.07587,-0.104453 -0.07587,-0.280179 0,-0.239926 0.02854,-0.306231 0.150024,-0.348579 0.180887,-0.06306 0.312292,0.07964 0.313099,0.340027 5.82e-4,0.179902 -0.04535,0.285559 -0.14348,0.330276 -0.11148,0.0508 -0.159648,0.04259 -0.243777,-0.04155 z"
       id="path2255" />
    <path
       style="fill:#ffffff;stroke-width:0.743359;stroke-linecap:round;stroke-miterlimit:4;stroke-dasharray:none"
       d="M 49.040409,36.34661 C 48.452454,36.22358 47.950646,35.89517 47.65026,35.436807 47.410201,35.070511 47.40668,35.06152 47.296082,34.532258 l -0.09136,-0.437066 -0.189573,-0.09101 c -0.208069,-0.0999 -0.267664,-0.167875 -0.268678,-0.306498 -9.39e-4,-0.167639 0.135199,-0.23606 0.528211,-0.264927 0.20191,-0.01483 0.390825,-0.04563 0.41981,-0.06845 0.02901,-0.02282 0.107669,-0.197088 0.174831,-0.387271 l 0.122119,-0.345787 0.240388,-8.71e-4 c 0.81747,-0.003 2.166203,-0.243332 2.691954,-0.479756 0.291804,-0.131224 0.347117,-0.207326 0.271429,-0.373444 -0.07474,-0.163961 -0.21668,-0.17624 -0.572266,-0.04949 -0.583759,0.208078 -1.110523,0.2988 -2.216296,0.381707 -0.372591,0.02793 -0.707971,0.06683 -0.745294,0.08645 -0.03737,0.01961 -0.123105,0.194385 -0.190633,0.388391 l -0.122804,0.352739 h -0.173544 -0.173544 l 0.01455,-0.753939 0.01455,-0.753938 0.149789,-0.276266 c 0.175516,-0.323722 0.453762,-0.586507 0.789894,-0.746028 l 0.240397,-0.114077 1.311194,-0.01209 c 1.504635,-0.01388 1.502879,-0.01426 1.698301,0.371098 0.05831,0.11505 0.150409,0.248518 0.204604,0.296594 0.05418,0.04807 0.154663,0.16412 0.223262,0.257871 l 0.12472,0.170458 v 0.78016 0.780161 h -0.174822 c -0.28694,0 -0.453687,0.245727 -0.273166,0.402552 0.04206,0.03654 0.173544,0.07905 0.29218,0.09446 0.27264,0.03541 0.418054,0.128331 0.418054,0.267158 0,0.109376 -0.150165,0.284787 -0.243787,0.284787 -0.02892,0 -0.09607,0.03529 -0.149357,0.07845 -0.07436,0.06022 -0.110561,0.163902 -0.155789,0.446425 -0.08375,0.523064 -0.290199,0.921214 -0.654264,1.261775 -0.157132,0.146985 -0.359399,0.304848 -0.449471,0.350804 -0.369446,0.188477 -1.003231,0.293964 -1.34124,0.223236 z m 0.604068,-0.834106 c 0.201291,-0.0559 0.510456,-0.323521 0.510456,-0.441873 0,-0.264941 -0.218529,-0.329592 -0.490165,-0.145014 -0.08845,0.0601 -0.217027,0.109266 -0.285748,0.109266 -0.06873,0 -0.191591,-0.04917 -0.273044,-0.109266 -0.246191,-0.18163 -0.481865,-0.129032 -0.479799,0.107081 9.39e-4,0.18019 0.186717,0.363662 0.468456,0.464194 0.201863,0.07204 0.333221,0.07576 0.549844,0.01562 z m -1.149273,-1.384532 c 0.07634,-0.09674 0.09098,-0.16121 0.07493,-0.330372 -0.01098,-0.115599 -0.03756,-0.226479 -0.05887,-0.246401 -0.09286,-0.08633 -0.226539,-0.08927 -0.327879,-0.0072 -0.08573,0.06944 -0.104429,0.125005 -0.104429,0.31082 0,0.18505 0.01878,0.241472 0.10318,0.309807 0.139095,0.112639 0.201028,0.105392 0.313156,-0.03664 z m 2.096994,0.04141 c 0.07887,-0.06384 0.09729,-0.123534 0.09729,-0.314572 0,-0.191037 -0.0184,-0.250737 -0.09729,-0.314572 -0.209243,-0.169428 -0.393558,-0.0221 -0.393558,0.314572 0,0.33667 0.184315,0.484001 0.393558,0.314572 z"
       id="path2257" />
    <path
       style="fill:#ffffff;stroke-width:0.743359;stroke-linecap:round;stroke-miterlimit:4;stroke-dasharray:none"
       d="m 58.371768,38.010709 c 0,-0.139821 0.0184,-0.178555 0.09663,-0.203384 0.05314,-0.01686 0.249693,-0.185591 0.436768,-0.374939 0.569195,-0.57612 0.800682,-1.16609 0.769791,-1.961894 -0.01343,-0.345805 -0.03671,-0.458654 -0.136954,-0.663536 -0.223027,-0.455852 -0.558821,-0.658324 -1.440918,-0.868822 -1.195507,-0.285287 -1.371906,-0.345468 -1.92437,-0.656541 -0.238294,-0.134174 -0.350629,-0.07343 -0.441359,0.238708 -0.08554,0.294339 -0.376863,0.577334 -0.721295,0.700736 -0.266518,0.09549 -0.353999,0.222808 -0.273889,0.398634 0.07258,0.159316 0.34892,0.150313 0.695042,-0.02265 0.244303,-0.122083 0.587637,-0.431876 0.698835,-0.630578 0.04563,-0.0816 0.05483,-0.08058 0.312067,0.03486 0.145761,0.06542 0.555966,0.188664 0.911581,0.273892 1.134325,0.271857 1.346225,0.347051 1.56068,0.553811 0.244359,0.2356 0.318723,0.530872 0.248181,0.985521 -0.09004,0.580361 -0.281842,0.945118 -0.696657,1.32488 -0.638659,0.584692 -1.559554,0.715269 -2.3225,0.329315 -0.251599,-0.127274 -0.291203,-0.167448 -0.460466,-0.467052 -0.101847,-0.18029 -0.256406,-0.40981 -0.343465,-0.510047 l -0.158277,-0.182247 v -0.57015 c 0,-0.518962 -0.0075,-0.574216 -0.08451,-0.615398 -0.132165,-0.07073 -0.250012,-0.05436 -0.492174,0.06835 l -0.224154,0.113589 0.02826,-0.867527 c 0.01803,-0.554505 0.05258,-0.960695 0.09573,-1.125737 0.179375,-0.686146 0.75058,-1.390356 1.376216,-1.696684 0.429246,-0.210167 0.621457,-0.249935 1.214239,-0.25122 0.7858,-0.0017 1.27326,0.204852 1.846015,0.782215 0.350469,0.353286 0.607729,0.794129 0.696225,1.193055 0.02516,0.113422 0.07512,0.742797 0.111029,1.39861 0.03596,0.655814 0.09714,1.541319 0.136072,1.96779 0.03897,0.42647 0.05972,0.804341 0.0461,0.839713 -0.04723,0.123115 -0.908773,0.488444 -1.438224,0.609874 -0.115489,0.02649 -0.120193,0.02082 -0.120193,-0.145148 z m -0.93788,-1.222303 c 0.190905,-0.08672 0.413406,-0.318849 0.413406,-0.43131 0,-0.101412 -0.13056,-0.229548 -0.23389,-0.229548 -0.04901,0 -0.164475,0.05215 -0.256444,0.11589 -0.208464,0.144468 -0.387811,0.143297 -0.580651,-0.0038 -0.181844,-0.138701 -0.34384,-0.144281 -0.43442,-0.01497 -0.0923,0.131785 -0.08629,0.180455 0.04131,0.332043 0.24604,0.292401 0.697736,0.392001 1.050694,0.231677 z m -1.274144,-1.296009 c 0.130551,-0.130549 0.139217,-0.46739 0.01606,-0.621413 -0.02404,-0.03005 -0.110626,-0.05464 -0.192408,-0.05464 -0.121827,0 -0.157094,0.02172 -0.19514,0.120193 -0.06488,0.167914 -0.02178,0.49519 0.07436,0.565528 0.103988,0.07604 0.215093,0.07242 0.297185,-0.0097 z m 2.124608,-0.02045 c 0.09632,-0.09631 0.117424,-0.352449 0.04479,-0.543487 -0.03455,-0.09079 -0.07164,-0.112112 -0.19515,-0.112112 -0.188389,0 -0.242998,0.0872 -0.242998,0.388009 0,0.176687 0.01878,0.232054 0.09713,0.286965 0.128381,0.08992 0.191027,0.08582 0.296226,-0.01937 z"
       id="path2259" />
    <path
       style="fill:#ffffff;stroke-width:0.743359;stroke-linecap:round;stroke-miterlimit:4;stroke-dasharray:none"
       d="m 54.460026,36.369239 c -0.120185,-0.05345 -0.285101,-0.13798 -0.366469,-0.187842 l -0.14793,-0.09065 0.360055,-0.181038 c 0.198042,-0.09957 0.368704,-0.172404 0.379258,-0.161852 0.01061,0.01055 0.01343,0.176549 0.0066,0.368879 l -0.01277,0.349694 z"
       id="path2261" />
    <path
       style="fill:#ffffff;stroke-width:0.743359;stroke-linecap:round;stroke-miterlimit:4;stroke-dasharray:none"
       d="m 52.034318,36.104889 v -0.371676 l 0.360581,0.180394 c 0.198314,0.09922 0.364751,0.183926 0.369859,0.188242 0.0047,0.0043 -0.157151,0.09039 -0.360582,0.19128 l -0.369858,0.183434 z"
       id="path2263" />
    <path
       style="fill:#ffffff;stroke-width:0.743359;stroke-linecap:round;stroke-miterlimit:4;stroke-dasharray:none"
       d="m 53.006817,41.351104 c -0.339409,-0.09523 -0.541375,-0.211468 -0.7695,-0.44286 -0.296847,-0.301098 -0.419942,-0.582682 -0.465086,-1.06392 -0.02066,-0.220203 -0.06,-0.427436 -0.08751,-0.460519 -0.02751,-0.03309 -0.161639,-0.07357 -0.29818,-0.08999 -0.28618,-0.03439 -0.401228,-0.115154 -0.401228,-0.281632 0,-0.21125 0.126259,-0.272316 0.644818,-0.311863 1.152757,-0.08791 2.236408,-0.335787 2.895422,-0.662297 0.334141,-0.165554 0.372816,-0.197475 0.384553,-0.317417 0.0085,-0.09103 -0.01549,-0.159203 -0.07699,-0.214798 -0.102561,-0.09282 -0.141686,-0.0844 -0.700957,0.150901 -0.615148,0.25881 -1.606726,0.470057 -2.560859,0.545568 l -0.353671,0.02799 0.03652,-0.266908 c 0.02009,-0.146798 0.09155,-0.398645 0.158785,-0.559659 0.119978,-0.28723 0.125142,-0.292515 0.273466,-0.280148 0.116767,0.0097 0.322658,-0.07186 0.904267,-0.358368 l 0.753087,-0.370973 0.776025,0.372225 c 0.631457,0.302889 0.801424,0.367462 0.91236,0.346648 0.131217,-0.02462 0.140663,-0.01595 0.251073,0.230054 0.121706,0.271206 0.201582,0.704383 0.203009,1.101001 6.38e-4,0.210047 0.01746,0.256211 0.131977,0.364285 0.244106,0.230387 0.126945,0.434605 -0.278358,0.485244 -0.315334,0.0394 -0.37706,0.102793 -0.377924,0.388162 -3.76e-4,0.124485 -0.02685,0.337412 -0.05878,0.473168 -0.200229,0.850652 -1.101519,1.419127 -1.89638,1.196107 z m 0.678826,-0.571021 c 0.214567,-0.08949 0.446589,-0.318248 0.446589,-0.440302 0,-0.125028 -0.10995,-0.234935 -0.235017,-0.234935 -0.05371,0 -0.164296,0.04917 -0.245759,0.109267 -0.08235,0.06073 -0.207778,0.109266 -0.282443,0.109266 -0.07389,0 -0.206689,-0.04917 -0.295128,-0.109266 -0.270227,-0.183621 -0.482315,-0.12163 -0.482315,0.140975 0,0.08338 0.04976,0.16188 0.166775,0.263015 0.264265,0.228441 0.619269,0.290454 0.927298,0.16198 z m -0.997888,-1.285976 c 0.1018,-0.05448 0.148822,-0.240098 0.08911,-0.351702 -0.05286,-0.0988 -0.297692,-0.120509 -0.38414,-0.03406 -0.08695,0.08694 -0.06235,0.28533 0.04469,0.360286 0.11364,0.0796 0.143554,0.08265 0.250359,0.02548 z m 1.619298,-0.04486 c 0.0976,-0.0976 0.109312,-0.183364 0.04225,-0.30882 -0.05183,-0.09691 -0.297673,-0.117499 -0.383088,-0.03209 -0.08695,0.08694 -0.06235,0.28533 0.04469,0.360287 0.128372,0.08992 0.191028,0.08582 0.296217,-0.01937 z"
       id="path2265" />
    <path
       style="fill:#ffffff;stroke-width:0.743359;stroke-linecap:round;stroke-miterlimit:4;stroke-dasharray:none"
       d="m 52.919983,42.913291 c -0.101828,-0.04223 -0.278471,-0.143504 -0.392543,-0.225053 -0.205318,-0.146784 -0.206304,-0.14867 -0.09894,-0.188259 0.189994,-0.07006 0.343539,-0.253909 0.372318,-0.445816 l 0.02685,-0.1792 h 0.543008 0.543009 l 6.38e-4,0.13112 c 6.39e-4,0.193434 0.08986,0.33632 0.273101,0.439132 l 0.162812,0.09133 -0.11994,0.112393 c -0.323559,0.303199 -0.924397,0.424413 -1.31033,0.264353 z"
       id="path2267" />
    <path
       style="fill:#ffffff;stroke-width:0.743359;stroke-linecap:round;stroke-miterlimit:4;stroke-dasharray:none"
       d="m 48.7776,39.195804 c -0.626903,-0.21678 -1.1498,-0.713606 -1.375099,-1.306561 l -0.08544,-0.224959 0.252997,-0.08543 0.252998,-0.08543 0.139752,0.299978 c 0.181591,0.38976 0.335362,0.559598 0.671822,0.74204 0.262922,0.142572 0.294377,0.148956 0.733623,0.148956 0.410843,0 0.48425,-0.01244 0.70076,-0.118774 0.133011,-0.06533 0.334611,-0.211542 0.447997,-0.324924 l 0.206145,-0.206149 v 0.164168 c 0,0.09351 -0.04516,0.242769 -0.104983,0.346776 -0.05774,0.100436 -0.117875,0.244598 -0.133649,0.320362 -0.02338,0.11242 -0.06713,0.154289 -0.237684,0.227671 -0.456466,0.196367 -1.072994,0.239293 -1.469199,0.102291 z"
       id="path2269" />
    <path
       style="fill:#ffffff;stroke-width:0.743359;stroke-linecap:round;stroke-miterlimit:4;stroke-dasharray:none"
       d="M 56.46305,40.503507 C 56.191706,40.40293 55.918624,40.218735 55.690227,39.982223 l -0.168409,-0.174395 0.138879,-0.03051 c 0.162981,-0.0358 0.41612,-0.245761 0.506117,-0.419808 0.103087,-0.199342 0.08103,-0.547853 -0.04873,-0.769202 -0.09654,-0.164728 -0.157751,-0.503197 -0.100757,-0.557126 0.0084,-0.0084 0.163619,0.0234 0.343906,0.07063 0.263175,0.06894 0.426889,0.08218 0.830418,0.06713 0.276453,-0.0103 0.53545,-0.0328 0.575562,-0.04998 0.06159,-0.02641 0.07774,0.0082 0.103978,0.223376 0.05718,0.469136 0.228454,0.673728 0.729839,0.871927 0.119161,0.0471 0.207337,0.109904 0.207196,0.147561 -4.79e-4,0.129337 -0.255861,0.506895 -0.496775,0.734451 -0.368299,0.347883 -0.649606,0.461232 -1.185347,0.477622 -0.347089,0.01062 -0.483602,-0.0038 -0.663081,-0.0704 z"
       id="path2271" />
    <path
       style="fill:none;stroke:#000000;stroke-width:0.465;stroke-linecap:butt;stroke-linejoin:miter;stroke-opacity:1;stroke-miterlimit:4;stroke-dasharray:none"
       d="M 45.656796,44.08104 60.436801,44.03427"
       id="path2273" />
    <path
       style="fill:#ffffff;stroke-width:0.310682;stroke-linecap:round;stroke-miterlimit:4;stroke-dasharray:none"
       d="m 5.0955432,56.284761 c 0.062442,-0.802124 0.114007,-2.870411 0.1145898,-4.596194 l 0.00106,-3.137786 h 1.5026019 1.5026019 v 4.596194 4.596194 H 6.5992048 4.9820131 Z"
       id="path2275"
       transform="matrix(0.26458333,0,0,0.26458333,44.581036,28.552681)" />
    <path
       style="fill:#ffffff;stroke-width:0.310682;stroke-linecap:round;stroke-miterlimit:4;stroke-dasharray:none"
       d="M 9.9841633,50.006383 V 42.269597 L 9.2634403,41.034966 C 8.1413599,39.112791 7.73839,38.651286 7.1820952,38.651286 c -1.1521017,0 -1.1830878,0.785793 -0.1001808,2.540543 0.9435675,1.528964 1.1245146,2.176441 1.1302646,4.044389 l 0.00422,1.370019 H 6.1730736 4.1297508 l 0.054585,-4.847432 0.054585,-4.847433 0.4312921,-0.458774 c 0.2629576,-0.279713 0.9529219,-0.623347 1.767767,-0.880428 2.0659173,-0.65179 1.9083584,-0.691331 2.4640094,0.61837 0.6255811,1.47453 1.3391227,2.510865 2.4330807,3.533764 2.840494,2.655988 6.972298,3.465029 10.459493,2.048054 l 1.029655,-0.418386 0.476732,0.410067 c 0.262202,0.225537 0.782735,0.501748 1.15674,0.613803 0.669923,0.200714 0.683252,0.221875 0.898554,1.42663 0.375147,2.099192 1.772307,4.346155 3.282977,5.279801 0.527754,0.32617 0.613602,0.474109 0.613602,1.057399 v 0.678171 l -1.458408,0.481088 c -1.993807,0.657701 -2.981802,1.179773 -3.630192,1.918247 -0.685597,0.780851 -0.919562,1.604681 -0.920821,3.24236 l -9.87e-4,1.281631 H 16.613289 9.9841633 Z"
       id="path2277"
       transform="matrix(0.26458333,0,0,0.26458333,44.581036,28.552681)" />
    <path
       style="fill:#ffffff;stroke-width:0.310682;stroke-linecap:round;stroke-miterlimit:4;stroke-dasharray:none"
       d="m 25.186959,56.515284 c 0,-1.564771 0.308268,-2.168611 1.369327,-2.682261 l 0.758332,-0.367102 1.13403,1.060829 c 1.51857,1.420548 2.645028,1.862912 4.781651,1.877769 1.423281,0.0099 1.712113,-0.04635 2.740039,-0.533648 0.631976,-0.299591 1.591233,-0.949547 2.131682,-1.444345 l 0.982634,-0.899633 0.727158,0.325558 c 0.962241,0.430808 1.221415,0.89645 1.353813,2.43231 l 0.110482,1.281631 h -6.426426 c -3.534535,0 -7.154593,0.05169 -8.044574,0.11486 l -1.618148,0.114859 z"
       id="path2279"
       transform="matrix(0.26458333,0,0,0.26458333,44.581036,28.552681)" />
    <path
       style="fill:#ffffff;stroke-width:0.310682;stroke-linecap:round;stroke-miterlimit:4;stroke-dasharray:none"
       d="m 43.014275,55.917715 c -0.05228,-1.40707 -0.126023,-1.744267 -0.5032,-2.300966 -0.640396,-0.9452 -1.476626,-1.458058 -3.459206,-2.121526 l -1.755706,-0.587544 -0.05408,-0.634919 c -0.04947,-0.580782 0.05644,-0.745322 1.242116,-1.92975 0.712906,-0.712157 1.525036,-1.732353 1.804733,-2.267103 0.279696,-0.534749 0.527885,-0.997176 0.551531,-1.027614 0.02365,-0.03044 0.445477,0.247985 0.937404,0.618719 1.112548,0.838454 2.505807,1.410882 4.098956,1.684076 3.594472,0.616384 7.552389,-1.384563 9.186793,-4.644435 0.313961,-0.626203 0.595693,-1.166208 0.626076,-1.200011 0.07333,-0.08159 1.849965,0.587404 2.981346,1.122634 1.369228,0.647748 1.517706,1.020129 1.517706,3.806395 v 2.338146 L 59.525832,48.664245 C 59.16123,48.60398 58.485059,48.553797 58.02323,48.552727 l -0.839689,-0.0019 v -0.618719 c 0,-1.12901 -1.101031,-1.744333 -1.669355,-0.932937 -0.23359,0.333497 -0.275189,1.16188 -0.275189,5.480077 v 5.08719 h -6.081731 -6.081732 z"
       id="path2281"
       transform="matrix(0.26458333,0,0,0.26458333,44.581036,28.552681)" />
    <path
       style="fill:#ffffff;stroke-width:0.310682;stroke-linecap:round;stroke-miterlimit:4;stroke-dasharray:none"
       d="m 57.146445,54.031041 0.05129,-3.535716 h 0.965174 0.965174 v 1.917386 c 0,1.054563 0.05169,2.645553 0.114859,3.535534 l 0.114859,1.618147 -1.131325,1.83e-4 -1.131325,1.82e-4 z"
       id="path2283"
       transform="matrix(0.26458333,0,0,0.26458333,44.581036,28.552681)" />
    <path
       style="fill:#ffffff;stroke:none;stroke-width:0.176777"
       d="m 16.822558,36.28462 c -1.01598,-0.378564 -1.646969,-0.965652 -2.246183,-2.089903 -0.262943,-0.493337 -0.349572,-1.000109 -0.349572,-2.044975 v -1.389104 l 1.193243,0.311211 c 1.964107,0.512262 4.694336,0.388108 6.452349,-0.293413 0.273333,-0.105961 0.308856,6.47e-4 0.305038,0.915451 -0.009,2.144402 -0.574208,3.355033 -1.981217,4.243239 -0.885842,0.559208 -2.389738,0.714112 -3.373658,0.347494 z"
       id="path25"
       transform="matrix(0.26458333,0,0,0.26458333,44.581036,28.552681)" />
  </g>
</svg>
