<?xml version="1.0" encoding="UTF-8" standalone="no"?>
<svg
   xmlns:dc="http://purl.org/dc/elements/1.1/"
   xmlns:cc="http://creativecommons.org/ns#"
   xmlns:rdf="http://www.w3.org/1999/02/22-rdf-syntax-ns#"
   xmlns:svg="http://www.w3.org/2000/svg"
   xmlns="http://www.w3.org/2000/svg"
   xmlns:sodipodi="http://sodipodi.sourceforge.net/DTD/sodipodi-0.dtd"
   xmlns:inkscape="http://www.inkscape.org/namespaces/inkscape"
   width="64"
   height="64"
   viewBox="0 0 16.933333 16.933333"
   version="1.1"
   id="svg8"
   sodipodi:docname="seren_visited_64x64.svg"
   inkscape:version="1.0.2 (1.0.2+r75+1)">
  <defs
     id="defs2" />
  <sodipodi:namedview
     id="base"
     pagecolor="#ffffff"
     bordercolor="#666666"
     borderopacity="1.0"
     inkscape:pageopacity="0.0"
     inkscape:pageshadow="2"
     inkscape:zoom="8"
     inkscape:cx="39.989864"
     inkscape:cy="34.780428"
     inkscape:document-units="mm"
     inkscape:current-layer="layer1"
     inkscape:document-rotation="0"
     showgrid="false"
     inkscape:snap-global="false"
     fit-margin-top="0"
     fit-margin-left="0"
     fit-margin-right="0"
     fit-margin-bottom="0"
     inkscape:window-width="1366"
     inkscape:window-height="704"
     inkscape:window-x="0"
     inkscape:window-y="0"
     inkscape:window-maximized="0"
     units="px" />
  <metadata
     id="metadata5">
    <rdf:RDF>
      <cc:Work
         rdf:about="">
        <dc:format>image/svg+xml</dc:format>
        <dc:type
           rdf:resource="http://purl.org/dc/dcmitype/StillImage" />
        <dc:title />
      </cc:Work>
    </rdf:RDF>
  </metadata>
  <g
     inkscape:label="Calque 1"
     inkscape:groupmode="layer"
     id="layer1"
     transform="translate(-44.581036,-28.552681)">
    <text
       xml:space="preserve"
       style="font-style:normal;font-weight:normal;font-size:10.5833px;line-height:1.25;font-family:sans-serif;fill:#000000;fill-opacity:1;stroke:none;stroke-width:0.264583"
       x="51.724785"
       y="39.66518"
       id="text1411"><tspan
         sodipodi:role="line"
         id="tspan1409"
         x="51.724785"
         y="39.66518"
         style="stroke-width:0.264583" /></text>
    <path
       style="fill:#000000;stroke-width:0.0304886"
       d="m 45.937397,44.723432 c -0.05568,-0.02744 -0.137998,-0.09808 -0.182933,-0.156987 l -0.0817,-0.107098 -0.0082,-2.496267 -0.0082,-2.496267 -0.07608,-0.120529 c -0.192874,-0.305541 -0.322375,-0.713759 -0.377958,-1.191426 -0.0217,-0.186452 -0.02919,-0.879441 -0.02155,-1.993193 0.01269,-1.849512 0.01166,-1.837737 0.185928,-2.135113 0.110025,-0.187741 0.243367,-0.335177 0.401596,-0.444041 l 0.131902,-0.09075 -0.209212,-0.19736 c -0.723221,-0.682248 -0.682824,-1.853331 0.08994,-2.607541 0.588161,-0.574032 1.450019,-0.702328 2.218686,-0.330271 0.497722,0.24091 0.899939,0.742748 1.032038,1.287649 0.06097,0.25148 0.03626,0.352407 -0.101109,0.41309 l -0.09534,0.04212 -0.01212,0.384723 c -0.01117,0.354926 -0.01958,0.400643 -0.108458,0.59024 -0.119188,0.25427 -0.333374,0.47409 -0.586385,0.601809 -0.295739,0.149289 -0.572365,0.161222 -0.703251,0.03034 -0.137795,-0.137797 -0.01632,-0.395577 0.186408,-0.395577 0.189079,0 0.34418,-0.07042 0.501397,-0.227633 0.188616,-0.188616 0.227631,-0.3086 0.227631,-0.700034 v -0.295588 l -0.577152,0.0095 c -0.527016,0.0087 -0.584457,0.01492 -0.661245,0.07233 -0.203453,0.152085 -0.208381,0.171098 -0.22506,0.868177 -0.01783,0.745305 -0.01065,0.728093 -0.319665,0.765297 -0.373152,0.04492 -0.638502,0.219748 -0.803427,0.529336 l -0.08122,0.152444 -0.009,1.486321 -0.009,1.486321 h 1.098946 1.098948 v -0.534936 c 0,-0.527308 10e-4,-0.536006 0.07484,-0.609774 0.09901,-0.09901 0.239139,-0.09901 0.338146,0 l 0.07484,0.07484 v 3.515255 3.515255 l 0.137241,0.07281 c 0.301025,0.159692 0.549316,0.553244 0.58411,0.925839 0.01744,0.186834 0.01348,0.205228 -0.06031,0.279007 l -0.07899,0.07899 -1.441975,-6.79e-4 c -1.272618,-5.77e-4 -1.453865,-0.0065 -1.543209,-0.05058 z m 1.610421,-0.484265 c 0,-0.08305 -0.309253,-0.362727 -0.445622,-0.403018 -0.07162,-0.02116 -0.303925,-0.03708 -0.541174,-0.03708 H 46.14534 v 0.243909 0.243909 h 0.70124 c 0.615982,0 0.701238,-0.0058 0.701238,-0.04772 z m 0.975637,0 c 0,-0.08305 -0.309252,-0.362727 -0.445623,-0.403018 -0.216619,-0.06401 -0.231644,-0.05456 -0.147036,0.0925 0.041,0.07126 0.08876,0.181026 0.106119,0.243909 l 0.03156,0.114332 h 0.227488 c 0.186102,0 0.227491,-0.0088 0.227491,-0.04772 z m -1.646387,-3.093993 v -2.166081 l 0.07484,-0.07483 c 0.09901,-0.09901 0.23914,-0.09901 0.338148,0 l 0.07485,0.07483 v 2.166081 2.166079 h 0.243909 0.24391 V 40.628251 37.94525 h -1.098642 -1.098641 l 0.02038,0.160065 c 0.04141,0.325223 0.136721,0.626012 0.301894,0.952771 l 0.16953,0.335376 -9.27e-4,1.958895 -9.27e-4,1.958896 h 0.365865 0.365863 z m -0.482024,-8.390615 c 0.01154,-0.399156 0.01926,-0.447389 0.09485,-0.59351 0.104054,-0.201141 0.253911,-0.351453 0.456789,-0.458178 0.158163,-0.08321 0.162985,-0.08372 0.868383,-0.09393 l 0.709337,-0.01026 -0.09956,-0.187696 c -0.456948,-0.861432 -1.603018,-1.043274 -2.312166,-0.366863 -0.620675,0.592022 -0.600158,1.538418 0.04364,2.013148 0.09826,0.07246 0.189349,0.131743 0.202408,0.131743 0.01306,0 0.0294,-0.195508 0.03632,-0.434462 z m 3.239862,11.945312 -0.07485,-0.07485 v -4.240693 -4.240694 l 0.07485,-0.07484 c 0.04717,-0.04717 0.109669,-0.07484 0.169072,-0.07484 0.0594,0 0.1219,0.02767 0.169074,0.07484 l 0.07484,0.07484 v 4.07162 4.071619 h 2.010813 c 1.429541,0 2.032669,0.01 2.086412,0.03445 0.04157,0.01894 0.0919,0.07382 0.111845,0.121955 0.04658,0.112399 -0.0043,0.248087 -0.111845,0.296975 -0.05393,0.02457 -0.700291,0.03445 -2.255482,0.03445 h -2.17989 z m 6.907062,0.05738 c -0.04195,-0.0072 -0.179116,-0.02838 -0.304886,-0.04689 -0.469909,-0.06917 -1.096487,-0.321745 -1.566816,-0.631598 -0.116955,-0.07705 -0.340151,-0.26199 -0.495991,-0.410977 -0.57538,-0.550063 -0.921159,-1.154257 -1.101194,-1.924151 -0.06766,-0.289339 -0.07922,-0.410267 -0.08049,-0.840993 -0.0018,-0.55219 0.0378,-0.810199 0.196777,-1.287307 0.188437,-0.565622 0.484994,-1.035997 0.940078,-1.491081 0.577321,-0.577319 1.20089,-0.912253 2.016176,-1.082937 0.319741,-0.06695 1.068165,-0.07458 1.402477,-0.01432 1.642594,0.296091 2.940219,1.630129 3.184252,3.273617 0.07985,0.537795 0.05782,0.965732 -0.07868,1.528839 -0.0727,0.299889 -0.132415,0.384199 -0.272132,0.384199 -0.25325,0 -0.297856,-0.119725 -0.190625,-0.51171 0.07338,-0.268232 0.08103,-0.346683 0.08094,-0.829791 -9.2e-5,-0.478996 -0.0083,-0.564032 -0.07986,-0.83165 -0.156297,-0.584107 -0.474017,-1.141326 -0.890803,-1.562298 -0.294161,-0.297113 -0.549757,-0.48265 -0.915136,-0.664292 -2.315328,-1.15102 -5.026228,0.620523 -4.913141,3.210683 0.03799,0.869837 0.375991,1.642783 0.980843,2.242929 1.119671,1.110952 2.812739,1.336112 4.141158,0.55073 0.284011,-0.167909 0.409755,-0.183027 0.505886,-0.06081 0.148068,0.188238 0.03305,0.338717 -0.445678,0.583159 -0.54933,0.280485 -1.026689,0.401309 -1.655825,0.419108 -0.209611,0.0059 -0.415407,0.0048 -0.457332,-0.0025 z m 3.093216,-1.520846 c -0.04719,-0.04717 -0.07484,-0.109671 -0.07484,-0.169073 0,-0.0594 0.02768,-0.1219 0.07484,-0.169074 0.04719,-0.04717 0.109665,-0.07484 0.169072,-0.07484 0.05942,0 0.121902,0.02766 0.169071,0.07484 0.04719,0.04717 0.07484,0.10967 0.07484,0.169074 0,0.0594 -0.02768,0.1219 -0.07484,0.169073 -0.04719,0.04717 -0.10967,0.07484 -0.169071,0.07484 -0.05942,0 -0.121902,-0.02767 -0.169072,-0.07484 z m -9.024643,-5.609913 -0.07484,-0.07483 v -1.069873 -1.069875 l 0.07484,-0.07483 c 0.04717,-0.04717 0.109673,-0.07484 0.169073,-0.07484 0.05942,0 0.121902,0.02766 0.169072,0.07484 l 0.07485,0.07483 v 1.069875 1.069873 l -0.07485,0.07483 c -0.04719,0.04717 -0.109671,0.07484 -0.169072,0.07484 -0.05942,0 -0.121901,-0.02766 -0.169073,-0.07484 z m 6.829457,-1.219545 -0.07484,-0.07484 v -3.339876 -3.339892 h -3.658633 -3.65864 v 1.022755 1.022755 l -0.07484,0.07484 c -0.09901,0.09901 -0.239139,0.09901 -0.338146,0 l -0.07484,-0.07484 V 30.50602 29.314192 l 0.07484,-0.07484 0.07484,-0.07484 h 3.996787 3.996783 l 0.07484,0.07484 0.07484,0.07484 v 3.508966 3.508966 l -0.07484,0.07484 c -0.04719,0.04717 -0.109671,0.07484 -0.169077,0.07484 -0.05942,0 -0.121896,-0.02767 -0.169072,-0.07484 z m 0.975636,0 -0.07482,-0.07484 v -0.825965 -0.825964 l 0.07482,-0.07485 c 0.04719,-0.04717 0.10967,-0.07484 0.169077,-0.07484 0.05942,0 0.121896,0.02767 0.169072,0.07484 l 0.07484,0.07485 v 0.825964 0.825965 l -0.07484,0.07484 c -0.04719,0.04717 -0.109672,0.07484 -0.169072,0.07484 -0.05942,0 -0.121902,-0.02767 -0.169077,-0.07484 z m -11.782476,-0.69606 c -0.05869,-0.01887 -0.175774,-0.103531 -0.260185,-0.188125 -0.215476,-0.215941 -0.274988,-0.443784 -0.190554,-0.729554 0.04947,-0.167469 0.302052,-0.420041 0.469522,-0.469522 0.08635,-0.02551 0.411848,-0.03708 1.043464,-0.03708 h 0.917974 l 0.717964,-0.95999 c 0.77715,-1.039125 0.787454,-1.049059 0.980366,-0.94517 0.30405,0.163743 0.522005,0.779396 0.443549,1.252879 -0.05226,0.315273 -0.172543,0.517765 -0.731662,1.231565 -0.494977,0.631912 -0.520949,0.659346 -0.721623,0.762216 l -0.208167,0.106709 -1.176968,0.0051 c -0.802276,0.0035 -1.21094,-0.0057 -1.28368,-0.02912 z m 2.490256,-0.527469 c 0.09307,-0.06878 0.461806,-0.526737 0.464333,-0.576679 8.03e-4,-0.01677 -0.08709,-0.08871 -0.195422,-0.159878 l -0.196963,-0.129389 -0.145399,0.195566 c -0.07997,0.107561 -0.176915,0.210376 -0.215434,0.228477 -0.04563,0.02144 -0.41526,0.03292 -1.060866,0.03292 h -0.990832 l -0.07484,0.07483 c -0.09946,0.09946 -0.09902,0.239127 10e-4,0.33922 l 0.07591,0.07591 1.126201,-0.0088 c 1.086641,-0.0085 1.129223,-0.01092 1.212235,-0.07228 z m 0.903511,-1.117853 c 0.156397,-0.192865 0.239239,-0.378517 0.257177,-0.576343 0.01526,-0.168247 -0.03331,-0.436702 -0.08475,-0.468496 -0.03577,-0.02211 -0.713126,0.899705 -0.681916,0.928001 0.05178,0.04695 0.361966,0.246415 0.383182,0.246415 0.01167,0 0.06851,-0.05831 0.126306,-0.129577 z m 1.599999,0.06738 c -0.302655,-0.153931 -0.359491,-0.209074 -0.359491,-0.348773 0,-0.101866 0.126614,-0.229283 0.227835,-0.229283 0.106107,0 0.676471,0.289545 0.716048,0.363503 0.08486,0.158549 -0.03217,0.369791 -0.203144,0.366666 -0.04689,-8.65e-4 -0.218441,-0.06931 -0.381248,-0.152113 z m -0.267247,-1.126077 c -0.07991,-0.07991 -0.107719,-0.201717 -0.06663,-0.291881 0.03904,-0.08562 0.598329,-0.379644 0.722195,-0.379644 0.164631,0 0.278607,0.214027 0.196078,0.368225 -0.03929,0.07343 -0.609595,0.363502 -0.714664,0.363502 -0.04225,0 -0.103864,-0.02709 -0.136975,-0.0602 z m 7.055957,-0.502452 -0.07482,-0.07484 V 31.60361 30.777646 l 0.07482,-0.07484 c 0.04719,-0.04717 0.10967,-0.07484 0.169077,-0.07484 0.05942,0 0.121896,0.02767 0.169072,0.07484 l 0.07484,0.07484 v 0.825964 0.825966 l -0.07484,0.07484 c -0.04719,0.04718 -0.109672,0.07484 -0.169072,0.07484 -0.05942,0 -0.121902,-0.02766 -0.169077,-0.07484 z m -7.254907,-0.448192 c -0.08703,-0.04759 -0.137203,-0.118683 -0.137203,-0.194367 0,-0.0996 0.29253,-0.676329 0.361875,-0.713441 0.151268,-0.08096 0.369852,0.02875 0.369852,0.185627 0,0.08603 -0.256475,0.617507 -0.336698,0.697734 -0.06602,0.06602 -0.16471,0.07538 -0.257826,0.02445 z"
       id="path1659"
       sodipodi:nodetypes="sscccssssscsssssccsssssscssssscccccscscccsssccssssscccsssssscssccsscccccccccssccccccsssscssssssccccssscccsssssccssssssssssssssccssssssscssssssssssscccssscccsssscccccccsscccccccccccsssscccssscccsssssssscssssscsssccscssscsccsccsssssssssscsssssssscccssscccsssssssss" />
    <path
       style="fill:none;stroke:#000000;stroke-width:0.518547;stroke-linecap:round;stroke-linejoin:miter;stroke-miterlimit:4;stroke-dasharray:none;stroke-opacity:1"
       d="m 54.93199,40.134382 1.463454,2.195183 4.420856,-4.878184"
       id="path1661" />
    <path
       style="fill:none;stroke:#000000;stroke-width:0.01;stroke-linecap:butt;stroke-linejoin:miter;stroke-opacity:1;stroke-miterlimit:4;stroke-dasharray:none"
       d="m 47.458017,33.660674 v 0.618459"
       id="path11" />
    <path
       style="fill:none;stroke:#000000;stroke-width:0.01;stroke-linecap:butt;stroke-linejoin:miter;stroke-opacity:1;stroke-miterlimit:4;stroke-dasharray:none"
       d="m 48.112632,35.738825 0.04376,1.457729"
       id="path836" />
    <path
       style="fill:none;stroke:#000000;stroke-width:0.01;stroke-linecap:butt;stroke-linejoin:miter;stroke-opacity:1;stroke-miterlimit:4;stroke-dasharray:none"
       d="m 49.819549,31.508996 0.04777,5.877157"
       id="path838" />
    <path
       style="fill:none;stroke:#000000;stroke-width:0.01;stroke-linecap:butt;stroke-linejoin:miter;stroke-opacity:1;stroke-miterlimit:4;stroke-dasharray:none"
       d="m 57.596769,36.110781 -0.02824,1.184901"
       id="path840" />
    <path
       style="fill:none;stroke:#000000;stroke-width:0.01;stroke-linecap:butt;stroke-linejoin:miter;stroke-opacity:1;stroke-miterlimit:4;stroke-dasharray:none"
       d="m 53.864435,44.551969 2.536721,-0.01346"
       id="path844" />
    <path
       style="fill:none;stroke:#000000;stroke-width:0.01;stroke-linecap:butt;stroke-linejoin:miter;stroke-opacity:1;stroke-miterlimit:4;stroke-dasharray:none"
       d="m 59.118916,43.809312 0.811142,-0.690706 0.437331,-1.047734"
       id="path846" />
    <path
       style="fill:#ffffff;stroke-width:0.00472441;stroke-miterlimit:4;stroke-dasharray:none"
       d="m 4.177364,28.087948 c 0,-5.275361 0.012804,-5.592577 0.2440252,-6.045809 0.597701,-1.171591 1.4505954,-1.785093 2.898576,-2.084999 0.5059443,-0.104791 1.001249,-0.270779 1.1006772,-0.368863 0.1351771,-0.13335 0.2165341,-0.81145 0.322526,-2.688214 l 0.1417475,-2.50988 0.3967047,-0.396704 c 0.3605233,-0.360524 0.4907156,-0.404524 1.4274744,-0.482439 0.566923,-0.04715 1.586727,-0.09021 2.266231,-0.09567 l 1.235462,-0.0099 -0.06011,1.248192 c -0.05317,1.104213 -0.10196,1.315074 -0.422962,1.827999 -0.489739,0.782549 -1.211556,1.280077 -2.049264,1.412501 -1.017716,0.160879 -1.524468,0.852091 -1.067568,1.456166 0.126002,0.16659 0.18477,0.565868 0.1875,1.273892 l 0.004,1.03125 -1.28125,7e-4 c -1.6030438,8.75e-4 -2.0636153,0.128005 -2.6995573,0.745165 -0.6856161,0.665368 -0.9168145,1.159666 -0.9311205,1.990719 -0.013572,0.788438 0.2157918,1.337705 0.8321719,1.992833 0.6712808,0.71348 0.8019845,0.742369 3.8033909,0.840641 l 2.776365,0.0909 v 0.857022 c 0,0.762928 -0.02645,0.85702 -0.240928,0.85702 -0.13251,0 -0.35751,0.148211 -0.5,0.329357 -0.23737,0.301768 -0.259072,0.495483 -0.259072,2.3125 v 1.983143 h -4.0625 -4.0625 z"
       id="path848"
       transform="matrix(0.26458333,0,0,0.26458333,44.581036,28.552681)" />
    <path
       style="fill:#ffffff;stroke-width:0.00472441;stroke-miterlimit:4;stroke-dasharray:none"
       d="m 36.552364,59.996473 c -0.168951,-0.363625 -0.25551,-0.411597 -0.875,-0.484933 -0.378125,-0.04476 -3.907813,-0.08695 -7.84375,-0.09375 l -7.15625,-0.01236 V 43.977 28.548573 l -0.3125,-0.245813 c -0.305889,-0.240612 -0.3125,-0.281675 -0.3125,-1.941125 v -1.695312 l 1.25664,-1.661698 c 0.691152,-0.913934 1.436465,-2.026336 1.65625,-2.472006 0.378314,-0.767126 0.399231,-0.883704 0.392507,-2.1875 -0.0057,-1.111154 -0.06002,-1.511288 -0.281037,-2.071367 -0.473981,-1.201117 -1.221919,-1.990677 -1.887465,-1.992501 -0.189307,-5.12e-4 -0.47856,0.186247 -0.78125,0.50444 l -0.480645,0.505263 v -1.356756 -1.356756 l 0.375,-0.277249 0.375,-0.27725 V 8.0891855 4.1554276 h 13.8125 13.8125 V 16.839185 29.522944 l 0.375,0.277249 c 0.355299,0.262683 0.375,0.323781 0.375,1.162967 v 0.885718 l -2.34375,0.0092 c -2.490444,0.0098 -3.288075,0.124701 -5.108801,0.735898 -4.024645,1.351029 -7.549542,4.831455 -8.99823,8.884708 -0.700068,1.958702 -0.826978,2.73893 -0.831869,5.114215 -0.0039,1.872699 0.03414,2.282496 0.32007,3.451506 0.604066,2.469741 1.651262,4.462758 3.269504,6.222495 1.624751,1.766816 2.836928,2.68363 4.742318,3.586785 l 1.138258,0.539535 -2.25,0.0034 -2.25,0.0034 -0.1875,-0.403545 z m -12.529586,-25.590687 0.407913,-0.248707 -0.03291,-4.219376 -0.03291,-4.219377 -0.46875,-0.250198 -0.46875,-0.2502 -0.46875,0.2502 -0.46875,0.250198 -0.03291,4.219377 -0.03291,4.219376 0.407914,0.248707 c 0.224353,0.136789 0.492289,0.248707 0.595414,0.248707 0.103125,0 0.371061,-0.111918 0.595414,-0.248707 z m 4.674594,-12.966058 c 0.279663,-0.239489 0.381004,-0.699609 0.237322,-1.077522 -0.166454,-0.437805 -2.258826,-1.483883 -2.863486,-1.431595 -0.577267,0.04992 -0.954649,0.538412 -0.835399,1.081355 0.06581,0.299648 0.251595,0.487767 0.826759,0.83716 0.870563,0.528839 1.952886,0.934952 2.231185,0.837192 0.107861,-0.03789 0.28949,-0.148855 0.403619,-0.24659 z m -1.05869,-4.925368 c 1.196145,-0.587554 1.341823,-0.732151 1.325289,-1.31545 -0.0161,-0.568059 -0.341927,-0.918482 -0.854006,-0.918482 -0.515845,0 -2.344065,0.910512 -2.676303,1.332885 -0.313201,0.39817 -0.236229,0.861037 0.211192,1.270001 0.389457,0.355981 0.595697,0.317816 1.993828,-0.368954 z M 25.8725,13.192434 c 0.304703,-0.304703 1.304864,-2.403046 1.304864,-2.737611 0,-0.362058 -0.556308,-0.7993954 -1.016857,-0.7993954 -0.196979,0 -0.467527,0.1093844 -0.601219,0.2430764 -0.346354,0.346354 -1.256924,2.275713 -1.256924,2.66323 0,0.667244 1.094107,1.10673 1.570136,0.6307 z"
       id="path850"
       transform="matrix(0.26458333,0,0,0.26458333,44.581036,28.552681)" />
    <path
       style="fill:#ffffff;stroke-width:0.00472441;stroke-miterlimit:4;stroke-dasharray:none"
       d="m 45.114864,59.329934 c -3.234218,-0.479176 -5.88711,-1.828125 -7.999926,-4.067821 -2.113215,-2.240119 -3.247878,-4.906708 -3.400714,-7.992069 -0.259002,-5.228556 2.44693,-9.834913 7.15064,-12.172664 0.75625,-0.375857 1.825,-0.799677 2.375,-0.94182 4.185645,-1.081751 8.719277,0.03391 11.737237,2.888357 l 1.005465,0.950989 -2.246351,2.478641 c -1.235494,1.363253 -3.727225,4.113433 -5.537182,6.111511 -1.809958,1.998078 -3.342119,3.63287 -3.404803,3.63287 -0.06268,0 -1.225559,-1.659375 -2.584168,-3.6875 l -2.470198,-3.6875 -0.509819,-0.03739 c -0.712088,-0.05222 -1.110446,0.282623 -1.106743,0.930295 0.0024,0.419955 0.408964,1.090315 3.154235,5.200845 1.733314,2.595312 3.200875,4.71875 3.261246,4.71875 0.06037,0 2.936455,-3.120433 6.391296,-6.934295 3.454841,-3.813862 6.337225,-6.899873 6.405297,-6.857803 0.224272,0.138608 1.32221,2.586164 1.588934,3.542098 0.34326,1.23024 0.385765,4.764265 0.07187,5.975623 -0.312224,1.204912 -0.304027,1.88283 0.02599,2.150064 l 0.275385,0.222994 -0.493757,1.16941 c -0.315257,0.746654 -0.551631,1.15088 -0.653847,1.118156 -0.607624,-0.194531 -0.970453,-0.149749 -1.277931,0.15773 -0.383565,0.383565 -0.408019,0.809976 -0.07102,1.238401 l 0.248638,0.316093 -1.023896,0.871935 c -0.866719,0.738084 -1.050174,0.845659 -1.195067,0.700764 -0.318679,-0.318678 -0.919635,-0.176563 -2.44818,0.578948 -1.950519,0.96408 -3.493915,1.369589 -5.455134,1.43327 -0.790625,0.02567 -1.60625,0.02168 -1.8125,-0.0089 z"
       id="path852"
       transform="matrix(0.26458333,0,0,0.26458333,44.581036,28.552681)" />
    <path
       style="fill:#ffffff;stroke-width:0.00472441;stroke-miterlimit:4;stroke-dasharray:none"
       d="M 5.9848535,16.927855 C 3.6717172,15.186406 3.5634084,11.796557 5.751008,9.6089575 c 2.1839792,-2.1839792 5.497701,-2.2202353 7.680837,-0.084038 0.687924,0.6731345 1.342986,1.6997085 1.185245,1.8574485 -0.04274,0.04274 -1.241979,0.108844 -2.66497,0.146892 -2.946338,0.07878 -3.172274,0.142703 -4.1135223,1.163837 -0.8292045,0.899581 -0.933725,1.201985 -1.0331816,2.989251 -0.048993,0.880425 -0.114165,1.625859 -0.144826,1.65652 -0.030661,0.03066 -0.3347425,-0.154295 -0.6757366,-0.411013 z"
       id="path854"
       transform="matrix(0.26458333,0,0,0.26458333,44.581036,28.552681)" />
    <path
       style="fill:#ffffff;stroke-width:0.00472441;stroke-miterlimit:4;stroke-dasharray:none"
       d="M 5.927364,48.290805 V 40.801183 L 5.3025295,39.509555 C 4.6906744,38.244758 4.177364,36.591401 4.177364,35.885432 v -0.355004 h 4.0625 4.0625 v 10.125 10.125 h -0.875 -0.875 V 47.5395 39.298573 L 10.223007,39.0395 C 10.04186,38.89701 9.7681959,38.780428 9.614864,38.780428 c -0.1533319,0 -0.4269961,0.116582 -0.6081426,0.259072 L 8.677364,39.298573 v 8.240927 8.240928 h -1.375 -1.375 z"
       id="path856"
       transform="matrix(0.26458333,0,0,0.26458333,44.581036,28.552681)" />
    <path
       style="fill:#ffffff;stroke-width:0.00472441;stroke-miterlimit:4;stroke-dasharray:none"
       d="m 5.927364,58.511878 v -0.893549 l 1.735121,0.06869 c 1.0036174,0.03973 1.8567002,0.133756 2.023506,0.223028 0.1586116,0.08489 0.561018,0.409355 0.894236,0.721041 0.439659,0.41125 0.561794,0.594656 0.445244,0.668608 -0.08833,0.05605 -1.2715445,0.102767 -2.629357,0.10382 l -2.46875,0.0019 z"
       id="path858"
       transform="matrix(0.26458333,0,0,0.26458333,44.581036,28.552681)" />
    <path
       style="fill:#ffffff;stroke-width:0.00472441;stroke-miterlimit:4;stroke-dasharray:none"
       d="m 13.176143,59.249178 c -6.72e-4,-0.08594 -0.142497,-0.459738 -0.315166,-0.830667 -0.17267,-0.37093 -0.289296,-0.699067 -0.259168,-0.729195 0.223857,-0.223857 2.200555,1.188009 2.200555,1.571757 0,0.09433 -0.281542,0.144355 -0.8125,0.144355 -0.566015,0 -0.81287,-0.0474 -0.813721,-0.15625 z"
       id="path860"
       transform="matrix(0.26458333,0,0,0.26458333,44.581036,28.552681)" />
    <path
       style="fill:#ffffff;stroke-width:0.00472441;stroke-miterlimit:4;stroke-dasharray:none"
       d="m 20.011413,21.19781 c -0.04623,-0.04623 -0.08405,-0.646715 -0.08405,-1.334418 v -1.250369 l 0.59375,-0.788185 c 0.326562,-0.433501 0.633389,-0.789585 0.681836,-0.791297 0.13241,-0.0047 0.28025,0.855413 0.263542,1.533216 -0.0092,0.371791 -0.138718,0.845714 -0.341705,1.25 -0.372683,0.74227 -0.988404,1.506023 -1.113374,1.381053 z"
       id="path862"
       transform="matrix(0.26458333,0,0,0.26458333,44.581036,28.552681)" />
    <path
       style="fill:#ffffff;stroke-width:0.00472441;stroke-miterlimit:4;stroke-dasharray:none"
       d="m 19.271114,20.715928 c -0.257813,-0.175732 -0.46875,-0.360424 -0.46875,-0.410425 0,-0.05 0.210937,-0.399537 0.46875,-0.776744 l 0.46875,-0.685831 0.03825,0.597521 c 0.02104,0.328637 0.02104,0.821953 0,1.096257 l -0.03825,0.498735 z"
       id="path864"
       transform="matrix(0.26458333,0,0,0.26458333,44.581036,28.552681)" />
    <path
       style="fill:#ffffff;stroke-width:0.00472441;stroke-miterlimit:4;stroke-dasharray:none"
       d="M 8.069293,24.961058 C 7.7409979,24.543699 7.7392869,24.447914 8.0509939,23.936678 l 0.2476955,-0.40625 h 3.8893376 3.889337 l 0.394361,-0.40625 c 0.216898,-0.223438 0.534711,-0.591956 0.70625,-0.81893 l 0.311889,-0.412679 0.65625,0.461651 c 0.360937,0.253908 0.65625,0.506589 0.65625,0.561513 0,0.175252 -1.512545,1.987212 -1.792853,2.147757 -0.1951,0.111741 -1.431292,0.165838 -4.471468,0.195676 l -4.201821,0.04124 z"
       id="path866"
       transform="matrix(0.26458333,0,0,0.26458333,44.581036,28.552681)" />
  </g>
</svg>
