<?xml version="1.0" encoding="UTF-8" standalone="no"?>
<!-- Created with Inkscape (http://www.inkscape.org/) -->

<svg
   xmlns:dc="http://purl.org/dc/elements/1.1/"
   xmlns:cc="http://creativecommons.org/ns#"
   xmlns:rdf="http://www.w3.org/1999/02/22-rdf-syntax-ns#"
   xmlns:svg="http://www.w3.org/2000/svg"
   xmlns="http://www.w3.org/2000/svg"
   xmlns:sodipodi="http://sodipodi.sourceforge.net/DTD/sodipodi-0.dtd"
   xmlns:inkscape="http://www.inkscape.org/namespaces/inkscape"
   width="64"
   height="64"
   viewBox="0 0 16.933333 16.933334"
   version="1.1"
   id="svg8"
   inkscape:version="0.92.5 (2060ec1f9f, 2020-04-08)"
   sodipodi:docname="vmc_64x64.svg">
  <defs
     id="defs2" />
  <sodipodi:namedview
     id="base"
     pagecolor="#ffffff"
     bordercolor="#666666"
     borderopacity="1.0"
     inkscape:pageopacity="0.0"
     inkscape:pageshadow="2"
     inkscape:zoom="7.919596"
     inkscape:cx="59.42748"
     inkscape:cy="30.921389"
     inkscape:document-units="mm"
     inkscape:current-layer="layer1"
     showgrid="false"
     units="px"
     inkscape:window-width="1208"
     inkscape:window-height="987"
     inkscape:window-x="1992"
     inkscape:window-y="0"
     inkscape:window-maximized="1" />
  <metadata
     id="metadata5">
    <rdf:RDF>
      <cc:Work
         rdf:about="">
        <dc:format>image/svg+xml</dc:format>
        <dc:type
           rdf:resource="http://purl.org/dc/dcmitype/StillImage" />
        <dc:title></dc:title>
      </cc:Work>
    </rdf:RDF>
  </metadata>
  <g
     inkscape:label="Layer 1"
     inkscape:groupmode="layer"
     id="layer1"
     transform="translate(0,-280.06665)">
    <path
       style="fill:#000000;stroke-width:0.03050048"
       d="m 2.573151,296.31304 c -1.0397157,-0.21336 -1.78946477,-0.99456 -1.95115507,-2.03301 -0.025371,-0.16295 -0.032159,-1.74952 -0.025145,-5.86595 0.00918,-5.36857 0.012388,-5.65223 0.065738,-5.84084 0.1985144,-0.70188 0.68034677,-1.28321 1.31346017,-1.58469 0.5254691,-0.25022 -0.051338,-0.22829 6.2854674,-0.2391 4.1164275,-0.006 5.7030055,-2.4e-4 5.8659565,0.0252 1.050289,0.16352 1.828989,0.91967 2.03566,1.9767 0.06552,0.33494 0.06552,11.26515 0,11.60006 -0.202463,1.03553 -0.928811,1.76187 -1.964332,1.96433 -0.320815,0.0628 -11.3192519,0.0602 -11.6256195,-0.003 z m 11.835535,-0.51968 c 0.591283,-0.21175 1.020338,-0.64081 1.232088,-1.2321 l 0.09333,-0.2606 v -5.74933 -5.74935 l -0.09333,-0.26059 c -0.215324,-0.60126 -0.642275,-1.0249 -1.248981,-1.2393 l -0.243711,-0.0861 H 8.3987392 2.6494035 l -0.2606043,0.0933 c -0.5963341,0.21356 -1.0185241,0.63575 -1.2320965,1.23209 l -0.093325,0.26059 v 5.74934 5.74935 l 0.086125,0.24371 c 0.2430839,0.68787 0.7687917,1.15751 1.4693974,1.31266 0.1490648,0.0329 1.2351035,0.0396 5.8560926,0.0352 l 5.6730903,-0.005 z M 2.618504,295.20673 c -0.3665769,-0.12716 -0.6522978,-0.38283 -0.8174727,-0.7315 l -0.097146,-0.20505 -0.00797,-4.71745 -0.00797,-4.71744 0.080744,-0.0636 c 0.044398,-0.035 0.098832,-0.0635 0.1209412,-0.0635 0.068723,0 0.1910377,0.0668 0.2167735,0.11851 0.013506,0.0272 0.031415,2.14922 0.039772,4.71583 l 0.015221,4.66657 0.082708,0.14069 c 0.089572,0.15236 0.2416138,0.29937 0.3980809,0.38487 0.093414,0.051 0.4028937,0.054 5.7565593,0.054 5.3536568,0 5.6631428,-0.003 5.7565508,-0.054 0.156467,-0.0855 0.308509,-0.23251 0.39808,-0.38487 l 0.08271,-0.14069 v -5.65783 -5.65785 l -0.08271,-0.14068 c -0.08957,-0.15238 -0.241613,-0.29937 -0.39808,-0.38487 -0.09341,-0.051 -0.402894,-0.0539 -5.7565508,-0.0539 H 2.7408705 l -0.1406928,0.0827 c -0.077386,0.0455 -0.1834936,0.13146 -0.2358084,0.19104 -0.1859935,0.21184 -0.1993801,0.26219 -0.2191837,0.82428 -0.010075,0.28517 -0.02843,0.54066 -0.040816,0.56775 -0.02358,0.0513 -0.1453264,0.11851 -0.2148034,0.11851 -0.022086,0 -0.077408,-0.0292 -0.1228889,-0.065 l -0.082692,-0.065 0.00993,-0.5696 0.00993,-0.56958 0.1134047,-0.22929 c 0.1404615,-0.284 0.3703081,-0.51003 0.6564766,-0.64559 l 0.2061328,-0.0977 h 5.7204287 5.7204139 l 0.229451,0.1134 c 0.284161,0.14046 0.510135,0.37017 0.645761,0.65647 l 0.09765,0.20615 v 5.71884 5.71884 l -0.09765,0.20614 c -0.135626,0.2863 -0.3616,0.51603 -0.645754,0.65648 l -0.229444,0.1134 -5.6746792,0.006 c -5.3220794,0.006 -5.6841719,0.003 -5.8275734,-0.0463 z m 10.412049,-0.69278 c -0.170785,-0.0548 -0.430538,-0.28015 -0.523169,-0.45386 -0.05462,-0.10235 -0.06686,-0.17584 -0.06686,-0.39993 0,-0.33095 0.05328,-0.45303 0.291272,-0.66698 0.566091,-0.50896 1.475844,-0.0978 1.475844,0.66698 0,0.5973 -0.606154,1.03698 -1.177058,0.85379 z m 0.491982,-0.46811 c 0.111539,-0.0599 0.244293,-0.26942 0.244293,-0.38568 0,-0.11628 -0.132754,-0.32586 -0.244293,-0.38567 -0.189172,-0.10139 -0.387052,-0.0623 -0.54619,0.108 -0.104068,0.11138 -0.121583,0.36118 -0.03499,0.49905 0.1302,0.20734 0.372941,0.27595 0.5812,0.16426 z m -5.5373072,0.17601 c -0.9758728,-0.0706 -1.9298597,-0.40549 -2.7737843,-0.97383 -0.3157022,-0.21261 -0.4117587,-0.31143 -0.4117587,-0.42361 0,-0.0538 0.026267,-0.12076 0.060964,-0.15552 0.1033839,-0.10341 0.2219072,-0.0777 0.4654313,0.10107 1.3779527,1.0111 3.1131924,1.2825 4.7334439,0.74033 1.255236,-0.42003 2.364064,-1.39232 2.973851,-2.60764 0.716432,-1.42788 0.715239,-3.15535 -0.003,-4.58695 -0.170263,-0.33929 -0.240687,-0.45434 -0.475035,-0.77596 -0.177449,-0.24357 -0.202953,-0.36237 -0.09989,-0.46544 0.09461,-0.0946 0.232995,-0.0792 0.342684,0.0382 0.222213,0.23773 0.568269,0.81766 0.771568,1.29302 1.084024,2.53464 0.18462,5.43302 -2.159429,6.95885 -0.692316,0.45066 -1.6935057,0.79321 -2.4695511,0.84494 -0.5252075,0.0351 -0.6271141,0.0364 -0.9553596,0.0126 z m 2.1672932,-1.8285 c -0.4690647,-0.0493 -0.8965153,-0.29407 -1.021754,-0.58521 -0.073495,-0.17083 -0.073652,-0.24908 -0.00221,-0.89304 0.032905,-0.29622 -0.00147,-0.6436 -0.087296,-0.87193 -0.092362,-0.24687 -0.1255531,-0.28304 -0.2371298,-0.25853 -0.082966,0.0182 -0.1009061,0.0432 -0.1614284,0.22473 -0.2178182,0.65335 -0.73749,1.36213 -1.2854045,1.75312 -0.3653456,0.26071 -0.6558116,0.35648 -1.0828297,0.35705 -1.0988283,0.002 -2.1152635,-1.02334 -2.2698128,-2.28839 -0.1115169,-0.91273 0.2654618,-1.74274 0.946197,-2.08329 0.375882,-0.18804 0.5811865,-0.14466 1.0534902,0.22271 0.2941226,0.22876 0.5527871,0.37578 0.7757088,0.44088 0.2699685,0.0789 0.2972862,0.071 0.3334089,-0.0965 l 0.031268,-0.14487 -0.1327537,-0.13726 c -0.4617617,-0.47739 -0.8548884,-1.29571 -0.9394453,-1.95546 -0.1068752,-0.83382 0.4224064,-1.62817 1.3256082,-1.98951 0.6034297,-0.24142 1.2383568,-0.25735 1.8697909,-0.047 0.9216092,0.30713 1.4784402,0.97563 1.4826412,1.78003 0.0022,0.36723 -0.123044,0.53649 -0.566531,0.76737 -0.4746167,0.24709 -0.7534645,0.46979 -0.9418981,0.75224 l -0.077375,0.11598 0.1802777,0.18311 0.1802852,0.1831 0.1742855,-0.0323 c 0.254814,-0.047 0.9000527,-0.0391 1.2090467,0.0149 1.282128,0.22426 1.973868,0.9943 1.902489,2.11779 -0.04306,0.67807 -0.330335,1.28917 -0.833636,1.77349 -0.530192,0.51019 -1.192623,0.76303 -1.825065,0.69664 z m 0.726969,-0.53361 c 0.314748,-0.10724 0.527267,-0.24672 0.813302,-0.53376 0.299264,-0.3003 0.428069,-0.50262 0.555667,-0.87281 0.258425,-0.74974 0.06902,-1.49294 -0.470939,-1.84818 -0.382493,-0.25163 -0.916924,-0.38814 -1.522063,-0.38876 -0.211781,-2.3e-4 -0.4260317,0.007 -0.4761007,0.0178 l -0.09103,0.0182 0.01514,0.2118 c 0.0106,0.14786 -7.46e-4,0.27154 -0.03843,0.40967 -0.05148,0.19012 -0.2268607,0.50347 -0.3284611,0.5868 -0.043872,0.0359 -0.038504,0.0614 0.054767,0.25924 0.056938,0.12064 0.1244637,0.30115 0.1501541,0.40113 0.05641,0.21942 0.06104,0.70357 0.01104,1.13632 -0.045518,0.39337 -0.030671,0.42968 0.227236,0.55664 0.3408637,0.16781 0.6981567,0.18273 1.0996847,0.046 z m -4.3260299,-0.21378 c 0.4610582,-0.0729 1.1835419,-0.75664 1.5074599,-1.42668 0.1748681,-0.36173 0.1768972,-0.37599 0.056634,-0.39862 -0.3449296,-0.0648 -0.7440929,-0.38501 -0.8979402,-0.72018 -0.079922,-0.17413 -0.089447,-0.18315 -0.1933138,-0.18315 -0.3226722,0 -0.7932065,-0.21071 -1.2926418,-0.57891 -0.2199672,-0.16215 -0.3593316,-0.24461 -0.4134149,-0.24461 -0.1904407,0 -0.5576523,0.33487 -0.7112913,0.64863 -0.559801,1.14327 0.2970556,2.76456 1.5480301,2.92906 0.096288,0.0126 0.1950229,0.005 0.396499,-0.0256 z m 2.2309137,-2.34817 c 0.1877624,-0.0919 0.29666,-0.21068 0.4008494,-0.43736 0.1776657,-0.3865 -0.0138,-0.89652 -0.4081697,-1.08733 -0.1716437,-0.083 -0.4976065,-0.0968 -0.6764362,-0.0285 -0.2062899,0.0788 -0.4187352,0.28991 -0.4939208,0.49084 -0.2750728,0.73521 0.4709012,1.4081 1.1776773,1.0623 z M 7.483726,287.61672 c 0.2641404,-0.27329 0.5602635,-0.38468 0.9867069,-0.37119 l 0.300435,0.01 0.061857,-0.12197 c 0.034026,-0.0672 0.180173,-0.23866 0.3248125,-0.38125 0.2115655,-0.20855 0.3336929,-0.29803 0.6245699,-0.4575 0.5134317,-0.28153 0.5245507,-0.2923 0.5156927,-0.50032 -0.02605,-0.61254 -0.5728057,-1.18498 -1.3195327,-1.3816 -0.2698048,-0.0711 -0.858699,-0.0711 -1.1285111,0 -0.6848911,0.18033 -1.1942501,0.65077 -1.3151915,1.21472 -0.098377,0.45871 0.1604144,1.24293 0.6104813,1.84994 0.1022729,0.13793 0.196299,0.25063 0.2089534,0.25045 0.012614,-2.2e-4 0.071041,-0.05 0.1297465,-0.11076 z m -3.4312683,4.55387 c -0.2974359,-0.31043 -0.7209839,-1.0493 -0.9382274,-1.63673 -0.1262765,-0.34148 -0.2514112,-0.85713 -0.2958538,-1.21923 -0.045591,-0.37157 -0.038726,-1.15669 0.013132,-1.50086 0.3553395,-2.35734 2.095333,-4.20614 4.4341525,-4.71144 0.438957,-0.0948 1.3100125,-0.13051 1.7990082,-0.0736 0.8467161,0.0984 1.7204358,0.4214 2.4644168,0.91097 0.513388,0.33783 0.644314,0.51432 0.498009,0.67137 -0.09223,0.0989 -0.238756,0.0879 -0.383501,-0.029 -0.236427,-0.19104 -0.715639,-0.48856 -1.023671,-0.63554 -1.1865277,-0.5662 -2.5920967,-0.65478 -3.8421911,-0.24214 -0.3983488,0.1315 -1.0246502,0.44833 -1.3675583,0.69184 -0.3731361,0.26495 -0.9664111,0.85788 -1.2278958,1.22715 -0.2437106,0.34417 -0.5604353,0.9707 -0.6915992,1.36807 -0.3386399,1.02592 -0.3384385,2.22141 5.298e-4,3.2451 0.1741515,0.52592 0.5246036,1.18096 0.8388284,1.56788 0.1308506,0.16111 0.164287,0.24982 0.129403,0.3433 -0.072379,0.19407 -0.2343088,0.20321 -0.4070126,0.0229 z"
       id="path10051"
       inkscape:connector-curvature="0" />
    <path
       style="fill:#ffffff;stroke-width:0.00567959;stroke-miterlimit:4;stroke-dasharray:none"
       d="m 2.8228982,295.83433 c -0.6943823,-0.0549 -1.2405281,-0.43845 -1.5648116,-1.09879 l -0.138275,-0.28158 -0.013132,-5.85851 -0.013132,-5.85851 0.1677941,-0.35274 c 0.2002529,-0.42098 0.522268,-0.75532 0.9229306,-0.95826 l 0.288004,-0.14586 5.8856717,-0.0135 5.88567,-0.0135 0.359236,0.17709 c 0.416914,0.20553 0.740525,0.53386 0.953382,0.96732 l 0.14002,0.28513 v 5.86168 5.86167 l -0.163681,0.3325 c -0.216879,0.44052 -0.635823,0.83107 -1.08401,1.01049 l -0.331223,0.13259 -5.4468489,-0.007 c -2.9957731,-0.004 -5.6271783,-0.022 -5.8475781,-0.0394 z m 11.4911508,-0.65165 c 0.294465,-0.15022 0.497299,-0.34215 0.658348,-0.62294 l 0.146857,-0.25605 4.18e-4,-5.74992 c 4.25e-4,-5.658 -0.0014,-5.75306 -0.100048,-5.94695 -0.128395,-0.25166 -0.398505,-0.52178 -0.650179,-0.65016 -0.193903,-0.099 -0.289168,-0.10054 -5.9970452,-0.10032 l -5.7999865,2.1e-4 -0.1753156,0.10512 c -0.5250288,0.31475 -0.6770112,0.61312 -0.725252,1.42375 l -0.035816,0.60254 0.1296716,0.0694 c 0.097801,0.0524 0.158728,0.0562 0.2479116,0.0155 0.1106067,-0.0504 0.1205532,-0.0903 0.1539449,-0.61808 0.040369,-0.63757 0.097056,-0.78761 0.3669725,-0.97102 l 0.1864039,-0.12666 h 5.7079374 5.7079294 l 0.241249,0.25028 0.241239,0.25028 v 5.66704 c 0,5.64393 -4.16e-4,5.66771 -0.103704,5.83485 -0.05702,0.0923 -0.175383,0.21893 -0.262978,0.28142 l -0.159258,0.11359 H 8.4058286 c -6.3310226,0 -5.7974874,0.0295 -6.076664,-0.33708 l -0.1247319,-0.16372 -0.041413,-4.72818 c -0.038206,-4.36562 -0.047906,-4.73227 -0.1264182,-4.78174 -0.05783,-0.0363 -0.1299478,-0.0377 -0.2254069,-0.003 l -0.1403943,0.0495 0.019176,4.78235 c 0.021117,5.26249 -0.00373,4.88064 0.3430127,5.26446 0.1921344,0.21267 0.39335,0.33779 0.6395902,0.39775 0.082647,0.0202 2.6926519,0.0389 5.8000087,0.0418 5.5101251,0.005 5.6544741,0.003 5.8414151,-0.0926 z m -0.659238,-0.68053 c 0.358742,-0.1499 0.563749,-0.4611 0.563749,-0.85577 0,-0.7053 -0.773121,-1.12094 -1.380804,-0.74233 -0.287714,0.17925 -0.422466,0.41427 -0.422466,0.73677 0,0.31568 0.100666,0.5448 0.309247,0.7039 0.321517,0.24522 0.605229,0.29325 0.930274,0.15743 z m -4.2722297,-0.33173 c 1.9708087,-0.33155 3.7069737,-1.82845 4.3651517,-3.76357 0.291467,-0.85696 0.372881,-2.03305 0.197776,-2.85711 -0.172935,-0.81389 -0.547108,-1.66828 -1.007241,-2.29998 -0.135195,-0.18558 -0.20406,-0.23791 -0.313085,-0.23791 -0.153921,0 -0.259984,0.0795 -0.259984,0.19495 0,0.041 0.111673,0.24511 0.248165,0.45333 1.073742,1.63805 1.221425,3.53195 0.404505,5.18729 -1.118945,2.26734 -3.6420635,3.39766 -6.0358096,2.70398 -0.5043595,-0.14616 -1.0730023,-0.41836 -1.5688108,-0.75098 -0.3499148,-0.23474 -0.4513733,-0.26504 -0.5516527,-0.16475 -0.1232845,0.12329 -0.069096,0.32533 0.1277316,0.47607 1.2214186,0.93551 2.8263896,1.32227 4.3932538,1.05868 z m 1.5041697,-1.82216 c 0.836425,-0.21787 1.586234,-0.9773 1.849352,-1.87307 0.101274,-0.34478 0.103001,-1.00953 0.0037,-1.34458 -0.150042,-0.50526 -0.624951,-0.95882 -1.244311,-1.18839 -0.427563,-0.15847 -1.228671,-0.24708 -1.6740607,-0.18516 l -0.3149338,0.0437 -0.1484082,-0.16902 c -0.081623,-0.093 -0.1484008,-0.18047 -0.1484008,-0.19446 0,-0.10321 0.5507118,-0.57502 0.9352125,-0.80131 0.565129,-0.3326 0.636776,-0.44073 0.608377,-0.91804 -0.03895,-0.65449 -0.433352,-1.19991 -1.1077067,-1.53182 -1.1089468,-0.54583 -2.3587801,-0.34797 -3.1327357,0.49591 -0.594804,0.64856 -0.6103912,1.51153 -0.046934,2.59821 0.1112412,0.21456 0.3031068,0.50226 0.4263688,0.63936 0.1800315,0.20023 0.2179599,0.27375 0.1928504,0.3738 -0.05634,0.22452 -0.422055,0.11675 -1.0009215,-0.29492 -0.5807609,-0.41302 -0.7428765,-0.45421 -1.117669,-0.28408 -0.4971893,0.22572 -0.8770782,0.80701 -0.976186,1.49375 -0.1526391,1.05759 0.4970171,2.28341 1.4453632,2.72719 0.4582682,0.21445 1.0522888,0.25249 1.4719121,0.0942 0.5985497,-0.2257 1.19904,-0.85853 1.6113432,-1.69804 0.2905939,-0.59169 0.3651525,-0.6265 0.5041581,-0.23535 0.074958,0.21088 0.084381,0.35455 0.059917,0.91322 -0.033806,0.7717 0.0094,0.9202 0.3328194,1.14434 0.377874,0.26186 0.9313467,0.33502 1.4710977,0.19443 z m -6.4645226,-0.10182 c 0.1177401,-0.11774 0.096541,-0.23385 -0.087213,-0.47759 -0.4411432,-0.58516 -0.8135553,-1.38453 -0.9659854,-2.07346 -0.1405061,-0.63503 -0.1195311,-1.71372 0.045517,-2.34049 0.1411703,-0.53614 0.5369082,-1.3761 0.8324785,-1.76695 0.2242801,-0.29659 0.8970907,-0.96402 1.1806027,-1.17114 0.3216419,-0.23498 1.1871245,-0.64662 1.5858696,-0.75427 1.547045,-0.41765 3.0810162,-0.13865 4.4222052,0.80427 0.191291,0.13451 0.385029,0.24455 0.430532,0.24455 0.12829,0 0.262686,-0.17702 0.224862,-0.29616 -0.06753,-0.21285 -0.83888,-0.72604 -1.513049,-1.00669 -0.8361277,-0.34808 -1.6656959,-0.47509 -2.6247117,-0.40182 -0.7563604,0.0577 -1.3379418,0.21481 -2.0248031,0.54663 -3.0727052,1.48445 -4.1078467,5.35703 -2.1993136,8.22787 0.2289363,0.34438 0.4305548,0.54396 0.5494962,0.54396 0.035667,0 0.100227,-0.0355 0.1435207,-0.0787 z"
       id="path10053"
       inkscape:connector-curvature="0" />
    <path
       style="fill:#ffffff;stroke-width:0.00567959;stroke-miterlimit:4;stroke-dasharray:none"
       d="M 6.0228348,291.62693 C 4.8679981,291.34722 4.1211811,289.823 4.629391,288.78297 c 0.1283209,-0.26262 0.5262157,-0.6655 0.6572677,-0.6655 0.038726,0 0.239726,0.1143 0.4467468,0.25399 0.4794745,0.32355 0.9520471,0.54739 1.1557922,0.54744 0.1538472,3e-5 0.3166493,0.10598 0.3166493,0.20611 0,0.11202 0.4707817,0.54153 0.7030829,0.64147 0.1367532,0.0588 0.2486434,0.13136 0.2486434,0.16117 0,0.15224 -0.3675475,0.71338 -0.6867564,1.04848 -0.5230818,0.54915 -0.9939453,0.76077 -1.4479821,0.6508 z"
       id="path10055"
       inkscape:connector-curvature="0" />
    <path
       style="fill:#ffffff;stroke-width:0.00567959;stroke-miterlimit:4;stroke-dasharray:none"
       d="m 7.0977999,287.35454 c -0.3181194,-0.46845 -0.5043668,-0.95022 -0.5323932,-1.37716 -0.020888,-0.31815 -0.00772,-0.39478 0.1094725,-0.63418 0.6178769,-1.26289 2.8322627,-1.27424 3.4584138,-0.0178 0.150407,0.30183 0.167123,0.5897 0.04045,0.69641 -0.0482,0.0406 -0.2454487,0.16578 -0.4382997,0.27814 -0.3186202,0.18566 -0.8271511,0.63956 -0.9375637,0.83686 -0.031562,0.0564 -0.1200304,0.079 -0.3092327,0.079 -0.3542798,0 -0.6864953,0.10597 -0.9254225,0.29521 -0.1080552,0.0856 -0.2092899,0.15561 -0.2249598,0.15561 -0.015667,0 -0.1238737,-0.14046 -0.2404499,-0.31212 z"
       id="path10057"
       inkscape:connector-curvature="0" />
    <path
       style="fill:#ffffff;stroke-width:0.00567959;stroke-miterlimit:4;stroke-dasharray:none"
       d="m 8.0814996,289.29994 c -0.083159,-0.0362 -0.2210341,-0.14542 -0.3063899,-0.24263 -0.2972716,-0.33858 -0.2644393,-0.79628 0.079398,-1.10693 0.3163589,-0.2858 0.7503006,-0.30652 1.0547432,-0.0503 0.2128268,0.17908 0.3002191,0.37073 0.3002191,0.65836 0,0.31456 -0.1496613,0.54728 -0.4493057,0.69865 -0.251076,0.12683 -0.4562534,0.13982 -0.6786686,0.043 z"
       id="path10059"
       inkscape:connector-curvature="0" />
    <path
       style="fill:#ffffff;stroke-width:0.00567959;stroke-miterlimit:4;stroke-dasharray:none"
       d="M 10.061017,291.89504 C 9.7870193,291.7946 9.6089943,291.7011 9.6015563,291.6538 c -0.0045,-0.0302 -0.01037,-0.39312 -0.01254,-0.80638 -0.0038,-0.67992 -0.01522,-0.77652 -0.1234491,-1.01596 l -0.1195688,-0.26458 0.1821882,-0.35417 c 0.1474157,-0.28657 0.1821807,-0.4092 0.1821807,-0.64258 v -0.28842 l 0.250926,-0.0296 c 0.1380137,-0.0164 0.4420307,-0.009 0.6755937,0.0185 0.78952,0.0898 1.287299,0.36386 1.542851,0.84969 0.136067,0.25866 0.143207,0.30216 0.123209,0.75045 -0.02775,0.62156 -0.164988,0.93381 -0.615726,1.4007 -0.395776,0.40995 -0.782462,0.60653 -1.246043,0.63349 -0.167771,0.01 -0.338849,0.005 -0.38018,-0.01 z"
       id="path10061"
       inkscape:connector-curvature="0" />
    <path
       style="fill:#ffffff;stroke-width:0.00567959;stroke-miterlimit:4;stroke-dasharray:none"
       d="m 13.141608,294.02044 c -0.278841,-0.15251 -0.310112,-0.46306 -0.06723,-0.66746 0.187518,-0.15779 0.356863,-0.14063 0.530544,0.0537 0.186485,0.20869 0.133045,0.47747 -0.121933,0.61328 -0.13412,0.0714 -0.211417,0.0715 -0.3414,4.3e-4 z"
       id="path10063"
       inkscape:connector-curvature="0" />
  </g>
</svg>
