<?xml version="1.0" encoding="UTF-8" standalone="no"?>
<!-- Created with Inkscape (http://www.inkscape.org/) -->

<svg
   xmlns:dc="http://purl.org/dc/elements/1.1/"
   xmlns:cc="http://creativecommons.org/ns#"
   xmlns:rdf="http://www.w3.org/1999/02/22-rdf-syntax-ns#"
   xmlns:svg="http://www.w3.org/2000/svg"
   xmlns="http://www.w3.org/2000/svg"
   xmlns:sodipodi="http://sodipodi.sourceforge.net/DTD/sodipodi-0.dtd"
   xmlns:inkscape="http://www.inkscape.org/namespaces/inkscape"
   width="64"
   height="64"
   viewBox="0 0 16.933333 16.933334"
   version="1.1"
   id="svg8"
   inkscape:version="0.92.5 (2060ec1f9f, 2020-04-08)"
   sodipodi:docname="vomiting_64x64.svg">
  <defs
     id="defs2" />
  <sodipodi:namedview
     id="base"
     pagecolor="#ffffff"
     bordercolor="#666666"
     borderopacity="1.0"
     inkscape:pageopacity="0.0"
     inkscape:pageshadow="2"
     inkscape:zoom="3.959798"
     inkscape:cx="59.843092"
     inkscape:cy="31.861254"
     inkscape:document-units="mm"
     inkscape:current-layer="layer1"
     showgrid="false"
     units="px"
     inkscape:window-width="1208"
     inkscape:window-height="987"
     inkscape:window-x="1992"
     inkscape:window-y="0"
     inkscape:window-maximized="1"
     showguides="false" />
  <metadata
     id="metadata5">
    <rdf:RDF>
      <cc:Work
         rdf:about="">
        <dc:format>image/svg+xml</dc:format>
        <dc:type
           rdf:resource="http://purl.org/dc/dcmitype/StillImage" />
        <dc:title></dc:title>
      </cc:Work>
    </rdf:RDF>
  </metadata>
  <g
     inkscape:label="Layer 1"
     inkscape:groupmode="layer"
     id="layer1"
     transform="translate(0,-280.06665)">
    <path
       style="fill:#000000;stroke-width:0.03002212"
       d="m 3.6127239,296.33962 -0.07369,-0.0737 v -1.32352 c 0,-0.72793 0.01399,-1.45471 0.0311,-1.61505 0.105964,-0.99341 0.525077,-1.89633 1.211841,-2.61075 0.460356,-0.4789 0.91385,-0.79262 1.509281,-1.04412 l 0.275393,-0.11631 -0.218508,-0.21162 c -0.359362,-0.34802 -0.641677,-0.78536 -0.780617,-1.20927 l -0.05147,-0.15705 -0.21688,0.0183 c -0.532742,0.045 -1.001461,-0.26447 -1.159553,-0.76568 -0.121407,-0.38491 -0.05587,-0.70538 0.216853,-1.06042 l 0.08479,-0.11039 -0.148109,-0.2799 c -0.369889,-0.69904 -0.602051,-1.59996 -0.603455,-2.34175 -5.34e-4,-0.28108 0.0021,-0.29264 0.08154,-0.35511 0.06084,-0.0479 0.105517,-0.0597 0.172627,-0.0458 0.20638,0.0427 0.579112,0.0519 0.740594,0.0183 0.222809,-0.0464 0.476629,-0.20417 0.787472,-0.48943 0.31398,-0.28814 0.368532,-0.31582 0.494305,-0.25078 0.09895,0.0512 0.143047,0.15241 0.110729,0.25424 -0.02658,0.0837 -0.489903,0.51244 -0.732798,0.67803 -0.298096,0.20322 -0.494857,0.2626 -0.885392,0.26717 l -0.326184,0.004 0.01917,0.23285 c 0.04603,0.55894 0.215889,1.14546 0.500647,1.72868 0.149383,0.30595 0.189683,0.36649 0.231743,0.34811 0.028,-0.0122 0.152238,-0.0262 0.276079,-0.031 l 0.225166,-0.009 0.01974,-0.15584 c 0.02244,-0.1771 0.138969,-0.36568 0.288055,-0.46615 0.05248,-0.0354 0.247869,-0.10177 0.434205,-0.14758 1.207411,-0.29684 2.17812,-0.82535 3.011675,-1.63972 0.231646,-0.22632 0.344105,-0.27765 0.508691,-0.23221 0.115179,0.0318 0.133989,0.0531 0.4995821,0.56681 0.329649,0.46315 0.552778,0.73522 0.906576,1.10541 0.32447,0.3395 0.427973,0.51771 0.464152,0.79919 l 0.02186,0.17005 0.225166,0.007 c 0.152298,0.005 0.27113,0.0282 0.367199,0.0716 0.07812,0.0352 0.147552,0.0548 0.154298,0.0435 0.03387,-0.0568 0.180445,-0.5634 0.231802,-0.80115 0.0321,-0.14861 0.06684,-0.45318 0.07719,-0.67682 0.05336,-1.15245 -0.381046,-2.06924 -1.14652,-2.41969 -0.149863,-0.0686 -0.231632,-0.0841 -0.502122,-0.0953 -0.371193,-0.0153 -0.602245,0.0214 -0.912753,0.14499 -0.1181321,0.047 -0.2415281,0.0785 -0.2742131,0.0699 -0.03269,-0.009 -0.121876,-0.0879 -0.198202,-0.17628 -0.245641,-0.28453 -0.629388,-0.42566 -1.234214,-0.45393 -0.584932,-0.0273 -1.008689,0.10422 -1.500464,0.4658 -0.128233,0.0943 -0.2405,0.15405 -0.289389,0.15405 -0.12167,0 -0.216626,-0.0927 -0.216626,-0.21141 0,-0.0823 0.0257,-0.12329 0.140649,-0.22445 0.178904,-0.15742 0.545568,-0.37369 0.810846,-0.47824 0.335702,-0.13232 0.639932,-0.17683 1.069995,-0.15654 0.62185,0.0293 1.09232,0.17911 1.392472,0.44332 l 0.142396,0.12534 0.2458131,-0.0691 c 0.334501,-0.094 0.889412,-0.11598 1.196627,-0.0475 0.573349,0.12789 1.044257,0.51897 1.359224,1.1288 0.4687,0.90749 0.500381,1.98451 0.09494,3.22758 l -0.127338,0.39042 0.0882,0.18958 c 0.121588,0.26135 0.138807,0.50479 0.05484,0.77529 -0.159856,0.51496 -0.623858,0.82624 -1.163595,0.78062 l -0.21688,-0.0183 -0.05147,0.15705 c -0.139247,0.42485 -0.421252,0.86126 -0.782739,1.21132 l -0.22063,0.21365 0.142416,0.0534 c 0.64943,0.24343 1.508422,0.83608 1.508422,1.04072 0,0.12084 -0.0948,0.21691 -0.213792,0.21666 -0.07987,-2.2e-4 -0.152511,-0.0415 -0.341617,-0.19444 -0.132098,-0.10682 -0.323881,-0.24506 -0.426186,-0.30719 -0.462736,-0.28104 -1.1260571,-0.52418 -1.2615721,-0.46244 l -0.06854,0.0312 v 1.00494 c 0,0.70892 -0.01089,1.04129 -0.03696,1.12831 -0.02137,0.0713 -0.0942,0.18249 -0.172627,0.26349 -0.201678,0.2083 -0.464979,0.27317 -0.758626,0.18691 -0.04749,-0.014 -0.0526,0.0129 -0.0532,0.27931 -7.53e-4,0.33659 -0.04689,0.47305 -0.213335,0.63096 -0.137932,0.13087 -0.30938,0.19782 -0.506537,0.19782 -0.290602,0 -0.527333,-0.15044 -0.649472,-0.41273 l -0.07047,-0.15134 -2.95e-4,-1.56383 -2.95e-4,-1.56384 -0.06854,-0.0312 c -0.09207,-0.0419 -0.465347,0.0661 -0.85082,0.2462 -0.962728,0.44988 -1.721225,1.27705 -2.073452,2.26116 -0.183312,0.51217 -0.222621,0.75689 -0.240893,1.49967 l -0.01643,0.66799 h 0.859502 0.859503 v -0.56374 c 0,-0.61144 0.01396,-0.67158 0.16468,-0.70941 0.08744,-0.0219 0.238877,0.0453 0.267002,0.11864 0.01027,0.0267 0.01866,0.60816 0.01866,1.29207 v 1.24346 h 0.552084 c 0.49468,0 0.559296,0.006 0.621458,0.0562 0.0964,0.0781 0.0964,0.25993 0,0.33798 -0.06604,0.0535 -0.155061,0.0562 -1.85373,0.0562 h -1.784355 z m 2.087902,-0.84198 v -0.46534 h -0.855631 -0.85563 v 0.46534 0.46534 h 0.85563 0.855631 z m 2.426076,-2.36442 c 0.105619,-0.0876 0.125805,-0.21867 0.125805,-0.81696 0,-0.54637 0.0041,-0.59049 0.06004,-0.64644 0.07589,-0.0759 0.222762,-0.0775 0.297046,-0.003 0.03128,0.0313 0.06599,0.11087 0.07714,0.17686 0.02778,0.16446 0.134981,0.26028 0.291178,0.26028 0.09575,0 0.13685,-0.0178 0.193452,-0.0836 l 0.07187,-0.0836 v -1.49943 -1.49943 h -0.780576 -0.780575 v 2.02846 c 0,1.32807 0.01063,2.04833 0.03078,2.08598 0.07183,0.13422 0.296592,0.1782 0.413839,0.081 z m 0.185849,-2.12389 c -0.05678,-0.0568 -0.06004,-0.10007 -0.06004,-0.79558 0,-0.69552 0.0033,-0.73881 0.06004,-0.79559 0.03336,-0.0334 0.100073,-0.06 0.15011,-0.06 0.05004,0 0.116753,0.0267 0.150111,0.06 0.05678,0.0568 0.06004,0.10007 0.06004,0.79559 0,0.69551 -0.0033,0.73881 -0.06004,0.79558 -0.03336,0.0334 -0.100074,0.06 -0.150111,0.06 -0.05004,0 -0.116752,-0.0267 -0.15011,-0.06 z m -1.075822,-2.09575 0.01004,-0.50459 0.113059,-0.2286 c 0.130506,-0.26388 0.322004,-0.45473 0.58669,-0.58471 0.157018,-0.0771 0.198922,-0.0839 0.516147,-0.0839 0.317225,0 0.359128,0.007 0.516146,0.0839 0.264686,0.12998 0.456184,0.32083 0.58669,0.58471 l 0.11306,0.2286 0.01004,0.50459 c 0.0055,0.27752 0.02087,0.50458 0.03411,0.50458 0.05799,0 0.4001981,-0.25655 0.5809551,-0.43554 0.366575,-0.36298 0.617429,-0.82845 0.723249,-1.342 0.06883,-0.33407 0.06972,-1.97519 0.0012,-2.13928 -0.02559,-0.0613 -0.196408,-0.26892 -0.379597,-0.46151 -0.280909,-0.29531 -0.8678271,-1.03441 -1.0603881,-1.33533 l -0.05408,-0.0845 -0.182907,0.17776 c -0.785425,0.76329 -1.967846,1.39175 -3.118633,1.65757 -0.213551,0.0493 -0.305785,0.085 -0.337749,0.13063 -0.06249,0.0892 -0.06364,1.71267 -0.0014,2.03773 0.09591,0.50126 0.353219,0.98156 0.72506,1.3534 0.176179,0.17618 0.529394,0.44108 0.588131,0.44108 0.01113,0 0.02475,-0.22706 0.03027,-0.50458 z m -0.590757,-2.04769 c -0.08195,-0.0906 -0.06935,-0.22577 0.03079,-0.33029 l 0.08548,-0.0892 -0.06172,-0.0677 c -0.144144,-0.15824 -0.15524,-0.31033 -0.02909,-0.39869 0.09673,-0.0677 0.206634,-0.0533 0.321156,0.0423 l 0.103833,0.0867 0.09873,-0.0867 c 0.120828,-0.10609 0.22585,-0.11031 0.323168,-0.013 0.09741,0.0974 0.09308,0.20236 -0.01334,0.32357 l -0.08703,0.0991 0.07181,0.0835 c 0.105689,0.12287 0.121382,0.22076 0.05065,0.31592 -0.08559,0.11512 -0.240557,0.12312 -0.364537,0.0188 l -0.09423,-0.0793 -0.09237,0.0777 c -0.113928,0.0959 -0.265295,0.10349 -0.343302,0.0173 z m 2.749554,-0.0187 c -0.03422,-0.0435 -0.06222,-0.0982 -0.06222,-0.12158 0,-0.0586 0.07632,-0.20086 0.133052,-0.24795 0.04175,-0.0346 0.03699,-0.0503 -0.04305,-0.14146 -0.109251,-0.12443 -0.114456,-0.2288 -0.01631,-0.32695 0.09732,-0.0973 0.20234,-0.0931 0.323168,0.013 l 0.09873,0.0867 0.103833,-0.0867 c 0.1145221,-0.0956 0.2244301,-0.1101 0.3211561,-0.0423 0.126154,0.0884 0.115058,0.24045 -0.02909,0.39869 l -0.06172,0.0677 0.08548,0.0892 c 0.233373,0.24359 -0.05352,0.53093 -0.3125091,0.313 l -0.09237,-0.0777 -0.09237,0.0777 c -0.125492,0.10559 -0.272083,0.10503 -0.355783,-0.001 z m -0.182311,1.63112 c 0,-0.0857 -0.187026,-0.3268 -0.317782,-0.40973 -0.280029,-0.17758 -0.585514,-0.17758 -0.865543,0 -0.130756,0.0829 -0.317782,0.32407 -0.317782,0.40973 0,0.0312 0.153485,0.0392 0.750553,0.0392 0.597069,0 0.750554,-0.008 0.750554,-0.0392 z m -3.860299,-0.93977 c 0.0412,-0.0158 0.04749,-0.10089 0.04749,-0.64198 0,-0.62147 -2.39e-4,-0.62382 -0.06755,-0.64185 -0.206998,-0.0555 -0.447255,0.0195 -0.614951,0.19188 -0.304115,0.31263 -0.220286,0.82317 0.168511,1.02628 0.155687,0.0813 0.353217,0.10914 0.466501,0.0657 z m 6.6859921,-0.0657 c 0.388797,-0.20311 0.472626,-0.71365 0.168511,-1.02628 -0.167697,-0.17239 -0.407953,-0.24736 -0.614951,-0.19188 -0.06731,0.018 -0.06755,0.0204 -0.06755,0.64256 0,0.47148 0.0092,0.62817 0.03753,0.63961 0.109969,0.0444 0.324052,0.0156 0.476462,-0.064 z m -4.0975851,8.87819 c -0.05737,-0.0451 -0.0791,-0.0899 -0.0791,-0.16294 0,-0.073 0.02173,-0.11781 0.0791,-0.16294 0.07742,-0.0609 0.10849,-0.0622 1.456073,-0.0622 h 1.3769691 v -1.24346 c 0,-0.6839 0.0084,-1.26533 0.01865,-1.29206 0.02813,-0.0733 0.179566,-0.14059 0.267003,-0.11864 0.150719,0.0378 0.16468,0.098 0.16468,0.70941 v 0.56374 h 0.859502 0.859503 l -0.01636,-0.668 c -0.0171,-0.69809 -0.05644,-0.9742 -0.199976,-1.40353 -0.08519,-0.25482 -0.295354,-0.68697 -0.449445,-0.92419 -0.16325,-0.25133 -0.162215,-0.3592 0.0043,-0.44529 0.133197,-0.0689 0.228852,-0.0148 0.379695,0.21462 0.18574,0.28251 0.439631,0.82963 0.528943,1.13985 0.167345,0.58125 0.172284,0.64096 0.186765,2.25812 l 0.0135,1.50758 -0.07609,0.0761 -0.07609,0.0761 h -2.60924 c -2.5942391,0 -2.6096961,-3.4e-4 -2.6883451,-0.0622 z m 4.9946351,-0.85345 v -0.46534 h -0.855631 -0.85563 v 0.46534 0.46534 h 0.85563 0.855631 z m -4.2793801,-0.41469 c -0.285574,-0.13604 -0.41454,-0.36321 -0.398382,-0.70174 0.0087,-0.18198 0.02446,-0.23592 0.100714,-0.34442 0.149985,-0.2134 0.310961,-0.30663 0.553069,-0.32031 0.172808,-0.01 0.233567,6.8e-4 0.371901,0.064 0.277036,0.12683 0.427023,0.39138 0.403814,0.71225 -0.0266,0.36774 -0.304983,0.63453 -0.681051,0.65269 -0.160974,0.008 -0.227477,-0.004 -0.350065,-0.0625 z m 0.50751,-0.46005 c 0.177438,-0.17743 0.05988,-0.46124 -0.19105,-0.46124 -0.168999,0 -0.2702,0.1012 -0.2702,0.2702 0,0.25093 0.283811,0.36848 0.46125,0.19104 z"
       id="path7817"
       inkscape:connector-curvature="0" />
    <path
       style="fill:#ffffff;stroke-width:0.0008105;stroke-miterlimit:4;stroke-dasharray:none"
       d="m 7.3939039,296.11723 c -0.04397,-0.14674 -0.0829,-0.15618 -0.690673,-0.1674 l -0.527269,-0.01 -0.01439,-1.25595 c -0.01431,-1.2491 -0.01464,-1.25622 -0.06086,-1.30542 -0.0961,-0.10229 -0.307258,-0.10241 -0.365709,-2.1e-4 -0.0194,0.0339 -0.02901,0.20959 -0.03398,0.62095 l -0.0069,0.57364 -0.850858,2e-5 -0.850858,2e-5 0.01443,-0.56393 c 0.01663,-0.65012 0.05502,-0.99069 0.146299,-1.29794 0.261242,-0.87938 0.764369,-1.60884 1.464188,-2.12288 0.276402,-0.20302 0.374182,-0.2618 0.680356,-0.409 0.412959,-0.19855 0.759972,-0.30098 0.873461,-0.25783 l 0.04865,0.0185 v 1.56658 1.56658 l 0.06496,0.12869 c 0.08468,0.16775 0.195741,0.28858 0.330398,0.35946 0.09755,0.0513 0.131466,0.0572 0.333749,0.0573 0.190532,1.2e-4 0.240258,-0.007 0.323286,-0.0482 0.150736,-0.0743 0.268636,-0.1873 0.333318,-0.3195 0.05219,-0.10667 0.06014,-0.15207 0.071,-0.40516 0.0067,-0.15676 0.01826,-0.29103 0.02563,-0.29838 0.0074,-0.007 0.0701,-0.004 0.139388,0.007 0.310859,0.0497 0.605845,-0.0949 0.774299,-0.37965 0.07311,-0.12356 0.08917,-0.37826 0.09051,-1.43519 l 10e-4,-0.79933 0.055,-0.0209 c 0.1178,-0.0448 0.5769321,0.10258 1.0053101,0.32267 0.23236,0.11938 0.376944,0.21411 0.691454,0.45301 0.202816,0.15406 0.346827,0.2214 0.387181,0.18105 0.0077,-0.008 0.0889,0.0606 0.180507,0.15163 0.128743,0.12798 0.161228,0.172 0.143086,0.19385 -0.04576,0.0552 -0.0016,0.19839 0.129298,0.4198 0.25056,0.42366 0.441877,0.88112 0.526659,1.25929 0.05296,0.23624 0.07657,0.52387 0.09107,1.10975 l 0.01394,0.56291 h -0.848897 -0.848898 l -0.0069,-0.56675 c -0.0065,-0.53363 -0.0095,-0.57022 -0.05128,-0.62609 -0.07641,-0.10227 -0.240874,-0.10732 -0.344689,-0.0106 -0.04009,0.0374 -0.04476,0.0759 -0.05776,0.4773 -0.0078,0.24016 -0.01417,0.80959 -0.0142,1.26541 l -6.3e-5,0.82875 -1.3563571,0.008 c -1.234768,0.008 -1.362547,0.0116 -1.425415,0.0453 -0.07545,0.0405 -0.113211,0.0952 -0.113211,0.16389 0,0.0419 -0.01194,0.0443 -0.221771,0.0443 h -0.221772 z m 1.888301,-1.0235 c 0.252827,-0.11353 0.410631,-0.36234 0.411797,-0.64929 8.83e-4,-0.21773 -0.04948,-0.3574 -0.180592,-0.50086 -0.149724,-0.16382 -0.316763,-0.23555 -0.541728,-0.23263 -0.242578,0.003 -0.364242,0.0499 -0.508802,0.19545 -0.156272,0.15737 -0.197801,0.24957 -0.209427,0.46495 -0.01052,0.19494 0.02666,0.3604 0.108175,0.48136 0.06153,0.0913 0.222526,0.21448 0.342912,0.26235 0.129958,0.0517 0.440608,0.0402 0.577665,-0.0213 z"
       id="path7821"
       inkscape:connector-curvature="0" />
    <path
       style="fill:#ffffff;stroke-width:0.0008105;stroke-miterlimit:4;stroke-dasharray:none"
       d="m 4.0031219,295.49522 v -0.45034 h 0.847053 0.847052 v 0.45034 0.45033 h -0.847052 -0.847053 z"
       id="path7823"
       inkscape:connector-curvature="0" />
    <path
       style="fill:#ffffff;stroke-width:0.0008105;stroke-miterlimit:4;stroke-dasharray:none"
       d="m 8.8537979,294.6659 c -0.08841,-0.0436 -0.132914,-0.12717 -0.132914,-0.24967 0,-0.24205 0.298242,-0.33292 0.460352,-0.14027 0.102677,0.12203 0.05172,0.31712 -0.101868,0.39 -0.09351,0.0444 -0.135429,0.0444 -0.22557,-6e-5 z"
       id="path7825"
       inkscape:connector-curvature="0" />
    <path
       style="fill:#ffffff;stroke-width:0.0008105;stroke-miterlimit:4;stroke-dasharray:none"
       d="m 11.229876,295.49522 v -0.45034 h 0.847053 0.847053 v 0.45034 0.45033 h -0.847053 -0.847053 z"
       id="path7827"
       inkscape:connector-curvature="0" />
    <path
       style="fill:#ffffff;stroke-width:0.0008105;stroke-miterlimit:4;stroke-dasharray:none"
       d="m 7.8523869,293.14915 c -0.03538,-0.0156 -0.08363,-0.05 -0.107222,-0.0765 -0.04214,-0.0472 -0.04302,-0.0837 -0.05018,-2.08304 l -0.0073,-2.03497 h 0.773924 0.773925 v 1.48886 1.48886 l -0.07223,0.0766 c -0.06446,0.0684 -0.08398,0.0766 -0.181531,0.0766 -0.150579,0 -0.23973,-0.0778 -0.287955,-0.25124 -0.01969,-0.0708 -0.0577,-0.14647 -0.08784,-0.17477 -0.09546,-0.0897 -0.281322,-0.0595 -0.333077,0.0541 -0.01464,0.0321 -0.02411,0.2067 -0.02458,0.45334 -9.29e-4,0.48695 -0.02585,0.78989 -0.07237,0.87986 -0.06104,0.11803 -0.19325,0.15983 -0.323584,0.1023 z m 0.731346,-2.11223 c 0.04402,-0.0268 0.07126,-0.0641 0.08042,-0.10982 0.02351,-0.11754 0.016,-1.38084 -0.0086,-1.45148 -0.05631,-0.16153 -0.327637,-0.16153 -0.383947,0 -0.0341,0.0978 -0.02959,1.4259 0.0051,1.49441 0.05376,0.10625 0.192853,0.13654 0.307081,0.0669 z"
       id="path7829"
       inkscape:connector-curvature="0" />
    <path
       style="fill:#ffffff;stroke-width:0.0008105;stroke-miterlimit:4;stroke-dasharray:none"
       d="m 7.7500889,288.4899 c -0.03463,-0.009 -0.0329,-0.0196 0.01977,-0.11639 0.07567,-0.13903 0.236064,-0.28694 0.388792,-0.35852 0.10293,-0.0482 0.151963,-0.0575 0.305349,-0.0575 0.163168,0 0.198024,0.008 0.325629,0.0703 0.09286,0.0457 0.178177,0.10954 0.243633,0.18227 0.109183,0.12132 0.176769,0.24108 0.150757,0.26713 -0.01767,0.0177 -1.371366,0.0296 -1.433933,0.0126 z"
       id="path7831"
       inkscape:connector-curvature="0" />
    <path
       style="fill:#ffffff;stroke-width:0.0008105;stroke-miterlimit:4;stroke-dasharray:none"
       d="m 7.0691159,289.32823 c -0.571769,-0.39009 -0.964335,-0.92807 -1.125391,-1.54227 -0.05006,-0.19092 -0.05806,-0.27326 -0.0729,-0.75055 -0.01659,-0.53341 2.37e-4,-1.36135 0.02905,-1.42975 0.01999,-0.0474 0.128503,-0.089 0.434356,-0.16638 1.137887,-0.28783 2.233931,-0.87978 3.011623,-1.62654 l 0.185358,-0.17798 0.04889,0.0791 c 0.148165,0.23973 0.6939651,0.92612 1.0468491,1.31649 0.361154,0.39952 0.38888,0.44223 0.413688,0.63718 0.01243,0.0976 0.01734,0.52317 0.01185,1.02476 -0.0092,0.83545 -0.01082,0.86312 -0.06392,1.06308 -0.172764,0.65057 -0.561043,1.19408 -1.1194191,1.56695 l -0.128582,0.0859 -0.01375,-0.0514 c -0.0076,-0.0283 -0.02082,-0.25819 -0.02947,-0.51089 l -0.01571,-0.45946 -0.09847,-0.193 c -0.134497,-0.26362 -0.352891,-0.48511 -0.594222,-0.60266 l -0.171555,-0.0836 h -0.354912 -0.354913 l -0.170475,0.0838 c -0.241424,0.11872 -0.459269,0.34026 -0.59481,0.60491 l -0.100138,0.19552 -0.01461,0.45853 c -0.008,0.25219 -0.02055,0.48099 -0.02781,0.50844 l -0.01321,0.0499 z m -0.07352,-2.4735 0.09203,-0.0661 0.06309,0.0531 c 0.139963,0.11777 0.284312,0.12121 0.378708,0.009 0.08059,-0.0958 0.07446,-0.20173 -0.01872,-0.32378 l -0.07363,-0.0964 0.06256,-0.0759 c 0.127026,-0.1541 0.12883,-0.25178 0.0066,-0.35907 -0.105924,-0.093 -0.230857,-0.078 -0.33811,0.0405 -0.02244,0.0248 -0.04798,0.0451 -0.05677,0.0451 -0.0088,0 -0.06616,-0.0338 -0.127497,-0.0751 -0.128248,-0.0863 -0.213409,-0.0951 -0.315729,-0.0327 -0.12265,0.0748 -0.120461,0.22647 0.0056,0.38497 l 0.07544,0.0949 -0.06359,0.0659 c -0.128568,0.13333 -0.134999,0.26892 -0.01745,0.36783 0.08617,0.0725 0.196787,0.0616 0.327486,-0.0322 z m 2.659701,0.0621 c 0.03189,-0.0121 0.08638,-0.0459 0.121082,-0.0751 l 0.06309,-0.0531 0.09716,0.0698 c 0.1239291,0.089 0.2536961,0.0963 0.3361241,0.0188 0.104489,-0.0982 0.09177,-0.23059 -0.03475,-0.36176 l -0.06713,-0.0696 0.05527,-0.0591 c 0.06851,-0.0732 0.124501,-0.18177 0.124501,-0.24135 0,-0.0709 -0.05589,-0.16082 -0.117345,-0.18883 -0.09421,-0.0429 -0.172734,-0.0295 -0.2900981,0.0494 -0.06134,0.0413 -0.118717,0.0751 -0.127498,0.0751 -0.0088,0 -0.03433,-0.0203 -0.05677,-0.0451 -0.09414,-0.10403 -0.207969,-0.1291 -0.310663,-0.0684 -0.139156,0.0822 -0.150824,0.22187 -0.0316,0.37818 0.03011,0.0395 0.05475,0.0782 0.05475,0.086 0,0.008 -0.02831,0.0533 -0.0629,0.10107 -0.09155,0.12639 -0.102002,0.1995 -0.0412,0.28824 0.0765,0.11164 0.166996,0.14172 0.287962,0.0957 z"
       id="path7833"
       inkscape:connector-curvature="0" />
    <path
       style="fill:#ffffff;stroke-width:0.0008105;stroke-miterlimit:4;stroke-dasharray:none"
       d="m 11.557279,287.50456 c -0.0091,-0.0222 -0.01646,-0.30357 -0.01646,-0.62538 0,-0.49623 0.0049,-0.58839 0.03217,-0.60668 0.05799,-0.0389 0.323051,-0.0134 0.428888,0.0412 0.49279,0.25427 0.49882,0.90434 0.01072,1.15594 -0.145825,0.0752 -0.429952,0.0969 -0.455317,0.0349 z"
       id="path7835"
       inkscape:connector-curvature="0" />
    <path
       style="fill:#ffffff;stroke-width:0.0008105;stroke-miterlimit:4;stroke-dasharray:none"
       d="m 12.110661,285.85335 c -0.09723,-0.0376 -0.19975,-0.057 -0.348103,-0.0661 l -0.21028,-0.0128 -0.01194,-0.0772 c -0.03133,-0.20258 -0.08141,-0.36517 -0.144632,-0.4696 -0.06844,-0.11305 -0.143916,-0.20258 -0.603901,-0.71637 -0.207441,-0.23171 -0.424675,-0.51261 -0.8582021,-1.10972 -0.149562,-0.206 -0.20964,-0.25394 -0.340784,-0.27191 -0.140307,-0.0192 -0.242671,0.039 -0.519088,0.29531 -0.647892,0.60076 -1.265194,0.99321 -2.047044,1.30142 -0.185761,0.0732 -0.654184,0.22161 -0.857684,0.27169 -0.324093,0.0798 -0.475728,0.14231 -0.567525,0.2341 -0.109582,0.10958 -0.177076,0.24542 -0.207355,0.41732 l -0.02314,0.13139 -0.121014,0.002 c -0.06656,0.001 -0.178913,0.009 -0.24968,0.0185 -0.08601,0.0111 -0.138795,0.009 -0.159216,-0.007 -0.05179,-0.0404 -0.336902,-0.65287 -0.430391,-0.92451 -0.145977,-0.42416 -0.257446,-0.96644 -0.257446,-1.25245 v -0.0815 l 0.305583,-0.0125 c 0.170967,-0.007 0.361391,-0.0276 0.432271,-0.0466 0.279174,-0.0752 0.568176,-0.27079 0.95518,-0.64635 0.224359,-0.21773 0.245538,-0.245 0.245538,-0.31623 0,-0.0446 -0.01842,-0.10263 -0.0431,-0.13569 l -0.0431,-0.0577 0.140673,-0.12053 c 0.186431,-0.15974 0.18123,-0.1576 0.26269,-0.10794 0.03904,0.0238 0.08826,0.0433 0.109365,0.0434 0.05449,1.2e-4 0.191022,-0.0731 0.388148,-0.20808 0.229294,-0.15703 0.466281,-0.27343 0.693256,-0.3405 0.339048,-0.10018 0.946913,-0.0937 1.336389,0.0142 0.245212,0.0679 0.397329,0.15754 0.602269,0.35469 0.141711,0.13633 0.201074,0.17976 0.24571,0.17976 0.03237,0 0.178599,-0.039 0.3249511,-0.0866 0.328454,-0.10686 0.542946,-0.13625 0.862109,-0.11813 0.394145,0.0224 0.618695,0.12172 0.920577,0.40726 0.344509,0.32586 0.570249,0.79805 0.656679,1.3736 0.0374,0.24907 0.04225,0.75754 0.01008,1.05698 -0.03421,0.31846 -0.247935,1.14423 -0.294941,1.13958 -0.0083,-8.3e-4 -0.0771,-0.0255 -0.152899,-0.0547 z"
       id="path7837"
       inkscape:connector-curvature="0" />
    <path
       style="fill:#ffffff;stroke-width:0.0008105;stroke-miterlimit:4;stroke-dasharray:none"
       d="m 5.0324519,287.51974 c -0.181316,-0.0568 -0.342614,-0.19402 -0.430849,-0.36639 -0.073,-0.1426 -0.07002,-0.37848 0.0066,-0.52538 0.117555,-0.22528 0.321078,-0.35931 0.564573,-0.37178 0.217867,-0.0112 0.212143,-0.0244 0.219852,0.50908 0.0035,0.24293 -0.0013,0.51407 -0.01072,0.60253 l -0.01711,0.16083 -0.139388,0.004 c -0.07666,0.002 -0.163513,-0.004 -0.192999,-0.0129 z"
       id="path7839"
       inkscape:connector-curvature="0" />
  </g>
</svg>
