<?xml version="1.0" encoding="UTF-8" standalone="no"?>
<!-- Created with Inkscape (http://www.inkscape.org/) -->

<svg
   xmlns:dc="http://purl.org/dc/elements/1.1/"
   xmlns:cc="http://creativecommons.org/ns#"
   xmlns:rdf="http://www.w3.org/1999/02/22-rdf-syntax-ns#"
   xmlns:svg="http://www.w3.org/2000/svg"
   xmlns="http://www.w3.org/2000/svg"
   xmlns:sodipodi="http://sodipodi.sourceforge.net/DTD/sodipodi-0.dtd"
   xmlns:inkscape="http://www.inkscape.org/namespaces/inkscape"
   width="64"
   height="64"
   viewBox="0 0 16.933333 16.933334"
   version="1.1"
   id="svg8"
   inkscape:version="0.92.5 (2060ec1f9f, 2020-04-08)"
   sodipodi:docname="wake_up_64x64.svg">
  <defs
     id="defs2" />
  <sodipodi:namedview
     id="base"
     pagecolor="#ffffff"
     bordercolor="#666666"
     borderopacity="1.0"
     inkscape:pageopacity="0.0"
     inkscape:pageshadow="2"
     inkscape:zoom="3.959798"
     inkscape:cx="101.82133"
     inkscape:cy="47.113351"
     inkscape:document-units="mm"
     inkscape:current-layer="layer1"
     showgrid="false"
     units="px"
     inkscape:window-width="1208"
     inkscape:window-height="987"
     inkscape:window-x="1992"
     inkscape:window-y="0"
     inkscape:window-maximized="1" />
  <metadata
     id="metadata5">
    <rdf:RDF>
      <cc:Work
         rdf:about="">
        <dc:format>image/svg+xml</dc:format>
        <dc:type
           rdf:resource="http://purl.org/dc/dcmitype/StillImage" />
        <dc:title></dc:title>
      </cc:Work>
    </rdf:RDF>
  </metadata>
  <g
     inkscape:label="Layer 1"
     inkscape:groupmode="layer"
     id="layer1"
     transform="translate(0,-280.06665)">
    <path
       style="fill:#000000;stroke-width:0.0672275"
       d="m 1.047238,291.09586 v -5.17653 h 0.773117 0.773117 v 1.04204 1.04202 l 0.5882339,0.002 c 1.1363685,0.004 1.7451349,0.38688 2.0974912,1.31844 0.1107501,0.29253 0.146918,0.32849 0.3495256,0.34631 0.2075724,0.0179 0.236956,-0.004 0.3601066,-0.2689 0.089858,-0.19364 0.2170074,-0.33308 0.3860081,-0.42325 l 0.2519173,-0.13434 2.022e-4,-1.10977 1.796e-4,-1.10975 -1.6809537,-1.67994 c -1.1258776,-1.12521 -1.7047887,-1.75223 -1.7531998,-1.89891 -0.1031121,-0.31216 -0.020218,-0.58495 0.2478962,-0.82074 0.2622959,-0.23029 0.5831344,-0.26942 0.8870347,-0.10828 0.099743,0.0531 0.7409028,0.65803 1.424566,1.34457 l 1.2430301,1.24822 h 1.6088877 1.6089113 l 1.355037,-1.34455 c 1.274188,-1.26433 1.369977,-1.34455 1.605248,-1.34455 0.653674,0 1.051476,0.63285 0.75218,1.19663 -0.05302,0.0997 -0.824448,0.90736 -1.714291,1.79449 l -1.61794,1.61292 v 1.12869 c 0,1.01431 0.01123,1.13291 0.117713,1.17022 0.192072,0.0678 0.425681,0.30912 0.522234,0.53958 l 0.09031,0.21566 1.937455,0.0202 1.937453,0.0202 0.28339,0.1923 c 0.182187,0.12355 0.344225,0.31435 0.453784,0.5342 l 0.170506,0.34193 v 2.74315 2.74312 H 15.13158 14.156776 v -1.3459 -1.34587 l -1.428565,0.0179 -1.428587,0.0179 -0.01798,0.82353 -0.01797,0.82355 -0.283659,-7.7e-4 c -0.383897,-7.6e-4 -0.919699,-0.26266 -1.1772997,-0.57516 -0.2089202,-0.25355 -0.4172788,-0.74386 -0.4172788,-0.98237 0,-0.11165 -0.070988,-0.12243 -0.8067239,-0.12243 H 7.7719968 v 0.20376 c 0,0.72508 -0.8274138,1.47686 -1.6254441,1.47686 H 5.8896259 v -0.84035 -0.84033 H 4.4442352 2.9988445 v 1.34454 1.34455 H 2.0240409 1.0492374 Z m 1.4943859,3.37817 0.017972,-1.32773 1.6661496,-0.0179 1.6661498,-0.0179 -0.017972,-0.72152 -0.017972,-0.72153 -1.8319379,-0.0179 -1.8319604,-0.0179 v -2.65441 -2.65439 H 1.8559161 1.5197792 v 4.73952 4.73955 H 2.022558 2.5253592 Z m -0.3515027,-2.10084 v -0.20173 h 0.6386444 0.6386667 v 0.20173 0.20173 H 2.8287656 2.1901212 Z m 1.7478982,0 c 0,-0.18578 0.017972,-0.20173 0.2352935,-0.20173 0.2165581,0 0.235316,0.0157 0.235316,0.20173 0,0.18578 -0.017972,0.20173 -0.235316,0.20173 -0.2165582,0 -0.2352935,-0.0157 -0.2352935,-0.20173 z m 11.6975986,1.34361 v -2.08498 l -2.168098,0.0179 -2.168074,0.0179 v 0.70589 0.70589 l 1.647055,0.0337 1.647077,0.0336 0.01798,1.32775 0.01797,1.32773 h 0.502779 0.502801 z m -3.468592,-1.16791 c -0.09637,-0.25089 -0.0045,-0.34378 0.343415,-0.34378 0.327668,0 0.335239,0.004 0.335239,0.20174 0,0.19297 -0.01348,0.20263 -0.320031,0.22218 -0.235967,0.0157 -0.330161,-0.006 -0.358623,-0.0802 z m 1.329856,-0.12535 0.02022,-0.21858 h 0.806747 0.806724 l 0.02022,0.21858 0.02022,0.21858 H 14.322168 13.4733 Z m -6.8159878,2.27532 c 0.2512659,-0.13075 0.4587483,-0.36638 0.5816743,-0.66061 0.086264,-0.20668 0.104011,-0.60463 0.104011,-2.33832 v -2.08925 l -0.1651144,-0.16511 c -0.2028548,-0.20285 -0.4958372,-0.21476 -0.6962658,-0.0279 -0.1464688,0.13659 -0.1471427,0.14849 -0.1471427,2.75634 0,1.78397 0.022464,2.61924 0.070538,2.61924 0.038864,0 0.1523095,-0.0425 0.2521194,-0.0943 z m 4.1815708,-2.49687 v -2.59131 l -0.165114,-0.16511 c -0.201731,-0.20173 -0.431273,-0.21049 -0.666253,-0.0256 l -0.1770207,0.13928 v 2.19091 2.19093 l 0.1707307,0.29141 c 0.157027,0.26789 0.538362,0.55015 0.753595,0.55777 0.06582,0.002 0.08402,-0.55854 0.08402,-2.58834 z m -1.4935543,0.18803 -0.017972,-0.72271 H 8.5778221 7.8047051 l -0.017972,0.72271 -0.017972,0.72269 H 8.5800454 9.3913296 Z M 5.8876265,290.6589 v -0.57142 H 4.2405493 2.593472 v 0.57142 0.57143 h 1.6470773 1.6470772 z m -2.6890947,0 v -0.23529 h 0.5714303 0.5714305 v 0.23529 0.2353 H 3.7699621 3.1985318 Z m 1.6134479,0 c 0,-0.21656 0.015725,-0.23529 0.2017315,-0.23529 0.1855571,0 0.2017315,0.0179 0.2017315,0.23529 0,0.21657 -0.015725,0.2353 -0.2017315,0.2353 -0.1857817,0 -0.2017315,-0.0179 -0.2017315,-0.2353 z m 4.5714656,-0.002 v -0.57359 l -0.7899206,0.0179 -0.7899204,0.0179 -0.020218,0.46392 c -0.011232,0.25514 -0.00449,0.50472 0.015726,0.55462 0.026508,0.069 0.2215003,0.0907 0.8100486,0.0907 h 0.7752287 v -0.57359 z m 6.2521727,0.30697 c 0,-0.33477 -0.304125,-0.70774 -0.661716,-0.81153 -0.153657,-0.0447 -0.888629,-0.0638 -1.960165,-0.0513 l -1.714291,0.0202 -0.02022,0.46391 c -0.01123,0.25517 -0.0045,0.50475 0.01573,0.55463 0.0283,0.0734 0.443045,0.0907 2.18818,0.0907 h 2.153406 v -0.26657 z m -2.81101,-0.28804 0.02022,-0.21857 0.857158,-0.0179 0.857156,-0.0179 v 0.23729 0.23731 h -0.878228 -0.878206 z m -7.945392,-1.15445 c 0,-0.22375 -0.3872212,-0.71224 -0.7090257,-0.89452 -0.2244207,-0.12714 -0.3676545,-0.15073 -0.9212481,-0.15163 l -0.6554702,-0.001 v 0.56022 c 0,0.30812 0.020218,0.58039 0.044705,0.60504 0.024711,0.0247 0.5389467,0.0449 1.1428832,0.0449 h 1.0980441 z m 4.6352873,-0.14714 c 0.104236,-0.19656 0.2456947,-0.34872 0.386435,-0.41582 l 0.2219507,-0.10581 v -1.19938 -1.1994 l 1.113544,-1.11709 1.113522,-1.1171 -0.254232,-0.26036 -0.254253,-0.26036 -0.709116,0.70693 -0.709138,0.70691 H 8.6054984 6.7877804 l -0.7167085,-0.70464 c -0.4676217,-0.45976 -0.7513489,-0.6914 -0.8163387,-0.66644 -0.054813,0.0202 -0.1745494,0.13658 -0.2662272,0.25664 l -0.1666869,0.21835 1.1042443,1.10275 1.1042442,1.10271 v 1.22315 c 0,1.20996 0.00153,1.22362 0.1511864,1.26922 0.2158841,0.0658 0.3816275,0.22778 0.529534,0.51759 l 0.1287218,0.25212 h 0.7550554 0.7550556 z m -1.0946518,-0.54162 c -0.024711,-0.0247 -0.044929,-0.13051 -0.044929,-0.23529 0,-0.16691 0.02516,-0.1905 0.2017314,-0.1905 0.1857818,0 0.2017316,0.0179 0.2017316,0.23529 0,0.20174 -0.022464,0.23529 -0.1568025,0.23529 -0.086264,0 -0.1770205,-0.0202 -0.2017315,-0.0449 z m -0.044929,-1.09805 c 0,-0.17926 0.022464,-0.20173 0.2017314,-0.20173 0.1792671,0 0.2017316,0.0225 0.2017316,0.20173 0,0.17927 -0.022464,0.20173 -0.2017316,0.20173 -0.1792669,0 -0.2017314,-0.0225 -0.2017314,-0.20173 z m 0,-0.87396 c 0,-0.17926 0.022464,-0.20173 0.2017314,-0.20173 0.1792671,0 0.2017316,0.0225 0.2017316,0.20173 0,0.17928 -0.022464,0.20173 -0.2017316,0.20173 -0.1792669,0 -0.2017314,-0.0225 -0.2017314,-0.20173 z m 0,-0.86632 c 0,-0.16422 0.031001,-0.19859 0.2017314,-0.22374 0.1896007,-0.0279 0.2017316,-0.0157 0.2017316,0.19409 0,0.20376 -0.017972,0.22375 -0.2017316,0.22375 -0.1774698,0 -0.2017314,-0.0234 -0.2017314,-0.1941 z m 4.7800495,-2.5671 c 0.406653,-0.40098 0.481504,-0.54462 0.398138,-0.7639 -0.03617,-0.0948 -0.09412,-0.17252 -0.128947,-0.17252 -0.03482,0 -0.111198,-0.0179 -0.169607,-0.0406 -0.07211,-0.0276 -0.26872,0.11681 -0.611866,0.44963 l -0.505677,0.49033 0.248571,0.25456 c 0.280492,0.28726 0.2483,0.29635 0.769342,-0.21744 z m -8.4303345,0.19341 c 0.1219824,-0.11816 0.221725,-0.24549 0.221725,-0.28292 0,-0.0791 -0.5931087,-0.65733 -0.8401961,-0.81923 -0.1559039,-0.10199 -0.1806148,-0.10199 -0.3362716,-10e-5 -0.2881525,0.18893 -0.2246453,0.41607 0.2501651,0.89515 0.2300143,0.23208 0.4327792,0.42198 0.4505711,0.42198 0.017972,0 0.1320915,-0.0966 0.2540515,-0.21477 z m 3.3477775,0.61413 c -0.5348806,-0.15703 -1.0415232,-0.87559 -1.0399058,-1.47491 0.00177,-0.62738 0.4847622,-1.26432 1.0966961,-1.44604 0.4182223,-0.12423 0.4765852,-0.12423 0.8948074,0 0.6119565,0.18174 1.0949893,0.81866 1.0966963,1.44604 0.0018,0.61733 -0.5018578,1.32142 -1.0548673,1.47498 -0.2988009,0.0829 -0.7106207,0.0829 -0.9934267,-7e-5 z m 1.068593,-0.52198 c 0.5958493,-0.34458 0.7077677,-1.11845 0.2389778,-1.65236 -0.2593082,-0.29532 -0.530253,-0.40173 -0.9130037,-0.3586 -0.9146211,0.10315 -1.3140181,1.27924 -0.6412052,1.88813 0.3427639,0.31021 0.9010749,0.36234 1.3152311,0.12288 z"
       id="path75"
       inkscape:connector-curvature="0" />
    <path
       style="fill:#ffffff;stroke-width:0.00181491;stroke-miterlimit:4;stroke-dasharray:none"
       d="m 1.5594294,291.05819 v -4.72993 h 0.3121223 0.3121447 v 2.6587 2.65868 l 1.8002854,0.0225 c 0.9901693,0.0113 1.8083278,0.0312 1.8180998,0.0425 0.00899,0.0113 0.0319,0.32839 0.049197,0.70473 l 0.031226,0.68428 -1.5733262,6.7e-4 c -0.8653339,4e-4 -1.621962,0.0135 -1.6813806,0.0296 l -0.1080544,0.029 v 1.31494 1.31494 H 2.0395415 1.5593395 Z m 1.9207852,1.32055 v -0.2401 H 2.8319555 2.1836964 v 0.2401 0.24009 h 0.6482591 0.6482591 z m 0.8372308,0.1932 c 0.092105,-0.035 0.1231056,-0.0811 0.1231056,-0.18241 0,-0.17567 -0.0793,-0.25089 -0.2641155,-0.25089 -0.1848832,0 -0.2641156,0.0752 -0.2641156,0.25125 0,0.0961 0.031675,0.14871 0.1080544,0.17948 0.1424252,0.0573 0.1532081,0.0573 0.2970037,0.002 z"
       id="path77"
       inkscape:connector-curvature="0" />
    <path
       style="fill:#ffffff;stroke-width:0.00181491;stroke-miterlimit:4;stroke-dasharray:none"
       d="m 2.6158691,290.67404 v -0.55221 h 1.6326551 1.6326775 v 0.55221 0.55223 H 4.2485242 2.6158691 Z m 1.7287134,0 v -0.26411 H 3.7683447 3.192107 v 0.26411 0.2641 h 0.5762377 0.5762378 z m 0.8150359,0.21611 c 0.059531,0 0.1028871,-0.22552 0.068966,-0.36015 -0.02561,-0.1022 -0.057734,-0.11996 -0.2161088,-0.11996 -0.1583749,0 -0.1904993,0.0179 -0.2161088,0.11996 -0.062676,0.24979 0.064474,0.43454 0.260319,0.37844 0.035044,-0.008 0.081322,-0.0179 0.1028871,-0.0179 z"
       id="path79"
       inkscape:connector-curvature="0" />
    <path
       style="fill:#ffffff;stroke-width:0.00181491;stroke-miterlimit:4;stroke-dasharray:none"
       d="m 2.6450057,289.56566 c -0.015726,-0.0418 -0.029204,-0.30357 -0.029204,-0.5818 v -0.50584 l 0.636263,0.0202 c 0.4898842,0.0157 0.6784065,0.0404 0.8195288,0.10851 0.2319013,0.1121 0.5845721,0.46268 0.7070487,0.70273 0.1770206,0.34692 0.2212757,0.33231 -1.0052429,0.33231 -0.9581349,0 -1.1030537,-0.008 -1.1284611,-0.076 z"
       id="path81"
       inkscape:connector-curvature="0" />
    <path
       style="fill:#ffffff;stroke-width:0.00181491;stroke-miterlimit:4;stroke-dasharray:none"
       d="m 6.4382099,294.73943 c -0.047625,-0.077 -0.090083,-3.4508 -0.054139,-4.30272 0.036393,-0.8593 0.036842,-0.86194 0.1711797,-0.99642 0.1839845,-0.18375 0.3770672,-0.17859 0.5989944,0.0157 l 0.1720783,0.15096 -0.013479,2.16594 c -0.013479,2.11511 -0.015726,2.17043 -0.1181635,2.35801 -0.1680347,0.31086 -0.6832139,0.72532 -0.7557294,0.60799 z"
       id="path83"
       inkscape:connector-curvature="0" />
    <path
       style="fill:#ffffff;stroke-width:0.00181491;stroke-miterlimit:4;stroke-dasharray:none"
       d="M 8.0420878,291.18305 7.825979,291.15425 7.8125,290.63803 7.799021,290.12184 h 0.7699497 0.769927 v 0.55223 0.55221 l -0.5402048,-0.006 c -0.2971383,-0.004 -0.6374761,-0.0202 -0.7563134,-0.036 z"
       id="path85"
       inkscape:connector-curvature="0" />
    <path
       style="fill:#ffffff;stroke-width:0.00181491;stroke-miterlimit:4;stroke-dasharray:none"
       d="m 7.8019869,292.40274 v -0.69627 H 8.5702964 9.338606 v 0.62032 c 0,0.34118 0.013479,0.65449 0.029204,0.69629 0.025834,0.0674 -0.060879,0.076 -0.7683096,0.076 H 7.8020319 Z"
       id="path87"
       inkscape:connector-curvature="0" />
    <path
       style="fill:#ffffff;stroke-width:0.00181491;stroke-miterlimit:4;stroke-dasharray:none"
       d="m 10.636584,294.72337 c -0.203079,-0.0762 -0.428352,-0.27577 -0.602453,-0.53428 l -0.1673613,-0.24844 v -2.18681 -2.18681 l 0.2017313,-0.13073 c 0.260005,-0.16849 0.380415,-0.1649 0.588953,0.0179 l 0.169832,0.14895 -0.0045,2.48003 c -0.0022,1.36403 -0.01797,2.52598 -0.03594,2.58212 -0.02629,0.0859 -0.05009,0.095 -0.149839,0.0577 z"
       id="path89"
       inkscape:connector-curvature="0" />
    <path
       style="fill:#ffffff;stroke-width:0.00181491;stroke-miterlimit:4;stroke-dasharray:none"
       d="m 14.662094,295.65607 c -0.0045,-0.0726 -0.02022,-0.67227 -0.03594,-1.33255 l -0.0292,-1.20048 -1.368562,-0.0294 c -0.752697,-0.0157 -1.492813,-0.0324 -1.644673,-0.036 l -0.276112,-0.006 v -0.66484 -0.66484 l 0.655853,-0.0314 c 0.360735,-0.0179 1.333134,-0.0314 2.160885,-0.0314 h 1.505034 v 2.06485 2.06482 h -0.480202 -0.480201 z m -1.995682,-3.02044 c 0.179942,-0.0296 0.182188,-0.033 0.168036,-0.22756 l -0.01348,-0.19747 -0.250682,-0.0135 c -0.319491,-0.0179 -0.445607,0.0465 -0.445607,0.22986 0,0.21678 0.149839,0.27451 0.542653,0.20959 z m 2.530069,-0.0288 c -2.69e-4,-0.033 -0.01348,-0.14153 -0.03055,-0.2412 l -0.02987,-0.18106 -0.821887,0.0135 -0.821865,0.0135 -0.01573,0.2281 -0.01573,0.22808 h 0.866974 c 0.66185,0 0.866862,-0.0135 0.866457,-0.06 z"
       id="path91"
       inkscape:connector-curvature="0" />
    <path
       style="fill:#ffffff;stroke-width:0.00181491;stroke-miterlimit:4;stroke-dasharray:none"
       d="m 11.83563,291.18085 -0.504195,-0.0265 -0.01348,-0.51886 -0.01348,-0.51887 1.814393,0.0157 1.814394,0.0157 0.223972,0.13164 c 0.274246,0.16129 0.418941,0.3846 0.456928,0.70541 l 0.02875,0.24341 -1.651345,-0.008 c -0.908264,-0.004 -1.87826,-0.0225 -2.155585,-0.036 z m 2.737123,-0.50681 v -0.26411 h -0.830738 c -0.582101,0 -0.847992,0.0179 -0.888361,0.0577 -0.03168,0.0316 -0.05751,0.15052 -0.05751,0.26412 v 0.20645 h 0.88836 0.88836 z"
       id="path93"
       inkscape:connector-curvature="0" />
    <path
       style="fill:#ffffff;stroke-width:0.00181491;stroke-miterlimit:4;stroke-dasharray:none"
       d="m 7.7006719,289.36677 c -0.1455703,-0.24563 -0.2460542,-0.34072 -0.5523356,-0.52219 -0.082221,-0.0487 -0.090307,-0.14534 -0.1058077,-1.24851 l -0.015725,-1.19578 -1.0833073,-1.08756 -1.0833073,-1.08758 0.097496,-0.13703 c 0.05369,-0.0752 0.1433238,-0.17837 0.1992605,-0.22882 0.143773,-0.12986 0.2215003,-0.0784 0.9850699,0.65244 l 0.6434966,0.61595 h 1.8417774 1.8417996 l 0.695659,-0.69894 0.695659,-0.69892 0.22714,0.25475 0.227139,0.25475 -1.103503,1.1048 -1.103481,1.10483 v 1.18357 1.18354 l -0.2125142,0.12468 c -0.1453456,0.0851 -0.2679345,0.21566 -0.387648,0.41272 l -0.1749992,0.28815 H 8.5984445 7.8643484 Z m 1.1017056,-0.6304 c 0.00899,-0.062 0.00225,-0.16467 -0.013479,-0.2281 -0.024486,-0.0975 -0.058407,-0.11525 -0.2201524,-0.11525 -0.1644404,0 -0.1918471,0.0157 -0.1967893,0.10805 -0.015725,0.31546 0.02516,0.38031 0.233384,0.36307 0.147592,-0.0113 0.1833107,-0.0354 0.1965647,-0.12781 z m -0.042458,-0.84456 c 0.03145,-0.038 0.050321,-0.12984 0.041784,-0.20398 -0.013479,-0.12085 -0.036168,-0.13635 -0.213413,-0.14939 -0.1758974,-0.0135 -0.2003837,-0.002 -0.2199279,0.1004 -0.037516,0.19657 0.03819,0.32223 0.194543,0.32223 0.076828,0 0.1655635,-0.031 0.1970139,-0.0692 z m -0.00674,-0.85286 c 0.104011,-0.104 0.070089,-0.32417 -0.057285,-0.3726 -0.2459192,-0.0935 -0.404474,0.0732 -0.3107294,0.32654 0.043132,0.1166 0.2691251,0.1449 0.3679915,0.0461 z m -0.062676,-0.85467 c 0.1096269,-0.0418 0.124229,-0.0714 0.1111995,-0.22808 -0.013479,-0.16152 -0.029878,-0.18152 -0.159049,-0.19274 -0.1752233,-0.0157 -0.2508389,0.0294 -0.2646995,0.15657 -0.020218,0.18578 0.00139,0.25727 0.084691,0.27901 0.046278,0.0113 0.088061,0.0245 0.093003,0.0276 0.00449,0.002 0.065596,-0.0157 0.1350118,-0.0424 z"
       id="path95"
       inkscape:connector-curvature="0" />
    <path
       style="fill:#ffffff;stroke-width:0.00181491;stroke-miterlimit:4;stroke-dasharray:none"
       d="m 8.1141091,283.7402 c -0.5321623,-0.24638 -0.7391955,-0.83305 -0.4859079,-1.37695 0.3776064,-0.81093 1.4174448,-0.86405 1.858581,-0.095 0.2562753,0.44677 0.1693825,0.9743 -0.216109,1.31278 -0.2925107,0.25681 -0.7959858,0.32609 -1.156609,0.15905 z"
       id="path97"
       inkscape:connector-curvature="0" />
    <path
       style="fill:#ffffff;stroke-width:0.00181491;stroke-miterlimit:4;stroke-dasharray:none"
       d="m 4.1434351,283.50711 c -0.3077866,-0.31457 -0.5191554,-0.61201 -0.5191554,-0.73063 0,-0.1085 0.1988111,-0.28979 0.317671,-0.28979 0.1096269,0 0.7077227,0.49199 0.8759371,0.72055 l 0.1132213,0.15366 -0.207123,0.21116 c -0.1138952,0.11614 -0.2303739,0.21117 -0.2587241,0.21117 -0.028305,0 -0.1732016,-0.12423 -0.3216921,-0.27612 z"
       id="path99"
       inkscape:connector-curvature="0" />
    <path
       style="fill:#ffffff;stroke-width:0.00181491;stroke-miterlimit:4;stroke-dasharray:none"
       d="m 12.397422,283.60084 -0.226936,-0.23039 0.489008,-0.44431 c 0.420738,-0.38228 0.50945,-0.4423 0.635409,-0.42988 0.182636,0.0179 0.299295,0.20105 0.250884,0.39393 -0.0328,0.13053 -0.787405,0.94105 -0.876117,0.94105 -0.02494,0 -0.147368,-0.10379 -0.272248,-0.2304 z"
       id="path101"
       inkscape:connector-curvature="0" />
  </g>
</svg>
