<?xml version="1.0" encoding="UTF-8" standalone="no"?>
<!-- Created with Inkscape (http://www.inkscape.org/) -->

<svg
   xmlns:dc="http://purl.org/dc/elements/1.1/"
   xmlns:cc="http://creativecommons.org/ns#"
   xmlns:rdf="http://www.w3.org/1999/02/22-rdf-syntax-ns#"
   xmlns:svg="http://www.w3.org/2000/svg"
   xmlns="http://www.w3.org/2000/svg"
   xmlns:sodipodi="http://sodipodi.sourceforge.net/DTD/sodipodi-0.dtd"
   xmlns:inkscape="http://www.inkscape.org/namespaces/inkscape"
   width="64"
   height="64"
   viewBox="0 0 16.933333 16.933334"
   version="1.1"
   id="svg8"
   inkscape:version="0.92.5 (2060ec1f9f, 2020-04-08)"
   sodipodi:docname="walk_pet_64x64.svg">
  <defs
     id="defs2" />
  <sodipodi:namedview
     id="base"
     pagecolor="#ffffff"
     bordercolor="#666666"
     borderopacity="1.0"
     inkscape:pageopacity="0.0"
     inkscape:pageshadow="2"
     inkscape:zoom="2.8"
     inkscape:cx="-11.594804"
     inkscape:cy="16.954256"
     inkscape:document-units="mm"
     inkscape:current-layer="layer1"
     showgrid="false"
     units="px"
     inkscape:window-width="1208"
     inkscape:window-height="987"
     inkscape:window-x="1992"
     inkscape:window-y="0"
     inkscape:window-maximized="1" />
  <metadata
     id="metadata5">
    <rdf:RDF>
      <cc:Work
         rdf:about="">
        <dc:format>image/svg+xml</dc:format>
        <dc:type
           rdf:resource="http://purl.org/dc/dcmitype/StillImage" />
        <dc:title></dc:title>
      </cc:Work>
    </rdf:RDF>
  </metadata>
  <g
     inkscape:label="Layer 1"
     inkscape:groupmode="layer"
     id="layer1"
     transform="translate(0,-280.06665)">
    <path
       style="fill:#000000;stroke-width:0.03355341"
       d="m 4.1101792,296.36063 c -0.04931,-0.0457 -0.08878,-0.11871 -0.08878,-0.16425 0,-0.0451 0.120794,-0.32579 0.268424,-0.62379 l 0.26843,-0.54181 v -0.28116 -0.28116 l -0.120659,-0.0398 c -0.116187,-0.0383 -0.125381,-0.0352 -0.248251,0.0848 l -0.1276,0.12459 0.114043,0.33864 c 0.06272,0.18624 0.114037,0.37174 0.114037,0.4122 0,0.14328 -0.106827,0.21206 -0.569007,0.36641 -0.502317,0.16775 -0.567446,0.17673 -0.666922,0.0921 -0.06901,-0.0588 -0.643061,-1.44838 -0.643061,-1.55671 0,-0.11552 0.04784,-0.16656 0.408293,-0.43555 0.264552,-0.19743 0.363311,-0.29 0.35022,-0.3283 -0.01005,-0.0294 -0.05391,-0.18169 -0.09745,-0.33855 l -0.07922,-0.2852 -0.296192,-0.10336 -0.296191,-0.10336 -0.54524,0.13533 c -0.459081,0.11395 -0.558869,0.12912 -0.631545,0.096 -0.06558,-0.0299 -0.159024,-0.18459 -0.38898403,-0.64397 -0.166473,-0.33256 -0.302679,-0.636 -0.302679,-0.67431 0,-0.13078 0.06978,-0.20006 0.336628,-0.33423 0.26612603,-0.13381 0.26719803,-0.13488 0.40196403,-0.40292 l 0.135122,-0.26875 0.276712,-0.13723 0.276711,-0.13724 0.265447,-0.40106 c 0.145995,-0.22058 0.294544,-0.41663 0.330116,-0.43567 0.03559,-0.019 0.114606,-0.0252 0.175625,-0.0138 0.09624,0.0181 0.163606,0.0917 0.50816,0.5557 l 0.397205,0.5349 0.318759,0.10515 0.318759,0.10514 1.665569,-0.95275 c 1.56882,-0.8974 1.662868,-0.95645 1.618953,-1.0165 -0.06784,-0.0928 -0.06501,-0.74793 0.0037,-0.84596 0.03406,-0.0486 0.188219,-0.11743 0.478132,-0.21339 0.359207,-0.1189 0.528167,-0.20146 1.052959,-0.5145 l 0.625095,-0.37286 0.3060108,-0.61258 c 0.168311,-0.33692 0.306164,-0.63135 0.306342,-0.65429 6.12e-4,-0.10623 0.190829,-0.42763 0.516522,-0.87379 0.195546,-0.26786 0.355538,-0.50218 0.355538,-0.5207 0,-0.0185 -0.04527,-0.12939 -0.100634,-0.24638 -0.122999,-0.26 -0.125663,-0.34178 -0.01476,-0.45268 0.04723,-0.0472 0.08123,-0.0893 0.07549,-0.0933 -0.0055,-0.004 -0.0604,-0.0273 -0.121511,-0.0517 -0.06107,-0.0243 -0.151691,-0.0974 -0.201322,-0.16244 -0.08893,-0.11646 -0.09051,-0.12766 -0.110055,-0.7752 -0.01446,-0.48017 -0.03479,-0.70136 -0.07549,-0.82173 -0.123312,-0.36485 -0.04245,-0.70848 0.231044,-0.98199 0.135183,-0.13519 0.217874,-0.18691 0.369045,-0.23086 0.337283,-0.0981 0.602233,-0.0328 1.021914,0.25157 0.136383,0.0924 0.176954,0.10248 0.419417,0.10394 0.147636,6.2e-4 0.32508,0.0218 0.394319,0.0466 0.316076,0.11279 0.511793,0.39188 0.507622,0.72385 -0.0025,0.20703 -0.06494,0.35008 -0.314404,0.7214 -0.202523,0.30147 -0.402993,0.88441 -0.402993,1.17187 0,0.19215 0.009,0.21242 0.273618,0.6164 0.316443,0.48311 0.442615,0.78148 0.499474,1.18121 0.02665,0.18725 0.131985,0.54805 0.306746,1.05057 l 0.266176,0.76537 -0.136151,1.22365 c -0.07489,0.67301 -0.136157,1.24586 -0.136157,1.273 0,0.0271 -0.0302,0.0796 -0.06717,0.11652 l -0.06717,0.0672 0.324903,1.30013 0.324903,1.30014 0.468502,0.58718 c 0.257679,0.32295 0.685267,0.80725 0.950193,1.07623 0.355521,0.36095 0.481684,0.51055 0.481684,0.57118 0,0.12638 -0.564528,1.51527 -0.643059,1.58211 -0.06043,0.0514 -0.147904,0.0587 -0.704319,0.0587 -0.629806,0 -0.636042,-6.1e-4 -0.717679,-0.0824 -0.07845,-0.0784 -0.08236,-0.1018 -0.08236,-0.49207 v -0.4097 l -0.793117,-1.05729 -0.793124,-1.05728 -0.305944,-0.91718 -0.30595,-0.91719 -0.377284,0.37837 -0.377284,0.37835 v 2.14003 2.14003 l -0.08235,0.0824 -0.08236,0.0824 H 9.9320992 c -1.434555,0 -1.322816,0.0408 -1.34738,-0.49183 l -0.01678,-0.36379 -0.148751,0.37989 c -0.08456,0.21595 -0.178283,0.40056 -0.217176,0.4278 -0.09985,0.07 -1.224026,0.069 -1.359674,-0.001 -0.194768,-0.10072 -0.188955,-0.14221 0.13182,-0.94074 l 0.268423,-0.66822 v -0.32603 -0.32603 l -0.528467,0.17646 -0.528467,0.17647 -0.01678,0.50045 -0.01678,0.50045 -0.295941,0.44027 c -0.171049,0.25447 -0.331016,0.45625 -0.379054,0.47814 -0.05176,0.0236 -0.308351,0.0379 -0.6806,0.0379 -0.587703,0 -0.598932,-10e-4 -0.686266,-0.0823 z m 1.316028,-0.76661 0.205758,-0.31203 v -0.53611 c 0,-0.42304 0.01066,-0.55132 0.05048,-0.60821 0.03694,-0.0528 0.260944,-0.14204 0.833547,-0.33232 l 0.783041,-0.26022 0.125626,-0.3817 c 0.114692,-0.34846 0.135287,-0.3863 0.236625,-0.43462 0.06248,-0.0298 0.146234,-0.0441 0.191613,-0.0327 0.05311,0.0134 0.268087,0.25521 0.630002,0.70885 l 0.549392,0.68863 0.471713,0.27746 0.471718,0.27746 0.2230018,0.62038 0.223001,0.62039 0.141314,0.0105 c 0.12284,0.009 0.139067,0.002 0.124157,-0.0504 -0.0094,-0.0334 -0.05826,-0.36277 -0.108499,-0.73186 l -0.09135,-0.67107 -0.414498,-0.42229 -0.4144918,-0.4223 -3.98e-4,-0.41654 c -5.94e-4,-0.61952 -0.09726,-0.9045 -0.414302,-1.22139 -0.206976,-0.20688 -0.53825,-0.39828 -0.888287,-0.51321 -0.219271,-0.072 -0.336487,-0.0866 -0.794098,-0.0992 -0.471032,-0.0129 -0.626062,-0.002 -1.264376,0.0889 -0.952907,0.13579 -1.172233,0.13336 -1.828238,-0.0203 -0.06319,-0.0148 -0.131348,0.0706 -0.515885,0.64629 l -0.443081,0.66335 0.06077,0.26603 c 0.07435,0.32552 0.198021,0.52867 0.389609,0.63995 0.07986,0.0464 0.341492,0.16168 0.5814,0.2562 0.239909,0.0945 0.462622,0.20301 0.494917,0.24108 0.04992,0.0589 0.05868,0.1407 0.05868,0.54705 v 0.47784 l -0.183576,0.37405 -0.183582,0.37405 h 0.246255 0.246248 l 0.205758,-0.31203 z m 2.665811,-0.25037 0.22422,-0.56242 v -0.36408 -0.36407 l -0.204563,-0.25627 c -0.112511,-0.14095 -0.213084,-0.25627 -0.223491,-0.25627 -0.06563,0 -0.10393,0.28493 -0.106251,0.79041 l -0.0025,0.55552 -0.201316,0.49951 c -0.110729,0.27473 -0.201322,0.50414 -0.201322,0.50979 0,0.006 0.11049,0.0103 0.245532,0.0103 h 0.245531 z m 1.751041,0.50369 c -0.01311,-0.0323 -0.05084,-0.13421 -0.08394,-0.22649 -0.03308,-0.0923 -0.07748,-0.21202 -0.09869,-0.26611 l -0.03859,-0.0984 -0.250169,0.24851 c -0.165064,0.16396 -0.250175,0.27447 -0.250175,0.32483 0,0.0748 0.0073,0.0763 0.372677,0.0763 0.341639,0 0.370699,-0.005 0.348867,-0.0588 z m 5.7314718,-0.6883 c 0.104809,-0.26323 0.190563,-0.49392 0.190563,-0.51266 0,-0.0188 -0.09455,-0.12777 -0.210103,-0.24231 l -0.210102,-0.20823 -0.293202,0.48838 -0.293196,0.48837 v 0.23252 0.23252 h 0.312737 0.31274 z m -6.3523888,-0.30921 c -3e-5,-0.0308 -0.299695,-0.2188 -0.34883,-0.2188 -0.01115,0 -0.02022,0.0586 -0.02022,0.13011 0,0.0716 -0.02315,0.18556 -0.05146,0.25331 -0.0283,0.0678 -0.08208,0.20173 -0.119482,0.2977 l -0.06801,0.17449 0.304026,-0.30128 c 0.167214,-0.1657 0.304008,-0.3167 0.30399,-0.33553 z m -5.696107,0.39976 0.154099,-0.0525 -0.09779,-0.28933 c -0.05378,-0.15912 -0.0978,-0.32457 -0.0978,-0.36765 0,-0.0452 0.05881,-0.14215 0.139115,-0.22927 0.07652,-0.083 0.133137,-0.15551 0.125829,-0.16111 -0.0073,-0.006 -0.06028,-0.0426 -0.117761,-0.0822 l -0.104462,-0.072 -0.244148,0.18266 c -0.134282,0.10046 -0.251302,0.18982 -0.260049,0.19856 -0.01152,0.0115 0.329913,0.92328 0.346447,0.92513 0.0012,1.3e-4 0.07176,-0.0233 0.156519,-0.0522 z m 11.1963568,-1.0551 c 0.144427,-0.24153 0.230916,-0.41965 0.215889,-0.44458 -0.01378,-0.0229 -0.235963,-0.30454 -0.493703,-0.62592 l -0.468631,-0.58433 -0.314349,-1.26111 c -0.172893,-0.69362 -0.320927,-1.27986 -0.328958,-1.30276 -0.0081,-0.0233 -0.205573,0.15361 -0.447173,0.40066 l -0.432562,0.44231 0.336064,1.00759 0.336064,1.00759 0.657353,0.8803 c 0.361541,0.48417 0.666731,0.88097 0.678198,0.88177 0.01145,6.1e-4 0.129278,-0.17987 0.261808,-0.40152 z m -2.938363,-3.48427 1.035164,-1.03553 -0.239584,-0.1971 c -0.13177,-0.1084 -0.248662,-0.23326 -0.259755,-0.27746 -0.01158,-0.0461 0.0106,-0.16803 0.05201,-0.28582 0.03969,-0.11301 0.072,-0.21679 0.07181,-0.23063 -2.02e-4,-0.0138 -0.230597,-0.025 -0.512026,-0.0247 l -0.511689,3.8e-4 -0.508675,0.8745 -0.508675,0.8745 0.08224,0.17964 c 0.23363,0.51031 0.123318,1.13908 -0.266855,1.52104 l -0.148629,0.14551 0.04931,0.15647 c 0.02714,0.0861 0.05703,0.33766 0.06649,0.55911 l 0.01721,0.40265 0.256503,0.26088 0.256497,0.26088 0.01679,-1.07439 0.01678,-1.0744 z m -9.0392028,1.53306 c 0.178056,0.0584 0.334073,0.10611 0.346698,0.10611 0.02156,0 0.762109,-1.08882 0.762109,-1.12055 0,-0.008 -0.119575,-0.0546 -0.265716,-0.10324 l -0.265716,-0.0885 -0.29248,-0.3924 c -0.160868,-0.21582 -0.303181,-0.4044 -0.316259,-0.41907 -0.01305,-0.0146 -0.102827,0.0938 -0.199454,0.24093 -0.163214,0.2486 -0.194572,0.27742 -0.442052,0.40618 -0.263517,0.13709 -0.267823,0.14145 -0.400065,0.40447 -0.121492,0.24163 -0.14975,0.27395 -0.309724,0.35431 -0.09682,0.0486 -0.180574,0.0924 -0.18613,0.0973 -0.0055,0.005 0.06083,0.15169 0.147575,0.32626 l 0.157676,0.31742 0.469893,-0.11767 0.469899,-0.11765 z m -0.486506,-0.78153 c -0.04527,-0.0453 -0.08236,-0.11392 -0.08236,-0.15251 0,-0.0905 0.144347,-0.23488 0.234873,-0.23488 0.09053,0 0.234873,0.14435 0.234873,0.23488 0,0.0905 -0.144347,0.23487 -0.234873,0.23487 -0.03859,0 -0.107219,-0.0371 -0.152512,-0.0824 z m 7.687646,0.13165 c 0.1259808,-0.21498 0.1589678,-0.39135 0.1138398,-0.60873 -0.0468,-0.22543 -0.2013898,-0.43293 -0.4010398,-0.53831 l -0.150588,-0.0795 -0.04288,0.27647 c -0.02358,0.15205 -0.08088,0.35943 -0.127311,0.46084 -0.07947,0.17358 -0.08091,0.18632 -0.02463,0.21726 0.03289,0.0181 0.150405,0.12059 0.261134,0.2278 0.110729,0.10721 0.219558,0.19521 0.24185,0.19556 0.0223,3.8e-4 0.08062,-0.0678 0.129627,-0.1514 z m -3.67649,-0.6896 c 0.645947,-0.0926 0.781062,-0.1018 1.291808,-0.0876 0.559996,0.0156 0.604089,0.0225 1.166119,0.18222 0.04417,0.0126 0.07521,-0.0202 0.124316,-0.13125 0.104609,-0.23649 0.117553,-0.40226 0.05133,-0.65758 -0.05525,-0.21312 -0.0555,-0.23509 -0.0037,-0.33545 0.03142,-0.0607 0.09172,-0.11648 0.138767,-0.12828 0.105571,-0.0265 0.511009,0.069 0.764247,0.18004 0.113528,0.0498 0.2058848,0.0726 0.2220078,0.0548 0.01519,-0.0167 0.241648,-0.39867 0.503254,-0.84876 l 0.475651,-0.81835 -0.0098,-0.22075 -0.0098,-0.22076 -0.174142,0.23521 -0.174149,0.23522 -0.6646908,0.26262 c -0.569424,0.22499 -0.729778,0.30534 -1.118823,0.56063 -0.28636,0.18791 -0.487364,0.29801 -0.544076,0.29801 -0.05176,0 -0.137811,-0.042 -0.202688,-0.099 l -0.112744,-0.099 -1.481859,0.84556 c -0.815023,0.46505 -1.482018,0.85688 -1.482208,0.87072 -6.12e-4,0.055 0.556726,0.0198 1.241124,-0.0783 z m 7.1628108,-1.68044 c 0.0055,-0.006 0.06393,-0.49201 0.12937,-1.07965 l 0.11898,-1.06844 -0.301919,-0.86088 c -0.316413,-0.90222 -0.376408,-1.01188 -0.553626,-1.01188 -0.172592,0 -0.31183,0.12276 -0.313613,0.27651 -5.82e-4,0.0506 0.142883,0.47589 0.31882,0.94514 l 0.319886,0.8532 -0.03749,0.61508 c -0.03106,0.50917 -0.05274,0.66067 -0.126001,0.87979 l -0.08849,0.26471 0.133259,0.11574 c 0.11495,0.0998 0.15092,0.11342 0.261851,0.0988 0.07073,-0.009 0.133271,-0.022 0.138987,-0.0281 z m -4.7483148,-0.59749 c 0.220288,-0.14812 0.468999,-0.26871 0.953201,-0.46218 l 0.6551358,-0.26176 0.276093,-0.36827 c 0.15185,-0.20254 0.311591,-0.41551 0.35498,-0.47325 l 0.07889,-0.10499 -0.169266,-0.10861 c -0.09309,-0.0597 -0.205935,-0.15548 -0.250757,-0.21275 -0.04484,-0.0573 -0.08811,-0.0971 -0.09619,-0.0884 -0.0081,0.009 -0.09061,0.16762 -0.183398,0.35324 l -0.168697,0.33749 -0.7159328,0.43024 c -0.53632,0.3223 -0.795898,0.45719 -1.034692,0.53769 -0.310667,0.10474 -0.319028,0.11027 -0.329613,0.21831 -0.0091,0.0926 0.0128,0.13498 0.132812,0.25725 0.07902,0.0805 0.156206,0.14639 0.171526,0.14639 0.01531,0 0.161977,-0.0902 0.325908,-0.20042 z m 3.9016768,-0.89471 0.02493,-0.37374 -0.303187,-0.80063 c -0.166749,-0.44035 -0.311739,-0.87614 -0.322195,-0.96841 -0.05182,-0.45722 0.279689,-0.86521 0.741747,-0.91289 0.102367,-0.0105 0.186124,-0.0248 0.186124,-0.0316 0,-0.007 -0.100444,-0.16323 -0.223216,-0.34762 l -0.223209,-0.33525 h -0.380204 -0.380206 l 0.05433,0.11389 c 0.03167,0.0665 0.04564,0.14841 0.03351,0.19677 -0.01145,0.0456 -0.211547,0.34538 -0.444674,0.66622 -0.233133,0.32084 -0.444747,0.63194 -0.470254,0.69132 -0.09016,0.20991 -0.03424,0.49729 0.131379,0.67505 0.04061,0.0436 0.160145,0.12303 0.265563,0.17646 0.105417,0.0534 0.207337,0.12642 0.226486,0.16219 0.02089,0.0391 0.03479,0.34801 0.03479,0.77277 v 0.7077 l 0.511688,-0.009 0.511689,-0.009 z m -0.243001,-4.46886 c 0,-0.0891 0.03682,-0.27023 0.08188,-0.40265 l 0.08188,-0.24075 h -0.09708 c -0.175514,0 -0.259541,-0.0668 -0.385529,-0.30657 l -0.121014,-0.23028 h -0.316927 -0.316927 v 0.40264 0.40264 H 11.455 c 0.260411,0 0.350784,0.0904 0.350784,0.35079 v 0.18607 h 0.26843 0.26843 z m 0.547518,-1.41293 c 0.20433,-0.30728 0.22052,-0.37802 0.111507,-0.48703 -0.07954,-0.0795 -0.107703,-0.0856 -0.399858,-0.0856 h -0.314287 l -0.313968,-0.20132 c -0.340003,-0.21801 -0.465948,-0.24701 -0.636182,-0.14645 -0.177567,0.1049 -0.248032,0.32472 -0.169935,0.53013 l 0.03271,0.0861 h 0.472784 c 0.262843,0 0.50171,0.0155 0.537926,0.0349 0.03583,0.0192 0.118067,0.13996 0.182755,0.26843 0.110275,0.21897 0.124628,0.23357 0.229715,0.23357 0.101436,0 0.126803,-0.0221 0.266819,-0.23269 z"
       id="path6294"
       inkscape:connector-curvature="0" />
    <path
       style="fill:#ffffff;stroke-width:0.00181166;stroke-miterlimit:4;stroke-dasharray:none"
       d="m 1.3550372,292.05786 c -0.0714,-0.14558 -0.129823,-0.28317 -0.129823,-0.30575 0,-0.0226 0.06553,-0.0682 0.145633,-0.10138 0.0895,-0.0371 0.194241,-0.14555 0.271744,-0.28144 0.175153,-0.30708 0.24065,-0.3756 0.490684,-0.51323 0.124273,-0.0684 0.294084,-0.22424 0.394075,-0.36163 l 0.175698,-0.24141 0.303634,0.40591 c 0.275162,0.36785 0.327268,0.41344 0.555611,0.48609 0.236643,0.0753 0.248601,0.0866 0.196587,0.18547 -0.146736,0.27897 -0.681899,0.99556 -0.72982,0.97723 -0.487872,-0.18665 -0.58102,-0.19481 -1.00614,-0.0882 -0.225924,0.0567 -0.439412,0.10303 -0.47442,0.10303 -0.03498,0 -0.122068,-0.11912 -0.193463,-0.2647 z m 1.220522,-0.58157 c 0.108775,-0.0984 0.11144,-0.19841 0.0083,-0.31234 -0.107856,-0.11919 -0.282819,-0.11034 -0.373321,0.0189 -0.09603,0.1371 -0.09415,0.16154 0.02126,0.27694 0.116634,0.11664 0.227252,0.12196 0.343739,0.0165 z"
       id="path6296"
       inkscape:connector-curvature="0" />
    <path
       style="fill:#ffffff;stroke-width:0.00181166;stroke-miterlimit:4;stroke-dasharray:none"
       d="m 4.9394562,295.5353 c 0.160103,-0.31794 0.168366,-0.35865 0.168366,-0.82968 0,-0.32365 -0.02077,-0.52176 -0.05991,-0.57158 -0.03296,-0.0419 -0.275615,-0.16905 -0.539248,-0.28247 -0.263633,-0.11342 -0.52897,-0.23743 -0.589639,-0.27557 -0.133137,-0.0837 -0.24283,-0.28596 -0.326018,-0.60115 l -0.06188,-0.23447 0.436079,-0.64541 0.436085,-0.64541 0.172519,0.0312 c 0.482567,0.0874 0.92324,0.082 1.730361,-0.0213 1.393906,-0.17834 2.045574,-0.0962 2.67922,0.33759 0.251039,0.17188 0.493195,0.47264 0.573565,0.71238 0.03002,0.0896 0.05464,0.36962 0.05464,0.62224 v 0.4593 l 0.4263388,0.4323 0.426339,0.4323 0.07848,0.5752 c 0.04319,0.31636 0.09029,0.63452 0.104738,0.70702 0.02291,0.11499 0.01133,0.13182 -0.09084,0.13182 -0.106484,0 -0.137529,-0.0561 -0.342846,-0.61976 l -0.2257578,-0.61976 -0.469323,-0.27899 c -0.431968,-0.2568 -0.504626,-0.32287 -0.913022,-0.83024 -0.645059,-0.80138 -0.719199,-0.87332 -0.862878,-0.83726 -0.184262,0.0462 -0.214064,0.0884 -0.334912,0.47374 l -0.112444,0.35854 -0.74021,0.25043 c -0.407116,0.13773 -0.781166,0.28445 -0.831225,0.32604 -0.07657,0.0636 -0.09571,0.16686 -0.120641,0.65082 -0.02867,0.55623 -0.03534,0.58427 -0.203674,0.8504 -0.171968,0.27192 -0.176758,0.2752 -0.402326,0.27561 l -0.228288,4.3e-4 z"
       id="path6298"
       inkscape:connector-curvature="0" />
    <path
       style="fill:#ffffff;stroke-width:0.00181166;stroke-miterlimit:4;stroke-dasharray:none"
       d="m 3.3416742,295.16261 c -0.02414,-0.0461 -0.09954,-0.23914 -0.167526,-0.4289 l -0.123599,-0.34502 0.177818,-0.13826 c 0.259192,-0.20152 0.285826,-0.21198 0.393352,-0.15443 0.09674,0.0518 0.09653,0.0538 -0.02297,0.21046 -0.1448,0.18984 -0.148506,0.26887 -0.02891,0.61645 l 0.09173,0.26663 -0.103714,0.0278 c -0.152776,0.041 -0.168066,0.0371 -0.216165,-0.0548 z"
       id="path6300"
       inkscape:connector-curvature="0" />
    <path
       style="fill:#ffffff;stroke-width:0.00181166;stroke-miterlimit:4;stroke-dasharray:none"
       d="m 7.5051962,295.62996 c 0.05231,-0.13181 0.135398,-0.34212 0.184569,-0.46735 0.06466,-0.16469 0.0963,-0.40409 0.114355,-0.86531 0.01372,-0.3507 0.04037,-0.65268 0.05924,-0.67107 0.01887,-0.0184 0.118337,0.0636 0.221047,0.18226 0.185371,0.2141 0.186756,0.21871 0.186884,0.62213 9.8e-5,0.36543 -0.0204,0.4585 -0.203589,0.92242 l -0.203717,0.51598 -0.226983,3.1e-4 -0.226989,3e-4 z"
       id="path6302"
       inkscape:connector-curvature="0" />
    <path
       style="fill:#ffffff;stroke-width:0.00181166;stroke-miterlimit:4;stroke-dasharray:none"
       d="m 9.1342382,295.83188 c 0,-0.0491 0.471951,-0.51428 0.493692,-0.48663 0.02585,0.0328 0.177376,0.45155 0.177376,0.49004 0,0.0189 -0.150993,0.0344 -0.335537,0.0344 -0.184544,0 -0.335531,-0.017 -0.335531,-0.0377 z"
       id="path6304"
       inkscape:connector-curvature="0" />
    <path
       style="fill:#ffffff;stroke-width:0.00181166;stroke-miterlimit:4;stroke-dasharray:none"
       d="m 9.5446752,291.49034 -0.236656,-0.20697 0.07734,-0.25932 c 0.04251,-0.14264 0.09511,-0.34174 0.116831,-0.44246 l 0.03951,-0.18312 0.162901,0.11122 c 0.207013,0.14135 0.3404258,0.39135 0.3403278,0.63775 -6.8e-5,0.19445 -0.1272688,0.51068 -0.2156258,0.53609 -0.02634,0.008 -0.15443,-0.0794 -0.284596,-0.19319 z"
       id="path6306"
       inkscape:connector-curvature="0" />
    <path
       style="fill:#ffffff;stroke-width:0.00181166;stroke-miterlimit:4;stroke-dasharray:none"
       d="m 10.46582,293.60607 c -0.225917,-0.26449 -0.226321,-0.26561 -0.271768,-0.74858 -0.02505,-0.26603 -0.06052,-0.50795 -0.07883,-0.53761 -0.0185,-0.0299 0.04423,-0.13333 0.14129,-0.23273 0.343372,-0.35164 0.456937,-0.95609 0.271388,-1.44442 l -0.09227,-0.24284 0.493208,-0.84816 0.493207,-0.84815 0.491879,-0.0137 0.491884,-0.0137 -0.03002,0.10959 c -0.110165,0.40194 -0.1017,0.43883 0.153376,0.66817 l 0.240766,0.21646 -1.026061,1.02523 -1.026061,1.02523 -0.01286,1.07508 -0.01286,1.07508 z"
       id="path6308"
       inkscape:connector-curvature="0" />
    <path
       style="fill:#ffffff;stroke-width:0.00181166;stroke-miterlimit:4;stroke-dasharray:none"
       d="m 13.779825,293.66839 -0.643147,-0.85911 -0.328952,-0.99188 -0.328958,-0.99188 0.399128,-0.40121 c 0.219522,-0.22067 0.413414,-0.38534 0.430866,-0.36594 0.01746,0.0194 0.17255,0.58974 0.344665,1.26741 l 0.312933,1.23213 0.459945,0.58359 c 0.252968,0.32098 0.459944,0.61477 0.459944,0.65286 0,0.0835 -0.379973,0.73314 -0.428838,0.73314 -0.01893,0 -0.323855,-0.38661 -0.677586,-0.85911 z"
       id="path6310"
       inkscape:connector-curvature="0" />
    <path
       style="fill:#ffffff;stroke-width:0.00181166;stroke-miterlimit:4;stroke-dasharray:none"
       d="m 14.790382,295.39878 c 0,-0.20308 0.03884,-0.29943 0.279964,-0.69494 l 0.279959,-0.45918 0.195581,0.20133 0.195582,0.20134 -0.180433,0.47933 -0.180433,0.47934 -0.295107,0.0143 -0.295113,0.0143 z"
       id="path6312"
       inkscape:connector-curvature="0" />
    <path
       style="fill:#ffffff;stroke-width:0.00181166;stroke-miterlimit:4;stroke-dasharray:none"
       d="m 13.068964,289.14152 c -0.09209,-0.0642 -0.136892,-0.12924 -0.120065,-0.17431 0.09652,-0.2584 0.158743,-0.63438 0.187093,-1.13054 l 0.03265,-0.57109 -0.289496,-0.78675 c -0.360825,-0.98058 -0.374289,-1.03901 -0.266794,-1.15778 0.128738,-0.14226 0.294788,-0.11775 0.402528,0.0594 0.05084,0.0836 0.215785,0.49606 0.366515,0.91652 l 0.274059,0.76446 -0.106496,0.98885 c -0.05856,0.54386 -0.116689,1.02425 -0.129149,1.06755 -0.03583,0.12459 -0.191037,0.13507 -0.350821,0.0237 z"
       id="path6314"
       inkscape:connector-curvature="0" />
    <path
       style="fill:#ffffff;stroke-width:0.00181166;stroke-miterlimit:4;stroke-dasharray:none"
       d="m 11.578842,287.80021 c 0,-0.16732 -0.01421,-0.5041 -0.03155,-0.7484 l -0.03155,-0.44421 -0.25537,-0.16335 c -0.140457,-0.0899 -0.290409,-0.23112 -0.33324,-0.31394 -0.13906,-0.26892 -0.07216,-0.44925 0.435185,-1.17308 0.410363,-0.58547 0.461886,-0.6815 0.439552,-0.81915 l -0.0253,-0.15595 h 0.345033 0.345038 l 0.201163,0.32355 c 0.110643,0.17796 0.185904,0.32718 0.167239,0.33161 -0.01868,0.004 -0.115281,0.0217 -0.214708,0.0383 -0.215607,0.0361 -0.502524,0.27333 -0.593302,0.49059 -0.126925,0.30377 -0.09208,0.46381 0.366032,1.68116 0.194878,0.51784 0.201977,0.55544 0.169805,0.89875 l -0.03357,0.3583 h -0.475241 -0.475247 z"
       id="path6316"
       inkscape:connector-curvature="0" />
    <path
       style="fill:#ffffff;stroke-width:0.00181166;stroke-miterlimit:4;stroke-dasharray:none"
       d="m 8.2038802,288.64692 c -0.195074,-0.19507 -0.148886,-0.29523 0.195711,-0.42442 0.162761,-0.061 0.527236,-0.24447 0.809945,-0.40765 0.9279258,-0.53562 0.9391238,-0.54466 1.1230368,-0.90562 l 0.167766,-0.32929 0.224385,0.19902 0.224392,0.19901 -0.342435,0.45815 -0.342434,0.45815 -0.6354598,0.25274 c -0.349504,0.139 -0.766256,0.33728 -0.926125,0.4406 -0.159864,0.10333 -0.308566,0.18787 -0.330441,0.18787 -0.02187,0 -0.09763,-0.0578 -0.168341,-0.12856 z"
       id="path6318"
       inkscape:connector-curvature="0" />
    <path
       style="fill:#ffffff;stroke-width:0.00181166;stroke-miterlimit:4;stroke-dasharray:none"
       d="m 11.818511,283.21862 c 0,-0.24046 -0.0985,-0.33895 -0.338961,-0.33895 h -0.188312 v -0.38348 -0.38346 h 0.305754 c 0.293907,0 0.308039,0.006 0.364776,0.14249 0.08817,0.21286 0.268129,0.38478 0.402779,0.38478 0.118533,0 0.118839,0.001 0.05397,0.20371 -0.0359,0.11205 -0.0787,0.28461 -0.09513,0.38347 -0.02983,0.17951 -0.0302,0.17975 -0.267364,0.17975 h -0.237494 z"
       id="path6320"
       inkscape:connector-curvature="0" />
    <path
       style="fill:#ffffff;stroke-width:0.00181166;stroke-miterlimit:4;stroke-dasharray:none"
       d="m 12.414398,281.83711 c -0.07272,-0.12522 -0.155661,-0.24353 -0.184305,-0.2629 -0.02867,-0.0194 -0.271462,-0.0355 -0.539591,-0.036 l -0.487511,-6.1e-4 -0.02977,-0.13548 c -0.05801,-0.264 0.108824,-0.48766 0.363716,-0.48766 0.05954,0 0.25344,0.0863 0.430945,0.19173 0.286605,0.17027 0.357192,0.19174 0.630479,0.19174 0.24476,0 0.325142,0.0192 0.392758,0.0939 0.08178,0.0904 0.08024,0.10208 -0.04055,0.30818 -0.255064,0.43522 -0.349118,0.45928 -0.536198,0.13713 z"
       id="path6322"
       inkscape:connector-curvature="0" />
  </g>
</svg>
