<?xml version="1.0" encoding="UTF-8" standalone="no"?>
<!-- Created with Inkscape (http://www.inkscape.org/) -->

<svg
   xmlns:dc="http://purl.org/dc/elements/1.1/"
   xmlns:cc="http://creativecommons.org/ns#"
   xmlns:rdf="http://www.w3.org/1999/02/22-rdf-syntax-ns#"
   xmlns:svg="http://www.w3.org/2000/svg"
   xmlns="http://www.w3.org/2000/svg"
   xmlns:sodipodi="http://sodipodi.sourceforge.net/DTD/sodipodi-0.dtd"
   xmlns:inkscape="http://www.inkscape.org/namespaces/inkscape"
   width="64"
   height="64"
   viewBox="0 0 16.933333 16.933334"
   version="1.1"
   id="svg8"
   inkscape:version="0.92.5 (2060ec1f9f, 2020-04-08)"
   sodipodi:docname="washing_resident_64x64.svg">
  <defs
     id="defs2" />
  <sodipodi:namedview
     id="base"
     pagecolor="#ffffff"
     bordercolor="#666666"
     borderopacity="1.0"
     inkscape:pageopacity="0.0"
     inkscape:pageshadow="2"
     inkscape:zoom="5.6"
     inkscape:cx="67.434606"
     inkscape:cy="30.075117"
     inkscape:document-units="mm"
     inkscape:current-layer="layer1"
     showgrid="false"
     units="px"
     inkscape:window-width="1208"
     inkscape:window-height="987"
     inkscape:window-x="1992"
     inkscape:window-y="0"
     inkscape:window-maximized="1"
     showguides="false" />
  <metadata
     id="metadata5">
    <rdf:RDF>
      <cc:Work
         rdf:about="">
        <dc:format>image/svg+xml</dc:format>
        <dc:type
           rdf:resource="http://purl.org/dc/dcmitype/StillImage" />
        <dc:title />
      </cc:Work>
    </rdf:RDF>
  </metadata>
  <g
     inkscape:label="Layer 1"
     inkscape:groupmode="layer"
     id="layer1"
     transform="translate(0,-280.06665)">
    <path
       style="fill:#000000;stroke-width:0.04732347"
       d="m 2.4627977,295.91412 c -0.2320497,-0.25641 -0.3790466,-1.54013 -0.2663555,-2.32607 0.2101189,-1.46544 0.8134401,-2.64283 1.6914348,-3.30087 0.3147331,-0.23589 1.1935767,-0.77292 1.8138686,-1.10839 0.1691815,-0.0915 0.5862708,-0.32482 0.9268657,-0.5185 0.340594,-0.19368 0.6493796,-0.36481 0.6861902,-0.38028 0.1778078,-0.0747 1.4050403,-0.89533 1.698143,-1.13549 0.4594702,-0.37647 0.6319406,-0.62133 0.6013888,-0.85383 -0.031818,-0.2421 -0.3176953,-0.70776 -0.8195711,-1.33495 -0.4484413,-0.56041 -2.4705025,-2.61671 -3.2823101,-3.33788 -0.531284,-0.47196 -0.6386067,-0.62233 -0.5561543,-0.77922 0.067246,-0.12795 0.1297907,-0.1641 0.2854678,-0.16495 0.099059,-4.5e-4 0.2452108,0.10098 0.5915436,0.41092 1.8008503,1.61163 3.2041923,3.0953 3.9016764,4.125 0.6721434,0.99229 0.6542434,1.47819 -0.080142,2.1755 -0.4778499,0.45374 -1.4347231,1.09815 -2.4860703,1.67427 -1.950592,1.06891 -2.9119208,1.66484 -3.2447209,2.01144 -0.4447235,0.46316 -0.8145834,1.19664 -1.0247114,2.03213 -0.1486829,0.59118 -0.149894,1.8188 -0.00228,2.30733 0.1045018,0.34584 0.087552,0.50927 -0.058635,0.56537 -0.1440188,0.0553 -0.2918446,0.031 -0.3756325,-0.0615 z M 1.450882,291.06925 c -0.1437332,-0.153 -0.1303462,-0.24725 0.088249,-0.62132 0.2956086,-0.50587 0.6020435,-0.91463 0.9909331,-1.32184 0.4334589,-0.45388 0.811839,-0.72868 1.2708398,-0.92293 0.2869336,-0.12143 0.3647808,-0.13751 0.449573,-0.0929 0.2376423,0.12506 0.2425255,0.36809 0.010562,0.52571 l -0.162972,0.11075 0.1139473,0.13941 c 0.1486523,0.18187 0.1541798,0.41585 0.012175,0.51531 -0.1695347,0.11875 -0.2778352,0.0872 -0.4925785,-0.14337 l -0.2021204,-0.21705 -0.1908741,0.15339 -0.1908741,0.1534 0.1885626,0.20456 c 0.2119059,0.22989 0.2401557,0.39171 0.093915,0.53795 -0.1425884,0.14259 -0.3057518,0.11745 -0.5253464,-0.0809 l -0.1943548,-0.17559 -0.135773,0.16376 c -0.074675,0.0901 -0.1363457,0.18115 -0.1370456,0.20243 -6.834e-4,0.0213 0.073261,0.10896 0.164359,0.19488 0.1874481,0.17678 0.2090555,0.31456 0.070985,0.45263 -0.1221198,0.12212 -0.3071311,0.1205 -0.4655042,-0.004 -0.1192411,-0.0938 -0.1278824,-0.0945 -0.173096,-0.0137 -0.089902,0.16069 -0.3006787,0.34901 -0.3906271,0.34901 -0.049521,0 -0.1363411,-0.0493 -0.1929336,-0.10953 z m 1.7900431,-4.03508 c -0.2212372,-0.0626 -0.7023315,-0.1438 -1.0690984,-0.18038 -0.7703226,-0.0768 -0.9467617,-0.14536 -1.24420805,-0.48328 -0.28290056,-0.32139 -0.33680846,-0.553 -0.33680846,-1.44702 0,-0.68549 0.00798,-0.75657 0.094647,-0.84323 0.128611,-0.12862 0.35313711,-0.12332 0.44688961,0.0105 0.059005,0.0842 0.073668,0.25159 0.073668,0.84073 0,1.12519 0.084882,1.2286 1.0832992,1.31981 0.3400527,0.0311 0.7837842,0.10107 0.9860691,0.15556 0.6084432,0.16392 0.5904063,0.16563 1.5070934,-0.14283 0.4665558,-0.15699 1.0718869,-0.33345 1.3451803,-0.39214 0.2732932,-0.0587 0.5073665,-0.11475 0.5201639,-0.12457 0.012799,-0.01 -0.01891,-0.0415 -0.070459,-0.0703 -0.05155,-0.0288 -0.1955344,-0.14768 -0.3199663,-0.26407 -0.1788445,-0.16729 -0.294567,-0.35296 -0.5524006,-0.8863 -0.3238912,-0.66999 -0.8007594,-1.44708 -1.3133536,-2.14022 -0.1816244,-0.24559 -0.2673444,-0.4059 -0.2673444,-0.49997 0,-0.27628 0.3374327,-0.36127 0.5434818,-0.13689 0.4045066,0.44051 1.1993038,1.69554 1.5857971,2.50407 0.3160724,0.66122 0.4310809,0.79559 0.915198,1.06933 0.2478617,0.14015 0.8631487,0.36628 0.9966133,0.36628 0.1343973,0 0.2811206,0.16906 0.2811206,0.32393 0,0.24575 -0.093982,0.27773 -0.8991461,0.30598 -0.9158185,0.0321 -1.3951799,0.13051 -2.59012,0.53162 -1.0238803,0.34368 -1.1154963,0.35347 -1.7163164,0.18338 z"
       id="path8762"
       inkscape:connector-curvature="0" />
    <path
       style="fill:#000000;stroke-width:0.03788639"
       d="m 15.215745,293.32739 c -0.62014,-0.22234 -1.206283,-0.35228 -1.429971,-0.317 -0.264458,0.0417 -1.23962,0.40259 -1.660381,0.61447 -0.185831,0.0936 -0.459732,0.26516 -0.608663,0.38129 l -0.270787,0.21115 0.142712,0.12858 c 0.108526,0.0978 0.176946,0.12858 0.285591,0.12864 0.131428,6e-5 0.157268,-0.0149 0.32247,-0.1858 0.157679,-0.16319 0.19267,-0.18488 0.286788,-0.17776 0.05896,0.005 0.118555,0.0214 0.132441,0.0375 0.05455,0.0635 0.508958,0.0825 0.699516,0.0292 0.40134,-0.1121 0.766296,-0.54291 0.779265,-0.91989 0.0052,-0.15144 0.08258,-0.24274 0.167098,-0.19716 0.07384,0.0398 0.05891,0.27567 -0.0325,0.51348 -0.24648,0.64122 -0.930691,0.98456 -1.581025,0.79335 -0.189708,-0.0558 -0.219559,-0.0534 -0.27037,0.0216 -0.07344,0.10845 -0.175902,0.19594 -0.297423,0.25379 -0.08722,0.0416 -0.09543,0.0729 -0.0848,0.32382 0.0064,0.15277 0.03815,0.56305 0.0704,0.91172 0.05523,0.59714 0.03834,0.74397 -0.08124,0.70602 -0.02485,-0.008 -0.05959,-0.12977 -0.07719,-0.27085 -0.04626,-0.37078 -0.11534,-1.31045 -0.10857,-1.47695 0.0057,-0.14011 0.0038,-0.14319 -0.12995,-0.20224 -0.170465,-0.0753 -0.304845,-0.22862 -0.287891,-0.32849 0.01155,-0.068 0.0019,-0.0738 -0.08852,-0.0529 -0.05582,0.0129 -0.153928,-0.003 -0.218016,-0.0355 -0.169252,-0.0856 -0.207457,-0.29481 -0.101314,-0.55481 0.0741,-0.18151 0.108745,-0.22069 0.468694,-0.53 0.213775,-0.18371 0.395843,-0.35837 0.404623,-0.38812 0.02927,-0.0994 -0.137177,-0.23844 -0.382083,-0.3193 -0.130645,-0.0431 -0.529767,-0.13718 -0.886938,-0.20897 -1.3048356,-0.26233 -1.597199,-0.39826 -1.5274256,-0.71018 0.019619,-0.0877 0.05321,-0.13206 0.1287293,-0.16992 0.1180995,-0.0592 0.6741941,-0.0236 1.4175903,0.0906 0.279491,0.043 0.508946,0.0678 0.509894,0.0552 9.59e-4,-0.0126 -0.303069,-0.14109 -0.675597,-0.28562 -1.0131945,-0.39308 -1.285475,-0.57743 -1.2643928,-0.85609 0.023569,-0.31153 0.2164695,-0.30086 1.2585968,0.0696 0.813528,0.28922 0.98566,0.33954 0.737364,0.21556 -0.742602,-0.3708 -1.2243955,-0.63891 -1.3479311,-0.75009 -0.1385157,-0.12468 -0.1469905,-0.14318 -0.1354496,-0.29572 0.00678,-0.0895 0.040457,-0.18693 0.074862,-0.21649 0.1011376,-0.0869 0.386867,-0.0368 0.7000877,0.12272 0.412048,0.20987 1.265572,0.58589 1.287383,0.56715 0.0213,-0.0183 -0.246617,-0.27821 -0.60716,-0.58898 -0.291784,-0.2515 -0.357737,-0.37144 -0.289576,-0.52657 0.113286,-0.25785 0.354137,-0.19081 0.947579,0.26372 0.400069,0.30642 1.840269,1.21136 2.438676,1.53231 0.313352,0.16807 0.565064,0.25796 1.307167,0.46682 0.837531,0.23571 0.918513,0.26615 0.912696,0.34306 -0.0056,0.074 -0.01572,0.0834 -0.08239,0.0765 -0.19406,-0.02 -1.750346,-0.46941 -1.94328,-0.56113 -0.521341,-0.24787 -2.322671,-1.36037 -2.749811,-1.69828 -0.4637,-0.36684 -0.636005,-0.44708 -0.647034,-0.30133 -0.0035,0.0465 0.07621,0.12995 0.325127,0.34041 0.181383,0.15337 0.449291,0.4041 0.595355,0.55721 0.243931,0.25568 0.263115,0.2847 0.235428,0.35618 -0.01657,0.0428 -0.05522,0.0817 -0.08587,0.0866 -0.06464,0.0102 -1.2793,-0.50522 -1.668562,-0.708 -0.3319144,-0.1729 -0.4634463,-0.21122 -0.5297079,-0.15428 -0.1280023,0.11 0.058139,0.25328 0.8892599,0.68448 1.028044,0.53338 1.107905,0.58241 1.10084,0.67582 -0.01448,0.19133 -0.0501,0.18468 -1.359544,-0.25369 -1.059384,-0.35465 -1.0892587,-0.36276 -1.1489622,-0.31145 -0.1305571,0.11219 0.2483889,0.349 1.0433432,0.65198 0.883994,0.33692 1.14401,0.45899 1.156713,0.54304 0.03317,0.21954 -0.167001,0.22692 -1.331411,0.0491 -0.3434556,-0.0524 -0.6932655,-0.0947 -0.7773577,-0.0938 -0.1795767,0.002 -0.2839167,0.0727 -0.2187559,0.14854 0.086496,0.10066 0.7412977,0.28088 1.5714326,0.43251 0.750927,0.13716 1.101866,0.29261 1.200466,0.53172 0.07718,0.18717 -0.0018,0.31241 -0.414372,0.65742 -0.38509,0.32202 -0.499225,0.47731 -0.490948,0.66807 0.0053,0.12079 0.0092,0.12604 0.100968,0.13294 0.07509,0.005 0.179123,-0.0544 0.486549,-0.2806 0.353022,-0.25977 0.451303,-0.31215 1.01078,-0.5386 0.709599,-0.28722 1.238489,-0.44547 1.452654,-0.43461 0.350185,0.0177 1.700313,0.43621 1.715361,0.53168 0.01997,0.12672 -0.108325,0.12542 -0.471409,-0.005 z m -2.679424,2.06285 c -0.151186,-0.0114 -0.292257,-0.0467 -0.321069,-0.0802 -0.06918,-0.0805 -0.03503,-0.5576 0.04495,-0.62796 0.07225,-0.0634 0.580589,-0.0392 0.640549,0.0305 0.05016,0.0584 0.0085,0.60932 -0.04989,0.65948 -0.02467,0.0212 -0.16621,0.0294 -0.314536,0.0181 z m 0.184175,-0.35833 0.01234,-0.16309 -0.168932,-0.017 -0.168935,-0.017 -0.01492,0.16515 -0.01493,0.16515 0.165042,0.0175 c 0.09077,0.01 0.167959,0.0164 0.171522,0.0149 0.0036,-10e-4 0.01203,-0.0759 0.01882,-0.16561 z m -2.8173891,1.69548 c -0.063027,-0.034 -0.066457,-0.0769 -0.055634,-0.69304 0.011494,-0.65349 -0.039485,-1.01321 -0.177267,-1.25091 -0.1618994,-0.27931 -1.1521063,-1.37289 -1.3736559,-1.51706 -0.5906305,-0.38433 -0.5986946,-0.39115 -0.6391681,-0.54034 -0.075094,-0.2768 0.1510231,-0.45734 0.519007,-0.41439 0.2082094,0.0243 0.3210529,0.075 0.9513594,0.42733 l 0.1669611,0.0933 0.033625,-0.15828 c 0.040197,-0.18924 0.1860814,-0.34714 0.2646307,-0.28643 0.035351,0.0273 0.032653,0.08 -0.00832,0.1626 -0.1184754,0.23874 -0.071844,0.38191 0.1941379,0.59607 0.1189271,0.0958 0.1221411,0.10738 0.1006995,0.36388 -0.038171,0.45662 0.1582215,0.71502 0.5845375,0.7691 0.109704,0.014 0.215767,0.0113 0.2357,-0.006 0.01993,-0.0171 0.0701,-0.0254 0.111486,-0.0183 0.06208,0.0105 0.0741,0.0279 0.06869,0.0993 -0.006,0.0798 -0.02292,0.0892 -0.216303,0.11961 -0.128,0.0201 -0.290757,0.007 -0.417588,-0.0329 -0.176201,-0.0559 -0.232559,-0.0947 -0.3702708,-0.25496 -0.1327948,-0.15453 -0.1691078,-0.226 -0.1989811,-0.39163 -0.020099,-0.11144 -0.021194,-0.26478 -0.0024,-0.34077 0.02411,-0.0976 0.016265,-0.1468 -0.026718,-0.16762 -0.033461,-0.0162 -0.1117743,-0.0824 -0.1740264,-0.14705 -0.062254,-0.0646 -0.1549498,-0.12282 -0.2059964,-0.12925 -0.051047,-0.006 -0.2447348,-0.0982 -0.4304218,-0.20395 -0.1856837,-0.10573 -0.4060996,-0.22033 -0.4898125,-0.25467 -0.2764021,-0.11334 -0.5284266,-0.046 -0.5012002,0.13394 0.00786,0.0519 0.089917,0.12021 0.3005183,0.2501 0.4070576,0.25105 0.5866925,0.41814 1.1386681,1.05914 0.6241462,0.72482 0.693645,0.84905 0.7349328,1.31389 0.04204,0.47338 0.02827,1.37298 -0.021686,1.4159 -0.021509,0.0185 -0.064485,0.0199 -0.095482,0.003 z m -0.6630426,-1.31207 c -0.4811351,-0.16864 -0.8487907,-0.62801 -0.9257957,-1.15676 l -0.031249,-0.21457 -0.1695119,-0.024 c -0.3742865,-0.0529 -0.6266381,-0.47351 -0.4928865,-0.82154 0.1013642,-0.26376 0.2762226,-0.21169 0.1972755,0.0587 -0.052972,0.18144 0.00938,0.41111 0.13587,0.50047 0.044303,0.0313 0.1569401,0.0677 0.2503026,0.0809 0.2129419,0.0301 0.2855171,0.11337 0.303419,0.34816 0.033933,0.44498 0.3613741,0.87966 0.7754966,1.02946 0.2373067,0.0858 0.2796615,0.13423 0.1871288,0.21374 -0.033968,0.0292 -0.1207899,0.0237 -0.2300422,-0.0147 z m 5.0036087,-4.66235 c -0.02049,-0.0238 -0.04434,-0.12863 -0.05301,-0.23287 -0.03529,-0.42431 -0.312814,-0.724 -0.691712,-0.74696 -0.301907,-0.0183 -0.374232,-0.11662 -0.302716,-0.41152 0.06786,-0.27982 0.01897,-0.50304 -0.15437,-0.70475 -0.261732,-0.30458 -0.674476,-0.36381 -1.018789,-0.1462 -0.161743,0.10222 -0.241969,0.10342 -0.24368,0.003 -0.0014,-0.0825 0.08406,-0.15323 0.304564,-0.25202 0.663724,-0.29737 1.423871,0.26561 1.331357,0.98603 -0.01436,0.11178 -0.03887,0.22478 -0.05448,0.2511 -0.02042,0.0344 0.02842,0.0552 0.174253,0.0739 0.283625,0.0364 0.50597,0.16398 0.65172,0.37383 0.184646,0.26586 0.264322,0.70295 0.146582,0.80413 -0.02885,0.0248 -0.06922,0.0255 -0.08971,0.002 z m -6.2767071,3.90488 c -0.1744775,-0.0187 -0.3052861,-0.18372 -0.2735178,-0.34506 0.028091,-0.14271 0.1391479,-0.2536 0.2637715,-0.26341 0.135315,-0.0107 0.1429472,0.0851 0.01551,0.19462 -0.1006588,0.0865 -0.1059115,0.10399 -0.050596,0.16835 0.051737,0.0602 0.080013,0.0602 0.1746476,-1.7e-4 0.1035498,-0.0661 0.1273525,-0.0614 0.1892825,0.0372 0.011205,0.0178 -0.029084,0.0749 -0.089547,0.1269 -0.077755,0.0668 -0.1449387,0.0907 -0.2295541,0.0816 z m 5.7392581,-5.24697 c -0.108266,-0.0313 -0.113101,-0.0371 -0.09491,-0.11493 0.01054,-0.0451 3.21e-4,-0.088 -0.02269,-0.0953 -0.05827,-0.0185 -0.04064,-0.17224 0.02634,-0.22981 0.08131,-0.0699 0.258706,-0.0435 0.339373,0.0503 0.149914,0.17445 -0.02764,0.45334 -0.248113,0.38973 z m 0.112385,-0.25703 c -0.03215,-0.0374 -0.0877,-0.0329 -0.100724,0.008 -0.01393,0.044 0.05526,0.0726 0.09426,0.0391 0.01488,-0.0127 0.01778,-0.034 0.0064,-0.0472 z m -4.9310908,3.23202 c -0.6864402,-0.11177 -0.9915119,-0.93011 -0.5269873,-1.41364 0.088055,-0.0916 0.096933,-0.12385 0.057037,-0.20674 -0.1072136,-0.22277 0.00851,-0.54421 0.2237326,-0.62143 0.1734603,-0.0622 0.2039675,0.0521 0.050596,0.18967 -0.1333391,0.11958 -0.16279,0.27984 -0.071034,0.38662 0.082871,0.0964 0.042189,0.25793 -0.094574,0.37546 -0.1389217,0.11938 -0.2101421,0.31415 -0.1944028,0.53164 0.00726,0.10037 0.046714,0.17515 0.1661875,0.315 0.1380132,0.16159 0.1817892,0.18973 0.3679472,0.23673 0.2094486,0.0528 0.2874736,0.12601 0.2076284,0.19462 -0.022796,0.0196 -0.1065545,0.025 -0.1861299,0.012 z m -1.9816267,0.72181 c -0.1085315,-0.008 -0.2169048,-0.0431 -0.2487242,-0.0802 -0.061979,-0.0721 -0.033946,-0.4462 0.038078,-0.50809 0.055902,-0.0481 0.4593621,-0.0175 0.5074012,0.0384 0.061891,0.072 0.033326,0.44606 -0.038799,0.50803 -0.037026,0.0318 -0.1494218,0.05 -0.257956,0.0418 z m 0.030811,-0.40723 c -0.105835,-0.008 -0.1069295,-0.007 -0.1147612,0.0957 -0.00778,0.1029 -0.00685,0.10397 0.098987,0.11198 0.105835,0.008 0.1069285,0.007 0.1147611,-0.0957 0.00779,-0.1029 0.00684,-0.10397 -0.098987,-0.11198 z m 0.4885263,-0.0407 c -0.020618,-0.002 -0.085197,-0.0584 -0.1435376,-0.12627 -0.277143,-0.32251 -0.3382228,-0.92643 -0.1323966,-1.30908 0.1968833,-0.36604 0.779826,-0.7859 0.8988524,-0.64739 0.058144,0.0676 0.019971,0.12506 -0.1221362,0.18366 -0.1761115,0.0726 -0.4450557,0.30355 -0.5675022,0.48742 -0.205058,0.30764 -0.1809013,0.77935 0.05839,1.14015 0.083177,0.12542 0.10863,0.19529 0.082934,0.22768 -0.020404,0.0257 -0.054003,0.0454 -0.074556,0.0439 z m 5.0190242,-4.57527 c -0.114082,-0.009 -0.225011,-0.0361 -0.246505,-0.0612 -0.0705,-0.082 -0.04215,-0.39599 0.0423,-0.46856 0.09321,-0.0801 0.39915,-0.0641 0.475631,0.0249 0.05218,0.0607 0.02746,0.4419 -0.03198,0.49297 -0.01762,0.0151 -0.125373,0.0205 -0.239454,0.0118 z m 0.115767,-0.28425 c 0.01043,-0.0828 0.0051,-0.0892 -0.0803,-0.098 -0.08043,-0.008 -0.09302,4.5e-4 -0.104383,0.074 -0.01049,0.0677 0.0023,0.0882 0.06792,0.10865 0.09795,0.0306 0.102676,0.0272 0.116758,-0.0846 z m -1.153539,0.8066 c -0.03296,-0.002 -0.08941,-0.0388 -0.125424,-0.0807 -0.07821,-0.091 -0.306963,-0.15879 -0.490883,-0.14543 -0.108231,0.008 -0.174555,0.0455 -0.358124,0.20323 -0.12391,0.10649 -0.236169,0.19175 -0.249501,0.18943 -0.01331,-0.002 -0.09858,-0.0209 -0.1894684,-0.0414 -0.090891,-0.0205 -0.2655466,-0.0165 -0.3881204,0.009 -0.1912915,0.0396 -0.2533109,0.0724 -0.437802,0.23195 -0.1647643,0.14261 -0.2299997,0.22421 -0.2795458,0.35041 -0.068472,0.17442 -0.082094,0.41703 -0.030251,0.53878 0.032202,0.0756 -0.044838,0.1759 -0.1174389,0.15286 -0.068549,-0.0217 -0.1198561,-0.31921 -0.092396,-0.53565 0.072165,-0.56879 0.7366091,-1.04502 1.3222655,-0.9477 0.209774,0.0348 0.211687,0.0343 0.350303,-0.11217 0.185127,-0.19553 0.514864,-0.28898 0.767217,-0.21742 0.207356,0.0588 0.45267,0.27313 0.40782,0.35632 -0.01579,0.0293 -0.05575,0.0511 -0.08865,0.0487 z m 0.423137,-0.80462 c -0.02583,-0.008 -0.03993,-0.0769 -0.03132,-0.15261 0.01734,-0.15248 -0.05771,-0.24748 -0.180822,-0.22888 -0.103001,0.0156 -0.140355,0.13498 -0.07464,0.23872 0.101407,0.16011 -0.03613,0.25838 -0.158379,0.11317 -0.193665,-0.23004 -0.01497,-0.55901 0.291072,-0.53586 0.204108,0.0155 0.339477,0.16163 0.32514,0.35113 -0.01043,0.1378 -0.09162,0.23954 -0.171055,0.21433 z m -5.1896871,4.20371 c -0.152712,0.0407 -0.3412911,-0.1448 -0.2376637,-0.23385 0.024591,-0.0211 0.084785,-0.0166 0.133758,0.01 0.1018294,0.0553 0.1600909,0.0251 0.1274892,-0.066 -0.014202,-0.0397 -0.061846,-0.0597 -0.1317518,-0.0553 -0.069908,0.005 -0.1175483,-0.0155 -0.1317532,-0.0552 -0.062988,-0.17611 0.3538101,-0.19328 0.4445153,-0.0183 0.092729,0.17889 0.00255,0.36338 -0.2045938,0.41867 z m 1.5582992,-1.70551 c -0.1100069,0.0238 -0.2790185,-0.0516 -0.2736906,-0.12198 0.00137,-0.0183 -0.037186,-0.0383 -0.085708,-0.0444 -0.1854642,-0.0234 -0.1670601,-0.35209 0.029148,-0.5207 0.1053917,-0.0906 0.3530725,-0.0944 0.468993,-0.007 0.1388806,0.10443 0.1931781,0.3275 0.116777,0.47975 -0.079145,0.1577 -0.1091558,0.18289 -0.2555287,0.2145 z m 0.081637,-0.44268 c -0.024956,-0.11239 -0.1506818,-0.1582 -0.2701179,-0.0984 -0.074505,0.0372 -0.09142,0.0723 -0.087404,0.1812 l 0.00496,0.13498 0.1555099,0.01 c 0.1263487,0.008 0.1611307,-0.005 0.185487,-0.0674 0.016485,-0.0426 0.021689,-0.11472 0.01156,-0.16034 z m 2.0606849,-1.62625 c -0.05641,-0.01 -0.178281,-0.0213 -0.270819,-0.025 -0.092538,-0.003 -0.189898,-0.0321 -0.2163547,-0.0628 -0.059358,-0.0691 -0.022994,-0.61619 0.044832,-0.67447 0.066518,-0.0572 0.6137137,-0.0125 0.6711607,0.0547 0.06431,0.0753 0.01433,0.60505 -0.06337,0.67181 -0.03458,0.0297 -0.109037,0.0459 -0.16545,0.0358 z m -0.11954,-0.59018 -0.186993,-0.0142 -0.01415,0.18699 -0.01415,0.187 0.186994,0.0141 0.186998,0.0141 0.01414,-0.187 0.01415,-0.18699 z m -3.3904113,3.26554 c -0.1455261,-0.011 -0.2871796,-0.0463 -0.3147902,-0.0784 -0.070854,-0.0825 -0.023653,-0.53227 0.063734,-0.60737 0.090453,-0.0777 0.5212047,-0.0489 0.5975764,0.0399 0.067054,0.078 0.043651,0.5578 -0.030314,0.62146 -0.028387,0.0244 -0.1706825,0.0354 -0.3162063,0.0244 z m 0.1851826,-0.37165 c 0.00734,-0.097 -0.00546,-0.1638 -0.029463,-0.15398 -0.055794,0.0228 -0.1803869,0.0126 -0.2334203,-0.0192 -0.025794,-0.0155 -0.047896,0.0505 -0.05693,0.16996 -0.013519,0.17868 -0.00866,0.19259 0.057469,0.16442 0.039723,-0.0169 0.1070784,-0.0172 0.149663,-6.8e-4 0.042585,0.0165 0.082443,0.0257 0.088574,0.0204 0.00613,-0.005 0.016978,-0.0867 0.024109,-0.1809 z"
       id="path8810"
       inkscape:connector-curvature="0" />
    <path
       style="fill:#ffffff;stroke-width:0.00238619;stroke-miterlimit:4;stroke-dasharray:none"
       d="m 37.962622,61.220483 c 0.06592,-2.466595 -0.07365,-4.402338 -0.374523,-5.194167 -0.286742,-0.754643 -1.034511,-1.76206 -2.879066,-3.878762 -1.6806,-1.928557 -2.313151,-2.495649 -4.133151,-3.705432 -0.82598,-0.549042 -0.943423,-0.689139 -0.859158,-1.024877 0.03025,-0.120508 0.1212,-0.206348 0.308959,-0.291585 0.539847,-0.245073 1.174836,-0.116028 2.254831,0.458238 1.607166,0.854578 2.654895,1.375362 2.766993,1.375362 0.144246,0 0.472429,0.233399 1.053664,0.74935 l 0.439355,0.390007 0.0012,0.992901 c 0.001,0.872399 0.01782,1.03362 0.138312,1.328409 0.264317,0.64666 1.033309,1.509444 1.565631,1.756587 0.734922,0.341205 1.892008,0.430972 2.5896,0.200902 0.242847,-0.08009 0.253277,-0.09481 0.271791,-0.383421 0.01785,-0.278219 0.0063,-0.305079 -0.157836,-0.367885 -0.126213,-0.04829 -0.242677,-0.04822 -0.405385,2.53e-4 -0.52687,0.156924 -1.459967,0.03751 -2.06394,-0.264124 -0.335165,-0.16739 -0.741462,-0.597944 -0.897825,-0.951428 -0.181969,-0.411371 -0.247732,-0.989046 -0.206331,-1.812458 l 0.03803,-0.756291 -0.599464,-0.583449 c -0.758385,-0.738126 -0.886923,-1.011013 -0.732617,-1.555361 0.05518,-0.194653 0.152741,-0.488944 0.216809,-0.653979 0.131095,-0.337697 0.0812,-0.505407 -0.161065,-0.541337 -0.347013,-0.05147 -0.763457,0.502342 -0.925526,1.230811 l -0.103887,0.46695 -0.261534,-0.15192 c -0.622669,-0.361698 -2.377124,-1.292641 -2.727965,-1.447505 -0.631345,-0.278679 -1.127115,-0.378988 -1.730533,-0.350138 -0.958914,0.04585 -1.453235,0.416205 -1.504674,1.127343 l -0.02669,0.369034 -0.24521,-0.310215 c -0.134865,-0.170627 -0.24521,-0.328854 -0.24521,-0.351625 0,-0.02277 -0.143601,-0.275568 -0.319113,-0.56177 -0.892676,-1.455655 -0.9625,-3.101306 -0.181608,-4.280238 0.261056,-0.394122 1.220832,-1.290956 1.664813,-1.555634 0.310516,-0.185113 0.381345,-0.205306 0.487539,-0.138986 0.110994,0.06932 0.19162,0.01835 0.755969,-0.477902 0.93712,-0.824038 0.874873,-0.798661 0.878167,-0.358007 0.0015,0.203898 0.04371,0.484366 0.09375,0.623262 0.144447,0.400948 0.11614,0.514242 -0.23337,0.934 -0.617992,0.742201 -0.869889,1.576599 -0.744061,2.464672 0.192325,1.357396 1.180843,2.437228 2.551455,2.787147 0.480208,0.122598 0.789874,0.121888 0.967056,-0.0022 0.354219,-0.248105 0.07335,-0.515227 -0.830823,-0.790161 -0.63546,-0.193226 -0.64132,-0.196854 -1.124162,-0.696095 -0.278988,-0.288463 -0.557865,-0.650027 -0.65586,-0.850321 -0.155625,-0.318086 -0.167616,-0.394493 -0.137548,-0.876442 0.04212,-0.675163 0.22052,-1.074284 0.73289,-1.639665 0.542408,-0.598526 0.638556,-1.044125 0.314253,-1.456409 -0.171013,-0.217408 -0.211064,-0.579133 -0.09446,-0.853097 0.05173,-0.121534 0.240447,-0.388101 0.419375,-0.592371 0.275821,-0.314887 0.322476,-0.40445 0.306611,-0.588598 -0.0164,-0.190384 0.01846,-0.249754 0.28239,-0.480916 l 0.301103,-0.263717 -0.17602,-0.244638 c -0.154536,-0.214779 -0.17868,-0.312131 -0.197811,-0.797593 -0.04935,-1.252222 0.292828,-1.935217 1.434795,-2.863912 0.535931,-0.435842 0.816456,-0.574345 1.412748,-0.697513 0.595653,-0.123035 1.220673,-0.124453 1.719934,-0.0039 0.208344,0.05031 0.423558,0.09191 0.478254,0.09245 0.0547,5.43e-4 0.438238,-0.271642 0.852316,-0.604853 0.414078,-0.333212 0.858277,-0.659933 0.987109,-0.726047 0.290031,-0.14884 1.020673,-0.162584 1.474736,-0.02774 0.297103,0.08823 0.328426,0.120042 0.683809,0.69448 0.204843,0.331107 0.395305,0.602013 0.42325,0.602013 0.02794,0 0.556394,-0.111178 1.174335,-0.247063 0.762336,-0.167637 1.499013,-0.384166 2.291517,-0.673535 0.642393,-0.23456 1.239015,-0.421905 1.325825,-0.416324 0.306099,0.01968 1.05219,0.445668 1.413664,0.807141 0.729342,0.729342 0.991239,1.638942 0.77059,2.676356 -0.152523,0.71711 -0.135273,1.085782 0.06176,1.319942 0.176106,0.20929 0.644581,0.384149 1.032657,0.385439 0.299013,9.95e-4 0.791663,0.136179 1.13393,0.311153 0.70573,0.360784 1.305471,1.240656 1.45667,2.137061 0.0734,0.435193 0.0718,0.446107 -0.122511,0.831026 l -0.196892,0.390042 -0.549442,-0.296876 c -2.051783,-1.108626 -7.156672,-4.333496 -8.8832,-5.611712 -1.752501,-1.297444 -2.501481,-1.661783 -3.06753,-1.49219 -0.466044,0.13963 -0.744043,0.800253 -0.541126,1.285903 0.156739,0.375128 0.448935,0.692635 1.459154,1.585547 1.174521,1.038135 1.907854,1.760595 1.817623,1.790672 -0.121564,0.04052 -2.928831,-1.186363 -4.381202,-1.914754 -1.011024,-0.507047 -1.742002,-0.740865 -2.336759,-0.747457 -0.421221,-0.0047 -0.503777,0.01331 -0.63781,0.138939 -0.202797,0.190076 -0.298869,0.530493 -0.298869,1.059005 v 0.431044 l 0.332686,0.322231 c 0.496414,0.480815 2.005405,1.357747 4.393384,2.553163 0.567986,0.284332 1.019278,0.53039 1.002872,0.546796 -0.01641,0.01641 -0.921485,-0.280661 -2.011285,-0.660149 -3.360907,-1.170327 -4.136431,-1.396435 -4.790944,-1.396824 -0.616748,-3.79e-4 -0.882537,0.289675 -0.883531,0.964151 -0.0015,0.995182 0.948495,1.61325 4.924141,3.203765 1.059082,0.423701 1.99663,0.808588 2.08344,0.855306 0.157331,0.08467 0.157102,0.08495 -0.07143,0.08747 -0.126098,0.0014 -0.807951,-0.08074 -1.515228,-0.182517 -2.170067,-0.312266 -3.074441,-0.400994 -4.158583,-0.408 -0.886145,-0.0057 -1.072274,0.01 -1.246312,0.105066 -0.259136,0.141605 -0.381229,0.328253 -0.445947,0.681736 -0.105692,0.577277 0.124668,0.954161 0.800576,1.309791 0.750629,0.394945 1.796313,0.682815 4.743817,1.305944 2.374222,0.501932 3.511334,0.786861 3.978214,0.99683 0.467986,0.210467 0.856288,0.506089 0.980657,0.746591 0.09704,0.18766 0.09596,0.208625 -0.01875,0.364268 -0.06695,0.09083 -0.698875,0.679948 -1.404284,1.309147 -0.788643,0.703441 -1.371113,1.275731 -1.512504,1.486067 -0.426865,0.63502 -0.63144,1.614979 -0.441877,2.116699 0.09195,0.243379 0.363355,0.517227 0.619255,0.624843 0.117094,0.04924 0.408302,0.08953 0.647129,0.08953 h 0.434232 v 0.224106 c 0,0.440018 0.383526,0.879798 1.069042,1.225846 0.208064,0.10503 0.403911,0.240813 0.435216,0.30174 0.0313,0.06093 0.07416,0.636372 0.09523,1.278766 0.03614,1.101835 0.24284,3.82301 0.351678,4.629866 0.04584,0.339813 0.03945,0.371965 -0.08264,0.415883 -0.07278,0.02618 -1.439208,0.181324 -3.036512,0.344766 -1.597304,0.163442 -2.96101,0.308922 -3.030458,0.323288 -0.123577,0.02556 -0.125596,9.4e-4 -0.0947,-1.154993 z"
       id="path8814"
       inkscape:connector-curvature="0"
       transform="matrix(0.26458333,0,0,0.26458333,0,280.06665)" />
    <path
       style="fill:#ffffff;stroke-width:0.00238619;stroke-miterlimit:4;stroke-dasharray:none"
       d="m 37.951258,60.530251 c 0.02973,-2.766388 -0.107803,-4.060757 -0.516072,-4.856893 -0.352171,-0.686742 -1.281148,-1.875731 -2.938009,-3.76033 -1.470724,-1.672876 -2.150753,-2.28293 -3.63719,-3.26292 -0.970404,-0.639776 -1.167988,-0.818401 -1.167988,-1.055912 0,-0.255157 0.106053,-0.38454 0.41051,-0.500812 0.35842,-0.136882 0.895623,-0.09214 1.415663,0.117918 0.200079,0.08081 0.902429,0.435852 1.560777,0.788971 0.658348,0.353118 1.380159,0.715655 1.604024,0.805638 0.636039,0.255655 0.775179,0.342537 1.350066,0.843009 l 0.538379,0.468689 -0.03795,0.730867 c -0.06616,1.274138 0.120363,1.823459 0.900894,2.653169 0.52736,0.560587 0.897462,0.775054 1.591254,0.922101 0.508061,0.107682 1.024749,0.115368 1.475066,0.02194 0.499899,-0.103714 0.618669,-0.200052 0.618669,-0.501817 0,-0.217418 -0.02421,-0.261909 -0.17362,-0.319079 -0.122177,-0.04675 -0.241263,-0.04629 -0.401915,0.0016 -0.295372,0.08797 -0.907108,0.08684 -1.331177,-0.0025 -0.799245,-0.168309 -1.428181,-0.674833 -1.699738,-1.36891 -0.127118,-0.324905 -0.139954,-0.461128 -0.131763,-1.398421 l 0.0091,-1.038451 -0.56319,-0.539912 c -0.87065,-0.834666 -0.959409,-1.141414 -0.594227,-2.053623 0.173954,-0.434527 0.178116,-0.582673 0.01918,-0.682745 -0.296088,-0.186433 -0.778899,0.306297 -0.973905,0.993914 -0.05955,0.209986 -0.12623,0.444059 -0.148173,0.520164 -0.03805,0.131961 -0.08231,0.114804 -0.95535,-0.370361 -1.296958,-0.720743 -2.368998,-1.234695 -2.806967,-1.345702 -0.744121,-0.188604 -1.611808,-0.09485 -2.057176,0.222282 -0.250338,0.178256 -0.435948,0.574651 -0.437771,0.934921 l -0.0014,0.273991 -0.23895,-0.305558 C 28.289697,47.02736 27.702483,45.96379 27.549848,45.50491 c -0.344549,-1.035848 -0.297538,-2.08052 0.132289,-2.939663 0.294117,-0.587885 1.366418,-1.640899 2.005969,-1.969889 0.168385,-0.08662 0.242496,-0.09578 0.330433,-0.04087 0.09682,0.06047 0.221763,-0.02283 0.856218,-0.570802 l 0.742854,-0.641599 0.03842,0.436516 c 0.02113,0.240083 0.07085,0.516494 0.110485,0.614246 0.127743,0.315061 0.08577,0.486985 -0.201579,0.825616 -0.572227,0.674356 -0.802574,1.273101 -0.804154,2.090246 -0.0029,1.516236 1.034591,2.81951 2.561117,3.21712 0.475922,0.123962 0.787085,0.123692 0.964876,-8.4e-4 0.353085,-0.24731 0.09125,-0.497366 -0.820676,-0.783762 -0.639034,-0.200692 -0.656268,-0.211281 -1.129332,-0.693905 -0.287973,-0.293791 -0.550678,-0.633754 -0.65586,-0.848738 -0.161189,-0.32946 -0.172785,-0.40159 -0.142525,-0.886614 0.04097,-0.656736 0.220795,-1.075658 0.678837,-1.581444 0.573752,-0.633557 0.680482,-1.060412 0.373084,-1.492113 -0.177356,-0.249074 -0.219313,-0.605666 -0.103291,-0.877872 0.05127,-0.120292 0.241437,-0.386666 0.422589,-0.591942 0.286011,-0.324099 0.326031,-0.401804 0.304025,-0.590305 -0.02269,-0.194326 0.0061,-0.243595 0.274767,-0.470131 l 0.300108,-0.253056 -0.169996,-0.256728 c -0.307372,-0.464188 -0.267776,-1.613313 0.08156,-2.366871 0.249208,-0.537578 1.190442,-1.442148 1.846286,-1.774368 0.59797,-0.302903 1.712342,-0.407622 2.447847,-0.230028 0.208344,0.05031 0.421423,0.09239 0.473509,0.09353 0.05209,0.0011 0.435628,-0.270671 0.852316,-0.604011 0.416688,-0.333339 0.863022,-0.659976 0.991854,-0.725859 0.29094,-0.148784 1.023079,-0.161878 1.474718,-0.02638 0.29565,0.0887 0.330419,0.123716 0.689612,0.69448 0.208045,0.330589 0.397629,0.601069 0.421296,0.601069 0.02367,0 0.558112,-0.115033 1.187654,-0.25563 0.770474,-0.172072 1.509838,-0.390544 2.261921,-0.668368 0.614515,-0.227006 1.200625,-0.412035 1.302467,-0.411177 0.101842,8.59e-4 0.394897,0.105216 0.651234,0.231904 0.605889,0.299447 1.072029,0.765027 1.369134,1.367488 0.297284,0.602825 0.345644,1.07836 0.194839,1.915914 -0.227381,1.262848 -0.04806,1.525215 1.142009,1.670881 1.059545,0.12969 1.778486,0.619625 2.228444,1.518611 0.146769,0.293236 0.274862,0.666408 0.319415,0.930547 0.0733,0.434567 0.07155,0.446601 -0.120434,0.826912 -0.107149,0.212261 -0.205359,0.385928 -0.218244,0.385928 -0.04899,0 -1.52,-0.839071 -2.447844,-1.396264 -2.72367,-1.635628 -5.701934,-3.569989 -7.312763,-4.749589 -1.940132,-1.420745 -2.797233,-1.627847 -3.195673,-0.772175 -0.171893,0.369154 -0.1845,0.528388 -0.06427,0.81179 0.144751,0.341198 0.532076,0.756011 1.586512,1.699107 1.245669,1.114138 1.781736,1.645721 1.690327,1.676191 -0.123007,0.041 -1.991001,-0.766184 -4.057509,-1.753305 -0.711842,-0.34003 -1.507337,-0.683119 -1.767767,-0.762419 -0.568613,-0.173143 -1.30891,-0.201398 -1.483898,-0.05664 -0.214194,0.177194 -0.344152,0.57401 -0.345617,1.055307 -0.0013,0.421412 0.01344,0.472411 0.196535,0.680949 0.402616,0.458554 1.880932,1.336763 4.369418,2.595699 0.654303,0.331014 1.176659,0.614828 1.160789,0.630697 -0.01587,0.01587 -1.062597,-0.329503 -2.326064,-0.767494 -2.753514,-0.954529 -3.656338,-1.222067 -4.288713,-1.270899 -0.615118,-0.0475 -0.824778,0.04915 -0.978227,0.450954 -0.146235,0.382912 -0.09969,0.836717 0.119851,1.168463 0.430234,0.650128 1.634716,1.296604 4.712347,2.529241 1.059082,0.424178 1.99663,0.80923 2.08344,0.855673 0.155968,0.08344 0.154983,0.08447 -0.08326,0.08697 -0.1326,0.0014 -0.828658,-0.0814 -1.546796,-0.183986 -2.153675,-0.307643 -3.084566,-0.398837 -4.146759,-0.406232 -0.908821,-0.0063 -1.032318,0.0058 -1.231123,0.121385 -0.284658,0.165428 -0.44172,0.481149 -0.441844,0.888183 -3.03e-4,0.997041 1.025917,1.432725 5.713577,2.42571 2.23217,0.47284 3.364897,0.75853 3.821305,0.96379 0.465711,0.209444 0.856138,0.505798 0.978764,0.74293 0.138222,0.267292 0.09358,0.326064 -0.963467,1.268476 -0.478103,0.426253 -1.141153,1.045992 -1.473444,1.377196 -0.515229,0.513545 -0.629545,0.66619 -0.776577,1.036954 -0.185437,0.46761 -0.272061,1.084679 -0.203539,1.449929 0.09786,0.521652 0.612349,0.857984 1.31596,0.860274 l 0.426158,0.0014 v 0.243066 c 0,0.419542 0.412999,0.874338 1.118371,1.231554 0.181054,0.09169 0.354742,0.216465 0.385972,0.277278 0.03123,0.06081 0.07406,0.621961 0.09517,1.246993 0.03601,1.065842 0.22976,3.63279 0.347107,4.598634 0.04914,0.404428 0.04414,0.434764 -0.07898,0.479294 -0.07229,0.02615 -1.42412,0.180888 -3.004062,0.34387 -1.579942,0.162982 -2.943647,0.310248 -3.030457,0.327259 l -0.157837,0.03093 z"
       id="path8816"
       inkscape:connector-curvature="0"
       transform="matrix(0.26458333,0,0,0.26458333,0,280.06665)" />
    <path
       style="fill:#ffffff;stroke-width:0.00238619;stroke-miterlimit:4;stroke-dasharray:none"
       d="M 37.950683,60.556906 C 37.971121,58.637413 37.899251,57.320105 37.733,56.566971 37.527663,55.636778 37.003249,54.84112 35.234063,52.775498 33.417933,50.655066 32.570839,49.82569 31.417268,49.03853 29.931532,48.024713 29.789257,47.916164 29.73171,47.752529 c -0.163083,-0.463724 0.28333,-0.792475 0.998186,-0.735093 0.505784,0.0406 0.911905,0.211117 2.425016,1.01819 0.693361,0.36983 1.452953,0.744798 1.687983,0.833263 0.492189,0.18526 0.636586,0.280616 1.251045,0.826168 l 0.448155,0.397896 0.0024,0.964166 c 0.002,0.77054 0.02554,1.02756 0.117438,1.279838 0.239449,0.657324 1.049076,1.574367 1.631775,1.848268 0.331451,0.1558 1.132011,0.329874 1.517081,0.329874 0.387126,0 0.998094,-0.119039 1.166462,-0.22727 0.108436,-0.0697 0.142053,-0.151103 0.142053,-0.343959 0,-0.214219 -0.02506,-0.262172 -0.164739,-0.315279 -0.109497,-0.04163 -0.241815,-0.04122 -0.394591,0.0012 -0.303769,0.08437 -0.931443,0.08166 -1.347382,-0.0058 -0.809012,-0.17016 -1.424714,-0.666056 -1.699738,-1.368995 -0.12707,-0.32478 -0.139954,-0.461251 -0.131797,-1.396006 l 0.009,-1.036037 -0.563153,-0.542326 c -0.557436,-0.536821 -0.81712,-0.935222 -0.820152,-1.258258 -7.64e-4,-0.08125 0.0857,-0.399261 0.192146,-0.706701 0.209195,-0.604223 0.189415,-0.818646 -0.07552,-0.818646 -0.345428,0 -0.721821,0.528446 -0.909985,1.277593 -0.05875,0.233902 -0.124771,0.415095 -0.146714,0.402652 -0.699321,-0.396593 -2.418965,-1.311066 -2.81013,-1.494373 -1.027037,-0.481285 -1.98094,-0.565044 -2.697745,-0.23688 -0.426501,0.195258 -0.62572,0.480954 -0.680847,0.976387 l -0.03836,0.344731 -0.223421,-0.303599 c -0.351585,-0.477756 -0.923191,-1.528005 -1.067127,-1.960701 -0.346227,-1.040822 -0.299492,-2.073113 0.132994,-2.937571 0.291217,-0.582088 1.36621,-1.640862 1.993542,-1.963463 0.11983,-0.06162 0.267809,-0.08938 0.357057,-0.06698 0.126799,0.03182 0.269553,-0.06344 0.849434,-0.566871 0.383362,-0.332818 0.712768,-0.605125 0.732015,-0.605125 0.01925,0 0.03499,0.137538 0.03499,0.305639 0,0.168102 0.04231,0.445104 0.09402,0.615562 0.141626,0.466858 0.120644,0.571536 -0.191324,0.954509 -0.57979,0.711753 -0.786578,1.247227 -0.786578,2.036826 0,0.915783 0.3246,1.705264 0.964038,2.344703 0.862659,0.862658 2.598585,1.317854 2.68616,0.704366 0.02668,-0.186905 -0.233284,-0.340948 -0.998548,-0.591688 -0.575852,-0.188679 -0.618942,-0.216045 -1.080173,-0.686007 -0.287435,-0.292876 -0.550528,-0.632834 -0.654997,-0.846362 -0.157974,-0.322886 -0.17199,-0.406386 -0.147181,-0.876794 0.03419,-0.648321 0.220199,-1.082393 0.68263,-1.593027 0.572106,-0.631738 0.680329,-1.060626 0.375616,-1.488557 -0.309286,-0.434352 -0.223708,-0.857464 0.294164,-1.454395 0.301603,-0.347645 0.346572,-0.432633 0.325561,-0.615287 -0.02153,-0.187158 0.01041,-0.241893 0.273285,-0.468326 l 0.297662,-0.2564 -0.167499,-0.252955 c -0.142555,-0.215282 -0.170746,-0.334839 -0.189291,-0.802775 -0.04461,-1.125725 0.217617,-1.74703 1.075055,-2.547125 0.314126,-0.293119 0.737782,-0.621764 0.941459,-0.730322 0.686718,-0.366017 1.717326,-0.47849 2.582128,-0.281795 0.520114,0.118297 0.465877,0.141226 1.365864,-0.577413 0.371987,-0.29703 0.784013,-0.594987 0.915614,-0.662124 0.295545,-0.150776 1.023266,-0.165252 1.479754,-0.02944 0.292225,0.08695 0.332674,0.126314 0.658587,0.640997 0.190982,0.3016 0.363931,0.57374 0.384331,0.604755 0.07591,0.115406 2.156612,-0.400163 3.435309,-0.851219 0.69448,-0.244976 1.33274,-0.440412 1.418356,-0.434302 0.226195,0.01614 0.905464,0.348116 1.208193,0.590471 0.311861,0.249665 0.752021,0.857503 0.903834,1.248147 0.165286,0.425314 0.192849,1.026525 0.0756,1.648972 -0.127167,0.675088 -0.128598,0.960096 -0.006,1.197152 0.136902,0.264741 0.498174,0.423568 1.142977,0.50249 1.058459,0.129553 1.777648,0.619839 2.227436,1.518486 0.146769,0.293236 0.274862,0.666408 0.319415,0.930547 0.0733,0.434567 0.07155,0.446601 -0.120434,0.826912 -0.10715,0.212261 -0.211002,0.385928 -0.230784,0.385928 -0.06646,0 -1.939337,-1.087309 -3.242412,-1.882402 -2.548705,-1.555133 -4.775824,-3.016076 -6.758194,-4.433231 -1.048412,-0.749487 -1.723981,-1.087026 -2.189094,-1.093749 -0.324048,-0.0047 -0.364867,0.01167 -0.559707,0.224279 -0.115592,0.126133 -0.244954,0.345443 -0.287472,0.487356 -0.164954,0.550567 0.07048,0.88022 1.645498,2.304055 1.240723,1.121625 1.751706,1.630255 1.667192,1.659514 -0.131451,0.04551 -1.803667,-0.672621 -4.025564,-1.728768 -1.393709,-0.662479 -1.77276,-0.806371 -2.374903,-0.90154 -0.903962,-0.142873 -1.201366,0.106331 -1.250794,1.048079 l -0.02752,0.524234 0.348598,0.334947 c 0.498654,0.479127 2.208063,1.474708 4.519326,2.632111 0.498519,0.249641 0.892872,0.467419 0.876341,0.48395 -0.01653,0.01653 -1.092058,-0.336537 -2.390059,-0.784596 -3.655954,-1.262004 -4.349665,-1.428633 -4.886716,-1.173785 -0.142451,0.0676 -0.241803,0.179498 -0.309431,0.348517 -0.212841,0.531945 -0.09144,1.022268 0.364339,1.471524 0.609253,0.600531 1.471485,1.031473 4.618767,2.30845 1.032094,0.418762 1.923002,0.788524 1.979794,0.821693 0.190296,0.111141 -0.318198,0.07107 -1.931806,-0.152242 -2.138561,-0.295958 -2.858515,-0.363985 -3.962715,-0.37443 -0.843356,-0.008 -0.970425,0.0049 -1.160849,0.11731 -0.285855,0.1688 -0.449139,0.489986 -0.448846,0.882899 3.03e-4,0.410226 0.154867,0.661048 0.582183,0.944771 0.669386,0.444447 1.811727,0.774466 5.162824,1.491524 2.391072,0.511635 3.517798,0.804127 3.958824,1.027693 0.372001,0.188574 0.816539,0.589933 0.872583,0.787827 0.04858,0.171533 -0.211014,0.442298 -1.789442,1.866452 -0.531892,0.479906 -1.063236,1.004475 -1.180764,1.165709 -0.318793,0.437344 -0.557125,1.224317 -0.524752,1.732731 0.0461,0.724029 0.425561,1.054621 1.26785,1.104575 l 0.489293,0.02902 v 0.187534 c 0,0.440979 0.368995,0.867859 1.075834,1.2446 0.206574,0.110103 0.400259,0.24832 0.430411,0.307149 0.03015,0.05883 0.0724,0.594955 0.09388,1.191391 0.04266,1.18435 0.195836,3.250072 0.322205,4.345141 0.04408,0.381964 0.05685,0.720369 0.02837,0.752012 -0.02848,0.03164 -1.33845,0.192989 -2.911056,0.358548 -1.572606,0.16556 -2.972926,0.315741 -3.111822,0.333736 l -0.252538,0.03272 z"
       id="path8818"
       inkscape:connector-curvature="0"
       transform="matrix(0.26458333,0,0,0.26458333,0,280.06665)" />
    <path
       style="fill:#ffffff;stroke-width:0.00238619;stroke-miterlimit:4;stroke-dasharray:none"
       d="m 41.347075,52.710601 c -0.06252,-0.162913 -0.04374,-0.623004 0.03483,-0.853515 0.175506,-0.514916 0.581011,-0.961858 1.980994,-2.183424 1.273815,-1.111478 1.578776,-1.570374 1.424456,-2.143477 -0.134838,-0.50075 -0.546884,-0.919867 -1.260488,-1.28212 -0.566486,-0.28757 -1.654231,-0.584569 -3.502787,-0.956403 -3.734483,-0.751185 -5.690875,-1.313332 -5.829697,-1.675095 -0.05793,-0.150954 0.172196,-0.331924 0.499937,-0.393152 0.401836,-0.07507 1.120274,-0.0026 3.741816,0.377471 2.369065,0.343463 3.853911,0.452572 4.273678,0.314037 0.224653,-0.07414 0.36671,-0.274552 0.36671,-0.517343 0,-0.344202 -0.761409,-0.733597 -3.630236,-1.856553 -3.008258,-1.177534 -4.137744,-1.728239 -4.604727,-2.245133 -0.261571,-0.289528 -0.267369,-0.317171 -0.09856,-0.469937 0.114484,-0.103607 0.160962,-0.10696 0.489293,-0.0353 0.199535,0.04355 1.811729,0.557867 3.582653,1.142926 3.717812,1.22825 4.471482,1.449532 4.937005,1.449532 0.304571,0 0.343919,-0.01595 0.399425,-0.161947 0.108722,-0.285958 0.07144,-0.4675 -0.134647,-0.655736 -0.25193,-0.230101 -1.083682,-0.697141 -3.434016,-1.928241 -2.239692,-1.173145 -3.398503,-1.849134 -3.751765,-2.18858 -0.389172,-0.373952 -0.332585,-0.68447 0.124735,-0.68447 0.333124,0 0.505485,0.06824 2.082036,0.82434 2.315899,1.110681 5.549615,2.458656 5.898176,2.458656 0.178549,0 0.413475,-0.268492 0.413475,-0.472551 0,-0.07692 -0.08696,-0.2599 -0.193254,-0.406628 -0.29642,-0.409197 -1.744067,-1.832422 -2.874087,-2.825602 -0.956931,-0.841051 -1.352076,-1.232304 -1.352076,-1.338759 0,-0.02542 0.03788,-0.09803 0.08419,-0.161358 0.07418,-0.101446 0.111566,-0.1061 0.314459,-0.03914 0.30327,0.100088 0.960805,0.534031 1.968898,1.299383 1.288465,0.978213 3.987119,2.721817 7.007933,4.527834 1.539175,0.920208 3.197181,1.851012 3.478836,1.953016 0.10919,0.03954 0.242712,0.157595 0.301777,0.26681 0.104739,0.193669 0.141249,0.205477 3.228825,1.044237 1.717589,0.466595 3.152479,0.866642 3.188644,0.888993 0.0419,0.02589 -0.242089,1.088415 -0.782671,2.92833 -0.466634,1.58823 -0.859409,2.898673 -0.872833,2.912096 -0.02953,0.02953 -1.510733,-0.373829 -2.51323,-0.684402 -1.775237,-0.549967 -3.138725,-0.854813 -3.716036,-0.830824 -0.860137,0.03574 -2.85011,0.646883 -5.280635,1.621741 -1.738406,0.697255 -2.663044,1.184764 -3.819639,2.013875 -1.266096,0.907607 -1.542394,1.064938 -1.871498,1.065684 -0.18067,3.79e-4 -0.273419,-0.03029 -0.299889,-0.09927 z"
       id="path8820"
       inkscape:connector-curvature="0"
       transform="matrix(0.26458333,0,0,0.26458333,0,280.06665)" />
    <path
       style="fill:#ffffff;stroke-width:0.00238619;stroke-miterlimit:4;stroke-dasharray:none"
       d="m 43.810008,54.383101 c -0.26568,-0.06385 -0.707982,-0.3643 -1.031918,-0.70098 l -0.203729,-0.211743 0.625031,-0.486949 c 0.907929,-0.707349 1.870598,-1.316133 2.809455,-1.776678 1.806547,-0.886179 5.372057,-2.176528 6.172456,-2.233797 0.483376,-0.03458 0.497481,-0.01755 0.302262,0.365113 -0.144472,0.283189 -0.159447,0.42036 -0.04988,0.456883 0.12529,0.04176 -0.03993,0.754168 -0.29427,1.268856 -0.437291,0.884912 -1.172319,1.602111 -2.093422,2.042646 -0.348055,0.166464 -0.585496,0.229513 -1.057504,0.280803 -0.743492,0.08079 -1.647945,-0.0034 -2.060766,-0.191808 -0.159118,-0.07262 -0.418541,-0.13028 -0.58969,-0.131056 -0.299214,-0.0014 -0.317639,0.01023 -0.883883,0.555901 -0.318065,0.306508 -0.649325,0.602088 -0.736135,0.656845 -0.209829,0.132354 -0.605872,0.178572 -0.90801,0.105964 z"
       id="path8822"
       inkscape:connector-curvature="0"
       transform="matrix(0.26458333,0,0,0.26458333,0,280.06665)" />
    <path
       style="fill:#ffffff;stroke-width:0.00238619;stroke-miterlimit:4;stroke-dasharray:none"
       d="m 37.951898,60.721005 c 0.02212,-1.795512 -0.05852,-3.363371 -0.210408,-4.090899 -0.221718,-1.062001 -1.037017,-2.226898 -3.446601,-4.924494 -1.351632,-1.513188 -1.978337,-2.064552 -3.545219,-3.11902 -0.902012,-0.607028 -1.057671,-0.75463 -1.057671,-1.002923 0,-0.237076 0.104804,-0.369878 0.378242,-0.479286 0.613673,-0.245543 1.154376,-0.09195 2.873186,0.816177 0.69448,0.366924 1.461564,0.751624 1.704632,0.85489 0.719781,0.305791 0.805961,0.359662 1.381722,0.863708 l 0.550618,0.482035 -0.04237,0.634373 c -0.05451,0.816126 0.04313,1.459324 0.292578,1.92734 0.243532,0.456912 0.874945,1.155868 1.234547,1.36661 0.635693,0.372541 1.58017,0.533936 2.357397,0.40284 0.555894,-0.09376 0.71262,-0.220572 0.684612,-0.553923 -0.02244,-0.267036 -0.183528,-0.341539 -0.556024,-0.257154 -0.121534,0.02753 -0.419844,0.0504 -0.662912,0.05082 -1.134597,0.0019 -2.021329,-0.530014 -2.369473,-1.421465 -0.134056,-0.343261 -0.145911,-0.464989 -0.137628,-1.413259 l 0.0091,-1.037645 -0.531665,-0.498948 C 36.32611,48.821098 36.00549,48.336853 36.00549,48.032358 c 0,-0.07948 0.08474,-0.39957 0.188317,-0.71132 0.196463,-0.591337 0.195762,-0.730665 -0.004,-0.794065 -0.295792,-0.09388 -0.741814,0.41334 -0.917447,1.043332 -0.05324,0.190982 -0.116049,0.409398 -0.139568,0.485369 -0.04059,0.131121 -0.110025,0.10147 -1.368587,-0.584468 -1.912526,-1.042357 -2.585098,-1.277149 -3.45461,-1.205987 -0.805145,0.06589 -1.329778,0.451621 -1.406493,1.0341 -0.02192,0.166404 -0.04515,0.339792 -0.05162,0.385307 -0.03306,0.232426 -1.086059,-1.531677 -1.302321,-2.181798 -0.336576,-1.01181 -0.300245,-2.031451 0.102341,-2.872239 0.400666,-0.836775 1.923577,-2.190029 2.360513,-2.097544 0.135838,0.02875 0.27652,-0.06342 0.866858,-0.567954 0.387587,-0.331252 0.719468,-0.602276 0.737514,-0.602276 0.01805,0 0.03281,0.121879 0.03281,0.270841 0,0.148963 0.04262,0.434454 0.0947,0.634426 0.137635,0.528418 0.124665,0.592608 -0.198498,0.982378 -0.16126,0.194498 -0.392168,0.560595 -0.513128,0.813551 -0.184474,0.385778 -0.225054,0.54983 -0.251728,1.017651 -0.05792,1.015768 0.235898,1.784461 0.957528,2.505139 0.791414,0.790369 2.163104,1.268112 2.599975,0.905542 0.265796,-0.220592 -0.01166,-0.466922 -0.813539,-0.722265 -0.694048,-0.221006 -0.796589,-0.285055 -1.263137,-0.78897 -0.556682,-0.601268 -0.738444,-0.974292 -0.738444,-1.515485 0,-0.726635 0.196144,-1.174763 0.848924,-1.939524 0.155173,-0.181792 0.313516,-0.447082 0.351875,-0.589535 0.06352,-0.235886 0.05249,-0.294786 -0.123586,-0.65986 -0.106331,-0.220471 -0.19333,-0.474585 -0.19333,-0.564698 0,-0.252967 0.155439,-0.567442 0.428166,-0.866238 0.318448,-0.348888 0.412354,-0.532009 0.366502,-0.714695 -0.02959,-0.117883 0.0209,-0.197496 0.257052,-0.405368 l 0.293869,-0.258673 -0.167718,-0.331489 c -0.312671,-0.617983 -0.20519,-1.780888 0.233837,-2.53003 0.225113,-0.384127 1.158999,-1.242878 1.617217,-1.487106 0.691226,-0.368419 1.68719,-0.479938 2.590065,-0.290012 0.288655,0.06072 0.488374,0.07397 0.556555,0.03692 0.05849,-0.03178 0.431363,-0.315216 0.828611,-0.629852 0.397249,-0.314636 0.813495,-0.615355 0.924993,-0.668264 0.261862,-0.124262 1.039371,-0.126022 1.450655,-0.0033 0.291299,0.08693 0.33364,0.127876 0.657549,0.635853 0.190411,0.298616 0.37654,0.568116 0.413619,0.598889 0.04062,0.03371 0.492723,-0.04188 1.13746,-0.190197 1.133615,-0.260773 1.541137,-0.382295 2.806242,-0.836817 0.73661,-0.264646 0.806005,-0.278479 1.04172,-0.207659 0.972632,0.292224 1.777869,1.101431 2.01962,2.029578 0.123342,0.473539 0.120765,0.79405 -0.01275,1.58648 -0.09748,0.578577 -0.0992,0.675411 -0.01622,0.915451 0.119844,0.346686 0.455519,0.51931 1.197648,0.615902 1.040027,0.135365 1.759737,0.631127 2.203583,1.517905 0.138855,0.277423 0.278547,0.6776 0.322618,0.924204 0.07705,0.431163 0.07601,0.438318 -0.120292,0.827195 -0.10891,0.215749 -0.213064,0.392271 -0.231454,0.392271 -0.01839,0 -0.36601,-0.188013 -0.772489,-0.417806 -2.655693,-1.501333 -6.769429,-4.123646 -9.131507,-5.820906 -1.903615,-1.367832 -2.700283,-1.509933 -3.10013,-0.552966 -0.06796,0.162651 -0.08867,0.321558 -0.06108,0.468641 0.08252,0.439877 0.372845,0.757093 2.253023,2.461711 0.8951,0.811522 1.204608,1.146541 1.059234,1.146541 -0.162334,0 -1.863295,-0.744861 -4.511772,-1.975733 -0.486136,-0.22593 -1.021121,-0.456672 -1.188856,-0.512759 -0.672025,-0.224713 -1.406842,-0.240517 -1.653789,-0.03557 -0.138493,0.114939 -0.282515,0.667251 -0.282515,1.083426 0,0.342925 0.0164,0.383745 0.246622,0.61397 0.495462,0.495462 1.706931,1.219494 4.128809,2.467576 0.757098,0.39016 1.364601,0.721322 1.350008,0.735915 -0.01459,0.01459 -0.946552,-0.290526 -2.071021,-0.678043 -3.414996,-1.176885 -4.324872,-1.430705 -4.897377,-1.366175 -0.452635,0.05102 -0.712832,0.402768 -0.713859,0.965038 -6.31e-4,0.334458 0.299986,0.834657 0.686863,1.142953 0.515854,0.411074 2.108894,1.17484 4.259251,2.04205 1.036442,0.417983 1.959784,0.800896 2.051872,0.850917 l 0.167431,0.09095 -0.239365,0.0025 c -0.131652,0.0014 -0.744717,-0.06875 -1.362367,-0.155868 -2.11792,-0.298723 -3.298975,-0.409813 -4.356945,-0.409813 -0.927438,0 -1.055672,0.01318 -1.240621,0.127481 -0.376455,0.232663 -0.521661,0.890471 -0.292615,1.325598 0.3456,0.656549 1.619262,1.099305 5.629445,1.956934 3.198182,0.683973 3.97559,0.923847 4.507404,1.390785 0.310096,0.272268 0.388661,0.471698 0.261986,0.665028 -0.05243,0.08002 -0.68895,0.685812 -1.414495,1.346215 -0.725545,0.660402 -1.40737,1.333887 -1.515167,1.496631 -0.268122,0.40479 -0.45048,0.918135 -0.494817,1.392934 -0.08493,0.909522 0.41686,1.408657 1.417225,1.40972 l 0.331456,3.52e-4 v 0.208611 c 0,0.427603 0.478096,0.938445 1.245036,1.33031 0.111823,0.05714 0.228679,0.153308 0.259679,0.213716 0.031,0.06041 0.07475,0.578606 0.09723,1.151552 0.04588,1.169576 0.199598,3.26038 0.320288,4.356283 0.04398,0.399326 0.06883,0.746254 0.05524,0.770952 -0.0382,0.06938 -0.242939,0.0953 -3.145453,0.398169 -1.493132,0.155804 -2.814222,0.298738 -2.935756,0.317632 l -0.220971,0.03435 z"
       id="path8824"
       inkscape:connector-curvature="0"
       transform="matrix(0.26458333,0,0,0.26458333,0,280.06665)" />
    <path
       style="fill:#ffffff;stroke-width:0.00238619;stroke-miterlimit:4;stroke-dasharray:none"
       d="m 38.846506,30.040591 c -0.121534,-0.01168 -0.397872,-0.03773 -0.614085,-0.0579 l -0.393114,-0.03666 0.03306,-0.389724 c 0.01818,-0.214348 0.04819,-0.513968 0.06669,-0.665822 l 0.03364,-0.276098 0.642094,0.04522 c 0.353152,0.02487 0.652059,0.0549 0.664237,0.06675 0.01218,0.01184 0.0017,0.321716 -0.02332,0.688608 -0.02982,0.437488 -0.07003,0.663598 -0.116844,0.656972 -0.03926,-0.0056 -0.170814,-0.01966 -0.292348,-0.03134 z"
       id="path8826"
       inkscape:connector-curvature="0"
       transform="matrix(0.26458333,0,0,0.26458333,0,280.06665)" />
    <path
       style="fill:#ffffff;stroke-width:0.00238619;stroke-miterlimit:4;stroke-dasharray:none"
       d="m 46.99142,29.495523 c -0.173342,-0.0877 -0.22159,-0.2259 -0.161898,-0.463731 0.03508,-0.139782 0.06749,-0.154322 0.30548,-0.137059 0.240822,0.01747 0.26821,0.03661 0.286947,0.20056 0.04983,0.436001 -0.09455,0.570216 -0.430529,0.40023 z"
       id="path8828"
       inkscape:connector-curvature="0"
       transform="matrix(0.26458333,0,0,0.26458333,0,280.06665)" />
    <path
       style="fill:#ffffff;stroke-width:0.00238619;stroke-miterlimit:4;stroke-dasharray:none"
       d="m 51.922307,34.478261 c -0.117016,-0.140995 0.06469,-0.252718 0.219198,-0.134776 0.104926,0.08009 0.108448,0.100891 0.02639,0.1558 -0.125845,0.08421 -0.160732,0.08122 -0.245586,-0.02102 z"
       id="path8830"
       inkscape:connector-curvature="0"
       transform="matrix(0.26458333,0,0,0.26458333,0,280.06665)" />
    <path
       style="fill:#ffffff;stroke-width:0.00238619;stroke-miterlimit:4;stroke-dasharray:none"
       d="m 30.126319,37.805633 c -0.119917,-0.032 -0.20008,-0.482125 -0.139661,-0.784221 0.08425,-0.421251 0.794414,-0.59292 1.117258,-0.270075 0.129735,0.129734 0.166446,0.228124 0.166446,0.446092 0,0.279554 -0.08377,0.514455 -0.214639,0.601835 -0.07287,0.04866 -0.753423,0.05332 -0.929404,0.0064 z"
       id="path8832"
       inkscape:connector-curvature="0"
       transform="matrix(0.26458333,0,0,0.26458333,0,280.06665)" />
    <path
       style="fill:#ffffff;stroke-width:0.00238619;stroke-miterlimit:4;stroke-dasharray:none"
       d="m 26.219599,40.170026 c -0.08681,-0.03352 -0.321197,-0.04689 -0.52086,-0.0297 l -0.363023,0.03126 3.52e-4,-0.388604 c 1.93e-4,-0.213732 0.02964,-0.494048 0.06543,-0.622924 0.06039,-0.217437 0.07658,-0.229946 0.224729,-0.173619 0.08781,0.03338 0.31406,0.0607 0.502781,0.0607 h 0.34313 l -0.0063,0.457725 c -0.0088,0.639581 -0.04678,0.742194 -0.246245,0.665163 z"
       id="path8834"
       inkscape:connector-curvature="0"
       transform="matrix(0.26458333,0,0,0.26458333,0,280.06665)" />
    <path
       style="fill:#ffffff;stroke-width:0.00238619;stroke-miterlimit:4;stroke-dasharray:none"
       d="m 25.888277,48.441203 c -0.09125,-0.06758 -0.101714,-0.130892 -0.06045,-0.365827 l 0.0499,-0.284105 0.298065,0.004 c 0.382014,0.0052 0.431978,0.0599 0.372856,0.408539 -0.04649,0.274144 -0.05473,0.282432 -0.298918,0.300506 -0.138111,0.01022 -0.300769,-0.01819 -0.361462,-0.06313 z"
       id="path8836"
       inkscape:connector-curvature="0"
       transform="matrix(0.26458333,0,0,0.26458333,0,280.06665)" />
    <path
       style="fill:#ffffff;stroke-width:0.00674916;stroke-miterlimit:4;stroke-dasharray:none"
       d="M 34.802264,57.012313 C 33.765202,56.472171 32.737028,55.2892 32.482828,54.343672 31.89242,52.147575 31.935699,52.221326 31.095558,51.979605 29.859148,51.623872 29.648892,51.33842 29.648892,50.015553 v -1.139692 l 1.031959,0.70079 c 1.044265,0.709147 3.581437,3.254583 4.905404,4.921383 0.765215,0.963362 1.373638,2.131616 1.380144,2.650063 0.0058,0.465564 -1.14863,0.393129 -2.164135,-0.135784 z"
       id="path23"
       inkscape:connector-curvature="0"
       transform="matrix(0.26458333,0,0,0.26458333,0,280.06665)" />
    <path
       style="fill:#ffffff;stroke-width:0.00674916;stroke-miterlimit:4;stroke-dasharray:none"
       d="M 3.0417497,41.351988 V 23.457665 l 0.7589286,0.744074 c 0.9636721,0.944805 1.6684596,1.186485 4.5210408,1.550314 1.2701239,0.161998 2.9786079,0.451977 3.7966299,0.6444 2.353759,0.553671 2.983978,0.486057 6.764348,-0.725739 4.241945,-1.359756 6.10996,-1.739611 9.575776,-1.947204 1.525523,-0.09137 2.939766,-0.255023 3.142764,-0.363664 0.425439,-0.22769 0.509868,-1.185245 0.14587,-1.654406 C 31.624339,21.547204 30.764523,21.166387 29.836405,20.859181 27.724828,20.160253 26.315446,19.4158 25.475662,18.555784 25.117269,18.188755 24.234921,16.765171 23.514889,15.392265 22.058737,12.615775 20.465493,9.9992692 18.900905,7.8149519 18.330155,7.0181301 17.865576,6.3110885 17.868507,6.2437483 c 0.0029,-0.06734 0.315327,-0.4811206 0.694214,-0.9195123 L 19.251607,4.52716 21.01275,6.1527983 c 3.258267,3.0075732 11.226201,11.2037847 12.515501,12.8740677 2.451222,3.175543 3.033627,4.467176 2.489091,5.520192 -0.803637,1.554063 -5.050823,4.541386 -11.852935,8.336945 -7.90141,4.408962 -9.44425,5.407594 -11.153054,7.219016 -2.059388,2.183061 -3.5183984,5.127327 -4.3981587,8.875435 -0.6782995,2.889809 -0.6443571,6.836484 0.08485,9.866072 l 0.096708,0.401786 H 5.9182511 3.0417497 Z m 4.187816,-0.0143 0.7337388,-0.765773 0.5784348,0.337825 c 0.7077507,0.413348 1.3448591,0.292009 1.7552247,-0.334288 0.332278,-0.507121 0.233018,-0.828841 -0.5511122,-1.786257 l -0.4475109,-0.546407 0.4877759,-0.577559 0.4877752,-0.577559 0.641032,0.533025 c 0.944073,0.785009 1.47375,0.866361 2.028554,0.311555 0.671957,-0.671957 0.567342,-1.256842 -0.414619,-2.31806 l -0.469252,-0.507129 0.612033,-0.514466 0.612034,-0.514464 0.85353,0.798377 c 0.964913,0.902562 1.164462,0.949342 1.826892,0.428275 0.574787,-0.452127 0.606923,-1.06345 0.0991,-1.885127 l -0.371412,-0.600957 0.549983,-0.462781 c 0.951978,-0.801035 0.577026,-2.038175 -0.617729,-2.038175 -0.84649,0 -3.202553,1.252399 -4.635859,2.464256 -1.3415128,1.134248 -3.1576982,3.213428 -4.3207805,4.946459 -0.8382512,1.249021 -1.6613621,2.826512 -1.6613621,3.183998 0,0.335662 0.8730589,1.191002 1.2156752,1.191002 0.1507641,0 0.6042989,-0.344599 1.0078551,-0.765772 z"
       id="path25"
       inkscape:connector-curvature="0"
       transform="matrix(0.26458333,0,0,0.26458333,0,280.06665)" />
  </g>
</svg>
