<?xml version="1.0" encoding="UTF-8" standalone="no"?>
<svg
   xmlns:dc="http://purl.org/dc/elements/1.1/"
   xmlns:cc="http://creativecommons.org/ns#"
   xmlns:rdf="http://www.w3.org/1999/02/22-rdf-syntax-ns#"
   xmlns:svg="http://www.w3.org/2000/svg"
   xmlns="http://www.w3.org/2000/svg"
   xmlns:sodipodi="http://sodipodi.sourceforge.net/DTD/sodipodi-0.dtd"
   xmlns:inkscape="http://www.inkscape.org/namespaces/inkscape"
   width="64"
   height="64"
   viewBox="0 0 16.933333 16.933333"
   version="1.1"
   id="svg8"
   sodipodi:docname="seren_wc_64x64.svg"
   inkscape:version="1.0.2-2 (e86c870879, 2021-01-15)">
  <defs
     id="defs2" />
  <sodipodi:namedview
     id="base"
     pagecolor="#ffffff"
     bordercolor="#666666"
     borderopacity="1.0"
     inkscape:pageopacity="0.0"
     inkscape:pageshadow="2"
     inkscape:zoom="5.6568542"
     inkscape:cx="71.644028"
     inkscape:cy="39.263545"
     inkscape:document-units="mm"
     inkscape:current-layer="layer1"
     inkscape:document-rotation="0"
     showgrid="false"
     inkscape:snap-global="false"
     fit-margin-top="0"
     fit-margin-left="0"
     fit-margin-right="0"
     fit-margin-bottom="0"
     inkscape:window-width="1540"
     inkscape:window-height="967"
     inkscape:window-x="1806"
     inkscape:window-y="64"
     inkscape:window-maximized="0"
     units="px" />
  <metadata
     id="metadata5">
    <rdf:RDF>
      <cc:Work
         rdf:about="">
        <dc:format>image/svg+xml</dc:format>
        <dc:type
           rdf:resource="http://purl.org/dc/dcmitype/StillImage" />
        <dc:title></dc:title>
      </cc:Work>
    </rdf:RDF>
  </metadata>
  <g
     inkscape:label="Calque 1"
     inkscape:groupmode="layer"
     id="layer1"
     transform="translate(-44.581036,-28.552681)">
    <text
       xml:space="preserve"
       style="font-style:normal;font-weight:normal;font-size:10.5833px;line-height:1.25;font-family:sans-serif;fill:#000000;fill-opacity:1;stroke:none;stroke-width:0.264583"
       x="51.724785"
       y="39.66518"
       id="text1411"><tspan
         sodipodi:role="line"
         id="tspan1409"
         x="51.724785"
         y="39.66518"
         style="stroke-width:0.264583"></tspan></text>
    <path
       style="fill:#ffffff;stroke-width:2.12598;stroke-linecap:round;stroke-miterlimit:4;stroke-dasharray:none"
       d=""
       id="path1772"
       transform="matrix(0.26458333,0,0,0.26458333,44.581036,28.552681)" />
    <path
       style="fill:#000000;stroke-width:0.0315101"
       d="m 46.013619,43.778 c -0.481334,-0.129273 -0.875261,-0.54743 -0.976687,-1.03676 -0.02202,-0.106209 -0.02992,-2.00081 -0.02427,-5.813622 l 0.0084,-5.656071 0.07201,-0.178112 c 0.140554,-0.347637 0.441275,-0.649109 0.786574,-0.788536 l 0.181249,-0.07319 h 7.011007 7.011007 l 0.182202,0.07354 c 0.343891,0.138806 0.645243,0.439693 0.783368,0.782157 l 0.07427,0.184135 v 5.750601 5.750601 l -0.07427,0.184136 c -0.138125,0.342464 -0.439477,0.643352 -0.783368,0.782157 l -0.182202,0.07354 -6.947987,0.0059 c -6.042054,0.0052 -6.970584,-8.7e-5 -7.121292,-0.04057 z m 14.069279,-0.654777 c 0.187747,-0.08854 0.273325,-0.175663 0.359719,-0.366229 0.06394,-0.141017 0.06429,-0.172488 0.06429,-5.734846 0,-5.562358 -3.41e-4,-5.593829 -0.06429,-5.734846 -0.0864,-0.190565 -0.171972,-0.277692 -0.359719,-0.366229 l -0.15755,-0.0743 -6.853456,3.73e-4 c -6.830613,3.74e-4 -6.853931,5.95e-4 -6.995254,0.06468 -0.190564,0.0864 -0.277692,0.171972 -0.366229,0.359718 l -0.0743,0.157551 3.41e-4,5.593051 c 3.39e-4,5.561946 6.79e-4,5.593839 0.06466,5.734847 0.0864,0.190565 0.171973,0.277692 0.359719,0.366229 l 0.157552,0.0743 h 6.853455 6.853458 l 0.157592,-0.07429 z m -7.218974,-1.103566 -0.10713,-0.10713 v -4.873032 c 0,-5.298606 -0.01005,-5.001183 0.172427,-5.08434 0.140581,-0.06406 0.236011,-0.04514 0.350644,0.06949 l 0.107129,0.10713 v 4.890374 4.890374 l -0.107129,0.10713 c -0.0772,0.0772 -0.135309,0.107129 -0.207967,0.107129 -0.07265,0 -0.13077,-0.02993 -0.207968,-0.107129 z m -4.179325,-0.29988 -0.102903,-0.09191 -0.0091,-1.073964 -0.0091,-1.073962 h -0.393697 c -0.434568,0 -0.572039,-0.03538 -0.660209,-0.169952 -0.02907,-0.04438 -0.05235,-0.127094 -0.05172,-0.183815 6.79e-4,-0.05672 0.129664,-0.455959 0.28674,-0.887193 0.157079,-0.431235 0.285595,-0.799904 0.285594,-0.819265 0,-0.01936 -0.0484,-0.07382 -0.107565,-0.121018 -0.05915,-0.0472 -0.147782,-0.167729 -0.196938,-0.267837 l -0.08938,-0.182014 V 35.982319 35.11579 l 0.09353,-0.168856 c 0.119396,-0.215571 0.299256,-0.369074 0.510425,-0.435639 l 0.166564,-0.0525 -0.0901,-0.05479 c -0.180951,-0.110048 -0.192,-0.151918 -0.192,-0.727742 0,-0.620958 0.04031,-0.774286 0.271025,-1.030895 0.200813,-0.223353 0.426422,-0.326551 0.749645,-0.342905 0.363739,-0.01841 0.568985,0.0615 0.825913,0.321544 0.277327,0.280687 0.311863,0.397861 0.311863,1.058085 0,0.574222 -0.01881,0.641048 -0.205927,0.731673 l -0.09257,0.04484 0.176611,0.05567 c 0.203465,0.06414 0.422146,0.248024 0.526305,0.442563 0.0643,0.120086 0.0688,0.176297 0.07802,0.972279 0.0115,0.996006 -0.0018,1.066302 -0.251407,1.325245 l -0.155025,0.160836 0.300738,0.828433 c 0.165407,0.455639 0.300738,0.85776 0.300738,0.893602 0,0.103279 -0.09858,0.242937 -0.208193,0.294953 -0.07405,0.03514 -0.209859,0.04777 -0.513425,0.04777 h -0.412747 v 1.041399 c 0,1.1298 -0.0065,1.177112 -0.172424,1.252707 -0.04545,0.02071 -0.115497,0.03765 -0.155666,0.03765 -0.08811,0 -0.234747,-0.109479 -0.269617,-0.20129 -0.02424,-0.06382 -0.02697,-0.06289 -0.06653,0.02247 -0.04656,0.100458 -0.175726,0.178821 -0.294761,0.178821 -0.04392,0 -0.126149,-0.04136 -0.182748,-0.09191 z m 7.579294,0.02636 c -0.09449,-0.04677 -0.150796,-0.103667 -0.196938,-0.198984 -0.06262,-0.12935 -0.06463,-0.184351 -0.06463,-1.773763 v -1.640275 l -0.162838,-0.0216 c -0.08956,-0.01187 -0.208523,-0.04069 -0.264356,-0.06402 -0.152602,-0.06377 -0.345364,-0.252603 -0.428422,-0.419708 -0.07361,-0.148103 -0.07393,-0.153881 -0.07393,-1.330379 v -1.181631 l 0.09067,-0.184668 c 0.09388,-0.191198 0.264926,-0.343636 0.470707,-0.419505 0.0604,-0.02227 0.313539,-0.03848 0.636002,-0.04075 l 0.535673,-0.0038 -0.200496,-0.06724 c -0.244167,-0.08188 -0.504749,-0.306508 -0.628301,-0.541609 -0.075,-0.142712 -0.08435,-0.195261 -0.08465,-0.475543 -1.69e-4,-0.263775 0.01126,-0.338587 0.07071,-0.459279 0.109212,-0.221629 0.267055,-0.385359 0.485861,-0.503991 0.187245,-0.101523 0.217487,-0.108074 0.498679,-0.108074 0.264081,0 0.320516,0.01041 0.479039,0.08824 0.371237,0.182302 0.598473,0.558733 0.59727,0.989421 -0.0013,0.475541 -0.296276,0.873249 -0.756882,1.020578 l -0.177631,0.05682 0.522182,0.0017 c 0.725378,0.0023 0.912375,0.07722 1.117405,0.447388 l 0.09347,0.168754 0.0098,1.096731 c 0.0109,1.225381 -0.0035,1.36482 -0.162785,1.573611 -0.153616,0.201407 -0.323421,0.305576 -0.565782,0.347091 l -0.210732,0.0361 v 1.649138 c 0,1.590629 -0.0023,1.65355 -0.06344,1.773499 -0.06937,0.135996 -0.251953,0.25125 -0.398005,0.25125 -0.156188,0 -0.347265,-0.118028 -0.416013,-0.256978 l -0.0632,-0.127737 -0.06576,0.128913 c -0.07212,0.141359 -0.252192,0.255819 -0.402398,0.255777 -0.04835,-1.4e-5 -0.147451,-0.0295 -0.220227,-0.06552 z"
       id="path1792" />
    <path
       style="fill:#ffffff;stroke-width:3.0066;stroke-linecap:round;stroke-miterlimit:4;stroke-dasharray:none"
       d="M 5.6208637,54.934544 C 4.5887618,54.381021 4.3064836,53.829808 4.1750491,52.111261 4.1105225,51.267557 4.0521099,41.667708 4.0452433,30.778263 L 4.0327585,10.979273 4.4275981,10.288787 C 4.6447598,9.9090188 5.0470161,9.4317217 5.321501,9.2281263 L 5.8205644,8.8579529 31.883637,8.8108991 57.946709,8.7638454 58.665665,9.1306292 c 0.510848,0.260615 0.816325,0.5812526 1.055341,1.1077138 0.324626,0.715031 0.336385,1.476251 0.336385,21.777357 0,20.301106 -0.01176,21.062326 -0.336385,21.777356 -0.238196,0.524656 -0.54461,0.847158 -1.049735,1.104855 -0.710507,0.362473 -0.81653,0.363924 -26.576743,0.363924 -24.8340534,0 -25.8876812,-0.01303 -26.4736643,-0.327291 z M 32.906092,51.006364 33.371874,50.63998 V 32.0157 13.39142 L 32.906092,13.025036 C 32.362431,12.597392 31.810711,12.557 31.328535,12.909543 c -0.335416,0.24524 -0.344197,0.672023 -0.38974,18.945354 l -0.04659,18.694461 0.386768,0.411695 c 0.47826,0.509085 1.018407,0.524127 1.627123,0.04531 z M 17.069084,49.860123 c 0.355594,-0.249068 0.430181,-0.249068 0.785775,0 0.423051,0.296317 1.148265,0.35751 1.510692,0.12747 0.442824,-0.281069 0.571294,-1.410353 0.571294,-5.021833 v -3.669283 h 1.687413 c 1.555874,0 1.721239,-0.03383 2.12132,-0.433908 0.238649,-0.238648 0.433908,-0.594551 0.433908,-0.790895 0,-0.196344 -0.476979,-1.691513 -1.059953,-3.322598 -0.582975,-1.631085 -1.060272,-3.034656 -1.060661,-3.119048 -3.53e-4,-0.08439 0.233602,-0.420304 0.51998,-0.746469 0.286379,-0.326167 0.604133,-0.893515 0.706121,-1.260775 0.245702,-0.884769 0.238303,-6.133222 -0.0099,-7.031705 -0.23894,-0.86493 -1.327819,-1.951095 -2.135447,-2.13013 -0.563432,-0.124901 -0.569871,-0.135843 -0.182455,-0.31003 0.55336,-0.248797 0.661602,-0.775435 0.642982,-3.128306 -0.01848,-2.33499 -0.15682,-2.726019 -1.355232,-3.830676 -0.974369,-0.898143 -1.828198,-1.19063 -3.130861,-1.072509 -1.708583,0.154929 -2.987932,1.061606 -3.537476,2.507014 -0.108544,0.285493 -0.198311,1.518157 -0.199482,2.739255 -0.0021,2.151477 0.01158,2.231968 0.440773,2.601175 l 0.442902,0.380997 -0.47652,0.118902 c -0.723635,0.180564 -1.588369,0.916428 -1.980754,1.685565 -0.314018,0.615526 -0.351921,1.043761 -0.351921,3.976013 0,3.543932 0.07084,3.883361 1.022941,4.901118 0.518119,0.553852 0.602617,0.124376 -0.833553,4.236649 -1.281238,3.668647 -1.12812,4.030361 1.706101,4.030361 h 1.640045 v 4.081722 c 0,4.016731 0.0063,4.087005 0.397747,4.413536 0.488043,0.407142 1.161556,0.434489 1.684239,0.06839 z m 29.093287,-0.158312 c 0.257265,-0.238426 0.467755,-0.508894 0.467755,-0.601041 0,-0.09215 0.270468,0.102928 0.601041,0.433501 0.765293,0.765292 1.75995,0.834007 2.526888,0.174567 l 0.495993,-0.426472 0.05048,-6.466029 0.05048,-6.466028 0.479848,-0.106056 c 1.535861,-0.339452 2.45237,-1.005306 2.85549,-2.074547 0.115464,-0.306258 0.185359,-2.27784 0.181746,-5.126524 l -0.0059,-4.62888 -0.483755,-0.707107 c -0.675734,-0.987724 -1.403762,-1.290771 -3.445545,-1.434231 -1.697962,-0.119302 -1.720796,-0.126752 -1.184491,-0.386493 1.662039,-0.804949 2.50474,-3.042401 1.902699,-5.051838 -0.293421,-0.979352 -1.607148,-2.315967 -2.522405,-2.566353 -2.050589,-0.560978 -4.186523,0.256607 -5.039768,1.929104 -0.549242,1.076603 -0.496674,3.165884 0.105511,4.193434 0.257709,0.439746 0.801698,0.998876 1.24591,1.280588 l 0.788479,0.500038 -1.555271,0.113664 c -2.126871,0.155439 -2.264589,0.196105 -3.041671,0.898152 -1.084509,0.979788 -1.10475,1.102025 -1.043552,6.302053 l 0.05508,4.680066 0.497906,0.652371 c 0.645951,0.84634 1.136131,1.155975 2.086614,1.318063 l 0.774237,0.132033 0.08839,6.359209 c 0.09383,6.750563 0.112879,6.89505 0.96364,7.30837 0.682732,0.331687 1.604607,0.229336 2.104139,-0.233614 z"
       id="path1794"
       transform="matrix(0.26458333,0,0,0.26458333,44.581036,28.552681)" />
  </g>
</svg>
