<?xml version="1.0" encoding="UTF-8" standalone="no"?>
<!-- Created with Inkscape (http://www.inkscape.org/) -->

<svg
   xmlns:dc="http://purl.org/dc/elements/1.1/"
   xmlns:cc="http://creativecommons.org/ns#"
   xmlns:rdf="http://www.w3.org/1999/02/22-rdf-syntax-ns#"
   xmlns:svg="http://www.w3.org/2000/svg"
   xmlns="http://www.w3.org/2000/svg"
   xmlns:sodipodi="http://sodipodi.sourceforge.net/DTD/sodipodi-0.dtd"
   xmlns:inkscape="http://www.inkscape.org/namespaces/inkscape"
   width="64"
   height="64"
   viewBox="0 0 16.933333 16.933334"
   version="1.1"
   id="svg8"
   inkscape:version="0.92.5 (2060ec1f9f, 2020-04-08)"
   sodipodi:docname="what_time_64x64x.svg">
  <defs
     id="defs2" />
  <sodipodi:namedview
     id="base"
     pagecolor="#ffffff"
     bordercolor="#666666"
     borderopacity="1.0"
     inkscape:pageopacity="0.0"
     inkscape:pageshadow="2"
     inkscape:zoom="3.959798"
     inkscape:cx="57.101927"
     inkscape:cy="50.054015"
     inkscape:document-units="mm"
     inkscape:current-layer="layer1"
     showgrid="false"
     units="px"
     inkscape:window-width="1208"
     inkscape:window-height="987"
     inkscape:window-x="1992"
     inkscape:window-y="0"
     inkscape:window-maximized="1" />
  <metadata
     id="metadata5">
    <rdf:RDF>
      <cc:Work
         rdf:about="">
        <dc:format>image/svg+xml</dc:format>
        <dc:type
           rdf:resource="http://purl.org/dc/dcmitype/StillImage" />
        <dc:title></dc:title>
      </cc:Work>
    </rdf:RDF>
  </metadata>
  <g
     inkscape:label="Layer 1"
     inkscape:groupmode="layer"
     id="layer1"
     transform="translate(0,-280.06665)">
    <path
       style="fill:#000000;stroke-width:0.05919494"
       d="m 3.1631996,296.56962 c -0.07785,-0.0779 -0.092971,-0.27053 -0.092971,-1.17749 v -1.08445 l -0.1468987,-0.0369 c -0.2185347,-0.0548 -0.5673822,-0.38669 -0.6898155,-0.6562 -0.094743,-0.20861 -0.1079738,-0.41303 -0.109037,-1.69161 -0.00118,-1.63862 0.036267,-1.86737 0.3828817,-2.32133 0.1422797,-0.18633 0.324134,-0.32907 0.5793137,-0.45469 l 0.3719425,-0.18311 2.8231723,-0.005 c 2.6775373,-0.005 2.8331661,10e-4 3.0169578,0.10857 0.6049485,0.3533 0.6185455,1.14265 0.027171,1.5812 -0.1567156,0.11624 -0.2540337,0.12493 -1.5834698,0.14163 l -1.4164886,0.0178 v 2.86588 c 0,2.80529 -0.00236,2.86722 -0.1183932,2.92924 -0.084111,0.045 -0.1526636,0.045 -0.2367744,0 -0.1160069,-0.0621 -0.1183932,-0.12395 -0.1183932,-3.12757 0,-2.30435 0.017602,-3.08183 0.070998,-3.13525 0.051506,-0.0515 0.4813103,-0.071 1.5621115,-0.071 1.3342795,0 1.5038598,-0.0106 1.6126605,-0.1036 0.1882217,-0.16036 0.1925336,-0.42413 0.00945,-0.60675 -0.1148256,-0.11482 -0.1970817,-0.11838 -2.7377617,-0.11801 -1.6451592,2.2e-4 -2.7025345,0.0234 -2.8429714,0.0624 -0.2799522,0.0777 -0.6064961,0.36019 -0.756608,0.65442 -0.1047842,0.2055 -0.1149437,0.3573 -0.1149437,1.73252 v 1.50729 l 0.1532425,0.18212 c 0.084229,0.10018 0.1775188,0.18213 0.2071821,0.18213 0.030124,0 0.053987,-0.41206 0.053987,-0.93528 0,-0.64851 0.021736,-0.95706 0.070998,-1.00631 0.1088007,-0.1088 0.3319426,-0.0846 0.4004363,0.0435 0.039102,0.0731 0.061311,0.92489 0.061311,2.35863 0,2.0989 -0.00709,2.25046 -0.10821,2.34208 -0.1351445,0.12232 -0.2129589,0.12348 -0.331482,0.005 z m 1.3606116,-0.0385 c -0.075842,-0.10832 -0.092144,-0.33849 -0.092144,-1.30228 0,-1.08733 0.00827,-1.17907 0.11707,-1.28778 0.1175426,-0.11754 0.2807437,-0.10702 0.3704069,0.024 0.023981,0.035 0.043946,0.61434 0.044418,1.28758 6.733e-4,1.03468 -0.013467,1.23845 -0.092144,1.31708 -0.1286117,0.12861 -0.2390899,0.11636 -0.3475835,-0.0385 z m 5.5905618,-4.01477 c -0.6097091,-0.15731 -1.2287868,-0.4818 -1.6548934,-0.86741 -0.3554864,-0.32169 -0.4227161,-0.46192 -0.2866974,-0.59793 0.1283754,-0.12839 0.2902532,-0.0749 0.6001521,0.19833 0.6735723,0.59384 1.7880767,0.9673 2.6437277,0.88589 0.56691,-0.054 0.863495,-0.13669 1.391078,-0.38815 1.849542,-0.88153 2.585843,-3.19052 1.612496,-5.05666 -0.281949,-0.54057 -1.037399,-1.26644 -1.599312,-1.53672 -1.069023,-0.51418 -2.242205,-0.51274 -3.2985051,0.004 -0.3326632,0.16277 -0.5633656,0.33732 -0.9202934,0.69632 -0.6993014,0.70335 -1.0113386,1.37492 -1.1234825,2.41794 -0.041701,0.38799 -0.1674657,0.51482 -0.3915409,0.39489 -0.118275,-0.0633 -0.1244534,-0.0999 -0.092735,-0.54986 0.1810983,-2.56629 2.7090558,-4.37368 5.2257199,-3.73621 0.482598,0.12224 1.234279,0.50313 1.615212,0.81845 1.021238,0.84531 1.610463,2.19257 1.53057,3.4996 -0.110809,1.81303 -1.398934,3.37228 -3.157407,3.82201 -0.602751,0.15417 -1.486494,0.15224 -2.094124,-0.005 z m 0.892072,-0.49547 c -0.04099,-0.0494 -0.06226,-0.22547 -0.05162,-0.42917 0.01725,-0.332 0.02457,-0.34612 0.189061,-0.3649 0.218133,-0.0249 0.270761,0.0616 0.271895,0.44662 6.74e-4,0.24518 -0.02268,0.32129 -0.113526,0.36997 -0.152959,0.0819 -0.212888,0.0772 -0.295723,-0.0226 z m -1.7064237,-0.45825 c -0.1080919,-0.10809 -0.091199,-0.21653 0.078913,-0.50696 0.1257886,-0.21465 0.1792196,-0.25707 0.3047956,-0.24198 0.263969,0.0317 0.304193,0.19096 0.128564,0.50894 -0.16131,0.29202 -0.3649013,0.38741 -0.5123198,0.24 z m 3.3007497,-0.12011 c -0.167619,-0.27163 -0.204311,-0.44805 -0.115416,-0.55511 0.139291,-0.16783 0.348682,-0.0771 0.519278,0.22492 0.18059,0.31975 0.141488,0.47561 -0.127371,0.50778 -0.122126,0.0147 -0.181287,-0.0234 -0.276432,-0.17759 z m 1.169248,-1.18568 c -0.27759,-0.16089 -0.334105,-0.31611 -0.173562,-0.47665 0.104076,-0.10408 0.143036,-0.11093 0.288092,-0.0509 0.09226,0.0382 0.246414,0.13222 0.342586,0.2089 0.158759,0.1266 0.16834,0.15371 0.104194,0.29462 -0.08766,0.19231 -0.258334,0.19961 -0.561251,0.024 z m -2.264568,-1.31041 -0.532757,-0.31117 -0.01595,-1.31242 -0.01595,-1.31243 0.149876,-0.0376 c 0.303437,-0.0762 0.325929,0.008 0.325929,1.21999 v 1.11151 l 0.458771,0.25857 c 0.473431,0.26685 0.583543,0.42563 0.426461,0.61492 -0.111754,0.13462 -0.227289,0.10112 -0.796431,-0.23137 z m -3.8772631,-0.33426 c -0.1427405,-0.14273 -0.1472177,-0.19949 -0.025399,-0.32134 0.2057291,-0.20573 0.8541032,-0.0779 0.8541032,0.16841 0,0.26306 -0.6066495,0.37502 -0.8287282,0.15293 z m 6.3632361,-2.3e-4 c -0.08872,-0.0981 -0.09569,-0.14428 -0.04005,-0.26636 0.05954,-0.1306 0.103839,-0.14775 0.382314,-0.14775 0.173255,0 0.34697,0.032 0.386036,0.071 0.108801,0.1088 0.08458,0.33194 -0.04347,0.40044 -0.196408,0.10514 -0.565823,0.0742 -0.684854,-0.0573 z m -9.796543,0.007 c -0.5340451,-0.17558 -1.0295432,-0.611 -1.2545634,-1.10243 -0.1844297,-0.40276 -0.1871113,-1.11821 -0.00591,-1.51987 0.1759004,-0.38944 0.5642871,-0.78758 0.9559107,-0.9799 0.4716589,-0.23162 1.1304762,-0.23448 1.6158385,-0.007 0.3952148,0.18523 0.7604238,0.54186 0.9446763,0.92248 0.1976487,0.40827 0.2210864,1.06746 0.053751,1.511 -0.1578379,0.41829 -0.5943284,0.8861 -0.9917523,1.06292 -0.304524,0.13549 -1.0540559,0.19962 -1.3181428,0.11282 z m 1.2030573,-0.64823 c 0.7980728,-0.42535 0.9568793,-1.51971 0.3182155,-2.19287 -0.4105131,-0.43269 -1.0514687,-0.54463 -1.6100618,-0.28121 -0.3527105,0.16632 -0.5134662,0.33 -0.6757695,0.688 -0.2215589,0.48869 -0.1364321,1.06819 0.2176487,1.48187 0.4490482,0.52461 1.1181668,0.64092 1.7499671,0.30421 z m 2.8074014,-0.93057 c -0.24541,-0.1624 -0.2802948,-0.31083 -0.1093914,-0.46551 0.1070287,-0.0969 0.1276903,-0.0943 0.417908,0.0528 0.2818187,0.14281 0.3038978,0.1693 0.2869693,0.3443 -0.01583,0.16364 -0.042646,0.19135 -0.195924,0.20244 -0.1075013,0.008 -0.2651262,-0.0451 -0.3995619,-0.13405 z m 5.3423403,0.0324 c -0.08966,-0.16752 -6.73e-4,-0.2986 0.320283,-0.47218 l 0.271139,-0.14662 0.124844,0.12486 c 0.170336,0.17032 0.104075,0.34724 -0.185458,0.49493 -0.292203,0.14907 -0.450655,0.14878 -0.530808,-9e-4 z m -3.9987871,-0.99243 c -0.097933,-0.0683 -0.322445,-0.46184 -0.322445,-0.56508 0,-0.0513 0.057413,-0.13344 0.1275485,-0.18257 0.1698165,-0.11895 0.3113995,-0.0397 0.4642045,0.25982 0.142894,0.28009 0.145233,0.32045 0.02552,0.44012 -0.10065,0.10076 -0.19668,0.11624 -0.294873,0.0477 z m 2.9451211,-0.0258 c -0.104666,-0.10467 -0.08683,-0.27418 0.05269,-0.49988 0.175464,-0.28391 0.306922,-0.34118 0.47349,-0.2063 0.123981,0.10041 0.128435,0.12388 0.05647,0.29754 -0.171435,0.41391 -0.410029,0.58124 -0.582633,0.40864 z m -1.479879,-0.41437 c -0.0391,-0.0391 -0.071,-0.22502 -0.071,-0.41324 0,-0.31611 0.01181,-0.34504 0.148753,-0.37953 0.22958,-0.0576 0.324808,0.0641 0.324808,0.41525 0,0.31478 -0.07064,0.44856 -0.236787,0.44856 -0.0521,0 -0.126674,-0.032 -0.165741,-0.071 z"
       id="path79"
       inkscape:connector-curvature="0" />
    <path
       style="fill:#ffffff;stroke-width:0.00113;stroke-miterlimit:4;stroke-dasharray:none"
       d="m 4.2888914,288.08449 c -0.880967,-0.29325 -1.2331576,-1.35279 -0.709402,-2.13417 0.390454,-0.58251 1.3036596,-0.75268 1.8903684,-0.35226 0.1602359,0.10939 0.3842638,0.35237 0.4578963,0.4967 0.1737977,0.34068 0.2032365,0.83525 0.070053,1.17685 -0.1318485,0.33818 -0.4173884,0.61787 -0.7820894,0.76609 -0.2613935,0.1062 -0.6841688,0.12757 -0.9268381,0.0468 z"
       id="path83"
       inkscape:connector-curvature="0" />
    <path
       style="fill:#ffffff;stroke-width:0.00113;stroke-miterlimit:4;stroke-dasharray:none"
       d="m 3.5839076,296.35727 c 0.02658,-0.20078 0.026816,-3.90926 1.772e-4,-4.22459 -0.011813,-0.13301 -0.032014,-0.26431 -0.04619,-0.29176 -0.036976,-0.0715 -0.2102536,-0.12267 -0.2997868,-0.0886 -0.1516122,0.0577 -0.1533134,0.0676 -0.1789719,1.04105 -0.013231,0.50296 -0.032132,0.92257 -0.042055,0.93246 -0.00945,0.009 -0.090963,-0.058 -0.1803068,-0.15094 l -0.1623151,-0.16891 2.362e-4,-1.3854 c 2.363e-4,-1.48788 0.015357,-1.6924 0.1414174,-1.90864 0.1118722,-0.192 0.3650672,-0.42868 0.5611566,-0.52461 0.159976,-0.0783 0.1981567,-0.0835 0.7717055,-0.10597 0.3318717,-0.013 1.177127,-0.0245 1.8783424,-0.0254 1.1874637,-10e-4 1.2763354,0.002 1.2952839,0.0506 0.029415,0.0755 0.2551324,0.73015 0.2551324,0.7398 0,0.005 -0.3531711,0.0144 -0.7848183,0.022 -0.4316589,0.007 -0.8080078,0.024 -0.8363362,0.0363 -0.028352,0.0123 -0.06202,0.0715 -0.074778,0.13161 -0.012758,0.06 -0.023272,1.42353 -0.023272,3.0299 v 2.92066 l -0.2092849,0.0161 c -0.1150618,0.008 -0.3169161,0.0207 -0.4484693,0.0263 l -0.2391844,0.0106 0.010632,-0.86916 c 0.00591,-0.47802 9.923e-4,-1.03474 -0.010632,-1.23712 -0.018193,-0.31856 -0.029415,-0.37579 -0.083402,-0.42605 -0.089072,-0.083 -0.2127344,-0.073 -0.3236852,0.0261 -0.090254,0.0807 -0.095452,0.0979 -0.1230358,0.41109 -0.029415,0.33381 -0.010632,1.91787 0.023981,2.03723 0.024335,0.0834 -0.00236,0.0893 -0.5067444,0.11223 l -0.3851499,0.0175 z"
       id="path85"
       inkscape:connector-curvature="0" />
    <path
       style="fill:#ffffff;stroke-width:0.00113;stroke-miterlimit:4;stroke-dasharray:none"
       d="m 7.5384066,289.8535 -0.1408503,-0.4079 0.7574468,0.015 c 0.8342096,0.0165 0.8817701,0.0261 0.9986629,0.19974 0.1023034,0.15196 0.092144,0.30694 -0.028824,0.4387 -0.093207,0.1016 -0.1088007,0.10703 -0.3812042,0.13329 -0.1562194,0.0151 -0.4596208,0.0278 -0.6742335,0.0282 l -0.3901942,8.1e-4 z"
       id="path87"
       inkscape:connector-curvature="0" />
    <path
       style="fill:#ffffff;stroke-width:0.00113;stroke-miterlimit:4;stroke-dasharray:none"
       d="m 10.850355,292.11265 c -0.351446,-0.0383 -0.772095,-0.15328 -1.1559341,-0.3159 -0.3351676,-0.14201 -0.3369396,-0.14328 -0.224595,-0.16201 0.13492,-0.0224 0.255428,-0.13044 0.359054,-0.3216 0.167372,-0.30878 0.123733,-0.47607 -0.131695,-0.50487 -0.124583,-0.0141 -0.141984,-0.007 -0.2174,0.0822 -0.1043119,0.12403 -0.2577315,0.42644 -0.2577315,0.5082 0,0.0344 0.01394,0.0886 0.030951,0.12045 0.017011,0.0318 0.023036,0.0578 0.013349,0.0578 -0.029651,0 -0.3485994,-0.22681 -0.522527,-0.37162 -0.2038153,-0.1697 -0.3398221,-0.23592 -0.4510207,-0.2196 -0.066509,0.009 -0.10632,-0.008 -0.177448,-0.082 l -0.091671,-0.0946 0.5169982,-0.0194 c 0.2843467,-0.0106 0.5692251,-0.034 0.6330643,-0.0521 0.159917,-0.0451 0.3879607,-0.26778 0.4963007,-0.48458 0.07679,-0.15362 0.09025,-0.2147 0.09025,-0.40912 0,-0.18569 -0.01441,-0.25753 -0.07714,-0.38324 -0.09167,-0.18402 -0.3188412,-0.39772 -0.4799395,-0.4515 -0.079031,-0.0264 -0.3978492,-0.0438 -1.0051366,-0.0549 l -0.8894725,-0.0163 v -0.11388 c 0,-0.0626 0.013585,-0.12226 0.030124,-0.13249 0.068754,-0.0425 0.1234021,-0.2125 0.1657765,-0.51551 0.078795,-0.56354 0.1967745,-0.97734 0.383874,-1.34657 0.084583,-0.16692 0.1200942,-0.19995 0.091199,-0.0848 -0.040638,0.16178 0.3395504,0.43629 0.6050428,0.43692 0.1660481,4.1e-4 0.218901,-0.0567 0.218901,-0.2364 0,-0.16997 -0.022445,-0.19395 -0.320661,-0.343 -0.2517299,-0.12582 -0.2942697,-0.13054 -0.3874886,-0.043 -0.11518,0.10821 -0.077614,0.0217 0.086828,-0.19954 0.2070994,-0.27872 0.7417349,-0.8118 0.9651013,-0.9623 0.8961477,-0.60379 2.0750937,-0.7697 3.1294447,-0.44039 0.33492,0.10455 0.743838,0.30817 0.986578,0.49114 1.058864,0.79812 1.554575,1.74322 1.560151,2.9745 0.0024,0.50723 -0.04584,0.81267 -0.1944,1.23404 -0.102068,0.28961 -0.278937,0.6469 -0.249521,0.50422 0.01488,-0.0724 -8.63e-4,-0.10254 -0.102658,-0.19656 -0.144997,-0.13386 -0.421015,-0.2785 -0.531458,-0.2785 -0.105493,0 -0.247997,0.15719 -0.247997,0.27354 0,0.10218 0.177223,0.27674 0.369627,0.36411 0.151718,0.0689 0.356077,0.0749 0.408316,0.0119 0.02079,-0.025 0.04406,-0.0393 0.05162,-0.0318 0.02327,0.0233 -0.287005,0.45262 -0.476432,0.65933 -0.166237,0.18142 -0.664369,0.58405 -0.722597,0.58405 -0.01406,0 -0.01737,-0.033 -0.0071,-0.0731 0.02882,-0.11471 -0.09167,-0.39387 -0.234187,-0.54256 -0.103367,-0.10797 -0.145659,-0.13173 -0.23381,-0.13173 -0.12671,0 -0.231529,0.10833 -0.231529,0.23921 0,0.1134 0.19896,0.5001 0.287064,0.55782 0.05174,0.0339 0.109155,0.0424 0.199243,0.0295 0.122256,-0.0174 0.118901,-0.0141 -0.0977,0.0975 -0.603118,0.31061 -1.338816,0.45667 -1.959453,0.38902 z m 0.433655,-0.0419 c 0.116598,-0.0604 0.161252,-0.20952 0.143816,-0.4812 -0.01867,-0.2905 -0.07123,-0.37157 -0.240673,-0.37095 -0.184441,6.7e-4 -0.209557,0.0283 -0.23518,0.25896 -0.03036,0.27328 -0.0035,0.48673 0.07301,0.57025 0.07135,0.0784 0.140023,0.0845 0.259089,0.0229 z m 0.99519,-2.8553 c 0.04147,-0.0326 0.08399,-0.0933 0.09439,-0.13479 0.04265,-0.17011 -0.134956,-0.33848 -0.661806,-0.62723 l -0.271199,-0.14864 -0.01323,-1.06223 c -0.01654,-1.32596 -0.02138,-1.34349 -0.348977,-1.27871 l -0.161512,0.0319 0.01961,0.89691 c 0.01063,0.49332 0.01961,1.0885 0.01961,1.32265 v 0.42573 l 0.381205,0.22361 c 0.5219,0.30615 0.709685,0.398 0.833111,0.40752 0.01831,10e-4 0.06734,-0.0241 0.1088,-0.0568 z m -3.991486,-0.53782 c 0.318239,-0.14445 0.1911512,-0.42401 -0.2242051,-0.49318 -0.275156,-0.0458 -0.5456339,0.0782 -0.5456339,0.25024 0,0.0893 0.1158887,0.2194 0.2391726,0.26841 0.1258238,0.05 0.3925568,0.0372 0.5306664,-0.0255 z m 6.358499,0.017 c 0.13518,-0.0565 0.18873,-0.20636 0.126757,-0.3547 -0.05103,-0.12211 -0.117425,-0.14151 -0.484784,-0.14151 -0.232545,0 -0.252131,0.005 -0.310194,0.0788 -0.06982,0.0888 -0.07974,0.23921 -0.02067,0.31693 0.100059,0.13172 0.481121,0.18732 0.688894,0.10053 z M 14.044348,287.099 c 0.328918,-0.14415 0.402763,-0.33376 0.212155,-0.54475 l -0.107974,-0.11955 -0.211813,0.11128 c -0.383224,0.20138 -0.508256,0.37452 -0.391174,0.54168 0.09722,0.13883 0.202433,0.1412 0.498841,0.0118 z m -4.2746881,-0.99694 c 0.09392,-0.0481 0.168505,-0.1499 0.169273,-0.23132 9.22e-4,-0.0965 -0.200543,-0.47204 -0.291765,-0.5438 -0.04087,-0.0322 -0.111518,-0.0585 -0.156905,-0.0585 -0.1071467,0 -0.2682095,0.1483 -0.2682095,0.24698 0,0.0983 0.1662725,0.41591 0.2769985,0.52915 0.09451,0.0966 0.164855,0.11164 0.270608,0.0575 z m 3.0110751,-0.018 c 0.112463,-0.0782 0.170006,-0.15509 0.270951,-0.36205 0.06273,-0.12848 0.08635,-0.21275 0.07395,-0.26253 -0.02067,-0.0824 -0.177365,-0.19077 -0.276101,-0.19095 -0.09817,-1.8e-4 -0.228151,0.12599 -0.333667,0.32395 -0.117661,0.22075 -0.124277,0.36662 -0.02126,0.4696 0.08612,0.0861 0.183236,0.0936 0.286213,0.022 z m -1.423943,-0.46653 c 0.05269,-0.0709 0.06273,-0.12697 0.06273,-0.3491 0,-0.3021 -0.05789,-0.42552 -0.207985,-0.4433 -0.115417,-0.0137 -0.246485,0.0474 -0.267135,0.12434 -0.05422,0.20193 0.0059,0.66386 0.0951,0.73138 0.08517,0.0645 0.246143,0.0322 0.317247,-0.0633 z"
       id="path89"
       inkscape:connector-curvature="0" />
    <path
       style="fill:#000000;stroke-width:0.01060892"
       d="m 6.7621712,285.10761 c -0.049014,-0.0112 -0.07605,-0.029 -0.1083105,-0.0712 l -0.029604,-0.0388 -0.00527,-0.38806 -0.00527,-0.38807 -0.2599199,-0.006 c -0.2322234,-0.005 -0.2678309,-0.009 -0.3341808,-0.0303 -0.1577057,-0.0515 -0.2950752,-0.14341 -0.3902188,-0.26111 -0.070905,-0.0877 -0.1066591,-0.15325 -0.1475717,-0.27048 l -0.035085,-0.10058 v -1.22533 c 0,-1.15469 0.00112,-1.22928 0.019384,-1.29368 0.089993,-0.31731 0.3366277,-0.54524 0.6488746,-0.5997 0.081255,-0.0142 0.3404691,-0.0162 2.0423207,-0.0162 1.7018517,0 1.9610752,0.002 2.0423212,0.0162 0.309258,0.054 0.55264,0.27696 0.648377,0.59417 0.01779,0.0589 0.01935,0.1437 0.0228,1.24086 0.0027,0.86609 4.14e-4,1.19864 -0.0087,1.25716 -0.04247,0.27105 -0.205535,0.49189 -0.450353,0.60993 -0.172904,0.0833 -0.109201,0.0796 -1.3673045,0.0796 H 7.9253349 l -0.5072643,0.43022 c -0.2789954,0.23662 -0.5191999,0.43645 -0.5337874,0.44407 -0.036641,0.0191 -0.08422,0.0258 -0.1220022,0.0172 z M 7.31432,284.49627 c 0.2628379,-0.22227 0.4917768,-0.41323 0.5087522,-0.42435 0.029742,-0.0195 0.072851,-0.0204 1.1824096,-0.0261 1.2816182,-0.006 1.1985062,-0.002 1.3480382,-0.08 0.138532,-0.0726 0.248878,-0.20088 0.305001,-0.35466 l 0.02895,-0.0793 0.0029,-1.17432 c 0.0025,-1.0144 7.36e-4,-1.1849 -0.01312,-1.25186 -0.04989,-0.2412 -0.248481,-0.44023 -0.490394,-0.4915 -0.1084,-0.0229 -3.9508816,-0.0229 -4.059282,0 -0.2395249,0.0508 -0.4367166,0.24632 -0.4896152,0.48556 -0.015156,0.0686 -0.016687,0.20566 -0.013989,1.25454 l 0.00303,1.17758 0.028955,0.0793 c 0.057366,0.15717 0.1701481,0.28662 0.3105351,0.3564 0.1270324,0.0631 0.1645282,0.0693 0.4540233,0.0758 0.3000483,0.006 0.310043,0.009 0.3549069,0.0982 0.023396,0.0463 0.023872,0.0546 0.023872,0.41761 0,0.35119 9.51e-4,0.36961 0.018563,0.35581 0.010159,-0.009 0.2336154,-0.19642 0.4964524,-0.4187 z m 2.68443,-0.66555 c -0.018606,-0.0186 -0.027382,-0.0389 -0.027382,-0.0631 0,-0.0521 0.035855,-0.0811 0.114293,-0.0922 0.03512,-0.005 0.0751,-0.0149 0.08883,-0.0223 0.08624,-0.0457 0.143143,-0.12828 0.154516,-0.22432 0.0088,-0.0744 0.05083,-0.1203 0.100923,-0.11028 0.07014,0.014 0.09331,0.0676 0.07251,0.16781 -0.04205,0.20259 -0.207763,0.3545 -0.400157,0.36685 -0.07096,0.004 -0.07804,0.003 -0.1035445,-0.0225 z M 8.063594,283.6616 c -0.051253,-0.0163 -0.1343728,-0.0956 -0.155558,-0.14824 -0.062407,-0.15504 0.029673,-0.3336 0.1906148,-0.36961 0.2103483,-0.047 0.388876,0.16734 0.3077398,0.36961 -0.02241,0.0559 -0.1051564,0.13212 -0.1617736,0.14909 -0.050406,0.0151 -0.1323748,0.0147 -0.181023,-8.5e-4 z m 0.1561278,-0.19216 c 0.066401,-0.0707 -0.00735,-0.17953 -0.098278,-0.14498 -0.032483,0.0124 -0.063418,0.073 -0.052688,0.10338 0.023941,0.0676 0.1054175,0.0901 0.150967,0.0417 z m -0.1150456,-0.43245 c -0.067067,-0.0124 -0.138165,-0.0599 -0.1724687,-0.11544 -0.043973,-0.0712 -0.053631,-0.1474 -0.048339,-0.38164 0.00406,-0.17766 0.00778,-0.21482 0.026837,-0.26316 0.047803,-0.12142 0.1436923,-0.19868 0.2858016,-0.23029 0.095748,-0.0213 0.1528864,-0.0624 0.1976915,-0.14213 0.074874,-0.13329 0.015753,-0.30956 -0.1253231,-0.37364 -0.058161,-0.0265 -0.1667762,-0.026 -0.2230233,8.7e-4 -0.056588,0.0271 -0.078912,0.0474 -0.131556,0.11995 -0.077511,0.10681 -0.1737128,0.15002 -0.283021,0.12709 -0.1802474,-0.0379 -0.2686203,-0.22418 -0.1852923,-0.39077 0.093301,-0.1865 0.289138,-0.34025 0.5078366,-0.39867 0.1065536,-0.0285 0.2839763,-0.0303 0.3890826,-0.004 0.2349262,0.0587 0.4403809,0.22582 0.5460405,0.44436 0.059501,0.12307 0.078635,0.21078 0.077943,0.35722 -0.00112,0.23324 -0.06928,0.39562 -0.2362983,0.56287 -0.085629,0.0858 -0.1161489,0.10866 -0.1978782,0.14853 l -0.096639,0.0472 -0.00501,0.14322 c -0.00398,0.11292 -0.00943,0.15334 -0.02631,0.19107 -0.052092,0.11675 -0.173986,0.18069 -0.3001444,0.15748 z m 0.088604,-0.18298 c 0.050968,-0.0213 0.05945,-0.0571 0.05945,-0.25039 0,-0.19299 -0.00372,-0.18525 0.1086511,-0.22602 0.1963133,-0.0712 0.3434372,-0.22295 0.4032854,-0.41587 0.029811,-0.0961 0.031566,-0.25702 0.0038,-0.34954 -0.073101,-0.24365 -0.2620355,-0.41427 -0.5073031,-0.45811 -0.2450713,-0.0438 -0.5014299,0.0693 -0.6352097,0.28024 -0.041829,0.066 -0.041008,0.10863 0.00277,0.14548 0.026396,0.0222 0.040852,0.0271 0.066315,0.0222 0.034281,-0.006 0.054124,-0.0256 0.1078808,-0.10328 0.040394,-0.0584 0.1461512,-0.13072 0.2246055,-0.15353 0.041561,-0.0121 0.08653,-0.0157 0.1551265,-0.0125 0.08103,0.004 0.1077131,0.009 0.165558,0.0378 0.1778991,0.0858 0.2886175,0.29349 0.2550383,0.47841 -0.034134,0.18801 -0.1740352,0.33287 -0.3590059,0.37178 -0.079335,0.0167 -0.114571,0.0376 -0.1480404,0.0882 -0.028791,0.0435 -0.029172,0.0462 -0.032811,0.24588 -0.00424,0.23361 0.00259,0.2714 0.054106,0.29677 0.041881,0.0207 0.033529,0.0203 0.07579,0.003 z m -2.35912,-1.55507 c -0.032362,-0.0323 -0.036685,-0.0706 -0.017793,-0.15765 0.039962,-0.18414 0.1793197,-0.3177 0.366987,-0.35174 0.035907,-0.006 0.075799,-0.009 0.088656,-0.005 0.041103,0.0125 0.071113,0.0483 0.071113,0.0849 0,0.0558 -0.02752,0.0785 -0.1160953,0.0954 -0.087131,0.0166 -0.1431744,0.0481 -0.1862952,0.10459 -0.030892,0.0405 -0.058317,0.11928 -0.058317,0.1675 0,0.0693 -0.099378,0.11064 -0.1482548,0.0618 z"
       id="path137"
       inkscape:connector-curvature="0" />
    <path
       style="fill:#ffffff;stroke-width:0.00040504;stroke-miterlimit:4;stroke-dasharray:none"
       d="m 6.8061048,284.54432 c -0.00476,-0.3383 -0.00657,-0.36447 -0.027096,-0.40455 -0.025739,-0.0501 -0.051357,-0.0745 -0.088603,-0.0846 -0.014733,-0.004 -0.1425312,-0.0118 -0.283992,-0.0173 -0.2749552,-0.0108 -0.3239959,-0.0191 -0.4286638,-0.0722 -0.1450282,-0.0736 -0.2539715,-0.19684 -0.3158515,-0.3573 l -0.032448,-0.0841 8.47e-5,-1.16579 c 5.27e-5,-0.73021 0.00415,-1.1918 0.010885,-1.23543 0.02771,-0.17854 0.1681595,-0.36222 0.3432998,-0.44895 0.074926,-0.0371 0.1079577,-0.0468 0.1922774,-0.0563 0.1409187,-0.016 3.8235042,-0.0161 3.9639246,-10e-5 0.231153,0.0264 0.428436,0.18774 0.513174,0.41991 l 0.02924,0.0802 0.0032,1.20049 0.0032,1.20048 -0.03182,0.0782 c -0.07347,0.18055 -0.184483,0.30452 -0.339115,0.37872 -0.08758,0.042 -0.08958,0.0424 -0.263764,0.0516 -0.096536,0.005 -0.621592,0.0121 -1.1668007,0.0156 -0.5452096,0.003 -1.0091576,0.0105 -1.030999,0.0156 -0.02184,0.005 -0.065242,0.0307 -0.096453,0.0569 -0.031212,0.0262 -0.2554214,0.21489 -0.4982543,0.41918 -0.242832,0.20431 -0.4435202,0.37145 -0.4459731,0.37145 -0.00251,0 -0.00674,-0.16275 -0.00954,-0.36168 z m 3.4038932,-0.7097 c 0.141421,-0.0487 0.249737,-0.17013 0.291674,-0.32714 0.02806,-0.10509 0.01005,-0.16602 -0.05531,-0.18761 -0.03168,-0.0105 -0.04249,-0.009 -0.06411,0.004 -0.03295,0.0215 -0.04178,0.0387 -0.06303,0.12221 -0.02014,0.0791 -0.06663,0.15173 -0.11711,0.18293 -0.01969,0.0121 -0.06919,0.0298 -0.109996,0.0393 -0.04081,0.009 -0.08505,0.0272 -0.098309,0.0397 -0.030719,0.0287 -0.031575,0.0814 -0.0019,0.11914 0.019773,0.0251 0.029569,0.0282 0.089413,0.0282 0.039,0 0.09301,-0.009 0.128682,-0.0212 z m -1.9357868,-0.18156 c 0.052317,-0.027 0.1149748,-0.0928 0.1356871,-0.14255 0.040601,-0.0975 0.00709,-0.2354 -0.074701,-0.30719 -0.056717,-0.0498 -0.100083,-0.0655 -0.1804143,-0.0655 -0.2583169,0 -0.3677825,0.33017 -0.161605,0.48743 0.052351,0.0399 0.076422,0.047 0.1631431,0.0477 0.05702,5e-4 0.088863,-0.005 0.1178842,-0.0198 z m -0.00311,-0.63211 c 0.057202,-0.0265 0.1111178,-0.0815 0.1370548,-0.13983 0.016358,-0.0368 0.022445,-0.08 0.026604,-0.189 l 0.00536,-0.14133 0.090408,-0.0458 c 0.1449771,-0.0735 0.2926906,-0.22518 0.3707523,-0.38068 0.050518,-0.10068 0.065139,-0.17849 0.065251,-0.34752 9.51e-5,-0.14208 -0.00242,-0.16274 -0.029535,-0.24113 -0.091818,-0.26558 -0.2918183,-0.46184 -0.553412,-0.54303 -0.069012,-0.0214 -0.1023431,-0.0249 -0.2357666,-0.0245 -0.1453056,4.7e-4 -0.1614372,0.003 -0.2485599,0.0334 -0.2165501,0.0763 -0.4127752,0.25356 -0.4755457,0.42948 -0.060677,0.17008 0.073966,0.3567 0.2571627,0.35645 0.092886,-1.3e-4 0.1232195,-0.0171 0.2311772,-0.12918 0.1146143,-0.11901 0.1501656,-0.13878 0.2488168,-0.13845 0.082871,3e-4 0.1404907,0.0248 0.1893187,0.0804 0.0484,0.0552 0.067758,0.1052 0.068191,0.17633 7.997e-4,0.13306 -0.082526,0.22891 -0.2330543,0.26804 -0.131569,0.0342 -0.2237772,0.108 -0.2757481,0.2207 -0.023145,0.0501 -0.024312,0.0652 -0.024312,0.30993 0,0.25533 2.041e-4,0.25762 0.028177,0.31728 0.028964,0.0618 0.072704,0.10348 0.1384062,0.13199 0.052671,0.0228 0.166381,0.021 0.2192164,-0.003 z m -2.3304903,-1.71057 c 0.018969,-0.009 0.034022,-0.0279 0.037913,-0.0456 0.043455,-0.19725 0.094225,-0.25896 0.2403437,-0.29207 0.072151,-0.0163 0.1131392,-0.0362 0.1219434,-0.0592 0.014153,-0.0369 0.00571,-0.0718 -0.024667,-0.10213 -0.038665,-0.0387 -0.094141,-0.0416 -0.1959424,-0.0104 -0.170187,0.0526 -0.29447,0.20488 -0.3160858,0.38739 -0.012787,0.10797 0.051737,0.16547 0.1364989,0.12164 z"
       id="path139"
       inkscape:connector-curvature="0" />
    <path
       style="fill:#ffffff;stroke-width:0.00040504;stroke-miterlimit:4;stroke-dasharray:none"
       d="m 8.1196164,282.84659 c -0.040991,-0.0198 -0.046766,-0.0536 -0.046766,-0.27317 0,-0.19654 0.00147,-0.21234 0.023707,-0.25188 0.02918,-0.052 0.068485,-0.0766 0.1573512,-0.0991 0.1392094,-0.0353 0.2537743,-0.12701 0.3152696,-0.25263 0.032094,-0.0655 0.034143,-0.0769 0.034143,-0.18765 0,-0.11055 -0.00216,-0.12242 -0.034532,-0.19078 -0.043818,-0.0925 -0.1350507,-0.18545 -0.2226748,-0.22682 -0.083442,-0.0394 -0.2266399,-0.0499 -0.3183389,-0.0231 -0.084531,0.0245 -0.1754913,0.0895 -0.2448535,0.17473 -0.070767,0.087 -0.1081539,0.0993 -0.1559168,0.0515 -0.035526,-0.0355 -0.030788,-0.0802 0.015675,-0.14774 0.078038,-0.11341 0.2200811,-0.21284 0.3556272,-0.24892 0.076491,-0.0203 0.2358651,-0.02 0.315094,5.7e-4 0.2121718,0.0553 0.3950916,0.23819 0.4503548,0.45036 0.021027,0.0808 0.02101,0.2397 -3.11e-5,0.32049 -0.048754,0.1872 -0.2052671,0.35406 -0.4029767,0.42965 -0.110165,0.0421 -0.109265,0.0401 -0.1160149,0.25289 l -0.00579,0.18247 -0.030071,0.0258 c -0.032267,0.0278 -0.053069,0.0309 -0.089268,0.0134 z"
       id="path141"
       inkscape:connector-curvature="0" />
    <path
       style="fill:#ffffff;stroke-width:0.00040504;stroke-miterlimit:4;stroke-dasharray:none"
       d="m 8.1210715,283.47846 c -0.05651,-0.0323 -0.062562,-0.0815 -0.015805,-0.12829 0.026128,-0.0261 0.038085,-0.031 0.06162,-0.0253 0.072168,0.0176 0.094742,0.0953 0.041103,0.14144 -0.032137,0.0277 -0.054478,0.0308 -0.086925,0.0121 z"
       id="path143"
       inkscape:connector-curvature="0" />
  </g>
</svg>
