<?xml version="1.0" encoding="UTF-8" standalone="no"?>
<!-- Created with Inkscape (http://www.inkscape.org/) -->

<svg
   xmlns:dc="http://purl.org/dc/elements/1.1/"
   xmlns:cc="http://creativecommons.org/ns#"
   xmlns:rdf="http://www.w3.org/1999/02/22-rdf-syntax-ns#"
   xmlns:svg="http://www.w3.org/2000/svg"
   xmlns="http://www.w3.org/2000/svg"
   xmlns:sodipodi="http://sodipodi.sourceforge.net/DTD/sodipodi-0.dtd"
   xmlns:inkscape="http://www.inkscape.org/namespaces/inkscape"
   width="64"
   height="64"
   viewBox="0 0 16.933333 16.933334"
   version="1.1"
   id="svg8"
   inkscape:version="0.92.5 (2060ec1f9f, 2020-04-08)"
   sodipodi:docname="wheel_64x64.svg">
  <defs
     id="defs2" />
  <sodipodi:namedview
     id="base"
     pagecolor="#ffffff"
     bordercolor="#666666"
     borderopacity="1.0"
     inkscape:pageopacity="0.0"
     inkscape:pageshadow="2"
     inkscape:zoom="5.6"
     inkscape:cx="16.216657"
     inkscape:cy="35.016345"
     inkscape:document-units="mm"
     inkscape:current-layer="layer1"
     showgrid="false"
     units="px"
     inkscape:window-width="1208"
     inkscape:window-height="987"
     inkscape:window-x="1992"
     inkscape:window-y="0"
     inkscape:window-maximized="1" />
  <metadata
     id="metadata5">
    <rdf:RDF>
      <cc:Work
         rdf:about="">
        <dc:format>image/svg+xml</dc:format>
        <dc:type
           rdf:resource="http://purl.org/dc/dcmitype/StillImage" />
        <dc:title></dc:title>
      </cc:Work>
    </rdf:RDF>
  </metadata>
  <g
     inkscape:label="Layer 1"
     inkscape:groupmode="layer"
     id="layer1"
     transform="translate(0,-280.06665)">
    <path
       style="fill:#000000;stroke-width:0.03167491"
       d="m 7.8837847,296.45409 c -0.060977,-0.007 -0.2462729,-0.0284 -0.4117742,-0.0473 -1.3842638,-0.15808 -2.8916293,-0.79549 -3.9901226,-1.68731 -1.6138179,-1.31017 -2.63205424,-3.12932 -2.91923537,-5.21542 -0.053041,-0.38529 -0.0538681,-1.51383 -0.00139,-1.88466 0.26082327,-1.84287 1.00394397,-3.36341 2.25277427,-4.60953 0.6498489,-0.64843 1.2775112,-1.0968 2.1081426,-1.50594 0.7437759,-0.36636 1.5868538,-0.61831 2.5023184,-0.7478 0.3709149,-0.0524 1.4994571,-0.0516 1.8846561,0.001 1.4594021,0.2009 2.8686511,0.79164 3.9435261,1.65307 1.636344,1.31139 2.675457,3.15291 2.965968,5.25628 0.05321,0.38527 0.05284,1.50742 -5.99e-4,1.90049 -0.118543,0.87147 -0.375802,1.72758 -0.747162,2.48648 -0.404918,0.82748 -0.856622,1.46058 -1.503958,2.10793 -1.217943,1.21796 -2.750144,1.98251 -4.4739188,2.23242 -0.3179129,0.046 -1.3871591,0.0859 -1.6091978,0.0599 z m 1.5837452,-0.599 c 2.9551441,-0.45071 5.3278971,-2.60575 6.0510951,-5.49585 0.158566,-0.63367 0.203033,-1.02215 0.203033,-1.77379 0,-0.49233 -0.0155,-0.78192 -0.05594,-1.04526 -0.245707,-1.5999 -0.964099,-3.03236 -2.080803,-4.14906 -1.145646,-1.14566 -2.587918,-1.85559 -4.2599204,-2.09686 -0.4273285,-0.0616 -1.5312098,-0.0525 -1.9796828,0.0166 -1.6107452,0.24785 -3.0228405,0.95647 -4.1478493,2.08147 -1.1258792,1.12588 -1.8323312,2.53353 -2.0816869,4.14786 -0.078455,0.50787 -0.078175,1.58574 5.265e-4,2.09054 0.3819776,2.44998 1.8529512,4.47374 4.0276041,5.54116 0.8399912,0.41231 1.641095,0.63591 2.6606922,0.74265 0.2649569,0.0277 1.3443077,-0.0105 1.6629325,-0.0595 z m -1.5362327,-1.71341 c -0.052263,-0.007 -0.2090547,-0.0287 -0.3484244,-0.0472 -0.8124209,-0.10795 -1.7064998,-0.46683 -2.4231301,-0.97275 -0.3841093,-0.27117 -1.0310928,-0.91742 -1.306926,-1.30546 -0.2549777,-0.35868 -0.6182457,-1.07346 -0.7524539,-1.48052 -0.3715829,-1.12708 -0.3715829,-2.37357 0,-3.50063 0.1342082,-0.40706 0.4974762,-1.12183 0.7524539,-1.48052 0.2744254,-0.38606 0.9208764,-1.0325 1.306926,-1.30693 0.3586924,-0.25498 1.0734584,-0.61824 1.4805318,-0.75246 1.3718281,-0.45228 2.8435056,-0.35662 4.1504025,0.26977 1.291525,0.61903 2.287922,1.6993 2.806948,3.04323 0.246154,0.63737 0.349664,1.22268 0.349664,1.97722 0,0.58639 -0.03247,0.86405 -0.161053,1.37758 -0.156323,0.62429 -0.471341,1.30364 -0.859356,1.85326 -0.272552,0.38608 -0.91939,1.03291 -1.305456,1.30546 -0.696209,0.4915 -1.49273,0.8191 -2.3439437,0.96403 -0.2651085,0.0452 -1.160643,0.0824 -1.3461831,0.056 z m 0.7126852,-1.93154 c 0,-1.43718 0.00668,-1.53751 0.1076848,-1.60493 0.019173,-0.0127 0.1123953,-0.046 0.2071733,-0.0738 0.094775,-0.0278 0.2690266,-0.0993 0.3872259,-0.15886 0.1181982,-0.0596 0.2468332,-0.10818 0.2858551,-0.10818 0.050877,0 0.3627225,0.29129 1.1021245,1.02944 0.567147,0.56618 1.042193,1.02943 1.055659,1.02943 0.03927,0 0.338517,-0.29028 0.338517,-0.32837 0,-0.019 -0.463245,-0.49865 -1.029435,-1.06581 -0.738153,-0.7394 -1.029433,-1.05125 -1.029433,-1.10211 0,-0.039 0.0487,-0.16766 0.108224,-0.28586 0.05952,-0.11821 0.131008,-0.29245 0.158854,-0.38722 0.02785,-0.0949 0.0611,-0.18802 0.07391,-0.20719 0.06743,-0.10094 0.167755,-0.10771 1.604942,-0.10771 h 1.443292 v -0.2534 -0.2534 h -1.44329 c -1.437189,0 -1.537512,-0.007 -1.604944,-0.10772 -0.0128,-0.0192 -0.04606,-0.11238 -0.07391,-0.20718 -0.02785,-0.0949 -0.09933,-0.26902 -0.158853,-0.38722 -0.05952,-0.1182 -0.108225,-0.24683 -0.108225,-0.28586 0,-0.0508 0.29128,-0.36271 1.029434,-1.10212 0.566189,-0.56715 1.029434,-1.04675 1.029434,-1.06579 0,-0.0381 -0.299254,-0.32838 -0.338516,-0.32838 -0.01347,0 -0.488513,0.46323 -1.05566,1.02943 -0.7394017,0.73815 -1.0512509,1.02944 -1.1021243,1.02944 -0.039023,0 -0.1676568,-0.0486 -0.2858551,-0.10819 -0.1181992,-0.0596 -0.2924503,-0.13101 -0.3872259,-0.15886 -0.094775,-0.0278 -0.1880038,-0.0611 -0.2071733,-0.0738 -0.1009544,-0.0674 -0.1076848,-0.16777 -0.1076848,-1.60495 v -1.44329 H 8.3905828 8.1371832 v 1.44329 c 0,1.43718 -0.00668,1.53751 -0.1076848,1.60495 -0.019173,0.0127 -0.1123953,0.046 -0.2071722,0.0738 -0.094775,0.0278 -0.2690276,0.0993 -0.387227,0.15886 -0.1181982,0.0595 -0.2468332,0.10819 -0.285854,0.10819 -0.050877,0 -0.3627226,-0.29129 -1.1021256,-1.02944 -0.567147,-0.5662 -1.0415413,-1.02943 -1.0542103,-1.02943 -0.036391,0 -0.2764105,0.2255 -0.3132171,0.29428 -0.029442,0.055 0.085882,0.18153 0.9994218,1.09662 0.7405616,0.74181 1.0326989,1.05451 1.0326989,1.10539 0,0.039 -0.048704,0.16766 -0.1082258,0.28586 -0.059521,0.1182 -0.1310078,0.29245 -0.1588523,0.38722 -0.027846,0.0949 -0.061096,0.18801 -0.073909,0.20718 -0.067427,0.10094 -0.1677545,0.10772 -1.6049425,0.10772 H 3.322594 v 0.2534 0.2534 h 1.4432907 c 1.437188,0 1.5375109,0.007 1.6049425,0.10771 0.012802,0.0192 0.046062,0.11239 0.073909,0.20719 0.027846,0.0949 0.099332,0.26901 0.1588524,0.38722 0.059521,0.1182 0.1082257,0.24684 0.1082257,0.28586 0,0.0508 -0.2912808,0.36271 -1.0294336,1.10211 -0.5661898,0.56716 -1.0294357,1.04155 -1.0294357,1.05421 0,0.0363 0.2255053,0.27642 0.2942789,0.31323 0.055005,0.0294 0.1815462,-0.0859 1.096628,-0.99943 0.7418138,-0.74056 1.0545174,-1.0327 1.1053947,-1.0327 0.039023,0 0.1676558,0.0487 0.2858541,0.10818 0.1181993,0.0595 0.2924514,0.131 0.387227,0.15886 0.094775,0.0278 0.1880038,0.0611 0.2071722,0.0738 0.1009555,0.0674 0.1076848,0.16775 0.1076848,1.60493 v 1.44329 h 0.2533984 0.2533996 z m -0.5601939,-2.66797 c -0.3553955,-0.12701 -0.5600403,-0.3429 -0.664423,-0.70094 -0.062981,-0.21603 -0.041625,-0.45202 0.061146,-0.67556 0.1079454,-0.23482 0.2121663,-0.34563 0.4412438,-0.46917 0.1827786,-0.0985 0.222279,-0.1076 0.4688321,-0.10689 0.2301533,6e-4 0.2932241,0.0132 0.4344721,0.0866 0.366232,0.19022 0.5631799,0.50866 0.5624242,0.90938 -7.188e-4,0.40405 -0.1909449,0.7186 -0.5376944,0.8893 -0.2603257,0.12817 -0.5296784,0.15186 -0.7659962,0.0674 z m 0.5072597,-0.49313 c 0.3254473,-0.13597 0.4047843,-0.56264 0.1516848,-0.81574 -0.2054604,-0.20546 -0.4988389,-0.20546 -0.7043014,0 -0.3917084,0.3917 0.040498,1.02972 0.5526166,0.81574 z m -0.960663,3.2477 v -1.29335 l -0.2134345,-0.0847 -0.2134354,-0.0847 -0.911063,0.91067 -0.9110639,0.91064 0.071306,0.0568 c 0.1487985,0.11835 0.6597042,0.40635 0.9136929,0.51506 0.4133128,0.17691 0.9964287,0.35082 1.208565,0.36046 0.051924,0.002 0.055434,-0.0793 0.055434,-1.29083 z m 1.8113182,1.24536 c 0.5606726,-0.11613 1.2388566,-0.39834 1.7161576,-0.71416 l 0.249123,-0.16484 -0.914571,-0.91458 -0.9145712,-0.91456 -0.2135301,0.0847 -0.2135302,0.0847 v 1.29334 c 0,0.78081 0.011734,1.29335 0.029601,1.29335 0.016281,0 0.1338763,-0.0216 0.2613188,-0.0479 z m -3.3843435,-3.98292 -0.084715,-0.21354 H 4.6773533 3.3820654 l 0.021855,0.15047 c 0.078764,0.54228 0.4020424,1.3412 0.7615087,1.88192 l 0.148286,0.22304 0.9141835,-0.91419 0.9141835,-0.91416 z m 6.6868471,1.60774 c 0.197311,-0.33032 0.358422,-0.68603 0.473417,-1.04524 0.07241,-0.2262 0.177594,-0.66826 0.177594,-0.74642 0,-0.0179 -0.512543,-0.0297 -1.293346,-0.0297 h -1.293346 l -0.08469,0.21344 -0.08469,0.21342 0.910659,0.91107 0.910658,0.91107 0.05671,-0.0713 c 0.03118,-0.0391 0.13335,-0.19961 0.227019,-0.35641 z m -6.6868471,-3.5552 0.084715,-0.21353 -0.9141834,-0.91417 -0.9141835,-0.91419 -0.148286,0.22305 c -0.3594663,0.54071 -0.6827471,1.33964 -0.7615088,1.88192 l -0.021854,0.15046 h 1.2952879 1.2952868 z m 7.3198881,0.0631 c -0.07877,-0.54228 -0.402043,-1.34121 -0.761508,-1.88192 l -0.148287,-0.22306 -0.914183,0.91419 -0.914183,0.91417 0.08471,0.21353 0.08472,0.21355 h 1.295289 1.295287 z m -5.9131557,-1.44077 0.1662929,-0.0647 v -1.29622 -1.2962 l -0.1504555,0.0218 c -0.5422438,0.0787 -1.341206,0.40204 -1.8818366,0.76145 l -0.2229739,0.14825 0.9138286,0.91431 c 0.63114,0.63149 0.9285235,0.90839 0.961339,0.89511 0.026132,-0.0105 0.1223439,-0.0484 0.2138055,-0.0839 z m 3.0287187,-0.81192 0.914008,-0.91441 -0.249041,-0.1648 c -0.471365,-0.31189 -1.153926,-0.59762 -1.7060856,-0.71419 -0.121949,-0.0257 -0.2395412,-0.0471 -0.2613178,-0.0473 -0.031036,-4.8e-4 -0.039591,0.27901 -0.039591,1.29313 v 1.29367 l 0.1979668,0.0812 c 0.1088835,0.0446 0.2051872,0.0825 0.2140108,0.0841 0.00877,0.002 0.4273465,-0.40843 0.9300528,-0.91135 z"
       id="path10565"
       inkscape:connector-curvature="0" />
    <path
       style="fill:#ffffff;stroke-width:0.00362796;stroke-miterlimit:4;stroke-dasharray:none"
       d="m 7.7230392,295.8853 c -0.4295989,-0.0369 -1.079985,-0.17065 -1.5306675,-0.31472 -2.262241,-0.72324 -3.9918854,-2.41736 -4.7358925,-4.63866 -0.308895,-0.92224 -0.3874333,-1.47735 -0.3636856,-2.57054 0.017917,-0.82483 0.061964,-1.13075 0.2633387,-1.82898 0.6899793,-2.39239 2.5978109,-4.28776 5.0235492,-4.9907 0.7452287,-0.21596 1.3756327,-0.28848 2.287254,-0.26312 1.0555094,0.0293 1.9240195,0.24158 2.8956825,0.70759 2.131465,1.02226 3.60651,2.96729 4.050684,5.34136 0.08511,0.45493 0.117179,1.47151 0.06373,2.02056 -0.219861,2.25831 -1.555919,4.34206 -3.549462,5.53583 -0.870477,0.52126 -1.966198,0.89021 -2.8943491,0.97457 -0.4717583,0.0429 -1.1774056,0.0554 -1.5101769,0.0269 z m 1.2118531,-1.75424 c 1.1063627,-0.0916 2.2200197,-0.56601 3.0786897,-1.31136 0.355904,-0.30892 0.802012,-0.80749 1.027158,-1.14793 0.348302,-0.52666 0.651316,-1.24168 0.815248,-1.92372 0.06629,-0.27584 0.07312,-0.38099 0.07372,-1.13589 7.35e-4,-0.93485 -0.02561,-1.13515 -0.231534,-1.7598 -0.14135,-0.42878 -0.472396,-1.09389 -0.716651,-1.43984 -0.952831,-1.34954 -2.396031,-2.20171 -4.033352,-2.3816 -0.7635814,-0.0839 -1.611467,0.0105 -2.327192,0.2591 -0.3573137,0.1241 -1.0424576,0.46144 -1.3456657,0.66255 -0.4876964,0.32347 -1.179605,1.01494 -1.5088848,1.50794 -0.2358153,0.35307 -0.6177072,1.15306 -0.7255266,1.51984 -0.1723449,0.58629 -0.2118214,0.89176 -0.2108783,1.63181 7.698e-4,0.60459 0.00947,0.71235 0.086421,1.07513 0.1091803,0.5145 0.2356947,0.87096 0.4874004,1.37326 0.3145918,0.62781 0.5463334,0.9478 1.054637,1.45624 0.617118,0.6173 1.1340048,0.95985 1.9207099,1.27289 0.7901219,0.31439 1.5906883,0.42134 2.5557054,0.34138 z"
       id="path10567"
       inkscape:connector-curvature="0" />
    <path
       style="fill:#ffffff;stroke-width:0.00362796;stroke-miterlimit:4;stroke-dasharray:none"
       d="m 8.1482451,292.20378 c -0.00778,-0.99306 -0.022861,-1.47421 -0.047966,-1.53178 -0.021915,-0.0502 -0.072861,-0.0929 -0.12693,-0.1062 -0.049681,-0.0123 -0.2443787,-0.0879 -0.4326676,-0.1679 -0.2334334,-0.0993 -0.3668919,-0.13953 -0.419511,-0.12631 -0.042442,0.0105 -0.5324073,0.46594 -1.0888115,1.01176 -0.5564042,0.54582 -1.0305532,0.99239 -1.0536639,0.99239 -0.023111,0 -0.1047548,-0.0639 -0.1814275,-0.14205 l -0.1394077,-0.14204 1.0125533,-1.02787 c 0.5801769,-0.58895 1.0210797,-1.06185 1.0325215,-1.10744 0.013968,-0.0556 -0.023819,-0.18247 -0.1257058,-0.42191 -0.080119,-0.18828 -0.1556819,-0.38298 -0.1679121,-0.43267 -0.01331,-0.054 -0.055932,-0.10503 -0.1061731,-0.12692 -0.057567,-0.0251 -0.5387183,-0.0402 -1.5317772,-0.048 l -1.447841,-0.0117 v -0.23617 -0.23615 l 1.4638401,-0.0105 c 1.0911475,-0.007 1.4814761,-0.0196 1.533113,-0.0492 0.043988,-0.0252 0.095523,-0.11862 0.1411943,-0.25597 0.039551,-0.11897 0.112761,-0.30269 0.1626758,-0.40828 0.04991,-0.10561 0.090768,-0.22521 0.090778,-0.26582 2.6e-5,-0.0744 -0.1658691,-0.25316 -1.4791949,-1.59373 -0.2951073,-0.30123 -0.5365588,-0.56952 -0.5365588,-0.5962 0,-0.0534 0.2353916,-0.27996 0.2907734,-0.27996 0.019043,0 0.4473505,0.40725 0.9518027,0.905 0.5044531,0.49774 0.9775672,0.95773 1.0513658,1.02217 0.1524007,0.1331 0.161604,0.13255 0.5217492,-0.0308 0.1143873,-0.052 0.2837057,-0.11945 0.3762639,-0.15012 0.097906,-0.0324 0.1848861,-0.0847 0.2079768,-0.12506 0.029532,-0.0515 0.042393,-0.43993 0.050239,-1.51715 l 0.01055,-1.44785 h 0.2356473 0.2356498 l 0.00977,1.46696 c 0.00778,1.16167 0.018624,1.47762 0.052293,1.51816 0.02338,0.0281 0.1097749,0.0758 0.1919789,0.10596 0.082204,0.0301 0.2838233,0.11087 0.4480414,0.17947 l 0.2985799,0.1247 0.1153709,-0.0881 c 0.063449,-0.0485 0.543065,-0.50998 1.065802,-1.02571 0.522737,-0.51573 0.964655,-0.9377 0.982039,-0.9377 0.04323,0 0.295294,0.24763 0.295294,0.29009 0,0.0188 -0.423952,0.46508 -0.942118,0.99174 -0.518164,0.52665 -0.979553,1.00661 -1.025308,1.0666 l -0.08319,0.10912 0.162187,0.39508 c 0.231157,0.56307 0.223337,0.55086 0.369612,0.57682 0.06983,0.0124 0.742504,0.0234 1.494822,0.0244 l 1.36785,0.002 v 0.23741 0.23743 l -1.447841,0.0105 c -1.077236,0.008 -1.465586,0.0207 -1.517161,0.0502 -0.04033,0.0231 -0.09263,0.11006 -0.125071,0.20797 -0.03067,0.0925 -0.09821,0.26188 -0.150106,0.37627 -0.163479,0.36034 -0.164003,0.36935 -0.03035,0.52175 0.06471,0.0738 0.524694,0.54813 1.022172,1.0541 0.497478,0.50595 0.904506,0.93967 0.904506,0.96382 0,0.0242 -0.06643,0.10514 -0.147633,0.17997 l -0.147633,0.13608 -0.564289,-0.55732 c -1.2332073,-1.21799 -1.5346447,-1.49848 -1.6103246,-1.49846 -0.040619,10e-6 -0.1602321,0.0409 -0.2658202,0.0908 -0.1055889,0.05 -0.2893167,0.12313 -0.4082847,0.16269 -0.1373509,0.0457 -0.2307834,0.0972 -0.2559719,0.1412 -0.029571,0.0516 -0.042084,0.44197 -0.049173,1.5331 l -0.00947,1.46384 H 8.3958002 8.1596359 Z m 0.5826843,-2.66667 c 0.228284,-0.0717 0.4486526,-0.25916 0.5593066,-0.47551 0.085294,-0.16678 0.096451,-0.22054 0.096132,-0.46305 -4.338e-4,-0.33195 -0.078036,-0.53353 -0.2813408,-0.73078 -0.2305689,-0.22371 -0.3754761,-0.27948 -0.726061,-0.27948 -0.2774553,0 -0.3179208,0.008 -0.4639487,0.0929 -0.3543795,0.20584 -0.5354322,0.51792 -0.5345467,0.9214 8.045e-4,0.36609 0.1958063,0.69474 0.5154659,0.86871 0.2725292,0.14832 0.5124771,0.16724 0.8349913,0.0658 z"
       id="path10569"
       inkscape:connector-curvature="0" />
    <path
       style="fill:#ffffff;stroke-width:0.00362796;stroke-miterlimit:4;stroke-dasharray:none"
       d="m 8.2014005,289.03111 c -0.1980726,-0.0862 -0.3400036,-0.34942 -0.290567,-0.53872 0.064507,-0.24701 0.3301782,-0.43517 0.5548978,-0.39301 0.1548552,0.029 0.3572708,0.22451 0.39184,0.37838 0.087039,0.38738 -0.29587,0.71028 -0.6561708,0.55335 z"
       id="path10571"
       inkscape:connector-curvature="0" />
  </g>
</svg>
