<?xml version="1.0" encoding="UTF-8" standalone="no"?>
<!-- Created with Inkscape (http://www.inkscape.org/) -->

<svg
   xmlns:dc="http://purl.org/dc/elements/1.1/"
   xmlns:cc="http://creativecommons.org/ns#"
   xmlns:rdf="http://www.w3.org/1999/02/22-rdf-syntax-ns#"
   xmlns:svg="http://www.w3.org/2000/svg"
   xmlns="http://www.w3.org/2000/svg"
   xmlns:sodipodi="http://sodipodi.sourceforge.net/DTD/sodipodi-0.dtd"
   xmlns:inkscape="http://www.inkscape.org/namespaces/inkscape"
   width="64"
   height="64"
   viewBox="0 0 16.933333 16.933334"
   version="1.1"
   id="svg8"
   inkscape:version="0.92.5 (2060ec1f9f, 2020-04-08)"
   sodipodi:docname="x_check_64x64.svg">
  <defs
     id="defs2" />
  <sodipodi:namedview
     id="base"
     pagecolor="#ffffff"
     bordercolor="#666666"
     borderopacity="1.0"
     inkscape:pageopacity="0.0"
     inkscape:pageshadow="2"
     inkscape:zoom="2.8"
     inkscape:cx="52.430172"
     inkscape:cy="-22.318663"
     inkscape:document-units="mm"
     inkscape:current-layer="layer1"
     showgrid="false"
     units="px"
     inkscape:window-width="1208"
     inkscape:window-height="987"
     inkscape:window-x="1992"
     inkscape:window-y="0"
     inkscape:window-maximized="1" />
  <metadata
     id="metadata5">
    <rdf:RDF>
      <cc:Work
         rdf:about="">
        <dc:format>image/svg+xml</dc:format>
        <dc:type
           rdf:resource="http://purl.org/dc/dcmitype/StillImage" />
        <dc:title />
      </cc:Work>
    </rdf:RDF>
  </metadata>
  <g
     inkscape:label="Layer 1"
     inkscape:groupmode="layer"
     id="layer1"
     transform="translate(0,-280.06665)">
    <path
       style="fill:#000000;stroke-width:0.03137242"
       d="m 7.9208626,294.04936 c -0.6015491,-0.0608 -0.812956,-0.0908 -1.2171807,-0.17269 -1.3917926,-0.28172 -2.7849193,-0.94417 -3.8832247,-1.84657 -0.4818482,-0.39591 -1.1175687,-1.0805 -1.487021,-1.60136 -0.067326,-0.0949 -0.1260881,-0.17766 -0.1306301,-0.18405 -0.00449,-0.007 -0.07861,0.0608 -0.1646006,0.14904 -0.13562158,0.13933 -0.17269101,0.16062 -0.27931943,0.16062 -0.224011,0 -0.36985896,-0.21267 -0.28553465,-0.41613 0.0840792,-0.20298 1.18592688,-1.27584 1.86322338,-1.81418 1.5003017,-1.19249 3.2035082,-2.00215 4.8156687,-2.28922 1.7851496,-0.31787 3.6503375,0.0286 5.5264455,1.02666 0.862786,0.45895 1.624983,0.98866 2.457841,1.70812 0.429681,0.3712 1.278623,1.24485 1.329891,1.36862 0.08433,0.20368 -0.06153,0.41613 -0.285537,0.41613 -0.106618,0 -0.143712,-0.0213 -0.279317,-0.16062 -0.08599,-0.0882 -0.160082,-0.15542 -0.1646,-0.14904 -0.0045,0.007 -0.0633,0.0892 -0.13063,0.18405 -0.36945,0.52086 -1.005173,1.20545 -1.487021,1.60136 -1.271236,1.04448 -2.879199,1.73929 -4.5357013,1.95988 -0.3627292,0.0483 -1.4040749,0.0854 -1.6627401,0.0594 z M 9.312085,293.3932 c 1.02719,-0.11473 1.830903,-0.34992 2.782918,-0.81434 1.154702,-0.5633 2.144257,-1.36698 2.864932,-2.32681 0.380791,-0.50717 0.372066,-0.45375 0.113527,-0.695 -0.655154,-0.61128 -1.437343,-1.20718 -2.159097,-1.64485 -3.0039884,-1.82158 -5.8849902,-1.82158 -8.8889764,0 -0.7217562,0.43767 -1.5039447,1.03357 -2.1590989,1.64485 -0.258535,0.24125 -0.2672595,0.18783 0.1135266,0.695 1.1374352,1.51488 2.962273,2.6399 4.9182636,3.0321 0.7646167,0.15329 1.6569798,0.19374 2.4139957,0.10905 z m -1.2449058,-0.92895 c -0.2653149,-0.044 -0.6295108,-0.17695 -0.8678835,-0.31681 -0.2850206,-0.16701 -0.7201358,-0.60222 -0.8872321,-0.88723 -0.2294898,-0.39146 -0.3948686,-1.04781 -0.3390184,-1.34552 0.042771,-0.22781 0.2494344,-0.33077 0.4530749,-0.22545 0.1106169,0.0573 0.161407,0.17033 0.161407,0.3596 0,0.21173 0.1057437,0.60023 0.2256102,0.82908 0.1333505,0.25448 0.513945,0.63508 0.7684442,0.76843 0.2499596,0.13106 0.6226718,0.22568 0.88828,0.22568 0.2656059,0 0.638318,-0.0946 0.8882753,-0.22568 0.2545039,-0.13342 0.6351102,-0.51395 0.7684442,-0.76843 0.218087,-0.41628 0.276854,-0.89756 0.163654,-1.34017 -0.09032,-0.35314 -0.23001,-0.59493 -0.5016718,-0.86831 -0.5197503,-0.52301 -1.2137269,-0.68582 -1.9369497,-0.45443 -0.2947978,0.0944 -0.3808618,0.0854 -0.4955617,-0.0506 -0.086085,-0.10243 -0.098174,-0.19871 -0.040784,-0.32461 0.1062405,-0.23325 0.9419585,-0.41789 1.4977255,-0.33105 0.5721372,0.0894 1.0047802,0.30976 1.4165007,0.72147 0.42839,0.42839 0.652441,0.88496 0.727988,1.48347 0.06359,0.50369 -0.0611,1.08842 -0.3298,1.54674 -0.167084,0.28501 -0.602214,0.72015 -0.8872339,0.88723 -0.4952494,0.29036 -1.1204855,0.40873 -1.6732813,0.31683 z m 0.142269,-1.57632 c -0.6743277,-0.18972 -0.8967064,-1.05881 -0.3983911,-1.55713 0.1909537,-0.1909 0.3724827,-0.26358 0.658821,-0.26358 0.2863406,0 0.467879,0.0726 0.6588233,0.26358 0.19093,0.19091 0.263569,0.37249 0.263569,0.65883 0,0.17175 -0.017742,0.27465 -0.065883,0.38115 -0.082892,0.18357 -0.2887914,0.39147 -0.4646003,0.46925 -0.1804266,0.0797 -0.4646618,0.10077 -0.6523462,0.048 z m 0.4674887,-0.69126 c 0.076859,-0.0769 0.1066663,-0.1346 0.1066663,-0.20699 0,-0.0724 -0.029807,-0.13011 -0.1066663,-0.20699 -0.076859,-0.0769 -0.1347226,-0.10669 -0.2070636,-0.10669 -0.1395012,0 -0.3137228,0.17411 -0.3137228,0.31373 0,0.13933 0.1742287,0.31373 0.3137228,0.31373 0.072341,0 0.1302043,-0.0298 0.2070636,-0.10669 z m -2.1992058,-1.17669 c -0.1999194,-0.0856 -0.2527936,-0.34474 -0.101249,-0.49631 0.1905042,-0.19043 0.5076619,-0.0587 0.5076619,0.21102 0,0.20652 -0.2235994,0.36352 -0.4064153,0.28525 z m -1.9482267,-3.48199 c -0.1433335,-0.10646 -1.2976807,-1.26904 -1.3729621,-1.38278 -0.1773986,-0.26796 0.1521337,-0.59749 0.4201004,-0.42009 0.1137159,0.0752 1.2763191,1.22963 1.3827701,1.37296 0.1227525,0.16536 0.121002,0.2976 -0.00568,0.42425 -0.1266559,0.12656 -0.2589703,0.12846 -0.4242498,0.005 z m 7.4564996,-0.005 c -0.110735,-0.11072 -0.127578,-0.25045 -0.04518,-0.37493 0.07527,-0.11379 1.229633,-1.27631 1.37296,-1.38276 0.165286,-0.12278 0.297601,-0.12088 0.424252,0.005 0.126656,0.12656 0.128406,0.25897 0.0057,0.42425 -0.106453,0.14336 -1.269049,1.29769 -1.382768,1.37297 -0.124479,0.0826 -0.264179,0.0655 -0.374921,-0.0452 z m -3.625929,-0.27702 c -0.034515,-0.0142 -0.090982,-0.0584 -0.1254967,-0.0967 -0.060134,-0.067 -0.06276,-0.11379 -0.06276,-1.13238 v -1.06267 l 0.086275,-0.0861 c 0.1204106,-0.12041 0.3031224,-0.12041 0.4235283,0 l 0.086275,0.0861 v 1.06525 1.06524 l -0.078421,0.0783 c -0.087126,0.0871 -0.2335114,0.12396 -0.3294093,0.0828 z"
       id="path5008"
       inkscape:connector-curvature="0" />
    <path
       style="fill:#ffffff;stroke-width:0.00239556;stroke-miterlimit:4;stroke-dasharray:none"
       d="m 7.804457,293.38417 c -0.8962403,-0.12491 -1.2193949,-0.19091 -1.7430035,-0.35643 -0.6447313,-0.20392 -1.6503844,-0.67818 -2.140058,-1.00949 -0.8102213,-0.54814 -1.7094305,-1.43071 -2.1319912,-2.09252 l -0.1069265,-0.16748 0.4880816,-0.42567 c 2.0454257,-1.78393 4.2578767,-2.75693 6.2677209,-2.75646 2.0996907,5e-4 4.4457577,1.04109 6.4559277,2.86357 l 0.371267,0.33661 -0.297641,0.40391 c -0.38297,0.51972 -1.023937,1.1566 -1.585767,1.57562 -0.910075,0.67877 -2.307739,1.29587 -3.4174087,1.50885 -0.5117686,0.0984 -1.8008975,0.16962 -2.1601966,0.11946 z m 1.2562538,-0.94552 c 0.5221703,-0.13602 0.7896639,-0.28962 1.1749992,-0.67487 0.952741,-0.95245 1.017469,-2.34862 0.157551,-3.39804 -0.6646358,-0.81112 -1.9173056,-1.12843 -2.8412238,-0.71974 -0.2709191,0.1197 -0.2929976,0.14643 -0.2746142,0.33164 0.029168,0.29376 0.16285,0.35087 0.6066966,0.2592 0.568416,-0.11757 0.955154,-0.0956 1.3147487,0.0738 0.9075997,0.42804 1.3285427,1.42494 0.9854007,2.33369 -0.2525284,0.66879 -1.0048107,1.19176 -1.7142916,1.19176 -0.9214201,0 -1.8380734,-0.87043 -1.8380734,-1.74539 0,-0.38283 -0.3324042,-0.59332 -0.5812922,-0.36809 -0.145297,0.13153 -0.1501939,0.45368 -0.013721,0.91356 0.1531036,0.51637 0.2933523,0.75326 0.667569,1.12748 0.6631666,0.66318 1.4910237,0.90027 2.3563854,0.67487 z m -0.1460777,-1.60714 c 0.8762058,-0.4656 0.5476221,-1.78364 -0.4446628,-1.78364 -0.3419447,0 -0.645836,0.1682 -0.8280723,0.45849 -0.1647425,0.26237 -0.1416066,0.79343 0.045728,1.04901 0.273694,0.37337 0.814839,0.49517 1.2270004,0.27614 z m -2.1052667,-1.86014 c 0.041824,-0.0419 0.076055,-0.15022 0.076055,-0.24087 0,-0.30436 -0.2863288,-0.42158 -0.5179075,-0.21196 -0.1315054,0.11899 -0.1451551,0.22899 -0.050293,0.40632 0.074375,0.1391 0.3716287,0.16701 0.4921481,0.0466 z"
       id="path5010"
       inkscape:connector-curvature="0" />
    <path
       style="fill:#ffffff;stroke-width:0.00239556;stroke-miterlimit:4;stroke-dasharray:none"
       d="m 8.292496,290.17562 c -0.1125094,-0.11261 -0.092567,-0.26964 0.050695,-0.3993 0.1223267,-0.11071 0.1311978,-0.11071 0.2535293,0 0.2044141,0.18499 0.126987,0.47535 -0.1267741,0.47535 -0.055782,0 -0.1356453,-0.0343 -0.1774696,-0.0759 z"
       id="path5012"
       inkscape:connector-curvature="0" />
  </g>
</svg>
