<?xml version="1.0" encoding="UTF-8" standalone="no"?>
<svg
   viewbox="0 0 576 448">
  <path
     d="m 208,224 c 35.35,0 64,-28.65 64,-64 0,-35.35 -28.65,-64 -64,-64 -35.35,0 -64,28.65 -64,64 0,35.3 28.7,64 64,64 z m 256,-24 h -96 c -13.25,0 -24,10.75 -24,24 0,13.25 10.75,24 24,24 h 96 c 13.25,0 24,-10.75 24,-24 0,-13.25 -10.7,-24 -24,-24 z m -224,56 h -64 c -44.2,0 -80,35.8 -80,80 0,8.8 7.2,16 16,16 h 192 c 8.836,0 16,-7.164 16,-16 0,-44.2 -35.8,-80 -80,-80 z M 464,120 h -96 c -13.25,0 -24,10.75 -24,24 0,13.25 10.75,24 24,24 h 96 c 13.25,0 24,-10.75 24,-24 0,-13.25 -10.7,-24 -24,-24 z M 512,0 H 64 C 28.65,0 0,28.65 0,64 v 320 c 0,35.35 28.65,64 64,64 h 448 c 35.35,0 64,-28.65 64,-64 V 64 C 576,28.65 547.3,0 512,0 Z m 16,384 c 0,8.822 -7.178,16 -16,16 H 64 c -8.822,0 -16,-7.178 -16,-16 V 64 c 0,-8.822 7.178,-16 16,-16 h 448 c 8.822,0 16,7.178 16,16 z" />
</svg>
