<?xml version="1.0" encoding="UTF-8" standalone="no"?>
<svg
   xmlns:dc="http://purl.org/dc/elements/1.1/"
   xmlns:cc="http://creativecommons.org/ns#"
   xmlns:rdf="http://www.w3.org/1999/02/22-rdf-syntax-ns#"
   xmlns:svg="http://www.w3.org/2000/svg"
   xmlns="http://www.w3.org/2000/svg"
   xmlns:sodipodi="http://sodipodi.sourceforge.net/DTD/sodipodi-0.dtd"
   xmlns:inkscape="http://www.inkscape.org/namespaces/inkscape"
   width="16"
   height="12"
   fill="currentColor"
   class="bi bi-camera-fill"
   viewBox="0 0 16 12"
   version="1.1"
   id="svg6"
   sodipodi:docname="camera-fill.svg"
   inkscape:version="1.0.1 (3bc2e813f5, 2020-09-07)">
  <metadata
     id="metadata12">
    <rdf:RDF>
      <cc:Work
         rdf:about="">
        <dc:format>image/svg+xml</dc:format>
        <dc:type
           rdf:resource="http://purl.org/dc/dcmitype/StillImage" />
        <dc:title />
      </cc:Work>
    </rdf:RDF>
  </metadata>
  <defs
     id="defs10" />
  <sodipodi:namedview
     pagecolor="#ffffff"
     bordercolor="#666666"
     borderopacity="1"
     objecttolerance="10"
     gridtolerance="10"
     guidetolerance="10"
     inkscape:pageopacity="0"
     inkscape:pageshadow="2"
     inkscape:window-width="1920"
     inkscape:window-height="1009"
     id="namedview8"
     showgrid="false"
     fit-margin-top="0"
     fit-margin-left="0"
     fit-margin-right="0"
     fit-margin-bottom="0"
     inkscape:zoom="26.3125"
     inkscape:cx="7.1168584"
     inkscape:cy="10.580003"
     inkscape:window-x="-8"
     inkscape:window-y="-8"
     inkscape:window-maximized="1"
     inkscape:current-layer="svg6"
     inkscape:document-rotation="0" />
  <rect
     style="fill:#ffffff;stroke-width:7.55906;stroke-linecap:round;fill-opacity:1"
     id="rect831"
     width="11.401425"
     height="8.32304"
     x="1.5961995"
     y="2.736342" />
  <path
     d="m 10.5,6.5 a 2.5,2.5 0 1 1 -5,0 2.5,2.5 0 0 1 5,0 z"
     id="path2" />
  <path
     d="M 2,2 A 2,2 0 0 0 0,4 v 6 a 2,2 0 0 0 2,2 h 12 a 2,2 0 0 0 2,-2 V 4 A 2,2 0 0 0 14,2 H 12.828 A 2,2 0 0 1 11.414,1.414 L 10.586,0.586 A 2,2 0 0 0 9.172,0 H 6.828 A 2,2 0 0 0 5.414,0.586 L 4.586,1.414 A 2,2 0 0 1 3.172,2 Z m 0.5,2 a 0.5,0.5 0 1 1 0,-1 0.5,0.5 0 0 1 0,1 z m 9,2.5 a 3.5,3.5 0 1 1 -7,0 3.5,3.5 0 0 1 7,0 z"
     id="path4" />
</svg>
