<?xml version="1.0" encoding="UTF-8" standalone="no"?>
<svg
   xmlns:dc="http://purl.org/dc/elements/1.1/"
   xmlns:cc="http://creativecommons.org/ns#"
   xmlns:rdf="http://www.w3.org/1999/02/22-rdf-syntax-ns#"
   xmlns:svg="http://www.w3.org/2000/svg"
   xmlns="http://www.w3.org/2000/svg"
   xmlns:sodipodi="http://sodipodi.sourceforge.net/DTD/sodipodi-0.dtd"
   xmlns:inkscape="http://www.inkscape.org/namespaces/inkscape"
   width="59.904385mm"
   height="12.888793mm"
   viewBox="0 0 59.904385 12.888793"
   version="1.1"
   id="svg8"
   inkscape:version="1.0.1 (3bc2e813f5, 2020-09-07)"
   sodipodi:docname="logo_serenicia.svg">
  <defs
     id="defs2" />
  <sodipodi:namedview
     id="base"
     pagecolor="#ffffff"
     bordercolor="#666666"
     borderopacity="1.0"
     inkscape:pageopacity="0.0"
     inkscape:pageshadow="2"
     inkscape:zoom="1.979899"
     inkscape:cx="168.05962"
     inkscape:cy="50.462306"
     inkscape:document-units="mm"
     inkscape:current-layer="g851"
     inkscape:document-rotation="0"
     showgrid="false"
     fit-margin-top="0"
     fit-margin-left="0"
     fit-margin-right="0"
     fit-margin-bottom="0"
     inkscape:window-width="1920"
     inkscape:window-height="1009"
     inkscape:window-x="-8"
     inkscape:window-y="-8"
     inkscape:window-maximized="1" />
  <metadata
     id="metadata5">
    <rdf:RDF>
      <cc:Work
         rdf:about="">
        <dc:format>image/svg+xml</dc:format>
        <dc:type
           rdf:resource="http://purl.org/dc/dcmitype/StillImage" />
        <dc:title></dc:title>
      </cc:Work>
    </rdf:RDF>
  </metadata>
  <g
     inkscape:label="Calque 1"
     inkscape:groupmode="layer"
     id="layer1"
     transform="translate(-67.736627,-135.55075)">
    <g
       id="g851"
       transform="translate(0.66817385,-0.13363519)">
      <path
         style="fill:#d0d0d0;fill-opacity:1;stroke-width:0.264583"
         d="m 71.891811,148.41195 c 0.190996,-0.0764 0.419199,-0.067 0.507118,0.0209 0.08792,0.0879 -0.06835,0.15045 -0.347265,0.13897 -0.308225,-0.0127 -0.37092,-0.0754 -0.159853,-0.15986 z m 9.260417,-0.79375 c 0.190996,-0.0764 0.419199,-0.067 0.507118,0.0209 0.08792,0.0879 -0.06835,0.15045 -0.347266,0.13897 -0.308224,-0.0127 -0.370919,-0.0754 -0.159852,-0.15986 z m 11.641666,0 c 0.190997,-0.0764 0.4192,-0.067 0.507119,0.0209 0.08792,0.0879 -0.06835,0.15045 -0.347266,0.13897 -0.308225,-0.0127 -0.370919,-0.0754 -0.159853,-0.15986 z m 29.989306,-0.87759 c 0,-0.3638 0.0601,-0.51263 0.13345,-0.33073 0.0734,0.1819 0.0734,0.47956 0,0.66146 -0.0734,0.1819 -0.13345,0.0331 -0.13345,-0.33073 z m -15.19766,-0.5348 c 0.46828,-0.4913 0.89625,-0.83985 0.95103,-0.77455 0.0548,0.0653 -0.32835,0.46727 -0.85141,0.89327 l -0.95103,0.77455 z m -17.536806,-0.1928 c 0.871781,-0.96466 1.217209,-1.08022 1.186382,-0.39688 -0.01401,0.31049 -0.06721,0.34698 -0.16151,0.11078 -0.102215,-0.25603 -0.367497,-0.14764 -0.9713,0.39688 l -0.830677,0.74911 z m 5.572895,0.19843 c 0.26339,-0.29104 0.538422,-0.52916 0.611182,-0.52916 0.07276,0 -0.08321,0.23812 -0.346599,0.52916 -0.26339,0.29104 -0.538422,0.52917 -0.611182,0.52917 -0.07276,0 0.08321,-0.23813 0.346599,-0.52917 z m 22.225001,0 c 0.26339,-0.29104 0.53842,-0.52916 0.61118,-0.52916 0.0728,0 -0.0832,0.23812 -0.3466,0.52916 -0.26339,0.29104 -0.53842,0.52917 -0.61118,0.52917 -0.0728,0 0.0832,-0.23813 0.3466,-0.52917 z m -14.7044,-0.33073 c 0.68062,-0.77206 1.07836,-0.92657 1.07836,-0.41892 0,0.16977 -0.0805,0.22822 -0.17881,0.12987 -0.0983,-0.0983 -0.4853,0.0902 -0.8599,0.41893 l -0.68108,0.59773 z m 7.64333,0.41458 c 0.191,-0.0764 0.4192,-0.067 0.50712,0.0209 0.0879,0.0879 -0.0684,0.15046 -0.34727,0.13897 -0.30822,-0.0127 -0.37091,-0.0754 -0.15985,-0.15985 z m -42.379403,-0.48072 c -0.08376,-0.21828 -0.03697,-0.39688 0.103984,-0.39688 0.140954,0 0.256279,0.1786 0.256279,0.39688 0,0.21828 -0.04679,0.39687 -0.103984,0.39687 -0.05719,0 -0.172517,-0.17859 -0.256279,-0.39687 z m 45.176353,-0.0599 c 0.4984,-0.5891 0.9753,-0.58432 0.93594,0.009 -0.014,0.21141 -0.0666,0.20095 -0.15973,-0.0318 -0.10716,-0.26773 -0.26846,-0.23753 -0.70672,0.13229 l -0.56787,0.47919 z m 6.26938,-0.49131 c 0.0127,-0.30822 0.0754,-0.37092 0.15985,-0.15985 0.0764,0.191 0.067,0.4192 -0.0209,0.50712 -0.0879,0.0879 -0.15045,-0.0684 -0.13897,-0.34727 z m 2.75724,-0.11024 c 0.26339,-0.29104 0.53842,-0.52917 0.61118,-0.52917 0.0728,0 -0.0832,0.23813 -0.3466,0.52917 -0.26339,0.29104 -0.53842,0.52917 -0.61118,0.52917 -0.0728,0 0.0832,-0.23813 0.3466,-0.52917 z m -37.824119,0.0183 c -0.08372,-0.13546 -0.05106,-0.30882 0.07258,-0.38523 0.123641,-0.0764 0.224802,0.0344 0.224802,0.2463 0,0.44613 -0.08343,0.48511 -0.297382,0.13893 z m 39.300219,-0.17262 c 0.0127,-0.30822 0.0754,-0.37092 0.15985,-0.15985 0.0764,0.19099 0.067,0.4192 -0.0209,0.50712 -0.0879,0.0879 -0.15045,-0.0684 -0.13896,-0.34727 z m -5.55058,-0.29665 c 0.19266,-0.3208 0.40723,-0.52633 0.47684,-0.45672 0.0696,0.0696 -0.088,0.33208 -0.35028,0.58328 -0.4556,0.43637 -0.46124,0.43074 -0.12656,-0.12656 z m -4.37518,-0.15573 c 0.0994,-0.26094 0.24731,-0.40779 0.32877,-0.32632 0.0815,0.0815 1.7e-4,0.29495 -0.18065,0.47443 -0.26131,0.25936 -0.2917,0.22897 -0.14812,-0.14811 z M 77.199338,143.3672 c -0.329107,-0.41964 -0.319749,-0.429 0.0999,-0.0999 0.440729,0.34564 0.580887,0.56291 0.363126,0.56291 -0.05494,0 -0.263302,-0.20836 -0.463021,-0.46302 z m 41.837912,0.38023 c 0,-0.0455 0.38696,-0.43249 0.8599,-0.85989 l 0.8599,-0.77711 -0.77711,0.8599 c -0.72437,0.80154 -0.94269,0.98151 -0.94269,0.7771 z m -20.372913,-0.28168 c 0,-0.0549 0.20836,-0.26331 0.463021,-0.46303 0.419645,-0.3291 0.429003,-0.31974 0.0999,0.0999 -0.345644,0.44073 -0.562917,0.58089 -0.562917,0.36313 z m -3.175,-0.26459 c 0,-0.0549 0.20836,-0.2633 0.463021,-0.46302 0.419645,-0.32911 0.429003,-0.31975 0.0999,0.0999 -0.345644,0.44072 -0.562917,0.58088 -0.562917,0.36312 z m 16.271873,-0.16469 c -0.0899,-0.14552 -0.0374,-0.26458 0.11668,-0.26458 0.15411,0 0.2802,0.11906 0.2802,0.26458 0,0.14552 -0.0525,0.26459 -0.11668,0.26459 -0.0642,0 -0.19026,-0.11907 -0.2802,-0.26459 z m -22.092706,-0.0999 c 0,-0.0549 0.208359,-0.2633 0.463021,-0.46302 0.419644,-0.32911 0.429002,-0.31975 0.09989,0.0999 -0.345643,0.44073 -0.562915,0.58089 -0.562915,0.36313 z m 2.778125,-0.69386 c 0.263389,-0.29104 0.53842,-0.52916 0.611181,-0.52916 0.07276,0 -0.08321,0.23812 -0.346598,0.52916 -0.263389,0.29104 -0.53842,0.52917 -0.611181,0.52917 -0.07276,0 0.08321,-0.23813 0.346598,-0.52917 z m 0.926041,0.42928 c 0,-0.0549 0.20836,-0.26331 0.463021,-0.46303 0.419645,-0.3291 0.429004,-0.31974 0.0999,0.0999 -0.345643,0.44073 -0.562917,0.58089 -0.562917,0.36313 z m 31.17122,-2.4621 c 0.191,-0.0764 0.4192,-0.067 0.50712,0.0209 0.0879,0.0879 -0.0684,0.15045 -0.34726,0.13896 -0.30823,-0.0127 -0.37092,-0.0754 -0.15986,-0.15985 z m -29.449555,-1.66831 c -0.09269,-0.14998 0.01352,-0.19434 0.248968,-0.10399 0.458369,0.1759 0.542234,0.36554 0.16165,0.36554 -0.136933,0 -0.321712,-0.1177 -0.410618,-0.26155 z m 1.188752,-0.36751 c 0,-0.0549 0.20836,-0.2633 0.463021,-0.46302 0.419645,-0.32911 0.429003,-0.31975 0.0999,0.0999 -0.345644,0.44073 -0.562917,0.58089 -0.562917,0.36313 z m -19.243402,-2.20013 c 0.257431,-0.0671 0.614618,-0.0627 0.79375,0.01 0.179131,0.0725 -0.03149,0.12736 -0.468056,0.12197 -0.436563,-0.005 -0.583125,-0.0647 -0.325694,-0.13178 z"
         id="path855" />
      <path
         style="fill:#93a9d2;fill-opacity:1;stroke-width:0.264583"
         d="m 68.71414,148.35539 c -1.776515,-0.37054 -2.141896,-1.24831 -0.963523,-2.31473 0.416138,-0.3766 0.561863,-0.40019 0.735603,-0.11907 0.164968,0.26692 0.902861,0.32616 3.092702,0.24828 2.319525,-0.0825 3.116393,-0.21955 4.11817,-0.70833 0.728007,-0.3552 1.189999,-0.74189 1.116181,-0.93426 -0.217713,-0.56735 -1.598387,-1.22272 -3.717964,-1.76482 -2.946094,-0.75348 -3.365223,-1.08419 -3.202598,-2.527 0.231761,-2.05617 1.223403,-2.97068 4.033084,-3.71938 1.468956,-0.39144 5.359446,-0.47546 5.908166,-0.12761 0.199832,0.12669 0.314175,0.55352 0.264584,0.98769 -0.07397,0.64756 -0.350559,0.89462 -1.807125,1.61417 l -1.719791,0.8496 0.926041,-0.77588 0.926042,-0.77587 -1.605624,-0.007 c -2.804234,-0.0124 -5.773273,1.14614 -5.617546,2.19206 0.06084,0.40859 0.474878,0.64462 1.76942,1.00865 4.700659,1.32186 6.118288,3.1798 4.024107,5.27398 -1.238735,1.23873 -5.792376,2.11847 -8.279929,1.59964 z m 40.6538,-1.20588 c -0.35719,-0.35719 -0.64944,-0.89297 -0.64944,-1.19062 0,-0.75207 -0.17501,-0.69115 -1.48585,0.51714 -0.63148,0.58208 -1.32941,1.05833 -1.55094,1.05833 -0.62393,0 -1.46112,-0.98541 -1.46112,-1.71979 0,-0.3638 -0.0769,-0.66146 -0.171,-0.66146 -0.094,0 -0.7524,0.54384 -1.46301,1.20852 -0.73434,0.6869 -1.48849,1.17127 -1.74723,1.12222 -0.78233,-0.14832 -0.6981,-1.43054 0.19831,-3.0189 0.69444,-1.23048 0.74138,-1.41486 0.30009,-1.17868 -0.28772,0.15398 -1.20864,1.05595 -2.046488,2.00438 -0.837851,0.94843 -1.643615,1.68433 -1.790591,1.63533 -0.146976,-0.049 -0.369711,-0.48456 -0.494967,-0.96793 l -0.227735,-0.87886 -0.975045,0.93172 c -1.215713,1.16169 -1.910765,1.52345 -2.927023,1.52345 -0.894543,0 -1.619897,-0.79645 -1.619897,-1.77866 0,-0.33143 -0.07598,-0.60259 -0.168849,-0.60259 -0.09287,0 -0.693716,0.48381 -1.33522,1.07512 -1.456863,1.34289 -2.290378,1.34862 -2.41774,0.0166 -0.06115,-0.63956 0.145126,-1.26338 0.727604,-2.20039 0.447125,-0.71927 0.812955,-1.34685 0.812955,-1.39462 0,-0.29643 -1.990678,0.43544 -2.199542,0.80866 -0.436999,0.78088 -2.653788,3.0247 -3.52023,3.56316 -2.827577,1.75723 -4.760321,-1.32786 -2.603442,-4.15567 1.432015,-1.87747 4.374099,-2.86608 4.564667,-1.53384 0.117041,0.81822 -0.786348,1.77916 -2.562674,2.72593 -1.415472,0.75444 -1.568535,0.91391 -1.377283,1.43491 0.156168,0.42543 0.468151,0.608 1.137827,0.66583 0.74654,0.0645 1.184796,-0.12752 2.295898,-1.0058 1.279295,-1.01122 1.361879,-1.146 1.207257,-1.97021 -0.184068,-0.98116 0.363099,-2.07682 1.283027,-2.56915 0.444501,-0.23789 0.504763,-0.21412 0.367044,0.14477 -0.141806,0.36954 0.04487,0.41992 1.339385,0.36151 1.910391,-0.0862 2.067401,0.35054 0.747458,2.07922 -1.007833,1.31992 -1.247761,2.48311 -0.512185,2.48311 0.649498,0 2.214043,-1.04775 2.214043,-1.4827 0,-0.5092 2.035236,-2.69494 2.949699,-3.16783 0.901213,-0.46603 2.330871,-0.49364 2.373315,-0.0458 0.112022,1.18183 -0.787468,2.22376 -2.688375,3.1141 -1.318474,0.61754 -1.622335,1.16581 -0.994223,1.79392 0.947558,0.94756 2.939053,-0.0848 4.491594,-2.32833 1.061754,-1.53432 1.681591,-2.11667 2.252935,-2.11667 0.576511,0 0.394431,0.52112 -0.579737,1.65921 -0.509323,0.59503 -0.926041,1.31869 -0.926041,1.60813 0,0.40308 0.448982,0.092 1.918229,-1.32899 2.02124,-1.95487 2.95084,-2.5964 3.37891,-2.33184 0.5005,0.30932 0.24906,1.08257 -0.81059,2.49283 -1.10791,1.47449 -1.26668,2.33161 -0.40377,2.17975 0.65709,-0.11564 2.00264,-1.12707 2.00264,-1.50536 0,-0.59544 1.59249,-2.69106 2.28463,-3.00642 1.54738,-0.70503 1.37133,0.50428 -0.35431,2.43383 -0.95969,1.07309 -1.03373,1.66 -0.26949,2.13613 0.68272,0.42534 2.3038,-0.57828 2.96938,-1.83838 0.29104,-0.55101 1.18401,-1.51719 1.98437,-2.14707 1.47253,-1.15886 2.54411,-1.45394 2.80557,-0.77257 0.16521,0.43052 -0.46104,1.75435 -1.06833,2.25836 -0.34709,0.28805 -0.41432,0.27419 -0.41432,-0.0854 0,-0.57948 -0.14344,-0.54777 -1.34937,0.29833 -1.33156,0.93425 -1.60085,1.82563 -0.75777,2.50832 0.42329,0.34276 0.83249,0.44801 1.29666,0.3335 1.02417,-0.25265 3.19173,-1.71973 3.19173,-2.16027 0,-0.62285 1.57724,-2.73874 2.28033,-3.05909 1.56875,-0.71477 1.21398,1.0412 -0.54403,2.69276 -1.63055,1.53182 -0.21471,2.77139 1.71038,1.49743 0.57818,-0.38262 1.05123,-0.85629 1.05123,-1.05259 0,-0.54585 2.51504,-2.77701 3.7751,-3.34901 1.76172,-0.79972 3.3868,-0.57213 2.60875,0.36535 -0.15195,0.1831 -0.21271,0.57602 -0.13501,0.87315 0.0868,0.33187 -0.12528,0.93303 -0.54981,1.55861 -0.3801,0.56011 -0.6558,1.20378 -0.61267,1.43037 0.12119,0.63665 1.25118,0.65302 2.09342,0.0303 1.28415,-0.94941 0.83707,-0.12565 -0.62679,1.15491 -0.82258,0.71957 -1.64301,1.21114 -2.0214,1.21114 -0.61573,0 -0.63175,-0.0495 -0.48277,-1.49302 l 0.15409,-1.49303 -1.28034,1.3854 c -1.43802,1.55602 -2.01485,1.6449 -2.64889,0.40815 -0.22328,-0.43553 -0.43792,-0.84367 -0.47697,-0.90698 -0.0391,-0.0633 -0.52504,0.32826 -1.07998,0.87014 -1.26071,1.23106 -2.36313,1.3995 -2.8509,0.43559 -0.18409,-0.3638 -0.40232,-0.88356 -0.48494,-1.15503 -0.13183,-0.43314 -0.29581,-0.35937 -1.33946,0.60264 -1.08978,1.00452 -2.1443,1.61072 -2.80193,1.61072 -0.14266,0 -0.55163,-0.29224 -0.90881,-0.64943 z m 12.33199,-1.91888 c 1.0028,-0.8438 2.96563,-3.26866 2.7889,-3.44538 -0.0674,-0.0674 -0.8515,0.26586 -1.74236,0.74068 -2.1404,1.14082 -3.37746,2.60616 -2.73908,3.24454 0.33574,0.33573 0.84503,0.17329 1.69254,-0.53984 z m -38.609036,-2.19899 c 0.796709,-0.75789 1.035963,-1.14476 0.833296,-1.34743 -0.377423,-0.37742 -1.131617,0.0315 -2.032356,1.10199 -1.381639,1.64198 -0.466031,1.8294 1.19906,0.24544 z m 10.881222,0.57714 c 1.300493,-0.85754 1.981335,-2.15984 1.129165,-2.15984 -0.503944,0 -2.257777,1.75384 -2.257777,2.25778 0,0.5083 0.240947,0.48739 1.128612,-0.0979 z m 13.548574,-3.75897 c -0.22765,-0.36835 0.58153,-1.57587 1.05601,-1.57587 0.61913,0 0.743,0.51212 0.2908,1.20226 -0.44408,0.67776 -1.05423,0.84701 -1.34681,0.37361 z m 10.31035,-0.0136 c -0.26801,-0.43364 0.43328,-1.56227 0.97072,-1.56227 0.70733,0 0.85982,0.47683 0.38449,1.20226 -0.44886,0.68505 -1.05484,0.84603 -1.35521,0.36001 z m -34.247953,-1.43523 c 0,-0.0756 0.302015,-0.61597 0.671144,-1.20071 0.785956,-1.24504 1.81413,-1.83981 2.312596,-1.33777 0.255492,0.25732 0.06243,0.57305 -0.917818,1.50095 -1.062422,1.00569 -2.065922,1.50965 -2.065922,1.03753 z m 11.641667,-0.13271 c 0,-0.14864 0.305676,-0.73216 0.67928,-1.29672 0.639953,-0.96703 1.522387,-1.48566 2.012469,-1.18277 0.410067,0.25343 0.219141,0.61298 -0.892966,1.68159 -1.076272,1.03418 -1.798783,1.35467 -1.798783,0.7979 z"
         id="path853" />
    </g>
  </g>
</svg>
