<?xml version="1.0" encoding="UTF-8" standalone="no"?>
<svg
   xmlns:dc="http://purl.org/dc/elements/1.1/"
   xmlns:cc="http://creativecommons.org/ns#"
   xmlns:rdf="http://www.w3.org/1999/02/22-rdf-syntax-ns#"
   xmlns:svg="http://www.w3.org/2000/svg"
   xmlns="http://www.w3.org/2000/svg"
   xmlns:sodipodi="http://sodipodi.sourceforge.net/DTD/sodipodi-0.dtd"
   xmlns:inkscape="http://www.inkscape.org/namespaces/inkscape"
   viewBox="0 0 512 512"
   version="1.1"
   id="svg4"
   sodipodi:docname="quality.svg"
   width="512"
   height="512"
   inkscape:version="1.0.1 (3bc2e813f5, 2020-09-07)">
  <metadata
     id="metadata10">
    <rdf:RDF>
      <cc:Work
         rdf:about="">
        <dc:format>image/svg+xml</dc:format>
        <dc:type
           rdf:resource="http://purl.org/dc/dcmitype/StillImage" />
        <dc:title></dc:title>
      </cc:Work>
    </rdf:RDF>
  </metadata>
  <defs
     id="defs8" />
  <sodipodi:namedview
     pagecolor="#ffffff"
     bordercolor="#666666"
     borderopacity="1"
     objecttolerance="10"
     gridtolerance="10"
     guidetolerance="10"
     inkscape:pageopacity="0"
     inkscape:pageshadow="2"
     inkscape:window-width="1920"
     inkscape:window-height="1009"
     id="namedview6"
     showgrid="false"
     fit-margin-top="0"
     fit-margin-left="0"
     fit-margin-right="0"
     fit-margin-bottom="0"
     inkscape:zoom="0.82226563"
     inkscape:cx="255.56342"
     inkscape:cy="273.77635"
     inkscape:window-x="-8"
     inkscape:window-y="-8"
     inkscape:window-maximized="1"
     inkscape:current-layer="svg4" />
  <!--! Font Awesome Pro 6.3.0 by @fontawesome - https://fontawesome.com License - https://fontawesome.com/license (Commercial License) Copyright 2023 Fonticons, Inc. -->
  <path
     d="m 507.9,473.8 c 2.7,4 4.1,8.8 4.1,13.6 0,13.6 -11,24.6 -24.6,24.6 H 378.1 c -11.2,0 -21.7,-5.9 -27.4,-15.5 L 282.2,382.4 c 48.2,-6.1 91.3,-28.6 123.4,-61.9 z m -503.7,0 102.2,-153.3 c 32.1,33.3 75.2,55.8 123.4,61.9 l -68.5,114.1 c -5.8,9.6 -16.2,15.5 -27.4,15.5 H 24.6 C 11,512 0,501 0,487.4 0,482.6 1.4,477.8 4.1,473.8 Z M 432,176 a 176,176 0 1 1 -352,0 176,176 0 1 1 352,0 z m -184.4,94.9 c 3.4,7 13.3,7 16.8,0 l 22.4,-45.4 c 1.4,-2.8 4,-4.7 7,-5.1 l 50.2,-7.3 c 7.7,-1.1 10.7,-10.5 5.2,-16 l -36.3,-35.4 c -2.2,-2.2 -3.2,-5.2 -2.7,-8.3 l 8.6,-49.9 c 1.3,-7.6 -6.7,-13.5 -13.6,-9.9 l -44.8,23.6 c -2.7,1.4 -6,1.4 -8.7,0 L 206.9,93.6 C 200,90 192,95.8 193.3,103.5 l 8.6,49.9 c 0.5,3 -0.5,6.1 -2.7,8.3 l -36.3,35.4 c -5.6,5.4 -2.5,14.8 5.2,16 l 50.1,7.3 c 3,0.4 5.7,2.4 7,5.1 z"
     id="path2" />
</svg>
