<svg
   fill="currentColor"
   xmlns:dc="http://purl.org/dc/elements/1.1/"
   xmlns:cc="http://creativecommons.org/ns#"
   xmlns:rdf="http://www.w3.org/1999/02/22-rdf-syntax-ns#"
   xmlns:svg="http://www.w3.org/2000/svg"
   xmlns="http://www.w3.org/2000/svg"
   xmlns:sodipodi="http://sodipodi.sourceforge.net/DTD/sodipodi-0.dtd"
   xmlns:inkscape="http://www.inkscape.org/namespaces/inkscape"
   viewBox="0 0 832.74951 512.69379"
   version="1.1"
   id="svg4"
   sodipodi:docname="Social_life.svg"
   width="832.74951"
   height="512.69379"
   inkscape:version="1.0.1 (3bc2e813f5, 2020-09-07)">
  <metadata
     id="metadata10">
    <rdf:RDF>
      <cc:Work
         rdf:about="">
        <dc:format>image/svg+xml</dc:format>
        <dc:type
           rdf:resource="http://purl.org/dc/dcmitype/StillImage" />
        <dc:title></dc:title>
      </cc:Work>
    </rdf:RDF>
  </metadata>
  <defs
     id="defs8" />
  <sodipodi:namedview
     pagecolor="#ffffff"
     bordercolor="#666666"
     borderopacity="1"
     objecttolerance="10"
     gridtolerance="10"
     guidetolerance="10"
     inkscape:pageopacity="0"
     inkscape:pageshadow="2"
     inkscape:window-width="1920"
     inkscape:window-height="1009"
     id="namedview6"
     showgrid="false"
     fit-margin-top="0"
     fit-margin-left="0"
     fit-margin-right="0"
     fit-margin-bottom="0"
     inkscape:zoom="0.2907148"
     inkscape:cx="490.18915"
     inkscape:cy="302.78994"
     inkscape:window-x="-8"
     inkscape:window-y="-8"
     inkscape:window-maximized="1"
     inkscape:current-layer="svg4" />
  <g
     id="g852">
    <path
       d="m 288.74952,128 a 128,128 0 1 1 256,0 128,128 0 1 1 -256,0 z m -96,354.3 c 0,-98.5 79.8,-178.3 178.3,-178.3 h 91.4 c 98.5,0 178.3,79.8 178.3,178.3 0,16.4 -13.3,29.7 -29.7,29.7 h -388.6 c -16.4,0 -29.7,-13.3 -29.7,-29.7 z m 609.3,29.7 h -137.9 c 5.4,-9.4 8.6,-20.3 8.6,-32 v -8 c 0,-60.7 -27.1,-115.2 -69.8,-151.8 2.4,-0.1 4.7,-0.2 7.1,-0.2 h 61.4 c 89.1,0 161.3,72.2 161.3,161.3 0,17 -13.8,30.7 -30.7,30.7 z m -177.3,-256 c -31,0 -59,-12.6 -79.3,-32.9 19.7,-26.6 31.3,-59.5 31.3,-95.1 0,-26.8 -6.6,-52.1 -18.3,-74.3 18.6,-13.6 41.5,-21.7 66.3,-21.7 61.9,0 112,50.1 112,112 0,61.9 -50.1,112 -112,112 z"
       id="path2" />
    <path
       d="M 30.485778,512.04858 H 168.38578 c -5.4,-9.4 -8.6,-20.3 -8.6,-32 v -8 c 0,-60.7 27.1,-115.2 69.79999,-151.8 -2.4,-0.1 -4.7,-0.2 -7.1,-0.2 h -61.39999 c -89.100002,0 -161.3000019,72.2 -161.3000019,161.3 0,17 13.7999999,30.7 30.6999999,30.7 z m 177.300002,-256 c 30.99999,0 58.99999,-12.6 79.29999,-32.9 -19.7,-26.6 -31.3,-59.5 -31.3,-95.1 0,-26.8 6.6,-52.099995 18.3,-74.299995 -18.6,-13.6 -41.5,-21.7 -66.29999,-21.7 -61.9,0 -112.000002,50.1 -112.000002,111.999995 0,61.9 50.100002,112 112.000002,112 z"
       id="path2-5"
       sodipodi:nodetypes="scsscssssscscsss" />
  </g>
</svg>
