<?xml version="1.0" standalone="no"?>
<!DOCTYPE svg PUBLIC "-//W3C//DTD SVG 20010904//EN"
 "http://www.w3.org/TR/2001/REC-SVG-20010904/DTD/svg10.dtd">
<svg version="1.0" xmlns="http://www.w3.org/2000/svg"
 width="1024.000000pt" height="1024.000000pt" viewBox="0 0 1024.000000 1024.000000"
 preserveAspectRatio="xMidYMid meet">
<metadata>
Created by potrace 1.16, written by Peter Selinger 2001-2019
</metadata>
<g transform="translate(0.000000,1024.000000) scale(0.100000,-0.100000)"
fill="#000000" stroke="none">
<path d="M1535 8126 c-59 -18 -83 -33 -138 -85 -58 -54 -91 -115 -106 -196
-15 -83 -15 -5397 0 -5480 6 -33 21 -80 34 -105 29 -57 111 -135 173 -163 l47
-22 3580 0 3580 0 57 28 c77 38 134 96 171 175 l32 67 0 2760 0 2760 -31 65
c-37 78 -99 141 -174 178 l-55 27 -3565 2 c-2845 1 -3573 -1 -3605 -11z m7124
-251 c16 -8 36 -30 45 -49 15 -31 16 -255 16 -2721 0 -2466 -1 -2690 -16
-2721 -9 -19 -29 -41 -45 -49 -42 -22 -7025 -23 -7067 -1 -61 32 -57 -182 -57
2771 0 2921 -4 2733 53 2768 25 15 280 16 3535 17 3052 0 3512 -2 3536 -15z"/>
<path d="M2165 7276 c-60 -28 -97 -66 -124 -126 -20 -45 -21 -55 -21 -2039 0
-1537 3 -2003 12 -2035 16 -55 99 -138 154 -154 60 -18 5818 -18 5878 0 55 16
138 99 154 154 18 60 18 3998 0 4058 -16 55 -99 138 -154 154 -32 9 -694 12
-2945 12 l-2904 0 -50 -24z m5795 -1923 l0 -1676 -22 20 c-13 11 -417 375
-898 808 l-875 788 -385 -392 -386 -392 -724 785 c-399 432 -728 786 -732 786
-5 0 -758 -698 -1440 -1337 l-208 -195 0 1241 0 1241 2835 0 2835 0 0 -1677z
m-3365 -376 l607 -659 -128 -131 c-71 -72 -323 -329 -561 -569 l-432 -438
-895 0 -896 0 0 499 0 500 817 761 816 761 32 -33 c18 -18 305 -329 640 -691z
m2529 -912 l835 -750 0 -67 1 -68 -1746 0 -1746 0 159 165 c87 90 471 481 853
868 l695 704 58 -51 c31 -28 432 -388 891 -801z"/>
<path d="M6911 6915 c-179 -41 -350 -174 -429 -335 -55 -112 -72 -184 -72
-300 0 -192 55 -325 190 -461 92 -93 178 -144 295 -174 81 -21 243 -21 325 0
218 55 389 219 466 445 29 84 27 290 -3 385 -31 98 -87 189 -163 265 -124 123
-255 180 -435 186 -73 2 -131 -1 -174 -11z m302 -288 c79 -36 158 -113 193
-190 26 -55 29 -73 29 -162 0 -90 -3 -106 -29 -160 -77 -155 -249 -246 -408
-215 -309 60 -428 424 -212 644 82 83 170 117 289 113 61 -2 94 -10 138 -30z"/>
</g>
</svg>
