<svg id="SvgjsSvg1001" width="288" height="288" xmlns="http://www.w3.org/2000/svg" version="1.1" xmlns:xlink="http://www.w3.org/1999/xlink" xmlns:svgjs="http://svgjs.com/svgjs"><path id="SvgjsPath1027" d="M 144,0 C 5,0 0,5 0,144 0,283 5,288 144,288 283,288 288,283 288,144 288,5 283,0 144,0 Z" fill="#ffbf66" transform="matrix(0.7916,0,0,0.7916,30.009600000000006,30.009600000000006)"></path><defs id="SvgjsDefs1002"></defs><g id="SvgjsG1008" transform="matrix(0.4652,0,0,0.4652,77.43090265274047,78.79148927001953)"><svg xmlns="http://www.w3.org/2000/svg" width="288" height="288" viewBox="0 0 16.933 16.933"><g transform="translate(-44.581 -28.553)" fill="#303a52" class="color000 svgShape"><text x="51.725" y="39.665" stroke-width=".265" font-family="sans-serif" font-size="10.583" font-weight="400" style="line-height:1.25" svgjs:data="{&quot;leading&quot;:&quot;1.3&quot;}"></text><path d="m 49.555942,42.927655 c -1.469545,-0.217653 -2.74292,-1.28618 -3.20997,-2.693509 -0.181678,-0.547413 -0.189714,-0.635822 -0.204598,-2.252183 l -0.01343,-1.478554 -0.131701,-0.05451 c -0.204554,-0.08457 -0.391699,-0.268832 -0.503366,-0.495531 l -0.09914,-0.201251 -0.0094,-0.856746 c -0.0081,-0.796106 -0.0053,-0.871335 0.05328,-1.062793 0.07798,-0.256892 0.311718,-0.527781 0.540045,-0.626002 l 0.147333,-0.06341 0.0339,-0.227754 c 0.10795,-0.725686 0.464077,-1.193748 1.059513,-1.392459 0.158121,-0.05277 0.426445,-0.05581 5.730716,-0.06464 4.060007,-0.0068 5.625987,5e-5 5.791029,0.02516 0.712271,0.108406 1.17213,0.643407 1.311425,1.525679 0.01761,0.111953 0.03103,0.127387 0.136391,0.158958 0.201053,0.06024 0.405276,0.248261 0.517714,0.476669 l 0.10059,0.204268 v 0.980885 c 0,0.944148 -0.0021,0.986215 -0.06574,1.123167 -0.09641,0.208847 -0.316878,0.429911 -0.507227,0.508808 l -0.161094,0.06677 -0.01343,1.465843 c -0.01122,1.185187 -0.023,1.512913 -0.0623,1.711645 -0.334065,1.687407 -1.692145,2.981787 -3.382415,3.22375 -0.426097,0.06097 -6.644078,0.05887 -7.057811,-0.0021 z m 1.312007,-0.503764 c -6.2e-5,-0.229939 -0.06793,-0.788918 -0.138196,-1.138596 -0.208517,-1.037565 -0.63411,-1.886024 -1.264313,-2.520584 -0.458551,-0.461709 -1.015265,-0.805286 -1.64812,-1.017159 -0.254961,-0.0854 -0.826602,-0.216001 -1.076771,-0.246097 l -0.161137,-0.01938 0.01409,0.989197 c 0.01123,0.790355 0.02439,1.034679 0.06583,1.215413 0.168712,0.735003 0.457205,1.259719 0.979373,1.78128 0.43885,0.438344 0.839122,0.689803 1.387492,0.871633 0.409675,0.135841 0.700517,0.175757 1.306522,0.179213 l 0.535378,0.003 z m 4.025355,-0.196056 c 0.02838,-0.427696 0.107614,-0.975522 0.154467,-1.067082 0.06866,-0.134102 0.221803,-0.157483 0.334947,-0.05118 0.08185,0.07686 0.08562,0.147532 0.02708,0.507488 -0.023,0.141014 -0.05148,0.402283 -0.06334,0.580615 l -0.0218,0.324222 0.508807,-1.17e-4 c 0.942468,-2.29e-4 1.533153,-0.164991 2.238487,-0.624318 0.231193,-0.15057 0.778925,-0.703103 0.935769,-0.943963 0.153101,-0.235154 0.336964,-0.611188 0.420282,-0.859612 0.14795,-0.44115 0.163868,-0.585862 0.178465,-1.622591 l 0.01409,-0.989204 -0.161181,0.01981 c -0.268967,0.03287 -0.718038,0.134586 -1.02075,0.231099 -1.202294,0.383339 -2.098674,1.202427 -2.609314,2.384347 -0.07012,0.16215 -0.151626,0.321609 -0.181303,0.3544 -0.103413,0.114287 -0.319328,0.05013 -0.358655,-0.106626 -0.01409,-0.05566 0.02206,-0.174148 0.129301,-0.424914 0.260872,-0.610178 0.565597,-1.060358 1.029061,-1.520193 0.770826,-0.764785 1.731129,-1.200517 3.023942,-1.372112 l 0.14326,-0.01893 V 36.790456 36.55188 l -1.90772,-0.0081 -1.907729,-0.0081 -0.179675,-0.08821 c -0.235151,-0.115454 -0.410758,-0.300262 -0.516949,-0.544052 -0.08043,-0.184562 -0.09217,-0.197156 -0.183594,-0.197156 -0.26208,0 -0.614607,-0.221424 -0.740964,-0.465442 -0.08663,-0.167368 -0.109509,-0.589102 -0.04256,-0.785626 0.101535,-0.297849 0.357155,-0.493861 0.736104,-0.564335 0.179389,-0.03338 0.185576,-0.03776 0.233922,-0.16422 0.07065,-0.185047 0.281335,-0.405476 0.487172,-0.509772 l 0.176438,-0.08939 1.922794,-0.0086 c 1.638467,-0.0073 1.922809,-0.01475 1.922809,-0.05132 0,-0.09872 -0.07314,-0.37366 -0.139143,-0.523473 -0.134035,-0.304019 -0.370264,-0.508336 -0.683743,-0.591424 -0.171572,-0.04548 -0.664069,-0.04894 -5.782528,-0.0408 l -5.59498,0.0088 -0.144648,0.06739 c -0.385325,0.1795 -0.610627,0.506253 -0.672933,0.97596 l -0.01959,0.148059 h 0.833326 c 0.793113,0 0.836242,0.003 0.89365,0.06033 0.07045,0.07035 0.07851,0.204774 0.01761,0.288319 -0.04035,0.05531 -0.09787,0.05947 -1.033034,0.07506 -1.05423,0.01762 -1.096838,0.02347 -1.257999,0.173952 -0.186809,0.174478 -0.198455,0.240334 -0.198455,1.121606 0,0.713399 0.0064,0.812239 0.05566,0.91992 0.06739,0.146012 0.162855,0.237895 0.311914,0.300168 0.09705,0.04058 0.373666,0.0466 2.110898,0.04597 1.880889,-6.23e-4 2.006452,-0.0042 2.122198,-0.05652 0.135687,-0.06159 0.253983,-0.191476 0.253983,-0.278658 0,-0.05302 -0.03516,-0.05628 -0.625854,-0.05628 l -0.625851,-2.5e-5 -0.182735,-0.08643 c -0.340303,-0.161031 -0.541752,-0.50118 -0.520394,-0.878714 0.01959,-0.34563 0.212986,-0.626771 0.537227,-0.780799 0.158275,-0.07519 0.194931,-0.07948 0.796239,-0.09392 l 0.630345,-0.01519 -0.08353,-0.09914 c -0.161027,-0.191145 -0.201581,-0.200128 -0.956432,-0.212281 -0.628172,-0.01053 -0.688349,-0.01563 -0.736437,-0.06887 -0.06814,-0.07534 -0.06686,-0.221258 0.0021,-0.298013 0.05211,-0.05757 0.09183,-0.06069 0.766616,-0.06088 0.86272,-1.82e-4 0.92064,0.01343 1.196855,0.286394 0.123753,0.122168 0.19819,0.225146 0.228324,0.315834 0.04399,0.13245 0.04765,0.135114 0.223606,0.168315 0.335201,0.06324 0.560653,0.210982 0.683876,0.448301 0.08831,0.170031 0.110477,0.613755 0.04108,0.822597 -0.09786,0.294618 -0.374526,0.506052 -0.717494,0.548285 -0.156933,0.01938 -0.157856,0.02026 -0.211467,0.170252 -0.07093,0.198566 -0.192246,0.367565 -0.350685,0.488397 -0.250352,0.190948 -0.241518,0.190221 -2.318282,0.190221 h -1.879621 v 0.23782 0.237819 l 0.248816,0.03568 c 1.232462,0.17688 2.180614,0.620173 2.935578,1.372537 0.907957,0.904818 1.432211,2.198714 1.537234,3.794031 l 0.01938,0.294065 h 1.773913 1.773897 z m -2.220799,-3.819881 c -0.31877,-0.112548 -0.477415,-0.238526 -0.477415,-0.379176 0,-0.225266 0.184982,-0.270178 0.469688,-0.114022 0.162127,0.08883 0.202726,0.09797 0.43516,0.09797 0.232429,0 0.273047,-0.0094 0.435155,-0.09797 0.213317,-0.116972 0.355238,-0.127365 0.422738,-0.03103 0.09903,0.141367 0.05801,0.262342 -0.12917,0.38162 -0.347095,0.221141 -0.781821,0.274742 -1.156176,0.142578 z m -2.161209,-0.2388 c -0.05703,-0.06065 -0.06555,-0.10427 -0.06555,-0.333152 0,-0.239402 0.0064,-0.270075 0.07408,-0.337369 0.08883,-0.08881 0.195263,-0.09478 0.292104,-0.01629 0.06572,0.05326 0.07125,0.07948 0.07125,0.343684 0,0.238978 -0.0094,0.296482 -0.05739,0.349524 -0.07851,0.08686 -0.229677,0.08384 -0.314298,-0.0064 z m 4.86298,0.0064 c -0.04804,-0.05306 -0.05739,-0.110567 -0.05739,-0.349522 0,-0.264203 0.0053,-0.290441 0.07114,-0.343688 0.09685,-0.07845 0.203276,-0.07236 0.292103,0.01629 0.06752,0.06752 0.07404,0.09769 0.07404,0.341591 0,0.240714 -0.0073,0.274157 -0.06979,0.33315 -0.08996,0.08457 -0.234584,0.08551 -0.310086,0.0021 z m 4.653332,-2.110068 c 0.04672,-0.01761 0.123907,-0.06856 0.171572,-0.113098 0.162503,-0.151935 0.169768,-0.200503 0.169042,-1.128171 -6.77e-4,-0.947423 -0.01542,-1.030755 -0.203475,-1.164742 -0.170913,-0.121706 -0.303528,-0.128575 -2.316163,-0.119373 -1.926936,0.0086 -1.928651,0.0094 -2.053882,0.07583 -0.06896,0.03683 -0.155039,0.104726 -0.191365,0.150812 l -0.06596,0.08384 0.613601,0.01519 c 0.583131,0.01431 0.621835,0.01893 0.779492,0.09392 0.324218,0.154026 0.517669,0.435169 0.537227,0.780804 0.02114,0.377534 -0.180094,0.71769 -0.520396,0.878685 l -0.182735,0.08646 -0.625851,2e-5 c -0.382069,1.1e-5 -0.625853,0.01145 -0.625853,0.02904 0,0.06001 0.199974,0.25382 0.316451,0.306725 0.112988,0.05127 0.25146,0.05493 2.117153,0.05553 1.338675,4.47e-4 2.024204,-0.01031 2.081147,-0.03133 z m -8.729,-0.814255 c 0.251385,-0.06981 0.407711,-0.316127 0.353404,-0.556921 -0.03485,-0.154709 -0.105432,-0.246728 -0.242827,-0.316813 -0.115784,-0.05907 -0.163559,-0.06159 -1.022902,-0.05319 -0.860094,0.0086 -0.905327,0.01189 -0.986523,0.07187 -0.137052,0.101654 -0.220831,0.248212 -0.220761,0.386249 9.2e-5,0.229179 0.147663,0.419059 0.365605,0.470529 0.154774,0.03652 1.621408,0.03505 1.754033,-0.0021 z m 5.477894,-0.04339 c 0.15352,-0.0904 0.222469,-0.201912 0.237003,-0.383305 0.01431,-0.177341 -0.05064,-0.30764 -0.213381,-0.428287 -0.08124,-0.06024 -0.12644,-0.06345 -0.986512,-0.07187 -0.85933,-0.0081 -0.907096,-0.0064 -1.022902,0.05319 -0.374614,0.19108 -0.327398,0.714414 0.0778,0.862616 0.09194,0.0336 0.294324,0.04108 0.961027,0.03538 0.782812,-0.0073 0.852007,-0.01189 0.946935,-0.06763 z" fill="#303a52" class="color000 svgShape"></path><path fill="#6666ff" d="M 19.300642,52.565675 C 17.8067,52.370749 16.345497,51.894114 14.792836,51.095264 12.803853,50.071924 10.301914,47.569848 9.2724709,45.574597 8.045483,43.196469 7.8207629,42.071688 7.6902758,37.655312 l -0.1139968,-3.85826 0.6914629,0.11812 c 8.9589921,1.530432 13.9424901,6.883162 15.1883841,16.313705 0.145163,1.098787 0.263933,2.113043 0.263933,2.253904 0,0.207702 -0.325774,0.25173 -1.723573,0.232931 -0.947965,-0.01275 -2.161095,-0.08027 -2.695844,-0.150037 z" transform="matrix(.26458 0 0 .26458 44.581 28.553)" class="colorfff svgShape"></path><path fill="#6666ff" d="M 25.486783,51.810814 C 25.483848,49.20268 24.525766,45.178751 23.277742,42.532943 20.538084,36.724872 15.863433,33.303009 9.1359815,32.181119 l -1.4142136,-0.235838 -0.053516,-0.819602 -0.053516,-0.8196 7.4913841,-0.05311 7.491384,-0.05311 0.652039,-0.441942 c 0.642504,-0.43548 1.262106,-1.237233 1.65419,-2.140492 0.15059,-0.346923 0.371547,-0.48852 0.892245,-0.571782 0.804942,-0.128716 1.712803,-0.700778 2.238855,-1.410747 0.309796,-0.418107 0.369808,-0.753075 0.369808,-2.064164 0,-1.311088 -0.06001,-1.646056 -0.369808,-2.064163 -0.52491,-0.708428 -1.379188,-1.245413 -2.202625,-1.384532 -0.609925,-0.103046 -0.790565,-0.248624 -1.303534,-1.050524 -1.075919,-1.681934 -1.302464,-1.767644 -4.842464,-1.832085 -3.237919,-0.05894 -3.570098,0.01004 -3.564842,0.74029 0.0058,0.806542 0.174873,0.860881 3.03815,0.976464 2.174114,0.08776 2.821088,0.173023 3.200778,0.421805 0.261734,0.171495 0.475879,0.381896 0.475879,0.467558 0,0.08566 -1.09981,0.183265 -2.444022,0.216895 -2.304254,0.05765 -2.484981,0.08827 -3.160208,0.535382 -2.285794,1.513583 -2.110824,4.924506 0.316124,6.162643 0.569714,0.290646 1.043832,0.345801 2.972534,0.345801 1.262089,0 2.33939,0.0723 2.394003,0.160664 0.05461,0.08836 -0.145671,0.366788 -0.445072,0.618718 l -0.544369,0.458055 -3.654553,0.02214 c -2.010004,0.01218 -5.523967,0.004 -7.808805,-0.01807 -5.7365551,-0.05553 -5.5409919,0.09212 -5.6248216,-4.246706 -0.06313,-3.267443 0.091026,-4.060587 0.9069087,-4.666131 0.4530781,-0.336272 0.8350544,-0.380256 4.3222679,-0.497704 2.103897,-0.07086 3.928648,-0.168503 4.055,-0.216989 0.28867,-0.110773 0.30094,-1.017995 0.0176,-1.301335 -0.149142,-0.149142 -1.148864,-0.212132 -3.366768,-0.212132 H 7.617359 l 0.1188019,-0.662912 c 0.2798127,-1.561351 1.120478,-2.754159 2.4092441,-3.418442 0.635058,-0.327336 1.323936,-0.338063 21.709447,-0.338063 14.771799,0 21.284829,0.05823 21.82862,0.195158 1.409731,0.354974 2.551904,1.710609 2.980095,3.537047 0.103996,0.443593 0.07172,0.466226 -0.817075,0.572988 -0.50894,0.06113 -3.772411,0.111843 -7.252156,0.112688 -5.876892,0.0014 -6.37345,0.02553 -6.982679,0.3389 -0.763608,0.392782 -1.47176,1.111862 -1.866886,1.895695 -0.211547,0.419657 -0.439092,0.583693 -0.940037,0.677671 -0.988347,0.185416 -1.92312,0.722931 -2.384816,1.371323 -0.526977,0.740069 -0.674741,2.741135 -0.273354,3.701793 0.33419,0.799827 1.32741,1.563063 2.382768,1.83103 0.46597,0.118314 0.896449,0.352807 0.998723,0.544029 0.652612,1.220194 1.08042,1.709028 1.914096,2.187136 l 0.927849,0.532117 7.213336,0.0017 7.213336,0.0017 -0.05388,0.828515 -0.05388,0.828516 -1.414214,0.235837 c -3.30481,0.551121 -6.539585,1.84521 -8.694611,3.478328 -1.489194,1.128537 -3.419199,3.231138 -4.37173,4.762684 -0.980376,1.576316 -1.928441,3.903256 -1.780375,4.369768 0.116241,0.366248 0.800028,0.625324 1.22252,0.463199 0.139461,-0.05352 0.732515,-1.036576 1.317901,-2.18458 1.806173,-3.542101 3.965071,-5.739992 7.179771,-7.309453 1.642547,-0.801914 4.061998,-1.55267 5.903566,-1.831879 l 0.777043,-0.117811 -0.124716,3.76271 c -0.145795,4.398657 -0.340696,5.431986 -1.459366,7.737251 -0.702383,1.447416 -1.04571,1.907316 -2.513084,3.366376 -2.804635,2.788748 -5.254537,3.800936 -9.698705,4.007065 -2.737299,0.126961 -2.484948,0.453361 -2.073882,-2.682429 0.285079,-2.1747 0.21577,-2.622143 -0.438322,-2.829743 -0.912031,-0.289468 -1.289738,0.550833 -1.508745,3.356578 -0.06071,0.777817 -0.146892,1.5932 -0.191505,1.811961 l -0.08112,0.397742 h -6.625759 -6.625758 l -0.0011,-0.928077 z m 9.063845,-14.780841 c 0.943685,-0.461604 1.271307,-0.914604 1.114197,-1.540582 -0.151784,-0.604759 -0.79727,-0.707705 -1.664218,-0.265422 -0.963919,0.491754 -2.526735,0.493319 -3.633742,0.0036 -0.950868,-0.420615 -1.472975,-0.328037 -1.627746,0.288627 -0.41104,1.637707 3.483984,2.652253 5.811509,1.513739 z M 23.706854,36.402959 c 0.126008,-0.15183 0.186289,-0.714645 0.154227,-1.439953 -0.0607,-1.373093 -0.317599,-1.684998 -1.14816,-1.393985 -0.469289,0.164431 -0.498245,0.237289 -0.548097,1.379143 -0.05925,1.357048 0.113458,1.704048 0.848128,1.704048 0.267872,0 0.580126,-0.112163 0.693902,-0.249253 z m 18.362626,0.03712 c 0.119581,-0.119581 0.212132,-0.692516 0.212132,-1.313198 0,-1.203337 -0.259826,-1.656651 -0.949544,-1.656651 -0.641485,0 -0.818223,0.343656 -0.818223,1.590991 0,1.277729 0.174033,1.59099 0.883884,1.59099 0.25279,0 0.555078,-0.09546 0.671751,-0.212132 z" transform="matrix(.26458 0 0 .26458 44.581 28.553)" class="colorfff svgShape"></path><path fill="#6666ff" d="M18.474871 25.080805C17.41803 24.621087 17.202802 23.408377 18.01901 22.512247l.486136-.533737 3.455197-.0434c3.843509-.04827 4.139869.02306 4.587721 1.104273.319304.770867-.114703 1.687204-.967972 2.043723-.843677.352511-6.293604.350742-7.105221-.0023zM38.746281 25.028869c-1.196896-.598112-1.344607-1.982434-.295137-2.765968.471436-.351974.680857-.369248 3.976019-.327967l3.478371.04358.486136.533737c.87362.959163.505027 2.303474-.725281 2.645203-.354606.09849-1.91753.179402-3.473165.179793-2.340088.000588-2.935217-.05265-3.446943-.308374z" transform="matrix(.26458 0 0 .26458 44.581 28.553)" class="colorfff svgShape"></path><path fill="#6666ff" d="m 42.118399,27.886051 c -0.299142,-0.251711 -0.543894,-0.530134 -0.543894,-0.618718 0,-0.08865 1.053096,-0.16237 2.342292,-0.163971 2.097542,-0.0026 2.415409,-0.04432 3.042045,-0.399247 0.384865,-0.217987 0.940257,-0.738533 1.234205,-1.15677 0.453852,-0.645753 0.534938,-0.925447 0.537683,-1.854656 0.0041,-1.373788 -0.453265,-2.309089 -1.485829,-3.038768 -0.729856,-0.515765 -0.815845,-0.532026 -3.130922,-0.592083 -2.535012,-0.06576 -2.799685,-0.19088 -1.645063,-0.777662 0.550197,-0.279611 1.312497,-0.309111 7.994296,-0.309359 7.945052,-2.96e-4 8.320705,0.03859 8.818928,0.912837 0.173968,0.305269 0.2352,1.325413 0.2352,3.918554 v 3.505841 l -0.577314,0.515829 -0.577312,0.515829 h -7.850211 -7.850211 z" transform="matrix(.26458 0 0 .26458 44.581 28.553)" class="colorfff svgShape"></path></g></svg></g></svg>